<svg width="131" height="137" viewBox="0 0 131 137" fill="none" xmlns="http://www.w3.org/2000/svg">
<g filter="url(#filter0_d_948_726)">
<rect x="34.8301" y="17.2734" width="63.9339" height="111.544" rx="4" fill="white"/>
<rect x="38.9102" y="26.7949" width="55.7721" height="84.3384" rx="4" fill="#E7E7E7"/>
<path opacity="0.4" d="M94.6269 35.1738L38.9668 103.245V111.142H94.6269V103.245V35.1738Z" fill="white"/>
<circle cx="66.7952" cy="119.975" r="4.76104" fill="#C4C4C4"/>
<rect x="57.9541" y="21.3545" width="17.6838" height="2.72059" rx="1.3603" fill="#C4C4C4"/>
</g>
<g clip-path="url(#clip0_948_726)">
<path d="M122.234 48.4225C122.234 48.4225 109.056 41.8115 99.0765 41.8115C89.0973 41.8115 75.9186 48.4225 75.9186 48.4225V72.0644C75.9186 81.9894 81.2625 90.0741 89.9271 95.0108L99.0693 100.22L99.076 100.224L108.225 95.0108C116.89 90.0741 122.234 81.9904 122.234 72.0654V48.4225H122.234Z" fill="#F770FF"/>
<path d="M91.8179 91.0322C88.336 89.0482 85.4324 86.1757 83.4201 82.7241C81.4083 79.2731 80.3447 75.3407 80.3447 71.3524V51.686L77.5837 49.9609L77.5728 49.9666V71.3524C77.5728 75.8254 78.7652 80.2347 81.0218 84.1049C83.2779 87.9752 86.5346 91.1967 90.4394 93.4216L98.3825 97.9476L99.0768 98.3421V95.168L91.8179 91.0322V91.0322Z" fill="#E7DFFF"/>
<path d="M117.809 71.3532C117.809 75.3414 116.745 79.2738 114.733 82.7244C112.721 86.1754 109.817 89.048 106.336 91.0315L99.077 95.1672V98.3414H99.078L107.715 93.4208C111.62 91.196 114.876 87.9749 117.132 84.1047C119.388 80.2349 120.581 75.8251 120.581 71.3527V49.9688L117.809 51.7009V71.3532H117.809Z" fill="#7542E5"/>
<path d="M119.819 49.5841C119.699 49.5238 116.839 48.0956 112.863 46.6489C107.473 44.6877 102.835 43.6934 99.0762 43.6934C95.3175 43.6934 90.6793 44.6877 85.2896 46.6489C81.3137 48.0956 78.4535 49.5243 78.3337 49.5841L77.5836 49.9605L80.3446 51.6856V51.6785C83.0044 50.4361 92.0908 46.4474 99.0767 46.4474C106.063 46.4474 115.149 50.4361 117.809 51.6785V51.7008L120.581 49.9686V49.9658L119.819 49.5841H119.819Z" fill="#AB71FF"/>
<path d="M117.403 82.7111C117.549 82.7114 117.673 82.816 117.7 82.9597C117.802 83.5433 118.187 85.1779 118.737 85.7291C119.287 86.2802 120.92 86.6693 121.5 86.772C121.638 86.7963 121.741 86.9148 121.745 87.0557L117.4 87.0557L117.403 82.7111Z" fill="#FFEA80"/>
<path d="M121.745 87.0559C121.744 87.2015 121.638 87.3253 121.494 87.3489C120.911 87.443 119.281 87.8086 118.731 88.3544C118.18 88.9001 117.797 90.5508 117.697 91.153C117.672 91.2967 117.547 91.4012 117.4 91.4004L117.4 87.0559L121.745 87.0559Z" fill="#FFD567"/>
<path d="M117.4 87.0557L113.056 87.0557C113.056 86.9106 113.16 86.7867 113.303 86.7619C113.894 86.6595 115.546 86.2714 116.096 85.7216C116.645 85.1718 117.012 83.5439 117.106 82.9645C117.129 82.8194 117.253 82.7121 117.4 82.7111L117.4 87.0557Z" fill="#FFD567"/>
<path d="M117.4 91.4004C117.254 91.4008 117.129 91.2943 117.106 91.1496C117.012 90.559 116.645 88.9086 116.096 88.3584C115.546 87.8083 113.899 87.4442 113.309 87.3498C113.164 87.3263 113.058 87.2024 113.056 87.0559L117.4 87.0559L117.4 91.4004Z" fill="#FFA266"/>
<path fill-rule="evenodd" clip-rule="evenodd" d="M90.1146 69.1735C90.1146 74.3661 94.3241 78.5756 99.5167 78.5756C104.707 78.5699 108.913 74.3638 108.919 69.1735C108.919 63.9809 104.709 59.7715 99.5167 59.7715C94.3241 59.7715 90.1146 63.9809 90.1146 69.1735ZM91.995 69.1735C91.995 65.0194 95.3626 61.6519 99.5167 61.6519C103.669 61.6566 107.034 65.0214 107.038 69.1735C107.038 73.3276 103.671 76.6952 99.5167 76.6952C95.3626 76.6952 91.995 73.3276 91.995 69.1735ZM104.843 71.2506C103.983 70.258 102.919 70.7034 101.758 71.1892C101.039 71.4899 100.283 71.8061 99.5164 71.8061C98.75 71.8061 97.9946 71.49 97.276 71.1894C96.1148 70.7035 95.0496 70.2579 94.1894 71.2506C93.7945 71.7061 93.7629 72.3695 94.1012 72.867C95.2819 74.6045 97.2563 75.755 99.5164 75.755C101.776 75.755 103.751 74.6045 104.932 72.867C105.271 72.3695 105.238 71.7061 104.843 71.2506ZM103.513 66.588C103.513 68.795 101.724 70.5838 99.5167 70.5838C97.3096 70.5838 95.5208 68.795 95.5208 66.588C95.5208 64.3809 97.3096 62.5921 99.5167 62.5921C101.724 62.5921 103.513 64.3809 103.513 66.588Z" fill="white"/>
<mask id="mask0_948_726" style="mask-type:alpha" maskUnits="userSpaceOnUse" x="90" y="59" width="19" height="20">
<path fill-rule="evenodd" clip-rule="evenodd" d="M90.1146 69.1735C90.1146 74.3661 94.3241 78.5756 99.5167 78.5756C104.707 78.5699 108.913 74.3638 108.919 69.1735C108.919 63.9809 104.709 59.7715 99.5167 59.7715C94.3241 59.7715 90.1146 63.9809 90.1146 69.1735ZM91.995 69.1735C91.995 65.0194 95.3626 61.6519 99.5167 61.6519C103.669 61.6566 107.034 65.0214 107.038 69.1735C107.038 73.3276 103.671 76.6952 99.5167 76.6952C95.3626 76.6952 91.995 73.3276 91.995 69.1735ZM104.843 71.2506C103.983 70.258 102.919 70.7034 101.758 71.1892C101.039 71.4899 100.283 71.8061 99.5164 71.8061C98.75 71.8061 97.9946 71.49 97.276 71.1894C96.1148 70.7035 95.0496 70.2579 94.1894 71.2506C93.7945 71.7061 93.7629 72.3695 94.1012 72.867C95.2819 74.6045 97.2563 75.755 99.5164 75.755C101.776 75.755 103.751 74.6045 104.932 72.867C105.271 72.3695 105.238 71.7061 104.843 71.2506ZM103.513 66.588C103.513 68.795 101.724 70.5838 99.5167 70.5838C97.3096 70.5838 95.5208 68.795 95.5208 66.588C95.5208 64.3809 97.3096 62.5921 99.5167 62.5921C101.724 62.5921 103.513 64.3809 103.513 66.588Z" fill="white"/>
</mask>
<g mask="url(#mask0_948_726)">
</g>
</g>
<path d="M13.2927 87.9768C13.0815 87.9772 12.9008 88.1288 12.863 88.3371C12.7146 89.1829 12.156 91.552 11.3592 92.3508C10.5624 93.1496 8.19526 93.7135 7.35545 93.8623C7.15469 93.8975 7.00622 94.0692 7 94.2734L13.2966 94.2734L13.2927 87.9768Z" fill="#FFEA80"/>
<path d="M7 94.2737C7.00101 94.4847 7.15472 94.6642 7.36372 94.6984C8.20848 94.8348 10.5707 95.3647 11.3685 96.1557C12.1664 96.9466 12.7217 99.339 12.8664 100.212C12.9027 100.42 13.0846 100.572 13.2966 100.57L13.2966 94.2737L7 94.2737Z" fill="#FFD567"/>
<path d="M13.2969 94.2734L19.5935 94.2734C19.5928 94.0631 19.4413 93.8837 19.2341 93.8477C18.3787 93.6992 15.9843 93.1368 15.1874 92.3399C14.3906 91.5431 13.8594 89.1838 13.7226 88.344C13.6901 88.1337 13.5097 87.9781 13.2969 87.9768L13.2969 94.2734Z" fill="#FFD567"/>
<path d="M13.2969 100.57C13.509 100.571 13.6899 100.417 13.7226 100.207C13.8594 99.3509 14.3906 96.9588 15.1874 96.1615C15.9843 95.3642 18.3709 94.8365 19.2263 94.6997C19.4358 94.6656 19.5906 94.486 19.5935 94.2737L13.2969 94.2737L13.2969 100.57Z" fill="#FFA266"/>
<path d="M84.682 30.0611C84.7898 30.0613 84.8822 30.1387 84.9014 30.2451C84.9773 30.6771 85.2626 31.8872 85.6696 32.2953C86.0766 32.7033 87.2857 32.9913 87.7147 33.0673C87.8172 33.0853 87.8931 33.173 87.8962 33.2773L84.68 33.2773L84.682 30.0611Z" fill="#FFEA80"/>
<path d="M87.8964 33.2769C87.8958 33.3847 87.8173 33.4764 87.7106 33.4938C87.2791 33.5635 86.0725 33.8342 85.6649 34.2382C85.2574 34.6422 84.9737 35.8642 84.8998 36.3101C84.8813 36.4164 84.7884 36.4938 84.6801 36.4932L84.6801 33.2769L87.8964 33.2769Z" fill="#FFD567"/>
<path d="M84.6796 33.2773L81.4633 33.2773C81.4636 33.1699 81.541 33.0783 81.6468 33.0599C82.0838 32.984 83.3069 32.6967 83.7139 32.2897C84.1209 31.8827 84.3923 30.6776 84.4621 30.2486C84.4787 30.1412 84.5709 30.0617 84.6796 30.0611L84.6796 33.2773Z" fill="#FFD567"/>
<path d="M84.6796 36.4932C84.5712 36.4935 84.4788 36.4146 84.4621 36.3075C84.3923 35.8703 84.1209 34.6484 83.7139 34.2412C83.3069 33.8339 82.0878 33.5644 81.6508 33.4945C81.5439 33.4771 81.4648 33.3853 81.4633 33.2769L84.6796 33.2769L84.6796 36.4932Z" fill="#FFA266"/>
<path d="M22.3603 45.8557C22.4466 45.8558 22.5205 45.9178 22.5359 46.0029C22.5966 46.3485 22.8248 47.3166 23.1504 47.643C23.4761 47.9695 24.4433 48.1999 24.7865 48.2607C24.8685 48.2751 24.9292 48.3453 24.9318 48.4287L22.3587 48.4287L22.3603 45.8557Z" fill="#FFEA80"/>
<path d="M24.9318 48.4289C24.9313 48.5152 24.8685 48.5885 24.7831 48.6025C24.4379 48.6582 23.4727 48.8748 23.1466 49.198C22.8206 49.5212 22.5937 50.4988 22.5345 50.8555C22.5197 50.9405 22.4454 51.0024 22.3587 51.002L22.3587 48.4289L24.9318 48.4289Z" fill="#FFD567"/>
<path d="M22.3584 48.4287L19.7854 48.4287C19.7857 48.3428 19.8476 48.2694 19.9322 48.2547C20.2818 48.1941 21.2602 47.9642 21.5859 47.6386C21.9115 47.313 22.1286 46.3489 22.1844 46.0057C22.1977 45.9198 22.2714 45.8562 22.3584 45.8557L22.3584 48.4287Z" fill="#FFD567"/>
<path d="M22.3584 51.002C22.2717 51.0022 22.1978 50.9391 22.1844 50.8534C22.1286 50.5036 21.9115 49.5262 21.5859 49.2004C21.2602 48.8745 20.285 48.6589 19.9354 48.603C19.8498 48.5891 19.7866 48.5157 19.7854 48.4289L22.3584 48.4289L22.3584 51.002Z" fill="#FFA266"/>
<path d="M84.8983 74.4384C84.9631 74.4385 85.0185 74.485 85.03 74.5488C85.0755 74.808 85.2467 75.5341 85.4909 75.7789C85.7351 76.0237 86.4606 76.1965 86.718 76.2422C86.7795 76.2529 86.825 76.3056 86.8269 76.3682L84.8971 76.3682L84.8983 74.4384Z" fill="#FFEA80"/>
<path d="M86.827 76.3681C86.8267 76.4328 86.7796 76.4878 86.7156 76.4983C86.4567 76.54 85.7327 76.7025 85.4882 76.9449C85.2437 77.1873 85.0735 77.9205 85.0291 78.188C85.018 78.2518 84.9622 78.2982 84.8973 78.2978L84.8973 76.3681L86.827 76.3681Z" fill="#FFD567"/>
<path d="M84.8973 76.3682L82.9676 76.3682C82.9678 76.3037 83.0142 76.2487 83.0777 76.2377C83.3399 76.1922 84.0737 76.0198 84.3179 75.7756C84.5621 75.5314 84.725 74.8083 84.7669 74.5509C84.7768 74.4865 84.8321 74.4388 84.8973 74.4384L84.8973 76.3682Z" fill="#FFD567"/>
<path d="M84.8973 78.2979C84.8323 78.298 84.7769 78.2507 84.7669 78.1864C84.725 77.9241 84.5621 77.191 84.3179 76.9467C84.0737 76.7023 83.3423 76.5406 83.0801 76.4987C83.0159 76.4882 82.9685 76.4332 82.9676 76.3681L84.8973 76.3681L84.8973 78.2979Z" fill="#FFA266"/>
<path d="M32.1232 17.2728C31.8859 17.2733 31.6827 17.4436 31.6403 17.6777C31.4735 18.6281 30.8458 21.2904 29.9504 22.188C29.0549 23.0857 26.3949 23.7194 25.4512 23.8866C25.2256 23.9261 25.0587 24.1191 25.0518 24.3486L32.1276 24.3486L32.1232 17.2728Z" fill="#FFEA80"/>
<path d="M25.0518 24.349C25.0529 24.5861 25.2256 24.7878 25.4605 24.8263C26.4098 24.9795 29.0643 25.575 29.9609 26.4639C30.8574 27.3527 31.4815 30.0412 31.6441 31.022C31.6849 31.2558 31.8893 31.4262 32.1276 31.4248L32.1276 24.349L25.0518 24.349Z" fill="#FFD567"/>
<path d="M32.1279 24.3486L39.2037 24.3486C39.203 24.1123 39.0327 23.9106 38.7999 23.8702C37.8386 23.7034 35.1479 23.0713 34.2524 22.1759C33.357 21.2804 32.76 18.6292 32.6064 17.6854C32.5698 17.4491 32.3671 17.2743 32.1279 17.2728L32.1279 24.3486Z" fill="#FFD567"/>
<path d="M32.1279 31.4248C32.3663 31.4255 32.5695 31.252 32.6064 31.0163C32.76 30.0544 33.357 27.3664 34.2524 26.4704C35.1479 25.5744 37.8298 24.9815 38.7911 24.8277C39.0265 24.7894 39.2004 24.5876 39.2037 24.349L32.1279 24.349L32.1279 31.4248Z" fill="#FFA266"/>
<path d="M56.3161 8.99992C56.3808 9.00004 56.4362 9.04649 56.4477 9.11033C56.4932 9.36955 56.6644 10.0956 56.9086 10.3404C57.1529 10.5853 57.8783 10.7581 58.1357 10.8037C58.1972 10.8145 58.2427 10.8671 58.2446 10.9297L56.3149 10.9297L56.3161 8.99992Z" fill="#FFEA80"/>
<path d="M58.2449 10.9296C58.2446 10.9943 58.1975 11.0493 58.1334 11.0598C57.8745 11.1016 57.1505 11.264 56.906 11.5064C56.6615 11.7488 56.4913 12.482 56.447 12.7495C56.4358 12.8133 56.3801 12.8597 56.3151 12.8594L56.3151 10.9296L58.2449 10.9296Z" fill="#FFD567"/>
<path d="M56.3151 10.9297L54.3853 10.9297C54.3855 10.8652 54.4319 10.8102 54.4954 10.7992C54.7576 10.7537 55.4914 10.5813 55.7357 10.3371C55.9799 10.0929 56.1427 9.36983 56.1846 9.11245C56.1946 9.048 56.2498 9.00033 56.3151 8.99992L56.3151 10.9297Z" fill="#FFD567"/>
<path d="M56.3151 12.8594C56.25 12.8596 56.1946 12.8122 56.1846 12.748C56.1427 12.4856 55.9799 11.7525 55.7357 11.5082C55.4914 11.2638 54.76 11.1021 54.4978 11.0602C54.4336 11.0497 54.3862 10.9947 54.3853 10.9296L56.3151 10.9296L56.3151 12.8594Z" fill="#FFA266"/>
<path d="M120.785 35.3257C120.893 35.3259 120.985 35.4033 121.004 35.5097C121.08 35.9418 121.365 37.1519 121.772 37.5599C122.179 37.9679 123.388 38.256 123.817 38.332C123.92 38.35 123.996 38.4377 123.999 38.542L120.783 38.542L120.785 35.3257Z" fill="#FFEA80"/>
<path d="M123.999 38.5415C123.999 38.6493 123.92 38.741 123.813 38.7585C123.382 38.8281 122.175 39.0988 121.768 39.5028C121.36 39.9069 121.076 41.1289 121.002 41.5747C120.984 41.681 120.891 41.7584 120.783 41.7578L120.783 38.5415L123.999 38.5415Z" fill="#FFD567"/>
<path d="M120.783 38.542L117.567 38.542C117.567 38.4346 117.645 38.3429 117.75 38.3245C118.187 38.2487 119.411 37.9614 119.818 37.5544C120.225 37.1473 120.496 35.9422 120.566 35.5133C120.582 35.4059 120.675 35.3264 120.783 35.3257L120.783 38.542Z" fill="#FFD567"/>
<path d="M120.783 41.7578C120.675 41.7581 120.582 41.6793 120.566 41.5721C120.496 41.1349 120.225 39.9131 119.818 39.5058C119.41 39.0985 118.191 38.829 117.754 38.7592C117.647 38.7417 117.568 38.65 117.567 38.5415L120.783 38.5415L120.783 41.7578Z" fill="#FFA266"/>
<defs>
<filter id="filter0_d_948_726" x="28.8301" y="13.2734" width="75.934" height="123.544" filterUnits="userSpaceOnUse" color-interpolation-filters="sRGB">
<feFlood flood-opacity="0" result="BackgroundImageFix"/>
<feColorMatrix in="SourceAlpha" type="matrix" values="0 0 0 0 0 0 0 0 0 0 0 0 0 0 0 0 0 0 127 0" result="hardAlpha"/>
<feOffset dy="2"/>
<feGaussianBlur stdDeviation="3"/>
<feComposite in2="hardAlpha" operator="out"/>
<feColorMatrix type="matrix" values="0 0 0 0 0 0 0 0 0 0 0 0 0 0 0 0 0 0 0.1 0"/>
<feBlend mode="normal" in2="BackgroundImageFix" result="effect1_dropShadow_948_726"/>
<feBlend mode="normal" in="SourceGraphic" in2="effect1_dropShadow_948_726" result="shape"/>
</filter>
<clipPath id="clip0_948_726">
<rect width="47.2588" height="59.4209" fill="white" transform="translate(75.4471 41.3428)"/>
</clipPath>
</defs>
</svg>
