<svg width="131" height="137" viewBox="0 0 131 137" fill="none" xmlns="http://www.w3.org/2000/svg">
<g filter="url(#filter0_d_948_653)">
<rect x="41.0497" y="18.4678" width="63.354" height="110.533" rx="4" fill="white"/>
<rect x="45.0929" y="27.9033" width="55.2663" height="83.5734" rx="4" fill="#E7E7E7"/>
<path opacity="0.4" d="M100.305 36.2051L45.1493 103.658V111.485H100.305V103.658V36.2051Z" fill="white"/>
<circle cx="72.7246" cy="120.238" r="4.71785" fill="#C4C4C4"/>
<rect x="63.9647" y="22.5117" width="17.5235" height="2.69592" rx="1.34796" fill="#C4C4C4"/>
</g>
<path d="M34.5269 70.8273C34.5266 70.6777 34.4192 70.5496 34.2716 70.5229C33.6722 70.4177 31.9935 70.0219 31.4274 69.4572C30.8613 68.8925 30.4617 67.2152 30.3563 66.62C30.3314 66.4778 30.2097 66.3726 30.0649 66.3682V70.8301L34.5269 70.8273Z" fill="#FFEA80"/>
<path d="M30.0648 66.3682C29.9153 66.3689 29.7881 66.4778 29.7639 66.6259C29.6673 67.2245 29.2917 68.8984 28.7312 69.4638C28.1707 70.0292 26.4754 70.4227 25.8569 70.5253C25.7094 70.551 25.6021 70.6799 25.6029 70.8301H30.0648V66.3682Z" fill="#FFD567"/>
<path d="M30.0649 70.8301V75.292C30.214 75.2915 30.3411 75.1842 30.3666 75.0374C30.4718 74.4312 30.8704 72.7344 31.4351 72.1698C31.9997 71.6051 33.6716 71.2287 34.2667 71.1318C34.4157 71.1087 34.5259 70.9809 34.5269 70.8301L30.0649 70.8301Z" fill="#FFD567"/>
<path d="M25.6032 70.8301C25.6027 70.9804 25.7121 71.1086 25.8607 71.1318C26.4673 71.2287 28.1623 71.6051 28.7273 72.1698C29.2924 72.7344 29.6663 74.4257 29.7632 75.0318C29.7874 75.1803 29.9146 75.2899 30.0651 75.292V70.8301L25.6032 70.8301Z" fill="#FFA266"/>
<path d="M121.853 55.5336C121.853 55.6405 121.776 55.732 121.671 55.7511C121.243 55.8262 120.044 56.109 119.639 56.5123C119.235 56.9156 118.949 58.1138 118.874 58.5388C118.856 58.6405 118.769 58.7156 118.666 58.7188V55.5316L121.853 55.5336Z" fill="#FFEA80"/>
<path d="M118.666 58.7188C118.559 58.7182 118.468 58.6404 118.451 58.5347C118.382 58.1071 118.114 56.9114 117.713 56.5076C117.313 56.1037 116.102 55.8226 115.66 55.7494C115.555 55.731 115.478 55.639 115.479 55.5316H118.666V58.7188Z" fill="#FFD567"/>
<path d="M118.666 55.5312V52.3441C118.772 52.3445 118.863 52.4212 118.882 52.526C118.957 52.959 119.241 54.171 119.645 54.5743C120.048 54.9777 121.242 55.2465 121.667 55.3157C121.774 55.3322 121.852 55.4235 121.853 55.5312L118.666 55.5312Z" fill="#FFD567"/>
<path d="M115.479 55.5312C115.478 55.4239 115.556 55.3323 115.663 55.3157C116.096 55.2465 117.307 54.9777 117.71 54.5743C118.114 54.171 118.381 52.963 118.45 52.53C118.467 52.424 118.558 52.3456 118.666 52.3441V55.5312L115.479 55.5312Z" fill="#FFA266"/>
<path d="M99.5444 82.3051C99.5442 82.412 99.4675 82.5035 99.3621 82.5226C98.9339 82.5977 97.7348 82.8804 97.3305 83.2838C96.9261 83.6871 96.6407 84.8852 96.5654 85.3103C96.5476 85.4119 96.4607 85.4871 96.3573 85.4902V82.3031L99.5444 82.3051Z" fill="#FFEA80"/>
<path d="M96.3569 85.4902C96.2501 85.4897 96.1593 85.4119 96.1419 85.3061C96.0729 84.8785 95.8047 83.6829 95.4043 83.2791C95.004 82.8752 93.793 82.5941 93.3512 82.5209C93.2459 82.5025 93.1692 82.4105 93.1698 82.3031H96.3569V85.4902Z" fill="#FFD567"/>
<path d="M96.3573 82.3027V79.1156C96.4637 79.116 96.5546 79.1927 96.5728 79.2975C96.6479 79.7305 96.9326 80.9425 97.336 81.3458C97.7393 81.7491 98.9335 82.018 99.3586 82.0872C99.465 82.1037 99.5437 82.195 99.5444 82.3027H96.3573Z" fill="#FFD567"/>
<path d="M93.1696 82.3027C93.1692 82.1954 93.2474 82.1038 93.3535 82.0872C93.7868 82.018 94.9975 81.7491 95.4011 81.3458C95.8047 80.9425 96.0718 79.7345 96.141 79.3015C96.1583 79.1955 96.2492 79.1171 96.3567 79.1156V82.3027H93.1696Z" fill="#FFA266"/>
<path d="M51.0995 11.5515C51.0993 11.637 51.038 11.7102 50.9536 11.7255C50.6111 11.7856 49.6518 12.0118 49.3283 12.3344C49.0049 12.6571 48.7765 13.6156 48.7163 13.9557C48.702 14.037 48.6325 14.0971 48.5498 14.0996V11.5499L51.0995 11.5515Z" fill="#FFEA80"/>
<path d="M48.5498 14.0996C48.4644 14.0992 48.3917 14.037 48.3778 13.9523C48.3226 13.6103 48.108 12.6537 47.7877 12.3307C47.4675 12.0076 46.4987 11.7827 46.1453 11.7241C46.061 11.7094 45.9996 11.6358 46.0001 11.5499H48.5498V14.0996Z" fill="#FFD567"/>
<path d="M48.5498 11.5498V9.00012C48.635 9.0004 48.7076 9.06174 48.7222 9.14564C48.7823 9.49203 49.0101 10.4616 49.3327 10.7843C49.6554 11.1069 50.6107 11.322 50.9508 11.3774C51.036 11.3906 51.099 11.4636 51.0995 11.5498L48.5498 11.5498Z" fill="#FFD567"/>
<path d="M46.0001 11.5498C45.9999 11.4639 46.0624 11.3907 46.1473 11.3774C46.4939 11.322 47.4625 11.1069 47.7854 10.7843C48.1082 10.4616 48.3219 9.49519 48.3773 9.1488C48.3911 9.06399 48.4638 9.00131 48.5498 9.00012V11.5498L46.0001 11.5498Z" fill="#FFA266"/>
<path d="M26.2408 35.1358C26.2406 35.1999 26.1946 35.2548 26.1313 35.2663C25.8745 35.3114 25.155 35.481 24.9124 35.723C24.6698 35.965 24.4985 36.6839 24.4534 36.9389C24.4427 36.9999 24.3905 37.045 24.3285 37.0469V35.1346L26.2408 35.1358Z" fill="#FFEA80"/>
<path d="M24.3285 37.0469C24.2644 37.0466 24.2099 36.9999 24.1995 36.9364C24.1581 36.6799 23.9972 35.9625 23.757 35.7202C23.5168 35.4779 22.7902 35.3092 22.5251 35.2653C22.4619 35.2542 22.4159 35.199 22.4163 35.1346H24.3285V37.0469Z" fill="#FFD567"/>
<path d="M24.3285 35.1348V33.2225C24.3924 33.2227 24.4469 33.2687 24.4578 33.3316C24.5029 33.5914 24.6737 34.3186 24.9157 34.5606C25.1577 34.8026 25.8742 34.9639 26.1292 35.0055C26.1931 35.0154 26.2404 35.0701 26.2408 35.1348H24.3285Z" fill="#FFD567"/>
<path d="M22.4164 35.1348C22.4162 35.0703 22.4631 35.0154 22.5268 35.0055C22.7867 34.9639 23.5132 34.8026 23.7553 34.5606C23.9975 34.3186 24.1577 33.5938 24.1993 33.334C24.2096 33.2704 24.2642 33.2234 24.3286 33.2225V35.1348H22.4164Z" fill="#FFA266"/>
<path d="M101.456 18.5571C101.456 18.3219 101.287 18.1206 101.055 18.0786C100.113 17.9133 97.4749 17.2913 96.5853 16.404C95.6958 15.5167 95.0679 12.8808 94.9022 11.9456C94.863 11.7221 94.6717 11.5567 94.4443 11.5498V18.5614L101.456 18.5571Z" fill="#FFEA80"/>
<path d="M94.4444 11.5498C94.2094 11.5509 94.0095 11.7221 93.9714 11.9548C93.8196 12.8955 93.2295 15.526 92.3487 16.4144C91.4679 17.3028 88.8038 17.9212 87.8319 18.0824C87.6002 18.1228 87.4314 18.3253 87.4327 18.5614H94.4444V11.5498Z" fill="#FFD567"/>
<path d="M94.4443 18.5615V25.5731C94.6785 25.5724 94.8784 25.4037 94.9184 25.173C95.0837 24.2204 95.7101 21.5541 96.5974 20.6668C97.4847 19.7794 100.112 19.1879 101.047 19.0356C101.281 18.9993 101.454 18.7985 101.456 18.5615L94.4443 18.5615Z" fill="#FFD567"/>
<path d="M87.4327 18.5615C87.4321 18.7978 87.604 18.9991 87.8375 19.0356C88.7907 19.1879 91.4543 19.7794 92.3422 20.6668C93.2301 21.5541 93.8176 24.2117 93.97 25.1643C94.0079 25.3975 94.2079 25.5699 94.4444 25.5731V18.5615L87.4327 18.5615Z" fill="#FFA266"/>
<path d="M95.0818 53.6212C95.0817 53.6853 95.0357 53.7402 94.9724 53.7516C94.7155 53.7967 93.9961 53.9664 93.7535 54.2084C93.5109 54.4504 93.3396 55.1692 93.2944 55.4243C93.2837 55.4852 93.2316 55.5303 93.1696 55.5322V53.62L95.0818 53.6212Z" fill="#FFEA80"/>
<path d="M93.17 55.5322C93.1059 55.5319 93.0514 55.4852 93.041 55.4218C92.9996 55.1652 92.8386 54.4478 92.5984 54.2055C92.3582 53.9632 91.6316 53.7946 91.3666 53.7506C91.3034 53.7396 91.2573 53.6844 91.2577 53.62H93.17V55.5322Z" fill="#FFD567"/>
<path d="M93.1696 53.6201V51.7079C93.2334 51.7081 93.2879 51.7541 93.2989 51.817C93.3439 52.0768 93.5148 52.804 93.7568 53.046C93.9988 53.288 94.7153 53.4493 94.9703 53.4908C95.0342 53.5007 95.0814 53.5555 95.0818 53.6201H93.1696Z" fill="#FFD567"/>
<path d="M91.2574 53.6201C91.2573 53.5557 91.3041 53.5008 91.3678 53.4908C91.6278 53.4493 92.3542 53.288 92.5964 53.046C92.8385 52.804 92.9988 52.0792 93.0403 51.8194C93.0507 51.7558 93.1052 51.7087 93.1697 51.7079V53.6201H91.2574Z" fill="#FFA266"/>
<path d="M52.3746 30.0366C52.3744 30.1434 52.2977 30.2349 52.1923 30.254C51.7641 30.3292 50.565 30.6119 50.1607 31.0152C49.7563 31.4186 49.4709 32.6167 49.3956 33.0418C49.3778 33.1434 49.2909 33.2185 49.1875 33.2217V30.0346L52.3746 30.0366Z" fill="#FFEA80"/>
<path d="M49.1872 33.2217C49.0804 33.2212 48.9896 33.1434 48.9723 33.0376C48.9032 32.61 48.635 31.4143 48.2346 31.0105C47.8343 30.6067 46.6233 30.3256 46.1816 30.2523C46.0762 30.234 45.9995 30.1419 46.0001 30.0346H49.1872V33.2217Z" fill="#FFD567"/>
<path d="M49.1875 30.0342V26.8471C49.2939 26.8474 49.3848 26.9241 49.403 27.029C49.4781 27.462 49.7628 28.6739 50.1662 29.0773C50.5695 29.4806 51.7637 29.7495 52.1888 29.8187C52.2952 29.8352 52.3739 29.9265 52.3746 30.0342L49.1875 30.0342Z" fill="#FFD567"/>
<path d="M46.0001 30.0342C45.9998 29.9268 46.078 29.8353 46.1841 29.8187C46.6174 29.7495 47.8281 29.4806 48.2317 29.0773C48.6353 28.6739 48.9023 27.4659 48.9716 27.0329C48.9888 26.9269 49.0798 26.8486 49.1872 26.8471V30.0342L46.0001 30.0342Z" fill="#FFA266"/>
<circle cx="38.441" cy="71.2359" r="29.441" fill="#7542E5"/>
<circle cx="38.441" cy="68.9996" r="29.441" fill="#F770FF"/>
<g clip-path="url(#clip0_948_653)">
<path d="M33.2362 86.3501L31.5797 82.2419H45.0353V82.2549C52.3226 82.0611 58.1925 75.9046 58.1925 68.3643C58.1925 60.8241 52.3144 54.7131 45.0525 54.4908V54.4891H45.007C45.0043 54.4891 45.0013 54.4891 44.9987 54.4888L26.8885 54.4658V61.0125L45.1672 61.0288C48.885 61.2864 51.8337 64.4769 51.8337 68.3647C51.8337 72.2525 48.8738 75.4549 45.1464 75.7018V75.6939H31.6351L33.2365 71.5853C33.2365 70.8853 32.5623 70.4475 32.0229 70.7975L26.3356 74.4889L19.4348 78.9677L26.3356 83.4465L32.0225 87.1375C32.5619 87.4876 33.2362 87.0505 33.2362 86.3501Z" fill="white"/>
<circle cx="27.2604" cy="57.8199" r="3.35404" fill="white"/>
</g>
<defs>
<filter id="filter0_d_948_653" x="35.0497" y="14.4678" width="75.354" height="122.532" filterUnits="userSpaceOnUse" color-interpolation-filters="sRGB">
<feFlood flood-opacity="0" result="BackgroundImageFix"/>
<feColorMatrix in="SourceAlpha" type="matrix" values="0 0 0 0 0 0 0 0 0 0 0 0 0 0 0 0 0 0 127 0" result="hardAlpha"/>
<feOffset dy="2"/>
<feGaussianBlur stdDeviation="3"/>
<feComposite in2="hardAlpha" operator="out"/>
<feColorMatrix type="matrix" values="0 0 0 0 0 0 0 0 0 0 0 0 0 0 0 0 0 0 0.1 0"/>
<feBlend mode="normal" in2="BackgroundImageFix" result="effect1_dropShadow_948_653"/>
<feBlend mode="normal" in="SourceGraphic" in2="effect1_dropShadow_948_653" result="shape"/>
</filter>
<clipPath id="clip0_948_653">
<rect width="38.7578" height="32.795" fill="white" transform="translate(58.1925 87.2607) rotate(-180)"/>
</clipPath>
</defs>
</svg>
