<svg width="109" height="137" viewBox="0 0 109 137" fill="none" xmlns="http://www.w3.org/2000/svg">
<g filter="url(#filter0_d_948_652)">
<rect x="10" y="62" width="89" height="67" rx="3" fill="#C689FF"/>
</g>
<rect x="7" y="61" width="12" height="26" rx="6" fill="#C689FF"/>
<rect x="90" y="61" width="12" height="26" rx="6" fill="#C689FF"/>
<rect x="14" y="69" width="81" height="56" rx="3" fill="#F9F9FA"/>
<rect x="14" y="9" width="81" height="56" rx="3" fill="white"/>
<circle cx="37" cy="57" r="4" fill="#3D3D3D"/>
<circle cx="37" cy="76" r="4" fill="#3D3D3D"/>
<circle cx="73" cy="57" r="4" fill="#3D3D3D"/>
<circle cx="73" cy="76" r="4" fill="#3D3D3D"/>
<path d="M45.7545 96.3113L35.2302 90.3097C34.8605 90.1064 34.4465 90 34.0258 90C33.6051 90 33.1911 90.1064 32.8214 90.3097L22.26 96.3113C21.8788 96.5289 21.5613 96.8448 21.3399 97.227C21.1186 97.6092 21.0013 98.0439 21.0001 98.487V110.453C20.9967 110.897 21.112 111.333 21.3338 111.716C21.5556 112.099 21.8757 112.415 22.26 112.628L32.7844 118.593C33.1534 118.817 33.5767 118.934 34.0073 118.93C34.4372 118.929 34.8592 118.813 35.2302 118.593L45.7545 112.628C46.1358 112.411 46.4533 112.095 46.6746 111.713C46.896 111.331 47.0132 110.896 47.0145 110.453V98.487C47.0254 98.0415 46.9132 97.6019 46.6906 97.2175C46.468 96.8332 46.1438 96.5193 45.7545 96.3113V96.3113Z" fill="url(#paint0_linear_948_652)"/>
<path d="M26.6705 107.602L26.0405 107.978C25.9278 108.041 25.8286 108.126 25.7488 108.229C25.669 108.331 25.6101 108.448 25.5756 108.574C25.5411 108.7 25.5317 108.831 25.5479 108.961C25.5641 109.09 25.6056 109.215 25.6699 109.328C25.7527 109.485 25.8754 109.616 26.0253 109.708C26.1752 109.801 26.3468 109.851 26.5223 109.853C26.689 109.852 26.8535 109.813 27.004 109.741L27.634 109.365C27.7467 109.302 27.8459 109.217 27.9257 109.115C28.0055 109.012 28.0644 108.895 28.0989 108.769C28.1334 108.643 28.1428 108.512 28.1266 108.382C28.1104 108.253 28.0689 108.128 28.0046 108.015C27.9473 107.896 27.8664 107.79 27.767 107.704C27.6675 107.618 27.5515 107.553 27.4263 107.515C27.3011 107.476 27.1694 107.464 27.0394 107.479C26.9093 107.494 26.7837 107.536 26.6705 107.602V107.602ZM30.5245 105.389L29.2275 106.14C29.1147 106.203 29.0156 106.288 28.9358 106.391C28.8559 106.493 28.7971 106.61 28.7626 106.736C28.7281 106.862 28.7187 106.993 28.7349 107.123C28.751 107.252 28.7925 107.377 28.8569 107.49C28.9396 107.647 29.0623 107.778 29.2122 107.87C29.3621 107.963 29.5337 108.013 29.7092 108.015C29.876 108.014 30.0404 107.975 30.191 107.903L31.488 107.152C31.6007 107.089 31.6999 107.004 31.7797 106.901C31.8595 106.799 31.9184 106.681 31.9529 106.556C31.9873 106.43 31.9968 106.299 31.9806 106.169C31.9644 106.04 31.9229 105.915 31.8585 105.802C31.8013 105.683 31.7204 105.577 31.6209 105.491C31.5215 105.405 31.4055 105.34 31.2803 105.302C31.1551 105.263 31.0234 105.251 30.8933 105.266C30.7633 105.281 30.6377 105.323 30.5245 105.389V105.389ZM35.7496 103.555C35.6974 103.449 35.6246 103.354 35.5354 103.277C35.4463 103.199 35.3427 103.141 35.2308 103.105V95.5616C35.2313 95.4285 35.2057 95.2966 35.1556 95.1735C35.1055 95.0504 35.0318 94.9385 34.9388 94.8444C34.8458 94.7502 34.7353 94.6756 34.6137 94.6249C34.4921 94.5742 34.3618 94.5483 34.2302 94.5488C34.1007 94.5493 33.9725 94.576 33.8534 94.6275C33.7342 94.6791 33.6265 94.7543 33.5367 94.8488C33.4468 94.9432 33.3766 95.055 33.3302 95.1775C33.2839 95.2999 33.2623 95.4306 33.2667 95.5616V103.139C33.1548 103.175 33.0512 103.233 32.9621 103.31C32.873 103.388 32.8001 103.482 32.7479 103.589C32.6783 103.721 32.6388 103.867 32.6324 104.016C32.626 104.165 32.6528 104.314 32.7109 104.452C32.6528 104.589 32.626 104.738 32.6324 104.887C32.6388 105.037 32.6783 105.183 32.7479 105.314C32.8001 105.421 32.873 105.515 32.9621 105.593C33.0512 105.67 33.1548 105.729 33.2667 105.764V113.342C33.2667 113.61 33.3722 113.868 33.5598 114.058C33.7474 114.248 34.0019 114.354 34.2673 114.354C34.5327 114.354 34.7871 114.248 34.9748 114.058C35.1624 113.868 35.2678 113.61 35.2678 113.342V105.727C35.3797 105.691 35.4833 105.633 35.5725 105.555C35.6616 105.478 35.7344 105.383 35.7867 105.277C35.8563 105.145 35.8958 104.999 35.9022 104.85C35.9086 104.7 35.8818 104.552 35.8237 104.414C35.9094 104.129 35.8829 103.821 35.7496 103.555V103.555ZM38.2732 100.963L36.9762 101.713C36.8635 101.777 36.7643 101.862 36.6845 101.964C36.6047 102.067 36.5458 102.184 36.5113 102.31C36.4768 102.436 36.4674 102.567 36.4836 102.696C36.4998 102.826 36.5413 102.951 36.6056 103.064C36.6884 103.22 36.8111 103.352 36.961 103.444C37.1109 103.536 37.2825 103.586 37.4579 103.589C37.6247 103.587 37.7892 103.549 37.9397 103.476L39.2367 102.726C39.3494 102.663 39.4486 102.578 39.5284 102.475C39.6082 102.373 39.6671 102.255 39.7016 102.13C39.7361 102.004 39.7455 101.872 39.7293 101.743C39.7131 101.614 39.6716 101.489 39.6073 101.376C39.5501 101.257 39.4692 101.151 39.3697 101.065C39.2702 100.978 39.1542 100.914 39.0291 100.875C38.9039 100.837 38.7721 100.824 38.6421 100.839C38.512 100.855 38.3865 100.897 38.2732 100.963V100.963ZM41.3453 101.338C41.5121 101.337 41.6765 101.298 41.827 101.226L42.457 100.851C42.5696 100.787 42.6686 100.701 42.7485 100.599C42.8283 100.496 42.8873 100.379 42.9221 100.253C42.9569 100.127 42.9669 99.9959 42.9514 99.8663C42.9358 99.7367 42.8952 99.6115 42.8317 99.4978C42.7683 99.3842 42.6833 99.2844 42.5816 99.2041C42.4799 99.1238 42.3635 99.0646 42.2392 99.03C42.1148 98.9953 41.9849 98.9859 41.857 99.0022C41.729 99.0186 41.6055 99.0603 41.4935 99.1251L40.8635 99.5002C40.7508 99.5635 40.6517 99.6488 40.5718 99.7512C40.492 99.8536 40.4332 99.9711 40.3987 100.097C40.3642 100.222 40.3547 100.354 40.3709 100.483C40.3871 100.613 40.4286 100.738 40.493 100.851C40.5778 101.003 40.702 101.128 40.8522 101.214C41.0024 101.3 41.1728 101.343 41.3453 101.338ZM42.457 107.978L41.827 107.602C41.6011 107.475 41.3343 107.443 41.0851 107.513C40.8359 107.584 40.6245 107.752 40.4971 107.98C40.3697 108.208 40.3368 108.478 40.4054 108.731C40.4741 108.983 40.6388 109.198 40.8635 109.328L41.4935 109.703C41.6441 109.776 41.8085 109.814 41.9753 109.816C42.1507 109.813 42.3223 109.763 42.4722 109.671C42.6221 109.578 42.7448 109.447 42.8276 109.29C42.8939 109.181 42.937 109.059 42.9542 108.932C42.9714 108.804 42.9623 108.675 42.9274 108.552C42.8926 108.428 42.8328 108.313 42.7518 108.215C42.6708 108.116 42.5704 108.035 42.457 107.978V107.978ZM39.233 106.14L37.936 105.389C37.824 105.325 37.7005 105.283 37.5726 105.266C37.4446 105.25 37.3147 105.26 37.1904 105.294C37.066 105.329 36.9496 105.388 36.848 105.468C36.7463 105.549 36.6612 105.648 36.5978 105.762C36.5343 105.876 36.4937 106.001 36.4782 106.131C36.4626 106.26 36.4726 106.392 36.5074 106.517C36.5422 106.643 36.6012 106.76 36.6811 106.863C36.7609 106.966 36.8599 107.051 36.9725 107.115L38.2695 107.865C38.42 107.938 38.5845 107.976 38.7513 107.978C38.9267 107.975 39.0983 107.925 39.2482 107.833C39.3981 107.74 39.5208 107.609 39.6036 107.452C39.671 107.343 39.7151 107.221 39.7329 107.094C39.7507 106.966 39.7418 106.836 39.7069 106.713C39.6719 106.589 39.6117 106.474 39.5301 106.375C39.4484 106.276 39.3472 106.196 39.233 106.14V106.14ZM29.2275 102.689L30.5245 103.439C30.675 103.512 30.8394 103.55 31.0062 103.551C31.1817 103.549 31.3533 103.499 31.5032 103.407C31.6531 103.314 31.7758 103.183 31.8585 103.026C31.9229 102.913 31.9644 102.788 31.9806 102.659C31.9968 102.529 31.9873 102.398 31.9529 102.272C31.9184 102.147 31.8595 102.029 31.7797 101.927C31.6999 101.824 31.6007 101.739 31.488 101.676L30.191 100.926C30.0793 100.86 29.9559 100.818 29.8281 100.802C29.7002 100.786 29.5704 100.795 29.4463 100.83C29.3221 100.865 29.206 100.925 29.1048 101.005C29.0036 101.086 28.9194 101.187 28.8569 101.301C28.7327 101.536 28.702 101.811 28.7708 102.069C28.8396 102.327 29.0029 102.548 29.2275 102.689V102.689ZM27.634 99.5002L27.004 99.1251C26.892 99.0603 26.7685 99.0186 26.6406 99.0022C26.5126 98.9859 26.3827 98.9953 26.2584 99.03C26.134 99.0646 26.0177 99.1238 25.916 99.2041C25.8143 99.2844 25.7293 99.3842 25.6658 99.4978C25.6023 99.6115 25.5617 99.7367 25.5462 99.8663C25.5307 99.9959 25.5406 100.127 25.5754 100.253C25.6102 100.379 25.6692 100.496 25.7491 100.599C25.8289 100.701 25.9279 100.787 26.0405 100.851L26.6705 101.226C26.821 101.298 26.9855 101.337 27.1522 101.338C27.3277 101.336 27.4993 101.286 27.6492 101.193C27.7991 101.101 27.9218 100.97 28.0046 100.813C28.0676 100.703 28.1081 100.581 28.1235 100.454C28.139 100.328 28.1292 100.2 28.0946 100.077C28.06 99.9545 28.0014 99.8403 27.9222 99.7412C27.8431 99.6421 27.7451 99.5601 27.634 99.5002V99.5002Z" fill="#20133A"/>
<rect x="56" y="94" width="32" height="4" rx="2" fill="#999999"/>
<rect x="56" y="102" width="26" height="4" rx="2" fill="#999999"/>
<rect x="56" y="110" width="32" height="4" rx="2" fill="#999999"/>
<path d="M74.5 56.6506C74.5 55.739 73.7573 54.9879 72.855 55.1183C71.9106 55.2548 70.9847 55.5086 70.0991 55.8754C68.7039 56.4533 67.4361 57.3004 66.3683 58.3683C65.3004 59.4361 64.4533 60.7039 63.8754 62.0991C63.2975 63.4944 63 64.9898 63 66.5C63 68.0102 63.2975 69.5056 63.8754 70.9009C64.4533 72.2961 65.3004 73.5639 66.3683 74.6317C67.4361 75.6996 68.7039 76.5467 70.0991 77.1246C70.9847 77.4914 71.9106 77.7452 72.855 77.8817C73.7573 78.0121 74.5 77.261 74.5 76.3494V76.3494C74.5 75.4377 73.7537 74.7154 72.8605 74.5331C72.3489 74.4287 71.8472 74.2754 71.3625 74.0746C70.3678 73.6626 69.4639 73.0587 68.7026 72.2974C67.9413 71.5361 67.3374 70.6322 66.9254 69.6375C66.5133 68.6428 66.3013 67.5767 66.3013 66.5C66.3013 65.4233 66.5133 64.3572 66.9254 63.3625C67.3374 62.3678 67.9413 61.4639 68.7026 60.7026C69.4639 59.9413 70.3678 59.3374 71.3625 58.9254C71.8472 58.7246 72.3489 58.5713 72.8605 58.4669C73.7537 58.2846 74.5 57.5623 74.5 56.6506V56.6506Z" fill="#BFBFBB"/>
<path d="M38.5 56.6506C38.5 55.739 37.7573 54.9879 36.855 55.1183C35.9106 55.2548 34.9847 55.5086 34.0991 55.8754C32.7039 56.4533 31.4361 57.3004 30.3683 58.3683C29.3004 59.4361 28.4533 60.7039 27.8754 62.0991C27.2975 63.4944 27 64.9898 27 66.5C27 68.0102 27.2975 69.5056 27.8754 70.9009C28.4533 72.2961 29.3004 73.5639 30.3683 74.6317C31.4361 75.6996 32.7039 76.5467 34.0991 77.1246C34.9847 77.4914 35.9106 77.7452 36.855 77.8817C37.7573 78.0121 38.5 77.261 38.5 76.3494V76.3494C38.5 75.4377 37.7537 74.7154 36.8605 74.5331C36.3489 74.4287 35.8472 74.2754 35.3625 74.0746C34.3678 73.6626 33.4639 73.0587 32.7026 72.2974C31.9413 71.5361 31.3374 70.6322 30.9254 69.6375C30.5133 68.6428 30.3013 67.5767 30.3013 66.5C30.3013 65.4233 30.5133 64.3572 30.9254 63.3625C31.3374 62.3678 31.9413 61.4639 32.7026 60.7026C33.4639 59.9413 34.3678 59.3374 35.3625 58.9254C35.8472 58.7246 36.3489 58.5713 36.8605 58.4669C37.7537 58.2846 38.5 57.5623 38.5 56.6506V56.6506Z" fill="#BFBFBB"/>
<defs>
<filter id="filter0_d_948_652" x="4" y="58" width="101" height="79" filterUnits="userSpaceOnUse" color-interpolation-filters="sRGB">
<feFlood flood-opacity="0" result="BackgroundImageFix"/>
<feColorMatrix in="SourceAlpha" type="matrix" values="0 0 0 0 0 0 0 0 0 0 0 0 0 0 0 0 0 0 127 0" result="hardAlpha"/>
<feOffset dy="2"/>
<feGaussianBlur stdDeviation="3"/>
<feComposite in2="hardAlpha" operator="out"/>
<feColorMatrix type="matrix" values="0 0 0 0 0 0 0 0 0 0 0 0 0 0 0 0 0 0 0.12 0"/>
<feBlend mode="normal" in2="BackgroundImageFix" result="effect1_dropShadow_948_652"/>
<feBlend mode="normal" in="SourceGraphic" in2="effect1_dropShadow_948_652" result="shape"/>
</filter>
<linearGradient id="paint0_linear_948_652" x1="21.0001" y1="104.466" x2="47.0182" y2="104.466" gradientUnits="userSpaceOnUse">
<stop stop-color="#9059FF"/>
<stop offset="1" stop-color="#F770FF"/>
</linearGradient>
</defs>
</svg>
