<svg width="330" height="90" viewBox="0 0 330 90" fill="none" xmlns="http://www.w3.org/2000/svg">
<g clip-path="url(#clip0_950_790)">
<rect x="294" y="36" width="29" height="47" rx="4" fill="#6D6D6E"/>
<g filter="url(#filter0_d_950_790)">
<rect x="11" y="9" width="298" height="58" rx="12" fill="white"/>
</g>
<path d="M10.5056 62.5C10.0538 65.5086 7.50188 68.3333 6 69C11.7672 69 15.4618 66.8333 16.363 65.5L20.8686 67L20.418 52H10.9562V54V56V56.5C10.9562 57.5 10.9562 59.5 10.5056 62.5Z" fill="white"/>
<path d="M285.745 42.3252C286.012 42.3252 286.224 42.2295 286.408 42.0518L291.651 36.9316C291.884 36.6992 291.993 36.46 292 36.166C292 35.8721 291.891 35.626 291.651 35.4004L286.408 30.2734C286.224 30.0957 286.005 30 285.745 30C285.212 30 284.788 30.4238 284.788 30.9502C284.788 31.21 284.897 31.4561 285.089 31.6475L289.737 36.166L285.089 40.6777C284.897 40.8691 284.788 41.1152 284.788 41.375C284.788 41.9014 285.212 42.3252 285.745 42.3252Z" fill="#3C3C43" fill-opacity="0.3"/>
</g>
<defs>
<filter id="filter0_d_950_790" x="-1" y="1" width="322" height="82" filterUnits="userSpaceOnUse" color-interpolation-filters="sRGB">
<feFlood flood-opacity="0" result="BackgroundImageFix"/>
<feColorMatrix in="SourceAlpha" type="matrix" values="0 0 0 0 0 0 0 0 0 0 0 0 0 0 0 0 0 0 127 0" result="hardAlpha"/>
<feOffset dy="4"/>
<feGaussianBlur stdDeviation="6"/>
<feComposite in2="hardAlpha" operator="out"/>
<feColorMatrix type="matrix" values="0 0 0 0 0 0 0 0 0 0 0 0 0 0 0 0 0 0 0.1 0"/>
<feBlend mode="normal" in2="BackgroundImageFix" result="effect1_dropShadow_950_790"/>
<feBlend mode="normal" in="SourceGraphic" in2="effect1_dropShadow_950_790" result="shape"/>
</filter>
<clipPath id="clip0_950_790">
<rect width="330" height="90" fill="white"/>
</clipPath>
</defs>
</svg>
