<svg width="100" height="129" viewBox="0 0 100 129" fill="none" xmlns="http://www.w3.org/2000/svg">
<circle cx="50" cy="50" r="50" fill="#AB71FF"/>
<g filter="url(#filter0_d_708_76)">
<rect x="24" y="27" width="53.878" height="93.9999" rx="4" fill="white"/>
<rect x="27.4388" y="35.0242" width="47" height="71.0731" rx="4" fill="#D9BFFF"/>
<circle cx="50.9375" cy="113.548" r="4.01219" fill="#C4C4C4"/>
<rect x="43.4873" y="30.4392" width="14.9024" height="2.29268" rx="1.14634" fill="#C4C4C4"/>
</g>
<g clip-path="url(#clip0_708_76)">
<path d="M62.9251 60.5375V68.3C62.9251 68.5625 62.8501 68.825 62.7001 69.0125C62.4751 69.35 62.1001 69.5375 61.6876 69.5375H54.1126C53.7751 69.5375 53.4751 69.425 53.2126 69.2C52.9876 68.975 52.8376 68.6375 52.8376 68.3375V67.1C52.8376 66.7625 52.9876 66.4625 53.2126 66.2375C53.4376 66.0125 53.7751 65.8625 54.0751 65.9H57.6001C55.9126 64.025 53.4751 62.975 50.9626 63.05C46.8751 63.05 43.4626 65.5625 42.7876 69.05L42.6751 69.65C42.5251 70.325 41.8876 70.775 41.2126 70.625L40.4251 70.475L40.0126 70.4C39.6751 70.3625 39.4126 70.175 39.1876 69.9125C38.9626 69.65 38.9251 69.3125 39.0001 68.975L39.1126 68.375C40.1251 63.125 45.1126 59.3 51.0001 59.3C53.9626 59.3 56.8501 60.3125 59.1376 62.15V60.5375C59.1376 60.2 59.2876 59.9 59.5126 59.675C59.7376 59.45 60.0751 59.3 60.4126 59.3375H61.6501C61.9876 59.3375 62.2876 59.45 62.5501 59.675C62.7751 59.9 62.9251 60.2 62.9251 60.5375Z" fill="#8F59FF"/>
<path d="M62.6626 69.05C62.4376 69.3875 62.0626 69.575 61.6501 69.575H54.1126C53.7751 69.575 53.4751 69.4625 53.2126 69.2375C52.9876 69.0125 52.8376 68.675 52.8376 68.375V67.1375C52.8376 66.8 52.9876 66.5 53.2126 66.275C53.4376 66.05 53.7751 65.9 54.0751 65.9375H57.6001C55.9126 64.0625 53.4751 63.0125 50.9626 63.0875C46.8751 63.0875 43.4626 65.6 42.7876 69.0875L42.6751 69.6875C42.5251 70.3625 41.8876 70.8125 41.2126 70.6625L40.4251 70.5125L40.0126 70.4375C39.6751 70.4 39.4126 70.2125 39.1876 69.95C38.9626 69.6875 38.9251 69.35 39.0001 69.0125L39.1126 68.4125C41.8876 60.6875 51.0751 61.1375 51.0751 61.1375C58.7626 61.1375 62.6626 69.05 62.6626 69.05Z" fill="#7542E4"/>
<path d="M39.1125 81.4251V73.6626C39.1125 73.4001 39.1875 73.1376 39.3375 72.9501C39.5625 72.6126 39.9375 72.4251 40.35 72.4251H47.8876C48.2251 72.4251 48.5251 72.5376 48.7876 72.8001C49.0126 73.0251 49.1626 73.3626 49.1626 73.7001V74.9001C49.1626 75.2376 49.0126 75.5376 48.7876 75.7626C48.5626 75.9876 48.2251 76.1376 47.9251 76.1001H44.4C46.0875 77.9751 48.5251 79.0251 51.0376 78.9501C55.1251 78.9501 58.5751 76.4376 59.2126 72.9501L59.3251 72.3501C59.4751 71.6751 60.1126 71.2251 60.7876 71.3751L61.5751 71.5251L61.9876 71.6001C62.3251 71.6376 62.5876 71.8251 62.7751 72.1251C62.9626 72.3876 63.0376 72.7251 62.9626 73.0626L62.8501 73.7001C61.8751 78.8751 56.8876 82.7001 51.0001 82.7001C48.0376 82.7001 45.15 81.6876 42.8625 79.8126V81.4251C42.8625 81.7626 42.7125 82.0626 42.4875 82.2876C42.2625 82.5126 41.925 82.6626 41.5875 82.6251H40.35C39.675 82.6626 39.1125 82.1001 39.1125 81.4251V81.4251Z" fill="#7542E4"/>
<path d="M39.3375 72.9125C39.5625 72.575 39.9375 72.3875 40.35 72.3875H47.8875C48.225 72.3875 48.525 72.5 48.7875 72.7625C49.0125 72.9875 49.1625 73.325 49.1625 73.6625V74.8625C49.1625 75.2 49.0125 75.5 48.7875 75.725C48.5625 75.95 48.225 76.1 47.925 76.0625H44.4C46.0875 77.9375 48.525 78.9875 51.0375 78.9125C55.125 78.9125 58.575 76.4 59.2125 72.9125L59.325 72.3125C59.475 71.6375 60.1125 71.1875 60.7875 71.3375L61.575 71.4875L61.9875 71.5625C62.325 71.6 62.5875 71.7875 62.775 72.0875C62.9625 72.35 63.0375 72.6875 62.9625 73.025L62.85 73.6625C60.075 81.3125 50.925 80.825 50.925 80.825C43.2375 80.8625 39.3375 72.9125 39.3375 72.9125Z" fill="#8F59FF"/>
</g>
<defs>
<filter id="filter0_d_708_76" x="18" y="23" width="65.8779" height="106" filterUnits="userSpaceOnUse" color-interpolation-filters="sRGB">
<feFlood flood-opacity="0" result="BackgroundImageFix"/>
<feColorMatrix in="SourceAlpha" type="matrix" values="0 0 0 0 0 0 0 0 0 0 0 0 0 0 0 0 0 0 127 0" result="hardAlpha"/>
<feOffset dy="2"/>
<feGaussianBlur stdDeviation="3"/>
<feComposite in2="hardAlpha" operator="out"/>
<feColorMatrix type="matrix" values="0 0 0 0 0 0 0 0 0 0 0 0 0 0 0 0 0 0 0.1 0"/>
<feBlend mode="normal" in2="BackgroundImageFix" result="effect1_dropShadow_708_76"/>
<feBlend mode="normal" in="SourceGraphic" in2="effect1_dropShadow_708_76" result="shape"/>
</filter>
<clipPath id="clip0_708_76">
<rect width="24" height="24" fill="white" transform="translate(39 59)"/>
</clipPath>
</defs>
</svg>
