<svg data-name="Layer 1" xmlns="http://www.w3.org/2000/svg" xmlns:xlink="http://www.w3.org/1999/xlink" viewBox="0 0 390.09 260.93"><defs><linearGradient id="b" x1="-471.38" y1="532.82" x2="-471.64" y2="533.82" gradientTransform="matrix(-220.75056 31.02447 -33.27907 -236.7929 -86195.29 141052.04)" gradientUnits="userSpaceOnUse"><stop offset="0" stop-color="#ff9100"/><stop offset=".52" stop-color="#f10366"/><stop offset="1" stop-color="#6173ff"/></linearGradient><linearGradient id="c" x1="287.74" y1="246.94" x2="285.43" y2="244.75" gradientTransform="translate(-1 -1)" gradientUnits="userSpaceOnUse"><stop offset="0" stop-color="#054096" stop-opacity=".5"/><stop offset=".05" stop-color="#0f3d9c" stop-opacity=".44"/><stop offset=".26" stop-color="#2f35b1" stop-opacity=".25"/><stop offset=".47" stop-color="#462fbf" stop-opacity=".11"/><stop offset=".67" stop-color="#542bc8" stop-opacity=".03"/><stop offset=".86" stop-color="#592acb" stop-opacity="0"/></linearGradient><linearGradient id="a" x1="275.02" y1="241.52" x2="285.21" y2="241.52" gradientUnits="userSpaceOnUse"><stop offset="0" stop-color="#9059ff"/><stop offset="1" stop-color="#f770ff"/></linearGradient><linearGradient id="d" x1="275.02" y1="240.41" x2="285.21" y2="240.41" xlink:href="#a"/><linearGradient id="e" x1="275.02" y1="239.2" x2="285.21" y2="239.2" xlink:href="#a"/><linearGradient id="f" x1="275.02" y1="237.99" x2="285.21" y2="237.99" xlink:href="#a"/><linearGradient id="g" x1="275.02" y1="236.87" x2="285.21" y2="236.87" xlink:href="#a"/><linearGradient id="h" x1="280.44" y1="243.79" x2="288.79" y2="247.33" gradientUnits="userSpaceOnUse"><stop offset="0" stop-color="#54ffbd"/><stop offset="1" stop-color="#0df"/></linearGradient></defs><ellipse cx="275.09" cy="146.34" rx="115" ry="114.59" fill="#eee6f4"/><rect x="51.59" y="75.1" width="269" height="48.82" rx="2" fill="#fff" stroke="#0a84ff"/><rect x="49.59" y="73.1" width="273" height="52.82" rx="2" fill="none" stroke="#0a84ff" stroke-opacity=".3" stroke-width="3"/><rect x="241.59" y="89.05" width="113" height="161.42" rx="4" fill="#fff" stroke="#979797"/><path fill="#45a1ff" d="M242.09 207.13h112v27.9h-112z"/><path fill="#d8d8d8" d="M259.09 107.48h82v8.97h-82zm0 24.91h82v8.97h-82zm0 24.91h82v8.97h-82zm0 24.91h82v8.97h-82z"/><path fill="#fff" d="M280.09 217.09h61v8.97h-61z"/><path fill="#fff" fill-rule="evenodd" d="M302.24 239.48l1.86-1 1.61-.83-2.56-4.8h4.33l-11.38-11.37v15.96l3.32-3.21 2.82 5.25z"/><path fill-rule="evenodd" d="M302.52 238.01l1.77-.93-2.78-5.19h3.6l-8.02-8.01v11.15l2.53-2.44 2.9 5.42z"/><path d="M71.76 104.49l.15-.86h-4.36l.54-2.73h4.34l.16-.87h-4.4l.46-2.68h4.36l.15-.86H67.9l-1.4 8zm2.43 0l.56-3.11c.23-1.29.89-2.13 2.1-2.13s1.7.79 1.48 2l-.57 3.24h.93l.58-3.24c.3-1.7-.55-2.8-2.17-2.8a2.44 2.44 0 00-2 1l.16-.89h-.9l-1 5.92zm8.79 0l.14-.82c-1.22 0-1.45-.25-1.22-1.46l.51-2.84h1.51l.14-.8h-1.51l.34-1.91-1 .5-.25 1.41h-1.12l-.14.8h1.09l-.5 2.84c-.31 1.75.17 2.28 1.87 2.28zm4.28.12a3.29 3.29 0 002.63-1.16l-.71-.54a2.34 2.34 0 01-1.86.89 1.92 1.92 0 01-2.15-2h5.15v-.24a2.6 2.6 0 00-2.67-3.16 3.31 3.31 0 00-3.34 2.72 2.72 2.72 0 002.95 3.49zm2.27-3.55h-4.26a2.36 2.36 0 012.37-1.83 1.71 1.71 0 011.89 1.83zm2.54 3.43l.53-3a2.07 2.07 0 012.13-2h.56l.18-.92h-.65a2 2 0 00-1.93 1.17l.2-1.17h-.88l-1 5.92zm9.67 0l.56-3.2 3.88-4.8h-1.09l-3.12 3.9-1.76-3.9h-1l2.12 4.68-.58 3.32zm6.12.12a3.18 3.18 0 003.26-2.65 2.82 2.82 0 00-2.81-3.51 3.27 3.27 0 00-3.29 2.68 2.8 2.8 0 002.84 3.48zm0-.83a2 2 0 01-2-2.53 2.3 2.3 0 012.34-2 2 2 0 012 2.58 2.3 2.3 0 01-2.33 1.95zm6.52.83a2.29 2.29 0 002-1l-.16.9h.87l1-5.92h-.9l-.58 3.25c-.23 1.26-1 2-2 2s-1.58-.81-1.37-2l.57-3.24h-.92l-.57 3.26c-.23 1.66.53 2.75 2.07 2.75zm5.25-.12l.53-3c.22-1.19.83-2 2.13-2h.56l.18-.92h-.65a2.07 2.07 0 00-1.94 1.17l.21-1.17h-.88l-1 5.92zm11.72 0l.16-.86h-4.36l.49-2.73h4.34l.15-.87h-4.34l.46-2.68h4.36l.15-.86h-5.26l-1.4 8zm2.43 0l.57-3.19c.22-1.19.88-2.05 2-2.05s1.52.75 1.31 1.94l-.59 3.3h.92l.57-3.24c.22-1.19.79-2 1.89-2s1.58.87 1.38 2.05l-.57 3.19h.92l.58-3.25c.29-1.61-.54-2.79-2.1-2.79a2.53 2.53 0 00-2.21 1.2 1.85 1.85 0 00-1.86-1.2 2.24 2.24 0 00-1.95 1l.17-.92h-.89l-1.05 5.92zm13.46-6a3.27 3.27 0 00-3.19 2.73 2.75 2.75 0 002.7 3.43 2.53 2.53 0 002.1-1.07l-.16 1h.9l1.05-5.92h-.92l-.23 1.25-.06-.15a2.32 2.32 0 00-2.19-1.22zm-.31 5.32a2 2 0 01-2-2.48 2.4 2.4 0 012.33-2 2 2 0 012 2.42 2.42 2.42 0 01-2.32 2.02zm6-6.3a.76.76 0 00.75-.62.66.66 0 00-.66-.8.76.76 0 00-.73.62.64.64 0 00.69.76zm-.86 7l1.05-5.92h-.92l-1 5.92zm2.53 0l1.52-8.63h-.91l-1.52 8.63zm4.86 0l1.15-2h3.82l.43 2h.93l-1.75-8h-.94l-4.63 8zm4.79-2.87h-3.15l2.3-4zm5.19 3a2.68 2.68 0 002.12-1l-.16.93h.88l1.53-8.63h-.92l-.69 4a2.31 2.31 0 00-2.27-1.37 3.23 3.23 0 00-3.17 2.71 2.77 2.77 0 002.73 3.33zm.2-.84a2 2 0 01-2-2.49 2.36 2.36 0 012.34-2 2 2 0 011.95 2.46 2.41 2.41 0 01-2.24 2zm7.27.84a2.68 2.68 0 002.12-1l-.16.93h.88l1.53-8.63h-.92l-.69 4a2.31 2.31 0 00-2.27-1.37 3.23 3.23 0 00-3.17 2.71 2.77 2.77 0 002.68 3.45zm.2-.84a2 2 0 01-2-2.49 2.38 2.38 0 012.35-2 2 2 0 011.94 2.46 2.39 2.39 0 01-2.24 2zm5.18.72l.53-3c.22-1.19.83-2 2.13-2h.56l.18-.92h-.6a2.07 2.07 0 00-1.94 1.17l.21-1.17h-.88l-1 5.92zm6.63.12a3.3 3.3 0 002.63-1.16l-.72-.54a2.3 2.3 0 01-1.85.89 1.91 1.91 0 01-2.15-2h5.15v-.24a2.59 2.59 0 00-2.66-3.16 3.31 3.31 0 00-3.34 2.72 2.72 2.72 0 002.9 3.44zm2.27-3.55h-4.26a2.34 2.34 0 012.36-1.83 1.72 1.72 0 011.95 1.8zm4 3.55a2.13 2.13 0 002.34-1.57c.21-1.24-.84-1.66-1.82-2s-1.57-.48-1.46-1.11.52-.77 1.24-.77a2.08 2.08 0 011.84.89l.77-.51a3.08 3.08 0 00-2.53-1.14c-1.2 0-2 .54-2.21 1.43-.23 1.23.79 1.61 1.79 1.92.84.26 1.6.49 1.49 1.14s-.57.89-1.38.89a2.29 2.29 0 01-2-1l-.8.53a3.21 3.21 0 002.72 1.31zm5.83 0a2.13 2.13 0 002.34-1.57c.21-1.24-.84-1.66-1.82-2s-1.57-.48-1.46-1.11.52-.77 1.24-.77a2.08 2.08 0 011.84.89l.77-.51a3.08 3.08 0 00-2.53-1.14c-1.2 0-2 .54-2.21 1.43-.23 1.23.79 1.61 1.79 1.92.84.26 1.6.49 1.49 1.14s-.57.89-1.38.89a2.29 2.29 0 01-2-1l-.8.53a3.21 3.21 0 002.72 1.31z" fill="#c1c1c5"/><path d="M214.92 223.65a16.11 16.11 0 012-.47c.78-.14 1.65-.26 2.57-.37 1.85-.22 3.91-.36 5.78-.4a30.2 30.2 0 013.38.07 9.11 9.11 0 011.51.22 4.89 4.89 0 01.71.23 2.2 2.2 0 01.81.59 1.7 1.7 0 01.38 1.26 2.11 2.11 0 01-.07.52 7.38 7.38 0 01-.3 1c-.27.73-.66 1.58-1.12 2.53-.93 1.9-2.19 4.15-3.41 6.16-.81 1.34-1.6 2.56-2.28 3.51a14.11 14.11 0 01-1.07 1.36 4.25 4.25 0 01-.58.53 2.3 2.3 0 01-.5.25 1.87 1.87 0 01-.54.08 1.43 1.43 0 01-.73-.24 1.48 1.48 0 01-.39-.35 1.71 1.71 0 01-.25-.48 2 2 0 01-.08-.59v-.46c0-1 0-2-.13-2.76a11.63 11.63 0 00-.48-2.37 7.83 7.83 0 00-1.92-3.13 27.47 27.47 0 00-4.32-3.44 2 2 0 01-.36-.32 1.67 1.67 0 01-.33-.58 1.46 1.46 0 01-.05-.8 1.7 1.7 0 01.26-.62 1.86 1.86 0 01.62-.55 2.16 2.16 0 01.37-.19 4.65 4.65 0 01.52-.2z" fill="#fc7415" fill-rule="evenodd"/><path d="M245.64 246.75c-79.24 36.8-164.95 24.12-193.39 1.13-23.25-18.83-33.71-44.32-31.56-69.34 3.24-37.86 35.26-74.65 95-85.65Q239.42 70.11 220.55 19.6" transform="translate(-18.91 -18.1)" fill="none" stroke-linecap="round" stroke-width="3" stroke="url(#b)"/><path d="M268.01 223.74h-6.68a.36.36 0 00-.36.36v1.07a2.86 2.86 0 002.85 2.85h3.7a2.14 2.14 0 002.14-2.14v-.98c0-.49-.57-1.16-1.65-1.16z" fill="#008787"/><path d="M286.92 241.84h-6.68a.36.36 0 00-.36.36v1.07a2.86 2.86 0 002.85 2.85h3.7a2.14 2.14 0 002.14-2.14V243c0-.49-.57-1.16-1.65-1.16z" transform="translate(-18.91 -18.1)" fill="url(#c)" opacity=".9"/><path d="M267.54 216.65l-5.83-3.27a1.41 1.41 0 00-1.35 0l-5.83 3.27a1.38 1.38 0 00-.7 1.2v6.54a1.35 1.35 0 00.7 1.2l5.83 3.27a1.36 1.36 0 001.35 0l5.83-3.27a1.37 1.37 0 00.7-1.2v-6.49a1.4 1.4 0 00-.7-1.25z" fill="#20123a"/><path d="M275.87 241l-.36.2a.54.54 0 00-.21.74.55.55 0 00.48.28.54.54 0 00.27-.07l.35-.2a.54.54 0 10-.53-1z" transform="translate(-18.91 -18.1)" fill="url(#a)"/><path d="M278 239.73l-.71.41a.54.54 0 00.27 1 .48.48 0 00.26-.07l.72-.4a.55.55 0 00-.54-1z" transform="translate(-18.91 -18.1)" fill="url(#d)"/><path d="M280.9 238.73a.52.52 0 00-.29-.24v-4.14a.55.55 0 00-.54-.55.55.55 0 00-.55.55v4.14a.52.52 0 00-.29.24 3.7 3.7 0 000 .94.52.52 0 00.29.24v4.14a.55.55 0 00.55.55.55.55 0 00.54-.55v-4.14a1.3 1.3 0 00.29-1.18z" transform="translate(-18.91 -18.1)" fill="url(#e)"/><path d="M282.3 237.31l-.71.4a.54.54 0 00-.21.75.56.56 0 00.48.27.48.48 0 00.26-.07l.72-.4a.55.55 0 10-.54-.95z" transform="translate(-18.91 -18.1)" fill="url(#f)"/><path d="M284 237.52a.52.52 0 00.27-.07l.36-.2a.55.55 0 00.2-.75.54.54 0 00-.74-.2l-.36.2a.54.54 0 00-.2.74.53.53 0 00.47.28z" transform="translate(-18.91 -18.1)" fill="url(#g)"/><path d="M284.63 241.15l-.36-.2a.54.54 0 00-.74.2.55.55 0 00.2.75l.36.2a.52.52 0 00.27.07.53.53 0 00.47-.28.54.54 0 00-.2-.74z" transform="translate(-18.91 -18.1)" fill="url(#a)"/><path d="M282.84 240.14l-.72-.41a.55.55 0 00-.74.21.55.55 0 00.21.75l.71.4a.54.54 0 00.27.07.54.54 0 00.27-1z" transform="translate(-18.91 -18.1)" fill="url(#d)"/><path d="M277.3 238.26l.71.4a.54.54 0 00.27.07.54.54 0 00.27-1l-.72-.4a.54.54 0 10-.53.95z" transform="translate(-18.91 -18.1)" fill="url(#f)"/><path d="M276.4 236.5l-.35-.2a.55.55 0 10-.54.95l.36.2a.48.48 0 00.26.07.55.55 0 00.48-.28.54.54 0 00-.21-.74z" transform="translate(-18.91 -18.1)" fill="url(#g)"/><path d="M288.21 243.4h-6.14a2.64 2.64 0 00-2.64 2.63v1.29a.36.36 0 00.36.36h6.14a2.64 2.64 0 002.64-2.64v-2a.36.36 0 01-.36.36z" transform="translate(-18.91 -18.1)" fill="url(#h)"/><path d="M263.27 227.41a.38.38 0 00.21-.35c0-.32-.22-.5-.62-.5h-.77v1.77h.74c.39 0 .63-.17.63-.52a.42.42 0 00-.19-.4zm-.8-.55h.4c.18 0 .26.08.26.2s-.07.21-.25.21h-.41zm.4 1.16h-.4v-.44h.39c.21 0 .3.08.3.22s-.07.22-.29.22zm.96.31h1.19v-.32h-.85v-.41h.85v-.32h-.85v-.4h.85v-.32h-1.19v1.77zm2.8-1.77h-1.32v.32h.49v1.45h.34v-1.45h.49v-.32zm.91 0h-.33l-.67 1.77h.35l.12-.32h.74l.11.32h.35zm-.45 1.14l.26-.7.25.7z" fill="#20123a"/></svg>