<svg data-name="Layer 1" xmlns="http://www.w3.org/2000/svg" xmlns:xlink="http://www.w3.org/1999/xlink" viewBox="0 0 423 166"><defs><linearGradient id="b" x1="260.14" y1="126.66" x2="255.89" y2="122.63" gradientUnits="userSpaceOnUse"><stop offset="0" stop-color="#054096" stop-opacity=".5"/><stop offset=".05" stop-color="#0f3d9c" stop-opacity=".44"/><stop offset=".26" stop-color="#2f35b1" stop-opacity=".25"/><stop offset=".47" stop-color="#462fbf" stop-opacity=".11"/><stop offset=".67" stop-color="#542bc8" stop-opacity=".03"/><stop offset=".86" stop-color="#592acb" stop-opacity="0"/></linearGradient><linearGradient id="a" x1="238.62" y1="118.54" x2="257.33" y2="118.54" gradientUnits="userSpaceOnUse"><stop offset="0" stop-color="#9059ff"/><stop offset="1" stop-color="#f770ff"/></linearGradient><linearGradient id="c" x1="238.62" y1="116.5" x2="257.33" y2="116.5" xlink:href="#a"/><linearGradient id="d" x1="238.62" y1="114.27" x2="257.33" y2="114.27" xlink:href="#a"/><linearGradient id="e" x1="238.62" y1="112.04" x2="257.33" y2="112.04" xlink:href="#a"/><linearGradient id="f" x1="238.62" y1="110" x2="257.33" y2="110" xlink:href="#a"/><linearGradient id="g" x1="248.56" y1="122.71" x2="263.9" y2="129.19" gradientUnits="userSpaceOnUse"><stop offset="0" stop-color="#54ffbd"/><stop offset="1" stop-color="#0df"/></linearGradient><linearGradient id="h" x1="254.74" y1="66.09" x2="219.69" y2="116.93" gradientTransform="rotate(-97.62 251.977 99.75)" gradientUnits="userSpaceOnUse"><stop offset="0" stop-color="#ff9100"/><stop offset=".52" stop-color="#f10366"/><stop offset="1" stop-color="#6173ff"/></linearGradient></defs><circle cx="237.95" cy="83" r="83" fill="#eee6f4"/><path fill="#b1b1b3" d="M290 57.67h133v50H290z"/><path d="M330.3 87.79a2.91 2.91 0 003.21-2.75c0-1.9-1.54-2.33-2.89-2.62-1.09-.25-2-.38-2-1.09s.41-1 1.36-1a2.26 2.26 0 012.05 1.09l1.38-1.08a4.2 4.2 0 00-3.41-1.52c-1.82 0-3.1 1.15-3.1 2.59 0 1.77 1.46 2.19 2.77 2.47s2.05.44 2.05 1.26c0 .64-.49 1.09-1.44 1.09a2.7 2.7 0 01-2.4-1.38L326.43 86a4.57 4.57 0 003.87 1.8zm6.77 0a2.24 2.24 0 001.87-1v.82h1.65v-6.48h-1.68v3.56c0 1-.57 1.57-1.35 1.57s-1.32-.56-1.32-1.47v-3.66h-1.69v3.89a2.4 2.4 0 002.52 2.72zm8.52 0a3.38 3.38 0 000-6.74 2.38 2.38 0 00-2 1V78.2h-1.69v9.47h1.63v-.9a2.43 2.43 0 002.06 1zm-.34-1.56a1.83 1.83 0 111.79-1.82 1.8 1.8 0 01-1.79 1.83zm7 1.56c1.89 0 2.79-1.13 2.79-2.14 0-1.39-1.28-1.76-2.36-2s-1.47-.31-1.47-.72.31-.62 1-.62a1.38 1.38 0 011.27.68l1.51-.61A3.08 3.08 0 00352.2 81c-1.6 0-2.65.94-2.65 2 0 1.37 1.21 1.7 2.3 1.93.83.17 1.52.28 1.52.75s-.36.7-1 .7a1.57 1.57 0 01-1.49-.87l-1.59.62a3.05 3.05 0 003 1.61zm7 0a3.37 3.37 0 003.18-2.06l-1.55-.64a1.7 1.7 0 01-1.61 1.13 1.82 1.82 0 010-3.63 1.66 1.66 0 011.61 1.12l1.52-.61a3.28 3.28 0 00-3.15-2 3.37 3.37 0 100 6.74zm5.8-.13v-3.42c0-1.09.55-1.53 1.4-1.53a1.52 1.52 0 01.86.23l.6-1.63a2.44 2.44 0 00-1.09-.25 1.79 1.79 0 00-1.79 1.11v-1h-1.63v6.48zm4.56-7.25a1 1 0 001.06-1.06 1.06 1.06 0 10-2.12 0 1 1 0 001.1 1.07zm.85 7.25v-6.48h-1.69v6.48zm5 .13a3.38 3.38 0 000-6.74 2.39 2.39 0 00-2 1V78.2h-1.65v9.47h1.64v-.9a2.4 2.4 0 002.05 1zm-.34-1.56a1.83 1.83 0 111.79-1.82 1.8 1.8 0 01-1.77 1.83zm7.77 1.56a3.4 3.4 0 003-1.5l-1.35-.79a1.77 1.77 0 01-1.61.86 1.8 1.8 0 01-1.86-1.37h5.15v-.62a3.23 3.23 0 00-3.35-3.32 3.35 3.35 0 00-3.4 3.38 3.27 3.27 0 003.44 3.36zm1.66-4.09h-3.45a1.79 1.79 0 011.75-1.25 1.62 1.62 0 011.7 1.25z" fill="#fff"/><rect x="3.5" y="58.17" width="270" height="49" rx="4" fill="#fff" stroke="#0a84ff"/><rect x="1.5" y="56.17" width="274" height="53" rx="4" fill="none" stroke="#0a84ff" stroke-opacity=".29" stroke-width="3"/><path d="M33.67 87.67l.15-.87h-4.36l.49-2.74h4.34l.16-.87H30.1l.46-2.69h4.36l.15-.86h-5.26l-1.4 8zm2.43 0l.56-3.13c.23-1.29.89-2.13 2.1-2.13s1.7.79 1.48 2l-.57 3.26h.93l.58-3.26c.3-1.7-.55-2.8-2.17-2.8a2.41 2.41 0 00-2 1l.16-.89h-.9l-1 5.94zm8.79 0l.14-.83c-1.23 0-1.46-.25-1.23-1.46l.51-2.85h1.51l.14-.8h-1.54l.34-1.93-1 .51-.25 1.42h-1.08l-.14.8h1.09l-.5 2.85c-.3 1.75.17 2.29 1.87 2.29zm4.29.12a3.29 3.29 0 002.62-1.17l-.71-.54a2.29 2.29 0 01-1.86.89 1.91 1.91 0 01-2.14-2h5.14l.05-.24a2.6 2.6 0 00-2.66-3.17 3.32 3.32 0 00-3.35 2.72 2.73 2.73 0 002.91 3.51zm2.26-3.57h-4.26a2.36 2.36 0 012.37-1.83 1.71 1.71 0 011.89 1.83zM54 87.67l.53-3a2.07 2.07 0 012.13-2h.56l.18-.92h-.65a2.05 2.05 0 00-1.93 1.16l.2-1.16h-.88l-1 5.94zm9.67 0l.56-3.21 3.89-4.82H67l-3.12 3.91-1.76-3.91h-1l2.12 4.69-.58 3.34zm6.12.12A3.19 3.19 0 0073 85.13a2.82 2.82 0 00-2.81-3.52 3.26 3.26 0 00-3.29 2.68 2.81 2.81 0 002.87 3.5zm0-.84a2 2 0 01-2-2.54 2.3 2.3 0 012.34-2 2 2 0 012 2.59 2.3 2.3 0 01-2.35 2zm6.52.84a2.29 2.29 0 002-1l-.15.9H79l1-5.94h-.9L78.57 85c-.23 1.27-1 2-2 2s-1.58-.81-1.37-2l.57-3.24h-.92L74.3 85c-.31 1.7.46 2.8 2 2.8zm5.25-.12l.53-3c.22-1.19.83-2 2.13-2h.56l.18-.92h-.66a2.08 2.08 0 00-1.94 1.16l.21-1.16h-.88l-1 5.94zm11.72 0l.16-.87h-4.37l.49-2.74h4.34l.15-.87h-4.34l.46-2.69h4.36l.15-.86h-5.26l-1.4 8zm2.43 0l.57-3.2c.22-1.2.88-2.06 2-2.06s1.52.75 1.31 2L99 87.72h.92l.57-3.26c.22-1.19.79-2 1.89-2s1.59.87 1.38 2.06l-.57 3.2h.92l.58-3.27c.29-1.62-.54-2.79-2.1-2.79a2.54 2.54 0 00-2.21 1.2 1.85 1.85 0 00-1.86-1.2 2.22 2.22 0 00-2 1l.17-.92h-.89l-1 5.94zm13.46-6.06a3.27 3.27 0 00-3.19 2.74 2.76 2.76 0 002.7 3.44 2.54 2.54 0 002.1-1.08l-.16 1h.9l1-5.94h-.92l-.23 1.25-.06-.15a2.32 2.32 0 00-2.15-1.26zm-.31 5.33a2 2 0 01-2-2.48 2.41 2.41 0 012.33-2 2 2 0 012 2.43 2.42 2.42 0 01-2.34 2.05zm6-6.32a.76.76 0 00.75-.62.66.66 0 00-.66-.8.75.75 0 00-.73.61.64.64 0 00.67.81zm-.86 7l1-5.94h-.92l-1 5.94zm2.53 0l1.52-8.67h-.91l-1.52 8.67zm4.86 0l1.15-2h3.82l.43 2h.93l-1.75-8h-.94l-4.63 8zm4.79-2.88h-3.15l2.3-4.05zm5.19 3a2.69 2.69 0 002.12-1.06l-.16.94h.88l1.53-8.67h-.92l-.69 4a2.31 2.31 0 00-2.26-1.37 3.23 3.23 0 00-3.18 2.71 2.78 2.78 0 002.68 3.47zm.2-.85a2 2 0 01-2-2.5 2.37 2.37 0 012.34-2 2 2 0 011.95 2.48 2.41 2.41 0 01-2.29 2zm7.27.85a2.69 2.69 0 002.12-1.06l-.16.94h.88l1.53-8.67h-.92l-.69 4a2.31 2.31 0 00-2.27-1.37 3.23 3.23 0 00-3.17 2.71 2.78 2.78 0 002.68 3.47zm.2-.85a2.05 2.05 0 01-2-2.5 2.39 2.39 0 012.35-2 2 2 0 011.94 2.48 2.39 2.39 0 01-2.28 2zm5.18.73l.53-3c.22-1.19.83-2 2.13-2h.56l.18-.92H147a2.08 2.08 0 00-1.94 1.16l.21-1.16h-.88l-1 5.94zm6.63.12a3.31 3.31 0 002.63-1.17l-.72-.54a2.27 2.27 0 01-1.85.89 1.91 1.91 0 01-2.15-2h5.15v-.25a2.59 2.59 0 00-2.66-3.16 3.31 3.31 0 00-3.34 2.72 2.73 2.73 0 002.9 3.46zm2.27-3.57h-4.26a2.34 2.34 0 012.36-1.83 1.72 1.72 0 011.93 1.88zm4 3.57a2.12 2.12 0 002.34-1.59c.21-1.24-.84-1.66-1.82-2s-1.57-.49-1.46-1.13c.09-.48.52-.77 1.24-.77a2.06 2.06 0 011.84.9l.77-.51a3.08 3.08 0 00-2.53-1.14c-1.2 0-2 .54-2.21 1.43-.23 1.23.79 1.61 1.79 1.92.84.27 1.6.5 1.49 1.15s-.57.9-1.38.9a2.27 2.27 0 01-2-1.06l-.8.53a3.21 3.21 0 002.72 1.32zm5.83 0a2.12 2.12 0 002.34-1.59c.21-1.24-.84-1.66-1.82-2s-1.57-.49-1.46-1.13c.09-.48.52-.77 1.24-.77a2.06 2.06 0 011.84.9l.77-.51a3.08 3.08 0 00-2.53-1.14c-1.2 0-2 .54-2.21 1.43-.23 1.23.79 1.61 1.79 1.92.84.27 1.6.5 1.49 1.15s-.57.9-1.38.9a2.27 2.27 0 01-2-1.06l-.8.53a3.21 3.21 0 002.72 1.32z" fill="#c1c1c5"/><path d="M254.46 87.12h-12.27a.65.65 0 00-.65.66v2a5.23 5.23 0 005.23 5.23h6.79a3.92 3.92 0 003.93-3.92v-1.72c0-1.02-.98-2.25-3.03-2.25z" fill="#008787"/><path d="M260.46 119.12h-12.27a.65.65 0 00-.65.66v2a5.23 5.23 0 005.23 5.23h6.79a3.92 3.92 0 003.93-3.92v-1.72c0-1.02-.98-2.25-3.03-2.25z" transform="translate(-6 -32)" fill="url(#b)" opacity=".9"/><path d="M253.61 74.11l-10.72-6a2.51 2.51 0 00-2.46 0l-10.72 6a2.5 2.5 0 00-1.29 2.2v12a2.52 2.52 0 001.29 2.2l10.72 6a2.44 2.44 0 001.23.33 2.47 2.47 0 001.23-.33l10.72-6a2.54 2.54 0 001.29-2.2v-12a2.52 2.52 0 00-1.29-2.2z" fill="#20123a"/><path d="M240.17 117.48l-.66.37a1 1 0 00-.38 1.37 1 1 0 00.88.51 1.05 1.05 0 00.49-.13l.66-.37a1 1 0 00-1-1.75z" transform="translate(-6 -32)" fill="url(#a)"/><path d="M244.11 115.25l-1.31.74a1 1 0 00-.38 1.37 1 1 0 00.87.51 1 1 0 00.49-.13l1.32-.74a1 1 0 10-1-1.75z" transform="translate(-6 -32)" fill="url(#c)"/><path d="M249.42 113.4a1.07 1.07 0 00-.53-.44v-7.6a1 1 0 00-2 0V113a1 1 0 00-.52.44 1 1 0 00-.06.87 1 1 0 00.06.86 1 1 0 00.52.45v7.6a1 1 0 002 0v-7.6a1 1 0 00.53-.45 1 1 0 00.05-.86 1 1 0 00-.05-.91z" transform="translate(-6 -32)" fill="url(#d)"/><path d="M252 110.8l-1.32.74a1 1 0 00-.38 1.37 1 1 0 00.88.51 1.05 1.05 0 00.49-.13l1.32-.75a1 1 0 10-1-1.74z" transform="translate(-6 -32)" fill="url(#e)"/><path d="M255.11 111.19a1 1 0 00.49-.13l.66-.37a1 1 0 00-1-1.75l-.66.37a1 1 0 00.5 1.88z" transform="translate(-6 -32)" fill="url(#f)"/><path d="M256.26 117.85l-.66-.37a1 1 0 10-1 1.75l.66.37a1.09 1.09 0 00.49.13 1 1 0 00.88-.51 1 1 0 00-.37-1.37z" transform="translate(-6 -32)" fill="url(#a)"/><path d="M253 116l-1.32-.74a1 1 0 10-1 1.75l1.32.74a1 1 0 00.49.13A1 1 0 00253 116z" transform="translate(-6 -32)" fill="url(#c)"/><path d="M242.8 112.54l1.31.75a1.05 1.05 0 00.49.13 1 1 0 00.88-.51 1 1 0 00-.38-1.37l-1.32-.74a1 1 0 10-1 1.74z" transform="translate(-6 -32)" fill="url(#e)"/><path d="M241.16 109.31l-.66-.37a1 1 0 10-1 1.75l.66.37a1 1 0 00.49.13 1 1 0 00.5-1.88z" transform="translate(-6 -32)" fill="url(#f)"/><path d="M262.84 122h-11.28a4.84 4.84 0 00-4.84 4.84v2.36a.66.66 0 00.66.66h11.28a4.84 4.84 0 004.83-4.84v-3.67a.65.65 0 01-.65.65z" transform="translate(-6 -32)" fill="url(#g)"/><path d="M245.77 93.87a.72.72 0 00.37-.66c0-.58-.4-.91-1.12-.91h-1.35v3.25H245c.72 0 1.16-.32 1.16-1a.75.75 0 00-.39-.68zm-1.48-1h.71c.33 0 .49.13.49.36s-.15.39-.48.39h-.75zM245 95h-.74v-.81h.74c.39 0 .55.15.55.4s-.17.41-.55.41zm1.79.55h2.19v-.6h-1.56v-.74h1.56v-.59h-1.56v-.73h1.56v-.59h-2.19v3.25zm5.14-3.25h-2.42v.58h.91v2.67h.62v-2.67h.89v-.58zm1.68 0H253l-1.22 3.25h.64l.22-.59H254l.22.59h.64zm-.78 2.09l.48-1.29.46 1.29z" fill="#20123a"/><path d="M228.61 126.71a1.43 1.43 0 00-1.8-.64l-.13.06-12.61 6.87a1.44 1.44 0 001.25 2.58l.12-.06 12.62-6.88a1.43 1.43 0 00.55-1.93zm10.5 11.38a1.4 1.4 0 00-1.85.41l-.08.12-7 12.62a1.45 1.45 0 00.55 1.95 1.41 1.41 0 001.86-.41l.07-.12 7-12.63a1.44 1.44 0 00-.55-1.94zm-13.37-25.81a1.45 1.45 0 00-1.34-1.52l-14.4-1h-.14a1.4 1.4 0 00-1.35 1.34 1.44 1.44 0 001.34 1.51l14.4 1h.14a1.39 1.39 0 001.35-1.33zm35.31-34.41a1.39 1.39 0 00-1.85.42l-.07.11-7 12.63a1.45 1.45 0 00.55 2 1.4 1.4 0 001.86-.42l.07-.11 7-12.63a1.45 1.45 0 00-.56-2zm24.28 40a1.45 1.45 0 00-1.34-1.52l-14.4-.95h-.14a1.4 1.4 0 00-1.35 1.34 1.46 1.46 0 001.34 1.52l14.4 1h.16a1.39 1.39 0 001.35-1.33zm-6.91-22.75a1.42 1.42 0 00-1.8-.64l-.12.06-12.62 6.88a1.43 1.43 0 001.25 2.57l.12-.06 12.62-6.88a1.42 1.42 0 00.55-1.9z" transform="translate(-6 -32)" fill="url(#h)"/></svg>