<svg width="239" height="120" viewBox="0 0 239 120" fill="none" xmlns="http://www.w3.org/2000/svg">
<path d="M179 120C212.137 120 239 93.1371 239 60C239 26.8629 212.137 0 179 0C145.863 0 119 26.8629 119 60C119 93.1371 145.863 120 179 120Z" fill="#EEE6F4"/>
<path d="M208.095 41.1281H6.83776C5.1408 41.1281 3.76514 42.7087 3.76514 44.6584V80.8434C3.76514 82.7931 5.1408 84.3737 6.83776 84.3737H208.095C209.792 84.3737 211.167 82.7931 211.167 80.8434V44.6584C211.167 42.7087 209.792 41.1281 208.095 41.1281Z" fill="white" stroke="#0A84FF"/>
<path d="M209.853 39.363H5.0793C3.37865 39.363 2 40.9435 2 42.8932V82.6085C2 84.5582 3.37865 86.1388 5.0793 86.1388H209.853C211.554 86.1388 212.932 84.5582 212.932 82.6085V42.8932C212.932 40.9435 211.554 39.363 209.853 39.363Z" stroke="#0A84FF" stroke-opacity="0.29" stroke-width="3"/>
<path d="M19.8807 66.4752L20.0131 65.7074H16.1651L16.5976 63.2892H20.4279L20.5691 62.5214H16.73L17.1359 60.1473H20.9839L21.1163 59.3883H16.474L15.2384 66.4488L19.8807 66.4752ZM22.0253 66.4752L22.5196 63.7128C22.7226 62.5743 23.3051 61.833 24.373 61.833C25.4409 61.833 25.8733 62.5302 25.6791 63.5981L25.1761 66.4752H25.9969L26.5088 63.5981C26.7735 62.0977 26.0233 61.1269 24.5936 61.1269C24.25 61.1205 23.9099 61.1974 23.6025 61.3511C23.2951 61.5048 23.0295 61.7307 22.8285 62.0095L22.9697 61.224H22.1754L21.2928 66.4664L22.0253 66.4752ZM29.7831 66.4752L29.9066 65.7427C28.8211 65.7427 28.6181 65.5221 28.8211 64.4542L29.2712 61.9389H30.6038L30.7274 61.2328H29.3683L29.6683 59.5295L28.7858 59.9796L28.5651 61.2328H27.612L27.4884 61.9389H28.4504L28.0091 64.4542C27.7443 65.9987 28.1591 66.4752 29.6595 66.4752H29.7831ZM33.5693 66.5812C34.0076 66.5948 34.4434 66.5091 34.8439 66.3302C35.2444 66.1514 35.5992 65.8841 35.8816 65.5486L35.2549 65.072C35.0618 65.3221 34.8127 65.5235 34.5276 65.6599C34.2425 65.7963 33.9294 65.864 33.6134 65.8575C33.3687 65.8875 33.1205 65.8635 32.8861 65.7872C32.6517 65.711 32.437 65.5842 32.2569 65.4159C32.0768 65.2476 31.9358 65.0419 31.8439 64.8132C31.7519 64.5845 31.7112 64.3384 31.7247 64.0923H36.2611L36.3052 63.8805C36.3831 63.5357 36.3803 63.1775 36.2969 62.8339C36.2136 62.4903 36.052 62.1707 35.8247 61.8998C35.5975 61.629 35.3107 61.4144 34.9869 61.2726C34.663 61.1309 34.3107 61.0659 33.9576 61.0828C33.2596 61.065 32.5782 61.2971 32.0361 61.7372C31.494 62.1773 31.127 62.7966 31.001 63.4834C30.8846 63.8649 30.8648 64.2693 30.9433 64.6604C31.0218 65.0515 31.1962 65.4169 31.4508 65.724C31.7053 66.0311 32.0322 66.2701 32.4019 66.4197C32.7717 66.5693 33.1728 66.6248 33.5693 66.5812V66.5812ZM35.5638 63.4304H31.8041C31.9121 62.9608 32.1796 62.5432 32.561 62.2487C32.9424 61.9542 33.4141 61.801 33.8958 61.8153C34.1161 61.7913 34.3391 61.8162 34.5487 61.8881C34.7584 61.96 34.9496 62.0772 35.1088 62.2314C35.2681 62.3856 35.3914 62.573 35.47 62.7802C35.5487 62.9874 35.5807 63.2094 35.5638 63.4304ZM37.8232 66.4752L38.291 63.8276C38.3071 63.3445 38.514 62.8875 38.8663 62.5567C39.2186 62.2259 39.6877 62.0482 40.1708 62.0624H40.6651L40.8239 61.2505H40.2502C39.8974 61.2363 39.5481 61.3256 39.2454 61.5075C38.9428 61.6895 38.6999 61.956 38.5469 62.2742L38.7234 61.2505H37.9468L37.0642 66.4929L37.8232 66.4752ZM46.3576 66.4752L46.8518 63.6422L50.285 59.3883H49.2965L46.5429 62.8391L44.9896 59.3883H44.107L45.9781 63.5275L45.4662 66.4752H46.3576ZM51.7589 66.5812C52.4342 66.5948 53.0918 66.3651 53.6119 65.9342C54.132 65.5032 54.4798 64.8996 54.5919 64.2335C54.6877 63.8602 54.6955 63.4698 54.6147 63.093C54.5339 62.7161 54.3667 62.3632 54.1263 62.062C53.8858 61.7608 53.5787 61.5196 53.2292 61.3573C52.8796 61.1951 52.4971 61.1162 52.1119 61.1269C51.4252 61.1097 50.7551 61.3387 50.2226 61.7724C49.69 62.2062 49.3302 62.8162 49.2083 63.4922C49.1123 63.8689 49.1062 64.263 49.1905 64.6425C49.2749 65.022 49.4472 65.3764 49.6938 65.6771C49.9403 65.9777 50.254 66.2162 50.6097 66.3732C50.9654 66.5303 51.353 66.6015 51.7412 66.5812H51.7589ZM51.7589 65.8398C51.4809 65.8502 51.2044 65.7947 50.952 65.678C50.6995 65.5612 50.4782 65.3864 50.3061 65.1679C50.1341 64.9493 50.0161 64.6932 49.9618 64.4204C49.9075 64.1476 49.9184 63.8659 49.9937 63.5981C50.059 63.1007 50.3062 62.6451 50.6875 62.3191C51.0689 61.9932 51.5574 61.82 52.0589 61.833C52.3419 61.8203 52.6237 61.8758 52.8806 61.995C53.1375 62.1141 53.362 62.2933 53.5351 62.5175C53.7082 62.7416 53.8248 63.0042 53.8751 63.2829C53.9254 63.5616 53.9079 63.8483 53.8241 64.1188C53.7586 64.6178 53.5102 65.0746 53.127 65.4008C52.7438 65.727 52.253 65.8991 51.75 65.8839L51.7589 65.8398ZM57.5132 66.5812C57.8583 66.5972 58.2018 66.5245 58.5108 66.37C58.8198 66.2154 59.084 65.9843 59.2783 65.6986L59.1459 66.4929H59.8873L60.7698 61.2505H59.9755L59.5078 64.1188C59.3048 65.2397 58.6252 65.8839 57.7426 65.8839C56.8601 65.8839 56.3482 65.1691 56.5335 64.1188L57.0366 61.2593H56.2246L55.7392 64.1188C55.4656 65.6192 56.1452 66.59 57.5043 66.59L57.5132 66.5812ZM62.1466 66.4752L62.6144 63.8276C62.8085 62.7773 63.3469 62.0624 64.4942 62.0624H64.9885L65.1473 61.2505H64.5648C64.2111 61.2379 63.8613 61.3279 63.5576 61.5095C63.2538 61.6911 63.009 61.9567 62.8527 62.2742L63.038 61.2505H62.2614L61.3788 66.4929L62.1466 66.4752ZM72.4902 66.4752L72.6315 65.7074H68.7747L69.2071 63.2892H73.0374L73.1698 62.5214H69.3395L69.7455 60.1473H73.5934L73.7258 59.3883H69.0836L67.848 66.4488L72.4902 66.4752ZM74.6349 66.4752L75.1379 63.651C75.3321 62.592 75.9146 61.833 76.9031 61.833C77.8915 61.833 78.2445 62.4949 78.0592 63.5981L77.5385 66.5194H78.3505L78.8535 63.6422C79.0477 62.592 79.5507 61.8771 80.5216 61.8771C81.4924 61.8771 81.9248 62.6449 81.7395 63.6952L81.2364 66.5194H82.0484L82.5603 63.6334C82.8162 62.2036 82.0837 61.171 80.7069 61.171C80.3178 61.1631 79.9334 61.2566 79.5914 61.4423C79.2494 61.628 78.9617 61.8995 78.7564 62.2301C78.6336 61.9002 78.4074 61.6188 78.1115 61.428C77.8157 61.2371 77.4661 61.147 77.1149 61.171C76.7689 61.1488 76.4232 61.2188 76.1131 61.3739C75.803 61.5289 75.5396 61.7635 75.3498 62.0536L75.4998 61.2416H74.7143L73.8317 66.4841L74.6349 66.4752ZM86.5142 61.1269C85.8354 61.1346 85.1811 61.3812 84.6662 61.8235C84.1513 62.2657 83.8088 62.8753 83.6988 63.5451C83.6069 63.9065 83.5992 64.2841 83.6763 64.649C83.7534 65.0138 83.9132 65.356 84.1434 65.6493C84.3736 65.9426 84.6681 66.1792 85.0041 66.3407C85.3402 66.5023 85.7089 66.5845 86.0817 66.5812C86.4447 66.5842 86.8031 66.4991 87.1259 66.333C87.4487 66.167 87.7264 65.9251 87.9351 65.628L87.7939 66.5105H88.5882L89.4707 61.2681H88.6588L88.4558 62.3713L88.4028 62.2389C88.2251 61.8923 87.9522 61.6035 87.6161 61.4065C87.28 61.2096 86.8946 61.1126 86.5053 61.1269H86.5142ZM86.2406 65.831C85.9684 65.839 85.6981 65.7839 85.4507 65.67C85.2034 65.5562 84.9857 65.3866 84.8148 65.1747C84.6439 64.9627 84.5243 64.7141 84.4654 64.4482C84.4066 64.1824 84.41 63.9065 84.4754 63.6422C84.5595 63.1548 84.8108 62.7119 85.1861 62.3898C85.5614 62.0676 86.0373 61.8863 86.5318 61.8771C86.7993 61.8708 87.0647 61.9254 87.308 62.0368C87.5513 62.1482 87.766 62.3134 87.9361 62.52C88.1061 62.7266 88.2269 62.9692 88.2895 63.2293C88.352 63.4895 88.3545 63.7604 88.2969 64.0217C88.2203 64.5179 87.9713 64.9713 87.5936 65.3022C87.2159 65.633 86.7337 65.8203 86.2317 65.831H86.2406ZM91.5359 60.2532C91.6929 60.2538 91.845 60.1994 91.966 60.0994C92.0869 59.9994 92.169 59.8602 92.1979 59.706C92.2166 59.6199 92.2155 59.5306 92.1948 59.445C92.174 59.3594 92.1341 59.2796 92.078 59.2116C92.0219 59.1436 91.9511 59.0893 91.871 59.0526C91.7909 59.0159 91.7035 58.9979 91.6154 58.9999C91.4623 59.0013 91.3144 59.0557 91.197 59.1539C91.0795 59.2521 90.9997 59.3879 90.9711 59.5383C90.9466 59.6261 90.9437 59.7185 90.9626 59.8077C90.9815 59.8968 91.0218 59.9801 91.0799 60.0503C91.138 60.1206 91.2122 60.1757 91.2962 60.211C91.3803 60.2464 91.4716 60.2608 91.5624 60.2532H91.5359ZM90.7769 66.4311L91.6595 61.1887H90.8475L89.965 66.4311H90.7769ZM93.0098 66.4311L94.3513 58.7793H93.5482L92.2067 66.4311H93.0098ZM97.2991 66.4311L98.314 64.666H101.685L102.065 66.4311H102.886L101.341 59.3706H100.512L96.4253 66.4311H97.2991ZM101.527 63.8893H98.7465L100.776 60.315L101.527 63.8893ZM106.107 66.537C106.47 66.5343 106.827 66.4486 107.151 66.2864C107.475 66.1243 107.758 65.89 107.978 65.6015L107.837 66.4311H108.614L109.964 58.7793H109.152L108.543 62.3095C108.374 61.9282 108.092 61.6078 107.736 61.3916C107.379 61.1754 106.965 61.0738 106.548 61.1004C105.873 61.1021 105.22 61.3434 104.706 61.7814C104.192 62.2194 103.85 62.8257 103.742 63.4922C103.649 63.8536 103.64 64.2314 103.716 64.5968C103.791 64.9622 103.949 65.3056 104.177 65.6009C104.405 65.8962 104.697 66.1356 105.032 66.3008C105.366 66.4661 105.734 66.5529 106.107 66.5547V66.537ZM106.284 65.7868C106.009 65.7956 105.737 65.7404 105.488 65.6255C105.239 65.5107 105.02 65.3394 104.849 65.1253C104.678 64.9111 104.559 64.6601 104.501 64.3919C104.444 64.1237 104.45 63.8459 104.518 63.5804C104.596 63.0885 104.847 62.6405 105.225 62.317C105.604 61.9934 106.086 61.8155 106.584 61.8153C106.852 61.8142 107.117 61.8743 107.359 61.9911C107.601 62.1079 107.813 62.2783 107.979 62.4894C108.145 62.7005 108.26 62.9466 108.317 63.2091C108.373 63.4715 108.369 63.7434 108.305 64.0041C108.222 64.4857 107.976 64.9241 107.608 65.2456C107.239 65.567 106.772 65.7519 106.284 65.7692V65.7868ZM112.7 66.537C113.062 66.5343 113.42 66.4486 113.744 66.2864C114.068 66.1243 114.351 65.89 114.571 65.6015L114.43 66.4311H115.206L116.557 58.7793H115.745L115.136 62.3095C114.966 61.9267 114.683 61.6053 114.325 61.3889C113.966 61.1726 113.55 61.0719 113.132 61.1004C112.458 61.1042 111.808 61.3464 111.296 61.7843C110.783 62.2221 110.443 62.8272 110.335 63.4922C110.242 63.8536 110.233 64.2314 110.308 64.5968C110.384 64.9622 110.541 65.3056 110.769 65.6009C110.998 65.8962 111.29 66.1356 111.624 66.3008C111.959 66.4661 112.327 66.5529 112.7 66.5547V66.537ZM112.876 65.7868C112.605 65.7868 112.337 65.7258 112.093 65.6083C111.848 65.4907 111.633 65.3197 111.464 65.1078C111.294 64.8959 111.174 64.6487 111.113 64.3843C111.052 64.1199 111.052 63.8452 111.111 63.5804C111.193 63.0886 111.445 62.6414 111.825 62.3183C112.205 61.9952 112.687 61.817 113.185 61.8153C113.453 61.8155 113.717 61.8766 113.958 61.994C114.198 62.1114 114.409 62.282 114.574 62.4929C114.739 62.7038 114.854 62.9494 114.91 63.2112C114.966 63.473 114.962 63.7442 114.897 64.0041C114.818 64.4857 114.574 64.9248 114.207 65.2467C113.84 65.5686 113.373 65.7532 112.885 65.7692L112.876 65.7868ZM117.448 66.4311L117.916 63.7834C118.11 62.7332 118.648 62.0183 119.796 62.0183H120.29L120.449 61.2063H119.901C119.548 61.1938 119.198 61.2837 118.894 61.4654C118.59 61.647 118.346 61.9126 118.189 62.2301L118.375 61.2063H117.598L116.715 66.4488L117.448 66.4311ZM123.299 66.537C123.739 66.5508 124.176 66.465 124.578 66.2862C124.98 66.1074 125.336 65.8402 125.62 65.5044L124.985 65.0278C124.794 65.2778 124.546 65.4792 124.263 65.6157C123.979 65.7522 123.667 65.8199 123.352 65.8133C123.107 65.8448 122.858 65.8219 122.622 65.7462C122.387 65.6706 122.171 65.544 121.99 65.3756C121.809 65.2071 121.667 65.0009 121.574 64.7715C121.482 64.5421 121.441 64.2951 121.455 64.0482H126V63.8276C126.078 63.4831 126.076 63.1253 125.992 62.782C125.909 62.4388 125.747 62.1196 125.52 61.8494C125.292 61.5792 125.005 61.3653 124.681 61.2247C124.357 61.084 124.005 61.0203 123.652 61.0387C122.955 61.0212 122.275 61.2536 121.735 61.6939C121.194 62.1341 120.829 62.7532 120.705 63.4392C120.598 63.8172 120.585 64.2157 120.667 64.5998C120.749 64.984 120.924 65.3422 121.176 65.6433C121.429 65.9444 121.751 66.1792 122.115 66.3273C122.479 66.4754 122.873 66.5322 123.264 66.4929L123.299 66.537ZM125.303 63.3863H121.543C121.648 62.9166 121.913 62.4981 122.293 62.2033C122.674 61.9084 123.145 61.7556 123.626 61.7712C123.853 61.7421 124.083 61.7646 124.3 61.837C124.517 61.9095 124.714 62.0299 124.878 62.1895C125.042 62.349 125.168 62.5435 125.246 62.7583C125.324 62.9732 125.352 63.203 125.329 63.4304L125.303 63.3863ZM128.833 66.537C129.29 66.5984 129.753 66.4892 130.134 66.2303C130.515 65.9713 130.787 65.5809 130.898 65.1337C131.084 64.0394 130.157 63.6687 129.292 63.3686C128.427 63.0686 127.906 62.9362 128.003 62.3713C128.083 61.9477 128.462 61.6918 129.098 61.6918C129.414 61.671 129.731 61.7334 130.015 61.8728C130.3 62.0121 130.544 62.2235 130.722 62.4861L131.401 62.036C131.134 61.7052 130.792 61.4419 130.405 61.2672C130.017 61.0924 129.593 61.0111 129.168 61.0298C128.109 61.0298 127.403 61.5064 127.218 62.2919C127.015 63.3774 127.915 63.7128 128.798 63.9864C129.539 64.2247 130.21 64.4277 130.113 65.0014C130.016 65.575 129.61 65.7957 128.895 65.7957C128.544 65.8078 128.197 65.7278 127.887 65.5636C127.578 65.3995 127.316 65.1569 127.13 64.8602L126.424 65.3279C126.697 65.7043 127.059 66.0075 127.478 66.2107C127.897 66.4139 128.359 66.5108 128.824 66.4929L128.833 66.537ZM133.978 66.537C134.435 66.5984 134.898 66.4892 135.279 66.2303C135.66 65.9713 135.932 65.5809 136.044 65.1337C136.229 64.0394 135.302 63.6687 134.437 63.3686C133.572 63.0686 133.052 62.9362 133.149 62.3713C133.228 61.9477 133.608 61.6918 134.243 61.6918C134.56 61.671 134.876 61.7334 135.161 61.8728C135.446 62.0121 135.689 62.2235 135.867 62.4861L136.547 62.036C136.279 61.7052 135.938 61.4419 135.55 61.2672C135.162 61.0924 134.739 61.0111 134.314 61.0298C133.255 61.0298 132.549 61.5064 132.363 62.2919C132.16 63.3774 133.06 63.7128 133.943 63.9864C134.684 64.2247 135.355 64.4277 135.258 65.0014C135.161 65.575 134.755 65.7957 134.04 65.7957C133.69 65.8078 133.342 65.7278 133.033 65.5636C132.723 65.3995 132.462 65.1569 132.275 64.8602L131.569 65.3279C131.843 65.7043 132.205 66.0075 132.624 66.2107C133.042 66.4139 133.504 66.5108 133.97 66.4929L133.978 66.537Z" fill="#C1C1C5"/>
<path d="M197.565 55.3464L188.104 50.051C187.772 49.8647 187.398 49.7668 187.018 49.7668C186.638 49.7668 186.264 49.8647 185.933 50.051L176.471 55.3464C176.125 55.5381 175.836 55.8195 175.636 56.1611C175.436 56.5027 175.331 56.892 175.333 57.288V67.8788C175.333 68.2744 175.438 68.6629 175.638 69.0042C175.839 69.3455 176.126 69.6273 176.471 69.8204L185.933 75.1158C186.262 75.3072 186.637 75.4077 187.018 75.407C187.399 75.4065 187.773 75.3061 188.104 75.1158L197.565 69.8204C197.909 69.6259 198.195 69.3438 198.395 69.0028C198.595 68.6618 198.701 68.274 198.703 67.8788V57.288C198.703 56.8924 198.598 56.5038 198.398 56.1625C198.198 55.8212 197.91 55.5395 197.565 55.3464V55.3464Z" fill="#20123A"/>
<path d="M180.408 65.3805L179.826 65.707C179.724 65.764 179.634 65.8405 179.562 65.9323C179.49 66.024 179.437 66.1292 179.406 66.2416C179.374 66.3541 179.366 66.4716 179.38 66.5874C179.395 66.7031 179.432 66.8149 179.49 66.9162C179.567 67.0538 179.68 67.1682 179.817 67.2473C179.954 67.3265 180.109 67.3676 180.267 67.3663C180.418 67.3639 180.567 67.3245 180.699 67.2515L181.282 66.925C181.487 66.8079 181.636 66.6143 181.699 66.3868C181.761 66.1592 181.73 65.9163 181.613 65.7115C181.496 65.5066 181.302 65.3567 181.074 65.2946C180.847 65.2326 180.604 65.2635 180.399 65.3805H180.408Z" fill="url(#paint0_linear_123:293)"/>
<path d="M183.885 63.412L182.729 64.0651C182.627 64.122 182.538 64.1985 182.466 64.2903C182.394 64.3821 182.34 64.4872 182.309 64.5997C182.278 64.7121 182.269 64.8296 182.284 64.9454C182.298 65.0612 182.336 65.1729 182.394 65.2742C182.47 65.4105 182.582 65.524 182.717 65.6031C182.852 65.6822 183.005 65.724 183.162 65.7243C183.313 65.7238 183.462 65.6843 183.594 65.6096L184.759 64.9565C184.861 64.8985 184.95 64.8212 185.021 64.7288C185.093 64.6365 185.145 64.5309 185.176 64.4183C185.207 64.3056 185.215 64.1879 185.2 64.0721C185.185 63.9562 185.148 63.8444 185.09 63.7429C185.032 63.6415 184.955 63.5525 184.862 63.481C184.77 63.4095 184.665 63.3569 184.552 63.3261C184.439 63.2954 184.322 63.2872 184.206 63.3019C184.09 63.3166 183.978 63.354 183.877 63.412H183.885Z" fill="url(#paint1_linear_123:293)"/>
<path d="M188.572 61.7788C188.463 61.6013 188.299 61.4648 188.104 61.3904V54.683C188.104 54.4489 188.011 54.2244 187.846 54.0589C187.68 53.8934 187.456 53.8004 187.222 53.8004C186.987 53.8004 186.763 53.8934 186.597 54.0589C186.432 54.2244 186.339 54.4489 186.339 54.683V61.4258C186.145 61.4975 185.983 61.6349 185.88 61.8141C185.814 61.9298 185.775 62.0589 185.765 62.1919C185.756 62.3249 185.777 62.4582 185.827 62.5819C185.779 62.7044 185.758 62.8361 185.768 62.9674C185.777 63.0987 185.815 63.2264 185.88 63.3409C185.981 63.5234 186.144 63.6641 186.339 63.7381V70.4455C186.339 70.6796 186.432 70.9041 186.597 71.0696C186.763 71.2351 186.987 71.3281 187.222 71.3281C187.456 71.3281 187.68 71.2351 187.846 71.0696C188.011 70.9041 188.104 70.6796 188.104 70.4455V63.7381C188.302 63.6659 188.468 63.525 188.572 63.3409C188.635 63.2257 188.672 63.0977 188.68 62.9664C188.687 62.8351 188.666 62.7037 188.616 62.5819C188.673 62.4541 188.698 62.3147 188.691 62.175C188.683 62.0354 188.642 61.8996 188.572 61.7788V61.7788Z" fill="url(#paint2_linear_123:293)"/>
<path d="M190.849 59.4859L189.684 60.139C189.582 60.196 189.492 60.2725 189.42 60.3643C189.348 60.456 189.295 60.5612 189.264 60.6736C189.232 60.7861 189.224 60.9036 189.238 61.0193C189.253 61.1351 189.29 61.2469 189.348 61.3481C189.426 61.4858 189.539 61.6001 189.675 61.6793C189.812 61.7585 189.967 61.7996 190.125 61.7982C190.276 61.7959 190.425 61.7565 190.557 61.6835L191.722 61.0216C191.823 60.9636 191.912 60.8864 191.983 60.7943C192.054 60.7022 192.106 60.597 192.136 60.4847C192.166 60.3724 192.174 60.2552 192.159 60.1399C192.144 60.0246 192.107 59.9133 192.049 59.8125C191.991 59.7117 191.914 59.6232 191.822 59.5522C191.729 59.4813 191.624 59.4291 191.512 59.3988C191.4 59.3685 191.283 59.3606 191.167 59.3755C191.052 59.3905 190.941 59.428 190.84 59.4859H190.849Z" fill="url(#paint3_linear_123:293)"/>
<path d="M193.593 59.8301C193.745 59.8296 193.894 59.7901 194.026 59.7153L194.608 59.3888C194.813 59.2718 194.963 59.0781 195.025 58.8506C195.087 58.623 195.056 58.3801 194.939 58.1753C194.822 57.9705 194.628 57.8205 194.401 57.7585C194.173 57.6964 193.93 57.7273 193.725 57.8443L193.143 58.1708C192.968 58.265 192.83 58.4152 192.752 58.5974C192.673 58.7795 192.658 58.9829 192.709 59.1746C192.76 59.3664 192.874 59.5354 193.033 59.6543C193.192 59.7732 193.386 59.8352 193.584 59.8301H193.593Z" fill="url(#paint4_linear_123:293)"/>
<path d="M194.608 65.707L194.025 65.3805C193.924 65.3225 193.812 65.2851 193.696 65.2704C193.58 65.2557 193.463 65.2639 193.35 65.2946C193.237 65.3254 193.132 65.378 193.039 65.4495C192.947 65.521 192.87 65.61 192.812 65.7115C192.754 65.8129 192.716 65.9247 192.702 66.0406C192.687 66.1564 192.695 66.2741 192.726 66.3868C192.757 66.4994 192.809 66.605 192.881 66.6973C192.952 66.7897 193.041 66.867 193.143 66.925L193.725 67.2515C193.858 67.3232 194.007 67.3625 194.158 67.3663C194.316 67.3676 194.471 67.3265 194.607 67.2473C194.744 67.1682 194.857 67.0538 194.934 66.9162C194.993 66.8154 195.031 66.7041 195.046 66.5887C195.061 66.4733 195.053 66.356 195.023 66.2436C194.992 66.1312 194.94 66.026 194.869 65.9339C194.798 65.8418 194.709 65.7647 194.608 65.707V65.707Z" fill="url(#paint5_linear_123:293)"/>
<path d="M191.731 64.0755L190.566 63.4224C190.464 63.3644 190.352 63.327 190.237 63.3123C190.121 63.2975 190.003 63.3058 189.89 63.3365C189.778 63.3672 189.672 63.4199 189.58 63.4914C189.487 63.5629 189.41 63.6519 189.352 63.7533C189.294 63.8547 189.257 63.9666 189.242 64.0824C189.227 64.1983 189.236 64.3159 189.266 64.4286C189.297 64.5413 189.35 64.6468 189.421 64.7392C189.493 64.8315 189.582 64.9089 189.683 64.9669L190.848 65.6199C190.98 65.6947 191.129 65.7342 191.281 65.7347C191.48 65.7419 191.675 65.6815 191.836 65.5633C191.996 65.4451 192.112 65.2761 192.164 65.0838C192.217 64.8914 192.202 64.6871 192.123 64.504C192.045 64.3209 191.906 64.1699 191.731 64.0755V64.0755Z" fill="url(#paint6_linear_123:293)"/>
<path d="M182.729 61.0216L183.885 61.6835C184.017 61.7565 184.166 61.7959 184.317 61.7982C184.475 61.7996 184.631 61.7585 184.767 61.6793C184.904 61.6001 185.017 61.4858 185.094 61.3481C185.152 61.2469 185.189 61.1351 185.204 61.0193C185.218 60.9036 185.21 60.7861 185.179 60.6736C185.147 60.5612 185.094 60.456 185.022 60.3643C184.95 60.2725 184.86 60.196 184.759 60.139L183.594 59.4859C183.493 59.428 183.382 59.3905 183.266 59.3755C183.151 59.3606 183.034 59.3685 182.921 59.3988C182.809 59.4291 182.704 59.4813 182.612 59.5522C182.52 59.6232 182.442 59.7117 182.385 59.8125C182.327 59.9133 182.289 60.0246 182.274 60.1399C182.259 60.2552 182.267 60.3724 182.297 60.4847C182.328 60.597 182.38 60.7022 182.451 60.7943C182.522 60.8864 182.61 60.9636 182.711 61.0216H182.729Z" fill="url(#paint7_linear_123:293)"/>
<path d="M181.281 58.1708L180.699 57.8443C180.494 57.7273 180.251 57.6964 180.024 57.7585C179.796 57.8205 179.602 57.9705 179.485 58.1753C179.368 58.3801 179.337 58.623 179.4 58.8506C179.462 59.0781 179.612 59.2718 179.816 59.3888L180.399 59.7153C180.531 59.7901 180.68 59.8296 180.831 59.8301C181.03 59.8352 181.224 59.7732 181.383 59.6543C181.542 59.5354 181.656 59.3664 181.707 59.1746C181.758 58.9829 181.743 58.7795 181.664 58.5974C181.585 58.4152 181.447 58.265 181.273 58.1708H181.281Z" fill="url(#paint8_linear_123:293)"/>
<path d="M197.997 76.9994C197.753 77.1929 197.589 77.4696 197.537 77.7764C197.485 78.0832 197.548 78.3984 197.714 78.6616L197.786 78.7655L205.677 88.6827C205.885 88.9203 206.175 89.0718 206.489 89.1075C206.803 89.1432 207.119 89.0606 207.375 88.8758C207.632 88.691 207.81 88.4173 207.876 88.1081C207.941 87.7989 207.889 87.4764 207.73 87.2035L207.659 87.1083L199.758 77.1839C199.547 76.928 199.245 76.7653 198.915 76.7307C198.585 76.6962 198.256 76.7927 197.997 76.9994V76.9994ZM206.292 66.1398C206.185 66.4305 206.192 66.7508 206.31 67.0371C206.428 67.3234 206.649 67.5549 206.93 67.6857L207.047 67.737L219.083 71.9023C219.399 72.0091 219.745 71.9879 220.046 71.8431C220.347 71.6983 220.58 71.4415 220.694 71.1275C220.801 70.8353 220.795 70.5137 220.677 70.2259C220.558 69.9381 220.337 69.7052 220.055 69.5729L219.94 69.5303L207.895 65.3665C207.58 65.2599 207.235 65.2812 206.936 65.4257C206.636 65.5703 206.405 65.8267 206.292 66.1398ZM185.888 81.6899C185.557 81.7306 185.254 81.8995 185.045 82.1604C184.837 82.4213 184.738 82.7535 184.771 83.0861L186.093 95.7569L186.114 95.8786C186.178 96.1831 186.355 96.4521 186.609 96.6319C186.863 96.8117 187.176 96.889 187.484 96.8483C187.815 96.8077 188.116 96.6387 188.324 96.3778C188.531 96.117 188.628 95.7851 188.593 95.4536L187.271 82.7829L187.25 82.6612C187.188 82.357 187.013 82.0877 186.76 81.9075C186.508 81.7273 186.196 81.6495 185.888 81.6899V81.6899ZM150.602 56.2286C150.494 56.52 150.501 56.8416 150.621 57.1282C150.741 57.4149 150.965 57.6453 151.248 57.773L151.355 57.8171L163.4 61.9809C163.56 62.0402 163.73 62.067 163.9 62.0597C164.07 62.0523 164.238 62.011 164.392 61.9381C164.546 61.8652 164.684 61.7622 164.798 61.6352C164.912 61.5082 164.999 61.3597 165.055 61.1985C165.163 60.9056 165.156 60.5827 165.036 60.2945C164.916 60.0064 164.691 59.7745 164.407 59.6454L164.3 59.6013L152.255 55.4375C152.095 55.3785 151.924 55.3523 151.754 55.3604C151.583 55.3684 151.416 55.4105 151.262 55.4843C151.108 55.558 150.97 55.6619 150.857 55.7897C150.743 55.9175 150.657 56.0668 150.602 56.2286V56.2286ZM181.682 29.0349C181.35 29.0756 181.047 29.2445 180.839 29.5054C180.63 29.7663 180.531 30.0985 180.564 30.4311L181.929 43.0942L181.95 43.2159C182.015 43.5205 182.192 43.7895 182.446 43.9693C182.7 44.1491 183.012 44.2263 183.321 44.1857C183.652 44.1428 183.953 43.9734 184.161 43.713C184.37 43.4527 184.469 43.1216 184.438 42.7895L183.117 30.1187L183.092 29.9796C183.03 29.6755 182.855 29.4062 182.603 29.226C182.35 29.0457 182.039 28.968 181.731 29.0084L181.682 29.0349ZM162.955 38.5034C162.71 38.6957 162.545 38.9726 162.493 39.2799C162.441 39.5873 162.505 39.9031 162.673 40.1656L162.743 40.2608L170.644 50.1852C170.846 50.4421 171.139 50.611 171.462 50.6566C171.785 50.7022 172.113 50.6208 172.377 50.4297C172.642 50.2385 172.822 49.9524 172.88 49.6313C172.938 49.3102 172.869 48.9791 172.688 48.7075L172.618 48.6123L164.717 38.6879C164.509 38.437 164.211 38.2769 163.887 38.2416C163.563 38.2063 163.238 38.2985 162.981 38.4989L162.955 38.5034Z" fill="url(#paint9_linear_123:293)"/>
<defs>
<linearGradient id="paint0_linear_123:293" x1="179.04" y1="66.316" x2="195.553" y2="66.316" gradientUnits="userSpaceOnUse">
<stop stop-color="#9059FF"/>
<stop offset="1" stop-color="#F770FF"/>
</linearGradient>
<linearGradient id="paint1_linear_123:293" x1="881.467" y1="346.332" x2="936.289" y2="346.332" gradientUnits="userSpaceOnUse">
<stop stop-color="#9059FF"/>
<stop offset="1" stop-color="#F770FF"/>
</linearGradient>
<linearGradient id="paint2_linear_123:293" x1="884.607" y1="2056.69" x2="939.402" y2="2056.69" gradientUnits="userSpaceOnUse">
<stop stop-color="#9059FF"/>
<stop offset="1" stop-color="#F770FF"/>
</linearGradient>
<linearGradient id="paint3_linear_123:293" x1="889.615" y1="331.638" x2="944.531" y2="331.638" gradientUnits="userSpaceOnUse">
<stop stop-color="#9059FF"/>
<stop offset="1" stop-color="#F770FF"/>
</linearGradient>
<linearGradient id="paint4_linear_123:293" x1="759.906" y1="289.084" x2="804.382" y2="289.084" gradientUnits="userSpaceOnUse">
<stop stop-color="#9059FF"/>
<stop offset="1" stop-color="#F770FF"/>
</linearGradient>
<linearGradient id="paint5_linear_123:293" x1="179.039" y1="66.316" x2="195.552" y2="66.316" gradientUnits="userSpaceOnUse">
<stop stop-color="#9059FF"/>
<stop offset="1" stop-color="#F770FF"/>
</linearGradient>
<linearGradient id="paint6_linear_123:293" x1="895.582" y1="346.41" x2="950.967" y2="346.41" gradientUnits="userSpaceOnUse">
<stop stop-color="#9059FF"/>
<stop offset="1" stop-color="#F770FF"/>
</linearGradient>
<linearGradient id="paint7_linear_123:293" x1="884.755" y1="331.638" x2="939.837" y2="331.638" gradientUnits="userSpaceOnUse">
<stop stop-color="#9059FF"/>
<stop offset="1" stop-color="#F770FF"/>
</linearGradient>
<linearGradient id="paint8_linear_123:293" x1="744.49" y1="289.084" x2="788.8" y2="289.084" gradientUnits="userSpaceOnUse">
<stop stop-color="#9059FF"/>
<stop offset="1" stop-color="#F770FF"/>
</linearGradient>
<linearGradient id="paint9_linear_123:293" x1="177.635" y1="89.8472" x2="193.602" y2="37.7393" gradientUnits="userSpaceOnUse">
<stop stop-color="#FF9100"/>
<stop offset="0.52" stop-color="#F10366"/>
<stop offset="1" stop-color="#6173FF"/>
</linearGradient>
</defs>
</svg>
