<svg width="228" height="142" viewBox="0 0 228 142" fill="none" xmlns="http://www.w3.org/2000/svg">
<path d="M159.096 137.68C197.115 137.68 227.936 106.859 227.936 68.8399C227.936 30.8207 197.115 0 159.096 0C121.077 0 90.2563 30.8207 90.2563 68.8399C90.2563 106.859 121.077 137.68 159.096 137.68Z" fill="#EEE6F4"/>
<path d="M2 97.082H119.381V141.21H2V97.082Z" fill="#B1B1B3"/>
<path d="M37.5669 123.662C37.9141 123.698 38.2652 123.664 38.5985 123.56C38.9319 123.456 39.2405 123.285 39.5057 123.058C39.7709 122.831 39.9869 122.552 40.1407 122.239C40.2944 121.925 40.3826 121.584 40.3999 121.235C40.3999 119.558 39.0408 119.179 37.8493 118.923C36.8873 118.702 36.0842 118.587 36.0842 117.961C36.0842 117.334 36.446 117.078 37.2845 117.078C37.6449 117.06 38.0035 117.14 38.3221 117.309C38.6407 117.478 38.9074 117.731 39.0937 118.04L40.3117 117.087C39.9474 116.646 39.4862 116.296 38.9641 116.063C38.4421 115.831 37.8732 115.722 37.3021 115.745C35.6959 115.745 34.5662 116.76 34.5662 118.031C34.5662 119.593 35.8547 119.964 37.0109 120.211C38.167 120.458 38.8201 120.6 38.8201 121.323C38.8201 121.888 38.3877 122.285 37.5492 122.285C37.1191 122.292 36.6951 122.183 36.3222 121.968C35.9493 121.754 35.6413 121.443 35.4311 121.067L34.1514 122.082C34.5484 122.605 35.0671 123.023 35.6623 123.3C36.2575 123.577 36.9113 123.704 37.5669 123.671V123.662ZM43.5418 123.662C43.8684 123.663 44.1901 123.582 44.4781 123.428C44.7661 123.274 45.0114 123.051 45.1922 122.779V123.503H46.6485V117.784H45.1658V120.926C45.1658 121.809 44.6627 122.312 43.9743 122.312C43.2859 122.312 42.8093 121.817 42.8093 121.014V117.784H41.3178V121.217C41.2755 121.527 41.3025 121.843 41.3967 122.141C41.4909 122.44 41.6501 122.713 41.8627 122.943C42.0754 123.173 42.3363 123.352 42.6266 123.469C42.9169 123.585 43.2295 123.636 43.5418 123.618V123.662ZM51.0613 123.662C51.8105 123.604 52.5103 123.266 53.0209 122.714C53.5314 122.163 53.815 121.439 53.815 120.688C53.815 119.936 53.5314 119.213 53.0209 118.661C52.5103 118.11 51.8105 117.771 51.0613 117.714C50.7173 117.705 50.3764 117.781 50.0686 117.935C49.7608 118.089 49.4956 118.316 49.2961 118.596V115.198H47.8046V123.556H49.2432V122.762C49.4504 123.047 49.7246 123.277 50.0417 123.431C50.3589 123.585 50.709 123.658 51.0613 123.644V123.662ZM50.7612 122.285C50.44 122.292 50.124 122.203 49.8536 122.03C49.5832 121.856 49.3707 121.606 49.2433 121.311C49.1159 121.016 49.0793 120.69 49.1383 120.374C49.1973 120.058 49.3491 119.767 49.5744 119.538C49.7997 119.309 50.0882 119.152 50.403 119.088C50.7178 119.024 51.0446 119.055 51.3417 119.177C51.6387 119.3 51.8925 119.508 52.0705 119.776C52.2485 120.043 52.3427 120.358 52.341 120.679C52.3445 120.889 52.3063 121.098 52.2286 121.293C52.1509 121.488 52.0352 121.666 51.8883 121.816C51.7413 121.967 51.5661 122.086 51.3726 122.168C51.1791 122.25 50.9713 122.293 50.7612 122.294V122.285ZM56.9391 123.662C58.6072 123.662 59.4015 122.665 59.4015 121.773C59.4015 120.547 58.2718 120.22 57.3186 120.008C56.3655 119.796 56.0213 119.735 56.0213 119.373C56.0213 119.011 56.2949 118.826 56.9038 118.826C57.1278 118.813 57.351 118.862 57.5488 118.968C57.7466 119.074 57.9113 119.232 58.0247 119.426L59.3573 118.887C59.0921 118.484 58.7241 118.159 58.2914 117.944C57.8586 117.73 57.3766 117.635 56.895 117.669C55.4829 117.669 54.5562 118.499 54.5562 119.435C54.5562 120.644 55.6241 120.935 56.5861 121.138C57.3186 121.288 57.9276 121.385 57.9276 121.8C57.9276 122.215 57.6099 122.418 57.045 122.418C56.7748 122.432 56.5063 122.367 56.2726 122.231C56.0389 122.094 55.8503 121.892 55.73 121.65L54.3268 122.197C54.5768 122.67 54.9622 123.058 55.4339 123.311C55.9055 123.564 56.4419 123.671 56.9744 123.618L56.9391 123.662ZM63.1171 123.662C63.7132 123.675 64.2996 123.509 64.8 123.185C65.3005 122.861 65.692 122.393 65.9236 121.844L64.5556 121.279C64.4514 121.572 64.2586 121.825 64.0041 122.004C63.7495 122.183 63.4457 122.278 63.1347 122.276C62.7304 122.246 62.3524 122.065 62.0766 121.767C61.8007 121.47 61.6474 121.08 61.6474 120.675C61.6474 120.269 61.8007 119.879 62.0766 119.582C62.3524 119.285 62.7304 119.103 63.1347 119.073C63.4458 119.065 63.7513 119.157 64.0068 119.335C64.2622 119.512 64.4545 119.767 64.5556 120.061L65.8971 119.523C65.668 118.981 65.2792 118.522 64.7825 118.206C64.2859 117.891 63.7049 117.735 63.1171 117.758C62.3283 117.758 61.5717 118.071 61.014 118.629C60.4562 119.187 60.1428 119.943 60.1428 120.732C60.1428 121.521 60.4562 122.277 61.014 122.835C61.5717 123.393 62.3283 123.706 63.1171 123.706V123.662ZM68.2359 123.547V120.529C68.2359 119.567 68.7213 119.179 69.4715 119.179C69.7391 119.169 70.0034 119.24 70.2305 119.382L70.7601 117.943C70.4608 117.796 70.1315 117.72 69.7981 117.722C69.465 117.698 69.1327 117.779 68.8488 117.955C68.565 118.131 68.3442 118.393 68.2183 118.702V117.819H66.7797V123.538L68.2359 123.547ZM72.2604 117.149C72.3853 117.156 72.5104 117.138 72.6274 117.093C72.7444 117.049 72.8507 116.98 72.9391 116.892C73.0276 116.803 73.0962 116.697 73.1405 116.58C73.1848 116.463 73.2037 116.338 73.1959 116.213C73.1959 115.965 73.0974 115.727 72.9219 115.552C72.7465 115.376 72.5085 115.278 72.2604 115.278C72.0123 115.278 71.7744 115.376 71.5989 115.552C71.4235 115.727 71.3249 115.965 71.3249 116.213C71.3152 116.342 71.3338 116.471 71.3796 116.592C71.4253 116.713 71.497 116.822 71.5896 116.912C71.6821 117.002 71.7934 117.071 71.9154 117.113C72.0374 117.156 72.1672 117.171 72.2957 117.158L72.2604 117.149ZM73.0106 123.547V117.828H71.5191V123.547H73.0106ZM77.4234 123.662C78.1726 123.604 78.8725 123.266 79.383 122.714C79.8935 122.163 80.1772 121.439 80.1772 120.688C80.1772 119.936 79.8935 119.213 79.383 118.661C78.8725 118.11 78.1726 117.771 77.4234 117.714C77.0795 117.706 76.7389 117.782 76.4313 117.936C76.1236 118.09 75.8582 118.316 75.6583 118.596V115.198H74.202V123.556H75.6495V122.762C75.8542 123.047 76.1267 123.278 76.4425 123.432C76.7584 123.586 77.1076 123.659 77.4587 123.644L77.4234 123.662ZM77.1233 122.285C76.8021 122.292 76.4861 122.203 76.2157 122.03C75.9453 121.856 75.7328 121.606 75.6054 121.311C75.478 121.016 75.4414 120.69 75.5004 120.374C75.5594 120.058 75.7113 119.767 75.9366 119.538C76.1618 119.309 76.4504 119.152 76.7652 119.088C77.08 119.024 77.4068 119.055 77.7038 119.177C78.0009 119.3 78.2546 119.508 78.4326 119.776C78.6106 120.043 78.7048 120.358 78.7031 120.679C78.7066 120.888 78.669 121.095 78.5924 121.289C78.5158 121.483 78.4017 121.66 78.2566 121.81C78.1115 121.96 77.9384 122.08 77.7469 122.163C77.5555 122.246 77.3496 122.291 77.141 122.294L77.1233 122.285ZM83.9809 123.662C84.499 123.689 85.0152 123.581 85.4793 123.349C85.9433 123.117 86.3393 122.769 86.6285 122.338L85.4371 121.641C85.2915 121.885 85.0823 122.084 84.832 122.218C84.5816 122.351 84.2996 122.414 84.0161 122.4C83.6441 122.423 83.2759 122.315 82.9758 122.093C82.6757 121.872 82.4629 121.553 82.3746 121.191H86.9198V120.644C86.9309 120.254 86.8619 119.865 86.7169 119.503C86.5719 119.141 86.3541 118.812 86.0769 118.537C85.7997 118.263 85.4691 118.048 85.1055 117.906C84.7419 117.764 84.3531 117.699 83.9632 117.714C83.569 117.708 83.1776 117.781 82.812 117.928C82.4464 118.076 82.1141 118.295 81.8345 118.573C81.5549 118.851 81.3337 119.182 81.184 119.547C81.0342 119.911 80.9589 120.302 80.9625 120.697C80.951 121.095 81.0222 121.492 81.1716 121.862C81.321 122.231 81.5455 122.566 81.8307 122.845C82.116 123.123 82.4559 123.34 82.829 123.48C83.2021 123.621 83.6003 123.683 83.9985 123.662H83.9809ZM85.4459 120.052H82.4011C82.5042 119.726 82.7106 119.442 82.9892 119.243C83.2677 119.044 83.6033 118.941 83.9455 118.949C84.2862 118.923 84.6248 119.021 84.9 119.223C85.1752 119.425 85.3688 119.72 85.4459 120.052Z" fill="white"/>
<path d="M208.095 44.1279H6.83776C5.1408 44.1279 3.76514 45.7085 3.76514 47.6582V83.8432C3.76514 85.7929 5.1408 87.3735 6.83776 87.3735H208.095C209.792 87.3735 211.167 85.7929 211.167 83.8432V47.6582C211.167 45.7085 209.792 44.1279 208.095 44.1279Z" fill="white" stroke="#0A84FF"/>
<path d="M209.853 42.3633H5.0793C3.37865 42.3633 2 43.9438 2 45.8935V85.6088C2 87.5585 3.37865 89.1391 5.0793 89.1391H209.853C211.554 89.1391 212.932 87.5585 212.932 85.6088V45.8935C212.932 43.9438 211.554 42.3633 209.853 42.3633Z" stroke="#0A84FF" stroke-opacity="0.29" stroke-width="3"/>
<path d="M19.8808 69.4752L20.0132 68.7074H16.1652L16.5977 66.2892H20.428L20.5692 65.5214H16.7301L17.136 63.1473H20.984L21.1164 62.3883H16.4741L15.2385 69.4488L19.8808 69.4752ZM22.0254 69.4752L22.5197 66.7128C22.7227 65.5743 23.3051 64.833 24.373 64.833C25.4409 64.833 25.8734 65.5302 25.6792 66.5981L25.1762 69.4752H25.997L26.5088 66.5981C26.7736 65.0977 26.0234 64.1269 24.5937 64.1269C24.2501 64.1205 23.91 64.1974 23.6026 64.3511C23.2952 64.5048 23.0296 64.7307 22.8286 65.0095L22.9698 64.224H22.1755L21.2929 69.4664L22.0254 69.4752ZM29.7832 69.4752L29.9067 68.7427C28.8212 68.7427 28.6182 68.5221 28.8212 67.4542L29.2713 64.9389H30.6039L30.7275 64.2328H29.3683L29.6684 62.5295L28.7859 62.9796L28.5652 64.2328H27.612L27.4885 64.9389H28.4505L28.0092 67.4542C27.7444 68.9987 28.1592 69.4752 29.6596 69.4752H29.7832ZM33.5693 69.5812C34.0077 69.5949 34.4435 69.5091 34.844 69.3302C35.2445 69.1514 35.5992 68.8841 35.8817 68.5486L35.255 68.072C35.0619 68.3221 34.8128 68.5235 34.5277 68.6599C34.2426 68.7963 33.9295 68.864 33.6135 68.8575C33.3688 68.8875 33.1206 68.8635 32.8862 68.7872C32.6518 68.711 32.437 68.5842 32.257 68.4159C32.0769 68.2476 31.9359 68.0419 31.844 67.8132C31.752 67.5845 31.7113 67.3384 31.7248 67.0923H36.2612L36.3053 66.8805C36.3832 66.5357 36.3804 66.1775 36.297 65.8339C36.2137 65.4903 36.0521 65.1707 35.8248 64.8998C35.5976 64.629 35.3108 64.4144 34.9869 64.2726C34.6631 64.1309 34.3108 64.0659 33.9577 64.0828C33.2597 64.065 32.5782 64.2971 32.0362 64.7372C31.4941 65.1773 31.127 65.7966 31.0011 66.4834C30.8847 66.8649 30.8649 67.2693 30.9434 67.6604C31.0219 68.0515 31.1963 68.4169 31.4508 68.724C31.7054 69.0311 32.0322 69.2701 32.402 69.4197C32.7718 69.5693 33.1729 69.6248 33.5693 69.5812ZM35.5639 66.4304H31.8042C31.9122 65.9608 32.1797 65.5432 32.5611 65.2487C32.9425 64.9542 33.4142 64.801 33.8959 64.8153C34.1162 64.7913 34.3392 64.8162 34.5488 64.8881C34.7585 64.96 34.9497 65.0772 35.1089 65.2314C35.2682 65.3856 35.3915 65.573 35.4701 65.7802C35.5488 65.9874 35.5808 66.2094 35.5639 66.4304ZM37.8233 69.4752L38.2911 66.8276C38.3072 66.3445 38.5141 65.8875 38.8664 65.5567C39.2187 65.2259 39.6878 65.0482 40.1709 65.0624H40.6651L40.824 64.2505H40.2503C39.8975 64.2363 39.5482 64.3256 39.2455 64.5075C38.9428 64.6895 38.7 64.956 38.547 65.2742L38.7235 64.2505H37.9469L37.0643 69.4929L37.8233 69.4752ZM46.3577 69.4752L46.8519 66.6422L50.2851 62.3883H49.2966L46.543 65.8391L44.9897 62.3883H44.1071L45.9782 66.5275L45.4663 69.4752H46.3577ZM51.759 69.5812C52.4343 69.5947 53.0919 69.3651 53.612 68.9342C54.1321 68.5032 54.4799 67.8996 54.592 67.2335C54.6878 66.8602 54.6956 66.4698 54.6148 66.093C54.534 65.7161 54.3668 65.3632 54.1264 65.062C53.8859 64.7608 53.5788 64.5196 53.2293 64.3573C52.8797 64.1951 52.4972 64.1162 52.112 64.1269C51.4253 64.1097 50.7552 64.3387 50.2226 64.7724C49.6901 65.2062 49.3303 65.8162 49.2083 66.4922C49.1124 66.8689 49.1063 67.263 49.1906 67.6425C49.2749 68.022 49.4473 68.3764 49.6938 68.6771C49.9404 68.9777 50.2541 69.2162 50.6098 69.3732C50.9654 69.5303 51.353 69.6015 51.7413 69.5812H51.759ZM51.759 68.8398C51.481 68.8502 51.2045 68.7947 50.9521 68.678C50.6996 68.5612 50.4783 68.3864 50.3062 68.1679C50.1342 67.9493 50.0162 67.6932 49.9619 67.4204C49.9076 67.1476 49.9185 66.8659 49.9938 66.5981C50.0591 66.1007 50.3062 65.6451 50.6876 65.3191C51.069 64.9932 51.5575 64.82 52.059 64.833C52.3419 64.8203 52.6238 64.8758 52.8807 64.995C53.1376 65.1141 53.3621 65.2933 53.5352 65.5175C53.7083 65.7416 53.8249 66.0042 53.8752 66.2829C53.9255 66.5616 53.908 66.8483 53.8241 67.1188C53.7587 67.6178 53.5103 68.0746 53.1271 68.4008C52.7439 68.727 52.2531 68.8991 51.7501 68.8839L51.759 68.8398ZM57.5133 69.5812C57.8584 69.5972 58.2018 69.5245 58.5109 69.37C58.8199 69.2154 59.0841 68.9843 59.2784 68.6986L59.146 69.4929H59.8874L60.7699 64.2505H59.9756L59.5079 67.1188C59.3049 68.2397 58.6253 68.8839 57.7427 68.8839C56.8602 68.8839 56.3483 68.1691 56.5336 67.1188L57.0367 64.2593H56.2247L55.7393 67.1188C55.4657 68.6192 56.1453 69.59 57.5044 69.59L57.5133 69.5812ZM62.1467 69.4752L62.6145 66.8276C62.8086 65.7773 63.347 65.0624 64.4943 65.0624H64.9886L65.1474 64.2505H64.5649C64.2112 64.2379 63.8614 64.3279 63.5576 64.5095C63.2539 64.6911 63.0091 64.9567 62.8528 65.2742L63.0381 64.2505H62.2614L61.3789 69.4929L62.1467 69.4752ZM72.4903 69.4752L72.6315 68.7074H68.7748L69.2072 66.2892H73.0375L73.1699 65.5214H69.3396L69.7456 63.1473H73.5935L73.7259 62.3883H69.0836L67.8481 69.4488L72.4903 69.4752ZM74.635 69.4752L75.138 66.651C75.3322 65.592 75.9147 64.833 76.9031 64.833C77.8916 64.833 78.2446 65.4949 78.0593 66.5981L77.5386 69.5194H78.3505L78.8536 66.6422C79.0478 65.592 79.5508 64.8771 80.5217 64.8771C81.4925 64.8771 81.9249 65.6449 81.7396 66.6952L81.2365 69.5194H82.0485L82.5604 66.6334C82.8163 65.2036 82.0838 64.171 80.707 64.171C80.3179 64.1631 79.9335 64.2566 79.5915 64.4423C79.2495 64.628 78.9618 64.8995 78.7565 65.2301C78.6337 64.9002 78.4074 64.6188 78.1116 64.428C77.8158 64.2371 77.4662 64.147 77.115 64.171C76.769 64.1488 76.4233 64.2188 76.1132 64.3739C75.8031 64.5289 75.5397 64.7635 75.3498 65.0536L75.4999 64.2416H74.7144L73.8318 69.4841L74.635 69.4752ZM86.5143 64.1269C85.8355 64.1346 85.1812 64.3812 84.6663 64.8235C84.1514 65.2657 83.8089 65.8753 83.6989 66.5451C83.607 66.9065 83.5993 67.2841 83.6764 67.649C83.7535 68.0138 83.9133 68.356 84.1435 68.6493C84.3737 68.9426 84.6682 69.1792 85.0042 69.3407C85.3403 69.5023 85.709 69.5845 86.0818 69.5812C86.4448 69.5842 86.8032 69.4991 87.126 69.333C87.4488 69.167 87.7265 68.9251 87.9352 68.628L87.794 69.5105H88.5883L89.4708 64.2681H88.6589L88.4559 65.3713L88.4029 65.2389C88.2252 64.8923 87.9523 64.6035 87.6162 64.4065C87.2801 64.2096 86.8947 64.1126 86.5054 64.1269H86.5143ZM86.2407 68.831C85.9685 68.839 85.6982 68.7839 85.4508 68.67C85.2035 68.5562 84.9858 68.3866 84.8149 68.1747C84.644 67.9627 84.5244 67.7141 84.4655 67.4482C84.4066 67.1824 84.4101 66.9065 84.4755 66.6422C84.5596 66.1548 84.8109 65.7119 85.1862 65.3898C85.5615 65.0676 86.0374 64.8863 86.5319 64.8771C86.7994 64.8708 87.0648 64.9254 87.3081 65.0368C87.5514 65.1482 87.7661 65.3134 87.9362 65.52C88.1062 65.7266 88.227 65.9692 88.2896 66.2293C88.3521 66.4895 88.3546 66.7604 88.297 67.0217C88.2204 67.5179 87.9713 67.9713 87.5937 68.3022C87.216 68.633 86.7338 68.8203 86.2318 68.831H86.2407ZM91.536 63.2532C91.6929 63.2538 91.8451 63.1994 91.9661 63.0994C92.087 62.9994 92.1691 62.8602 92.198 62.706C92.2167 62.6199 92.2156 62.5306 92.1948 62.445C92.1741 62.3594 92.1341 62.2796 92.0781 62.2116C92.022 62.1436 91.9512 62.0893 91.8711 62.0526C91.791 62.0159 91.7036 61.9979 91.6155 61.9999C91.4624 62.0013 91.3145 62.0557 91.197 62.1539C91.0796 62.2521 90.9998 62.3879 90.9712 62.5383C90.9467 62.6261 90.9437 62.7185 90.9627 62.8077C90.9816 62.8968 91.0219 62.9801 91.0799 63.0503C91.138 63.1206 91.2123 63.1757 91.2963 63.211C91.3804 63.2464 91.4717 63.2608 91.5625 63.2532H91.536ZM90.777 69.4311L91.6596 64.1887H90.8476L89.9651 69.4311H90.777ZM93.0099 69.4311L94.3514 61.7793H93.5483L92.2068 69.4311H93.0099ZM97.2992 69.4311L98.3141 67.666H101.686L102.065 69.4311H102.886L101.341 62.3706H100.512L96.4254 69.4311H97.2992ZM101.527 66.8893H98.7466L100.776 63.315L101.527 66.8893ZM106.107 69.537C106.47 69.5343 106.827 69.4486 107.151 69.2864C107.476 69.1243 107.758 68.89 107.978 68.6015L107.837 69.4311H108.614L109.964 61.7793H109.152L108.543 65.3095C108.374 64.9282 108.092 64.6078 107.736 64.3916C107.379 64.1754 106.965 64.0738 106.548 64.1004C105.873 64.1021 105.22 64.3434 104.706 64.7814C104.192 65.2194 103.851 65.8257 103.742 66.4922C103.649 66.8536 103.64 67.2314 103.716 67.5968C103.791 67.9622 103.949 68.3056 104.177 68.6009C104.405 68.8962 104.697 69.1356 105.032 69.3008C105.366 69.4661 105.734 69.5529 106.107 69.5547V69.537ZM106.284 68.7868C106.01 68.7956 105.737 68.7404 105.488 68.6255C105.239 68.5107 105.02 68.3394 104.849 68.1253C104.678 67.9111 104.559 67.6601 104.501 67.3919C104.444 67.1237 104.45 66.8459 104.519 66.5804C104.596 66.0885 104.847 65.6405 105.226 65.317C105.604 64.9934 106.086 64.8155 106.584 64.8153C106.852 64.8142 107.117 64.8743 107.359 64.9911C107.601 65.1079 107.813 65.2783 107.979 65.4894C108.145 65.7005 108.26 65.9466 108.317 66.2091C108.373 66.4715 108.369 66.7434 108.305 67.0041C108.222 67.4857 107.976 67.9241 107.608 68.2456C107.24 68.567 106.772 68.7519 106.284 68.7692V68.7868ZM112.7 69.537C113.062 69.5343 113.42 69.4486 113.744 69.2864C114.068 69.1243 114.351 68.89 114.571 68.6015L114.43 69.4311H115.206L116.557 61.7793H115.745L115.136 65.3095C114.966 64.9267 114.683 64.6053 114.325 64.3889C113.966 64.1726 113.55 64.0719 113.132 64.1004C112.459 64.1042 111.808 64.3464 111.296 64.7843C110.784 65.2221 110.443 65.8272 110.335 66.4922C110.242 66.8536 110.233 67.2314 110.308 67.5968C110.384 67.9622 110.541 68.3056 110.77 68.6009C110.998 68.8962 111.29 69.1356 111.624 69.3008C111.959 69.4661 112.327 69.5529 112.7 69.5547V69.537ZM112.876 68.7868C112.605 68.7868 112.337 68.7258 112.093 68.6083C111.848 68.4907 111.633 68.3197 111.464 68.1078C111.294 67.8959 111.174 67.6487 111.113 67.3843C111.052 67.1199 111.052 66.8452 111.111 66.5804C111.193 66.0886 111.446 65.6414 111.825 65.3183C112.205 64.9952 112.687 64.817 113.185 64.8153C113.453 64.8155 113.717 64.8766 113.958 64.994C114.198 65.1114 114.409 65.282 114.574 65.4929C114.739 65.7038 114.854 65.9494 114.91 66.2112C114.966 66.473 114.962 66.7442 114.897 67.0041C114.818 67.4857 114.574 67.9248 114.207 68.2467C113.84 68.5686 113.373 68.7532 112.885 68.7692L112.876 68.7868ZM117.448 69.4311L117.916 66.7834C118.11 65.7332 118.648 65.0183 119.796 65.0183H120.29L120.449 64.2063H119.902C119.548 64.1938 119.198 64.2837 118.894 64.4654C118.591 64.647 118.346 64.9126 118.189 65.2301L118.375 64.2063H117.598L116.716 69.4488L117.448 69.4311ZM123.299 69.537C123.739 69.5508 124.176 69.465 124.578 69.2862C124.98 69.1074 125.336 68.8402 125.621 68.5044L124.985 68.0278C124.794 68.2778 124.546 68.4792 124.263 68.6157C123.979 68.7522 123.667 68.8199 123.352 68.8133C123.107 68.8448 122.858 68.8219 122.622 68.7462C122.387 68.6706 122.171 68.544 121.99 68.3756C121.809 68.2071 121.667 68.0009 121.575 67.7715C121.482 67.5421 121.441 67.2951 121.455 67.0482H126V66.8276C126.078 66.4831 126.076 66.1253 125.992 65.782C125.909 65.4388 125.747 65.1196 125.52 64.8494C125.292 64.5792 125.005 64.3653 124.681 64.2247C124.357 64.084 124.005 64.0203 123.652 64.0387C122.956 64.0212 122.275 64.2536 121.735 64.6939C121.194 65.1341 120.829 65.7532 120.705 66.4392C120.598 66.8172 120.585 67.2157 120.667 67.5998C120.749 67.984 120.924 68.3422 121.176 68.6433C121.429 68.9444 121.751 69.1792 122.115 69.3273C122.479 69.4754 122.873 69.5322 123.264 69.4929L123.299 69.537ZM125.303 66.3863H121.543C121.648 65.9166 121.913 65.4981 122.293 65.2033C122.674 64.9084 123.145 64.7556 123.626 64.7712C123.853 64.7421 124.083 64.7646 124.3 64.837C124.517 64.9095 124.715 65.0299 124.878 65.1895C125.042 65.349 125.168 65.5435 125.246 65.7583C125.324 65.9732 125.352 66.203 125.329 66.4304L125.303 66.3863ZM128.833 69.537C129.29 69.5984 129.753 69.4892 130.134 69.2303C130.515 68.9713 130.787 68.5809 130.898 68.1337C131.084 67.0394 130.157 66.6687 129.292 66.3686C128.427 66.0686 127.906 65.9362 128.004 65.3713C128.083 64.9477 128.462 64.6918 129.098 64.6918C129.414 64.671 129.731 64.7334 130.016 64.8728C130.3 65.0121 130.544 65.2235 130.722 65.4861L131.401 65.036C131.134 64.7052 130.792 64.4419 130.405 64.2672C130.017 64.0924 129.593 64.0111 129.168 64.0298C128.109 64.0298 127.403 64.5064 127.218 65.2919C127.015 66.3774 127.915 66.7128 128.798 66.9864C129.539 67.2247 130.21 67.4277 130.113 68.0014C130.016 68.575 129.61 68.7957 128.895 68.7957C128.545 68.8078 128.197 68.7278 127.887 68.5636C127.578 68.3995 127.316 68.1569 127.13 67.8602L126.424 68.3279C126.697 68.7043 127.06 69.0075 127.478 69.2107C127.897 69.4139 128.359 69.5108 128.824 69.4929L128.833 69.537ZM133.978 69.537C134.435 69.5984 134.898 69.4892 135.279 69.2303C135.66 68.9713 135.933 68.5809 136.044 68.1337C136.229 67.0394 135.302 66.6687 134.437 66.3686C133.572 66.0686 133.052 65.9362 133.149 65.3713C133.228 64.9477 133.608 64.6918 134.243 64.6918C134.56 64.671 134.876 64.7334 135.161 64.8728C135.446 65.0121 135.689 65.2235 135.867 65.4861L136.547 65.036C136.279 64.7052 135.938 64.4419 135.55 64.2672C135.162 64.0924 134.739 64.0111 134.314 64.0298C133.255 64.0298 132.549 64.5064 132.363 65.2919C132.16 66.3774 133.061 66.7128 133.943 66.9864C134.685 67.2247 135.355 67.4277 135.258 68.0014C135.161 68.575 134.755 68.7957 134.04 68.7957C133.69 68.8078 133.342 68.7278 133.033 68.5636C132.723 68.3995 132.462 68.1569 132.275 67.8602L131.569 68.3279C131.843 68.7043 132.205 69.0075 132.624 69.2107C133.042 69.4139 133.505 69.5108 133.97 69.4929L133.978 69.537Z" fill="#C1C1C5"/>
<path d="M197.565 58.3472L188.104 53.0518C187.772 52.8655 187.398 52.7676 187.018 52.7676C186.638 52.7676 186.264 52.8655 185.933 53.0518L176.472 58.3472C176.125 58.5388 175.836 58.8203 175.636 59.1619C175.436 59.5035 175.331 59.8928 175.333 60.2888V70.8796C175.333 71.2752 175.438 71.6637 175.639 72.005C175.839 72.3463 176.126 72.6281 176.472 72.8212L185.933 78.1166C186.262 78.308 186.637 78.4085 187.018 78.4078C187.399 78.4073 187.774 78.3069 188.104 78.1166L197.565 72.8212C197.909 72.6267 198.195 72.3446 198.395 72.0036C198.595 71.6626 198.702 71.2748 198.703 70.8796V60.2888C198.703 59.8932 198.598 59.5046 198.398 59.1633C198.198 58.822 197.91 58.5403 197.565 58.3472Z" fill="#20123A"/>
<path d="M180.408 68.3809L179.825 68.7074C179.724 68.7643 179.634 68.8409 179.562 68.9326C179.49 69.0244 179.437 69.1295 179.405 69.242C179.374 69.3544 179.366 69.4719 179.38 69.5877C179.395 69.7035 179.432 69.8153 179.49 69.9165C179.567 70.0542 179.68 70.1685 179.817 70.2477C179.953 70.3269 180.109 70.3679 180.267 70.3666C180.418 70.3643 180.567 70.3249 180.699 70.2519L181.282 69.9253C181.486 69.8083 181.636 69.6147 181.698 69.3871C181.76 69.1595 181.73 68.9166 181.613 68.7118C181.496 68.507 181.302 68.3571 181.074 68.295C180.847 68.2329 180.604 68.2638 180.399 68.3809H180.408Z" fill="url(#paint0_linear)"/>
<path d="M183.885 66.4121L182.729 67.0652C182.627 67.1221 182.538 67.1987 182.466 67.2904C182.394 67.3822 182.34 67.4873 182.309 67.5998C182.278 67.7122 182.269 67.8297 182.284 67.9455C182.298 68.0613 182.336 68.1731 182.394 68.2743C182.47 68.4106 182.582 68.5242 182.717 68.6032C182.852 68.6823 183.005 68.7242 183.162 68.7244C183.313 68.724 183.462 68.6844 183.594 68.6097L184.759 67.9566C184.861 67.8986 184.95 67.8213 185.021 67.7289C185.093 67.6366 185.145 67.5311 185.176 67.4184C185.207 67.3057 185.215 67.1881 185.2 67.0722C185.185 66.9563 185.148 66.8445 185.09 66.7431C185.032 66.6417 184.955 66.5526 184.862 66.4811C184.77 66.4096 184.665 66.357 184.552 66.3263C184.439 66.2955 184.322 66.2873 184.206 66.302C184.09 66.3168 183.978 66.3542 183.877 66.4121H183.885Z" fill="url(#paint1_linear)"/>
<path d="M188.572 64.7791C188.463 64.6017 188.299 64.4652 188.104 64.3908V57.6833C188.104 57.4493 188.011 57.2248 187.846 57.0593C187.68 56.8938 187.456 56.8008 187.222 56.8008C186.988 56.8008 186.763 56.8938 186.598 57.0593C186.432 57.2248 186.339 57.4493 186.339 57.6833V64.4261C186.145 64.4979 185.983 64.6353 185.88 64.8144C185.814 64.9301 185.775 65.0593 185.766 65.1923C185.756 65.3253 185.777 65.4586 185.827 65.5823C185.779 65.7047 185.758 65.8364 185.768 65.9678C185.777 66.0991 185.815 66.2267 185.88 66.3413C185.981 66.5238 186.144 66.6645 186.339 66.7384V73.4459C186.339 73.68 186.432 73.9045 186.598 74.07C186.763 74.2355 186.988 74.3285 187.222 74.3285C187.456 74.3285 187.68 74.2355 187.846 74.07C188.011 73.9045 188.104 73.68 188.104 73.4459V66.7384C188.303 66.6663 188.469 66.5253 188.572 66.3413C188.635 66.226 188.672 66.0981 188.68 65.9668C188.688 65.8354 188.666 65.7041 188.616 65.5823C188.673 65.4545 188.698 65.315 188.691 65.1754C188.683 65.0358 188.642 64.8999 188.572 64.7791Z" fill="url(#paint2_linear)"/>
<path d="M190.849 62.4859L189.684 63.139C189.582 63.196 189.492 63.2725 189.42 63.3643C189.348 63.456 189.295 63.5612 189.264 63.6736C189.232 63.7861 189.224 63.9036 189.238 64.0193C189.253 64.1351 189.29 64.2469 189.348 64.3481C189.426 64.4858 189.539 64.6001 189.675 64.6793C189.812 64.7585 189.967 64.7996 190.125 64.7982C190.276 64.7959 190.425 64.7565 190.557 64.6835L191.722 64.0216C191.823 63.9636 191.912 63.8864 191.983 63.7943C192.054 63.7022 192.106 63.597 192.136 63.4847C192.166 63.3724 192.174 63.2552 192.159 63.1399C192.144 63.0246 192.107 62.9133 192.049 62.8125C191.991 62.7117 191.914 62.6232 191.822 62.5522C191.729 62.4813 191.624 62.4291 191.512 62.3988C191.4 62.3685 191.283 62.3606 191.167 62.3755C191.052 62.3905 190.941 62.428 190.84 62.4859H190.849Z" fill="url(#paint3_linear)"/>
<path d="M193.593 62.8305C193.745 62.83 193.894 62.7905 194.026 62.7158L194.608 62.3892C194.813 62.2722 194.963 62.0786 195.025 61.851C195.087 61.6234 195.056 61.3805 194.939 61.1757C194.822 60.9709 194.628 60.8209 194.401 60.7589C194.173 60.6968 193.93 60.7277 193.725 60.8447L193.143 61.1713C192.968 61.2654 192.83 61.4157 192.752 61.5978C192.673 61.7799 192.658 61.9833 192.709 62.1751C192.76 62.3668 192.874 62.5358 193.033 62.6547C193.192 62.7737 193.386 62.8356 193.584 62.8305H193.593Z" fill="url(#paint4_linear)"/>
<path d="M194.608 68.7074L194.025 68.3809C193.924 68.3229 193.812 68.2855 193.696 68.2708C193.58 68.256 193.463 68.2643 193.35 68.295C193.237 68.3257 193.132 68.3784 193.039 68.4499C192.947 68.5214 192.87 68.6104 192.812 68.7118C192.754 68.8132 192.716 68.9251 192.702 69.0409C192.687 69.1568 192.695 69.2744 192.726 69.3871C192.757 69.4998 192.809 69.6053 192.881 69.6977C192.952 69.79 193.041 69.8674 193.143 69.9253L193.725 70.2519C193.858 70.3236 194.007 70.3629 194.158 70.3666C194.316 70.3679 194.471 70.3269 194.607 70.2477C194.744 70.1685 194.857 70.0542 194.934 69.9165C194.993 69.8158 195.031 69.7045 195.046 69.5891C195.061 69.4737 195.053 69.3564 195.023 69.244C194.992 69.1316 194.94 69.0263 194.869 68.9343C194.798 68.8422 194.709 68.7651 194.608 68.7074Z" fill="url(#paint5_linear)"/>
<path d="M191.731 67.076L190.566 66.4229C190.464 66.3649 190.352 66.3275 190.237 66.3128C190.121 66.298 190.003 66.3063 189.89 66.337C189.778 66.3677 189.672 66.4204 189.58 66.4919C189.487 66.5634 189.41 66.6524 189.352 66.7538C189.294 66.8552 189.257 66.9671 189.242 67.0829C189.227 67.1988 189.236 67.3164 189.266 67.4291C189.297 67.5418 189.35 67.6473 189.421 67.7397C189.493 67.832 189.582 67.9094 189.683 67.9673L190.848 68.6204C190.98 68.6952 191.129 68.7347 191.281 68.7352C191.48 68.7424 191.675 68.682 191.836 68.5638C191.996 68.4456 192.112 68.2766 192.164 68.0843C192.217 67.8919 192.202 67.6876 192.123 67.5045C192.045 67.3214 191.906 67.1704 191.731 67.076Z" fill="url(#paint6_linear)"/>
<path d="M182.729 64.0216L183.885 64.6835C184.018 64.7565 184.166 64.7959 184.317 64.7982C184.475 64.7996 184.631 64.7585 184.767 64.6793C184.904 64.6001 185.017 64.4858 185.094 64.3481C185.152 64.2469 185.189 64.1351 185.204 64.0193C185.218 63.9036 185.21 63.7861 185.179 63.6736C185.148 63.5612 185.094 63.456 185.022 63.3643C184.95 63.2725 184.861 63.196 184.759 63.139L183.594 62.4859C183.493 62.428 183.382 62.3905 183.266 62.3755C183.151 62.3606 183.034 62.3685 182.922 62.3988C182.809 62.4291 182.704 62.4813 182.612 62.5522C182.52 62.6232 182.443 62.7117 182.385 62.8125C182.327 62.9133 182.289 63.0246 182.274 63.1399C182.259 63.2552 182.267 63.3724 182.297 63.4847C182.328 63.597 182.38 63.7022 182.451 63.7943C182.522 63.8864 182.61 63.9636 182.711 64.0216H182.729Z" fill="url(#paint7_linear)"/>
<path d="M181.281 61.1713L180.699 60.8447C180.494 60.7277 180.251 60.6968 180.024 60.7589C179.796 60.8209 179.602 60.9709 179.485 61.1757C179.368 61.3805 179.337 61.6234 179.4 61.851C179.462 62.0786 179.612 62.2722 179.816 62.3892L180.399 62.7158C180.531 62.7905 180.68 62.83 180.831 62.8305C181.03 62.8356 181.224 62.7737 181.383 62.6547C181.542 62.5358 181.656 62.3668 181.707 62.1751C181.758 61.9833 181.743 61.7799 181.664 61.5978C181.585 61.4157 181.447 61.2654 181.273 61.1713H181.281Z" fill="url(#paint8_linear)"/>
<path d="M197.996 79.9994C197.753 80.1929 197.589 80.4696 197.537 80.7764C197.485 81.0832 197.548 81.3984 197.714 81.6616L197.786 81.7655L205.677 91.6827C205.885 91.9203 206.175 92.0718 206.489 92.1075C206.803 92.1432 207.119 92.0606 207.375 91.8758C207.632 91.691 207.81 91.4173 207.876 91.1081C207.941 90.7989 207.889 90.4764 207.73 90.2035L207.659 90.1083L199.758 80.1839C199.547 79.928 199.245 79.7653 198.915 79.7307C198.585 79.6962 198.255 79.7927 197.996 79.9994ZM206.292 69.1398C206.185 69.4305 206.192 69.7508 206.31 70.0371C206.428 70.3234 206.649 70.5549 206.93 70.6857L207.046 70.737L219.083 74.9023C219.399 75.0091 219.745 74.9879 220.046 74.8431C220.347 74.6983 220.58 74.4415 220.694 74.1275C220.801 73.8353 220.795 73.5137 220.677 73.2259C220.558 72.9381 220.336 72.7052 220.055 72.5729L219.94 72.5303L207.895 68.3665C207.58 68.2599 207.235 68.2812 206.936 68.4257C206.636 68.5703 206.405 68.8267 206.292 69.1398ZM185.888 84.6899C185.557 84.7306 185.254 84.8995 185.045 85.1604C184.836 85.4213 184.738 85.7535 184.771 86.0861L186.092 98.7569L186.114 98.8786C186.178 99.1831 186.355 99.4521 186.609 99.6319C186.863 99.8117 187.175 99.889 187.484 99.8483C187.815 99.8077 188.116 99.6387 188.324 99.3778C188.531 99.117 188.628 98.7851 188.593 98.4536L187.271 85.7829L187.25 85.6612C187.188 85.357 187.013 85.0877 186.76 84.9075C186.508 84.7273 186.196 84.6495 185.888 84.6899ZM150.602 59.2286C150.494 59.52 150.501 59.8416 150.621 60.1282C150.741 60.4149 150.965 60.6453 151.248 60.773L151.355 60.8171L163.4 64.9809C163.559 65.0402 163.73 65.067 163.9 65.0597C164.07 65.0523 164.238 65.011 164.392 64.9381C164.546 64.8652 164.684 64.7622 164.798 64.6352C164.912 64.5082 164.999 64.3597 165.055 64.1985C165.163 63.9056 165.156 63.5827 165.036 63.2945C164.916 63.0064 164.691 62.7745 164.406 62.6454L164.3 62.6013L152.255 58.4375C152.095 58.3785 151.924 58.3523 151.754 58.3604C151.583 58.3684 151.416 58.4105 151.262 58.4843C151.108 58.558 150.97 58.6619 150.856 58.7897C150.743 58.9175 150.656 59.0668 150.602 59.2286ZM181.682 32.0349C181.35 32.0756 181.047 32.2445 180.838 32.5054C180.63 32.7663 180.531 33.0985 180.564 33.4311L181.929 46.0942L181.95 46.2159C182.015 46.5205 182.192 46.7895 182.446 46.9693C182.7 47.1491 183.012 47.2263 183.321 47.1857C183.651 47.1428 183.953 46.9734 184.161 46.713C184.37 46.4527 184.469 46.1216 184.438 45.7895L183.117 33.1187L183.092 32.9796C183.03 32.6755 182.855 32.4062 182.603 32.226C182.35 32.0457 182.038 31.968 181.731 32.0084L181.682 32.0349ZM162.955 41.5034C162.71 41.6957 162.545 41.9726 162.493 42.2799C162.44 42.5873 162.505 42.9031 162.673 43.1656L162.743 43.2608L170.644 53.1852C170.846 53.4421 171.138 53.611 171.462 53.6566C171.785 53.7022 172.113 53.6208 172.377 53.4297C172.642 53.2385 172.822 52.9524 172.88 52.6313C172.938 52.3102 172.869 51.9791 172.688 51.7075L172.618 51.6123L164.717 41.6879C164.509 41.437 164.211 41.2769 163.887 41.2416C163.563 41.2063 163.238 41.2985 162.981 41.4989L162.955 41.5034Z" fill="url(#paint9_linear)"/>
<defs>
<linearGradient id="paint0_linear" x1="179.04" y1="69.3164" x2="195.553" y2="69.3164" gradientUnits="userSpaceOnUse">
<stop stop-color="#9059FF"/>
<stop offset="1" stop-color="#F770FF"/>
</linearGradient>
<linearGradient id="paint1_linear" x1="881.467" y1="349.332" x2="936.289" y2="349.332" gradientUnits="userSpaceOnUse">
<stop stop-color="#9059FF"/>
<stop offset="1" stop-color="#F770FF"/>
</linearGradient>
<linearGradient id="paint2_linear" x1="884.607" y1="2059.69" x2="939.402" y2="2059.69" gradientUnits="userSpaceOnUse">
<stop stop-color="#9059FF"/>
<stop offset="1" stop-color="#F770FF"/>
</linearGradient>
<linearGradient id="paint3_linear" x1="889.615" y1="334.638" x2="944.531" y2="334.638" gradientUnits="userSpaceOnUse">
<stop stop-color="#9059FF"/>
<stop offset="1" stop-color="#F770FF"/>
</linearGradient>
<linearGradient id="paint4_linear" x1="759.906" y1="292.085" x2="804.382" y2="292.085" gradientUnits="userSpaceOnUse">
<stop stop-color="#9059FF"/>
<stop offset="1" stop-color="#F770FF"/>
</linearGradient>
<linearGradient id="paint5_linear" x1="179.039" y1="69.3164" x2="195.552" y2="69.3164" gradientUnits="userSpaceOnUse">
<stop stop-color="#9059FF"/>
<stop offset="1" stop-color="#F770FF"/>
</linearGradient>
<linearGradient id="paint6_linear" x1="895.582" y1="349.41" x2="950.967" y2="349.41" gradientUnits="userSpaceOnUse">
<stop stop-color="#9059FF"/>
<stop offset="1" stop-color="#F770FF"/>
</linearGradient>
<linearGradient id="paint7_linear" x1="884.755" y1="334.638" x2="939.837" y2="334.638" gradientUnits="userSpaceOnUse">
<stop stop-color="#9059FF"/>
<stop offset="1" stop-color="#F770FF"/>
</linearGradient>
<linearGradient id="paint8_linear" x1="744.489" y1="292.085" x2="788.8" y2="292.085" gradientUnits="userSpaceOnUse">
<stop stop-color="#9059FF"/>
<stop offset="1" stop-color="#F770FF"/>
</linearGradient>
<linearGradient id="paint9_linear" x1="177.635" y1="92.8472" x2="193.602" y2="40.7393" gradientUnits="userSpaceOnUse">
<stop stop-color="#FF9100"/>
<stop offset="0.52" stop-color="#F10366"/>
<stop offset="1" stop-color="#6173FF"/>
</linearGradient>
</defs>
</svg>
