<svg data-name="e963aa4c-33a7-4eaa-b5db-bd5a9f9525df" xmlns="http://www.w3.org/2000/svg" viewBox="0 0 126.59 58.73"><defs><linearGradient id="a" x1="124.86" y1="12.78" x2="16.24" y2="54.05" gradientTransform="rotate(-4.27 68.915 35.609)" gradientUnits="userSpaceOnUse"><stop offset="0" stop-color="#ff9100"/><stop offset=".52" stop-color="#f10366"/><stop offset="1" stop-color="#6173ff"/></linearGradient></defs><path d="M131.67 13a.75.75 0 00.18-.34.65.65 0 000-.19 1.15 1.15 0 000-.26 6.68 6.68 0 000-1l-.04-1.21c-.11-.86-.29-1.81-.48-2.67a13.71 13.71 0 00-.42-1.52 3 3 0 00-.26-.65 1.17 1.17 0 00-.19-.3.92.92 0 00-.35-.3.89.89 0 00-.28-.07.78.78 0 00-.34 0l-.22.1a2.22 2.22 0 00-.42.25 10.88 10.88 0 00-1 .8c-.75.65-1.61 1.47-2.37 2.26-.51.52-.93 1-1.32 1.44-.19.24-.36.45-.48.64a2 2 0 00-.17.32 1.22 1.22 0 00-.06.26.71.71 0 000 .25.75.75 0 00.18.31.57.57 0 00.21.13.53.53 0 00.24.06h.28l.32-.08a11.5 11.5 0 011.14-.23 5.93 5.93 0 011.11-.08c-3.36 10.46-9.68 16.24-18.83 18.35-7.53 1.74-16.34 1.06-28.7-1.6l-1-.22c-2.9-.66-15.15-3.55-18.74-4.24h-.13a52.79 52.79 0 00-8.4-1C41 22 33.9 26.81 31.54 34.6a18.6 18.6 0 00-.72 3.77v.2h-.34c-1.44.2-2.89.46-4.34.79l-.4.09c-13.13 3.05-21.91 10-20.2 17.7a.86.86 0 101.68-.39C5.82 50.37 13.81 44 26.13 41.19c1.52-.36 3-.64 4.54-.85h.1v.1a24 24 0 007.16 16.29l.21.21c6.07 6 14.54 7.79 20.31 5 6.11-3 6.61-9.72.15-16.67-5.24-5.63-15.11-7.9-25.76-6.91h-.26v-.18a18.46 18.46 0 01.58-2.85l.08-.23c2.12-7 8.5-11.35 17.87-11.13a51.07 51.07 0 018.18 1l.54.11c4.3.86 17.21 3.92 18.75 4.26l1.07.23c12.35 2.6 21.19 3.26 28.91 1.43 9.74-2.26 16.53-8.47 20.09-19.5h-.07a12.76 12.76 0 012 1.55.83.83 0 00.18.13.75.75 0 00.29.09.77.77 0 00.37 0 .79.79 0 00.25-.19zM57.72 60.46c-5 2.48-12.62.82-18.15-4.73a22.75 22.75 0 01-6.83-15.36v-.32c10.1-1 19.46 1.05 24.36 6.2l.18.19c5.72 6.24 5.35 11.61.44 14.02z" transform="translate(-5.34 -4.48)" fill="url(#a)"/></svg>