<?xml version="1.0" encoding="UTF-8" standalone="no"?>
<svg
   viewBox="0 0 1702.4019 879.19733"
   height="879.19733"
   width="1702.4019"
   xml:space="preserve"
   id="svg2"
   version="1.1"
   xmlns="http://www.w3.org/2000/svg"
   xmlns:svg="http://www.w3.org/2000/svg"
   xmlns:rdf="http://www.w3.org/1999/02/22-rdf-syntax-ns#"
   xmlns:cc="http://creativecommons.org/ns#"
   xmlns:dc="http://purl.org/dc/elements/1.1/"><metadata
     id="metadata8"><rdf:RDF><cc:Work
         rdf:about=""><dc:format>image/svg+xml</dc:format><dc:type
           rdf:resource="http://purl.org/dc/dcmitype/StillImage" /><cc:license
           rdf:resource="http://creativecommons.org/publicdomain/zero/1.0/" /><dc:source>https://openclipart.org/detail/324161/deserted-beach</dc:source></cc:Work><cc:License
         rdf:about="http://creativecommons.org/publicdomain/zero/1.0/"><cc:permits
           rdf:resource="http://creativecommons.org/ns#Reproduction" /><cc:permits
           rdf:resource="http://creativecommons.org/ns#Distribution" /><cc:permits
           rdf:resource="http://creativecommons.org/ns#DerivativeWorks" /></cc:License></rdf:RDF></metadata><defs
     id="defs6"><clipPath
       id="clipPath18"
       clipPathUnits="userSpaceOnUse"><path
         id="path16"
         d="M 0,660 H 660 V 0 H 0 Z" /></clipPath><filter
       style="color-interpolation-filters:sRGB;"
       id="filter5812"
       x="0"
       y="0"
       width="1"
       height="1"><feColorMatrix
         values="0.201928 0 0 0 0.798072 0 0.201928 0 0 0.798072 0 0 0.201928 0 0.798072 0 0 0 1 0"
         id="feColorMatrix5810" /></filter><filter
       style="color-interpolation-filters:sRGB;"
       id="filter5816"
       x="0"
       y="0"
       width="1"
       height="1"><feColorMatrix
         values="0.201928 0 0 0 0.798072 0 0.201928 0 0 0.798072 0 0 0.201928 0 0.798072 0 0 0 1 0"
         id="feColorMatrix5814" /></filter><filter
       style="color-interpolation-filters:sRGB;"
       id="filter5820"
       x="0"
       y="0"
       width="1"
       height="1"><feColorMatrix
         values="0.201928 0 0 0 0.798072 0 0.201928 0 0 0.798072 0 0 0.201928 0 0.798072 0 0 0 1 0"
         id="feColorMatrix5818" /></filter><filter
       style="color-interpolation-filters:sRGB;"
       id="filter5824"
       x="0"
       y="0"
       width="1"
       height="1"><feColorMatrix
         values="0.201928 0 0 0 0.798072 0 0.201928 0 0 0.798072 0 0 0.201928 0 0.798072 0 0 0 1 0"
         id="feColorMatrix5822" /></filter><filter
       style="color-interpolation-filters:sRGB;"
       id="filter5828"
       x="0"
       y="0"
       width="1"
       height="1"><feColorMatrix
         values="0.201928 0 0 0 0.798072 0 0.201928 0 0 0.798072 0 0 0.201928 0 0.798072 0 0 0 1 0"
         id="feColorMatrix5826" /></filter><filter
       style="color-interpolation-filters:sRGB;"
       id="filter5832"
       x="0"
       y="0"
       width="1"
       height="1"><feColorMatrix
         values="0.201928 0 0 0 0.798072 0 0.201928 0 0 0.798072 0 0 0.201928 0 0.798072 0 0 0 1 0"
         id="feColorMatrix5830" /></filter><filter
       style="color-interpolation-filters:sRGB;"
       id="filter5836"
       x="0"
       y="0"
       width="1"
       height="1"><feColorMatrix
         values="0.201928 0 0 0 0.798072 0 0.201928 0 0 0.798072 0 0 0.201928 0 0.798072 0 0 0 1 0"
         id="feColorMatrix5834" /></filter><filter
       style="color-interpolation-filters:sRGB;"
       id="filter5840"
       x="0"
       y="0"
       width="1"
       height="1"><feColorMatrix
         values="0.201928 0 0 0 0.798072 0 0.201928 0 0 0.798072 0 0 0.201928 0 0.798072 0 0 0 1 0"
         id="feColorMatrix5838" /></filter><filter
       style="color-interpolation-filters:sRGB;"
       id="filter5844"
       x="0"
       y="0"
       width="1"
       height="1"><feColorMatrix
         values="0.201928 0 0 0 0.798072 0 0.201928 0 0 0.798072 0 0 0.201928 0 0.798072 0 0 0 1 0"
         id="feColorMatrix5842" /></filter><filter
       style="color-interpolation-filters:sRGB;"
       id="filter5848"
       x="0"
       y="0"
       width="1"
       height="1"><feColorMatrix
         values="0.201928 0 0 0 0.798072 0 0.201928 0 0 0.798072 0 0 0.201928 0 0.798072 0 0 0 1 0"
         id="feColorMatrix5846" /></filter><filter
       style="color-interpolation-filters:sRGB;"
       id="filter5852"
       x="0"
       y="0"
       width="1"
       height="1"><feColorMatrix
         values="0.201928 0 0 0 0.798072 0 0.201928 0 0 0.798072 0 0 0.201928 0 0.798072 0 0 0 1 0"
         id="feColorMatrix5850" /></filter><filter
       style="color-interpolation-filters:sRGB;"
       id="filter5856"
       x="0"
       y="0"
       width="1"
       height="1"><feColorMatrix
         values="0.201928 0 0 0 0.798072 0 0.201928 0 0 0.798072 0 0 0.201928 0 0.798072 0 0 0 1 0"
         id="feColorMatrix5854" /></filter><filter
       style="color-interpolation-filters:sRGB;"
       id="filter5860"
       x="0"
       y="0"
       width="1"
       height="1"><feColorMatrix
         values="0.201928 0 0 0 0.798072 0 0.201928 0 0 0.798072 0 0 0.201928 0 0.798072 0 0 0 1 0"
         id="feColorMatrix5858" /></filter></defs><path
     d="M 0,879.19731 H 1702.4019 V 0 H 0 Z"
     style="fill:#93dcf7;fill-opacity:1;fill-rule:evenodd;stroke:none;stroke-width:1.33333325;stroke-opacity:1;filter:url(#filter5860)"
     id="path20"
     clip-path="none" /><path
     d="M -3.7486666,258.64998 -8.7486664,680.55332 1262.9473,747.39865 1896.562,418.34841 1842.7856,150.40288 C 1555.188,86.137385 1455.0705,405.29406 1331.1291,299.65187 L 1262.9473,244.952 c -42.4973,-26.048 -96.016,-26.048 -138.5133,0 -30.9587,18.97466 -68.352,24.39733 -103.4267,14.99866 -35.07598,-9.39733 -64.74931,-32.792 -82.07197,-64.704 -15.63867,-28.80933 -45.78934,-46.74933 -78.56934,-46.74933 -32.77999,0 -62.93199,17.94 -78.57066,46.74933 -13.18267,24.288 -35.768,42.092 -62.45867,49.24267 -26.69466,7.15467 -55.15333,3.02667 -78.71466,-11.41467 -41.68133,-25.548 -94.17333,-25.548 -135.85466,0 -16.78,10.28534 -37.048,13.22534 -56.05867,8.13067 -19.01066,-5.09333 -35.09333,-17.77467 -44.48266,-35.072 C 272.03653,-52.53883 78.308719,256.21115 -3.7486666,258.64998 Z"
     style="fill:#cfeff6;fill-opacity:1;fill-rule:evenodd;stroke:none;stroke-width:1.33333325;stroke-opacity:1;filter:url(#filter5856)"
     id="path22"
     clip-path="none" /><path
     d="m 1262.9473,354.57866 c 369.0127,28.32331 424.2424,-195.70877 534.0909,-239.0177 l 2.7655,313.49539 L 1262.9473,672.76932 -8.2499998,701.93998 -106.25,410.28959 c 1.79976,-87.55788 128.270498,-171.17452 256.87395,-145.79511 77.70867,17.94983 130.80709,72.8151 233.12606,53.84951 25.21333,-6.724 51.55333,-8.96133 77.81333,-6.45333 43.74533,4.17733 86.02533,18.04 123.79599,40.59067 43.672,26.07066 99.964,14.148 129.42267,-27.41734 20.68,-29.17733 54.79866,-45.69199 90.416,-43.764 35.616,1.92667 67.77199,22.03067 85.20533,53.27067 16.188,29.00667 46.04266,47.67333 79.11466,49.46267 33.06801,1.78933 64.74931,-13.54534 83.95071,-40.636 25.176,-35.52267 73.2853,-45.71467 110.6106,-23.43067 3.3374,1.99067 6.708,3.90267 10.112,5.732 27.9614,15.03733 58.0414,24.68933 88.756,28.88"
     style="fill:#51b5e2;fill-opacity:1;fill-rule:evenodd;stroke:none;stroke-width:1.33333325;stroke-opacity:1;filter:url(#filter5852)"
     id="path24"
     clip-path="none" /><path
     d="m 1262.9473,399.35466 c 273.0569,-10.18742 255.303,-77.07459 539.7727,-108.7937 l -5.7637,337.34781 -534.009,-14.38078 -879.19729,19.632 -456.250008,-180.76001 c 29.626372,-42.9398 74.1123446,-97.42643 145.522836,-75.80513 200.432702,91.61575 222.074302,-15.90427 388.540502,-5.97619 43.74533,2.812 86.02533,12.14267 123.79599,27.32133 43.672,17.552 99.964,9.52267 129.42267,-18.45333 20.68,-19.64 54.79866,-30.75467 90.416,-29.46 35.616,1.30133 67.77199,14.82933 85.20533,35.85733 16.188,19.52667 46.04266,32.08933 79.11466,33.29467 33.06801,1.204 64.74931,-9.116 83.95071,-27.352 25.176,-23.91067 73.2853,-30.76933 110.6106,-15.772 3.3374,1.34133 6.708,2.62933 10.112,3.85867 27.9614,10.12266 58.0414,16.62 88.756,19.44133"
     style="fill:#3e94c4;fill-opacity:1;fill-rule:evenodd;stroke:none;stroke-width:1.33333325;stroke-opacity:1;filter:url(#filter5848)"
     id="path26"
     clip-path="none" /><path
     d="M 0,879.19731 H 1790.22 V 439.59866 H 0 Z"
     style="fill:#6dd0f6;fill-opacity:1;fill-rule:evenodd;stroke:none;stroke-width:1.33333325;stroke-opacity:1;filter:url(#filter5844)"
     id="path28"
     clip-path="none" /><path
     d="m 472.38467,663.57199 c 31.23067,0 56.55067,7.51066 56.55067,16.77466 0,9.26533 -25.32,16.776 -56.55067,16.776 -31.232,0 -56.55066,-7.51067 -56.55066,-16.776 0,-9.264 25.31866,-16.77466 56.55066,-16.77466 M 943.64199,499.36666 c 47.51333,0 86.02671,7.67066 86.02671,17.13333 0,9.46267 -38.51338,17.132 -86.02671,17.132 -47.508,0 -86.02133,-7.66933 -86.02133,-17.132 0,-9.46267 38.51333,-17.13333 86.02133,-17.13333 m -304.00932,90.39866 c -26.176,0 -47.39734,6.47867 -47.39734,14.46933 0,7.98934 21.22134,14.46934 47.39734,14.46934 26.176,0 47.39733,-6.48 47.39733,-14.46934 0,-7.99066 -21.22133,-14.46933 -47.39733,-14.46933 m -795.88266,28.93867 v -150.564 H 504.778 c 6.612,0.0147 13.22667,0.0347 19.84,0.0533 43.91467,0.12534 84.26933,5.028 106.22933,12.90667 21.95867,7.87733 22.284,17.56933 0.85467,25.50933 -14.71867,5.45334 -14.49467,12.10934 0.58667,17.52267 15.08133,5.41067 42.79733,8.776 72.95866,8.864 40.36667,0.116 76.14933,5.408 89.78267,13.28 13.63333,7.872 2.252,16.66533 -28.556,22.072 -30.80534,5.40666 -74.56933,6.284 -109.808,2.20266 -32.13467,-3.72133 -72.28933,-2.56666 -98.32,2.82534 -26.03066,5.392 -31.60133,13.71066 -13.63866,20.36666 13.82266,5.12134 13.612,11.372 -0.55334,16.45334 -14.164,5.08 -40.19333,8.244 -68.52,8.32666 -30.62533,0.088 -601.25466,0.14667 -631.88399,0.18134"
     style="fill:#5bc4f0;fill-opacity:1;fill-rule:evenodd;stroke:none;stroke-width:1.33333325;stroke-opacity:1;filter:url(#filter5840)"
     id="path30"
     clip-path="none" /><path
     style="fill:#8edaf6;fill-opacity:1;fill-rule:evenodd;stroke:none;stroke-width:1.33333325;stroke-opacity:1;filter:url(#filter5836)"
     clip-path="none"
     d="m 1243.7949,447.94922 c -79.1787,0 -143.3652,36.30206 -143.3652,81.08203 0,46.2373 -66.2729,83.71484 -148.02345,83.71484 -93.43327,0 -179.77099,28.19308 -226.48828,73.95703 -64.63062,63.31464 -184.07851,102.31641 -313.34375,102.31641 -9.66666,0 -419.2842299,0.26444 -428.824223,0.78711 v 89.39063 h 1278.529303 0.668 551.6757 V 447.94922 h -551.6757 -0.668 z"
     id="path32" /><path
     style="fill:#ffffff;fill-opacity:1;fill-rule:evenodd;stroke:none;stroke-width:1.33333325;stroke-opacity:1;filter:url(#filter5832)"
     clip-path="none"
     d="m 1261.5449,458.4043 38,0.27148 c -82.1681,6.14305 -155.5679,53.38339 -149.5058,92.0293 6.3654,40.57197 -46.7572,83.40521 -118.6504,95.67187 -82.16804,14.01732 -154.21277,51.709 -188.99808,98.87696 C 796.456,807.53786 703.55576,857.87863 596.33984,879.19727 h 665.20506 1.4024 498.1289 V 458.4043 h -440.1289 z"
     id="path34" /><path
     style="fill:#fdf7b7;fill-opacity:1;fill-rule:evenodd;stroke:none;stroke-width:1.33333325;stroke-opacity:1;filter:url(#filter5828)"
     clip-path="none"
     d="m 1262.9473,465.94336 v 0.002 h -0.3985 l 40,0.17383 c -79.4533,2.24322 -140.0895,75.96738 -134.5449,120.95898 6.3654,51.63333 -46.7598,110.94271 -118.6504,132.47071 -82.16803,24.60667 -154.21465,78.82567 -188.99999,142.23633 -3.21733,5.864 -6.67389,11.67078 -10.33789,17.41211 h 412.53318 0.4024 511.9218 V 465.94531 h -393.9218 z"
     id="path36" /><path
     d="m 1104.95,201.76933 c 41.464,0 75.2827,-33.81733 75.2827,-75.28266 0,-41.464005 -33.8187,-75.281338 -75.2827,-75.281338 -41.4653,0 -75.2813,33.817333 -75.2813,75.281338 0,41.46533 33.816,75.28266 75.2813,75.28266"
     style="fill:#ffffff;fill-opacity:1;fill-rule:evenodd;stroke:none;stroke-width:1.33333325;stroke-opacity:1;filter:url(#filter5824)"
     id="path40"
     clip-path="none" /><path
     d="M 850.01266,94.551998 H 476.35267 l 10.42,-4.529334 C 498.118,85.089331 508.866,78.882665 518.81134,71.525332 c 25.07466,-18.554667 59.32666,-18.554667 84.39999,0 21.67067,16.033332 51.272,16.033332 72.94267,0 36.61067,-27.092 86.62266,-27.092 123.236,0 16.02266,11.857333 31.26266,18.635999 50.62266,23.026666"
     style="fill:#ffffff;fill-opacity:1;fill-rule:evenodd;stroke:none;stroke-width:1.33333325;stroke-opacity:1;filter:url(#filter5820)"
     id="path44"
     clip-path="none" /><path
     d="M 900.48066,209.70266 H 613.40733 l 8.00667,-3.48 c 8.716,-3.792 16.97333,-8.55866 24.61467,-14.212 19.26266,-14.25466 45.57733,-14.25466 64.84133,0 16.64933,12.32 39.39066,12.32 56.04133,0 28.12533,-20.812 66.55067,-20.812 94.676,0 12.31333,9.11067 24.02133,14.31734 38.89333,17.692"
     style="fill:#ffffff;fill-opacity:1;fill-rule:evenodd;stroke:none;stroke-width:1.33333325;stroke-opacity:1;filter:url(#filter5816)"
     id="path48"
     clip-path="none" /><g
     id="g1013"
     transform="matrix(1.6365644,0,0,-1.6365644,-82.84706,757.54257)"
     style="stroke:none;stroke-width:0.81471479;filter:url(#filter5812)"><path
       id="path42"
       transform="matrix(0.75000002,0,0,-0.75000002,0,660.00002)"
       d="m 1335.5234,775.2832 -23.3593,38.98633 a 157.95455,76.136366 0 0 0 -54.209,-4.72461 157.95455,76.136366 0 0 0 -157.9551,76.13672 157.95455,76.136366 0 0 0 157.9551,76.13672 157.95455,76.136366 0 0 0 157.9531,-76.13672 157.95455,76.136366 0 0 0 -87.2207,-67.97852 l 15.5098,-38.9414 z"
       clip-path="none"
       style="opacity:0.2;fill:#000000;fill-opacity:1;fill-rule:evenodd;stroke:none;stroke-width:1.08628631;stroke-opacity:1" /><g
       id="g1005"
       style="stroke:none;stroke-width:0.81471479"><path
         d="M 898.482,149.823 1002.83,74.246 c 3.941,-2.852 8.928,4.525 5.004,7.312 l -104.109,73.937 z"
         style="fill:#463d3b;fill-opacity:1;fill-rule:evenodd;stroke:none;stroke-width:0.81471479;stroke-opacity:1"
         id="path46"
         clip-path="none" /><g
         id="g999"
         style="stroke:none;stroke-width:0.81471479"><path
           clip-path="none"
           id="path50"
           style="fill:#ffffff;fill-opacity:1;fill-rule:evenodd;stroke:none;stroke-width:0.81471479;stroke-opacity:1"
           d="m 907.776,250.601 c -56.873,-15.117 -102.226,-74.009 -101.3,-131.538 0.925,-57.53 47.779,-91.913 104.652,-76.795 56.871,15.116 102.226,74.009 101.301,131.539 -0.926,57.529 -47.782,91.912 -104.653,76.794" /><path
           clip-path="none"
           id="path52"
           style="fill:#f68413;fill-opacity:1;fill-rule:evenodd;stroke:none;stroke-width:0.81471479;stroke-opacity:1"
           d="m 851.612,218.567 c -11.961,-11.243 -22.114,-24.518 -29.743,-38.911 17.851,-7.124 38.532,-10.573 60.983,-11.723 42.904,0.767 85.738,-1.737 128.4,-12.027 0.863,5.948 1.272,11.931 1.177,17.901 -0.152,9.411 -1.54,18.198 -3.992,26.256 -39.765,-4.37 -81.998,-16.197 -125.585,-32.13 -9.411,18.006 -19.767,34.947 -31.24,50.634 m 56.164,32.034 c -9.301,-2.471 -18.291,-6.12 -26.822,-10.736 -2.66,-23.816 -1.306,-47.83 1.898,-71.932 -25.322,-30.106 -47.817,-61.253 -63.302,-94.974 7.313,-11.434 17.388,-20.384 29.412,-26.265 5.686,42.394 17.558,82.606 33.89,121.239 11.608,-44.248 27.8,-83.145 46.407,-119.224 -5.877,-2.629 -11.936,-4.795 -18.131,-6.441 -8.976,-2.387 -17.698,-3.537 -26.033,-3.56 -5.145,41.054 -5.924,84.113 -2.243,129.225 34.183,25.655 70.507,45.9 108.217,62.65 -8.78,9.378 -19.889,16.243 -32.596,20.074 -25.46,-23.759 -50.668,-51.313 -75.621,-82.724 -26.331,-17.404 -51.581,-37.807 -75.21,-62.705 -0.69,4.442 -1.09,9.057 -1.166,13.835 -0.152,9.402 0.939,18.839 3.109,28.116 24.373,9.999 48.809,16.123 73.267,20.754 40.932,-11.818 78.827,-30.526 114.98,-53.181 -7.98,-15.508 -18.888,-29.777 -31.848,-41.668 -29.497,29.504 -57.62,60.634 -83.132,94.849 9.663,28.737 22.972,57.229 39.544,85.502 -4.783,-0.581 -9.663,-1.517 -14.62,-2.834" /></g></g></g></svg>
