<svg width="406" height="370" viewBox="0 0 406 370" fill="none" xmlns="http://www.w3.org/2000/svg">
<path d="M199.175 339.476C176.946 341.115 154.234 338.386 131.754 338.386C115.672 338.386 99.3768 338.165 83.7007 334.424C71.6681 331.531 59.8191 324.078 49.2363 317.878C28.1672 305.537 7.19471 287.728 1.50219 263.98C-3.13688 244.696 3.82175 222.077 10.7707 203.892C14.25 194.781 17.9032 186.103 24.3979 178.409C29.5299 172.315 35.899 167.494 40.4221 160.967C48.9463 148.673 58.2921 137.44 60.0318 122.563C61.9647 106.259 60.9982 88.5466 69.5225 73.7078C85.2084 46.3153 115.179 31.92 144.154 18.7493C204.867 -8.94215 279.904 -7.34161 333.195 32.836C352.796 47.617 368.878 68.5109 374.058 91.4874C379.026 113.529 367.476 132.861 369.689 153.446C371.294 168.343 387.714 180.588 395.098 193.672C408.223 216.918 409.382 241.736 399.196 266.362C394.924 276.698 385.008 282.859 377.392 290.891C368.779 300.196 358.906 308.257 348.06 314.841C339.081 320.144 330.006 325.09 320.873 330.114C312.977 334.452 299.717 338.03 290.661 338.435C281.605 338.84 272.627 337.952 263.484 337.952C242.366 337.952 221.23 337.731 200.47 339.428L199.175 339.476Z" fill="#F0F9FC"/>
<path d="M228.721 91.7182C226.797 93.1889 224.528 94.1429 222.13 94.4894C215.796 95.6086 209.611 91.9314 208.267 84.5343C206.848 76.583 211.146 68.7383 219.71 67.2141C226.428 66.0203 231.782 69.9214 232.923 76.3592C233.989 82.1468 231.313 86.1224 227.687 86.7619C226.151 87.0391 224.487 86.2504 224.231 83.8842H224.082C223.764 84.9909 223.142 85.9863 222.286 86.757C221.43 87.5277 220.375 88.0427 219.24 88.2435C217.001 88.6485 214.751 87.1777 214.207 84.1293C213.987 82.9323 214.006 81.7037 214.262 80.5139C214.519 79.3242 215.008 78.1969 215.702 77.1966C216.395 76.1963 217.28 75.3428 218.304 74.6851C219.329 74.0274 220.473 73.5785 221.672 73.3641C223.083 73.0893 224.537 73.1147 225.938 73.4387L225.863 80.6546C225.81 83.6816 226.514 84.918 227.793 84.7688C229.766 84.449 231.494 81.4433 230.705 76.9667C229.713 71.3709 225.639 67.9602 219.656 69.0261C213.364 70.1452 208.992 76.0608 210.357 83.8842C211.498 90.2793 216.414 93.5515 222.088 92.539C224.121 92.2243 226.043 91.4033 227.676 90.1514L228.721 91.7182ZM223.634 75.4318C222.976 75.3668 222.312 75.3919 221.661 75.5065C218.259 76.114 216.094 79.7699 216.756 83.5431C217.065 85.2378 218.131 86.3249 219.827 86.0265C222.067 85.6215 223.602 82.4026 223.602 79.9405L223.634 75.4318Z" fill="#505B7A"/>
<path d="M239.325 147.452C239.325 147.452 290.717 116.841 293.18 123.257C295.644 129.674 280.831 147.943 254.149 163.259L239.325 147.452Z" fill="white"/>
<path d="M254.149 164.325C254.002 164.324 253.858 164.294 253.724 164.235C253.59 164.176 253.47 164.091 253.37 163.984L238.547 148.188C238.437 148.071 238.355 147.93 238.307 147.777C238.259 147.624 238.246 147.462 238.269 147.303C238.292 147.145 238.349 146.994 238.438 146.861C238.527 146.728 238.644 146.617 238.781 146.536C240.509 145.47 281.247 121.307 291.25 121.307C293.17 121.307 293.905 122.159 294.183 122.873C296.955 130.1 281.385 148.838 254.724 164.186C254.549 164.286 254.35 164.334 254.149 164.325ZM241.021 147.697L254.362 161.916C280.607 146.674 294.343 129.119 292.21 123.609C292.21 123.545 291.911 123.406 291.271 123.406C283.902 123.438 255.834 138.925 241.021 147.697Z" fill="#4F5A79"/>
<path d="M137.96 282.614L106.266 352.769L179.85 360.689L211.555 295.064L137.96 282.614Z" fill="white"/>
<path d="M180.671 361.754H180.554L108.782 353.835C108.62 353.814 108.464 353.757 108.327 353.666C108.19 353.575 108.076 353.454 107.993 353.312C107.916 353.162 107.876 352.996 107.876 352.828C107.876 352.659 107.916 352.493 107.993 352.343L138.92 282.188C139.013 281.989 139.166 281.824 139.357 281.715C139.548 281.606 139.768 281.559 139.986 281.58L211.747 294.019C211.906 294.05 212.056 294.117 212.186 294.215C212.315 294.313 212.42 294.439 212.494 294.583C212.565 294.733 212.602 294.897 212.602 295.063C212.602 295.229 212.565 295.393 212.494 295.543L181.567 361.168C181.482 361.336 181.355 361.479 181.198 361.582C181.041 361.684 180.859 361.744 180.671 361.754ZM110.446 351.863L180.052 359.548L210.094 295.873L140.434 283.808L110.446 351.863Z" fill="#4F5A79"/>
<path d="M265.101 288.444C265.101 292.942 261.07 296.577 256.09 296.577H177.781C172.801 296.577 168.77 292.942 168.77 288.444V128.266C168.77 123.768 172.801 120.134 177.781 120.134H256.09C261.07 120.134 265.101 123.768 265.101 128.266V288.444Z" fill="white"/>
<path d="M265.826 133.33H170.625V272.862H265.826V133.33Z" fill="#D2F0FF"/>
<path d="M256.089 297.643H177.781C172.225 297.643 167.703 293.518 167.703 288.444V128.267C167.703 123.193 172.225 119.068 177.781 119.068H256.089C261.645 119.068 266.167 123.193 266.167 128.267V288.444C266.167 293.518 261.645 297.643 256.089 297.643ZM177.781 121.2C173.398 121.2 169.836 124.398 169.836 128.267V288.444C169.836 292.345 173.398 295.511 177.781 295.511H256.089C260.472 295.511 264.034 292.314 264.034 288.444V128.267C264.034 124.366 260.472 121.2 256.089 121.2H177.781Z" fill="#4F5A79"/>
<path d="M399.624 141.809C399.624 142.958 399.283 144.081 398.645 145.036C398.006 145.991 397.098 146.736 396.036 147.176C394.974 147.615 393.806 147.73 392.678 147.506C391.551 147.282 390.515 146.729 389.702 145.916C388.89 145.104 388.336 144.069 388.112 142.942C387.887 141.815 388.003 140.647 388.442 139.586C388.882 138.525 389.627 137.617 390.583 136.979C391.539 136.341 392.663 136 393.812 136C395.354 136 396.832 136.612 397.922 137.701C399.012 138.791 399.624 140.268 399.624 141.809Z" fill="#FBB85E"/>
<path d="M335.9 98.6969H335.625L333.609 98.3154C332.73 98.1521 331.892 97.8172 331.143 97.3298C330.394 96.8423 329.748 96.2118 329.243 95.4746C328.738 94.7373 328.384 93.9076 328.2 93.0332C328.016 92.1588 328.007 91.2567 328.173 90.3787C328.51 88.6084 329.534 87.0434 331.022 86.0254C332.51 85.0074 334.34 84.6191 336.114 84.9452C336.519 85.0201 336.877 85.2527 337.111 85.5919C337.344 85.9311 337.433 86.349 337.358 86.7538C337.283 87.1586 337.051 87.5171 336.711 87.7504C336.372 87.9837 335.954 88.0726 335.549 87.9977C335.064 87.9036 334.566 87.9079 334.083 88.0101C333.601 88.1124 333.143 88.3106 332.739 88.593C332.13 89.014 331.659 89.6056 331.385 90.2934C331.111 90.9812 331.047 91.7346 331.2 92.4587C331.354 93.1829 331.718 93.8456 332.247 94.3635C332.776 94.8814 333.447 95.2315 334.174 95.3697L336.175 95.736C336.58 95.7724 336.954 95.9681 337.214 96.2801C337.475 96.5921 337.601 96.9948 337.564 97.3996C337.528 97.8044 337.332 98.1781 337.02 98.4386C336.708 98.6991 336.305 98.8249 335.9 98.7885V98.6969Z" fill="#4F5A79"/>
<path d="M335.839 86.2425L364.854 91.6608L377.162 69.2245L333.258 61.0132L335.839 86.2425Z" fill="white"/>
<path d="M364.854 93.1872H364.579L335.564 87.7537C335.254 87.6981 334.969 87.548 334.747 87.324C334.526 87.0999 334.379 86.8128 334.327 86.5021L328.066 48.3453L321.271 47.0785C321.07 47.0414 320.879 46.9652 320.708 46.8542C320.536 46.7433 320.389 46.5997 320.273 46.4318C320.158 46.2638 320.076 46.0748 320.034 45.8754C319.992 45.6761 319.989 45.4703 320.026 45.2698C320.063 45.0694 320.139 44.8782 320.25 44.7073C320.361 44.5363 320.505 44.3888 320.673 44.2733C320.841 44.1578 321.03 44.0765 321.23 44.034C321.429 43.9916 321.635 43.9888 321.836 44.0259L329.67 45.5522C329.977 45.6106 330.259 45.762 330.477 45.9858C330.696 46.2097 330.84 46.4952 330.891 46.8037L332.999 59.6092C333.175 59.5778 333.356 59.5778 333.533 59.6092L377.452 67.729C377.689 67.7725 377.912 67.8712 378.103 68.0171C378.294 68.163 378.448 68.3519 378.552 68.5684C378.662 68.7834 378.719 69.0215 378.719 69.2629C378.719 69.5043 378.662 69.7423 378.552 69.9573L366.244 92.3935C366.108 92.6414 365.906 92.8468 365.661 92.9869C365.416 93.1271 365.136 93.1964 364.854 93.1872ZM337.168 84.9453L364.044 89.9667L374.734 70.3389L333.502 62.6159L337.168 84.9453Z" fill="#4F5A79"/>
<path d="M360.654 108.007C360.244 108.004 359.835 107.963 359.433 107.885C357.776 107.561 356.307 106.611 355.332 105.234C354.358 103.856 353.951 102.156 354.198 100.486C354.444 98.8171 355.324 97.3067 356.656 96.269C357.987 95.2313 359.667 94.746 361.347 94.9139C363.027 95.0818 364.578 95.89 365.677 97.1707C366.777 98.4513 367.34 100.106 367.251 101.791C367.162 103.476 366.427 105.062 365.198 106.22C363.97 107.377 362.343 108.017 360.654 108.007ZM360.654 97.8117C359.764 97.812 358.906 98.1446 358.248 98.7442C357.59 99.3439 357.179 100.167 357.097 101.054C357.015 101.94 357.267 102.825 357.803 103.535C358.34 104.245 359.122 104.73 359.998 104.894C360.928 105.059 361.887 104.853 362.666 104.319C363.446 103.785 363.985 102.967 364.166 102.039C364.341 101.108 364.138 100.146 363.602 99.365C363.067 98.5836 362.242 98.0469 361.311 97.8728C361.094 97.8373 360.874 97.8169 360.654 97.8117Z" fill="#4F5A79"/>
<path d="M341.138 104.359C340.729 104.361 340.32 104.325 339.916 104.252C338.304 103.939 336.866 103.038 335.88 101.725C334.894 100.412 334.432 98.7792 334.582 97.1444C334.732 95.5095 335.485 93.9886 336.693 92.8767C337.902 91.7648 339.48 91.1411 341.123 91.1265C341.538 91.1293 341.952 91.1702 342.36 91.2486C343.987 91.5445 345.445 92.4393 346.444 93.7565C347.444 95.0736 347.914 96.7174 347.76 98.3635C347.607 100.01 346.842 101.538 345.616 102.648C344.39 103.758 342.792 104.369 341.138 104.359ZM341.138 94.179C340.492 94.1875 339.859 94.3704 339.308 94.7084C338.757 95.0464 338.308 95.527 338.007 96.0992C337.707 96.6715 337.567 97.3143 337.602 97.9596C337.637 98.6049 337.846 99.2287 338.206 99.7652C338.538 100.251 338.984 100.647 339.505 100.918C340.027 101.19 340.607 101.329 341.195 101.323C341.784 101.317 342.361 101.165 342.876 100.883C343.392 100.6 343.83 100.194 344.151 99.702C344.472 99.2096 344.667 98.6456 344.717 98.0601C344.768 97.4745 344.674 96.8855 344.442 96.3453C344.211 95.805 343.849 95.3302 343.39 94.963C342.931 94.5958 342.388 94.3475 341.81 94.2401C341.584 94.196 341.354 94.1755 341.123 94.179H341.138Z" fill="#4F5A79"/>
<path d="M150.588 54.0001H115V82.071C115 85.9303 116.513 89.6314 119.207 92.3603C121.901 95.0892 125.554 96.6223 129.364 96.6223H146.333L158.552 109V96.6223H165V68.5513C165 66.6362 164.627 64.7401 163.902 62.9715C163.177 61.2028 162.115 59.5965 160.776 58.2446C159.437 56.8928 157.848 55.822 156.099 55.0936C154.351 54.3652 152.478 53.9936 150.588 54.0001Z" fill="white"/>
<path d="M159.236 110C159.074 109.999 158.913 109.967 158.764 109.904C158.614 109.841 158.479 109.75 158.365 109.635L146.332 97.7205H129.761C125.582 97.7173 121.575 96.067 118.62 93.132C115.665 90.197 114.003 86.2172 114 82.0665V54.2182C114 53.8951 114.129 53.5853 114.359 53.3568C114.589 53.1284 114.901 53 115.227 53H151.239C155.418 53.0032 159.425 54.6535 162.38 57.5885C165.335 60.5235 166.997 64.5033 167 68.654V96.5023C167 96.8254 166.871 97.1352 166.641 97.3637C166.411 97.5921 166.099 97.7205 165.773 97.7205H160.475V108.782C160.474 109.022 160.401 109.257 160.265 109.457C160.13 109.656 159.938 109.811 159.714 109.903C159.562 109.964 159.4 109.997 159.236 110ZM116.453 55.4364V82.0665C116.46 85.57 117.864 88.9282 120.358 91.4056C122.853 93.883 126.234 95.2776 129.761 95.2841H146.933C147.095 95.2832 147.255 95.3139 147.404 95.3745C147.554 95.4351 147.69 95.5244 147.804 95.6373L158.071 105.834V96.5023C158.071 96.1792 158.2 95.8693 158.43 95.6408C158.66 95.4124 158.972 95.2841 159.297 95.2841H164.596V68.654C164.593 66.915 164.245 65.1938 163.572 63.5884C162.899 61.983 161.914 60.525 160.674 59.2977C159.433 58.0703 157.962 57.0976 156.343 56.4351C154.724 55.7726 152.99 55.4332 151.239 55.4364H116.453Z" fill="#4F5A79"/>
<path d="M131.5 74C130.214 74 128.958 73.6481 127.889 72.9888C126.82 72.3295 125.987 71.3925 125.495 70.2961C125.003 69.1998 124.874 67.9933 125.125 66.8294C125.376 65.6656 125.995 64.5965 126.904 63.7574C127.813 62.9183 128.971 62.3468 130.232 62.1153C131.493 61.8838 132.8 62.0026 133.987 62.4567C135.175 62.9109 136.19 63.6799 136.905 64.6666C137.619 65.6533 138 66.8133 138 68C138 69.5913 137.315 71.1174 136.096 72.2426C134.877 73.3678 133.224 74 131.5 74ZM131.5 64.4C130.729 64.4 129.975 64.6112 129.333 65.0067C128.692 65.4023 128.192 65.9646 127.897 66.6224C127.602 67.2802 127.524 68.004 127.675 68.7023C127.825 69.4007 128.197 70.0421 128.742 70.5456C129.288 71.0491 129.983 71.392 130.739 71.5309C131.496 71.6698 132.28 71.5985 132.992 71.326C133.705 71.0535 134.314 70.5921 134.743 70.0001C135.171 69.4081 135.4 68.712 135.4 68C135.386 67.0536 134.969 66.1502 134.239 65.4854C133.51 64.8206 132.525 64.448 131.5 64.448V64.4Z" fill="#4F5A79"/>
<path d="M147.5 90C146.214 90 144.958 89.6481 143.889 88.9888C142.82 88.3295 141.987 87.3924 141.495 86.2961C141.003 85.1997 140.874 83.9933 141.125 82.8294C141.376 81.6656 141.995 80.5965 142.904 79.7574C143.813 78.9183 144.971 78.3468 146.232 78.1153C147.493 77.8838 148.8 78.0026 149.987 78.4567C151.175 78.9109 152.19 79.6799 152.905 80.6666C153.619 81.6533 154 82.8133 154 84C154 85.5913 153.315 87.1174 152.096 88.2426C150.877 89.3678 149.224 90 147.5 90ZM147.5 80.4C146.729 80.4 145.975 80.6111 145.333 81.0067C144.692 81.4022 144.192 81.9645 143.897 82.6223C143.602 83.2801 143.524 84.004 143.675 84.7023C143.825 85.4007 144.197 86.0421 144.742 86.5456C145.288 87.0491 145.983 87.3919 146.739 87.5308C147.496 87.6697 148.28 87.5984 148.992 87.3259C149.705 87.0535 150.314 86.592 150.743 86C151.171 85.408 151.4 84.712 151.4 84C151.386 83.0536 150.969 82.1502 150.239 81.4854C149.51 80.8206 148.525 80.4479 147.5 80.448V80.4Z" fill="#4F5A79"/>
<path d="M133.225 90.9998C133.043 91.0029 132.863 90.9606 132.701 90.8769C132.408 90.7383 132.182 90.4883 132.072 90.1818C131.963 89.8753 131.978 89.5375 132.116 89.2425L145.721 60.6213C145.874 60.3512 146.122 60.1493 146.416 60.0563C146.71 59.9633 147.028 59.9861 147.306 60.1201C147.585 60.254 147.802 60.4892 147.915 60.7783C148.028 61.0674 148.028 61.3889 147.916 61.6781L134.322 90.2994C134.223 90.5085 134.068 90.6852 133.874 90.8091C133.68 90.933 133.455 90.9992 133.225 90.9998Z" fill="#4F5A79"/>
<path d="M127.286 134.961C128.052 138.606 127.719 142.397 126.33 145.853C124.94 149.309 122.557 152.276 119.481 154.378C116.404 156.481 112.773 157.624 109.047 157.665C105.32 157.705 101.666 156.639 98.5449 154.604C95.424 152.568 92.9771 149.653 91.5137 146.228C90.0503 142.802 89.636 139.02 90.3231 135.359C91.0103 131.698 92.7682 128.323 95.3744 125.661C97.9806 122.998 101.318 121.168 104.965 120.401C109.857 119.376 114.955 120.334 119.141 123.064C123.326 125.794 126.256 130.073 127.286 134.961Z" fill="#EF6FFF"/>
<path d="M111.63 151.012C111.43 151.013 111.234 150.957 111.065 150.852L102.992 145.811C102.751 145.661 102.58 145.422 102.516 145.146C102.452 144.87 102.501 144.58 102.65 144.34C102.8 144.1 103.04 143.929 103.316 143.865C103.592 143.801 103.882 143.849 104.122 143.999L111.257 148.454L120.982 131.581C121.13 131.349 121.362 131.183 121.629 131.118C121.896 131.053 122.178 131.093 122.416 131.23C122.654 131.368 122.83 131.592 122.907 131.856C122.983 132.12 122.955 132.404 122.827 132.647L112.547 150.479C112.476 150.603 112.381 150.711 112.267 150.797C112.154 150.883 112.024 150.945 111.886 150.98C111.802 151.001 111.716 151.012 111.63 151.012Z" fill="#4F5A79"/>
<path d="M112.302 161.67C107.2 161.669 102.294 159.71 98.5948 156.198C94.8961 152.686 92.6872 147.889 92.4241 142.797C92.161 137.705 93.8636 132.706 97.1806 128.832C100.498 124.958 105.176 122.505 110.25 121.978C115.325 121.451 120.408 122.891 124.451 126C128.494 129.11 131.188 133.652 131.978 138.69C132.768 143.727 131.593 148.876 128.696 153.072C125.798 157.269 121.4 160.194 116.407 161.244C115.057 161.523 113.681 161.666 112.302 161.67ZM112.302 124.003C108.628 124 105.043 125.135 102.041 127.251C99.0392 129.367 96.7667 132.361 95.5364 135.82C94.3061 139.28 94.1784 143.036 95.1709 146.571C96.1634 150.106 98.2274 153.247 101.079 155.562C103.93 157.877 107.43 159.252 111.095 159.499C114.76 159.745 118.412 158.85 121.548 156.938C124.684 155.025 127.15 152.188 128.607 148.818C130.064 145.447 130.44 141.708 129.684 138.115C128.858 134.127 126.681 130.546 123.52 127.975C120.359 125.404 116.408 124.002 112.334 124.003H112.302Z" fill="#4F5A79"/>
<path d="M345.991 196.359H344.762L323.548 197.232L333.381 178.427L333.934 177.37C329.634 175.195 324.74 174.491 320.001 175.366C315.263 176.242 310.944 178.649 307.706 182.218C304.468 185.787 302.492 190.32 302.08 195.121C301.669 199.922 302.845 204.725 305.428 208.793C308.01 212.86 311.857 215.968 316.377 217.637C320.897 219.307 325.84 219.446 330.447 218.034C335.054 216.622 339.07 213.736 341.878 209.821C344.686 205.905 346.131 201.176 345.991 196.359Z" fill="#FFEA80"/>
<path d="M323.72 217.279C318.455 217.165 313.445 214.997 309.759 211.238C306.074 207.479 304.007 202.428 304 197.166C303.993 191.903 306.047 186.846 309.722 183.078C313.397 179.309 318.402 177.128 323.666 177C326.857 177.003 330.002 177.755 332.848 179.196C332.974 179.26 333.087 179.349 333.178 179.457C333.27 179.565 333.339 179.69 333.381 179.825C333.465 180.094 333.438 180.385 333.307 180.635L325.138 196.228L342.723 195.503C342.865 195.494 343.006 195.515 343.139 195.564C343.271 195.614 343.391 195.691 343.491 195.791C343.595 195.887 343.678 196.002 343.737 196.13C343.795 196.258 343.828 196.397 343.833 196.537C343.912 199.229 343.451 201.909 342.477 204.42C341.503 206.93 340.034 209.22 338.159 211.154C336.284 213.088 334.04 214.626 331.56 215.678C329.08 216.73 326.414 217.274 323.72 217.279ZM323.666 179.132C318.964 179.253 314.495 181.207 311.214 184.576C307.933 187.946 306.101 192.464 306.108 197.166C306.115 201.867 307.961 206.38 311.251 209.739C314.542 213.099 319.017 215.04 323.72 215.147C328.399 215.138 332.892 213.31 336.248 210.05C339.603 206.79 341.558 202.353 341.7 197.678L323.378 198.435C323.192 198.44 323.007 198.397 322.842 198.309C322.677 198.221 322.539 198.092 322.44 197.934C322.346 197.772 322.297 197.588 322.297 197.401C322.297 197.214 322.346 197.03 322.44 196.868L330.971 180.635C328.665 179.638 326.179 179.126 323.666 179.132Z" fill="#4F5A79"/>
<path d="M357.73 176.48C355.982 173.723 353.526 171.485 350.617 170L350.158 170.874L342 186.489L359.564 185.764H360.545C360.469 182.471 359.495 179.262 357.73 176.48Z" fill="#EF6FFF"/>
<path d="M335.205 192C334.997 191.998 334.792 191.943 334.611 191.839C334.429 191.736 334.276 191.587 334.166 191.407C334.057 191.215 334 190.997 334 190.776C334 190.554 334.057 190.336 334.166 190.144L344.147 170.68C344.298 170.385 344.556 170.162 344.866 170.06C345.177 169.959 345.514 169.986 345.805 170.137C349.376 171.995 352.392 174.798 354.537 178.254C356.683 181.709 357.879 185.689 358 189.778C358 190.113 357.87 190.434 357.638 190.671C357.406 190.908 357.091 191.041 356.763 191.041L335.254 192H335.205ZM345.706 173.002L337.295 189.412L355.403 188.655C355.116 185.452 354.087 182.365 352.401 179.648C350.715 176.93 348.42 174.661 345.706 173.028V173.002Z" fill="#4F5A79"/>
<path d="M274.641 50.807C274.643 51.7604 274.362 52.6929 273.833 53.4865C273.305 54.2802 272.553 54.8993 271.672 55.2656C270.792 55.6319 269.822 55.7289 268.886 55.5442C267.951 55.3595 267.091 54.9014 266.416 54.2281C265.74 53.5548 265.28 52.6964 265.093 51.7615C264.907 50.8267 265.001 49.8575 265.366 48.9765C265.73 48.0956 266.348 47.3425 267.141 46.8127C267.934 46.2828 268.866 46 269.82 46C271.097 46 272.321 46.5061 273.225 47.4073C274.129 48.3085 274.638 49.5312 274.641 50.807Z" fill="#F36FFF"/>
<path d="M125.376 202.866C124.045 202.866 122.743 202.472 121.637 201.732C120.53 200.993 119.667 199.941 119.158 198.712C118.649 197.482 118.517 196.13 118.777 194.825C119.038 193.52 119.679 192.321 120.622 191.381C121.564 190.441 122.764 189.801 124.07 189.543C125.376 189.285 126.729 189.419 127.959 189.93C129.188 190.441 130.238 191.304 130.977 192.412C131.715 193.519 132.108 194.821 132.105 196.151C132.103 197.933 131.392 199.641 130.131 200.9C128.869 202.159 127.159 202.866 125.376 202.866ZM125.376 191.557C124.467 191.557 123.578 191.827 122.823 192.332C122.067 192.836 121.478 193.554 121.13 194.393C120.782 195.233 120.691 196.156 120.868 197.047C121.046 197.939 121.483 198.757 122.126 199.4C122.769 200.042 123.588 200.48 124.479 200.657C125.371 200.834 126.295 200.743 127.135 200.395C127.975 200.048 128.693 199.459 129.198 198.704C129.703 197.948 129.973 197.06 129.973 196.151C129.973 194.933 129.488 193.764 128.626 192.903C127.764 192.041 126.595 191.557 125.376 191.557Z" fill="#4F5A79"/>
<path d="M278.599 94.1916C277.491 94.1916 276.408 93.8631 275.487 93.2477C274.566 92.6324 273.849 91.7578 273.425 90.7347C273.002 89.7116 272.891 88.5859 273.108 87.5001C273.325 86.4144 273.86 85.4173 274.644 84.6352C275.428 83.853 276.426 83.321 277.513 83.1062C278.6 82.8915 279.726 83.0038 280.749 83.429C281.772 83.8541 282.645 84.5731 283.259 85.4947C283.873 86.4163 284.2 87.4993 284.198 88.6065C284.195 90.0887 283.604 91.5092 282.554 92.5563C281.504 93.6034 280.082 94.1916 278.599 94.1916ZM278.599 85.1424C277.913 85.1424 277.243 85.3455 276.673 85.7261C276.103 86.1068 275.659 86.6478 275.397 87.2808C275.134 87.9137 275.066 88.6103 275.199 89.2822C275.333 89.9542 275.663 90.5714 276.148 91.0559C276.633 91.5404 277.25 91.8702 277.923 92.0039C278.595 92.1375 279.292 92.069 279.925 91.8068C280.558 91.5446 281.1 91.1006 281.481 90.531C281.861 89.9613 282.065 89.2916 282.065 88.6065C282.062 87.6886 281.696 86.8091 281.046 86.1601C280.397 85.511 279.517 85.1452 278.599 85.1424Z" fill="#4F5A79"/>
<path d="M100.848 234.991C100.848 236.408 100.428 237.793 99.64 238.971C98.8526 240.148 97.7333 241.066 96.4238 241.609C95.1143 242.151 93.6734 242.292 92.2832 242.016C90.8931 241.74 89.6161 241.058 88.6139 240.056C87.6117 239.054 86.9291 237.778 86.6526 236.389C86.3761 234.999 86.518 233.559 87.0604 232.25C87.6028 230.941 88.5213 229.823 89.6999 229.036C90.8784 228.249 92.264 227.829 93.6814 227.829C94.6225 227.829 95.5543 228.014 96.4238 228.374C97.2933 228.734 98.0833 229.261 98.7488 229.926C99.4142 230.592 99.9421 231.381 100.302 232.25C100.662 233.119 100.848 234.051 100.848 234.991Z" fill="#FFEA80"/>
<path d="M80.4684 88.6593C80.4663 89.4789 80.2212 90.2794 79.7641 90.9599C79.3069 91.6403 78.6583 92.1701 77.9001 92.4823C77.1419 92.7945 76.3081 92.8751 75.5041 92.7139C74.7001 92.5527 73.9619 92.1569 73.3828 91.5767C72.8037 90.9964 72.4096 90.2576 72.2504 89.4537C72.0912 88.6497 72.174 87.8165 72.4883 87.0595C72.8026 86.3025 73.3344 85.6556 74.0163 85.2005C74.6983 84.7454 75.4999 84.5024 76.3199 84.5024C76.8656 84.5024 77.406 84.61 77.91 84.8191C78.414 85.0281 78.8718 85.3345 79.2571 85.7206C79.6425 86.1067 79.9478 86.565 80.1556 87.0693C80.3635 87.5736 80.4698 88.1139 80.4684 88.6593Z" fill="#FBB85E"/>
<path d="M220.108 282.07H208.814C208.531 282.07 208.26 281.958 208.06 281.758C207.86 281.558 207.748 281.287 207.748 281.004C207.748 280.722 207.86 280.451 208.06 280.251C208.26 280.051 208.531 279.938 208.814 279.938H220.108C220.391 279.938 220.662 280.051 220.862 280.251C221.062 280.451 221.174 280.722 221.174 281.004C221.174 281.287 221.062 281.558 220.862 281.758C220.662 281.958 220.391 282.07 220.108 282.07Z" fill="#4F5A79"/>
<path d="M159.907 150.255C159.907 150.255 173.078 154.039 173.078 170.336V221.199C173.078 221.199 205.199 267.127 172.086 300.211L127.626 305.157L140.423 278.979V230.589C140.423 230.589 156.772 173.939 159.907 150.255Z" fill="white"/>
<path d="M127.616 306.191C127.453 306.186 127.293 306.146 127.147 306.074C126.896 305.948 126.706 305.728 126.616 305.463C126.526 305.198 126.544 304.908 126.667 304.656L139.4 278.702V230.557C139.39 230.458 139.39 230.358 139.4 230.259C139.571 229.694 155.727 173.449 158.809 150.085C158.83 149.934 158.882 149.79 158.963 149.661C159.044 149.532 159.152 149.422 159.278 149.339C159.407 149.253 159.553 149.196 159.706 149.172C159.859 149.148 160.015 149.158 160.164 149.2C160.302 149.2 174.102 153.4 174.102 170.304V220.847C176.331 224.194 196.7 256.159 183.796 285.172C181.764 289.694 179.088 293.898 175.851 297.653C175.76 297.76 175.649 297.847 175.524 297.911C175.399 297.974 175.263 298.012 175.123 298.023C174.984 298.034 174.843 298.017 174.71 297.974C174.577 297.931 174.454 297.862 174.347 297.771C174.241 297.68 174.153 297.569 174.09 297.444C174.026 297.319 173.988 297.183 173.977 297.043C173.966 296.904 173.983 296.764 174.026 296.63C174.07 296.497 174.139 296.374 174.23 296.268C177.334 292.671 179.899 288.643 181.844 284.309C194.93 254.891 172.396 222.105 172.161 221.775C172.033 221.598 171.965 221.385 171.969 221.167V170.304C171.969 157.823 163.821 153.059 160.739 151.694C157.316 175.324 142.397 227.562 141.544 230.707V278.947C141.544 279.11 141.508 279.27 141.437 279.416L128.586 305.594C128.498 305.775 128.359 305.927 128.188 306.033C128.016 306.139 127.818 306.193 127.616 306.191Z" fill="#4F5A79"/>
<path d="M162.872 175.655H162.734L155.268 174.674C155.129 174.657 154.994 174.612 154.872 174.543C154.75 174.474 154.642 174.381 154.556 174.27C154.47 174.159 154.406 174.032 154.37 173.897C154.333 173.761 154.323 173.62 154.341 173.48C154.378 173.201 154.524 172.947 154.748 172.775C154.972 172.604 155.255 172.527 155.535 172.564L162.083 173.416C162.552 171.349 163.661 166.392 164.216 163.824C165.336 158.217 161.475 155.446 159.065 154.295C158.939 154.233 158.826 154.148 158.733 154.043C158.64 153.938 158.569 153.815 158.523 153.683C158.477 153.55 158.458 153.409 158.467 153.269C158.476 153.129 158.513 152.993 158.574 152.867C158.697 152.613 158.914 152.417 159.18 152.324C159.446 152.23 159.738 152.245 159.993 152.366C162.382 153.517 167.767 156.96 166.306 164.239C165.656 167.512 164.013 174.727 163.992 174.802C163.941 175.056 163.799 175.282 163.593 175.439C163.387 175.596 163.131 175.673 162.872 175.655Z" fill="#4F5A79"/>
<path d="M275.317 202.941C275.317 202.941 260.163 214.143 260.494 224.343C260.824 234.544 282.889 215.454 282.889 215.454C282.889 215.454 287.176 198.006 275.317 202.941Z" fill="white"/>
<path d="M263.192 228.415C260.888 228.415 259.513 226.944 259.428 224.375C259.086 213.717 274.048 202.557 274.688 202.088C274.755 202.033 274.831 201.99 274.912 201.96C278.602 200.425 281.428 200.777 283.07 202.877C286.035 206.65 284.137 214.793 283.934 215.667C283.881 215.883 283.762 216.077 283.593 216.221C282.153 217.5 269.367 228.415 263.192 228.415ZM275.851 203.9C274.55 204.891 261.272 215.23 261.56 224.333C261.624 226.145 262.435 226.304 263.192 226.304C267.65 226.304 277.984 218.279 281.94 214.9C282.484 212.448 283.284 206.607 281.396 204.241C280.351 202.866 278.495 202.802 275.851 203.879V203.9Z" fill="#4F5A79"/>
<path d="M127.785 288.57L117.22 318.255L199.582 347.535L210.146 317.85L127.785 288.57Z" fill="white"/>
<path d="M199.611 348.676C199.491 348.675 199.372 348.653 199.259 348.612L116.898 319.322C116.631 319.229 116.413 319.033 116.29 318.778C116.183 318.519 116.183 318.228 116.29 317.968L126.858 288.284C126.953 288.019 127.148 287.802 127.402 287.68C127.655 287.558 127.947 287.542 128.213 287.634L210.584 316.924C210.847 317.02 211.062 317.215 211.182 317.468C211.236 317.598 211.264 317.737 211.264 317.878C211.264 318.019 211.236 318.158 211.182 318.288L200.624 347.962C200.551 348.171 200.414 348.353 200.232 348.481C200.05 348.609 199.833 348.677 199.611 348.676ZM118.615 317.67L198.971 346.246L208.814 318.533L128.469 289.958L118.615 317.67Z" fill="#4F5A79"/>
<path d="M97.4993 356.297L114.68 308.045L212.259 342.75L203.237 368.096L97.4993 356.297Z" fill="#D2F0FF"/>
<path d="M203.247 369.162C203.124 369.162 203.001 369.14 202.885 369.098C202.752 369.051 202.63 368.979 202.526 368.885C202.421 368.791 202.336 368.678 202.276 368.551C202.215 368.424 202.181 368.287 202.173 368.146C202.166 368.006 202.187 367.866 202.234 367.734L210.905 343.4L115.33 309.41L98.5126 356.659C98.4178 356.926 98.2208 357.145 97.9648 357.267C97.7088 357.389 97.4148 357.404 97.1476 357.309C96.8803 357.215 96.6616 357.018 96.5396 356.762C96.4176 356.506 96.4022 356.212 96.497 355.945L113.677 307.694C113.774 307.428 113.971 307.211 114.227 307.092C114.483 306.972 114.776 306.958 115.042 307.054L212.621 341.748C212.754 341.794 212.876 341.867 212.981 341.961C213.085 342.055 213.17 342.168 213.23 342.295C213.291 342.422 213.326 342.559 213.333 342.699C213.34 342.84 213.319 342.98 213.272 343.112L204.25 368.448C204.177 368.656 204.042 368.836 203.862 368.964C203.683 369.092 203.468 369.161 203.247 369.162Z" fill="#4F5A79"/>
<path d="M192.231 350.637C191.431 352.876 188.68 353.952 186.078 353.025C183.476 352.097 182.014 349.529 182.814 347.28C183.614 345.031 186.366 343.965 188.968 344.892C191.57 345.819 193.031 348.346 192.231 350.637Z" fill="#505B7A"/>
<path d="M189.533 351.309C189.409 351.309 189.287 351.287 189.17 351.245L175.307 346.331C175.039 346.237 174.821 346.04 174.699 345.784C174.577 345.528 174.561 345.234 174.656 344.967C174.751 344.7 174.948 344.481 175.204 344.359C175.46 344.237 175.754 344.222 176.021 344.317L189.885 349.23C190.168 349.277 190.42 349.434 190.587 349.667C190.754 349.9 190.822 350.189 190.775 350.472C190.729 350.755 190.572 351.007 190.339 351.174C190.106 351.341 189.816 351.409 189.533 351.362V351.309Z" fill="#4F5A79"/>
<path d="M263.96 135.333H169.292C169.009 135.333 168.738 135.221 168.538 135.021C168.338 134.821 168.226 134.55 168.226 134.268C168.226 133.985 168.338 133.714 168.538 133.514C168.738 133.314 169.009 133.202 169.292 133.202H263.96C264.243 133.202 264.514 133.314 264.714 133.514C264.914 133.714 265.026 133.985 265.026 134.268C265.026 134.55 264.914 134.821 264.714 135.021C264.514 135.221 264.243 135.333 263.96 135.333Z" fill="#4F5A79"/>
<path d="M263.491 273.501H187.774C187.491 273.501 187.22 273.389 187.02 273.189C186.82 272.989 186.707 272.718 186.707 272.435C186.707 272.152 186.82 271.881 187.02 271.681C187.22 271.481 187.491 271.369 187.774 271.369H263.491C263.774 271.369 264.045 271.481 264.245 271.681C264.445 271.881 264.557 272.152 264.557 272.435C264.557 272.718 264.445 272.989 264.245 273.189C264.045 273.389 263.774 273.501 263.491 273.501Z" fill="#4F5A79"/>
<path d="M175.615 10.2924C175.617 11.935 175.132 13.5414 174.22 14.9082C173.309 16.275 172.012 17.3409 170.494 17.971C168.976 18.6011 167.306 18.767 165.693 18.4479C164.081 18.1287 162.6 17.3387 161.437 16.178C160.274 15.0172 159.482 13.5377 159.16 11.9268C158.839 10.3159 159.003 8.6459 159.631 7.12809C160.26 5.61028 161.325 4.31287 162.691 3.40005C164.057 2.48722 165.664 2 167.308 2C169.509 2 171.62 2.87329 173.178 4.42811C174.736 5.98293 175.612 8.09211 175.615 10.2924Z" fill="#62BEFB"/>
<path d="M247 184H188V200H247V184Z" fill="white"/>
<path d="M247 207H188V223H247V207Z" fill="#EF6FFF"/>
<path d="M264.781 159.848C259.449 163.195 250.917 178.948 253.253 185.525C255.588 192.101 275.979 175.655 275.979 175.655C275.979 175.655 277.951 151.587 264.781 159.848Z" fill="white"/>
<path d="M255.738 188.115C254.985 188.178 254.233 187.989 253.6 187.578C252.966 187.167 252.488 186.557 252.24 185.844C249.723 178.661 258.404 162.534 264.216 158.91C268.236 156.405 271.542 156.437 273.814 158.91C278.005 163.461 277.088 175.228 277.013 175.729C277.001 175.871 276.961 176.01 276.896 176.136C276.83 176.262 276.739 176.374 276.629 176.465C276.053 176.902 262.094 188.115 255.738 188.115ZM269.601 159.166C268.065 159.29 266.591 159.828 265.335 160.722C260.409 163.792 252.133 179.129 254.245 185.141C254.394 185.578 254.682 185.983 255.727 185.983C260.249 185.983 270.785 178.373 274.923 175.079C275.147 171.615 275.04 163.355 272.214 160.338C271.894 159.968 271.498 159.671 271.053 159.469C270.607 159.266 270.123 159.163 269.633 159.166H269.601Z" fill="#4F5A79"/>
<path d="M269.388 180.888C269.388 180.888 253.573 195.704 254.564 207.225C255.556 218.747 279.924 196.087 279.924 196.087C279.924 196.087 282.612 175.623 269.388 180.888Z" fill="white"/>
<path d="M257.647 211.553C256.228 211.553 253.818 210.999 253.498 207.29C252.432 195.395 268.002 180.707 268.663 180.089C268.758 179.996 268.87 179.924 268.993 179.876C272.993 178.277 276.181 178.735 278.304 181.144C282.281 185.663 281.044 195.714 280.991 196.141C280.961 196.39 280.844 196.62 280.66 196.791C280.01 197.409 264.76 211.553 257.647 211.553ZM269.975 181.805C268.407 183.308 254.746 196.834 255.631 207.13C255.802 209.144 256.697 209.421 257.647 209.421C262.744 209.421 274.443 199.637 278.911 195.565C279.093 193.764 279.669 185.973 276.704 182.615C275.211 180.867 273.014 180.643 269.975 181.805Z" fill="#4F5A79"/>
</svg>
