<svg width="521" height="478" viewBox="0 0 521 478" fill="none" xmlns="http://www.w3.org/2000/svg">
<path d="M409.688 80.96C408.126 79.2853 406.534 77.6511 404.911 76.0572C382.776 54.3802 354.207 45.9537 323.909 46.2104C311.903 43.5609 297.875 47.0243 287.833 49.537C274.948 52.8124 262.853 56.6902 250.145 60.9133C201.711 77.0012 150.447 90.0927 109.711 123.404C95.0373 135.397 79.7823 148.643 69.2152 165.105C60.441 178.762 50.0278 192.351 47.3424 209.449C44.7321 226.421 44.6755 243.691 47.1744 260.685C48.2523 268.152 49.7627 275.551 51.698 282.843C52.298 288.782 54.5819 294.932 56.8176 300.684L57.1345 300.401C64.8322 322.127 75.8898 342.527 88.7282 362.041C105.599 387.701 125.489 410.496 152.016 423.064C170.011 431.59 185.424 435.45 204.7 434.996C250.321 434.002 294.558 411.513 336.001 395.404C353.124 388.748 370.393 382.25 386.599 373.512C399.454 366.59 412.448 363.101 424.418 353.902C448.943 334.831 466.053 307.79 472.806 277.431C480.674 242.434 472.454 205.903 461.2 171.429C456.128 155.88 450.036 144.493 442.117 130.714C431.974 112.996 423.701 95.9965 409.688 80.96Z" fill="#F0F9FC"/>
<path d="M124.259 95.0182L115.141 137.817L176.4 150.897L185.519 108.098L124.259 95.0182Z" fill="white"/>
<path d="M176.393 152.009H176.159L114.873 138.901C114.586 138.837 114.337 138.663 114.178 138.416C114.019 138.169 113.964 137.869 114.024 137.582L123.139 94.7822C123.201 94.4936 123.374 94.2411 123.621 94.0797C123.868 93.9184 124.169 93.8614 124.458 93.921L185.721 107.006C186.01 107.067 186.263 107.24 186.425 107.487C186.586 107.735 186.642 108.036 186.582 108.326L177.432 151.125C177.381 151.367 177.251 151.584 177.063 151.744C176.875 151.904 176.64 151.997 176.393 152.009ZM116.459 136.944L175.533 149.559L184.135 108.952L125.061 96.3479L116.459 136.944Z" fill="#4F5A79"/>
<path d="M165.661 109.61L163.375 120.337L186.592 125.295L188.878 114.567L165.661 109.61Z" fill="#FBB85E"/>
<path d="M173.467 135.725H173.221L156.855 132.046C156.705 132.022 156.561 131.967 156.433 131.885C156.305 131.803 156.195 131.696 156.109 131.57C156.024 131.444 155.965 131.302 155.937 131.153C155.908 131.004 155.91 130.85 155.943 130.701C155.976 130.553 156.038 130.412 156.127 130.289C156.216 130.165 156.329 130.061 156.459 129.983C156.589 129.905 156.734 129.854 156.885 129.834C157.036 129.813 157.189 129.824 157.335 129.865L173.712 133.489C174.009 133.521 174.28 133.67 174.466 133.903C174.653 134.136 174.739 134.433 174.707 134.73C174.674 135.027 174.525 135.298 174.293 135.485C174.06 135.672 173.763 135.758 173.467 135.725Z" fill="#4F5A79"/>
<path d="M172.785 141.116H172.539L156.207 137.403C155.92 137.336 155.671 137.159 155.514 136.91C155.358 136.661 155.305 136.36 155.369 136.072C155.433 135.783 155.609 135.531 155.858 135.372C156.107 135.213 156.409 135.159 156.698 135.222L173.075 138.902C173.218 138.935 173.354 138.995 173.473 139.081C173.593 139.166 173.694 139.274 173.772 139.399C173.85 139.523 173.903 139.662 173.927 139.807C173.951 139.952 173.946 140.1 173.913 140.244C173.856 140.498 173.712 140.724 173.506 140.883C173.3 141.043 173.045 141.125 172.785 141.116Z" fill="#4F5A79"/>
<path d="M144.555 113.839H144.298L128.379 110.003C128.236 109.969 128.101 109.908 127.981 109.822C127.862 109.736 127.761 109.627 127.684 109.502C127.528 109.249 127.478 108.945 127.546 108.656C127.615 108.366 127.795 108.116 128.047 107.96C128.3 107.804 128.604 107.754 128.893 107.822L144.812 111.602C145.108 111.637 145.379 111.787 145.564 112.021C145.749 112.255 145.834 112.553 145.8 112.849C145.766 113.146 145.616 113.417 145.382 113.603C145.149 113.788 144.851 113.873 144.555 113.839Z" fill="#4F5A79"/>
<path d="M224.213 226.136H193.369V327.459H227.709H246.388H364.793V226.136H331.949H224.213Z" fill="#FFEA80"/>
<path d="M189.766 220.957L221.191 192.864L328.503 191.097L361.905 220.957H189.766Z" fill="#FFEA80"/>
<path d="M361.782 323.577H190.369C190.072 323.577 189.788 323.459 189.579 323.25C189.369 323.04 189.252 322.755 189.252 322.459V221.147C189.252 220.85 189.369 220.566 189.579 220.356C189.788 220.146 190.072 220.028 190.369 220.028H361.782C362.078 220.028 362.362 220.146 362.572 220.356C362.781 220.566 362.899 220.85 362.899 221.147V322.459C362.899 322.755 362.781 323.04 362.572 323.25C362.362 323.459 362.078 323.577 361.782 323.577ZM191.486 321.34H360.665V222.265H191.486V321.34Z" fill="#4F5A79"/>
<path d="M237.68 377.113C233.808 373.603 230.696 369.336 228.536 364.576C226.377 359.815 225.215 354.661 225.123 349.433V287.42C227.088 287.419 229.035 287.805 230.851 288.557C232.667 289.309 234.317 290.412 235.707 291.803C237.098 293.193 238.2 294.844 238.953 296.662C239.705 298.48 240.093 300.428 240.093 302.395V322.526L241.02 322.436C252.191 322.436 298.72 323.051 298.72 323.051L299.491 341.314V346.324L299.58 347.789C299.72 353.016 298.788 358.215 296.841 363.066C294.895 367.917 291.976 372.317 288.263 375.994L237.68 377.113Z" fill="white"/>
<path d="M237.68 378.231C237.403 378.231 237.136 378.127 236.931 377.941C232.956 374.322 229.759 369.929 227.537 365.031C225.314 360.134 224.113 354.834 224.006 349.456V287.421C224.006 287.124 224.124 286.84 224.333 286.63C224.543 286.42 224.827 286.302 225.123 286.302C229.387 286.305 233.475 288.001 236.491 291.018C239.507 294.036 241.204 298.127 241.21 302.395V321.34C252.884 321.34 298.273 321.933 298.731 321.944C299.027 321.944 299.311 322.062 299.521 322.272C299.73 322.482 299.848 322.766 299.848 323.063L300.619 341.337V346.381L300.708 347.778C300.843 353.166 299.877 358.523 297.869 363.523C295.862 368.523 292.855 373.06 289.034 376.856C288.93 376.961 288.807 377.044 288.671 377.101C288.535 377.157 288.389 377.187 288.241 377.187C288.094 377.187 287.948 377.157 287.811 377.101C287.675 377.044 287.552 376.961 287.448 376.856C287.24 376.646 287.123 376.363 287.123 376.067C287.123 375.772 287.24 375.488 287.448 375.279C291.042 371.705 293.872 367.435 295.764 362.73C297.656 358.025 298.57 352.983 298.452 347.913L298.362 346.492V341.426L297.636 324.248C290.643 324.159 251.141 323.655 241.009 323.655L240.182 323.734C240.027 323.748 239.871 323.729 239.724 323.679C239.576 323.629 239.441 323.549 239.326 323.444C239.212 323.339 239.12 323.211 239.058 323.068C238.996 322.925 238.964 322.771 238.964 322.615V302.485C238.982 298.99 237.681 295.616 235.322 293.039C232.963 290.462 229.72 288.871 226.24 288.584V349.411C226.35 354.48 227.489 359.474 229.588 364.089C231.687 368.703 234.702 372.841 238.45 376.252C238.669 376.451 238.8 376.729 238.815 377.024C238.83 377.32 238.727 377.609 238.529 377.829C238.425 377.954 238.295 378.054 238.148 378.124C238.002 378.193 237.842 378.23 237.68 378.231Z" fill="#4F5A79"/>
<path d="M189.755 222.075C189.53 222.072 189.312 222.002 189.128 221.873C188.944 221.744 188.804 221.563 188.724 221.353C188.644 221.143 188.63 220.914 188.682 220.696C188.734 220.478 188.851 220.28 189.017 220.129L220.442 192.025C220.643 191.847 220.901 191.748 221.168 191.745L328.492 189.978C328.772 189.976 329.043 190.08 329.251 190.269L362.653 220.129C362.772 220.224 362.869 220.342 362.941 220.476C363.012 220.61 363.055 220.757 363.068 220.909C363.08 221.06 363.062 221.212 363.014 221.356C362.966 221.5 362.889 221.633 362.788 221.746C362.687 221.859 362.564 221.951 362.426 222.015C362.289 222.079 362.14 222.115 361.988 222.119C361.837 222.124 361.686 222.097 361.545 222.042C361.404 221.986 361.275 221.902 361.168 221.795L328.089 192.226L221.626 193.971L190.492 221.795C190.288 221.975 190.026 222.075 189.755 222.075Z" fill="#4F5A79"/>
<path d="M240.472 338.172V322.202H240.383V302.071C240.383 298.097 238.806 294.285 235.999 291.475C233.191 288.664 229.384 287.085 225.413 287.085V338.161L240.472 338.172Z" fill="white"/>
<path d="M240.283 339.29C239.986 339.29 239.702 339.172 239.493 338.963C239.283 338.753 239.165 338.468 239.165 338.172L239.076 302.082C239.059 298.586 237.729 295.225 235.351 292.664C232.974 290.104 229.722 288.532 226.24 288.26V338.172C226.24 338.468 226.122 338.753 225.913 338.963C225.703 339.172 225.419 339.29 225.123 339.29C224.827 339.29 224.543 339.172 224.333 338.963C224.124 338.753 224.006 338.468 224.006 338.172V287.096C224.006 286.8 224.124 286.515 224.333 286.306C224.543 286.096 224.827 285.978 225.123 285.978C229.404 285.966 233.516 287.655 236.555 290.674C239.594 293.694 241.312 297.796 241.333 302.082V321.799C241.398 321.923 241.433 322.061 241.433 322.202V338.172C241.433 338.322 241.403 338.47 241.345 338.608C241.287 338.746 241.201 338.87 241.094 338.975C240.987 339.079 240.86 339.161 240.72 339.215C240.581 339.269 240.432 339.295 240.283 339.29Z" fill="#4F5A79"/>
<path d="M275.941 265.825C275.771 265.826 275.603 265.788 275.45 265.713L189.9 223.361C189.764 223.299 189.642 223.209 189.541 223.099C189.44 222.988 189.362 222.858 189.313 222.717C189.263 222.576 189.242 222.426 189.251 222.277C189.26 222.127 189.299 221.981 189.366 221.847C189.432 221.713 189.525 221.594 189.639 221.496C189.752 221.399 189.884 221.325 190.027 221.279C190.169 221.234 190.32 221.218 190.468 221.231C190.617 221.245 190.762 221.289 190.894 221.359L275.941 263.466L360.989 221.359C361.254 221.227 361.561 221.206 361.841 221.301C362.122 221.395 362.354 221.597 362.486 221.863C362.551 221.995 362.589 222.138 362.598 222.285C362.607 222.432 362.588 222.579 362.54 222.719C362.492 222.858 362.417 222.986 362.32 223.097C362.222 223.207 362.104 223.297 361.972 223.361L276.433 265.713C276.28 265.788 276.112 265.826 275.941 265.825Z" fill="#4F5A79"/>
<path d="M231.826 138.534C229.263 138.534 226.805 139.553 224.993 141.367C223.181 143.181 222.163 145.642 222.163 148.208V155.868L221.559 237.866L276.511 266.15L328.257 238.795L328.681 166.269L336.669 138.534H231.826Z" fill="white"/>
<path d="M276.511 267.268C276.336 267.267 276.164 267.225 276.008 267.145L221.012 238.862C220.83 238.767 220.677 238.625 220.571 238.449C220.464 238.273 220.408 238.072 220.409 237.867L221.012 155.868V148.208C221.015 145.346 222.152 142.603 224.173 140.58C226.194 138.556 228.934 137.418 231.792 137.416H336.669C336.842 137.416 337.013 137.456 337.168 137.534C337.324 137.611 337.458 137.724 337.563 137.863C337.667 138.002 337.737 138.163 337.768 138.334C337.799 138.505 337.79 138.68 337.741 138.847L329.798 166.426L329.374 238.806C329.373 239.008 329.318 239.207 329.214 239.38C329.109 239.553 328.96 239.695 328.782 239.79L277.07 267.145C276.895 267.229 276.704 267.271 276.511 267.268ZM222.654 237.184L276.511 264.886L327.151 238.124L327.564 166.258C327.548 166.158 327.548 166.056 327.564 165.956L335.138 139.652H231.826C229.56 139.655 227.388 140.558 225.786 142.161C224.184 143.765 223.283 145.94 223.28 148.208V155.868L222.654 237.184Z" fill="#4F5A79"/>
<path d="M348.377 165.989V147.928C348.421 146.631 348.204 145.338 347.738 144.126C347.273 142.915 346.568 141.809 345.667 140.876C344.766 139.943 343.686 139.2 342.493 138.693C341.299 138.187 340.016 137.925 338.719 137.925C337.422 137.925 336.139 138.187 334.945 138.693C333.752 139.2 332.672 139.943 331.771 140.876C330.87 141.809 330.165 142.915 329.7 144.126C329.234 145.338 329.017 146.631 329.061 147.928V165.989H348.377Z" fill="white"/>
<path d="M348.377 167.108H329.017C328.72 167.108 328.436 166.99 328.227 166.78C328.017 166.571 327.9 166.286 327.9 165.99V147.928C327.853 146.482 328.097 145.042 328.618 143.693C329.138 142.343 329.925 141.112 330.93 140.073C331.935 139.034 333.138 138.208 334.469 137.644C335.799 137.079 337.229 136.789 338.674 136.789C340.119 136.789 341.549 137.079 342.88 137.644C344.21 138.208 345.414 139.034 346.419 140.073C347.424 141.112 348.21 142.343 348.731 143.693C349.251 145.042 349.496 146.482 349.449 147.928V165.99C349.449 166.279 349.338 166.557 349.138 166.765C348.938 166.973 348.665 167.096 348.377 167.108ZM330.178 164.871H347.259V147.928C347.301 146.779 347.111 145.634 346.7 144.56C346.29 143.487 345.667 142.507 344.87 141.68C344.073 140.852 343.118 140.194 342.061 139.745C341.004 139.295 339.867 139.063 338.719 139.063C337.571 139.063 336.434 139.295 335.377 139.745C334.32 140.194 333.365 140.852 332.568 141.68C331.771 142.507 331.148 143.487 330.738 144.56C330.327 145.634 330.137 146.779 330.178 147.928V164.871Z" fill="#4F5A79"/>
<path d="M267.574 350.507C267.278 350.507 266.994 350.389 266.784 350.18C266.575 349.97 266.457 349.686 266.457 349.389C266.463 342.813 263.861 336.504 259.224 331.846C254.586 327.189 248.292 324.565 241.723 324.55C241.427 324.55 241.143 324.432 240.934 324.223C240.724 324.013 240.606 323.728 240.606 323.432C240.606 323.135 240.724 322.851 240.934 322.641C241.143 322.431 241.427 322.313 241.723 322.313C248.885 322.328 255.747 325.188 260.804 330.265C265.86 335.341 268.697 342.22 268.691 349.389C268.691 349.686 268.573 349.97 268.364 350.18C268.154 350.389 267.87 350.507 267.574 350.507Z" fill="#4F5A79"/>
<path d="M294.352 376.431H230.642V400.353H294.352V376.431Z" fill="white"/>
<path d="M294.386 401.471H230.709C230.413 401.471 230.128 401.353 229.919 401.143C229.709 400.934 229.592 400.649 229.592 400.353V376.431C229.592 376.134 229.709 375.85 229.919 375.64C230.128 375.43 230.413 375.312 230.709 375.312H294.386C294.682 375.312 294.966 375.43 295.175 375.64C295.385 375.85 295.503 376.134 295.503 376.431V400.353C295.503 400.649 295.385 400.934 295.175 401.143C294.966 401.353 294.682 401.471 294.386 401.471ZM231.826 399.234H293.268V377.549H231.826V399.234Z" fill="#4F5A79"/>
<path d="M305.735 392.378H223.816V443.062H305.735V392.378Z" fill="#D2F0FF"/>
<path d="M305.724 444.215C305.428 444.215 305.144 444.097 304.934 443.887C304.725 443.677 304.607 443.393 304.607 443.096V393.497H224.922V443.096C224.922 443.393 224.804 443.677 224.595 443.887C224.385 444.097 224.101 444.215 223.805 444.215C223.508 444.215 223.224 444.097 223.015 443.887C222.805 443.677 222.688 443.393 222.688 443.096V392.379C222.688 392.082 222.805 391.797 223.015 391.588C223.224 391.378 223.508 391.26 223.805 391.26H305.724C306.021 391.26 306.305 391.378 306.514 391.588C306.724 391.797 306.841 392.082 306.841 392.379V443.096C306.841 443.393 306.724 443.677 306.514 443.887C306.305 444.097 306.021 444.215 305.724 444.215Z" fill="#4F5A79"/>
<path d="M298.329 406.325C298.331 407.17 298.082 407.997 297.615 408.701C297.147 409.405 296.482 409.955 295.702 410.28C294.922 410.605 294.064 410.691 293.235 410.527C292.407 410.364 291.646 409.958 291.048 409.361C290.45 408.764 290.042 408.003 289.877 407.174C289.711 406.345 289.795 405.485 290.117 404.704C290.44 403.923 290.987 403.255 291.689 402.785C292.391 402.315 293.217 402.064 294.061 402.064C295.191 402.064 296.275 402.513 297.075 403.311C297.875 404.11 298.326 405.194 298.329 406.325Z" fill="#505B7A"/>
<path d="M296.061 408.013H283.538C283.242 408.013 282.958 407.895 282.748 407.686C282.539 407.476 282.421 407.191 282.421 406.895C282.421 406.598 282.539 406.314 282.748 406.104C282.958 405.894 283.242 405.776 283.538 405.776H296.061C296.358 405.776 296.642 405.894 296.851 406.104C297.061 406.314 297.178 406.598 297.178 406.895C297.178 407.191 297.061 407.476 296.851 407.686C296.642 407.895 296.358 408.013 296.061 408.013Z" fill="#4F5A79"/>
<path d="M318.784 162.265H281.639C281.343 162.265 281.059 162.147 280.849 161.937C280.64 161.728 280.522 161.443 280.522 161.147C280.522 160.85 280.64 160.566 280.849 160.356C281.059 160.146 281.343 160.028 281.639 160.028H318.784C319.08 160.028 319.364 160.146 319.574 160.356C319.783 160.566 319.901 160.85 319.901 161.147C319.901 161.443 319.783 161.728 319.574 161.937C319.364 162.147 319.08 162.265 318.784 162.265Z" fill="#4F5A79"/>
<path d="M318.784 171.122H281.639C281.343 171.122 281.059 171.005 280.849 170.795C280.64 170.585 280.522 170.301 280.522 170.004C280.522 169.707 280.64 169.423 280.849 169.213C281.059 169.004 281.343 168.886 281.639 168.886H318.784C319.08 168.886 319.364 169.004 319.574 169.213C319.783 169.423 319.901 169.707 319.901 170.004C319.901 170.301 319.783 170.585 319.574 170.795C319.364 171.005 319.08 171.122 318.784 171.122Z" fill="#4F5A79"/>
<path d="M303.456 201.822H245.667C245.371 201.822 245.087 201.704 244.877 201.494C244.668 201.284 244.55 201 244.55 200.703C244.55 200.407 244.668 200.122 244.877 199.913C245.087 199.703 245.371 199.585 245.667 199.585H303.456C303.753 199.585 304.037 199.703 304.246 199.913C304.456 200.122 304.574 200.407 304.574 200.703C304.574 201 304.456 201.284 304.246 201.494C304.037 201.704 303.753 201.822 303.456 201.822Z" fill="#4F5A79"/>
<path d="M303.456 213.038H245.667C245.371 213.038 245.087 212.921 244.877 212.711C244.668 212.501 244.55 212.217 244.55 211.92C244.55 211.624 244.668 211.339 244.877 211.129C245.087 210.92 245.371 210.802 245.667 210.802H303.456C303.753 210.802 304.037 210.92 304.246 211.129C304.456 211.339 304.574 211.624 304.574 211.92C304.574 212.217 304.456 212.501 304.246 212.711C304.037 212.921 303.753 213.038 303.456 213.038Z" fill="#4F5A79"/>
<path d="M303.456 224.256H245.667C245.371 224.256 245.087 224.138 244.877 223.928C244.668 223.718 244.55 223.434 244.55 223.137C244.55 222.841 244.668 222.556 244.877 222.347C245.087 222.137 245.371 222.019 245.667 222.019H303.456C303.753 222.019 304.037 222.137 304.246 222.347C304.456 222.556 304.574 222.841 304.574 223.137C304.574 223.434 304.456 223.718 304.246 223.928C304.037 224.138 303.753 224.256 303.456 224.256Z" fill="#4F5A79"/>
<path d="M395.885 171.203L383.685 210.013L444.424 229.15L456.625 190.341L395.885 171.203Z" fill="white"/>
<path d="M416.254 213.833C416.142 213.85 416.029 213.85 415.918 213.833C415.778 213.79 415.647 213.719 415.534 213.625C415.421 213.531 415.328 213.415 415.259 213.285L394.782 173.952C394.645 173.691 394.617 173.385 394.704 173.102L395.184 171.559C395.228 171.418 395.298 171.286 395.393 171.172C395.487 171.058 395.603 170.964 395.734 170.896C395.865 170.827 396.008 170.785 396.156 170.772C396.303 170.759 396.451 170.776 396.592 170.821C396.732 170.865 396.862 170.937 396.975 171.032C397.087 171.127 397.18 171.243 397.248 171.374C397.315 171.505 397.356 171.648 397.368 171.795C397.38 171.942 397.363 172.09 397.318 172.23L396.983 173.348L416.723 211.272L454.616 191.466L454.951 190.347C454.996 190.207 455.067 190.077 455.162 189.964C455.257 189.851 455.373 189.759 455.504 189.691C455.635 189.624 455.778 189.583 455.924 189.57C456.071 189.558 456.219 189.575 456.359 189.62C456.639 189.71 456.873 189.908 457.009 190.17C457.145 190.432 457.173 190.737 457.085 191.018L456.604 192.562C456.514 192.842 456.318 193.075 456.057 193.21L416.767 213.71C416.608 213.792 416.432 213.834 416.254 213.833Z" fill="#4F5A79"/>
<path d="M444.428 230.329C444.317 230.345 444.204 230.345 444.093 230.329L383.365 211.193C383.224 211.15 383.092 211.079 382.979 210.985C382.865 210.89 382.771 210.774 382.703 210.643C382.634 210.512 382.592 210.369 382.579 210.221C382.566 210.074 382.583 209.925 382.628 209.784L394.838 170.977C394.881 170.837 394.952 170.706 395.046 170.593C395.14 170.48 395.255 170.386 395.385 170.317C395.649 170.184 395.954 170.16 396.234 170.25L456.973 189.385C457.254 189.475 457.488 189.673 457.624 189.935C457.76 190.197 457.787 190.502 457.699 190.783L445.5 229.602C445.454 229.741 445.381 229.87 445.285 229.982C445.189 230.093 445.073 230.184 444.942 230.25C444.78 230.32 444.603 230.346 444.428 230.329ZM385.097 209.359L443.702 227.823L455.253 191.13L396.648 172.655L385.097 209.359Z" fill="#4F5A79"/>
<path d="M86.8998 200.456L19.6749 233.908L41.0016 276.861L108.227 243.409L86.8998 200.456Z" fill="white"/>
<path d="M39.465 278.274C39.2568 278.275 39.0524 278.218 38.8747 278.11C38.6971 278.001 38.5533 277.845 38.4596 277.659L17.1335 234.703C17.0628 234.571 17.0193 234.426 17.0056 234.277C16.9918 234.128 17.0082 233.977 17.0536 233.834C17.099 233.692 17.1726 233.56 17.2701 233.446C17.3675 233.332 17.4867 233.239 17.6206 233.173C17.7546 233.106 17.9006 233.067 18.0499 233.058C18.1992 233.049 18.3488 233.07 18.4899 233.12C18.631 233.169 18.7606 233.247 18.8711 233.348C18.9816 233.449 19.0707 233.571 19.1331 233.707L39.9677 275.657L105.186 243.225L84.3515 201.264C84.2198 200.998 84.1988 200.691 84.293 200.41C84.3873 200.129 84.5891 199.897 84.8542 199.765C85.1194 199.633 85.426 199.612 85.7067 199.707C85.9874 199.801 86.2192 200.003 86.3512 200.268L107.688 243.225C107.745 243.361 107.775 243.507 107.775 243.655C107.775 243.803 107.745 243.949 107.688 244.086C107.593 244.363 107.392 244.592 107.13 244.723L39.9119 278.184C39.7706 278.245 39.6185 278.275 39.465 278.274Z" fill="#4F5A79"/>
<path d="M32.0988 241.715C31.8894 241.715 31.6841 241.657 31.5063 241.546C31.3286 241.435 31.1855 241.277 31.0933 241.089L14.0794 206.543C13.9737 206.265 13.9737 205.959 14.0794 205.681C14.1774 205.402 14.3823 205.173 14.6491 205.044L65.3671 180.015C65.6322 179.883 65.9389 179.862 66.2196 179.957C66.5003 180.051 66.7321 180.253 66.864 180.518L83.7774 214.863C83.9078 215.13 83.9269 215.438 83.8305 215.719C83.7341 216 83.5302 216.231 83.2635 216.362C82.9969 216.492 82.6894 216.511 82.4086 216.415C82.1279 216.318 81.8969 216.114 81.7666 215.847L65.3559 182.52L16.6265 206.554L33.1377 240.105C33.2694 240.37 33.2904 240.677 33.1962 240.958C33.1019 241.239 32.9001 241.471 32.635 241.603C32.4674 241.682 32.2838 241.72 32.0988 241.715Z" fill="#4F5A79"/>
<path d="M452.775 262.574L378.439 282.521L392.343 334.451L466.679 314.504L452.775 262.574Z" fill="white"/>
<path d="M388.671 333.386C388.419 333.394 388.171 333.317 387.969 333.167C387.766 333.017 387.62 332.802 387.554 332.558L373.78 280.834C373.742 280.692 373.732 280.544 373.751 280.398C373.77 280.252 373.818 280.111 373.892 279.984C374.037 279.727 374.278 279.538 374.562 279.458L448.662 259.686C448.945 259.612 449.246 259.652 449.499 259.798C449.754 259.951 449.941 260.195 450.024 260.48L463.799 312.249C463.874 312.535 463.832 312.839 463.684 313.095C463.535 313.351 463.291 313.537 463.006 313.613L388.962 333.374C388.866 333.389 388.768 333.393 388.671 333.386ZM376.271 281.337L389.465 330.903L461.352 311.723L448.159 262.146L376.271 281.337Z" fill="#4F5A79"/>
<path d="M455.86 264.898L435 270.496L437.579 280.129L458.439 274.531L455.86 264.898Z" fill="#62BEFB"/>
<path d="M430.598 302.541C430.342 302.548 430.092 302.468 429.889 302.313C429.686 302.159 429.542 301.939 429.481 301.691C429.409 301.405 429.454 301.102 429.605 300.848C429.755 300.595 430 300.411 430.285 300.338L450.181 295.249C450.324 295.212 450.473 295.204 450.619 295.225C450.765 295.247 450.906 295.297 451.033 295.373C451.159 295.448 451.27 295.549 451.358 295.668C451.445 295.787 451.509 295.922 451.544 296.065C451.615 296.353 451.569 296.657 451.416 296.911C451.263 297.165 451.016 297.347 450.728 297.419L430.832 302.496C430.757 302.523 430.678 302.539 430.598 302.541Z" fill="#4F5A79"/>
<path d="M432.91 308.893C432.614 308.93 432.315 308.848 432.079 308.664C431.844 308.481 431.69 308.211 431.653 307.915C431.616 307.618 431.698 307.319 431.882 307.083C432.065 306.847 432.335 306.693 432.631 306.656L452.527 301.568C452.67 301.531 452.819 301.523 452.965 301.544C453.111 301.565 453.252 301.615 453.379 301.691C453.505 301.767 453.616 301.868 453.704 301.987C453.791 302.106 453.855 302.241 453.89 302.384C453.961 302.67 453.917 302.973 453.766 303.227C453.615 303.48 453.371 303.664 453.086 303.737L433.189 308.826C433.099 308.859 433.006 308.882 432.91 308.893Z" fill="#4F5A79"/>
<path d="M387.387 294.354C387.09 294.388 386.793 294.303 386.559 294.118C386.326 293.932 386.175 293.661 386.141 293.365C386.107 293.068 386.192 292.77 386.378 292.536C386.563 292.302 386.834 292.152 387.13 292.118L406.59 287.398C406.733 287.363 406.882 287.357 407.027 287.38C407.173 287.402 407.312 287.454 407.438 287.53C407.564 287.607 407.673 287.708 407.759 287.828C407.846 287.947 407.908 288.082 407.942 288.226C408.009 288.513 407.96 288.816 407.805 289.067C407.65 289.319 407.402 289.499 407.115 289.568L387.655 294.354C387.566 294.365 387.476 294.365 387.387 294.354Z" fill="#4F5A79"/>
<path d="M157.972 311.344L106.386 324.671L114.883 357.634L166.469 344.307L157.972 311.344Z" fill="white"/>
<path d="M143.092 341.203C142.891 341.203 142.695 341.149 142.522 341.046L110.606 322.202C110.351 322.052 110.166 321.806 110.092 321.52L109.745 320.211C109.708 320.069 109.7 319.92 109.72 319.775C109.741 319.629 109.79 319.489 109.865 319.362C109.939 319.235 110.038 319.124 110.156 319.036C110.273 318.948 110.407 318.883 110.55 318.847C110.692 318.81 110.84 318.801 110.986 318.822C111.131 318.842 111.272 318.891 111.398 318.966C111.525 319.041 111.635 319.14 111.724 319.258C111.812 319.375 111.876 319.509 111.913 319.652L112.136 320.502L142.701 338.552L160.731 307.954L160.508 307.104C160.471 306.962 160.463 306.813 160.484 306.668C160.504 306.522 160.553 306.382 160.628 306.255C160.703 306.128 160.802 306.018 160.919 305.929C161.036 305.841 161.17 305.776 161.312 305.74C161.455 305.703 161.603 305.695 161.748 305.715C161.894 305.736 162.034 305.785 162.16 305.86C162.287 305.934 162.398 306.033 162.486 306.151C162.574 306.269 162.639 306.402 162.675 306.545L163.01 307.853C163.081 308.138 163.037 308.439 162.888 308.692L144.053 340.655C143.902 340.91 143.657 341.095 143.371 341.169C143.28 341.192 143.186 341.203 143.092 341.203Z" fill="#4F5A79"/>
<path d="M118.828 353.773C118.574 353.781 118.325 353.702 118.122 353.55C117.919 353.397 117.774 353.18 117.71 352.934L109.22 319.976C109.145 319.69 109.187 319.386 109.335 319.13C109.484 318.874 109.728 318.688 110.013 318.612L161.603 305.281C161.745 305.244 161.893 305.236 162.039 305.256C162.184 305.276 162.324 305.325 162.451 305.4C162.578 305.475 162.688 305.574 162.777 305.692C162.865 305.81 162.929 305.944 162.966 306.086L171.5 339.089C171.572 339.375 171.527 339.678 171.376 339.931C171.226 340.185 170.981 340.368 170.696 340.442L119.107 353.739L118.828 353.773ZM111.689 320.491L119.632 351.29L169.043 338.53L161.111 307.775L111.689 320.491Z" fill="#4F5A79"/>
<path d="M391.123 137.503C388.679 138.13 386.116 138.13 383.672 137.503C377.136 136.049 372.657 130.032 374.366 122.371C376.187 114.151 383.459 108.314 392.318 110.282C399.245 111.825 402.831 117.73 401.356 124.396C400.027 130.379 395.893 133.152 392.151 132.314C390.553 131.956 389.313 130.558 389.972 128.142H389.816C389.065 129.077 388.067 129.783 386.935 130.178C385.804 130.574 384.584 130.643 383.415 130.379C381.102 129.864 379.527 127.549 380.231 124.396C380.503 123.151 381.019 121.973 381.747 120.929C382.476 119.884 383.404 118.995 384.478 118.311C385.551 117.627 386.749 117.162 388.003 116.944C389.256 116.725 390.541 116.757 391.782 117.037C393.25 117.346 394.638 117.956 395.86 118.826L392.899 125.749C391.626 128.645 391.782 130.155 393.1 130.479C395.122 130.971 397.993 128.768 399.032 124.138C400.306 118.356 397.77 113.436 391.581 112.06C385.09 110.606 378.488 114.543 376.69 122.64C375.204 129.35 378.633 134.383 384.51 135.702C386.589 136.215 388.764 136.192 390.833 135.635L391.123 137.503ZM392.765 119.777C392.161 119.439 391.509 119.194 390.833 119.05C387.325 118.267 383.761 120.951 382.901 124.82C382.51 126.576 383.102 128.053 384.856 128.444C387.168 128.958 389.928 126.476 390.922 124.094L392.765 119.777Z" fill="#505B7A"/>
<path d="M153.19 274.893C151.797 276.634 149.982 277.99 147.917 278.829C142.51 281.245 136.165 279.333 133.338 273.003C130.311 266.203 132.411 258.229 139.728 254.964C140.971 254.341 142.329 253.983 143.717 253.912C145.105 253.841 146.492 254.058 147.792 254.551C149.092 255.044 150.275 255.801 151.268 256.775C152.26 257.749 153.04 258.918 153.559 260.209C155.793 265.163 154.296 269.301 151.201 270.688C149.883 271.269 148.263 270.923 147.459 268.876L147.336 268.932C147.296 269.992 146.961 271.019 146.369 271.898C145.777 272.778 144.951 273.474 143.985 273.909C142.074 274.759 139.74 273.909 138.578 271.336C138.115 270.31 137.86 269.202 137.828 268.076C137.796 266.951 137.987 265.83 138.39 264.778C138.793 263.727 139.4 262.766 140.176 261.951C140.952 261.136 141.882 260.483 142.912 260.03C144.115 259.474 145.42 259.173 146.744 259.146L148.275 265.622C148.9 268.35 149.816 269.335 150.911 268.876C152.609 268.16 153.492 265.074 151.782 261.249C149.649 256.462 145.258 254.315 140.153 256.597C134.78 258.99 132.154 265.264 135.148 271.963C137.595 277.476 142.7 279.266 147.582 277.085C149.328 276.357 150.864 275.204 152.05 273.73L153.19 274.893ZM145.024 261.473C144.423 261.56 143.836 261.73 143.281 261.976C140.376 263.273 139.259 267.053 140.678 270.252C141.337 271.706 142.521 272.488 144.029 271.795C145.94 270.945 146.599 267.724 146.051 265.51L145.024 261.473Z" fill="#505B7A"/>
<path d="M347.494 378.612C345.37 378.607 343.27 378.154 341.333 377.283C339.395 376.411 337.663 375.14 336.248 373.553C334.834 371.966 333.77 370.099 333.126 368.072C332.481 366.046 332.27 363.906 332.507 361.793C332.744 359.679 333.423 357.64 334.501 355.807C335.578 353.974 337.029 352.389 338.759 351.155C340.49 349.922 342.46 349.067 344.543 348.647C346.625 348.227 348.773 348.251 350.845 348.718C350.989 348.75 351.126 348.81 351.247 348.895C351.367 348.979 351.47 349.087 351.549 349.212C351.628 349.337 351.682 349.476 351.707 349.622C351.731 349.767 351.727 349.916 351.694 350.06C351.661 350.203 351.601 350.339 351.515 350.458C351.43 350.578 351.322 350.68 351.198 350.758C351.073 350.836 350.935 350.888 350.79 350.912C350.645 350.937 350.497 350.932 350.354 350.899C347.606 350.27 344.728 350.561 342.161 351.725C339.594 352.89 337.479 354.865 336.139 357.348C334.8 359.83 334.31 362.684 334.745 365.472C335.18 368.26 336.515 370.828 338.547 372.784C340.579 374.739 343.195 375.975 345.995 376.3C348.794 376.626 351.623 376.024 354.049 374.587C356.474 373.149 358.363 370.956 359.424 368.342C360.486 365.728 360.663 362.838 359.928 360.114C359.862 359.832 359.908 359.535 360.057 359.286C360.206 359.037 360.445 358.856 360.725 358.781C361.005 358.705 361.303 358.741 361.556 358.882C361.81 359.022 361.999 359.255 362.084 359.533C362.686 361.77 362.766 364.116 362.32 366.39C361.874 368.664 360.912 370.804 359.509 372.647C358.106 374.49 356.299 375.987 354.228 377.021C352.156 378.055 349.876 378.599 347.561 378.612H347.494Z" fill="#4F5A79"/>
<path d="M347.293 366.724C347.016 366.723 346.749 366.619 346.544 366.433L338.288 358.951C338.17 358.855 338.072 358.737 338.001 358.602C337.929 358.467 337.886 358.319 337.874 358.167C337.862 358.015 337.881 357.863 337.931 357.718C337.98 357.574 338.058 357.441 338.16 357.328C338.262 357.215 338.386 357.124 338.525 357.061C338.663 356.998 338.813 356.964 338.966 356.961C339.118 356.958 339.269 356.986 339.41 357.043C339.551 357.101 339.679 357.187 339.785 357.296L347.214 364.006L365.96 343.059C366.055 342.941 366.173 342.843 366.307 342.772C366.441 342.7 366.588 342.657 366.739 342.644C366.89 342.632 367.042 342.65 367.186 342.698C367.33 342.747 367.462 342.824 367.575 342.925C367.688 343.026 367.78 343.149 367.844 343.286C367.908 343.424 367.943 343.573 367.948 343.725C367.952 343.877 367.926 344.028 367.871 344.169C367.815 344.31 367.731 344.439 367.624 344.546L348.119 366.354C347.921 366.575 347.644 366.708 347.348 366.724H347.293Z" fill="#4F5A79"/>
<path d="M73.9801 251.997L35.9975 239.416L20.0001 206.927L70.7292 181.898L86.9165 214.789L73.9801 251.997Z" fill="#EF6FFF"/>
<path d="M189.252 372.64C188.33 372.64 187.43 372.366 186.664 371.854C185.898 371.341 185.3 370.613 184.948 369.761C184.595 368.909 184.503 367.971 184.683 367.066C184.863 366.162 185.306 365.331 185.958 364.678C186.609 364.026 187.439 363.582 188.343 363.402C189.247 363.222 190.183 363.315 191.034 363.668C191.886 364.02 192.613 364.618 193.125 365.385C193.637 366.152 193.91 367.054 193.91 367.976C193.91 369.213 193.419 370.399 192.546 371.274C191.672 372.148 190.487 372.64 189.252 372.64ZM189.252 365.549C188.772 365.549 188.304 365.692 187.905 365.958C187.506 366.225 187.196 366.604 187.012 367.047C186.829 367.491 186.781 367.979 186.874 368.45C186.968 368.92 187.199 369.353 187.538 369.692C187.877 370.032 188.309 370.263 188.779 370.356C189.249 370.45 189.736 370.402 190.179 370.218C190.622 370.035 191.001 369.723 191.267 369.324C191.534 368.925 191.676 368.456 191.676 367.976C191.676 367.331 191.421 366.713 190.967 366.256C190.512 365.799 189.896 365.541 189.252 365.538V365.549Z" fill="#4F5A79"/>
<path d="M292.643 121.132C290.712 121.13 288.825 120.555 287.221 119.479C285.617 118.404 284.367 116.876 283.63 115.09C282.893 113.304 282.701 111.339 283.079 109.444C283.457 107.548 284.388 105.808 285.754 104.442C287.12 103.076 288.86 102.146 290.753 101.77C292.647 101.394 294.609 101.588 296.393 102.328C298.176 103.068 299.701 104.321 300.773 105.928C301.845 107.535 302.418 109.425 302.418 111.357C302.415 113.951 301.384 116.437 299.551 118.27C297.718 120.102 295.233 121.132 292.643 121.132ZM292.643 103.82C291.154 103.822 289.699 104.266 288.463 105.095C287.226 105.925 286.263 107.103 285.694 108.481C285.126 109.858 284.979 111.373 285.27 112.835C285.562 114.296 286.28 115.638 287.334 116.691C288.387 117.744 289.729 118.461 291.189 118.751C292.649 119.041 294.163 118.891 295.538 118.32C296.913 117.75 298.088 116.783 298.915 115.544C299.742 114.305 300.183 112.848 300.183 111.357C300.177 109.358 299.381 107.443 297.968 106.03C296.554 104.617 294.64 103.823 292.643 103.82Z" fill="#4F5A79"/>
<path d="M69.8803 253.938C69.7624 253.941 69.6449 253.922 69.534 253.882L19.5646 237.453C19.4231 237.409 19.292 237.336 19.1788 237.24C19.0657 237.144 18.9727 237.027 18.9054 236.894L17.1292 233.293C17.0724 233.157 17.0431 233.01 17.0431 232.863C17.0431 232.715 17.0724 232.568 17.1292 232.432L34.2102 182.631C34.3067 182.354 34.5086 182.126 34.772 181.996C35.0354 181.866 35.3392 181.845 35.6178 181.938L85.5872 198.356C85.7276 198.403 85.8572 198.478 85.9684 198.576C86.0797 198.674 86.1703 198.793 86.2352 198.926L88.0226 202.527C88.0794 202.663 88.1087 202.81 88.1087 202.958C88.1087 203.105 88.0794 203.252 88.0226 203.388L70.9304 253.189C70.8542 253.407 70.7123 253.596 70.5243 253.73C70.3362 253.865 70.1112 253.937 69.8803 253.938ZM20.7264 235.474L69.1318 251.366L85.7101 203.053L84.3919 200.257L35.9082 184.32L19.33 232.689L20.7264 235.474Z" fill="#4F5A79"/>
<path d="M153.333 199.163C153.333 200.579 152.913 201.964 152.125 203.142C151.338 204.32 150.218 205.238 148.909 205.78C147.599 206.322 146.158 206.464 144.768 206.188C143.378 205.911 142.101 205.229 141.099 204.227C140.097 203.226 139.414 201.949 139.138 200.56C138.861 199.171 139.003 197.73 139.546 196.422C140.088 195.113 141.006 193.994 142.185 193.207C143.363 192.42 144.749 192 146.166 192C147.108 192 148.039 192.185 148.909 192.545C149.778 192.905 150.568 193.433 151.234 194.098C151.899 194.763 152.427 195.553 152.787 196.422C153.148 197.291 153.333 198.222 153.333 199.163Z" fill="#FFEA80"/>
<path d="M224.641 50.807C224.643 51.7604 224.362 52.6929 223.833 53.4865C223.305 54.2802 222.553 54.8993 221.672 55.2656C220.792 55.6319 219.822 55.7289 218.886 55.5442C217.951 55.3595 217.091 54.9014 216.416 54.2281C215.74 53.5548 215.28 52.6964 215.093 51.7615C214.907 50.8267 215.001 49.8575 215.366 48.9765C215.73 48.0956 216.348 47.3425 217.141 46.8127C217.934 46.2828 218.866 46 219.82 46C221.097 46 222.321 46.5061 223.225 47.4073C224.129 48.3085 224.638 49.5312 224.641 50.807Z" fill="#F36FFF"/>
<path d="M397.641 246.807C397.643 247.76 397.362 248.693 396.833 249.487C396.305 250.28 395.553 250.899 394.672 251.266C393.792 251.632 392.822 251.729 391.886 251.544C390.951 251.359 390.091 250.901 389.416 250.228C388.74 249.555 388.28 248.696 388.093 247.762C387.907 246.827 388.001 245.857 388.366 244.977C388.73 244.096 389.348 243.343 390.141 242.813C390.934 242.283 391.866 242 392.82 242C394.097 242 395.321 242.506 396.225 243.407C397.129 244.309 397.638 245.531 397.641 246.807Z" fill="#F36FFF"/>
<path d="M482 145.483C482.003 146.967 481.566 148.419 480.744 149.655C479.922 150.89 478.752 151.854 477.382 152.424C476.012 152.994 474.503 153.145 473.047 152.858C471.591 152.57 470.253 151.857 469.203 150.809C468.152 149.761 467.436 148.425 467.145 146.969C466.855 145.514 467.002 144.005 467.569 142.634C468.137 141.262 469.098 140.09 470.332 139.265C471.565 138.44 473.016 138 474.5 138C476.486 138 478.391 138.788 479.797 140.191C481.203 141.594 481.996 143.497 482 145.483Z" fill="#FBB85E"/>
</svg>
