<svg id="fa0c8737-cb1c-42ab-83b6-fead54f8488e" data-name="Layer 1" xmlns="http://www.w3.org/2000/svg" viewBox="0 0 160 95"><title>high-five</title><path d="M120.25,25,114,30.8l-6-5.49-.71.7L91,42a3.51,3.51,0,0,0,2.42,1h41.16A3.51,3.51,0,0,0,137,42L121,25.79Z" transform="translate(-6 -10)" fill="#ff651d"/><path d="M108,26,91,11l0,0h0a3.22,3.22,0,0,0-1,2.22V39.75A3.09,3.09,0,0,0,91,42L107.3,26.65ZM136.88,11h0l0,0L120,26.23l.76.75L137,43a3.19,3.19,0,0,0,1-2.32V13.4a3.09,3.09,0,0,0-.17-1,3.49,3.49,0,0,0-1-1.4Z" transform="translate(-6 -10)" fill="#ff9200"/><path d="M108,26.54l6,5.46,6.26-5.76L137,10.93l0,0a3.4,3.4,0,0,0-2.28-.9H93.45A3.45,3.45,0,0,0,91,11l0,0Z" transform="translate(-6 -10)" fill="#fbb85e"/><path d="M62.16,36,57,41.14l-4.94-4.9-.6.63L38,51.13A2.75,2.75,0,0,0,40,52H74a2.89,2.89,0,0,0,2-1L62.78,36.68Z" transform="translate(-6 -10)" fill="#ffbd4f"/><path d="M52,37.49,38.22,23.78a4.65,4.65,0,0,0-1.1,1.45A2.54,2.54,0,0,0,37,26V50a2.88,2.88,0,0,0,.85,2L51.37,38.13ZM76,23.78l-14,13,.63.63L76,51a2.93,2.93,0,0,0,1-2v-23a2.51,2.51,0,0,0-.16-.85A3.76,3.76,0,0,0,76,23.78Z" transform="translate(-6 -10)" fill="#ffd567"/><path d="M52.07,38l5,5,5.19-5.24L76,23.82A2.69,2.69,0,0,0,74.11,23H40a2.66,2.66,0,0,0-2,.91Z" transform="translate(-6 -10)" fill="#ffea80"/><path d="M39.79,64,33,70.44l-6.54-6.1-.78.78L8,82.89A3.75,3.75,0,0,0,10.63,84H55.37A3.75,3.75,0,0,0,58,82.89l-17.38-18Z" transform="translate(-6 -10)" fill="#0266a8"/><path d="M27,64.88,8.09,48l0,0h0A3.65,3.65,0,0,0,7,50.51V80.46A3.49,3.49,0,0,0,8.15,83L26.22,65.67ZM58.81,49.53A3.72,3.72,0,0,0,57.76,48h0l0,0L39,64.66l.84.82L57.87,83A3.46,3.46,0,0,0,59,80.47V50.63A3.49,3.49,0,0,0,58.81,49.53Z" transform="translate(-6 -10)" fill="#0390ed"/><path d="M26.52,65.05l6.56,6,6.8-6.28L58,48l0,0a3.67,3.67,0,0,0-2.49-1H10.67A3.72,3.72,0,0,0,8,48.12l0,0Z" transform="translate(-6 -10)" fill="#62befb"/><path d="M132.34,50l-5.84,5.8-5.21-5.14-.42-.41-.67.73L105,67a3.12,3.12,0,0,0,2.27,1h38.46A3.13,3.13,0,0,0,148,67L133,50.79Z" transform="translate(-6 -10)" fill="#7542e5"/><path d="M121,50.92,104.93,36a3.3,3.3,0,0,0-.93,2.22V64.75A3.16,3.16,0,0,0,105,67l15.38-15.35Zm27-15-16,14.8.72.7L148,67a3.17,3.17,0,0,0,1-2.24V38.33a2.77,2.77,0,0,0-.24-1A3.24,3.24,0,0,0,148,35.91Z" transform="translate(-6 -10)" fill="#9059ff"/><path d="M120.9,51.48l.41.41L126.54,57l5.85-5.77L148,35.91a3,3,0,0,0-2.13-.91H107.26A3,3,0,0,0,105,36Z" transform="translate(-6 -10)" fill="#c689ff"/><path d="M94.7,79,86,87.37l-8.37-7.92-1,1L54,103.56A4.77,4.77,0,0,0,57.37,105h57.26a4.77,4.77,0,0,0,3.37-1.44L95.76,80.14Z" transform="translate(-6 -10)" fill="#e31587"/><path d="M78,80.19,54.36,58l0,0h0A4.9,4.9,0,0,0,53,61.3v39.36A4.69,4.69,0,0,0,54.43,104L77,81.22ZM118.76,60a4.74,4.74,0,0,0-1.32-2h0l0,0L94,79.9l1,1.08,22.53,23a4.63,4.63,0,0,0,1.42-3.33V61.46A4.5,4.5,0,0,0,118.76,60Z" transform="translate(-6 -10)" fill="#ff298a"/><path d="M77.71,80.31,86.1,88l8.71-8.11L118,58.31l0,0A4.66,4.66,0,0,0,114.78,57H57.41A4.75,4.75,0,0,0,54,58.44l0,0Z" transform="translate(-6 -10)" fill="#ff9aa2"/><path d="M166,87a1,1,0,0,0-.86-1c-2-.36-7.66-1.69-9.56-3.59s-3.25-7.53-3.6-9.53a1,1,0,0,0-1-.85V87Z" transform="translate(-6 -10)" fill="#ffea80"/><path d="M151,72a1,1,0,0,0-1,.87c-.33,2-1.59,7.64-3.47,9.54s-7.59,3.22-9.67,3.57a1,1,0,0,0-.85,1h15V72Z" transform="translate(-6 -10)" fill="#ffd567"/><path d="M151,87v15a1,1,0,0,0,1-.86c.36-2,1.7-7.74,3.6-9.64s7.51-3.16,9.52-3.49a1,1,0,0,0,.87-1Z" transform="translate(-6 -10)" fill="#ffd567"/><path d="M136,87a1,1,0,0,0,.87,1c2,.33,7.73,1.6,9.63,3.49s3.16,7.59,3.49,9.63a1,1,0,0,0,1,.87V87Z" transform="translate(-6 -10)" fill="#ffa266"/><path d="M27.14,21.63a.74.74,0,0,0-.54-.77c-1.43-.26-5.39-1.19-6.72-2.54S17.6,13,17.34,11.6a.73.73,0,0,0-.71-.6V21.57Z" transform="translate(-6 -10)" fill="#ffea80"/><path d="M16.57,11.06a.74.74,0,0,0-.71.62c-.23,1.41-1.11,5.37-2.44,6.7S8,20.66,6.62,20.92a.72.72,0,0,0-.6.71H16.58Z" transform="translate(-6 -10)" fill="#ffd567"/><path d="M16.57,21.63V32.2a.73.73,0,0,0,.71-.6c.25-1.44,1.19-5.45,2.54-6.8s5.29-2.22,6.7-2.44a.76.76,0,0,0,.62-.73Z" transform="translate(-6 -10)" fill="#ffd567"/><path d="M6,21.63a.72.72,0,0,0,.6.73c1.44.22,5.45,1.11,6.8,2.44s2.22,5.36,2.44,6.78a.73.73,0,0,0,.71.62V21.63Z" transform="translate(-6 -10)" fill="#ffa266"/></svg>
