<svg data-name="Layer 1" xmlns="http://www.w3.org/2000/svg" viewBox="0 0 160 95"><path d="M114.25 15L108 20.8l-6-5.49-.71.7L85 32a3.51 3.51 0 002.42 1h41.16a3.51 3.51 0 002.42-1l-16-16.21z" fill="#ff651d"/><path d="M102 16L85 1a3.22 3.22 0 00-1 2.22v26.53A3.09 3.09 0 0085 32l16.3-15.35zm28.88-15L114 16.23l.76.75L131 33a3.19 3.19 0 001-2.32V3.4a3.09 3.09 0 00-.17-1 3.49 3.49 0 00-1-1.4z" fill="#ff9200"/><path d="M102 16.54l6 5.46 6.26-5.76L131 .93a3.4 3.4 0 00-2.28-.9H87.45A3.45 3.45 0 0085 1z" fill="#fbb85e"/><path d="M56.16 26L51 31.14l-4.94-4.9-.6.63L32 41.13a2.75 2.75 0 002 .87h34a2.89 2.89 0 002-1L56.78 26.68z" fill="#ffbd4f"/><path d="M46 27.49L32.22 13.78a4.65 4.65 0 00-1.1 1.45A2.54 2.54 0 0031 16v24a2.88 2.88 0 00.85 2l13.52-13.87zm24-13.71l-14 13 .63.63L70 41a2.93 2.93 0 001-2V16a2.51 2.51 0 00-.16-.85 3.76 3.76 0 00-.84-1.37z" fill="#ffd567"/><path d="M46.07 28l5 5 5.19-5.24L70 13.82a2.69 2.69 0 00-1.89-.82H34a2.66 2.66 0 00-2 .91z" fill="#ffea80"/><path d="M33.79 54L27 60.44l-6.54-6.1-.78.78L2 72.89A3.75 3.75 0 004.63 74h44.74A3.75 3.75 0 0052 72.89l-17.38-18z" fill="#0266a8"/><path d="M21 54.88L2.09 38A3.65 3.65 0 001 40.51v29.95A3.49 3.49 0 002.15 73l18.07-17.33zm31.81-15.35A3.72 3.72 0 0051.76 38L33 54.66l.84.82L51.87 73A3.46 3.46 0 0053 70.47V40.63a3.49 3.49 0 00-.19-1.1z" fill="#0390ed"/><path d="M20.52 55.05l6.56 6 6.8-6.28L52 38a3.67 3.67 0 00-2.49-1H4.67A3.72 3.72 0 002 38.12z" fill="#62befb"/><path d="M126.34 40l-5.84 5.8-5.21-5.14-.42-.41-.67.73L99 57a3.12 3.12 0 002.27 1h38.46a3.13 3.13 0 002.27-1l-15-16.21z" fill="#7542e5"/><path d="M115 40.92L98.93 26a3.3 3.3 0 00-.93 2.22v26.53A3.16 3.16 0 0099 57l15.38-15.35zm27-15l-16 14.8.72.7L142 57a3.17 3.17 0 001-2.24V28.33a2.77 2.77 0 00-.24-1 3.24 3.24 0 00-.76-1.42z" fill="#9059ff"/><path d="M114.9 41.48l.41.41 5.23 5.11 5.85-5.77L142 25.91a3 3 0 00-2.13-.91h-38.61A3 3 0 0099 26z" fill="#c689ff"/><path d="M88.7 69L80 77.37l-8.37-7.92-1 1L48 93.56A4.77 4.77 0 0051.37 95h57.26a4.77 4.77 0 003.37-1.44L89.76 70.14z" fill="#e31587"/><path d="M72 70.19L48.36 48A4.9 4.9 0 0047 51.3v39.36A4.69 4.69 0 0048.43 94L71 71.22zM112.76 50a4.74 4.74 0 00-1.32-2L88 69.9l1 1.08 22.53 23a4.63 4.63 0 001.42-3.33V51.46a4.5 4.5 0 00-.19-1.46z" fill="#ff298a"/><path d="M71.71 70.31L80.1 78l8.71-8.11L112 48.31a4.66 4.66 0 00-3.22-1.31H51.41A4.75 4.75 0 0048 48.44z" fill="#ff9aa2"/><path d="M160 77a1 1 0 00-.86-1c-2-.36-7.66-1.69-9.56-3.59s-3.25-7.53-3.6-9.53a1 1 0 00-1-.85V77z" fill="#ffea80"/><path d="M145 62a1 1 0 00-1 .87c-.33 2-1.59 7.64-3.47 9.54s-7.59 3.22-9.67 3.57a1 1 0 00-.85 1h15V62zM145 77v15a1 1 0 001-.86c.36-2 1.7-7.74 3.6-9.64s7.51-3.16 9.52-3.49a1 1 0 00.87-1z" fill="#ffd567"/><path d="M130 77a1 1 0 00.87 1c2 .33 7.73 1.6 9.63 3.49s3.16 7.59 3.49 9.63a1 1 0 001 .87V77z" fill="#ffa266"/><path d="M21.14 11.63a.74.74 0 00-.54-.77c-1.43-.26-5.39-1.19-6.72-2.54S11.6 3 11.34 1.6a.73.73 0 00-.71-.6v10.57z" fill="#ffea80"/><path d="M10.57 1.06a.74.74 0 00-.71.62c-.23 1.41-1.11 5.37-2.44 6.7S2 10.66.62 10.92a.72.72 0 00-.6.71h10.56zM10.57 11.63V22.2a.73.73 0 00.71-.6c.25-1.44 1.19-5.45 2.54-6.8s5.29-2.22 6.7-2.44a.76.76 0 00.62-.73z" fill="#ffd567"/><path d="M0 11.63a.72.72 0 00.6.73c1.44.22 5.45 1.11 6.8 2.44s2.22 5.36 2.44 6.78a.73.73 0 00.71.62V11.63z" fill="#ffa266"/></svg>