<svg id="e963aa4c-33a7-4eaa-b5db-bd5a9f9525df" data-name="Layer 1" xmlns="http://www.w3.org/2000/svg" xmlns:xlink="http://www.w3.org/1999/xlink" viewBox="0 0 165.24 103.03"><defs><linearGradient id="b9578cf4-94aa-4cbc-ab09-abb1ebdf62f9" x1="-57.23" y1="195.05" x2="-58.23" y2="194.67" gradientTransform="translate(-6382.45 -14899.63) rotate(-48) scale(117.99 76.01)" gradientUnits="userSpaceOnUse"><stop offset="0" stop-color="#ff9100"/><stop offset="0.52" stop-color="#f10366"/><stop offset="1" stop-color="#6173ff"/></linearGradient><linearGradient id="fa579468-3b57-4892-aa4e-f3fd0b8d412a" x1="176.92" y1="-32.09" x2="174.91" y2="-30.2" gradientTransform="matrix(1, 0, 0, -1, -38, 16)" gradientUnits="userSpaceOnUse"><stop offset="0" stop-color="#054096" stop-opacity="0.5"/><stop offset="0.1" stop-color="#173ba1" stop-opacity="0.44"/><stop offset="0.29" stop-color="#3434b3" stop-opacity="0.33"/><stop offset="0.49" stop-color="#482ec1" stop-opacity="0.22"/><stop offset="0.68" stop-color="#552bc8" stop-opacity="0.11"/><stop offset="0.86" stop-color="#592acb" stop-opacity="0"/></linearGradient><linearGradient id="bcb985d8-805a-43a6-ba89-233ef4c713ec" x1="128.77" y1="60.72" x2="137.59" y2="60.72" gradientTransform="matrix(1, 0, 0, -1, 0, 105)" gradientUnits="userSpaceOnUse"><stop offset="0" stop-color="#9059ff"/><stop offset="1" stop-color="#f770ff"/></linearGradient><linearGradient id="bcab1cc1-e8d9-4e98-a612-df34c267d1e8" x1="128.77" y1="61.69" x2="137.59" y2="61.69" xlink:href="#bcb985d8-805a-43a6-ba89-233ef4c713ec"/><linearGradient id="e1684750-0303-4045-aec3-21b53b623368" x1="128.77" y1="62.73" x2="137.59" y2="62.73" xlink:href="#bcb985d8-805a-43a6-ba89-233ef4c713ec"/><linearGradient id="bc90fef5-11ea-4c1a-9949-f7bbea43b9d0" x1="128.77" y1="63.79" x2="137.59" y2="63.79" xlink:href="#bcb985d8-805a-43a6-ba89-233ef4c713ec"/><linearGradient id="bfd6a8a2-672a-40ca-9fcf-ce27ed4c1613" x1="128.77" y1="64.74" x2="137.59" y2="64.74" xlink:href="#bcb985d8-805a-43a6-ba89-233ef4c713ec"/><linearGradient id="e114654f-5ec7-4afb-a681-7c728d7449a3" x1="128.77" y1="60.74" x2="137.59" y2="60.74" xlink:href="#bcb985d8-805a-43a6-ba89-233ef4c713ec"/><linearGradient id="bb940b66-3ecc-4d69-aea8-dd7eac27b58f" x1="128.77" y1="61.7" x2="137.59" y2="61.7" xlink:href="#bcb985d8-805a-43a6-ba89-233ef4c713ec"/><linearGradient id="f170d4ff-5160-4482-8399-76c2e90174a6" x1="128.77" y1="63.79" x2="137.59" y2="63.79" xlink:href="#bcb985d8-805a-43a6-ba89-233ef4c713ec"/><linearGradient id="aba1bb25-5659-4736-86eb-3f8c9d4910c4" x1="128.77" y1="64.76" x2="137.59" y2="64.76" xlink:href="#bcb985d8-805a-43a6-ba89-233ef4c713ec"/><linearGradient id="b723592b-175a-424b-9c37-e97164b4d78b" x1="133.46" y1="58.76" x2="140.68" y2="55.7" gradientTransform="matrix(1, 0, 0, -1, 0, 105)" gradientUnits="userSpaceOnUse"><stop offset="0" stop-color="#54ffbd"/><stop offset="1" stop-color="#0df"/></linearGradient></defs><title>tip1-icon</title><circle cx="113.74" cy="51.5" r="51.5" fill="#eee6f4"/><rect x="21.74" y="31.5" width="124.18" height="22.15" rx="4" fill="#fff" stroke="#0a84ff"/><g opacity="0.29"><path d="M142.68,32.5a3,3,0,0,1,3,3V49.65a3,3,0,0,1-3,3H26.5a3,3,0,0,1-3-3V35.5a3,3,0,0,1,3-3H142.68m0-3H26.5a6,6,0,0,0-6,6V49.65a6,6,0,0,0,6,6H142.68a6,6,0,0,0,6-6V35.5a6,6,0,0,0-6-6Z" transform="translate(-0.76)" fill="#0a84ff"/></g><rect x="21.74" y="31.5" width="124.18" height="22.15" rx="4" fill="#fff" stroke="#0a84ff"/><path d="M36.16,44.89l.08-.4h-2l.23-1.27h2l.08-.4h-2l.21-1.25h2l.07-.4H34.39l-.65,3.72Zm1.13,0,.26-1.45c.1-.6.41-1,1-1s.78.37.68.93l-.26,1.51h.43l.26-1.51c.14-.79-.25-1.3-1-1.3a1.12,1.12,0,0,0-.94.47l.07-.41h-.41l-.48,2.75Zm4.06,0,.06-.38h0c-.57,0-.67-.12-.57-.68l.24-1.32h.69l.07-.37h-.7l.16-.89-.46.23-.11.66h-.51l-.06.37h.5l-.23,1.32c-.14.81.08,1.06.87,1.06Zm2,0a1.51,1.51,0,0,0,1.21-.53l-.33-.25a1.08,1.08,0,0,1-.86.41.89.89,0,0,1-1-.91h2.38l0-.11a1.2,1.2,0,0,0-1.23-1.47A1.52,1.52,0,0,0,42,43.35,1.26,1.26,0,0,0,43.33,44.94Zm1.05-1.65h-2a1.09,1.09,0,0,1,1.09-.85A.81.81,0,0,1,44.38,43.29Zm1.17,1.6.24-1.4a1,1,0,0,1,1-.92H47l.08-.43h-.3a1,1,0,0,0-.9.54l.1-.54h-.41l-.48,2.75Zm4.46,0,.26-1.49,1.8-2.23h-.5L50.13,43l-.81-1.81h-.44l1,2.18-.27,1.54Zm2.83,0a1.48,1.48,0,0,0,1.51-1.23,1.31,1.31,0,0,0-1.3-1.63,1.52,1.52,0,0,0-1.52,1.25A1.29,1.29,0,0,0,52.84,44.94Zm0-.38a.93.93,0,0,1-.91-1.18A1.06,1.06,0,0,1,53,42.46a.94.94,0,0,1,.92,1.2A1.06,1.06,0,0,1,52.85,44.56Zm3,.38a1,1,0,0,0,.9-.47l-.07.42h.42l.48-2.75h-.42l-.27,1.51c-.1.58-.45.92-.91.92s-.73-.38-.63-.93l.26-1.5H55.2l-.27,1.51C54.79,44.44,55.15,44.94,55.86,44.94Zm2.42,0,.25-1.4c.1-.55.38-.92,1-.92h.26l.08-.43h-.3a.94.94,0,0,0-.89.54l.09-.54h-.4l-.48,2.75Zm5.42,0,.07-.4h-2L62,43.22h2l.07-.4h-2l.22-1.25h2l.07-.4H61.92l-.65,3.72Zm1.12,0,.26-1.48c.1-.56.41-1,.92-1s.71.35.61.91l-.27,1.53h.42L67,43.38c.1-.55.36-.92.87-.93s.73.41.64,1l-.26,1.48h.42L69,43.38c.13-.75-.25-1.3-1-1.3a1.15,1.15,0,0,0-1,.56.87.87,0,0,0-.86-.56,1,1,0,0,0-.9.49l.07-.43h-.41l-.48,2.75ZM71,42.08a1.52,1.52,0,0,0-1.47,1.27,1.28,1.28,0,0,0,1.25,1.59,1.17,1.17,0,0,0,1-.49l-.07.44h.41l.48-2.75h-.42l-.1.58,0-.07A1.07,1.07,0,0,0,71,42.08Zm-.14,2.47A.94.94,0,0,1,70,43.4a1.12,1.12,0,0,1,1.08-.94.91.91,0,0,1,.9,1.13A1.1,1.1,0,0,1,70.89,44.55Zm2.79-2.93a.35.35,0,0,0,.35-.28.31.31,0,0,0-.31-.37.33.33,0,0,0-.33.28A.29.29,0,0,0,73.68,41.62Zm-.39,3.27.48-2.75h-.42l-.49,2.75Zm1.16,0,.71-4h-.43l-.7,4Zm2.25,0,.53-.93H79l.19.93h.43l-.81-3.72h-.43l-2.14,3.72Zm2.21-1.34H77.46l1.06-1.87Zm2.4,1.39a1.23,1.23,0,0,0,1-.48l-.08.43h.41l.71-4H82.9l-.32,1.84a1.05,1.05,0,0,0-1-.64,1.51,1.51,0,0,0-1.47,1.26A1.28,1.28,0,0,0,81.31,44.94Zm.09-.39a.93.93,0,0,1-.92-1.15,1.1,1.1,0,0,1,1.08-.94.92.92,0,0,1,.9,1.15A1.12,1.12,0,0,1,81.4,44.55Zm3.36.39a1.23,1.23,0,0,0,1-.48l-.08.43h.41l.71-4h-.43L86,42.72a1.05,1.05,0,0,0-1-.64,1.51,1.51,0,0,0-1.47,1.26A1.28,1.28,0,0,0,84.76,44.94Zm.09-.39a.93.93,0,0,1-.92-1.15A1.1,1.1,0,0,1,85,42.46a.92.92,0,0,1,.9,1.15A1.12,1.12,0,0,1,84.85,44.55Zm2.39.34.25-1.4c.1-.55.38-.92,1-.92h.26l.08-.43h-.3a.94.94,0,0,0-.89.54l.1-.54h-.41l-.48,2.75Zm3.07,0a1.51,1.51,0,0,0,1.21-.53l-.33-.25a1.08,1.08,0,0,1-.86.41.89.89,0,0,1-1-.91h2.38l0-.11a1.2,1.2,0,0,0-1.23-1.47A1.52,1.52,0,0,0,89,43.35,1.26,1.26,0,0,0,90.31,44.94Zm1-1.65h-2a1.08,1.08,0,0,1,1.09-.85A.79.79,0,0,1,91.35,43.29Zm1.87,1.65a1,1,0,0,0,1.08-.73c.1-.57-.39-.77-.84-.9s-.72-.23-.67-.52.24-.36.57-.36a1,1,0,0,1,.85.41l.35-.23a1.41,1.41,0,0,0-1.16-.53.94.94,0,0,0-1,.66c-.1.57.37.75.83.89s.74.23.69.53-.26.42-.64.42a1.05,1.05,0,0,1-.91-.49l-.37.24A1.47,1.47,0,0,0,93.22,44.94Zm2.7,0A1,1,0,0,0,97,44.21c.1-.57-.38-.77-.83-.9s-.73-.23-.68-.52.24-.36.57-.36a1,1,0,0,1,.85.41l.36-.23a1.44,1.44,0,0,0-1.17-.53c-.55,0-.94.25-1,.66-.11.57.36.75.83.89s.73.23.68.53-.26.42-.63.42a1.07,1.07,0,0,1-.92-.49l-.37.24A1.48,1.48,0,0,0,95.92,44.94Z" transform="translate(-0.76)" fill="#c1c1c5"/><path d="M129.91,58.82a.8.8,0,0,0,.2-.33.6.6,0,0,0,.06-.19,1.84,1.84,0,0,0,.05-.25,6.79,6.79,0,0,0,.05-1c0-.37,0-.78,0-1.21-.05-.87-.15-1.83-.28-2.7a13,13,0,0,0-.3-1.55,3.51,3.51,0,0,0-.22-.67,1.3,1.3,0,0,0-.16-.31,1,1,0,0,0-.33-.33.94.94,0,0,0-.27-.09.88.88,0,0,0-.34,0l-.23.08a2.26,2.26,0,0,0-.44.22c-.31.18-.67.43-1.07.72-.79.59-1.71,1.35-2.53,2.08-.54.48-1,.95-1.42,1.34-.21.22-.39.42-.53.6a2.32,2.32,0,0,0-.19.31.92.92,0,0,0-.08.25.72.72,0,0,0,0,.25.74.74,0,0,0,.16.32.55.55,0,0,0,.2.15.7.7,0,0,0,.23.08h.28l.33-.06a11.51,11.51,0,0,1,1.15-.14,5.83,5.83,0,0,1,1.12,0h0c-4.14,10.18-10.87,15.47-20.15,16.9-7.64,1.17-16.37-.17-28.5-3.74l-1-.29c-2.84-.88-14.85-4.67-18.37-5.63l-.13,0A53.08,53.08,0,0,0,48.89,62C38.82,61,31.38,65.3,28.45,72.89a18,18,0,0,0-1,3.71l0,.2-.34,0c-1.45.1-2.92.25-4.39.47l-.4.06C9,79.39-.28,85.67.85,93.47a.86.86,0,1,0,1.71-.26c-.94-6.51,7.5-12.23,20-14.15,1.54-.24,3.08-.41,4.59-.51h.1v.1a24.05,24.05,0,0,0,5.93,16.78l.19.22c5.61,6.45,13.92,8.86,19.89,6.48,6.31-2.51,7.31-9.2,1.39-16.61-4.81-6-14.48-9-25.18-8.81h-.26l0-.18A18,18,0,0,1,30,73.73l.09-.22c2.64-6.84,9.33-10.69,18.65-9.77a51.11,51.11,0,0,1,8.09,1.61l.53.15c4.22,1.18,16.87,5.19,18.38,5.64l1.05.31c12.09,3.52,20.89,4.84,28.73,3.63,9.88-1.52,17.11-7.21,21.48-17.94l-.07,0a12.34,12.34,0,0,1,1.92,1.7.85.85,0,0,0,.17.14.7.7,0,0,0,.29.11.78.78,0,0,0,.37,0,.73.73,0,0,0,.26-.17ZM52.63,100.63c-5.19,2.1-12.65-.12-17.75-6.07a22.72,22.72,0,0,1-5.67-15.82l0-.32h.05c10.15-.3,19.32,2.5,23.83,8l.16.2C58.47,93.27,57.7,98.59,52.63,100.63Z" transform="translate(-0.76)" fill="url(#b9578cf4-94aa-4cbc-ab09-abb1ebdf62f9)"/><path d="M139.07,44.54h-5.79a.3.3,0,0,0-.3.31v.92a2.46,2.46,0,0,0,2.47,2.47h3.2a1.84,1.84,0,0,0,1.84-1.85v-.82C140.49,45.13,140,44.54,139.07,44.54Z" transform="translate(-0.76)" fill="#008787"/><g opacity="0.9"><path d="M139.07,44.54h-5.79a.3.3,0,0,0-.3.31v.92a2.46,2.46,0,0,0,2.47,2.47h3.2a1.84,1.84,0,0,0,1.84-1.85v-.82C140.49,45.13,140,44.54,139.07,44.54Z" transform="translate(-0.76)" fill="url(#fa579468-3b57-4892-aa4e-f3fd0b8d412a)"/></g><path d="M138.66,38.41l-5-2.82a1.2,1.2,0,0,0-1.16,0l-5.06,2.82a1.22,1.22,0,0,0-.61,1v5.67a1.17,1.17,0,0,0,.61,1l5,2.83a1.21,1.21,0,0,0,.59.16,1.24,1.24,0,0,0,.59-.16l5-2.83a1.17,1.17,0,0,0,.61-1V39.44A1.19,1.19,0,0,0,138.66,38.41Z" transform="translate(-0.76)" fill="#20123a"/><path d="M129.5,43.78l-.31.18a.46.46,0,0,0-.17.64.45.45,0,0,0,.4.25.53.53,0,0,0,.24-.06l.3-.18a.46.46,0,0,0,.17-.64A.44.44,0,0,0,129.5,43.78Z" transform="translate(-0.76)" fill="url(#bcb985d8-805a-43a6-ba89-233ef4c713ec)"/><path d="M131.36,42.71l-.62.36a.47.47,0,0,0-.18.64A.48.48,0,0,0,131,44a.49.49,0,0,0,.23-.06l.62-.35a.46.46,0,0,0,.18-.64A.48.48,0,0,0,131.36,42.71Z" transform="translate(-0.76)" fill="url(#bcab1cc1-e8d9-4e98-a612-df34c267d1e8)"/><path d="M133.87,41.84a.46.46,0,0,0-.25-.21V38.06a.48.48,0,0,0-.48-.48.47.47,0,0,0-.48.48v3.59a.37.37,0,0,0-.25.21,4.21,4.21,0,0,0,0,.82.4.4,0,0,0,.25.21v3.59a.47.47,0,0,0,.48.48.48.48,0,0,0,.48-.48V42.87a.42.42,0,0,0,.25-.21,8.41,8.41,0,0,0,0-.82Z" transform="translate(-0.76)" fill="url(#e1684750-0303-4045-aec3-21b53b623368)"/><path d="M135.07,40.62l-.62.35a.46.46,0,0,0-.17.64.45.45,0,0,0,.4.25.64.64,0,0,0,.23,0l.63-.36a.48.48,0,0,0-.47-.83Z" transform="translate(-0.76)" fill="url(#bc90fef5-11ea-4c1a-9949-f7bbea43b9d0)"/><path d="M136.55,40.81a.64.64,0,0,0,.23-.05l.3-.18a.47.47,0,1,0-.46-.82l-.3.18a.47.47,0,0,0-.18.64A.45.45,0,0,0,136.55,40.81Z" transform="translate(-0.76)" fill="url(#bfd6a8a2-672a-40ca-9fcf-ce27ed4c1613)"/><path d="M137.08,43.94l-.3-.18a.47.47,0,1,0-.46.82l.3.18a.64.64,0,0,0,.23.05.48.48,0,0,0,.41-.25A.46.46,0,0,0,137.08,43.94Z" transform="translate(-0.76)" fill="url(#e114654f-5ec7-4afb-a681-7c728d7449a3)"/><path d="M135.54,43.07l-.63-.36a.47.47,0,0,0-.46.82l.62.36a.69.69,0,0,0,.24,0,.45.45,0,0,0,.4-.25A.44.44,0,0,0,135.54,43.07Z" transform="translate(-0.76)" fill="url(#bb940b66-3ecc-4d69-aea8-dd7eac27b58f)"/><path d="M130.74,41.45l.62.36a.64.64,0,0,0,.23,0,.48.48,0,0,0,.41-.25.46.46,0,0,0-.18-.64l-.62-.35a.46.46,0,0,0-.64.17A.5.5,0,0,0,130.74,41.45Z" transform="translate(-0.76)" fill="url(#f170d4ff-5160-4482-8399-76c2e90174a6)"/><path d="M130,39.92l-.3-.17a.47.47,0,1,0-.47.81l.31.18a.48.48,0,0,0,.23,0,.47.47,0,0,0,.23-.87Z" transform="translate(-0.76)" fill="url(#aba1bb25-5659-4736-86eb-3f8c9d4910c4)"/><path d="M140.19,45.89h-5.33a2.27,2.27,0,0,0-2.27,2.28v1.12a.29.29,0,0,0,.3.3h5.31a2.27,2.27,0,0,0,2.28-2.27V45.59A.29.29,0,0,1,140.19,45.89Z" transform="translate(-0.76)" fill="url(#b723592b-175a-424b-9c37-e97164b4d78b)"/><path d="M135,47.72a.37.37,0,0,0,.18-.3c0-.26-.2-.42-.54-.42H134v1.52h.64c.34,0,.55-.14.55-.44A.39.39,0,0,0,135,47.72Zm-.69-.48h.35c.16,0,.23.08.23.18s-.07.18-.23.18h-.35Zm.33,1h-.35v-.39h.35c.2,0,.27.07.27.19S134.79,48.26,134.61,48.26Z" transform="translate(-0.76)" fill="#20123a"/><polygon points="134.69 48.52 135.72 48.52 135.72 48.24 134.99 48.24 134.99 47.88 135.72 47.88 135.72 47.62 134.99 47.62 134.99 47.26 135.72 47.26 135.72 46.98 134.69 46.98 134.69 48.52" fill="#20123a"/><polygon points="137.11 46.98 135.97 46.98 135.97 47.26 136.4 47.26 136.4 48.52 136.7 48.52 136.7 47.26 137.11 47.26 137.11 46.98" fill="#20123a"/><path d="M138.66,47h-.28l-.59,1.53h.31l.1-.29h.64l.11.29h.3Zm-.37,1,.23-.6.22.6Z" transform="translate(-0.76)" fill="#20123a"/></svg>