<svg data-name="Layer 1" xmlns="http://www.w3.org/2000/svg" xmlns:xlink="http://www.w3.org/1999/xlink" viewBox="0 0 165.24 103.03"><defs><linearGradient id="b" x1="-57.23" y1="195.05" x2="-58.23" y2="194.67" gradientTransform="rotate(-48 -19923.783 -282.206) scale(117.99 76.01)" gradientUnits="userSpaceOnUse"><stop offset="0" stop-color="#ff9100"/><stop offset=".52" stop-color="#f10366"/><stop offset="1" stop-color="#6173ff"/></linearGradient><linearGradient id="c" x1="176.92" y1="-32.09" x2="174.91" y2="-30.2" gradientTransform="matrix(1 0 0 -1 -38 16)" gradientUnits="userSpaceOnUse"><stop offset="0" stop-color="#054096" stop-opacity=".5"/><stop offset=".1" stop-color="#173ba1" stop-opacity=".44"/><stop offset=".29" stop-color="#3434b3" stop-opacity=".33"/><stop offset=".49" stop-color="#482ec1" stop-opacity=".22"/><stop offset=".68" stop-color="#552bc8" stop-opacity=".11"/><stop offset=".86" stop-color="#592acb" stop-opacity="0"/></linearGradient><linearGradient id="a" x1="128.77" y1="60.72" x2="137.59" y2="60.72" gradientTransform="matrix(1 0 0 -1 0 105)" gradientUnits="userSpaceOnUse"><stop offset="0" stop-color="#9059ff"/><stop offset="1" stop-color="#f770ff"/></linearGradient><linearGradient id="d" x1="128.77" y1="61.69" x2="137.59" y2="61.69" xlink:href="#a"/><linearGradient id="e" x1="128.77" y1="62.73" x2="137.59" y2="62.73" xlink:href="#a"/><linearGradient id="f" x1="128.77" y1="63.79" x2="137.59" y2="63.79" xlink:href="#a"/><linearGradient id="g" x1="128.77" y1="64.74" x2="137.59" y2="64.74" xlink:href="#a"/><linearGradient id="h" x1="128.77" y1="60.74" x2="137.59" y2="60.74" xlink:href="#a"/><linearGradient id="i" x1="128.77" y1="61.7" x2="137.59" y2="61.7" xlink:href="#a"/><linearGradient id="j" x1="128.77" y1="63.79" x2="137.59" y2="63.79" xlink:href="#a"/><linearGradient id="k" x1="128.77" y1="64.76" x2="137.59" y2="64.76" xlink:href="#a"/><linearGradient id="l" x1="133.46" y1="58.76" x2="140.68" y2="55.7" gradientTransform="matrix(1 0 0 -1 0 105)" gradientUnits="userSpaceOnUse"><stop offset="0" stop-color="#54ffbd"/><stop offset="1" stop-color="#0df"/></linearGradient></defs><circle cx="113.74" cy="51.5" r="51.5" fill="#eee6f4"/><rect x="21.74" y="31.5" width="124.18" height="22.15" rx="4" fill="#fff" stroke="#0a84ff"/><path d="M141.92 32.5a3 3 0 013 3v14.15a3 3 0 01-3 3H25.74a3 3 0 01-3-3V35.5a3 3 0 013-3h116.18m0-3H25.74a6 6 0 00-6 6v14.15a6 6 0 006 6h116.18a6 6 0 006-6V35.5a6 6 0 00-6-6z" fill="#0a84ff" opacity=".29"/><rect x="21.74" y="31.5" width="124.18" height="22.15" rx="4" fill="#fff" stroke="#0a84ff"/><path d="M35.4 44.89l.08-.4h-2l.23-1.27h2l.08-.4h-2l.21-1.25h2l.07-.4h-2.44l-.65 3.72zm1.13 0l.26-1.45c.1-.6.41-1 1-1s.78.37.68.93l-.26 1.51h.43l.26-1.51c.14-.79-.25-1.3-1-1.3a1.12 1.12 0 00-.94.47l.07-.41h-.41l-.48 2.75zm4.06 0l.06-.38c-.57 0-.67-.12-.57-.68l.24-1.32h.69l.07-.37h-.7l.16-.89-.46.23-.11.66h-.51l-.06.37h.5l-.23 1.32c-.14.81.08 1.06.87 1.06zm2 0a1.51 1.51 0 001.21-.53l-.33-.25a1.08 1.08 0 01-.86.41.89.89 0 01-1-.91h2.38v-.11a1.2 1.2 0 00-1.23-1.47 1.52 1.52 0 00-1.52 1.32 1.26 1.26 0 001.33 1.59zm1.05-1.65h-2a1.09 1.09 0 011.09-.85.81.81 0 01.89.9zm1.17 1.6l.24-1.4a1 1 0 011-.92h.19l.08-.43h-.3a1 1 0 00-.9.54l.1-.54h-.41l-.48 2.75zm4.46 0l.26-1.49 1.8-2.23h-.5L49.37 43l-.81-1.81h-.44l1 2.18-.27 1.54zm2.83 0a1.48 1.48 0 001.51-1.23 1.31 1.31 0 00-1.3-1.63 1.52 1.52 0 00-1.52 1.25 1.29 1.29 0 001.29 1.71zm0-.38a.93.93 0 01-.91-1.18 1.06 1.06 0 011.05-.82.94.94 0 01.92 1.2 1.06 1.06 0 01-1.07.9zm3 .38a1 1 0 00.9-.47l-.07.42h.42l.48-2.75h-.42l-.27 1.51c-.1.58-.45.92-.91.92s-.73-.38-.63-.93l.26-1.5h-.42l-.27 1.51c-.14.89.22 1.39.93 1.39zm2.42 0l.25-1.4c.1-.55.38-.92 1-.92h.26l.08-.43h-.3a.94.94 0 00-.89.54l.09-.54h-.4l-.48 2.75zm5.42 0l.07-.4h-2l.23-1.22h2l.07-.4h-2l.22-1.25h2l.07-.4h-2.44l-.65 3.72zm1.12 0l.26-1.48c.1-.56.41-1 .92-1s.71.35.61.91l-.27 1.53H66l.24-1.42c.1-.55.36-.92.87-.93s.73.41.64 1l-.26 1.48h.42l.33-1.55c.13-.75-.25-1.3-1-1.3a1.15 1.15 0 00-1 .56.87.87 0 00-.86-.56 1 1 0 00-.9.49l.07-.43h-.41l-.48 2.75zm6.18-2.76a1.52 1.52 0 00-1.47 1.27 1.28 1.28 0 001.25 1.59 1.17 1.17 0 001-.49l-.07.44h.41l.48-2.75h-.42l-.1.58v-.07a1.07 1.07 0 00-1.08-.57zm-.14 2.47a.94.94 0 01-.86-1.15 1.12 1.12 0 011.08-.94.91.91 0 01.9 1.13 1.1 1.1 0 01-1.09.96zm2.79-2.93a.35.35 0 00.35-.28.31.31 0 00-.31-.37.33.33 0 00-.33.28.29.29 0 00.32.37zm-.39 3.27l.48-2.75h-.42l-.49 2.75zm1.16 0l.71-4h-.43l-.7 4zm2.25 0l.53-.93h1.8l.19.93h.43l-.81-3.72h-.43l-2.14 3.72zm2.21-1.34H76.7l1.06-1.87zm2.4 1.39a1.23 1.23 0 001-.48l-.08.43h.41l.71-4h-.42l-.32 1.84a1.05 1.05 0 00-1-.64 1.51 1.51 0 00-1.47 1.26 1.28 1.28 0 001.2 1.59zm.09-.39a.93.93 0 01-.92-1.15 1.1 1.1 0 011.08-.94.92.92 0 01.9 1.15 1.12 1.12 0 01-1.03.94zm3.36.39a1.23 1.23 0 001-.48l-.08.43h.41l.71-4h-.43l-.34 1.83a1.05 1.05 0 00-1-.64 1.51 1.51 0 00-1.47 1.26 1.28 1.28 0 001.23 1.6zm.09-.39a.93.93 0 01-.92-1.15 1.1 1.1 0 011.1-.94.92.92 0 01.9 1.15 1.12 1.12 0 01-1.05.94zm2.39.34l.25-1.4c.1-.55.38-.92 1-.92h.26l.08-.43h-.3a.94.94 0 00-.89.54l.1-.54h-.41l-.48 2.75zm3.07 0a1.51 1.51 0 001.21-.53l-.33-.25a1.08 1.08 0 01-.86.41.89.89 0 01-1-.91h2.38v-.11a1.2 1.2 0 00-1.23-1.47 1.52 1.52 0 00-1.45 1.32 1.26 1.26 0 001.31 1.59zm1-1.65h-2a1.08 1.08 0 011.09-.85.79.79 0 01.98.9zm1.87 1.65a1 1 0 001.08-.73c.1-.57-.39-.77-.84-.9s-.72-.23-.67-.52.24-.36.57-.36a1 1 0 01.85.41l.35-.23a1.41 1.41 0 00-1.16-.53.94.94 0 00-1 .66c-.1.57.37.75.83.89s.74.23.69.53-.26.42-.64.42a1.05 1.05 0 01-.91-.49l-.37.24a1.47 1.47 0 001.29.66zm2.7 0a1 1 0 001.15-.68c.1-.57-.38-.77-.83-.9s-.73-.23-.68-.52.24-.36.57-.36a1 1 0 01.85.41l.36-.23a1.44 1.44 0 00-1.17-.53c-.55 0-.94.25-1 .66-.11.57.36.75.83.89s.73.23.68.53-.26.42-.63.42a1.07 1.07 0 01-.92-.49l-.37.24a1.48 1.48 0 001.23.61z" fill="#c1c1c5"/><path d="M129.91 58.82a.8.8 0 00.2-.33.6.6 0 00.06-.19 1.84 1.84 0 00.05-.25 6.79 6.79 0 00.05-1v-1.21c-.05-.87-.15-1.83-.28-2.7a13 13 0 00-.3-1.55 3.51 3.51 0 00-.22-.67 1.3 1.3 0 00-.16-.31 1 1 0 00-.33-.33.94.94 0 00-.27-.09.88.88 0 00-.34 0l-.23.08a2.26 2.26 0 00-.44.22c-.31.18-.67.43-1.07.72-.79.59-1.71 1.35-2.53 2.08-.54.48-1 .95-1.42 1.34-.21.22-.39.42-.53.6a2.32 2.32 0 00-.19.31.92.92 0 00-.08.25.72.72 0 000 .25.74.74 0 00.16.32.55.55 0 00.2.15.7.7 0 00.23.08h.28l.33-.06a11.51 11.51 0 011.15-.14 5.83 5.83 0 011.12 0c-4.14 10.18-10.87 15.47-20.15 16.9-7.64 1.17-16.37-.17-28.5-3.74l-1-.29c-2.84-.88-14.85-4.67-18.37-5.63h-.13A53.08 53.08 0 0048.89 62c-10.07-1-17.51 3.3-20.44 10.89a18 18 0 00-1 3.71v.2h-.34c-1.45.1-2.92.25-4.39.47l-.4.06C9 79.39-.28 85.67.85 93.47a.86.86 0 101.71-.26c-.94-6.51 7.5-12.23 20-14.15 1.54-.24 3.08-.41 4.59-.51h.1v.1a24.05 24.05 0 005.93 16.78l.19.22c5.61 6.45 13.92 8.86 19.89 6.48 6.31-2.51 7.31-9.2 1.39-16.61-4.81-6-14.48-9-25.18-8.81h-.26v-.18a18 18 0 01.79-2.8l.09-.22c2.64-6.84 9.33-10.69 18.65-9.77a51.11 51.11 0 018.09 1.61l.53.15c4.22 1.18 16.87 5.19 18.38 5.64l1.05.31c12.09 3.52 20.89 4.84 28.73 3.63 9.88-1.52 17.11-7.21 21.48-17.94h-.07a12.34 12.34 0 011.92 1.7.85.85 0 00.17.14.7.7 0 00.29.11.78.78 0 00.37 0 .73.73 0 00.26-.17zm-77.28 41.81c-5.19 2.1-12.65-.12-17.75-6.07a22.72 22.72 0 01-5.67-15.82v-.32h.05c10.15-.3 19.32 2.5 23.83 8l.16.2c5.22 6.65 4.45 11.97-.62 14.01z" transform="translate(-.76)" fill="url(#b)"/><path d="M137.9 38.41l-5-2.82a1.2 1.2 0 00-1.16 0l-5.06 2.82a1.22 1.22 0 00-.61 1v5.67a1.17 1.17 0 00.61 1l5 2.83a1.21 1.21 0 00.59.16 1.24 1.24 0 00.59-.16l5-2.83a1.17 1.17 0 00.61-1v-5.64a1.19 1.19 0 00-.57-1.03z" fill="#20123a"/><path d="M129.5 43.78l-.31.18a.46.46 0 00-.17.64.45.45 0 00.4.25.53.53 0 00.24-.06l.3-.18a.46.46 0 00.17-.64.44.44 0 00-.63-.19z" transform="translate(-.76)" fill="url(#a)"/><path d="M131.36 42.71l-.62.36a.47.47 0 00-.18.64.48.48 0 00.44.29.49.49 0 00.23-.06l.62-.35a.46.46 0 00.18-.64.48.48 0 00-.67-.24z" transform="translate(-.76)" fill="url(#d)"/><path d="M133.87 41.84a.46.46 0 00-.25-.21v-3.57a.48.48 0 00-.48-.48.47.47 0 00-.48.48v3.59a.37.37 0 00-.25.21 4.21 4.21 0 000 .82.4.4 0 00.25.21v3.59a.47.47 0 00.48.48.48.48 0 00.48-.48v-3.61a.42.42 0 00.25-.21 8.41 8.41 0 000-.82z" transform="translate(-.76)" fill="url(#e)"/><path d="M135.07 40.62l-.62.35a.46.46 0 00-.17.64.45.45 0 00.4.25.64.64 0 00.23 0l.63-.36a.48.48 0 00-.47-.83z" transform="translate(-.76)" fill="url(#f)"/><path d="M136.55 40.81a.64.64 0 00.23-.05l.3-.18a.47.47 0 10-.46-.82l-.3.18a.47.47 0 00-.18.64.45.45 0 00.41.23z" transform="translate(-.76)" fill="url(#g)"/><path d="M137.08 43.94l-.3-.18a.47.47 0 10-.46.82l.3.18a.64.64 0 00.23.05.48.48 0 00.41-.25.46.46 0 00-.18-.62z" transform="translate(-.76)" fill="url(#h)"/><path d="M135.54 43.07l-.63-.36a.47.47 0 00-.46.82l.62.36a.69.69 0 00.24 0 .45.45 0 00.4-.25.44.44 0 00-.17-.57z" transform="translate(-.76)" fill="url(#i)"/><path d="M130.74 41.45l.62.36a.64.64 0 00.23 0 .48.48 0 00.41-.25.46.46 0 00-.18-.64l-.62-.35a.46.46 0 00-.64.17.5.5 0 00.18.71z" transform="translate(-.76)" fill="url(#j)"/><path d="M130 39.92l-.3-.17a.47.47 0 10-.47.81l.31.18a.48.48 0 00.23 0 .47.47 0 00.23-.87z" transform="translate(-.76)" fill="url(#k)"/></svg>
