<svg data-name="Layer 1" xmlns="http://www.w3.org/2000/svg" xmlns:xlink="http://www.w3.org/1999/xlink" viewBox="0 0 166.5 104.78"><defs><linearGradient id="a" x1="-47.85" y1="187.08" x2="-49.13" y2="187.08" gradientTransform="matrix(7.98 0 0 -9.13 477.78 1782.96)" gradientUnits="userSpaceOnUse"><stop offset="0" stop-color="#f06eff"/><stop offset="1" stop-color="#945aff"/></linearGradient><linearGradient id="b" x1="-63.02" y1="179.32" x2="-62.02" y2="179.32" gradientTransform="matrix(-7.98 0 0 -5.01 -407.69 972.7)" xlink:href="#a"/><linearGradient id="c" x1="-47.35" y1="169.38" x2="-48.35" y2="169.38" gradientTransform="matrix(7.32 0 0 -3.17 444.23 617.15)" gradientUnits="userSpaceOnUse"><stop offset="0" stop-color="#0be1f7"/><stop offset="1" stop-color="#52febe"/></linearGradient><linearGradient id="d" x1="-54.64" y1="197.97" x2="-55.21" y2="198.78" gradientTransform="matrix(34.73853 -13.33487 19.1476 49.8812 -1751.83 -10545.47)" gradientUnits="userSpaceOnUse"><stop offset="0" stop-color="#ff9100"/><stop offset=".52" stop-color="#f10366"/><stop offset="1" stop-color="#6173ff"/></linearGradient></defs><circle cx="51.5" cy="51.5" r="51.5" fill="#eee6f4"/><rect x="16.17" y="26" width="124.18" height="22.15" rx="4" fill="#fff" stroke="#0a84ff"/><path d="M136.35 27a3 3 0 013 3v14.15a3 3 0 01-3 3H20.17a3 3 0 01-3-3V30a3 3 0 013-3h116.18m0-3H20.17a6 6 0 00-6 6v14.15a6 6 0 006 6h116.18a6 6 0 006-6V30a6 6 0 00-6-6z" fill="#0a84ff" opacity=".29"/><rect x="16.17" y="26" width="124.18" height="22.15" rx="4" fill="#fff" stroke="#0a84ff"/><path d="M29.84 39.39l.07-.4h-2l.22-1.27h2l.07-.4h-2l.22-1.25h2l.07-.4h-2.43l-.65 3.72zm1.12 0l.26-1.45c.11-.6.41-1 1-1s.79.37.69.93l-.27 1.51H33l.27-1.51c.14-.79-.26-1.3-1-1.3a1.14 1.14 0 00-1 .47l.08-.41H31l-.48 2.75zm4.06 0l.07-.38c-.56 0-.67-.12-.56-.68l.21-1.33h.7l.06-.37h-.69l.15-.89-.45.23-.12.66h-.5l-.07.37h.5l-.22 1.32c-.15.81.07 1.06.86 1.06zm2 0a1.53 1.53 0 001.22-.53l-.33-.25a1.1 1.1 0 01-.86.41.88.88 0 01-1-.91h2.37V38a1.21 1.21 0 00-1.23-1.47 1.54 1.54 0 00-1.55 1.27A1.26 1.26 0 0037 39.44zm1-1.65h-2a1.1 1.1 0 011.1-.85.8.8 0 01.93.9zm1.17 1.6l.25-1.4c.1-.55.38-.92 1-.92h.26l.08-.43h-.3a.94.94 0 00-.89.54l.1-.54h-.41l-.48 2.75zm4.47 0L44 37.9l1.79-2.23h-.5l-1.43 1.81-.86-1.81h-.44l1 2.18-.27 1.54zm2.82 0A1.46 1.46 0 0048 38.21a1.3 1.3 0 00-1.3-1.63 1.52 1.52 0 00-1.52 1.25 1.3 1.3 0 001.33 1.61zm0-.38a.93.93 0 01-.91-1.18A1.07 1.07 0 0146.7 37a1 1 0 01.92 1.2 1.07 1.07 0 01-1.1.86zm3 .38a1.07 1.07 0 00.91-.47l-.07.42h.41l.48-2.75h-.41l-.27 1.51c-.11.58-.45.92-.92.92s-.72-.38-.63-.93l.27-1.5h-.43l-.26 1.51c-.09.89.26 1.39.97 1.39zm2.43 0L52.2 38a1 1 0 011-.92h.25l.09-.43h-.3a1 1 0 00-.9.54l.1-.54H52l-.48 2.75zm5.41 0l.07-.4h-2l.22-1.27h2l.07-.4h-2l.21-1.25h2l.07-.4h-2.37l-.65 3.72zm1.12 0s.26-1.43.26-1.48c.11-.56.41-1 .93-1s.7.35.6.91L60 39.39h.43l.26-1.51c.1-.55.37-.92.87-.93s.74.41.64 1l-.2 1.44h.42l.27-1.51c.13-.75-.25-1.3-1-1.3a1.17 1.17 0 00-1 .56.87.87 0 00-.86-.56 1 1 0 00-.9.49l.08-.43h-.41l-.49 2.75zm6.22-2.81a1.52 1.52 0 00-1.47 1.27 1.28 1.28 0 001.25 1.59 1.19 1.19 0 001-.49l-.08.44h.42l.48-2.75h-.42l-.11.58v-.07a1.07 1.07 0 00-1.02-.52zM64.52 39a.93.93 0 01-.92-1.15 1.11 1.11 0 011.12-.85.91.91 0 01.91 1.13 1.12 1.12 0 01-1.06.92zm2.79-2.93a.33.33 0 00.34-.28.3.3 0 00-.3-.37.34.34 0 00-.34.28.3.3 0 00.35.42zM67 39.39l.48-2.75H67l-.48 2.75zm1.17 0l.7-4h-.42l-.7 4zm2.24 0l.53-.93h1.77l.2.93h.43l-.81-3.72h-.43l-2.14 3.72zm2.21-1.34h-1.49l1.06-1.87zM75 39.44a1.23 1.23 0 001-.44l-.07.43h.4l.71-4h-.42l-.32 1.84a1.08 1.08 0 00-1.05-.64 1.51 1.51 0 00-1.47 1.26A1.29 1.29 0 0075 39.44zm.09-.39a.94.94 0 01-.92-1.15 1.1 1.1 0 011.06-.9.91.91 0 01.9 1.15 1.12 1.12 0 01-1.06.9zm3.36.39a1.23 1.23 0 001-.48l-.07.43h.4l.71-4H80l-.32 1.84a1.08 1.08 0 00-1-.64 1.51 1.51 0 00-1.47 1.26 1.29 1.29 0 001.22 1.59zm.09-.39a.94.94 0 01-.92-1.15 1.1 1.1 0 011.06-.9.91.91 0 01.9 1.15 1.12 1.12 0 01-1.06.9zm2.4.34l.24-1.4a1 1 0 011-.92h.26l.08-.43h-.3a1 1 0 00-.9.54l.1-.54H81l-.48 2.75zm3.06 0a1.53 1.53 0 001.22-.53l-.34-.25a1.06 1.06 0 01-.85.41.88.88 0 01-1-.91h2.37V38a1.2 1.2 0 00-1.23-1.47 1.54 1.54 0 00-1.54 1.27A1.26 1.26 0 0084 39.44zm1-1.65h-2a1.09 1.09 0 011.09-.85.81.81 0 01.91.9zm1.87 1.65a1 1 0 001.13-.68c.1-.57-.38-.77-.83-.9s-.73-.23-.68-.52.24-.36.57-.36a1 1 0 01.85.41l.36-.23a1.44 1.44 0 00-1.17-.53c-.55 0-.94.25-1 .66-.11.57.36.75.83.89s.73.23.68.53-.26.42-.63.42a1.07 1.07 0 01-.92-.49l-.37.24a1.5 1.5 0 001.21.61zm2.69 0a1 1 0 001.08-.73c.09-.57-.39-.77-.84-.9s-.73-.23-.68-.52.24-.36.58-.36a1 1 0 01.85.41l.35-.23a1.42 1.42 0 00-1.17-.53c-.55 0-.94.25-1 .66-.1.57.37.75.83.89s.74.23.69.53-.26.42-.64.42a1 1 0 01-.91-.49l-.37.24a1.47 1.47 0 001.26.66z" fill="#c1c1c5"/><rect data-name="b" x="76" y="8" width="90" height="80" rx="4"/><rect x="76" y="8" width="90" height="80" rx="4" fill="#fff" stroke="#d8d8d8" stroke-miterlimit="10"/><path fill="#45a1ff" d="M76 61h90v20H76z"/><path fill="#d8d8d8" d="M85 24h72v7H85zM85 42h72v8H85z"/><path fill="#fff" d="M103 67h54v8h-54z"/><path d="M93.59 74.51h4.14a1.27 1.27 0 00-1.27-1.27h-4.14a1.27 1.27 0 001.27 1.27z" fill="#087c8d" fill-rule="evenodd"/><path d="M95.91 67.69l-4.51-2.55a1 1 0 00-1 0l-4.51 2.55a1.07 1.07 0 00-.54.94v5.11a1.07 1.07 0 00.54.93l4.51 2.56a1 1 0 001 0l4.51-2.56a1 1 0 00.54-.93v-5.11a1 1 0 00-.54-.94z"/><path d="M91.05 70.9a.44.44 0 01.44.38v3.46a.4.4 0 01.1.72l-.1.06v4.09a.43.43 0 01-.44.42.44.44 0 01-.45-.38v-3.76a.34.34 0 01-.24-.18.39.39 0 01.14-.53l.1-.06v-3.8a.44.44 0 01.45-.42zm-3.39 5.79a.4.4 0 01.54.14.39.39 0 01-.14.54l-.41.25a.39.39 0 01-.54-.14.4.4 0 01.14-.54zm1.76-1a.39.39 0 11.39.68l-.68.39a.4.4 0 01-.54-.15.38.38 0 01.14-.53zM93 73.6a.4.4 0 01.54.15.38.38 0 01-.14.53l-.69.4a.4.4 0 01-.54-.15.39.39 0 01.15-.53zm1.48-.88a.4.4 0 01.54.15.38.38 0 01-.14.53l-.4.25a.39.39 0 01-.54-.14A.4.4 0 0194 73z" transform="translate(0 -4)" fill="url(#a)"/><path d="M87.65 72.72l.46.3a.39.39 0 01.15.53.42.42 0 01-.55.15l-.46-.3a.39.39 0 01.4-.68zm1.48.88l.68.4a.39.39 0 01.15.53.4.4 0 01-.54.15l-.69-.4a.38.38 0 01-.14-.53.4.4 0 01.54-.15zm1.77 1.18l.69.4a.38.38 0 01.14.53.4.4 0 01-.54.15l-.69-.4a.39.39 0 01.4-.68zm1.77.89l.69.39a.38.38 0 01.14.53.4.4 0 01-.54.15l-.68-.39a.39.39 0 11.39-.68zm1.7 1l.47.28a.39.39 0 11-.4.68l-.44-.29a.4.4 0 01-.15-.54.41.41 0 01.52-.14z" transform="translate(0 -4)" fill="url(#b)"/><path d="M92 78.51h5.74a3.17 3.17 0 01-3.17 3.17h-3.16a1 1 0 01-1-1v-.58A1.59 1.59 0 0192 78.51z" transform="translate(0 -4)" fill-rule="evenodd" fill="url(#c)"/><path d="M92.28 76.85a.67.67 0 00.26 0 .44.44 0 00.16-.14.42.42 0 000-.2.33.33 0 000-.17.43.43 0 00-.11-.12.42.42 0 00-.15 0 .52.52 0 00.13-.06l.09-.1a.32.32 0 000-.14.41.41 0 000-.19.4.4 0 00-.16-.12.58.58 0 00-.25-.05h-.56v1.39zm-.09-.85H92v-.3h.22a.25.25 0 01.15 0 .17.17 0 01.05.12.29.29 0 010 .09.16.16 0 01-.08.06.2.2 0 01-.11 0zm0 .57H92v-.37h.24a.21.21 0 01.12 0 .12.12 0 01.08.06.2.2 0 010 .11.14.14 0 01-.06.12.26.26 0 01-.17.12zm1.67.24v-.24h-.64v-.33h.59V76h-.59v-.3h.64v-.24h-.94v1.39zm.9 0V75.7h.42v-.24h-1.12v.24h.42v1.15zm.68 0l.1-.32h.5l.1.32h.32L96 75.46h-.38l-.48 1.39zm.56-.51h-.36l.18-.52z" fill="#190026"/><rect data-name="b" x="76" y="8" width="90" height="80" rx="4"/><rect x="76" y="8" width="90" height="80" rx="4" fill="#fff" stroke="#d8d8d8" stroke-miterlimit="10"/><path fill="#45a1ff" d="M76 61h90v20H76z"/><path fill="#d8d8d8" d="M85 24h72v7H85zM85 42h72v8H85z"/><path fill="#fff" d="M103 67h54v8h-54z"/><path d="M95.91 67.69l-4.51-2.55a1 1 0 00-1 0l-4.51 2.55a1.07 1.07 0 00-.54.94v5.11a1.07 1.07 0 00.54.93l4.51 2.56a1 1 0 001 0l4.51-2.56a1 1 0 00.54-.93v-5.11a1 1 0 00-.54-.94z"/><path d="M91.05 70.9a.44.44 0 01.44.38v3.46a.4.4 0 01.1.72l-.1.06v4.09a.43.43 0 01-.44.42.44.44 0 01-.45-.38v-3.76a.34.34 0 01-.24-.18.39.39 0 01.14-.53l.1-.06v-3.8a.44.44 0 01.45-.42zm-3.39 5.79a.4.4 0 01.54.14.39.39 0 01-.14.54l-.41.25a.39.39 0 01-.54-.14.4.4 0 01.14-.54zm1.76-1a.39.39 0 11.39.68l-.68.39a.4.4 0 01-.54-.15.38.38 0 01.14-.53zM93 73.6a.4.4 0 01.54.15.38.38 0 01-.14.53l-.69.4a.4.4 0 01-.54-.15.39.39 0 01.15-.53zm1.48-.88a.4.4 0 01.54.15.38.38 0 01-.14.53l-.4.25a.39.39 0 01-.54-.14A.4.4 0 0194 73z" transform="translate(0 -4)" fill="url(#a)"/><path d="M87.65 72.72l.46.3a.39.39 0 01.15.53.42.42 0 01-.55.15l-.46-.3a.39.39 0 01.4-.68zm1.48.88l.68.4a.39.39 0 01.15.53.4.4 0 01-.54.15l-.69-.4a.38.38 0 01-.14-.53.4.4 0 01.54-.15zm1.77 1.18l.69.4a.38.38 0 01.14.53.4.4 0 01-.54.15l-.69-.4a.39.39 0 01.4-.68zm1.77.89l.69.39a.38.38 0 01.14.53.4.4 0 01-.54.15l-.68-.39a.39.39 0 11.39-.68zm1.7 1l.47.28a.39.39 0 11-.4.68l-.44-.29a.4.4 0 01-.15-.54.41.41 0 01.52-.14z" transform="translate(0 -4)" fill="url(#b)"/><path fill="#fff" fill-rule="evenodd" d="M140.15 85.47l1.86-1 1.62-.84-2.57-4.82h4.33l-11.38-11.4v16.01l3.32-3.22 2.82 5.27z"/><path fill-rule="evenodd" d="M140.43 84l1.77-.94-2.78-5.2h3.61L135 69.81V81l2.53-2.44 2.9 5.44z"/><path d="M132.35 68.44a1 1 0 00.62-1.2v-.09l-3.62-9.42a1 1 0 00-1.91.63v.09l3.62 9.42a1 1 0 001.29.57zm-8.9 6.25a1 1 0 00-.11-1.33l-.08-.06-8.14-6a1 1 0 00-1.41.2 1 1 0 00.12 1.33l.07.06 8.15 6a1 1 0 001.4-.2zm19.22-6.91a1 1 0 001.19-.79l2-9.94v-.1a1 1 0 00-.81-1.06 1 1 0 00-1.18.79l-2 9.94v.1a1 1 0 00.8 1.06zm20.68 27.8a1 1 0 00-.12-1.33l-.07-.06-8.15-6a1 1 0 00-1.4.21 1 1 0 00.11 1.33l.08.06 8.14 6a1 1 0 001.41-.21zm-30.14 13.18a1 1 0 001.18-.79l2-9.94v-.09a1 1 0 00-.8-1.07 1 1 0 00-1.18.79l-2 9.94v.1a1 1 0 00.8 1.06zm16.49-2.69a1 1 0 00.61-1.2v-.09l-3.62-9.42a1 1 0 00-1.29-.57 1 1 0 00-.62 1.2v.09l3.62 9.42a1 1 0 001.3.57z" transform="translate(0 -4)" fill="url(#d)"/></svg>
