<svg id="f4675ecc-6430-4f47-85ae-172c5a259715" data-name="Layer 1" xmlns="http://www.w3.org/2000/svg" xmlns:xlink="http://www.w3.org/1999/xlink" viewBox="0 0 166.5 104.78"><defs><linearGradient id="b55f0edc-bac2-41f0-b517-91dd05f72c7a" x1="-47.85" y1="187.08" x2="-49.13" y2="187.08" gradientTransform="matrix(7.98, 0, 0, -9.13, 477.78, 1782.96)" gradientUnits="userSpaceOnUse"><stop offset="0" stop-color="#f06eff"/><stop offset="1" stop-color="#945aff"/></linearGradient><linearGradient id="e99a3fb6-c238-48ba-819e-1815594b09f1" x1="-63.02" y1="179.32" x2="-62.02" y2="179.32" gradientTransform="translate(-407.69 972.7) rotate(180) scale(7.98 5.01)" xlink:href="#b55f0edc-bac2-41f0-b517-91dd05f72c7a"/><linearGradient id="f1ed5d5b-494c-419d-8d66-eb2f5846cb45" x1="-47.35" y1="169.38" x2="-48.35" y2="169.38" gradientTransform="matrix(7.32, 0, 0, -3.17, 444.23, 617.15)" gradientUnits="userSpaceOnUse"><stop offset="0" stop-color="#0be1f7"/><stop offset="1" stop-color="#52febe"/></linearGradient><linearGradient id="f4790d10-a49e-4a00-aa0b-52cb236b46bf" x1="-54.64" y1="197.97" x2="-55.21" y2="198.78" gradientTransform="translate(-1751.83 -10545.47) rotate(-21) scale(37.21 53.43)" gradientUnits="userSpaceOnUse"><stop offset="0" stop-color="#ff9100"/><stop offset="0.52" stop-color="#f10366"/><stop offset="1" stop-color="#6173ff"/></linearGradient></defs><title>tip2-icon</title><circle cx="51.5" cy="51.5" r="51.5" fill="#eee6f4"/><rect x="16.17" y="26" width="124.18" height="22.15" rx="4" fill="#fff" stroke="#0a84ff"/><g opacity="0.29"><path d="M136.35,31a3,3,0,0,1,3,3V48.15a3,3,0,0,1-3,3H20.17a3,3,0,0,1-3-3V34a3,3,0,0,1,3-3H136.35m0-3H20.17a6,6,0,0,0-6,6V48.15a6,6,0,0,0,6,6H136.35a6,6,0,0,0,6-6V34a6,6,0,0,0-6-6Z" transform="translate(0 -4)" fill="#0a84ff"/></g><rect x="16.17" y="26" width="124.18" height="22.15" rx="4" fill="#fff" stroke="#0a84ff"/><path d="M29.84,43.39l.07-.4h-2l.22-1.27h2l.07-.4h-2l.22-1.25h2l.07-.4H28.06l-.65,3.72Zm1.12,0,.26-1.45c.11-.6.41-1,1-1s.79.37.69.93l-.27,1.51H33l.27-1.51c.14-.79-.26-1.3-1-1.3a1.14,1.14,0,0,0-1,.47l.08-.41H31l-.48,2.75Zm4.06,0,.07-.38h0c-.56,0-.67-.12-.56-.68L34.74,41h.7l.06-.37h-.69l.15-.89-.45.23-.12.66h-.5l-.07.37h.5l-.22,1.32c-.15.81.07,1.06.86,1.06Zm2,0a1.53,1.53,0,0,0,1.22-.53l-.33-.25a1.1,1.1,0,0,1-.86.41.88.88,0,0,1-1-.91h2.37l0-.11a1.21,1.21,0,0,0-1.23-1.47,1.54,1.54,0,0,0-1.55,1.27A1.26,1.26,0,0,0,37,43.44Zm1-1.65h-2a1.1,1.1,0,0,1,1.1-.85A.8.8,0,0,1,38.05,41.79Zm1.17,1.6.25-1.4c.1-.55.38-.92,1-.92h.26l.08-.43h-.3a.94.94,0,0,0-.89.54l.1-.54h-.41l-.48,2.75Zm4.47,0L44,41.9l1.79-2.23h-.5l-1.43,1.81L43,39.67h-.44l1,2.18-.27,1.54Zm2.82,0A1.46,1.46,0,0,0,48,42.21a1.3,1.3,0,0,0-1.3-1.63,1.52,1.52,0,0,0-1.52,1.25A1.3,1.3,0,0,0,46.51,43.44Zm0-.38a.93.93,0,0,1-.91-1.18A1.07,1.07,0,0,1,46.7,41a1,1,0,0,1,.92,1.2A1.07,1.07,0,0,1,46.52,43.06Zm3,.38a1.07,1.07,0,0,0,.91-.47l-.07.42h.41l.48-2.75h-.41l-.27,1.51c-.11.58-.45.92-.92.92s-.72-.38-.63-.93l.27-1.5h-.43l-.26,1.51C48.47,42.94,48.82,43.44,49.53,43.44Zm2.43,0L52.2,42a1,1,0,0,1,1-.92h.25l.09-.43h-.3a1,1,0,0,0-.9.54l.1-.54H52l-.48,2.75Zm5.41,0,.07-.4h-2l.22-1.27h2l.07-.4h-2l.21-1.25h2l.07-.4H55.59l-.65,3.72Zm1.12,0s.26-1.43.26-1.48c.11-.56.41-1,.93-1s.7.35.6.91L60,43.39h.43l.26-1.51c.1-.55.37-.92.87-.93s.74.41.64,1L62,43.39h.42l.27-1.51c.13-.75-.25-1.3-1-1.3a1.17,1.17,0,0,0-1,.56.87.87,0,0,0-.86-.56,1,1,0,0,0-.9.49l.08-.43h-.41l-.49,2.75Zm6.22-2.81a1.52,1.52,0,0,0-1.47,1.27,1.28,1.28,0,0,0,1.25,1.59,1.19,1.19,0,0,0,1-.49l-.08.44h.42l.48-2.75h-.42l-.11.58,0-.07A1.07,1.07,0,0,0,64.71,40.58Zm-.14,2.47a.93.93,0,0,1-.92-1.15A1.11,1.11,0,0,1,64.72,41a.91.91,0,0,1,.91,1.13A1.12,1.12,0,0,1,64.57,43.05Zm2.79-2.93a.33.33,0,0,0,.34-.28.3.3,0,0,0-.3-.37.34.34,0,0,0-.34.28A.3.3,0,0,0,67.36,40.12ZM67,43.39l.48-2.75H67l-.48,2.75Zm1.17,0,.7-4h-.42l-.7,4Zm2.24,0,.53-.93h1.77l.2.93h.43l-.81-3.72h-.43l-2.14,3.72Zm2.21-1.34H71.13l1.06-1.87ZM75,43.44A1.23,1.23,0,0,0,76,43l-.07.43h.4l.71-4h-.42l-.32,1.84a1.08,1.08,0,0,0-1.05-.64,1.51,1.51,0,0,0-1.47,1.26A1.29,1.29,0,0,0,75,43.44Zm.09-.39a.94.94,0,0,1-.92-1.15A1.1,1.1,0,0,1,75.23,41a.91.91,0,0,1,.9,1.15A1.12,1.12,0,0,1,75.07,43.05Zm3.36.39a1.23,1.23,0,0,0,1-.48l-.07.43h.4l.71-4H80l-.32,1.84a1.08,1.08,0,0,0-1-.64,1.51,1.51,0,0,0-1.47,1.26A1.29,1.29,0,0,0,78.43,43.44Zm.09-.39a.94.94,0,0,1-.92-1.15A1.1,1.1,0,0,1,78.68,41a.91.91,0,0,1,.9,1.15A1.12,1.12,0,0,1,78.52,43.05Zm2.4.34.24-1.4a1,1,0,0,1,1-.92h.26l.08-.43h-.3a1,1,0,0,0-.9.54l.1-.54H81l-.48,2.75Zm3.06,0a1.53,1.53,0,0,0,1.22-.53l-.34-.25a1.06,1.06,0,0,1-.85.41.88.88,0,0,1-1-.91h2.37l0-.11a1.2,1.2,0,0,0-1.23-1.47,1.54,1.54,0,0,0-1.54,1.27A1.26,1.26,0,0,0,84,43.44Zm1-1.65h-2a1.09,1.09,0,0,1,1.09-.85A.81.81,0,0,1,85,41.79Zm1.87,1.65A1,1,0,0,0,88,42.71c.1-.57-.38-.77-.83-.9s-.73-.23-.68-.52.24-.36.57-.36a1,1,0,0,1,.85.41l.36-.23a1.44,1.44,0,0,0-1.17-.53c-.55,0-.94.25-1,.66-.11.57.36.75.83.89s.73.23.68.53-.26.42-.63.42a1.07,1.07,0,0,1-.92-.49l-.37.24A1.5,1.5,0,0,0,86.9,43.44Zm2.69,0a1,1,0,0,0,1.08-.73c.09-.57-.39-.77-.84-.9s-.73-.23-.68-.52.24-.36.58-.36a1,1,0,0,1,.85.41l.35-.23a1.42,1.42,0,0,0-1.17-.53c-.55,0-.94.25-1,.66-.1.57.37.75.83.89s.74.23.69.53-.26.42-.64.42a1,1,0,0,1-.91-.49l-.37.24A1.47,1.47,0,0,0,89.59,43.44Z" transform="translate(0 -4)" fill="#c1c1c5"/><rect id="a541dcd2-91b2-428a-93a0-35811470fcbc" data-name="b" x="76" y="8" width="90" height="80" rx="4"/><rect x="76" y="8" width="90" height="80" rx="4" fill="#fff" stroke="#d8d8d8" stroke-miterlimit="10"/><rect x="76" y="61" width="90" height="20" fill="#45a1ff"/><rect x="85" y="24" width="72" height="7" fill="#d8d8d8"/><rect x="85" y="42" width="72" height="8" fill="#d8d8d8"/><rect x="103" y="67" width="54" height="8" fill="#fff"/><path d="M93.59,78.51h4.14a1.27,1.27,0,0,0-1.27-1.27H92.32A1.27,1.27,0,0,0,93.59,78.51Z" transform="translate(0 -4)" fill="#087c8d" fill-rule="evenodd"/><path d="M95.91,71.69,91.4,69.14a1,1,0,0,0-1,0l-4.51,2.55a1.07,1.07,0,0,0-.54.94v5.11a1.07,1.07,0,0,0,.54.93l4.51,2.56a1,1,0,0,0,1,0l4.51-2.56a1,1,0,0,0,.54-.93V72.63A1,1,0,0,0,95.91,71.69Z" transform="translate(0 -4)"/><path d="M91.05,70.9a.44.44,0,0,1,.44.38v3.46a.4.4,0,0,1,.1.72l-.1.06v4.09a.43.43,0,0,1-.44.42.44.44,0,0,1-.45-.38V75.89a.34.34,0,0,1-.24-.18.39.39,0,0,1,.14-.53l.1-.06v-3.8A.44.44,0,0,1,91.05,70.9Zm-3.39,5.79a.4.4,0,0,1,.54.14.39.39,0,0,1-.14.54l-.41.25a.39.39,0,0,1-.54-.14.4.4,0,0,1,.14-.54Zm1.76-1a.39.39,0,1,1,.39.68l-.68.39a.4.4,0,0,1-.54-.15.38.38,0,0,1,.14-.53ZM93,73.6a.4.4,0,0,1,.54.15.38.38,0,0,1-.14.53l-.69.4a.4.4,0,0,1-.54-.15.39.39,0,0,1,.15-.53Zm1.48-.88a.4.4,0,0,1,.54.15.38.38,0,0,1-.14.53l-.4.25a.39.39,0,0,1-.54-.14A.4.4,0,0,1,94,73Z" transform="translate(0 -4)" fill="url(#b55f0edc-bac2-41f0-b517-91dd05f72c7a)"/><path d="M87.65,72.72l.46.3a.39.39,0,0,1,.15.53.42.42,0,0,1-.55.15l-.46-.3a.39.39,0,0,1,.4-.68Zm1.48.88.68.4a.39.39,0,0,1,.15.53.4.4,0,0,1-.54.15l-.69-.4a.38.38,0,0,1-.14-.53A.4.4,0,0,1,89.13,73.6Zm1.77,1.18.69.4a.38.38,0,0,1,.14.53.4.4,0,0,1-.54.15l-.69-.4a.39.39,0,0,1,.4-.68Zm1.77.89.69.39a.38.38,0,0,1,.14.53.4.4,0,0,1-.54.15l-.68-.39a.39.39,0,1,1,.39-.68Zm1.7,1,.47.28a.39.39,0,1,1-.4.68L94,77.34a.4.4,0,0,1-.15-.54A.41.41,0,0,1,94.37,76.66Z" transform="translate(0 -4)" fill="url(#e99a3fb6-c238-48ba-819e-1815594b09f1)"/><path d="M92,78.51h5.74a3.17,3.17,0,0,1-3.17,3.17H91.41a1,1,0,0,1-1-1V80.1A1.59,1.59,0,0,1,92,78.51Z" transform="translate(0 -4)" fill-rule="evenodd" fill="url(#f1ed5d5b-494c-419d-8d66-eb2f5846cb45)"/><path d="M92.28,80.85a.67.67,0,0,0,.26,0,.44.44,0,0,0,.16-.14.42.42,0,0,0,0-.2.33.33,0,0,0,0-.17.43.43,0,0,0-.11-.12.42.42,0,0,0-.15,0h0a.52.52,0,0,0,.13-.06l.09-.1a.32.32,0,0,0,0-.14.41.41,0,0,0,0-.19.4.4,0,0,0-.16-.12.58.58,0,0,0-.25-.05h-.56v1.39ZM92.19,80H92V79.7h.22a.25.25,0,0,1,.15,0,.17.17,0,0,1,.05.12.29.29,0,0,1,0,.09.16.16,0,0,1-.08.06.2.2,0,0,1-.11,0Zm0,.57H92v-.37h.24a.21.21,0,0,1,.12,0,.12.12,0,0,1,.08.06.2.2,0,0,1,0,.11.14.14,0,0,1-.06.12A.26.26,0,0,1,92.21,80.61Zm1.67.24v-.24h-.64v-.33h.59V80h-.59V79.7h.64v-.24h-.94v1.39Zm.9,0V79.7h.42v-.24H94.06v.24h.42v1.15Zm.68,0,.1-.32h.5l.1.32h.32L96,79.46h-.38l-.48,1.39ZM96,80.3h-.36l.18-.52h0Z" transform="translate(0 -4)" fill="#190026"/><rect id="b1101971-1006-4728-ba51-a9af78098b6c" data-name="b" x="76" y="8" width="90" height="80" rx="4"/><rect x="76" y="8" width="90" height="80" rx="4" fill="#fff" stroke="#d8d8d8" stroke-miterlimit="10"/><rect x="76" y="61" width="90" height="20" fill="#45a1ff"/><rect x="85" y="24" width="72" height="7" fill="#d8d8d8"/><rect x="85" y="42" width="72" height="8" fill="#d8d8d8"/><rect x="103" y="67" width="54" height="8" fill="#fff"/><path d="M93.59,78.51h4.14a1.27,1.27,0,0,0-1.27-1.27H92.32A1.27,1.27,0,0,0,93.59,78.51Z" transform="translate(0 -4)" fill="#087c8d" fill-rule="evenodd"/><path d="M95.91,71.69,91.4,69.14a1,1,0,0,0-1,0l-4.51,2.55a1.07,1.07,0,0,0-.54.94v5.11a1.07,1.07,0,0,0,.54.93l4.51,2.56a1,1,0,0,0,1,0l4.51-2.56a1,1,0,0,0,.54-.93V72.63A1,1,0,0,0,95.91,71.69Z" transform="translate(0 -4)"/><path d="M91.05,70.9a.44.44,0,0,1,.44.38v3.46a.4.4,0,0,1,.1.72l-.1.06v4.09a.43.43,0,0,1-.44.42.44.44,0,0,1-.45-.38V75.89a.34.34,0,0,1-.24-.18.39.39,0,0,1,.14-.53l.1-.06v-3.8A.44.44,0,0,1,91.05,70.9Zm-3.39,5.79a.4.4,0,0,1,.54.14.39.39,0,0,1-.14.54l-.41.25a.39.39,0,0,1-.54-.14.4.4,0,0,1,.14-.54Zm1.76-1a.39.39,0,1,1,.39.68l-.68.39a.4.4,0,0,1-.54-.15.38.38,0,0,1,.14-.53ZM93,73.6a.4.4,0,0,1,.54.15.38.38,0,0,1-.14.53l-.69.4a.4.4,0,0,1-.54-.15.39.39,0,0,1,.15-.53Zm1.48-.88a.4.4,0,0,1,.54.15.38.38,0,0,1-.14.53l-.4.25a.39.39,0,0,1-.54-.14A.4.4,0,0,1,94,73Z" transform="translate(0 -4)" fill="url(#b55f0edc-bac2-41f0-b517-91dd05f72c7a)"/><path d="M87.65,72.72l.46.3a.39.39,0,0,1,.15.53.42.42,0,0,1-.55.15l-.46-.3a.39.39,0,0,1,.4-.68Zm1.48.88.68.4a.39.39,0,0,1,.15.53.4.4,0,0,1-.54.15l-.69-.4a.38.38,0,0,1-.14-.53A.4.4,0,0,1,89.13,73.6Zm1.77,1.18.69.4a.38.38,0,0,1,.14.53.4.4,0,0,1-.54.15l-.69-.4a.39.39,0,0,1,.4-.68Zm1.77.89.69.39a.38.38,0,0,1,.14.53.4.4,0,0,1-.54.15l-.68-.39a.39.39,0,1,1,.39-.68Zm1.7,1,.47.28a.39.39,0,1,1-.4.68L94,77.34a.4.4,0,0,1-.15-.54A.41.41,0,0,1,94.37,76.66Z" transform="translate(0 -4)" fill="url(#e99a3fb6-c238-48ba-819e-1815594b09f1)"/><path d="M92,78.51h5.74a3.17,3.17,0,0,1-3.17,3.17H91.41a1,1,0,0,1-1-1V80.1A1.59,1.59,0,0,1,92,78.51Z" transform="translate(0 -4)" fill-rule="evenodd" fill="url(#f1ed5d5b-494c-419d-8d66-eb2f5846cb45)"/><path d="M92.28,80.85a.67.67,0,0,0,.26,0,.44.44,0,0,0,.16-.14.42.42,0,0,0,0-.2.33.33,0,0,0,0-.17.43.43,0,0,0-.11-.12.42.42,0,0,0-.15,0h0a.52.52,0,0,0,.13-.06l.09-.1a.32.32,0,0,0,0-.14.41.41,0,0,0,0-.19.4.4,0,0,0-.16-.12.58.58,0,0,0-.25-.05h-.56v1.39ZM92.19,80H92V79.7h.22a.25.25,0,0,1,.15,0,.17.17,0,0,1,.05.12.29.29,0,0,1,0,.09.16.16,0,0,1-.08.06.2.2,0,0,1-.11,0Zm0,.57H92v-.37h.24a.21.21,0,0,1,.12,0,.12.12,0,0,1,.08.06.2.2,0,0,1,0,.11.14.14,0,0,1-.06.12A.26.26,0,0,1,92.21,80.61Zm1.67.24v-.24h-.64v-.33h.59V80h-.59V79.7h.64v-.24h-.94v1.39Zm.9,0V79.7h.42v-.24H94.06v.24h.42v1.15Zm.68,0,.1-.32h.5l.1.32h.32L96,79.46h-.38l-.48,1.39ZM96,80.3h-.36l.18-.52h0Z" transform="translate(0 -4)" fill="#190026"/><polygon points="140.15 85.47 142.01 84.47 143.63 83.63 141.06 78.81 145.39 78.81 134.01 67.41 134.01 83.42 137.33 80.2 140.15 85.47" fill="#fff" fill-rule="evenodd"/><polygon points="140.43 84 142.2 83.06 139.42 77.86 143.03 77.86 135 69.81 135 81 137.53 78.56 140.43 84" fill-rule="evenodd"/><path d="M132.35,68.44a1,1,0,0,0,.62-1.2l0-.09-3.62-9.42a1,1,0,0,0-1.91.63l0,.09,3.62,9.42A1,1,0,0,0,132.35,68.44Zm-8.9,6.25a1,1,0,0,0-.11-1.33l-.08-.06-8.14-6a1,1,0,0,0-1.41.2,1,1,0,0,0,.12,1.33l.07.06,8.15,6A1,1,0,0,0,123.45,74.69Zm19.22-6.91a1,1,0,0,0,1.19-.79l2-9.94,0-.1a1,1,0,0,0-.81-1.06,1,1,0,0,0-1.18.79l-2,9.94,0,.1a1,1,0,0,0,.8,1.06Zm20.68,27.8a1,1,0,0,0-.12-1.33l-.07-.06-8.15-6a1,1,0,0,0-1.4.21,1,1,0,0,0,.11,1.33l.08.06,8.14,6A1,1,0,0,0,163.35,95.58Zm-30.14,13.18a1,1,0,0,0,1.18-.79l2-9.94v-.09a1,1,0,0,0-.8-1.07,1,1,0,0,0-1.18.79l-2,9.94v.1a1,1,0,0,0,.8,1.06Zm16.49-2.69a1,1,0,0,0,.61-1.2l0-.09-3.62-9.42a1,1,0,0,0-1.29-.57,1,1,0,0,0-.62,1.2l0,.09,3.62,9.42A1,1,0,0,0,149.7,106.07Z" transform="translate(0 -4)" fill="url(#f4790d10-a49e-4a00-aa0b-52cb236b46bf)"/></svg>