<svg id="b0baafd1-a0b7-4ce4-b413-2c18649a1d57" data-name="Layer 1" xmlns="http://www.w3.org/2000/svg" xmlns:xlink="http://www.w3.org/1999/xlink" viewBox="0 0 168 103"><defs><linearGradient id="b8506cfb-9570-4361-b29c-aa887e6b8cbe" x1="-54.36" y1="195.13" x2="-53.86" y2="195.13" gradientTransform="matrix(49, 0, 0, -63, 2688, 12344)" gradientUnits="userSpaceOnUse"><stop offset="0" stop-color="#fff"/><stop offset="1" stop-color="#fff" stop-opacity="0"/></linearGradient><linearGradient id="a1e6a1f7-e129-47ad-885b-66a94bad9275" x1="-54.49" y1="195.61" x2="-55.48" y2="195.23" gradientTransform="matrix(117.83, 6.18, 3.98, -75.91, 5768.99, 15225.42)" gradientUnits="userSpaceOnUse"><stop offset="0" stop-color="#ff9100"/><stop offset="0.52" stop-color="#f10366"/><stop offset="1" stop-color="#6173ff"/></linearGradient></defs><title>tip3-icon</title><circle cx="116.5" cy="51.5" r="51.5" fill="#eee6f4"/><rect id="e805b499-f839-44c6-86ee-23870ff2d6a4" data-name="b" x="6.29" y="36" width="145.71" height="30" rx="4"/><rect x="6.29" y="36" width="145.71" height="30" rx="4" fill="#fff"/><path d="M137,25h7a4,4,0,0,1,4,4h0a4,4,0,0,1-4,4h-7a4,4,0,0,1-4-4h0A4,4,0,0,1,137,25Z" transform="translate(0 -2)" fill="#0060df" fill-rule="evenodd"/><circle cx="144" cy="27" r="3" fill="#fff"/><rect x="82.6" y="41.77" width="23.13" height="9.23" rx="2" fill="#ededf0"/><rect x="114.99" y="41.77" width="23.13" height="9.23" rx="2" fill="#737373"/><rect x="82.6" y="55.62" width="23.13" height="4.62" rx="2" fill="#ededf0"/><rect x="114.99" y="55.62" width="23.13" height="4.62" rx="2" fill="#737373"/><rect y="19" width="49" height="63" fill="url(#b8506cfb-9570-4361-b29c-aa887e6b8cbe)"/><path d="M122.22,17.84a1.11,1.11,0,0,1,.38.09l.17.09.21.15a7.57,7.57,0,0,1,.72.64c.26.26.54.56.83.88.58.65,1.2,1.4,1.71,2.1a15.35,15.35,0,0,1,.89,1.31,4.77,4.77,0,0,1,.32.64,1.59,1.59,0,0,1,.1.33.89.89,0,0,1,0,.46.79.79,0,0,1-.13.26,1,1,0,0,1-.25.22,1.06,1.06,0,0,1-.21.11,4.49,4.49,0,0,1-.48.16c-.35.09-.78.16-1.26.24-1,.14-2.16.26-3.26.32-.72,0-1.4.07-1.95.06-.31,0-.57,0-.8,0a1.72,1.72,0,0,1-.36-.09.85.85,0,0,1-.23-.12,1,1,0,0,1-.17-.18.76.76,0,0,1-.11-.35.93.93,0,0,1,0-.24.91.91,0,0,1,.12-.22.53.53,0,0,1,.15-.15l0,0,.27-.19c.35-.25.66-.49.91-.71a4.86,4.86,0,0,0,.78-.81l0,0c-10.12-4.28-18.63-3.26-26.2,2.29C88.25,29.58,83,36.7,77,47.8l-.48.9c-1.39,2.63-7.2,13.8-9,17l-.06.11a51.52,51.52,0,0,1-4.74,7.09C56.25,80.7,48,82.93,40.53,79.64a19.08,19.08,0,0,1-3.34-1.91L37,77.61l-.26.23c-1.09,1-2.24,1.88-3.43,2.77l-.33.24c-10.85,8-21.83,10.07-26.55,3.75a.87.87,0,0,1,.18-1.21.88.88,0,0,1,1.22.18c3.93,5.28,14,3.35,24.12-4.11,1.26-.92,2.46-1.89,3.61-2.89l.07-.06-.08-.07a24,24,0,0,1-7.67-16.06l0-.29c-.6-8.52,3.57-16.11,9.47-18.65C43.6,38.76,49,42.78,50.1,52.21c.87,7.68-3.84,16.64-11.58,24l-.19.18.15.1A15.85,15.85,0,0,0,41,78l.22.1c6.71,3,14.16,1,20.1-6.28a51.91,51.91,0,0,0,4.58-6.86l.27-.48c2.14-3.82,8.25-15.59,9-17l.52-1c6.06-11,11.34-18.19,17.74-22.89,8.06-5.91,17.21-7,27.88-2.5v.08a13.72,13.72,0,0,0,.15-2.55.86.86,0,0,1,0-.22.81.81,0,0,1,.13-.29.86.86,0,0,1,.3-.23A.89.89,0,0,1,122.22,17.84ZM38,42.92c-5.15,2.19-8.86,9-8.26,16.85A22.76,22.76,0,0,0,36.93,75l.24.2,0,0c7.39-7,11.89-15.43,11.17-22.53l0-.25C47.35,44,43,40.78,38,42.92Z" transform="translate(0 -2)" fill="url(#a1e6a1f7-e129-47ad-885b-66a94bad9275)"/></svg>