<svg width="314" height="226" viewBox="0 0 314 226" fill="none" xmlns="http://www.w3.org/2000/svg">
<g clip-path="url(#clip0)">
<path fill-rule="evenodd" clip-rule="evenodd" d="M0.955566 268.666L0.96078 46.9491C0.96078 21.0208 19.0463 0 41.356 0H272.852C295.161 0 313.247 21.0208 313.247 46.9491L313.242 268.666" fill="#F0F0F4"/>
<path d="M188.236 20.7148H126.144C124.39 20.7148 122.968 22.1373 122.968 23.892V24.4423C122.968 26.197 124.39 27.6195 126.144 27.6195H188.236C189.989 27.6195 191.411 26.197 191.411 24.4423V23.892C191.411 22.1373 189.989 20.7148 188.236 20.7148Z" fill="#D1D1D7" fill-opacity="0.6"/>
<path fill-rule="evenodd" clip-rule="evenodd" d="M290.229 46.0332C292.12 46.0332 293.653 48.0774 293.653 50.6001L293.256 272.337H22.563L22.9608 50.6001C22.9608 48.0774 24.494 46.0332 26.3853 46.0332H290.229Z" fill="white"/>
<path fill-rule="evenodd" clip-rule="evenodd" d="M290.229 46.0332C292.12 46.0332 293.654 47.9024 293.654 50.209V62.598H22.9609V50.209C22.9609 47.9024 24.4942 46.0332 26.3855 46.0332H290.229Z" fill="#D1D1D7"/>
<path fill-rule="evenodd" clip-rule="evenodd" d="M169.509 112.71L169.436 112.702C168.381 112.533 167.434 111.959 166.794 111.103C166.05 110.092 165.637 108.876 165.609 107.621C165.559 107.068 165.559 105.855 165.559 105.18C165.558 104.588 165.982 104.082 166.564 103.98L169.509 103.474L172.453 103.98C173.036 104.081 173.461 104.588 173.46 105.18C173.46 105.854 173.46 107.068 173.407 107.621C173.38 108.876 172.966 110.092 172.222 111.103C171.582 111.959 170.635 112.533 169.581 112.702L169.509 112.71ZM166.876 105.262C166.876 105.669 166.871 106.029 166.867 106.339C166.861 106.844 166.856 107.215 166.876 107.436C166.893 108.477 167.236 109.486 167.855 110.323C168.26 110.865 168.848 111.24 169.509 111.38C170.171 111.24 170.759 110.865 171.163 110.323C171.783 109.486 172.126 108.477 172.143 107.436C172.163 107.215 172.158 106.844 172.152 106.339C172.148 106.029 172.143 105.669 172.143 105.262L169.509 104.811L166.876 105.262ZM167.863 106.095L169.509 105.813V110.359H169.504C169.162 110.245 168.864 110.028 168.648 109.738C168.151 109.066 167.89 108.249 167.904 107.413C167.883 107.186 167.869 106.716 167.863 106.095Z" fill="white"/>
<path d="M136.483 157.084L133.051 164.886L129.605 157.084H128.483L132.483 166.153H133.605L137.605 157.084H136.483ZM139.069 166.153H140.098V162.892H142.752C144.626 162.892 146.091 161.691 146.091 159.988C146.091 158.285 144.626 157.084 142.752 157.084H139.069V166.153ZM140.098 161.915V158.061H142.567C144.045 158.061 145.049 158.774 145.049 159.988C145.049 161.203 144.045 161.915 142.567 161.915H140.098ZM147.762 166.153H148.792V158.774L154.415 166.153H155.445V157.084H154.415V164.463L148.792 157.084H147.762V166.153ZM162 158.087C162.356 158.087 162.647 157.784 162.647 157.427C162.647 157.084 162.356 156.78 162 156.78C161.63 156.78 161.34 157.084 161.34 157.427C161.34 157.784 161.63 158.087 162 158.087ZM161.498 166.153H162.488V159.328H161.498V166.153ZM166.892 166.311C168.305 166.311 169.387 165.506 169.387 164.252C169.387 162.958 168.252 162.589 167.156 162.245C165.889 161.836 165.387 161.651 165.387 161.057C165.387 160.397 166.021 160.054 166.787 160.054C167.394 160.054 168.067 160.265 168.754 160.701L169.229 159.935C168.503 159.46 167.631 159.17 166.787 159.17C165.427 159.17 164.397 159.935 164.397 161.176C164.397 162.153 165.031 162.641 166.681 163.117C167.605 163.381 168.397 163.618 168.397 164.358C168.397 165.004 167.79 165.427 166.892 165.427C166.14 165.427 165.361 165.136 164.582 164.569L164.067 165.295C164.886 165.955 165.942 166.311 166.892 166.311ZM178.022 166.311C179.936 166.311 181.547 164.674 181.547 162.734C181.547 160.793 179.936 159.17 178.022 159.17C176.108 159.17 174.484 160.793 174.484 162.734C174.484 164.674 176.108 166.311 178.022 166.311ZM178.022 165.427C176.662 165.427 175.527 164.199 175.527 162.734C175.527 161.282 176.662 160.054 178.022 160.054C179.369 160.054 180.504 161.282 180.504 162.734C180.504 164.199 179.369 165.427 178.022 165.427ZM186.429 159.17C185.465 159.17 184.581 159.698 184.185 160.424V159.328H183.195V166.153H184.185V161.81C184.185 160.859 185.149 160.054 186.297 160.054C187.3 160.054 188 160.833 188 161.942V166.153H188.99V161.81C188.99 160.265 187.934 159.17 186.429 159.17Z" fill="white"/>
<path d="M81.62 106H99.8V101.896H88.604L93.788 97.72C98.036 94.444 99.548 91.816 99.548 88.54C99.548 83.968 95.804 80.836 90.908 80.836C86.912 80.836 83.924 82.6 81.584 85.66L84.5 88.36C86.3 86.2 88.172 84.868 90.764 84.868C92.996 84.868 94.976 86.308 94.976 88.648C94.976 90.664 93.86 92.536 90.728 95.056L81.62 102.328V106ZM112.491 106.432C118.143 106.432 121.995 103.12 121.995 98.008C121.995 93.04 118.215 90.232 113.823 90.232C111.699 90.232 110.079 90.88 108.819 91.744L109.035 85.372H120.663V81.268H104.823L104.463 94.408L107.523 95.704C108.927 94.624 110.619 93.976 112.563 93.976C115.515 93.976 117.495 95.668 117.495 98.188C117.495 100.6 115.587 102.544 112.563 102.544C110.079 102.544 107.811 101.284 105.903 99.412L103.239 102.616C105.435 104.92 108.459 106.432 112.491 106.432ZM131.187 93.58C134.751 93.58 137.235 90.88 137.235 87.316C137.235 83.86 134.823 81.052 131.187 81.052C127.623 81.052 125.175 83.824 125.175 87.352C125.175 90.808 127.587 93.58 131.187 93.58ZM128.343 106H131.655L148.755 81.268H145.443L128.343 106ZM131.187 90.88C129.531 90.88 128.271 89.404 128.271 87.352C128.271 85.192 129.495 83.752 131.187 83.752C132.843 83.752 134.103 85.228 134.103 87.352C134.103 89.44 132.879 90.88 131.187 90.88ZM145.803 106.36C149.367 106.36 151.851 103.624 151.851 100.06C151.851 96.64 149.475 93.796 145.839 93.796C142.239 93.796 139.791 96.604 139.791 100.096C139.791 103.624 142.275 106.36 145.803 106.36ZM145.839 103.66C144.147 103.66 142.923 102.184 142.923 100.06C142.923 98.008 144.111 96.532 145.803 96.532C147.495 96.532 148.755 98.008 148.755 100.096C148.755 102.22 147.531 103.66 145.839 103.66ZM178.147 106.432C185.167 106.432 191.107 100.564 191.107 93.616C191.107 86.668 185.167 80.836 178.147 80.836C171.091 80.836 165.151 86.668 165.151 93.616C165.151 100.564 171.091 106.432 178.147 106.432ZM178.147 102.328C173.575 102.328 169.723 98.368 169.723 93.616C169.723 88.9 173.575 84.94 178.147 84.94C182.683 84.94 186.499 88.9 186.499 93.616C186.499 98.368 182.683 102.328 178.147 102.328ZM213.844 85.372V81.268H195.232V106H199.732V95.74H212.512V91.636H199.732V85.372H213.844ZM236.379 85.372V81.268H217.767V106H222.267V95.74H235.047V91.636H222.267V85.372H236.379Z" fill="#D1D1D7"/>
<rect x="35" y="126" width="244" height="37" rx="5" stroke="#D1D1D7" stroke-width="2"/>
<rect x="34" y="172" width="246" height="39" rx="6" fill="#F0F0F4"/>
<g clip-path="url(#clip1)">
<path d="M267.693 137.272L258.895 132.256C258.586 132.086 258.24 131.997 257.889 131.997C257.537 131.997 257.191 132.086 256.882 132.256L248.053 137.272C247.735 137.454 247.469 137.718 247.284 138.038C247.099 138.357 247.001 138.721 247 139.091V149.094C246.997 149.465 247.094 149.83 247.279 150.15C247.464 150.47 247.732 150.734 248.053 150.912L256.851 155.898C257.159 156.086 257.513 156.183 257.873 156.18C258.232 156.179 258.585 156.082 258.895 155.898L267.693 150.912C268.012 150.73 268.277 150.466 268.462 150.147C268.647 149.827 268.745 149.464 268.746 149.094V139.091C268.755 138.719 268.661 138.351 268.475 138.03C268.289 137.709 268.018 137.446 267.693 137.272Z" fill="url(#paint0_linear)"/>
<path d="M251.739 146.712L251.213 147.026C251.118 147.079 251.036 147.15 250.969 147.235C250.902 147.321 250.853 147.419 250.824 147.524C250.795 147.629 250.787 147.739 250.801 147.847C250.814 147.956 250.849 148.06 250.903 148.154C250.972 148.285 251.075 148.395 251.2 148.472C251.325 148.55 251.469 148.591 251.615 148.593C251.755 148.592 251.892 148.56 252.018 148.499L252.545 148.186C252.639 148.133 252.722 148.062 252.788 147.976C252.855 147.89 252.904 147.792 252.933 147.687C252.962 147.582 252.97 147.472 252.956 147.364C252.943 147.256 252.908 147.152 252.854 147.057C252.807 146.957 252.739 146.869 252.656 146.797C252.573 146.725 252.476 146.671 252.371 146.639C252.266 146.606 252.156 146.596 252.048 146.609C251.939 146.621 251.834 146.657 251.739 146.712ZM254.961 144.862L253.877 145.489C253.782 145.542 253.7 145.613 253.633 145.699C253.566 145.785 253.517 145.883 253.488 145.988C253.459 146.093 253.451 146.203 253.465 146.311C253.478 146.419 253.513 146.524 253.567 146.618C253.636 146.749 253.739 146.859 253.864 146.936C253.989 147.013 254.133 147.055 254.279 147.057C254.419 147.056 254.556 147.024 254.682 146.963L255.766 146.336C255.861 146.283 255.943 146.212 256.01 146.126C256.077 146.04 256.126 145.942 256.155 145.837C256.184 145.732 256.192 145.622 256.178 145.514C256.165 145.406 256.13 145.302 256.076 145.207C256.028 145.107 255.961 145.019 255.877 144.947C255.794 144.875 255.697 144.821 255.593 144.789C255.488 144.756 255.378 144.746 255.269 144.759C255.161 144.771 255.056 144.807 254.961 144.862ZM259.329 143.329C259.285 143.24 259.224 143.161 259.15 143.096C259.075 143.031 258.989 142.983 258.895 142.953V136.647C258.895 136.536 258.874 136.425 258.832 136.322C258.79 136.22 258.729 136.126 258.651 136.047C258.573 135.969 258.481 135.906 258.379 135.864C258.277 135.821 258.169 135.8 258.059 135.8C257.95 135.801 257.843 135.823 257.744 135.866C257.644 135.909 257.554 135.972 257.479 136.051C257.404 136.13 257.345 136.223 257.306 136.326C257.268 136.428 257.249 136.537 257.253 136.647V142.981C257.16 143.011 257.073 143.06 256.999 143.124C256.924 143.189 256.863 143.268 256.82 143.357C256.761 143.467 256.728 143.589 256.723 143.714C256.718 143.839 256.74 143.963 256.789 144.078C256.74 144.193 256.718 144.318 256.723 144.442C256.728 144.567 256.761 144.689 256.82 144.799C256.863 144.888 256.924 144.968 256.999 145.032C257.073 145.097 257.16 145.146 257.253 145.176V151.51C257.253 151.734 257.341 151.949 257.498 152.108C257.655 152.267 257.868 152.356 258.09 152.356C258.311 152.356 258.524 152.267 258.681 152.108C258.838 151.949 258.926 151.734 258.926 151.51V145.144C259.019 145.114 259.106 145.065 259.181 145.001C259.255 144.936 259.316 144.857 259.36 144.768C259.418 144.658 259.451 144.536 259.456 144.411C259.462 144.286 259.439 144.162 259.391 144.047C259.462 143.808 259.44 143.551 259.329 143.329ZM261.438 141.162L260.354 141.789C260.26 141.842 260.177 141.913 260.11 141.999C260.043 142.085 259.994 142.183 259.965 142.288C259.937 142.393 259.929 142.503 259.942 142.611C259.956 142.719 259.99 142.824 260.044 142.918C260.113 143.049 260.216 143.159 260.341 143.236C260.467 143.313 260.61 143.355 260.757 143.357C260.896 143.356 261.034 143.324 261.159 143.263L262.244 142.636C262.338 142.583 262.421 142.512 262.487 142.426C262.554 142.34 262.603 142.242 262.632 142.137C262.661 142.032 262.669 141.922 262.655 141.814C262.642 141.706 262.607 141.602 262.553 141.507C262.506 141.407 262.438 141.319 262.355 141.247C262.272 141.175 262.175 141.121 262.07 141.089C261.965 141.056 261.855 141.046 261.747 141.059C261.638 141.071 261.533 141.107 261.438 141.162ZM264.006 141.476C264.146 141.475 264.283 141.442 264.409 141.382L264.936 141.068C265.03 141.015 265.112 140.943 265.179 140.858C265.246 140.772 265.295 140.674 265.324 140.569C265.353 140.463 265.362 140.354 265.349 140.245C265.336 140.137 265.302 140.032 265.249 139.937C265.196 139.842 265.125 139.759 265.04 139.692C264.955 139.625 264.857 139.575 264.753 139.546C264.649 139.517 264.541 139.509 264.434 139.523C264.327 139.537 264.224 139.572 264.13 139.626L263.604 139.939C263.509 139.992 263.426 140.063 263.36 140.149C263.293 140.235 263.244 140.333 263.215 140.438C263.186 140.543 263.178 140.653 263.192 140.761C263.205 140.869 263.24 140.974 263.294 141.068C263.365 141.195 263.468 141.3 263.594 141.372C263.72 141.444 263.862 141.48 264.006 141.476ZM264.936 147.026L264.409 146.712C264.22 146.605 263.997 146.578 263.789 146.638C263.58 146.697 263.404 146.837 263.297 147.028C263.191 147.218 263.163 147.444 263.221 147.655C263.278 147.866 263.416 148.046 263.604 148.154L264.13 148.468C264.256 148.529 264.393 148.561 264.533 148.562C264.68 148.56 264.823 148.518 264.948 148.441C265.074 148.364 265.176 148.254 265.245 148.123C265.301 148.032 265.337 147.93 265.351 147.823C265.366 147.717 265.358 147.609 265.329 147.505C265.3 147.402 265.25 147.306 265.182 147.224C265.114 147.141 265.03 147.074 264.936 147.026ZM262.241 145.489L261.156 144.862C261.063 144.808 260.959 144.773 260.853 144.759C260.746 144.746 260.637 144.754 260.533 144.783C260.429 144.812 260.332 144.861 260.247 144.928C260.162 144.995 260.091 145.079 260.038 145.174C259.985 145.269 259.951 145.373 259.938 145.482C259.925 145.59 259.933 145.7 259.962 145.805C259.991 145.91 260.041 146.008 260.107 146.094C260.174 146.18 260.257 146.251 260.351 146.305L261.435 146.932C261.561 146.992 261.698 147.024 261.838 147.026C261.984 147.024 262.128 146.982 262.253 146.905C262.379 146.827 262.481 146.718 262.55 146.587C262.607 146.495 262.643 146.393 262.658 146.287C262.673 146.18 262.666 146.072 262.637 145.968C262.607 145.865 262.557 145.769 262.489 145.686C262.421 145.604 262.336 145.537 262.241 145.489ZM253.877 142.605L254.961 143.232C255.087 143.292 255.224 143.325 255.364 143.326C255.51 143.324 255.654 143.282 255.779 143.205C255.904 143.127 256.007 143.018 256.076 142.887C256.13 142.792 256.165 142.688 256.178 142.58C256.192 142.471 256.184 142.362 256.155 142.257C256.126 142.152 256.077 142.053 256.01 141.968C255.943 141.882 255.861 141.811 255.766 141.758L254.682 141.131C254.589 141.076 254.486 141.041 254.379 141.028C254.272 141.014 254.163 141.022 254.06 141.051C253.956 141.08 253.859 141.13 253.774 141.198C253.69 141.265 253.619 141.349 253.567 141.444C253.463 141.641 253.437 141.871 253.495 142.086C253.552 142.302 253.689 142.487 253.877 142.605ZM252.545 139.939L252.018 139.626C251.924 139.572 251.821 139.537 251.714 139.523C251.607 139.509 251.499 139.517 251.395 139.546C251.291 139.575 251.194 139.625 251.109 139.692C251.024 139.759 250.952 139.842 250.899 139.937C250.846 140.032 250.812 140.137 250.799 140.245C250.786 140.354 250.795 140.463 250.824 140.569C250.853 140.674 250.902 140.772 250.969 140.858C251.036 140.943 251.119 141.015 251.213 141.068L251.739 141.382C251.865 141.442 252.003 141.475 252.142 141.476C252.289 141.474 252.432 141.432 252.557 141.355C252.683 141.277 252.785 141.168 252.854 141.037C252.907 140.945 252.941 140.843 252.954 140.737C252.967 140.631 252.959 140.524 252.93 140.421C252.901 140.319 252.852 140.224 252.786 140.141C252.719 140.058 252.638 139.989 252.545 139.939Z" fill="#20133A"/>
</g>
<path d="M64 139C64 137.9 63.1 137 62 137H46C44.9 137 44 137.9 44 139V151C44 152.1 44.9 153 46 153H62C63.1 153 64 152.1 64 151V139ZM62 139L54 144L46 139H62ZM62 151H46V141L54 146L62 141V151Z" fill="#F0F0F4"/>
</g>
<defs>
<linearGradient id="paint0_linear" x1="247" y1="144.089" x2="268.749" y2="144.089" gradientUnits="userSpaceOnUse">
<stop stop-color="#9059FF"/>
<stop offset="1" stop-color="#F770FF"/>
</linearGradient>
<clipPath id="clip0">
<rect width="314" height="226" fill="white"/>
</clipPath>
<clipPath id="clip1">
<rect width="23.9144" height="25" fill="white" transform="translate(247 132)"/>
</clipPath>
</defs>
</svg>
