<svg id="a1c0da82-fedc-42d3-ae29-39a4afd44084" data-name="Layer 1" xmlns="http://www.w3.org/2000/svg" xmlns:xlink="http://www.w3.org/1999/xlink" viewBox="0 0 303.82 280"><defs><mask id="a9c0bad3-6408-4302-9619-56ff3628b2ac" x="3.82" y="0" width="300" height="280" maskUnits="userSpaceOnUse"><g transform="translate(3.82)"><g id="f06ca77c-5950-48b5-b35c-2f37b6c354e1" data-name="c"><rect id="e5141ef4-c103-410d-9ba6-74bd46d2d682" data-name="b" width="300" height="280" rx="12" fill="#fff"/></g></g></mask><mask id="be01523e-9cef-4bef-a1c3-01ff2dd90061" x="2.53" y="0" width="301.29" height="280" maskUnits="userSpaceOnUse"><g transform="translate(3.82)"><g id="fb66317d-551e-4cf9-a76d-b9763c9eb00d" data-name="c"><rect id="a99981f7-fd8d-472a-84e7-b0a905c2daa5" data-name="b" width="300" height="280" rx="12" fill="#fff"/></g></g></mask><mask id="a97899d6-2bb4-42db-b99d-06f4e3a7b222" x="0" y="0" width="303.82" height="280" maskUnits="userSpaceOnUse"><g transform="translate(3.82)"><g id="ae153afc-f7d2-4428-8748-c88cd8d2a8a4" data-name="c"><rect id="b79cc1d5-58ab-4f5d-b314-20ccc40c8565" data-name="b" width="300" height="280" rx="12" fill="#fff"/></g></g></mask><linearGradient id="bb7f4635-90e7-43c0-972c-bb398537d2e3" x1="191.67" y1="152.86" x2="186.27" y2="147.75" gradientTransform="translate(68.56 -11.81)" gradientUnits="userSpaceOnUse"><stop offset="0" stop-color="#054096" stop-opacity="0.5"/><stop offset="0.05" stop-color="#0f3d9c" stop-opacity="0.44"/><stop offset="0.26" stop-color="#2f35b1" stop-opacity="0.25"/><stop offset="0.47" stop-color="#462fbf" stop-opacity="0.11"/><stop offset="0.67" stop-color="#542bc8" stop-opacity="0.03"/><stop offset="0.86" stop-color="#592acb" stop-opacity="0"/></linearGradient><linearGradient id="adfee34e-a338-4a9f-87e6-9d4e5ce41c19" x1="232.87" y1="130.73" x2="256.66" y2="130.73" gradientUnits="userSpaceOnUse"><stop offset="0" stop-color="#9059ff"/><stop offset="1" stop-color="#f770ff"/></linearGradient><linearGradient id="e76d15e2-4860-4baa-9a0c-7645cee8383e" x1="232.87" y1="128.13" x2="256.66" y2="128.13" xlink:href="#adfee34e-a338-4a9f-87e6-9d4e5ce41c19"/><linearGradient id="af06c04d-c427-4908-b85d-4363eaab72ae" x1="232.87" y1="125.3" x2="256.66" y2="125.3" xlink:href="#adfee34e-a338-4a9f-87e6-9d4e5ce41c19"/><linearGradient id="a2586684-30e6-4d55-abfd-29ef2f2f1946" x1="232.87" y1="122.47" x2="256.66" y2="122.47" xlink:href="#adfee34e-a338-4a9f-87e6-9d4e5ce41c19"/><linearGradient id="a0e6d0fb-d288-47b6-aaf1-ebfdc46e025b" x1="232.87" y1="119.87" x2="256.66" y2="119.87" xlink:href="#adfee34e-a338-4a9f-87e6-9d4e5ce41c19"/><linearGradient id="bf4c2a0b-eabd-4ea6-9541-19dfde86dab4" x1="245.51" y1="136.02" x2="265" y2="144.27" gradientUnits="userSpaceOnUse"><stop offset="0" stop-color="#54ffbd"/><stop offset="1" stop-color="#0df"/></linearGradient><linearGradient id="b5a149d1-0bb6-4f2b-8584-9c57543056a5" x1="-528.65" y1="523.12" x2="-529.64" y2="522.7" gradientTransform="matrix(226, 0, 0, -152, 119690.98, 79668)" gradientUnits="userSpaceOnUse"><stop offset="0" stop-color="#ff9100"/><stop offset="0.52" stop-color="#f10366"/><stop offset="1" stop-color="#6173ff"/></linearGradient></defs><rect id="e09bb0a5-c210-4060-ac5f-0623b018c0fe" data-name="b" x="3.82" width="300" height="280" rx="12" fill="#f2f2f5"/><g mask="url(#a9c0bad3-6408-4302-9619-56ff3628b2ac)"><path d="M141,161H274v37H141Z" transform="translate(3.82)" fill="#b1b1b3" fill-rule="evenodd"/></g><g mask="url(#a9c0bad3-6408-4302-9619-56ff3628b2ac)"><path d="M182.3,184.1a2.43,2.43,0,0,0,2.68-2.29c0-1.58-1.29-1.94-2.41-2.18-.91-.21-1.64-.32-1.64-.91s.34-.87,1.13-.87a1.89,1.89,0,0,1,1.71.91l1.15-.9a3.49,3.49,0,0,0-2.84-1.27,2.34,2.34,0,0,0-2.59,2.16c0,1.48,1.22,1.83,2.31,2.06s1.71.37,1.71,1.05c0,.53-.41.91-1.2.91a2.24,2.24,0,0,1-2-1.15l-1.23,1a3.79,3.79,0,0,0,3.22,1.5Zm5.64,0a1.87,1.87,0,0,0,1.56-.79V184h1.38v-5.4h-1.4v3c0,.84-.48,1.31-1.13,1.31s-1.1-.47-1.1-1.23V178.6h-1.41v3.24a2,2,0,0,0,2.1,2.27Zm7.1,0a2.82,2.82,0,0,0,0-5.62,2,2,0,0,0-1.69.85v-3.23H192V184h1.36v-.75A2,2,0,0,0,195,184.11Zm-.28-1.3a1.52,1.52,0,1,1,1.49-1.52A1.5,1.5,0,0,1,194.76,182.81Zm5.86,1.3c1.57,0,2.32-.94,2.32-1.78,0-1.16-1.06-1.47-2-1.65s-1.23-.26-1.23-.6.26-.52.8-.52a1.16,1.16,0,0,1,1.06.57l1.26-.51a2.57,2.57,0,0,0-2.32-1.15c-1.33,0-2.21.78-2.21,1.69,0,1.14,1,1.42,1.92,1.61.69.14,1.27.23,1.27.62s-.3.59-.86.59a1.3,1.3,0,0,1-1.24-.73l-1.33.52a2.55,2.55,0,0,0,2.52,1.34Zm5.84,0a2.82,2.82,0,0,0,2.65-1.72l-1.29-.53a1.42,1.42,0,0,1-1.34.94,1.51,1.51,0,0,1,0-3,1.39,1.39,0,0,1,1.34.93l1.27-.51a2.85,2.85,0,0,0-5.46,1.1,2.78,2.78,0,0,0,2.84,2.81Zm4.83-.11v-2.85c0-.91.46-1.27,1.17-1.27a1.26,1.26,0,0,1,.72.19l.5-1.36a2,2,0,0,0-.91-.21,1.48,1.48,0,0,0-1.49.93v-.83h-1.36V184Zm3.8-6a.85.85,0,0,0,.89-.88.89.89,0,1,0-1.77,0A.85.85,0,0,0,215.09,178Zm.71,6v-5.4h-1.41V184Zm4.15.11a2.82,2.82,0,0,0,0-5.62,2,2,0,0,0-1.69.85v-3.23h-1.37V184h1.36v-.75A2,2,0,0,0,220,184.11Zm-.28-1.3a1.52,1.52,0,1,1,1.49-1.52A1.5,1.5,0,0,1,219.67,182.81Zm6.47,1.3a2.84,2.84,0,0,0,2.49-1.25l-1.13-.66a1.47,1.47,0,0,1-1.34.72,1.5,1.5,0,0,1-1.55-1.14h4.29v-.52a2.69,2.69,0,0,0-2.79-2.77,2.79,2.79,0,0,0-2.83,2.82A2.72,2.72,0,0,0,226.14,184.11Zm1.39-3.41h-2.88a1.5,1.5,0,0,1,1.46-1A1.36,1.36,0,0,1,227.53,180.7Z" transform="translate(3.82)" fill="#fff"/></g><g mask="url(#be01523e-9cef-4bef-a1c3-01ff2dd90061)"><path d="M-.79,100.5H275.5v49H-.79Z" transform="translate(3.82)" fill="#fff" stroke="#979797" fill-rule="evenodd"/></g><g mask="url(#a97899d6-2bb4-42db-b99d-06f4e3a7b222)"><path d="M-2.9,130l.56-3.12c.23-1.3.89-2.14,2.1-2.14s1.7.79,1.48,2L.67,130H1.6l.58-3.26c.29-1.7-.55-2.8-2.17-2.8a2.45,2.45,0,0,0-2,1l.17-.89h-.9l-1,5.94Zm8.78,0,.15-.82H6c-1.22,0-1.45-.26-1.22-1.47l.51-2.85H6.79l.14-.8H5.42l.34-1.92-1,.5-.25,1.42H3.43l-.14.8H4.38l-.5,2.85c-.3,1.75.17,2.29,1.87,2.29Zm4.29.12A3.32,3.32,0,0,0,12.8,129l-.71-.54a2.34,2.34,0,0,1-1.86.89,1.93,1.93,0,0,1-2.15-2h5.15l0-.24a2.6,2.6,0,0,0-2.67-3.17,3.31,3.31,0,0,0-3.34,2.73A2.73,2.73,0,0,0,10.17,130.12Zm2.27-3.56H8.18a2.36,2.36,0,0,1,2.37-1.84A1.72,1.72,0,0,1,12.44,126.56ZM15,130l.53-3a2.08,2.08,0,0,1,2.13-2h.57l.17-.92h-.65a2,2,0,0,0-1.93,1.17l.21-1.17h-.88L14.08,130Zm9.67,0,.56-3.21L29.1,122H28l-3.12,3.92L23.14,122h-.95l2.12,4.7L23.73,130Zm6.12.12A3.19,3.19,0,0,0,34,127.46a2.82,2.82,0,0,0-2.81-3.52,3.27,3.27,0,0,0-3.29,2.68A2.81,2.81,0,0,0,30.77,130.12Zm0-.83a2,2,0,0,1-2-2.55,2.3,2.3,0,0,1,2.34-2,2,2,0,0,1,2,2.59A2.3,2.3,0,0,1,30.78,129.29Zm6.52.83a2.29,2.29,0,0,0,2-1l-.15.9H40l1-5.94h-.9l-.58,3.26c-.23,1.26-1,2-2,2s-1.58-.82-1.37-2l.58-3.24h-.93l-.57,3.27c-.31,1.69.46,2.79,2,2.79Zm5.25-.12.53-3c.22-1.18.83-2,2.13-2h.56l.18-.92H45.3a2.07,2.07,0,0,0-1.94,1.17l.21-1.17h-.88l-1,5.94Zm11.72,0,.16-.87H50.07l.49-2.74H54.9l.16-.87H50.71l.46-2.69h4.36l.15-.86H50.42L49,130Zm2.44,0s.55-3.09.56-3.2c.22-1.2.88-2.06,2-2.06s1.52.75,1.31,2L60,130h.92l.57-3.26c.22-1.18.79-2,1.89-2s1.58.87,1.38,2.06l-.57,3.2h.92l.58-3.27c.29-1.61-.54-2.79-2.1-2.79a2.53,2.53,0,0,0-2.21,1.2,1.85,1.85,0,0,0-1.86-1.2,2.22,2.22,0,0,0-1.95,1l.17-.92h-.89L55.79,130Zm13.45-6.06A3.27,3.27,0,0,0,67,126.68a2.77,2.77,0,0,0,2.7,3.44A2.58,2.58,0,0,0,71.78,129l-.17,1h.9l1-5.94h-.92l-.23,1.25-.06-.15a2.32,2.32,0,0,0-2.19-1.22Zm-.31,5.33a2,2,0,0,1-2-2.48,2.41,2.41,0,0,1,2.33-2,2,2,0,0,1,2,2.43A2.42,2.42,0,0,1,69.85,129.27Zm6-6.32a.75.75,0,0,0,.75-.62.66.66,0,0,0-.66-.8.75.75,0,0,0-.73.62A.64.64,0,0,0,75.89,123ZM75,130l1-5.94h-.92l-1,5.94Zm2.53,0,1.52-8.67h-.91L76.65,130Zm4.86,0,1.15-2h3.82l.43,2h.93L87,122h-.94l-4.63,8Zm4.79-2.88H84.06l2.3-4.05Zm5.19,3a2.71,2.71,0,0,0,2.12-1.05l-.16.93h.88l1.53-8.67h-.92l-.69,4a2.31,2.31,0,0,0-2.27-1.37,3.23,3.23,0,0,0-3.17,2.72A2.77,2.77,0,0,0,92.4,130.12Zm.2-.85a2,2,0,0,1-2-2.49,2.37,2.37,0,0,1,2.34-2,2,2,0,0,1,2,2.48A2.41,2.41,0,0,1,92.6,129.27Zm7.27.85a2.71,2.71,0,0,0,2.12-1.05l-.16.93h.88l1.53-8.67h-.92l-.69,4a2.31,2.31,0,0,0-2.27-1.37,3.24,3.24,0,0,0-3.18,2.72A2.79,2.79,0,0,0,99.87,130.12Zm.2-.85a2,2,0,0,1-2-2.49,2.39,2.39,0,0,1,2.35-2,2,2,0,0,1,1.94,2.48A2.39,2.39,0,0,1,100.07,129.27Zm5.18.73.53-3c.22-1.18.83-2,2.13-2h.56l.18-.92H108a2.07,2.07,0,0,0-1.94,1.17l.21-1.17h-.88l-1,5.94Zm6.63.12a3.33,3.33,0,0,0,2.63-1.16l-.72-.54a2.3,2.3,0,0,1-1.85.89,1.92,1.92,0,0,1-2.15-2h5.15l0-.24a2.59,2.59,0,0,0-2.66-3.17,3.3,3.3,0,0,0-3.34,2.73A2.73,2.73,0,0,0,111.88,130.12Zm2.27-3.56h-4.26a2.34,2.34,0,0,1,2.36-1.84A1.72,1.72,0,0,1,114.15,126.56Zm4,3.56a2.13,2.13,0,0,0,2.34-1.58c.21-1.25-.84-1.66-1.82-2s-1.57-.48-1.46-1.12c.09-.49.52-.77,1.24-.77a2.08,2.08,0,0,1,1.84.89l.77-.51a3.1,3.1,0,0,0-2.53-1.14c-1.2,0-2,.54-2.21,1.43-.23,1.23.79,1.62,1.79,1.92.84.27,1.6.5,1.49,1.15s-.57.9-1.38.9a2.27,2.27,0,0,1-2-1.06l-.8.53a3.18,3.18,0,0,0,2.71,1.32Zm5.83,0a2.13,2.13,0,0,0,2.34-1.58c.21-1.25-.84-1.66-1.82-2s-1.57-.48-1.46-1.12c.09-.49.52-.77,1.24-.77a2.08,2.08,0,0,1,1.84.89l.77-.51a3.1,3.1,0,0,0-2.53-1.14c-1.2,0-2,.54-2.21,1.43-.23,1.23.79,1.62,1.79,1.92.84.27,1.6.5,1.49,1.15s-.57.9-1.38.9a2.27,2.27,0,0,1-2-1.06l-.8.53a3.18,3.18,0,0,0,2.71,1.32Z" transform="translate(3.82)" fill="#c1c1c5"/></g><g mask="url(#a9c0bad3-6408-4302-9619-56ff3628b2ac)"><path d="M0,73H3.68V33.15H0M28.27,73.7c11,0,18.79-8.53,18.79-20.65S39.29,32.46,28.27,32.46,9.48,41,9.48,53.05,17.25,73.7,28.27,73.7Zm0-10.21c-4.23,0-7.19-4.35-7.19-10.44s3-10.38,7.19-10.38S35.46,47,35.46,53.05,32.5,63.49,28.27,63.49Zm33-10.09A10,10,0,0,0,71.71,43.07,10,10,0,0,0,61.27,32.75,10,10,0,0,0,50.89,43.07,10,10,0,0,0,61.27,53.4ZM64,73,92,33.15H84.36L56.34,73ZM61.27,47.19c-1.85,0-3.3-1.51-3.3-4.12S59.36,39,61.27,39s3.37,1.51,3.37,4.06S63.19,47.19,61.27,47.19ZM87,73.64A10.05,10.05,0,0,0,97.41,63.31a10.42,10.42,0,0,0-20.83,0A10.06,10.06,0,0,0,87,73.64Zm0-6.27c-1.91,0-3.36-1.5-3.36-4.06,0-2.72,1.39-4.11,3.36-4.11s3.37,1.5,3.37,4.11S88.94,67.37,87,67.37Zm51.62,6.33c11.78,0,21.7-9.46,21.7-20.65s-9.92-20.59-21.7-20.59S117,41.85,117,53.05,126.87,73.7,138.64,73.7Zm0-10.21a10.41,10.41,0,1,1,10.1-10.44A10.41,10.41,0,0,1,138.64,63.49ZM177,73V58.85h19v-10H177V43.19H197.8v-10H165.73V73Zm37.76,0V58.85h19v-10h-19V43.19h20.82v-10H203.49V73Z" transform="translate(3.82)" fill="#c1c1c5"/></g><g mask="url(#a9c0bad3-6408-4302-9619-56ff3628b2ac)"><path d="M213.68,107.48a15.74,15.74,0,0,1,1.54,1.37c.55.55,1.15,1.2,1.77,1.89,1.24,1.39,2.54,3,3.64,4.51a33.53,33.53,0,0,1,1.88,2.81,11,11,0,0,1,.69,1.37,4.16,4.16,0,0,1,.21.71,2.17,2.17,0,0,1,0,1,1.57,1.57,0,0,1-.28.55,2.09,2.09,0,0,1-.53.49,3,3,0,0,1-.47.24,7.17,7.17,0,0,1-1,.34c-.75.2-1.68.38-2.72.55-2.09.32-4.66.59-7,.75-1.56.11-3,.16-4.2.15a13.87,13.87,0,0,1-1.72-.1,3.24,3.24,0,0,1-.77-.17,1.68,1.68,0,0,1-.49-.26,1.5,1.5,0,0,1-.6-1.13,1.43,1.43,0,0,1,.07-.52,1.64,1.64,0,0,1,.25-.48,2,2,0,0,1,.43-.41l.38-.27a26,26,0,0,0,2.19-1.71,11.72,11.72,0,0,0,1.68-1.75,8,8,0,0,0,1.47-3.38,27.8,27.8,0,0,0,.36-5.52,1.75,1.75,0,0,1,.06-.48,1.62,1.62,0,0,1,.92-1.12,1.71,1.71,0,0,1,.66-.13,1.78,1.78,0,0,1,.8.18,2.56,2.56,0,0,1,.37.2A4.63,4.63,0,0,1,213.68,107.48Z" transform="translate(3.82)" fill="#ff8d04" fill-rule="evenodd"/></g><path d="M260.64,131.47H245a.83.83,0,0,0-.83.83v2.5a6.65,6.65,0,0,0,6.65,6.65h8.64a5,5,0,0,0,5-5v-2.18C264.49,133,263.24,131.47,260.64,131.47Z" transform="translate(3.82)" fill="#008787"/><g opacity="0.9"><path d="M260.64,131.47H245a.83.83,0,0,0-.83.83v2.5a6.65,6.65,0,0,0,6.65,6.65h8.64a5,5,0,0,0,5-5v-2.18C264.49,133,263.24,131.47,260.64,131.47Z" transform="translate(3.82)" fill="url(#bb7f4635-90e7-43c0-972c-bb398537d2e3)"/></g><path d="M259.55,114.92l-13.62-7.63a3.19,3.19,0,0,0-3.14,0l-13.62,7.63a3.22,3.22,0,0,0-1.64,2.8V133a3.22,3.22,0,0,0,1.64,2.8l13.62,7.63a3.21,3.21,0,0,0,3.14,0l13.62-7.63a3.22,3.22,0,0,0,1.64-2.8V117.72A3.22,3.22,0,0,0,259.55,114.92Z" transform="translate(3.82)" fill="#20123a"/><path d="M234.84,129.38l-.84.47a1.28,1.28,0,1,0,1.26,2.22l.83-.47a1.27,1.27,0,1,0-1.25-2.22Z" transform="translate(3.82)" fill="url(#adfee34e-a338-4a9f-87e6-9d4e5ce41c19)"/><path d="M239.85,126.55l-1.67.94a1.28,1.28,0,0,0,.63,2.39,1.19,1.19,0,0,0,.62-.17l1.67-.94a1.27,1.27,0,1,0-1.25-2.22Z" transform="translate(3.82)" fill="url(#e76d15e2-4860-4baa-9a0c-7645cee8383e)"/><path d="M246.59,124.2a1.25,1.25,0,0,0-.67-.57V114a1.28,1.28,0,0,0-2.55,0v9.66a1.32,1.32,0,0,0-.67.57,8.68,8.68,0,0,0,0,2.2,1.37,1.37,0,0,0,.67.57v9.65a1.28,1.28,0,1,0,2.55,0V127a1.29,1.29,0,0,0,.67-.57,8.68,8.68,0,0,0,0-2.2Z" transform="translate(3.82)" fill="url(#af06c04d-c427-4908-b85d-4363eaab72ae)"/><path d="M249.86,120.88l-1.67,1a1.27,1.27,0,0,0-.48,1.74,1.29,1.29,0,0,0,1.74.48l1.67-1a1.28,1.28,0,0,0-1.26-2.22Z" transform="translate(3.82)" fill="url(#a2586684-30e6-4d55-abfd-29ef2f2f1946)"/><path d="M253.83,121.38a1.31,1.31,0,0,0,.63-.16l.83-.47a1.28,1.28,0,0,0-1.25-2.23l-.84.48a1.27,1.27,0,0,0,.63,2.38Z" transform="translate(3.82)" fill="url(#a0e6d0fb-d288-47b6-aaf1-ebfdc46e025b)"/><path d="M255.29,129.85l-.83-.47a1.28,1.28,0,1,0-1.26,2.22l.84.47a1.26,1.26,0,0,0,.62.17,1.28,1.28,0,0,0,.63-2.39Z" transform="translate(3.82)" fill="url(#adfee34e-a338-4a9f-87e6-9d4e5ce41c19)"/><path d="M251.12,127.49l-1.67-.94a1.28,1.28,0,1,0-1.26,2.22l1.67.94a1.22,1.22,0,0,0,.63.17,1.25,1.25,0,0,0,1.11-.65A1.28,1.28,0,0,0,251.12,127.49Z" transform="translate(3.82)" fill="url(#e76d15e2-4860-4baa-9a0c-7645cee8383e)"/><path d="M238.18,123.1l1.67,1a1.25,1.25,0,0,0,.62.16,1.27,1.27,0,0,0,.63-2.38l-1.67-1a1.28,1.28,0,0,0-1.74.49A1.27,1.27,0,0,0,238.18,123.1Z" transform="translate(3.82)" fill="url(#a2586684-30e6-4d55-abfd-29ef2f2f1946)"/><path d="M236.09,119l-.83-.48a1.28,1.28,0,0,0-1.26,2.23l.84.47a1.27,1.27,0,1,0,1.25-2.22Z" transform="translate(3.82)" fill="url(#a0e6d0fb-d288-47b6-aaf1-ebfdc46e025b)"/><path d="M263.66,135.11H249.31a6.14,6.14,0,0,0-6.14,6.14v3a.83.83,0,0,0,.83.83h14.34a6.14,6.14,0,0,0,6.15-6.14v-4.67A.83.83,0,0,1,263.66,135.11Z" transform="translate(3.82)" fill="url(#bf4c2a0b-eabd-4ea6-9541-19dfde86dab4)"/><path d="M249.59,140a.9.9,0,0,0,.47-.83c0-.74-.51-1.16-1.43-1.16h-1.71v4.13h1.72c.92,0,1.48-.41,1.48-1.22A1,1,0,0,0,249.59,140Zm-1.88-1.28h.94c.42,0,.61.17.61.46s-.18.5-.6.5h-.95Zm.94,2.7h-.94v-1h.91c.5,0,.69.19.69.51S249.09,141.46,248.65,141.46Z" transform="translate(3.82)" fill="#20123a"/><polygon points="254.7 142.18 257.48 142.18 257.48 141.42 255.5 141.42 255.5 140.49 257.48 140.49 257.48 139.73 255.5 139.73 255.5 138.81 257.48 138.81 257.48 138.05 254.7 138.05 254.7 142.18" fill="#20123a"/><polygon points="261.24 138.05 258.17 138.05 258.17 138.79 259.31 138.79 259.31 142.18 260.1 142.18 260.1 138.79 261.24 138.79 261.24 138.05" fill="#20123a"/><path d="M259.56,138.05h-.79l-1.56,4.13H258l.27-.75H260l.27.75h.82Zm-1,2.66.6-1.64.59,1.64Z" transform="translate(3.82)" fill="#20123a"/><path d="M71.53,187.11l-.08-.52c-2.74-16.85-11.64-22.85-21.5-17.88C39.85,173.8,33,188.16,34.91,204c1.5,12.44,7.37,23.19,15.68,30l.49.39.08-.08C65.32,219.17,73.59,201.43,71.53,187.11Z" transform="translate(3.82)" fill="none"/><path d="M215.91,116.33c-22.85-9.2-41.74-6.27-57.77,7.08h0c-12.59,10.49-22.58,26.13-33.87,50.27l-.18.39c-2,4.31-12.76,28.43-16.25,35.53l-.61,1.22a101.1,101.1,0,0,1-8,13.65c-11.08,15.3-25.68,20.18-39.33,14.89l-.45-.18a32.86,32.86,0,0,1-5.18-2.65l-.31-.19.36-.38C68.93,220.15,77.37,201.48,74.86,186c-3.09-19-14.31-26.57-26.45-20.45-11.47,5.78-19,21.59-16.93,38.8l.08.6c1.72,13.11,8,24.47,16.91,31.71l.16.13-1.07,1.05q-2.84,2.74-5.93,5.32C25.87,256.3,9.94,262.07,0,258.34v3.73c11.33,3.43,27.83-2.87,43.82-16.18l.62-.53q3.42-2.88,6.55-6l.48-.49.35.23a36.66,36.66,0,0,0,6.82,3.51c15.15,5.88,31.38.45,43.36-16.09a108.48,108.48,0,0,0,8.69-14.88c3.07-6.14,13.27-28.95,16.1-35.17l1.06-2.29c10.91-23.15,20.56-38.15,32.49-48.08,15-12.54,32.61-15.26,54.29-6.53a1.72,1.72,0,0,0,2.25-1A1.77,1.77,0,0,0,215.91,116.33ZM51.16,234.22l-.08.08-.49-.39c-8.31-6.77-14.18-17.52-15.68-30C33,188.16,39.85,173.8,50,168.71c9.86-5,18.76,1,21.5,17.88l.08.52C73.59,201.43,65.32,219.17,51.16,234.22Z" transform="translate(3.82)" fill="url(#b5a149d1-0bb6-4f2b-8584-9c57543056a5)"/></svg>