<svg width="306" height="223" viewBox="0 0 306 223" fill="none" xmlns="http://www.w3.org/2000/svg">
<g clip-path="url(#clip0)">
<path d="M301.18 1.30103H3.90278C2.46574 1.30103 1.30078 2.46598 1.30078 3.90303V232.597C1.30078 234.034 2.46574 235.199 3.90278 235.199H301.18C302.617 235.199 303.782 234.034 303.782 232.597V3.90303C303.782 2.46598 302.617 1.30103 301.18 1.30103Z" fill="white" stroke="#F0F0F4" stroke-width="2.602"/>
<path fill-rule="evenodd" clip-rule="evenodd" d="M0 19.515H305.083V40.981H0V19.515Z" fill="#F0F0F4"/>
<path d="M265.306 25H8.69383C7.75835 25 7 25.597 7 26.3334V33.6666C7 34.403 7.75835 35 8.69383 35H265.306C266.242 35 267 34.403 267 33.6666V26.3334C267 25.597 266.242 25 265.306 25Z" fill="white"/>
<path fill-rule="evenodd" clip-rule="evenodd" d="M2.602 0H302.481C303.171 0 303.833 0.274138 304.321 0.762108C304.809 1.25008 305.083 1.91191 305.083 2.602V19.515H0V2.602C0 1.91191 0.274138 1.25008 0.762108 0.762108C1.25008 0.274138 1.91191 0 2.602 0V0Z" fill="#DFDFE6"/>
<path fill-rule="evenodd" clip-rule="evenodd" d="M26.02 3.25195H85.866V20.815H26.02V3.25195Z" fill="#F0F0F4"/>
<path fill-rule="evenodd" clip-rule="evenodd" d="M26.02 3.25195H85.866V6.50395H26.02V3.25195Z" fill="#D1D1D7"/>
<rect x="271" y="25" width="13" height="10" rx="2" fill="#0390ED"/>
<rect x="109" y="52" width="187" height="135" rx="6" fill="#F0F0F4"/>
<rect x="268.979" y="57.0208" width="12.7868" height="12.7868" transform="rotate(-45 268.979 57.0208)" fill="#F0F0F4"/>
<g clip-path="url(#clip1)">
<path d="M234.576 80.579L230.168 84.6695L225.937 80.7976L225.436 81.2913L213.947 92.5685C214.404 93.0149 215.015 93.2676 215.654 93.2737H244.683C245.321 93.2676 245.933 93.0149 246.389 92.5685L235.105 81.1361L234.576 80.579Z" fill="#FF651D"/>
<path d="M225.937 81.2843L213.947 70.7053C213.517 71.1148 213.263 71.6769 213.242 72.271V90.9816C213.245 91.2804 213.309 91.5754 213.43 91.8483C213.551 92.1213 213.727 92.3664 213.947 92.5685L225.443 81.7427L225.937 81.2843ZM246.305 70.7053L234.4 81.4465L234.936 81.9754L246.39 93.2737C246.612 93.0634 246.79 92.8098 246.911 92.5284C247.032 92.2471 247.095 91.9439 247.095 91.6375V72.398C247.094 72.1579 247.053 71.9196 246.975 71.6927C246.826 71.3099 246.583 70.9704 246.27 70.7053H246.305Z" fill="#FF9200"/>
<path d="M225.937 81.665L230.168 85.5158L234.583 81.4535L246.389 70.6559C245.951 70.2517 245.378 70.0254 244.781 70.0211H215.675C215.031 70.0116 214.41 70.2576 213.947 70.7052L225.937 81.665Z" fill="#FBB85E"/>
<path d="M193.608 88.3368L189.968 91.9618L186.484 88.5061L186.061 88.9504L176.568 99.0074C176.749 99.2005 176.968 99.3545 177.21 99.46C177.453 99.5655 177.714 99.6203 177.979 99.621H201.958C202.228 99.603 202.492 99.5314 202.734 99.4103C202.976 99.2892 203.192 99.1211 203.368 98.9157L194.045 88.8164L193.608 88.3368Z" fill="#FFBD4F"/>
<path d="M186.442 89.3877L176.724 79.7185C176.4 80.005 176.137 80.3525 175.948 80.7411C175.892 80.9167 175.863 81.0999 175.863 81.2842V98.2105C175.871 98.7409 176.086 99.2472 176.463 99.621L185.998 89.839L186.442 89.3877ZM203.369 79.7185L193.495 88.8869L193.939 89.3312L203.369 98.9158C203.781 98.5573 204.034 98.0502 204.074 97.5052V81.2842C204.071 81.0793 204.033 80.8765 203.961 80.6847C203.835 80.3237 203.633 79.9941 203.369 79.7185Z" fill="#FFD567"/>
<path d="M186.491 89.7474L190.018 93.2737L193.678 89.5781L203.368 79.7468C203.195 79.5675 202.988 79.4242 202.759 79.3249C202.531 79.2257 202.285 79.1725 202.035 79.1685H177.979C177.712 79.1688 177.448 79.2262 177.204 79.3369C176.961 79.4476 176.744 79.609 176.568 79.8102L186.491 89.7474Z" fill="#FFEA80"/>
<path d="M177.831 108.084L173.042 112.626L168.43 108.324L167.88 108.874L155.411 121.407C155.902 121.902 156.568 122.183 157.265 122.189H188.819C189.516 122.183 190.183 121.902 190.674 121.407L178.416 108.712L177.831 108.084Z" fill="#0266A8"/>
<path d="M168.81 108.705L155.474 96.8C154.998 97.2681 154.722 97.9028 154.705 98.5703V119.693C154.71 120.031 154.784 120.365 154.924 120.673C155.063 120.981 155.265 121.257 155.516 121.484L168.26 109.262L168.81 108.705ZM191.245 97.8791C191.093 97.4626 190.838 97.0914 190.504 96.8L177.273 108.55L177.866 109.128L190.582 121.484C190.83 121.258 191.03 120.982 191.167 120.675C191.304 120.368 191.376 120.036 191.379 119.7V98.6549C191.376 98.3908 191.331 98.1288 191.245 97.8791Z" fill="#0390ED"/>
<path d="M168.472 108.825L173.099 113.056L177.894 108.627L190.674 96.8C190.198 96.3517 189.571 96.0997 188.918 96.0947H157.294C156.943 96.0938 156.596 96.1633 156.272 96.299C155.949 96.4346 155.656 96.6338 155.411 96.8846L168.472 108.825Z" fill="#62BEFB"/>
<path d="M243.103 98.2106L238.984 102.301L235.31 98.676L235.014 98.3869L234.541 98.9017L223.821 110.2C224.026 110.421 224.273 110.597 224.549 110.719C224.824 110.84 225.121 110.903 225.422 110.905H252.547C252.847 110.903 253.145 110.839 253.42 110.718C253.695 110.597 253.943 110.42 254.148 110.2L243.569 98.7677L243.103 98.2106Z" fill="#7542E5"/>
<path d="M235.105 98.8593L223.772 88.3368C223.364 88.7575 223.129 89.3166 223.116 89.9025V108.613C223.121 108.911 223.186 109.205 223.307 109.478C223.429 109.751 223.603 109.996 223.821 110.2L234.668 99.3742L235.105 98.8593ZM254.147 88.2804L242.863 98.7183L243.371 99.2119L254.147 110.2C254.364 109.997 254.538 109.752 254.659 109.481C254.78 109.21 254.846 108.917 254.853 108.62V89.9801C254.841 89.7365 254.783 89.4973 254.683 89.2748C254.592 88.9012 254.407 88.5567 254.147 88.2733V88.2804Z" fill="#9059FF"/>
<path d="M235.035 99.2543L235.324 99.5434L239.013 103.147L243.138 99.078L254.148 88.2733C253.952 88.0721 253.719 87.9118 253.461 87.8016C253.203 87.6914 252.926 87.6336 252.645 87.6315H225.415C225.115 87.6291 224.817 87.6908 224.542 87.8124C224.267 87.934 224.022 88.1128 223.821 88.3368L235.035 99.2543Z" fill="#C689FF"/>
<path d="M216.557 118.663L210.421 124.566L204.518 118.981L203.813 119.686L187.853 135.984C188.162 136.302 188.532 136.555 188.939 136.73C189.347 136.904 189.786 136.996 190.229 137H230.613C231.056 136.996 231.495 136.904 231.902 136.73C232.31 136.555 232.68 136.302 232.989 135.984L217.304 119.467L216.557 118.663Z" fill="#E31587"/>
<path d="M204.779 119.502L188.107 103.853C187.506 104.48 187.163 105.311 187.147 106.18V133.939C187.15 134.379 187.241 134.814 187.414 135.219C187.588 135.623 187.84 135.989 188.156 136.295L204.074 120.229L204.779 119.502ZM233.526 105.263C233.341 104.721 233.021 104.235 232.595 103.853L216.063 119.298L216.769 120.06L232.658 136.281C232.974 135.977 233.226 135.612 233.398 135.208C233.57 134.805 233.659 134.371 233.66 133.932V106.293C233.672 105.945 233.626 105.597 233.526 105.263Z" fill="#FF298A"/>
<path d="M204.574 119.587L210.491 125.01L216.634 119.291L232.989 104.071C232.38 103.482 231.566 103.151 230.718 103.147H190.257C189.809 103.147 189.365 103.237 188.952 103.411C188.539 103.586 188.165 103.841 187.853 104.163L204.574 119.587Z" fill="#FF9AA2"/>
<path d="M266.842 124.305C266.844 124.134 266.783 123.968 266.672 123.838C266.56 123.709 266.405 123.624 266.236 123.6C264.825 123.346 260.833 122.408 259.493 121.068C258.153 119.728 257.201 115.757 256.954 114.347C256.929 114.179 256.843 114.025 256.714 113.915C256.584 113.805 256.419 113.746 256.249 113.747V124.305H266.842Z" fill="#FFEA80"/>
<path d="M256.263 113.726C256.091 113.725 255.924 113.786 255.794 113.9C255.665 114.013 255.58 114.169 255.558 114.34C255.325 115.75 254.437 119.728 253.111 121.068C251.785 122.408 247.758 123.339 246.291 123.586C246.123 123.611 245.969 123.697 245.859 123.826C245.749 123.956 245.69 124.121 245.691 124.291H256.27V113.726H256.263ZM256.263 124.305V134.884C256.434 134.886 256.6 134.825 256.73 134.714C256.86 134.602 256.945 134.447 256.969 134.278C257.223 132.867 258.168 128.819 259.508 127.479C260.848 126.139 264.804 125.25 266.222 125.018C266.392 124.995 266.549 124.911 266.662 124.781C266.775 124.651 266.837 124.485 266.835 124.312L256.263 124.305Z" fill="#FFD567"/>
<path d="M245.684 124.305C245.683 124.477 245.744 124.644 245.857 124.774C245.97 124.904 246.127 124.988 246.298 125.011C247.708 125.243 251.749 126.139 253.089 127.472C254.429 128.805 255.318 132.825 255.551 134.264C255.573 134.434 255.657 134.591 255.787 134.704C255.917 134.817 256.084 134.879 256.256 134.877V124.305H245.684Z" fill="#FFA266"/>
<path d="M168.909 78.2023C168.919 78.0816 168.886 77.9615 168.816 77.8625C168.747 77.7634 168.645 77.6916 168.529 77.6592C167.52 77.4758 164.727 76.82 163.789 75.8678C162.851 74.9157 162.181 72.1158 161.998 71.1285C161.977 71.0108 161.915 70.9041 161.823 70.8269C161.732 70.7497 161.617 70.7067 161.497 70.7053V78.16L168.909 78.2023Z" fill="#FFEA80"/>
<path d="M161.455 70.7476C161.333 70.7509 161.217 70.7963 161.126 70.8761C161.034 70.956 160.974 71.0651 160.954 71.1848C160.792 72.1792 160.171 74.9721 159.233 75.9101C158.295 76.8481 155.411 77.5181 154.437 77.7015C154.319 77.7215 154.212 77.7827 154.134 77.8744C154.057 77.966 154.014 78.0822 154.014 78.2022H161.462L161.455 70.7476ZM161.455 78.2022V85.6568C161.574 85.6555 161.69 85.6125 161.781 85.5352C161.872 85.458 161.934 85.3514 161.955 85.2337C162.132 84.2181 162.795 81.39 163.747 80.4379C164.699 79.4858 167.478 78.8722 168.472 78.717C168.593 78.6944 168.702 78.6309 168.782 78.5372C168.862 78.4434 168.907 78.3251 168.909 78.2022H161.455Z" fill="#FFD567"/>
<path d="M154 78.2023C153.996 78.3247 154.037 78.4442 154.115 78.5388C154.193 78.6334 154.302 78.6967 154.423 78.7171C155.438 78.8723 158.267 79.5 159.219 80.438C160.171 81.376 160.784 84.2182 160.939 85.2196C160.958 85.3399 161.018 85.4499 161.11 85.5299C161.201 85.61 161.319 85.655 161.44 85.6569V78.2023H154Z" fill="#FFA266"/>
</g>
<rect x="209" y="159" width="67" height="16" rx="2" fill="#999999"/>
<rect x="130" y="159" width="67" height="16" rx="2" fill="#CCCCCC"/>
</g>
<defs>
<clipPath id="clip0">
<rect width="306" height="223" fill="white"/>
</clipPath>
<clipPath id="clip1">
<rect width="112.842" height="67" fill="white" transform="translate(154 70)"/>
</clipPath>
</defs>
</svg>
