<svg data-name="Layer 1" xmlns="http://www.w3.org/2000/svg" xmlns:xlink="http://www.w3.org/1999/xlink" viewBox="0 0 301.54 280"><defs><linearGradient id="d" x1="-523.51" y1="526.52" x2="-524.07" y2="527.34" gradientTransform="matrix(69 0 0 100 36382.01 -52480)" gradientUnits="userSpaceOnUse"><stop offset="0" stop-color="#ff9100"/><stop offset=".52" stop-color="#f10366"/><stop offset="1" stop-color="#6173ff"/></linearGradient><linearGradient id="e" x1="88.55" y1="124.2" x2="83.15" y2="119.09" gradientUnits="userSpaceOnUse"><stop offset="0" stop-color="#054096" stop-opacity=".5"/><stop offset=".05" stop-color="#0f3d9c" stop-opacity=".44"/><stop offset=".26" stop-color="#2f35b1" stop-opacity=".25"/><stop offset=".47" stop-color="#462fbf" stop-opacity=".11"/><stop offset=".67" stop-color="#542bc8" stop-opacity=".03"/><stop offset=".86" stop-color="#592acb" stop-opacity="0"/></linearGradient><linearGradient id="a" x1="61.19" y1="113.88" x2="84.98" y2="113.88" gradientUnits="userSpaceOnUse"><stop offset="0" stop-color="#9059ff"/><stop offset="1" stop-color="#f770ff"/></linearGradient><linearGradient id="f" x1="61.19" y1="111.28" x2="84.98" y2="111.28" xlink:href="#a"/><linearGradient id="g" x1="61.19" y1="108.45" x2="84.98" y2="108.45" xlink:href="#a"/><linearGradient id="h" x1="61.19" y1="105.62" x2="84.98" y2="105.62" xlink:href="#a"/><linearGradient id="i" x1="61.19" y1="103.03" x2="84.98" y2="103.03" xlink:href="#a"/><linearGradient id="j" x1="73.83" y1="119.18" x2="93.32" y2="127.43" gradientUnits="userSpaceOnUse"><stop offset="0" stop-color="#54ffbd"/><stop offset="1" stop-color="#0df"/></linearGradient><mask id="b" x="0" y="0" width="301.54" height="280" maskUnits="userSpaceOnUse"><g data-name="b"><rect data-name="a" width="300" height="280" rx="12" fill="#fff" transform="translate(.29)"/></g></mask><mask id="c" x="74.62" y="47.35" width="18.48" height="18.67" maskUnits="userSpaceOnUse"><g data-name="e"><path data-name="d" d="M91.08 56.69c-1.13 0-1.16 1.17-2 1.17a.89.89 0 01-.86-.88v-3.79A1.16 1.16 0 0087 52h-3.72a.88.88 0 01-.87-.87c0-.88 1.16-.91 1.16-2s-1-1.75-2.31-1.75S79 48.09 79 49.1s1.15 1.17 1.15 2a.88.88 0 01-.86.87h-3.81a1.16 1.16 0 00-1.15 1.17v2.62a.89.89 0 00.86.88c.87 0 .9-1.17 2-1.17s1.73 1 1.73 2.34-.74 2.33-1.73 2.33-1.13-1.14-2-1.14a.89.89 0 00-.86.88v5A1.17 1.17 0 0075.48 66h3.76a.89.89 0 00.86-.88c0-.87-1.15-.91-1.15-2s1-1.75 2.31-1.75 2.31.74 2.31 1.75-1.16 1.17-1.16 2a.89.89 0 00.87.88H87a1.17 1.17 0 001.16-1.17v-3.76a.89.89 0 01.86-.88c.87 0 .9 1.17 2 1.17s1.73-1 1.73-2.34-.68-2.33-1.67-2.33z" fill="#fff" fill-rule="evenodd" transform="translate(.29)"/></g></mask></defs><g data-name="b"><rect data-name="a" x=".29" width="300" height="280" rx="12" fill="#fff"/></g><rect data-name="a" x=".29" width="300" height="280" rx="12" fill="#d8d8d8"/><g mask="url(#b)"><path fill="#ececef" fill-rule="evenodd" d="M19.76 0h159.96v34.52h120.57v47.85H0V34.52h19.76V0z"/><path fill="#c1c1c5" d="M30.73 6.5h18.48v18.67H30.73z"/><path fill="#a6a6a6" fill-opacity=".4" fill-rule="evenodd" d="M59.6 12.34H152v9.34H59.6v-9.34z"/><path fill="#f7f7f8" d="M0 82.37h300.29V280H0z"/><path d="M299.54 40.85H13.1a1.49 1.49 0 00-1.06.44 1.46 1.46 0 00-.44 1.06V72.2a1.46 1.46 0 00.44 1.06 1.49 1.49 0 001.06.44h286.44a1.5 1.5 0 001.5-1.5V42.35a1.5 1.5 0 00-1.5-1.5z" fill="#fff" stroke="#cdcdcd" fill-rule="evenodd" opacity=".59" style="isolation:isolate"/><path fill="#a6a6a6" fill-opacity=".2" fill-rule="evenodd" d="M102.34 50.85h197.95v14.01H102.34V50.85z"/><path d="M24.38 52.25c0 1.9-.06 3.23 0 3.86a8.87 8.87 0 001.72 5.11 4.83 4.83 0 002.9 1.87 4.83 4.83 0 002.9-1.87 8.87 8.87 0 001.72-5.11c.05-.63 0-2 0-3.86L29 51.46zM29 65.45h-.13a7.18 7.18 0 01-4.58-2.85 10.77 10.77 0 01-2.08-6.17c-.09-1-.09-3.12-.09-4.32A2.15 2.15 0 0123.83 50l5.17-.89 5.16.89a2.16 2.16 0 011.77 2.13c0 1.19 0 3.35-.09 4.32a10.91 10.91 0 01-2.08 6.17 7.23 7.23 0 01-4.64 2.84zm0-12.22l-2.89.5c0 1.1 0 1.93.07 2.34a6.85 6.85 0 001.31 4.12 3.17 3.17 0 001.5 1.1z" fill="#0c0c0d" fill-opacity=".2" fill-rule="evenodd"/><path fill="none" stroke="#979797" stroke-linecap="square" opacity=".4" style="isolation:isolate" d="M45.17 47.94v18.67"/><path data-name="c" d="M65.96 56.09h-.58v-2.32a4.62 4.62 0 10-9.24 0v2.32h-.58a1.74 1.74 0 00-1.73 1.75v5.85a1.74 1.74 0 001.73 1.75h10.4a1.74 1.74 0 001.73-1.75v-5.85a1.74 1.74 0 00-1.73-1.75zm-7.51-2.32a2.31 2.31 0 114.62 0v2.32h-4.62z" fill="#0c0c0d" fill-opacity=".8" fill-rule="evenodd"/><path fill="none" d="M74.62 47.35H93.1v18.67H74.62z"/><g mask="url(#c)"><path fill="#0c0c0d" fill-opacity=".8" d="M74.62 47.35H93.1v18.67H74.62z"/></g><path fill="none" stroke="#979797" stroke-linecap="square" opacity=".25" style="isolation:isolate" d="M.58 81.78h299.71"/></g><path d="M300.29 77.72H88.56l-6.71-7.94-6.7 7.94H50.87a5.5 5.5 0 00-5.5 5.5V225a5.5 5.5 0 005.5 5.5h249.42z" fill="#fff" stroke="#dfdfe3" fill-rule="evenodd"/><rect x="99.19" y="125.35" width="176.84" height="9.39" rx="4.7" fill="#dfdfe3"/><path d="M122.38 146.48h123.53a4.69 4.69 0 014.7 4.69 4.69 4.69 0 01-4.7 4.7H122.38a4.69 4.69 0 01-4.69-4.7 4.69 4.69 0 014.69-4.69zm0 18.78h123.53a4.69 4.69 0 014.7 4.7 4.69 4.69 0 01-4.7 4.69H122.38a4.69 4.69 0 01-4.69-4.65 4.69 4.69 0 014.69-4.74z" fill="#dfdfe3" fill-rule="evenodd"/><rect x="99.19" y="146.48" width="9.25" height="9.39" rx="2" fill="#dfdfe3"/><rect x="99.19" y="165.26" width="9.25" height="9.39" rx="2" fill="#dfdfe3"/><path fill="none" stroke="#dfdfe3" stroke-linecap="square" d="M44.87 194.61h255.42"/><path d="M300.71 231H177.79v-36.39h122.5" fill="#0056ee" fill-rule="evenodd"/><path d="M178.37 194.61H45.45V223a8 8 0 008 8h124.92z" fill="#fafafc" fill-rule="evenodd"/><path d="M95.48 216.4a3.7 3.7 0 003.32-2l-.74-.39a2.81 2.81 0 01-2.59 1.59 3 3 0 010-5.9 2.83 2.83 0 012.5 1.49l.72-.44a3.75 3.75 0 10-3.22 5.66zm6.17 0a2.74 2.74 0 002.24-1.06v1h.8v-3.44c0-1.22-.83-2.07-2.37-2.07a2.92 2.92 0 00-2.44 1.17l.71.45a1.91 1.91 0 011.72-.91c1 0 1.58.55 1.58 1.37v.21h-1.71c-1.51 0-2.45.64-2.45 1.75 0 .87.63 1.59 1.92 1.59zm.15-.72c-.85 0-1.23-.4-1.23-.93s.53-1 1.65-1h1.67v.74a2.38 2.38 0 01-2.09 1.22zm5.13.61v-3a1.69 1.69 0 011.7-1.77 1.55 1.55 0 011.63 1.73v3h.83v-3.08a2.2 2.2 0 00-2.3-2.43 2.16 2.16 0 00-1.88 1v-.9h-.8v5.4zm8.17.11a2.7 2.7 0 002.57-1.7l-.76-.32a1.93 1.93 0 01-1.8 1.25 2 2 0 01-2-2 2 2 0 012-2 1.91 1.91 0 011.81 1.2l.75-.33a2.72 2.72 0 00-2.55-1.64 2.81 2.81 0 100 5.62zm6.3 0a2.77 2.77 0 002.51-1.37l-.7-.41a1.93 1.93 0 01-1.81 1 2 2 0 01-2-1.76h4.77v-.37a2.66 2.66 0 00-2.75-2.75 2.77 2.77 0 00-2.82 2.83 2.7 2.7 0 002.8 2.84zm1.88-3.22h-3.91a2 2 0 012-1.67 1.82 1.82 0 011.92 1.68zm2.9 3.11v-7.88h-.82v7.88z" fill="#6b6b6f"/><path d="M100.78 110.48l.91-2.38h4.52l.93 2.38h1.15l-3.78-9.48h-1.12l-3.76 9.49zm5-3.41h-3.69l1.85-4.79zm6.75 3.55a3.18 3.18 0 002.62-1.39v1.25h1.14v-10.26h-1.06v4.46a3.17 3.17 0 00-2.62-1.36 3.65 3.65 0 000 7.3zm.09-1a2.56 2.56 0 01-2.59-2.66 2.59 2.59 0 012.59-2.67 2.67 2.67 0 010 5.33zm8.77 1a3.18 3.18 0 002.63-1.39v1.25h1v-10.26h-1v4.46a3.18 3.18 0 00-2.63-1.36 3.65 3.65 0 000 7.3zm.09-1a2.56 2.56 0 01-2.58-2.66 2.58 2.58 0 012.58-2.67 2.67 2.67 0 010 5.33zm10.42.86v-3.84h4.26v-1.71h-4.26v-2.2h4.26V101h-6.11v9.49zm6.52-7.85a1.11 1.11 0 001.16-1.15 1.15 1.15 0 10-2.3 0 1.1 1.1 0 001.17 1.15zm.93 7.85v-7h-1.84v7zm3.21 0v-3.71c0-1.18.59-1.65 1.52-1.65a1.64 1.64 0 01.93.25l.65-1.77a2.67 2.67 0 00-1.18-.27 1.93 1.93 0 00-1.94 1.21v-1.08h-1.76v7zm6.94.14a3.72 3.72 0 003.24-1.62l-1.47-.86a1.92 1.92 0 01-1.75.93 1.94 1.94 0 01-2-1.48h5.58v-.67a3.5 3.5 0 00-3.63-3.6 3.62 3.62 0 00-3.68 3.66 3.54 3.54 0 003.74 3.64zm1.81-4.43h-3.72a2 2 0 011.9-1.35 1.78 1.78 0 011.85 1.35zm5.23 4.29v-5.41h1.75v-1.61h-1.69v-.34c0-1.07.15-1.25 1.4-1.25h.29v-1.64h-.46c-2.29 0-3 .71-3 3v.25h-1.15v1.61h1.15v5.41zm5.82.14a3.65 3.65 0 10-3.71-3.65 3.65 3.65 0 003.74 3.65zm0-1.7a2 2 0 111.92-2 1.93 1.93 0 01-1.88 2zm5.93 1.56l1.57-2.2 1.61 2.2h2.17l-2.68-3.59 2.5-3.43h-2.07l-1.48 2.08-1.47-2.08h-2.15l2.48 3.42-2.62 3.6zm11.23 0v-3h2.13l1.52 3h2.12l-1.9-3.48a3.09 3.09 0 001.67-2.81 3.18 3.18 0 00-3.49-3.21h-3.84v9.49zm1.87-4.67h-1.87v-3.13h1.87c1.17 0 1.77.6 1.77 1.53a1.58 1.58 0 01-1.73 1.6zm8.06 4.81a3.7 3.7 0 003.24-1.62l-1.47-.86a1.91 1.91 0 01-1.74.93 2 2 0 01-2-1.48h5.58v-.67a3.5 3.5 0 00-3.63-3.6 3.62 3.62 0 00-3.68 3.66 3.54 3.54 0 003.74 3.64zm1.81-4.43h-3.75a2 2 0 011.9-1.35 1.78 1.78 0 011.85 1.35zm4.76 4.29v-10.25h-1.73v10.25zm3.58.14a3.12 3.12 0 002.58-1.22v1.08h1.73v-4.32c0-1.77-1.19-2.84-3.25-2.84a3.94 3.94 0 00-3.32 1.59l1.65.82a1.76 1.76 0 011.65-.92c1 0 1.52.52 1.52 1.27v.1h-1.84c-1.95 0-3.16.89-3.16 2.35 0 1.23.91 2.09 2.44 2.09zm.52-1.48c-.74 0-1.09-.26-1.09-.77s.43-.88 1.5-.88h1.65v.38a2.32 2.32 0 01-2.02 1.27zm5.59 4.12c1.49 0 2.24-.61 3-2.4l3-7.4h-1.88l-1.68 4.54-1.86-4.54h-1.92l2.83 6.72-.12.29c-.35.83-.74 1.11-1.38 1.11a1.27 1.27 0 01-.95-.43l-1 1.46a3.51 3.51 0 002 .65zm10.3-5.69v-.09c0-2.07 2.46-1.5 2.46-4a2.73 2.73 0 00-3-2.66 3 3 0 00-3.08 1.92l1.61.69a1.46 1.46 0 011.4-1 1.14 1.14 0 011.26 1.11c0 1.47-2.2 1-2.2 3.94v.09zm-.78 3.09a1.15 1.15 0 10-1.14-1.14 1.1 1.1 0 001.2 1.14z" fill="#434346"/><path d="M233.71 216.3l.48-1.33h3l.48 1.33h1.45l-2.76-7.3h-1.39l-2.68 7.3zm3.06-2.61h-2.11l1.06-2.9zm5.19 2.72a2 2 0 001.69-.85v.74h1.36v-7.89h-1.36v3.18a2 2 0 00-1.67-.8 2.82 2.82 0 000 5.62zm.27-1.3a1.52 1.52 0 111.5-1.52 1.5 1.5 0 01-1.5 1.52zm6.28 1.3a2 2 0 001.69-.85v.74h1.36v-7.89h-1.36v3.18a2 2 0 00-1.67-.8 2.82 2.82 0 000 5.62zm.27-1.3a1.52 1.52 0 111.5-1.52 1.5 1.5 0 01-1.5 1.52z" fill="#fff"/><path d="M300.29 77.72H88.56l-6.71-7.94-6.7 7.94H50.87a5.5 5.5 0 00-5.5 5.5V225a5.5 5.5 0 005.5 5.5h249.42" fill="none" stroke="#dfdfe3" fill-rule="evenodd"/><path d="M242.17 184.37a1.74 1.74 0 001.71-1.59v-18a1.72 1.72 0 00-3.44-.17v18a1.74 1.74 0 001.73 1.76zm20.9-.27a1.71 1.71 0 002.37-.56l9.3-15.14.08-.15a1.77 1.77 0 00-.63-2.27 1.7 1.7 0 00-2.37.56l-9.3 15.14-.08.15a1.77 1.77 0 00.63 2.27zm-45.14 0a1.77 1.77 0 00.63-2.27l-.08-.15-9.3-15.14a1.7 1.7 0 00-2.37-.56 1.77 1.77 0 00-.63 2.27l.08.15 9.3 15.14a1.71 1.71 0 002.37.56zm24.24 78.9a1.73 1.73 0 001.71-1.58v-18a1.72 1.72 0 00-3.44-.17v18a1.73 1.73 0 001.73 1.75zm32-2.93a1.78 1.78 0 00.63-2.27l-.08-.15-9.3-15.15a1.69 1.69 0 00-2.37-.55 1.77 1.77 0 00-.63 2.27l.08.14 9.3 15.15a1.7 1.7 0 002.39.56zm-67.38 0a1.7 1.7 0 002.37-.56l9.3-15.15.08-.14a1.77 1.77 0 00-.63-2.27 1.69 1.69 0 00-2.37.55l-9.3 15.15-.08.15a1.78 1.78 0 00.65 2.27z" transform="translate(.29)" fill="url(#d)"/><path d="M88.16 98.08l-13.62-7.64a3.25 3.25 0 00-3.14 0l-13.62 7.64a3.19 3.19 0 00-1.64 2.79v15.27a3.22 3.22 0 001.64 2.8l13.62 7.64a3.21 3.21 0 003.14 0l13.62-7.64a3.22 3.22 0 001.64-2.8v-15.27a3.19 3.19 0 00-1.64-2.79z" fill="#20123a"/><path d="M63.16 112.53l-.84.48a1.27 1.27 0 00.63 2.38 1.28 1.28 0 00.63-.16l.83-.47a1.28 1.28 0 10-1.25-2.23z" transform="translate(.29)" fill="url(#a)"/><path d="M68.17 109.7l-1.67 1a1.27 1.27 0 001.25 2.22l1.67-1a1.27 1.27 0 00-1.25-2.22z" transform="translate(.29)" fill="url(#f)"/><path d="M74.91 107.35a1.23 1.23 0 00-.67-.56v-9.66a1.28 1.28 0 10-2.55 0v9.66a1.3 1.3 0 00-.67.56 8.68 8.68 0 000 2.2 1.28 1.28 0 00.67.57v9.66a1.28 1.28 0 102.55 0v-9.66a1.21 1.21 0 00.67-.57 8.68 8.68 0 000-2.2z" transform="translate(.29)" fill="url(#g)"/><path d="M78.18 104l-1.67.94a1.28 1.28 0 00.63 2.39 1.19 1.19 0 00.63-.17l1.67-.94a1.28 1.28 0 00-1.26-2.22z" transform="translate(.29)" fill="url(#h)"/><path d="M82.15 104.54a1.32 1.32 0 00.63-.17l.83-.47a1.28 1.28 0 00-1.26-2.22l-.83.47a1.28 1.28 0 00.63 2.39z" transform="translate(.29)" fill="url(#i)"/><path d="M83.61 113l-.83-.48a1.28 1.28 0 00-1.26 2.23l.83.47a1.31 1.31 0 00.63.16 1.27 1.27 0 00.63-2.38z" transform="translate(.29)" fill="url(#a)"/><path d="M79.44 110.65l-1.67-1a1.28 1.28 0 10-1.26 2.22l1.67 1a1.31 1.31 0 00.63.16 1.27 1.27 0 00.63-2.38z" transform="translate(.29)" fill="url(#f)"/><path d="M66.5 106.26l1.67.94a1.16 1.16 0 00.62.17 1.25 1.25 0 001.11-.65 1.27 1.27 0 00-.48-1.74l-1.67-.98a1.27 1.27 0 10-1.25 2.22z" transform="translate(.29)" fill="url(#h)"/><path d="M64.41 102.15l-.83-.47a1.28 1.28 0 00-1.26 2.22l.84.47a1.29 1.29 0 00.62.17 1.3 1.3 0 001.12-.65 1.28 1.28 0 00-.49-1.74z" transform="translate(.29)" fill="url(#i)"/></svg>
