<svg data-name="Layer 1" xmlns="http://www.w3.org/2000/svg" viewBox="0 0 300 280"><defs><linearGradient id="b" x1="-528.91" y1="443.5" x2="-529.9" y2="443.5" gradientTransform="matrix(254 0 0 -3 134620 1375)" gradientUnits="userSpaceOnUse"><stop offset="0" stop-color="#ff9100"/><stop offset=".52" stop-color="#f10366"/><stop offset="1" stop-color="#6173ff"/></linearGradient><mask id="a" x="0" y="0" width="300" height="280" maskUnits="userSpaceOnUse"><g data-name="b"><rect data-name="a" width="300" height="280" rx="12" fill="#fff"/></g></mask></defs><rect data-name="a" width="300" height="280" rx="12" fill="#f9f9fa"/><g mask="url(#a)"><rect data-name="d" x="23" y="226" width="251" height="30" rx="4"/><rect data-name="d" x="23" y="226" width="251" height="30" rx="4" fill="#fff"/><rect x="253.84" y="213.96" width="16.04" height="7.92" rx="3.96" fill="#b1b1b3" stroke="#b1b1b3"/><rect x="24.16" y="211" width="74.03" height="9.23" rx="2" fill="#737373"/><rect x="29.94" y="231.77" width="74.03" height="9.23" rx="2" fill="#d7d7db"/><rect x="108.59" y="231.77" width="9.25" height="9.23" rx="2" fill="#ededf0"/><rect x="204.6" y="231.77" width="23.13" height="9.23" rx="2" fill="#737373"/><rect x="236.99" y="231.77" width="23.13" height="9.23" rx="2" fill="#ededf0"/><rect x="204.6" y="245.62" width="23.13" height="4.62" rx="2" fill="#737373"/><rect x="236.99" y="245.62" width="23.13" height="4.62" rx="2" fill="#ededf0"/><ellipse cx="257.81" cy="217.92" rx="3.47" ry="3.46" fill="#fff"/></g><g mask="url(#a)"><rect data-name="f" x="23" y="157" width="251" height="30" rx="4"/><rect data-name="f" x="23" y="157" width="251" height="30" rx="4" fill="#fff"/><path d="M257.8 143.81h8.11a4 4 0 014 4h0a4 4 0 01-4 4h-8.11a4 4 0 01-4-4h0a4 4 0 014-4z" fill="#0060df" stroke="#0060df" fill-rule="evenodd"/><rect x="108.59" y="162.77" width="9.25" height="9.23" rx="2" fill="#ededf0"/><rect x="204.6" y="162.77" width="23.13" height="9.23" rx="2" fill="#ededf0"/><rect x="236.99" y="162.77" width="23.13" height="9.23" rx="2" fill="#737373"/><rect x="204.6" y="176.62" width="23.13" height="4.62" rx="2" fill="#ededf0"/><rect x="236.99" y="176.62" width="23.13" height="4.62" rx="2" fill="#737373"/><rect x="24.16" y="142" width="74.03" height="9.23" rx="2" fill="#737373"/><rect x="29.94" y="162.77" width="74.03" height="9.23" rx="2" fill="#d7d7db"/><ellipse cx="265.9" cy="147.77" rx="3.47" ry="3.46" fill="#fff"/></g><g mask="url(#a)"><rect data-name="h" x="23" y="88" width="251" height="30" rx="4"/><rect data-name="h" x="23" y="88" width="251" height="30" rx="4" fill="#fff"/><rect x="253.84" y="75.96" width="16.04" height="7.92" rx="3.96" fill="#0060df" stroke="#0060df"/><rect x="108.59" y="93.77" width="9.25" height="9.23" rx="2" fill="#ededf0"/><rect x="204.6" y="92.62" width="23.13" height="9.23" rx="2" fill="#ededf0"/><rect x="236.99" y="92.62" width="23.13" height="9.23" rx="2" fill="#737373"/><rect x="204.6" y="106.46" width="23.13" height="4.62" rx="2" fill="#ededf0"/><rect x="236.99" y="106.46" width="23.13" height="4.62" rx="2" fill="#737373"/><rect x="24.16" y="73" width="74.03" height="9.23" rx="2" fill="#737373"/><rect x="29.94" y="93.77" width="74.03" height="9.23" rx="2" fill="#d7d7db"/><ellipse cx="265.9" cy="79.92" rx="3.47" ry="3.46" fill="#fff"/></g><g mask="url(#a)"><path d="M28.86 34v-7.1l3 4.05 3.06-4.12V34h1.94V23.78H35L31.85 28l-3-4.21H26.9V34zm11.85.15a3.39 3.39 0 002.78-1.31V34h1.86v-4.65c0-1.9-1.28-3.06-3.5-3.06A4.21 4.21 0 0038.28 28l1.78.88a1.87 1.87 0 011.77-1c1.1 0 1.64.56 1.64 1.37v.1h-2c-2.1 0-3.4 1-3.4 2.53.01 1.35.99 2.27 2.64 2.27zm.56-1.59c-.79 0-1.17-.28-1.17-.83s.46-.95 1.61-.95h1.78v.41a2.5 2.5 0 01-2.22 1.37zM48.78 34v-4.17A1.64 1.64 0 0150.39 28c1 0 1.54.67 1.54 1.75V34h2v-4.56c0-2-1.13-3.15-2.92-3.15a2.68 2.68 0 00-2.22 1.1v-.95h-1.96V34zm8.94.15a3.39 3.39 0 002.78-1.31V34h1.86v-4.65c0-1.9-1.28-3.06-3.5-3.06A4.21 4.21 0 0055.29 28l1.78.88a1.87 1.87 0 011.77-1c1.1 0 1.64.56 1.64 1.37v.1h-2c-2.1 0-3.4 1-3.4 2.53.01 1.35.99 2.27 2.64 2.27zm.56-1.59c-.79 0-1.17-.28-1.17-.83s.46-.95 1.61-.95h1.78v.41a2.5 2.5 0 01-2.22 1.37zm9.31 4.67a3.74 3.74 0 004-3.79v-7h-1.97v1a2.82 2.82 0 00-2.35-1.14 3.72 3.72 0 00-3.67 3.92 3.72 3.72 0 003.64 3.9 2.9 2.9 0 002.38-1.19v.58a2 2 0 01-2.08 2 2.31 2.31 0 01-2.06-1l-1.6 1.25a4.51 4.51 0 003.71 1.47zm0-4.91a2.13 2.13 0 112.1-2.13 2.11 2.11 0 01-2.07 2.13zm9.21 1.83a4 4 0 003.49-1.75l-1.58-.92a2.06 2.06 0 01-1.88 1 2.1 2.1 0 01-2.17-1.6h6v-.73a3.76 3.76 0 00-3.91-3.87 3.9 3.9 0 00-4 3.94 3.81 3.81 0 004.08 3.93zm2-4.77h-4a2.1 2.1 0 012-1.46 1.91 1.91 0 011.98 1.46zM86.16 37c1.59 0 2.41-.66 3.19-2.59l3.26-8h-2l-1.87 4.87-2-4.87h-2l3 7.24-.12.31c-.38.89-.8 1.2-1.49 1.2a1.36 1.36 0 01-1-.46L84 36.3a3.86 3.86 0 002.16.7zm10.57-2.85a3.93 3.93 0 10-4-3.93 3.92 3.92 0 004 3.93zm0-1.83a2.12 2.12 0 112.07-2.11 2.08 2.08 0 01-2.06 2.11zm8.18 1.83a2.63 2.63 0 002.18-1.1v1H109v-7.62h-2v4.17c0 1.17-.67 1.83-1.58 1.83s-1.42-.66-1.42-1.72v-4.27h-2V31c0 2 1.06 3.15 2.92 3.15zm7.57-.15v-4c0-1.27.65-1.78 1.64-1.78a1.74 1.74 0 011 .27l.7-1.91a2.92 2.92 0 00-1.28-.29 2.07 2.07 0 00-2.08 1.3v-1.15h-1.91V34zm9.52 0v-4c0-1.27.64-1.78 1.63-1.78a1.72 1.72 0 011 .27l.7-1.91a2.9 2.9 0 00-1.27-.29A2.08 2.08 0 00122 27.6v-1.16h-1.9V34zm7.47.15A4 4 0 00133 32.4l-1.58-.92a2.06 2.06 0 01-1.88 1 2.1 2.1 0 01-2.17-1.6h6v-.73a3.76 3.76 0 00-3.91-3.87 3.9 3.9 0 00-4 3.94 3.81 3.81 0 004.04 3.93zm1.95-4.77h-4a2.1 2.1 0 012-1.46 1.91 1.91 0 012 1.46zm5.15 4.62V23h-1.93v11zm3.87.15a3.37 3.37 0 002.77-1.31V34h1.86v-4.65c0-1.9-1.27-3.06-3.5-3.06A4.22 4.22 0 00138 28l1.78.88a1.88 1.88 0 011.78-1c1.09 0 1.63.56 1.63 1.37v.1h-2c-2.1 0-3.41 1-3.41 2.53.02 1.35 1 2.27 2.66 2.27zm.56-1.59c-.8 0-1.18-.28-1.18-.83s.46-.95 1.61-.95h1.78v.41a2.5 2.5 0 01-2.21 1.37zm6 4.44c1.59 0 2.4-.66 3.19-2.59l3.26-8h-2l-1.86 4.87-2-4.87h-2.06l3 7.24-.12.31c-.38.89-.8 1.2-1.49 1.2a1.36 1.36 0 01-1-.46l-1.12 1.57a3.86 3.86 0 002.2.73zm13-2.85a3.36 3.36 0 002.77-1.31V34h1.86v-4.65c0-1.9-1.27-3.06-3.5-3.06a4.22 4.22 0 00-3.52 1.71l1.78.88a1.89 1.89 0 011.78-1c1.09 0 1.64.56 1.64 1.37v.1h-2c-2.1 0-3.4 1-3.4 2.53.01 1.35.99 2.27 2.64 2.27zm.56-1.59c-.8 0-1.18-.28-1.18-.83s.47-.95 1.61-.95h1.78v.41a2.5 2.5 0 01-2.16 1.37zm9 1.59a2.86 2.86 0 002.38-1.15v1h1.9V23h-1.9v4.46a2.84 2.84 0 00-2.34-1.12 3.72 3.72 0 00-3.67 3.93 3.74 3.74 0 003.64 3.88zm.38-1.82a2.13 2.13 0 112.1-2.12 2.1 2.1 0 01-2.04 2.12zm8.79 1.82a2.86 2.86 0 002.38-1.15v1H183V23h-1.9v4.46a2.84 2.84 0 00-2.34-1.12 3.72 3.72 0 00-3.67 3.93 3.74 3.74 0 003.65 3.88zm.38-1.82a2.13 2.13 0 112.1-2.12 2.1 2.1 0 01-2.09 2.12zm7.33 1.67v-4c0-1.27.64-1.78 1.64-1.78a1.74 1.74 0 011 .27l.7-1.91a3 3 0 00-1.28-.29 2.07 2.07 0 00-2.08 1.3v-1.15h-1.91V34zm7.48.15a4 4 0 003.48-1.75l-1.58-.92a2.06 2.06 0 01-1.88 1 2.11 2.11 0 01-2.17-1.6h6v-.73a3.76 3.76 0 00-3.91-3.87 3.9 3.9 0 00-4 3.94 3.81 3.81 0 004 3.92zm1.94-4.77h-4a2.1 2.1 0 012-1.46 1.91 1.91 0 012 1.46zm6.2 4.77c2.2 0 3.25-1.31 3.25-2.49 0-1.62-1.48-2.06-2.74-2.31-1.11-.24-1.72-.36-1.72-.84s.36-.73 1.12-.73a1.62 1.62 0 011.48.8l1.76-.71a3.58 3.58 0 00-3.21-1.61c-1.87 0-3.1 1.09-3.1 2.36 0 1.6 1.42 2 2.69 2.26 1 .19 1.78.32 1.78.87s-.42.82-1.21.82a1.81 1.81 0 01-1.73-1l-1.86.73a3.55 3.55 0 003.52 1.87zm7.42 0c2.2 0 3.25-1.31 3.25-2.49 0-1.62-1.48-2.06-2.74-2.31s-1.72-.36-1.72-.84.36-.73 1.12-.73a1.62 1.62 0 011.48.8l1.76-.71a3.58 3.58 0 00-3.24-1.61c-1.87 0-3.1 1.09-3.1 2.36 0 1.6 1.42 2 2.69 2.26 1 .19 1.78.32 1.78.87s-.42.82-1.21.82a1.81 1.81 0 01-1.73-1l-1.86.73a3.55 3.55 0 003.52 1.87zm8.21 0a4 4 0 003.48-1.75l-1.58-.92a2.05 2.05 0 01-1.87 1 2.1 2.1 0 01-2.17-1.6h6v-.73a3.76 3.76 0 00-3.9-3.87 3.9 3.9 0 00-4 3.94 3.81 3.81 0 004 3.92zm1.94-4.77h-4a2.12 2.12 0 012.05-1.46 1.9 1.9 0 012 1.46zm6.21 4.77c2.19 0 3.24-1.31 3.24-2.49 0-1.62-1.48-2.06-2.74-2.31s-1.72-.36-1.72-.84.36-.73 1.12-.73a1.62 1.62 0 011.48.8l1.77-.71a3.6 3.6 0 00-3.25-1.61c-1.86 0-3.1 1.09-3.1 2.36 0 1.6 1.42 2 2.69 2.26 1 .19 1.78.32 1.78.87s-.42.82-1.2.82a1.82 1.82 0 01-1.74-1l-1.86.73a3.56 3.56 0 003.53 1.87z" fill="#38383d"/></g><g mask="url(#a)"><path d="M276.27 43a1.63 1.63 0 011.73 1.5 1.6 1.6 0 01-1.57 1.5H25.73A1.63 1.63 0 0124 44.5a1.6 1.6 0 011.57-1.5h250.7z" fill="url(#b)"/></g></svg>