<svg id="a07e4bfb-a134-4815-bbec-54f1e35564a4" data-name="Layer 1" xmlns="http://www.w3.org/2000/svg" xmlns:xlink="http://www.w3.org/1999/xlink" viewBox="0 0 301.54 280"><defs><mask id="acd4668a-fcf6-47cb-85d6-5a6200994a93" x="0" y="0" width="301.54" height="280" maskUnits="userSpaceOnUse"><g transform="translate(0.29)"><g id="b5e5ef8f-2040-4e21-911d-00596654984d" data-name="b"><rect id="f5b87a08-1c50-4bb3-9a40-66890d96b21c" data-name="a" width="300" height="280" rx="12" fill="#fff"/></g></g></mask><mask id="b5367608-33c5-46af-8c6c-3f499237ed52" x="74.62" y="47.35" width="18.48" height="18.67" maskUnits="userSpaceOnUse"><g transform="translate(0.29)"><g id="ea31cbd7-73eb-4536-972a-7a73ace18ab7" data-name="e"><path id="f6d05812-b944-405a-a7de-323db836334a" data-name="d" d="M91.08,56.69c-1.13,0-1.16,1.17-2,1.17a.89.89,0,0,1-.86-.88V53.19A1.16,1.16,0,0,0,87,52H83.28a.88.88,0,0,1-.87-.87c0-.88,1.16-.91,1.16-2s-1-1.75-2.31-1.75S79,48.09,79,49.1s1.15,1.17,1.15,2a.88.88,0,0,1-.86.87H75.48a1.16,1.16,0,0,0-1.15,1.17v2.62a.89.89,0,0,0,.86.88c.87,0,.9-1.17,2-1.17s1.73,1,1.73,2.34-.74,2.33-1.73,2.33S76.06,59,75.19,59a.89.89,0,0,0-.86.88v5A1.17,1.17,0,0,0,75.48,66h3.76a.89.89,0,0,0,.86-.88c0-.87-1.15-.91-1.15-2s1-1.75,2.31-1.75,2.31.74,2.31,1.75-1.16,1.17-1.16,2a.89.89,0,0,0,.87.88H87a1.17,1.17,0,0,0,1.16-1.17V61.07a.89.89,0,0,1,.86-.88c.87,0,.9,1.17,2,1.17s1.73-1,1.73-2.34S92.07,56.69,91.08,56.69Z" fill="#fff" fill-rule="evenodd"/></g></g></mask><linearGradient id="afc21164-bf65-46b1-a8ea-1cf893481a7c" x1="-523.51" y1="526.52" x2="-524.07" y2="527.34" gradientTransform="translate(36382.01 -52480) scale(69 100)" gradientUnits="userSpaceOnUse"><stop offset="0" stop-color="#ff9100"/><stop offset="0.52" stop-color="#f10366"/><stop offset="1" stop-color="#6173ff"/></linearGradient><linearGradient id="a15f229f-9513-4067-ab1a-723689b69672" x1="88.55" y1="124.2" x2="83.15" y2="119.09" gradientUnits="userSpaceOnUse"><stop offset="0" stop-color="#054096" stop-opacity="0.5"/><stop offset="0.05" stop-color="#0f3d9c" stop-opacity="0.44"/><stop offset="0.26" stop-color="#2f35b1" stop-opacity="0.25"/><stop offset="0.47" stop-color="#462fbf" stop-opacity="0.11"/><stop offset="0.67" stop-color="#542bc8" stop-opacity="0.03"/><stop offset="0.86" stop-color="#592acb" stop-opacity="0"/></linearGradient><linearGradient id="b67d40e2-8ad6-45a5-9d99-d34f6984eb95" x1="61.19" y1="113.88" x2="84.98" y2="113.88" gradientUnits="userSpaceOnUse"><stop offset="0" stop-color="#9059ff"/><stop offset="1" stop-color="#f770ff"/></linearGradient><linearGradient id="bd4f97f9-f22b-440f-a8ee-6de8fa3c75f8" x1="61.19" y1="111.28" x2="84.98" y2="111.28" xlink:href="#b67d40e2-8ad6-45a5-9d99-d34f6984eb95"/><linearGradient id="a66499cd-6045-47cf-92a1-ff8096828f97" x1="61.19" y1="108.45" x2="84.98" y2="108.45" xlink:href="#b67d40e2-8ad6-45a5-9d99-d34f6984eb95"/><linearGradient id="a9ef3945-3f7c-436a-b1a4-825df7dd686e" x1="61.19" y1="105.62" x2="84.98" y2="105.62" xlink:href="#b67d40e2-8ad6-45a5-9d99-d34f6984eb95"/><linearGradient id="fd743016-a758-4cc5-b9bc-61b522b4dc42" x1="61.19" y1="103.03" x2="84.98" y2="103.03" xlink:href="#b67d40e2-8ad6-45a5-9d99-d34f6984eb95"/><linearGradient id="fc3dd42b-d8d7-4b33-93f6-7fe9b05db0b4" x1="73.83" y1="119.18" x2="93.32" y2="127.43" gradientUnits="userSpaceOnUse"><stop offset="0" stop-color="#54ffbd"/><stop offset="1" stop-color="#0df"/></linearGradient></defs><g id="adf00729-c78c-4151-8bb8-504429a74b59" data-name="b"><rect id="fa18b676-6443-4229-bdc1-fff8dcd1361d" data-name="a" x="0.29" width="300" height="280" rx="12" fill="#fff"/></g><rect id="f2e94430-9bfd-4fa8-af30-ea5caf6dd904" data-name="a" x="0.29" width="300" height="280" rx="12" fill="#d8d8d8"/><g mask="url(#acd4668a-fcf6-47cb-85d6-5a6200994a93)"><polygon points="19.76 0 179.72 0 179.72 34.52 300.29 34.52 300.29 82.37 0 82.37 0 34.52 19.76 34.52 19.76 0" fill="#ececef" fill-rule="evenodd"/><rect x="30.73" y="6.5" width="18.48" height="18.67" fill="#c1c1c5"/><polygon points="59.6 12.34 152 12.34 152 21.68 59.6 21.68 59.6 12.34" fill="#a6a6a6" fill-opacity="0.4" fill-rule="evenodd"/><rect y="82.37" width="300.29" height="197.63" fill="#f7f7f8"/><path d="M299.25,40.85H12.81a1.49,1.49,0,0,0-1.06.44,1.46,1.46,0,0,0-.44,1.06V72.2a1.46,1.46,0,0,0,.44,1.06,1.49,1.49,0,0,0,1.06.44H299.25a1.5,1.5,0,0,0,1.5-1.5V42.35a1.5,1.5,0,0,0-1.5-1.5Z" transform="translate(0.29)" fill="#fff" stroke="#cdcdcd" fill-rule="evenodd" opacity="0.59" style="isolation:isolate"/><polygon points="102.34 50.85 300.29 50.85 300.29 64.86 102.34 64.86 102.34 50.85" fill="#a6a6a6" fill-opacity="0.2" fill-rule="evenodd"/><path d="M24.09,52.25c0,1.9-.06,3.23,0,3.86a8.87,8.87,0,0,0,1.72,5.11,4.83,4.83,0,0,0,2.9,1.87,4.83,4.83,0,0,0,2.9-1.87,8.87,8.87,0,0,0,1.72-5.11c.05-.63,0-2,0-3.86l-4.62-.79Zm4.62,13.2h-.13A7.18,7.18,0,0,1,24,62.6a10.77,10.77,0,0,1-2.08-6.17c-.09-1-.09-3.12-.09-4.32A2.15,2.15,0,0,1,23.54,50l5.17-.89,5.16.89a2.16,2.16,0,0,1,1.77,2.13c0,1.19,0,3.35-.09,4.32a10.91,10.91,0,0,1-2.08,6.17,7.23,7.23,0,0,1-4.64,2.84Zm0-12.22-2.89.5c0,1.1,0,1.93.07,2.34a6.85,6.85,0,0,0,1.31,4.12,3.17,3.17,0,0,0,1.5,1.1h0Z" transform="translate(0.29)" fill="#0c0c0d" fill-opacity="0.2" fill-rule="evenodd"/><line x1="45.17" y1="47.94" x2="45.17" y2="66.61" fill="none" stroke="#979797" stroke-linecap="square" opacity="0.4" style="isolation:isolate"/><path id="b606e117-b346-474b-a198-aed7b34c91f3" data-name="c" d="M65.67,56.09h-.58V53.77a4.62,4.62,0,1,0-9.24,0v2.32h-.58a1.74,1.74,0,0,0-1.73,1.75v5.85a1.74,1.74,0,0,0,1.73,1.75h10.4a1.74,1.74,0,0,0,1.73-1.75V57.84A1.74,1.74,0,0,0,65.67,56.09Zm-7.51-2.32a2.31,2.31,0,1,1,4.62,0v2.32H58.16Z" transform="translate(0.29)" fill="#0c0c0d" fill-opacity="0.8" fill-rule="evenodd"/><rect x="74.62" y="47.35" width="18.48" height="18.67" fill="none"/><g mask="url(#b5367608-33c5-46af-8c6c-3f499237ed52)"><rect x="74.62" y="47.35" width="18.48" height="18.67" fill="#0c0c0d" fill-opacity="0.8"/></g><line x1="0.58" y1="81.78" x2="300.29" y2="81.78" fill="none" stroke="#979797" stroke-linecap="square" opacity="0.25" style="isolation:isolate"/></g><path d="M300,77.72H88.27l-6.71-7.94-6.7,7.94H50.58a5.5,5.5,0,0,0-5.5,5.5V225a5.5,5.5,0,0,0,5.5,5.5H300Z" transform="translate(0.29)" fill="#fff" stroke="#dfdfe3" fill-rule="evenodd"/><rect x="99.19" y="125.35" width="176.84" height="9.39" rx="4.7" fill="#dfdfe3"/><path d="M122.09,146.48H245.62a4.69,4.69,0,0,1,4.7,4.69h0a4.69,4.69,0,0,1-4.7,4.7H122.09a4.69,4.69,0,0,1-4.69-4.7h0A4.69,4.69,0,0,1,122.09,146.48Z" transform="translate(0.29)" fill="#dfdfe3" fill-rule="evenodd"/><path d="M122.09,165.26H245.62a4.69,4.69,0,0,1,4.7,4.7h0a4.69,4.69,0,0,1-4.7,4.69H122.09A4.69,4.69,0,0,1,117.4,170h0A4.69,4.69,0,0,1,122.09,165.26Z" transform="translate(0.29)" fill="#dfdfe3" fill-rule="evenodd"/><rect x="99.19" y="146.48" width="9.25" height="9.39" rx="2" fill="#dfdfe3"/><rect x="99.19" y="165.26" width="9.25" height="9.39" rx="2" fill="#dfdfe3"/><line x1="44.87" y1="194.61" x2="300.29" y2="194.61" fill="none" stroke="#dfdfe3" stroke-linecap="square"/><path d="M300.42,231H177.5V194.61H300" transform="translate(0.29)" fill="#0056ee" fill-rule="evenodd"/><path d="M178.08,194.61H45.16V223a8,8,0,0,0,8,8H178.08Z" transform="translate(0.29)" fill="#fafafc" fill-rule="evenodd"/><path d="M95.19,216.4a3.7,3.7,0,0,0,3.32-2l-.74-.39a2.81,2.81,0,0,1-2.59,1.59,3,3,0,0,1,0-5.9,2.83,2.83,0,0,1,2.5,1.49l.72-.44a3.75,3.75,0,1,0-3.22,5.66Zm6.17,0a2.74,2.74,0,0,0,2.24-1.06v1h.8v-3.44c0-1.22-.83-2.07-2.37-2.07A2.92,2.92,0,0,0,99.59,212l.71.45a1.91,1.91,0,0,1,1.72-.91c1,0,1.58.55,1.58,1.37v.21h-1.71c-1.51,0-2.45.64-2.45,1.75,0,.87.63,1.59,1.92,1.59Zm.15-.72c-.85,0-1.23-.4-1.23-.93s.53-1,1.65-1h1.67v.74a2.38,2.38,0,0,1-2.09,1.22Zm5.13.61v-3a1.69,1.69,0,0,1,1.7-1.77,1.55,1.55,0,0,1,1.63,1.73v3h.83v-3.08a2.2,2.2,0,0,0-2.3-2.43,2.16,2.16,0,0,0-1.88,1v-.9h-.8v5.4Zm8.17.11a2.7,2.7,0,0,0,2.57-1.7l-.76-.32a1.93,1.93,0,0,1-1.8,1.25,2,2,0,0,1-2-2,2,2,0,0,1,2-2,1.91,1.91,0,0,1,1.81,1.2l.75-.33a2.72,2.72,0,0,0-2.55-1.64,2.81,2.81,0,1,0,0,5.62Zm6.3,0a2.77,2.77,0,0,0,2.51-1.37l-.7-.41a1.93,1.93,0,0,1-1.81,1,2,2,0,0,1-2-1.76h4.77v-.37a2.66,2.66,0,0,0-2.75-2.75,2.77,2.77,0,0,0-2.82,2.83A2.7,2.7,0,0,0,121.11,216.41Zm1.88-3.22h-3.91a2,2,0,0,1,2-1.67A1.82,1.82,0,0,1,123,213.19Zm2.9,3.11v-7.88h-.82v7.88Z" transform="translate(0.29)" fill="#6b6b6f"/><path d="M100.49,110.48l.91-2.38h4.52l.93,2.38H108L104.22,101H103.1l-3.76,9.49Zm5-3.41H101.8l1.85-4.79Zm6.75,3.55a3.18,3.18,0,0,0,2.62-1.39v1.25H116V100.22h-1.06v4.46a3.17,3.17,0,0,0-2.62-1.36,3.65,3.65,0,0,0,0,7.3Zm.09-1a2.56,2.56,0,0,1-2.59-2.66,2.59,2.59,0,0,1,2.59-2.67,2.67,2.67,0,0,1,0,5.33Zm8.77,1a3.18,3.18,0,0,0,2.63-1.39v1.25h1V100.22h-1v4.46a3.18,3.18,0,0,0-2.63-1.36,3.65,3.65,0,0,0,0,7.3Zm.09-1a2.56,2.56,0,0,1-2.58-2.66,2.58,2.58,0,0,1,2.58-2.67,2.67,2.67,0,0,1,0,5.33Zm10.42.86v-3.84h4.26v-1.71h-4.26v-2.2h4.26V101h-6.11v9.49Zm6.52-7.85a1.11,1.11,0,0,0,1.16-1.15,1.15,1.15,0,1,0-2.3,0A1.1,1.1,0,0,0,138.16,102.63Zm.93,7.85v-7h-1.84v7Zm3.21,0v-3.71c0-1.18.59-1.65,1.52-1.65a1.64,1.64,0,0,1,.93.25l.65-1.77a2.67,2.67,0,0,0-1.18-.27,1.93,1.93,0,0,0-1.94,1.21v-1.08h-1.76v7Zm6.94.14a3.72,3.72,0,0,0,3.24-1.62l-1.47-.86a1.92,1.92,0,0,1-1.75.93,1.94,1.94,0,0,1-2-1.48h5.58v-.67a3.5,3.5,0,0,0-3.63-3.6,3.62,3.62,0,0,0-3.68,3.66A3.54,3.54,0,0,0,149.24,110.62Zm1.81-4.43H147.3a2,2,0,0,1,1.9-1.35A1.78,1.78,0,0,1,151.05,106.19Zm5.23,4.29v-5.41H158v-1.61h-1.69v-.34c0-1.07.15-1.25,1.4-1.25H158v-1.64h-.46c-2.29,0-3,.71-3,3v.25h-1.15v1.61h1.15v5.41Zm5.82.14a3.65,3.65,0,1,0-3.71-3.65A3.65,3.65,0,0,0,162.1,110.62Zm0-1.7a2,2,0,1,1,1.92-2A1.93,1.93,0,0,1,162.11,108.92Zm5.93,1.56,1.57-2.2,1.61,2.2h2.17l-2.68-3.59,2.5-3.43H171.1l-1.48,2.08-1.47-2.08H166l2.48,3.42-2.62,3.6Zm11.23,0v-3h2.13l1.52,3H185L183.1,107a3.09,3.09,0,0,0,1.67-2.81,3.18,3.18,0,0,0-3.49-3.21h-3.84v9.49Zm1.87-4.67h-1.87v-3.13h1.87c1.17,0,1.77.6,1.77,1.53A1.58,1.58,0,0,1,181.14,105.81Zm8.06,4.81a3.7,3.7,0,0,0,3.24-1.62l-1.47-.86a1.91,1.91,0,0,1-1.74.93,2,2,0,0,1-2-1.48h5.58v-.67a3.5,3.5,0,0,0-3.63-3.6,3.62,3.62,0,0,0-3.68,3.66A3.54,3.54,0,0,0,189.2,110.62Zm1.81-4.43h-3.75a2,2,0,0,1,1.9-1.35,1.78,1.78,0,0,1,1.85,1.35Zm4.76,4.29V100.23H194v10.25Zm3.58.14a3.12,3.12,0,0,0,2.58-1.22v1.08h1.73v-4.32c0-1.77-1.19-2.84-3.25-2.84a3.94,3.94,0,0,0-3.32,1.59l1.65.82a1.76,1.76,0,0,1,1.65-.92c1,0,1.52.52,1.52,1.27v.1h-1.84c-1.95,0-3.16.89-3.16,2.35,0,1.23.91,2.09,2.44,2.09Zm.52-1.48c-.74,0-1.09-.26-1.09-.77s.43-.88,1.5-.88h1.65v.38A2.32,2.32,0,0,1,199.87,109.14Zm5.59,4.12c1.49,0,2.24-.61,3-2.4l3-7.4h-1.88L207.86,108,206,103.46h-1.92l2.83,6.72-.12.29c-.35.83-.74,1.11-1.38,1.11a1.27,1.27,0,0,1-.95-.43l-1,1.46A3.51,3.51,0,0,0,205.46,113.26Zm10.3-5.69v-.09c0-2.07,2.46-1.5,2.46-4a2.73,2.73,0,0,0-3-2.66,3,3,0,0,0-3.08,1.92l1.61.69a1.46,1.46,0,0,1,1.4-1,1.14,1.14,0,0,1,1.26,1.11c0,1.47-2.2,1-2.2,3.94v.09Zm-.78,3.09a1.15,1.15,0,1,0-1.14-1.14A1.1,1.1,0,0,0,215,110.66Z" transform="translate(0.29)" fill="#434346"/><path d="M233.42,216.3l.48-1.33h3l.48,1.33h1.45l-2.76-7.3h-1.39L232,216.3Zm3.06-2.61h-2.11l1.06-2.9Zm5.19,2.72a2,2,0,0,0,1.69-.85v.74h1.36v-7.89h-1.36v3.18a2,2,0,0,0-1.67-.8,2.82,2.82,0,0,0,0,5.62Zm.27-1.3a1.52,1.52,0,1,1,1.5-1.52A1.5,1.5,0,0,1,241.94,215.11Zm6.28,1.3a2,2,0,0,0,1.69-.85v.74h1.36v-7.89h-1.36v3.18a2,2,0,0,0-1.67-.8,2.82,2.82,0,0,0,0,5.62Zm.27-1.3a1.52,1.52,0,1,1,1.5-1.52A1.5,1.5,0,0,1,248.49,215.11Z" transform="translate(0.29)" fill="#fff"/><path d="M300,77.72H88.27l-6.71-7.94-6.7,7.94H50.58a5.5,5.5,0,0,0-5.5,5.5V225a5.5,5.5,0,0,0,5.5,5.5H300" transform="translate(0.29)" fill="none" stroke="#dfdfe3" fill-rule="evenodd"/><path d="M242.17,184.37a1.74,1.74,0,0,0,1.71-1.59v-18a1.72,1.72,0,0,0-3.44-.17v18a1.74,1.74,0,0,0,1.73,1.76Zm20.9-.27a1.71,1.71,0,0,0,2.37-.56l9.3-15.14.08-.15a1.77,1.77,0,0,0-.63-2.27,1.7,1.7,0,0,0-2.37.56l-9.3,15.14-.08.15A1.77,1.77,0,0,0,263.07,184.1Zm-45.14,0a1.77,1.77,0,0,0,.63-2.27l-.08-.15-9.3-15.14a1.7,1.7,0,0,0-2.37-.56,1.77,1.77,0,0,0-.63,2.27l.08.15,9.3,15.14A1.71,1.71,0,0,0,217.93,184.1ZM242.17,263a1.73,1.73,0,0,0,1.71-1.58v-18a1.72,1.72,0,0,0-3.44-.17v18A1.73,1.73,0,0,0,242.17,263Zm32-2.93a1.78,1.78,0,0,0,.63-2.27l-.08-.15-9.3-15.15a1.69,1.69,0,0,0-2.37-.55,1.77,1.77,0,0,0-.63,2.27l.08.14,9.3,15.15A1.7,1.7,0,0,0,274.19,260.07Zm-67.38,0a1.7,1.7,0,0,0,2.37-.56l9.3-15.15.08-.14a1.77,1.77,0,0,0-.63-2.27,1.69,1.69,0,0,0-2.37.55l-9.3,15.15-.08.15A1.78,1.78,0,0,0,206.81,260.07Z" transform="translate(0.29)" fill="url(#afc21164-bf65-46b1-a8ea-1cf893481a7c)"/><path d="M89,114.62H73.36a.83.83,0,0,0-.83.83V118a6.66,6.66,0,0,0,6.65,6.66h8.64a5,5,0,0,0,5-5v-2.18C92.81,116.18,91.56,114.62,89,114.62Z" transform="translate(0.29)" fill="#008787"/><g opacity="0.9"><path d="M89,114.62H73.36a.83.83,0,0,0-.83.83V118a6.66,6.66,0,0,0,6.65,6.66h8.64a5,5,0,0,0,5-5v-2.18C92.81,116.18,91.56,114.62,89,114.62Z" transform="translate(0.29)" fill="url(#a15f229f-9513-4067-ab1a-723689b69672)"/></g><path d="M87.87,98.08,74.25,90.44a3.25,3.25,0,0,0-3.14,0L57.49,98.08a3.19,3.19,0,0,0-1.64,2.79v15.27a3.22,3.22,0,0,0,1.64,2.8l13.62,7.64a3.21,3.21,0,0,0,3.14,0l13.62-7.64a3.22,3.22,0,0,0,1.64-2.8V100.87A3.19,3.19,0,0,0,87.87,98.08Z" transform="translate(0.29)" fill="#20123a"/><path d="M63.16,112.53l-.84.48a1.27,1.27,0,0,0,.63,2.38,1.28,1.28,0,0,0,.63-.16l.83-.47a1.28,1.28,0,1,0-1.25-2.23Z" transform="translate(0.29)" fill="url(#b67d40e2-8ad6-45a5-9d99-d34f6984eb95)"/><path d="M68.17,109.7l-1.67,1a1.27,1.27,0,0,0,1.25,2.22l1.67-1a1.27,1.27,0,0,0-1.25-2.22Z" transform="translate(0.29)" fill="url(#bd4f97f9-f22b-440f-a8ee-6de8fa3c75f8)"/><path d="M74.91,107.35a1.23,1.23,0,0,0-.67-.56V97.13a1.28,1.28,0,1,0-2.55,0v9.66a1.3,1.3,0,0,0-.67.56,8.68,8.68,0,0,0,0,2.2,1.28,1.28,0,0,0,.67.57v9.66a1.28,1.28,0,1,0,2.55,0v-9.66a1.21,1.21,0,0,0,.67-.57,8.68,8.68,0,0,0,0-2.2Z" transform="translate(0.29)" fill="url(#a66499cd-6045-47cf-92a1-ff8096828f97)"/><path d="M78.18,104l-1.67.94a1.28,1.28,0,0,0,.63,2.39,1.19,1.19,0,0,0,.63-.17l1.67-.94A1.28,1.28,0,0,0,78.18,104Z" transform="translate(0.29)" fill="url(#a9ef3945-3f7c-436a-b1a4-825df7dd686e)"/><path d="M82.15,104.54a1.32,1.32,0,0,0,.63-.17l.83-.47a1.28,1.28,0,0,0-1.26-2.22l-.83.47a1.28,1.28,0,0,0,.63,2.39Z" transform="translate(0.29)" fill="url(#fd743016-a758-4cc5-b9bc-61b522b4dc42)"/><path d="M83.61,113l-.83-.48a1.28,1.28,0,0,0-1.26,2.23l.83.47a1.31,1.31,0,0,0,.63.16,1.27,1.27,0,0,0,.63-2.38Z" transform="translate(0.29)" fill="url(#b67d40e2-8ad6-45a5-9d99-d34f6984eb95)"/><path d="M79.44,110.65l-1.67-1a1.28,1.28,0,1,0-1.26,2.22l1.67,1a1.31,1.31,0,0,0,.63.16,1.27,1.27,0,0,0,.63-2.38Z" transform="translate(0.29)" fill="url(#bd4f97f9-f22b-440f-a8ee-6de8fa3c75f8)"/><path d="M66.5,106.26l1.67.94a1.16,1.16,0,0,0,.62.17,1.25,1.25,0,0,0,1.11-.65,1.27,1.27,0,0,0-.48-1.74L67.75,104a1.27,1.27,0,1,0-1.25,2.22Z" transform="translate(0.29)" fill="url(#a9ef3945-3f7c-436a-b1a4-825df7dd686e)"/><path d="M64.41,102.15l-.83-.47a1.28,1.28,0,0,0-1.26,2.22l.84.47a1.29,1.29,0,0,0,.62.17,1.3,1.3,0,0,0,1.12-.65A1.28,1.28,0,0,0,64.41,102.15Z" transform="translate(0.29)" fill="url(#fd743016-a758-4cc5-b9bc-61b522b4dc42)"/><path d="M92,118.26H77.63a6.14,6.14,0,0,0-6.14,6.15v3a.84.84,0,0,0,.83.84H86.66a6.15,6.15,0,0,0,6.15-6.15v-4.67A.83.83,0,0,1,92,118.26Z" transform="translate(0.29)" fill="url(#fc3dd42b-d8d7-4b33-93f6-7fe9b05db0b4)"/><path d="M77.9,123.2a.92.92,0,0,0,.48-.84c0-.74-.51-1.15-1.43-1.15H75.24v4.13H77c.92,0,1.48-.41,1.48-1.23A.94.94,0,0,0,77.9,123.2ZM76,121.91H77c.41,0,.61.18.61.47s-.18.49-.6.49H76Zm.94,2.71H76v-1h.91c.5,0,.69.19.69.51S77.41,124.62,77,124.62Z" transform="translate(0.29)" fill="#20123a"/><polygon points="79.49 125.34 82.27 125.34 82.27 124.58 80.29 124.58 80.29 123.64 82.27 123.64 82.27 122.89 80.29 122.89 80.29 121.96 82.27 121.96 82.27 121.21 79.49 121.21 79.49 125.34" fill="#20123a"/><polygon points="86.03 121.21 82.96 121.21 82.96 121.94 84.11 121.94 84.11 125.34 84.89 125.34 84.89 121.94 86.03 121.94 86.03 121.21" fill="#20123a"/><path d="M87.88,121.21h-.79l-1.56,4.13h.82l.27-.76h1.73l.27.76h.82Zm-1,2.65.6-1.64.59,1.64Z" transform="translate(0.29)" fill="#20123a"/></svg>