<svg width="306" height="223" viewBox="0 0 306 223" fill="none" xmlns="http://www.w3.org/2000/svg">
<g clip-path="url(#clip0)">
<path d="M301.18 1.30103H3.90278C2.46574 1.30103 1.30078 2.46598 1.30078 3.90303V232.597C1.30078 234.034 2.46574 235.199 3.90278 235.199H301.18C302.617 235.199 303.782 234.034 303.782 232.597V3.90303C303.782 2.46598 302.617 1.30103 301.18 1.30103Z" fill="white" stroke="#F0F0F4" stroke-width="2.602"/>
<path fill-rule="evenodd" clip-rule="evenodd" d="M0 19.515H305.083V40.981H0V19.515Z" fill="#F0F0F4"/>
<path d="M251.091 25.369H53.9909C53.2724 25.369 52.6899 25.9515 52.6899 26.67V33.825C52.6899 34.5435 53.2724 35.126 53.9909 35.126H251.091C251.809 35.126 252.392 34.5435 252.392 33.825V26.67C252.392 25.9515 251.809 25.369 251.091 25.369Z" fill="white"/>
<path fill-rule="evenodd" clip-rule="evenodd" d="M2.602 0H302.481C303.171 0 303.833 0.274138 304.321 0.762108C304.809 1.25008 305.083 1.91191 305.083 2.602V19.515H0V2.602C0 1.91191 0.274138 1.25008 0.762108 0.762108C1.25008 0.274138 1.91191 0 2.602 0V0Z" fill="#DFDFE6"/>
<path fill-rule="evenodd" clip-rule="evenodd" d="M26.02 3.25195H85.866V20.815H26.02V3.25195Z" fill="#F0F0F4"/>
<path fill-rule="evenodd" clip-rule="evenodd" d="M26.02 3.25195H85.866V6.50395H26.02V3.25195Z" fill="#D1D1D7"/>
<rect x="19" y="57" width="267" height="30" rx="3" stroke="#F0F0F4" stroke-width="2"/>
<rect x="19" y="97" width="267" height="30" rx="3" stroke="#F0F0F4" stroke-width="2"/>
<rect x="19" y="137" width="267" height="30" rx="3" fill="#F0F0F4" stroke="#F0F0F4" stroke-width="2"/>
<rect x="19" y="177" width="267" height="30" rx="3" stroke="#F0F0F4" stroke-width="2"/>
<rect x="28" y="66" width="21" height="12" rx="6" fill="#F0F0F4"/>
<rect x="28" y="106" width="21" height="12" rx="6" fill="#F0F0F4"/>
<rect x="28" y="146" width="21" height="12" rx="6" fill="white"/>
<rect x="28" y="186" width="21" height="12" rx="6" fill="#F0F0F4"/>
<circle cx="34" cy="72" r="4" fill="#999999"/>
<circle cx="34" cy="112" r="4" fill="#999999"/>
<circle cx="34" cy="192" r="4" fill="#999999"/>
<circle cx="43" cy="152" r="4" fill="#C4C4C4"/>
<path d="M239.651 80.7402L229.791 62.7995C229.206 61.7335 227.631 61.7335 227.043 62.7995L217.185 80.7402C216.632 81.7463 217.384 82.963 218.559 82.963H238.278C239.452 82.963 240.203 81.7463 239.651 80.7402Z" fill="#FF4F5E"/>
<path fill-rule="evenodd" clip-rule="evenodd" d="M228.418 79.9414C227.559 79.9414 226.861 79.2645 226.861 78.4306C226.861 77.5966 227.559 76.9198 228.418 76.9198C229.277 76.9198 229.975 77.5966 229.975 78.4306C229.975 79.2645 229.277 79.9414 228.418 79.9414ZM229.975 75.409H226.861V69.3657H229.975V75.409Z" fill="white"/>
<path d="M72.408 71.4324L69.8374 73.8689L67.3622 71.5624L67.0674 71.8559L60.3779 78.5806C60.6406 78.8458 60.9993 78.9967 61.3748 78.9999H78.3C78.6755 78.9969 79.0343 78.846 79.2969 78.5806L72.7219 71.7637L72.408 71.4324Z" fill="#0266A8"/>
<path d="M67.5676 71.7669L60.412 65.3907L60.425 65.3784H60.412C60.1541 65.6352 60.0071 65.9736 60 66.3273V77.6605C60.0024 78.0227 60.1586 78.3689 60.4337 78.6217L67.2727 72.0634L67.5676 71.7669Z" fill="#0390ED"/>
<path d="M79.6034 65.9575C79.5246 65.7368 79.3878 65.5378 79.2052 65.3784H79.1942C79.1942 65.3784 79.1942 65.3784 79.2052 65.3886L72.1084 71.683L72.4274 71.9929L79.247 78.6217C79.522 78.3679 79.6764 78.023 79.676 77.6633V66.3734C79.6758 66.2321 79.6513 66.0917 79.6034 65.9575Z" fill="#0390ED"/>
<path d="M67.3862 71.8282L69.8661 74.0811L72.4416 71.7053L79.2969 65.383C79.2969 65.383 79.2969 65.383 79.2862 65.3727C79.0342 65.1359 78.6968 65.0024 78.3448 65H61.3873C61.0092 65.0032 60.649 65.1557 60.3907 65.4219L60.3779 65.4342L67.3862 71.8282Z" fill="#62BEFB"/>
<path d="M72.408 111.432L69.8374 113.869L67.3622 111.562L67.0674 111.856L60.3779 118.581C60.6406 118.846 60.9993 118.997 61.3748 119H78.3C78.6755 118.997 79.0343 118.846 79.2969 118.581L72.7219 111.764L72.408 111.432Z" fill="#0266A8"/>
<path d="M67.5676 111.767L60.412 105.391L60.425 105.378H60.412C60.1541 105.635 60.0071 105.974 60 106.327V117.661C60.0024 118.023 60.1586 118.369 60.4337 118.622L67.2727 112.063L67.5676 111.767Z" fill="#0390ED"/>
<path d="M79.6034 105.957C79.5246 105.737 79.3878 105.538 79.2052 105.378H79.1942C79.1942 105.378 79.1942 105.378 79.2052 105.389L72.1084 111.683L72.4274 111.993L79.247 118.622C79.522 118.368 79.6764 118.023 79.676 117.663V106.373C79.6758 106.232 79.6513 106.092 79.6034 105.957Z" fill="#0390ED"/>
<path d="M67.3862 111.828L69.8661 114.081L72.4416 111.705L79.2969 105.383C79.2969 105.383 79.2969 105.383 79.2862 105.373C79.0342 105.136 78.6968 105.002 78.3448 105H61.3873C61.0092 105.003 60.649 105.156 60.3907 105.422L60.3779 105.434L67.3862 111.828Z" fill="#62BEFB"/>
<path d="M72.408 191.432L69.8374 193.869L67.3622 191.562L67.0674 191.856L60.3779 198.581C60.6406 198.846 60.9993 198.997 61.3748 199H78.3C78.6755 198.997 79.0343 198.846 79.2969 198.581L72.7219 191.764L72.408 191.432Z" fill="#0266A8"/>
<path d="M67.5676 191.767L60.412 185.391L60.425 185.378H60.412C60.1541 185.635 60.0071 185.974 60 186.327V197.661C60.0024 198.023 60.1586 198.369 60.4337 198.622L67.2727 192.063L67.5676 191.767Z" fill="#0390ED"/>
<path d="M79.6034 185.957C79.5246 185.737 79.3878 185.538 79.2052 185.378H79.1942C79.1942 185.378 79.1942 185.378 79.2052 185.389L72.1084 191.683L72.4274 191.993L79.247 198.622C79.522 198.368 79.6764 198.023 79.676 197.663V186.373C79.6758 186.232 79.6513 186.092 79.6034 185.957Z" fill="#0390ED"/>
<path d="M67.3862 191.828L69.8661 194.081L72.4416 191.705L79.2969 185.383C79.2969 185.383 79.2969 185.383 79.2862 185.373C79.0342 185.136 78.6968 185.002 78.3448 185H61.3873C61.0092 185.003 60.649 185.156 60.3907 185.422L60.3779 185.434L67.3862 191.828Z" fill="#62BEFB"/>
<path d="M72.834 151.364L70.1824 153.822L67.6292 151.495L67.3251 151.791L60.4248 158.577C60.6958 158.844 61.0658 158.997 61.4531 159H78.9117C79.299 158.997 79.6691 158.845 79.94 158.577L73.1578 151.698L72.834 151.364Z" fill="#FF651D"/>
<path d="M67.6364 151.769L60.4157 145.437L60.4289 145.424H60.4157C60.1555 145.679 60.0072 146.015 60 146.367V157.621C60.0024 157.981 60.16 158.325 60.4376 158.576L67.3388 152.063L67.6364 151.769Z" fill="#FF9200"/>
<path d="M79.8888 145.424H79.8777C79.8777 145.424 79.8777 145.424 79.8888 145.435L72.7275 151.887L73.0494 152.205L79.931 159C80.2086 158.74 80.3644 158.386 80.3639 158.018V146.444C80.3637 146.299 80.339 146.155 80.2906 146.018C80.2112 145.792 80.0731 145.588 79.8888 145.424Z" fill="#FF9200"/>
<path d="M67.653 152.018L70.211 154.333L72.8677 151.892L79.939 145.394C79.939 145.394 79.939 145.394 79.928 145.383C79.668 145.14 79.32 145.002 78.957 145H61.465C61.075 145.003 60.7034 145.16 60.437 145.434L60.4238 145.446L67.653 152.018Z" fill="#FBB85E"/>
</g>
<defs>
<clipPath id="clip0">
<rect width="306" height="223" fill="white"/>
</clipPath>
</defs>
</svg>
