<svg version="1.1" id="a1c0da82-fedc-42d3-ae29-39a4afd44084" xmlns="http://www.w3.org/2000/svg" x="0" y="0" viewBox="0 0 303.8 280" xml:space="preserve" enable-background="new 0 0 303.8 280"><style>.st2{fill:#fff}.st12{fill:#c1c1c5}</style><path id="e09bb0a5-c210-4060-ac5f-0623b018c0fe" d="M15.8 0h276c6.6 0 12 5.4 12 12v256c0 6.6-5.4 12-12 12h-276c-6.6 0-12-5.4-12-12V12c0-6.6 5.4-12 12-12z" fill="#f2f2f5"/><defs><filter id="Adobe_OpacityMaskFilter" filterUnits="userSpaceOnUse" x="144.8" y="161" width="133" height="37"><feColorMatrix values="1 0 0 0 0 0 1 0 0 0 0 0 1 0 0 0 0 0 1 0"/></filter></defs><mask maskUnits="userSpaceOnUse" x="144.8" y="161" width="133" height="37" id="a9c0bad3-6408-4302-9619-56ff3628b2ac_1_"><g transform="translate(3.82)" filter="url(#Adobe_OpacityMaskFilter)"><g id="f06ca77c-5950-48b5-b35c-2f37b6c354e1_1_"><path id="e5141ef4-c103-410d-9ba6-74bd46d2d682_1_" class="st2" d="M12 0h276c6.6 0 12 5.4 12 12v256c0 6.6-5.4 12-12 12H12c-6.6 0-12-5.4-12-12V12C0 5.4 5.4 0 12 0z"/></g></g></mask><g mask="url(#a9c0bad3-6408-4302-9619-56ff3628b2ac_1_)"><path d="M144.8 161h133v37h-133v-37z" fill-rule="evenodd" clip-rule="evenodd" fill="#b1b1b3"/></g><defs><filter id="Adobe_OpacityMaskFilter_1_" filterUnits="userSpaceOnUse" x="182.9" y="176.1" width="49.8" height="8"><feColorMatrix values="1 0 0 0 0 0 1 0 0 0 0 0 1 0 0 0 0 0 1 0"/></filter></defs><mask maskUnits="userSpaceOnUse" x="182.9" y="176.1" width="49.8" height="8" id="a9c0bad3-6408-4302-9619-56ff3628b2ac_2_"><g transform="translate(3.82)" filter="url(#Adobe_OpacityMaskFilter_1_)"><g id="f06ca77c-5950-48b5-b35c-2f37b6c354e1_2_"><path id="e5141ef4-c103-410d-9ba6-74bd46d2d682_2_" class="st2" d="M12 0h276c6.6 0 12 5.4 12 12v256c0 6.6-5.4 12-12 12H12c-6.6 0-12-5.4-12-12V12C0 5.4 5.4 0 12 0z"/></g></g></mask><g mask="url(#a9c0bad3-6408-4302-9619-56ff3628b2ac_2_)"><path class="st2" d="M186.1 184.1c1.3.1 2.5-.8 2.7-2.2v-.1c0-1.6-1.3-1.9-2.4-2.2-.9-.2-1.6-.3-1.6-.9s.3-.9 1.1-.9c.7 0 1.4.3 1.7.9l1.1-.9c-.7-.8-1.7-1.3-2.8-1.3-1.3-.1-2.4.8-2.6 2.1v.1c0 1.5 1.2 1.8 2.3 2.1s1.7.4 1.7 1.1c0 .5-.4.9-1.2.9-.8 0-1.6-.4-2-1.1l-1.2 1c.8.9 2 1.5 3.2 1.4zm5.7 0c.6 0 1.2-.3 1.6-.8v.7h1.4v-5.4h-1.4v3c0 .8-.5 1.3-1.1 1.3s-1.1-.5-1.1-1.2v-3.1h-1.4v3.2c-.2 1.1.6 2.1 1.7 2.3h.3zm7.1 0c1.6-.1 2.7-1.5 2.6-3-.1-1.4-1.2-2.5-2.6-2.6-.7 0-1.3.3-1.7.9v-3.2h-1.4v7.9h1.4v-.8c.4.5 1 .8 1.7.8zm-.3-1.3c-.8 0-1.5-.7-1.5-1.5s.7-1.5 1.5-1.5 1.5.7 1.5 1.5-.7 1.5-1.5 1.5zm5.8 1.3c1.6 0 2.3-.9 2.3-1.8 0-1.2-1.1-1.5-2-1.6s-1.2-.3-1.2-.6.3-.5.8-.5c.4 0 .8.2 1.1.6l1.3-.5c-.5-.8-1.4-1.2-2.3-1.1-1.3 0-2.2.8-2.2 1.7 0 1.1 1 1.4 1.9 1.6.7.1 1.3.2 1.3.6s-.3.6-.9.6c-.5 0-1-.3-1.2-.7l-1.3.5c.4.8 1.4 1.3 2.4 1.2zm5.9 0c1.2 0 2.2-.7 2.6-1.7l-1.3-.5c-.2.6-.7.9-1.3.9-.8-.1-1.4-.8-1.3-1.7.1-.7.6-1.2 1.3-1.3.6 0 1.1.4 1.3.9l1.3-.5c-.6-1.4-2.3-2.1-3.8-1.5-1 .4-1.7 1.5-1.7 2.6 0 1.5 1.3 2.8 2.9 2.8-.1 0 0 0 0 0zm4.8-.1v-2.9c0-.9.5-1.3 1.2-1.3.3 0 .5.1.7.2l.5-1.4c-.3-.1-.6-.2-.9-.2-.6-.1-1.3.3-1.5.9v-.8h-1.4v5.4l1.4.1zm3.8-6c.5 0 .9-.3.9-.8v-.1c.1-.5-.3-.9-.8-1s-.9.3-1 .8v.2c0 .5.4.9.9.9zm.7 6v-5.4h-1.4v5.4h1.4zm4.2.1c1.6-.1 2.7-1.5 2.6-3-.1-1.4-1.2-2.5-2.6-2.6-.7 0-1.3.3-1.7.9v-3.2h-1.4v7.9h1.4v-.8c.4.5 1 .8 1.7.8zm-.3-1.3c-.8 0-1.5-.7-1.5-1.5s.7-1.5 1.5-1.5 1.5.7 1.5 1.5-.7 1.5-1.5 1.5zm6.5 1.3c1 0 1.9-.4 2.5-1.2l-1.1-.7c-.3.5-.8.7-1.3.7-.7 0-1.4-.4-1.6-1.1h4.3v-.5c0-1.5-1.1-2.7-2.6-2.8h-.2c-1.5 0-2.8 1.2-2.8 2.7v.1c-.1 1.5 1.1 2.8 2.6 2.8h.2zm1.4-3.4h-2.9c.2-.6.8-1 1.5-1 .6-.1 1.2.4 1.4 1z"/></g><defs><filter id="Adobe_OpacityMaskFilter_2_" filterUnits="userSpaceOnUse" x="2.5" y="100" width="277.3" height="50"><feColorMatrix values="1 0 0 0 0 0 1 0 0 0 0 0 1 0 0 0 0 0 1 0"/></filter></defs><mask maskUnits="userSpaceOnUse" x="2.5" y="100" width="277.3" height="50" id="be01523e-9cef-4bef-a1c3-01ff2dd90061_1_"><g transform="translate(3.82)" filter="url(#Adobe_OpacityMaskFilter_2_)"><g id="fb66317d-551e-4cf9-a76d-b9763c9eb00d_1_"><path id="a99981f7-fd8d-472a-84e7-b0a905c2daa5_1_" class="st2" d="M12 0h276c6.6 0 12 5.4 12 12v256c0 6.6-5.4 12-12 12H12c-6.6 0-12-5.4-12-12V12C0 5.4 5.4 0 12 0z"/></g></g></mask><g mask="url(#be01523e-9cef-4bef-a1c3-01ff2dd90061_1_)"><path d="M3 100.5h276.3v49H3v-49z" fill-rule="evenodd" clip-rule="evenodd" fill="#fff" stroke="#979797"/></g><defs><filter id="Adobe_OpacityMaskFilter_3_" filterUnits="userSpaceOnUse" x=".1" y="121.3" width="130.6" height="8.8"><feColorMatrix values="1 0 0 0 0 0 1 0 0 0 0 0 1 0 0 0 0 0 1 0"/></filter></defs><mask maskUnits="userSpaceOnUse" x=".1" y="121.3" width="130.6" height="8.8" id="a97899d6-2bb4-42db-b99d-06f4e3a7b222_1_"><g transform="translate(3.82)" filter="url(#Adobe_OpacityMaskFilter_3_)"><g id="ae153afc-f7d2-4428-8748-c88cd8d2a8a4_1_"><path id="b79cc1d5-58ab-4f5d-b314-20ccc40c8565_1_" class="st2" d="M12 0h276c6.6 0 12 5.4 12 12v256c0 6.6-5.4 12-12 12H12c-6.6 0-12-5.4-12-12V12C0 5.4 5.4 0 12 0z"/></g></g></mask><g mask="url(#a97899d6-2bb4-42db-b99d-06f4e3a7b222_1_)"><path class="st12" d="M.9 130l.6-3.1c.2-1.3.9-2.1 2.1-2.1s1.7.8 1.5 2l-.6 3.2h.9l.6-3.3c.3-1.7-.6-2.8-2.2-2.8-.8 0-1.5.4-2 1l.2-.9h-.9l-1 5.9.8.1zm8.8 0l.1-.8c-1.2 0-1.4-.3-1.2-1.5l.5-2.8h1.5l.1-.8H9.2l.3-1.9-1 .5-.2 1.4H7.2l-.1.8h1.1l-.5 2.8c-.3 1.8.2 2.3 1.9 2.3h.1zm4.3.1c1 0 2-.4 2.6-1.1l-.7-.5c-.4.6-1.1.9-1.9.9-1.1.1-2-.6-2.1-1.7v-.3H17v-.2c.3-1.4-.6-2.8-2-3.1-.2-.1-.5-.1-.7-.1-1.6 0-3.1 1.1-3.3 2.7-.4 1.5.4 3 1.9 3.4.4 0 .7.1 1.1 0zm2.3-3.5H12c.2-1.1 1.2-1.9 2.4-1.8.9-.1 1.8.6 1.9 1.5v.3zm2.5 3.4l.5-3c0-1.1 1-2 2.1-2h.6l.2-.9h-.6c-.8 0-1.6.4-1.9 1.2l.2-1.2H19l-1.1 5.9h.9zm9.7 0l.6-3.2L33 122h-1.1l-3.1 3.9L27 122h-1l2.1 4.7-.6 3.3h1zm6.1.1c1.6 0 2.9-1.1 3.2-2.7.4-1.5-.5-3-2-3.4-.3-.1-.5-.1-.8-.1-1.6 0-3 1.1-3.3 2.7-.4 1.5.5 3 2 3.4.3.1.6.1.9.1zm0-.8c-1.1 0-2-.8-2.1-1.9 0-.2 0-.4.1-.6.2-1.2 1.2-2 2.3-2 1.1 0 2 .8 2.1 1.9 0 .2 0 .5-.1.7-.1 1.1-1.1 1.9-2.3 1.9zm6.5.8c.8 0 1.6-.3 2-1l-.1.9h.8l1-5.9h-.9l-.6 3.3c-.2 1.3-1 2-2 2s-1.6-.8-1.4-2l.6-3.2h-.9l-.6 3.3c-.3 1.6.5 2.7 2.1 2.6zm5.3-.1l.5-3c.2-1.2.8-2 2.1-2h.6l.2-.9h-.7c-.8 0-1.6.4-1.9 1.2l.2-1.2h-.9l-1 5.9h.9zm11.7 0l.2-.9h-4.4l.5-2.7h4.3l.2-.9h-4.4l.5-2.7h4.4l.2-.9h-5.3l-1.4 8h5.2zm2.4 0s.5-3.1.6-3.2c.2-1.2.9-2.1 2-2.1s1.5.8 1.3 2l-.6 3.3h.9l.6-3.3c.2-1.2.8-2 1.9-2s1.6.9 1.4 2.1L68 130h.9l.6-3.3c.3-1.6-.5-2.8-2.1-2.8-.9 0-1.7.4-2.2 1.2-.3-.8-1-1.3-1.9-1.2-.8 0-1.5.3-2 1l.2-.9h-.9l-1.1 6h1zm13.5-6.1c-1.6 0-2.9 1.2-3.2 2.7-.4 1.5.5 3 2 3.4.2.1.5.1.7.1.8 0 1.6-.4 2.1-1.1l-.2 1h.9l1-5.9h-.9l-.2 1.2-.1-.2c-.4-.7-1.3-1.2-2.1-1.2zm-.3 5.4c-1.1 0-2-.8-2.1-1.9 0-.2 0-.4.1-.5.2-1.1 1.2-2 2.3-2 1.1 0 2 .8 2 2v.5c-.2 1-1.2 1.8-2.3 1.9zm6-6.3c.4 0 .7-.3.8-.6.1-.4-.1-.7-.5-.8h-.2c-.4 0-.7.3-.7.6-.1.3.1.7.4.8h.2zm-.9 7l1-5.9h-.9l-1 5.9h.9zm2.5 0l1.5-8.7H82l-1.5 8.7h.8zm4.9 0l1.2-2h3.8l.4 2h.9l-1.7-8h-.9l-4.6 8h.9zm4.8-2.9h-3.1l2.3-4.1.8 4.1zm5.2 3c.8 0 1.6-.4 2.1-1.1l-.2.9h.9l1.5-8.7h-.9l-.7 4c-.4-.9-1.3-1.4-2.3-1.4-1.6 0-2.9 1.2-3.2 2.7-.4 1.5.5 3 2 3.4.4.2.6.2.8.2zm.2-.8c-1.1 0-2-.8-2.1-1.9 0-.2 0-.4.1-.6.2-1.2 1.2-2 2.3-2 1.1 0 2 .8 2.1 1.9 0 .2 0 .4-.1.5-.2 1.2-1.1 2-2.3 2.1zm7.3.8c.8 0 1.6-.4 2.1-1.1l-.2.9h.9l1.5-8.7h-.9l-.7 4c-.4-.9-1.3-1.4-2.3-1.4-1.6 0-2.9 1.2-3.2 2.7-.4 1.5.6 3 2.1 3.4.2.2.5.2.7.2zm.2-.8c-1.1 0-2-.8-2.1-1.9 0-.2 0-.4.1-.6.2-1.2 1.2-2 2.3-2 1.1 0 2 .9 2 2 0 .2 0 .3-.1.5-.1 1.1-1.1 1.9-2.2 2zm5.1.7l.5-3c.2-1.2.8-2 2.1-2h.6l.2-.9h-.6c-.8 0-1.6.4-1.9 1.2l.2-1.2h-.9l-1 5.9h.8zm6.7.1c1 0 2-.4 2.6-1.2l-.7-.5c-.4.6-1.1.9-1.8.9-1.1.1-2-.6-2.1-1.7v-.3h5.2v-.2c.3-1.4-.5-2.8-1.9-3.1-.2-.1-.5-.1-.7-.1-1.6 0-3.1 1.1-3.3 2.7-.4 1.4.4 3 1.8 3.4.1.1.5.2.9.1zm2.2-3.5h-4.3c.2-1.1 1.2-1.9 2.4-1.8.9-.1 1.8.5 1.9 1.5.1 0 .1.1 0 .3zm4 3.5c1.1.1 2.1-.5 2.3-1.6.2-1.2-.8-1.7-1.8-2s-1.6-.5-1.5-1.1c.1-.5.5-.8 1.2-.8s1.4.3 1.8.9l.8-.5c-.6-.8-1.6-1.2-2.5-1.1-1.2 0-2 .5-2.2 1.4-.2 1.2.8 1.6 1.8 1.9.8.3 1.6.5 1.5 1.1s-.6.9-1.4.9c-.8 0-1.6-.4-2-1.1l-.8.5c.7 1 1.8 1.5 2.8 1.5zm5.9 0c1.1.1 2.1-.5 2.3-1.6.2-1.2-.8-1.7-1.8-2-1-.3-1.6-.5-1.5-1.1.1-.5.5-.8 1.2-.8s1.4.3 1.8.9l.8-.5c-.6-.8-1.6-1.2-2.5-1.1-1.2 0-2 .5-2.2 1.4-.2 1.2.8 1.6 1.8 1.9.8.3 1.6.5 1.5 1.1s-.6.9-1.4.9c-.8 0-1.6-.4-2-1.1l-.8.5c.7 1 1.7 1.5 2.8 1.5z"/></g><defs><filter id="Adobe_OpacityMaskFilter_4_" filterUnits="userSpaceOnUse" x="3.8" y="32.5" width="235.6" height="41.2"><feColorMatrix values="1 0 0 0 0 0 1 0 0 0 0 0 1 0 0 0 0 0 1 0"/></filter></defs><mask maskUnits="userSpaceOnUse" x="3.8" y="32.5" width="235.6" height="41.2" id="a9c0bad3-6408-4302-9619-56ff3628b2ac_3_"><g transform="translate(3.82)" filter="url(#Adobe_OpacityMaskFilter_4_)"><g id="f06ca77c-5950-48b5-b35c-2f37b6c354e1_3_"><path id="e5141ef4-c103-410d-9ba6-74bd46d2d682_3_" class="st2" d="M12 0h276c6.6 0 12 5.4 12 12v256c0 6.6-5.4 12-12 12H12c-6.6 0-12-5.4-12-12V12C0 5.4 5.4 0 12 0z"/></g></g></mask><g mask="url(#a9c0bad3-6408-4302-9619-56ff3628b2ac_3_)"><path class="st12" d="M3.8 73h3.7V33.2H3.8m28.3 40.5c11 0 18.8-8.5 18.8-20.7s-7.8-20.6-18.8-20.6S13.3 41 13.3 53s7.8 20.7 18.8 20.7zm0-10.2c-4.2 0-7.2-4.3-7.2-10.4s3-10.4 7.2-10.4S39.3 47 39.3 53s-3 10.5-7.2 10.5zm33-10.1c5.5.2 10.2-4 10.4-9.5v-.8c.2-5.5-4.1-10.1-9.7-10.3H65c-5.5-.2-10.2 4.1-10.4 9.6v.7c-.2 5.5 4.1 10.1 9.7 10.3h.8zM67.8 73l28-39.8h-7.6L60.2 73h7.6zm-2.7-25.8c-1.9 0-3.3-1.5-3.3-4.1s1.4-4.1 3.3-4.1 3.4 1.5 3.4 4.1-1.5 4.1-3.4 4.1zm25.7 26.4c5.5.2 10.2-4.1 10.4-9.7v-.7c-.2-5.8-5-10.3-10.7-10.1-5.5.2-9.9 4.6-10.1 10.1-.2 5.6 4.2 10.2 9.8 10.3.2.1.4.1.6.1zm0-6.2c-1.9 0-3.4-1.5-3.4-4.1 0-2.7 1.4-4.1 3.4-4.1s3.4 1.5 3.4 4.1c0 2.6-1.4 4.1-3.4 4.1zm51.6 6.3c11.8 0 21.7-9.5 21.7-20.7s-9.9-20.6-21.7-20.6-21.6 9.4-21.6 20.6 9.9 20.7 21.6 20.7zm0-10.2c-5.7.2-10.5-4.3-10.7-10.1-.2-5.7 4.3-10.5 10.1-10.7s10.5 4.3 10.7 10.1v.3c.1 5.6-4.4 10.2-10.1 10.4zm38.4 9.5V58.8h19v-10h-19v-5.7h20.8v-10h-32.1V73h11.3zm37.8 0V58.8h19v-10h-19v-5.7h20.8v-10h-32.1V73h11.3z"/></g><defs><filter id="Adobe_OpacityMaskFilter_5_" filterUnits="userSpaceOnUse" x="207.4" y="106.8" width="19.8" height="17.4"><feColorMatrix values="1 0 0 0 0 0 1 0 0 0 0 0 1 0 0 0 0 0 1 0"/></filter></defs><mask maskUnits="userSpaceOnUse" x="207.4" y="106.8" width="19.8" height="17.4" id="a9c0bad3-6408-4302-9619-56ff3628b2ac_4_"><g transform="translate(3.82)" filter="url(#Adobe_OpacityMaskFilter_5_)"><g id="f06ca77c-5950-48b5-b35c-2f37b6c354e1_4_"><path id="e5141ef4-c103-410d-9ba6-74bd46d2d682_4_" class="st2" d="M12 0h276c6.6 0 12 5.4 12 12v256c0 6.6-5.4 12-12 12H12c-6.6 0-12-5.4-12-12V12C0 5.4 5.4 0 12 0z"/></g></g></mask><g mask="url(#a9c0bad3-6408-4302-9619-56ff3628b2ac_4_)"><path d="M217.5 107.5c.5.4 1.1.9 1.5 1.4.6.6 1.1 1.2 1.8 1.9 1.2 1.4 2.5 3 3.6 4.5.7.9 1.3 1.8 1.9 2.8.3.4.5.9.7 1.4.1.2.2.5.2.7.1.3.1.7 0 1l-.3.6c-.1.2-.3.4-.5.5-.1.1-.3.2-.5.2-.3.1-.7.3-1 .3-.8.2-1.7.4-2.7.6-2.1.3-4.7.6-7 .8-1.6.1-3 .2-4.2.2-.6 0-1.1 0-1.7-.1-.3 0-.5-.1-.8-.2-.2-.1-.3-.1-.5-.3-.4-.3-.6-.7-.6-1.1 0-.2 0-.4.1-.5.1-.2.1-.3.2-.5s.3-.3.4-.4l.4-.3c.8-.5 1.5-1.1 2.2-1.7.6-.5 1.2-1.1 1.7-1.8.7-1 1.2-2.2 1.5-3.4.3-1.8.4-3.7.4-5.5 0-.2 0-.3.1-.5.1-.5.5-.9.9-1.1.2-.1.4-.1.7-.1.3 0 .6.1.8.2.1.1.3.1.4.2 0 0 .2.1.3.2z" fill-rule="evenodd" clip-rule="evenodd" fill="#ff8d04"/></g><path d="M263.4 114.9l-13.6-7.6c-1-.6-2.2-.6-3.1 0l-13.6 7.6c-1 .6-1.6 1.6-1.6 2.8V133c0 1.2.6 2.2 1.6 2.8l13.6 7.6c1 .5 2.2.5 3.1 0l13.6-7.6c1-.6 1.6-1.6 1.6-2.8v-15.3c0-1.1-.6-2.2-1.6-2.8z" fill="#20123a"/><linearGradient id="SVGID_1_" gradientUnits="userSpaceOnUse" x1="232.87" y1="151.248" x2="256.66" y2="151.248" gradientTransform="matrix(1 0 0 -1 3.82 282)"><stop offset="0" stop-color="#9059ff"/><stop offset="1" stop-color="#f770ff"/></linearGradient><path d="M238.7 129.4l-.8.5c-.6.3-.9 1.1-.6 1.7.3.6 1.1.9 1.7.6.1 0 .1-.1.2-.1l.8-.5c.6-.3.8-1.1.5-1.7s-1.2-.9-1.8-.5z" fill="url(#SVGID_1_)"/><linearGradient id="SVGID_2_" gradientUnits="userSpaceOnUse" x1="232.87" y1="153.867" x2="256.66" y2="153.867" gradientTransform="matrix(1 0 0 -1 3.82 282)"><stop offset="0" stop-color="#9059ff"/><stop offset="1" stop-color="#f770ff"/></linearGradient><path d="M243.7 126.6l-1.7.9c-.6.4-.8 1.1-.5 1.7.2.4.6.6 1.1.6.2 0 .4-.1.6-.2l1.7-.9c.6-.3.8-1.1.5-1.7s-1.1-.8-1.7-.4z" fill="url(#SVGID_2_)"/><linearGradient id="SVGID_3_" gradientUnits="userSpaceOnUse" x1="232.87" y1="156.562" x2="256.66" y2="156.562" gradientTransform="matrix(1 0 0 -1 3.82 282)"><stop offset="0" stop-color="#9059ff"/><stop offset="1" stop-color="#f770ff"/></linearGradient><path d="M250.4 124.2c-.1-.3-.4-.5-.7-.6V114c-.1-.7-.7-1.2-1.4-1.2-.6.1-1.1.5-1.2 1.2v9.7c-.3.1-.5.3-.7.6-.1.7-.1 1.5 0 2.2.2.3.4.5.7.6v9.6c-.1.7.5 1.3 1.2 1.4.7.1 1.3-.5 1.4-1.2V127c.3-.1.5-.3.7-.6.1-.7.1-1.4 0-2.2z" fill="url(#SVGID_3_)"/><linearGradient id="SVGID_4_" gradientUnits="userSpaceOnUse" x1="232.87" y1="159.49" x2="256.66" y2="159.49" gradientTransform="matrix(1 0 0 -1 3.82 282)"><stop offset="0" stop-color="#9059ff"/><stop offset="1" stop-color="#f770ff"/></linearGradient><path d="M253.7 120.9l-1.7 1c-.6.3-.8 1.1-.5 1.7.4.6 1.1.8 1.7.5l1.7-1c.6-.4.7-1.2.3-1.8-.3-.5-.9-.7-1.5-.4z" fill="url(#SVGID_4_)"/><linearGradient id="SVGID_5_" gradientUnits="userSpaceOnUse" x1="232.87" y1="162.116" x2="256.66" y2="162.116" gradientTransform="matrix(1 0 0 -1 3.82 282)"><stop offset="0" stop-color="#9059ff"/><stop offset="1" stop-color="#f770ff"/></linearGradient><path d="M257.6 121.4c.2 0 .4-.1.6-.2l.8-.5c.6-.4.8-1.2.4-1.8-.3-.6-1.1-.8-1.6-.5l-.8.6c-.6.3-.8 1.1-.5 1.7.3.4.7.7 1.1.7z" fill="url(#SVGID_5_)"/><linearGradient id="SVGID_6_" gradientUnits="userSpaceOnUse" x1="232.87" y1="151.299" x2="256.66" y2="151.299" gradientTransform="matrix(1 0 0 -1 3.82 282)"><stop offset="0" stop-color="#9059ff"/><stop offset="1" stop-color="#f770ff"/></linearGradient><path d="M259.1 129.9l-.8-.5c-.6-.4-1.4-.2-1.8.3-.4.6-.2 1.4.3 1.8.1 0 .1.1.2.1l.8.5c.2.1.4.2.6.2.7 0 1.3-.6 1.3-1.3 0-.5-.2-.9-.6-1.1z" fill="url(#SVGID_6_)"/><linearGradient id="SVGID_7_" gradientUnits="userSpaceOnUse" x1="232.87" y1="153.894" x2="256.66" y2="153.894" gradientTransform="matrix(1 0 0 -1 3.82 282)"><stop offset="0" stop-color="#9059ff"/><stop offset="1" stop-color="#f770ff"/></linearGradient><path d="M254.9 127.5l-1.7-.9c-.6-.4-1.4-.2-1.8.3-.4.6-.2 1.4.3 1.8.1 0 .1.1.2.1l1.7.9c.2.1.4.2.6.2.5 0 .9-.2 1.1-.6.5-.7.3-1.5-.4-1.8z" fill="url(#SVGID_7_)"/><linearGradient id="SVGID_8_" gradientUnits="userSpaceOnUse" x1="232.87" y1="159.511" x2="256.66" y2="159.511" gradientTransform="matrix(1 0 0 -1 3.82 282)"><stop offset="0" stop-color="#9059ff"/><stop offset="1" stop-color="#f770ff"/></linearGradient><path d="M242 123.1l1.7 1c.2.1.4.2.6.2.7 0 1.3-.6 1.3-1.3 0-.5-.2-.9-.7-1.1l-1.7-1c-.6-.3-1.4-.1-1.7.5-.3.6-.1 1.4.5 1.7z" fill="url(#SVGID_8_)"/><linearGradient id="SVGID_9_" gradientUnits="userSpaceOnUse" x1="232.87" y1="162.131" x2="256.66" y2="162.131" gradientTransform="matrix(1 0 0 -1 3.82 282)"><stop offset="0" stop-color="#9059ff"/><stop offset="1" stop-color="#f770ff"/></linearGradient><path d="M239.9 119l-.8-.5c-.6-.3-1.4-.1-1.7.5-.3.6-.1 1.4.5 1.7l.8.5c.6.3 1.4.1 1.7-.5s.1-1.4-.5-1.7z" fill="url(#SVGID_9_)"/><path d="M75.3 187.1l-.1-.5c-2.7-16.9-11.6-22.9-21.5-17.9-10.1 5.1-16.9 19.5-15 35.3 1.5 12.4 7.4 23.2 15.7 30l.5.4.1-.1c14.1-15.1 22.4-32.9 20.3-47.2z" fill="none"/><linearGradient id="SVGID_10_" gradientUnits="userSpaceOnUse" x1="-874.116" y1="120.239" x2="-875.106" y2="120.659" gradientTransform="matrix(226 0 0 152 197769.797 -18123)"><stop offset="0" stop-color="#ff9100"/><stop offset=".52" stop-color="#f10366"/><stop offset="1" stop-color="#6173ff"/></linearGradient><path d="M219.7 116.3c-22.9-9.2-41.7-6.3-57.8 7.1-12.6 10.5-22.6 26.1-33.9 50.3l-.2.4c-2 4.3-12.8 28.4-16.2 35.5l-.6 1.2c-2.3 4.8-5 9.3-8 13.6-11.1 15.3-25.7 20.2-39.3 14.9l-.5-.2c-1.8-.7-3.5-1.6-5.2-2.6l-.3-.2.4-.4c14.6-15.8 23.1-34.5 20.5-50-3.1-19-14.3-26.6-26.5-20.4-11.5 5.8-19 21.6-16.9 38.8l.1.6c1.7 13.1 8 24.5 16.9 31.7l.2.1-1.1 1.1c-1.9 1.8-3.9 3.6-5.9 5.3-15.8 13.1-31.7 18.9-41.6 15.2v3.7c11.3 3.4 27.8-2.9 43.8-16.2l.6-.5c2.3-1.9 4.5-3.9 6.5-6l.5-.5.3.2c2.1 1.4 4.4 2.6 6.8 3.5 15.1 5.9 31.4.4 43.4-16.1 3.3-4.7 6.2-9.7 8.7-14.9 3.1-6.1 13.3-28.9 16.1-35.2l1.1-2.3c10.9-23.1 20.6-38.2 32.5-48.1 15-12.5 32.6-15.3 54.3-6.5.9.4 1.9-.1 2.2-1 .4-.7 0-1.7-.9-2.1zM55 234.2l-.6-.3c-8.3-6.8-14.2-17.5-15.7-30-1.9-15.8 4.9-30.1 15.1-35.2 9.9-5 18.8 1 21.5 17.9l.1.5c2 14.3-6.3 32.1-20.4 47.1z" fill="url(#SVGID_10_)"/></svg>