<svg data-name="Layer 1" xmlns="http://www.w3.org/2000/svg" xmlns:xlink="http://www.w3.org/1999/xlink" viewBox="0 0 303.82 280"><defs><linearGradient id="e" x1="191.67" y1="152.86" x2="186.27" y2="147.75" gradientTransform="translate(68.56 -11.81)" gradientUnits="userSpaceOnUse"><stop offset="0" stop-color="#054096" stop-opacity=".5"/><stop offset=".05" stop-color="#0f3d9c" stop-opacity=".44"/><stop offset=".26" stop-color="#2f35b1" stop-opacity=".25"/><stop offset=".47" stop-color="#462fbf" stop-opacity=".11"/><stop offset=".67" stop-color="#542bc8" stop-opacity=".03"/><stop offset=".86" stop-color="#592acb" stop-opacity="0"/></linearGradient><linearGradient id="a" x1="232.87" y1="130.73" x2="256.66" y2="130.73" gradientUnits="userSpaceOnUse"><stop offset="0" stop-color="#9059ff"/><stop offset="1" stop-color="#f770ff"/></linearGradient><linearGradient id="f" x1="232.87" y1="128.13" x2="256.66" y2="128.13" xlink:href="#a"/><linearGradient id="g" x1="232.87" y1="125.3" x2="256.66" y2="125.3" xlink:href="#a"/><linearGradient id="h" x1="232.87" y1="122.47" x2="256.66" y2="122.47" xlink:href="#a"/><linearGradient id="i" x1="232.87" y1="119.87" x2="256.66" y2="119.87" xlink:href="#a"/><linearGradient id="j" x1="245.51" y1="136.02" x2="265" y2="144.27" gradientUnits="userSpaceOnUse"><stop offset="0" stop-color="#54ffbd"/><stop offset="1" stop-color="#0df"/></linearGradient><linearGradient id="k" x1="-528.65" y1="523.12" x2="-529.64" y2="522.7" gradientTransform="matrix(226 0 0 -152 119690.98 79668)" gradientUnits="userSpaceOnUse"><stop offset="0" stop-color="#ff9100"/><stop offset=".52" stop-color="#f10366"/><stop offset="1" stop-color="#6173ff"/></linearGradient><mask id="b" x="3.82" y="0" width="300" height="280" maskUnits="userSpaceOnUse"><g data-name="c"><rect data-name="b" width="300" height="280" rx="12" fill="#fff" transform="translate(3.82)"/></g></mask><mask id="c" x="2.53" y="0" width="301.29" height="280" maskUnits="userSpaceOnUse"><g data-name="c"><rect data-name="b" width="300" height="280" rx="12" fill="#fff" transform="translate(3.82)"/></g></mask><mask id="d" x="0" y="0" width="303.82" height="280" maskUnits="userSpaceOnUse"><g data-name="c"><rect data-name="b" width="300" height="280" rx="12" fill="#fff" transform="translate(3.82)"/></g></mask></defs><rect data-name="b" x="3.82" width="300" height="280" rx="12" fill="#f2f2f5"/><g mask="url(#b)"><path d="M144.82 161h133v37h-133z" fill="#b1b1b3" fill-rule="evenodd"/></g><g mask="url(#b)"><path d="M186.12 184.1a2.43 2.43 0 002.68-2.29c0-1.58-1.29-1.94-2.41-2.18-.91-.21-1.64-.32-1.64-.91s.34-.87 1.13-.87a1.89 1.89 0 011.71.91l1.15-.9a3.49 3.49 0 00-2.84-1.27 2.34 2.34 0 00-2.59 2.16c0 1.48 1.22 1.83 2.31 2.06s1.71.37 1.71 1.05c0 .53-.41.91-1.2.91a2.24 2.24 0 01-2-1.15l-1.23 1a3.79 3.79 0 003.22 1.5zm5.64 0a1.87 1.87 0 001.56-.79v.69h1.38v-5.4h-1.4v3c0 .84-.48 1.31-1.13 1.31s-1.1-.47-1.1-1.23v-3.08h-1.41v3.24a2 2 0 002.1 2.27zm7.1 0a2.82 2.82 0 000-5.62 2 2 0 00-1.69.85v-3.23h-1.35v7.9h1.36v-.75a2 2 0 001.64.86zm-.28-1.3a1.52 1.52 0 111.49-1.52 1.5 1.5 0 01-1.49 1.53zm5.86 1.3c1.57 0 2.32-.94 2.32-1.78 0-1.16-1.06-1.47-2-1.65s-1.23-.26-1.23-.6.26-.52.8-.52a1.16 1.16 0 011.06.57l1.26-.51a2.57 2.57 0 00-2.32-1.15c-1.33 0-2.21.78-2.21 1.69 0 1.14 1 1.42 1.92 1.61.69.14 1.27.23 1.27.62s-.3.59-.86.59a1.3 1.3 0 01-1.24-.73l-1.33.52a2.55 2.55 0 002.52 1.34zm5.84 0a2.82 2.82 0 002.65-1.72l-1.29-.53a1.42 1.42 0 01-1.34.94 1.51 1.51 0 010-3 1.39 1.39 0 011.34.93l1.27-.51a2.85 2.85 0 00-5.46 1.1 2.78 2.78 0 002.84 2.81zm4.83-.11v-2.85c0-.91.46-1.27 1.17-1.27a1.26 1.26 0 01.72.19l.5-1.36a2 2 0 00-.91-.21 1.48 1.48 0 00-1.49.93v-.83h-1.36V184zm3.8-6a.85.85 0 00.89-.88.89.89 0 10-1.77 0 .85.85 0 00.88.89zm.71 6v-5.4h-1.41V184zm4.15.11a2.82 2.82 0 000-5.62 2 2 0 00-1.69.85v-3.23h-1.37v7.9h1.36v-.75a2 2 0 001.75.86zm-.28-1.3a1.52 1.52 0 111.49-1.52 1.5 1.5 0 01-1.49 1.53zm6.47 1.3a2.84 2.84 0 002.49-1.25l-1.13-.66a1.47 1.47 0 01-1.34.72 1.5 1.5 0 01-1.55-1.14h4.29v-.52a2.69 2.69 0 00-2.79-2.77 2.79 2.79 0 00-2.83 2.82 2.72 2.72 0 002.86 2.81zm1.39-3.41h-2.88a1.5 1.5 0 011.46-1 1.36 1.36 0 011.42 1.01z" fill="#fff"/></g><g mask="url(#c)"><path d="M3.03 100.5h276.29v49H3.03z" fill="#fff" stroke="#979797" fill-rule="evenodd"/></g><g mask="url(#d)"><path d="M.92 130l.56-3.12c.23-1.3.89-2.14 2.1-2.14s1.7.79 1.48 2L4.49 130h.93l.58-3.26c.29-1.7-.55-2.8-2.17-2.8a2.45 2.45 0 00-2 1l.17-.89h-.9l-1 5.94zm8.78 0l.15-.82h-.03c-1.22 0-1.45-.26-1.22-1.47l.51-2.85h1.5l.14-.8H9.24l.34-1.92-1 .5-.25 1.42H7.25l-.14.8H8.2l-.5 2.85c-.3 1.75.17 2.29 1.87 2.29zm4.29.12a3.32 3.32 0 002.63-1.12l-.71-.54a2.34 2.34 0 01-1.86.89 1.93 1.93 0 01-2.15-2h5.15v-.24a2.6 2.6 0 00-2.67-3.17 3.31 3.31 0 00-3.34 2.73 2.73 2.73 0 002.95 3.45zm2.27-3.56H12a2.36 2.36 0 012.37-1.84 1.72 1.72 0 011.89 1.84zm2.56 3.44l.53-3a2.08 2.08 0 012.13-2h.57l.17-.92h-.65a2 2 0 00-1.93 1.17l.21-1.17h-.88L17.9 130zm9.67 0l.56-3.21 3.87-4.79h-1.1l-3.12 3.92-1.74-3.92h-.95l2.12 4.7-.58 3.3zm6.12.12a3.19 3.19 0 003.21-2.66 2.82 2.82 0 00-2.81-3.52 3.27 3.27 0 00-3.29 2.68 2.81 2.81 0 002.87 3.5zm0-.83a2 2 0 01-2-2.55 2.3 2.3 0 012.34-2 2 2 0 012 2.59 2.3 2.3 0 01-2.35 1.96zm6.52.83a2.29 2.29 0 002-1l-.15.9h.84l1-5.94h-.9l-.58 3.26c-.23 1.26-1 2-2 2s-1.58-.82-1.37-2l.58-3.24h-.93l-.57 3.27c-.31 1.69.46 2.79 2 2.79zm5.25-.12l.53-3c.22-1.18.83-2 2.13-2h.56l.18-.92h-.66a2.07 2.07 0 00-1.94 1.17l.21-1.17h-.88l-1 5.94zm11.72 0l.16-.87h-4.37l.49-2.74h4.34l.16-.87h-4.35l.46-2.69h4.36l.15-.86h-5.26L52.82 130zm2.44 0s.55-3.09.56-3.2c.22-1.2.88-2.06 2-2.06s1.52.75 1.31 2l-.59 3.26h.92l.57-3.26c.22-1.18.79-2 1.89-2s1.58.87 1.38 2.06l-.57 3.2h.92l.58-3.27c.29-1.61-.54-2.79-2.1-2.79a2.53 2.53 0 00-2.21 1.2 1.85 1.85 0 00-1.86-1.2 2.22 2.22 0 00-1.95 1l.17-.92h-.89L59.61 130zm13.45-6.06a3.27 3.27 0 00-3.17 2.74 2.77 2.77 0 002.7 3.44A2.58 2.58 0 0075.6 129l-.17 1h.9l1-5.94h-.92l-.23 1.25-.06-.15a2.32 2.32 0 00-2.19-1.22zm-.31 5.33a2 2 0 01-2-2.48 2.41 2.41 0 012.33-2 2 2 0 012 2.43 2.42 2.42 0 01-2.34 2.05zm6-6.32a.75.75 0 00.75-.62.66.66 0 00-.66-.8.75.75 0 00-.73.62.64.64 0 00.67.85zm-.86 7.05l1-5.94h-.92l-1 5.94zm2.53 0l1.52-8.67h-.91L80.47 130zm4.86 0l1.15-2h3.82l.43 2h.93l-1.72-8h-.94l-4.63 8zm4.79-2.88h-3.12l2.3-4.05zm5.19 3a2.71 2.71 0 002.12-1.05l-.16.93h.88l1.53-8.67h-.92l-.69 4a2.31 2.31 0 00-2.27-1.37 3.23 3.23 0 00-3.17 2.72 2.77 2.77 0 002.71 3.44zm.2-.85a2 2 0 01-2-2.49 2.37 2.37 0 012.34-2 2 2 0 012 2.48 2.41 2.41 0 01-2.31 2.01zm7.27.85a2.71 2.71 0 002.12-1.05l-.16.93h.88l1.53-8.67h-.92l-.69 4a2.31 2.31 0 00-2.27-1.37 3.24 3.24 0 00-3.18 2.72 2.79 2.79 0 002.72 3.44zm.2-.85a2 2 0 01-2-2.49 2.39 2.39 0 012.35-2 2 2 0 011.94 2.48 2.39 2.39 0 01-2.26 2.01zm5.18.73l.53-3c.22-1.18.83-2 2.13-2h.56l.18-.92h-.62a2.07 2.07 0 00-1.94 1.17l.21-1.17h-.88l-1 5.94zm6.63.12a3.33 3.33 0 002.63-1.16l-.72-.54a2.3 2.3 0 01-1.85.89 1.92 1.92 0 01-2.15-2h5.15v-.24a2.59 2.59 0 00-2.66-3.17 3.3 3.3 0 00-3.34 2.73 2.73 2.73 0 002.97 3.49zm2.27-3.56h-4.26a2.34 2.34 0 012.36-1.84 1.72 1.72 0 011.93 1.84zm4 3.56a2.13 2.13 0 002.34-1.58c.21-1.25-.84-1.66-1.82-2s-1.57-.48-1.46-1.12c.09-.49.52-.77 1.24-.77a2.08 2.08 0 011.84.89l.77-.51a3.1 3.1 0 00-2.53-1.14c-1.2 0-2 .54-2.21 1.43-.23 1.23.79 1.62 1.79 1.92.84.27 1.6.5 1.49 1.15s-.57.9-1.38.9a2.27 2.27 0 01-2-1.06l-.8.53a3.18 3.18 0 002.71 1.32zm5.83 0a2.13 2.13 0 002.34-1.58c.21-1.25-.84-1.66-1.82-2s-1.57-.48-1.46-1.12c.09-.49.52-.77 1.24-.77a2.08 2.08 0 011.84.89l.77-.51a3.1 3.1 0 00-2.53-1.14c-1.2 0-2 .54-2.21 1.43-.23 1.23.79 1.62 1.79 1.92.84.27 1.6.5 1.49 1.15s-.57.9-1.38.9a2.27 2.27 0 01-2-1.06l-.8.53a3.18 3.18 0 002.71 1.32z" fill="#c1c1c5"/></g><g mask="url(#b)"><path d="M3.82 73H7.5V33.15H3.82M32.09 73.7c11 0 18.79-8.53 18.79-20.65s-7.77-20.59-18.79-20.59S13.3 41 13.3 53.05 21.07 73.7 32.09 73.7zm0-10.21c-4.23 0-7.19-4.35-7.19-10.44s3-10.38 7.19-10.38 7.19 4.33 7.19 10.38-2.96 10.44-7.19 10.44zm33-10.09a10 10 0 0010.44-10.33 10 10 0 00-10.44-10.32 10 10 0 00-10.38 10.32A10 10 0 0065.09 53.4zM67.82 73l28-39.85h-7.64L60.16 73zm-2.73-25.81c-1.85 0-3.3-1.51-3.3-4.12S63.18 39 65.09 39s3.37 1.51 3.37 4.06-1.45 4.13-3.37 4.13zm25.73 26.45a10.05 10.05 0 0010.41-10.33 10.42 10.42 0 00-20.83 0 10.06 10.06 0 0010.42 10.33zm0-6.27c-1.91 0-3.36-1.5-3.36-4.06 0-2.72 1.39-4.11 3.36-4.11s3.37 1.5 3.37 4.11-1.43 4.06-3.37 4.06zm51.62 6.33c11.78 0 21.7-9.46 21.7-20.65s-9.92-20.59-21.7-20.59-21.62 9.39-21.62 20.59 9.87 20.65 21.64 20.65zm0-10.21a10.41 10.41 0 1110.1-10.44 10.41 10.41 0 01-10.08 10.44zM180.82 73V58.85h19v-10h-19v-5.66h20.8v-10h-32.07V73zm37.76 0V58.85h19v-10h-19v-5.66h20.82v-10h-32.09V73z" fill="#c1c1c5"/></g><g mask="url(#b)"><path d="M217.5 107.48a15.74 15.74 0 011.54 1.37c.55.55 1.15 1.2 1.77 1.89 1.24 1.39 2.54 3 3.64 4.51a33.53 33.53 0 011.88 2.81 11 11 0 01.69 1.37 4.16 4.16 0 01.21.71 2.17 2.17 0 010 1 1.57 1.57 0 01-.28.55 2.09 2.09 0 01-.53.49 3 3 0 01-.47.24 7.17 7.17 0 01-1 .34c-.75.2-1.68.38-2.72.55-2.09.32-4.66.59-7 .75-1.56.11-3 .16-4.2.15a13.87 13.87 0 01-1.72-.1 3.24 3.24 0 01-.77-.17 1.68 1.68 0 01-.49-.26 1.5 1.5 0 01-.6-1.13 1.43 1.43 0 01.07-.52 1.64 1.64 0 01.25-.48 2 2 0 01.43-.41l.38-.27a26 26 0 002.19-1.71 11.72 11.72 0 001.68-1.75 8 8 0 001.47-3.38 27.8 27.8 0 00.36-5.52 1.75 1.75 0 01.06-.48 1.62 1.62 0 01.92-1.12 1.71 1.71 0 01.66-.13 1.78 1.78 0 01.8.18 2.56 2.56 0 01.37.2 4.63 4.63 0 01.41.32z" fill="#ff8d04" fill-rule="evenodd"/></g><path d="M264.46 131.47h-15.64a.83.83 0 00-.83.83v2.5a6.65 6.65 0 006.65 6.65h8.64a5 5 0 005-5v-2.18c.03-1.27-1.22-2.8-3.82-2.8z" fill="#008787"/><path d="M260.64 131.47H245a.83.83 0 00-.83.83v2.5a6.65 6.65 0 006.65 6.65h8.64a5 5 0 005-5v-2.18c.03-1.27-1.22-2.8-3.82-2.8z" transform="translate(3.82)" fill="url(#e)" opacity=".9"/><path d="M263.37 114.92l-13.62-7.63a3.19 3.19 0 00-3.14 0l-13.62 7.63a3.22 3.22 0 00-1.64 2.8V133a3.22 3.22 0 001.64 2.8l13.62 7.63a3.21 3.21 0 003.14 0l13.62-7.63a3.22 3.22 0 001.64-2.8v-15.28a3.22 3.22 0 00-1.64-2.8z" fill="#20123a"/><path d="M234.84 129.38l-.84.47a1.28 1.28 0 101.26 2.22l.83-.47a1.27 1.27 0 10-1.25-2.22z" transform="translate(3.82)" fill="url(#a)"/><path d="M239.85 126.55l-1.67.94a1.28 1.28 0 00.63 2.39 1.19 1.19 0 00.62-.17l1.67-.94a1.27 1.27 0 10-1.25-2.22z" transform="translate(3.82)" fill="url(#f)"/><path d="M246.59 124.2a1.25 1.25 0 00-.67-.57V114a1.28 1.28 0 00-2.55 0v9.66a1.32 1.32 0 00-.67.57 8.68 8.68 0 000 2.2 1.37 1.37 0 00.67.57v9.65a1.28 1.28 0 102.55 0V127a1.29 1.29 0 00.67-.57 8.68 8.68 0 000-2.2z" transform="translate(3.82)" fill="url(#g)"/><path d="M249.86 120.88l-1.67 1a1.27 1.27 0 00-.48 1.74 1.29 1.29 0 001.74.48l1.67-1a1.28 1.28 0 00-1.26-2.22z" transform="translate(3.82)" fill="url(#h)"/><path d="M253.83 121.38a1.31 1.31 0 00.63-.16l.83-.47a1.28 1.28 0 00-1.25-2.23l-.84.48a1.27 1.27 0 00.63 2.38z" transform="translate(3.82)" fill="url(#i)"/><path d="M255.29 129.85l-.83-.47a1.28 1.28 0 10-1.26 2.22l.84.47a1.26 1.26 0 00.62.17 1.28 1.28 0 00.63-2.39z" transform="translate(3.82)" fill="url(#a)"/><path d="M251.12 127.49l-1.67-.94a1.28 1.28 0 10-1.26 2.22l1.67.94a1.22 1.22 0 00.63.17 1.25 1.25 0 001.11-.65 1.28 1.28 0 00-.48-1.74z" transform="translate(3.82)" fill="url(#f)"/><path d="M238.18 123.1l1.67 1a1.25 1.25 0 00.62.16 1.27 1.27 0 00.63-2.38l-1.67-1a1.28 1.28 0 00-1.74.49 1.27 1.27 0 00.49 1.73z" transform="translate(3.82)" fill="url(#h)"/><path d="M236.09 119l-.83-.48a1.28 1.28 0 00-1.26 2.23l.84.47a1.27 1.27 0 101.25-2.22z" transform="translate(3.82)" fill="url(#i)"/><path d="M263.66 135.11h-14.35a6.14 6.14 0 00-6.14 6.14v3a.83.83 0 00.83.83h14.34a6.14 6.14 0 006.15-6.14v-4.67a.83.83 0 01-.83.84z" transform="translate(3.82)" fill="url(#j)"/><path d="M253.41 140a.9.9 0 00.47-.83c0-.74-.51-1.16-1.43-1.16h-1.71v4.13h1.72c.92 0 1.48-.41 1.48-1.22a1 1 0 00-.53-.92zm-1.88-1.28h.94c.42 0 .61.17.61.46s-.18.5-.6.5h-.95zm.94 2.7h-.94v-1h.91c.5 0 .69.19.69.51s-.22.53-.66.53zm2.23.76h2.78v-.76h-1.98v-.93h1.98v-.76h-1.98v-.92h1.98v-.76h-2.78v4.13zm6.54-4.13h-3.07v.74h1.14v3.39h.79v-3.39h1.14v-.74zm2.14 0h-.79l-1.56 4.13h.79l.27-.75h1.73l.27.75h.82zm-1 2.66l.6-1.64.59 1.64z" fill="#20123a"/><path d="M75.35 187.11l-.08-.52c-2.74-16.85-11.64-22.85-21.5-17.88-10.1 5.09-16.95 19.45-15.04 35.29 1.5 12.44 7.37 23.19 15.68 30l.49.39.08-.08c14.16-15.14 22.43-32.88 20.37-47.2z" fill="none"/><path d="M215.91 116.33c-22.85-9.2-41.74-6.27-57.77 7.08-12.59 10.49-22.58 26.13-33.87 50.27l-.18.39c-2 4.31-12.76 28.43-16.25 35.53l-.61 1.22a101.1 101.1 0 01-8 13.65c-11.08 15.3-25.68 20.18-39.33 14.89l-.45-.18a32.86 32.86 0 01-5.18-2.65l-.31-.19.36-.38c14.61-15.81 23.05-34.48 20.54-49.96-3.09-19-14.31-26.57-26.45-20.45-11.47 5.78-19 21.59-16.93 38.8l.08.6c1.72 13.11 8 24.47 16.91 31.71l.16.13-1.07 1.05q-2.84 2.74-5.93 5.32C25.87 256.3 9.94 262.07 0 258.34v3.73c11.33 3.43 27.83-2.87 43.82-16.18l.62-.53q3.42-2.88 6.55-6l.48-.49.35.23a36.66 36.66 0 006.82 3.51c15.15 5.88 31.38.45 43.36-16.09a108.48 108.48 0 008.69-14.88c3.07-6.14 13.27-28.95 16.1-35.17l1.06-2.29c10.91-23.15 20.56-38.15 32.49-48.08 15-12.54 32.61-15.26 54.29-6.53a1.72 1.72 0 002.25-1 1.77 1.77 0 00-.97-2.24zM51.16 234.22l-.08.08-.49-.39c-8.31-6.77-14.18-17.52-15.68-30C33 188.16 39.85 173.8 50 168.71c9.86-5 18.76 1 21.5 17.88l.08.52c2.01 14.32-6.26 32.06-20.42 47.11z" transform="translate(3.82)" fill="url(#k)"/></svg>