<svg width="306" height="223" viewBox="0 0 306 223" fill="none" xmlns="http://www.w3.org/2000/svg">
<g clip-path="url(#clip0_101:197)">
<path d="M301.18 1.30103H3.90303C2.46598 1.30103 1.30103 2.46598 1.30103 3.90303V232.597C1.30103 234.034 2.46598 235.199 3.90303 235.199H301.18C302.617 235.199 303.782 234.034 303.782 232.597V3.90303C303.782 2.46598 302.617 1.30103 301.18 1.30103Z" fill="white" stroke="#F0F0F4" stroke-width="2.602"/>
<path fill-rule="evenodd" clip-rule="evenodd" d="M0 19.5149H305.083V40.9809H0V19.5149Z" fill="#F0F0F4"/>
<path d="M251.091 25.3689H53.9909C53.2724 25.3689 52.6899 25.9514 52.6899 26.6699V33.8249C52.6899 34.5434 53.2724 35.1259 53.9909 35.1259H251.091C251.809 35.1259 252.392 34.5434 252.392 33.8249V26.6699C252.392 25.9514 251.809 25.3689 251.091 25.3689Z" fill="white"/>
<path fill-rule="evenodd" clip-rule="evenodd" d="M2.602 0H302.481C303.171 0 303.833 0.274138 304.321 0.762108C304.809 1.25008 305.083 1.91191 305.083 2.602V19.515H0V2.602C0 1.91191 0.274138 1.25008 0.762108 0.762108C1.25008 0.274138 1.91191 0 2.602 0V0Z" fill="#DFDFE6"/>
<path fill-rule="evenodd" clip-rule="evenodd" d="M26.02 3.25195H85.866V20.815H26.02V3.25195Z" fill="#F0F0F4"/>
<path fill-rule="evenodd" clip-rule="evenodd" d="M26.02 3.25195H85.866V6.50395H26.02V3.25195Z" fill="#D1D1D7"/>
<rect x="19" y="57" width="267" height="30" rx="3" stroke="#F0F0F4" stroke-width="2"/>
<rect x="19" y="97" width="267" height="30" rx="3" stroke="#F0F0F4" stroke-width="2"/>
<rect x="19" y="137" width="267" height="30" rx="3" fill="#F0F0F4" stroke="#F0F0F4" stroke-width="2"/>
<rect x="19" y="177" width="267" height="30" rx="3" stroke="#F0F0F4" stroke-width="2"/>
<rect x="28" y="66" width="21" height="12" rx="6" fill="#F0F0F4"/>
<rect x="28" y="106" width="21" height="12" rx="6" fill="#F0F0F4"/>
<rect x="28" y="146" width="21" height="12" rx="6" fill="white"/>
<rect x="28" y="186" width="21" height="12" rx="6" fill="#F0F0F4"/>
<circle cx="34" cy="72" r="4" fill="#999999"/>
<circle cx="34" cy="112" r="4" fill="#999999"/>
<circle cx="34" cy="192" r="4" fill="#999999"/>
<circle cx="43" cy="152" r="4" fill="#C4C4C4"/>
<path d="M239.651 80.7402L229.791 62.7995C229.206 61.7335 227.631 61.7335 227.043 62.7995L217.185 80.7402C216.632 81.7463 217.384 82.963 218.559 82.963H238.278C239.452 82.963 240.203 81.7463 239.651 80.7402V80.7402Z" fill="#FF4F5E"/>
<path fill-rule="evenodd" clip-rule="evenodd" d="M228.418 79.9414C227.559 79.9414 226.861 79.2645 226.861 78.4306C226.861 77.5966 227.559 76.9198 228.418 76.9198C229.277 76.9198 229.975 77.5966 229.975 78.4306C229.975 79.2645 229.277 79.9414 228.418 79.9414ZM229.975 75.409H226.861V69.3657H229.975V75.409Z" fill="white"/>
<path d="M72.4082 71.4324L69.8376 73.8689L67.3625 71.5624L67.0677 71.8559L60.3782 78.5806C60.6409 78.8458 60.9996 78.9967 61.375 78.9999H78.3002C78.6757 78.9969 79.0345 78.846 79.2971 78.5806L72.7221 71.7637L72.4082 71.4324Z" fill="#0266A8"/>
<path d="M67.5676 71.7669L60.412 65.3907L60.425 65.3784H60.412C60.1541 65.6352 60.0071 65.9736 60 66.3273V77.6605C60.0024 78.0227 60.1586 78.3689 60.4337 78.6217L67.2727 72.0634L67.5676 71.7669Z" fill="#0390ED"/>
<path d="M79.6031 65.9575C79.5244 65.7368 79.3875 65.5378 79.2049 65.3784H79.1939C79.1939 65.3784 79.1939 65.3784 79.2049 65.3886L72.1082 71.683L72.4271 71.9929L79.2467 78.6217C79.5218 78.3679 79.6762 78.023 79.6757 77.6633V66.3734C79.6755 66.2321 79.651 66.0917 79.6031 65.9575V65.9575Z" fill="#0390ED"/>
<path d="M67.3864 71.8282L69.8663 74.0811L72.4418 71.7053L79.2971 65.383C79.2971 65.383 79.2971 65.383 79.2865 65.3727C79.0344 65.1359 78.6971 65.0024 78.3451 65H61.3876C61.0094 65.0032 60.6492 65.1557 60.3909 65.4219L60.3782 65.4342L67.3864 71.8282Z" fill="#62BEFB"/>
<path d="M72.4082 111.432L69.8376 113.869L67.3625 111.562L67.0677 111.856L60.3782 118.581C60.6409 118.846 60.9996 118.997 61.375 119H78.3002C78.6757 118.997 79.0345 118.846 79.2971 118.581L72.7221 111.764L72.4082 111.432Z" fill="#0266A8"/>
<path d="M67.5676 111.767L60.412 105.391L60.425 105.378H60.412C60.1541 105.635 60.0071 105.974 60 106.327V117.661C60.0024 118.023 60.1586 118.369 60.4337 118.622L67.2727 112.063L67.5676 111.767Z" fill="#0390ED"/>
<path d="M79.6031 105.957C79.5244 105.737 79.3875 105.538 79.2049 105.378H79.1939C79.1939 105.378 79.1939 105.378 79.2049 105.389L72.1082 111.683L72.4271 111.993L79.2467 118.622C79.5218 118.368 79.6762 118.023 79.6757 117.663V106.373C79.6755 106.232 79.651 106.092 79.6031 105.957V105.957Z" fill="#0390ED"/>
<path d="M67.3864 111.828L69.8663 114.081L72.4418 111.705L79.2971 105.383C79.2971 105.383 79.2971 105.383 79.2865 105.373C79.0344 105.136 78.6971 105.002 78.3451 105H61.3876C61.0094 105.003 60.6492 105.156 60.3909 105.422L60.3782 105.434L67.3864 111.828Z" fill="#62BEFB"/>
<path d="M72.4082 191.432L69.8376 193.869L67.3625 191.562L67.0677 191.856L60.3782 198.581C60.6409 198.846 60.9996 198.997 61.375 199H78.3002C78.6757 198.997 79.0345 198.846 79.2971 198.581L72.7221 191.764L72.4082 191.432Z" fill="#0266A8"/>
<path d="M67.5676 191.767L60.412 185.391L60.425 185.378H60.412C60.1541 185.635 60.0071 185.974 60 186.327V197.661C60.0024 198.023 60.1586 198.369 60.4337 198.622L67.2727 192.063L67.5676 191.767Z" fill="#0390ED"/>
<path d="M79.6031 185.957C79.5244 185.737 79.3875 185.538 79.2049 185.378H79.1939C79.1939 185.378 79.1939 185.378 79.2049 185.389L72.1082 191.683L72.4271 191.993L79.2467 198.622C79.5218 198.368 79.6762 198.023 79.6757 197.663V186.373C79.6755 186.232 79.651 186.092 79.6031 185.957V185.957Z" fill="#0390ED"/>
<path d="M67.3864 191.828L69.8663 194.081L72.4418 191.705L79.2971 185.383C79.2971 185.383 79.2971 185.383 79.2865 185.373C79.0344 185.136 78.6971 185.002 78.3451 185H61.3876C61.0094 185.003 60.6492 185.156 60.3909 185.422L60.3782 185.434L67.3864 191.828Z" fill="#62BEFB"/>
<path d="M72.834 151.364L70.1824 153.822L67.6292 151.495L67.3251 151.791L60.4248 158.577C60.6958 158.844 61.0658 158.997 61.4531 159H78.9117C79.299 158.997 79.6691 158.845 79.94 158.577L73.1578 151.698L72.834 151.364Z" fill="#FF651D"/>
<path d="M67.6364 151.769L60.4157 145.437L60.4289 145.424H60.4157C60.1555 145.679 60.0072 146.015 60 146.367V157.621C60.0024 157.981 60.16 158.325 60.4376 158.576L67.3388 152.063L67.6364 151.769Z" fill="#FF9200"/>
<path d="M79.8888 145.424H79.8777C79.8777 145.424 79.8777 145.424 79.8888 145.435L72.7275 151.887L73.0494 152.205L79.931 159C80.2086 158.74 80.3644 158.386 80.3639 158.018V146.444C80.3637 146.299 80.339 146.155 80.2906 146.018C80.2112 145.792 80.0731 145.588 79.8888 145.424Z" fill="#FF9200"/>
<path d="M67.653 152.018L70.211 154.333L72.8677 151.892L79.939 145.394C79.939 145.394 79.939 145.394 79.928 145.383C79.668 145.14 79.32 145.002 78.957 145H61.465C61.075 145.003 60.7034 145.16 60.437 145.434L60.4238 145.446L67.653 152.018Z" fill="#FBB85E"/>
</g>
<path d="M252.092 77.168C254.262 77.168 255.676 75.992 255.676 74.34C255.676 73.038 254.668 72.296 253.646 72.058C254.682 71.75 255.466 70.994 255.466 69.832C255.466 68.306 254.108 67.214 252.064 67.214C250.426 67.214 249.306 67.942 248.536 68.908L249.572 69.972C250.23 69.244 250.958 68.782 251.91 68.782C252.946 68.782 253.702 69.328 253.702 70.112C253.702 70.952 252.96 71.414 251.826 71.4H250.748V72.912L251.826 72.898C253.184 72.898 253.898 73.346 253.898 74.2C253.898 75.04 253.184 75.614 252.036 75.614C251 75.614 250.076 75.152 249.404 74.396L248.34 75.544C249.124 76.482 250.412 77.168 252.092 77.168ZM258.275 77.168C258.863 77.168 259.353 76.664 259.353 76.048C259.353 75.474 258.863 74.97 258.275 74.97C257.631 74.97 257.155 75.474 257.155 76.048C257.155 76.664 257.631 77.168 258.275 77.168ZM265.518 77H267.254V74.914H268.584V73.416H267.254V67.382H265.168L260.604 73.556L260.772 74.914H265.518V77ZM262.466 73.416L265.518 69.286V73.416H262.466ZM276.909 69.762H274.893L271.757 73.192V67.214H270.049V77H271.757V75.194L272.779 74.116L274.823 77H276.811L273.927 72.996L276.909 69.762Z" fill="#666666"/>
<path d="M257.251 117H258.987V107.382H257.587L254.885 109.216L255.599 110.448L257.251 109.398V117ZM260.773 117H267.843V115.404H263.489L265.505 113.78C267.157 112.506 267.745 111.484 267.745 110.21C267.745 108.432 266.289 107.214 264.385 107.214C262.831 107.214 261.669 107.9 260.759 109.09L261.893 110.14C262.593 109.3 263.321 108.782 264.329 108.782C265.197 108.782 265.967 109.342 265.967 110.252C265.967 111.036 265.533 111.764 264.315 112.744L260.773 115.572V117ZM270.286 117H272.26L276.236 108.698V107.382H269.292V108.978H274.206L270.286 117Z" fill="#666666"/>
<path d="M253.71 157H255.446V147.382H254.046L251.344 149.216L252.058 150.448L253.71 149.398V157ZM258.576 157.168C259.164 157.168 259.654 156.664 259.654 156.048C259.654 155.474 259.164 154.97 258.576 154.97C257.932 154.97 257.456 155.474 257.456 156.048C257.456 156.664 257.932 157.168 258.576 157.168ZM264.81 157.168C266.882 157.168 268.562 156.16 268.562 154.438C268.562 153.304 267.736 152.464 266.602 152.03C267.568 151.638 268.31 150.924 268.31 149.804C268.31 148.18 266.672 147.214 264.81 147.214C263.004 147.214 261.324 148.152 261.324 149.804C261.324 150.896 262.038 151.61 263.032 152.03C261.912 152.436 261.072 153.276 261.072 154.438C261.072 156.146 262.724 157.168 264.81 157.168ZM264.81 151.4C264.012 151.358 263.046 150.882 263.046 150.028C263.046 149.272 263.802 148.698 264.81 148.698C265.818 148.698 266.588 149.272 266.588 150.028C266.588 150.868 265.636 151.358 264.81 151.4ZM264.81 155.67C263.676 155.67 262.822 155.11 262.822 154.27C262.822 153.374 263.928 152.842 264.81 152.8C265.706 152.842 266.798 153.374 266.798 154.27C266.798 155.11 265.93 155.67 264.81 155.67ZM276.909 149.762H274.893L271.757 153.192V147.214H270.049V157H271.757V155.194L272.779 154.116L274.823 157H276.811L273.927 152.996L276.909 149.762Z" fill="#666666"/>
<path d="M258.627 197.168C260.797 197.168 262.211 195.992 262.211 194.34C262.211 193.038 261.203 192.296 260.181 192.058C261.217 191.75 262.001 190.994 262.001 189.832C262.001 188.306 260.643 187.214 258.599 187.214C256.961 187.214 255.841 187.942 255.071 188.908L256.107 189.972C256.765 189.244 257.493 188.782 258.445 188.782C259.481 188.782 260.237 189.328 260.237 190.112C260.237 190.952 259.495 191.414 258.361 191.4H257.283V192.912L258.361 192.898C259.719 192.898 260.433 193.346 260.433 194.2C260.433 195.04 259.719 195.614 258.571 195.614C257.535 195.614 256.611 195.152 255.939 194.396L254.875 195.544C255.659 196.482 256.947 197.168 258.627 197.168ZM267.162 197.168C269.234 197.168 270.914 196.16 270.914 194.438C270.914 193.304 270.088 192.464 268.954 192.03C269.92 191.638 270.662 190.924 270.662 189.804C270.662 188.18 269.024 187.214 267.162 187.214C265.356 187.214 263.676 188.152 263.676 189.804C263.676 190.896 264.39 191.61 265.384 192.03C264.264 192.436 263.424 193.276 263.424 194.438C263.424 196.146 265.076 197.168 267.162 197.168ZM267.162 191.4C266.364 191.358 265.398 190.882 265.398 190.028C265.398 189.272 266.154 188.698 267.162 188.698C268.17 188.698 268.94 189.272 268.94 190.028C268.94 190.868 267.988 191.358 267.162 191.4ZM267.162 195.67C266.028 195.67 265.174 195.11 265.174 194.27C265.174 193.374 266.28 192.842 267.162 192.8C268.058 192.842 269.15 193.374 269.15 194.27C269.15 195.11 268.282 195.67 267.162 195.67ZM274.108 197H275.844V187.382H274.444L271.742 189.216L272.456 190.448L274.108 189.398V197Z" fill="#666666"/>
<defs>
<clipPath id="clip0_101:197">
<rect width="306" height="223" fill="white"/>
</clipPath>
</defs>
</svg>
