<svg id="fd6a9432-ff35-415b-b9ae-d4e5da9240d7" data-name="Layer 1" xmlns="http://www.w3.org/2000/svg" xmlns:xlink="http://www.w3.org/1999/xlink" viewBox="0 0 300 280"><defs><mask id="f53f5993-6f66-4ade-b516-34bf6ade8d00" x="0" y="0" width="300" height="280" maskUnits="userSpaceOnUse"><g id="fc6c0342-e397-4bc1-8518-7dc243e68fb6" data-name="b"><rect id="b2dd75fb-fd30-4da8-99a3-b63be0d3b64f" data-name="a" width="300" height="280" rx="12" fill="#fff"/></g></mask><linearGradient id="fb2d4e77-cfcb-40cf-8716-cec8affaf70d" x1="-528.91" y1="443.5" x2="-529.9" y2="443.5" gradientTransform="matrix(254, 0, 0, -3, 134620, 1375)" gradientUnits="userSpaceOnUse"><stop offset="0" stop-color="#ff9100"/><stop offset="0.52" stop-color="#f10366"/><stop offset="1" stop-color="#6173ff"/></linearGradient></defs><rect id="f61d9fdf-084d-4935-a137-65841c72f1d7" data-name="a" width="300" height="280" rx="12" fill="#f9f9fa"/><g mask="url(#f53f5993-6f66-4ade-b516-34bf6ade8d00)"><rect id="bfadc654-3c2d-4d7f-a43d-2fa0a1427b7d" data-name="d" x="23" y="226" width="251" height="30" rx="4"/><rect id="b39c9cb0-b7a4-4ff0-b2d6-9a6cfe947ce0" data-name="d" x="23" y="226" width="251" height="30" rx="4" fill="#fff"/><rect x="253.84" y="213.96" width="16.04" height="7.92" rx="3.96" fill="#b1b1b3" stroke="#b1b1b3"/><rect x="24.16" y="211" width="74.03" height="9.23" rx="2" fill="#737373"/><rect x="29.94" y="231.77" width="74.03" height="9.23" rx="2" fill="#d7d7db"/><rect x="108.59" y="231.77" width="9.25" height="9.23" rx="2" fill="#ededf0"/><rect x="204.6" y="231.77" width="23.13" height="9.23" rx="2" fill="#737373"/><rect x="236.99" y="231.77" width="23.13" height="9.23" rx="2" fill="#ededf0"/><rect x="204.6" y="245.62" width="23.13" height="4.62" rx="2" fill="#737373"/><rect x="236.99" y="245.62" width="23.13" height="4.62" rx="2" fill="#ededf0"/><ellipse cx="257.81" cy="217.92" rx="3.47" ry="3.46" fill="#fff"/></g><g mask="url(#f53f5993-6f66-4ade-b516-34bf6ade8d00)"><rect id="fdd3db2f-99f1-4b07-8e04-62e0a5443d16" data-name="f" x="23" y="157" width="251" height="30" rx="4"/><rect id="b330ddda-b196-442f-9d27-29c8ce9c9775" data-name="f" x="23" y="157" width="251" height="30" rx="4" fill="#fff"/><path d="M257.8,143.81h8.11a4,4,0,0,1,4,4h0a4,4,0,0,1-4,4H257.8a4,4,0,0,1-4-4h0A4,4,0,0,1,257.8,143.81Z" fill="#0060df" stroke="#0060df" fill-rule="evenodd"/><rect x="108.59" y="162.77" width="9.25" height="9.23" rx="2" fill="#ededf0"/><rect x="204.6" y="162.77" width="23.13" height="9.23" rx="2" fill="#ededf0"/><rect x="236.99" y="162.77" width="23.13" height="9.23" rx="2" fill="#737373"/><rect x="204.6" y="176.62" width="23.13" height="4.62" rx="2" fill="#ededf0"/><rect x="236.99" y="176.62" width="23.13" height="4.62" rx="2" fill="#737373"/><rect x="24.16" y="142" width="74.03" height="9.23" rx="2" fill="#737373"/><rect x="29.94" y="162.77" width="74.03" height="9.23" rx="2" fill="#d7d7db"/><ellipse cx="265.9" cy="147.77" rx="3.47" ry="3.46" fill="#fff"/></g><g mask="url(#f53f5993-6f66-4ade-b516-34bf6ade8d00)"><rect id="e55b4edd-a9d0-4350-bd31-928756c94b9b" data-name="h" x="23" y="88" width="251" height="30" rx="4"/><rect id="bfdcef9d-3c03-4670-b513-061797dcb133" data-name="h" x="23" y="88" width="251" height="30" rx="4" fill="#fff"/><rect x="253.84" y="75.96" width="16.04" height="7.92" rx="3.96" fill="#0060df" stroke="#0060df"/><rect x="108.59" y="93.77" width="9.25" height="9.23" rx="2" fill="#ededf0"/><rect x="204.6" y="92.62" width="23.13" height="9.23" rx="2" fill="#ededf0"/><rect x="236.99" y="92.62" width="23.13" height="9.23" rx="2" fill="#737373"/><rect x="204.6" y="106.46" width="23.13" height="4.62" rx="2" fill="#ededf0"/><rect x="236.99" y="106.46" width="23.13" height="4.62" rx="2" fill="#737373"/><rect x="24.16" y="73" width="74.03" height="9.23" rx="2" fill="#737373"/><rect x="29.94" y="93.77" width="74.03" height="9.23" rx="2" fill="#d7d7db"/><ellipse cx="265.9" cy="79.92" rx="3.47" ry="3.46" fill="#fff"/></g><g mask="url(#f53f5993-6f66-4ade-b516-34bf6ade8d00)"><path d="M28.86,34V26.9l3,4.05,3.06-4.12V34h1.94V23.78H35L31.85,28l-3-4.21H26.9V34Zm11.85.15a3.39,3.39,0,0,0,2.78-1.31V34h1.86V29.35c0-1.9-1.28-3.06-3.5-3.06A4.21,4.21,0,0,0,38.28,28l1.78.88a1.87,1.87,0,0,1,1.77-1c1.1,0,1.64.56,1.64,1.37v.1h-2c-2.1,0-3.4,1-3.4,2.53C38.08,33.23,39.06,34.15,40.71,34.15Zm.56-1.59c-.79,0-1.17-.28-1.17-.83s.46-.95,1.61-.95h1.78v.41A2.5,2.5,0,0,1,41.27,32.56ZM48.78,34V29.83A1.64,1.64,0,0,1,50.39,28c1,0,1.54.67,1.54,1.75V34h2V29.44c0-2-1.13-3.15-2.92-3.15a2.68,2.68,0,0,0-2.22,1.1v-.95H46.83V34Zm8.94.15a3.39,3.39,0,0,0,2.78-1.31V34h1.86V29.35c0-1.9-1.28-3.06-3.5-3.06A4.21,4.21,0,0,0,55.29,28l1.78.88a1.87,1.87,0,0,1,1.77-1c1.1,0,1.64.56,1.64,1.37v.1h-2c-2.1,0-3.4,1-3.4,2.53C55.09,33.23,56.07,34.15,57.72,34.15Zm.56-1.59c-.79,0-1.17-.28-1.17-.83s.46-.95,1.61-.95H60.5v.41A2.5,2.5,0,0,1,58.28,32.56Zm9.31,4.67a3.74,3.74,0,0,0,4-3.79v-7H69.62v1a2.82,2.82,0,0,0-2.35-1.14,3.72,3.72,0,0,0-3.67,3.92,3.72,3.72,0,0,0,3.64,3.9,2.9,2.9,0,0,0,2.38-1.19v.58a2,2,0,0,1-2.08,2,2.31,2.31,0,0,1-2.06-1l-1.6,1.25A4.51,4.51,0,0,0,67.59,37.23Zm0-4.91a2.13,2.13,0,1,1,2.1-2.13A2.11,2.11,0,0,1,67.62,32.32Zm9.21,1.83a4,4,0,0,0,3.49-1.75l-1.58-.92a2.06,2.06,0,0,1-1.88,1,2.1,2.1,0,0,1-2.17-1.6h6v-.73a3.76,3.76,0,0,0-3.91-3.87,3.9,3.9,0,0,0-4,3.94A3.81,3.81,0,0,0,76.83,34.15Zm2-4.77h-4a2.1,2.1,0,0,1,2-1.46A1.91,1.91,0,0,1,78.78,29.38ZM86.16,37c1.59,0,2.41-.66,3.19-2.59l3.26-8h-2l-1.87,4.87-2-4.87h-2l3,7.24-.12.31c-.38.89-.8,1.2-1.49,1.2a1.36,1.36,0,0,1-1-.46L84,36.3A3.86,3.86,0,0,0,86.16,37Zm10.57-2.85a3.93,3.93,0,1,0-4-3.93A3.92,3.92,0,0,0,96.73,34.15Zm0-1.83a2.12,2.12,0,1,1,2.07-2.11A2.08,2.08,0,0,1,96.74,32.32Zm8.18,1.83a2.63,2.63,0,0,0,2.18-1.1v1H109V26.43h-2V30.6c0,1.17-.67,1.83-1.58,1.83S104,31.77,104,30.71V26.44h-2V31C102,33,103.06,34.15,104.92,34.15Zm7.57-.15V30c0-1.27.65-1.78,1.64-1.78a1.74,1.74,0,0,1,1,.27l.7-1.91a2.92,2.92,0,0,0-1.28-.29,2.07,2.07,0,0,0-2.08,1.3V26.44h-1.91V34ZM122,34V30c0-1.27.64-1.78,1.63-1.78a1.72,1.72,0,0,1,1,.27l.7-1.91a2.9,2.9,0,0,0-1.27-.29A2.08,2.08,0,0,0,122,27.6V26.44h-1.9V34Zm7.47.15A4,4,0,0,0,133,32.4l-1.58-.92a2.06,2.06,0,0,1-1.88,1,2.1,2.1,0,0,1-2.17-1.6h6v-.73a3.76,3.76,0,0,0-3.91-3.87,3.9,3.9,0,0,0-4,3.94A3.81,3.81,0,0,0,129.5,34.15Zm1.95-4.77h-4a2.1,2.1,0,0,1,2-1.46,1.91,1.91,0,0,1,2,1.46ZM136.57,34V23h-1.93V34Zm3.87.15a3.37,3.37,0,0,0,2.77-1.31V34h1.86V29.35c0-1.9-1.27-3.06-3.5-3.06A4.22,4.22,0,0,0,138,28l1.78.88a1.88,1.88,0,0,1,1.78-1c1.09,0,1.63.56,1.63,1.37v.1h-2c-2.1,0-3.41,1-3.41,2.53C137.8,33.23,138.78,34.15,140.44,34.15Zm.56-1.59c-.8,0-1.18-.28-1.18-.83s.46-.95,1.61-.95h1.78v.41A2.5,2.5,0,0,1,141,32.56ZM147,37c1.59,0,2.4-.66,3.19-2.59l3.26-8h-2l-1.86,4.87-2-4.87h-2.06l3,7.24-.12.31c-.38.89-.8,1.2-1.49,1.2a1.36,1.36,0,0,1-1-.46l-1.12,1.57A3.86,3.86,0,0,0,147,37Zm13-2.85a3.36,3.36,0,0,0,2.77-1.31V34h1.86V29.35c0-1.9-1.27-3.06-3.5-3.06A4.22,4.22,0,0,0,157.61,28l1.78.88a1.89,1.89,0,0,1,1.78-1c1.09,0,1.64.56,1.64,1.37v.1h-2c-2.1,0-3.4,1-3.4,2.53C157.42,33.23,158.4,34.15,160.05,34.15Zm.56-1.59c-.8,0-1.18-.28-1.18-.83s.47-.95,1.61-.95h1.78v.41A2.5,2.5,0,0,1,160.61,32.56Zm9,1.59A2.86,2.86,0,0,0,171.94,33v1h1.9V23h-1.9v4.46a2.84,2.84,0,0,0-2.34-1.12,3.72,3.72,0,0,0-3.67,3.93A3.74,3.74,0,0,0,169.57,34.15Zm.38-1.82a2.13,2.13,0,1,1,2.1-2.12A2.1,2.1,0,0,1,170,32.33Zm8.79,1.82A2.86,2.86,0,0,0,181.11,33v1H183V23h-1.9v4.46a2.84,2.84,0,0,0-2.34-1.12,3.72,3.72,0,0,0-3.67,3.93A3.74,3.74,0,0,0,178.74,34.15Zm.38-1.82a2.13,2.13,0,1,1,2.1-2.12A2.1,2.1,0,0,1,179.12,32.33ZM186.44,34V30c0-1.27.64-1.78,1.64-1.78a1.74,1.74,0,0,1,1,.27l.7-1.91a3,3,0,0,0-1.28-.29,2.07,2.07,0,0,0-2.08,1.3V26.44h-1.91V34Zm7.48.15a4,4,0,0,0,3.48-1.75l-1.58-.92a2.06,2.06,0,0,1-1.88,1,2.11,2.11,0,0,1-2.17-1.6h6v-.73a3.76,3.76,0,0,0-3.91-3.87,3.9,3.9,0,0,0-4,3.94,3.81,3.81,0,0,0,4,3.92Zm1.94-4.77h-4a2.1,2.1,0,0,1,2-1.46,1.91,1.91,0,0,1,2,1.46Zm6.2,4.77c2.2,0,3.25-1.31,3.25-2.49,0-1.62-1.48-2.06-2.74-2.31-1.11-.24-1.72-.36-1.72-.84s.36-.73,1.12-.73a1.62,1.62,0,0,1,1.48.8l1.76-.71A3.58,3.58,0,0,0,202,26.26c-1.87,0-3.1,1.09-3.1,2.36,0,1.6,1.42,2,2.69,2.26,1,.19,1.78.32,1.78.87s-.42.82-1.21.82a1.81,1.81,0,0,1-1.73-1l-1.86.73a3.55,3.55,0,0,0,3.52,1.87Zm7.42,0c2.2,0,3.25-1.31,3.25-2.49,0-1.62-1.48-2.06-2.74-2.31s-1.72-.36-1.72-.84.36-.73,1.12-.73a1.62,1.62,0,0,1,1.48.8l1.76-.71a3.58,3.58,0,0,0-3.24-1.61c-1.87,0-3.1,1.09-3.1,2.36,0,1.6,1.42,2,2.69,2.26,1,.19,1.78.32,1.78.87s-.42.82-1.21.82a1.81,1.81,0,0,1-1.73-1l-1.86.73a3.55,3.55,0,0,0,3.52,1.87Zm8.21,0a4,4,0,0,0,3.48-1.75l-1.58-.92a2.05,2.05,0,0,1-1.87,1,2.1,2.1,0,0,1-2.17-1.6h6v-.73a3.76,3.76,0,0,0-3.9-3.87,3.9,3.9,0,0,0-4,3.94,3.81,3.81,0,0,0,4,3.92Zm1.94-4.77h-4a2.12,2.12,0,0,1,2.05-1.46,1.9,1.9,0,0,1,2,1.46Zm6.21,4.77c2.19,0,3.24-1.31,3.24-2.49,0-1.62-1.48-2.06-2.74-2.31s-1.72-.36-1.72-.84.36-.73,1.12-.73a1.62,1.62,0,0,1,1.48.8l1.77-.71a3.6,3.6,0,0,0-3.25-1.61c-1.86,0-3.1,1.09-3.1,2.36,0,1.6,1.42,2,2.69,2.26,1,.19,1.78.32,1.78.87s-.42.82-1.2.82a1.82,1.82,0,0,1-1.74-1l-1.86.73a3.56,3.56,0,0,0,3.53,1.87Z" fill="#38383d"/></g><g mask="url(#f53f5993-6f66-4ade-b516-34bf6ade8d00)"><path d="M276.27,43A1.63,1.63,0,0,1,278,44.5,1.6,1.6,0,0,1,276.43,46H25.73A1.63,1.63,0,0,1,24,44.5,1.6,1.6,0,0,1,25.57,43h250.7Z" fill="url(#fb2d4e77-cfcb-40cf-8716-cec8affaf70d)"/></g></svg>