<svg width="112" height="115" viewBox="0 0 112 115" fill="none" xmlns="http://www.w3.org/2000/svg">
<circle cx="51" cy="63.1384" r="51" fill="#985BFF"/>
<path d="M102 27.1409C102 27.2751 101.903 27.3899 101.771 27.4139C101.234 27.5082 99.7289 27.863 99.2214 28.3692C98.7139 28.8754 98.3557 30.3791 98.2612 30.9126C98.2388 31.0402 98.1297 31.1345 98 31.1384V27.1384L102 27.1409Z" fill="#FFEA80"/>
<path d="M98 31.1384C97.866 31.1378 97.7519 31.0401 97.7302 30.9074C97.6436 30.3707 97.3069 28.8701 96.8045 28.3633C96.302 27.8564 94.7822 27.5036 94.2277 27.4117C94.0955 27.3887 93.9992 27.2731 94 27.1384H98V31.1384Z" fill="#FFD567"/>
<path d="M98 27.1384V23.1384C98.1336 23.1389 98.2476 23.2351 98.2705 23.3667C98.3648 23.9101 98.7221 25.4312 99.2283 25.9374C99.7345 26.4436 101.233 26.7811 101.767 26.868C101.9 26.8887 101.999 27.0032 102 27.1384L98 27.1384Z" fill="#FFD567"/>
<path d="M94 27.1384C93.9996 27.0037 94.0977 26.8888 94.2309 26.868C94.7747 26.7811 96.2942 26.4436 96.8007 25.9374C97.3073 25.4312 97.6425 23.9151 97.7294 23.3717C97.751 23.2386 97.8651 23.1403 98 23.1384V27.1384L94 27.1384Z" fill="#FFA266"/>
<path d="M59 4.14115C58.9998 4.27531 58.9035 4.39015 58.7712 4.41411C58.2339 4.5084 56.7289 4.86324 56.2214 5.36944C55.714 5.87564 55.3558 7.37937 55.2612 7.91287C55.2389 8.0404 55.1298 8.13472 55 8.13867V4.13867L59 4.14115Z" fill="#FFEA80"/>
<path d="M55 8.13867C54.866 8.13803 54.752 8.04038 54.7302 7.90762C54.6436 7.37097 54.307 5.87035 53.8045 5.36352C53.302 4.85668 51.7822 4.50389 51.2278 4.41196C51.0955 4.38891 50.9993 4.27336 51 4.13867H55V8.13867Z" fill="#FFD567"/>
<path d="M55 4.13867V0.138672C55.1336 0.139107 55.2476 0.235341 55.2705 0.366959C55.3648 0.910384 55.7221 2.43148 56.2283 2.93768C56.7345 3.44388 58.2333 3.78135 58.7668 3.8682C58.9004 3.8889 58.9992 4.00349 59 4.13867L55 4.13867Z" fill="#FFD567"/>
<path d="M51 4.13867C50.9996 4.00391 51.0977 3.88903 51.2309 3.8682C51.7747 3.78135 53.2943 3.44388 53.8008 2.93768C54.3073 2.43148 54.6425 0.915347 54.7294 0.371922C54.7511 0.238864 54.8652 0.140532 55 0.138672V4.13867L51 4.13867Z" fill="#FFA266"/>
<g clip-path="url(#clip0_208:3665)">
<path d="M31.2935 49.1247L67.9482 84.6032C68.3666 85.008 68.6749 85.5105 68.8446 86.0643C69.0142 86.6181 69.0397 87.2053 68.9187 87.7714C68.7976 88.3375 68.534 88.8643 68.1522 89.3029C67.7704 89.7416 67.2828 90.078 66.7344 90.2809L7.69317 111.925C7.06658 112.152 6.3871 112.197 5.73572 112.053C5.08434 111.909 4.48855 111.583 4.01944 111.114C3.55034 110.645 3.22773 110.052 3.09002 109.407C2.95232 108.761 3.00537 108.09 3.24284 107.474L25.6294 50.3242C25.8346 49.7926 26.171 49.3202 26.608 48.9499C27.045 48.5796 27.5688 48.3231 28.1318 48.2039C28.6947 48.0847 29.2788 48.1065 29.831 48.2673C30.3832 48.4281 30.886 48.7229 31.2935 49.1247V49.1247Z" fill="#ECECEC"/>
<path d="M21.6106 60.56L60.6927 77.5663L49.7422 66.984L23.5795 55.5754L21.6106 60.56Z" fill="#FFA266"/>
<path d="M15.9735 75.0073L58.2114 93.3996L65.4668 90.7341L17.9155 70.0227L15.9735 75.0073Z" fill="#FFA266"/>
<path d="M10.3363 89.3212L37.3081 101.076L44.5635 98.4108L12.3052 84.3633L10.3363 89.3212Z" fill="#FFA266"/>
<path d="M17.8885 108.193L25.1709 105.528L7.09977 97.6377L5.13083 102.622L17.8885 108.193Z" fill="#FFA266"/>
<circle cx="65" cy="66.1384" r="4" fill="#FFEA80"/>
</g>
<path d="M56 58.6384L76.5 41.1384" stroke="#FFEA80" stroke-width="2" stroke-linecap="round"/>
<path d="M40 46.6384L45 35.1384" stroke="#FFEA80" stroke-width="2" stroke-linecap="round"/>
<path d="M68.9106 78.3713L110.768 71.9108" stroke="#FFEA80" stroke-width="2" stroke-linecap="round"/>
<circle cx="51" cy="44.1384" r="3" fill="#FFEA80"/>
<circle cx="88" cy="55.1384" r="7" stroke="#FFD567" stroke-width="2"/>
<path d="M43.0003 19.1291C42.9994 18.626 42.6383 18.1954 42.1421 18.1055C40.1271 17.752 34.4835 16.4213 32.5805 14.523C30.6775 12.6248 29.3342 6.98582 28.9798 4.9852C28.8959 4.50694 28.4868 4.15324 28.0003 4.13843V19.1384L43.0003 19.1291Z" fill="#FFEA80"/>
<path d="M28.0003 4.13843C27.4976 4.14084 27.07 4.50701 26.9885 5.00489C26.6636 7.01731 25.4013 12.6446 23.517 14.5453C21.6327 16.4459 15.9335 17.7689 13.8543 18.1136C13.3584 18.2 12.9974 18.6333 13.0003 19.1384H28.0003V4.13843Z" fill="#FFD567"/>
<path d="M28.0003 19.1384V34.1384C28.5012 34.1368 28.9288 33.7759 29.0145 33.2823C29.3681 31.2445 30.7081 25.5404 32.6064 23.6421C34.5046 21.7439 40.125 20.4784 42.1256 20.1527C42.6265 20.0751 42.9971 19.6454 43.0003 19.1384L28.0003 19.1384Z" fill="#FFD567"/>
<path d="M13.0003 19.1384C12.9988 19.6438 13.3666 20.0746 13.8662 20.1527C15.9053 20.4784 21.6036 21.7439 23.5031 23.6421C25.4025 25.5404 26.6595 31.2259 26.9854 33.2637C27.0666 33.7627 27.4945 34.1315 28.0003 34.1384V19.1384L13.0003 19.1384Z" fill="#FFA266"/>
<path d="M71.0002 29.1343C70.9998 28.8996 70.8313 28.6986 70.5997 28.6567C69.6594 28.4916 67.0257 27.8707 66.1376 26.9848C65.2496 26.099 64.6227 23.4675 64.4573 22.5338C64.4181 22.3106 64.2272 22.1456 64.0002 22.1387V29.1387L71.0002 29.1343Z" fill="#FFEA80"/>
<path d="M64.0002 22.1387C63.7656 22.1398 63.5661 22.3107 63.528 22.543C63.3764 23.4822 62.7873 26.1082 61.908 26.9952C61.0287 27.8822 58.369 28.4995 57.3987 28.6604C57.1673 28.7008 56.9988 28.903 57.0002 29.1387H64.0002V22.1387Z" fill="#FFD567"/>
<path d="M64.0002 29.1387V36.1387C64.234 36.1379 64.4335 35.9695 64.4735 35.7392C64.6385 34.7882 65.2638 32.1263 66.1497 31.2404C67.0355 30.3546 69.6584 29.764 70.592 29.612C70.8258 29.5758 70.9987 29.3752 71.0002 29.1387L64.0002 29.1387Z" fill="#FFD567"/>
<path d="M57.0002 29.1387C56.9995 29.3745 57.1711 29.5756 57.4043 29.612C58.3559 29.764 61.0151 30.3546 61.9015 31.2404C62.7879 32.1263 63.3745 34.7795 63.5266 35.7305C63.5645 35.9633 63.7641 36.1354 64.0002 36.1387V29.1387L57.0002 29.1387Z" fill="#FFA266"/>
<defs>
<clipPath id="clip0_208:3665">
<rect width="66" height="64" fill="white" transform="translate(3 48.1384)"/>
</clipPath>
</defs>
</svg>
