<svg data-name="Layer 1" xmlns="http://www.w3.org/2000/svg" viewBox="0 0 16.04 16.04"><path d="M12.35 4.91H3.7a.6.6 0 010-1.2h8.65a.6.6 0 010 1.2z" fill="#bdccd4"/><path d="M2.88 14.84a1.68 1.68 0 01-1.68-1.68V2.88a1.68 1.68 0 011.68-1.63h10.27a1.68 1.68 0 011.7 1.63v5.59h1.2V2.88A2.88 2.88 0 0013.15 0H2.88A2.88 2.88 0 000 2.88v10.29a2.88 2.88 0 002.88 2.88h5.84v-1.2z" fill="#bdccd4"/><path d="M8.51 8.62H3.7a.6.6 0 010-1.2h4.82a.6.6 0 110 1.2zm6.84 3.24h-1.86V9.99a.69.69 0 00-1.38 0v1.87h-1.87a.69.69 0 000 1.38h1.91v1.87a.69.69 0 101.38 0v-1.86h1.82a.69.69 0 100-1.38z" fill="#bdccd4"/></svg>