<svg id="Layer_1" data-name="Layer 1" xmlns="http://www.w3.org/2000/svg" viewBox="0 0 16.04 16.04"><title>add-note</title><path d="M14.2,6.66H5.55a.6.6,0,0,1,0-1.2H14.2a.6.6,0,0,1,0,1.2Z" transform="translate(-1.85 -1.75)" fill="#bdccd4"/><path d="M4.73,16.59a1.68,1.68,0,0,1-1.68-1.68V4.63A1.68,1.68,0,0,1,4.73,3H15A1.68,1.68,0,0,1,16.7,4.63v5.59h1.2V4.63A2.88,2.88,0,0,0,15,1.75H4.73A2.88,2.88,0,0,0,1.85,4.63V14.92a2.88,2.88,0,0,0,2.88,2.88h5.84v-1.2Z" transform="translate(-1.85 -1.75)" fill="#bdccd4"/><path d="M10.36,10.37H5.55a.6.6,0,0,1,0-1.2h4.82a.6.6,0,1,1,0,1.2Z" transform="translate(-1.85 -1.75)" fill="#bdccd4"/><path d="M17.2,13.61H15.34V11.74a.69.69,0,0,0-1.38,0v1.87H12.09a.69.69,0,0,0,0,1.38H14v1.87a.69.69,0,1,0,1.38,0V15H17.2a.69.69,0,1,0,0-1.38Z" transform="translate(-1.85 -1.75)" fill="#bdccd4"/></svg>