<svg width="84px" height="72px" viewBox="0 0 84 72" version="1.1" xmlns="http://www.w3.org/2000/svg" xmlns:xlink="http://www.w3.org/1999/xlink"><defs><linearGradient x1="82.699547%" y1="13.055992%" x2="9.11282458%" y2="92.1274891%" id="b"><stop stop-color="#FFA436" offset="0%"/><stop stop-color="#FF7139" offset="100%"/></linearGradient><linearGradient x1="112.861998%" y1="45.530283%" x2="-15.3928258%" y2="45.530283%" id="f"><stop stop-color="#F06EFF" offset="0%"/><stop stop-color="#945AFF" offset="100%"/></linearGradient><linearGradient x1="0%" y1="50%" x2="100%" y2="50%" id="g"><stop stop-color="#F06EFF" offset="0%"/><stop stop-color="#945AFF" offset="100%"/></linearGradient><linearGradient x1="100%" y1="50%" x2="0%" y2="50%" id="h"><stop stop-color="#0BE1F7" offset="0%"/><stop stop-color="#52FEBE" offset="100%"/></linearGradient><linearGradient x1="100%" y1="50.5500699%" x2="18.5926365%" y2="44.3310974%" id="k"><stop stop-color="#6173FF" offset="0%"/><stop stop-color="#F10366" offset="48.1484827%"/><stop stop-color="#FF9100" offset="100%"/></linearGradient><polygon id="e" points="114 0.621621622 114 25 22 25 22 0.621621622"/><filter x="-22.8%" y="-65.6%" width="130.4%" height="214.9%" filterUnits="objectBoundingBox" id="d"><feOffset dx="-7" dy="-2" in="SourceAlpha" result="shadowOffsetOuter1"/><feGaussianBlur stdDeviation="3.5" in="shadowOffsetOuter1" result="shadowBlurOuter1"/><feColorMatrix values="0 0 0 0 0.528985507 0 0 0 0 0.00258041711 0 0 0 0 0.00258041711 0 0 0 0.450065559 0" type="matrix" in="shadowBlurOuter1"/></filter><rect id="a" x="0" y="0" width="72" height="72" rx="36"/><path d="M2.25 3h7.5c.4142136 0 .75-.33578644.75-.75s-.3357864-.75-.75-.75h-7.5c-.41421356 0-.75.33578644-.75.75s.33578644.75.75.75zm7.5 2.25h-7.5c-.41421356 0-.75.33578644-.75.75s.33578644.75.75.75h7.5c.4142136 0 .75-.33578644.75-.75s-.3357864-.75-.75-.75zm0 3.75h-7.5c-.41421356 0-.75.33578644-.75.75 0 .4142136.33578644.75.75.75h7.5c.4142136 0 .75-.3357864.75-.75 0-.41421356-.3357864-.75-.75-.75z" id="i"/></defs><g stroke="none" stroke-width="1" fill="none" fill-rule="evenodd"><mask id="c" fill="#fff"><use xlink:href="#a"/></mask><use fill="url(#b)" xlink:href="#a"/><g mask="url(#c)"><g transform="translate(-37 19)"><g stroke="none" fill="none"><use fill="#000" fill-opacity="1" filter="url(#d)" xlink:href="#e"/><use fill="#F7F7F8" fill-rule="evenodd" xlink:href="#e"/></g><rect stroke="none" fill="#F7F7F8" fill-rule="evenodd" x="22" y="25" width="92" height="44"/><polygon stroke="none" fill="#ECECEF" fill-rule="evenodd" points="121.641452 0.621621622 121.641452 25 0.50321469 25 0.50321469 0.621621622"/><path d="M65 4.5H7c-.41421356 0-.78921356.16789322-1.06066017.43933983C5.66789322 5.21078644 5.5 5.58578644 5.5 6v13c0 .4142136.16789322.7892136.43933983 1.0606602C6.21078644 20.3321068 6.58578644 20.5 7 20.5h58c.4142136 0 .7892136-.1678932 1.0606602-.4393398C66.3321068 19.7892136 66.5 19.4142136 66.5 19V6c0-.41421356-.1678932-.78921356-.4393398-1.06066017C65.7892136 4.66789322 65.4142136 4.5 65 4.5z" stroke="#CDCDCD" stroke-width="1" fill="#FFF" fill-rule="evenodd" opacity="0.586704799"/><polygon stroke="none" fill-opacity="0.2" fill="#A6A6A6" fill-rule="evenodd" points="14 9 57 9 57 16 14 16"/><line x1="15.5" y1="24.5" x2="115" y2="24.5" stroke="#979797" stroke-width="1" fill="none" opacity="0.246884301" stroke-linecap="square"/></g></g><g mask="url(#c)"><path d="M47.97727273 34.86363582h3.84090907c0-.65270016-.529118-1.18181818-1.1818182-1.18181818h-3.84090905c0 .65270016.52911802 1.18181818 1.18181818 1.18181818z" fill="#087C8D" fill-rule="evenodd"/><path d="M50.1325711 28.50869771l-4.18644478-2.38089512c-.29916871-.17040345-.66421443-.17040345-.96338314 0l-4.1864448 2.38089512c-.31014924.17773059-.50163326.51144093-.50084383.87284541v4.76029564c.00012095.36194456.1927312.69565465.50378996.87284541l4.18349867 2.38089513c.29939308.1695306.66399006.1695306.96338314 0l4.18644478-2.38089513c.3115127-.17672136.5042946-.51072887.5037925-.87284541v-4.76029564c.0011326-.3622893-.1918228-.69659751-.5037925-.87284541z" fill="#000" fill-rule="nonzero"/><g stroke-width="1" fill="none" fill-rule="nonzero"><path d="M3.84097781 0c.21391013 0 .38970101.15331654.40964212.34935429l.00188385.03723072-.00006322 3.19198361c.09163494.02390354.17400579.08283599.22511318.17093097.10148986.17494038.04126127.39863578-.13452432.49963766L4.25224404 4.301l.00025974 3.81728512c0 .21350501-.18424645.38658501-.41152597.38658501-.21391014 0-.38970102-.15331654-.40964213-.34935429l-.00188385-.03723072.00009148-3.46632689c-.09164626-.0238988-.17402879-.08283431-.22514144-.17093834-.10148986-.17494038-.04126127-.39863578.13452432-.49963766L3.42924404 3.929 3.42945183.386585C3.42945183.17308 3.61369829 0 3.84097781 0zM.69903113 5.39416128c.17578559-.10100187.40056175-.04106287.50205161.13387751.10148986.17494038.04126127.39863578-.13452432.49963766l-.37796208.23332484c-.1757856.10100188-.40056176.04106288-.50205161-.1338775-.10148986-.17494039-.04126127-.39863578.13452432-.49963766zm1.6303671-.95548725c.17578559-.10100188.40056176-.04106287.50205161.13387751.10148986.17494038.04126127.39863578-.13452432.49963766l-.63657593.36576015c-.1757856.10100187-.40056176.04106287-.50205162-.13387751-.10148985-.17494038-.04126126-.39863578.13452433-.49963766zm3.2922078-1.92045454c.17578559-.10100188.40056175-.04106288.50205161.1338775.10148986.17494038.04126126.39863578-.13452433.49963766l-.63657593.36576015c-.17578559.10100188-.40056176.04106288-.50205161-.13387751-.10148986-.17494038-.04126127-.39863578.13452432-.49963765zm1.37175322-.82305195c.17578558-.10100188.40056174-.04106288.50205159.13387752.10148986.17494039.04126127.39863581-.13452432.49963769l-.36752727.23526283c-.17578559.10100188-.40056174.04106288-.5020516-.13387752-.10148985-.1749404-.04126126-.39863581.13452432-.4996377z" fill="url(#f)" transform="translate(41.772727 27.772727)"/><path d="M6.99335927 1.69516754l-.42726276.27435065c-.17578559.10100187-.23601418.32469727-.13452433.49963765.10148986.17494039.32626602.23487939.50205161.13387751l.42726277-.27435065c.17578559-.10100188.23601418-.32469727.13452432-.49963766-.10148985-.17494038-.32626602-.23487938-.50205161-.1338775zm-1.37175324.82305195l-.63657594.36576015c-.17578559.10100187-.23601418.32469727-.13452432.49963765.10148985.17494039.32626602.23487939.50205161.13387751l.63657593-.36576015c.17578559-.10100188.23601419-.32469728.13452433-.49963766-.10148986-.17494038-.32626602-.23487938-.50205161-.1338775zm-1.6461039 1.09740259l-.63657594.36576015c-.17578559.10100188-.23601418.32469728-.13452432.49963766.10148986.17494038.32626602.23487938.50205161.13387751l.63657594-.36576015c.17578559-.10100188.23601418-.32469728.13452432-.49963766-.10148986-.17494038-.32626602-.23487938-.50205161-.13387751zm-1.6461039.82305195l-.63657593.36576015c-.17578559.10100188-.23601418.32469728-.13452433.49963766.10148986.17494038.32626602.23487938.50205162.13387751l.63657593-.36576015c.17578559-.10100188.23601418-.32469728.13452432-.49963766-.10148985-.17494038-.32626602-.23487939-.50205161-.13387751zM.75840679 5.3650507l-.43733774.26243543c-.17578559.10100188-.23601418.32469727-.13452432.49963766.10148986.17494038.32626602.23487938.5020516.1338775l.43733775-.26243543c.17578559-.10100188.23601418-.32469727.13452432-.49963766-.10148985-.17494038-.32626602-.23487938-.5020516-.1338775z" fill="url(#g)" transform="matrix(-1 0 0 1 49.454683 27.772727)"/></g><path d="M6.5 8.86363636h5.3181818c0 1.63175044-1.322795 2.95454544-2.95454544 2.95454544H6.02272727c-.55228475 0-1-.4477152-1-1v-.4772727c0-.81587521.66139753-1.47727274 1.47727273-1.47727274z" fill="url(#h)" fill-rule="evenodd" transform="translate(40 26)"/><path d="M46.75537513 37.0392562c.09652634 0 .17773437-.0155282.2436241-.0465845.06588972-.0310563.11572669-.073339.14951091-.1268482.03378422-.0535091.05067633-.1144676.05067633-.1828754 0-.0633717-.01342976-.1180349-.04028926-.1639899-.0268595-.0459549-.06179784-.0817326-.10481502-.1073331-.04301717-.0256004-.08907702-.0394499-.13817956-.0415483v-.0125904c.04490574-.0100723.08488023-.0271742.11992349-.0513058.03504326-.0241316.06263721-.0551879.08278183-.0931689.02014463-.037981.03021695-.0821523.03021695-.1325139 0-.0646307-.01594783-.12181204-.0478435-.17154409-.03189566-.04973205-.07952931-.08865735-.14290095-.11677589-.06337164-.02811855-.14248128-.04217782-.2373289-.04217782h-.5162061v1.2892562h.55082968zm-.07617188-.7497579h-.2020758v-.31916643h.20711196c.06043389 0 .10712326.01426911.14006812.04280733.03294486.0285382.04941729.0660996.04941729.112684 0 .0339941-.00849852.0631618-.02549555.0875032-.01699703.0243415-.04007941.0431221-.06924715.0563421-.02916775.0132199-.06242737.0198298-.09977887.0198298zm.02014463.5269079h-.22222043v-.3424586h.22851563c.04364669 0 .08131295.007764.11299877.0232922.03168582.0155281.05613217.0369318.07333904.064211.01720687.0272792.0258103.0587552.0258103.0944279 0 .0486829-.01741671.0876082-.05225013.1167759-.03483342.0291678-.09023114.0437516-.16619318.0437516zm1.54786213.22285v-.2247385h-.59867317v-.3078351h.55145919v-.2247385h-.55145919v-.30720559h.59615509V35.75h-.86873709v1.2892562h.87125517zm.82957992 0v-1.06451769h.3947088V35.75h-1.05885201v.22473851h.39470881v1.06451769h.2694344zm.63354664 0l.09572257-.2939773h.46534096l.0955254.2939773h.2920972L50.2145818 35.75h-.35127196l-.44507037 1.2892562h.2920971zm.49192713-.5067045h-.32706819l.15871419-.4879365h.0100723l.1582817.4879365z" fill="#190026" fill-rule="nonzero"/></g><g opacity="0.527087984" mask="url(#c)"><g transform="translate(62 26)"><rect stroke="none" fill="none" x="0" y="0" width="12" height="12"/><mask id="j" fill="#fff"><use xlink:href="#i"/></mask><g stroke="none" fill="none" mask="url(#j)" fill-rule="evenodd"><rect fill="#737373" x="0" y="0" width="12" height="12"/></g></g></g><path d="M31.9054503 41.64302435c.31334177-.21866997.70027281-.43930621 1.15441855-.6735986.45334634-.23336545.97046623-.47650894 1.52427498-.7200108 1.10723355-.48600058 2.3588946-.97107035 3.51159071-1.3549045.76901804-.2557877 1.49165373-.4666161 2.11297812-.6028343.35622862-.07725336.67750275-.1314999.97802876-.15176102.16112464-.01039343.3166449-.01172292.4832598.0074474.17675183.0238204.37505543.0582486.6157579.21167351.1293831.08599087.21960926.18691768.28315653.27715549.11431498.16739642.15638612.3035102.18890729.42391645.03078856.12051805.04536409.22925992.05525943.33907612.01851289.21832448.0152167.44274168.00113567.69416796-.02940077.5000488-.10805597 1.1025037-.21970127 1.7783542-.22345525 1.34887945-.58070616 2.97941033-.96029002 4.45339854-.25337992.9828856-.51558573 1.8926527-.75993462 2.60965899-.14076122.41135051-.2723874.75609662-.41014159 1.04088704-.07594345.15376776-.14763943.2887752-.26094652.43676553-.0613374.07635712-.1318778.16025962-.26199761.25320606-.07647764.05318312-.17753168.11109254-.31860826.14856605-.13889713.03851717-.32430092.0468207-.49882865-.00278708-.11589436-.03155656-.22177962-.0855407-.3060284-.1458639-.11328822-.08110735-.18951973-.1698059-.24426995-.24748021-.09565456-.13971203-.13457967-.25012728-.16519378-.3476388l-.11568163-.3739675c-.19199718-.60710737-.38058654-1.13404091-.57506017-1.59107794-.23322738-.5492776-.4742381-.99691894-.73866717-1.37456278-.45960237-.65069082-.9828764-1.1150889-1.78064191-1.5649734-.79569564-.44692842-1.86934586-.85635941-3.3209666-1.3106169-.08600971-.02715058-.17999317-.064137-.28401346-.12787086-.10294632-.06375155-.21893256-.15802175-.31688087-.29722894-.09780535-.13673757-.16558626-.31836144-.18015915-.48657897-.0163369-.16918513.0111902-.31658559.04911548-.43051639.07955873-.2282552.18309209-.35141304.27729772-.45996276.06430129-.07108986.12923055-.13197306.19664522-.18982382.08974778-.07715993.18453685-.14867165.28618547-.22021387z" fill="#FF9100"/><path d="M37.7743535 44c-4.7924505 4.1352167-13.7784099 14.5025972-7.7779973 18.5143073C35.9967687 66.5260173 66.3737116 44 83 56.4967422" stroke="url(#k)" stroke-width="2" stroke-linecap="round"/></g></svg>