<svg width="24" height="24" viewBox="0 0 24 24" fill="none" xmlns="http://www.w3.org/2000/svg">
<path fill-rule="evenodd" clip-rule="evenodd" d="M1.5 2.5C1.5 1.94772 1.94772 1.5 2.5 1.5H6.5C7.05228 1.5 7.5 1.94772 7.5 2.5V6.5C7.5 7.05228 7.05228 7.5 6.5 7.5H2.5C1.94772 7.5 1.5 7.05228 1.5 6.5V2.5ZM9 2.5C9 1.94772 9.44772 1.5 10 1.5H14C14.5523 1.5 15 1.94772 15 2.5V6.5C15 7.05228 14.5523 7.5 14 7.5H10C9.44772 7.5 9 7.05228 9 6.5V2.5ZM17.5 1.5C16.9477 1.5 16.5 1.94772 16.5 2.5V6.5C16.5 7.05228 16.9477 7.5 17.5 7.5H21.5C22.0523 7.5 22.5 7.05228 22.5 6.5V2.5C22.5 1.94772 22.0523 1.5 21.5 1.5H17.5ZM1.5 10C1.5 9.44772 1.94772 9 2.5 9H6.5C7.05228 9 7.5 9.44772 7.5 10V14C7.5 14.5523 7.05228 15 6.5 15H2.5C1.94772 15 1.5 14.5523 1.5 14V10ZM10 9C9.44772 9 9 9.44772 9 10V14C9 14.5523 9.44772 15 10 15H14C14.5523 15 15 14.5523 15 14V10C15 9.44772 14.5523 9 14 9H10ZM16.5 10C16.5 9.44772 16.9477 9 17.5 9H21.5C22.0523 9 22.5 9.44772 22.5 10V14C22.5 14.5523 22.0523 15 21.5 15H17.5C16.9477 15 16.5 14.5523 16.5 14V10ZM2.5 16.5C1.94772 16.5 1.5 16.9477 1.5 17.5V21.5C1.5 22.0523 1.94772 22.5 2.5 22.5H6.5C7.05228 22.5 7.5 22.0523 7.5 21.5V17.5C7.5 16.9477 7.05228 16.5 6.5 16.5H2.5ZM9 17.5C9 16.9477 9.44772 16.5 10 16.5H14C14.5523 16.5 15 16.9477 15 17.5V21.5C15 22.0523 14.5523 22.5 14 22.5H10C9.44772 22.5 9 22.0523 9 21.5V17.5ZM17.5 16.5C16.9477 16.5 16.5 16.9477 16.5 17.5V21.5C16.5 22.0523 16.9477 22.5 17.5 22.5H21.5C22.0523 22.5 22.5 22.0523 22.5 21.5V17.5C22.5 16.9477 22.0523 16.5 21.5 16.5H17.5Z" fill="#6D6D6E"/>
<mask id="mask0" mask-type="alpha" maskUnits="userSpaceOnUse" x="1" y="1" width="22" height="22">
<path fill-rule="evenodd" clip-rule="evenodd" d="M1.5 2.5C1.5 1.94772 1.94772 1.5 2.5 1.5H6.5C7.05228 1.5 7.5 1.94772 7.5 2.5V6.5C7.5 7.05228 7.05228 7.5 6.5 7.5H2.5C1.94772 7.5 1.5 7.05228 1.5 6.5V2.5ZM9 2.5C9 1.94772 9.44772 1.5 10 1.5H14C14.5523 1.5 15 1.94772 15 2.5V6.5C15 7.05228 14.5523 7.5 14 7.5H10C9.44772 7.5 9 7.05228 9 6.5V2.5ZM17.5 1.5C16.9477 1.5 16.5 1.94772 16.5 2.5V6.5C16.5 7.05228 16.9477 7.5 17.5 7.5H21.5C22.0523 7.5 22.5 7.05228 22.5 6.5V2.5C22.5 1.94772 22.0523 1.5 21.5 1.5H17.5ZM1.5 10C1.5 9.44772 1.94772 9 2.5 9H6.5C7.05228 9 7.5 9.44772 7.5 10V14C7.5 14.5523 7.05228 15 6.5 15H2.5C1.94772 15 1.5 14.5523 1.5 14V10ZM10 9C9.44772 9 9 9.44772 9 10V14C9 14.5523 9.44772 15 10 15H14C14.5523 15 15 14.5523 15 14V10C15 9.44772 14.5523 9 14 9H10ZM16.5 10C16.5 9.44772 16.9477 9 17.5 9H21.5C22.0523 9 22.5 9.44772 22.5 10V14C22.5 14.5523 22.0523 15 21.5 15H17.5C16.9477 15 16.5 14.5523 16.5 14V10ZM2.5 16.5C1.94772 16.5 1.5 16.9477 1.5 17.5V21.5C1.5 22.0523 1.94772 22.5 2.5 22.5H6.5C7.05228 22.5 7.5 22.0523 7.5 21.5V17.5C7.5 16.9477 7.05228 16.5 6.5 16.5H2.5ZM9 17.5C9 16.9477 9.44772 16.5 10 16.5H14C14.5523 16.5 15 16.9477 15 17.5V21.5C15 22.0523 14.5523 22.5 14 22.5H10C9.44772 22.5 9 22.0523 9 21.5V17.5ZM17.5 16.5C16.9477 16.5 16.5 16.9477 16.5 17.5V21.5C16.5 22.0523 16.9477 22.5 17.5 22.5H21.5C22.0523 22.5 22.5 22.0523 22.5 21.5V17.5C22.5 16.9477 22.0523 16.5 21.5 16.5H17.5Z" fill="white"/>
</mask>
<g mask="url(#mask0)">
</g>
</svg>
