<svg id="f15a9544-4d85-4101-96a6-13747b3449ea" data-name="Layer 1" xmlns="http://www.w3.org/2000/svg" viewBox="0 0 16.36 19.91"><title>copy-to-clipboard</title><path d="M4.05,7.62a.62.62,0,0,0-.62.62.61.61,0,0,0,.62.61H12.8a.61.61,0,0,0,.61-.61.62.62,0,0,0-.61-.62Z" transform="translate(-0.25 -0.28)" fill="#b1b1b3"/><path d="M8.91,11.41H4.05a.61.61,0,1,0,0,1.22H8.91a.61.61,0,0,0,0-1.22Z" transform="translate(-0.25 -0.28)" fill="#b1b1b3"/><path d="M15.91,15.94H14V14a.7.7,0,0,0-.7-.7.7.7,0,0,0-.71.7V16H10.61a.7.7,0,0,0-.71.7.71.71,0,0,0,.71.71h1.94V19.3a.71.71,0,0,0,.71.71.7.7,0,0,0,.7-.71V17.35h1.95a.7.7,0,0,0,.7-.71A.7.7,0,0,0,15.91,15.94Z" transform="translate(-0.25 -0.28)" fill="#b1b1b3"/><path d="M1.46,17.28V4.71A1.71,1.71,0,0,1,3.17,3H4v.49a.84.84,0,0,0,.83.84h7.5a.85.85,0,0,0,.84-.84V3h.53a1.71,1.71,0,0,1,1.71,1.69v7.78h1.23V4.71a2.92,2.92,0,0,0-2.92-2.92h-.55V1.12A.85.85,0,0,0,12.3.28H4.8A.84.84,0,0,0,4,1.12v.67h-.8A2.92,2.92,0,0,0,.25,4.71V17.28A2.92,2.92,0,0,0,3.17,20.2h6V19h-6A1.72,1.72,0,0,1,1.46,17.28Zm3.59-14V1.37h7v1.9Z" transform="translate(-0.25 -0.28)" fill="#b1b1b3"/></svg>