<svg data-name="a39ecd2d-e132-41d7-a300-574f099f504f" xmlns="http://www.w3.org/2000/svg" viewBox="0 0 103.12 74.15"><defs><radialGradient id="a" cx="48.75" cy="20.16" r="37.71" gradientTransform="matrix(1 0 0 -1 0 74)" gradientUnits="userSpaceOnUse"><stop offset="0" stop-color="#fff"/><stop offset="1"/></radialGradient></defs><path d="M62.23 34l-4.65 4.44a12.68 12.68 0 01-17.56 0l-4.12-3.96-1.59 1.59L-.59 71.6a6.92 6.92 0 005.18 2.12h88.32a7.36 7.36 0 005.18-2.12L63.82 35.65z" transform="translate(2.81 .42)" opacity=".04" fill="url(#a)" style="isolation:isolate"/><path d="M38.71 35.01L2.12.42A8 8 0 00.32 3.6a6.18 6.18 0 00-.32 2v61.35a7.36 7.36 0 002.12 5.18l34.9-35.54zm64-31.84a7.87 7.87 0 00-2-3.17L65.04 34.42l1.59 1.7 34.27 35.9a8 8 0 002.22-5.18V5.5a6.18 6.18 0 00-.42-2.33z" fill="#231f20" opacity=".01" style="isolation:isolate"/></svg>