<?xml version="1.0" encoding="utf-8"?>
<!-- Generator: Adobe Illustrator 23.0.4, SVG Export Plug-In . SVG Version: 6.00 Build 0)  -->
<svg version="1.1" id="a39ecd2d-e132-41d7-a300-574f099f504f"
	 xmlns="http://www.w3.org/2000/svg" xmlns:xlink="http://www.w3.org/1999/xlink" x="0px" y="0px" viewBox="0 0 97.5 71.9"
	 style="enable-background:new 0 0 97.5 71.9;" xml:space="preserve">
<style type="text/css">
	.st0{fill:#EBEBEC;}
</style>
<title>email-tout</title>
<path class="st0" d="M92,11.4c0-0.8-0.2-1.6-0.4-2.4c-0.4-1.3-1.2-2.4-2.1-3.3c-0.1-0.1-0.3-0.2-0.4-0.3c-1.4-1.1-3.1-1.8-4.9-1.8
	H13.4c-2,0-3.9,0.8-5.3,2.2C8,5.8,7.9,5.9,7.8,6c-0.9,0.9-1.6,2.1-2,3.3c-0.2,0.7-0.3,1.4-0.3,2.2v49.1c0,2.1,0.8,4.1,2.3,5.6
	c0.2,0.2,0.4,0.3,0.7,0.4c1.4,1.1,3.2,1.8,5,1.8c0,0,0,0,0,0h70.6c0,0,0,0,0,0c2.1,0,4.1-0.8,5.6-2.3c0.1-0.1,0.2-0.2,0.3-0.4
	c1.3-1.4,2-3.2,2-5.2V11.4z M73.5,46.2L62.4,34.6l25.4-24.3c0,0,0,0,0,0.1c0.1,0.4,0.2,0.8,0.2,1.1v49.1c0,0.3,0,0.6-0.1,0.8
	L73.5,46.2z M13.5,7.6h70.7c0.2,0,0.3,0,0.5,0L58.1,33.1c0,0,0,0,0,0l-9.4,9l-8.9-8.5L12.5,7.7C12.8,7.6,13.1,7.6,13.5,7.6z
	 M35.6,35L9.6,61.5c-0.1-0.3-0.1-0.6-0.1-0.9v-49c0-0.3,0.1-0.6,0.1-1L35.6,35z M84.1,64.3C84.1,64.3,84.1,64.3,84.1,64.3H13.5
	c-0.3,0-0.7,0-1-0.1l25.9-26.4l8.9,8.4c0.1,0.1,0.2,0.2,0.3,0.2c0,0,0,0,0,0c0.1,0.1,0.2,0.1,0.3,0.2c0,0,0,0,0,0
	c0.1,0,0.2,0.1,0.3,0.1c0,0,0,0,0,0c0.1,0,0.2,0,0.3,0c0,0,0,0,0,0c0,0,0.1,0,0.1,0c0.1,0,0.2,0,0.3,0c0.1,0,0.1,0,0.1,0
	c0.1,0,0.1,0,0.2-0.1c0.1,0,0.2-0.1,0.2-0.1c0,0,0.1,0,0.1,0c0.1-0.1,0.2-0.1,0.3-0.2l9.3-8.9l8.6,9l17.1,17.9
	C84.8,64.3,84.5,64.3,84.1,64.3z"/>
</svg>
