<svg xmlns="http://www.w3.org/2000/svg" viewBox="0 0 97.5 71.9"><path d="M92 11.4c0-.8-.2-1.6-.4-2.4-.4-1.3-1.2-2.4-2.1-3.3-.1-.1-.3-.2-.4-.3-1.4-1.1-3.1-1.8-4.9-1.8H13.4c-2 0-3.9.8-5.3 2.2-.1 0-.2.1-.3.2-.9.9-1.6 2.1-2 3.3-.2.7-.3 1.4-.3 2.2v49.1c0 2.1.8 4.1 2.3 5.6.2.2.4.3.7.4 1.4 1.1 3.2 1.8 5 1.8h70.6c2.1 0 4.1-.8 5.6-2.3.1-.1.2-.2.3-.4 1.3-1.4 2-3.2 2-5.2V11.4zM73.5 46.2L62.4 34.6l25.4-24.3v.1c.1.4.2.8.2 1.1v49.1c0 .3 0 .6-.1.8L73.5 46.2zm-60-38.6h71.2L58.1 33.1l-9.4 9-8.9-8.5L12.5 7.7c.3-.1.6-.1 1-.1zM35.6 35l-26 26.5c-.1-.3-.1-.6-.1-.9v-49c0-.3.1-.6.1-1l26 24.4zm48.5 29.3H13.5c-.3 0-.7 0-1-.1l25.9-26.4 8.9 8.4c.1.1.2.2.3.2.1.1.2.1.3.2.1 0 .2.1.3.1h.8c.1 0 .1 0 .2-.1.1 0 .2-.1.2-.1h.1c.1-.1.2-.1.3-.2l9.3-8.9 8.6 9 17.1 17.9h-.7z" fill="#ebebec"/></svg>