<?xml version="1.0" encoding="utf-8"?>
<!-- Generator: Adobe Illustrator 23.0.4, SVG Export Plug-In . SVG Version: 6.00 Build 0)  -->
<svg version="1.1" id="a39ecd2d-e132-41d7-a300-574f099f504f"
	 xmlns="http://www.w3.org/2000/svg" xmlns:xlink="http://www.w3.org/1999/xlink" x="0px" y="0px" viewBox="0 0 97.5 71.9"
	 style="enable-background:new 0 0 97.5 71.9;" xml:space="preserve">
<style type="text/css">
	.st0{opacity:4.000000e-02;fill:url(#SVGID_1_);}
	.st1{opacity:1.000000e-02;fill:#231F20;}
	.st2{fill:none;}
	.st3{fill:none;stroke:#FFBD4F;stroke-width:4;stroke-linecap:round;stroke-linejoin:round;stroke-miterlimit:10;}
	.st4{fill:none;stroke:#FFD567;stroke-width:4;stroke-linecap:round;stroke-linejoin:round;stroke-miterlimit:10;}
	.st5{fill:none;stroke:#FFEA80;stroke-width:4;stroke-linecap:round;stroke-linejoin:round;stroke-miterlimit:10;}
</style>
<title>email-tout</title>
<radialGradient id="SVGID_1_" cx="48.8412" cy="52.9229" r="35.5991" gradientUnits="userSpaceOnUse">
	<stop  offset="0" style="stop-color:#FFFFFF"/>
	<stop  offset="1" style="stop-color:#000000"/>
</radialGradient>
<path class="st0" d="M61.5,34.1l-4.4,4.2c-4.7,4.4-12,4.5-16.6,0l-3.9-3.7l-1.5,1.5l-33,33.6c1.3,1.3,3.1,2.1,4.9,2h83.5
	c1.8,0,3.6-0.7,4.9-2L63,35.7L61.5,34.1z"/>
<path class="st1" d="M36.6,34.7L2,2C1.2,2.9,0.6,3.9,0.3,5C0.1,5.6,0,6.2,0,6.9v58c0,1.8,0.7,3.6,2,4.9l33-33.6L36.6,34.7z
	 M97.1,4.6c-0.4-1.1-1-2.2-1.9-3L61.5,34.1l1.5,1.6l32.4,34c1.3-1.3,2-3.1,2.1-4.9v-58C97.5,6.1,97.4,5.3,97.1,4.6z"/>
<path class="st2" d="M38.4,35l3.1,2.9c4.1,3.8,10.4,3.8,14.5,0l3.5-3.4L88.1,7.2c-1-1-2.4-1.6-3.9-1.6H13.5c-1.6,0-3.1,0.7-4.2,1.8
	L38.4,35z"/>
<path class="st3" d="M59.5-56L48.8-45.7l-10.3-9.8l-1.2,1.2L9.4-25.8c1.1,1.1,2.6,1.7,4.2,1.7h70.6c1.6,0,3.1-0.6,4.2-1.7L60.8-54.6
	L59.5-56z"/>
<path class="st4" d="M38.4-55.5L9.3-83.1c-0.7,0.7-1.2,1.6-1.5,2.5C7.6-80,7.5-79.5,7.5-79v49.1c0,1.6,0.6,3.1,1.7,4.2l27.9-28.4
	L38.4-55.5z M89.7-80.9c-0.3-1-0.9-1.8-1.6-2.5L59.5-56l1.3,1.3l27.4,28.8c1.1-1.1,1.7-2.6,1.7-4.2v-49.1
	C90-79.7,89.9-80.3,89.7-80.9z"/>
<path class="st5" d="M38.4-55.5l10.3,9.8L59.5-56l28.5-27.3c-1-1-2.4-1.6-3.9-1.6H13.5c-1.6,0-3.1,0.7-4.2,1.8L38.4-55.5z"/>
</svg>
