<svg id="addb0761-e6fb-41b9-91af-250d2cd8372c" data-name="f5937b76-f2c7-44a1-945f-4a5acbf74aa3" xmlns="http://www.w3.org/2000/svg" viewBox="0 0 306.8 47.9"><title>fx-private-relay-logotype-light</title><path d="M25,7.86v6.55H9v8.25H25v6.45H9V43.56H2V7.86Z" transform="translate(-1.99 -5.01)" fill="#fcfcfc"/><path d="M30.42,6.56a4.51,4.51,0,0,1,6.24,0,4.32,4.32,0,0,1,1.2,3.15,4.15,4.15,0,0,1-4,4.31H33.5a4.17,4.17,0,0,1-3.1-1.22,4.28,4.28,0,0,1-1.2-3.09A4.3,4.3,0,0,1,30.42,6.56ZM37,17.15V43.56H30.08V17.15Z" transform="translate(-1.99 -5.01)" fill="#fcfcfc"/><path d="M49,17.15v4.06a6.83,6.83,0,0,1,2.86-3.45,8.58,8.58,0,0,1,4.43-1.1,9.82,9.82,0,0,1,2.47.29,9.09,9.09,0,0,1,2,.74l-2.45,6.65a4.79,4.79,0,0,0-1.49-.68,7.48,7.48,0,0,0-2-.27,5.87,5.87,0,0,0-4.16,1.44q-1.61,1.47-1.61,4.83v13.9H42.35V17.15Z" transform="translate(-1.99 -5.01)" fill="#fcfcfc"/><path d="M69.4,43.05A13.08,13.08,0,0,1,65,40.14a12.85,12.85,0,0,1-2.84-4.35,14.59,14.59,0,0,1-1-5.38,13.93,13.93,0,0,1,1-5.41,13.3,13.3,0,0,1,3-4.34,13.7,13.7,0,0,1,4.41-3,13.88,13.88,0,0,1,5.48-1,14.27,14.27,0,0,1,5.48,1,13.07,13.07,0,0,1,4.3,2.81,12.71,12.71,0,0,1,2.84,4.28,14,14,0,0,1,1,5.43v2.48h-21a7.31,7.31,0,0,0,2.67,4.09,8,8,0,0,0,4.91,1.49,7.75,7.75,0,0,0,4-1,7.58,7.58,0,0,0,2.59-2.57L87.35,38a15.58,15.58,0,0,1-4.9,4.45,14.42,14.42,0,0,1-7.31,1.7A15.45,15.45,0,0,1,69.4,43.05Zm1.18-19.39a7.73,7.73,0,0,0-2.69,3.72H82a6.65,6.65,0,0,0-2.5-3.72A7.44,7.44,0,0,0,75,22.36,7.27,7.27,0,0,0,70.58,23.66Z" transform="translate(-1.99 -5.01)" fill="#fcfcfc"/><path d="M95,17.15v-.93a21.63,21.63,0,0,1,.56-5.38,7.29,7.29,0,0,1,1.86-3.45,7.26,7.26,0,0,1,3.47-1.83A22.39,22.39,0,0,1,106.29,5h1.76v6.16h-1.13a17.35,17.35,0,0,0-2.79.17,3.16,3.16,0,0,0-1.59.69,2.42,2.42,0,0,0-.71,1.42,17.76,17.76,0,0,0-.14,2.42v1.27h6.36v6.06h-6.36V43.56H95V23.21H90.63V17.15Z" transform="translate(-1.99 -5.01)" fill="#fcfcfc"/><path d="M118,43a13.78,13.78,0,0,1-4.43-3,13.6,13.6,0,0,1-4-9.71,13.65,13.65,0,0,1,1-5.36,13.14,13.14,0,0,1,3-4.3,13.27,13.27,0,0,1,10-4,14,14,0,0,1,5.51,1,13.6,13.6,0,0,1,8.48,12.67,13.39,13.39,0,0,1-1.07,5.33A14.41,14.41,0,0,1,133.53,40a13.68,13.68,0,0,1-4.43,3A14.79,14.79,0,0,1,118,43Zm8.41-5.92a7.58,7.58,0,0,0,2.3-1.57,7.35,7.35,0,0,0,1.54-2.32,7.76,7.76,0,0,0,0-5.8,7.26,7.26,0,0,0-1.54-2.35,7.37,7.37,0,0,0-2.3-1.56,7.1,7.1,0,0,0-5.68,0,7.45,7.45,0,0,0-2.29,1.56,7.13,7.13,0,0,0-1.55,2.35,7.76,7.76,0,0,0,0,5.8,7.26,7.26,0,0,0,1.55,2.32,7.66,7.66,0,0,0,2.29,1.57A7.27,7.27,0,0,0,126.44,37.11Z" transform="translate(-1.99 -5.01)" fill="#fcfcfc"/><path d="M138.32,17.15h8L151.84,25l5.58-7.83h7.92L156,30.06l10.08,13.5h-8.17l-6.07-8.26-5.91,8.26h-8.12L147.67,30Z" transform="translate(-1.99 -5.01)" fill="#fcfcfc"/><path d="M195.52,7.86a13.35,13.35,0,0,1,5,.88,11.66,11.66,0,0,1,3.91,2.42A11,11,0,0,1,207,14.83a11.91,11.91,0,0,1,.41,7.92,11.21,11.21,0,0,1-1.44,3,10.93,10.93,0,0,1-2.33,2.47,10.62,10.62,0,0,1-3.16,1.7l7.78,13.64h-4.6l-7-12.57H185.43V43.56h-4.06V7.86ZM185.43,27.27h9.78a9.47,9.47,0,0,0,3.64-.66,8.14,8.14,0,0,0,2.69-1.76,7.29,7.29,0,0,0,1.67-2.54,8.36,8.36,0,0,0,.56-3,7.93,7.93,0,0,0-.59-3.08,7.05,7.05,0,0,0-1.75-2.46,7.73,7.73,0,0,0-2.69-1.59,10.71,10.71,0,0,0-3.51-.52h-9.8Z" transform="translate(-1.99 -5.01)" fill="#fcfcfc"/><path d="M220.1,43.05a13.09,13.09,0,0,1-4.4-2.89,12.4,12.4,0,0,1-2.81-4.33,14.59,14.59,0,0,1-1-5.38,14.09,14.09,0,0,1,1-5.45,13.45,13.45,0,0,1,3-4.34,13.24,13.24,0,0,1,4.35-3,13.84,13.84,0,0,1,5.5-1.08,14.09,14.09,0,0,1,5.36,1,12.56,12.56,0,0,1,4.25,2.79,13,13,0,0,1,2.82,4.29,13.84,13.84,0,0,1,1,5.4v1.81H215.82a9.48,9.48,0,0,0,6.16,8,11.37,11.37,0,0,0,3.84.63,9.36,9.36,0,0,0,8.85-5.09l3.43,2a15.42,15.42,0,0,1-5,4.94,14,14,0,0,1-7.29,1.76A15.09,15.09,0,0,1,220.1,43.05Zm2.06-22.26a9.11,9.11,0,0,0-2.91,1.72,9.49,9.49,0,0,0-2.13,2.59,10.52,10.52,0,0,0-1.2,3.25h19.13a8.88,8.88,0,0,0-9.35-8.17A10.14,10.14,0,0,0,222.16,20.79Z" transform="translate(-1.99 -5.01)" fill="#fcfcfc"/><path d="M249.23,5V43.56h-4V5Z" transform="translate(-1.99 -5.01)" fill="#fcfcfc"/><path d="M260.29,43.49a8.31,8.31,0,0,1-2.94-1.69,7.08,7.08,0,0,1-1.76-2.47,7.54,7.54,0,0,1-.59-3A7.23,7.23,0,0,1,258.21,30c2.13-1.48,5.06-2.23,8.78-2.23h8.36v-1a6.41,6.41,0,0,0-1.92-4.9c-1.29-1.22-3.23-1.83-5.8-1.83a9.26,9.26,0,0,0-8.41,4.45l-3.47-2.2a14.89,14.89,0,0,1,4.89-4.14,14.75,14.75,0,0,1,7-1.54,15.73,15.73,0,0,1,5,.73,10,10,0,0,1,3.62,2.08,8.93,8.93,0,0,1,2.25,3.24,10.89,10.89,0,0,1,.75,4.11V43.56h-3.91V38.92a11.88,11.88,0,0,1-4.65,3.81,14.61,14.61,0,0,1-6.27,1.37A12.59,12.59,0,0,1,260.29,43.49Zm7.8-3.3a12.58,12.58,0,0,0,2.83-1.13,11.61,11.61,0,0,0,2.5-1.86,10.4,10.4,0,0,0,1.93-2.54V31h-8.17c-2.77,0-4.81.43-6.11,1.27a4.51,4.51,0,0,0-1.15,6.27,4.93,4.93,0,0,0,.63.73,6.7,6.7,0,0,0,4.58,1.3,11.83,11.83,0,0,0,3-.37Z" transform="translate(-1.99 -5.01)" fill="#fcfcfc"/><path d="M283.67,52.27a8.59,8.59,0,0,1-2.84-1.71l2.6-3.28a6.85,6.85,0,0,0,1.66,1.32,4.48,4.48,0,0,0,2.16.49,6.3,6.3,0,0,0,1.83-.24A4.45,4.45,0,0,0,290.6,48a7.24,7.24,0,0,0,1.34-1.72,27.19,27.19,0,0,0,1.37-2.69l.59-1.27L282.83,17.15h4.36L296,37.6l8.39-20.45h4.36l-12,27.59a33.32,33.32,0,0,1-1.93,3.76,10.86,10.86,0,0,1-2.08,2.55,7.34,7.34,0,0,1-2.47,1.42,10.57,10.57,0,0,1-6.64-.2Z" transform="translate(-1.99 -5.01)" fill="#fcfcfc"/></svg>