<?xml version="1.0" encoding="UTF-8" standalone="no"?>
<svg
   width="243.1942"
   height="21.936001"
   viewBox="0 0 243.1942 21.936001"
   fill="none"
   version="1.1"
   id="svg24"
   xmlns="http://www.w3.org/2000/svg"
   xmlns:svg="http://www.w3.org/2000/svg">
  <path
     d="M 12.408,3.864 V 1.128 H 0 v 16.488 h 3 v -6.84 h 8.52 V 8.04 H 3 V 3.864 Z m 3.0075,-0.528 c 0.912,0 1.656,-0.792 1.656,-1.68 0,-0.888 -0.744,-1.656 -1.656,-1.656 -0.936,0 -1.68,0.768 -1.68,1.656 0,0.888 0.744,1.68 1.68,1.68 z m -1.488,14.28 h 2.928 V 5.208 h -2.928 z m 8.164,-10.008 v -2.4 h -2.928 v 12.408 h 2.928 v -6.264 c 0,-2.352 1.776,-3.936 4.44,-3.936 V 4.92 c -2.04,0 -3.648,1.032 -4.44,2.688 z m 11.3934,7.704 c -1.776,0 -3.072,-1.2 -3.432,-2.904 h 9.36 c 0,-4.584 -2.232,-7.488 -6.072,-7.488 -3.528,0 -6.312,2.736 -6.312,6.456 0,3.816 2.928,6.528 6.48,6.528 1.8,0 3.96,-0.768 5.04,-1.92 l -1.848,-1.92 c -0.696,0.72 -2.064,1.248 -3.216,1.248 z m -0.024,-7.8 c 1.752,0 2.808,1.104 3.144,2.664 h -6.528 c 0.432,-1.632 1.752,-2.664 3.384,-2.664 z m 11.234,-3.336 c 0,-0.84 0.528,-1.44 1.224,-1.44 0.504,0 0.96,0.192 1.224,0.456 l 0.84,-1.872 c -0.696,-0.6 -1.704,-0.984 -2.64,-0.984 -2.064,0 -3.504,1.488 -3.504,3.576 v 1.296 h -1.8 v 2.424 h 1.8 v 9.984 h 2.856 V 7.632 h 2.808 V 5.208 h -2.808 z m 10.1393,13.728 c 3.6,0 6.648,-2.976 6.648,-6.504 0,-3.528 -3.048,-6.48 -6.648,-6.48 -3.6,0 -6.648,2.952 -6.648,6.48 0,3.528 3.048,6.504 6.648,6.504 z m 0,-2.496 c -2.064,0 -3.792,-1.824 -3.792,-4.008 0,-2.16 1.728,-3.984 3.792,-3.984 2.04,0 3.768,1.824 3.768,3.984 0,2.184 -1.728,4.008 -3.768,4.008 z m 19.563,2.208 -4.656,-6.36 4.44,-6.048 h -3.192 l -2.832,3.864 -2.832,-3.864 h -3.216 l 4.44,6.072 -4.656,6.336 h 3.192 l 3.048,-4.152 3.024,4.152 z"
     fill="#000000"
     id="path2" />
  <path
     d="m 95.9202,6.336 c 0,-3.048 -2.568,-5.208 -5.952,-5.208 h -6.768 v 16.488 h 1.536 V 11.52 h 4.776 l 4.296,6.096 h 1.776 l -4.368,-6.192 c 2.76,-0.456 4.704,-2.424 4.704,-5.088 z M 84.7362,2.592 h 4.968 c 2.76,0 4.68,1.44 4.68,3.744 0,2.28 -1.92,3.72 -4.68,3.72 h -4.968 z m 18.451,13.944 c -2.544,0 -4.44,-1.968 -4.704,-4.536 h 10.488 c 0,-4.272 -2.208,-7.08 -5.88,-7.08 -3.36,0 -6.12,2.784 -6.12,6.456 0,3.72 2.904,6.528 6.216,6.528 1.824,0 4.008,-0.768 5.064,-1.92 l -0.936,-1.008 c -0.864,0.936 -2.568,1.56 -4.128,1.56 z m -0.048,-10.248 c 2.616,0 4.152,1.848 4.344,4.344 h -8.976 c 0.312,-2.568 2.208,-4.344 4.632,-4.344 z m 7.778,11.328 h 1.488 V 0.84 h -1.488 z m 9.101,-12.696 c -1.224,0 -2.76,0.336 -4.392,1.2 l 0.6,1.224 c 1.128,-0.624 2.424,-1.104 3.672,-1.104 2.784,0 3.6,1.992 3.6,3.816 v 0.504 c -1.32,-0.432 -2.808,-0.744 -4.152,-0.744 -2.784,0 -4.92,1.68 -4.92,4.128 0,2.4 1.92,3.96 4.512,3.96 1.68,0 3.648,-0.792 4.56,-2.256 v 1.968 h 1.488 v -7.56 c 0,-3 -1.704,-5.136 -4.968,-5.136 z m -0.84,11.64 c -1.848,0 -3.288,-1.032 -3.288,-2.688 0,-1.608 1.608,-2.76 3.672,-2.76 1.392,0 2.76,0.264 3.936,0.624 v 1.992 c -0.48,1.92 -2.592,2.832 -4.32,2.832 z m 10.121,5.376 c 1.728,-0.024 2.928,-0.816 3.72,-2.784 l 5.712,-13.944 h -1.608 l -4.344,10.824 -4.584,-10.824 h -1.632 l 5.448,12.6 -0.744,1.608 c -0.456,0.816 -1.104,1.152 -2.016,1.152 -0.528,0 -1.08,-0.12 -1.536,-0.36 l -0.384,1.32 c 0.576,0.264 1.272,0.408 1.968,0.408 z"
     fill="#000000"
     id="path4" />
  <path
     d="m 148.1132,17.616 h 3 v -5.544 h 4.176 c 3.528,0 6.168,-2.256 6.168,-5.472 0,-3.216 -2.64,-5.472 -6.168,-5.472 h -7.176 z m 3,-8.304 V 3.888 h 3.84 c 2.04,0 3.456,1.032 3.456,2.712 0,1.68 -1.416,2.712 -3.456,2.712 z m 14.607,-1.704 v -2.4 h -2.928 v 12.408 h 2.928 v -6.264 c 0,-2.352 1.776,-3.936 4.44,-3.936 V 4.92 c -2.04,0 -3.648,1.032 -4.44,2.688 z m 11.394,7.704 c -1.776,0 -3.072,-1.2 -3.432,-2.904 h 9.36 c 0,-4.584 -2.232,-7.488 -6.072,-7.488 -3.528,0 -6.312,2.736 -6.312,6.456 0,3.816 2.928,6.528 6.48,6.528 1.8,0 3.96,-0.768 5.04,-1.92 l -1.848,-1.92 c -0.696,0.72 -2.064,1.248 -3.216,1.248 z m -0.024,-7.8 c 1.752,0 2.808,1.104 3.144,2.664 h -6.528 c 0.432,-1.632 1.752,-2.664 3.384,-2.664 z m 21.818,-2.592 c -1.848,0 -3.408,0.912 -4.008,2.352 -0.768,-1.464 -2.208,-2.352 -3.96,-2.352 -1.56,0 -2.832,0.768 -3.456,1.968 v -1.68 h -2.928 v 12.408 h 2.928 v -7.608 c 0,-1.512 1.128,-2.592 2.712,-2.592 1.44,0 2.424,1.152 2.424,2.784 v 7.416 h 2.856 v -7.608 c 0,-1.512 1.104,-2.592 2.712,-2.592 1.416,0 2.4,1.152 2.4,2.784 v 7.416 h 2.856 V 9.72 c 0,-2.808 -1.944,-4.8 -4.536,-4.8 z m 8.191,-1.584 c 0.912,0 1.656,-0.792 1.656,-1.68 0,-0.888 -0.744,-1.656 -1.656,-1.656 -0.936,0 -1.68,0.768 -1.68,1.656 0,0.888 0.744,1.68 1.68,1.68 z m -1.488,14.28 h 2.928 V 5.208 h -2.928 z m 13.564,-12.408 v 7.848 c -0.192,1.32 -1.464,2.352 -3,2.352 -1.536,0 -2.616,-1.2 -2.616,-2.88 v -7.32 h -2.832 v 7.896 c 0,2.808 1.896,4.8 4.608,4.8 1.632,0 3.072,-0.792 3.84,-1.944 v 1.656 h 2.928 V 5.208 Z m 19.483,-0.288 c -1.848,0 -3.408,0.912 -4.008,2.352 -0.768,-1.464 -2.208,-2.352 -3.96,-2.352 -1.56,0 -2.832,0.768 -3.456,1.968 v -1.68 h -2.928 v 12.408 h 2.928 v -7.608 c 0,-1.512 1.128,-2.592 2.712,-2.592 1.44,0 2.424,1.152 2.424,2.784 v 7.416 h 2.856 v -7.608 c 0,-1.512 1.104,-2.592 2.712,-2.592 1.416,0 2.4,1.152 2.4,2.784 v 7.416 h 2.856 V 9.72 c 0,-2.808 -1.944,-4.8 -4.536,-4.8 z"
     fill="#000000"
     id="path6" />
  <defs
     id="defs22">
    <linearGradient
       id="paint0_linear_974_2493"
       x1="0.000106289"
       y1="20.7948"
       x2="37.4086"
       y2="20.7948"
       gradientUnits="userSpaceOnUse">
      <stop
         stop-color="#9059FF"
         id="stop14" />
      <stop
         offset="1"
         stop-color="#F770FF"
         id="stop16" />
    </linearGradient>
    <clipPath
       id="clip0_974_2493">
      <rect
         width="41.132801"
         height="43"
         fill="#ffffff"
         id="rect19"
         x="0"
         y="0" />
    </clipPath>
  </defs>
</svg>
