<svg id="f5937b76-f2c7-44a1-945f-4a5acbf74aa3" data-name="Layer 1" xmlns="http://www.w3.org/2000/svg" viewBox="0 0 492.52 47.89"><title>fx-private-relay-logotype</title><path d="M26.85,8.2v6.55h-16V23h16v6.45h-16V43.9h-7V8.2Z" transform="translate(-3.86 -5.36)" fill="#fcfcfc"/><path d="M32.28,6.9a4.52,4.52,0,0,1,6.24,0,4.36,4.36,0,0,1,1.2,3.15,4.15,4.15,0,0,1-4.36,4.31,4.15,4.15,0,0,1-3.1-1.22,4.25,4.25,0,0,1-1.2-3.09A4.29,4.29,0,0,1,32.28,6.9Zm6.55,10.59V43.9H31.94V17.49Z" transform="translate(-3.86 -5.36)" fill="#fcfcfc"/><path d="M50.87,17.49v4.06a6.83,6.83,0,0,1,2.86-3.45A8.64,8.64,0,0,1,58.16,17a10.26,10.26,0,0,1,2.47.29,9.1,9.1,0,0,1,2,.74l-2.45,6.65A4.81,4.81,0,0,0,58.69,24a7.32,7.32,0,0,0-2-.27,5.9,5.9,0,0,0-4.16,1.44Q50.92,26.65,50.92,30V43.9H44.21V17.49Z" transform="translate(-3.86 -5.36)" fill="#fcfcfc"/><path d="M71.26,43.39a13,13,0,0,1-4.42-2.91A12.81,12.81,0,0,1,64,36.13a14.69,14.69,0,0,1-1-5.38,13.91,13.91,0,0,1,1-5.41A13.42,13.42,0,0,1,67,21,13.62,13.62,0,0,1,71.41,18,13.88,13.88,0,0,1,76.89,17a14.15,14.15,0,0,1,5.48,1,13.09,13.09,0,0,1,4.3,2.81,12.82,12.82,0,0,1,2.84,4.28,14.19,14.19,0,0,1,1,5.43V33h-21a7.31,7.31,0,0,0,2.67,4.09,8,8,0,0,0,4.91,1.49,7.75,7.75,0,0,0,4-.95,7.5,7.5,0,0,0,2.59-2.57l5.53,3.23a15.52,15.52,0,0,1-4.9,4.45A14.39,14.39,0,0,1,77,44.44,15.29,15.29,0,0,1,71.26,43.39ZM72.44,24a7.69,7.69,0,0,0-2.69,3.72H83.84A6.63,6.63,0,0,0,81.34,24a7.48,7.48,0,0,0-4.45-1.3A7.31,7.31,0,0,0,72.44,24Z" transform="translate(-3.86 -5.36)" fill="#fcfcfc"/><path d="M96.85,17.49v-.93a21.45,21.45,0,0,1,.56-5.38,7.27,7.27,0,0,1,1.86-3.45,7.26,7.26,0,0,1,3.47-1.83,22.87,22.87,0,0,1,5.41-.54h1.76v6.16h-1.13a18.46,18.46,0,0,0-2.79.17,3.16,3.16,0,0,0-1.59.69,2.38,2.38,0,0,0-.71,1.42,17,17,0,0,0-.14,2.42v1.27h6.36v6.06h-6.36V43.9h-6.7V23.55H92.49V17.49Z" transform="translate(-3.86 -5.36)" fill="#fcfcfc"/><path d="M119.89,43.37a13.83,13.83,0,0,1-4.43-3,13.59,13.59,0,0,1-4-9.71,13.77,13.77,0,0,1,1-5.36A13.19,13.19,0,0,1,115.46,21,13.75,13.75,0,0,1,119.89,18,13.94,13.94,0,0,1,125.41,17,14.1,14.1,0,0,1,130.92,18a13.55,13.55,0,0,1,7.41,7.31,13.61,13.61,0,0,1,1.07,5.36A13.42,13.42,0,0,1,138.33,36a14.29,14.29,0,0,1-2.94,4.38,13.51,13.51,0,0,1-4.43,3,14.33,14.33,0,0,1-5.55,1.07A14.11,14.11,0,0,1,119.89,43.37Zm8.41-5.92a7.57,7.57,0,0,0,2.3-1.57,7.29,7.29,0,0,0,1.54-2.32,7.79,7.79,0,0,0,0-5.8,7.32,7.32,0,0,0-1.54-2.35,7.54,7.54,0,0,0-2.3-1.56,7.13,7.13,0,0,0-5.68,0,7.5,7.5,0,0,0-2.29,1.56,7.18,7.18,0,0,0-1.55,2.35,7.79,7.79,0,0,0,0,5.8,7.15,7.15,0,0,0,1.55,2.32,7.52,7.52,0,0,0,2.29,1.57,7.24,7.24,0,0,0,5.68,0Z" transform="translate(-3.86 -5.36)" fill="#fcfcfc"/><path d="M140.18,17.49h8l5.52,7.83,5.58-7.83h7.92L157.84,30.4l10.08,13.5h-8.17l-6.07-8.26-5.91,8.26h-8.12l9.88-13.55Z" transform="translate(-3.86 -5.36)" fill="#fcfcfc"/><path d="M197.56,8.2a14.44,14.44,0,0,1,5.36,1,11.92,11.92,0,0,1,6.8,6.6,12.72,12.72,0,0,1,.95,4.92,12.86,12.86,0,0,1-.95,4.94,12.06,12.06,0,0,1-2.69,4,12.65,12.65,0,0,1-4.14,2.64,14.41,14.41,0,0,1-5.33.95h-9.34V43.9h-4.11V8.2Zm-9.34,21.22h9.1a10.25,10.25,0,0,0,3.86-.68,8.86,8.86,0,0,0,2.91-1.86,8,8,0,0,0,1.84-2.76,9.28,9.28,0,0,0,.63-3.45,9.43,9.43,0,0,0-.63-3.47,7.94,7.94,0,0,0-1.84-2.79,8.36,8.36,0,0,0-2.93-1.84,10.91,10.91,0,0,0-3.89-.66h-9.05Z" transform="translate(-3.86 -5.36)" fill="#fcfcfc"/><path d="M220.89,17.49v5a7.5,7.5,0,0,1,2.77-4,8,8,0,0,1,4.77-1.37,8.25,8.25,0,0,1,4.4,1l-1.66,3.81a4.21,4.21,0,0,0-1.35-.61,7.08,7.08,0,0,0-1.88-.22,6.62,6.62,0,0,0-5.14,2Q221,25,221,29.42V43.9h-4V17.49Z" transform="translate(-3.86 -5.36)" fill="#fcfcfc"/><path d="M237.55,7.09a3,3,0,0,1,2.22-.9,3.06,3.06,0,0,1,2.3.9A3.15,3.15,0,0,1,243,9.37a3.11,3.11,0,0,1-.88,2.27,3,3,0,0,1-2.3.91,3,3,0,0,1-2.25-.91,3.15,3.15,0,0,1-.88-2.27A3.09,3.09,0,0,1,237.55,7.09Zm4.28,10.4V43.9h-4.06V17.49Z" transform="translate(-3.86 -5.36)" fill="#fcfcfc"/><path d="M250.83,17.49,259.34,39,268,17.49h4.25L261.15,43.9h-4L246.57,17.49Z" transform="translate(-3.86 -5.36)" fill="#fcfcfc"/><path d="M280,43.83a8.44,8.44,0,0,1-2.94-1.69,7.1,7.1,0,0,1-1.76-2.47,7.69,7.69,0,0,1-.58-3,7.23,7.23,0,0,1,3.2-6.33c2.14-1.48,5.06-2.23,8.78-2.23h8.37v-1a6.39,6.39,0,0,0-1.94-4.87c-1.28-1.22-3.22-1.83-5.79-1.83A9.29,9.29,0,0,0,279,24.83l-3.47-2.2a15.22,15.22,0,0,1,4.89-4.14A14.78,14.78,0,0,1,287.42,17a15.75,15.75,0,0,1,5,.73A10.27,10.27,0,0,1,296,19.76,8.86,8.86,0,0,1,298.25,23a10.71,10.71,0,0,1,.76,4.11V43.9H295.1V39.26a11.93,11.93,0,0,1-4.65,3.81,14.6,14.6,0,0,1-6.31,1.37A12.44,12.44,0,0,1,280,43.83Zm7.8-3.3a12.47,12.47,0,0,0,2.84-1.13,11.08,11.08,0,0,0,2.49-1.86A10.64,10.64,0,0,0,295.1,35V31.33h-8.17c-2.77,0-4.81.43-6.12,1.27a4.22,4.22,0,0,0-1.95,3.77,4.17,4.17,0,0,0,1.44,3.25,6.69,6.69,0,0,0,4.57,1.3A11.63,11.63,0,0,0,287.83,40.53Z" transform="translate(-3.86 -5.36)" fill="#fcfcfc"/><path d="M308.2,17.49V11.67l4-2.55v8.37h7.73v3.57h-7.73V35.83a5.08,5.08,0,0,0,1.05,3.62A3.68,3.68,0,0,0,316,40.53a4.38,4.38,0,0,0,3-1.27l2.11,3.18a9.38,9.38,0,0,1-2.45,1.37,8.67,8.67,0,0,1-3,.48,7.39,7.39,0,0,1-5.58-2c-1.27-1.32-1.91-3.44-1.91-6.38V21.06h-5.13V17.49Z" transform="translate(-3.86 -5.36)" fill="#fcfcfc"/><path d="M331.22,43.39a13.1,13.1,0,0,1-4.4-2.89A12.44,12.44,0,0,1,324,36.17a14.61,14.61,0,0,1-1-5.38,14,14,0,0,1,1.05-5.45A13.67,13.67,0,0,1,327,21,13.44,13.44,0,0,1,331.32,18a13.8,13.8,0,0,1,5.5-1.08,14.32,14.32,0,0,1,5.36,1,12.76,12.76,0,0,1,4.25,2.79A12.91,12.91,0,0,1,349.24,25a13.82,13.82,0,0,1,1,5.4v1.81H326.94a9.33,9.33,0,0,0,1,3.48,9.69,9.69,0,0,0,2.12,2.71,9.51,9.51,0,0,0,3,1.79,11.13,11.13,0,0,0,3.84.63,9.36,9.36,0,0,0,8.85-5.09l3.42,2a15.27,15.27,0,0,1-5,4.94A13.94,13.94,0,0,1,337,44.44,15.06,15.06,0,0,1,331.22,43.39Zm2-22.26a9.45,9.45,0,0,0-2.91,1.72,9.9,9.9,0,0,0-2.12,2.59,10.31,10.31,0,0,0-1.2,3.25h19.12a8.87,8.87,0,0,0-9.34-8.17A10.3,10.3,0,0,0,333.27,21.13Z" transform="translate(-3.86 -5.36)" fill="#fcfcfc"/><path d="M383.09,8.2a13.59,13.59,0,0,1,5,.88A11.59,11.59,0,0,1,392,11.5a11,11,0,0,1,2.52,3.67,11.9,11.9,0,0,1,.41,7.92,11.11,11.11,0,0,1-1.44,3,10.9,10.9,0,0,1-2.33,2.47A10.54,10.54,0,0,1,388,30.26l7.78,13.64h-4.6l-7-12.57H373V43.9h-4.06V8.2ZM373,27.61h9.78a9.42,9.42,0,0,0,3.64-.66,8.05,8.05,0,0,0,2.69-1.76,7.29,7.29,0,0,0,1.67-2.54,8.29,8.29,0,0,0,.56-3,8,8,0,0,0-.59-3.08A7,7,0,0,0,389,14.11a7.8,7.8,0,0,0-2.69-1.59A10.75,10.75,0,0,0,382.8,12H373Z" transform="translate(-3.86 -5.36)" fill="#fcfcfc"/><path d="M407.67,43.39a13.1,13.1,0,0,1-4.4-2.89,12.42,12.42,0,0,1-2.81-4.33,14.61,14.61,0,0,1-1-5.38,14,14,0,0,1,1-5.45A13.53,13.53,0,0,1,403.42,21,13.29,13.29,0,0,1,407.77,18a13.8,13.8,0,0,1,5.5-1.08,14.28,14.28,0,0,1,5.36,1,12.66,12.66,0,0,1,4.25,2.79A12.93,12.93,0,0,1,425.7,25a14,14,0,0,1,1,5.4v1.81H403.39a9.41,9.41,0,0,0,3.16,6.19,9.35,9.35,0,0,0,3,1.79,11.21,11.21,0,0,0,3.84.63,9.36,9.36,0,0,0,8.85-5.09l3.43,2a15.36,15.36,0,0,1-5,4.94,14,14,0,0,1-7.29,1.76A15.06,15.06,0,0,1,407.67,43.39Zm2.06-22.26a9.22,9.22,0,0,0-2.91,1.72,9.74,9.74,0,0,0-2.13,2.59,10.56,10.56,0,0,0-1.2,3.25h19.13a8.89,8.89,0,0,0-9.35-8.17A10.2,10.2,0,0,0,409.73,21.13Z" transform="translate(-3.86 -5.36)" fill="#fcfcfc"/><path d="M436.8,5.36V43.9h-4V5.36Z" transform="translate(-3.86 -5.36)" fill="#fcfcfc"/><path d="M447.86,43.83a8.26,8.26,0,0,1-2.94-1.69,7,7,0,0,1-1.76-2.47,7.69,7.69,0,0,1-.59-3,7.24,7.24,0,0,1,3.21-6.33c2.13-1.48,5.06-2.23,8.78-2.23h8.36v-1A6.38,6.38,0,0,0,461,22.21q-1.94-1.83-5.8-1.83a9.28,9.28,0,0,0-8.41,4.45l-3.47-2.2a15,15,0,0,1,4.89-4.14,14.74,14.74,0,0,1,7-1.54,15.71,15.71,0,0,1,5,.73,10.18,10.18,0,0,1,3.62,2.08A8.89,8.89,0,0,1,466.08,23a10.89,10.89,0,0,1,.75,4.11V43.9h-3.91V39.26a11.79,11.79,0,0,1-4.65,3.81A14.54,14.54,0,0,1,452,44.44,12.42,12.42,0,0,1,447.86,43.83Zm7.8-3.3a12.39,12.39,0,0,0,2.83-1.13,11.36,11.36,0,0,0,2.5-1.86A10.35,10.35,0,0,0,462.92,35V31.33h-8.17c-2.77,0-4.81.43-6.11,1.27a4.51,4.51,0,0,0-.52,7,6.72,6.72,0,0,0,4.58,1.3A11.69,11.69,0,0,0,455.66,40.53Z" transform="translate(-3.86 -5.36)" fill="#fcfcfc"/><path d="M471.24,52.61a8.65,8.65,0,0,1-2.84-1.71L471,47.62a6.69,6.69,0,0,0,1.66,1.32,4.37,4.37,0,0,0,2.16.49,6.44,6.44,0,0,0,1.83-.24,4.22,4.22,0,0,0,1.52-.88,7.29,7.29,0,0,0,1.34-1.72,26.35,26.35,0,0,0,1.37-2.69l.59-1.27L470.4,17.49h4.36l8.85,20.45L492,17.49h4.36l-12,27.59a32.44,32.44,0,0,1-1.93,3.76,10.47,10.47,0,0,1-2.08,2.55,7.22,7.22,0,0,1-2.47,1.42,9.84,9.84,0,0,1-3.05.44A10.08,10.08,0,0,1,471.24,52.61Z" transform="translate(-3.86 -5.36)" fill="#fcfcfc"/></svg>
