<svg xmlns="http://www.w3.org/2000/svg" viewBox="0 0 38.96 38"><path fill="#fff" d="M19.48 0a19.49 19.49 0 0 0-6.16 38c1 .18 1.33-.43 1.33-.94v-3.32c-5.44 1.15-6.59-2.64-6.59-2.64a5.14 5.14 0 0 0-2.16-2.85c-1.77-1.21.13-1.18.13-1.18a4.1 4.1 0 0 1 3 2 4.16 4.16 0 0 0 5.67 1.62 4.18 4.18 0 0 1 1.23-2.61c-4.32-.49-8.87-2.16-8.87-9.63a7.51 7.51 0 0 1 2-5.22 7 7 0 0 1 .19-5.16s1.63-.52 5.35 2a18.37 18.37 0 0 1 9.76 0c3.72-2.52 5.35-2 5.35-2a7 7 0 0 1 .19 5.16 7.51 7.51 0 0 1 2 5.22c0 7.49-4.56 9.13-8.9 9.62a4.64 4.64 0 0 1 1.32 3.6v5.35c0 .64.35 1.12 1.34.93A19.48 19.48 0 0 0 19.48 0z"/></svg>
