<svg id="Layer_1" data-name="Layer 1" xmlns="http://www.w3.org/2000/svg" viewBox="0 0 13.5 14"><path fill="#20123a" d="M10.71,12.71l4-4a1,1,0,0,0,.22-.33A1,1,0,0,0,15,8.13.94.94,0,0,0,15,8a.94.94,0,0,0,0-.13,1,1,0,0,0-.05-.25,1,1,0,0,0-.22-.33l-4-4A1,1,0,0,0,9.29,4.71L11.58,7H6A1,1,0,0,0,6,9h5.59L9.29,11.29a1,1,0,0,0,1.41,1.41Z" transform="translate(-1.5 -1)"/><path fill="#20123a" d="M8.5,14a1,1,0,0,0-1-1h-4V3h4a1,1,0,0,0,0-2H2.7A1.2,1.2,0,0,0,1.5,2.2V13.8A1.2,1.2,0,0,0,2.7,15H7.5A1,1,0,0,0,8.5,14Z" transform="translate(-1.5 -1)"/></svg>
