<svg width="28" height="28" viewBox="0 0 28 28" fill="none" xmlns="http://www.w3.org/2000/svg">
<path d="M12.666 7.33342H15.3327V10.0001H12.666V7.33342ZM12.666 12.6667H15.3327V20.6667H12.666V12.6667ZM13.9993 0.666748C6.63935 0.666748 0.666016 6.64008 0.666016 14.0001C0.666016 21.3601 6.63935 27.3334 13.9993 27.3334C21.3594 27.3334 27.3327 21.3601 27.3327 14.0001C27.3327 6.64008 21.3594 0.666748 13.9993 0.666748ZM13.9993 24.6667C8.11935 24.6667 3.33268 19.8801 3.33268 14.0001C3.33268 8.12008 8.11935 3.33341 13.9993 3.33341C19.8793 3.33341 24.666 8.12008 24.666 14.0001C24.666 19.8801 19.8793 24.6667 13.9993 24.6667Z" fill="#F470FF"/>
</svg>
