<svg width="16" height="15" viewBox="0 0 16 15" fill="none" xmlns="http://www.w3.org/2000/svg">
<path fill-rule="evenodd" clip-rule="evenodd" d="M2.423 0H13.577C14.9145 0.00165294 15.9983 1.0855 16 2.423V8.577C15.9983 9.9145 14.9145 10.9983 13.577 11H13V14C12.9999 14.4227 12.7341 14.7996 12.3361 14.9417C11.938 15.0837 11.4936 14.9601 11.226 14.633L8.26 11H2.423C1.0855 10.9983 0.00165294 9.9145 0 8.577V2.423C0.00165294 1.0855 1.0855 0.00165294 2.423 0ZM13.8761 8.87611C13.9554 8.79678 14 8.68919 14 8.577V2.423C14 2.18938 13.8106 2 13.577 2H2.423C2.18938 2 2 2.18938 2 2.423V8.577C2 8.68919 2.04457 8.79678 2.12389 8.87611C2.20322 8.95543 2.31081 9 2.423 9H8.734C9.03434 8.99975 9.31889 9.13449 9.509 9.367L11 11.194V10C11 9.44771 11.4477 9 12 9H13.577C13.6892 9 13.7968 8.95543 13.8761 8.87611ZM11.5 4H4.5C4.22386 4 4 4.22386 4 4.5C4 4.77614 4.22386 5 4.5 5H11.5C11.7761 5 12 4.77614 12 4.5C12 4.22386 11.7761 4 11.5 4ZM4.5 6H11.5C11.7761 6 12 6.22386 12 6.5C12 6.77614 11.7761 7 11.5 7H4.5C4.22386 7 4 6.77614 4 6.5C4 6.22386 4.22386 6 4.5 6Z" fill="#3D3D3D"/>
</svg>
