<svg xmlns="http://www.w3.org/2000/svg" viewBox="0 0 2000 571.9"><path d="M1910.2 410.5c-3.9 1.1-7.2 1.7-10.5 1.7-11.7 0-17.2-5-17.2-19.4V284.1c0-57.1-45.5-84.9-99.3-84.9-41.1 0-63.2 5-107.1 22.7l-9.8 57.6 57.1 6.1 8.1-28.2c11.7-6.1 23.3-7.2 38.3-7.2 40.5 0 41.1 30.5 41.1 56v8.3c-12.8-1.7-27.2-2.2-41.1-2.2-57.1 0-116.5 14.4-116.5 76 0 52.1 41 71.6 77.1 71.6 40.5 0 66-24.4 80.4-49.9 3.3 30.5 21.6 49.9 54.9 49.9 15.5 0 31.6-4.4 44.9-11.7l-.4-37.7zm-153.6-1.6c-21.6 0-29.4-12.8-29.4-28.9 0-27.2 22.2-34.4 47.7-34.4 11.6 0 24.4 1.7 36.1 3.3-1.7 41.7-28.9 60-54.4 60zm-96.1-336.2l-108.2 381.7h-70.5L1590 72.7h70.5zm-145.3 0L1407 454.4h-70.4l108.2-381.7h70.4zm-300.4 131.5h74.9V294h-74.9v-89.8zm0 160.3h74.9v89.9h-74.9v-89.9zm-109-3.3l56.6 5.5-15.5 87.7H928.3l-7.2-37.7 137.6-158.1h-78.2l-11.1 38.8-51.6-5.6 8.9-87.7h219.7l5.6 37.7L1013.2 400h81l11.6-38.8zm-358.5-162c-89.9 0-134.3 60.5-134.3 133.7 0 79.9 53.3 127 130.4 127 79.9 0 137.6-50.5 137.6-130.4 0-69.9-43.9-130.3-133.7-130.3zM745.6 405c-38.8 0-58.8-33.3-58.8-76.6 0-47.2 22.7-74.3 59.4-74.3 33.8 0 61 22.7 61 73.2 0 47.7-24.4 77.7-61.6 77.7zm-197-5h33.3v54.4H477V313.5c0-43.3-14.4-59.9-42.7-59.9-34.4 0-48.3 24.4-48.3 59.4v87h33.3v54.4H314.5V313.5c0-43.3-14.4-59.9-42.7-59.9-34.4 0-48.3 24.4-48.3 59.4v87h47.7v54.4H118.7V400H152V258.5h-33.3v-54.4h104.8v37.7c15-26.6 41.1-42.7 76-42.7 36.1 0 69.3 17.2 81.6 53.8 13.9-33.3 42.2-53.8 81.6-53.8 44.9 0 86 27.2 86 86.5V400h-.1z" fill="#fff"/></svg>