<svg width="18" height="18" viewBox="0 0 18 18" fill="none" xmlns="http://www.w3.org/2000/svg">
<path fill-rule="evenodd" clip-rule="evenodd" d="M3.8168 3.81705C5.19159 2.44226 7.05559 1.66894 8.99984 1.66676C10.2376 1.66487 11.4556 1.97678 12.5401 2.57332C13.6246 3.16987 14.5401 4.03159 15.2013 5.07797C15.8624 6.12435 16.2475 7.32124 16.3205 8.55682C16.3936 9.7924 16.1523 11.0263 15.6191 12.1433C15.5674 12.2521 15.4949 12.3496 15.4056 12.4303C15.3162 12.5111 15.2119 12.5734 15.0984 12.6138C14.985 12.6542 14.8648 12.6718 14.7445 12.6657C14.6243 12.6597 14.5064 12.6299 14.3976 12.5783C14.2889 12.5267 14.1913 12.4541 14.1106 12.3648C14.0299 12.2754 13.9676 12.1711 13.9272 12.0577C13.8868 11.9442 13.8691 11.824 13.8752 11.7037C13.8813 11.5835 13.911 11.4656 13.9627 11.3568C14.3188 10.6114 14.5023 9.79532 14.4998 8.9692C14.4972 8.14308 14.3086 7.32815 13.948 6.58492C13.5873 5.84169 13.0638 5.18926 12.4164 4.67607C11.769 4.16289 11.0143 3.80213 10.2084 3.6206C9.40248 3.43906 8.56601 3.44141 7.76112 3.62747C6.95622 3.81353 6.20357 4.17852 5.55907 4.69533C4.91457 5.21214 4.39478 5.86751 4.03828 6.61275C3.68178 7.35799 3.49775 8.17397 3.49984 9.00009C3.49857 9.81526 3.68026 10.6203 4.03151 11.3559C4.09375 11.4654 4.13279 11.5864 4.14619 11.7116C4.15959 11.8368 4.14705 11.9634 4.10938 12.0835C4.0717 12.2036 4.00968 12.3147 3.92719 12.4098C3.84469 12.5049 3.7435 12.582 3.6299 12.6363C3.51631 12.6905 3.39275 12.7208 3.26694 12.7253C3.14112 12.7297 3.01574 12.7081 2.89862 12.662C2.78149 12.6158 2.67513 12.546 2.58616 12.457C2.49719 12.3679 2.42753 12.2614 2.38151 12.1443C1.91041 11.1631 1.66605 10.0885 1.6665 9.00009C1.66869 7.05584 2.44201 5.19185 3.8168 3.81705ZM12.1095 7.17745C12.2281 7.15115 12.3523 7.17301 12.4548 7.23823C12.5567 7.30398 12.6285 7.40749 12.6542 7.52606C12.68 7.64462 12.6577 7.76857 12.5923 7.87073L10.3345 11.4191C10.6242 11.7177 10.8009 12.1078 10.8344 12.5224C10.8678 12.9371 10.7559 13.3504 10.5178 13.6916C10.386 13.8867 10.2179 14.0547 10.0228 14.1866C9.76509 14.3609 9.46721 14.4667 9.15725 14.4941C8.84729 14.5216 8.53545 14.4696 8.25111 14.3432C7.96676 14.2168 7.71927 14.0202 7.53192 13.7717C7.34458 13.5233 7.22356 13.2312 7.18026 12.9231C7.13696 12.6149 7.1728 12.3008 7.28441 12.0104C7.39601 11.7199 7.57972 11.4626 7.81821 11.2628C8.05671 11.0629 8.34216 10.927 8.64766 10.868C8.95317 10.8089 9.26869 10.8285 9.56451 10.9251L11.8223 7.37848C11.8876 7.27605 11.9909 7.20375 12.1095 7.17745Z" fill="#5953F3"/>
</svg>
