<svg data-name="Layer 1" xmlns="http://www.w3.org/2000/svg" viewBox="0 0 77.2 79.73"><defs><linearGradient id="a" x1="460.66" y1="-120.15" x2="449.39" y2="-109.49" gradientTransform="matrix(1 0 0 -1 -389 -47.01)" gradientUnits="userSpaceOnUse"><stop offset="0" stop-color="#054096" stop-opacity=".5"/><stop offset=".1" stop-color="#173ba1" stop-opacity=".44"/><stop offset=".29" stop-color="#3434b3" stop-opacity=".33"/><stop offset=".49" stop-color="#482ec1" stop-opacity=".22"/><stop offset=".68" stop-color="#552bc8" stop-opacity=".11"/><stop offset=".86" stop-color="#592acb" stop-opacity="0"/></linearGradient><linearGradient id="b" x1="3.39" y1="42.56" x2="73.6" y2="42.56" gradientTransform="matrix(1 0 0 -1 0 82.99)" gradientUnits="userSpaceOnUse"><stop offset="0" stop-color="#9059ff"/><stop offset="1" stop-color="#f770ff"/></linearGradient><linearGradient id="c" x1="40.92" y1="20.28" x2="81.59" y2="3.07" gradientTransform="matrix(1 0 0 -1 0 82.99)" gradientUnits="userSpaceOnUse"><stop offset="0" stop-color="#54ffbd"/><stop offset="1" stop-color="#0df"/></linearGradient></defs><path d="M69.1 51.32H36.61a1.69 1.69 0 00-1.7 1.7v5.2A13.87 13.87 0 0048.8 72.13h18a10.39 10.39 0 0010.4-10.4v-4.6c-.1-2.61-2.7-5.81-8.1-5.81z" fill="#008787"/><path d="M72.49 53.19H40a1.69 1.69 0 00-1.7 1.7v5.2A13.87 13.87 0 0052.19 74h18a10.39 10.39 0 0010.4-10.4V59c-.1-2.61-2.7-5.81-8.1-5.81z" transform="translate(-3.39 -1.87)" fill="url(#a)" opacity=".9"/><path d="M70.19 18.69l-28.4-16a6.81 6.81 0 00-6.5 0l-28.5 16a6.68 6.68 0 00-3.4 5.8v31.9a6.56 6.56 0 003.4 5.8l28.4 15.9a6.29 6.29 0 003.3.9 6.56 6.56 0 003.3-.9l28.4-15.9a6.68 6.68 0 003.4-5.8v-31.9a6.38 6.38 0 00-3.4-5.8z" transform="translate(-3.39 -1.87)" fill="url(#b)"/><path d="M15.3 46.92l-1.7 1a2.62 2.62 0 00-1 3.6 2.65 2.65 0 002.3 1.4 3.08 3.08 0 001.3-.3l1.7-1a2.62 2.62 0 001-3.6 2.57 2.57 0 00-3.6-1.1zm10.4-5.9l-3.5 2a2.62 2.62 0 00-1 3.6 2.65 2.65 0 002.3 1.4 3.08 3.08 0 001.3-.3l3.5-2a2.62 2.62 0 001-3.6 2.57 2.57 0 00-3.6-1.1zm14.1-4.89a2.36 2.36 0 00-1.4-1.2V14.82a2.69 2.69 0 00-2.7-2.7 2.61 2.61 0 00-2.6 2.7v20.2a2.36 2.36 0 00-1.4 1.2 2.66 2.66 0 00-.1 2.3 2.66 2.66 0 00.1 2.3 2.36 2.36 0 001.4 1.2v20.2a2.7 2.7 0 005.4 0v-20.3a2.36 2.36 0 001.4-1.2 2.66 2.66 0 00.1-2.3 3.08 3.08 0 00-.2-2.29zm6.81-6.91l-3.5 2a2.62 2.62 0 00-1 3.6 2.65 2.65 0 002.3 1.4 3.08 3.08 0 001.3-.3l3.5-2a2.62 2.62 0 001-3.6 2.57 2.57 0 00-3.6-1.1zm8.29 1a3.08 3.08 0 001.3-.3l1.7-1a2.642 2.642 0 10-2.6-4.6l-1.7 1a2.62 2.62 0 00-1 3.6 2.56 2.56 0 002.3 1.3zm3 17.7l-1.7-1a2.642 2.642 0 00-2.6 4.6l1.7 1a3.08 3.08 0 001.3.3 2.65 2.65 0 002.3-1.4 2.47 2.47 0 00-1-3.5zm-8.7-4.9l-3.5-2a2.642 2.642 0 10-2.6 4.6l3.5 2a3.08 3.08 0 001.3.3 2.65 2.65 0 002.3-1.4 2.45 2.45 0 00-1-3.5zm-27-9.2l3.5 2a3.08 3.08 0 001.3.3 2.65 2.65 0 002.3-1.4 2.62 2.62 0 00-1-3.6l-3.5-2a2.62 2.62 0 00-3.6 1 2.8 2.8 0 001 3.7zm-4.3-8.5l-1.7-1a2.642 2.642 0 10-2.6 4.6l1.7 1a3.08 3.08 0 001.3.3 2.65 2.65 0 002.3-1.4 2.53 2.53 0 00-1-3.5z" fill="#20133a"/><path d="M78.79 60.79h-29.9a12.76 12.76 0 00-12.8 12.8v6.3a1.69 1.69 0 001.7 1.7h29.9a12.76 12.76 0 0012.8-12.8v-9.7a1.69 1.69 0 01-1.7 1.7z" transform="translate(-3.39 -1.87)" fill="url(#c)"/><path d="M46 69.22a2.06 2.06 0 001-1.7c0-1.5-1.1-2.4-3-2.4h-3.6v8.6h3.7c1.9 0 3.1-.8 3.1-2.5a1.92 1.92 0 00-1.2-2zm-3.9-2.7h2c.9 0 1.3.4 1.3 1s-.4 1-1.3 1h-2zm2 5.6h-2v-2.1H44c1.1 0 1.5.4 1.5 1.1s-.5 1.01-1.4 1.01zm4.7 1.51h5.8v-1.6h-4.2v-1.9h4.2v-1.6h-4.2v-1.9h4.2v-1.6h-5.8v8.6zm13.6-8.6H56v1.5h2.4v7.1H60v-7.1h2.4v-1.5zm4.5-.01h-1.6l-3.3 8.6h1.7l.6-1.6h3.6l.6 1.6h1.7zm-2.1 5.6l1.3-3.4 1.2 3.4z" fill="#20123a"/></svg>