<svg id="e29513c1-7f7a-4842-90dc-730c6061bfbb" data-name="Layer 1" xmlns="http://www.w3.org/2000/svg" xmlns:xlink="http://www.w3.org/1999/xlink" viewBox="0 0 164.78 128.1"><defs><linearGradient id="e0db69ba-6520-45b1-b4c0-d4fce9a79030" x1="-6.85" y1="82.67" x2="108.54" y2="-8.68" gradientUnits="userSpaceOnUse"><stop offset="0.05" stop-color="#3a8ee6"/><stop offset="0.24" stop-color="#5c79f0"/><stop offset="0.63" stop-color="#9059ff"/><stop offset="1" stop-color="#c139e6"/></linearGradient><linearGradient id="edd4f5d4-761b-474c-a04c-516ea2cf5cea" x1="2.15" y1="57.03" x2="131.26" y2="57.03" gradientUnits="userSpaceOnUse"><stop offset="0.14" stop-color="#6a2bea" stop-opacity="0"/><stop offset="0.34" stop-color="#642de4" stop-opacity="0.03"/><stop offset="0.55" stop-color="#5131d3" stop-opacity="0.12"/><stop offset="0.76" stop-color="#3139b7" stop-opacity="0.1"/><stop offset="0.92" stop-color="#0c4296" stop-opacity="0.4"/><stop offset="0.98" stop-color="#054490" stop-opacity="0.48"/><stop offset="1" stop-color="#00458b" stop-opacity="0.2"/></linearGradient><linearGradient id="e41f5666-12f9-4749-8658-1409eb22e7de" x1="127.7" y1="10.94" x2="8.11" y2="122.24" gradientUnits="userSpaceOnUse"><stop offset="0.05" stop-color="#2e7fe2"/><stop offset="0.24" stop-color="#4f72ff"/><stop offset="0.63" stop-color="#604aff"/><stop offset="1" stop-color="#8639e6"/></linearGradient><linearGradient id="a4be2107-6c18-458d-a064-96b95c80d583" x1="-1.73" y1="18.7" x2="22.04" y2="114.51" gradientUnits="userSpaceOnUse"><stop offset="0.14" stop-color="#6a2bea" stop-opacity="0"/><stop offset="0.34" stop-color="#642de4" stop-opacity="0.03"/><stop offset="0.55" stop-color="#5131d3" stop-opacity="0.12"/><stop offset="0.76" stop-color="#3139b7" stop-opacity="0.27"/><stop offset="0.92" stop-color="#3630c1" stop-opacity="0.48"/><stop offset="1" stop-color="#1830e7" stop-opacity="0.5"/></linearGradient><radialGradient id="f6aa3fe3-f2aa-49e7-ab3b-940d902145aa" cx="189.75" cy="124.54" fx="174.55081740693504" r="110.37" gradientUnits="userSpaceOnUse"><stop offset="0" stop-color="#fff44f"/><stop offset="0.35" stop-color="#ff980e"/><stop offset="0.8" stop-color="#ff3647"/><stop offset="1" stop-color="#e31587"/></radialGradient><linearGradient id="e8250e15-9a65-4baa-bdff-ef6cf74a613d" x1="31.79" y1="124.33" x2="147.18" y2="32.98" xlink:href="#e0db69ba-6520-45b1-b4c0-d4fce9a79030"/><linearGradient id="adfb76fb-bc8f-438c-b099-2ec912b9a77f" x1="39.42" y1="120" x2="39.42" y2="120" gradientUnits="userSpaceOnUse"><stop offset="0" stop-color="#3a8ee6"/><stop offset="0.24" stop-color="#5c79f0"/><stop offset="0.63" stop-color="#9059ff"/><stop offset="1" stop-color="#c139e6"/></linearGradient><linearGradient id="e2c142a2-90d4-4fc7-8427-2f3eae3aad0b" x1="48.43" y1="142.34" x2="148.65" y2="104.79" gradientUnits="userSpaceOnUse"><stop offset="0.14" stop-color="#6a2bea" stop-opacity="0"/><stop offset="0.34" stop-color="#642de4" stop-opacity="0.03"/><stop offset="0.55" stop-color="#5131d3" stop-opacity="0.12"/><stop offset="0.76" stop-color="#3139b7" stop-opacity="0.27"/><stop offset="0.98" stop-color="#054490" stop-opacity="0.48"/><stop offset="1" stop-color="#00458b" stop-opacity="0.5"/></linearGradient><linearGradient id="ae7a0dab-bfb2-4029-b555-8197230fe5c7" x1="96.67" y1="37.42" x2="100.99" y2="81.73" xlink:href="#e2c142a2-90d4-4fc7-8427-2f3eae3aad0b"/><linearGradient id="b4c57521-7891-4c60-b01c-121903985756" x1="89.49" y1="64.74" x2="89.49" y2="64.74" xlink:href="#e0db69ba-6520-45b1-b4c0-d4fce9a79030"/><linearGradient id="f765bde3-077a-4430-b01f-7a4cf227dd18" x1="98" y1="60.63" x2="168.8" y2="30.67" gradientTransform="matrix(1, 0, 0, -1, 0, 137.71)" gradientUnits="userSpaceOnUse"><stop offset="0" stop-color="#54ffbd"/><stop offset="0.23" stop-color="#1adae2"/><stop offset="1" stop-color="#09f"/></linearGradient></defs><title>placeholder-logo-beta</title><path d="M26.16,110A23.54,23.54,0,0,1,2.65,86.5V27.56A23.54,23.54,0,0,1,26.16,4h81.09a23.54,23.54,0,0,1,23.51,23.52v5.13h-11V27.56A12.56,12.56,0,0,0,107.25,15H26.16A12.56,12.56,0,0,0,13.62,27.56V86.5A12.56,12.56,0,0,0,26.16,99Z" transform="translate(-2.15 -3.54)" stroke-miterlimit="10" opacity="0.14" fill="url(#e0db69ba-6520-45b1-b4c0-d4fce9a79030)" stroke="url(#edd4f5d4-761b-474c-a04c-516ea2cf5cea)"/><path d="M130,36.69H49A12.56,12.56,0,0,0,36.4,49.24L89.49,84.36l53.08-35.12A12.56,12.56,0,0,0,130,36.69Z" transform="translate(-2.15 -3.54)" fill-opacity="0.15" fill="url(#e41f5666-12f9-4749-8658-1409eb22e7de)"/><path d="M13.62,27.56V86.5A12.56,12.56,0,0,0,26.16,99v11A23.54,23.54,0,0,1,2.65,86.5V27.56" transform="translate(-2.15 -3.54)" fill="url(#a4be2107-6c18-458d-a064-96b95c80d583)" style="isolation:isolate"/><path d="M153,60.52H96.29a3,3,0,0,0-3,3v9.06a24.18,24.18,0,0,0,24.18,24.18H148.8a18.13,18.13,0,0,0,18.13-18.13V70.72c0-4.53-4.53-10.2-14-10.2Z" transform="translate(-2.15 -3.54)" fill="url(#f6aa3fe3-f2aa-49e7-ab3b-940d902145aa)"/><path d="M130,131.64H49a23.54,23.54,0,0,1-23.52-23.51V49.19A23.52,23.52,0,0,1,49,25.67H130a23.54,23.54,0,0,1,23.51,23.52v58.94A23.53,23.53,0,0,1,130,131.64ZM49,36.64A12.56,12.56,0,0,0,36.4,49.19v58.94A12.56,12.56,0,0,0,49,120.67H130a12.55,12.55,0,0,0,12.54-12.54V49.19A12.56,12.56,0,0,0,130,36.64Z" transform="translate(-2.15 -3.54)" fill="url(#e8250e15-9a65-4baa-bdff-ef6cf74a613d)"/><path d="M39.42,120" transform="translate(-2.15 -3.54)" fill="none" stroke-linecap="round" stroke-linejoin="round" stroke-width="29" stroke="url(#adfb76fb-bc8f-438c-b099-2ec912b9a77f)"/><path d="M153.54,108.13A23.53,23.53,0,0,1,130,131.64H49v-11H130a12.55,12.55,0,0,0,12.54-12.54" transform="translate(-2.15 -3.54)" opacity="0.9" fill="url(#e2c142a2-90d4-4fc7-8427-2f3eae3aad0b)" style="isolation:isolate"/><path d="M153.54,108.13V49.19A23.54,23.54,0,0,0,130,25.67v11a12.56,12.56,0,0,1,12.54,12.55v58.94M49,120.67" transform="translate(-2.15 -3.54)" opacity="0.9" fill="url(#ae7a0dab-bfb2-4029-b555-8197230fe5c7)" style="isolation:isolate"/><path d="M89.49,64.74" transform="translate(-2.15 -3.54)" fill="url(#b4c57521-7891-4c60-b01c-121903985756)"/><path d="M163.91,73.75h-52.1A22.32,22.32,0,0,0,89.49,96.07h0V107a3,3,0,0,0,3,3H144.6a22.32,22.32,0,0,0,22.33-22.32v-17a3,3,0,0,1-3,3Z" transform="translate(-2.15 -3.54)" fill="url(#f765bde3-077a-4430-b01f-7a4cf227dd18)"/><path d="M112.8,91.35a3.32,3.32,0,0,0,1.72-3c0-2.69-1.87-4.19-5.19-4.19h-6.21v15h6.25c3.32,0,5.38-1.48,5.38-4.44a3.5,3.5,0,0,0-2-3.33ZM106,86.69h3.41c1.52,0,2.24.63,2.24,1.68s-.66,1.79-2.2,1.79H106Zm3.43,9.82H106V92.77h3.3c1.83,0,2.53.68,2.53,1.85s-.82,1.89-2.4,1.89Zm8.11,2.61h10.09V96.37h-7.19V93h7.19V90.22h-7.19V86.85h7.19V84.12H117.52Zm23.74-15H130.1v2.67h4.17V99.12h2.85V86.79h4.14Zm7.76,0h-2.85l-5.68,15h3l1-2.73h6.27l1,2.73h3Zm-3.59,9.64,2.17-6,2.16,6Z" transform="translate(-2.15 -3.54)" fill="#282936"/></svg>