<svg id="ac9cf9b5-1085-4e9a-96e6-020ea2b619ea" data-name="Layer 1" xmlns="http://www.w3.org/2000/svg" xmlns:xlink="http://www.w3.org/1999/xlink" viewBox="0 0 77.2 79.73"><defs><linearGradient id="a66997ef-fb0e-4e6f-876d-4de5b6eae4e0" x1="460.66" y1="-120.15" x2="449.39" y2="-109.49" gradientTransform="matrix(1, 0, 0, -1, -389, -47.01)" gradientUnits="userSpaceOnUse"><stop offset="0" stop-color="#054096" stop-opacity="0.5"/><stop offset="0.1" stop-color="#173ba1" stop-opacity="0.44"/><stop offset="0.29" stop-color="#3434b3" stop-opacity="0.33"/><stop offset="0.49" stop-color="#482ec1" stop-opacity="0.22"/><stop offset="0.68" stop-color="#552bc8" stop-opacity="0.11"/><stop offset="0.86" stop-color="#592acb" stop-opacity="0"/></linearGradient><linearGradient id="b48d86ae-7395-4ce7-aee4-e164686c0a64" x1="3.39" y1="42.56" x2="73.6" y2="42.56" gradientTransform="matrix(1, 0, 0, -1, 0, 82.99)" gradientUnits="userSpaceOnUse"><stop offset="0" stop-color="#9059ff"/><stop offset="1" stop-color="#f770ff"/></linearGradient><linearGradient id="e8162fac-7737-4f4e-98cd-a6a4256d8940" x1="40.92" y1="20.28" x2="81.59" y2="3.07" gradientTransform="matrix(1, 0, 0, -1, 0, 82.99)" gradientUnits="userSpaceOnUse"><stop offset="0" stop-color="#54ffbd"/><stop offset="1" stop-color="#0df"/></linearGradient></defs><title>placeholder-logo-beta</title><path d="M72.49,53.19H40a1.69,1.69,0,0,0-1.7,1.7v5.2A13.87,13.87,0,0,0,52.19,74h18a10.39,10.39,0,0,0,10.4-10.4V59C80.49,56.39,77.89,53.19,72.49,53.19Z" transform="translate(-3.39 -1.87)" fill="#008787"/><g opacity="0.9"><path d="M72.49,53.19H40a1.69,1.69,0,0,0-1.7,1.7v5.2A13.87,13.87,0,0,0,52.19,74h18a10.39,10.39,0,0,0,10.4-10.4V59C80.49,56.39,77.89,53.19,72.49,53.19Z" transform="translate(-3.39 -1.87)" fill="url(#a66997ef-fb0e-4e6f-876d-4de5b6eae4e0)"/></g><path d="M70.19,18.69l-28.4-16a6.81,6.81,0,0,0-6.5,0l-28.5,16a6.68,6.68,0,0,0-3.4,5.8v31.9a6.56,6.56,0,0,0,3.4,5.8l28.4,15.9a6.29,6.29,0,0,0,3.3.9,6.56,6.56,0,0,0,3.3-.9l28.4-15.9a6.68,6.68,0,0,0,3.4-5.8V24.49A6.38,6.38,0,0,0,70.19,18.69Z" transform="translate(-3.39 -1.87)" fill="url(#b48d86ae-7395-4ce7-aee4-e164686c0a64)"/><path d="M18.69,48.79l-1.7,1a2.62,2.62,0,0,0-1,3.6,2.65,2.65,0,0,0,2.3,1.4,3.08,3.08,0,0,0,1.3-.3l1.7-1a2.62,2.62,0,0,0,1-3.6A2.57,2.57,0,0,0,18.69,48.79Z" transform="translate(-3.39 -1.87)" fill="#20133a"/><path d="M29.09,42.89l-3.5,2a2.62,2.62,0,0,0-1,3.6,2.65,2.65,0,0,0,2.3,1.4,3.08,3.08,0,0,0,1.3-.3l3.5-2a2.62,2.62,0,0,0,1-3.6A2.57,2.57,0,0,0,29.09,42.89Z" transform="translate(-3.39 -1.87)" fill="#20133a"/><path d="M43.19,38a2.36,2.36,0,0,0-1.4-1.2V16.69a2.69,2.69,0,0,0-2.7-2.7,2.61,2.61,0,0,0-2.6,2.7v20.2a2.36,2.36,0,0,0-1.4,1.2,2.66,2.66,0,0,0-.1,2.3,2.66,2.66,0,0,0,.1,2.3,2.36,2.36,0,0,0,1.4,1.2v20.2a2.7,2.7,0,0,0,5.4,0V43.79a2.36,2.36,0,0,0,1.4-1.2,2.66,2.66,0,0,0,.1-2.3A3.08,3.08,0,0,0,43.19,38Z" transform="translate(-3.39 -1.87)" fill="#20133a"/><path d="M50,31.09l-3.5,2a2.62,2.62,0,0,0-1,3.6,2.65,2.65,0,0,0,2.3,1.4,3.08,3.08,0,0,0,1.3-.3l3.5-2a2.62,2.62,0,0,0,1-3.6A2.57,2.57,0,0,0,50,31.09Z" transform="translate(-3.39 -1.87)" fill="#20133a"/><path d="M58.29,32.09a3.08,3.08,0,0,0,1.3-.3l1.7-1a2.64,2.64,0,1,0-2.6-4.6l-1.7,1a2.62,2.62,0,0,0-1,3.6A2.56,2.56,0,0,0,58.29,32.09Z" transform="translate(-3.39 -1.87)" fill="#20133a"/><path d="M61.29,49.79l-1.7-1a2.64,2.64,0,0,0-2.6,4.6l1.7,1a3.08,3.08,0,0,0,1.3.3,2.65,2.65,0,0,0,2.3-1.4A2.47,2.47,0,0,0,61.29,49.79Z" transform="translate(-3.39 -1.87)" fill="#20133a"/><path d="M52.59,44.89l-3.5-2a2.64,2.64,0,1,0-2.6,4.6l3.5,2a3.08,3.08,0,0,0,1.3.3,2.65,2.65,0,0,0,2.3-1.4A2.45,2.45,0,0,0,52.59,44.89Z" transform="translate(-3.39 -1.87)" fill="#20133a"/><path d="M25.59,35.69l3.5,2a3.08,3.08,0,0,0,1.3.3,2.65,2.65,0,0,0,2.3-1.4,2.62,2.62,0,0,0-1-3.6l-3.5-2a2.62,2.62,0,0,0-3.6,1A2.8,2.8,0,0,0,25.59,35.69Z" transform="translate(-3.39 -1.87)" fill="#20133a"/><path d="M21.29,27.19l-1.7-1a2.64,2.64,0,1,0-2.6,4.6l1.7,1a3.08,3.08,0,0,0,1.3.3,2.65,2.65,0,0,0,2.3-1.4A2.53,2.53,0,0,0,21.29,27.19Z" transform="translate(-3.39 -1.87)" fill="#20133a"/><path d="M78.79,60.79H48.89a12.76,12.76,0,0,0-12.8,12.8v6.3a1.69,1.69,0,0,0,1.7,1.7h29.9a12.76,12.76,0,0,0,12.8-12.8v-9.7A1.69,1.69,0,0,1,78.79,60.79Z" transform="translate(-3.39 -1.87)" fill="url(#e8162fac-7737-4f4e-98cd-a6a4256d8940)"/><path d="M49.39,71.09a2.06,2.06,0,0,0,1-1.7c0-1.5-1.1-2.4-3-2.4h-3.6v8.6h3.7c1.9,0,3.1-.8,3.1-2.5A1.92,1.92,0,0,0,49.39,71.09Zm-3.9-2.7h2c.9,0,1.3.4,1.3,1s-.4,1-1.3,1h-2Zm2,5.6h-2v-2.1h1.9c1.1,0,1.5.4,1.5,1.1S48.39,74,47.49,74Z" transform="translate(-3.39 -1.87)" fill="#20123a"/><polygon points="48.8 73.63 54.6 73.63 54.6 72.03 50.4 72.03 50.4 70.13 54.6 70.13 54.6 68.53 50.4 68.53 50.4 66.63 54.6 66.63 54.6 65.03 48.8 65.03 48.8 73.63" fill="#20123a"/><polygon points="62.4 65.03 56 65.03 56 66.53 58.4 66.53 58.4 73.63 60 73.63 60 66.53 62.4 66.53 62.4 65.03" fill="#20123a"/><path d="M70.29,66.89h-1.6l-3.3,8.6h1.7l.6-1.6h3.6l.6,1.6h1.7Zm-2.1,5.6,1.3-3.4,1.2,3.4Z" transform="translate(-3.39 -1.87)" fill="#20123a"/></svg>