<svg width="74" height="58" viewBox="0 0 74 58" fill="none" xmlns="http://www.w3.org/2000/svg">
<path d="M24.0723 23.9237C13.6112 17.861 3.66533 21.3976 0 23.9237C3.17001 15.9491 15.008 0 37 0C58.992 0 70.83 15.9491 74 23.9237C63.7767 17.861 53.3949 21.3976 49.4819 23.9237C38.902 17.9799 28.1339 21.4471 24.0723 23.9237Z" fill="#EF6FFF"/>
<path d="M49.4819 23.9238C38.6345 18.1286 30.3132 21.3977 24.0723 23.9238C24.0723 9.50993 32.6412 2.01839 36.8514 6.10352e-05C46.0048 4.60776 49.0857 17.8195 49.4819 23.9238Z" fill="#9A5BFF"/>
<rect x="35.96" y="21.1005" width="1.18876" height="21.992" fill="#CCCCCC"/>
<rect x="35.3652" y="43.3896" width="2.37751" height="7.42972" fill="#EF6FFF"/>
<path fill-rule="evenodd" clip-rule="evenodd" d="M35.3652 50.8193C35.3652 54.2661 38.1594 57.0603 41.6062 57.0603C45.053 57.0603 47.8472 54.2661 47.8472 50.8193L45.4696 50.8193C45.4696 52.9531 43.7399 54.6828 41.6062 54.6828C39.4725 54.6828 37.7427 52.9531 37.7427 50.8193C37.7427 50.8193 37.7427 50.8193 37.7427 50.8193H35.3652Z" fill="#EF6FFF"/>
</svg>
