<svg width="36" height="61" viewBox="0 0 36 61" fill="none" xmlns="http://www.w3.org/2000/svg">
<circle opacity="0.4" cx="18" cy="36" r="18" fill="#ECECEC"/>
<rect x="17.5547" y="42.7174" width="1.26087" height="3.46739" fill="#C4C4C4"/>
<rect x="16.9238" y="46.5" width="2.52174" height="7.88043" fill="#EF6FFF"/>
<path fill-rule="evenodd" clip-rule="evenodd" d="M16.9238 54.3804C16.9239 58.0363 19.8875 60.9999 23.5434 60.9999C27.1992 60.9999 30.1629 58.0363 30.163 54.3804H27.6412C27.6412 56.6436 25.8065 58.4782 23.5434 58.4782C21.2803 58.4782 19.4456 56.6436 19.4456 54.3804H16.9238Z" fill="#EF6FFF"/>
<path d="M30.4919 42.4022L33 39.6073L18.4216 0.47828L4.00001 39.6073L6.50811 42.4022L9.32973 39.6073L12.6216 42.4022L15.4432 39.6073L18.4216 42.4022L21.5568 39.6073L24.3784 42.4022L27.6703 39.6073L30.4919 42.4022Z" fill="#EF6FFF"/>
<path d="M24.3879 42.4022L27.6416 39.4713L18.5003 0.47828L21.599 39.4713L24.3879 42.4022Z" fill="#9A5BFF"/>
<path d="M12.6121 42.4022L9.3584 39.4713L18.4997 0.478278L15.401 39.4713L12.6121 42.4022Z" fill="#9A5BFF"/>
</svg>
