<svg width="45" height="60" viewBox="0 0 45 60" fill="none" xmlns="http://www.w3.org/2000/svg">
<circle opacity="0.4" cx="18" cy="32" r="18" fill="#ECECEC"/>
<rect x="13.3232" y="38.1536" width="1.22917" height="3.38021" transform="rotate(30 13.3232 38.1536)" fill="#9A5BFF"/>
<rect x="10.9473" y="41.0398" width="2.45833" height="7.68229" transform="rotate(30 10.9473 41.0398)" fill="#EF6FFF"/>
<path fill-rule="evenodd" clip-rule="evenodd" d="M7.10645 47.6929C5.32446 50.7793 6.38197 54.726 9.46845 56.508C12.5549 58.29 16.5016 57.2325 18.2836 54.146L16.1546 52.9168C15.0515 54.8275 12.6083 55.4821 10.6976 54.379C8.78694 53.2759 8.1323 50.8327 9.23543 48.922L7.10645 47.6929Z" fill="#EF6FFF"/>
<path d="M9.48503 35.5828L15.0784 31.3459L19.2746 33.7686L18.5332 40.8068L16.8011 38.9615L13.9435 38.1569L12.2114 36.3117L9.48503 35.5828Z" fill="#EF6FFF"/>
<path d="M20.7386 31.2329L16.5424 28.8102L34.3784 2.76266L20.7386 31.2329Z" fill="#EF6FFF"/>
<rect x="15.2715" y="28.6335" width="7.375" height="1.84375" transform="rotate(30 15.2715 28.6335)" fill="#9A5BFF"/>
</svg>
