<svg width="74" height="58" viewBox="0 0 74 58" fill="none" xmlns="http://www.w3.org/2000/svg">
<circle opacity="0.4" cx="37" cy="32" r="18" fill="#ECECEC"/>
<path d="M24.0723 24.8634C13.6112 18.8007 3.66533 22.3373 0 24.8634C3.17001 16.8888 15.008 0.939697 37 0.939697C58.992 0.939697 70.83 16.8888 74 24.8634C63.7767 18.8007 53.3949 22.3373 49.4819 24.8634C38.902 18.9196 28.1339 22.3868 24.0723 24.8634Z" fill="#40D27B"/>
<path d="M49.4819 24.8635C38.6345 19.0683 30.3132 22.3374 24.0723 24.8635C24.0723 10.4497 32.6412 2.95815 36.8514 0.939819C46.0048 5.54752 49.0857 18.7593 49.4819 24.8635Z" fill="#49EF8C"/>
<rect x="35.96" y="22.0402" width="1.18876" height="21.992" fill="#CCCCCC"/>
<rect x="35.3652" y="44.3293" width="2.37751" height="7.42972" fill="#40D27B"/>
<path fill-rule="evenodd" clip-rule="evenodd" d="M35.3652 51.759C35.3652 55.2058 38.1594 58 41.6062 58C45.053 58 47.8472 55.2058 47.8472 51.759L45.4696 51.759C45.4696 53.8928 43.7399 55.6225 41.6062 55.6225C39.4725 55.6225 37.7427 53.8928 37.7427 51.759C37.7427 51.759 37.7427 51.759 37.7427 51.759H35.3652Z" fill="#40D27B"/>
</svg>
