<svg width="36" height="61" viewBox="0 0 36 61" fill="none" xmlns="http://www.w3.org/2000/svg">
<circle opacity="0.4" cx="18" cy="36" r="18" fill="#ECECEC"/>
<rect x="17.5542" y="42.7174" width="1.26087" height="3.46739" fill="#C4C4C4"/>
<rect x="16.9238" y="46.5" width="2.52174" height="7.88043" fill="#40D27B"/>
<path fill-rule="evenodd" clip-rule="evenodd" d="M16.9238 54.3805C16.9239 58.0363 19.8875 60.9999 23.5434 60.9999C27.1992 60.9999 30.1629 58.0363 30.163 54.3805H27.6412C27.6412 56.6436 25.8065 58.4782 23.5434 58.4782C21.2803 58.4782 19.4456 56.6436 19.4456 54.3805H16.9238Z" fill="#40D27B"/>
<path d="M30.4919 42.4022L33 39.6073L18.4216 0.478311L4.00001 39.6073L6.50811 42.4022L9.32973 39.6073L12.6216 42.4022L15.4432 39.6073L18.4216 42.4022L21.5568 39.6073L24.3784 42.4022L27.6703 39.6073L30.4919 42.4022Z" fill="#40D27B"/>
<path d="M24.3874 42.4022L27.6411 39.4714L18.4998 0.47831L21.5986 39.4714L24.3874 42.4022Z" fill="#49EF8C"/>
<path d="M12.6126 42.4022L9.35889 39.4714L18.5002 0.478309L15.4014 39.4714L12.6126 42.4022Z" fill="#49EF8C"/>
</svg>
