<svg width="45" height="60" viewBox="0 0 45 60" fill="none" xmlns="http://www.w3.org/2000/svg">
<circle opacity="0.4" cx="18" cy="32" r="18" fill="#ECECEC"/>
<rect x="13.3232" y="38.1536" width="1.22917" height="3.38021" transform="rotate(30 13.3232 38.1536)" fill="#C4C4C4"/>
<rect x="10.9473" y="41.0398" width="2.45833" height="7.68229" transform="rotate(30 10.9473 41.0398)" fill="#40D27B"/>
<path fill-rule="evenodd" clip-rule="evenodd" d="M7.10645 47.6927C5.32446 50.7792 6.38197 54.7259 9.46845 56.5079C12.5549 58.2899 16.5016 57.2324 18.2836 54.1459L16.1546 52.9167C15.0515 54.8274 12.6083 55.482 10.6976 54.3789C8.78694 53.2758 8.1323 50.8326 9.23543 48.9219L7.10645 47.6927Z" fill="#40D27B"/>
<path d="M9.48503 35.5828L15.0784 31.3458L19.2746 33.7685L18.5332 40.8067L16.8011 38.9614L13.9435 38.1569L12.2114 36.3116L9.48503 35.5828Z" fill="#40D27B"/>
<path d="M20.7386 31.2328L16.5424 28.8101L34.3784 2.7626L20.7386 31.2328Z" fill="#40D27B"/>
<rect x="15.2715" y="28.6334" width="7.375" height="1.84375" transform="rotate(30 15.2715 28.6334)" fill="#C4C4C4"/>
</svg>
