<svg width="200" height="180" viewBox="0 0 200 180" fill="none" xmlns="http://www.w3.org/2000/svg">
<g clip-path="url(#clip0_7:1314)">
<path d="M125.837 72.4946H74.1262V105.073H125.837V72.4946Z" fill="#34495E"/>
<path d="M62.3716 61.6412C58.47 61.6388 54.6132 62.4654 51.0607 64.0654C47.5081 65.6653 44.3423 68.0016 41.7762 70.9168C39.2102 73.8321 37.3035 77.2588 36.1843 80.9663C35.0652 84.6737 34.7596 88.576 35.2883 92.4104C35.2883 92.4104 35.2883 92.4104 35.2883 92.5179C35.2883 92.894 35.3967 93.27 35.4689 93.6462V93.7715C35.4689 94.1297 35.6134 94.5059 35.7036 94.8641C35.7759 95.2223 35.8661 95.5804 35.9744 95.9386C35.9744 95.9386 35.9744 95.9387 35.9744 96.0461C36.1556 96.7256 36.3725 97.3951 36.6244 98.052V98.052L45.6522 125.49C46.5437 128.215 48.2814 130.59 50.6164 132.275C52.9515 133.961 55.7642 134.871 58.6522 134.875H62.3897C64.1868 134.879 65.9672 134.532 67.6286 133.853C69.29 133.173 70.7998 132.175 72.0714 130.915C73.343 129.656 74.3513 128.159 75.0385 126.512C75.7257 124.865 76.0782 123.1 76.0758 121.317V112.362C81.2861 109.37 85.3566 104.758 87.657 99.2388C89.9574 93.7201 90.3594 87.6031 88.8008 81.8349C87.2421 76.0666 83.8098 70.969 79.0352 67.3314C74.2606 63.6937 68.4101 61.719 62.3897 61.7129L62.3716 61.6412Z" fill="#5D6D7E"/>
<path d="M137.646 61.6412C141.541 61.6591 145.388 62.4994 148.93 64.106C152.473 65.7127 155.63 68.0489 158.192 70.9595C160.754 73.87 162.662 77.2882 163.789 80.9868C164.916 84.6853 165.236 88.5794 164.729 92.4104C164.729 92.4104 164.729 92.4104 164.729 92.5179C164.729 92.894 164.621 93.27 164.548 93.6461C164.548 93.6461 164.548 93.7357 164.548 93.7715C164.548 94.1297 164.404 94.5059 164.314 94.8641C164.241 95.2223 164.151 95.5804 164.043 95.9386C164.043 95.9386 164.043 95.9387 164.043 96.0461C163.862 96.7267 163.628 97.3893 163.393 98.052L154.365 125.49C153.473 128.218 151.732 130.595 149.394 132.281C147.055 133.967 144.238 134.875 141.347 134.875H137.628C135.83 134.879 134.05 134.532 132.389 133.853C130.727 133.173 129.217 132.175 127.946 130.915C126.674 129.656 125.666 128.159 124.979 126.512C124.292 124.865 123.939 123.1 123.942 121.317V112.362C118.717 109.379 114.633 104.768 112.322 99.2449C110.012 93.7221 109.606 87.5971 111.167 81.8216C112.727 76.0461 116.167 70.9437 120.952 67.3073C125.738 63.6709 131.6 61.7043 137.628 61.7129L137.646 61.6412Z" fill="#5D6D7E"/>
<path d="M61.6861 88.7926L57.5875 92.8581H48.0181V84.7091H57.5875L61.6861 88.7926Z" fill="white"/>
<path d="M63.0583 88.7926L67.157 92.8581H76.7445V84.7091H67.157L63.0583 88.7926Z" fill="white"/>
<path d="M62.372 88.1121L58.2734 84.0286V74.5364H66.4707V84.0286L62.372 88.1121Z" fill="white"/>
<path d="M62.372 89.4731L58.2734 93.5387V103.031H66.4707V93.5387L62.372 89.4731Z" fill="white"/>
<path d="M141.744 78.6019C141.748 79.4103 141.509 80.2015 141.059 80.8754C140.609 81.5493 139.967 82.0754 139.215 82.3872C138.463 82.6991 137.635 82.7825 136.835 82.627C136.036 82.4714 135.3 82.084 134.723 81.5136C134.145 80.9433 133.751 80.2157 133.591 79.4231C133.431 78.6305 133.511 77.8085 133.822 77.0613C134.133 76.3141 134.661 75.6753 135.338 75.2258C136.016 74.7763 136.812 74.5364 137.627 74.5364C138.716 74.5364 139.76 74.9641 140.532 75.726C141.303 76.488 141.739 77.522 141.744 78.6019V78.6019Z" fill="white"/>
<path d="M127.372 84.7091C128.188 84.7056 128.986 84.9426 129.666 85.3899C130.346 85.8372 130.876 86.4748 131.19 87.2217C131.504 87.9685 131.587 88.7911 131.428 89.5848C131.27 90.3786 130.878 91.1078 130.301 91.68C129.724 92.2521 128.989 92.6414 128.189 92.7984C127.388 92.9554 126.559 92.873 125.806 92.5618C125.053 92.2505 124.411 91.7243 123.96 91.0501C123.509 90.3758 123.27 89.5838 123.273 88.7747C123.273 87.6964 123.705 86.6623 124.474 85.8999C125.243 85.1375 126.285 84.7091 127.372 84.7091V84.7091Z" fill="white"/>
<path d="M133.53 98.9653C133.526 98.1562 133.765 97.3642 134.216 96.69C134.667 96.0157 135.31 95.4896 136.062 95.1783C136.815 94.867 137.645 94.7846 138.445 94.9416C139.245 95.0986 139.98 95.4879 140.557 96.06C141.134 96.6322 141.526 97.3614 141.685 98.1552C141.843 98.949 141.76 99.7715 141.446 100.518C141.132 101.265 140.602 101.903 139.922 102.35C139.242 102.797 138.444 103.034 137.628 103.031C136.543 103.026 135.503 102.596 134.735 101.835C133.968 101.073 133.534 100.042 133.53 98.9653V98.9653Z" fill="white"/>
<path d="M147.884 92.858C147.069 92.858 146.273 92.6186 145.596 92.1699C144.919 91.7212 144.392 91.0834 144.08 90.3373C143.769 89.5911 143.687 88.7701 143.846 87.978C144.005 87.1859 144.397 86.4583 144.973 85.8872C145.548 85.3161 146.282 84.9272 147.08 84.7696C147.879 84.6121 148.707 84.6929 149.459 85.002C150.211 85.311 150.854 85.8344 151.306 86.506C151.759 87.1775 152 87.967 152 88.7746C152 89.8576 151.566 90.8963 150.794 91.662C150.022 92.4278 148.975 92.858 147.884 92.858V92.858Z" fill="white"/>
<path d="M62.3901 109.675C58.2227 109.675 54.1489 108.45 50.6838 106.153C47.2187 103.856 44.518 100.592 42.9232 96.773C41.3284 92.9539 40.9112 88.7514 41.7242 84.697C42.5373 80.6426 44.544 76.9185 47.4908 73.9955C50.4376 71.0724 54.1921 69.0819 58.2795 68.2754C62.3668 67.4689 66.6035 67.8828 70.4537 69.4648C74.3038 71.0467 77.5946 73.7256 79.9099 77.1627C82.2252 80.5998 83.461 84.6408 83.461 88.7745C83.4562 94.3163 81.2347 99.6298 77.2842 103.548C73.3337 107.467 67.977 109.671 62.3901 109.675V109.675ZM62.3901 68.9662C58.4355 68.9627 54.5686 70.123 51.2789 72.3001C47.9892 74.4773 45.4246 77.5735 43.9095 81.197C42.3945 84.8205 41.9971 88.8084 42.7677 92.656C43.5384 96.5036 45.4425 100.038 48.2388 102.812C51.0352 105.586 54.5983 107.474 58.4772 108.239C62.3561 109.003 66.3764 108.609 70.0294 107.106C73.6824 105.603 76.8038 103.059 78.9986 99.7961C81.1935 96.533 82.3632 92.6973 82.3596 88.7745C82.35 83.524 80.2431 78.4912 76.5001 74.7784C72.7572 71.0657 67.6834 68.9757 62.3901 68.9662V68.9662Z" fill="#34495E"/>
<path d="M137.628 109.675C133.46 109.675 129.387 108.45 125.921 106.153C122.456 103.856 119.756 100.592 118.161 96.773C116.566 92.9539 116.149 88.7514 116.962 84.697C117.775 80.6426 119.782 76.9185 122.728 73.9955C125.675 71.0724 129.43 69.0819 133.517 68.2754C137.604 67.4689 141.841 67.8828 145.691 69.4648C149.541 71.0467 152.832 73.7256 155.147 77.1627C157.463 80.5998 158.699 84.6408 158.699 88.7745C158.694 94.3163 156.472 99.6298 152.522 103.548C148.571 107.467 143.215 109.671 137.628 109.675V109.675ZM137.628 68.9662C133.674 68.9663 129.809 70.1295 126.521 72.3088C123.234 74.4881 120.672 77.5857 119.16 81.2095C117.648 84.8333 117.253 88.8206 118.026 92.667C118.798 96.5134 120.704 100.046 123.501 102.818C126.298 105.59 129.861 107.477 133.739 108.24C137.618 109.003 141.637 108.608 145.289 107.104C148.941 105.601 152.061 103.057 154.255 99.7943C156.45 96.5315 157.619 92.6966 157.615 88.7745C157.61 83.5194 155.503 78.4812 151.755 74.7669C148.007 71.0526 142.926 68.9662 137.628 68.9662V68.9662Z" fill="#34495E"/>
<path d="M104.785 85.1211C104.78 85.4789 104.633 85.8206 104.376 86.072C104.12 86.3234 103.773 86.4643 103.412 86.4643H96.5693C96.2084 86.4643 95.8622 86.3234 95.6053 86.072C95.3485 85.8206 95.2018 85.4789 95.197 85.1211C95.2017 84.7615 95.3478 84.418 95.6041 84.1637C95.8604 83.9094 96.2068 83.7645 96.5693 83.7599H103.412C103.776 83.7599 104.125 83.9033 104.383 84.1586C104.64 84.4138 104.785 84.7601 104.785 85.1211Z" fill="white"/>
<path d="M104.785 92.4462C104.785 92.8072 104.64 93.1534 104.383 93.4087C104.125 93.664 103.776 93.8074 103.412 93.8074H96.5693C96.2068 93.8028 95.8604 93.6579 95.6041 93.4036C95.3478 93.1493 95.2017 92.8058 95.197 92.4462V92.4462C95.2017 92.0867 95.3478 91.7432 95.6041 91.4889C95.8604 91.2346 96.2068 91.0897 96.5693 91.0851H103.412C103.776 91.0851 104.125 91.2285 104.383 91.4837C104.64 91.739 104.785 92.0852 104.785 92.4462Z" fill="white"/>
<path d="M96.5691 72.4946H103.412V67.5873C103.413 67.3377 103.365 67.0905 103.268 66.8598C103.172 66.6292 103.031 66.4199 102.853 66.244C102.678 66.0627 102.468 65.9197 102.235 65.8241C102.001 65.7284 101.751 65.6824 101.498 65.6888H98.5011C98.2466 65.6862 97.9942 65.734 97.7586 65.8294C97.523 65.9247 97.3088 66.0656 97.1288 66.244C96.7765 66.6047 96.5763 67.0851 96.5691 67.5873V72.4946Z" fill="#283A4D"/>
<path d="M100.776 44.3045C100.564 44.112 100.287 44.0037 99.9998 44C99.7115 44.0002 99.434 44.1091 99.2234 44.3045C99.0166 44.5084 98.8997 44.7853 98.8984 45.0746V65.7963H101.083V45.0746C101.086 44.9325 101.06 44.7912 101.007 44.659C100.955 44.5269 100.876 44.4063 100.776 44.3045V44.3045Z" fill="#34495E"/>
</g>
<defs>
<clipPath id="clip0_7:1314">
<rect width="130" height="91" fill="white" transform="translate(35 44)"/>
</clipPath>
</defs>
</svg>
