<svg width="200" height="180" viewBox="0 0 200 180" fill="none" xmlns="http://www.w3.org/2000/svg">
<g clip-path="url(#clip0_7:972)">
<path d="M48.032 146.312C48.032 147.036 48.3439 146.747 48.7399 146.747H51.26C51.656 146.747 51.98 147.036 51.98 146.312V38.6471C51.98 37.9231 51.656 38.2127 51.26 38.2127H48.7399C48.3439 38.2127 48.032 37.9231 48.032 38.6471V146.312Z" fill="#CDD5D7"/>
<path d="M49.784 38.2126H48.968V146.747H49.784V38.2126Z" fill="#B7BEC0"/>
<path d="M48.416 38.1765C48.188 38.1765 48.032 38.1765 48.032 38.6471V146.312C48.032 146.819 48.188 146.831 48.416 146.795V38.1765Z" fill="#B7BEC0"/>
<path d="M50.2279 38.2126H49.4119V146.747H50.2279V38.2126Z" fill="#E5E8EC"/>
<path d="M131.948 38.2126H52.112C51.3896 38.2126 50.804 38.8015 50.804 39.5278V145.685C50.804 146.411 51.3896 147 52.112 147H131.948C132.67 147 133.256 146.411 133.256 145.685V39.5278C133.256 38.8015 132.67 38.2126 131.948 38.2126Z" fill="#282D33"/>
<path d="M52.1239 38.2127H131.948C132.124 38.211 132.298 38.245 132.461 38.3126C132.623 38.3803 132.77 38.4801 132.894 38.6063C133.017 38.7324 133.113 38.8822 133.178 39.0468C133.242 39.2114 133.273 39.3873 133.268 39.5641V145.745C133.241 146.077 133.089 146.386 132.844 146.61C132.599 146.834 132.279 146.956 131.948 146.952H52.1239C51.9517 146.953 51.7809 146.92 51.6214 146.855C51.462 146.789 51.3172 146.693 51.1955 146.57C51.0737 146.448 50.9774 146.302 50.9122 146.142C50.8471 145.981 50.8143 145.81 50.8159 145.637V39.5641C50.8111 39.3884 50.8413 39.2135 50.9049 39.0497C50.9685 38.8859 51.0641 38.7366 51.186 38.6106C51.308 38.4846 51.4538 38.3845 51.6149 38.3162C51.776 38.2478 51.949 38.2126 52.1239 38.2127V38.2127ZM53.0239 144.068C53.2441 144.066 53.4587 143.998 53.6407 143.873C53.8226 143.748 53.9637 143.572 54.0463 143.367C54.129 143.162 54.1494 142.936 54.105 142.72C54.0606 142.503 53.9534 142.304 53.7968 142.148C53.6403 141.992 53.4414 141.887 53.2252 141.844C53.0091 141.802 52.7853 141.825 52.5821 141.91C52.3789 141.996 52.2053 142.139 52.0832 142.324C51.9611 142.508 51.8959 142.724 51.8959 142.946C51.8959 143.094 51.9252 143.241 51.982 143.378C52.0388 143.515 52.1221 143.639 52.227 143.744C52.3319 143.848 52.4564 143.93 52.5931 143.986C52.7299 144.042 52.8763 144.07 53.0239 144.068V144.068ZM53.0239 139.531C53.2475 139.531 53.466 139.464 53.6518 139.339C53.8375 139.214 53.9821 139.036 54.0671 138.828C54.1522 138.62 54.1738 138.392 54.1293 138.171C54.0848 137.951 53.9761 137.749 53.8172 137.591C53.6582 137.433 53.4561 137.326 53.2365 137.283C53.0169 137.241 52.7897 137.265 52.5838 137.353C52.378 137.44 52.2027 137.588 52.0802 137.776C51.9577 137.964 51.8935 138.184 51.8959 138.409C51.8959 138.557 51.9252 138.704 51.982 138.841C52.0388 138.978 52.1221 139.102 52.227 139.207C52.3319 139.311 52.4564 139.394 52.5931 139.449C52.7299 139.505 52.8763 139.533 53.0239 139.531V139.531ZM53.0239 134.982C53.2441 134.98 53.4587 134.912 53.6407 134.787C53.8226 134.663 53.9637 134.487 54.0463 134.281C54.129 134.076 54.1494 133.851 54.105 133.634C54.0606 133.417 53.9534 133.218 53.7968 133.063C53.6403 132.907 53.4414 132.801 53.2252 132.759C53.0091 132.716 52.7853 132.739 52.5821 132.825C52.3789 132.91 52.2053 133.054 52.0832 133.238C51.9611 133.422 51.8959 133.639 51.8959 133.86C51.8959 134.009 51.9252 134.155 51.982 134.292C52.0388 134.429 52.1221 134.554 52.227 134.658C52.3319 134.762 52.4564 134.845 52.5931 134.9C52.7299 134.956 52.8763 134.984 53.0239 134.982V134.982ZM53.0239 130.445C53.247 130.445 53.4651 130.379 53.6506 130.254C53.8361 130.13 53.9807 129.953 54.066 129.745C54.1514 129.538 54.1737 129.31 54.1302 129.09C54.0867 128.87 53.9792 128.668 53.8215 128.509C53.6637 128.351 53.4628 128.243 53.244 128.199C53.0252 128.155 52.7984 128.178 52.5923 128.263C52.3862 128.349 52.21 128.495 52.086 128.681C51.9621 128.868 51.8959 129.087 51.8959 129.311C51.8959 129.46 51.9251 129.608 51.9818 129.745C52.0385 129.883 52.1215 130.008 52.2263 130.113C52.331 130.219 52.4554 130.302 52.5923 130.359C52.7291 130.416 52.8758 130.445 53.0239 130.445V130.445ZM53.0239 125.897C53.2441 125.894 53.4587 125.826 53.6407 125.702C53.8226 125.577 53.9637 125.401 54.0463 125.196C54.129 124.99 54.1494 124.765 54.105 124.548C54.0606 124.331 53.9534 124.132 53.7968 123.977C53.6403 123.821 53.4414 123.715 53.2252 123.673C53.0091 123.631 52.7853 123.654 52.5821 123.739C52.3789 123.824 52.2053 123.968 52.0832 124.152C51.9611 124.337 51.8959 124.553 51.8959 124.774C51.8959 124.923 51.9252 125.07 51.982 125.207C52.0388 125.344 52.1221 125.468 52.227 125.572C52.3319 125.677 52.4564 125.759 52.5931 125.815C52.7299 125.87 52.8763 125.898 53.0239 125.897V125.897ZM53.0239 121.348C53.2441 121.345 53.4587 121.277 53.6407 121.153C53.8226 121.028 53.9637 120.852 54.0463 120.647C54.129 120.441 54.1494 120.216 54.105 119.999C54.0606 119.782 53.9534 119.584 53.7968 119.428C53.6403 119.272 53.4414 119.166 53.2252 119.124C53.0091 119.082 52.7853 119.105 52.5821 119.19C52.3789 119.275 52.2053 119.419 52.0832 119.603C51.9611 119.788 51.8959 120.004 51.8959 120.225C51.8959 120.374 51.9252 120.521 51.982 120.658C52.0388 120.795 52.1221 120.919 52.227 121.023C52.3319 121.128 52.4564 121.21 52.5931 121.266C52.7299 121.321 52.8763 121.349 53.0239 121.348V121.348ZM53.0239 116.811C53.2475 116.811 53.466 116.744 53.6518 116.619C53.8375 116.494 53.9821 116.316 54.0671 116.108C54.1522 115.9 54.1738 115.671 54.1293 115.451C54.0848 115.231 53.9761 115.029 53.8172 114.87C53.6582 114.712 53.4561 114.605 53.2365 114.563C53.0169 114.52 52.7897 114.545 52.5838 114.632C52.378 114.72 52.2027 114.867 52.0802 115.055C51.9577 115.243 51.8935 115.464 51.8959 115.689C51.9022 115.984 52.0242 116.265 52.2354 116.471C52.4466 116.676 52.7299 116.79 53.0239 116.787V116.811ZM53.0239 112.262C53.2441 112.26 53.4587 112.192 53.6407 112.067C53.8226 111.942 53.9637 111.766 54.0463 111.561C54.129 111.356 54.1494 111.13 54.105 110.914C54.0606 110.697 53.9534 110.498 53.7968 110.342C53.6403 110.186 53.4414 110.081 53.2252 110.038C53.0091 109.996 52.7853 110.019 52.5821 110.104C52.3789 110.19 52.2053 110.333 52.0832 110.518C51.9611 110.702 51.8959 110.918 51.8959 111.14C51.8959 111.288 51.9252 111.435 51.982 111.572C52.0388 111.709 52.1221 111.833 52.227 111.938C52.3319 112.042 52.4564 112.124 52.5931 112.18C52.7299 112.236 52.8763 112.264 53.0239 112.262V112.262ZM53.0239 107.725C53.247 107.725 53.4651 107.659 53.6506 107.534C53.8361 107.409 53.9807 107.232 54.066 107.025C54.1514 106.818 54.1737 106.59 54.1302 106.37C54.0867 106.15 53.9792 105.948 53.8215 105.789C53.6637 105.63 53.4628 105.522 53.244 105.478C53.0252 105.435 52.7984 105.457 52.5923 105.543C52.3862 105.629 52.21 105.774 52.086 105.961C51.9621 106.147 51.8959 106.367 51.8959 106.591C51.8959 106.892 52.0147 107.18 52.2263 107.393C52.4378 107.606 52.7247 107.725 53.0239 107.725V107.725ZM53.0239 103.176C53.2441 103.174 53.4587 103.106 53.6407 102.981C53.8226 102.856 53.9637 102.68 54.0463 102.475C54.129 102.27 54.1494 102.045 54.105 101.828C54.0606 101.611 53.9534 101.412 53.7968 101.256C53.6403 101.101 53.4414 100.995 53.2252 100.953C53.0091 100.91 52.7853 100.933 52.5821 101.019C52.3789 101.104 52.2053 101.248 52.0832 101.432C51.9611 101.616 51.8959 101.833 51.8959 102.054C51.8959 102.202 51.9252 102.349 51.982 102.486C52.0388 102.623 52.1221 102.747 52.227 102.852C52.3319 102.956 52.4564 103.039 52.5931 103.094C52.7299 103.15 52.8763 103.178 53.0239 103.176ZM53.0239 98.6394C53.247 98.6394 53.4651 98.5729 53.6506 98.4482C53.8361 98.3236 53.9807 98.1464 54.066 97.9392C54.1514 97.7319 54.1737 97.5039 54.1302 97.2839C54.0867 97.0639 53.9792 96.8618 53.8215 96.7032C53.6637 96.5446 53.4628 96.4366 53.244 96.3928C53.0252 96.349 52.7984 96.3715 52.5923 96.4573C52.3862 96.5432 52.21 96.6885 52.086 96.875C51.9621 97.0615 51.8959 97.2809 51.8959 97.5052C51.8894 97.6582 51.9138 97.8108 51.9676 97.9541C52.0214 98.0973 52.1034 98.2281 52.2088 98.3386C52.3142 98.4491 52.4408 98.5369 52.5808 98.5969C52.7209 98.6569 52.8716 98.6878 53.0239 98.6877V98.6394ZM53.0239 94.0905C53.2441 94.0881 53.4587 94.0203 53.6407 93.8956C53.8226 93.7708 53.9637 93.5947 54.0463 93.3895C54.129 93.1842 54.1494 92.959 54.105 92.7421C54.0606 92.5253 53.9534 92.3264 53.7968 92.1707C53.6403 92.015 53.4414 91.9093 53.2252 91.867C53.0091 91.8247 52.7853 91.8476 52.5821 91.9328C52.3789 92.0181 52.2053 92.1619 52.0832 92.3462C51.9611 92.5305 51.8959 92.7469 51.8959 92.9684C51.8959 93.1167 51.9252 93.2637 51.982 93.4006C52.0388 93.5375 52.1221 93.6617 52.227 93.7661C52.3319 93.8704 52.4564 93.9529 52.5931 94.0085C52.7299 94.0642 52.8763 94.0921 53.0239 94.0905V94.0905ZM53.0239 89.5416C53.2441 89.5392 53.4587 89.4714 53.6407 89.3466C53.8226 89.2219 53.9637 89.0459 54.0463 88.8406C54.129 88.6354 54.1494 88.4101 54.105 88.1932C54.0606 87.9763 53.9534 87.7775 53.7968 87.6218C53.6403 87.4661 53.4414 87.3604 53.2252 87.3181C53.0091 87.2758 52.7853 87.2986 52.5821 87.3839C52.3789 87.4692 52.2053 87.613 52.0832 87.7973C51.9611 87.9816 51.8959 88.198 51.8959 88.4194C51.8959 88.5678 51.9252 88.7147 51.982 88.8517C52.0388 88.9886 52.1221 89.1129 52.227 89.2172C52.3319 89.3216 52.4564 89.404 52.5931 89.4597C52.7299 89.5154 52.8763 89.5432 53.0239 89.5416V89.5416ZM53.0239 85.0047C53.2441 85.0024 53.4587 84.9345 53.6407 84.8098C53.8226 84.6851 53.9637 84.509 54.0463 84.3038C54.129 84.0985 54.1494 83.8733 54.105 83.6564C54.0606 83.4396 53.9534 83.2407 53.7968 83.085C53.6403 82.9292 53.4414 82.8236 53.2252 82.7812C53.0091 82.7389 52.7853 82.7618 52.5821 82.8471C52.3789 82.9324 52.2053 83.0762 52.0832 83.2605C51.9611 83.4447 51.8959 83.6612 51.8959 83.8826C51.8959 84.031 51.9252 84.1779 51.982 84.3148C52.0388 84.4518 52.1221 84.576 52.227 84.6804C52.3319 84.7848 52.4564 84.8672 52.5931 84.9228C52.7299 84.9785 52.8763 85.0063 53.0239 85.0047V85.0047ZM53.0239 80.4559C53.2441 80.4535 53.4587 80.3857 53.6407 80.261C53.8226 80.1362 53.9637 79.9601 54.0463 79.7549C54.129 79.5496 54.1494 79.3244 54.105 79.1075C54.0606 78.8907 53.9534 78.6918 53.7968 78.5361C53.6403 78.3804 53.4414 78.2747 53.2252 78.2323C53.0091 78.19 52.7853 78.213 52.5821 78.2982C52.3789 78.3835 52.2053 78.5273 52.0832 78.7116C51.9611 78.8959 51.8959 79.1123 51.8959 79.3338C51.8959 79.4821 51.9252 79.629 51.982 79.766C52.0388 79.9029 52.1221 80.0271 52.227 80.1315C52.3319 80.2358 52.4564 80.3182 52.5931 80.3739C52.7299 80.4296 52.8763 80.4575 53.0239 80.4559V80.4559ZM53.0239 75.9191C53.2475 75.919 53.466 75.8522 53.6518 75.7271C53.8375 75.6019 53.9821 75.424 54.0671 75.216C54.1522 75.0081 54.1738 74.7795 54.1293 74.5591C54.0848 74.3388 53.9761 74.1367 53.8172 73.9786C53.6582 73.8204 53.4561 73.7134 53.2365 73.671C53.0169 73.6286 52.7897 73.6528 52.5838 73.7405C52.378 73.8282 52.2027 73.9754 52.0802 74.1635C51.9577 74.3516 51.8935 74.5721 51.8959 74.7969C51.8959 74.9453 51.9252 75.0922 51.982 75.2291C52.0388 75.3661 52.1221 75.4903 52.227 75.5946C52.3319 75.699 52.4564 75.7814 52.5931 75.8371C52.7299 75.8928 52.8763 75.9207 53.0239 75.9191V75.9191ZM53.0239 71.3701C53.2441 71.3678 53.4587 71.2999 53.6407 71.1752C53.8226 71.0505 53.9637 70.8744 54.0463 70.6691C54.129 70.4639 54.1494 70.2386 54.105 70.0218C54.0606 69.8049 53.9534 69.6061 53.7968 69.4504C53.6403 69.2946 53.4414 69.189 53.2252 69.1466C53.0091 69.1043 52.7853 69.1272 52.5821 69.2125C52.3789 69.2978 52.2053 69.4416 52.0832 69.6259C51.9611 69.8101 51.8959 70.0266 51.8959 70.248C51.8959 70.3964 51.9252 70.5433 51.982 70.6802C52.0388 70.8172 52.1221 70.9414 52.227 71.0458C52.3319 71.1502 52.4564 71.2326 52.5931 71.2882C52.7299 71.3439 52.8763 71.3717 53.0239 71.3701V71.3701ZM53.0239 66.8213C53.2441 66.8189 53.4587 66.751 53.6407 66.6263C53.8226 66.5015 53.9637 66.3255 54.0463 66.1203C54.129 65.915 54.1494 65.6898 54.105 65.4729C54.0606 65.2561 53.9534 65.0572 53.7968 64.9015C53.6403 64.7458 53.4414 64.6401 53.2252 64.5977C53.0091 64.5554 52.7853 64.5784 52.5821 64.6636C52.3789 64.7489 52.2053 64.8927 52.0832 65.0769C51.9611 65.2612 51.8959 65.4777 51.8959 65.6991C51.8959 65.8475 51.9252 65.9944 51.982 66.1314C52.0388 66.2683 52.1221 66.3925 52.227 66.4969C52.3319 66.6012 52.4564 66.6836 52.5931 66.7393C52.7299 66.795 52.8763 66.8229 53.0239 66.8213V66.8213ZM53.0239 62.2845C53.2441 62.2821 53.4587 62.2143 53.6407 62.0895C53.8226 61.9648 53.9637 61.7887 54.0463 61.5834C54.129 61.3782 54.1494 61.153 54.105 60.9361C54.0606 60.7192 53.9534 60.5204 53.7968 60.3647C53.6403 60.2089 53.4414 60.1032 53.2252 60.0609C53.0091 60.0186 52.7853 60.0415 52.5821 60.1268C52.3789 60.2121 52.2053 60.3559 52.0832 60.5402C51.9611 60.7244 51.8959 60.9409 51.8959 61.1623C51.8959 61.3107 51.9252 61.4576 51.982 61.5945C52.0388 61.7315 52.1221 61.8557 52.227 61.96C52.3319 62.0644 52.4564 62.1468 52.5931 62.2025C52.7299 62.2582 52.8763 62.286 53.0239 62.2845V62.2845ZM53.0239 57.7355C53.2441 57.7332 53.4587 57.6653 53.6407 57.5406C53.8226 57.4159 53.9637 57.2398 54.0463 57.0345C54.129 56.8293 54.1494 56.604 54.105 56.3872C54.0606 56.1703 53.9534 55.9715 53.7968 55.8158C53.6403 55.66 53.4414 55.5544 53.2252 55.512C53.0091 55.4697 52.7853 55.4926 52.5821 55.5779C52.3789 55.6632 52.2053 55.807 52.0832 55.9912C51.9611 56.1755 51.8959 56.392 51.8959 56.6134C51.8959 56.7618 51.9252 56.9087 51.982 57.0456C52.0388 57.1826 52.1221 57.3068 52.227 57.4112C52.3319 57.5156 52.4564 57.598 52.5931 57.6536C52.7299 57.7093 52.8763 57.7371 53.0239 57.7355V57.7355ZM53.0239 53.1987C53.2475 53.1987 53.466 53.1319 53.6518 53.0067C53.8375 52.8815 53.9821 52.7036 54.0671 52.4957C54.1522 52.2877 54.1738 52.0591 54.1293 51.8388C54.0848 51.6184 53.9761 51.4164 53.8172 51.2582C53.6582 51.1001 53.4561 50.993 53.2365 50.9506C53.0169 50.9082 52.7897 50.9324 52.5838 51.0201C52.378 51.1078 52.2027 51.2551 52.0802 51.4432C51.9577 51.6313 51.8935 51.8517 51.8959 52.0766C51.8959 52.2249 51.9252 52.3719 51.982 52.5088C52.0388 52.6457 52.1221 52.77 52.227 52.8744C52.3319 52.9787 52.4564 53.0611 52.5931 53.1168C52.7299 53.1725 52.8763 53.2003 53.0239 53.1987V53.1987ZM53.0239 48.6499C53.2441 48.6475 53.4587 48.5796 53.6407 48.4548C53.8226 48.3301 53.9637 48.1541 54.0463 47.9488C54.129 47.7436 54.1494 47.5184 54.105 47.3015C54.0606 47.0846 53.9534 46.8858 53.7968 46.7301C53.6403 46.5743 53.4414 46.4686 53.2252 46.4263C53.0091 46.384 52.7853 46.4068 52.5821 46.4921C52.3789 46.5774 52.2053 46.7212 52.0832 46.9055C51.9611 47.0898 51.8959 47.3062 51.8959 47.5276C51.8959 47.676 51.9252 47.8229 51.982 47.9599C52.0388 48.0968 52.1221 48.2211 52.227 48.3254C52.3319 48.4298 52.4564 48.5122 52.5931 48.5679C52.7299 48.6236 52.8763 48.6514 53.0239 48.6499V48.6499ZM53.0239 44.113C53.247 44.113 53.4651 44.0465 53.6506 43.9218C53.8361 43.7972 53.9807 43.62 54.066 43.4128C54.1514 43.2055 54.1737 42.9775 54.1302 42.7575C54.0867 42.5375 53.9792 42.3354 53.8215 42.1768C53.6637 42.0182 53.4628 41.9102 53.244 41.8664C53.0252 41.8226 52.7984 41.8451 52.5923 41.9309C52.3862 42.0168 52.21 42.1621 52.086 42.3486C51.9621 42.5351 51.8959 42.7545 51.8959 42.9788C51.8959 43.2796 52.0147 43.5681 52.2263 43.7808C52.4378 43.9935 52.7247 44.113 53.0239 44.113V44.113Z" fill="#30363D"/>
<path d="M52.1239 38.0316H131.948C132.295 38.0316 132.628 38.1702 132.873 38.4169C133.118 38.6635 133.256 38.998 133.256 39.3468V145.528C133.256 145.877 133.118 146.211 132.873 146.458C132.628 146.705 132.295 146.843 131.948 146.843H52.1239C51.777 146.843 51.4443 146.705 51.199 146.458C50.9537 146.211 50.8159 145.877 50.8159 145.528V39.3468C50.8159 38.998 50.9537 38.6635 51.199 38.4169C51.4443 38.1702 51.777 38.0316 52.1239 38.0316ZM53.0239 143.887C53.2441 143.885 53.4587 143.817 53.6406 143.692C53.8226 143.567 53.9637 143.391 54.0463 143.186C54.129 142.981 54.1494 142.755 54.105 142.539C54.0606 142.322 53.9533 142.123 53.7968 141.967C53.6403 141.811 53.4414 141.706 53.2252 141.663C53.0091 141.621 52.7853 141.644 52.5821 141.729C52.3789 141.815 52.2053 141.958 52.0832 142.143C51.961 142.327 51.8959 142.543 51.8959 142.765C51.8959 142.913 51.9252 143.06 51.982 143.197C52.0388 143.334 52.1221 143.458 52.227 143.563C52.3319 143.667 52.4564 143.749 52.5931 143.805C52.7299 143.861 52.8763 143.889 53.0239 143.887V143.887ZM53.0239 139.35C53.247 139.35 53.4651 139.284 53.6506 139.159C53.8361 139.034 53.9807 138.857 54.066 138.65C54.1514 138.443 54.1737 138.215 54.1302 137.995C54.0867 137.775 53.9792 137.573 53.8215 137.414C53.6637 137.255 53.4628 137.147 53.244 137.104C53.0252 137.06 52.7984 137.082 52.5923 137.168C52.3861 137.254 52.21 137.399 52.086 137.586C51.9621 137.772 51.8959 137.992 51.8959 138.216C51.8959 138.517 52.0147 138.805 52.2263 139.018C52.4378 139.231 52.7247 139.35 53.0239 139.35V139.35ZM53.0239 134.801C53.2441 134.799 53.4587 134.731 53.6406 134.606C53.8226 134.482 53.9637 134.305 54.0463 134.1C54.129 133.895 54.1494 133.67 54.105 133.453C54.0606 133.236 53.9533 133.037 53.7968 132.881C53.6403 132.726 53.4414 132.62 53.2252 132.578C53.0091 132.535 52.7853 132.558 52.5821 132.644C52.3789 132.729 52.2053 132.873 52.0832 133.057C51.961 133.241 51.8959 133.458 51.8959 133.679C51.8959 133.827 51.9252 133.974 51.982 134.111C52.0388 134.248 52.1221 134.373 52.227 134.477C52.3319 134.581 52.4564 134.664 52.5931 134.719C52.7299 134.775 52.8763 134.803 53.0239 134.801V134.801ZM53.0239 130.252C53.2441 130.25 53.4587 130.182 53.6406 130.057C53.8226 129.933 53.9637 129.757 54.0463 129.551C54.129 129.346 54.1494 129.121 54.105 128.904C54.0606 128.687 53.9533 128.488 53.7968 128.333C53.6403 128.177 53.4414 128.071 53.2252 128.029C53.0091 127.986 52.7853 128.009 52.5821 128.095C52.3789 128.18 52.2053 128.324 52.0832 128.508C51.961 128.692 51.8959 128.909 51.8959 129.13C51.8959 129.279 51.9252 129.425 51.982 129.562C52.0388 129.699 52.1221 129.824 52.227 129.928C52.3319 130.032 52.4564 130.115 52.5931 130.17C52.7299 130.226 52.8763 130.254 53.0239 130.252V130.252ZM53.0239 125.716C53.2441 125.713 53.4587 125.645 53.6406 125.521C53.8226 125.396 53.9637 125.22 54.0463 125.014C54.129 124.809 54.1494 124.584 54.105 124.367C54.0606 124.15 53.9533 123.951 53.7968 123.796C53.6403 123.64 53.4414 123.534 53.2252 123.492C53.0091 123.45 52.7853 123.473 52.5821 123.558C52.3789 123.643 52.2053 123.787 52.0832 123.971C51.961 124.155 51.8959 124.372 51.8959 124.593C51.8959 124.742 51.9252 124.889 51.982 125.026C52.0388 125.163 52.1221 125.287 52.227 125.391C52.3319 125.495 52.4564 125.578 52.5931 125.634C52.7299 125.689 52.8763 125.717 53.0239 125.716V125.716ZM53.0239 121.167C53.2441 121.164 53.4587 121.096 53.6406 120.972C53.8226 120.847 53.9637 120.671 54.0463 120.466C54.129 120.26 54.1494 120.035 54.105 119.818C54.0606 119.601 53.9533 119.403 53.7968 119.247C53.6403 119.091 53.4414 118.985 53.2252 118.943C53.0091 118.901 52.7853 118.924 52.5821 119.009C52.3789 119.094 52.2053 119.238 52.0832 119.422C51.961 119.607 51.8959 119.823 51.8959 120.044C51.8959 120.193 51.9252 120.34 51.982 120.477C52.0388 120.614 52.1221 120.738 52.227 120.842C52.3319 120.947 52.4564 121.029 52.5931 121.085C52.7299 121.14 52.8763 121.168 53.0239 121.167ZM53.0239 116.63C53.2475 116.63 53.466 116.563 53.6518 116.438C53.8375 116.313 53.9821 116.135 54.0671 115.927C54.1522 115.719 54.1738 115.49 54.1292 115.27C54.0847 115.049 53.9761 114.847 53.8172 114.689C53.6582 114.531 53.4561 114.424 53.2365 114.382C53.0169 114.339 52.7897 114.363 52.5838 114.451C52.3779 114.539 52.2026 114.686 52.0802 114.874C51.9577 115.062 51.8935 115.283 51.8959 115.508C51.8959 115.656 51.9252 115.803 51.982 115.94C52.0388 116.077 52.1221 116.201 52.227 116.305C52.3319 116.41 52.4564 116.492 52.5931 116.548C52.7299 116.604 52.8763 116.631 53.0239 116.63V116.63ZM53.0239 112.081C53.2441 112.078 53.4587 112.011 53.6406 111.886C53.8226 111.761 53.9637 111.585 54.0463 111.38C54.129 111.175 54.1494 110.949 54.105 110.733C54.0606 110.516 53.9533 110.317 53.7968 110.161C53.6403 110.005 53.4414 109.9 53.2252 109.857C53.0091 109.815 52.7853 109.838 52.5821 109.923C52.3789 110.008 52.2053 110.152 52.0832 110.337C51.961 110.521 51.8959 110.737 51.8959 110.959C51.8959 111.107 51.9252 111.254 51.982 111.391C52.0388 111.528 52.1221 111.652 52.227 111.757C52.3319 111.861 52.4564 111.943 52.5931 111.999C52.7299 112.055 52.8763 112.082 53.0239 112.081V112.081ZM53.0239 107.532C53.2441 107.53 53.4587 107.462 53.6406 107.337C53.8226 107.212 53.9637 107.036 54.0463 106.831C54.129 106.626 54.1494 106.401 54.105 106.184C54.0606 105.967 53.9533 105.768 53.7968 105.612C53.6403 105.456 53.4414 105.351 53.2252 105.308C53.0091 105.266 52.7853 105.289 52.5821 105.374C52.3789 105.46 52.2053 105.603 52.0832 105.788C51.961 105.972 51.8959 106.188 51.8959 106.41C51.8959 106.558 51.9252 106.705 51.982 106.842C52.0388 106.979 52.1221 107.103 52.227 107.208C52.3319 107.312 52.4564 107.394 52.5931 107.45C52.7299 107.506 52.8763 107.534 53.0239 107.532V107.532ZM53.0239 102.995C53.2441 102.993 53.4587 102.925 53.6406 102.8C53.8226 102.675 53.9637 102.499 54.0463 102.294C54.129 102.089 54.1494 101.864 54.105 101.647C54.0606 101.43 53.9533 101.231 53.7968 101.075C53.6403 100.92 53.4414 100.814 53.2252 100.772C53.0091 100.729 52.7853 100.752 52.5821 100.838C52.3789 100.923 52.2053 101.067 52.0832 101.251C51.961 101.435 51.8959 101.652 51.8959 101.873C51.8959 102.021 51.9252 102.168 51.982 102.305C52.0388 102.442 52.1221 102.566 52.227 102.671C52.3319 102.775 52.4564 102.858 52.5931 102.913C52.7299 102.969 52.8763 102.997 53.0239 102.995V102.995ZM53.0239 98.4462C53.2441 98.4439 53.4587 98.376 53.6406 98.2513C53.8226 98.1266 53.9637 97.9505 54.0463 97.7452C54.129 97.54 54.1494 97.3147 54.105 97.0979C54.0606 96.881 53.9533 96.6822 53.7968 96.5265C53.6403 96.3707 53.4414 96.2651 53.2252 96.2227C53.0091 96.1804 52.7853 96.2033 52.5821 96.2886C52.3789 96.3739 52.2053 96.5177 52.0832 96.702C51.961 96.8862 51.8959 97.1027 51.8959 97.3241C51.8959 97.4725 51.9252 97.6194 51.982 97.7563C52.0388 97.8933 52.1221 98.0176 52.227 98.1219C52.3319 98.2263 52.4564 98.3087 52.5931 98.3644C52.7299 98.42 52.8763 98.4478 53.0239 98.4462V98.4462ZM53.0239 93.9094C53.2475 93.9094 53.466 93.8426 53.6518 93.7174C53.8375 93.5922 53.9821 93.4144 54.0671 93.2065C54.1522 92.9985 54.1738 92.7698 54.1292 92.5495C54.0847 92.3291 53.9761 92.1271 53.8172 91.9689C53.6582 91.8108 53.4561 91.7038 53.2365 91.6614C53.0169 91.619 52.7897 91.6431 52.5838 91.7308C52.3779 91.8185 52.2026 91.9658 52.0802 92.1539C51.9577 92.342 51.8935 92.5625 51.8959 92.7873C51.9083 93.0785 52.033 93.3535 52.2436 93.5539C52.4541 93.7544 52.734 93.8646 53.0239 93.8612V93.9094ZM53.0239 89.3606C53.2441 89.3582 53.4587 89.2903 53.6406 89.1655C53.8226 89.0408 53.9637 88.8648 54.0463 88.6595C54.129 88.4543 54.1494 88.2291 54.105 88.0122C54.0606 87.7953 53.9533 87.5965 53.7968 87.4408C53.6403 87.285 53.4414 87.1793 53.2252 87.137C53.0091 87.0947 52.7853 87.1176 52.5821 87.2029C52.3789 87.2882 52.2053 87.432 52.0832 87.6163C51.961 87.8005 51.8959 88.017 51.8959 88.2384C51.8959 88.3868 51.9252 88.5337 51.982 88.6707C52.0388 88.8076 52.1221 88.9318 52.227 89.0362C52.3319 89.1405 52.4564 89.2229 52.5931 89.2786C52.7299 89.3343 52.8763 89.3622 53.0239 89.3606V89.3606ZM53.0239 84.8237C53.2475 84.8237 53.466 84.7568 53.6518 84.6317C53.8375 84.5065 53.9821 84.3287 54.0671 84.1207C54.1522 83.9128 54.1738 83.6841 54.1292 83.4638C54.0847 83.2435 53.9761 83.0414 53.8172 82.8832C53.6582 82.7251 53.4561 82.618 53.2365 82.5756C53.0169 82.5332 52.7897 82.5575 52.5838 82.6451C52.3779 82.7328 52.2026 82.8801 52.0802 83.0682C51.9577 83.2563 51.8935 83.4768 51.8959 83.7016C51.8959 83.85 51.9252 83.9969 51.982 84.1338C52.0388 84.2708 52.1221 84.395 52.227 84.4993C52.3319 84.6037 52.4564 84.6861 52.5931 84.7418C52.7299 84.7974 52.8763 84.8253 53.0239 84.8237V84.8237ZM53.0239 80.2748C53.2441 80.2724 53.4587 80.2046 53.6406 80.0799C53.8226 79.9551 53.9637 79.779 54.0463 79.5738C54.129 79.3685 54.1494 79.1433 54.105 78.9264C54.0606 78.7096 53.9533 78.5108 53.7968 78.355C53.6403 78.1993 53.4414 78.0936 53.2252 78.0513C53.0091 78.009 52.7853 78.0319 52.5821 78.1171C52.3789 78.2024 52.2053 78.3463 52.0832 78.5305C51.961 78.7148 51.8959 78.9313 51.8959 79.1527C51.8959 79.3011 51.9252 79.448 51.982 79.5849C52.0388 79.7218 52.1221 79.8461 52.227 79.9505C52.3319 80.0548 52.4564 80.1372 52.5931 80.1929C52.7299 80.2486 52.8763 80.2764 53.0239 80.2748V80.2748ZM53.0239 75.7259C53.2441 75.7235 53.4587 75.6557 53.6406 75.5309C53.8226 75.4062 53.9637 75.2302 54.0463 75.0249C54.129 74.8197 54.1494 74.5945 54.105 74.3776C54.0606 74.1607 53.9533 73.9619 53.7968 73.8062C53.6403 73.6504 53.4414 73.5447 53.2252 73.5024C53.0091 73.4601 52.7853 73.483 52.5821 73.5682C52.3789 73.6535 52.2053 73.7973 52.0832 73.9816C51.961 74.1659 51.8959 74.3823 51.8959 74.6038C51.891 74.7552 51.9167 74.906 51.9714 75.0472C52.026 75.1883 52.1085 75.3169 52.2139 75.4251C52.3193 75.5334 52.4454 75.619 52.5846 75.6769C52.7238 75.7348 52.8732 75.7638 53.0239 75.7621V75.7259ZM53.0239 71.1891C53.2441 71.1867 53.4587 71.1188 53.6406 70.9941C53.8226 70.8694 53.9637 70.6933 54.0463 70.4881C54.129 70.2828 54.1494 70.0576 54.105 69.8408C54.0606 69.6239 53.9533 69.4251 53.7968 69.2693C53.6403 69.1136 53.4414 69.0079 53.2252 68.9656C53.0091 68.9232 52.7853 68.9462 52.5821 69.0315C52.3789 69.1167 52.2053 69.2606 52.0832 69.4448C51.961 69.6291 51.8959 69.8456 51.8959 70.067C51.8959 70.2154 51.9252 70.3623 51.982 70.4992C52.0388 70.6361 52.1221 70.7604 52.227 70.8647C52.3319 70.9691 52.4564 71.0515 52.5931 71.1072C52.7299 71.1628 52.8763 71.1907 53.0239 71.1891V71.1891ZM53.0239 66.6402C53.2441 66.6378 53.4587 66.57 53.6406 66.4453C53.8226 66.3205 53.9637 66.1444 54.0463 65.9392C54.129 65.7339 54.1494 65.5087 54.105 65.2918C54.0606 65.075 53.9533 64.8761 53.7968 64.7204C53.6403 64.5647 53.4414 64.459 53.2252 64.4167C53.0091 64.3744 52.7853 64.3973 52.5821 64.4825C52.3789 64.5678 52.2053 64.7117 52.0832 64.8959C51.961 65.0802 51.8959 65.2966 51.8959 65.5181C51.8959 65.6665 51.9252 65.8134 51.982 65.9503C52.0388 66.0872 52.1221 66.2114 52.227 66.3158C52.3319 66.4202 52.4564 66.5026 52.5931 66.5582C52.7299 66.6139 52.8763 66.6418 53.0239 66.6402V66.6402ZM53.0239 62.1034C53.2475 62.1034 53.466 62.0365 53.6518 61.9114C53.8375 61.7862 53.9821 61.6083 54.0671 61.4003C54.1522 61.1924 54.1738 60.9638 54.1292 60.7434C54.0847 60.5231 53.9761 60.321 53.8172 60.1629C53.6582 60.0048 53.4561 59.8977 53.2365 59.8553C53.0169 59.8129 52.7897 59.8371 52.5838 59.9248C52.3779 60.0125 52.2026 60.1598 52.0802 60.3479C51.9577 60.536 51.8935 60.7564 51.8959 60.9812C51.8959 61.1296 51.9252 61.2765 51.982 61.4135C52.0388 61.5504 52.1221 61.6747 52.227 61.779C52.3319 61.8834 52.4564 61.9658 52.5931 62.0215C52.7299 62.0771 52.8763 62.105 53.0239 62.1034V62.1034ZM53.0239 57.5544C53.2441 57.5521 53.4587 57.4842 53.6406 57.3595C53.8226 57.2348 53.9637 57.0587 54.0463 56.8535C54.129 56.6482 54.1494 56.423 54.105 56.2062C54.0606 55.9893 53.9533 55.7904 53.7968 55.6347C53.6403 55.4789 53.4414 55.3733 53.2252 55.331C53.0091 55.2886 52.7853 55.3115 52.5821 55.3968C52.3789 55.4821 52.2053 55.6259 52.0832 55.8102C51.961 55.9944 51.8959 56.2109 51.8959 56.4323C51.8959 56.5807 51.9252 56.7276 51.982 56.8645C52.0388 57.0015 52.1221 57.1258 52.227 57.2301C52.3319 57.3345 52.4564 57.4169 52.5931 57.4726C52.7299 57.5282 52.8763 57.556 53.0239 57.5544V57.5544ZM53.0239 53.0177C53.247 53.0177 53.4651 52.9511 53.6506 52.8265C53.8361 52.7019 53.9807 52.5247 54.066 52.3175C54.1514 52.1102 54.1737 51.8822 54.1302 51.6622C54.0867 51.4422 53.9792 51.2401 53.8215 51.0815C53.6637 50.9229 53.4628 50.8148 53.244 50.7711C53.0252 50.7273 52.7984 50.7497 52.5923 50.8356C52.3861 50.9214 52.21 51.0668 52.086 51.2533C51.9621 51.4398 51.8959 51.6591 51.8959 51.8835C51.8959 52.1843 52.0147 52.4728 52.2263 52.6855C52.4378 52.8982 52.7247 53.0177 53.0239 53.0177V53.0177ZM53.0239 48.4688C53.2441 48.4664 53.4587 48.3986 53.6406 48.2738C53.8226 48.1491 53.9637 47.973 54.0463 47.7677C54.129 47.5625 54.1494 47.3373 54.105 47.1204C54.0606 46.9035 53.9533 46.7047 53.7968 46.549C53.6403 46.3933 53.4414 46.2876 53.2252 46.2453C53.0091 46.2029 52.7853 46.2258 52.5821 46.3111C52.3789 46.3964 52.2053 46.5402 52.0832 46.7245C51.961 46.9087 51.8959 47.1252 51.8959 47.3466C51.8959 47.495 51.9252 47.6419 51.982 47.7789C52.0388 47.9158 52.1221 48.04 52.227 48.1444C52.3319 48.2487 52.4564 48.3311 52.5931 48.3868C52.7299 48.4425 52.8763 48.4704 53.0239 48.4688V48.4688ZM53.0239 43.9198C53.2441 43.9175 53.4587 43.8496 53.6406 43.7249C53.8226 43.6002 53.9637 43.4241 54.0463 43.2188C54.129 43.0136 54.1494 42.7883 54.105 42.5715C54.0606 42.3546 53.9533 42.1558 53.7968 42.0001C53.6403 41.8443 53.4414 41.7387 53.2252 41.6963C53.0091 41.654 52.7853 41.6769 52.5821 41.7622C52.3789 41.8475 52.2053 41.9913 52.0832 42.1756C51.961 42.3598 51.8959 42.5763 51.8959 42.7977C51.8959 42.9461 51.9252 43.093 51.982 43.2299C52.0388 43.3669 52.1221 43.4912 52.227 43.5955C52.3319 43.6999 52.4564 43.7823 52.5931 43.838C52.7299 43.8936 52.8763 43.9214 53.0239 43.9198V43.9198Z" fill="#7542E5"/>
<path d="M53.7921 42.7857C53.7921 43.2683 53.5881 43.6545 53.3361 43.6545H50.1081C49.8561 43.6545 49.6521 43.2683 49.6521 42.7857C49.6521 42.3031 49.8561 41.9049 50.1081 41.9049H53.3361C53.5881 41.9049 53.7921 42.3031 53.7921 42.7857Z" fill="#CDD5D7"/>
<path d="M53.324 41.9049H50.42C50.3109 42.1085 50.2571 42.3374 50.264 42.5685C50.264 43.0512 50.468 43.4373 50.72 43.4373H53.024C53.276 43.4373 53.48 43.0512 53.48 42.5685C53.4869 42.3374 53.4331 42.1085 53.324 41.9049Z" fill="#E5E8EC"/>
<path d="M50.636 42.3634C50.6237 42.2108 50.6237 42.0575 50.636 41.9049H50.036C49.9268 42.1041 49.8729 42.3291 49.88 42.5564C49.88 43.0391 50.084 43.4252 50.336 43.4252H50.8281C50.6852 43.0904 50.6195 42.7274 50.636 42.3634V42.3634Z" fill="#B7BEC0"/>
<path d="M53.7921 47.3347C53.7921 47.8173 53.5881 48.2154 53.3361 48.2154H50.1081C49.8561 48.2154 49.6521 47.8173 49.6521 47.3347C49.6521 46.852 49.8561 46.4539 50.1081 46.4539H53.3361C53.5881 46.4539 53.7921 46.852 53.7921 47.3347Z" fill="#CDD5D7"/>
<path d="M53.324 46.4539H50.42C50.3125 46.658 50.2588 46.8865 50.264 47.1175C50.264 47.6001 50.468 47.9862 50.72 47.9862H53.024C53.276 47.9862 53.48 47.6001 53.48 47.1175C53.4853 46.8865 53.4316 46.658 53.324 46.4539Z" fill="#E5E8EC"/>
<path d="M50.636 46.9124C50.6237 46.7598 50.6237 46.6064 50.636 46.4539H50.036C49.9268 46.653 49.8729 46.8781 49.88 47.1054C49.88 47.588 50.084 47.9741 50.336 47.9741H50.8281C50.6852 47.6393 50.6195 47.2763 50.636 46.9124V46.9124Z" fill="#B7BEC0"/>
<path d="M53.7921 51.8836C53.7921 52.3662 53.5881 52.7643 53.3361 52.7643H50.1081C49.8561 52.7643 49.6521 52.3662 49.6521 51.8836C49.6521 51.4009 49.8561 51.0027 50.1081 51.0027H53.3361C53.5881 51.0027 53.7921 51.4009 53.7921 51.8836Z" fill="#CDD5D7"/>
<path d="M53.324 51.0027H50.42C50.3125 51.2068 50.2588 51.4354 50.264 51.6664C50.264 52.149 50.468 52.5472 50.72 52.5472H53.024C53.276 52.5472 53.48 52.149 53.48 51.6664C53.4853 51.4354 53.4316 51.2068 53.324 51.0027Z" fill="#E5E8EC"/>
<path d="M50.636 51.4612C50.6237 51.3086 50.6237 51.1553 50.636 51.0027H50.036C49.9268 51.2019 49.8729 51.427 49.88 51.6543C49.88 52.1369 50.084 52.5351 50.336 52.5351H50.8281C50.6834 52.1966 50.6176 51.8292 50.636 51.4612Z" fill="#B7BEC0"/>
<path d="M53.7921 56.4565C53.7921 56.9391 53.5881 57.3373 53.3361 57.3373H50.1081C49.8561 57.3373 49.6521 56.9391 49.6521 56.4565C49.6521 55.9738 49.8561 55.5878 50.1081 55.5878H53.3361C53.5881 55.5878 53.7921 55.9738 53.7921 56.4565Z" fill="#CDD5D7"/>
<path d="M53.324 55.5636H50.4201C50.3108 55.7628 50.2569 55.9878 50.2641 56.2151C50.2641 56.6978 50.4681 57.096 50.7201 57.096H53.024C53.276 57.096 53.48 56.6978 53.48 56.2151C53.4872 55.9878 53.4333 55.7628 53.324 55.5636Z" fill="#E5E8EC"/>
<path d="M50.6358 56.01C50.6235 55.8615 50.6235 55.7122 50.6358 55.5636H50.0358C49.9298 55.764 49.8761 55.9882 49.8798 56.2151C49.8798 56.6978 50.0838 57.096 50.3358 57.096H50.8279C50.6779 56.7548 50.6119 56.3823 50.6358 56.01Z" fill="#B7BEC0"/>
<path d="M53.7921 60.9813C53.7921 61.476 53.5881 61.8621 53.3361 61.8621H50.1081C49.8561 61.8621 49.6521 61.476 49.6521 60.9813C49.6521 60.4986 49.8561 60.1125 50.1081 60.1125H53.3361C53.5881 60.1125 53.7921 60.4986 53.7921 60.9813Z" fill="#CDD5D7"/>
<path d="M53.324 60.0763H50.4201C50.3108 60.2755 50.2569 60.5005 50.2641 60.7278C50.2641 61.2225 50.4681 61.6087 50.7201 61.6087H53.024C53.276 61.6087 53.48 61.2225 53.48 60.7278C53.4872 60.5005 53.4333 60.2755 53.324 60.0763Z" fill="#E5E8EC"/>
<path d="M50.6359 60.571C50.6231 60.4184 50.6231 60.2651 50.6359 60.1125H50.0359C49.926 60.3071 49.872 60.5284 49.8799 60.752C49.8799 61.2467 50.0839 61.6328 50.3359 61.6328H50.828C50.6851 61.298 50.6194 60.935 50.6359 60.571V60.571Z" fill="#B7BEC0"/>
<path d="M53.7921 65.5422C53.7921 66.0249 53.5881 66.411 53.3361 66.411H50.1081C49.8561 66.411 49.6521 66.0249 49.6521 65.5422C49.6521 65.0596 49.8561 64.6614 50.1081 64.6614H53.3361C53.5881 64.6614 53.7921 65.0596 53.7921 65.5422Z" fill="#CDD5D7"/>
<path d="M53.324 64.6614H50.42C50.3109 64.865 50.2571 65.0938 50.264 65.325C50.264 65.8076 50.468 66.1938 50.72 66.1938H53.024C53.276 66.1938 53.48 65.8076 53.48 65.325C53.4869 65.0938 53.4331 64.865 53.324 64.6614V64.6614Z" fill="#E5E8EC"/>
<path d="M50.636 65.1199C50.6237 64.9673 50.6237 64.814 50.636 64.6614H50.036C49.9268 64.8605 49.8729 65.0857 49.88 65.313C49.88 65.7956 50.084 66.1817 50.336 66.1817H50.8281C50.6852 65.8469 50.6195 65.4839 50.636 65.1199V65.1199Z" fill="#B7BEC0"/>
<path d="M53.7921 70.0911C53.7921 70.5738 53.5881 70.972 53.3361 70.972H50.1081C49.8561 70.972 49.6521 70.5738 49.6521 70.0911C49.6521 69.6085 49.8561 69.2103 50.1081 69.2103H53.3361C53.5881 69.2103 53.7921 69.6085 53.7921 70.0911Z" fill="#CDD5D7"/>
<path d="M53.324 69.2103H50.42C50.3125 69.4145 50.2588 69.643 50.264 69.8739C50.264 70.3566 50.468 70.7427 50.72 70.7427H53.024C53.276 70.7427 53.48 70.3566 53.48 69.8739C53.4853 69.643 53.4316 69.4145 53.324 69.2103V69.2103Z" fill="#E5E8EC"/>
<path d="M50.636 69.7291C50.6237 69.5766 50.6237 69.4232 50.636 69.2706H50.036C49.9268 69.4698 49.8729 69.6948 49.88 69.9222C49.88 70.4048 50.084 70.791 50.336 70.791H50.8281C50.6852 70.4561 50.6195 70.0931 50.636 69.7291Z" fill="#B7BEC0"/>
<path d="M53.7921 74.6401C53.7921 75.1227 53.5881 75.5209 53.3361 75.5209H50.1081C49.8561 75.5209 49.6521 75.1227 49.6521 74.6401C49.6521 74.1574 49.8561 73.7593 50.1081 73.7593H53.3361C53.5881 73.7593 53.7921 74.1574 53.7921 74.6401Z" fill="#CDD5D7"/>
<path d="M53.324 73.7593H50.42C50.3125 73.9634 50.2588 74.1919 50.264 74.4229C50.264 74.9055 50.468 75.3037 50.72 75.3037H53.024C53.276 75.3037 53.48 74.9055 53.48 74.4229C53.4853 74.1919 53.4316 73.9634 53.324 73.7593Z" fill="#E5E8EC"/>
<path d="M50.636 74.2177C50.6237 74.0651 50.6237 73.9119 50.636 73.7593H50.036C49.9268 73.9584 49.8729 74.1835 49.88 74.4108C49.88 74.8935 50.084 75.2916 50.336 75.2916H50.8281C50.6834 74.9531 50.6176 74.5857 50.636 74.2177V74.2177Z" fill="#B7BEC0"/>
<path d="M53.7921 79.189C53.7921 79.6837 53.5881 80.0698 53.3361 80.0698H50.1081C49.8561 80.0698 49.6521 79.6837 49.6521 79.189C49.6521 78.7063 49.8561 78.3202 50.1081 78.3202H53.3361C53.5881 78.3202 53.7921 78.7063 53.7921 79.189Z" fill="#CDD5D7"/>
<path d="M53.324 78.3202H50.4201C50.3108 78.5194 50.2569 78.7444 50.2641 78.9717C50.2641 79.4544 50.4681 79.8526 50.7201 79.8526H53.024C53.276 79.8526 53.48 79.4544 53.48 78.9717C53.4872 78.7444 53.4333 78.5194 53.324 78.3202Z" fill="#E5E8EC"/>
<path d="M50.636 78.7787C50.6232 78.6261 50.6232 78.4728 50.636 78.3202H50.036C49.9284 78.52 49.8746 78.7446 49.88 78.9717C49.88 79.4544 50.084 79.8526 50.336 79.8526H50.8281C50.6795 79.5152 50.6136 79.147 50.636 78.7787V78.7787Z" fill="#B7BEC0"/>
<path d="M53.7921 83.7499C53.7921 84.2326 53.5881 84.6187 53.3361 84.6187H50.1081C49.8561 84.6187 49.6521 84.2326 49.6521 83.7499C49.6521 83.2552 49.8561 82.8691 50.1081 82.8691H53.3361C53.5881 82.8691 53.7921 83.2552 53.7921 83.7499Z" fill="#CDD5D7"/>
<path d="M53.324 82.8691H50.4201C50.3108 83.0683 50.2569 83.2933 50.2641 83.5207C50.2641 84.0033 50.4681 84.4015 50.7201 84.4015H53.024C53.276 84.4015 53.48 84.0033 53.48 83.5207C53.4872 83.2933 53.4333 83.0683 53.324 82.8691Z" fill="#E5E8EC"/>
<path d="M50.6358 83.3277C50.623 83.1751 50.623 83.0217 50.6358 82.8691H50.0358C49.9298 83.0695 49.8761 83.2937 49.8798 83.5207C49.8798 84.0033 50.0838 84.4015 50.3358 84.4015H50.8279C50.6832 84.0629 50.6175 83.6957 50.6358 83.3277V83.3277Z" fill="#B7BEC0"/>
<path d="M53.7921 88.2988C53.7921 88.7815 53.5881 89.1676 53.3361 89.1676H50.1081C49.8561 89.1676 49.6521 88.7815 49.6521 88.2988C49.6521 87.8162 49.8561 87.418 50.1081 87.418H53.3361C53.5881 87.418 53.7921 87.8162 53.7921 88.2988Z" fill="#CDD5D7"/>
<path d="M53.324 87.418H50.42C50.3109 87.6215 50.2571 87.8505 50.264 88.0817C50.264 88.5643 50.468 88.9504 50.72 88.9504H53.024C53.276 88.9504 53.48 88.5643 53.48 88.0817C53.4869 87.8505 53.4331 87.6215 53.324 87.418Z" fill="#E5E8EC"/>
<path d="M50.636 87.8281C50.6237 87.6756 50.6237 87.5222 50.636 87.3696H50.036C49.9268 87.5688 49.8729 87.7938 49.88 88.0212C49.88 88.5038 50.084 88.89 50.336 88.89H50.8281C50.6852 88.5551 50.6195 88.1921 50.636 87.8281Z" fill="#B7BEC0"/>
<path d="M53.7921 92.8476C53.7921 93.3302 53.5881 93.7285 53.3361 93.7285H50.1081C49.8561 93.7285 49.6521 93.3302 49.6521 92.8476C49.6521 92.365 49.8561 91.9668 50.1081 91.9668H53.3361C53.5881 91.9668 53.7921 92.365 53.7921 92.8476Z" fill="#CDD5D7"/>
<path d="M53.324 91.9668H50.42C50.3125 92.171 50.2588 92.3994 50.264 92.6304C50.264 93.1131 50.468 93.4992 50.72 93.4992H53.024C53.276 93.4992 53.48 93.1131 53.48 92.6304C53.4853 92.3994 53.4316 92.171 53.324 91.9668Z" fill="#E5E8EC"/>
<path d="M50.636 92.4253C50.6237 92.2727 50.6237 92.1194 50.636 91.9668H50.036C49.9268 92.166 49.8729 92.391 49.88 92.6183C49.88 93.101 50.084 93.4871 50.336 93.4871H50.8281C50.6852 93.1523 50.6195 92.7893 50.636 92.4253Z" fill="#B7BEC0"/>
<path d="M53.7921 97.3965C53.7921 97.8792 53.5881 98.2774 53.3361 98.2774H50.1081C49.8561 98.2774 49.6521 97.8792 49.6521 97.3965C49.6521 96.9139 49.8561 96.5157 50.1081 96.5157H53.3361C53.5881 96.5157 53.7921 96.9139 53.7921 97.3965Z" fill="#CDD5D7"/>
<path d="M53.324 96.5157H50.42C50.3125 96.7199 50.2588 96.9484 50.264 97.1794C50.264 97.662 50.468 98.0602 50.72 98.0602H53.024C53.276 98.0602 53.48 97.662 53.48 97.1794C53.4853 96.9484 53.4316 96.7199 53.324 96.5157V96.5157Z" fill="#E5E8EC"/>
<path d="M50.636 96.9743C50.6237 96.8217 50.6237 96.6683 50.636 96.5157H50.036C49.9268 96.7149 49.8729 96.94 49.88 97.1673C49.88 97.6499 50.084 98.0481 50.336 98.0481H50.8281C50.6834 97.7096 50.6176 97.3423 50.636 96.9743Z" fill="#B7BEC0"/>
<path d="M53.7921 101.945C53.7921 102.428 53.5881 102.826 53.3361 102.826H50.1081C49.8561 102.826 49.6521 102.428 49.6521 101.945C49.6521 101.463 49.8561 101.077 50.1081 101.077H53.3361C53.5881 101.077 53.7921 101.463 53.7921 101.945Z" fill="#CDD5D7"/>
<path d="M53.324 101.101H50.4201C50.3108 101.3 50.2569 101.525 50.2641 101.752C50.2641 102.235 50.4681 102.633 50.7201 102.633H53.024C53.276 102.633 53.48 102.235 53.48 101.752C53.4872 101.525 53.4333 101.3 53.324 101.101V101.101Z" fill="#E5E8EC"/>
<path d="M50.636 101.523C50.6237 101.375 50.6237 101.225 50.636 101.077H50.036C49.9284 101.276 49.8746 101.501 49.88 101.728C49.88 102.211 50.084 102.609 50.336 102.609H50.8281C50.678 102.268 50.6121 101.895 50.636 101.523Z" fill="#B7BEC0"/>
<path d="M53.7921 106.506C53.7921 106.989 53.5881 107.375 53.3361 107.375H50.1081C49.8561 107.375 49.6521 106.989 49.6521 106.506C49.6521 106.012 49.8561 105.626 50.1081 105.626H53.3361C53.5881 105.626 53.7921 106.012 53.7921 106.506Z" fill="#CDD5D7"/>
<path d="M53.324 105.626H50.4201C50.3108 105.825 50.2569 106.05 50.2641 106.277C50.2641 106.76 50.4681 107.158 50.7201 107.158H53.024C53.276 107.158 53.48 106.76 53.48 106.277C53.4872 106.05 53.4333 105.825 53.324 105.626Z" fill="#E5E8EC"/>
<path d="M50.6358 106.084C50.623 105.932 50.623 105.778 50.6358 105.626H50.0358C49.9298 105.826 49.8761 106.05 49.8798 106.277C49.8798 106.76 50.0838 107.158 50.3358 107.158H50.8279C50.6832 106.819 50.6175 106.452 50.6358 106.084Z" fill="#B7BEC0"/>
<path d="M53.7921 111.055C53.7921 111.538 53.5881 111.924 53.3361 111.924H50.1081C49.8561 111.924 49.6521 111.538 49.6521 111.055C49.6521 110.573 49.8561 110.175 50.1081 110.175H53.3361C53.5881 110.175 53.7921 110.573 53.7921 111.055Z" fill="#CDD5D7"/>
<path d="M53.324 110.175H50.42C50.3109 110.378 50.2571 110.607 50.264 110.838C50.264 111.321 50.468 111.707 50.72 111.707H53.024C53.276 111.707 53.48 111.321 53.48 110.838C53.4869 110.607 53.4331 110.378 53.324 110.175Z" fill="#E5E8EC"/>
<path d="M50.636 110.633C50.6232 110.481 50.6232 110.327 50.636 110.175H50.036C49.9268 110.374 49.8729 110.599 49.88 110.826C49.88 111.309 50.084 111.695 50.336 111.695H50.8281C50.6852 111.36 50.6195 110.997 50.636 110.633V110.633Z" fill="#B7BEC0"/>
<path d="M53.7921 115.58C53.7921 116.063 53.5881 116.461 53.3361 116.461H50.1081C49.8561 116.461 49.6521 116.063 49.6521 115.58C49.6521 115.097 49.8561 114.699 50.1081 114.699H53.3361C53.5881 114.699 53.7921 115.097 53.7921 115.58Z" fill="#CDD5D7"/>
<path d="M53.324 114.723H50.42C50.3109 114.927 50.2571 115.156 50.264 115.387C50.264 115.87 50.468 116.256 50.72 116.256H53.024C53.276 116.256 53.48 115.87 53.48 115.387C53.4869 115.156 53.4331 114.927 53.324 114.723Z" fill="#E5E8EC"/>
<path d="M50.636 115.182C50.6237 115.029 50.6237 114.876 50.636 114.723H50.036C49.9268 114.923 49.8729 115.148 49.88 115.375C49.88 115.858 50.084 116.244 50.336 116.244H50.8281C50.6852 115.909 50.6195 115.546 50.636 115.182V115.182Z" fill="#B7BEC0"/>
<path d="M53.7921 120.153C53.7921 120.636 53.5881 121.034 53.3361 121.034H50.1081C49.8561 121.034 49.6521 120.636 49.6521 120.153C49.6521 119.67 49.8561 119.272 50.1081 119.272H53.3361C53.5881 119.272 53.7921 119.67 53.7921 120.153Z" fill="#CDD5D7"/>
<path d="M53.324 119.272H50.42C50.3125 119.476 50.2588 119.705 50.264 119.936C50.264 120.418 50.468 120.817 50.72 120.817H53.024C53.276 120.817 53.48 120.418 53.48 119.936C53.4853 119.705 53.4316 119.476 53.324 119.272Z" fill="#E5E8EC"/>
<path d="M50.636 119.731C50.6237 119.578 50.6237 119.425 50.636 119.272H50.036C49.9268 119.471 49.8729 119.696 49.88 119.924C49.88 120.406 50.084 120.805 50.336 120.805H50.8281C50.6834 120.466 50.6176 120.099 50.636 119.731V119.731Z" fill="#B7BEC0"/>
<path d="M53.7921 124.702C53.7921 125.185 53.5881 125.583 53.3361 125.583H50.1081C49.8561 125.583 49.6521 125.185 49.6521 124.702C49.6521 124.219 49.8561 123.833 50.1081 123.833H53.3361C53.5881 123.833 53.7921 124.219 53.7921 124.702Z" fill="#CDD5D7"/>
<path d="M53.324 123.833H50.4201C50.3108 124.032 50.2569 124.257 50.2641 124.485C50.2641 124.967 50.4681 125.366 50.7201 125.366H53.024C53.276 125.366 53.48 124.967 53.48 124.485C53.4872 124.257 53.4333 124.032 53.324 123.833Z" fill="#E5E8EC"/>
<path d="M50.636 124.28C50.6237 124.131 50.6237 123.982 50.636 123.833H50.036C49.9284 124.033 49.8746 124.258 49.88 124.485C49.88 124.967 50.084 125.366 50.336 125.366H50.8281C50.678 125.024 50.6121 124.652 50.636 124.28V124.28Z" fill="#B7BEC0"/>
<path d="M53.7921 129.263C53.7921 129.746 53.5881 130.132 53.3361 130.132H50.1081C49.8561 130.132 49.6521 129.746 49.6521 129.263C49.6521 128.768 49.8561 128.382 50.1081 128.382H53.3361C53.5881 128.382 53.7921 128.768 53.7921 129.263Z" fill="#CDD5D7"/>
<path d="M53.324 128.382H50.4201C50.3108 128.581 50.2569 128.806 50.2641 129.034C50.2641 129.516 50.4681 129.914 50.7201 129.914H53.024C53.276 129.914 53.48 129.516 53.48 129.034C53.4872 128.806 53.4333 128.581 53.324 128.382Z" fill="#E5E8EC"/>
<path d="M50.6358 128.853C50.623 128.7 50.623 128.547 50.6358 128.394H50.0358C49.9298 128.595 49.8761 128.819 49.8798 129.046C49.8798 129.528 50.0838 129.927 50.3358 129.927H50.8279C50.6832 129.588 50.6175 129.221 50.6358 128.853V128.853Z" fill="#B7BEC0"/>
<path d="M53.7921 133.812C53.7921 134.294 53.5881 134.681 53.3361 134.681H50.1081C49.8561 134.681 49.6521 134.294 49.6521 133.812C49.6521 133.329 49.8561 132.931 50.1081 132.931H53.3361C53.5881 132.931 53.7921 133.329 53.7921 133.812Z" fill="#CDD5D7"/>
<path d="M53.324 132.931H50.42C50.3124 133.131 50.2587 133.355 50.264 133.583C50.264 134.077 50.468 134.463 50.72 134.463H53.024C53.276 134.463 53.48 134.077 53.48 133.583C53.4854 133.355 53.4316 133.131 53.324 132.931V132.931Z" fill="#E5E8EC"/>
<path d="M50.6359 133.39C50.6231 133.237 50.6231 133.084 50.6359 132.931H50.0359C49.926 133.126 49.872 133.347 49.8799 133.57C49.8799 134.065 50.0839 134.451 50.3359 134.451H50.828C50.6851 134.117 50.6194 133.754 50.6359 133.39Z" fill="#B7BEC0"/>
<path d="M53.7921 138.361C53.7921 138.843 53.5881 139.242 53.3361 139.242H50.1081C49.8561 139.242 49.6521 138.843 49.6521 138.361C49.6521 137.878 49.8561 137.48 50.1081 137.48H53.3361C53.5881 137.48 53.7921 137.878 53.7921 138.361Z" fill="#CDD5D7"/>
<path d="M53.324 137.48H50.42C50.3125 137.684 50.2588 137.913 50.264 138.144C50.264 138.626 50.468 139.012 50.72 139.012H53.024C53.276 139.012 53.48 138.626 53.48 138.144C53.4853 137.913 53.4316 137.684 53.324 137.48Z" fill="#E5E8EC"/>
<path d="M50.636 137.938C50.6237 137.786 50.6237 137.633 50.636 137.48H50.036C49.9268 137.679 49.8729 137.904 49.88 138.132C49.88 138.614 50.084 139 50.336 139H50.8281C50.6852 138.665 50.6195 138.302 50.636 137.938Z" fill="#B7BEC0"/>
<path d="M53.7921 142.91C53.7921 143.392 53.5881 143.79 53.3361 143.79H50.1081C49.8561 143.79 49.6521 143.392 49.6521 142.91C49.6521 142.427 49.8561 142.029 50.1081 142.029H53.3361C53.5881 142.029 53.7921 142.427 53.7921 142.91Z" fill="#CDD5D7"/>
<path d="M53.324 142.029H50.42C50.3125 142.233 50.2588 142.461 50.264 142.692C50.264 143.175 50.468 143.573 50.72 143.573H53.024C53.276 143.573 53.48 143.175 53.48 142.692C53.4853 142.461 53.4316 142.233 53.324 142.029Z" fill="#E5E8EC"/>
<path d="M50.636 142.487C50.6237 142.335 50.6237 142.181 50.636 142.029H50.036C49.9268 142.228 49.8729 142.453 49.88 142.68C49.88 143.163 50.084 143.561 50.336 143.561H50.8281C50.6834 143.223 50.6176 142.855 50.636 142.487V142.487Z" fill="#B7BEC0"/>
<path d="M149.087 31.1302L83.5295 26.2913L76.6486 119.513L142.206 124.352L149.087 31.1302Z" fill="#E5E8EC"/>
<path d="M133.919 108.484L85.6787 104.923L85.6148 105.789L133.856 109.35L133.919 108.484Z" fill="#B7BEC0"/>
<path d="M135.049 110.14L85.5632 106.487L85.5002 107.342L134.986 110.994L135.049 110.14Z" fill="#B7BEC0"/>
<path d="M133.891 111.64L85.447 108.064L85.384 108.918L133.828 112.494L133.891 111.64Z" fill="#B7BEC0"/>
<path d="M114.639 111.803L85.3306 109.64L85.2666 110.507L114.575 112.67L114.639 111.803Z" fill="#B7BEC0"/>
<path d="M137.966 69.3161L88.4924 65.6643L88.4294 66.5187L137.903 70.1704L137.966 69.3161Z" fill="#B7BEC0"/>
<path d="M137.239 70.8474L88.376 67.2407L88.312 68.1071L137.175 71.7138L137.239 70.8474Z" fill="#B7BEC0"/>
<path d="M137.733 72.4688L88.2595 68.817L88.1965 69.6714L137.67 73.3231L137.733 72.4688Z" fill="#B7BEC0"/>
<path d="M137.617 74.0331L88.144 70.3813L88.081 71.2357L137.554 74.8875L137.617 74.0331Z" fill="#B7BEC0"/>
<path d="M136.687 75.5495L88.0278 71.9578L87.9639 72.8242L136.623 76.4159L136.687 75.5495Z" fill="#B7BEC0"/>
<path d="M137.385 77.1858L87.9114 73.5341L87.8483 74.3884L137.322 78.0402L137.385 77.1858Z" fill="#B7BEC0"/>
<path d="M136.036 78.6711L87.7952 75.1104L87.7321 75.9647L135.973 79.5255L136.036 78.6711Z" fill="#B7BEC0"/>
<path d="M137.153 80.3264L87.6797 76.6747L87.6166 77.5291L137.09 81.1808L137.153 80.3264Z" fill="#B7BEC0"/>
<path d="M136.007 81.8269L87.5632 78.2511L87.5002 79.1055L135.944 82.6813L136.007 81.8269Z" fill="#B7BEC0"/>
<path d="M134.56 101.441L86.1155 97.8654L86.0933 98.1662L134.537 101.742L134.56 101.441Z" fill="#B7BEC0"/>
<path d="M97.9664 80.6039L87.447 79.8274L87.384 80.6818L97.9033 81.4582L97.9664 80.6039Z" fill="#B7BEC0"/>
<path d="M138.996 55.3695L106.911 53.0012L106.848 53.8556L138.933 56.2238L138.996 55.3695Z" fill="#B7BEC0"/>
<path d="M137.754 56.8629L106.795 54.5776L106.732 55.432L137.691 57.7172L137.754 56.8629Z" fill="#B7BEC0"/>
<path d="M138.764 58.5101L106.679 56.1418L106.616 56.9962L138.701 59.3645L138.764 58.5101Z" fill="#B7BEC0"/>
<path d="M137.714 60.0176L106.563 57.7183L106.5 58.5726L137.651 60.872L137.714 60.0176Z" fill="#B7BEC0"/>
<path d="M115.231 59.9431L106.447 59.2947L106.383 60.149L115.168 60.7974L115.231 59.9431Z" fill="#B7BEC0"/>
<path d="M139.727 45.4541L90.2537 41.8024L90.1906 42.6567L139.664 46.3085L139.727 45.4541Z" fill="#B7BEC0"/>
<path d="M131.21 46.3982L90.1382 43.3666L90.0751 44.2209L131.147 47.2526L131.21 46.3982Z" fill="#B7BEC0"/>
<path d="M122.306 37.9251L90.7119 35.593L90.6089 36.9889L122.203 39.3209L122.306 37.9251Z" fill="#969C9E"/>
<path d="M127.314 51.422L107.018 49.9238L106.915 51.3197L127.211 52.8179L127.314 51.422Z" fill="#969C9E"/>
<path d="M136.331 91.4693L104.246 89.1011L104.183 89.9554L136.268 92.3237L136.331 91.4693Z" fill="#B7BEC0"/>
<path d="M135.09 92.9627L104.13 90.6775L104.066 91.5439L135.026 93.8291L135.09 92.9627Z" fill="#B7BEC0"/>
<path d="M136.098 94.6222L104.014 92.2539L103.951 93.1083L136.035 95.4765L136.098 94.6222Z" fill="#B7BEC0"/>
<path d="M135.048 96.1296L103.897 93.8302L103.834 94.6846L134.985 96.9839L135.048 96.1296Z" fill="#B7BEC0"/>
<path d="M126.089 97.0411L103.782 95.3945L103.719 96.2489L126.026 97.8954L126.089 97.0411Z" fill="#B7BEC0"/>
<path d="M92.536 101.037L88.2996 100.725L88.2365 101.579L92.473 101.892L92.536 101.037Z" fill="#B7BEC0"/>
<path d="M100.829 101.649L96.5925 101.337L96.5295 102.191L100.766 102.504L100.829 101.649Z" fill="#B7BEC0"/>
<path d="M109.11 102.261L104.874 101.948L104.81 102.802L109.047 103.115L109.11 102.261Z" fill="#B7BEC0"/>
<path d="M117.404 102.873L113.167 102.56L113.104 103.415L117.341 103.727L117.404 102.873Z" fill="#B7BEC0"/>
<path d="M118.378 87.0712L104.352 86.0359L104.249 87.4317L118.275 88.467L118.378 87.0712Z" fill="#969C9E"/>
<path d="M99.0129 57.1367C98.847 57.5725 98.5879 57.9664 98.254 58.2906L100.293 61.6353C101.542 60.7161 102.448 59.4027 102.867 57.9051L99.0129 57.1367Z" fill="#B7BEC0"/>
<path d="M96.9882 52.9342C97.6141 53.1322 98.1621 53.523 98.555 54.0513C98.9478 54.5796 99.1655 55.2188 99.1774 55.8786L103.035 56.5988C103.035 56.5988 103.041 56.5146 103.045 56.4665C103.169 54.7161 102.639 52.9824 101.559 51.6048C100.479 50.2273 98.9267 49.3048 97.2051 49.0181L96.9882 52.9342Z" fill="#484F59"/>
<path d="M93.9499 53.6779C94.4256 53.2143 95.039 52.9196 95.6964 52.8389L95.9851 48.928C94.9819 48.9452 93.9939 49.1787 93.088 49.6128C92.182 50.0469 91.3791 50.6714 90.7336 51.4442L93.9499 53.6779Z" fill="#01C6DA"/>
<path d="M97.1761 58.8766C96.786 59.0149 96.3727 59.0748 95.9598 59.0529C95.5495 59.0242 95.1489 58.9146 94.7809 58.7302C94.4128 58.5458 94.0846 58.2903 93.8149 57.9783C93.5451 57.6663 93.3393 57.3039 93.209 56.9117C93.0786 56.5196 93.0264 56.1054 93.0553 55.6929C93.0858 55.3488 93.1717 55.0119 93.3094 54.6954L90.093 52.4616C89.3574 53.7709 89.0581 55.2825 89.239 56.7746C89.4199 58.2667 90.0715 59.6609 91.0984 60.7528C92.1252 61.8447 93.4732 62.5768 94.9447 62.8419C96.4163 63.1069 97.934 62.891 99.2752 62.2256L97.1761 58.8766Z" fill="#FF876C"/>
<path d="M88.8798 92.2015L86.4265 92.0204L86.1245 96.1117L88.5779 96.2928L88.8798 92.2015Z" fill="#484F59"/>
<path d="M92.8457 88.5258L90.3923 88.3447L89.7999 96.3709L92.2532 96.552L92.8457 88.5258Z" fill="#B7BEC0"/>
<path d="M96.4279 90.2057L93.9746 90.0247L93.4861 96.643L95.9394 96.8241L96.4279 90.2057Z" fill="#FF876C"/>
<path d="M100.424 86.1088L97.9707 85.9277L97.1598 96.9141L99.6131 97.0952L100.424 86.1088Z" fill="#01C6DA"/>
<path d="M87.5148 100.267L85.8872 100.147L85.7664 101.784L87.394 101.904L87.5148 100.267Z" fill="#FF876C"/>
<path d="M95.7843 100.878L94.1567 100.758L94.0359 102.394L95.6635 102.514L95.7843 100.878Z" fill="#484F59"/>
<path d="M104.054 101.488L102.426 101.368L102.305 103.005L103.933 103.125L104.054 101.488Z" fill="#B7BEC0"/>
<path d="M112.312 102.098L110.684 101.978L110.563 103.614L112.191 103.734L112.312 102.098Z" fill="#01C6DA"/>
<path d="M42.0921 130.397V128.105H38.0481V130.397C38.0481 130.516 38.0949 130.629 38.1782 130.713C38.2614 130.797 38.3743 130.844 38.4921 130.844H41.6481C41.7069 130.845 41.7653 130.835 41.8199 130.813C41.8745 130.791 41.9242 130.758 41.9657 130.717C42.0073 130.675 42.04 130.625 42.0617 130.57C42.0834 130.515 42.0937 130.456 42.0921 130.397V130.397Z" fill="#FF876C"/>
<path d="M41.54 130.361V128.105H39.824V130.361C39.8255 130.389 39.8326 130.417 39.8449 130.443C39.8572 130.469 39.8745 130.492 39.8957 130.511C39.9169 130.53 39.9416 130.545 39.9684 130.554C39.9952 130.564 40.0236 130.568 40.052 130.566H41.324C41.3518 130.568 41.3796 130.564 41.4058 130.554C41.4319 130.544 41.4559 130.53 41.4761 130.51C41.4963 130.491 41.5124 130.468 41.5234 130.442C41.5344 130.417 41.54 130.389 41.54 130.361V130.361Z" fill="#FFA38F"/>
<path d="M38.9961 128.105H38.0481V130.397C38.0481 130.516 38.0949 130.629 38.1782 130.713C38.2614 130.797 38.3743 130.844 38.4921 130.844H38.9961V128.105Z" fill="#E36E54"/>
<path d="M42.1521 120.406V55.7808C41.9139 55.8079 41.6916 55.9139 41.5199 56.0821C41.3483 56.2503 41.2372 56.4712 41.2041 56.7099V120.406H42.1521Z" fill="#30363D"/>
<path d="M38.948 120.407H41.204V56.71C41.1646 56.4406 41.0302 56.1945 40.8253 56.0166C40.6205 55.8387 40.3587 55.7407 40.088 55.7407C39.8173 55.7407 39.5556 55.8387 39.3507 56.0166C39.1458 56.1945 39.0114 56.4406 38.972 56.71L38.948 120.407Z" fill="#596273"/>
<path d="M38.948 56.7099C38.9149 56.4712 38.8038 56.2503 38.6322 56.0821C38.4605 55.9139 38.2381 55.8079 38 55.7808V120.406H38.948V56.7099Z" fill="#30363D"/>
<path d="M38 55.7808C38.2374 55.8099 38.4587 55.9166 38.63 56.0844C38.8012 56.2523 38.9129 56.472 38.948 56.7099V56.7099C38.9874 56.4406 39.1217 56.1945 39.3266 56.0165C39.5315 55.8386 39.7932 55.7407 40.064 55.7407C40.3347 55.7407 40.5964 55.8386 40.8013 56.0165C41.0062 56.1945 41.1406 56.4406 41.18 56.7099V56.7099C41.213 56.4712 41.3241 56.2504 41.4958 56.0822C41.6674 55.914 41.8899 55.8079 42.128 55.7808L40.052 47.226L38 55.7808Z" fill="#E5E8EC"/>
<path d="M38 55.7808C38.2374 55.8099 38.4587 55.9166 38.63 56.0844C38.8012 56.2523 38.9129 56.472 38.948 56.7099V56.7099C38.948 56.179 40.064 47.226 40.064 47.226L38 55.7808Z" fill="#CDD5D7"/>
<path d="M42.1279 120.346H38.0239V128.189H42.1279V120.346Z" fill="#F0CA67"/>
<path d="M40.7721 120.346H39.9321V128.189H40.7721V120.346Z" fill="#F4DA80"/>
<path d="M39.4519 49.8081C39.6477 49.8205 39.8441 49.8205 40.0399 49.8081C40.2595 49.8265 40.4803 49.8265 40.7 49.8081L40.0759 47.238L39.4519 49.8081Z" fill="#30363D"/>
<path d="M42.0199 121.167H41.7559V122.301H42.0199V121.167Z" fill="#F4DA80"/>
<path d="M41.42 121.167H41.156V122.301H41.42V121.167Z" fill="#F4DA80"/>
<path d="M40.8079 121.167H40.5439V122.301H40.8079V121.167Z" fill="#F0CA67"/>
<path d="M40.2081 121.167H39.9441V122.301H40.2081V121.167Z" fill="#F0CA67"/>
<path d="M39.608 121.167H39.344V122.301H39.608V121.167Z" fill="#F4DA80"/>
<path d="M39.0079 121.167H38.7439V122.301H39.0079V121.167Z" fill="#F4DA80"/>
<path d="M38.408 121.167H38.144V122.301H38.408V121.167Z" fill="#F4DA80"/>
<path d="M42.0199 125.969H41.7559V127.103H42.0199V125.969Z" fill="#F4DA80"/>
<path d="M41.42 125.969H41.156V127.103H41.42V125.969Z" fill="#F4DA80"/>
<path d="M40.8079 125.969H40.5439V127.103H40.8079V125.969Z" fill="#F0CA67"/>
<path d="M40.2081 125.969H39.9441V127.103H40.2081V125.969Z" fill="#F0CA67"/>
<path d="M39.608 125.969H39.344V127.103H39.608V125.969Z" fill="#F4DA80"/>
<path d="M39.0079 125.969H38.7439V127.103H39.0079V125.969Z" fill="#F4DA80"/>
<path d="M38.408 125.969H38.144V127.103H38.408V125.969Z" fill="#F4DA80"/>
<path d="M181.441 55.3651C183.685 55.9081 184.573 56.6924 184.633 57.2474C184.637 57.416 184.607 57.5836 184.543 57.7395C184.478 57.8954 184.383 58.036 184.261 58.1524C183.061 59.6485 179.461 61.0844 175.093 61.9531C175.093 62.2186 174.985 62.4961 174.913 62.7615C181.153 61.5549 185.605 59.2745 185.377 57.1629C185.257 56.0408 183.817 55.1599 181.537 54.6169C181.522 54.8682 181.49 55.1182 181.441 55.3651V55.3651Z" fill="#E5E8EC"/>
<path d="M168.122 62.0013C167.738 60.6741 172.25 61.8806 176.342 59.2382C180.614 56.463 184.514 55.7149 184.91 57.0542C185.306 58.3936 181.85 60.5775 177.218 61.8806C172.586 63.1838 168.518 63.3407 168.122 62.0013Z" fill="#CDD5D7"/>
<path d="M166.49 60.4691C166.106 59.1297 170.618 60.3364 174.698 57.6939C178.982 54.9308 182.882 54.1827 183.278 55.5099C183.674 56.8372 180.218 59.0332 175.538 60.3846C170.858 61.736 166.874 61.7963 166.49 60.4691Z" fill="#B7BEC0"/>
<path d="M177.674 58.4299C180.65 56.7527 183.266 56.1132 184.37 56.5355C184.705 56.5105 185.037 56.6188 185.294 56.8372C184.729 55.205 184.006 53.6328 183.134 52.1435H183.014C182.054 51.5522 179.03 52.3366 175.622 54.3757C176.632 55.5338 177.337 56.9275 177.674 58.4299V58.4299Z" fill="#E5E8EC"/>
<path d="M178.778 56.9095C178.31 55.7508 177.718 54.6464 177.014 53.6155C176.57 53.8447 176.102 54.1102 175.622 54.3877C176.434 55.3157 177.05 56.3992 177.434 57.5731C177.938 57.3318 178.346 57.1025 178.778 56.9095Z" fill="#CDD5D7"/>
<path d="M152.162 81.1382C149.101 79.448 146.607 76.8834 144.994 73.7683C143.382 70.6533 142.725 67.1276 143.105 63.637C143.485 60.1463 144.885 56.8472 147.129 54.1566C149.374 51.466 152.361 49.5047 155.713 48.5205C159.065 47.5362 162.632 47.5732 165.964 48.6267C169.295 49.6803 172.241 51.7032 174.43 54.4398C176.618 57.1763 177.951 60.5038 178.259 64.0017C178.567 67.4995 177.838 71.0106 176.162 74.0916C175.048 76.1402 173.543 77.948 171.733 79.4112C169.923 80.8744 167.844 81.9644 165.615 82.6189C163.386 83.2734 161.05 83.4795 158.742 83.2254C156.433 82.9713 154.198 82.262 152.162 81.1382V81.1382Z" fill="#CDD5D7"/>
<path d="M153.025 80.3297C149.964 78.6396 147.47 76.0749 145.858 72.9598C144.246 69.8448 143.588 66.3192 143.968 62.8285C144.348 59.3379 145.749 56.0388 147.993 53.3482C150.237 50.6576 153.224 48.6962 156.576 47.712C159.928 46.7277 163.496 46.7647 166.827 47.8183C170.159 48.8719 173.105 50.8948 175.293 53.6313C177.481 56.3679 178.814 59.6953 179.122 63.1932C179.431 66.691 178.701 70.2022 177.025 73.2831C175.912 75.333 174.408 77.1418 172.598 78.6059C170.789 80.07 168.709 81.1606 166.48 81.8152C164.25 82.4698 161.914 82.6756 159.605 82.4207C157.297 82.1657 155.06 81.4552 153.025 80.3297V80.3297Z" fill="#E5E8EC"/>
<path d="M153.65 79.1835C150.809 77.6205 148.494 75.2457 146.996 72.3595C145.499 69.4733 144.886 66.2053 145.235 62.9688C145.585 59.7323 146.881 56.6729 148.961 54.1773C151.04 51.6818 153.808 49.8623 156.916 48.949C160.023 48.0357 163.331 48.0697 166.419 49.0465C169.508 50.0234 172.239 51.8993 174.267 54.437C176.295 56.9747 177.529 60.0602 177.813 63.3031C178.097 66.5461 177.418 69.8008 175.862 72.6557C174.83 74.5515 173.437 76.2244 171.762 77.5786C170.088 78.9328 168.164 79.9419 166.101 80.5481C164.038 81.1544 161.877 81.3459 159.74 81.1117C157.604 80.8776 155.534 80.2223 153.65 79.1835V79.1835Z" fill="#CDD5D7"/>
<path d="M159.11 81.0295C162.103 81.3586 165.127 80.7922 167.801 79.4014C170.476 78.0106 172.683 75.8571 174.146 73.2107C176.057 69.5507 176.462 65.2828 175.274 61.3254C174.086 57.3681 171.401 54.0377 167.796 52.0513C164.191 50.0648 159.954 49.581 155.998 50.704C152.041 51.827 148.682 54.467 146.642 58.0558C146.486 58.3333 146.354 58.6108 146.222 58.8883C145.35 61.1886 145.002 63.6562 145.204 66.1095C145.407 68.5628 146.153 70.9392 147.39 73.0637C148.627 75.1883 150.322 77.0068 152.35 78.3854C154.378 79.764 156.688 80.6675 159.11 81.0295V81.0295Z" fill="#B7BEC0"/>
<path d="M158.114 80.8968C160.619 80.9408 163.091 80.3144 165.277 79.0817C167.462 77.849 169.282 76.0544 170.551 73.8817C171.82 71.7089 172.491 69.2362 172.497 66.7167C172.502 64.1971 171.842 61.7214 170.583 59.543C169.324 57.3647 167.511 55.562 165.331 54.3196C163.151 53.0772 160.682 52.4398 158.177 52.4726C155.671 52.5055 153.219 53.2073 151.072 54.5064C148.925 55.8055 147.16 57.6551 145.958 59.8657L145.802 60.1795C145.17 62.354 144.991 64.6364 145.277 66.8837C145.562 69.131 146.306 71.2948 147.462 73.2396C148.618 75.1844 150.16 76.8684 151.993 78.186C153.826 79.5036 155.91 80.4264 158.114 80.8968V80.8968Z" fill="#010000"/>
<path d="M163.814 54.7618C166.664 56.3338 168.94 58.7813 170.309 61.7467C171.678 64.7121 172.068 68.04 171.422 71.244C172.35 68.1239 172.186 64.7778 170.956 61.7648C169.727 58.7518 167.506 56.2543 164.666 54.6894C164.378 54.5205 164.078 54.3757 163.766 54.2309C163.454 54.0861 163.154 54.2309 162.854 54.3033C163.178 54.424 163.538 54.5929 163.814 54.7618Z" fill="#9F9282"/>
<path d="M184.321 55.7272C184.522 55.7249 184.721 55.7575 184.909 55.8236C184.417 54.5509 183.823 53.3202 183.134 52.1435H183.013C182.56 51.9325 182.05 51.8774 181.562 51.9866C182.338 53.1128 182.979 54.3279 183.469 55.6065C183.758 55.597 184.047 55.6379 184.321 55.7272Z" fill="#CDD5D7"/>
</g>
<defs>
<clipPath id="clip0_7:972">
<rect width="147" height="111" fill="white" transform="translate(38 36)"/>
</clipPath>
</defs>
</svg>
