<svg width="200" height="180" viewBox="0 0 200 180" fill="none" xmlns="http://www.w3.org/2000/svg">
<g clip-path="url(#clip0_7:972)">
<path d="M48.032 136.312C48.032 137.036 48.3439 136.747 48.7399 136.747H51.26C51.656 136.747 51.98 137.036 51.98 136.312V28.6471C51.98 27.9231 51.656 28.2127 51.26 28.2127H48.7399C48.3439 28.2127 48.032 27.9231 48.032 28.6471V136.312Z" fill="#CDD5D7"/>
<path d="M49.784 28.2126H48.968V136.747H49.784V28.2126Z" fill="#B7BEC0"/>
<path d="M48.416 28.1765C48.188 28.1765 48.032 28.1765 48.032 28.6471V136.312C48.032 136.819 48.188 136.831 48.416 136.795V28.1765Z" fill="#B7BEC0"/>
<path d="M50.2279 28.2126H49.4119V136.747H50.2279V28.2126Z" fill="#E5E8EC"/>
<path d="M131.948 28.2126H52.112C51.3896 28.2126 50.804 28.8015 50.804 29.5278V135.685C50.804 136.411 51.3896 137 52.112 137H131.948C132.67 137 133.256 136.411 133.256 135.685V29.5278C133.256 28.8015 132.67 28.2126 131.948 28.2126Z" fill="#282D33"/>
<path d="M52.1239 28.2127H131.948C132.124 28.211 132.298 28.245 132.461 28.3126C132.623 28.3803 132.77 28.4801 132.894 28.6063C133.017 28.7324 133.113 28.8822 133.178 29.0468C133.242 29.2114 133.273 29.3873 133.268 29.5641V135.745C133.241 136.077 133.089 136.386 132.844 136.61C132.599 136.834 132.279 136.956 131.948 136.952H52.1239C51.9517 136.953 51.7809 136.92 51.6214 136.855C51.462 136.789 51.3172 136.693 51.1955 136.57C51.0737 136.448 50.9774 136.302 50.9122 136.142C50.8471 135.981 50.8143 135.81 50.8159 135.637V29.5641C50.8111 29.3884 50.8413 29.2135 50.9049 29.0497C50.9685 28.8859 51.0641 28.7366 51.186 28.6106C51.308 28.4846 51.4538 28.3845 51.6149 28.3162C51.776 28.2478 51.949 28.2126 52.1239 28.2127ZM53.0239 134.068C53.2441 134.066 53.4587 133.998 53.6407 133.873C53.8226 133.748 53.9637 133.572 54.0463 133.367C54.129 133.162 54.1494 132.936 54.105 132.72C54.0606 132.503 53.9534 132.304 53.7968 132.148C53.6403 131.992 53.4414 131.887 53.2252 131.844C53.0091 131.802 52.7853 131.825 52.5821 131.91C52.3789 131.996 52.2053 132.139 52.0832 132.324C51.9611 132.508 51.8959 132.724 51.8959 132.946C51.8959 133.094 51.9252 133.241 51.982 133.378C52.0388 133.515 52.1221 133.639 52.227 133.744C52.3319 133.848 52.4564 133.93 52.5931 133.986C52.7299 134.042 52.8763 134.07 53.0239 134.068ZM53.0239 129.531C53.2475 129.531 53.466 129.464 53.6518 129.339C53.8375 129.214 53.9821 129.036 54.0671 128.828C54.1522 128.62 54.1738 128.392 54.1293 128.171C54.0847 127.951 53.9761 127.749 53.8172 127.591C53.6582 127.433 53.4561 127.326 53.2365 127.283C53.0169 127.241 52.7897 127.265 52.5838 127.353C52.378 127.44 52.2027 127.588 52.0802 127.776C51.9577 127.964 51.8935 128.184 51.8959 128.409C51.8959 128.557 51.9252 128.704 51.982 128.841C52.0388 128.978 52.1221 129.102 52.227 129.207C52.3319 129.311 52.4564 129.394 52.5931 129.449C52.7299 129.505 52.8763 129.533 53.0239 129.531ZM53.0239 124.982C53.2441 124.98 53.4587 124.912 53.6407 124.787C53.8226 124.663 53.9637 124.487 54.0463 124.281C54.129 124.076 54.1494 123.851 54.105 123.634C54.0606 123.417 53.9534 123.218 53.7968 123.063C53.6403 122.907 53.4414 122.801 53.2252 122.759C53.0091 122.716 52.7853 122.739 52.5821 122.825C52.3789 122.91 52.2053 123.054 52.0832 123.238C51.9611 123.422 51.8959 123.639 51.8959 123.86C51.8959 124.009 51.9252 124.155 51.982 124.292C52.0388 124.429 52.1221 124.554 52.227 124.658C52.3319 124.762 52.4564 124.845 52.5931 124.9C52.7299 124.956 52.8763 124.984 53.0239 124.982ZM53.0239 120.445C53.247 120.445 53.4651 120.379 53.6506 120.254C53.8361 120.13 53.9807 119.953 54.066 119.745C54.1514 119.538 54.1737 119.31 54.1302 119.09C54.0867 118.87 53.9792 118.668 53.8215 118.509C53.6637 118.351 53.4628 118.243 53.244 118.199C53.0252 118.155 52.7984 118.178 52.5923 118.263C52.3862 118.349 52.21 118.495 52.086 118.681C51.9621 118.868 51.8959 119.087 51.8959 119.311C51.8959 119.46 51.9251 119.608 51.9818 119.745C52.0385 119.883 52.1215 120.008 52.2263 120.113C52.331 120.219 52.4554 120.302 52.5923 120.359C52.7291 120.416 52.8758 120.445 53.0239 120.445ZM53.0239 115.897C53.2441 115.894 53.4587 115.826 53.6407 115.702C53.8226 115.577 53.9637 115.401 54.0463 115.196C54.129 114.99 54.1494 114.765 54.105 114.548C54.0606 114.331 53.9534 114.132 53.7968 113.977C53.6403 113.821 53.4414 113.715 53.2252 113.673C53.0091 113.631 52.7853 113.654 52.5821 113.739C52.3789 113.824 52.2053 113.968 52.0832 114.152C51.9611 114.337 51.8959 114.553 51.8959 114.774C51.8959 114.923 51.9252 115.07 51.982 115.207C52.0388 115.344 52.1221 115.468 52.227 115.572C52.3319 115.677 52.4564 115.759 52.5931 115.815C52.7299 115.87 52.8763 115.898 53.0239 115.897ZM53.0239 111.348C53.2441 111.345 53.4587 111.277 53.6407 111.153C53.8226 111.028 53.9637 110.852 54.0463 110.647C54.129 110.441 54.1494 110.216 54.105 109.999C54.0606 109.782 53.9534 109.584 53.7968 109.428C53.6403 109.272 53.4414 109.166 53.2252 109.124C53.0091 109.082 52.7853 109.105 52.5821 109.19C52.3789 109.275 52.2053 109.419 52.0832 109.603C51.9611 109.788 51.8959 110.004 51.8959 110.225C51.8959 110.374 51.9252 110.521 51.982 110.658C52.0388 110.795 52.1221 110.919 52.227 111.023C52.3319 111.128 52.4564 111.21 52.5931 111.266C52.7299 111.321 52.8763 111.349 53.0239 111.348ZM53.0239 106.811C53.2475 106.811 53.466 106.744 53.6518 106.619C53.8375 106.494 53.9821 106.316 54.0671 106.108C54.1522 105.9 54.1738 105.671 54.1293 105.451C54.0847 105.231 53.9761 105.029 53.8172 104.87C53.6582 104.712 53.4561 104.605 53.2365 104.563C53.0169 104.52 52.7897 104.545 52.5838 104.632C52.378 104.72 52.2027 104.867 52.0802 105.055C51.9577 105.243 51.8935 105.464 51.8959 105.689C51.9022 105.984 52.0242 106.265 52.2354 106.471C52.4466 106.676 52.7299 106.79 53.0239 106.787V106.811ZM53.0239 102.262C53.2441 102.26 53.4587 102.192 53.6407 102.067C53.8226 101.942 53.9637 101.766 54.0463 101.561C54.129 101.356 54.1494 101.13 54.105 100.914C54.0606 100.697 53.9534 100.498 53.7968 100.342C53.6403 100.186 53.4414 100.081 53.2252 100.038C53.0091 99.9961 52.7853 100.019 52.5821 100.104C52.3789 100.19 52.2053 100.333 52.0832 100.518C51.9611 100.702 51.8959 100.918 51.8959 101.14C51.8959 101.288 51.9252 101.435 51.982 101.572C52.0388 101.709 52.1221 101.833 52.227 101.938C52.3319 102.042 52.4564 102.124 52.5931 102.18C52.7299 102.236 52.8763 102.264 53.0239 102.262ZM53.0239 97.7251C53.247 97.7251 53.4651 97.6586 53.6506 97.534C53.8361 97.4094 53.9807 97.2322 54.066 97.025C54.1514 96.8177 54.1737 96.5897 54.1302 96.3697C54.0867 96.1496 53.9792 95.9475 53.8215 95.7889C53.6637 95.6303 53.4628 95.5222 53.244 95.4785C53.0252 95.4347 52.7984 95.4572 52.5923 95.5431C52.3862 95.6289 52.21 95.7743 52.086 95.9608C51.9621 96.1473 51.8959 96.3666 51.8959 96.5909C51.8959 96.8917 52.0147 97.1802 52.2263 97.3929C52.4378 97.6056 52.7247 97.7251 53.0239 97.7251ZM53.0239 93.1762C53.2441 93.1738 53.4587 93.106 53.6407 92.9812C53.8226 92.8565 53.9637 92.6805 54.0463 92.4752C54.129 92.27 54.1494 92.0448 54.105 91.8279C54.0606 91.611 53.9534 91.4122 53.7968 91.2565C53.6403 91.1007 53.4414 90.995 53.2252 90.9527C53.0091 90.9104 52.7853 90.9332 52.5821 91.0185C52.3789 91.1038 52.2053 91.2476 52.0832 91.4319C51.9611 91.6162 51.8959 91.8326 51.8959 92.054C51.8959 92.2024 51.9252 92.3493 51.982 92.4863C52.0388 92.6232 52.1221 92.7475 52.227 92.8518C52.3319 92.9562 52.4564 93.0386 52.5931 93.0943C52.7299 93.15 52.8763 93.1778 53.0239 93.1762ZM53.0239 88.6394C53.247 88.6394 53.4651 88.5729 53.6506 88.4482C53.8361 88.3236 53.9807 88.1464 54.066 87.9392C54.1514 87.7319 54.1737 87.5039 54.1302 87.2839C54.0867 87.0639 53.9792 86.8618 53.8215 86.7032C53.6637 86.5446 53.4628 86.4366 53.244 86.3928C53.0252 86.349 52.7984 86.3715 52.5923 86.4573C52.3862 86.5432 52.21 86.6885 52.086 86.875C51.9621 87.0615 51.8959 87.2809 51.8959 87.5052C51.8894 87.6582 51.9138 87.8108 51.9676 87.9541C52.0214 88.0973 52.1034 88.2281 52.2088 88.3386C52.3142 88.4491 52.4408 88.5369 52.5808 88.5969C52.7209 88.6569 52.8716 88.6878 53.0239 88.6877V88.6394ZM53.0239 84.0905C53.2441 84.0881 53.4587 84.0203 53.6407 83.8956C53.8226 83.7708 53.9637 83.5947 54.0463 83.3895C54.129 83.1842 54.1494 82.959 54.105 82.7421C54.0606 82.5253 53.9534 82.3264 53.7968 82.1707C53.6403 82.015 53.4414 81.9093 53.2252 81.867C53.0091 81.8247 52.7853 81.8476 52.5821 81.9328C52.3789 82.0181 52.2053 82.1619 52.0832 82.3462C51.9611 82.5305 51.8959 82.7469 51.8959 82.9684C51.8959 83.1167 51.9252 83.2637 51.982 83.4006C52.0388 83.5375 52.1221 83.6617 52.227 83.7661C52.3319 83.8704 52.4564 83.9529 52.5931 84.0085C52.7299 84.0642 52.8763 84.0921 53.0239 84.0905ZM53.0239 79.5416C53.2441 79.5392 53.4587 79.4714 53.6407 79.3466C53.8226 79.2219 53.9637 79.0459 54.0463 78.8406C54.129 78.6354 54.1494 78.4101 54.105 78.1932C54.0606 77.9763 53.9534 77.7775 53.7968 77.6218C53.6403 77.4661 53.4414 77.3604 53.2252 77.3181C53.0091 77.2758 52.7853 77.2986 52.5821 77.3839C52.3789 77.4692 52.2053 77.613 52.0832 77.7973C51.9611 77.9816 51.8959 78.198 51.8959 78.4194C51.8959 78.5678 51.9252 78.7147 51.982 78.8517C52.0388 78.9886 52.1221 79.1129 52.227 79.2172C52.3319 79.3216 52.4564 79.404 52.5931 79.4597C52.7299 79.5154 52.8763 79.5432 53.0239 79.5416ZM53.0239 75.0047C53.2441 75.0024 53.4587 74.9345 53.6407 74.8098C53.8226 74.6851 53.9637 74.509 54.0463 74.3038C54.129 74.0985 54.1494 73.8733 54.105 73.6564C54.0606 73.4396 53.9534 73.2407 53.7968 73.085C53.6403 72.9292 53.4414 72.8236 53.2252 72.7812C53.0091 72.7389 52.7853 72.7618 52.5821 72.8471C52.3789 72.9324 52.2053 73.0762 52.0832 73.2605C51.9611 73.4447 51.8959 73.6612 51.8959 73.8826C51.8959 74.031 51.9252 74.1779 51.982 74.3148C52.0388 74.4518 52.1221 74.576 52.227 74.6804C52.3319 74.7848 52.4564 74.8672 52.5931 74.9228C52.7299 74.9785 52.8763 75.0063 53.0239 75.0047ZM53.0239 70.4559C53.2441 70.4535 53.4587 70.3857 53.6407 70.261C53.8226 70.1362 53.9637 69.9601 54.0463 69.7549C54.129 69.5496 54.1494 69.3244 54.105 69.1075C54.0606 68.8907 53.9534 68.6918 53.7968 68.5361C53.6403 68.3804 53.4414 68.2747 53.2252 68.2323C53.0091 68.19 52.7853 68.213 52.5821 68.2982C52.3789 68.3835 52.2053 68.5273 52.0832 68.7116C51.9611 68.8959 51.8959 69.1123 51.8959 69.3338C51.8959 69.4821 51.9252 69.6291 51.982 69.766C52.0388 69.9029 52.1221 70.0271 52.227 70.1315C52.3319 70.2358 52.4564 70.3182 52.5931 70.3739C52.7299 70.4296 52.8763 70.4575 53.0239 70.4559ZM53.0239 65.9191C53.2475 65.919 53.466 65.8522 53.6518 65.7271C53.8375 65.6019 53.9821 65.424 54.0671 65.216C54.1522 65.0081 54.1738 64.7795 54.1293 64.5591C54.0847 64.3388 53.9761 64.1367 53.8172 63.9786C53.6582 63.8204 53.4561 63.7134 53.2365 63.671C53.0169 63.6286 52.7897 63.6528 52.5838 63.7405C52.378 63.8282 52.2027 63.9754 52.0802 64.1635C51.9577 64.3516 51.8935 64.5721 51.8959 64.7969C51.8959 64.9453 51.9252 65.0922 51.982 65.2291C52.0388 65.3661 52.1221 65.4903 52.227 65.5946C52.3319 65.699 52.4564 65.7814 52.5931 65.8371C52.7299 65.8928 52.8763 65.9207 53.0239 65.9191ZM53.0239 61.3701C53.2441 61.3678 53.4587 61.2999 53.6407 61.1752C53.8226 61.0505 53.9637 60.8744 54.0463 60.6691C54.129 60.4639 54.1494 60.2386 54.105 60.0218C54.0606 59.8049 53.9534 59.6061 53.7968 59.4504C53.6403 59.2946 53.4414 59.189 53.2252 59.1466C53.0091 59.1043 52.7853 59.1272 52.5821 59.2125C52.3789 59.2978 52.2053 59.4416 52.0832 59.6259C51.9611 59.8101 51.8959 60.0266 51.8959 60.248C51.8959 60.3964 51.9252 60.5433 51.982 60.6802C52.0388 60.8172 52.1221 60.9414 52.227 61.0458C52.3319 61.1502 52.4564 61.2326 52.5931 61.2882C52.7299 61.3439 52.8763 61.3717 53.0239 61.3701ZM53.0239 56.8213C53.2441 56.8189 53.4587 56.751 53.6407 56.6263C53.8226 56.5015 53.9637 56.3255 54.0463 56.1203C54.129 55.915 54.1494 55.6898 54.105 55.4729C54.0606 55.2561 53.9534 55.0572 53.7968 54.9015C53.6403 54.7458 53.4414 54.6401 53.2252 54.5977C53.0091 54.5554 52.7853 54.5784 52.5821 54.6636C52.3789 54.7489 52.2053 54.8927 52.0832 55.0769C51.9611 55.2612 51.8959 55.4777 51.8959 55.6991C51.8959 55.8475 51.9252 55.9944 51.982 56.1314C52.0388 56.2683 52.1221 56.3925 52.227 56.4969C52.3319 56.6012 52.4564 56.6836 52.5931 56.7393C52.7299 56.795 52.8763 56.8229 53.0239 56.8213ZM53.0239 52.2845C53.2441 52.2821 53.4587 52.2143 53.6407 52.0895C53.8226 51.9648 53.9637 51.7887 54.0463 51.5834C54.129 51.3782 54.1494 51.153 54.105 50.9361C54.0606 50.7192 53.9534 50.5204 53.7968 50.3647C53.6403 50.2089 53.4414 50.1032 53.2252 50.0609C53.0091 50.0186 52.7853 50.0415 52.5821 50.1268C52.3789 50.2121 52.2053 50.3559 52.0832 50.5402C51.9611 50.7244 51.8959 50.9409 51.8959 51.1623C51.8959 51.3107 51.9252 51.4576 51.982 51.5945C52.0388 51.7315 52.1221 51.8557 52.227 51.96C52.3319 52.0644 52.4564 52.1468 52.5931 52.2025C52.7299 52.2582 52.8763 52.286 53.0239 52.2845ZM53.0239 47.7355C53.2441 47.7332 53.4587 47.6653 53.6407 47.5406C53.8226 47.4159 53.9637 47.2397 54.0463 47.0345C54.129 46.8293 54.1494 46.604 54.105 46.3872C54.0606 46.1703 53.9534 45.9715 53.7968 45.8158C53.6403 45.66 53.4414 45.5544 53.2252 45.512C53.0091 45.4697 52.7853 45.4926 52.5821 45.5779C52.3789 45.6632 52.2053 45.807 52.0832 45.9912C51.9611 46.1755 51.8959 46.392 51.8959 46.6134C51.8959 46.7618 51.9252 46.9087 51.982 47.0456C52.0388 47.1826 52.1221 47.3068 52.227 47.4112C52.3319 47.5156 52.4564 47.598 52.5931 47.6536C52.7299 47.7093 52.8763 47.7371 53.0239 47.7355ZM53.0239 43.1987C53.2475 43.1987 53.466 43.1319 53.6518 43.0067C53.8375 42.8815 53.9821 42.7036 54.0671 42.4957C54.1522 42.2877 54.1738 42.0591 54.1293 41.8388C54.0847 41.6184 53.9761 41.4164 53.8172 41.2582C53.6582 41.1001 53.4561 40.993 53.2365 40.9506C53.0169 40.9082 52.7897 40.9324 52.5838 41.0201C52.378 41.1078 52.2027 41.2551 52.0802 41.4432C51.9577 41.6313 51.8935 41.8517 51.8959 42.0766C51.8959 42.2249 51.9252 42.3719 51.982 42.5088C52.0388 42.6457 52.1221 42.77 52.227 42.8744C52.3319 42.9787 52.4564 43.0611 52.5931 43.1168C52.7299 43.1725 52.8763 43.2003 53.0239 43.1987ZM53.0239 38.6499C53.2441 38.6475 53.4587 38.5796 53.6407 38.4548C53.8226 38.3301 53.9637 38.1541 54.0463 37.9488C54.129 37.7436 54.1494 37.5184 54.105 37.3015C54.0606 37.0846 53.9534 36.8858 53.7968 36.7301C53.6403 36.5743 53.4414 36.4686 53.2252 36.4263C53.0091 36.384 52.7853 36.4068 52.5821 36.4921C52.3789 36.5774 52.2053 36.7212 52.0832 36.9055C51.9611 37.0898 51.8959 37.3062 51.8959 37.5276C51.8959 37.676 51.9252 37.8229 51.982 37.9599C52.0388 38.0968 52.1221 38.2211 52.227 38.3254C52.3319 38.4298 52.4564 38.5122 52.5931 38.5679C52.7299 38.6236 52.8763 38.6514 53.0239 38.6499ZM53.0239 34.113C53.247 34.113 53.4651 34.0465 53.6506 33.9218C53.8361 33.7972 53.9807 33.62 54.066 33.4128C54.1514 33.2055 54.1737 32.9775 54.1302 32.7575C54.0867 32.5375 53.9792 32.3354 53.8215 32.1768C53.6637 32.0182 53.4628 31.9102 53.244 31.8664C53.0252 31.8226 52.7984 31.8451 52.5923 31.9309C52.3862 32.0168 52.21 32.1621 52.086 32.3486C51.9621 32.5351 51.8959 32.7545 51.8959 32.9788C51.8959 33.2796 52.0147 33.5681 52.2263 33.7808C52.4378 33.9935 52.7247 34.113 53.0239 34.113Z" fill="#30363D"/>
<path d="M52.1239 28.0316H131.948C132.295 28.0316 132.628 28.1702 132.873 28.4169C133.118 28.6635 133.256 28.998 133.256 29.3468V135.528C133.256 135.877 133.118 136.211 132.873 136.458C132.628 136.705 132.295 136.843 131.948 136.843H52.1239C51.777 136.843 51.4443 136.705 51.199 136.458C50.9537 136.211 50.8159 135.877 50.8159 135.528V29.3468C50.8159 28.998 50.9537 28.6635 51.199 28.4169C51.4443 28.1702 51.777 28.0316 52.1239 28.0316ZM53.0239 133.887C53.2441 133.885 53.4587 133.817 53.6406 133.692C53.8226 133.567 53.9637 133.391 54.0463 133.186C54.129 132.981 54.1494 132.755 54.105 132.539C54.0606 132.322 53.9533 132.123 53.7968 131.967C53.6403 131.811 53.4414 131.706 53.2252 131.663C53.0091 131.621 52.7853 131.644 52.5821 131.729C52.3789 131.815 52.2053 131.958 52.0832 132.143C51.961 132.327 51.8959 132.543 51.8959 132.765C51.8959 132.913 51.9252 133.06 51.982 133.197C52.0388 133.334 52.1221 133.458 52.227 133.563C52.3319 133.667 52.4564 133.749 52.5931 133.805C52.7299 133.861 52.8763 133.889 53.0239 133.887ZM53.0239 129.35C53.247 129.35 53.4651 129.284 53.6506 129.159C53.8361 129.034 53.9807 128.857 54.066 128.65C54.1514 128.443 54.1737 128.215 54.1302 127.995C54.0867 127.775 53.9792 127.573 53.8215 127.414C53.6637 127.255 53.4628 127.147 53.244 127.104C53.0252 127.06 52.7984 127.082 52.5923 127.168C52.3861 127.254 52.21 127.399 52.086 127.586C51.9621 127.772 51.8959 127.992 51.8959 128.216C51.8959 128.517 52.0147 128.805 52.2263 129.018C52.4378 129.231 52.7247 129.35 53.0239 129.35ZM53.0239 124.801C53.2441 124.799 53.4587 124.731 53.6406 124.606C53.8226 124.482 53.9637 124.305 54.0463 124.1C54.129 123.895 54.1494 123.67 54.105 123.453C54.0606 123.236 53.9533 123.037 53.7968 122.881C53.6403 122.726 53.4414 122.62 53.2252 122.578C53.0091 122.535 52.7853 122.558 52.5821 122.644C52.3789 122.729 52.2053 122.873 52.0832 123.057C51.961 123.241 51.8959 123.458 51.8959 123.679C51.8959 123.827 51.9252 123.974 51.982 124.111C52.0388 124.248 52.1221 124.373 52.227 124.477C52.3319 124.581 52.4564 124.664 52.5931 124.719C52.7299 124.775 52.8763 124.803 53.0239 124.801ZM53.0239 120.252C53.2441 120.25 53.4587 120.182 53.6406 120.057C53.8226 119.933 53.9637 119.757 54.0463 119.551C54.129 119.346 54.1494 119.121 54.105 118.904C54.0606 118.687 53.9533 118.488 53.7968 118.333C53.6403 118.177 53.4414 118.071 53.2252 118.029C53.0091 117.986 52.7853 118.009 52.5821 118.095C52.3789 118.18 52.2053 118.324 52.0832 118.508C51.961 118.692 51.8959 118.909 51.8959 119.13C51.8959 119.279 51.9252 119.425 51.982 119.562C52.0388 119.699 52.1221 119.824 52.227 119.928C52.3319 120.032 52.4564 120.115 52.5931 120.17C52.7299 120.226 52.8763 120.254 53.0239 120.252ZM53.0239 115.716C53.2441 115.713 53.4587 115.645 53.6406 115.521C53.8226 115.396 53.9637 115.22 54.0463 115.014C54.129 114.809 54.1494 114.584 54.105 114.367C54.0606 114.15 53.9533 113.951 53.7968 113.796C53.6403 113.64 53.4414 113.534 53.2252 113.492C53.0091 113.45 52.7853 113.473 52.5821 113.558C52.3789 113.643 52.2053 113.787 52.0832 113.971C51.961 114.155 51.8959 114.372 51.8959 114.593C51.8959 114.742 51.9252 114.889 51.982 115.026C52.0388 115.163 52.1221 115.287 52.227 115.391C52.3319 115.495 52.4564 115.578 52.5931 115.634C52.7299 115.689 52.8763 115.717 53.0239 115.716ZM53.0239 111.167C53.2441 111.164 53.4587 111.096 53.6406 110.972C53.8226 110.847 53.9637 110.671 54.0463 110.466C54.129 110.26 54.1494 110.035 54.105 109.818C54.0606 109.601 53.9533 109.403 53.7968 109.247C53.6403 109.091 53.4414 108.985 53.2252 108.943C53.0091 108.901 52.7853 108.924 52.5821 109.009C52.3789 109.094 52.2053 109.238 52.0832 109.422C51.961 109.607 51.8959 109.823 51.8959 110.044C51.8959 110.193 51.9252 110.34 51.982 110.477C52.0388 110.614 52.1221 110.738 52.227 110.842C52.3319 110.947 52.4564 111.029 52.5931 111.085C52.7299 111.14 52.8763 111.168 53.0239 111.167ZM53.0239 106.63C53.2475 106.63 53.466 106.563 53.6518 106.438C53.8375 106.313 53.9821 106.135 54.0671 105.927C54.1522 105.719 54.1738 105.49 54.1292 105.27C54.0847 105.049 53.9761 104.847 53.8172 104.689C53.6582 104.531 53.4561 104.424 53.2365 104.382C53.0169 104.339 52.7897 104.363 52.5838 104.451C52.3779 104.539 52.2026 104.686 52.0802 104.874C51.9577 105.062 51.8935 105.283 51.8959 105.508C51.8959 105.656 51.9252 105.803 51.982 105.94C52.0388 106.077 52.1221 106.201 52.227 106.305C52.3319 106.41 52.4564 106.492 52.5931 106.548C52.7299 106.604 52.8763 106.631 53.0239 106.63ZM53.0239 102.081C53.2441 102.078 53.4587 102.011 53.6406 101.886C53.8226 101.761 53.9637 101.585 54.0463 101.38C54.129 101.175 54.1494 100.949 54.105 100.733C54.0606 100.516 53.9533 100.317 53.7968 100.161C53.6403 100.005 53.4414 99.8997 53.2252 99.8574C53.0091 99.815 52.7853 99.8379 52.5821 99.9232C52.3789 100.008 52.2053 100.152 52.0832 100.337C51.961 100.521 51.8959 100.737 51.8959 100.959C51.8959 101.107 51.9252 101.254 51.982 101.391C52.0388 101.528 52.1221 101.652 52.227 101.757C52.3319 101.861 52.4564 101.943 52.5931 101.999C52.7299 102.055 52.8763 102.082 53.0239 102.081ZM53.0239 97.532C53.2441 97.5296 53.4587 97.4618 53.6406 97.3371C53.8226 97.2123 53.9637 97.0362 54.0463 96.831C54.129 96.6257 54.1494 96.4005 54.105 96.1836C54.0606 95.9668 53.9533 95.768 53.7968 95.6122C53.6403 95.4565 53.4414 95.3508 53.2252 95.3084C53.0091 95.2661 52.7853 95.2891 52.5821 95.3743C52.3789 95.4596 52.2053 95.6035 52.0832 95.7877C51.961 95.972 51.8959 96.1884 51.8959 96.4099C51.8959 96.5583 51.9252 96.7052 51.982 96.8421C52.0388 96.979 52.1221 97.1032 52.227 97.2076C52.3319 97.312 52.4564 97.3944 52.5931 97.45C52.7299 97.5057 52.8763 97.5336 53.0239 97.532ZM53.0239 92.9952C53.2441 92.9928 53.4587 92.925 53.6406 92.8002C53.8226 92.6755 53.9637 92.4994 54.0463 92.2941C54.129 92.0889 54.1494 91.8637 54.105 91.6468C54.0606 91.4299 53.9533 91.2311 53.7968 91.0754C53.6403 90.9197 53.4414 90.814 53.2252 90.7717C53.0091 90.7293 52.7853 90.7522 52.5821 90.8375C52.3789 90.9228 52.2053 91.0666 52.0832 91.2509C51.961 91.4351 51.8959 91.6516 51.8959 91.873C51.8959 92.0214 51.9252 92.1683 51.982 92.3053C52.0388 92.4422 52.1221 92.5664 52.227 92.6708C52.3319 92.7751 52.4564 92.8575 52.5931 92.9132C52.7299 92.9689 52.8763 92.9968 53.0239 92.9952ZM53.0239 88.4462C53.2441 88.4439 53.4587 88.376 53.6406 88.2513C53.8226 88.1266 53.9637 87.9505 54.0463 87.7452C54.129 87.54 54.1494 87.3147 54.105 87.0979C54.0606 86.881 53.9533 86.6822 53.7968 86.5265C53.6403 86.3707 53.4414 86.2651 53.2252 86.2227C53.0091 86.1804 52.7853 86.2033 52.5821 86.2886C52.3789 86.3739 52.2053 86.5177 52.0832 86.702C51.961 86.8862 51.8959 87.1027 51.8959 87.3241C51.8959 87.4725 51.9252 87.6194 51.982 87.7563C52.0388 87.8933 52.1221 88.0176 52.227 88.1219C52.3319 88.2263 52.4564 88.3087 52.5931 88.3644C52.7299 88.42 52.8763 88.4478 53.0239 88.4462ZM53.0239 83.9094C53.2475 83.9094 53.466 83.8426 53.6518 83.7174C53.8375 83.5922 53.9821 83.4144 54.0671 83.2065C54.1522 82.9985 54.1738 82.7698 54.1292 82.5495C54.0847 82.3291 53.9761 82.1271 53.8172 81.9689C53.6582 81.8108 53.4561 81.7038 53.2365 81.6614C53.0169 81.619 52.7897 81.6431 52.5838 81.7308C52.3779 81.8185 52.2026 81.9658 52.0802 82.1539C51.9577 82.342 51.8935 82.5625 51.8959 82.7873C51.9083 83.0785 52.033 83.3535 52.2436 83.5539C52.4541 83.7544 52.734 83.8646 53.0239 83.8612V83.9094ZM53.0239 79.3606C53.2441 79.3582 53.4587 79.2903 53.6406 79.1656C53.8226 79.0408 53.9637 78.8648 54.0463 78.6595C54.129 78.4543 54.1494 78.2291 54.105 78.0122C54.0606 77.7953 53.9533 77.5965 53.7968 77.4408C53.6403 77.285 53.4414 77.1793 53.2252 77.137C53.0091 77.0947 52.7853 77.1176 52.5821 77.2029C52.3789 77.2882 52.2053 77.432 52.0832 77.6163C51.961 77.8005 51.8959 78.017 51.8959 78.2384C51.8959 78.3868 51.9252 78.5337 51.982 78.6707C52.0388 78.8076 52.1221 78.9318 52.227 79.0362C52.3319 79.1405 52.4564 79.2229 52.5931 79.2786C52.7299 79.3343 52.8763 79.3622 53.0239 79.3606ZM53.0239 74.8237C53.2475 74.8237 53.466 74.7568 53.6518 74.6317C53.8375 74.5065 53.9821 74.3287 54.0671 74.1207C54.1522 73.9128 54.1738 73.6841 54.1292 73.4638C54.0847 73.2435 53.9761 73.0414 53.8172 72.8832C53.6582 72.7251 53.4561 72.618 53.2365 72.5756C53.0169 72.5332 52.7897 72.5574 52.5838 72.6451C52.3779 72.7328 52.2026 72.8801 52.0802 73.0682C51.9577 73.2563 51.8935 73.4768 51.8959 73.7016C51.8959 73.85 51.9252 73.9969 51.982 74.1338C52.0388 74.2708 52.1221 74.395 52.227 74.4993C52.3319 74.6037 52.4564 74.6861 52.5931 74.7418C52.7299 74.7974 52.8763 74.8253 53.0239 74.8237ZM53.0239 70.2748C53.2441 70.2724 53.4587 70.2046 53.6406 70.0799C53.8226 69.9551 53.9637 69.779 54.0463 69.5738C54.129 69.3685 54.1494 69.1433 54.105 68.9264C54.0606 68.7096 53.9533 68.5107 53.7968 68.355C53.6403 68.1993 53.4414 68.0936 53.2252 68.0513C53.0091 68.009 52.7853 68.0319 52.5821 68.1171C52.3789 68.2024 52.2053 68.3463 52.0832 68.5305C51.961 68.7148 51.8959 68.9313 51.8959 69.1527C51.8959 69.3011 51.9252 69.448 51.982 69.5849C52.0388 69.7218 52.1221 69.8461 52.227 69.9505C52.3319 70.0548 52.4564 70.1372 52.5931 70.1929C52.7299 70.2486 52.8763 70.2764 53.0239 70.2748ZM53.0239 65.7259C53.2441 65.7235 53.4587 65.6557 53.6406 65.5309C53.8226 65.4062 53.9637 65.2302 54.0463 65.0249C54.129 64.8197 54.1494 64.5945 54.105 64.3776C54.0606 64.1607 53.9533 63.9619 53.7968 63.8062C53.6403 63.6504 53.4414 63.5447 53.2252 63.5024C53.0091 63.4601 52.7853 63.483 52.5821 63.5682C52.3789 63.6535 52.2053 63.7973 52.0832 63.9816C51.961 64.1659 51.8959 64.3823 51.8959 64.6038C51.891 64.7552 51.9167 64.906 51.9714 65.0472C52.026 65.1883 52.1085 65.3169 52.2139 65.4251C52.3193 65.5334 52.4454 65.619 52.5846 65.6769C52.7238 65.7348 52.8732 65.7638 53.0239 65.7621V65.7259ZM53.0239 61.1891C53.2441 61.1867 53.4587 61.1189 53.6406 60.9941C53.8226 60.8694 53.9637 60.6933 54.0463 60.4881C54.129 60.2828 54.1494 60.0576 54.105 59.8408C54.0606 59.6239 53.9533 59.4251 53.7968 59.2693C53.6403 59.1136 53.4414 59.0079 53.2252 58.9656C53.0091 58.9232 52.7853 58.9462 52.5821 59.0315C52.3789 59.1167 52.2053 59.2606 52.0832 59.4448C51.961 59.6291 51.8959 59.8456 51.8959 60.067C51.8959 60.2154 51.9252 60.3623 51.982 60.4992C52.0388 60.6362 52.1221 60.7604 52.227 60.8647C52.3319 60.9691 52.4564 61.0515 52.5931 61.1072C52.7299 61.1628 52.8763 61.1907 53.0239 61.1891ZM53.0239 56.6402C53.2441 56.6378 53.4587 56.57 53.6406 56.4453C53.8226 56.3205 53.9637 56.1444 54.0463 55.9392C54.129 55.7339 54.1494 55.5087 54.105 55.2918C54.0606 55.075 53.9533 54.8762 53.7968 54.7204C53.6403 54.5647 53.4414 54.459 53.2252 54.4167C53.0091 54.3744 52.7853 54.3973 52.5821 54.4825C52.3789 54.5678 52.2053 54.7117 52.0832 54.8959C51.961 55.0802 51.8959 55.2966 51.8959 55.5181C51.8959 55.6665 51.9252 55.8134 51.982 55.9503C52.0388 56.0872 52.1221 56.2114 52.227 56.3158C52.3319 56.4202 52.4564 56.5026 52.5931 56.5582C52.7299 56.6139 52.8763 56.6418 53.0239 56.6402ZM53.0239 52.1034C53.2475 52.1034 53.466 52.0365 53.6518 51.9114C53.8375 51.7862 53.9821 51.6083 54.0671 51.4003C54.1522 51.1924 54.1738 50.9638 54.1292 50.7434C54.0847 50.5231 53.9761 50.321 53.8172 50.1629C53.6582 50.0048 53.4561 49.8977 53.2365 49.8553C53.0169 49.8129 52.7897 49.8371 52.5838 49.9248C52.3779 50.0125 52.2026 50.1598 52.0802 50.3479C51.9577 50.536 51.8935 50.7564 51.8959 50.9812C51.8959 51.1296 51.9252 51.2765 51.982 51.4135C52.0388 51.5504 52.1221 51.6747 52.227 51.779C52.3319 51.8834 52.4564 51.9658 52.5931 52.0215C52.7299 52.0771 52.8763 52.105 53.0239 52.1034ZM53.0239 47.5544C53.2441 47.5521 53.4587 47.4842 53.6406 47.3595C53.8226 47.2348 53.9637 47.0587 54.0463 46.8535C54.129 46.6482 54.1494 46.423 54.105 46.2062C54.0606 45.9893 53.9533 45.7904 53.7968 45.6347C53.6403 45.4789 53.4414 45.3733 53.2252 45.3309C53.0091 45.2886 52.7853 45.3115 52.5821 45.3968C52.3789 45.4821 52.2053 45.6259 52.0832 45.8102C51.961 45.9944 51.8959 46.2109 51.8959 46.4323C51.8959 46.5807 51.9252 46.7276 51.982 46.8645C52.0388 47.0015 52.1221 47.1258 52.227 47.2301C52.3319 47.3345 52.4564 47.4169 52.5931 47.4726C52.7299 47.5282 52.8763 47.556 53.0239 47.5544ZM53.0239 43.0177C53.247 43.0177 53.4651 42.9511 53.6506 42.8265C53.8361 42.7019 53.9807 42.5247 54.066 42.3175C54.1514 42.1102 54.1737 41.8822 54.1302 41.6622C54.0867 41.4422 53.9792 41.2401 53.8215 41.0815C53.6637 40.9229 53.4628 40.8148 53.244 40.7711C53.0252 40.7273 52.7984 40.7497 52.5923 40.8356C52.3861 40.9214 52.21 41.0668 52.086 41.2533C51.9621 41.4398 51.8959 41.6591 51.8959 41.8835C51.8959 42.1843 52.0147 42.4728 52.2263 42.6855C52.4378 42.8982 52.7247 43.0177 53.0239 43.0177ZM53.0239 38.4688C53.2441 38.4664 53.4587 38.3986 53.6406 38.2738C53.8226 38.1491 53.9637 37.973 54.0463 37.7677C54.129 37.5625 54.1494 37.3373 54.105 37.1204C54.0606 36.9035 53.9533 36.7047 53.7968 36.549C53.6403 36.3933 53.4414 36.2876 53.2252 36.2453C53.0091 36.2029 52.7853 36.2258 52.5821 36.3111C52.3789 36.3964 52.2053 36.5402 52.0832 36.7245C51.961 36.9087 51.8959 37.1252 51.8959 37.3466C51.8959 37.495 51.9252 37.6419 51.982 37.7789C52.0388 37.9158 52.1221 38.04 52.227 38.1444C52.3319 38.2487 52.4564 38.3311 52.5931 38.3868C52.7299 38.4425 52.8763 38.4704 53.0239 38.4688ZM53.0239 33.9198C53.2441 33.9175 53.4587 33.8496 53.6406 33.7249C53.8226 33.6002 53.9637 33.4241 54.0463 33.2188C54.129 33.0136 54.1494 32.7883 54.105 32.5715C54.0606 32.3546 53.9533 32.1558 53.7968 32.0001C53.6403 31.8443 53.4414 31.7387 53.2252 31.6963C53.0091 31.654 52.7853 31.6769 52.5821 31.7622C52.3789 31.8475 52.2053 31.9913 52.0832 32.1756C51.961 32.3598 51.8959 32.5763 51.8959 32.7977C51.8959 32.9461 51.9252 33.093 51.982 33.2299C52.0388 33.3669 52.1221 33.4912 52.227 33.5955C52.3319 33.6999 52.4564 33.7823 52.5931 33.838C52.7299 33.8936 52.8763 33.9214 53.0239 33.9198Z" fill="#7542E5"/>
<path d="M53.7921 32.7857C53.7921 33.2683 53.5881 33.6545 53.3361 33.6545H50.1081C49.8561 33.6545 49.6521 33.2683 49.6521 32.7857C49.6521 32.3031 49.8561 31.9049 50.1081 31.9049H53.3361C53.5881 31.9049 53.7921 32.3031 53.7921 32.7857Z" fill="#CDD5D7"/>
<path d="M53.324 31.9049H50.42C50.3109 32.1085 50.2571 32.3374 50.264 32.5685C50.264 33.0512 50.468 33.4373 50.72 33.4373H53.024C53.276 33.4373 53.48 33.0512 53.48 32.5685C53.4869 32.3374 53.4331 32.1085 53.324 31.9049Z" fill="#E5E8EC"/>
<path d="M50.636 32.3634C50.6237 32.2108 50.6237 32.0575 50.636 31.9049H50.036C49.9268 32.1041 49.8729 32.3291 49.88 32.5564C49.88 33.0391 50.084 33.4252 50.336 33.4252H50.8281C50.6852 33.0904 50.6195 32.7274 50.636 32.3634Z" fill="#B7BEC0"/>
<path d="M53.7921 37.3347C53.7921 37.8173 53.5881 38.2154 53.3361 38.2154H50.1081C49.8561 38.2154 49.6521 37.8173 49.6521 37.3347C49.6521 36.852 49.8561 36.4539 50.1081 36.4539H53.3361C53.5881 36.4539 53.7921 36.852 53.7921 37.3347Z" fill="#CDD5D7"/>
<path d="M53.324 36.4539H50.42C50.3125 36.658 50.2588 36.8865 50.264 37.1175C50.264 37.6001 50.468 37.9862 50.72 37.9862H53.024C53.276 37.9862 53.48 37.6001 53.48 37.1175C53.4853 36.8865 53.4316 36.658 53.324 36.4539Z" fill="#E5E8EC"/>
<path d="M50.636 36.9124C50.6237 36.7598 50.6237 36.6064 50.636 36.4539H50.036C49.9268 36.653 49.8729 36.8781 49.88 37.1054C49.88 37.588 50.084 37.9741 50.336 37.9741H50.8281C50.6852 37.6393 50.6195 37.2763 50.636 36.9124Z" fill="#B7BEC0"/>
<path d="M53.7921 41.8836C53.7921 42.3662 53.5881 42.7643 53.3361 42.7643H50.1081C49.8561 42.7643 49.6521 42.3662 49.6521 41.8836C49.6521 41.4009 49.8561 41.0027 50.1081 41.0027H53.3361C53.5881 41.0027 53.7921 41.4009 53.7921 41.8836Z" fill="#CDD5D7"/>
<path d="M53.324 41.0027H50.42C50.3125 41.2068 50.2588 41.4354 50.264 41.6664C50.264 42.149 50.468 42.5472 50.72 42.5472H53.024C53.276 42.5472 53.48 42.149 53.48 41.6664C53.4853 41.4354 53.4316 41.2068 53.324 41.0027Z" fill="#E5E8EC"/>
<path d="M50.636 41.4612C50.6237 41.3086 50.6237 41.1553 50.636 41.0027H50.036C49.9268 41.2019 49.8729 41.427 49.88 41.6543C49.88 42.1369 50.084 42.5351 50.336 42.5351H50.8281C50.6834 42.1966 50.6176 41.8292 50.636 41.4612Z" fill="#B7BEC0"/>
<path d="M53.7921 46.4565C53.7921 46.9391 53.5881 47.3373 53.3361 47.3373H50.1081C49.8561 47.3373 49.6521 46.9391 49.6521 46.4565C49.6521 45.9738 49.8561 45.5878 50.1081 45.5878H53.3361C53.5881 45.5878 53.7921 45.9738 53.7921 46.4565Z" fill="#CDD5D7"/>
<path d="M53.324 45.5636H50.4201C50.3108 45.7628 50.2569 45.9878 50.2641 46.2151C50.2641 46.6978 50.4681 47.096 50.7201 47.096H53.024C53.276 47.096 53.48 46.6978 53.48 46.2151C53.4871 45.9878 53.4333 45.7628 53.324 45.5636Z" fill="#E5E8EC"/>
<path d="M50.6358 46.01C50.6235 45.8615 50.6235 45.7122 50.6358 45.5636H50.0358C49.9298 45.764 49.8761 45.9882 49.8798 46.2151C49.8798 46.6978 50.0838 47.096 50.3358 47.096H50.8279C50.6779 46.7548 50.6119 46.3823 50.6358 46.01Z" fill="#B7BEC0"/>
<path d="M53.7921 50.9813C53.7921 51.476 53.5881 51.8621 53.3361 51.8621H50.1081C49.8561 51.8621 49.6521 51.476 49.6521 50.9813C49.6521 50.4986 49.8561 50.1125 50.1081 50.1125H53.3361C53.5881 50.1125 53.7921 50.4986 53.7921 50.9813Z" fill="#CDD5D7"/>
<path d="M53.324 50.0763H50.4201C50.3108 50.2755 50.2569 50.5005 50.2641 50.7278C50.2641 51.2225 50.4681 51.6087 50.7201 51.6087H53.024C53.276 51.6087 53.48 51.2225 53.48 50.7278C53.4871 50.5005 53.4333 50.2755 53.324 50.0763Z" fill="#E5E8EC"/>
<path d="M50.6359 50.571C50.6231 50.4184 50.6231 50.2651 50.6359 50.1125H50.0359C49.926 50.3071 49.872 50.5284 49.8799 50.752C49.8799 51.2467 50.0839 51.6328 50.3359 51.6328H50.828C50.6851 51.298 50.6194 50.935 50.6359 50.571Z" fill="#B7BEC0"/>
<path d="M53.7921 55.5422C53.7921 56.0249 53.5881 56.411 53.3361 56.411H50.1081C49.8561 56.411 49.6521 56.0249 49.6521 55.5422C49.6521 55.0596 49.8561 54.6614 50.1081 54.6614H53.3361C53.5881 54.6614 53.7921 55.0596 53.7921 55.5422Z" fill="#CDD5D7"/>
<path d="M53.324 54.6614H50.42C50.3109 54.865 50.2571 55.0938 50.264 55.325C50.264 55.8076 50.468 56.1938 50.72 56.1938H53.024C53.276 56.1938 53.48 55.8076 53.48 55.325C53.4869 55.0938 53.4331 54.865 53.324 54.6614Z" fill="#E5E8EC"/>
<path d="M50.636 55.1199C50.6237 54.9673 50.6237 54.814 50.636 54.6614H50.036C49.9268 54.8605 49.8729 55.0857 49.88 55.313C49.88 55.7956 50.084 56.1817 50.336 56.1817H50.8281C50.6852 55.8469 50.6195 55.4839 50.636 55.1199Z" fill="#B7BEC0"/>
<path d="M53.7921 60.0911C53.7921 60.5738 53.5881 60.972 53.3361 60.972H50.1081C49.8561 60.972 49.6521 60.5738 49.6521 60.0911C49.6521 59.6085 49.8561 59.2103 50.1081 59.2103H53.3361C53.5881 59.2103 53.7921 59.6085 53.7921 60.0911Z" fill="#CDD5D7"/>
<path d="M53.324 59.2103H50.42C50.3125 59.4145 50.2588 59.643 50.264 59.8739C50.264 60.3566 50.468 60.7427 50.72 60.7427H53.024C53.276 60.7427 53.48 60.3566 53.48 59.8739C53.4853 59.643 53.4316 59.4145 53.324 59.2103Z" fill="#E5E8EC"/>
<path d="M50.636 59.7291C50.6237 59.5766 50.6237 59.4232 50.636 59.2706H50.036C49.9268 59.4698 49.8729 59.6948 49.88 59.9222C49.88 60.4048 50.084 60.791 50.336 60.791H50.8281C50.6852 60.4561 50.6195 60.0931 50.636 59.7291Z" fill="#B7BEC0"/>
<path d="M53.7921 64.6401C53.7921 65.1227 53.5881 65.5209 53.3361 65.5209H50.1081C49.8561 65.5209 49.6521 65.1227 49.6521 64.6401C49.6521 64.1574 49.8561 63.7593 50.1081 63.7593H53.3361C53.5881 63.7593 53.7921 64.1574 53.7921 64.6401Z" fill="#CDD5D7"/>
<path d="M53.324 63.7593H50.42C50.3125 63.9634 50.2588 64.1919 50.264 64.4229C50.264 64.9055 50.468 65.3037 50.72 65.3037H53.024C53.276 65.3037 53.48 64.9055 53.48 64.4229C53.4853 64.1919 53.4316 63.9634 53.324 63.7593Z" fill="#E5E8EC"/>
<path d="M50.636 64.2177C50.6237 64.0651 50.6237 63.9119 50.636 63.7593H50.036C49.9268 63.9584 49.8729 64.1835 49.88 64.4108C49.88 64.8935 50.084 65.2916 50.336 65.2916H50.8281C50.6834 64.9531 50.6176 64.5857 50.636 64.2177Z" fill="#B7BEC0"/>
<path d="M53.7921 69.189C53.7921 69.6837 53.5881 70.0698 53.3361 70.0698H50.1081C49.8561 70.0698 49.6521 69.6837 49.6521 69.189C49.6521 68.7063 49.8561 68.3202 50.1081 68.3202H53.3361C53.5881 68.3202 53.7921 68.7063 53.7921 69.189Z" fill="#CDD5D7"/>
<path d="M53.324 68.3202H50.4201C50.3108 68.5194 50.2569 68.7444 50.2641 68.9717C50.2641 69.4544 50.4681 69.8526 50.7201 69.8526H53.024C53.276 69.8526 53.48 69.4544 53.48 68.9717C53.4871 68.7444 53.4333 68.5194 53.324 68.3202Z" fill="#E5E8EC"/>
<path d="M50.636 68.7787C50.6232 68.6261 50.6232 68.4728 50.636 68.3202H50.036C49.9284 68.52 49.8746 68.7446 49.88 68.9717C49.88 69.4544 50.084 69.8526 50.336 69.8526H50.8281C50.6795 69.5152 50.6136 69.147 50.636 68.7787Z" fill="#B7BEC0"/>
<path d="M53.7921 73.7499C53.7921 74.2326 53.5881 74.6187 53.3361 74.6187H50.1081C49.8561 74.6187 49.6521 74.2326 49.6521 73.7499C49.6521 73.2552 49.8561 72.8691 50.1081 72.8691H53.3361C53.5881 72.8691 53.7921 73.2552 53.7921 73.7499Z" fill="#CDD5D7"/>
<path d="M53.324 72.8691H50.4201C50.3108 73.0683 50.2569 73.2933 50.2641 73.5207C50.2641 74.0033 50.4681 74.4015 50.7201 74.4015H53.024C53.276 74.4015 53.48 74.0033 53.48 73.5207C53.4871 73.2933 53.4333 73.0683 53.324 72.8691Z" fill="#E5E8EC"/>
<path d="M50.6358 73.3277C50.623 73.1751 50.623 73.0217 50.6358 72.8691H50.0358C49.9298 73.0695 49.8761 73.2937 49.8798 73.5207C49.8798 74.0033 50.0838 74.4015 50.3358 74.4015H50.8279C50.6832 74.0629 50.6175 73.6957 50.6358 73.3277Z" fill="#B7BEC0"/>
<path d="M53.7921 78.2988C53.7921 78.7815 53.5881 79.1676 53.3361 79.1676H50.1081C49.8561 79.1676 49.6521 78.7815 49.6521 78.2988C49.6521 77.8162 49.8561 77.418 50.1081 77.418H53.3361C53.5881 77.418 53.7921 77.8162 53.7921 78.2988Z" fill="#CDD5D7"/>
<path d="M53.324 77.418H50.42C50.3109 77.6215 50.2571 77.8505 50.264 78.0817C50.264 78.5643 50.468 78.9504 50.72 78.9504H53.024C53.276 78.9504 53.48 78.5643 53.48 78.0817C53.4869 77.8505 53.4331 77.6215 53.324 77.418Z" fill="#E5E8EC"/>
<path d="M50.636 77.8281C50.6237 77.6756 50.6237 77.5222 50.636 77.3696H50.036C49.9268 77.5688 49.8729 77.7938 49.88 78.0212C49.88 78.5038 50.084 78.89 50.336 78.89H50.8281C50.6852 78.5551 50.6195 78.1921 50.636 77.8281Z" fill="#B7BEC0"/>
<path d="M53.7921 82.8476C53.7921 83.3302 53.5881 83.7285 53.3361 83.7285H50.1081C49.8561 83.7285 49.6521 83.3302 49.6521 82.8476C49.6521 82.365 49.8561 81.9668 50.1081 81.9668H53.3361C53.5881 81.9668 53.7921 82.365 53.7921 82.8476Z" fill="#CDD5D7"/>
<path d="M53.324 81.9668H50.42C50.3125 82.171 50.2588 82.3994 50.264 82.6304C50.264 83.1131 50.468 83.4992 50.72 83.4992H53.024C53.276 83.4992 53.48 83.1131 53.48 82.6304C53.4853 82.3994 53.4316 82.171 53.324 81.9668Z" fill="#E5E8EC"/>
<path d="M50.636 82.4253C50.6237 82.2727 50.6237 82.1194 50.636 81.9668H50.036C49.9268 82.166 49.8729 82.391 49.88 82.6183C49.88 83.101 50.084 83.4871 50.336 83.4871H50.8281C50.6852 83.1523 50.6195 82.7893 50.636 82.4253Z" fill="#B7BEC0"/>
<path d="M53.7921 87.3965C53.7921 87.8792 53.5881 88.2774 53.3361 88.2774H50.1081C49.8561 88.2774 49.6521 87.8792 49.6521 87.3965C49.6521 86.9139 49.8561 86.5157 50.1081 86.5157H53.3361C53.5881 86.5157 53.7921 86.9139 53.7921 87.3965Z" fill="#CDD5D7"/>
<path d="M53.324 86.5157H50.42C50.3125 86.7199 50.2588 86.9484 50.264 87.1794C50.264 87.662 50.468 88.0602 50.72 88.0602H53.024C53.276 88.0602 53.48 87.662 53.48 87.1794C53.4853 86.9484 53.4316 86.7199 53.324 86.5157Z" fill="#E5E8EC"/>
<path d="M50.636 86.9743C50.6237 86.8217 50.6237 86.6683 50.636 86.5157H50.036C49.9268 86.7149 49.8729 86.94 49.88 87.1673C49.88 87.6499 50.084 88.0481 50.336 88.0481H50.8281C50.6834 87.7096 50.6176 87.3423 50.636 86.9743Z" fill="#B7BEC0"/>
<path d="M53.7921 91.9455C53.7921 92.4281 53.5881 92.8263 53.3361 92.8263H50.1081C49.8561 92.8263 49.6521 92.4281 49.6521 91.9455C49.6521 91.4628 49.8561 91.0767 50.1081 91.0767H53.3361C53.5881 91.0767 53.7921 91.4628 53.7921 91.9455Z" fill="#CDD5D7"/>
<path d="M53.324 91.1008H50.4201C50.3108 91.3 50.2569 91.525 50.2641 91.7524C50.2641 92.235 50.4681 92.6332 50.7201 92.6332H53.024C53.276 92.6332 53.48 92.235 53.48 91.7524C53.4871 91.525 53.4333 91.3 53.324 91.1008Z" fill="#E5E8EC"/>
<path d="M50.636 91.5231C50.6237 91.3745 50.6237 91.2252 50.636 91.0767H50.036C49.9284 91.2765 49.8746 91.5011 49.88 91.7283C49.88 92.2109 50.084 92.6091 50.336 92.6091H50.8281C50.678 92.2679 50.6121 91.8953 50.636 91.5231Z" fill="#B7BEC0"/>
<path d="M53.7921 96.5064C53.7921 96.989 53.5881 97.3752 53.3361 97.3752H50.1081C49.8561 97.3752 49.6521 96.989 49.6521 96.5064C49.6521 96.0117 49.8561 95.6256 50.1081 95.6256H53.3361C53.5881 95.6256 53.7921 96.0117 53.7921 96.5064Z" fill="#CDD5D7"/>
<path d="M53.324 95.6256H50.4201C50.3108 95.8248 50.2569 96.0498 50.2641 96.2771C50.2641 96.7598 50.4681 97.158 50.7201 97.158H53.024C53.276 97.158 53.48 96.7598 53.48 96.2771C53.4871 96.0498 53.4333 95.8248 53.324 95.6256Z" fill="#E5E8EC"/>
<path d="M50.6358 96.0841C50.623 95.9316 50.623 95.7782 50.6358 95.6256H50.0358C49.9298 95.826 49.8761 96.0502 49.8798 96.2771C49.8798 96.7598 50.0838 97.158 50.3358 97.158H50.8279C50.6832 96.8195 50.6175 96.4521 50.6358 96.0841Z" fill="#B7BEC0"/>
<path d="M53.7921 101.055C53.7921 101.538 53.5881 101.924 53.3361 101.924H50.1081C49.8561 101.924 49.6521 101.538 49.6521 101.055C49.6521 100.573 49.8561 100.175 50.1081 100.175H53.3361C53.5881 100.175 53.7921 100.573 53.7921 101.055Z" fill="#CDD5D7"/>
<path d="M53.324 100.175H50.42C50.3109 100.378 50.2571 100.607 50.264 100.838C50.264 101.321 50.468 101.707 50.72 101.707H53.024C53.276 101.707 53.48 101.321 53.48 100.838C53.4869 100.607 53.4331 100.378 53.324 100.175Z" fill="#E5E8EC"/>
<path d="M50.636 100.633C50.6232 100.481 50.6232 100.327 50.636 100.175H50.036C49.9268 100.374 49.8729 100.599 49.88 100.826C49.88 101.309 50.084 101.695 50.336 101.695H50.8281C50.6852 101.36 50.6195 100.997 50.636 100.633Z" fill="#B7BEC0"/>
<path d="M53.7921 105.58C53.7921 106.063 53.5881 106.461 53.3361 106.461H50.1081C49.8561 106.461 49.6521 106.063 49.6521 105.58C49.6521 105.097 49.8561 104.699 50.1081 104.699H53.3361C53.5881 104.699 53.7921 105.097 53.7921 105.58Z" fill="#CDD5D7"/>
<path d="M53.324 104.723H50.42C50.3109 104.927 50.2571 105.156 50.264 105.387C50.264 105.87 50.468 106.256 50.72 106.256H53.024C53.276 106.256 53.48 105.87 53.48 105.387C53.4869 105.156 53.4331 104.927 53.324 104.723Z" fill="#E5E8EC"/>
<path d="M50.636 105.182C50.6237 105.029 50.6237 104.876 50.636 104.723H50.036C49.9268 104.923 49.8729 105.148 49.88 105.375C49.88 105.858 50.084 106.244 50.336 106.244H50.8281C50.6852 105.909 50.6195 105.546 50.636 105.182Z" fill="#B7BEC0"/>
<path d="M53.7921 110.153C53.7921 110.636 53.5881 111.034 53.3361 111.034H50.1081C49.8561 111.034 49.6521 110.636 49.6521 110.153C49.6521 109.67 49.8561 109.272 50.1081 109.272H53.3361C53.5881 109.272 53.7921 109.67 53.7921 110.153Z" fill="#CDD5D7"/>
<path d="M53.324 109.272H50.42C50.3125 109.476 50.2588 109.705 50.264 109.936C50.264 110.418 50.468 110.817 50.72 110.817H53.024C53.276 110.817 53.48 110.418 53.48 109.936C53.4853 109.705 53.4316 109.476 53.324 109.272Z" fill="#E5E8EC"/>
<path d="M50.636 109.731C50.6237 109.578 50.6237 109.425 50.636 109.272H50.036C49.9268 109.471 49.8729 109.696 49.88 109.924C49.88 110.406 50.084 110.805 50.336 110.805H50.8281C50.6834 110.466 50.6176 110.099 50.636 109.731Z" fill="#B7BEC0"/>
<path d="M53.7921 114.702C53.7921 115.185 53.5881 115.583 53.3361 115.583H50.1081C49.8561 115.583 49.6521 115.185 49.6521 114.702C49.6521 114.219 49.8561 113.833 50.1081 113.833H53.3361C53.5881 113.833 53.7921 114.219 53.7921 114.702Z" fill="#CDD5D7"/>
<path d="M53.324 113.833H50.4201C50.3108 114.032 50.2569 114.257 50.2641 114.485C50.2641 114.967 50.4681 115.366 50.7201 115.366H53.024C53.276 115.366 53.48 114.967 53.48 114.485C53.4871 114.257 53.4333 114.032 53.324 113.833Z" fill="#E5E8EC"/>
<path d="M50.636 114.28C50.6237 114.131 50.6237 113.982 50.636 113.833H50.036C49.9284 114.033 49.8746 114.258 49.88 114.485C49.88 114.967 50.084 115.366 50.336 115.366H50.8281C50.678 115.024 50.6121 114.652 50.636 114.28Z" fill="#B7BEC0"/>
<path d="M53.7921 119.263C53.7921 119.746 53.5881 120.132 53.3361 120.132H50.1081C49.8561 120.132 49.6521 119.746 49.6521 119.263C49.6521 118.768 49.8561 118.382 50.1081 118.382H53.3361C53.5881 118.382 53.7921 118.768 53.7921 119.263Z" fill="#CDD5D7"/>
<path d="M53.324 118.382H50.4201C50.3108 118.581 50.2569 118.806 50.2641 119.034C50.2641 119.516 50.4681 119.914 50.7201 119.914H53.024C53.276 119.914 53.48 119.516 53.48 119.034C53.4871 118.806 53.4333 118.581 53.324 118.382Z" fill="#E5E8EC"/>
<path d="M50.6358 118.853C50.623 118.7 50.623 118.547 50.6358 118.394H50.0358C49.9298 118.595 49.8761 118.819 49.8798 119.046C49.8798 119.528 50.0838 119.927 50.3358 119.927H50.8279C50.6832 119.588 50.6175 119.221 50.6358 118.853Z" fill="#B7BEC0"/>
<path d="M53.7921 123.812C53.7921 124.294 53.5881 124.681 53.3361 124.681H50.1081C49.8561 124.681 49.6521 124.294 49.6521 123.812C49.6521 123.329 49.8561 122.931 50.1081 122.931H53.3361C53.5881 122.931 53.7921 123.329 53.7921 123.812Z" fill="#CDD5D7"/>
<path d="M53.324 122.931H50.42C50.3124 123.131 50.2587 123.355 50.264 123.583C50.264 124.077 50.468 124.463 50.72 124.463H53.024C53.276 124.463 53.48 124.077 53.48 123.583C53.4854 123.355 53.4316 123.131 53.324 122.931Z" fill="#E5E8EC"/>
<path d="M50.6359 123.39C50.6231 123.237 50.6231 123.084 50.6359 122.931H50.0359C49.926 123.126 49.872 123.347 49.8799 123.57C49.8799 124.065 50.0839 124.451 50.3359 124.451H50.828C50.6851 124.117 50.6194 123.754 50.6359 123.39Z" fill="#B7BEC0"/>
<path d="M53.7921 128.361C53.7921 128.843 53.5881 129.242 53.3361 129.242H50.1081C49.8561 129.242 49.6521 128.843 49.6521 128.361C49.6521 127.878 49.8561 127.48 50.1081 127.48H53.3361C53.5881 127.48 53.7921 127.878 53.7921 128.361Z" fill="#CDD5D7"/>
<path d="M53.324 127.48H50.42C50.3125 127.684 50.2588 127.913 50.264 128.144C50.264 128.626 50.468 129.012 50.72 129.012H53.024C53.276 129.012 53.48 128.626 53.48 128.144C53.4853 127.913 53.4316 127.684 53.324 127.48Z" fill="#E5E8EC"/>
<path d="M50.636 127.938C50.6237 127.786 50.6237 127.633 50.636 127.48H50.036C49.9268 127.679 49.8729 127.904 49.88 128.132C49.88 128.614 50.084 129 50.336 129H50.8281C50.6852 128.665 50.6195 128.302 50.636 127.938Z" fill="#B7BEC0"/>
<path d="M53.7921 132.91C53.7921 133.392 53.5881 133.79 53.3361 133.79H50.1081C49.8561 133.79 49.6521 133.392 49.6521 132.91C49.6521 132.427 49.8561 132.029 50.1081 132.029H53.3361C53.5881 132.029 53.7921 132.427 53.7921 132.91Z" fill="#CDD5D7"/>
<path d="M53.324 132.029H50.42C50.3125 132.233 50.2588 132.461 50.264 132.692C50.264 133.175 50.468 133.573 50.72 133.573H53.024C53.276 133.573 53.48 133.175 53.48 132.692C53.4853 132.461 53.4316 132.233 53.324 132.029Z" fill="#E5E8EC"/>
<path d="M50.636 132.487C50.6237 132.335 50.6237 132.181 50.636 132.029H50.036C49.9268 132.228 49.8729 132.453 49.88 132.68C49.88 133.163 50.084 133.561 50.336 133.561H50.8281C50.6834 133.223 50.6176 132.855 50.636 132.487Z" fill="#B7BEC0"/>
<path d="M149.087 21.1302L83.5295 16.2913L76.6486 109.513L142.206 114.352L149.087 21.1302Z" fill="#E5E8EC"/>
<path d="M133.919 98.4839L85.6787 94.9231L85.6148 95.7895L133.856 99.3503L133.919 98.4839Z" fill="#B7BEC0"/>
<path d="M135.049 100.14L85.5632 96.4874L85.5002 97.3418L134.986 100.994L135.049 100.14Z" fill="#B7BEC0"/>
<path d="M133.891 101.64L85.447 98.0638L85.384 98.9182L133.828 102.494L133.891 101.64Z" fill="#B7BEC0"/>
<path d="M114.639 101.803L85.3306 99.6401L85.2666 100.507L114.575 102.67L114.639 101.803Z" fill="#B7BEC0"/>
<path d="M137.966 59.3161L88.4924 55.6643L88.4294 56.5187L137.903 60.1704L137.966 59.3161Z" fill="#B7BEC0"/>
<path d="M137.239 60.8474L88.376 57.2407L88.312 58.1071L137.175 61.7138L137.239 60.8474Z" fill="#B7BEC0"/>
<path d="M137.733 62.4688L88.2595 58.817L88.1965 59.6714L137.67 63.3231L137.733 62.4688Z" fill="#B7BEC0"/>
<path d="M137.617 64.0331L88.144 60.3813L88.081 61.2357L137.554 64.8875L137.617 64.0331Z" fill="#B7BEC0"/>
<path d="M136.687 65.5495L88.0278 61.9578L87.9639 62.8242L136.623 66.4159L136.687 65.5495Z" fill="#B7BEC0"/>
<path d="M137.385 67.1858L87.9114 63.5341L87.8483 64.3884L137.322 68.0402L137.385 67.1858Z" fill="#B7BEC0"/>
<path d="M136.036 68.6711L87.7952 65.1104L87.7321 65.9647L135.973 69.5255L136.036 68.6711Z" fill="#B7BEC0"/>
<path d="M137.153 70.3264L87.6797 66.6747L87.6166 67.5291L137.09 71.1808L137.153 70.3264Z" fill="#B7BEC0"/>
<path d="M136.007 71.8269L87.5632 68.2511L87.5002 69.1055L135.944 72.6813L136.007 71.8269Z" fill="#B7BEC0"/>
<path d="M134.56 91.4411L86.1155 87.8654L86.0933 88.1662L134.537 91.742L134.56 91.4411Z" fill="#B7BEC0"/>
<path d="M97.9664 70.6039L87.447 69.8274L87.384 70.6818L97.9033 71.4582L97.9664 70.6039Z" fill="#B7BEC0"/>
<path d="M138.996 45.3695L106.911 43.0012L106.848 43.8556L138.933 46.2238L138.996 45.3695Z" fill="#B7BEC0"/>
<path d="M137.754 46.8629L106.795 44.5776L106.732 45.432L137.691 47.7172L137.754 46.8629Z" fill="#B7BEC0"/>
<path d="M138.764 48.5101L106.679 46.1418L106.616 46.9962L138.701 49.3645L138.764 48.5101Z" fill="#B7BEC0"/>
<path d="M137.714 50.0176L106.563 47.7183L106.5 48.5726L137.651 50.872L137.714 50.0176Z" fill="#B7BEC0"/>
<path d="M115.231 49.9431L106.447 49.2947L106.383 50.149L115.168 50.7974L115.231 49.9431Z" fill="#B7BEC0"/>
<path d="M139.727 35.4541L90.2537 31.8024L90.1906 32.6567L139.664 36.3085L139.727 35.4541Z" fill="#B7BEC0"/>
<path d="M131.21 36.3982L90.1382 33.3666L90.0751 34.2209L131.147 37.2526L131.21 36.3982Z" fill="#B7BEC0"/>
<path d="M122.306 27.9251L90.7119 25.593L90.6089 26.9889L122.203 29.3209L122.306 27.9251Z" fill="#969C9E"/>
<path d="M127.314 41.422L107.018 39.9238L106.915 41.3197L127.211 42.8179L127.314 41.422Z" fill="#969C9E"/>
<path d="M136.331 81.4693L104.246 79.1011L104.183 79.9554L136.268 82.3237L136.331 81.4693Z" fill="#B7BEC0"/>
<path d="M135.09 82.9627L104.13 80.6775L104.066 81.5439L135.026 83.8291L135.09 82.9627Z" fill="#B7BEC0"/>
<path d="M136.098 84.6222L104.014 82.2539L103.951 83.1083L136.035 85.4765L136.098 84.6222Z" fill="#B7BEC0"/>
<path d="M135.048 86.1296L103.897 83.8302L103.834 84.6846L134.985 86.9839L135.048 86.1296Z" fill="#B7BEC0"/>
<path d="M126.089 87.0411L103.782 85.3945L103.719 86.2489L126.026 87.8954L126.089 87.0411Z" fill="#B7BEC0"/>
<path d="M92.536 91.0374L88.2996 90.7247L88.2365 91.5791L92.473 91.8918L92.536 91.0374Z" fill="#B7BEC0"/>
<path d="M100.829 91.6495L96.5925 91.3368L96.5295 92.1912L100.766 92.5039L100.829 91.6495Z" fill="#B7BEC0"/>
<path d="M109.11 92.2608L104.874 91.9481L104.81 92.8025L109.047 93.1152L109.11 92.2608Z" fill="#B7BEC0"/>
<path d="M117.404 92.873L113.167 92.5603L113.104 93.4147L117.341 93.7274L117.404 92.873Z" fill="#B7BEC0"/>
<path d="M118.378 77.0712L104.352 76.0359L104.249 77.4317L118.275 78.467L118.378 77.0712Z" fill="#969C9E"/>
<path d="M99.0129 47.1367C98.847 47.5725 98.5879 47.9664 98.254 48.2906L100.293 51.6353C101.542 50.7161 102.448 49.4027 102.867 47.9051L99.0129 47.1367Z" fill="#B7BEC0"/>
<path d="M96.9882 42.9342C97.6141 43.1322 98.1621 43.523 98.555 44.0513C98.9478 44.5796 99.1655 45.2188 99.1774 45.8786L103.035 46.5988C103.035 46.5988 103.041 46.5146 103.045 46.4665C103.169 44.7161 102.639 42.9824 101.559 41.6048C100.479 40.2273 98.9267 39.3048 97.2051 39.0181L96.9882 42.9342Z" fill="#484F59"/>
<path d="M93.9499 43.6779C94.4256 43.2143 95.039 42.9196 95.6964 42.8389L95.9851 38.928C94.982 38.9452 93.9939 39.1787 93.088 39.6128C92.182 40.0469 91.3791 40.6714 90.7336 41.4442L93.9499 43.6779Z" fill="#01C6DA"/>
<path d="M97.1761 48.8766C96.786 49.0149 96.3727 49.0748 95.9598 49.0529C95.5495 49.0242 95.1489 48.9146 94.7809 48.7302C94.4128 48.5458 94.0846 48.2903 93.8149 47.9783C93.5451 47.6663 93.3393 47.3039 93.209 46.9117C93.0786 46.5196 93.0264 46.1054 93.0553 45.6929C93.0858 45.3488 93.1717 45.0119 93.3094 44.6954L90.093 42.4616C89.3574 43.7709 89.0581 45.2825 89.239 46.7746C89.4199 48.2667 90.0715 49.6609 91.0984 50.7528C92.1252 51.8447 93.4732 52.5768 94.9447 52.8419C96.4163 53.1069 97.934 52.891 99.2752 52.2256L97.1761 48.8766Z" fill="#FF876C"/>
<path d="M88.8798 82.2015L86.4265 82.0204L86.1245 86.1117L88.5779 86.2928L88.8798 82.2015Z" fill="#484F59"/>
<path d="M92.8457 78.5258L90.3923 78.3447L89.7999 86.3709L92.2532 86.552L92.8457 78.5258Z" fill="#B7BEC0"/>
<path d="M96.4279 80.2057L93.9746 80.0247L93.4861 86.643L95.9394 86.8241L96.4279 80.2057Z" fill="#FF876C"/>
<path d="M100.424 76.1088L97.9707 75.9277L97.1598 86.9141L99.6131 87.0952L100.424 76.1088Z" fill="#01C6DA"/>
<path d="M87.5148 90.2675L85.8872 90.1473L85.7664 91.7839L87.394 91.904L87.5148 90.2675Z" fill="#FF876C"/>
<path d="M95.7843 90.8779L94.1567 90.7578L94.0359 92.3943L95.6635 92.5145L95.7843 90.8779Z" fill="#484F59"/>
<path d="M104.054 91.4883L102.426 91.3682L102.305 93.0047L103.933 93.1248L104.054 91.4883Z" fill="#B7BEC0"/>
<path d="M112.312 92.0978L110.684 91.9777L110.563 93.6142L112.191 93.7343L112.312 92.0978Z" fill="#01C6DA"/>
<path d="M42.0921 120.397V118.105H38.0481V120.397C38.0481 120.516 38.0949 120.629 38.1782 120.713C38.2614 120.797 38.3743 120.844 38.4921 120.844H41.6481C41.7069 120.845 41.7653 120.835 41.8199 120.813C41.8745 120.791 41.9242 120.758 41.9657 120.717C42.0073 120.675 42.04 120.625 42.0617 120.57C42.0834 120.515 42.0937 120.456 42.0921 120.397Z" fill="#FF876C"/>
<path d="M41.54 120.361V118.105H39.824V120.361C39.8255 120.389 39.8326 120.417 39.8449 120.443C39.8572 120.469 39.8745 120.492 39.8957 120.511C39.9169 120.53 39.9416 120.545 39.9684 120.554C39.9952 120.564 40.0236 120.568 40.052 120.566H41.324C41.3518 120.568 41.3796 120.564 41.4058 120.554C41.4319 120.544 41.4559 120.53 41.4761 120.51C41.4963 120.491 41.5124 120.468 41.5234 120.442C41.5344 120.417 41.54 120.389 41.54 120.361Z" fill="#FFA38F"/>
<path d="M38.9961 118.105H38.0481V120.397C38.0481 120.516 38.0949 120.629 38.1782 120.713C38.2614 120.797 38.3743 120.844 38.4921 120.844H38.9961V118.105Z" fill="#E36E54"/>
<path d="M42.1521 110.406V45.7808C41.9139 45.8079 41.6916 45.9139 41.5199 46.0821C41.3483 46.2503 41.2372 46.4712 41.2041 46.7099V110.406H42.1521Z" fill="#30363D"/>
<path d="M38.948 110.407H41.204V46.71C41.1646 46.4406 41.0302 46.1945 40.8253 46.0166C40.6205 45.8387 40.3587 45.7407 40.088 45.7407C39.8173 45.7407 39.5556 45.8387 39.3507 46.0166C39.1458 46.1945 39.0114 46.4406 38.972 46.71L38.948 110.407Z" fill="#596273"/>
<path d="M38.948 46.7099C38.9149 46.4712 38.8038 46.2503 38.6322 46.0821C38.4605 45.9139 38.2381 45.8079 38 45.7808V110.406H38.948V46.7099Z" fill="#30363D"/>
<path d="M38 45.7808C38.2374 45.8099 38.4587 45.9166 38.63 46.0844C38.8012 46.2523 38.9129 46.472 38.948 46.7099C38.9874 46.4406 39.1217 46.1945 39.3266 46.0165C39.5315 45.8386 39.7932 45.7407 40.064 45.7407C40.3347 45.7407 40.5964 45.8386 40.8013 46.0165C41.0062 46.1945 41.1406 46.4406 41.18 46.7099C41.213 46.4712 41.3241 46.2504 41.4958 46.0822C41.6674 45.914 41.8899 45.8079 42.128 45.7808L40.052 37.226L38 45.7808Z" fill="#E5E8EC"/>
<path d="M38 45.7808C38.2374 45.8099 38.4587 45.9166 38.63 46.0844C38.8012 46.2523 38.9129 46.472 38.948 46.7099C38.948 46.179 40.064 37.226 40.064 37.226L38 45.7808Z" fill="#CDD5D7"/>
<path d="M42.1279 110.346H38.0239V118.189H42.1279V110.346Z" fill="#F0CA67"/>
<path d="M40.7721 110.346H39.9321V118.189H40.7721V110.346Z" fill="#F4DA80"/>
<path d="M39.4519 39.8081C39.6477 39.8205 39.8441 39.8205 40.0399 39.8081C40.2595 39.8265 40.4803 39.8265 40.7 39.8081L40.0759 37.238L39.4519 39.8081Z" fill="#30363D"/>
<path d="M42.0199 111.167H41.7559V112.301H42.0199V111.167Z" fill="#F4DA80"/>
<path d="M41.42 111.167H41.156V112.301H41.42V111.167Z" fill="#F4DA80"/>
<path d="M40.8079 111.167H40.5439V112.301H40.8079V111.167Z" fill="#F0CA67"/>
<path d="M40.2081 111.167H39.9441V112.301H40.2081V111.167Z" fill="#F0CA67"/>
<path d="M39.608 111.167H39.344V112.301H39.608V111.167Z" fill="#F4DA80"/>
<path d="M39.0079 111.167H38.7439V112.301H39.0079V111.167Z" fill="#F4DA80"/>
<path d="M38.408 111.167H38.144V112.301H38.408V111.167Z" fill="#F4DA80"/>
<path d="M42.0199 115.969H41.7559V117.103H42.0199V115.969Z" fill="#F4DA80"/>
<path d="M41.42 115.969H41.156V117.103H41.42V115.969Z" fill="#F4DA80"/>
<path d="M40.8079 115.969H40.5439V117.103H40.8079V115.969Z" fill="#F0CA67"/>
<path d="M40.2081 115.969H39.9441V117.103H40.2081V115.969Z" fill="#F0CA67"/>
<path d="M39.608 115.969H39.344V117.103H39.608V115.969Z" fill="#F4DA80"/>
<path d="M39.0079 115.969H38.7439V117.103H39.0079V115.969Z" fill="#F4DA80"/>
<path d="M38.408 115.969H38.144V117.103H38.408V115.969Z" fill="#F4DA80"/>
<path d="M181.441 45.3651C183.685 45.9081 184.573 46.6924 184.633 47.2474C184.637 47.416 184.607 47.5836 184.543 47.7395C184.478 47.8954 184.383 48.036 184.261 48.1524C183.061 49.6485 179.461 51.0844 175.093 51.9531C175.093 52.2186 174.985 52.4961 174.913 52.7615C181.153 51.5549 185.605 49.2745 185.377 47.1629C185.257 46.0408 183.817 45.1599 181.537 44.6169C181.522 44.8682 181.49 45.1182 181.441 45.3651Z" fill="#E5E8EC"/>
<path d="M168.122 52.0013C167.738 50.6741 172.25 51.8806 176.342 49.2382C180.614 46.463 184.514 45.7149 184.91 47.0542C185.306 48.3936 181.85 50.5775 177.218 51.8806C172.586 53.1838 168.518 53.3407 168.122 52.0013Z" fill="#CDD5D7"/>
<path d="M166.49 50.4691C166.106 49.1297 170.618 50.3364 174.698 47.6939C178.982 44.9308 182.882 44.1827 183.278 45.5099C183.674 46.8372 180.218 49.0332 175.538 50.3846C170.858 51.736 166.874 51.7963 166.49 50.4691Z" fill="#B7BEC0"/>
<path d="M177.674 48.4299C180.65 46.7527 183.266 46.1132 184.37 46.5355C184.705 46.5105 185.037 46.6188 185.294 46.8372C184.729 45.205 184.006 43.6328 183.134 42.1435H183.014C182.054 41.5522 179.03 42.3366 175.622 44.3757C176.632 45.5338 177.337 46.9275 177.674 48.4299Z" fill="#E5E8EC"/>
<path d="M178.778 46.9095C178.31 45.7508 177.718 44.6464 177.014 43.6155C176.57 43.8447 176.102 44.1102 175.622 44.3877C176.434 45.3157 177.05 46.3992 177.434 47.5731C177.938 47.3318 178.346 47.1025 178.778 46.9095Z" fill="#CDD5D7"/>
<path d="M152.162 71.1382C149.101 69.448 146.607 66.8834 144.994 63.7683C143.382 60.6533 142.725 57.1276 143.105 53.637C143.485 50.1463 144.885 46.8472 147.129 44.1566C149.374 41.466 152.361 39.5047 155.713 38.5205C159.065 37.5362 162.632 37.5732 165.964 38.6267C169.295 39.6803 172.241 41.7032 174.43 44.4398C176.618 47.1763 177.951 50.5038 178.259 54.0017C178.567 57.4995 177.838 61.0106 176.162 64.0916C175.048 66.1402 173.543 67.948 171.733 69.4112C169.923 70.8744 167.844 71.9644 165.615 72.6189C163.386 73.2734 161.05 73.4795 158.742 73.2254C156.433 72.9713 154.198 72.262 152.162 71.1382Z" fill="#CDD5D7"/>
<path d="M153.025 70.3297C149.964 68.6396 147.47 66.0749 145.858 62.9598C144.246 59.8448 143.588 56.3192 143.968 52.8285C144.348 49.3379 145.749 46.0388 147.993 43.3482C150.237 40.6576 153.224 38.6962 156.576 37.712C159.928 36.7277 163.496 36.7647 166.827 37.8183C170.159 38.8719 173.105 40.8948 175.293 43.6313C177.481 46.3679 178.814 49.6953 179.122 53.1931C179.431 56.691 178.701 60.2022 177.025 63.2831C175.912 65.333 174.408 67.1418 172.598 68.6059C170.789 70.07 168.709 71.1606 166.48 71.8152C164.25 72.4698 161.914 72.6756 159.605 72.4207C157.297 72.1657 155.06 71.4552 153.025 70.3297Z" fill="#E5E8EC"/>
<path d="M153.65 69.1835C150.809 67.6205 148.494 65.2457 146.996 62.3595C145.499 59.4733 144.886 56.2053 145.235 52.9688C145.585 49.7323 146.881 46.6729 148.961 44.1773C151.04 41.6818 153.808 39.8623 156.916 38.949C160.023 38.0357 163.331 38.0697 166.419 39.0465C169.508 40.0234 172.239 41.8993 174.267 44.437C176.295 46.9747 177.529 50.0602 177.813 53.3031C178.097 56.5461 177.418 59.8008 175.862 62.6557C174.83 64.5515 173.437 66.2244 171.762 67.5786C170.088 68.9328 168.164 69.9419 166.101 70.5481C164.038 71.1544 161.877 71.3459 159.74 71.1117C157.604 70.8776 155.534 70.2223 153.65 69.1835Z" fill="#CDD5D7"/>
<path d="M159.11 71.0295C162.103 71.3586 165.127 70.7922 167.801 69.4014C170.476 68.0106 172.683 65.8571 174.146 63.2107C176.057 59.5507 176.462 55.2828 175.274 51.3254C174.086 47.3681 171.401 44.0377 167.796 42.0513C164.191 40.0648 159.954 39.581 155.998 40.704C152.041 41.827 148.682 44.467 146.642 48.0558C146.486 48.3333 146.354 48.6108 146.222 48.8883C145.35 51.1886 145.002 53.6562 145.204 56.1095C145.407 58.5628 146.153 60.9392 147.39 63.0637C148.627 65.1883 150.322 67.0068 152.35 68.3854C154.378 69.764 156.688 70.6675 159.11 71.0295Z" fill="#B7BEC0"/>
<path d="M158.114 70.8968C160.619 70.9408 163.091 70.3144 165.277 69.0817C167.462 67.849 169.282 66.0544 170.551 63.8817C171.82 61.7089 172.491 59.2362 172.497 56.7167C172.502 54.1971 171.842 51.7214 170.583 49.543C169.324 47.3647 167.511 45.562 165.331 44.3196C163.151 43.0772 160.682 42.4398 158.177 42.4726C155.671 42.5055 153.219 43.2073 151.072 44.5064C148.925 45.8055 147.16 47.6551 145.958 49.8657L145.802 50.1795C145.17 52.354 144.991 54.6364 145.277 56.8837C145.562 59.131 146.306 61.2948 147.462 63.2396C148.618 65.1844 150.16 66.8684 151.993 68.186C153.826 69.5036 155.91 70.4264 158.114 70.8968Z" fill="#010000"/>
<path d="M163.814 44.7618C166.664 46.3338 168.94 48.7813 170.309 51.7467C171.678 54.7121 172.068 58.04 171.422 61.244C172.35 58.1239 172.186 54.7778 170.956 51.7648C169.727 48.7518 167.506 46.2543 164.666 44.6894C164.378 44.5205 164.078 44.3757 163.766 44.2309C163.454 44.0861 163.154 44.2309 162.854 44.3033C163.178 44.424 163.538 44.5929 163.814 44.7618Z" fill="#9F9282"/>
<path d="M184.321 45.7272C184.522 45.7249 184.721 45.7575 184.909 45.8236C184.417 44.5509 183.823 43.3202 183.134 42.1435H183.013C182.56 41.9325 182.05 41.8774 181.562 41.9866C182.338 43.1128 182.979 44.3279 183.469 45.6065C183.758 45.597 184.047 45.6379 184.321 45.7272Z" fill="#CDD5D7"/>
</g>
<defs>
<clipPath id="clip0_7:972">
<rect width="147" height="111" fill="white" transform="translate(38 26)"/>
</clipPath>
</defs>
</svg>
