<svg width="200" height="180" viewBox="0 0 200 180" fill="none" xmlns="http://www.w3.org/2000/svg">
<g clip-path="url(#clip0_7:972)">
<path d="M48.032 121.312C48.032 122.036 48.3439 121.747 48.7399 121.747H51.26C51.656 121.747 51.98 122.036 51.98 121.312V13.6471C51.98 12.9231 51.656 13.2127 51.26 13.2127H48.7399C48.3439 13.2127 48.032 12.9231 48.032 13.6471V121.312Z" fill="#CDD5D7"/>
<path d="M49.784 13.2126H48.968V121.747H49.784V13.2126Z" fill="#B7BEC0"/>
<path d="M48.416 13.1765C48.188 13.1765 48.032 13.1765 48.032 13.6471V121.312C48.032 121.819 48.188 121.831 48.416 121.795V13.1765Z" fill="#B7BEC0"/>
<path d="M50.2279 13.2126H49.4119V121.747H50.2279V13.2126Z" fill="#E5E8EC"/>
<path d="M131.948 13.2126H52.112C51.3896 13.2126 50.804 13.8015 50.804 14.5278V120.685C50.804 121.411 51.3896 122 52.112 122H131.948C132.67 122 133.256 121.411 133.256 120.685V14.5278C133.256 13.8015 132.67 13.2126 131.948 13.2126Z" fill="#282D33"/>
<path d="M52.1239 13.2127H131.948C132.124 13.211 132.298 13.245 132.461 13.3126C132.623 13.3803 132.77 13.4801 132.894 13.6063C133.017 13.7324 133.113 13.8822 133.178 14.0468C133.242 14.2114 133.273 14.3873 133.268 14.5641V120.745C133.241 121.077 133.089 121.386 132.844 121.61C132.599 121.834 132.279 121.956 131.948 121.952H52.1239C51.9517 121.953 51.7809 121.92 51.6214 121.855C51.462 121.789 51.3172 121.693 51.1955 121.57C51.0737 121.448 50.9774 121.302 50.9122 121.142C50.8471 120.981 50.8143 120.81 50.8159 120.637V14.5641C50.8111 14.3884 50.8413 14.2135 50.9049 14.0497C50.9685 13.8859 51.0641 13.7366 51.186 13.6106C51.308 13.4846 51.4538 13.3845 51.6149 13.3162C51.776 13.2478 51.949 13.2126 52.1239 13.2127V13.2127ZM53.0239 119.068C53.2441 119.066 53.4587 118.998 53.6407 118.873C53.8226 118.748 53.9637 118.572 54.0463 118.367C54.129 118.162 54.1494 117.936 54.105 117.72C54.0606 117.503 53.9534 117.304 53.7968 117.148C53.6403 116.992 53.4414 116.887 53.2252 116.844C53.0091 116.802 52.7853 116.825 52.5821 116.91C52.3789 116.996 52.2053 117.139 52.0832 117.324C51.9611 117.508 51.8959 117.724 51.8959 117.946C51.8959 118.094 51.9252 118.241 51.982 118.378C52.0388 118.515 52.1221 118.639 52.227 118.744C52.3319 118.848 52.4564 118.93 52.5931 118.986C52.7299 119.042 52.8763 119.07 53.0239 119.068V119.068ZM53.0239 114.531C53.2475 114.531 53.466 114.464 53.6518 114.339C53.8375 114.214 53.9821 114.036 54.0671 113.828C54.1522 113.62 54.1738 113.392 54.1293 113.171C54.0848 112.951 53.9761 112.749 53.8172 112.591C53.6582 112.433 53.4561 112.326 53.2365 112.283C53.0169 112.241 52.7897 112.265 52.5838 112.353C52.378 112.44 52.2027 112.588 52.0802 112.776C51.9577 112.964 51.8935 113.184 51.8959 113.409C51.8959 113.557 51.9252 113.704 51.982 113.841C52.0388 113.978 52.1221 114.102 52.227 114.207C52.3319 114.311 52.4564 114.394 52.5931 114.449C52.7299 114.505 52.8763 114.533 53.0239 114.531V114.531ZM53.0239 109.982C53.2441 109.98 53.4587 109.912 53.6407 109.787C53.8226 109.663 53.9637 109.487 54.0463 109.281C54.129 109.076 54.1494 108.851 54.105 108.634C54.0606 108.417 53.9534 108.218 53.7968 108.063C53.6403 107.907 53.4414 107.801 53.2252 107.759C53.0091 107.716 52.7853 107.739 52.5821 107.825C52.3789 107.91 52.2053 108.054 52.0832 108.238C51.9611 108.422 51.8959 108.639 51.8959 108.86C51.8959 109.009 51.9252 109.155 51.982 109.292C52.0388 109.429 52.1221 109.554 52.227 109.658C52.3319 109.762 52.4564 109.845 52.5931 109.9C52.7299 109.956 52.8763 109.984 53.0239 109.982V109.982ZM53.0239 105.445C53.247 105.445 53.4651 105.379 53.6506 105.254C53.8361 105.13 53.9807 104.953 54.066 104.745C54.1514 104.538 54.1737 104.31 54.1302 104.09C54.0867 103.87 53.9792 103.668 53.8215 103.509C53.6637 103.351 53.4628 103.243 53.244 103.199C53.0252 103.155 52.7984 103.178 52.5923 103.263C52.3862 103.349 52.21 103.495 52.086 103.681C51.9621 103.868 51.8959 104.087 51.8959 104.311C51.8959 104.46 51.9251 104.608 51.9818 104.745C52.0385 104.883 52.1215 105.008 52.2263 105.113C52.331 105.219 52.4554 105.302 52.5923 105.359C52.7291 105.416 52.8758 105.445 53.0239 105.445V105.445ZM53.0239 100.897C53.2441 100.894 53.4587 100.826 53.6407 100.702C53.8226 100.577 53.9637 100.401 54.0463 100.196C54.129 99.9903 54.1494 99.765 54.105 99.5482C54.0606 99.3313 53.9534 99.1325 53.7968 98.9768C53.6403 98.821 53.4414 98.7154 53.2252 98.673C53.0091 98.6307 52.7853 98.6536 52.5821 98.7389C52.3789 98.8242 52.2053 98.968 52.0832 99.1523C51.9611 99.3365 51.8959 99.553 51.8959 99.7744C51.8959 99.9228 51.9252 100.07 51.982 100.207C52.0388 100.344 52.1221 100.468 52.227 100.572C52.3319 100.677 52.4564 100.759 52.5931 100.815C52.7299 100.87 52.8763 100.898 53.0239 100.897V100.897ZM53.0239 96.3477C53.2441 96.3453 53.4587 96.2774 53.6407 96.1527C53.8226 96.0279 53.9637 95.8519 54.0463 95.6467C54.129 95.4414 54.1494 95.2162 54.105 94.9993C54.0606 94.7825 53.9534 94.5836 53.7968 94.4279C53.6403 94.2722 53.4414 94.1665 53.2252 94.1241C53.0091 94.0818 52.7853 94.1047 52.5821 94.19C52.3789 94.2752 52.2053 94.4191 52.0832 94.6033C51.9611 94.7876 51.8959 95.0041 51.8959 95.2255C51.8959 95.3739 51.9252 95.5208 51.982 95.6577C52.0388 95.7947 52.1221 95.9189 52.227 96.0233C52.3319 96.1277 52.4564 96.2101 52.5931 96.2657C52.7299 96.3214 52.8763 96.3493 53.0239 96.3477V96.3477ZM53.0239 91.8109C53.2475 91.8108 53.466 91.744 53.6518 91.6188C53.8375 91.4936 53.9821 91.3158 54.0671 91.1078C54.1522 90.8999 54.1738 90.6712 54.1293 90.4509C54.0848 90.2305 53.9761 90.0285 53.8172 89.8704C53.6582 89.7122 53.4561 89.6052 53.2365 89.5628C53.0169 89.5204 52.7897 89.5446 52.5838 89.6323C52.378 89.72 52.2027 89.8672 52.0802 90.0553C51.9577 90.2434 51.8935 90.4639 51.8959 90.6887C51.9022 90.9842 52.0242 91.2653 52.2354 91.4708C52.4466 91.6764 52.7299 91.7899 53.0239 91.7867V91.8109ZM53.0239 87.2619C53.2441 87.2596 53.4587 87.1917 53.6407 87.067C53.8226 86.9423 53.9637 86.7662 54.0463 86.5609C54.129 86.3557 54.1494 86.1304 54.105 85.9136C54.0606 85.6967 53.9534 85.4979 53.7968 85.3422C53.6403 85.1864 53.4414 85.0808 53.2252 85.0384C53.0091 84.9961 52.7853 85.019 52.5821 85.1043C52.3789 85.1896 52.2053 85.3334 52.0832 85.5177C51.9611 85.7019 51.8959 85.9184 51.8959 86.1398C51.8959 86.2882 51.9252 86.4351 51.982 86.572C52.0388 86.709 52.1221 86.8332 52.227 86.9375C52.3319 87.0419 52.4564 87.1244 52.5931 87.18C52.7299 87.2357 52.8763 87.2635 53.0239 87.2619V87.2619ZM53.0239 82.7251C53.247 82.7251 53.4651 82.6586 53.6506 82.534C53.8361 82.4094 53.9807 82.2322 54.066 82.025C54.1514 81.8177 54.1737 81.5897 54.1302 81.3697C54.0867 81.1496 53.9792 80.9475 53.8215 80.7889C53.6637 80.6303 53.4628 80.5222 53.244 80.4785C53.0252 80.4347 52.7984 80.4572 52.5923 80.5431C52.3862 80.6289 52.21 80.7743 52.086 80.9608C51.9621 81.1473 51.8959 81.3666 51.8959 81.5909C51.8959 81.8917 52.0147 82.1802 52.2263 82.3929C52.4378 82.6056 52.7247 82.7251 53.0239 82.7251V82.7251ZM53.0239 78.1762C53.2441 78.1738 53.4587 78.106 53.6407 77.9812C53.8226 77.8565 53.9637 77.6805 54.0463 77.4752C54.129 77.27 54.1494 77.0448 54.105 76.8279C54.0606 76.611 53.9534 76.4122 53.7968 76.2565C53.6403 76.1007 53.4414 75.995 53.2252 75.9527C53.0091 75.9104 52.7853 75.9332 52.5821 76.0185C52.3789 76.1038 52.2053 76.2476 52.0832 76.4319C51.9611 76.6162 51.8959 76.8326 51.8959 77.054C51.8959 77.2024 51.9252 77.3493 51.982 77.4863C52.0388 77.6232 52.1221 77.7475 52.227 77.8518C52.3319 77.9562 52.4564 78.0386 52.5931 78.0943C52.7299 78.15 52.8763 78.1778 53.0239 78.1762ZM53.0239 73.6394C53.247 73.6394 53.4651 73.5729 53.6506 73.4482C53.8361 73.3236 53.9807 73.1464 54.066 72.9392C54.1514 72.7319 54.1737 72.5039 54.1302 72.2839C54.0867 72.0639 53.9792 71.8618 53.8215 71.7032C53.6637 71.5446 53.4628 71.4366 53.244 71.3928C53.0252 71.349 52.7984 71.3715 52.5923 71.4573C52.3862 71.5432 52.21 71.6885 52.086 71.875C51.9621 72.0615 51.8959 72.2809 51.8959 72.5052C51.8894 72.6582 51.9138 72.8108 51.9676 72.9541C52.0214 73.0973 52.1034 73.2281 52.2088 73.3386C52.3142 73.4491 52.4408 73.5369 52.5808 73.5969C52.7209 73.6569 52.8716 73.6878 53.0239 73.6877V73.6394ZM53.0239 69.0905C53.2441 69.0881 53.4587 69.0203 53.6407 68.8956C53.8226 68.7708 53.9637 68.5947 54.0463 68.3895C54.129 68.1842 54.1494 67.959 54.105 67.7421C54.0606 67.5253 53.9534 67.3264 53.7968 67.1707C53.6403 67.015 53.4414 66.9093 53.2252 66.867C53.0091 66.8247 52.7853 66.8476 52.5821 66.9328C52.3789 67.0181 52.2053 67.1619 52.0832 67.3462C51.9611 67.5305 51.8959 67.7469 51.8959 67.9684C51.8959 68.1167 51.9252 68.2637 51.982 68.4006C52.0388 68.5375 52.1221 68.6617 52.227 68.7661C52.3319 68.8704 52.4564 68.9529 52.5931 69.0085C52.7299 69.0642 52.8763 69.0921 53.0239 69.0905V69.0905ZM53.0239 64.5416C53.2441 64.5392 53.4587 64.4714 53.6407 64.3466C53.8226 64.2219 53.9637 64.0459 54.0463 63.8406C54.129 63.6354 54.1494 63.4101 54.105 63.1932C54.0606 62.9763 53.9534 62.7775 53.7968 62.6218C53.6403 62.4661 53.4414 62.3604 53.2252 62.3181C53.0091 62.2758 52.7853 62.2986 52.5821 62.3839C52.3789 62.4692 52.2053 62.613 52.0832 62.7973C51.9611 62.9816 51.8959 63.198 51.8959 63.4194C51.8959 63.5678 51.9252 63.7147 51.982 63.8517C52.0388 63.9886 52.1221 64.1129 52.227 64.2172C52.3319 64.3216 52.4564 64.404 52.5931 64.4597C52.7299 64.5154 52.8763 64.5432 53.0239 64.5416V64.5416ZM53.0239 60.0047C53.2441 60.0024 53.4587 59.9345 53.6407 59.8098C53.8226 59.6851 53.9637 59.509 54.0463 59.3038C54.129 59.0985 54.1494 58.8733 54.105 58.6564C54.0606 58.4396 53.9534 58.2407 53.7968 58.085C53.6403 57.9292 53.4414 57.8236 53.2252 57.7812C53.0091 57.7389 52.7853 57.7618 52.5821 57.8471C52.3789 57.9324 52.2053 58.0762 52.0832 58.2605C51.9611 58.4447 51.8959 58.6612 51.8959 58.8826C51.8959 59.031 51.9252 59.1779 51.982 59.3148C52.0388 59.4518 52.1221 59.576 52.227 59.6804C52.3319 59.7848 52.4564 59.8672 52.5931 59.9228C52.7299 59.9785 52.8763 60.0063 53.0239 60.0047V60.0047ZM53.0239 55.4559C53.2441 55.4535 53.4587 55.3857 53.6407 55.261C53.8226 55.1362 53.9637 54.9601 54.0463 54.7549C54.129 54.5496 54.1494 54.3244 54.105 54.1075C54.0606 53.8907 53.9534 53.6918 53.7968 53.5361C53.6403 53.3804 53.4414 53.2747 53.2252 53.2323C53.0091 53.19 52.7853 53.213 52.5821 53.2982C52.3789 53.3835 52.2053 53.5273 52.0832 53.7116C51.9611 53.8959 51.8959 54.1123 51.8959 54.3338C51.8959 54.4821 51.9252 54.629 51.982 54.766C52.0388 54.9029 52.1221 55.0271 52.227 55.1315C52.3319 55.2358 52.4564 55.3182 52.5931 55.3739C52.7299 55.4296 52.8763 55.4575 53.0239 55.4559V55.4559ZM53.0239 50.9191C53.2475 50.919 53.466 50.8522 53.6518 50.7271C53.8375 50.6019 53.9821 50.424 54.0671 50.216C54.1522 50.0081 54.1738 49.7795 54.1293 49.5591C54.0848 49.3388 53.9761 49.1367 53.8172 48.9786C53.6582 48.8204 53.4561 48.7134 53.2365 48.671C53.0169 48.6286 52.7897 48.6528 52.5838 48.7405C52.378 48.8282 52.2027 48.9754 52.0802 49.1635C51.9577 49.3516 51.8935 49.5721 51.8959 49.7969C51.8959 49.9453 51.9252 50.0922 51.982 50.2291C52.0388 50.3661 52.1221 50.4903 52.227 50.5946C52.3319 50.699 52.4564 50.7814 52.5931 50.8371C52.7299 50.8928 52.8763 50.9207 53.0239 50.9191V50.9191ZM53.0239 46.3701C53.2441 46.3678 53.4587 46.2999 53.6407 46.1752C53.8226 46.0505 53.9637 45.8744 54.0463 45.6691C54.129 45.4639 54.1494 45.2386 54.105 45.0218C54.0606 44.8049 53.9534 44.6061 53.7968 44.4504C53.6403 44.2946 53.4414 44.189 53.2252 44.1466C53.0091 44.1043 52.7853 44.1272 52.5821 44.2125C52.3789 44.2978 52.2053 44.4416 52.0832 44.6259C51.9611 44.8101 51.8959 45.0266 51.8959 45.248C51.8959 45.3964 51.9252 45.5433 51.982 45.6802C52.0388 45.8172 52.1221 45.9414 52.227 46.0458C52.3319 46.1502 52.4564 46.2326 52.5931 46.2882C52.7299 46.3439 52.8763 46.3717 53.0239 46.3701V46.3701ZM53.0239 41.8213C53.2441 41.8189 53.4587 41.751 53.6407 41.6263C53.8226 41.5015 53.9637 41.3255 54.0463 41.1203C54.129 40.915 54.1494 40.6898 54.105 40.4729C54.0606 40.2561 53.9534 40.0572 53.7968 39.9015C53.6403 39.7458 53.4414 39.6401 53.2252 39.5977C53.0091 39.5554 52.7853 39.5784 52.5821 39.6636C52.3789 39.7489 52.2053 39.8927 52.0832 40.0769C51.9611 40.2612 51.8959 40.4777 51.8959 40.6991C51.8959 40.8475 51.9252 40.9944 51.982 41.1314C52.0388 41.2683 52.1221 41.3925 52.227 41.4969C52.3319 41.6012 52.4564 41.6836 52.5931 41.7393C52.7299 41.795 52.8763 41.8229 53.0239 41.8213V41.8213ZM53.0239 37.2845C53.2441 37.2821 53.4587 37.2143 53.6407 37.0895C53.8226 36.9648 53.9637 36.7887 54.0463 36.5834C54.129 36.3782 54.1494 36.153 54.105 35.9361C54.0606 35.7192 53.9534 35.5204 53.7968 35.3647C53.6403 35.2089 53.4414 35.1032 53.2252 35.0609C53.0091 35.0186 52.7853 35.0415 52.5821 35.1268C52.3789 35.2121 52.2053 35.3559 52.0832 35.5402C51.9611 35.7244 51.8959 35.9409 51.8959 36.1623C51.8959 36.3107 51.9252 36.4576 51.982 36.5945C52.0388 36.7315 52.1221 36.8557 52.227 36.96C52.3319 37.0644 52.4564 37.1468 52.5931 37.2025C52.7299 37.2582 52.8763 37.286 53.0239 37.2845V37.2845ZM53.0239 32.7355C53.2441 32.7332 53.4587 32.6653 53.6407 32.5406C53.8226 32.4159 53.9637 32.2398 54.0463 32.0345C54.129 31.8293 54.1494 31.604 54.105 31.3872C54.0606 31.1703 53.9534 30.9715 53.7968 30.8158C53.6403 30.66 53.4414 30.5544 53.2252 30.512C53.0091 30.4697 52.7853 30.4926 52.5821 30.5779C52.3789 30.6632 52.2053 30.807 52.0832 30.9912C51.9611 31.1755 51.8959 31.392 51.8959 31.6134C51.8959 31.7618 51.9252 31.9087 51.982 32.0456C52.0388 32.1826 52.1221 32.3068 52.227 32.4112C52.3319 32.5156 52.4564 32.598 52.5931 32.6536C52.7299 32.7093 52.8763 32.7371 53.0239 32.7355V32.7355ZM53.0239 28.1987C53.2475 28.1987 53.466 28.1319 53.6518 28.0067C53.8375 27.8815 53.9821 27.7036 54.0671 27.4957C54.1522 27.2877 54.1738 27.0591 54.1293 26.8388C54.0848 26.6184 53.9761 26.4164 53.8172 26.2582C53.6582 26.1001 53.4561 25.993 53.2365 25.9506C53.0169 25.9082 52.7897 25.9324 52.5838 26.0201C52.378 26.1078 52.2027 26.2551 52.0802 26.4432C51.9577 26.6313 51.8935 26.8517 51.8959 27.0766C51.8959 27.2249 51.9252 27.3719 51.982 27.5088C52.0388 27.6457 52.1221 27.77 52.227 27.8744C52.3319 27.9787 52.4564 28.0611 52.5931 28.1168C52.7299 28.1725 52.8763 28.2003 53.0239 28.1987V28.1987ZM53.0239 23.6499C53.2441 23.6475 53.4587 23.5796 53.6407 23.4548C53.8226 23.3301 53.9637 23.1541 54.0463 22.9488C54.129 22.7436 54.1494 22.5184 54.105 22.3015C54.0606 22.0846 53.9534 21.8858 53.7968 21.7301C53.6403 21.5743 53.4414 21.4686 53.2252 21.4263C53.0091 21.384 52.7853 21.4068 52.5821 21.4921C52.3789 21.5774 52.2053 21.7212 52.0832 21.9055C51.9611 22.0898 51.8959 22.3062 51.8959 22.5276C51.8959 22.676 51.9252 22.8229 51.982 22.9599C52.0388 23.0968 52.1221 23.2211 52.227 23.3254C52.3319 23.4298 52.4564 23.5122 52.5931 23.5679C52.7299 23.6236 52.8763 23.6514 53.0239 23.6499V23.6499ZM53.0239 19.113C53.247 19.113 53.4651 19.0465 53.6506 18.9218C53.8361 18.7972 53.9807 18.62 54.066 18.4128C54.1514 18.2055 54.1737 17.9775 54.1302 17.7575C54.0867 17.5375 53.9792 17.3354 53.8215 17.1768C53.6637 17.0182 53.4628 16.9102 53.244 16.8664C53.0252 16.8226 52.7984 16.8451 52.5923 16.9309C52.3862 17.0168 52.21 17.1621 52.086 17.3486C51.9621 17.5351 51.8959 17.7545 51.8959 17.9788C51.8959 18.2796 52.0147 18.5681 52.2263 18.7808C52.4378 18.9935 52.7247 19.113 53.0239 19.113V19.113Z" fill="#30363D"/>
<path d="M52.1239 13.0316H131.948C132.295 13.0316 132.628 13.1702 132.873 13.4169C133.118 13.6635 133.256 13.998 133.256 14.3468V120.528C133.256 120.877 133.118 121.211 132.873 121.458C132.628 121.705 132.295 121.843 131.948 121.843H52.1239C51.777 121.843 51.4443 121.705 51.199 121.458C50.9537 121.211 50.8159 120.877 50.8159 120.528V14.3468C50.8159 13.998 50.9537 13.6635 51.199 13.4169C51.4443 13.1702 51.777 13.0316 52.1239 13.0316ZM53.0239 118.887C53.2441 118.885 53.4587 118.817 53.6406 118.692C53.8226 118.567 53.9637 118.391 54.0463 118.186C54.129 117.981 54.1494 117.755 54.105 117.539C54.0606 117.322 53.9533 117.123 53.7968 116.967C53.6403 116.811 53.4414 116.706 53.2252 116.663C53.0091 116.621 52.7853 116.644 52.5821 116.729C52.3789 116.815 52.2053 116.958 52.0832 117.143C51.961 117.327 51.8959 117.543 51.8959 117.765C51.8959 117.913 51.9252 118.06 51.982 118.197C52.0388 118.334 52.1221 118.458 52.227 118.563C52.3319 118.667 52.4564 118.749 52.5931 118.805C52.7299 118.861 52.8763 118.889 53.0239 118.887V118.887ZM53.0239 114.35C53.247 114.35 53.4651 114.284 53.6506 114.159C53.8361 114.034 53.9807 113.857 54.066 113.65C54.1514 113.443 54.1737 113.215 54.1302 112.995C54.0867 112.775 53.9792 112.573 53.8215 112.414C53.6637 112.255 53.4628 112.147 53.244 112.104C53.0252 112.06 52.7984 112.082 52.5923 112.168C52.3861 112.254 52.21 112.399 52.086 112.586C51.9621 112.772 51.8959 112.992 51.8959 113.216C51.8959 113.517 52.0147 113.805 52.2263 114.018C52.4378 114.231 52.7247 114.35 53.0239 114.35V114.35ZM53.0239 109.801C53.2441 109.799 53.4587 109.731 53.6406 109.606C53.8226 109.482 53.9637 109.305 54.0463 109.1C54.129 108.895 54.1494 108.67 54.105 108.453C54.0606 108.236 53.9533 108.037 53.7968 107.881C53.6403 107.726 53.4414 107.62 53.2252 107.578C53.0091 107.535 52.7853 107.558 52.5821 107.644C52.3789 107.729 52.2053 107.873 52.0832 108.057C51.961 108.241 51.8959 108.458 51.8959 108.679C51.8959 108.827 51.9252 108.974 51.982 109.111C52.0388 109.248 52.1221 109.373 52.227 109.477C52.3319 109.581 52.4564 109.664 52.5931 109.719C52.7299 109.775 52.8763 109.803 53.0239 109.801V109.801ZM53.0239 105.252C53.2441 105.25 53.4587 105.182 53.6406 105.057C53.8226 104.933 53.9637 104.757 54.0463 104.551C54.129 104.346 54.1494 104.121 54.105 103.904C54.0606 103.687 53.9533 103.488 53.7968 103.333C53.6403 103.177 53.4414 103.071 53.2252 103.029C53.0091 102.986 52.7853 103.009 52.5821 103.095C52.3789 103.18 52.2053 103.324 52.0832 103.508C51.961 103.692 51.8959 103.909 51.8959 104.13C51.8959 104.279 51.9252 104.425 51.982 104.562C52.0388 104.699 52.1221 104.824 52.227 104.928C52.3319 105.032 52.4564 105.115 52.5931 105.17C52.7299 105.226 52.8763 105.254 53.0239 105.252V105.252ZM53.0239 100.716C53.2441 100.713 53.4587 100.645 53.6406 100.521C53.8226 100.396 53.9637 100.22 54.0463 100.014C54.129 99.8093 54.1494 99.584 54.105 99.3672C54.0606 99.1503 53.9533 98.9515 53.7968 98.7957C53.6403 98.64 53.4414 98.5343 53.2252 98.492C53.0091 98.4496 52.7853 98.4726 52.5821 98.5579C52.3789 98.6431 52.2053 98.7869 52.0832 98.9712C51.961 99.1554 51.8959 99.3719 51.8959 99.5933C51.8959 99.7417 51.9252 99.8887 51.982 100.026C52.0388 100.163 52.1221 100.287 52.227 100.391C52.3319 100.495 52.4564 100.578 52.5931 100.634C52.7299 100.689 52.8763 100.717 53.0239 100.716V100.716ZM53.0239 96.1666C53.2441 96.1642 53.4587 96.0964 53.6406 95.9717C53.8226 95.8469 53.9637 95.6708 54.0463 95.4656C54.129 95.2603 54.1494 95.0351 54.105 94.8182C54.0606 94.6014 53.9533 94.4026 53.7968 94.2468C53.6403 94.0911 53.4414 93.9854 53.2252 93.9431C53.0091 93.9008 52.7853 93.9237 52.5821 94.0089C52.3789 94.0942 52.2053 94.2381 52.0832 94.4223C51.961 94.6066 51.8959 94.823 51.8959 95.0445C51.8959 95.1929 51.9252 95.3398 51.982 95.4767C52.0388 95.6136 52.1221 95.7378 52.227 95.8422C52.3319 95.9466 52.4564 96.029 52.5931 96.0846C52.7299 96.1403 52.8763 96.1682 53.0239 96.1666ZM53.0239 91.6298C53.2475 91.6298 53.466 91.5629 53.6518 91.4378C53.8375 91.3126 53.9821 91.1347 54.0671 90.9267C54.1522 90.7188 54.1738 90.4902 54.1292 90.2698C54.0847 90.0495 53.9761 89.8474 53.8172 89.6893C53.6582 89.5312 53.4561 89.4241 53.2365 89.3817C53.0169 89.3393 52.7897 89.3635 52.5838 89.4512C52.3779 89.5389 52.2026 89.6861 52.0802 89.8742C51.9577 90.0623 51.8935 90.2828 51.8959 90.5076C51.8959 90.656 51.9252 90.8029 51.982 90.9399C52.0388 91.0768 52.1221 91.2011 52.227 91.3054C52.3319 91.4098 52.4564 91.4922 52.5931 91.5479C52.7299 91.6035 52.8763 91.6314 53.0239 91.6298V91.6298ZM53.0239 87.0808C53.2441 87.0785 53.4587 87.0106 53.6406 86.8859C53.8226 86.7612 53.9637 86.5851 54.0463 86.3799C54.129 86.1746 54.1494 85.9494 54.105 85.7326C54.0606 85.5157 53.9533 85.3168 53.7968 85.1611C53.6403 85.0053 53.4414 84.8997 53.2252 84.8574C53.0091 84.815 52.7853 84.8379 52.5821 84.9232C52.3789 85.0085 52.2053 85.1523 52.0832 85.3366C51.961 85.5208 51.8959 85.7373 51.8959 85.9587C51.8959 86.1071 51.9252 86.254 51.982 86.3909C52.0388 86.5279 52.1221 86.6522 52.227 86.7565C52.3319 86.8609 52.4564 86.9433 52.5931 86.999C52.7299 87.0546 52.8763 87.0824 53.0239 87.0808V87.0808ZM53.0239 82.532C53.2441 82.5296 53.4587 82.4618 53.6406 82.3371C53.8226 82.2123 53.9637 82.0362 54.0463 81.831C54.129 81.6257 54.1494 81.4005 54.105 81.1836C54.0606 80.9668 53.9533 80.7679 53.7968 80.6122C53.6403 80.4565 53.4414 80.3508 53.2252 80.3084C53.0091 80.2661 52.7853 80.2891 52.5821 80.3743C52.3789 80.4596 52.2053 80.6035 52.0832 80.7877C51.961 80.972 51.8959 81.1884 51.8959 81.4099C51.8959 81.5583 51.9252 81.7052 51.982 81.8421C52.0388 81.979 52.1221 82.1032 52.227 82.2076C52.3319 82.312 52.4564 82.3944 52.5931 82.45C52.7299 82.5057 52.8763 82.5336 53.0239 82.532V82.532ZM53.0239 77.9952C53.2441 77.9928 53.4587 77.925 53.6406 77.8002C53.8226 77.6755 53.9637 77.4994 54.0463 77.2941C54.129 77.0889 54.1494 76.8637 54.105 76.6468C54.0606 76.4299 53.9533 76.2311 53.7968 76.0754C53.6403 75.9197 53.4414 75.814 53.2252 75.7717C53.0091 75.7293 52.7853 75.7522 52.5821 75.8375C52.3789 75.9228 52.2053 76.0666 52.0832 76.2509C51.961 76.4351 51.8959 76.6516 51.8959 76.873C51.8959 77.0214 51.9252 77.1683 51.982 77.3053C52.0388 77.4422 52.1221 77.5664 52.227 77.6708C52.3319 77.7751 52.4564 77.8575 52.5931 77.9132C52.7299 77.9689 52.8763 77.9968 53.0239 77.9952V77.9952ZM53.0239 73.4462C53.2441 73.4439 53.4587 73.376 53.6406 73.2513C53.8226 73.1266 53.9637 72.9505 54.0463 72.7452C54.129 72.54 54.1494 72.3147 54.105 72.0979C54.0606 71.881 53.9533 71.6822 53.7968 71.5265C53.6403 71.3707 53.4414 71.2651 53.2252 71.2227C53.0091 71.1804 52.7853 71.2033 52.5821 71.2886C52.3789 71.3739 52.2053 71.5177 52.0832 71.702C51.961 71.8862 51.8959 72.1027 51.8959 72.3241C51.8959 72.4725 51.9252 72.6194 51.982 72.7563C52.0388 72.8933 52.1221 73.0176 52.227 73.1219C52.3319 73.2263 52.4564 73.3087 52.5931 73.3644C52.7299 73.42 52.8763 73.4478 53.0239 73.4462V73.4462ZM53.0239 68.9094C53.2475 68.9094 53.466 68.8426 53.6518 68.7174C53.8375 68.5922 53.9821 68.4144 54.0671 68.2065C54.1522 67.9985 54.1738 67.7698 54.1292 67.5495C54.0847 67.3291 53.9761 67.1271 53.8172 66.9689C53.6582 66.8108 53.4561 66.7038 53.2365 66.6614C53.0169 66.619 52.7897 66.6431 52.5838 66.7308C52.3779 66.8185 52.2026 66.9658 52.0802 67.1539C51.9577 67.342 51.8935 67.5625 51.8959 67.7873C51.9083 68.0785 52.033 68.3535 52.2436 68.5539C52.4541 68.7544 52.734 68.8646 53.0239 68.8612V68.9094ZM53.0239 64.3606C53.2441 64.3582 53.4587 64.2903 53.6406 64.1655C53.8226 64.0408 53.9637 63.8648 54.0463 63.6595C54.129 63.4543 54.1494 63.2291 54.105 63.0122C54.0606 62.7953 53.9533 62.5965 53.7968 62.4408C53.6403 62.285 53.4414 62.1793 53.2252 62.137C53.0091 62.0947 52.7853 62.1176 52.5821 62.2029C52.3789 62.2882 52.2053 62.432 52.0832 62.6163C51.961 62.8005 51.8959 63.017 51.8959 63.2384C51.8959 63.3868 51.9252 63.5337 51.982 63.6707C52.0388 63.8076 52.1221 63.9318 52.227 64.0362C52.3319 64.1405 52.4564 64.2229 52.5931 64.2786C52.7299 64.3343 52.8763 64.3622 53.0239 64.3606V64.3606ZM53.0239 59.8237C53.2475 59.8237 53.466 59.7568 53.6518 59.6317C53.8375 59.5065 53.9821 59.3287 54.0671 59.1207C54.1522 58.9128 54.1738 58.6841 54.1292 58.4638C54.0847 58.2435 53.9761 58.0414 53.8172 57.8832C53.6582 57.7251 53.4561 57.618 53.2365 57.5756C53.0169 57.5332 52.7897 57.5575 52.5838 57.6451C52.3779 57.7328 52.2026 57.8801 52.0802 58.0682C51.9577 58.2563 51.8935 58.4768 51.8959 58.7016C51.8959 58.85 51.9252 58.9969 51.982 59.1338C52.0388 59.2708 52.1221 59.395 52.227 59.4993C52.3319 59.6037 52.4564 59.6861 52.5931 59.7418C52.7299 59.7974 52.8763 59.8253 53.0239 59.8237V59.8237ZM53.0239 55.2748C53.2441 55.2724 53.4587 55.2046 53.6406 55.0799C53.8226 54.9551 53.9637 54.779 54.0463 54.5738C54.129 54.3685 54.1494 54.1433 54.105 53.9264C54.0606 53.7096 53.9533 53.5108 53.7968 53.355C53.6403 53.1993 53.4414 53.0936 53.2252 53.0513C53.0091 53.009 52.7853 53.0319 52.5821 53.1171C52.3789 53.2024 52.2053 53.3463 52.0832 53.5305C51.961 53.7148 51.8959 53.9313 51.8959 54.1527C51.8959 54.3011 51.9252 54.448 51.982 54.5849C52.0388 54.7218 52.1221 54.8461 52.227 54.9505C52.3319 55.0548 52.4564 55.1372 52.5931 55.1929C52.7299 55.2486 52.8763 55.2764 53.0239 55.2748V55.2748ZM53.0239 50.7259C53.2441 50.7235 53.4587 50.6557 53.6406 50.5309C53.8226 50.4062 53.9637 50.2302 54.0463 50.0249C54.129 49.8197 54.1494 49.5945 54.105 49.3776C54.0606 49.1607 53.9533 48.9619 53.7968 48.8062C53.6403 48.6504 53.4414 48.5447 53.2252 48.5024C53.0091 48.4601 52.7853 48.483 52.5821 48.5682C52.3789 48.6535 52.2053 48.7973 52.0832 48.9816C51.961 49.1659 51.8959 49.3823 51.8959 49.6038C51.891 49.7552 51.9167 49.906 51.9714 50.0472C52.026 50.1883 52.1085 50.3169 52.2139 50.4251C52.3193 50.5334 52.4454 50.619 52.5846 50.6769C52.7238 50.7348 52.8732 50.7638 53.0239 50.7621V50.7259ZM53.0239 46.1891C53.2441 46.1867 53.4587 46.1188 53.6406 45.9941C53.8226 45.8694 53.9637 45.6933 54.0463 45.4881C54.129 45.2828 54.1494 45.0576 54.105 44.8408C54.0606 44.6239 53.9533 44.4251 53.7968 44.2693C53.6403 44.1136 53.4414 44.0079 53.2252 43.9656C53.0091 43.9232 52.7853 43.9462 52.5821 44.0315C52.3789 44.1167 52.2053 44.2606 52.0832 44.4448C51.961 44.6291 51.8959 44.8456 51.8959 45.067C51.8959 45.2154 51.9252 45.3623 51.982 45.4992C52.0388 45.6361 52.1221 45.7604 52.227 45.8647C52.3319 45.9691 52.4564 46.0515 52.5931 46.1072C52.7299 46.1628 52.8763 46.1907 53.0239 46.1891V46.1891ZM53.0239 41.6402C53.2441 41.6378 53.4587 41.57 53.6406 41.4453C53.8226 41.3205 53.9637 41.1444 54.0463 40.9392C54.129 40.7339 54.1494 40.5087 54.105 40.2918C54.0606 40.075 53.9533 39.8761 53.7968 39.7204C53.6403 39.5647 53.4414 39.459 53.2252 39.4167C53.0091 39.3744 52.7853 39.3973 52.5821 39.4825C52.3789 39.5678 52.2053 39.7117 52.0832 39.8959C51.961 40.0802 51.8959 40.2966 51.8959 40.5181C51.8959 40.6665 51.9252 40.8134 51.982 40.9503C52.0388 41.0872 52.1221 41.2114 52.227 41.3158C52.3319 41.4202 52.4564 41.5026 52.5931 41.5582C52.7299 41.6139 52.8763 41.6418 53.0239 41.6402V41.6402ZM53.0239 37.1034C53.2475 37.1034 53.466 37.0365 53.6518 36.9114C53.8375 36.7862 53.9821 36.6083 54.0671 36.4003C54.1522 36.1924 54.1738 35.9638 54.1292 35.7434C54.0847 35.5231 53.9761 35.321 53.8172 35.1629C53.6582 35.0048 53.4561 34.8977 53.2365 34.8553C53.0169 34.8129 52.7897 34.8371 52.5838 34.9248C52.3779 35.0125 52.2026 35.1598 52.0802 35.3479C51.9577 35.536 51.8935 35.7564 51.8959 35.9812C51.8959 36.1296 51.9252 36.2765 51.982 36.4135C52.0388 36.5504 52.1221 36.6747 52.227 36.779C52.3319 36.8834 52.4564 36.9658 52.5931 37.0215C52.7299 37.0771 52.8763 37.105 53.0239 37.1034V37.1034ZM53.0239 32.5544C53.2441 32.5521 53.4587 32.4842 53.6406 32.3595C53.8226 32.2348 53.9637 32.0587 54.0463 31.8535C54.129 31.6482 54.1494 31.423 54.105 31.2062C54.0606 30.9893 53.9533 30.7904 53.7968 30.6347C53.6403 30.4789 53.4414 30.3733 53.2252 30.331C53.0091 30.2886 52.7853 30.3115 52.5821 30.3968C52.3789 30.4821 52.2053 30.6259 52.0832 30.8102C51.961 30.9944 51.8959 31.2109 51.8959 31.4323C51.8959 31.5807 51.9252 31.7276 51.982 31.8645C52.0388 32.0015 52.1221 32.1258 52.227 32.2301C52.3319 32.3345 52.4564 32.4169 52.5931 32.4726C52.7299 32.5282 52.8763 32.556 53.0239 32.5544V32.5544ZM53.0239 28.0177C53.247 28.0177 53.4651 27.9511 53.6506 27.8265C53.8361 27.7019 53.9807 27.5247 54.066 27.3175C54.1514 27.1102 54.1737 26.8822 54.1302 26.6622C54.0867 26.4422 53.9792 26.2401 53.8215 26.0815C53.6637 25.9229 53.4628 25.8148 53.244 25.7711C53.0252 25.7273 52.7984 25.7497 52.5923 25.8356C52.3861 25.9214 52.21 26.0668 52.086 26.2533C51.9621 26.4398 51.8959 26.6591 51.8959 26.8835C51.8959 27.1843 52.0147 27.4728 52.2263 27.6855C52.4378 27.8982 52.7247 28.0177 53.0239 28.0177V28.0177ZM53.0239 23.4688C53.2441 23.4664 53.4587 23.3986 53.6406 23.2738C53.8226 23.1491 53.9637 22.973 54.0463 22.7677C54.129 22.5625 54.1494 22.3373 54.105 22.1204C54.0606 21.9035 53.9533 21.7047 53.7968 21.549C53.6403 21.3933 53.4414 21.2876 53.2252 21.2453C53.0091 21.2029 52.7853 21.2258 52.5821 21.3111C52.3789 21.3964 52.2053 21.5402 52.0832 21.7245C51.961 21.9087 51.8959 22.1252 51.8959 22.3466C51.8959 22.495 51.9252 22.6419 51.982 22.7789C52.0388 22.9158 52.1221 23.04 52.227 23.1444C52.3319 23.2487 52.4564 23.3311 52.5931 23.3868C52.7299 23.4425 52.8763 23.4704 53.0239 23.4688V23.4688ZM53.0239 18.9198C53.2441 18.9175 53.4587 18.8496 53.6406 18.7249C53.8226 18.6002 53.9637 18.4241 54.0463 18.2188C54.129 18.0136 54.1494 17.7883 54.105 17.5715C54.0606 17.3546 53.9533 17.1558 53.7968 17.0001C53.6403 16.8443 53.4414 16.7387 53.2252 16.6963C53.0091 16.654 52.7853 16.6769 52.5821 16.7622C52.3789 16.8475 52.2053 16.9913 52.0832 17.1756C51.961 17.3598 51.8959 17.5763 51.8959 17.7977C51.8959 17.9461 51.9252 18.093 51.982 18.2299C52.0388 18.3669 52.1221 18.4912 52.227 18.5955C52.3319 18.6999 52.4564 18.7823 52.5931 18.838C52.7299 18.8936 52.8763 18.9214 53.0239 18.9198V18.9198Z" fill="#7542E5"/>
<path d="M53.7921 17.7857C53.7921 18.2683 53.5881 18.6545 53.3361 18.6545H50.1081C49.8561 18.6545 49.6521 18.2683 49.6521 17.7857C49.6521 17.3031 49.8561 16.9049 50.1081 16.9049H53.3361C53.5881 16.9049 53.7921 17.3031 53.7921 17.7857Z" fill="#CDD5D7"/>
<path d="M53.324 16.9049H50.42C50.3109 17.1085 50.2571 17.3374 50.264 17.5685C50.264 18.0512 50.468 18.4373 50.72 18.4373H53.024C53.276 18.4373 53.48 18.0512 53.48 17.5685C53.4869 17.3374 53.4331 17.1085 53.324 16.9049Z" fill="#E5E8EC"/>
<path d="M50.636 17.3634C50.6237 17.2108 50.6237 17.0575 50.636 16.9049H50.036C49.9268 17.1041 49.8729 17.3291 49.88 17.5564C49.88 18.0391 50.084 18.4252 50.336 18.4252H50.8281C50.6852 18.0904 50.6195 17.7274 50.636 17.3634V17.3634Z" fill="#B7BEC0"/>
<path d="M53.7921 22.3347C53.7921 22.8173 53.5881 23.2154 53.3361 23.2154H50.1081C49.8561 23.2154 49.6521 22.8173 49.6521 22.3347C49.6521 21.852 49.8561 21.4539 50.1081 21.4539H53.3361C53.5881 21.4539 53.7921 21.852 53.7921 22.3347Z" fill="#CDD5D7"/>
<path d="M53.324 21.4539H50.42C50.3125 21.658 50.2588 21.8865 50.264 22.1175C50.264 22.6001 50.468 22.9862 50.72 22.9862H53.024C53.276 22.9862 53.48 22.6001 53.48 22.1175C53.4853 21.8865 53.4316 21.658 53.324 21.4539Z" fill="#E5E8EC"/>
<path d="M50.636 21.9124C50.6237 21.7598 50.6237 21.6064 50.636 21.4539H50.036C49.9268 21.653 49.8729 21.8781 49.88 22.1054C49.88 22.588 50.084 22.9741 50.336 22.9741H50.8281C50.6852 22.6393 50.6195 22.2763 50.636 21.9124V21.9124Z" fill="#B7BEC0"/>
<path d="M53.7921 26.8836C53.7921 27.3662 53.5881 27.7643 53.3361 27.7643H50.1081C49.8561 27.7643 49.6521 27.3662 49.6521 26.8836C49.6521 26.4009 49.8561 26.0027 50.1081 26.0027H53.3361C53.5881 26.0027 53.7921 26.4009 53.7921 26.8836Z" fill="#CDD5D7"/>
<path d="M53.324 26.0027H50.42C50.3125 26.2068 50.2588 26.4354 50.264 26.6664C50.264 27.149 50.468 27.5472 50.72 27.5472H53.024C53.276 27.5472 53.48 27.149 53.48 26.6664C53.4853 26.4354 53.4316 26.2068 53.324 26.0027Z" fill="#E5E8EC"/>
<path d="M50.636 26.4612C50.6237 26.3086 50.6237 26.1553 50.636 26.0027H50.036C49.9268 26.2019 49.8729 26.427 49.88 26.6543C49.88 27.1369 50.084 27.5351 50.336 27.5351H50.8281C50.6834 27.1966 50.6176 26.8292 50.636 26.4612Z" fill="#B7BEC0"/>
<path d="M53.7921 31.4565C53.7921 31.9391 53.5881 32.3373 53.3361 32.3373H50.1081C49.8561 32.3373 49.6521 31.9391 49.6521 31.4565C49.6521 30.9738 49.8561 30.5878 50.1081 30.5878H53.3361C53.5881 30.5878 53.7921 30.9738 53.7921 31.4565Z" fill="#CDD5D7"/>
<path d="M53.324 30.5636H50.4201C50.3108 30.7628 50.2569 30.9878 50.2641 31.2151C50.2641 31.6978 50.4681 32.096 50.7201 32.096H53.024C53.276 32.096 53.48 31.6978 53.48 31.2151C53.4872 30.9878 53.4333 30.7628 53.324 30.5636Z" fill="#E5E8EC"/>
<path d="M50.6358 31.01C50.6235 30.8615 50.6235 30.7122 50.6358 30.5636H50.0358C49.9298 30.764 49.8761 30.9882 49.8798 31.2151C49.8798 31.6978 50.0838 32.096 50.3358 32.096H50.8279C50.6779 31.7548 50.6119 31.3823 50.6358 31.01Z" fill="#B7BEC0"/>
<path d="M53.7921 35.9813C53.7921 36.476 53.5881 36.8621 53.3361 36.8621H50.1081C49.8561 36.8621 49.6521 36.476 49.6521 35.9813C49.6521 35.4986 49.8561 35.1125 50.1081 35.1125H53.3361C53.5881 35.1125 53.7921 35.4986 53.7921 35.9813Z" fill="#CDD5D7"/>
<path d="M53.324 35.0763H50.4201C50.3108 35.2755 50.2569 35.5005 50.2641 35.7278C50.2641 36.2225 50.4681 36.6087 50.7201 36.6087H53.024C53.276 36.6087 53.48 36.2225 53.48 35.7278C53.4872 35.5005 53.4333 35.2755 53.324 35.0763Z" fill="#E5E8EC"/>
<path d="M50.6359 35.571C50.6231 35.4184 50.6231 35.2651 50.6359 35.1125H50.0359C49.926 35.3071 49.872 35.5284 49.8799 35.752C49.8799 36.2467 50.0839 36.6328 50.3359 36.6328H50.828C50.6851 36.298 50.6194 35.935 50.6359 35.571V35.571Z" fill="#B7BEC0"/>
<path d="M53.7921 40.5422C53.7921 41.0249 53.5881 41.411 53.3361 41.411H50.1081C49.8561 41.411 49.6521 41.0249 49.6521 40.5422C49.6521 40.0596 49.8561 39.6614 50.1081 39.6614H53.3361C53.5881 39.6614 53.7921 40.0596 53.7921 40.5422Z" fill="#CDD5D7"/>
<path d="M53.324 39.6614H50.42C50.3109 39.865 50.2571 40.0938 50.264 40.325C50.264 40.8076 50.468 41.1938 50.72 41.1938H53.024C53.276 41.1938 53.48 40.8076 53.48 40.325C53.4869 40.0938 53.4331 39.865 53.324 39.6614V39.6614Z" fill="#E5E8EC"/>
<path d="M50.636 40.1199C50.6237 39.9673 50.6237 39.814 50.636 39.6614H50.036C49.9268 39.8605 49.8729 40.0857 49.88 40.313C49.88 40.7956 50.084 41.1817 50.336 41.1817H50.8281C50.6852 40.8469 50.6195 40.4839 50.636 40.1199V40.1199Z" fill="#B7BEC0"/>
<path d="M53.7921 45.0911C53.7921 45.5738 53.5881 45.972 53.3361 45.972H50.1081C49.8561 45.972 49.6521 45.5738 49.6521 45.0911C49.6521 44.6085 49.8561 44.2103 50.1081 44.2103H53.3361C53.5881 44.2103 53.7921 44.6085 53.7921 45.0911Z" fill="#CDD5D7"/>
<path d="M53.324 44.2103H50.42C50.3125 44.4145 50.2588 44.643 50.264 44.8739C50.264 45.3566 50.468 45.7427 50.72 45.7427H53.024C53.276 45.7427 53.48 45.3566 53.48 44.8739C53.4853 44.643 53.4316 44.4145 53.324 44.2103V44.2103Z" fill="#E5E8EC"/>
<path d="M50.636 44.7291C50.6237 44.5766 50.6237 44.4232 50.636 44.2706H50.036C49.9268 44.4698 49.8729 44.6948 49.88 44.9222C49.88 45.4048 50.084 45.791 50.336 45.791H50.8281C50.6852 45.4561 50.6195 45.0931 50.636 44.7291Z" fill="#B7BEC0"/>
<path d="M53.7921 49.6401C53.7921 50.1227 53.5881 50.5209 53.3361 50.5209H50.1081C49.8561 50.5209 49.6521 50.1227 49.6521 49.6401C49.6521 49.1574 49.8561 48.7593 50.1081 48.7593H53.3361C53.5881 48.7593 53.7921 49.1574 53.7921 49.6401Z" fill="#CDD5D7"/>
<path d="M53.324 48.7593H50.42C50.3125 48.9634 50.2588 49.1919 50.264 49.4229C50.264 49.9055 50.468 50.3037 50.72 50.3037H53.024C53.276 50.3037 53.48 49.9055 53.48 49.4229C53.4853 49.1919 53.4316 48.9634 53.324 48.7593Z" fill="#E5E8EC"/>
<path d="M50.636 49.2177C50.6237 49.0651 50.6237 48.9119 50.636 48.7593H50.036C49.9268 48.9584 49.8729 49.1835 49.88 49.4108C49.88 49.8935 50.084 50.2916 50.336 50.2916H50.8281C50.6834 49.9531 50.6176 49.5857 50.636 49.2177V49.2177Z" fill="#B7BEC0"/>
<path d="M53.7921 54.189C53.7921 54.6837 53.5881 55.0698 53.3361 55.0698H50.1081C49.8561 55.0698 49.6521 54.6837 49.6521 54.189C49.6521 53.7063 49.8561 53.3202 50.1081 53.3202H53.3361C53.5881 53.3202 53.7921 53.7063 53.7921 54.189Z" fill="#CDD5D7"/>
<path d="M53.324 53.3202H50.4201C50.3108 53.5194 50.2569 53.7444 50.2641 53.9717C50.2641 54.4544 50.4681 54.8526 50.7201 54.8526H53.024C53.276 54.8526 53.48 54.4544 53.48 53.9717C53.4872 53.7444 53.4333 53.5194 53.324 53.3202Z" fill="#E5E8EC"/>
<path d="M50.636 53.7787C50.6232 53.6261 50.6232 53.4728 50.636 53.3202H50.036C49.9284 53.52 49.8746 53.7446 49.88 53.9717C49.88 54.4544 50.084 54.8526 50.336 54.8526H50.8281C50.6795 54.5152 50.6136 54.147 50.636 53.7787V53.7787Z" fill="#B7BEC0"/>
<path d="M53.7921 58.7499C53.7921 59.2326 53.5881 59.6187 53.3361 59.6187H50.1081C49.8561 59.6187 49.6521 59.2326 49.6521 58.7499C49.6521 58.2552 49.8561 57.8691 50.1081 57.8691H53.3361C53.5881 57.8691 53.7921 58.2552 53.7921 58.7499Z" fill="#CDD5D7"/>
<path d="M53.324 57.8691H50.4201C50.3108 58.0683 50.2569 58.2933 50.2641 58.5207C50.2641 59.0033 50.4681 59.4015 50.7201 59.4015H53.024C53.276 59.4015 53.48 59.0033 53.48 58.5207C53.4872 58.2933 53.4333 58.0683 53.324 57.8691Z" fill="#E5E8EC"/>
<path d="M50.6358 58.3277C50.623 58.1751 50.623 58.0217 50.6358 57.8691H50.0358C49.9298 58.0695 49.8761 58.2937 49.8798 58.5207C49.8798 59.0033 50.0838 59.4015 50.3358 59.4015H50.8279C50.6832 59.0629 50.6175 58.6957 50.6358 58.3277V58.3277Z" fill="#B7BEC0"/>
<path d="M53.7921 63.2988C53.7921 63.7815 53.5881 64.1676 53.3361 64.1676H50.1081C49.8561 64.1676 49.6521 63.7815 49.6521 63.2988C49.6521 62.8162 49.8561 62.418 50.1081 62.418H53.3361C53.5881 62.418 53.7921 62.8162 53.7921 63.2988Z" fill="#CDD5D7"/>
<path d="M53.324 62.418H50.42C50.3109 62.6215 50.2571 62.8505 50.264 63.0817C50.264 63.5643 50.468 63.9504 50.72 63.9504H53.024C53.276 63.9504 53.48 63.5643 53.48 63.0817C53.4869 62.8505 53.4331 62.6215 53.324 62.418Z" fill="#E5E8EC"/>
<path d="M50.636 62.8281C50.6237 62.6756 50.6237 62.5222 50.636 62.3696H50.036C49.9268 62.5688 49.8729 62.7938 49.88 63.0212C49.88 63.5038 50.084 63.89 50.336 63.89H50.8281C50.6852 63.5551 50.6195 63.1921 50.636 62.8281Z" fill="#B7BEC0"/>
<path d="M53.7921 67.8476C53.7921 68.3302 53.5881 68.7285 53.3361 68.7285H50.1081C49.8561 68.7285 49.6521 68.3302 49.6521 67.8476C49.6521 67.365 49.8561 66.9668 50.1081 66.9668H53.3361C53.5881 66.9668 53.7921 67.365 53.7921 67.8476Z" fill="#CDD5D7"/>
<path d="M53.324 66.9668H50.42C50.3125 67.171 50.2588 67.3994 50.264 67.6304C50.264 68.1131 50.468 68.4992 50.72 68.4992H53.024C53.276 68.4992 53.48 68.1131 53.48 67.6304C53.4853 67.3994 53.4316 67.171 53.324 66.9668Z" fill="#E5E8EC"/>
<path d="M50.636 67.4253C50.6237 67.2727 50.6237 67.1194 50.636 66.9668H50.036C49.9268 67.166 49.8729 67.391 49.88 67.6183C49.88 68.101 50.084 68.4871 50.336 68.4871H50.8281C50.6852 68.1523 50.6195 67.7893 50.636 67.4253Z" fill="#B7BEC0"/>
<path d="M53.7921 72.3965C53.7921 72.8792 53.5881 73.2774 53.3361 73.2774H50.1081C49.8561 73.2774 49.6521 72.8792 49.6521 72.3965C49.6521 71.9139 49.8561 71.5157 50.1081 71.5157H53.3361C53.5881 71.5157 53.7921 71.9139 53.7921 72.3965Z" fill="#CDD5D7"/>
<path d="M53.324 71.5157H50.42C50.3125 71.7199 50.2588 71.9484 50.264 72.1794C50.264 72.662 50.468 73.0602 50.72 73.0602H53.024C53.276 73.0602 53.48 72.662 53.48 72.1794C53.4853 71.9484 53.4316 71.7199 53.324 71.5157V71.5157Z" fill="#E5E8EC"/>
<path d="M50.636 71.9743C50.6237 71.8217 50.6237 71.6683 50.636 71.5157H50.036C49.9268 71.7149 49.8729 71.94 49.88 72.1673C49.88 72.6499 50.084 73.0481 50.336 73.0481H50.8281C50.6834 72.7096 50.6176 72.3423 50.636 71.9743Z" fill="#B7BEC0"/>
<path d="M53.7921 76.9455C53.7921 77.4281 53.5881 77.8263 53.3361 77.8263H50.1081C49.8561 77.8263 49.6521 77.4281 49.6521 76.9455C49.6521 76.4628 49.8561 76.0767 50.1081 76.0767H53.3361C53.5881 76.0767 53.7921 76.4628 53.7921 76.9455Z" fill="#CDD5D7"/>
<path d="M53.324 76.1008H50.4201C50.3108 76.3 50.2569 76.525 50.2641 76.7524C50.2641 77.235 50.4681 77.6332 50.7201 77.6332H53.024C53.276 77.6332 53.48 77.235 53.48 76.7524C53.4872 76.525 53.4333 76.3 53.324 76.1008V76.1008Z" fill="#E5E8EC"/>
<path d="M50.636 76.5231C50.6237 76.3745 50.6237 76.2252 50.636 76.0767H50.036C49.9284 76.2765 49.8746 76.5011 49.88 76.7283C49.88 77.2109 50.084 77.6091 50.336 77.6091H50.8281C50.678 77.2679 50.6121 76.8953 50.636 76.5231Z" fill="#B7BEC0"/>
<path d="M53.7921 81.5064C53.7921 81.989 53.5881 82.3752 53.3361 82.3752H50.1081C49.8561 82.3752 49.6521 81.989 49.6521 81.5064C49.6521 81.0117 49.8561 80.6256 50.1081 80.6256H53.3361C53.5881 80.6256 53.7921 81.0117 53.7921 81.5064Z" fill="#CDD5D7"/>
<path d="M53.324 80.6256H50.4201C50.3108 80.8248 50.2569 81.0498 50.2641 81.2771C50.2641 81.7598 50.4681 82.158 50.7201 82.158H53.024C53.276 82.158 53.48 81.7598 53.48 81.2771C53.4872 81.0498 53.4333 80.8248 53.324 80.6256Z" fill="#E5E8EC"/>
<path d="M50.6358 81.0841C50.623 80.9316 50.623 80.7782 50.6358 80.6256H50.0358C49.9298 80.826 49.8761 81.0502 49.8798 81.2771C49.8798 81.7598 50.0838 82.158 50.3358 82.158H50.8279C50.6832 81.8195 50.6175 81.4521 50.6358 81.0841Z" fill="#B7BEC0"/>
<path d="M53.7921 86.0554C53.7921 86.538 53.5881 86.9241 53.3361 86.9241H50.1081C49.8561 86.9241 49.6521 86.538 49.6521 86.0554C49.6521 85.5727 49.8561 85.1746 50.1081 85.1746H53.3361C53.5881 85.1746 53.7921 85.5727 53.7921 86.0554Z" fill="#CDD5D7"/>
<path d="M53.324 85.1746H50.42C50.3109 85.3781 50.2571 85.607 50.264 85.8382C50.264 86.3208 50.468 86.7069 50.72 86.7069H53.024C53.276 86.7069 53.48 86.3208 53.48 85.8382C53.4869 85.607 53.4331 85.3781 53.324 85.1746Z" fill="#E5E8EC"/>
<path d="M50.636 85.6331C50.6232 85.4805 50.6232 85.3271 50.636 85.1746H50.036C49.9268 85.3737 49.8729 85.5988 49.88 85.8261C49.88 86.3087 50.084 86.6949 50.336 86.6949H50.8281C50.6852 86.3601 50.6195 85.997 50.636 85.6331V85.6331Z" fill="#B7BEC0"/>
<path d="M53.7921 90.58C53.7921 91.0627 53.5881 91.4608 53.3361 91.4608H50.1081C49.8561 91.4608 49.6521 91.0627 49.6521 90.58C49.6521 90.0974 49.8561 89.6992 50.1081 89.6992H53.3361C53.5881 89.6992 53.7921 90.0974 53.7921 90.58Z" fill="#CDD5D7"/>
<path d="M53.324 89.7234H50.42C50.3109 89.927 50.2571 90.1559 50.264 90.3871C50.264 90.8697 50.468 91.2558 50.72 91.2558H53.024C53.276 91.2558 53.48 90.8697 53.48 90.3871C53.4869 90.1559 53.4331 89.927 53.324 89.7234Z" fill="#E5E8EC"/>
<path d="M50.636 90.1819C50.6237 90.0293 50.6237 89.876 50.636 89.7234H50.036C49.9268 89.9226 49.8729 90.1477 49.88 90.375C49.88 90.8576 50.084 91.2437 50.336 91.2437H50.8281C50.6852 90.9089 50.6195 90.5459 50.636 90.1819V90.1819Z" fill="#B7BEC0"/>
<path d="M53.7921 95.153C53.7921 95.6357 53.5881 96.0339 53.3361 96.0339H50.1081C49.8561 96.0339 49.6521 95.6357 49.6521 95.153C49.6521 94.6704 49.8561 94.2722 50.1081 94.2722H53.3361C53.5881 94.2722 53.7921 94.6704 53.7921 95.153Z" fill="#CDD5D7"/>
<path d="M53.324 94.2722H50.42C50.3125 94.4764 50.2588 94.7049 50.264 94.9358C50.264 95.4185 50.468 95.8167 50.72 95.8167H53.024C53.276 95.8167 53.48 95.4185 53.48 94.9358C53.4853 94.7049 53.4316 94.4764 53.324 94.2722Z" fill="#E5E8EC"/>
<path d="M50.636 94.7307C50.6237 94.5782 50.6237 94.4248 50.636 94.2722H50.036C49.9268 94.4714 49.8729 94.6964 49.88 94.9238C49.88 95.4064 50.084 95.8046 50.336 95.8046H50.8281C50.6834 95.4661 50.6176 95.0987 50.636 94.7307V94.7307Z" fill="#B7BEC0"/>
<path d="M53.7921 99.702C53.7921 100.185 53.5881 100.583 53.3361 100.583H50.1081C49.8561 100.583 49.6521 100.185 49.6521 99.702C49.6521 99.2193 49.8561 98.8333 50.1081 98.8333H53.3361C53.5881 98.8333 53.7921 99.2193 53.7921 99.702Z" fill="#CDD5D7"/>
<path d="M53.324 98.8333H50.4201C50.3108 99.0324 50.2569 99.2575 50.2641 99.4848C50.2641 99.9674 50.4681 100.366 50.7201 100.366H53.024C53.276 100.366 53.48 99.9674 53.48 99.4848C53.4872 99.2575 53.4333 99.0324 53.324 98.8333Z" fill="#E5E8EC"/>
<path d="M50.636 99.2797C50.6237 99.1311 50.6237 98.9818 50.636 98.8333H50.036C49.9284 99.0331 49.8746 99.2576 49.88 99.4848C49.88 99.9674 50.084 100.366 50.336 100.366H50.8281C50.678 100.024 50.6121 99.6519 50.636 99.2797V99.2797Z" fill="#B7BEC0"/>
<path d="M53.7921 104.263C53.7921 104.746 53.5881 105.132 53.3361 105.132H50.1081C49.8561 105.132 49.6521 104.746 49.6521 104.263C49.6521 103.768 49.8561 103.382 50.1081 103.382H53.3361C53.5881 103.382 53.7921 103.768 53.7921 104.263Z" fill="#CDD5D7"/>
<path d="M53.324 103.382H50.4201C50.3108 103.581 50.2569 103.806 50.2641 104.034C50.2641 104.516 50.4681 104.914 50.7201 104.914H53.024C53.276 104.914 53.48 104.516 53.48 104.034C53.4872 103.806 53.4333 103.581 53.324 103.382Z" fill="#E5E8EC"/>
<path d="M50.6358 103.853C50.623 103.7 50.623 103.547 50.6358 103.394H50.0358C49.9298 103.595 49.8761 103.819 49.8798 104.046C49.8798 104.528 50.0838 104.927 50.3358 104.927H50.8279C50.6832 104.588 50.6175 104.221 50.6358 103.853V103.853Z" fill="#B7BEC0"/>
<path d="M53.7921 108.812C53.7921 109.294 53.5881 109.681 53.3361 109.681H50.1081C49.8561 109.681 49.6521 109.294 49.6521 108.812C49.6521 108.329 49.8561 107.931 50.1081 107.931H53.3361C53.5881 107.931 53.7921 108.329 53.7921 108.812Z" fill="#CDD5D7"/>
<path d="M53.324 107.931H50.42C50.3124 108.131 50.2587 108.355 50.264 108.583C50.264 109.077 50.468 109.463 50.72 109.463H53.024C53.276 109.463 53.48 109.077 53.48 108.583C53.4854 108.355 53.4316 108.131 53.324 107.931V107.931Z" fill="#E5E8EC"/>
<path d="M50.6359 108.39C50.6231 108.237 50.6231 108.084 50.6359 107.931H50.0359C49.926 108.126 49.872 108.347 49.8799 108.57C49.8799 109.065 50.0839 109.451 50.3359 109.451H50.828C50.6851 109.117 50.6194 108.754 50.6359 108.39Z" fill="#B7BEC0"/>
<path d="M53.7921 113.361C53.7921 113.843 53.5881 114.242 53.3361 114.242H50.1081C49.8561 114.242 49.6521 113.843 49.6521 113.361C49.6521 112.878 49.8561 112.48 50.1081 112.48H53.3361C53.5881 112.48 53.7921 112.878 53.7921 113.361Z" fill="#CDD5D7"/>
<path d="M53.324 112.48H50.42C50.3125 112.684 50.2588 112.913 50.264 113.144C50.264 113.626 50.468 114.012 50.72 114.012H53.024C53.276 114.012 53.48 113.626 53.48 113.144C53.4853 112.913 53.4316 112.684 53.324 112.48Z" fill="#E5E8EC"/>
<path d="M50.636 112.938C50.6237 112.786 50.6237 112.633 50.636 112.48H50.036C49.9268 112.679 49.8729 112.904 49.88 113.132C49.88 113.614 50.084 114 50.336 114H50.8281C50.6852 113.665 50.6195 113.302 50.636 112.938Z" fill="#B7BEC0"/>
<path d="M53.7921 117.91C53.7921 118.392 53.5881 118.79 53.3361 118.79H50.1081C49.8561 118.79 49.6521 118.392 49.6521 117.91C49.6521 117.427 49.8561 117.029 50.1081 117.029H53.3361C53.5881 117.029 53.7921 117.427 53.7921 117.91Z" fill="#CDD5D7"/>
<path d="M53.324 117.029H50.42C50.3125 117.233 50.2588 117.461 50.264 117.692C50.264 118.175 50.468 118.573 50.72 118.573H53.024C53.276 118.573 53.48 118.175 53.48 117.692C53.4853 117.461 53.4316 117.233 53.324 117.029Z" fill="#E5E8EC"/>
<path d="M50.636 117.487C50.6237 117.335 50.6237 117.181 50.636 117.029H50.036C49.9268 117.228 49.8729 117.453 49.88 117.68C49.88 118.163 50.084 118.561 50.336 118.561H50.8281C50.6834 118.223 50.6176 117.855 50.636 117.487V117.487Z" fill="#B7BEC0"/>
<path d="M149.087 6.13023L83.5295 1.29126L76.6486 94.5132L142.206 99.3522L149.087 6.13023Z" fill="#E5E8EC"/>
<path d="M133.919 83.4839L85.6787 79.9231L85.6148 80.7895L133.856 84.3503L133.919 83.4839Z" fill="#B7BEC0"/>
<path d="M135.049 85.1401L85.5632 81.4874L85.5002 82.3418L134.986 85.9944L135.049 85.1401Z" fill="#B7BEC0"/>
<path d="M133.891 86.6396L85.447 83.0638L85.384 83.9182L133.828 87.494L133.891 86.6396Z" fill="#B7BEC0"/>
<path d="M114.639 86.8035L85.3306 84.6401L85.2666 85.5065L114.575 87.6698L114.639 86.8035Z" fill="#B7BEC0"/>
<path d="M137.966 44.3161L88.4924 40.6643L88.4294 41.5187L137.903 45.1704L137.966 44.3161Z" fill="#B7BEC0"/>
<path d="M137.239 45.8474L88.376 42.2407L88.312 43.1071L137.175 46.7138L137.239 45.8474Z" fill="#B7BEC0"/>
<path d="M137.733 47.4688L88.2595 43.817L88.1965 44.6714L137.67 48.3231L137.733 47.4688Z" fill="#B7BEC0"/>
<path d="M137.617 49.0331L88.144 45.3813L88.081 46.2357L137.554 49.8875L137.617 49.0331Z" fill="#B7BEC0"/>
<path d="M136.687 50.5495L88.0278 46.9578L87.9639 47.8242L136.623 51.4159L136.687 50.5495Z" fill="#B7BEC0"/>
<path d="M137.385 52.1858L87.9114 48.5341L87.8483 49.3884L137.322 53.0402L137.385 52.1858Z" fill="#B7BEC0"/>
<path d="M136.036 53.6711L87.7952 50.1104L87.7321 50.9647L135.973 54.5255L136.036 53.6711Z" fill="#B7BEC0"/>
<path d="M137.153 55.3264L87.6797 51.6747L87.6166 52.5291L137.09 56.1808L137.153 55.3264Z" fill="#B7BEC0"/>
<path d="M136.007 56.8269L87.5632 53.2511L87.5002 54.1055L135.944 57.6813L136.007 56.8269Z" fill="#B7BEC0"/>
<path d="M134.56 76.4411L86.1155 72.8654L86.0933 73.1662L134.537 76.742L134.56 76.4411Z" fill="#B7BEC0"/>
<path d="M97.9664 55.6039L87.447 54.8274L87.384 55.6818L97.9033 56.4582L97.9664 55.6039Z" fill="#B7BEC0"/>
<path d="M138.996 30.3695L106.911 28.0012L106.848 28.8556L138.933 31.2238L138.996 30.3695Z" fill="#B7BEC0"/>
<path d="M137.754 31.8629L106.795 29.5776L106.732 30.432L137.691 32.7172L137.754 31.8629Z" fill="#B7BEC0"/>
<path d="M138.764 33.5101L106.679 31.1418L106.616 31.9962L138.701 34.3645L138.764 33.5101Z" fill="#B7BEC0"/>
<path d="M137.714 35.0176L106.563 32.7183L106.5 33.5726L137.651 35.872L137.714 35.0176Z" fill="#B7BEC0"/>
<path d="M115.231 34.9431L106.447 34.2947L106.383 35.149L115.168 35.7974L115.231 34.9431Z" fill="#B7BEC0"/>
<path d="M139.727 20.4541L90.2537 16.8024L90.1906 17.6567L139.664 21.3085L139.727 20.4541Z" fill="#B7BEC0"/>
<path d="M131.21 21.3982L90.1382 18.3666L90.0751 19.2209L131.147 22.2526L131.21 21.3982Z" fill="#B7BEC0"/>
<path d="M122.306 12.9251L90.7119 10.593L90.6089 11.9889L122.203 14.3209L122.306 12.9251Z" fill="#969C9E"/>
<path d="M127.314 26.422L107.018 24.9238L106.915 26.3197L127.211 27.8179L127.314 26.422Z" fill="#969C9E"/>
<path d="M136.331 66.4693L104.246 64.1011L104.183 64.9554L136.268 67.3237L136.331 66.4693Z" fill="#B7BEC0"/>
<path d="M135.09 67.9627L104.13 65.6775L104.066 66.5439L135.026 68.8291L135.09 67.9627Z" fill="#B7BEC0"/>
<path d="M136.098 69.6222L104.014 67.2539L103.951 68.1083L136.035 70.4765L136.098 69.6222Z" fill="#B7BEC0"/>
<path d="M135.048 71.1296L103.897 68.8302L103.834 69.6846L134.985 71.9839L135.048 71.1296Z" fill="#B7BEC0"/>
<path d="M126.089 72.0411L103.782 70.3945L103.719 71.2489L126.026 72.8954L126.089 72.0411Z" fill="#B7BEC0"/>
<path d="M92.536 76.0374L88.2996 75.7247L88.2365 76.5791L92.473 76.8918L92.536 76.0374Z" fill="#B7BEC0"/>
<path d="M100.829 76.6495L96.5925 76.3368L96.5295 77.1912L100.766 77.5039L100.829 76.6495Z" fill="#B7BEC0"/>
<path d="M109.11 77.2608L104.874 76.9481L104.81 77.8025L109.047 78.1152L109.11 77.2608Z" fill="#B7BEC0"/>
<path d="M117.404 77.873L113.167 77.5603L113.104 78.4147L117.341 78.7274L117.404 77.873Z" fill="#B7BEC0"/>
<path d="M118.378 62.0712L104.352 61.0359L104.249 62.4317L118.275 63.467L118.378 62.0712Z" fill="#969C9E"/>
<path d="M99.0129 32.1367C98.847 32.5725 98.5879 32.9664 98.254 33.2906L100.293 36.6353C101.542 35.7161 102.448 34.4027 102.867 32.9051L99.0129 32.1367Z" fill="#B7BEC0"/>
<path d="M96.9882 27.9342C97.6141 28.1322 98.1621 28.523 98.555 29.0513C98.9478 29.5796 99.1655 30.2188 99.1774 30.8786L103.035 31.5988C103.035 31.5988 103.041 31.5146 103.045 31.4665C103.169 29.7161 102.639 27.9824 101.559 26.6048C100.479 25.2273 98.9267 24.3048 97.2051 24.0181L96.9882 27.9342Z" fill="#484F59"/>
<path d="M93.9499 28.6779C94.4256 28.2143 95.039 27.9196 95.6964 27.8389L95.9851 23.928C94.9819 23.9452 93.9939 24.1787 93.088 24.6128C92.182 25.0469 91.3791 25.6714 90.7336 26.4442L93.9499 28.6779Z" fill="#01C6DA"/>
<path d="M97.1761 33.8766C96.786 34.0149 96.3727 34.0748 95.9598 34.0529C95.5495 34.0242 95.1489 33.9146 94.7809 33.7302C94.4128 33.5458 94.0846 33.2903 93.8149 32.9783C93.5451 32.6663 93.3393 32.3039 93.209 31.9117C93.0786 31.5196 93.0264 31.1054 93.0553 30.6929C93.0858 30.3488 93.1717 30.0119 93.3094 29.6954L90.093 27.4616C89.3574 28.7709 89.0581 30.2825 89.239 31.7746C89.4199 33.2667 90.0715 34.6609 91.0984 35.7528C92.1252 36.8447 93.4732 37.5768 94.9447 37.8419C96.4163 38.1069 97.934 37.891 99.2752 37.2256L97.1761 33.8766Z" fill="#FF876C"/>
<path d="M88.8798 67.2015L86.4265 67.0204L86.1245 71.1117L88.5779 71.2928L88.8798 67.2015Z" fill="#484F59"/>
<path d="M92.8457 63.5258L90.3923 63.3447L89.7999 71.3709L92.2532 71.552L92.8457 63.5258Z" fill="#B7BEC0"/>
<path d="M96.4279 65.2057L93.9746 65.0247L93.4861 71.643L95.9394 71.8241L96.4279 65.2057Z" fill="#FF876C"/>
<path d="M100.424 61.1088L97.9707 60.9277L97.1598 71.9141L99.6131 72.0952L100.424 61.1088Z" fill="#01C6DA"/>
<path d="M87.5148 75.2675L85.8872 75.1473L85.7664 76.7839L87.394 76.904L87.5148 75.2675Z" fill="#FF876C"/>
<path d="M95.7843 75.8779L94.1567 75.7578L94.0359 77.3943L95.6635 77.5145L95.7843 75.8779Z" fill="#484F59"/>
<path d="M104.054 76.4883L102.426 76.3682L102.305 78.0047L103.933 78.1248L104.054 76.4883Z" fill="#B7BEC0"/>
<path d="M112.312 77.0978L110.684 76.9777L110.563 78.6142L112.191 78.7343L112.312 77.0978Z" fill="#01C6DA"/>
<path d="M42.0921 105.397V103.105H38.0481V105.397C38.0481 105.516 38.0949 105.629 38.1782 105.713C38.2614 105.797 38.3743 105.844 38.4921 105.844H41.6481C41.7069 105.845 41.7653 105.835 41.8199 105.813C41.8745 105.791 41.9242 105.758 41.9657 105.717C42.0073 105.675 42.04 105.625 42.0617 105.57C42.0834 105.515 42.0937 105.456 42.0921 105.397V105.397Z" fill="#FF876C"/>
<path d="M41.54 105.361V103.105H39.824V105.361C39.8255 105.389 39.8326 105.417 39.8449 105.443C39.8572 105.469 39.8745 105.492 39.8957 105.511C39.9169 105.53 39.9416 105.545 39.9684 105.554C39.9952 105.564 40.0236 105.568 40.052 105.566H41.324C41.3518 105.568 41.3796 105.564 41.4058 105.554C41.4319 105.544 41.4559 105.53 41.4761 105.51C41.4963 105.491 41.5124 105.468 41.5234 105.442C41.5344 105.417 41.54 105.389 41.54 105.361V105.361Z" fill="#FFA38F"/>
<path d="M38.9961 103.105H38.0481V105.397C38.0481 105.516 38.0949 105.629 38.1782 105.713C38.2614 105.797 38.3743 105.844 38.4921 105.844H38.9961V103.105Z" fill="#E36E54"/>
<path d="M42.1521 95.4064V30.7808C41.9139 30.8079 41.6916 30.9139 41.5199 31.0821C41.3483 31.2503 41.2372 31.4712 41.2041 31.7099V95.4064H42.1521Z" fill="#30363D"/>
<path d="M38.948 95.4065H41.204V31.71C41.1646 31.4406 41.0302 31.1945 40.8253 31.0166C40.6205 30.8387 40.3587 30.7407 40.088 30.7407C39.8173 30.7407 39.5556 30.8387 39.3507 31.0166C39.1458 31.1945 39.0114 31.4406 38.972 31.71L38.948 95.4065Z" fill="#596273"/>
<path d="M38.948 31.7099C38.9149 31.4712 38.8038 31.2503 38.6322 31.0821C38.4605 30.9139 38.2381 30.8079 38 30.7808V95.4064H38.948V31.7099Z" fill="#30363D"/>
<path d="M38 30.7808C38.2374 30.8099 38.4587 30.9166 38.63 31.0844C38.8012 31.2523 38.9129 31.472 38.948 31.7099V31.7099C38.9874 31.4406 39.1217 31.1945 39.3266 31.0165C39.5315 30.8386 39.7932 30.7407 40.064 30.7407C40.3347 30.7407 40.5964 30.8386 40.8013 31.0165C41.0062 31.1945 41.1406 31.4406 41.18 31.7099V31.7099C41.213 31.4712 41.3241 31.2504 41.4958 31.0822C41.6674 30.914 41.8899 30.8079 42.128 30.7808L40.052 22.226L38 30.7808Z" fill="#E5E8EC"/>
<path d="M38 30.7808C38.2374 30.8099 38.4587 30.9166 38.63 31.0844C38.8012 31.2523 38.9129 31.472 38.948 31.7099V31.7099C38.948 31.179 40.064 22.226 40.064 22.226L38 30.7808Z" fill="#CDD5D7"/>
<path d="M42.1279 95.3462H38.0239V103.189H42.1279V95.3462Z" fill="#F0CA67"/>
<path d="M40.7721 95.3462H39.9321V103.189H40.7721V95.3462Z" fill="#F4DA80"/>
<path d="M39.4519 24.8081C39.6477 24.8205 39.8441 24.8205 40.0399 24.8081C40.2595 24.8265 40.4803 24.8265 40.7 24.8081L40.0759 22.238L39.4519 24.8081Z" fill="#30363D"/>
<path d="M42.0199 96.1666H41.7559V97.3008H42.0199V96.1666Z" fill="#F4DA80"/>
<path d="M41.42 96.1666H41.156V97.3008H41.42V96.1666Z" fill="#F4DA80"/>
<path d="M40.8079 96.1666H40.5439V97.3008H40.8079V96.1666Z" fill="#F0CA67"/>
<path d="M40.2081 96.1666H39.9441V97.3008H40.2081V96.1666Z" fill="#F0CA67"/>
<path d="M39.608 96.1666H39.344V97.3008H39.608V96.1666Z" fill="#F4DA80"/>
<path d="M39.0079 96.1666H38.7439V97.3008H39.0079V96.1666Z" fill="#F4DA80"/>
<path d="M38.408 96.1666H38.144V97.3008H38.408V96.1666Z" fill="#F4DA80"/>
<path d="M42.0199 100.969H41.7559V102.103H42.0199V100.969Z" fill="#F4DA80"/>
<path d="M41.42 100.969H41.156V102.103H41.42V100.969Z" fill="#F4DA80"/>
<path d="M40.8079 100.969H40.5439V102.103H40.8079V100.969Z" fill="#F0CA67"/>
<path d="M40.2081 100.969H39.9441V102.103H40.2081V100.969Z" fill="#F0CA67"/>
<path d="M39.608 100.969H39.344V102.103H39.608V100.969Z" fill="#F4DA80"/>
<path d="M39.0079 100.969H38.7439V102.103H39.0079V100.969Z" fill="#F4DA80"/>
<path d="M38.408 100.969H38.144V102.103H38.408V100.969Z" fill="#F4DA80"/>
<path d="M181.441 30.3651C183.685 30.9081 184.573 31.6924 184.633 32.2474C184.637 32.416 184.607 32.5836 184.543 32.7395C184.478 32.8954 184.383 33.036 184.261 33.1524C183.061 34.6485 179.461 36.0844 175.093 36.9531C175.093 37.2186 174.985 37.4961 174.913 37.7615C181.153 36.5549 185.605 34.2745 185.377 32.1629C185.257 31.0408 183.817 30.1599 181.537 29.6169C181.522 29.8682 181.49 30.1182 181.441 30.3651V30.3651Z" fill="#E5E8EC"/>
<path d="M168.122 37.0013C167.738 35.6741 172.25 36.8806 176.342 34.2382C180.614 31.463 184.514 30.7149 184.91 32.0542C185.306 33.3936 181.85 35.5775 177.218 36.8806C172.586 38.1838 168.518 38.3407 168.122 37.0013Z" fill="#CDD5D7"/>
<path d="M166.49 35.4691C166.106 34.1297 170.618 35.3364 174.698 32.6939C178.982 29.9308 182.882 29.1827 183.278 30.5099C183.674 31.8372 180.218 34.0332 175.538 35.3846C170.858 36.736 166.874 36.7963 166.49 35.4691Z" fill="#B7BEC0"/>
<path d="M177.674 33.4299C180.65 31.7527 183.266 31.1132 184.37 31.5355C184.705 31.5105 185.037 31.6188 185.294 31.8372C184.729 30.205 184.006 28.6328 183.134 27.1435H183.014C182.054 26.5522 179.03 27.3366 175.622 29.3757C176.632 30.5338 177.337 31.9275 177.674 33.4299V33.4299Z" fill="#E5E8EC"/>
<path d="M178.778 31.9095C178.31 30.7508 177.718 29.6464 177.014 28.6155C176.57 28.8447 176.102 29.1102 175.622 29.3877C176.434 30.3157 177.05 31.3992 177.434 32.5731C177.938 32.3318 178.346 32.1025 178.778 31.9095Z" fill="#CDD5D7"/>
<path d="M152.162 56.1382C149.101 54.448 146.607 51.8834 144.994 48.7683C143.382 45.6533 142.725 42.1276 143.105 38.637C143.485 35.1463 144.885 31.8472 147.129 29.1566C149.374 26.466 152.361 24.5047 155.713 23.5205C159.065 22.5362 162.632 22.5732 165.964 23.6267C169.295 24.6803 172.241 26.7032 174.43 29.4398C176.618 32.1763 177.951 35.5038 178.259 39.0017C178.567 42.4995 177.838 46.0106 176.162 49.0916C175.048 51.1402 173.543 52.948 171.733 54.4112C169.923 55.8744 167.844 56.9644 165.615 57.6189C163.386 58.2734 161.05 58.4795 158.742 58.2254C156.433 57.9713 154.198 57.262 152.162 56.1382V56.1382Z" fill="#CDD5D7"/>
<path d="M153.025 55.3297C149.964 53.6396 147.47 51.0749 145.858 47.9598C144.246 44.8448 143.588 41.3192 143.968 37.8285C144.348 34.3379 145.749 31.0388 147.993 28.3482C150.237 25.6576 153.224 23.6962 156.576 22.712C159.928 21.7277 163.496 21.7647 166.827 22.8183C170.159 23.8719 173.105 25.8948 175.293 28.6313C177.481 31.3679 178.814 34.6953 179.122 38.1932C179.431 41.691 178.701 45.2022 177.025 48.2831C175.912 50.333 174.408 52.1418 172.598 53.6059C170.789 55.07 168.709 56.1606 166.48 56.8152C164.25 57.4698 161.914 57.6756 159.605 57.4207C157.297 57.1657 155.06 56.4552 153.025 55.3297V55.3297Z" fill="#E5E8EC"/>
<path d="M153.65 54.1835C150.809 52.6205 148.494 50.2457 146.996 47.3595C145.499 44.4733 144.886 41.2053 145.235 37.9688C145.585 34.7323 146.881 31.6729 148.961 29.1773C151.04 26.6818 153.808 24.8623 156.916 23.949C160.023 23.0357 163.331 23.0697 166.419 24.0465C169.508 25.0234 172.239 26.8993 174.267 29.437C176.295 31.9747 177.529 35.0602 177.813 38.3031C178.097 41.5461 177.418 44.8008 175.862 47.6557C174.83 49.5515 173.437 51.2244 171.762 52.5786C170.088 53.9328 168.164 54.9419 166.101 55.5481C164.038 56.1544 161.877 56.3459 159.74 56.1117C157.604 55.8776 155.534 55.2223 153.65 54.1835V54.1835Z" fill="#CDD5D7"/>
<path d="M159.11 56.0295C162.103 56.3586 165.127 55.7922 167.801 54.4014C170.476 53.0106 172.683 50.8571 174.146 48.2107C176.057 44.5507 176.462 40.2828 175.274 36.3254C174.086 32.3681 171.401 29.0377 167.796 27.0513C164.191 25.0648 159.954 24.581 155.998 25.704C152.041 26.827 148.682 29.467 146.642 33.0558C146.486 33.3333 146.354 33.6108 146.222 33.8883C145.35 36.1886 145.002 38.6562 145.204 41.1095C145.407 43.5628 146.153 45.9392 147.39 48.0637C148.627 50.1883 150.322 52.0068 152.35 53.3854C154.378 54.764 156.688 55.6675 159.11 56.0295V56.0295Z" fill="#B7BEC0"/>
<path d="M158.114 55.8968C160.619 55.9408 163.091 55.3144 165.277 54.0817C167.462 52.849 169.282 51.0544 170.551 48.8817C171.82 46.7089 172.491 44.2362 172.497 41.7167C172.502 39.1971 171.842 36.7214 170.583 34.543C169.324 32.3647 167.511 30.562 165.331 29.3196C163.151 28.0772 160.682 27.4398 158.177 27.4726C155.671 27.5055 153.219 28.2073 151.072 29.5064C148.925 30.8055 147.16 32.6551 145.958 34.8657L145.802 35.1795C145.17 37.354 144.991 39.6364 145.277 41.8837C145.562 44.131 146.306 46.2948 147.462 48.2396C148.618 50.1844 150.16 51.8684 151.993 53.186C153.826 54.5036 155.91 55.4264 158.114 55.8968V55.8968Z" fill="#010000"/>
<path d="M163.814 29.7618C166.664 31.3338 168.94 33.7813 170.309 36.7467C171.678 39.7121 172.068 43.04 171.422 46.244C172.35 43.1239 172.186 39.7778 170.956 36.7648C169.727 33.7518 167.506 31.2543 164.666 29.6894C164.378 29.5205 164.078 29.3757 163.766 29.2309C163.454 29.0861 163.154 29.2309 162.854 29.3033C163.178 29.424 163.538 29.5929 163.814 29.7618Z" fill="#9F9282"/>
<path d="M184.321 30.7272C184.522 30.7249 184.721 30.7575 184.909 30.8236C184.417 29.5509 183.823 28.3202 183.134 27.1435H183.013C182.56 26.9325 182.05 26.8774 181.562 26.9866C182.338 28.1128 182.979 29.3279 183.469 30.6065C183.758 30.597 184.047 30.6379 184.321 30.7272Z" fill="#CDD5D7"/>
</g>
<defs>
<clipPath id="clip0_7:972">
<rect width="147" height="111" fill="white" transform="translate(38 11)"/>
</clipPath>
</defs>
</svg>
