<svg width="200" height="180" viewBox="0 0 200 180" fill="none" xmlns="http://www.w3.org/2000/svg">
<g clip-path="url(#clip0_7:1314)">
<path d="M125.837 56.4946H74.1262V89.0727H125.837V56.4946Z" fill="#34495E"/>
<path d="M62.3716 45.6412C58.47 45.6388 54.6132 46.4654 51.0607 48.0654C47.5081 49.6653 44.3423 52.0016 41.7762 54.9168C39.2102 57.8321 37.3035 61.2588 36.1843 64.9663C35.0652 68.6737 34.7596 72.576 35.2883 76.4104C35.2883 76.4104 35.2883 76.4104 35.2883 76.5179C35.2883 76.894 35.3967 77.27 35.4689 77.6461V77.7715C35.4689 78.1297 35.6134 78.5059 35.7036 78.8641C35.7759 79.2223 35.8661 79.5804 35.9744 79.9386C35.9744 79.9386 35.9744 79.9387 35.9744 80.0461C36.1556 80.7256 36.3725 81.3951 36.6244 82.052L45.6522 109.49C46.5437 112.215 48.2814 114.59 50.6164 116.275C52.9515 117.961 55.7642 118.871 58.6522 118.875H62.3897C64.1868 118.879 65.9672 118.532 67.6286 117.853C69.29 117.173 70.7998 116.175 72.0714 114.915C73.343 113.656 74.3513 112.159 75.0385 110.512C75.7257 108.865 76.0782 107.1 76.0758 105.317V96.362C81.2861 93.37 85.3566 88.7575 87.657 83.2388C89.9574 77.7201 90.3595 71.6031 88.8008 65.8349C87.2421 60.0666 83.8098 54.969 79.0352 51.3314C74.2606 47.6937 68.4101 45.719 62.3897 45.7129L62.3716 45.6412Z" fill="#5D6D7E"/>
<path d="M137.646 45.6412C141.541 45.6591 145.388 46.4994 148.93 48.106C152.473 49.7127 155.63 52.0489 158.192 54.9595C160.754 57.87 162.662 61.2882 163.789 64.9868C164.916 68.6853 165.236 72.5794 164.729 76.4104C164.729 76.4104 164.729 76.4104 164.729 76.5179C164.729 76.894 164.621 77.27 164.548 77.6461C164.548 77.6461 164.548 77.7357 164.548 77.7715C164.548 78.1297 164.404 78.5059 164.314 78.8641C164.241 79.2223 164.151 79.5804 164.043 79.9386C164.043 79.9386 164.043 79.9387 164.043 80.0461C163.862 80.7267 163.628 81.3893 163.393 82.052L154.365 109.49C153.473 112.218 151.732 114.595 149.394 116.281C147.055 117.967 144.238 118.875 141.347 118.875H137.628C135.83 118.879 134.05 118.532 132.389 117.853C130.727 117.173 129.217 116.175 127.946 114.915C126.674 113.656 125.666 112.159 124.979 110.512C124.292 108.865 123.939 107.1 123.942 105.317V96.362C118.717 93.379 114.633 88.7678 112.322 83.2449C110.012 77.7221 109.606 71.5971 111.167 65.8216C112.727 60.0461 116.167 54.9437 120.952 51.3073C125.738 47.6709 131.6 45.7043 137.628 45.7129L137.646 45.6412Z" fill="#5D6D7E"/>
<path d="M61.6861 72.7926L57.5875 76.8581H48.0181V68.7091H57.5875L61.6861 72.7926Z" fill="white"/>
<path d="M63.0583 72.7926L67.157 76.8581H76.7445V68.7091H67.157L63.0583 72.7926Z" fill="white"/>
<path d="M62.372 72.1121L58.2734 68.0286V58.5364H66.4707V68.0286L62.372 72.1121Z" fill="white"/>
<path d="M62.372 73.4731L58.2734 77.5387V87.0309H66.4707V77.5387L62.372 73.4731Z" fill="white"/>
<path d="M141.744 62.6019C141.748 63.4103 141.509 64.2015 141.059 64.8754C140.609 65.5493 139.967 66.0754 139.215 66.3872C138.463 66.6991 137.635 66.7825 136.835 66.627C136.036 66.4714 135.3 66.084 134.723 65.5136C134.145 64.9433 133.751 64.2157 133.591 63.4231C133.431 62.6305 133.511 61.8085 133.822 61.0613C134.133 60.3141 134.661 59.6753 135.338 59.2258C136.016 58.7763 136.812 58.5364 137.627 58.5364C138.716 58.5364 139.76 58.9641 140.532 59.726C141.303 60.488 141.739 61.522 141.744 62.6019Z" fill="white"/>
<path d="M127.372 68.7091C128.188 68.7056 128.986 68.9426 129.666 69.3899C130.346 69.8372 130.876 70.4748 131.19 71.2217C131.504 71.9685 131.587 72.7911 131.428 73.5848C131.27 74.3786 130.878 75.1078 130.301 75.68C129.724 76.2521 128.989 76.6414 128.189 76.7984C127.388 76.9554 126.559 76.873 125.806 76.5618C125.053 76.2505 124.411 75.7243 123.96 75.0501C123.509 74.3758 123.27 73.5838 123.273 72.7747C123.273 71.6964 123.705 70.6623 124.474 69.8999C125.243 69.1375 126.285 68.7091 127.372 68.7091Z" fill="white"/>
<path d="M133.53 82.9653C133.526 82.1562 133.765 81.3642 134.216 80.69C134.667 80.0157 135.31 79.4896 136.062 79.1783C136.815 78.867 137.645 78.7846 138.445 78.9416C139.245 79.0986 139.98 79.4879 140.557 80.06C141.134 80.6322 141.526 81.3614 141.685 82.1552C141.843 82.949 141.76 83.7715 141.446 84.5184C141.132 85.2653 140.602 85.9028 139.922 86.3501C139.242 86.7975 138.444 87.0344 137.628 87.0309C136.543 87.0262 135.503 86.5963 134.735 85.8349C133.968 85.0735 133.534 84.0421 133.53 82.9653Z" fill="white"/>
<path d="M147.884 76.858C147.069 76.858 146.273 76.6186 145.596 76.1699C144.919 75.7212 144.392 75.0834 144.08 74.3373C143.769 73.5911 143.687 72.7701 143.846 71.978C144.005 71.1859 144.397 70.4583 144.973 69.8872C145.548 69.3161 146.282 68.9272 147.08 68.7696C147.879 68.6121 148.707 68.6929 149.459 69.002C150.211 69.311 150.854 69.8344 151.306 70.506C151.759 71.1775 152 71.967 152 72.7746C152 73.8576 151.566 74.8963 150.794 75.662C150.022 76.4278 148.975 76.858 147.884 76.858Z" fill="white"/>
<path d="M62.3901 93.6754C58.2227 93.6754 54.1489 92.4496 50.6838 90.153C47.2187 87.8564 44.518 84.5921 42.9232 80.773C41.3284 76.9539 40.9112 72.7514 41.7242 68.697C42.5373 64.6426 44.544 60.9185 47.4908 57.9955C50.4376 55.0724 54.1921 53.0819 58.2795 52.2754C62.3668 51.4689 66.6035 51.8828 70.4537 53.4648C74.3038 55.0467 77.5946 57.7256 79.9099 61.1627C82.2252 64.5998 83.461 68.6408 83.461 72.7745C83.4562 78.3163 81.2347 83.6298 77.2842 87.5484C73.3337 91.4671 67.977 93.6706 62.3901 93.6754ZM62.3901 52.9662C58.4355 52.9627 54.5686 54.123 51.2789 56.3001C47.9892 58.4773 45.4246 61.5735 43.9095 65.197C42.3945 68.8205 41.9971 72.8084 42.7677 76.656C43.5384 80.5036 45.4425 84.0379 48.2388 86.8117C51.0352 89.5855 54.5983 91.4742 58.4772 92.2386C62.3561 93.003 66.3764 92.6089 70.0294 91.1061C73.6824 89.6033 76.8038 87.0593 78.9986 83.7961C81.1935 80.533 82.3632 76.6973 82.3596 72.7745C82.35 67.524 80.2431 62.4912 76.5001 58.7784C72.7572 55.0657 67.6834 52.9757 62.3901 52.9662Z" fill="#34495E"/>
<path d="M137.628 93.6754C133.46 93.6754 129.387 92.4496 125.921 90.153C122.456 87.8564 119.756 84.5921 118.161 80.773C116.566 76.9539 116.149 72.7514 116.962 68.697C117.775 64.6426 119.782 60.9185 122.728 57.9955C125.675 55.0724 129.43 53.0819 133.517 52.2754C137.604 51.4689 141.841 51.8828 145.691 53.4648C149.541 55.0467 152.832 57.7256 155.147 61.1627C157.463 64.5998 158.699 68.6408 158.699 72.7745C158.694 78.3163 156.472 83.6298 152.522 87.5484C148.571 91.4671 143.215 93.6706 137.628 93.6754ZM137.628 52.9662C133.674 52.9663 129.809 54.1295 126.521 56.3088C123.234 58.4882 120.672 61.5857 119.16 65.2095C117.648 68.8333 117.253 72.8206 118.026 76.667C118.798 80.5134 120.704 84.046 123.501 86.8181C126.298 89.5901 129.861 91.477 133.739 92.2399C137.618 93.0029 141.637 92.6077 145.289 91.1044C148.941 89.601 152.061 87.057 154.255 83.7943C156.45 80.5315 157.619 76.6966 157.615 72.7745C157.61 67.5194 155.503 62.4812 151.755 58.7669C148.007 55.0526 142.926 52.9662 137.628 52.9662Z" fill="#34495E"/>
<path d="M104.785 69.1211C104.78 69.4789 104.633 69.8206 104.376 70.072C104.12 70.3234 103.773 70.4643 103.412 70.4643H96.5693C96.2084 70.4643 95.8622 70.3234 95.6053 70.072C95.3485 69.8206 95.2018 69.4789 95.197 69.1211C95.2017 68.7615 95.3478 68.418 95.6041 68.1637C95.8604 67.9094 96.2068 67.7645 96.5693 67.7599H103.412C103.776 67.7599 104.125 67.9033 104.383 68.1586C104.64 68.4138 104.785 68.7601 104.785 69.1211Z" fill="white"/>
<path d="M104.785 76.4462C104.785 76.8072 104.64 77.1534 104.383 77.4087C104.125 77.664 103.776 77.8074 103.412 77.8074H96.5693C96.2068 77.8028 95.8604 77.6579 95.6041 77.4036C95.3478 77.1493 95.2017 76.8058 95.197 76.4462C95.2017 76.0867 95.3478 75.7432 95.6041 75.4889C95.8604 75.2346 96.2068 75.0897 96.5693 75.0851H103.412C103.776 75.0851 104.125 75.2285 104.383 75.4837C104.64 75.739 104.785 76.0853 104.785 76.4462Z" fill="white"/>
<path d="M96.5691 56.4946H103.412V51.5873C103.413 51.3377 103.365 51.0905 103.268 50.8598C103.172 50.6292 103.031 50.4199 102.853 50.244C102.678 50.0627 102.468 49.9197 102.235 49.8241C102.001 49.7284 101.751 49.6824 101.498 49.6888H98.5011C98.2466 49.6862 97.9942 49.734 97.7586 49.8294C97.523 49.9247 97.3088 50.0656 97.1288 50.244C96.7765 50.6047 96.5763 51.0851 96.5691 51.5873V56.4946Z" fill="#283A4D"/>
<path d="M100.776 28.3045C100.564 28.112 100.287 28.0037 99.9998 28C99.7115 28.0002 99.434 28.1091 99.2234 28.3045C99.0166 28.5084 98.8997 28.7853 98.8984 29.0746V49.7963H101.083V29.0746C101.086 28.9325 101.06 28.7912 101.007 28.659C100.955 28.5269 100.876 28.4063 100.776 28.3045Z" fill="#34495E"/>
</g>
<defs>
<clipPath id="clip0_7:1314">
<rect width="130" height="91" fill="white" transform="translate(35 28)"/>
</clipPath>
</defs>
</svg>
