<svg width="200" height="180" viewBox="0 0 200 180" fill="none" xmlns="http://www.w3.org/2000/svg">
<g clip-path="url(#clip0_4:1168)">
<path d="M123.65 22H80.0154C75.9787 22 72.7063 25.2803 72.7063 29.3268V132.953C72.7063 136.999 75.9787 140.28 80.0154 140.28H123.65C127.687 140.28 130.959 136.999 130.959 132.953V29.3268C130.959 25.2803 127.687 22 123.65 22Z" fill="#474F59"/>
<path d="M122.517 23.1234H81.136C77.0993 23.1234 73.8269 26.4037 73.8269 30.4502V131.829C73.8269 135.876 77.0993 139.156 81.136 139.156H122.517C126.554 139.156 129.826 135.876 129.826 131.829V30.4502C129.826 26.4037 126.554 23.1234 122.517 23.1234Z" fill="#30363D"/>
<path d="M94.9258 29.2291C94.9282 29.4252 94.8724 29.6177 94.7655 29.7819C94.6585 29.9462 94.5052 30.0749 94.3252 30.1516C94.1451 30.2283 93.9463 30.2497 93.7541 30.2129C93.5619 30.1761 93.3849 30.0829 93.2457 29.9451C93.1065 29.8072 93.0113 29.631 92.9723 29.4388C92.9332 29.2466 92.952 29.0471 93.0263 28.8657C93.1006 28.6842 93.2271 28.529 93.3896 28.4198C93.5521 28.3105 93.7434 28.2522 93.9391 28.2522C94.1986 28.2522 94.4478 28.3547 94.6325 28.5376C94.8172 28.7204 94.9226 28.9689 94.9258 29.2291Z" fill="#596273"/>
<path d="M102.369 25.8099C102.369 25.8927 102.352 25.9747 102.32 26.0511C102.288 26.1275 102.241 26.1967 102.182 26.2547C102.123 26.3127 102.053 26.3583 101.977 26.3889C101.9 26.4194 101.818 26.4343 101.735 26.4327C101.609 26.4327 101.486 26.3951 101.382 26.3248C101.278 26.2544 101.196 26.1545 101.149 26.0378C101.101 25.9211 101.089 25.7928 101.115 25.6693C101.14 25.5458 101.202 25.4327 101.292 25.3444C101.382 25.2561 101.495 25.1966 101.619 25.1735C101.743 25.1504 101.871 25.1647 101.986 25.2146C102.102 25.2646 102.2 25.3479 102.268 25.4539C102.336 25.5599 102.371 25.6838 102.369 25.8099Z" fill="#596273"/>
<path d="M105.621 29.1314C105.621 29.2545 105.572 29.3725 105.486 29.4595C105.399 29.5465 105.281 29.5954 105.158 29.5954H98.4096C98.2868 29.5954 98.1691 29.5465 98.0823 29.4595C97.9955 29.3725 97.9467 29.2545 97.9467 29.1314C97.9451 29.0694 97.9558 29.0078 97.9784 28.9501C98.0009 28.8923 98.0348 28.8397 98.0779 28.7953C98.1211 28.751 98.1726 28.7157 98.2296 28.6916C98.2866 28.6675 98.3478 28.6551 98.4096 28.6552H105.158C105.22 28.6551 105.281 28.6675 105.338 28.6916C105.395 28.7157 105.447 28.751 105.49 28.7953C105.533 28.8397 105.567 28.8923 105.59 28.9501C105.612 29.0078 105.623 29.0694 105.621 29.1314Z" fill="#596273"/>
<path d="M105.024 131.463H98.8359C98.3717 131.463 97.9954 131.84 97.9954 132.305V134.003C97.9954 134.468 98.3717 134.845 98.8359 134.845H105.024C105.488 134.845 105.865 134.468 105.865 134.003V132.305C105.865 131.84 105.488 131.463 105.024 131.463Z" fill="#596273"/>
<path d="M73.7538 40.427H72.3894V35.9088H73.7538V40.427Z" fill="#30363D"/>
<path d="M73.7538 52.2476H72.3894V44.6521H73.7538V52.2476Z" fill="#30363D"/>
<path d="M73.7538 61.2597H72.3894V54.0061H73.7538V61.2597Z" fill="#30363D"/>
<path d="M127.354 35.4203H76.2146V126.383H127.354V35.4203Z" fill="#01BACC"/>
<path d="M76.2146 64.6666V94.0472L112.2 35.4203H94.1705L76.2146 64.6666Z" fill="#01C6DA"/>
<path d="M76.2146 110.325L122.201 35.4203H115.342L76.2146 99.1515V110.325Z" fill="#01C6DA"/>
<path d="M61.8523 55.1173V65.4237C61.8523 66.7483 62.3772 68.0187 63.3116 68.9553C64.246 69.892 65.5133 70.4182 66.8347 70.4182C68.1561 70.4182 69.4234 69.892 70.3577 68.9553C71.2921 68.0187 71.817 66.7483 71.817 65.4237V55.1173H61.8523Z" fill="#E67A61"/>
<path d="M71.7805 55.1173V65.4237C71.7805 66.7483 72.3054 68.0187 73.2398 68.9553C74.1742 69.892 75.4415 70.4182 76.7629 70.4182C78.0843 70.4182 79.3515 69.892 80.2859 68.9553C81.2203 68.0187 81.7452 66.7483 81.7452 65.4237V55.1173H71.7805Z" fill="#E8ECEF"/>
<path d="M81.7817 55.1173V65.4237C81.7817 66.7483 82.3067 68.0187 83.241 68.9553C84.1754 69.892 85.4426 70.4182 86.764 70.4182C88.0854 70.4182 89.3527 69.892 90.2871 68.9553C91.2215 68.0187 91.7464 66.7483 91.7464 65.4237V55.1173H81.7817Z" fill="#E67A61"/>
<path d="M91.7463 55.1173V65.4237C91.7463 66.7483 92.2713 68.0187 93.2056 68.9553C94.14 69.892 95.4072 70.4182 96.7286 70.4182C98.05 70.4182 99.3173 69.892 100.252 68.9553C101.186 68.0187 101.711 66.7483 101.711 65.4237V55.1173H91.7463Z" fill="#E8ECEF"/>
<path d="M101.711 55.1173V65.4237C101.774 66.7072 102.327 67.9172 103.256 68.8031C104.185 69.6891 105.417 70.1832 106.699 70.1832C107.981 70.1832 109.214 69.6891 110.143 68.8031C111.071 67.9172 111.625 66.7072 111.688 65.4237V55.1173H101.711Z" fill="#E67A61"/>
<path d="M111.688 55.1173V65.4237C111.654 66.0996 111.758 66.7752 111.993 67.4095C112.228 68.0438 112.59 68.6237 113.055 69.1138C113.52 69.604 114.08 69.9943 114.701 70.2609C115.321 70.5276 115.989 70.6651 116.664 70.6651C117.339 70.6651 118.007 70.5276 118.627 70.2609C119.248 69.9943 119.808 69.604 120.273 69.1138C120.738 68.6237 121.1 68.0438 121.335 67.4095C121.57 66.7752 121.674 66.0996 121.64 65.4237V55.1173H111.688Z" fill="#E8ECEF"/>
<path d="M121.64 55.1173V65.4237C121.704 66.7072 122.257 67.9172 123.185 68.8031C124.114 69.6891 125.347 70.1832 126.629 70.1832C127.911 70.1832 129.144 69.6891 130.072 68.8031C131.001 67.9172 131.554 66.7072 131.617 65.4237V55.1173H121.64Z" fill="#E67A61"/>
<path d="M131.617 55.1173V65.4237C131.617 66.0796 131.746 66.7291 131.996 67.335C132.247 67.941 132.614 68.4916 133.076 68.9553C133.539 69.4191 134.088 69.787 134.693 70.038C135.297 70.289 135.945 70.4182 136.6 70.4182C137.254 70.4182 137.902 70.289 138.506 70.038C139.111 69.787 139.66 69.4191 140.123 68.9553C140.585 68.4916 140.952 67.941 141.203 67.335C141.453 66.7291 141.582 66.0796 141.582 65.4237V55.1173H131.617Z" fill="#E8ECEF"/>
<path d="M76.2268 38.7784L61.8523 55.1417H71.7805L82.5613 38.7784H76.2268Z" fill="#FF876C"/>
<path d="M82.5979 38.7784L71.7805 55.1417H81.7452C84.1815 49.6791 86.5773 44.2247 88.9324 38.7784H82.5979Z" fill="white"/>
<path d="M88.9689 38.7784C86.5813 44.241 84.1856 49.6954 81.7817 55.1417H91.7464C92.9565 49.6791 94.1746 44.2247 95.4009 38.7784H88.9689Z" fill="#FF876C"/>
<path d="M95.3398 38.7784C94.146 44.241 92.9278 49.6954 91.6853 55.1417H101.65V38.7784H95.3398Z" fill="white"/>
<path d="M101.711 38.7784V55.1417H111.688C110.478 49.6791 109.26 44.2247 108.033 38.7784H101.711Z" fill="#FF876C"/>
<path d="M108.082 38.7784C109.292 44.241 110.51 49.6954 111.737 55.1417H121.689C119.277 49.6791 116.853 44.2247 114.417 38.7784H108.082Z" fill="white"/>
<path d="M114.417 38.7784C116.804 44.241 119.196 49.6954 121.592 55.1417H131.568L120.775 38.7784H114.417Z" fill="#FF876C"/>
<path d="M131.617 55.1417H141.582L127.207 38.7784H120.824L131.617 55.1417Z" fill="white"/>
<path d="M82.5612 35.4081H76.178V38.8028H82.5612V35.4081Z" fill="#E67A61"/>
<path d="M88.9445 35.4081H82.5613V38.8028H88.9445V35.4081Z" fill="#E8ECEF"/>
<path d="M95.3278 35.4081H88.9446V38.8028H95.3278V35.4081Z" fill="#E67A61"/>
<path d="M101.711 35.4081H95.3279V38.8028H101.711V35.4081Z" fill="#E8ECEF"/>
<path d="M108.094 35.4081H101.711V38.8028H108.094V35.4081Z" fill="#E67A61"/>
<path d="M114.477 35.4081H108.094V38.8028H114.477V35.4081Z" fill="#E8ECEF"/>
<path d="M120.873 35.4081H114.49V38.8028H120.873V35.4081Z" fill="#E67A61"/>
<path d="M127.244 35.4081H120.861V38.8028H127.244V35.4081Z" fill="#E8ECEF"/>
<path d="M120.751 102.18L110.92 98.9806L101.09 95.769L104.281 105.636L107.473 115.49L110.932 108.75L116.183 114.013L119.277 110.911L114.027 105.648L120.751 102.18Z" fill="#E5E8EC"/>
<path d="M110.92 98.9806L101.09 95.769L101.187 96.0988L117.62 112.572L119.277 110.911L114.027 105.648L120.751 102.18L110.92 98.9806Z" fill="#F7F8FC"/>
<path d="M98.7141 91.5195C98.5945 91.5195 98.4799 91.4719 98.3954 91.3871C98.3109 91.3024 98.2634 91.1875 98.2634 91.0677V85.1329C98.2617 85.0731 98.2722 85.0136 98.2943 84.958C98.3163 84.9025 98.3494 84.852 98.3916 84.8097C98.4338 84.7674 98.4842 84.7342 98.5396 84.7121C98.5951 84.6899 98.6544 84.6794 98.7141 84.6811C98.8336 84.6811 98.9483 84.7287 99.0328 84.8134C99.1174 84.8981 99.1648 85.0131 99.1648 85.1329V91.0677C99.1617 91.1865 99.1133 91.2996 99.0294 91.3837C98.9455 91.4678 98.8326 91.5164 98.7141 91.5195Z" fill="#F7F8FC"/>
<path d="M95.754 93.229C95.6762 93.2334 95.5991 93.212 95.5348 93.1679L90.4062 90.1884C90.355 90.1579 90.3103 90.1176 90.2747 90.0698C90.239 90.022 90.2131 89.9677 90.1984 89.9098C90.1837 89.852 90.1805 89.7919 90.189 89.7328C90.1974 89.6737 90.2174 89.6169 90.2478 89.5656C90.2782 89.5143 90.3185 89.4695 90.3661 89.4337C90.4138 89.398 90.468 89.372 90.5257 89.3572C90.5834 89.3425 90.6434 89.3393 90.7023 89.3478C90.7613 89.3563 90.8179 89.3763 90.8691 89.4068L95.9855 92.362C96.089 92.4233 96.1647 92.5225 96.1966 92.6388C96.2284 92.755 96.2139 92.8791 96.156 92.9848C96.115 93.0562 96.0566 93.116 95.9864 93.1587C95.9161 93.2014 95.8361 93.2256 95.754 93.229Z" fill="#F7F8FC"/>
<path d="M90.6378 99.6156C90.5594 99.6161 90.4821 99.5961 90.4138 99.5576C90.3454 99.519 90.2882 99.4633 90.248 99.3958C90.1853 99.2905 90.1668 99.1645 90.1964 99.0455C90.2261 98.9266 90.3016 98.8242 90.4063 98.7608L95.5349 95.8057C95.586 95.7748 95.6427 95.7545 95.7017 95.7458C95.7607 95.7371 95.8208 95.7402 95.8786 95.755C95.9364 95.7697 95.9907 95.7959 96.0383 95.8318C96.086 95.8678 96.126 95.9128 96.1562 95.9644C96.1864 96.0164 96.206 96.0738 96.2138 96.1335C96.2216 96.1931 96.2174 96.2537 96.2015 96.3117C96.1856 96.3697 96.1584 96.424 96.1213 96.4713C96.0842 96.5186 96.0381 96.558 95.9856 96.5872L90.8692 99.5546C90.7998 99.5973 90.7193 99.6185 90.6378 99.6156Z" fill="#F7F8FC"/>
<path d="M98.7141 104.293C98.5945 104.293 98.4799 104.245 98.3954 104.16C98.3109 104.076 98.2633 103.961 98.2633 103.841V97.9061C98.2617 97.8457 98.2722 97.7856 98.2941 97.7294C98.3161 97.6731 98.349 97.6219 98.391 97.5786C98.433 97.5354 98.4833 97.501 98.5387 97.4775C98.5942 97.4541 98.6538 97.442 98.7141 97.442C98.8347 97.4452 98.9494 97.4955 99.0336 97.5822C99.1178 97.6689 99.1648 97.7851 99.1648 97.9061V103.841C99.1617 103.96 99.1133 104.073 99.0294 104.157C98.9455 104.241 98.8326 104.289 98.7141 104.293Z" fill="#F7F8FC"/>
<path d="M101.674 93.229C101.593 93.228 101.514 93.2061 101.443 93.1655C101.373 93.1249 101.314 93.0669 101.272 92.997C101.215 92.8913 101.2 92.7672 101.232 92.651C101.264 92.5347 101.339 92.4355 101.443 92.3742L106.559 89.419C106.663 89.3575 106.786 89.3397 106.903 89.3694C107.019 89.3992 107.119 89.4741 107.181 89.5778C107.242 89.6814 107.26 89.8053 107.23 89.9221C107.2 90.0388 107.126 90.139 107.022 90.2006L101.894 93.1679C101.829 93.2104 101.752 93.2317 101.674 93.229Z" fill="#F7F8FC"/>
<path d="M142.604 95.1739L142.346 96.3674L149.371 97.8912L149.628 96.6977L142.604 95.1739Z" fill="#FF876C"/>
<path d="M143.458 78.4777C143.298 78.4825 143.139 78.4557 142.989 78.3988C142.839 78.3419 142.702 78.2559 142.586 78.146C142.469 78.036 142.376 77.9041 142.31 77.7578C142.244 77.6114 142.208 77.4536 142.203 77.2932C142.198 77.1329 142.225 76.9731 142.282 76.8231C142.339 76.6731 142.424 76.5358 142.534 76.419C142.644 76.3022 142.775 76.2082 142.921 76.1424C143.067 76.0766 143.225 76.0403 143.385 76.0355L165.836 74.5701C165.996 74.5597 166.156 74.5809 166.308 74.6327C166.46 74.6844 166.6 74.7656 166.72 74.8716C166.841 74.9777 166.939 75.1064 167.01 75.2506C167.081 75.3948 167.123 75.5515 167.133 75.7118C167.144 75.8722 167.122 76.0331 167.071 76.1852C167.019 76.3373 166.938 76.4778 166.832 76.5986C166.727 76.7194 166.598 76.818 166.454 76.889C166.31 76.96 166.154 77.0019 165.994 77.0124L143.543 78.4777H143.458Z" fill="#FF9AA2"/>
<path d="M156.98 121.047C156.785 121.047 156.593 121.001 156.419 120.912L136.405 110.594C136.262 110.52 136.136 110.419 136.032 110.296C135.929 110.173 135.851 110.031 135.802 109.878C135.754 109.725 135.735 109.564 135.749 109.404C135.762 109.244 135.807 109.088 135.881 108.945C135.954 108.802 136.055 108.676 136.178 108.572C136.3 108.468 136.442 108.39 136.595 108.341C136.747 108.292 136.908 108.274 137.068 108.288C137.228 108.301 137.383 108.346 137.525 108.42L157.54 118.739C157.784 118.864 157.978 119.068 158.092 119.317C158.206 119.567 158.233 119.848 158.168 120.114C158.103 120.381 157.951 120.618 157.735 120.787C157.52 120.956 157.253 121.048 156.98 121.047Z" fill="#E67A61"/>
<path d="M153.842 55.8387L147.8 59.7394L148.459 60.7661L154.502 56.8653L153.842 55.8387Z" fill="#E67A61"/>
<path d="M49.6075 55.7614L48.948 56.7881L54.9907 60.6888L55.6502 59.6621L49.6075 55.7614Z" fill="#FF9AA2"/>
<path d="M67.9036 81C67.4226 80.9584 66.953 80.7977 66.5224 80.5271C66.0919 80.2565 65.7089 79.8815 65.3959 79.4241C65.1631 79.0693 64.8748 78.7775 64.5485 78.5666C64.2222 78.3556 63.8648 78.23 63.4982 78.1973C63.1316 78.1647 62.7635 78.2257 62.4165 78.3766C62.0694 78.5276 61.7508 78.7653 61.48 79.0752C61.1176 79.4715 60.6957 79.7743 60.2389 79.9659C59.7821 80.1576 59.2994 80.2344 58.8186 80.1919C58.3379 80.1494 57.8686 79.9884 57.438 79.7183C57.0075 79.4481 56.6241 79.0742 56.3102 78.6181C56.0791 78.2603 55.7914 77.9657 55.465 77.7527C55.1386 77.5398 54.7806 77.413 54.4131 77.3802C54.0457 77.3475 53.6769 77.4095 53.3295 77.5625C52.9822 77.7154 52.6638 77.956 52.3943 78.2692C52.0307 78.6633 51.6083 78.9638 51.1513 79.1536C50.6942 79.3434 50.2117 79.4187 49.7312 79.3751C49.2508 79.3315 48.7821 79.1699 48.3519 78.8996C47.9217 78.6293 47.5386 78.2556 47.2245 77.8C46.9918 77.4453 46.7034 77.1535 46.3771 76.9425C46.0508 76.7316 45.6934 76.6059 45.3268 76.5733C44.9603 76.5406 44.5922 76.6016 44.2452 76.7526C43.8982 76.9035 43.5795 77.1412 43.3086 77.4511C42.9462 77.8475 42.5244 78.1502 42.0676 78.3419C41.6108 78.5336 41.1281 78.6104 40.6473 78.5678C40.1665 78.5253 39.6973 78.3644 39.2668 78.0942C38.8362 77.8241 38.4529 77.4501 38.1389 76.994C37.9078 76.6362 37.6201 76.3416 37.2937 76.1287C36.9673 75.9157 36.6093 75.7889 36.2419 75.7561C35.8744 75.7234 35.5055 75.7855 35.1582 75.9384C34.8109 76.0914 34.4925 76.3319 34.223 76.6451C33.4888 77.4394 32.5317 77.8376 31.5622 77.7518C30.5927 77.6661 29.6903 77.1035 29.0533 76.188C28.816 75.8318 28.522 75.541 28.19 75.3339C27.8579 75.1268 27.495 75.008 27.1243 74.985C26.7565 74.9518 26.3872 75.0126 26.0389 75.1636C25.6906 75.3146 25.3707 75.5526 25.0988 75.8632C24.7364 76.2595 24.3146 76.5622 23.8577 76.7539C23.4009 76.9456 22.9182 77.0224 22.4374 76.9799C21.9567 76.9374 21.4874 76.7764 21.0569 76.5062C20.6263 76.2361 20.243 75.8621 19.929 75.406C19.6884 75.0547 19.3936 74.7672 19.0623 74.5606C18.7309 74.3539 18.3697 74.2323 18 74.203L18.0675 73C18.5482 73.038 19.0178 73.1961 19.4485 73.4647C19.8793 73.7334 20.2624 74.1072 20.5752 74.5639C20.8132 74.919 21.1074 75.2091 21.4393 75.416C21.7712 75.623 22.1337 75.7425 22.5042 75.7669C22.8719 75.7987 23.2409 75.7372 23.589 75.5863C23.9371 75.4354 24.2571 75.1981 24.5297 74.8887C24.8921 74.4924 25.3139 74.1897 25.7707 73.998C26.2276 73.8063 26.7103 73.7295 27.1911 73.772C27.6718 73.8145 28.141 73.9755 28.5716 74.2457C29.0022 74.5158 29.3855 74.8898 29.6995 75.3459C29.9314 75.704 30.22 75.9988 30.5472 76.2119C30.8744 76.425 31.2333 76.5518 31.6015 76.5845C31.9697 76.6173 32.3393 76.5552 32.6874 76.4021C33.0355 76.249 33.3547 76.0083 33.625 75.6948C33.9878 75.301 34.4094 75.0007 34.8657 74.811C35.3219 74.6214 35.8037 74.5462 36.2834 74.5899C36.763 74.6335 37.2309 74.795 37.6603 75.0651C38.0897 75.3353 38.4719 75.7087 38.7851 76.1639C39.0187 76.519 39.3079 76.8111 39.6351 77.0221C39.9622 77.2332 40.3204 77.3589 40.6877 77.3916C41.0551 77.4242 41.424 77.3631 41.7718 77.212C42.1196 77.0609 42.439 76.823 42.7107 76.5128C43.0717 76.1153 43.4926 75.8115 43.9487 75.6191C44.4049 75.4266 44.8872 75.3494 45.3676 75.392C45.8479 75.4345 46.3166 75.596 46.7464 75.8669C47.1762 76.1378 47.5584 76.5128 47.8707 76.97C48.1095 77.3239 48.4039 77.6132 48.7356 77.8201C49.0673 78.027 49.4295 78.1471 49.7998 78.173C50.1676 78.2083 50.5374 78.1485 50.8859 77.9974C51.2345 77.8463 51.5543 77.6071 51.8253 77.2947C52.188 76.9018 52.6093 76.6019 53.065 76.4121C53.5208 76.2224 54.0021 76.1466 54.4813 76.1891C54.9606 76.2316 55.4284 76.3914 55.8581 76.6596C56.2877 76.9277 56.6708 77.2989 56.9853 77.7519C57.2174 78.1094 57.5058 78.4037 57.8326 78.6169C58.1594 78.8301 58.5178 78.9575 58.8856 78.9913C59.2534 79.0251 59.6228 78.9646 59.9711 78.8135C60.3194 78.6624 60.6393 78.4239 60.9109 78.1128C61.2719 77.7153 61.6928 77.4115 62.149 77.219C62.6051 77.0266 63.0875 76.9494 63.5678 76.992C64.0482 77.0345 64.5169 77.196 64.9467 77.4669C65.3764 77.7378 65.7586 78.1128 66.071 78.5699C66.3082 78.9261 66.6022 79.2169 66.9343 79.424C67.2663 79.6311 67.6292 79.7499 68 79.7729L67.9036 81Z" fill="#E67A61"/>
<path d="M43.8476 129.155C43.6317 129.155 43.4198 129.097 43.2336 128.987C43.0474 128.878 42.8935 128.721 42.7878 128.532C42.7101 128.392 42.6608 128.238 42.6426 128.078C42.6245 127.919 42.6378 127.757 42.682 127.603C42.7261 127.449 42.8001 127.305 42.8997 127.179C42.9994 127.054 43.1228 126.949 43.2629 126.871L62.9851 115.991C63.1251 115.911 63.2794 115.859 63.4393 115.839C63.5993 115.818 63.7617 115.83 63.9172 115.872C64.0727 115.915 64.2184 115.988 64.3458 116.087C64.4733 116.185 64.5801 116.309 64.6601 116.449C64.7401 116.589 64.7917 116.744 64.812 116.904C64.8324 117.065 64.821 117.227 64.7786 117.383C64.7361 117.539 64.6635 117.685 64.5648 117.813C64.4661 117.941 64.3433 118.048 64.2033 118.128L44.481 129.008C44.287 129.114 44.0681 129.164 43.8476 129.155Z" fill="#E67A61"/>
<path d="M20.5335 123.043C20.1943 123.079 19.8538 122.99 19.5757 122.792C19.2977 122.594 19.101 122.301 19.0229 121.969C18.8279 120.906 19.9122 119.771 21.0329 119.233C22.4216 118.574 23.7981 118.928 23.993 119.954C24.1879 120.98 23.1038 122.152 21.9831 122.677C21.5336 122.907 21.038 123.032 20.5335 123.043ZM22.4703 120.1C22.1477 120.114 21.8318 120.197 21.5445 120.345C20.643 120.772 20.168 121.492 20.2167 121.737C20.6286 121.832 21.0609 121.775 21.4349 121.578C22.3485 121.151 22.8114 120.43 22.7749 120.186C22.787 120.161 22.6896 120.1 22.4703 120.1Z" fill="#62BEFB"/>
<path d="M24.018 112.542H22.7998V120.064H24.018V112.542Z" fill="#62BEFB"/>
<path d="M28.6344 121.065C28.2938 121.101 27.9516 121.012 27.6715 120.815C27.3914 120.617 27.1925 120.324 27.1117 119.99C26.9168 118.928 28.001 117.792 29.1217 117.267C30.5226 116.608 31.8992 116.95 32.0941 117.988C32.289 119.026 31.2048 120.186 30.0841 120.711C29.6318 120.932 29.1374 121.053 28.6344 121.065ZM30.5714 118.134C30.2488 118.148 29.9329 118.231 29.6455 118.379C28.7441 118.806 28.269 119.514 28.3177 119.771C28.7312 119.859 29.1624 119.798 29.5359 119.6C30.4373 119.172 30.9125 118.452 30.8637 118.208C30.8759 118.183 30.7906 118.134 30.5714 118.134Z" fill="#62BEFB"/>
<path d="M32.1059 110.563H30.8877V118.085H32.1059V110.563Z" fill="#62BEFB"/>
<path d="M23.4089 115.704C23.2717 115.702 23.1389 115.655 23.0313 115.57C22.9588 115.514 22.9002 115.441 22.8601 115.359C22.82 115.276 22.7993 115.186 22.7998 115.094V112.541C22.7991 112.406 22.8445 112.274 22.9287 112.167C23.0128 112.06 23.1306 111.986 23.2627 111.955L31.3148 110.014C31.4031 109.995 31.4942 109.995 31.5823 110.014C31.6704 110.033 31.7536 110.07 31.8265 110.124C31.8992 110.182 31.9578 110.257 31.9978 110.341C32.0379 110.426 32.0584 110.518 32.0579 110.612V113.152C32.0614 113.29 32.0173 113.425 31.9329 113.534C31.8486 113.643 31.7292 113.719 31.595 113.75L23.5064 115.716L23.4089 115.704ZM24.018 113.018V114.312L30.8885 112.639V111.345L24.018 113.018Z" fill="#62BEFB"/>
<path d="M168.382 58.048C168.252 58.0491 168.124 58.0108 168.016 57.9381L164.167 55.1295L160.305 57.9381C160.201 58.0145 160.075 58.0557 159.946 58.0557C159.817 58.0557 159.691 58.0145 159.587 57.9381C159.484 57.8608 159.408 57.7535 159.369 57.6311C159.329 57.5086 159.329 57.377 159.367 57.2543L160.841 52.7117L156.98 49.903C156.879 49.8246 156.803 49.7173 156.764 49.5952C156.725 49.4731 156.724 49.3421 156.76 49.2192C156.799 49.0947 156.877 48.9859 156.983 48.909C157.088 48.8321 157.215 48.791 157.345 48.7918H162.108L163.582 44.2492C163.632 44.1371 163.713 44.0418 163.816 43.975C163.919 43.9081 164.038 43.8726 164.161 43.8726C164.283 43.8726 164.403 43.9081 164.506 43.975C164.608 44.0418 164.69 44.1371 164.739 44.2492L166.213 48.7918H170.976C171.108 48.7881 171.236 48.8269 171.344 48.9024C171.451 48.9779 171.531 49.0862 171.572 49.211C171.613 49.3358 171.613 49.4706 171.572 49.5953C171.53 49.72 171.449 49.8279 171.342 49.903L167.48 52.7117L168.954 57.2543C168.997 57.3767 168.998 57.5096 168.958 57.6329C168.919 57.7562 168.841 57.8633 168.735 57.9381C168.631 58.0092 168.508 58.0474 168.382 58.048ZM164.167 53.7619C164.293 53.7624 164.416 53.8007 164.52 53.8718L167.224 55.8378L166.189 52.6628C166.147 52.5404 166.145 52.4076 166.185 52.2842C166.225 52.1609 166.303 52.0538 166.408 51.979L169.113 50.0129H165.775C165.647 50.0127 165.521 49.9727 165.417 49.8984C165.312 49.824 165.233 49.719 165.19 49.5978L164.167 46.4106L163.131 49.5978C163.089 49.7171 163.012 49.8207 162.91 49.8949C162.807 49.9691 162.685 50.0103 162.559 50.0129H159.221L161.913 51.979C162.019 52.0538 162.097 52.1609 162.137 52.2842C162.176 52.4076 162.175 52.5404 162.133 52.6628L161.109 55.8378L163.801 53.8718C163.909 53.799 164.037 53.7607 164.167 53.7619Z" fill="#E67A61"/>
<path d="M181.489 141C181.393 140.999 181.297 140.978 181.209 140.939L168.236 134.039C168.094 133.964 167.988 133.836 167.94 133.683C167.892 133.53 167.907 133.364 167.98 133.221L173.705 122.378C173.743 122.307 173.795 122.244 173.858 122.194C173.92 122.143 173.992 122.106 174.069 122.083C174.146 122.06 174.226 122.053 174.306 122.062C174.386 122.07 174.463 122.095 174.533 122.133L187.507 129.021C187.646 129.098 187.75 129.226 187.798 129.379C187.845 129.531 187.833 129.695 187.763 129.839L182.025 140.682C181.95 140.823 181.823 140.928 181.672 140.976C181.613 140.996 181.551 141.004 181.489 141ZM169.308 133.246L181.197 139.571L186.362 129.802L174.46 123.477L169.308 133.246Z" fill="#62BEFB"/>
<path d="M181.684 138.24L180.344 134.845L176.812 135.2C176.668 135.216 176.523 135.179 176.404 135.095C176.285 135.012 176.201 134.889 176.166 134.748L174.668 129.13L170.635 130.486L170.258 129.326L174.899 127.812C174.974 127.778 175.055 127.761 175.137 127.761C175.218 127.761 175.299 127.778 175.374 127.812C175.446 127.851 175.509 127.905 175.56 127.97C175.61 128.035 175.646 128.11 175.667 128.19L177.214 133.942L180.685 133.588C180.816 133.573 180.948 133.603 181.06 133.671C181.172 133.74 181.259 133.843 181.307 133.966L182.817 137.788L181.684 138.24Z" fill="#62BEFB"/>
<path d="M179.747 132.061C179.245 132.049 178.76 131.882 178.356 131.582C177.953 131.283 177.652 130.866 177.494 130.388C177.317 129.786 177.378 129.139 177.664 128.581C177.972 128.042 178.474 127.64 179.067 127.459C179.66 127.277 180.3 127.329 180.856 127.604C181.41 127.897 181.825 128.399 182.01 128.999C182.195 129.599 182.135 130.248 181.842 130.803C181.634 131.179 181.331 131.494 180.963 131.714C180.595 131.935 180.176 132.055 179.747 132.061ZM179.747 128.544C179.539 128.543 179.334 128.599 179.156 128.707C178.978 128.815 178.832 128.97 178.736 129.155C178.599 129.427 178.569 129.741 178.651 130.034C178.693 130.179 178.765 130.313 178.861 130.428C178.958 130.544 179.077 130.638 179.211 130.706C179.481 130.827 179.786 130.845 180.068 130.757C180.35 130.67 180.591 130.482 180.746 130.229C180.818 130.097 180.863 129.951 180.878 129.801C180.893 129.65 180.878 129.498 180.834 129.354C180.789 129.21 180.717 129.075 180.62 128.96C180.524 128.844 180.405 128.748 180.271 128.679C180.114 128.594 179.938 128.548 179.759 128.544H179.747Z" fill="#62BEFB"/>
<path d="M34.0169 40.8299C32.6531 40.8202 31.3172 41.217 30.1786 41.9697C29.0401 42.7225 28.1503 43.7973 27.6223 45.0578C27.0942 46.3184 26.9517 47.7078 27.2127 49.0497C27.4737 50.3916 28.1266 51.6255 29.0884 52.5948C30.0502 53.5641 31.2776 54.2251 32.6148 54.4939C33.9521 54.7627 35.3388 54.6272 36.5991 54.1046C37.8594 53.582 38.9364 52.6959 39.6934 51.5586C40.4504 50.4214 40.8532 49.0843 40.8508 47.7171C40.8541 45.8959 40.1363 44.1478 38.855 42.8565C37.5737 41.5652 35.8337 40.8364 34.0169 40.8299Z" fill="#FF876C"/>
<path d="M36.77 47.7782L32.2262 50.4281H32.1531C32.1531 50.4281 32.1531 50.4281 32.1531 50.3426V45.0551C32.1569 45.0267 32.1569 44.998 32.1531 44.9696H32.2384L36.7822 47.6073H36.8553C36.8569 47.6407 36.8498 47.674 36.8349 47.7039C36.82 47.7338 36.7976 47.7594 36.77 47.7782Z" fill="#F7F8FC"/>
<path d="M179.199 102.253L162.23 96.1476C161.912 96.0333 161.574 95.983 161.236 95.9997C160.898 96.0164 160.567 96.0998 160.262 96.245C159.956 96.3902 159.682 96.5943 159.456 96.8458C159.229 97.0974 159.054 97.3912 158.941 97.7106L155.834 106.576L155.688 106.955L155.104 108.615C155.067 108.716 155.05 108.822 155.055 108.929C155.06 109.035 155.085 109.14 155.131 109.236C155.176 109.333 155.24 109.42 155.319 109.491C155.398 109.563 155.49 109.618 155.591 109.653L157.26 110.252L157.467 110.325L174.01 116.235L174.229 116.309L175.886 116.907C176.089 116.977 176.312 116.964 176.506 116.87C176.7 116.777 176.849 116.61 176.921 116.406L177.506 114.745L177.652 114.367L180.783 105.55C180.896 105.23 180.945 104.89 180.927 104.55C180.909 104.21 180.823 103.878 180.676 103.571C180.529 103.265 180.323 102.99 180.069 102.764C179.816 102.538 179.52 102.364 179.199 102.253ZM159.489 107.944C159.456 108.039 159.405 108.127 159.338 108.202C159.271 108.277 159.19 108.338 159.099 108.381C159.008 108.424 158.91 108.449 158.809 108.453C158.709 108.458 158.609 108.443 158.514 108.408C158.419 108.375 158.332 108.324 158.257 108.256C158.182 108.189 158.121 108.108 158.078 108.017C158.035 107.926 158.01 107.827 158.006 107.727C158.001 107.626 158.017 107.525 158.051 107.431L160.22 101.325C160.291 101.137 160.433 100.984 160.615 100.9C160.797 100.816 161.005 100.806 161.194 100.873C161.383 100.94 161.538 101.079 161.625 101.26C161.712 101.441 161.724 101.649 161.657 101.838L159.489 107.944ZM163.436 109.36C163.367 109.551 163.226 109.706 163.044 109.793C162.861 109.88 162.652 109.891 162.461 109.824C162.273 109.753 162.12 109.611 162.034 109.429C161.948 109.247 161.935 109.039 161.998 108.847L164.179 102.742C164.247 102.552 164.387 102.398 164.569 102.312C164.75 102.226 164.958 102.216 165.147 102.284C165.336 102.352 165.491 102.492 165.576 102.674C165.662 102.856 165.672 103.065 165.604 103.255L163.436 109.36ZM167.383 110.777C167.315 110.966 167.175 111.121 166.993 111.207C166.811 111.293 166.603 111.303 166.414 111.235C166.225 111.167 166.071 111.026 165.985 110.844C165.9 110.662 165.89 110.453 165.957 110.264L168.126 104.158C168.208 103.988 168.35 103.854 168.525 103.782C168.7 103.71 168.896 103.705 169.074 103.769C169.252 103.832 169.4 103.96 169.491 104.126C169.581 104.293 169.607 104.487 169.563 104.671L167.383 110.777ZM171.342 112.181C171.259 112.352 171.117 112.486 170.942 112.558C170.767 112.63 170.572 112.634 170.394 112.571C170.216 112.507 170.067 112.38 169.977 112.213C169.886 112.047 169.861 111.853 169.904 111.668L172.073 105.563C172.144 105.374 172.285 105.221 172.467 105.134C172.648 105.048 172.856 105.035 173.047 105.099C173.142 105.131 173.23 105.183 173.305 105.25C173.38 105.317 173.44 105.399 173.483 105.49C173.527 105.58 173.551 105.679 173.556 105.78C173.56 105.88 173.545 105.981 173.51 106.075L171.342 112.181ZM174.326 114.062C174.231 114.029 174.144 113.977 174.069 113.91C173.994 113.843 173.933 113.762 173.89 113.671C173.847 113.58 173.822 113.481 173.818 113.38C173.813 113.28 173.829 113.179 173.863 113.085L176.032 106.979C176.063 106.883 176.113 106.795 176.179 106.719C176.245 106.643 176.325 106.581 176.415 106.536C176.505 106.492 176.603 106.466 176.704 106.46C176.804 106.453 176.904 106.468 176.999 106.501C177.094 106.534 177.181 106.586 177.256 106.653C177.33 106.721 177.39 106.803 177.433 106.894C177.476 106.985 177.5 107.084 177.504 107.184C177.508 107.285 177.492 107.385 177.457 107.48L175.289 113.585C175.222 113.77 175.088 113.921 174.914 114.01C174.74 114.098 174.538 114.117 174.351 114.062H174.326Z" fill="#FF876C"/>
<path d="M158.941 97.7595L158.429 99.2005L180.198 106.991L180.71 105.55C180.924 104.942 180.904 104.276 180.654 103.682C180.404 103.088 179.941 102.609 179.357 102.339L161.962 96.1354C161.347 95.9833 160.698 96.0651 160.14 96.3651C159.582 96.6651 159.155 97.162 158.941 97.7595Z" fill="#E67A61"/>
<path d="M157.552 96.9413C157.515 97.0415 157.499 97.148 157.504 97.2546C157.508 97.3612 157.534 97.4658 157.579 97.5624C157.625 97.659 157.689 97.7455 157.768 97.8171C157.847 97.8887 157.939 97.9438 158.039 97.9793L181.319 106.295C181.522 106.366 181.745 106.352 181.939 106.259C182.133 106.165 182.282 105.998 182.354 105.795L183.17 103.462C183.207 103.362 183.224 103.256 183.219 103.149C183.214 103.042 183.189 102.938 183.143 102.841C183.098 102.745 183.034 102.658 182.955 102.586C182.876 102.515 182.784 102.46 182.683 102.424L159.416 94.1083C159.212 94.0379 158.989 94.0511 158.795 94.1449C158.601 94.2386 158.452 94.4054 158.381 94.6089L157.552 96.9413Z" fill="#FF876C"/>
<path d="M162.912 97.7228C162.692 97.6367 162.501 97.4881 162.364 97.2954C162.206 97.0536 162.149 96.759 162.206 96.4756C162.263 96.1922 162.429 95.9426 162.668 95.7811L171.196 90.0662C171.314 89.9845 171.448 89.9275 171.588 89.8986C171.729 89.8697 171.875 89.8694 172.015 89.8979C172.156 89.9264 172.29 89.983 172.409 90.0644C172.527 90.1457 172.629 90.2502 172.706 90.3715C172.786 90.4908 172.842 90.6247 172.87 90.7656C172.897 90.9065 172.897 91.0515 172.869 91.1923C172.841 91.3331 172.785 91.4669 172.705 91.5859C172.624 91.7049 172.521 91.8069 172.402 91.8858L163.874 97.6007C163.732 97.6938 163.57 97.7533 163.401 97.7744C163.232 97.7956 163.061 97.7779 162.9 97.7228H162.912Z" fill="#62BEFB"/>
<path d="M177.762 102.998C177.982 103.077 178.223 103.077 178.444 102.998C178.582 102.959 178.71 102.893 178.821 102.803C178.933 102.713 179.025 102.601 179.092 102.474C179.159 102.348 179.2 102.209 179.212 102.066C179.224 101.923 179.207 101.779 179.163 101.643L176.141 91.7758C176.053 91.5012 175.86 91.2727 175.604 91.1396C175.348 91.0065 175.051 90.9796 174.776 91.0646C174.501 91.1496 174.27 91.3397 174.133 91.5939C173.997 91.8481 173.965 92.1459 174.046 92.423L177.092 102.278C177.138 102.441 177.223 102.591 177.34 102.715C177.456 102.838 177.601 102.931 177.762 102.986V102.998Z" fill="#62BEFB"/>
<path d="M20.3612 85.4503H19.1431V96.0254H20.3612V85.4503Z" fill="#FF876C"/>
<path d="M25.0269 90.1273H14.4775V91.3484H25.0269V90.1273Z" fill="#FF876C"/>
</g>
<defs>
<clipPath id="clip0_4:1168">
<rect width="200" height="119" fill="white" transform="translate(0 22)"/>
</clipPath>
</defs>
</svg>
