<svg width="200" height="180" viewBox="0 0 200 180" fill="none" xmlns="http://www.w3.org/2000/svg">
<g clip-path="url(#clip0_7:1314)">
<path d="M125.837 39.4946H74.1262V72.0727H125.837V39.4946Z" fill="#34495E"/>
<path d="M62.3716 28.6412C58.47 28.6388 54.6132 29.4654 51.0607 31.0654C47.5081 32.6653 44.3423 35.0016 41.7762 37.9168C39.2102 40.8321 37.3035 44.2588 36.1843 47.9663C35.0652 51.6737 34.7596 55.576 35.2883 59.4104C35.2883 59.4104 35.2883 59.4104 35.2883 59.5179C35.2883 59.894 35.3967 60.27 35.4689 60.6462V60.7715C35.4689 61.1297 35.6134 61.5059 35.7036 61.8641C35.7759 62.2223 35.8661 62.5804 35.9744 62.9386C35.9744 62.9386 35.9744 62.9387 35.9744 63.0461C36.1556 63.7256 36.3725 64.3951 36.6244 65.052V65.052L45.6522 92.4899C46.5437 95.2146 48.2814 97.5898 50.6164 99.2755C52.9515 100.961 55.7642 101.871 58.6522 101.875H62.3897C64.1868 101.879 65.9672 101.532 67.6286 100.853C69.29 100.173 70.7998 99.175 72.0714 97.9153C73.343 96.6556 74.3513 95.1593 75.0385 93.5122C75.7257 91.865 76.0782 90.0995 76.0758 88.3169V79.362C81.2861 76.37 85.3566 71.7575 87.657 66.2388C89.9574 60.7201 90.3594 54.6031 88.8008 48.8349C87.2421 43.0666 83.8098 37.969 79.0352 34.3314C74.2606 30.6937 68.4101 28.719 62.3897 28.7129L62.3716 28.6412Z" fill="#5D6D7E"/>
<path d="M137.646 28.6412C141.541 28.6591 145.388 29.4994 148.93 31.106C152.473 32.7127 155.63 35.0489 158.192 37.9595C160.754 40.87 162.662 44.2882 163.789 47.9868C164.916 51.6853 165.236 55.5794 164.729 59.4104C164.729 59.4104 164.729 59.4104 164.729 59.5179C164.729 59.894 164.621 60.27 164.548 60.6461C164.548 60.6461 164.548 60.7357 164.548 60.7715C164.548 61.1297 164.404 61.5059 164.314 61.8641C164.241 62.2223 164.151 62.5804 164.043 62.9386C164.043 62.9386 164.043 62.9387 164.043 63.0461C163.862 63.7267 163.628 64.3893 163.393 65.052L154.365 92.4899C153.473 95.2175 151.732 97.5948 149.394 99.2808C147.055 100.967 144.238 101.875 141.347 101.875H137.628C135.83 101.879 134.05 101.532 132.389 100.853C130.727 100.173 129.217 99.175 127.946 97.9153C126.674 96.6556 125.666 95.1593 124.979 93.5122C124.292 91.865 123.939 90.0995 123.942 88.3169V79.362C118.717 76.379 114.633 71.7678 112.322 66.2449C110.012 60.7221 109.606 54.5971 111.167 48.8216C112.727 43.0461 116.167 37.9437 120.952 34.3073C125.738 30.6709 131.6 28.7043 137.628 28.7129L137.646 28.6412Z" fill="#5D6D7E"/>
<path d="M61.6861 55.7926L57.5875 59.8581H48.0181V51.7091H57.5875L61.6861 55.7926Z" fill="white"/>
<path d="M63.0583 55.7926L67.157 59.8581H76.7445V51.7091H67.157L63.0583 55.7926Z" fill="white"/>
<path d="M62.372 55.1121L58.2734 51.0286V41.5364H66.4707V51.0286L62.372 55.1121Z" fill="white"/>
<path d="M62.372 56.4731L58.2734 60.5387V70.0309H66.4707V60.5387L62.372 56.4731Z" fill="white"/>
<path d="M141.744 45.6019C141.748 46.4103 141.509 47.2015 141.059 47.8754C140.609 48.5493 139.967 49.0754 139.215 49.3872C138.463 49.6991 137.635 49.7825 136.835 49.627C136.036 49.4714 135.3 49.084 134.723 48.5136C134.145 47.9433 133.751 47.2157 133.591 46.4231C133.431 45.6305 133.511 44.8085 133.822 44.0613C134.133 43.3141 134.661 42.6753 135.338 42.2258C136.016 41.7763 136.812 41.5364 137.627 41.5364C138.716 41.5364 139.76 41.9641 140.532 42.726C141.303 43.488 141.739 44.522 141.744 45.6019V45.6019Z" fill="white"/>
<path d="M127.372 51.7091C128.188 51.7056 128.986 51.9426 129.666 52.3899C130.346 52.8372 130.876 53.4748 131.19 54.2217C131.504 54.9685 131.587 55.7911 131.428 56.5848C131.27 57.3786 130.878 58.1078 130.301 58.68C129.724 59.2521 128.989 59.6414 128.189 59.7984C127.388 59.9554 126.559 59.873 125.806 59.5618C125.053 59.2505 124.411 58.7243 123.96 58.0501C123.509 57.3758 123.27 56.5838 123.273 55.7747C123.273 54.6964 123.705 53.6623 124.474 52.8999C125.243 52.1375 126.285 51.7091 127.372 51.7091V51.7091Z" fill="white"/>
<path d="M133.53 65.9653C133.526 65.1562 133.765 64.3642 134.216 63.69C134.667 63.0157 135.31 62.4896 136.062 62.1783C136.815 61.867 137.645 61.7846 138.445 61.9416C139.245 62.0986 139.98 62.4879 140.557 63.06C141.134 63.6322 141.526 64.3614 141.685 65.1552C141.843 65.949 141.76 66.7715 141.446 67.5184C141.132 68.2653 140.602 68.9028 139.922 69.3501C139.242 69.7975 138.444 70.0344 137.628 70.0309C136.543 70.0262 135.503 69.5963 134.735 68.8349C133.968 68.0735 133.534 67.0421 133.53 65.9653V65.9653Z" fill="white"/>
<path d="M147.884 59.858C147.069 59.858 146.273 59.6186 145.596 59.1699C144.919 58.7212 144.392 58.0834 144.08 57.3373C143.769 56.5911 143.687 55.7701 143.846 54.978C144.005 54.1859 144.397 53.4583 144.973 52.8872C145.548 52.3161 146.282 51.9272 147.08 51.7696C147.879 51.6121 148.707 51.6929 149.459 52.002C150.211 52.311 150.854 52.8344 151.306 53.506C151.759 54.1775 152 54.967 152 55.7746C152 56.8576 151.566 57.8963 150.794 58.662C150.022 59.4278 148.975 59.858 147.884 59.858V59.858Z" fill="white"/>
<path d="M62.3901 76.6754C58.2227 76.6754 54.1489 75.4496 50.6838 73.153C47.2187 70.8564 44.518 67.5921 42.9232 63.773C41.3284 59.9539 40.9112 55.7514 41.7242 51.697C42.5373 47.6426 44.544 43.9185 47.4908 40.9955C50.4376 38.0724 54.1921 36.0819 58.2795 35.2754C62.3668 34.4689 66.6035 34.8828 70.4537 36.4648C74.3038 38.0467 77.5946 40.7256 79.9099 44.1627C82.2252 47.5998 83.461 51.6408 83.461 55.7745C83.4562 61.3163 81.2347 66.6298 77.2842 70.5484C73.3337 74.4671 67.977 76.6706 62.3901 76.6754V76.6754ZM62.3901 35.9662C58.4355 35.9627 54.5686 37.123 51.2789 39.3001C47.9892 41.4773 45.4246 44.5735 43.9095 48.197C42.3945 51.8205 41.9971 55.8084 42.7677 59.656C43.5384 63.5036 45.4425 67.0379 48.2388 69.8117C51.0352 72.5855 54.5983 74.4742 58.4772 75.2386C62.3561 76.003 66.3764 75.6089 70.0294 74.1061C73.6824 72.6033 76.8038 70.0593 78.9986 66.7961C81.1935 63.533 82.3632 59.6973 82.3596 55.7745C82.35 50.524 80.2431 45.4912 76.5001 41.7784C72.7572 38.0657 67.6834 35.9757 62.3901 35.9662V35.9662Z" fill="#34495E"/>
<path d="M137.628 76.6754C133.46 76.6754 129.387 75.4496 125.921 73.153C122.456 70.8564 119.756 67.5921 118.161 63.773C116.566 59.9539 116.149 55.7514 116.962 51.697C117.775 47.6426 119.782 43.9185 122.728 40.9955C125.675 38.0724 129.43 36.0819 133.517 35.2754C137.604 34.4689 141.841 34.8828 145.691 36.4648C149.541 38.0467 152.832 40.7256 155.147 44.1627C157.463 47.5998 158.699 51.6408 158.699 55.7745C158.694 61.3163 156.472 66.6298 152.522 70.5484C148.571 74.4671 143.215 76.6706 137.628 76.6754V76.6754ZM137.628 35.9662C133.674 35.9663 129.809 37.1295 126.521 39.3088C123.234 41.4881 120.672 44.5857 119.16 48.2095C117.648 51.8333 117.253 55.8206 118.026 59.667C118.798 63.5134 120.704 67.046 123.501 69.8181C126.298 72.5901 129.861 74.477 133.739 75.2399C137.618 76.0029 141.637 75.6077 145.289 74.1044C148.941 72.601 152.061 70.057 154.255 66.7943C156.45 63.5315 157.619 59.6966 157.615 55.7745C157.61 50.5194 155.503 45.4812 151.755 41.7669C148.007 38.0526 142.926 35.9662 137.628 35.9662V35.9662Z" fill="#34495E"/>
<path d="M104.785 52.1211C104.78 52.4789 104.633 52.8206 104.376 53.072C104.12 53.3234 103.773 53.4643 103.412 53.4643H96.5693C96.2084 53.4643 95.8622 53.3234 95.6053 53.072C95.3485 52.8206 95.2018 52.4789 95.197 52.1211C95.2017 51.7615 95.3478 51.418 95.6041 51.1637C95.8604 50.9094 96.2068 50.7645 96.5693 50.7599H103.412C103.776 50.7599 104.125 50.9033 104.383 51.1586C104.64 51.4138 104.785 51.7601 104.785 52.1211Z" fill="white"/>
<path d="M104.785 59.4462C104.785 59.8072 104.64 60.1534 104.383 60.4087C104.125 60.664 103.776 60.8074 103.412 60.8074H96.5693C96.2068 60.8028 95.8604 60.6579 95.6041 60.4036C95.3478 60.1493 95.2017 59.8058 95.197 59.4462V59.4462C95.2017 59.0867 95.3478 58.7432 95.6041 58.4889C95.8604 58.2346 96.2068 58.0897 96.5693 58.0851H103.412C103.776 58.0851 104.125 58.2285 104.383 58.4837C104.64 58.739 104.785 59.0852 104.785 59.4462Z" fill="white"/>
<path d="M96.5691 39.4946H103.412V34.5873C103.413 34.3377 103.365 34.0905 103.268 33.8598C103.172 33.6292 103.031 33.4199 102.853 33.244C102.678 33.0627 102.468 32.9197 102.235 32.8241C102.001 32.7284 101.751 32.6824 101.498 32.6888H98.5011C98.2466 32.6862 97.9942 32.734 97.7586 32.8294C97.523 32.9247 97.3088 33.0656 97.1288 33.244C96.7765 33.6047 96.5763 34.0851 96.5691 34.5873V39.4946Z" fill="#283A4D"/>
<path d="M100.776 11.3045C100.564 11.112 100.287 11.0037 99.9998 11C99.7115 11.0002 99.434 11.1091 99.2234 11.3045C99.0166 11.5084 98.8997 11.7853 98.8984 12.0746V32.7963H101.083V12.0746C101.086 11.9325 101.06 11.7912 101.007 11.659C100.955 11.5269 100.876 11.4063 100.776 11.3045V11.3045Z" fill="#34495E"/>
</g>
<defs>
<clipPath id="clip0_7:1314">
<rect width="130" height="91" fill="white" transform="translate(35 11)"/>
</clipPath>
</defs>
</svg>
