<svg width="200" height="180" viewBox="0 0 200 180" fill="none" xmlns="http://www.w3.org/2000/svg">
<g clip-path="url(#clip0_7:923)">
<path d="M86.59 57.49H83.59V52.61C83.5946 49.6596 84.3851 46.7636 85.88 44.22L88.47 45.73C87.2442 47.816 86.5953 50.1905 86.59 52.61V57.49Z" fill="#30363D"/>
<path d="M116.81 57.49H113.81V52.61C113.81 50.1929 113.161 47.8202 111.93 45.74L114.52 44.21C116.014 46.7577 116.804 49.6565 116.81 52.61V57.49Z" fill="#30363D"/>
<path d="M152.41 62.99V121.61C152.405 123.067 151.824 124.463 150.793 125.493C149.763 126.524 148.367 127.105 146.91 127.11H139.45V57.49H146.91C148.367 57.4953 149.763 58.0764 150.793 59.1067C151.824 60.137 152.405 61.5329 152.41 62.99V62.99Z" fill="#E76DFF"/>
<path d="M139.45 57.49H131.04V127.1H139.45V57.49Z" fill="#30363D"/>
<path d="M131.04 57.49V127.1H69.37V57.49H131.04ZM121.88 87.37V79.82H106.62V87.37H121.88ZM105.12 107.15V95.86H90.32V107.15H105.12ZM97.73 85.15V70.01H79.83V85.12L97.73 85.15Z" fill="#E76DFF"/>
<path d="M69.36 57.49H60.95V127.1H69.36V57.49Z" fill="#30363D"/>
<path d="M60.95 57.49V127.1H53.5C52.0429 127.095 50.647 126.514 49.6167 125.483C48.5864 124.453 48.0053 123.057 48 121.6V62.99C48.0053 61.5329 48.5864 60.137 49.6167 59.1067C50.647 58.0764 52.0429 57.4953 53.5 57.49H60.95Z" fill="#E76DFF"/>
<path d="M114.52 44.22C113.058 41.7201 110.966 39.6466 108.454 38.2056C105.942 36.7647 103.096 36.0065 100.2 36.0065C97.3039 36.0065 94.4582 36.7647 91.9459 38.2056C89.4337 39.6466 87.3424 41.7201 85.8801 44.22C85.7495 44.4502 85.6808 44.7103 85.6808 44.975C85.6808 45.2396 85.7495 45.4998 85.8801 45.73C86.0113 45.9593 86.2004 46.1502 86.4285 46.2836C86.6567 46.417 86.9158 46.4881 87.1801 46.49H113.24C113.504 46.4894 113.763 46.4192 113.991 46.2864C114.22 46.1536 114.409 45.9629 114.54 45.7336C114.67 45.5043 114.738 45.2445 114.737 44.9805C114.735 44.7165 114.664 44.4576 114.53 44.23L114.52 44.22Z" fill="#E76DFF"/>
<rect x="76" y="68" width="22" height="19" rx="2" fill="white"/>
<rect x="88" y="94" width="19" height="15" rx="2" fill="white"/>
<rect x="104" y="79.52" width="20.4179" height="10.3887" rx="2" transform="rotate(-7.08972 104 79.52)" fill="white"/>
</g>
<defs>
<clipPath id="clip0_7:923">
<rect width="104.4" height="91.1" fill="white" transform="translate(48 36)"/>
</clipPath>
</defs>
</svg>
