<svg width="200" height="180" viewBox="0 0 200 180" fill="none" xmlns="http://www.w3.org/2000/svg">
<g clip-path="url(#clip0_7:817)">
<path d="M71.2892 99.1188C71.2987 100.905 69.1403 101.807 67.8763 100.545L62.0577 94.7369C61.6828 94.3626 61.1746 94.1524 60.6448 94.1524H33C31.8954 94.1524 31 93.257 31 92.1524V62.1779C31 61.0733 31.8954 60.1779 33 60.1779H78.267C79.3715 60.1779 80.267 61.0733 80.267 62.1779V92.1524C80.267 93.257 79.3716 94.1524 78.267 94.1524H73.2734C72.1646 94.1524 71.2675 95.0544 71.2734 96.1631L71.2892 99.1188ZM32.0535 91.1008C32.0506 92.2074 32.9469 93.1061 34.0535 93.1061H61.0851C61.6149 93.1061 62.123 93.3163 62.498 93.6906L66.8854 98.07C68.1458 99.3282 70.2983 98.4355 70.2983 96.6545V95.1061C70.2983 94.0015 71.1937 93.1061 72.2983 93.1061H77.3026C78.4072 93.1061 79.3026 92.2106 79.3026 91.1061V63.2242C79.3026 62.1196 78.4072 61.2242 77.3026 61.2242H34.1268C33.0243 61.2242 32.1297 62.1164 32.1268 63.2189L32.0535 91.1008Z" fill="#F7F8FC"/>
<path d="M164.413 56.4634H130.861C128.652 56.4634 126.861 58.2542 126.861 60.4634V81.9178C126.861 84.1269 128.652 85.9178 130.861 85.9178H164.413C166.622 85.9178 168.413 84.1269 168.413 81.9178V60.4634C168.413 58.2542 166.622 56.4634 164.413 56.4634Z" fill="#484F59"/>
<path d="M156.239 90.3271C154.978 91.5853 152.826 90.6926 152.826 88.9116V82.5082C152.826 81.4036 153.721 80.5082 154.826 80.5082H161.241C163.023 80.5082 163.915 82.6643 162.654 83.9237L156.239 90.3271Z" fill="#484F59"/>
<path d="M159.797 66.1943H133.842V68.716H159.797V66.1943Z" fill="#969696"/>
<path d="M159.797 72.9119H133.842V75.4335H159.797V72.9119Z" fill="#969696"/>
<path d="M113.798 103.339L114.552 94.1943C115.422 93.3258 111.848 87.9163 112.016 86.8176L106.408 94.6547L98.2314 103.339H113.798Z" fill="white"/>
<path d="M111.382 99.4342C112.351 100.809 114.481 100.445 114.94 98.8265L115.975 95.1732C116.026 94.9958 116.051 94.8123 116.051 94.6279V88.7743C116.051 87.3285 115.476 85.9419 114.452 84.9196C113.427 83.8972 112.038 83.3229 110.59 83.3229H110.504C109.399 83.3229 108.504 84.2183 108.504 85.3229V94.7212C108.504 95.1341 108.632 95.5369 108.87 95.8743L111.382 99.4342Z" fill="white"/>
<path d="M77.3005 131.214H112.825C113.681 131.214 114.528 131.045 115.319 130.718C116.109 130.391 116.827 129.911 117.432 129.307C118.036 128.702 118.516 127.985 118.842 127.195C119.169 126.406 119.336 125.56 119.335 124.706V114.138C119.335 112.413 118.649 110.759 117.429 109.539C116.208 108.319 114.553 107.632 112.825 107.629H77.3005V131.214Z" fill="#F4DA80"/>
<path d="M95.3171 103.716H75.5684V135.797H95.3171V103.716Z" fill="#E5E8EC"/>
<path d="M95.3171 119.777H74.583V135.797H95.3171V119.777Z" fill="#CDD5D7"/>
<path d="M90.799 119.777H73V137.01H90.799V119.777Z" fill="#30363D"/>
<path d="M90.799 102.513H73V119.767H90.799V102.513Z" fill="#484F59"/>
<path d="M87.5912 131.308C87.5912 131.703 87.4738 132.09 87.2538 132.418C87.0338 132.747 86.7211 133.003 86.3552 133.154C85.9894 133.306 85.5868 133.345 85.1984 133.268C84.8101 133.191 84.4533 133.001 84.1733 132.721C83.8933 132.442 83.7026 132.085 83.6254 131.698C83.5481 131.31 83.5878 130.908 83.7393 130.543C83.8909 130.178 84.1475 129.866 84.4767 129.646C84.806 129.427 85.1931 129.309 85.5891 129.309C86.1192 129.312 86.6268 129.524 87.0017 129.898C87.3766 130.272 87.5884 130.779 87.5912 131.308Z" fill="#CDD5D7"/>
<path d="M136.544 109.502H130.642C130.62 108.9 130.542 108.301 130.412 107.713H136.701C137.223 107.781 137.754 107.738 138.258 107.585C138.761 107.432 139.227 107.174 139.623 106.827C140.019 106.481 140.336 106.054 140.553 105.575C140.77 105.096 140.883 104.576 140.883 104.051C140.883 103.525 140.77 103.006 140.553 102.527C140.336 102.048 140.019 101.621 139.623 101.274C139.227 100.928 138.761 100.669 138.258 100.517C137.754 100.364 137.223 100.32 136.701 100.389H121.481H121.061H105.453C102.906 100.389 100.462 101.398 98.6599 103.195C96.8575 104.992 95.8436 107.43 95.8408 109.973V125.563C95.8436 128.106 96.8575 130.544 98.6599 132.341C100.462 134.138 102.906 135.148 105.453 135.148H129.311C130.195 135.144 131.048 134.823 131.715 134.244C132.382 133.666 132.818 132.867 132.945 131.994C133.072 131.121 132.881 130.231 132.406 129.487C131.932 128.743 131.205 128.193 130.359 127.939C130.507 127.341 130.602 126.732 130.642 126.118H133.179C134.16 126.118 135.101 125.729 135.795 125.036C136.489 124.344 136.879 123.404 136.879 122.424C136.879 121.445 136.489 120.505 135.795 119.813C135.101 119.12 134.16 118.731 133.179 118.731H130.663V116.952H136.544C137.49 116.902 138.38 116.491 139.032 115.805C139.684 115.119 140.047 114.209 140.047 113.264C140.047 112.318 139.684 111.409 139.032 110.722C138.38 110.036 137.49 109.626 136.544 109.575V109.502Z" fill="white"/>
<path d="M130.945 29.8655H77.4513C74.1376 29.8655 71.4513 32.5518 71.4513 35.8655V70.2915C71.4513 73.6052 74.1376 76.2915 77.4513 76.2915H130.945C134.259 76.2915 136.945 73.6052 136.945 70.2915V35.8655C136.945 32.5518 134.259 29.8655 130.945 29.8655Z" fill="#F7F8FC"/>
<path d="M92.5985 85.2001C93.859 86.4582 96.0114 85.5655 96.0114 83.7846V69.7638C96.0114 68.6592 95.116 67.7638 94.0114 67.7638H79.9652C78.1826 67.7638 77.2906 69.9199 78.5523 71.1793L92.5985 85.2001Z" fill="#F7F8FC"/>
<path d="M126.505 44.0747H81.8917V46.9207H126.505V44.0747Z" fill="#B7BEC0"/>
<path d="M126.505 51.6503H81.8917V54.4963H126.505V51.6503Z" fill="#B7BEC0"/>
<path d="M126.505 59.2362H81.8917V62.0822H126.505V59.2362Z" fill="#B7BEC0"/>
<path d="M55.3353 52.5776V44.01C55.3353 43.7205 55.1007 43.4858 54.8112 43.4858C54.5218 43.4858 54.2871 43.7205 54.2871 44.01V52.5776C54.2871 52.867 54.5218 53.1017 54.8112 53.1017C55.1007 53.1017 55.3353 52.867 55.3353 52.5776Z" fill="white" stroke="white" stroke-width="2"/>
<path d="M59.1101 47.7654H50.5232C50.2342 47.7654 50 47.9996 50 48.2885C50 48.5775 50.2342 48.8117 50.5232 48.8117H59.1101C59.399 48.8117 59.6333 48.5775 59.6333 48.2885C59.6333 47.9996 59.399 47.7654 59.1101 47.7654Z" fill="white" stroke="white" stroke-width="2"/>
<path d="M131.113 23.0917V14.5241C131.113 14.2347 130.878 14 130.589 14C130.299 14 130.064 14.2347 130.064 14.5241V23.0917C130.064 23.3812 130.299 23.6158 130.589 23.6158C130.878 23.6158 131.113 23.3812 131.113 23.0917Z" fill="#E76DFF" stroke="#E76DFF" stroke-width="2"/>
<path d="M134.877 18.2795H126.29C126.001 18.2795 125.767 18.5138 125.767 18.8027C125.767 19.0916 126.001 19.3259 126.29 19.3259H134.877C135.166 19.3259 135.4 19.0916 135.4 18.8027C135.4 18.5138 135.166 18.2795 134.877 18.2795Z" fill="#E76DFF" stroke="#E76DFF" stroke-width="2"/>
<path d="M152.947 44.8869V36.3193C152.947 36.0298 152.712 35.7952 152.423 35.7952C152.133 35.7952 151.898 36.0298 151.898 36.3193V44.8869C151.898 45.1764 152.133 45.411 152.423 45.411C152.712 45.411 152.947 45.1764 152.947 44.8869Z" fill="white" stroke="white" stroke-width="2"/>
<path d="M156.711 40.0747H148.124C147.835 40.0747 147.601 40.3089 147.601 40.5979C147.601 40.8868 147.835 41.121 148.124 41.121H156.711C157 41.121 157.234 40.8868 157.234 40.5979C157.234 40.3089 157 40.0747 156.711 40.0747Z" fill="white" stroke="white" stroke-width="2"/>
<path d="M58.5531 123.08V114.512C58.5531 114.223 58.3185 113.988 58.029 113.988C57.7395 113.988 57.5049 114.223 57.5049 114.512V123.08C57.5049 123.369 57.7395 123.604 58.029 123.604C58.3185 123.604 58.5531 123.369 58.5531 123.08Z" fill="#E76DFF" stroke="#E76DFF" stroke-width="2"/>
<path d="M62.3181 118.278H53.7312C53.4422 118.278 53.208 118.512 53.208 118.801C53.208 119.09 53.4422 119.324 53.7312 119.324H62.3181C62.607 119.324 62.8413 119.09 62.8413 118.801C62.8413 118.512 62.607 118.278 62.3181 118.278Z" fill="#E76DFF" stroke="#E76DFF" stroke-width="2"/>
<path d="M68.5478 70.8715H40.7277V71.9178H68.5478V70.8715Z" fill="#F7F8FC"/>
<path d="M68.5478 76.4275H40.7277V77.4738H68.5478V76.4275Z" fill="#F7F8FC"/>
<path d="M68.5478 81.9835H40.7277V83.0299H68.5478V81.9835Z" fill="#F7F8FC"/>
<path d="M149.719 125.573C149.523 125.799 149.172 125.798 148.976 125.573L146.14 122.308C145.486 121.555 145.487 120.435 146.142 119.683L148.976 116.426C149.172 116.201 149.522 116.201 149.719 116.426V116.426C149.88 116.612 149.88 116.888 149.718 117.073L147.442 119.681C146.785 120.434 146.784 121.556 147.44 122.309L149.719 124.927C149.88 125.112 149.88 125.388 149.719 125.573V125.573Z" fill="white" stroke="white" stroke-width="2"/>
<path d="M160.5 121H147.5C147.224 121 147 121.224 147 121.5C147 121.776 147.224 122 147.5 122H160.5C160.776 122 161 121.776 161 121.5C161 121.224 160.776 121 160.5 121Z" fill="white" stroke="white" stroke-width="2"/>
<path d="M158.024 116.573C157.828 116.798 157.477 116.799 157.281 116.573V116.573C157.12 116.388 157.12 116.112 157.281 115.927L159.56 113.309C160.216 112.556 160.215 111.434 159.558 110.681L157.282 108.073C157.12 107.888 157.12 107.612 157.281 107.426V107.426C157.478 107.201 157.828 107.201 158.024 107.426L160.858 110.683C161.513 111.435 161.514 112.555 160.86 113.308L158.024 116.573Z" fill="white" stroke="white" stroke-width="2"/>
<path d="M159.5 111H146.5C146.224 111 146 111.224 146 111.5C146 111.776 146.224 112 146.5 112H159.5C159.776 112 160 111.776 160 111.5C160 111.224 159.776 111 159.5 111Z" fill="white" stroke="white" stroke-width="2"/>
</g>
<defs>
<clipPath id="clip0_7:817">
<rect width="138" height="126" fill="white" transform="translate(31 11)"/>
</clipPath>
</defs>
</svg>
