<svg width="200" height="180" viewBox="0 0 200 180" fill="none" xmlns="http://www.w3.org/2000/svg">
<g clip-path="url(#clip0_4:1168)">
<path d="M123.65 11H80.0154C75.9787 11 72.7063 14.2803 72.7063 18.3268V121.953C72.7063 125.999 75.9787 129.28 80.0154 129.28H123.65C127.687 129.28 130.959 125.999 130.959 121.953V18.3268C130.959 14.2803 127.687 11 123.65 11Z" fill="#474F59"/>
<path d="M122.517 12.1234H81.136C77.0993 12.1234 73.8269 15.4037 73.8269 19.4502V120.829C73.8269 124.876 77.0993 128.156 81.136 128.156H122.517C126.554 128.156 129.826 124.876 129.826 120.829V19.4502C129.826 15.4037 126.554 12.1234 122.517 12.1234Z" fill="#30363D"/>
<path d="M94.9258 18.2291C94.9282 18.4252 94.8724 18.6177 94.7655 18.7819C94.6585 18.9462 94.5052 19.0749 94.3252 19.1516C94.1451 19.2283 93.9463 19.2497 93.7541 19.2129C93.5619 19.1761 93.3849 19.0829 93.2457 18.9451C93.1065 18.8072 93.0113 18.631 92.9723 18.4388C92.9332 18.2466 92.952 18.0471 93.0263 17.8657C93.1006 17.6842 93.2271 17.529 93.3896 17.4198C93.5521 17.3105 93.7434 17.2522 93.9391 17.2522C94.1986 17.2522 94.4478 17.3547 94.6325 17.5376C94.8172 17.7204 94.9226 17.9689 94.9258 18.2291Z" fill="#596273"/>
<path d="M102.369 14.8099C102.369 14.8927 102.352 14.9747 102.32 15.0511C102.288 15.1275 102.241 15.1967 102.182 15.2547C102.123 15.3127 102.053 15.3583 101.977 15.3889C101.9 15.4194 101.818 15.4343 101.735 15.4327C101.609 15.4327 101.486 15.3951 101.382 15.3248C101.278 15.2544 101.196 15.1545 101.149 15.0378C101.101 14.9211 101.089 14.7928 101.115 14.6693C101.14 14.5458 101.202 14.4327 101.292 14.3444C101.382 14.2561 101.495 14.1966 101.619 14.1735C101.743 14.1504 101.871 14.1647 101.986 14.2146C102.102 14.2646 102.2 14.3479 102.268 14.4539C102.336 14.5599 102.371 14.6838 102.369 14.8099Z" fill="#596273"/>
<path d="M105.621 18.1314C105.621 18.2545 105.572 18.3725 105.486 18.4595C105.399 18.5465 105.281 18.5954 105.158 18.5954H98.4096C98.2868 18.5954 98.1691 18.5465 98.0823 18.4595C97.9955 18.3725 97.9467 18.2545 97.9467 18.1314C97.9451 18.0694 97.9558 18.0078 97.9784 17.9501C98.0009 17.8923 98.0348 17.8397 98.0779 17.7953C98.1211 17.751 98.1726 17.7157 98.2296 17.6916C98.2866 17.6675 98.3478 17.6551 98.4096 17.6552H105.158C105.22 17.6551 105.281 17.6675 105.338 17.6916C105.395 17.7157 105.447 17.751 105.49 17.7953C105.533 17.8397 105.567 17.8923 105.59 17.9501C105.612 18.0078 105.623 18.0694 105.621 18.1314Z" fill="#596273"/>
<path d="M105.024 120.463H98.8359C98.3717 120.463 97.9954 120.84 97.9954 121.305V123.003C97.9954 123.468 98.3717 123.845 98.8359 123.845H105.024C105.488 123.845 105.865 123.468 105.865 123.003V121.305C105.865 120.84 105.488 120.463 105.024 120.463Z" fill="#596273"/>
<path d="M73.7538 29.427H72.3894V24.9088H73.7538V29.427Z" fill="#30363D"/>
<path d="M73.7538 41.2476H72.3894V33.6521H73.7538V41.2476Z" fill="#30363D"/>
<path d="M73.7538 50.2597H72.3894V43.0061H73.7538V50.2597Z" fill="#30363D"/>
<path d="M127.354 24.4203H76.2146V115.383H127.354V24.4203Z" fill="#01BACC"/>
<path d="M76.2146 53.6666V83.0472L112.2 24.4203H94.1705L76.2146 53.6666Z" fill="#01C6DA"/>
<path d="M76.2146 99.325L122.201 24.4203H115.342L76.2146 88.1515V99.325Z" fill="#01C6DA"/>
<path d="M61.8523 44.1173V54.4237C61.8523 55.7483 62.3772 57.0187 63.3116 57.9553C64.246 58.892 65.5133 59.4182 66.8347 59.4182C68.1561 59.4182 69.4234 58.892 70.3577 57.9553C71.2921 57.0187 71.817 55.7483 71.817 54.4237V44.1173H61.8523Z" fill="#E67A61"/>
<path d="M71.7805 44.1173V54.4237C71.7805 55.7483 72.3054 57.0187 73.2398 57.9553C74.1742 58.892 75.4415 59.4182 76.7629 59.4182C78.0843 59.4182 79.3515 58.892 80.2859 57.9553C81.2203 57.0187 81.7452 55.7483 81.7452 54.4237V44.1173H71.7805Z" fill="#E8ECEF"/>
<path d="M81.7817 44.1173V54.4237C81.7817 55.7483 82.3067 57.0187 83.241 57.9553C84.1754 58.892 85.4426 59.4182 86.764 59.4182C88.0854 59.4182 89.3527 58.892 90.2871 57.9553C91.2215 57.0187 91.7464 55.7483 91.7464 54.4237V44.1173H81.7817Z" fill="#E67A61"/>
<path d="M91.7463 44.1173V54.4237C91.7463 55.7483 92.2713 57.0187 93.2056 57.9553C94.14 58.892 95.4072 59.4182 96.7286 59.4182C98.05 59.4182 99.3173 58.892 100.252 57.9553C101.186 57.0187 101.711 55.7483 101.711 54.4237V44.1173H91.7463Z" fill="#E8ECEF"/>
<path d="M101.711 44.1173V54.4237C101.774 55.7072 102.327 56.9172 103.256 57.8031C104.185 58.6891 105.417 59.1832 106.699 59.1832C107.981 59.1832 109.214 58.6891 110.143 57.8031C111.071 56.9172 111.625 55.7072 111.688 54.4237V44.1173H101.711Z" fill="#E67A61"/>
<path d="M111.688 44.1173V54.4237C111.654 55.0996 111.758 55.7752 111.993 56.4095C112.228 57.0438 112.59 57.6237 113.055 58.1138C113.52 58.604 114.08 58.9943 114.701 59.2609C115.321 59.5276 115.989 59.6651 116.664 59.6651C117.339 59.6651 118.007 59.5276 118.627 59.2609C119.248 58.9943 119.808 58.604 120.273 58.1138C120.738 57.6237 121.1 57.0438 121.335 56.4095C121.57 55.7752 121.674 55.0996 121.64 54.4237V44.1173H111.688Z" fill="#E8ECEF"/>
<path d="M121.64 44.1173V54.4237C121.704 55.7072 122.257 56.9172 123.185 57.8031C124.114 58.6891 125.347 59.1832 126.629 59.1832C127.911 59.1832 129.144 58.6891 130.072 57.8031C131.001 56.9172 131.554 55.7072 131.617 54.4237V44.1173H121.64Z" fill="#E67A61"/>
<path d="M131.617 44.1173V54.4237C131.617 55.0796 131.746 55.7291 131.996 56.335C132.247 56.941 132.614 57.4916 133.076 57.9553C133.539 58.4191 134.088 58.787 134.693 59.038C135.297 59.289 135.945 59.4182 136.6 59.4182C137.254 59.4182 137.902 59.289 138.506 59.038C139.111 58.787 139.66 58.4191 140.123 57.9553C140.585 57.4916 140.952 56.941 141.203 56.335C141.453 55.7291 141.582 55.0796 141.582 54.4237V44.1173H131.617Z" fill="#E8ECEF"/>
<path d="M76.2268 27.7784L61.8523 44.1417H71.7805L82.5613 27.7784H76.2268Z" fill="#FF876C"/>
<path d="M82.5979 27.7784L71.7805 44.1417H81.7452C84.1815 38.6791 86.5773 33.2247 88.9324 27.7784H82.5979Z" fill="white"/>
<path d="M88.9689 27.7784C86.5813 33.241 84.1856 38.6954 81.7817 44.1417H91.7464C92.9565 38.6791 94.1746 33.2247 95.4009 27.7784H88.9689Z" fill="#FF876C"/>
<path d="M95.3398 27.7784C94.146 33.241 92.9278 38.6954 91.6853 44.1417H101.65V27.7784H95.3398Z" fill="white"/>
<path d="M101.711 27.7784V44.1417H111.688C110.478 38.6791 109.26 33.2247 108.033 27.7784H101.711Z" fill="#FF876C"/>
<path d="M108.082 27.7784C109.292 33.241 110.51 38.6954 111.737 44.1417H121.689C119.277 38.6791 116.853 33.2247 114.417 27.7784H108.082Z" fill="white"/>
<path d="M114.417 27.7784C116.804 33.241 119.196 38.6954 121.592 44.1417H131.568L120.775 27.7784H114.417Z" fill="#FF876C"/>
<path d="M131.617 44.1417H141.582L127.207 27.7784H120.824L131.617 44.1417Z" fill="white"/>
<path d="M82.5612 24.4081H76.178V27.8028H82.5612V24.4081Z" fill="#E67A61"/>
<path d="M88.9445 24.4081H82.5613V27.8028H88.9445V24.4081Z" fill="#E8ECEF"/>
<path d="M95.3278 24.4081H88.9446V27.8028H95.3278V24.4081Z" fill="#E67A61"/>
<path d="M101.711 24.4081H95.3279V27.8028H101.711V24.4081Z" fill="#E8ECEF"/>
<path d="M108.094 24.4081H101.711V27.8028H108.094V24.4081Z" fill="#E67A61"/>
<path d="M114.477 24.4081H108.094V27.8028H114.477V24.4081Z" fill="#E8ECEF"/>
<path d="M120.873 24.4081H114.49V27.8028H120.873V24.4081Z" fill="#E67A61"/>
<path d="M127.244 24.4081H120.861V27.8028H127.244V24.4081Z" fill="#E8ECEF"/>
<path d="M120.751 91.18L110.92 87.9806L101.09 84.769L104.281 94.6358L107.473 104.49L110.932 97.7498L116.183 103.013L119.277 99.9112L114.027 94.6481L120.751 91.18Z" fill="#E5E8EC"/>
<path d="M110.92 87.9806L101.09 84.769L101.187 85.0988L117.62 101.572L119.277 99.9112L114.027 94.6481L120.751 91.18L110.92 87.9806Z" fill="#F7F8FC"/>
<path d="M98.7141 80.5195C98.5945 80.5195 98.4799 80.4719 98.3954 80.3871C98.3109 80.3024 98.2634 80.1875 98.2634 80.0677V74.1329C98.2617 74.0731 98.2722 74.0136 98.2943 73.958C98.3163 73.9025 98.3494 73.852 98.3916 73.8097C98.4338 73.7674 98.4842 73.7342 98.5396 73.7121C98.5951 73.6899 98.6544 73.6794 98.7141 73.6811C98.8336 73.6811 98.9483 73.7287 99.0328 73.8134C99.1174 73.8981 99.1648 74.0131 99.1648 74.1329V80.0677C99.1617 80.1865 99.1133 80.2996 99.0294 80.3837C98.9455 80.4678 98.8326 80.5164 98.7141 80.5195Z" fill="#F7F8FC"/>
<path d="M95.754 82.229C95.6762 82.2334 95.5991 82.212 95.5348 82.1679L90.4062 79.1884C90.355 79.1579 90.3103 79.1176 90.2747 79.0698C90.239 79.022 90.2131 78.9677 90.1984 78.9098C90.1837 78.852 90.1805 78.7919 90.189 78.7328C90.1974 78.6737 90.2174 78.6169 90.2478 78.5656C90.2782 78.5143 90.3185 78.4695 90.3661 78.4337C90.4138 78.398 90.468 78.372 90.5257 78.3572C90.5834 78.3425 90.6434 78.3393 90.7023 78.3478C90.7613 78.3563 90.8179 78.3763 90.8691 78.4068L95.9855 81.362C96.089 81.4233 96.1647 81.5225 96.1966 81.6388C96.2284 81.755 96.2139 81.8791 96.156 81.9848C96.115 82.0562 96.0566 82.116 95.9864 82.1587C95.9161 82.2014 95.8361 82.2256 95.754 82.229Z" fill="#F7F8FC"/>
<path d="M90.6378 88.6156C90.5594 88.6161 90.4821 88.5961 90.4138 88.5576C90.3454 88.519 90.2882 88.4633 90.248 88.3958C90.1853 88.2905 90.1668 88.1645 90.1964 88.0455C90.2261 87.9266 90.3016 87.8242 90.4063 87.7608L95.5349 84.8057C95.586 84.7748 95.6427 84.7545 95.7017 84.7458C95.7607 84.7371 95.8208 84.7402 95.8786 84.755C95.9364 84.7697 95.9907 84.7959 96.0383 84.8318C96.086 84.8678 96.126 84.9128 96.1562 84.9644C96.1864 85.0164 96.206 85.0738 96.2138 85.1335C96.2216 85.1931 96.2174 85.2537 96.2015 85.3117C96.1856 85.3697 96.1584 85.424 96.1213 85.4713C96.0842 85.5186 96.0381 85.558 95.9856 85.5872L90.8692 88.5546C90.7998 88.5973 90.7193 88.6185 90.6378 88.6156Z" fill="#F7F8FC"/>
<path d="M98.7141 93.2926C98.5945 93.2926 98.4799 93.245 98.3954 93.1603C98.3109 93.0755 98.2633 92.9606 98.2633 92.8408V86.9061C98.2617 86.8457 98.2722 86.7856 98.2941 86.7294C98.3161 86.6731 98.349 86.6219 98.391 86.5786C98.433 86.5354 98.4833 86.501 98.5387 86.4775C98.5942 86.4541 98.6538 86.442 98.7141 86.442C98.8347 86.4452 98.9494 86.4955 99.0336 86.5822C99.1178 86.6689 99.1648 86.7851 99.1648 86.9061V92.8408C99.1617 92.9596 99.1133 93.0728 99.0294 93.1569C98.9455 93.2409 98.8326 93.2895 98.7141 93.2926Z" fill="#F7F8FC"/>
<path d="M101.674 82.229C101.593 82.228 101.514 82.2061 101.443 82.1655C101.373 82.1249 101.314 82.0669 101.272 81.997C101.215 81.8913 101.2 81.7672 101.232 81.651C101.264 81.5347 101.339 81.4355 101.443 81.3742L106.559 78.419C106.663 78.3575 106.786 78.3397 106.903 78.3694C107.019 78.3992 107.119 78.4741 107.181 78.5778C107.242 78.6814 107.26 78.8053 107.23 78.9221C107.2 79.0388 107.126 79.139 107.022 79.2006L101.894 82.1679C101.829 82.2104 101.752 82.2317 101.674 82.229Z" fill="#F7F8FC"/>
<path d="M142.604 84.1739L142.346 85.3674L149.371 86.8912L149.628 85.6977L142.604 84.1739Z" fill="#FF876C"/>
<path d="M143.458 67.4777C143.298 67.4825 143.139 67.4557 142.989 67.3988C142.839 67.3419 142.702 67.2559 142.586 67.146C142.469 67.036 142.376 66.9041 142.31 66.7578C142.244 66.6114 142.208 66.4536 142.203 66.2932C142.198 66.1329 142.225 65.9731 142.282 65.8231C142.339 65.6731 142.424 65.5358 142.534 65.419C142.644 65.3022 142.775 65.2082 142.921 65.1424C143.067 65.0766 143.225 65.0403 143.385 65.0355L165.836 63.5701C165.996 63.5597 166.156 63.5809 166.308 63.6327C166.46 63.6844 166.6 63.7656 166.72 63.8716C166.841 63.9777 166.939 64.1064 167.01 64.2506C167.081 64.3948 167.123 64.5515 167.133 64.7118C167.144 64.8722 167.122 65.0331 167.071 65.1852C167.019 65.3373 166.938 65.4778 166.832 65.5986C166.727 65.7194 166.598 65.818 166.454 65.889C166.31 65.96 166.154 66.0019 165.994 66.0124L143.543 67.4777H143.458Z" fill="#FF9AA2"/>
<path d="M156.98 110.047C156.785 110.047 156.593 110.001 156.419 109.912L136.405 99.5936C136.262 99.5199 136.136 99.4187 136.032 99.296C135.929 99.1732 135.851 99.0312 135.802 98.8781C135.754 98.725 135.735 98.5639 135.749 98.4038C135.762 98.2437 135.807 98.0878 135.881 97.9451C135.954 97.8024 136.055 97.6756 136.178 97.5719C136.3 97.4683 136.442 97.3899 136.595 97.3412C136.747 97.2924 136.908 97.2743 137.068 97.2878C137.228 97.3013 137.383 97.3462 137.525 97.42L157.54 107.739C157.784 107.864 157.978 108.068 158.092 108.317C158.206 108.567 158.233 108.848 158.168 109.114C158.103 109.381 157.951 109.618 157.735 109.787C157.52 109.956 157.253 110.048 156.98 110.047Z" fill="#E67A61"/>
<path d="M153.842 44.8387L147.8 48.7394L148.459 49.7661L154.502 45.8653L153.842 44.8387Z" fill="#E67A61"/>
<path d="M49.6075 44.7614L48.948 45.7881L54.9907 49.6888L55.6502 48.6621L49.6075 44.7614Z" fill="#FF9AA2"/>
<path d="M67.9036 70C67.4226 69.9584 66.953 69.7977 66.5224 69.5271C66.0919 69.2565 65.7089 68.8815 65.3959 68.4241C65.1631 68.0693 64.8748 67.7775 64.5485 67.5666C64.2222 67.3556 63.8648 67.23 63.4982 67.1973C63.1316 67.1647 62.7635 67.2257 62.4165 67.3766C62.0694 67.5276 61.7508 67.7653 61.48 68.0752C61.1176 68.4715 60.6957 68.7743 60.2389 68.9659C59.7821 69.1576 59.2994 69.2344 58.8186 69.1919C58.3379 69.1494 57.8686 68.9884 57.438 68.7183C57.0075 68.4481 56.6241 68.0742 56.3102 67.6181C56.0791 67.2603 55.7914 66.9657 55.465 66.7527C55.1386 66.5398 54.7806 66.413 54.4131 66.3802C54.0457 66.3475 53.6769 66.4095 53.3295 66.5625C52.9822 66.7154 52.6638 66.956 52.3943 67.2692C52.0307 67.6633 51.6083 67.9638 51.1513 68.1536C50.6942 68.3434 50.2117 68.4187 49.7312 68.3751C49.2508 68.3315 48.7821 68.1699 48.3519 67.8996C47.9217 67.6293 47.5386 67.2556 47.2245 66.8C46.9918 66.4453 46.7034 66.1535 46.3771 65.9425C46.0508 65.7316 45.6934 65.6059 45.3268 65.5733C44.9603 65.5406 44.5922 65.6016 44.2452 65.7526C43.8982 65.9035 43.5795 66.1412 43.3086 66.4511C42.9462 66.8475 42.5244 67.1502 42.0676 67.3419C41.6108 67.5336 41.1281 67.6104 40.6473 67.5678C40.1665 67.5253 39.6973 67.3644 39.2668 67.0942C38.8362 66.8241 38.4529 66.4501 38.1389 65.994C37.9078 65.6362 37.6201 65.3416 37.2937 65.1287C36.9673 64.9157 36.6093 64.7889 36.2419 64.7561C35.8744 64.7234 35.5055 64.7855 35.1582 64.9384C34.8109 65.0914 34.4925 65.3319 34.223 65.6451C33.4888 66.4394 32.5317 66.8376 31.5622 66.7518C30.5927 66.6661 29.6903 66.1035 29.0533 65.188C28.816 64.8318 28.522 64.541 28.19 64.3339C27.8579 64.1268 27.495 64.008 27.1243 63.985C26.7565 63.9518 26.3872 64.0126 26.0389 64.1636C25.6906 64.3146 25.3707 64.5526 25.0988 64.8632C24.7364 65.2595 24.3146 65.5622 23.8577 65.7539C23.4009 65.9456 22.9182 66.0224 22.4374 65.9799C21.9567 65.9374 21.4874 65.7764 21.0569 65.5062C20.6263 65.2361 20.243 64.8621 19.929 64.406C19.6884 64.0547 19.3936 63.7672 19.0623 63.5606C18.7309 63.3539 18.3697 63.2323 18 63.203L18.0675 62C18.5482 62.038 19.0178 62.1961 19.4485 62.4647C19.8793 62.7334 20.2624 63.1072 20.5752 63.5639C20.8132 63.919 21.1074 64.2091 21.4393 64.416C21.7712 64.623 22.1337 64.7425 22.5042 64.7669C22.8719 64.7987 23.2409 64.7372 23.589 64.5863C23.9371 64.4354 24.2571 64.1981 24.5297 63.8887C24.8921 63.4924 25.3139 63.1897 25.7707 62.998C26.2276 62.8063 26.7103 62.7295 27.1911 62.772C27.6718 62.8145 28.141 62.9755 28.5716 63.2457C29.0022 63.5158 29.3855 63.8898 29.6995 64.3459C29.9314 64.704 30.22 64.9988 30.5472 65.2119C30.8744 65.425 31.2333 65.5518 31.6015 65.5845C31.9697 65.6173 32.3393 65.5552 32.6874 65.4021C33.0355 65.249 33.3547 65.0083 33.625 64.6948C33.9878 64.301 34.4094 64.0007 34.8657 63.811C35.3219 63.6214 35.8037 63.5462 36.2834 63.5899C36.763 63.6335 37.2309 63.795 37.6603 64.0651C38.0897 64.3353 38.4719 64.7087 38.7851 65.1639C39.0187 65.519 39.3079 65.8111 39.6351 66.0221C39.9622 66.2332 40.3204 66.3589 40.6877 66.3916C41.0551 66.4242 41.424 66.3631 41.7718 66.212C42.1196 66.0609 42.439 65.823 42.7107 65.5128C43.0717 65.1153 43.4926 64.8115 43.9487 64.6191C44.4049 64.4266 44.8872 64.3494 45.3676 64.392C45.8479 64.4345 46.3166 64.596 46.7464 64.8669C47.1762 65.1378 47.5584 65.5128 47.8707 65.97C48.1095 66.3239 48.4039 66.6132 48.7356 66.8201C49.0673 67.027 49.4295 67.1471 49.7998 67.173C50.1676 67.2083 50.5374 67.1485 50.8859 66.9974C51.2345 66.8463 51.5543 66.6071 51.8253 66.2947C52.188 65.9018 52.6093 65.6019 53.065 65.4121C53.5208 65.2224 54.0021 65.1466 54.4813 65.1891C54.9606 65.2316 55.4284 65.3914 55.8581 65.6596C56.2877 65.9277 56.6708 66.2989 56.9853 66.7519C57.2174 67.1094 57.5058 67.4037 57.8326 67.6169C58.1594 67.8301 58.5178 67.9575 58.8856 67.9913C59.2534 68.0251 59.6228 67.9646 59.9711 67.8135C60.3194 67.6624 60.6393 67.4239 60.9109 67.1128C61.2719 66.7153 61.6928 66.4115 62.149 66.219C62.6051 66.0266 63.0875 65.9494 63.5678 65.992C64.0482 66.0345 64.5169 66.196 64.9467 66.4669C65.3764 66.7378 65.7586 67.1128 66.071 67.5699C66.3082 67.9261 66.6022 68.2169 66.9343 68.424C67.2663 68.6311 67.6292 68.7499 68 68.7729L67.9036 70Z" fill="#E67A61"/>
<path d="M43.8476 118.155C43.6317 118.155 43.4198 118.097 43.2336 117.987C43.0474 117.878 42.8935 117.721 42.7878 117.532C42.7101 117.392 42.6608 117.238 42.6426 117.078C42.6245 116.919 42.6378 116.757 42.682 116.603C42.7261 116.449 42.8001 116.305 42.8997 116.179C42.9994 116.054 43.1228 115.949 43.2629 115.871L62.9851 104.991C63.1251 104.911 63.2794 104.859 63.4393 104.839C63.5993 104.818 63.7617 104.83 63.9172 104.872C64.0727 104.915 64.2184 104.988 64.3458 105.087C64.4733 105.185 64.5801 105.309 64.6601 105.449C64.7401 105.589 64.7917 105.744 64.812 105.904C64.8324 106.065 64.821 106.227 64.7786 106.383C64.7361 106.539 64.6635 106.685 64.5648 106.813C64.4661 106.941 64.3433 107.048 64.2033 107.128L44.481 118.008C44.287 118.114 44.0681 118.164 43.8476 118.155Z" fill="#E67A61"/>
<path d="M20.5335 112.043C20.1943 112.079 19.8538 111.99 19.5757 111.792C19.2977 111.594 19.101 111.301 19.0229 110.969C18.8279 109.906 19.9122 108.771 21.0329 108.233C22.4216 107.574 23.7981 107.928 23.993 108.954C24.1879 109.98 23.1038 111.152 21.9831 111.677C21.5336 111.907 21.038 112.032 20.5335 112.043ZM22.4703 109.1C22.1477 109.114 21.8318 109.197 21.5445 109.345C20.643 109.772 20.168 110.492 20.2167 110.737C20.6286 110.832 21.0609 110.775 21.4349 110.578C22.3485 110.151 22.8114 109.43 22.7749 109.186C22.787 109.161 22.6896 109.1 22.4703 109.1Z" fill="#62BEFB"/>
<path d="M24.018 101.542H22.7998V109.064H24.018V101.542Z" fill="#62BEFB"/>
<path d="M28.6344 110.065C28.2938 110.101 27.9516 110.012 27.6715 109.815C27.3914 109.617 27.1925 109.324 27.1117 108.99C26.9168 107.928 28.001 106.792 29.1217 106.267C30.5226 105.608 31.8992 105.95 32.0941 106.988C32.289 108.026 31.2048 109.186 30.0841 109.711C29.6318 109.932 29.1374 110.053 28.6344 110.065ZM30.5714 107.134C30.2488 107.148 29.9329 107.231 29.6455 107.379C28.7441 107.806 28.269 108.514 28.3177 108.771C28.7312 108.859 29.1624 108.798 29.5359 108.6C30.4373 108.172 30.9125 107.452 30.8637 107.208C30.8759 107.183 30.7906 107.134 30.5714 107.134Z" fill="#62BEFB"/>
<path d="M32.1059 99.5632H30.8877V107.085H32.1059V99.5632Z" fill="#62BEFB"/>
<path d="M23.4089 104.704C23.2717 104.702 23.1389 104.655 23.0313 104.57C22.9588 104.514 22.9002 104.441 22.8601 104.359C22.82 104.276 22.7993 104.186 22.7998 104.094V101.541C22.7991 101.406 22.8445 101.274 22.9287 101.167C23.0128 101.06 23.1306 100.986 23.2627 100.955L31.3148 99.0137C31.4031 98.9952 31.4942 98.9954 31.5823 99.0144C31.6704 99.0333 31.7536 99.0705 31.8265 99.1236C31.8992 99.1823 31.9578 99.2568 31.9978 99.3413C32.0379 99.4259 32.0584 99.5184 32.0579 99.612V102.152C32.0614 102.29 32.0173 102.425 31.9329 102.534C31.8486 102.643 31.7292 102.719 31.595 102.75L23.5064 104.716L23.4089 104.704ZM24.018 102.018V103.312L30.8885 101.639V100.345L24.018 102.018Z" fill="#62BEFB"/>
<path d="M168.382 47.048C168.252 47.0491 168.124 47.0108 168.016 46.9381L164.167 44.1295L160.305 46.9381C160.201 47.0145 160.075 47.0557 159.946 47.0557C159.817 47.0557 159.691 47.0145 159.587 46.9381C159.484 46.8608 159.408 46.7535 159.369 46.6311C159.329 46.5086 159.329 46.377 159.367 46.2543L160.841 41.7117L156.98 38.903C156.879 38.8246 156.803 38.7173 156.764 38.5952C156.725 38.4731 156.724 38.3421 156.76 38.2192C156.799 38.0947 156.877 37.9859 156.983 37.909C157.088 37.8321 157.215 37.791 157.345 37.7918H162.108L163.582 33.2492C163.632 33.1371 163.713 33.0418 163.816 32.975C163.919 32.9081 164.038 32.8726 164.161 32.8726C164.283 32.8726 164.403 32.9081 164.506 32.975C164.608 33.0418 164.69 33.1371 164.739 33.2492L166.213 37.7918H170.976C171.108 37.7881 171.236 37.8269 171.344 37.9024C171.451 37.9779 171.531 38.0862 171.572 38.211C171.613 38.3358 171.613 38.4706 171.572 38.5953C171.53 38.72 171.449 38.8279 171.342 38.903L167.48 41.7117L168.954 46.2543C168.997 46.3767 168.998 46.5096 168.958 46.6329C168.919 46.7562 168.841 46.8633 168.735 46.9381C168.631 47.0092 168.508 47.0474 168.382 47.048ZM164.167 42.7619C164.293 42.7624 164.416 42.8007 164.52 42.8718L167.224 44.8378L166.189 41.6628C166.147 41.5404 166.145 41.4076 166.185 41.2842C166.225 41.1609 166.303 41.0538 166.408 40.979L169.113 39.0129H165.775C165.647 39.0127 165.521 38.9727 165.417 38.8984C165.312 38.824 165.233 38.719 165.19 38.5978L164.167 35.4106L163.131 38.5978C163.089 38.7171 163.012 38.8207 162.91 38.8949C162.807 38.9691 162.685 39.0103 162.559 39.0129H159.221L161.913 40.979C162.019 41.0538 162.097 41.1609 162.137 41.2842C162.176 41.4076 162.175 41.5404 162.133 41.6628L161.109 44.8378L163.801 42.8718C163.909 42.799 164.037 42.7607 164.167 42.7619Z" fill="#E67A61"/>
<path d="M181.489 130C181.393 129.999 181.297 129.978 181.209 129.939L168.236 123.039C168.094 122.964 167.988 122.836 167.94 122.683C167.892 122.53 167.907 122.364 167.98 122.221L173.705 111.378C173.743 111.307 173.795 111.244 173.858 111.194C173.92 111.143 173.992 111.106 174.069 111.083C174.146 111.06 174.226 111.053 174.306 111.062C174.386 111.07 174.463 111.095 174.533 111.133L187.507 118.021C187.646 118.098 187.75 118.226 187.798 118.379C187.845 118.531 187.833 118.695 187.763 118.839L182.025 129.682C181.95 129.823 181.823 129.928 181.672 129.976C181.613 129.996 181.551 130.004 181.489 130ZM169.308 122.246L181.197 128.571L186.362 118.802L174.46 112.477L169.308 122.246Z" fill="#62BEFB"/>
<path d="M181.684 127.24L180.344 123.845L176.812 124.2C176.668 124.216 176.523 124.179 176.404 124.095C176.285 124.012 176.201 123.889 176.166 123.748L174.668 118.13L170.635 119.486L170.258 118.326L174.899 116.812C174.974 116.778 175.055 116.761 175.137 116.761C175.218 116.761 175.299 116.778 175.374 116.812C175.446 116.851 175.509 116.905 175.56 116.97C175.61 117.035 175.646 117.11 175.667 117.19L177.214 122.942L180.685 122.588C180.816 122.573 180.948 122.603 181.06 122.671C181.172 122.74 181.259 122.843 181.307 122.966L182.817 126.788L181.684 127.24Z" fill="#62BEFB"/>
<path d="M179.747 121.061C179.245 121.049 178.76 120.882 178.356 120.582C177.953 120.283 177.652 119.866 177.494 119.388C177.317 118.786 177.378 118.139 177.664 117.581C177.972 117.042 178.474 116.64 179.067 116.459C179.66 116.277 180.3 116.329 180.856 116.604C181.41 116.897 181.825 117.399 182.01 117.999C182.195 118.599 182.135 119.248 181.842 119.803C181.634 120.179 181.331 120.494 180.963 120.714C180.595 120.935 180.176 121.055 179.747 121.061ZM179.747 117.544C179.539 117.543 179.334 117.599 179.156 117.707C178.978 117.815 178.832 117.97 178.736 118.155C178.599 118.427 178.569 118.741 178.651 119.034C178.693 119.179 178.765 119.313 178.861 119.428C178.958 119.544 179.077 119.638 179.211 119.706C179.481 119.827 179.786 119.845 180.068 119.757C180.35 119.67 180.591 119.482 180.746 119.229C180.818 119.097 180.863 118.951 180.878 118.801C180.893 118.65 180.878 118.498 180.834 118.354C180.789 118.21 180.717 118.075 180.62 117.96C180.524 117.844 180.405 117.748 180.271 117.679C180.114 117.594 179.938 117.548 179.759 117.544H179.747Z" fill="#62BEFB"/>
<path d="M34.0169 29.8299C32.6531 29.8202 31.3172 30.217 30.1786 30.9697C29.0401 31.7225 28.1503 32.7973 27.6223 34.0578C27.0942 35.3184 26.9517 36.7078 27.2127 38.0497C27.4737 39.3916 28.1266 40.6255 29.0884 41.5948C30.0502 42.5641 31.2776 43.2251 32.6148 43.4939C33.9521 43.7627 35.3388 43.6272 36.5991 43.1046C37.8594 42.582 38.9364 41.6959 39.6934 40.5586C40.4504 39.4214 40.8532 38.0843 40.8508 36.7171C40.8541 34.8959 40.1363 33.1478 38.855 31.8565C37.5737 30.5652 35.8337 29.8364 34.0169 29.8299Z" fill="#FF876C"/>
<path d="M36.77 36.7782L32.2262 39.4281H32.1531C32.1531 39.4281 32.1531 39.4281 32.1531 39.3426V34.0551C32.1569 34.0267 32.1569 33.998 32.1531 33.9696H32.2384L36.7822 36.6073H36.8553C36.8569 36.6407 36.8498 36.674 36.8349 36.7039C36.82 36.7338 36.7976 36.7594 36.77 36.7782Z" fill="#F7F8FC"/>
<path d="M179.199 91.2533L162.23 85.1476C161.912 85.0333 161.574 84.983 161.236 84.9997C160.898 85.0164 160.567 85.0998 160.262 85.245C159.956 85.3902 159.682 85.5943 159.456 85.8458C159.229 86.0974 159.054 86.3912 158.941 86.7106L155.834 95.5761L155.688 95.9547L155.104 97.6154C155.067 97.7156 155.05 97.8221 155.055 97.9287C155.06 98.0353 155.085 98.1399 155.131 98.2365C155.176 98.333 155.24 98.4196 155.319 98.4912C155.398 98.5628 155.49 98.6179 155.591 98.6534L157.26 99.2517L157.467 99.325L174.01 105.235L174.229 105.309L175.886 105.907C176.089 105.977 176.312 105.964 176.506 105.87C176.7 105.777 176.849 105.61 176.921 105.406L177.506 103.745L177.652 103.367L180.783 94.5503C180.896 94.2297 180.945 93.8897 180.927 93.55C180.909 93.2103 180.823 92.8776 180.676 92.571C180.529 92.2645 180.323 91.9903 180.069 91.7641C179.816 91.5379 179.52 91.3643 179.199 91.2533ZM159.489 96.9438C159.456 97.039 159.405 97.1267 159.338 97.2018C159.271 97.2769 159.19 97.3378 159.099 97.381C159.008 97.4242 158.91 97.4489 158.809 97.4535C158.709 97.4581 158.609 97.4426 158.514 97.4078C158.419 97.375 158.332 97.3235 158.257 97.2564C158.182 97.1892 158.121 97.1078 158.078 97.0168C158.035 96.9259 158.01 96.8272 158.006 96.7266C158.001 96.6259 158.017 96.5254 158.051 96.4309L160.22 90.3252C160.291 90.1371 160.433 89.9845 160.615 89.9C160.797 89.8155 161.005 89.806 161.194 89.8734C161.383 89.9398 161.538 90.0787 161.625 90.2596C161.712 90.4406 161.724 90.6486 161.657 90.8381L159.489 96.9438ZM163.436 98.3603C163.367 98.5506 163.226 98.7061 163.044 98.7929C162.861 98.8798 162.652 98.8911 162.461 98.8243C162.273 98.7527 162.12 98.6111 162.034 98.4291C161.948 98.2471 161.935 98.0387 161.998 97.8474L164.179 91.7417C164.247 91.5523 164.387 91.3976 164.569 91.3117C164.75 91.2258 164.958 91.2158 165.147 91.2838C165.336 91.3518 165.491 91.4923 165.576 91.6743C165.662 91.8564 165.672 92.0652 165.604 92.2546L163.436 98.3603ZM167.383 99.7768C167.315 99.9663 167.175 100.121 166.993 100.207C166.811 100.293 166.603 100.303 166.414 100.235C166.225 100.167 166.071 100.026 165.985 99.8442C165.9 99.6621 165.89 99.4534 165.957 99.2639L168.126 93.1583C168.208 92.9877 168.35 92.8536 168.525 92.7817C168.7 92.7098 168.896 92.7052 169.074 92.7688C169.252 92.8323 169.4 92.9596 169.491 93.1261C169.581 93.2926 169.607 93.4867 169.563 93.6711L167.383 99.7768ZM171.342 101.181C171.259 101.352 171.117 101.486 170.942 101.558C170.767 101.63 170.572 101.634 170.394 101.571C170.216 101.507 170.067 101.38 169.977 101.213C169.886 101.047 169.861 100.853 169.904 100.668L172.073 94.5626C172.144 94.3742 172.285 94.2207 172.467 94.1343C172.648 94.0478 172.856 94.035 173.047 94.0985C173.142 94.1313 173.23 94.1828 173.305 94.2499C173.38 94.3171 173.44 94.3985 173.483 94.4895C173.527 94.5805 173.551 94.6792 173.556 94.7798C173.56 94.8804 173.545 94.9809 173.51 95.0754L171.342 101.181ZM174.326 103.062C174.231 103.029 174.144 102.977 174.069 102.91C173.994 102.843 173.933 102.762 173.89 102.671C173.847 102.58 173.822 102.481 173.818 102.38C173.813 102.28 173.829 102.179 173.863 102.085L176.032 95.9791C176.063 95.8834 176.113 95.795 176.179 95.719C176.245 95.6429 176.325 95.5808 176.415 95.5363C176.505 95.4917 176.603 95.4657 176.704 95.4596C176.804 95.4535 176.904 95.4675 176.999 95.5008C177.094 95.5341 177.181 95.586 177.256 95.6535C177.33 95.721 177.39 95.8027 177.433 95.8938C177.476 95.985 177.5 96.0838 177.504 96.1844C177.508 96.285 177.492 96.3854 177.457 96.4797L175.289 102.585C175.222 102.77 175.088 102.921 174.914 103.01C174.74 103.098 174.538 103.117 174.351 103.062H174.326Z" fill="#FF876C"/>
<path d="M158.941 86.7595L158.429 88.2005L180.198 95.9913L180.71 94.5504C180.924 93.9424 180.904 93.2762 180.654 92.6823C180.404 92.0883 179.941 91.6092 179.357 91.3388L161.962 85.1354C161.347 84.9833 160.698 85.0651 160.14 85.3651C159.582 85.6651 159.155 86.162 158.941 86.7595Z" fill="#E67A61"/>
<path d="M157.552 85.9413C157.515 86.0415 157.499 86.148 157.504 86.2546C157.508 86.3612 157.534 86.4658 157.579 86.5624C157.625 86.659 157.689 86.7455 157.768 86.8171C157.847 86.8887 157.939 86.9438 158.039 86.9793L181.319 95.2952C181.522 95.3656 181.745 95.3524 181.939 95.2586C182.133 95.1649 182.282 94.9981 182.354 94.7946L183.17 92.4622C183.207 92.362 183.224 92.2555 183.219 92.1489C183.214 92.0423 183.189 91.9377 183.143 91.8411C183.098 91.7445 183.034 91.658 182.955 91.5864C182.876 91.5149 182.784 91.4597 182.683 91.4242L159.416 83.1083C159.212 83.0379 158.989 83.0511 158.795 83.1449C158.601 83.2386 158.452 83.4054 158.381 83.6089L157.552 85.9413Z" fill="#FF876C"/>
<path d="M162.912 86.7228C162.692 86.6367 162.501 86.4881 162.364 86.2954C162.206 86.0536 162.149 85.759 162.206 85.4756C162.263 85.1922 162.429 84.9426 162.668 84.7811L171.196 79.0662C171.314 78.9845 171.448 78.9275 171.588 78.8986C171.729 78.8697 171.875 78.8694 172.015 78.8979C172.156 78.9264 172.29 78.983 172.409 79.0644C172.527 79.1457 172.629 79.2502 172.706 79.3715C172.786 79.4908 172.842 79.6247 172.87 79.7656C172.897 79.9065 172.897 80.0515 172.869 80.1923C172.841 80.3331 172.785 80.4669 172.705 80.5859C172.624 80.7049 172.521 80.8069 172.402 80.8858L163.874 86.6007C163.732 86.6938 163.57 86.7533 163.401 86.7744C163.232 86.7956 163.061 86.7779 162.9 86.7228H162.912Z" fill="#62BEFB"/>
<path d="M177.762 91.9981C177.982 92.0773 178.223 92.0773 178.444 91.9981C178.582 91.9592 178.71 91.8927 178.821 91.8026C178.933 91.7126 179.025 91.6009 179.092 91.4743C179.159 91.3476 179.2 91.2086 179.212 91.0657C179.224 90.9228 179.207 90.7789 179.163 90.6427L176.141 80.7758C176.053 80.5012 175.86 80.2727 175.604 80.1396C175.348 80.0065 175.051 79.9796 174.776 80.0646C174.501 80.1496 174.27 80.3397 174.133 80.5939C173.997 80.8481 173.965 81.1459 174.046 81.423L177.092 91.2776C177.138 91.4412 177.223 91.5912 177.34 91.7145C177.456 91.8379 177.601 91.931 177.762 91.9859V91.9981Z" fill="#62BEFB"/>
<path d="M20.3612 74.4503H19.1431V85.0254H20.3612V74.4503Z" fill="#FF876C"/>
<path d="M25.0269 79.1273H14.4775V80.3484H25.0269V79.1273Z" fill="#FF876C"/>
</g>
<defs>
<clipPath id="clip0_4:1168">
<rect width="200" height="119" fill="white" transform="translate(0 11)"/>
</clipPath>
</defs>
</svg>
