<svg width="200" height="180" viewBox="0 0 200 180" fill="none" xmlns="http://www.w3.org/2000/svg">
<g clip-path="url(#clip0_7:923)">
<path d="M86.59 49.49H83.59V44.61C83.5946 41.6596 84.3851 38.7636 85.88 36.22L88.47 37.73C87.2442 39.816 86.5953 42.1905 86.59 44.61V49.49Z" fill="#30363D"/>
<path d="M116.81 49.49H113.81V44.61C113.81 42.1929 113.161 39.8202 111.93 37.74L114.52 36.21C116.014 38.7577 116.804 41.6565 116.81 44.61V49.49Z" fill="#30363D"/>
<path d="M152.41 54.99V113.61C152.405 115.067 151.824 116.463 150.793 117.493C149.763 118.524 148.367 119.105 146.91 119.11H139.45V49.49H146.91C148.367 49.4953 149.763 50.0764 150.793 51.1067C151.824 52.137 152.405 53.5329 152.41 54.99Z" fill="#E76DFF"/>
<path d="M139.45 49.49H131.04V119.1H139.45V49.49Z" fill="#30363D"/>
<path d="M131.04 49.49V119.1H69.37V49.49H131.04ZM121.88 79.37V71.82H106.62V79.37H121.88ZM105.12 99.15V87.86H90.32V99.15H105.12ZM97.73 77.15V62.01H79.83V77.12L97.73 77.15Z" fill="#E76DFF"/>
<path d="M69.36 49.49H60.95V119.1H69.36V49.49Z" fill="#30363D"/>
<path d="M60.95 49.49V119.1H53.5C52.0429 119.095 50.647 118.514 49.6167 117.483C48.5864 116.453 48.0053 115.057 48 113.6V54.99C48.0053 53.5329 48.5864 52.137 49.6167 51.1067C50.647 50.0764 52.0429 49.4953 53.5 49.49H60.95Z" fill="#E76DFF"/>
<path d="M114.52 36.22C113.058 33.7201 110.966 31.6466 108.454 30.2056C105.942 28.7647 103.096 28.0065 100.2 28.0065C97.3039 28.0065 94.4582 28.7647 91.9459 30.2056C89.4337 31.6466 87.3424 33.7201 85.8801 36.22C85.7495 36.4502 85.6808 36.7103 85.6808 36.975C85.6808 37.2396 85.7495 37.4998 85.8801 37.73C86.0113 37.9593 86.2004 38.1502 86.4285 38.2836C86.6567 38.417 86.9158 38.4881 87.1801 38.49H113.24C113.504 38.4894 113.763 38.4192 113.991 38.2864C114.22 38.1536 114.409 37.9629 114.54 37.7336C114.67 37.5043 114.738 37.2445 114.737 36.9805C114.735 36.7165 114.664 36.4576 114.53 36.23L114.52 36.22Z" fill="#E76DFF"/>
<rect x="76" y="60" width="22" height="19" rx="2" fill="white"/>
<rect x="88" y="86" width="19" height="15" rx="2" fill="white"/>
<rect x="104" y="71.52" width="20.4179" height="10.3887" rx="2" transform="rotate(-7.08972 104 71.52)" fill="white"/>
</g>
<defs>
<clipPath id="clip0_7:923">
<rect width="104.4" height="91.1" fill="white" transform="translate(48 28)"/>
</clipPath>
</defs>
</svg>
