<svg width="200" height="180" viewBox="0 0 200 180" fill="none" xmlns="http://www.w3.org/2000/svg">
<g clip-path="url(#clip0_7:923)">
<path d="M86.59 32.49H83.59V27.61C83.5946 24.6596 84.3851 21.7636 85.88 19.22L88.47 20.73C87.2442 22.816 86.5953 25.1905 86.59 27.61V32.49Z" fill="#30363D"/>
<path d="M116.81 32.49H113.81V27.61C113.81 25.1929 113.161 22.8202 111.93 20.74L114.52 19.21C116.014 21.7577 116.804 24.6565 116.81 27.61V32.49Z" fill="#30363D"/>
<path d="M152.41 37.99V96.61C152.405 98.0671 151.824 99.4629 150.793 100.493C149.763 101.524 148.367 102.105 146.91 102.11H139.45V32.49H146.91C148.367 32.4953 149.763 33.0764 150.793 34.1067C151.824 35.137 152.405 36.5329 152.41 37.99V37.99Z" fill="#E76DFF"/>
<path d="M139.45 32.49H131.04V102.1H139.45V32.49Z" fill="#30363D"/>
<path d="M131.04 32.49V102.1H69.37V32.49H131.04ZM121.88 62.37V54.82H106.62V62.37H121.88ZM105.12 82.15V70.86H90.32V82.15H105.12ZM97.73 60.15V45.01H79.83V60.12L97.73 60.15Z" fill="#E76DFF"/>
<path d="M69.36 32.49H60.95V102.1H69.36V32.49Z" fill="#30363D"/>
<path d="M60.95 32.49V102.1H53.5C52.0429 102.095 50.647 101.514 49.6167 100.483C48.5864 99.4529 48.0053 98.057 48 96.6V37.99C48.0053 36.5329 48.5864 35.137 49.6167 34.1067C50.647 33.0764 52.0429 32.4953 53.5 32.49H60.95Z" fill="#E76DFF"/>
<path d="M114.52 19.22C113.058 16.7201 110.966 14.6466 108.454 13.2056C105.942 11.7647 103.096 11.0065 100.2 11.0065C97.3039 11.0065 94.4582 11.7647 91.9459 13.2056C89.4337 14.6466 87.3424 16.7201 85.8801 19.22C85.7495 19.4502 85.6808 19.7103 85.6808 19.975C85.6808 20.2396 85.7495 20.4998 85.8801 20.73C86.0113 20.9593 86.2004 21.1502 86.4285 21.2836C86.6567 21.417 86.9158 21.4881 87.1801 21.49H113.24C113.504 21.4894 113.763 21.4192 113.991 21.2864C114.22 21.1536 114.409 20.9629 114.54 20.7336C114.67 20.5043 114.738 20.2445 114.737 19.9805C114.735 19.7165 114.664 19.4576 114.53 19.23L114.52 19.22Z" fill="#E76DFF"/>
<rect x="76" y="43" width="22" height="19" rx="2" fill="white"/>
<rect x="88" y="69" width="19" height="15" rx="2" fill="white"/>
<rect x="104" y="54.52" width="20.4179" height="10.3887" rx="2" transform="rotate(-7.08972 104 54.52)" fill="white"/>
</g>
<defs>
<clipPath id="clip0_7:923">
<rect width="104.4" height="91.1" fill="white" transform="translate(48 11)"/>
</clipPath>
</defs>
</svg>
