<svg width="200" height="180" viewBox="0 0 200 180" fill="none" xmlns="http://www.w3.org/2000/svg">
<g clip-path="url(#clip0_4:1168)">
<path d="M123.65 29H80.0154C75.9787 29 72.7063 32.2803 72.7063 36.3268V139.953C72.7063 143.999 75.9787 147.28 80.0154 147.28H123.65C127.687 147.28 130.959 143.999 130.959 139.953V36.3268C130.959 32.2803 127.687 29 123.65 29Z" fill="#474F59"/>
<path d="M122.517 30.1234H81.136C77.0993 30.1234 73.8269 33.4037 73.8269 37.4502V138.829C73.8269 142.876 77.0993 146.156 81.136 146.156H122.517C126.554 146.156 129.826 142.876 129.826 138.829V37.4502C129.826 33.4037 126.554 30.1234 122.517 30.1234Z" fill="#30363D"/>
<path d="M94.9258 36.2291C94.9282 36.4252 94.8724 36.6177 94.7655 36.7819C94.6585 36.9462 94.5052 37.0749 94.3252 37.1516C94.1451 37.2283 93.9463 37.2497 93.7541 37.2129C93.5619 37.1761 93.3849 37.0829 93.2457 36.9451C93.1065 36.8072 93.0113 36.631 92.9723 36.4388C92.9332 36.2466 92.952 36.0471 93.0263 35.8657C93.1006 35.6842 93.2271 35.529 93.3896 35.4198C93.5521 35.3105 93.7434 35.2522 93.9391 35.2522C94.1986 35.2522 94.4478 35.3547 94.6325 35.5376C94.8172 35.7204 94.9226 35.9689 94.9258 36.2291V36.2291Z" fill="#596273"/>
<path d="M102.369 32.8099C102.369 32.8927 102.352 32.9747 102.32 33.0511C102.288 33.1275 102.241 33.1967 102.182 33.2547C102.123 33.3127 102.053 33.3583 101.977 33.3889C101.9 33.4194 101.818 33.4343 101.735 33.4327C101.609 33.4327 101.486 33.3951 101.382 33.3248C101.278 33.2544 101.196 33.1545 101.149 33.0378C101.101 32.9211 101.089 32.7928 101.115 32.6693C101.14 32.5458 101.202 32.4327 101.292 32.3444C101.382 32.2561 101.495 32.1966 101.619 32.1735C101.743 32.1504 101.871 32.1647 101.986 32.2146C102.102 32.2646 102.2 32.3479 102.268 32.4539C102.336 32.5599 102.371 32.6838 102.369 32.8099V32.8099Z" fill="#596273"/>
<path d="M105.621 36.1314C105.621 36.2545 105.572 36.3725 105.486 36.4595C105.399 36.5465 105.281 36.5954 105.158 36.5954H98.4096C98.2868 36.5954 98.1691 36.5465 98.0823 36.4595C97.9955 36.3725 97.9467 36.2545 97.9467 36.1314V36.1314C97.9451 36.0694 97.9558 36.0078 97.9784 35.9501C98.0009 35.8923 98.0348 35.8397 98.0779 35.7953C98.1211 35.751 98.1726 35.7157 98.2296 35.6916C98.2866 35.6675 98.3478 35.6551 98.4096 35.6552H105.158C105.22 35.6551 105.281 35.6675 105.338 35.6916C105.395 35.7157 105.447 35.751 105.49 35.7953C105.533 35.8397 105.567 35.8923 105.59 35.9501C105.612 36.0078 105.623 36.0694 105.621 36.1314V36.1314Z" fill="#596273"/>
<path d="M105.024 138.463H98.8359C98.3717 138.463 97.9954 138.84 97.9954 139.305V141.003C97.9954 141.468 98.3717 141.845 98.8359 141.845H105.024C105.488 141.845 105.865 141.468 105.865 141.003V139.305C105.865 138.84 105.488 138.463 105.024 138.463Z" fill="#596273"/>
<path d="M73.7538 47.427H72.3894V42.9088H73.7538V47.427Z" fill="#30363D"/>
<path d="M73.7538 59.2476H72.3894V51.6521H73.7538V59.2476Z" fill="#30363D"/>
<path d="M73.7538 68.2597H72.3894V61.0061H73.7538V68.2597Z" fill="#30363D"/>
<path d="M127.354 42.4203H76.2146V133.383H127.354V42.4203Z" fill="#01BACC"/>
<path d="M76.2146 71.6666V101.047L112.2 42.4203H94.1705L76.2146 71.6666Z" fill="#01C6DA"/>
<path d="M76.2146 117.325L122.201 42.4203H115.342L76.2146 106.152V117.325Z" fill="#01C6DA"/>
<path d="M61.8523 62.1173V72.4237C61.8523 73.7483 62.3772 75.0187 63.3116 75.9553C64.246 76.892 65.5133 77.4182 66.8347 77.4182C68.1561 77.4182 69.4234 76.892 70.3577 75.9553C71.2921 75.0187 71.817 73.7483 71.817 72.4237V62.1173H61.8523Z" fill="#E67A61"/>
<path d="M71.7805 62.1173V72.4237C71.7805 73.7483 72.3054 75.0187 73.2398 75.9553C74.1742 76.892 75.4415 77.4182 76.7629 77.4182C78.0843 77.4182 79.3515 76.892 80.2859 75.9553C81.2203 75.0187 81.7452 73.7483 81.7452 72.4237V62.1173H71.7805Z" fill="#E8ECEF"/>
<path d="M81.7817 62.1173V72.4237C81.7817 73.7483 82.3067 75.0187 83.241 75.9553C84.1754 76.892 85.4426 77.4182 86.764 77.4182C88.0854 77.4182 89.3527 76.892 90.2871 75.9553C91.2215 75.0187 91.7464 73.7483 91.7464 72.4237V62.1173H81.7817Z" fill="#E67A61"/>
<path d="M91.7463 62.1173V72.4237C91.7463 73.7483 92.2713 75.0187 93.2056 75.9553C94.14 76.892 95.4072 77.4182 96.7286 77.4182C98.05 77.4182 99.3173 76.892 100.252 75.9553C101.186 75.0187 101.711 73.7483 101.711 72.4237V62.1173H91.7463Z" fill="#E8ECEF"/>
<path d="M101.711 62.1173V72.4237C101.774 73.7072 102.327 74.9172 103.256 75.8031C104.185 76.6891 105.417 77.1832 106.699 77.1832C107.981 77.1832 109.214 76.6891 110.143 75.8031C111.071 74.9172 111.625 73.7072 111.688 72.4237V62.1173H101.711Z" fill="#E67A61"/>
<path d="M111.688 62.1173V72.4237C111.654 73.0996 111.758 73.7752 111.993 74.4095C112.228 75.0438 112.59 75.6237 113.055 76.1138C113.52 76.604 114.08 76.9943 114.701 77.2609C115.321 77.5276 115.989 77.6651 116.664 77.6651C117.339 77.6651 118.007 77.5276 118.627 77.2609C119.248 76.9943 119.808 76.604 120.273 76.1138C120.738 75.6237 121.1 75.0438 121.335 74.4095C121.57 73.7752 121.674 73.0996 121.64 72.4237V62.1173H111.688Z" fill="#E8ECEF"/>
<path d="M121.64 62.1173V72.4237C121.704 73.7072 122.257 74.9172 123.185 75.8031C124.114 76.6891 125.347 77.1832 126.629 77.1832C127.911 77.1832 129.144 76.6891 130.072 75.8031C131.001 74.9172 131.554 73.7072 131.617 72.4237V62.1173H121.64Z" fill="#E67A61"/>
<path d="M131.617 62.1173V72.4237C131.617 73.0796 131.746 73.7291 131.996 74.335C132.247 74.941 132.614 75.4916 133.076 75.9553C133.539 76.4191 134.088 76.787 134.693 77.038C135.297 77.289 135.945 77.4182 136.6 77.4182C137.254 77.4182 137.902 77.289 138.506 77.038C139.111 76.787 139.66 76.4191 140.123 75.9553C140.585 75.4916 140.952 74.941 141.203 74.335C141.453 73.7291 141.582 73.0796 141.582 72.4237V62.1173H131.617Z" fill="#E8ECEF"/>
<path d="M76.2268 45.7784L61.8523 62.1417H71.7805L82.5613 45.7784H76.2268Z" fill="#FF876C"/>
<path d="M82.5979 45.7784L71.7805 62.1417H81.7452C84.1815 56.6791 86.5773 51.2247 88.9324 45.7784H82.5979Z" fill="white"/>
<path d="M88.9689 45.7784C86.5813 51.241 84.1856 56.6954 81.7817 62.1417H91.7464C92.9565 56.6791 94.1746 51.2247 95.4009 45.7784H88.9689Z" fill="#FF876C"/>
<path d="M95.3398 45.7784C94.146 51.241 92.9278 56.6954 91.6853 62.1417H101.65V45.7784H95.3398Z" fill="white"/>
<path d="M101.711 45.7784V62.1417H111.688C110.478 56.6791 109.26 51.2247 108.033 45.7784H101.711Z" fill="#FF876C"/>
<path d="M108.082 45.7784C109.292 51.241 110.51 56.6954 111.737 62.1417H121.689C119.277 56.6791 116.853 51.2247 114.417 45.7784H108.082Z" fill="white"/>
<path d="M114.417 45.7784C116.804 51.241 119.196 56.6954 121.592 62.1417H131.568L120.775 45.7784H114.417Z" fill="#FF876C"/>
<path d="M131.617 62.1417H141.582L127.207 45.7784H120.824L131.617 62.1417Z" fill="white"/>
<path d="M82.5612 42.4081H76.178V45.8028H82.5612V42.4081Z" fill="#E67A61"/>
<path d="M88.9445 42.4081H82.5613V45.8028H88.9445V42.4081Z" fill="#E8ECEF"/>
<path d="M95.3278 42.4081H88.9446V45.8028H95.3278V42.4081Z" fill="#E67A61"/>
<path d="M101.711 42.4081H95.3279V45.8028H101.711V42.4081Z" fill="#E8ECEF"/>
<path d="M108.094 42.4081H101.711V45.8028H108.094V42.4081Z" fill="#E67A61"/>
<path d="M114.477 42.4081H108.094V45.8028H114.477V42.4081Z" fill="#E8ECEF"/>
<path d="M120.873 42.4081H114.49V45.8028H120.873V42.4081Z" fill="#E67A61"/>
<path d="M127.244 42.4081H120.861V45.8028H127.244V42.4081Z" fill="#E8ECEF"/>
<path d="M120.751 109.18L110.92 105.981L101.09 102.769L104.281 112.636L107.473 122.49L110.932 115.75L116.183 121.013L119.277 117.911L114.027 112.648L120.751 109.18Z" fill="#E5E8EC"/>
<path d="M110.92 105.981L101.09 102.769L101.187 103.099L117.62 119.572L119.277 117.911L114.027 112.648L120.751 109.18L110.92 105.981Z" fill="#F7F8FC"/>
<path d="M98.7141 98.5195C98.5945 98.5195 98.4799 98.4719 98.3954 98.3871C98.3109 98.3024 98.2634 98.1875 98.2634 98.0677V92.1329C98.2617 92.0731 98.2722 92.0136 98.2943 91.958C98.3163 91.9025 98.3494 91.852 98.3916 91.8097C98.4338 91.7674 98.4842 91.7342 98.5396 91.7121C98.5951 91.6899 98.6544 91.6794 98.7141 91.6811C98.8336 91.6811 98.9483 91.7287 99.0328 91.8134C99.1174 91.8981 99.1648 92.0131 99.1648 92.1329V98.0677C99.1617 98.1865 99.1133 98.2996 99.0294 98.3837C98.9455 98.4678 98.8326 98.5164 98.7141 98.5195Z" fill="#F7F8FC"/>
<path d="M95.754 100.229C95.6762 100.233 95.5991 100.212 95.5348 100.168L90.4062 97.1884C90.355 97.1579 90.3103 97.1176 90.2747 97.0698C90.239 97.022 90.2131 96.9677 90.1984 96.9098C90.1837 96.852 90.1805 96.7919 90.189 96.7328C90.1974 96.6737 90.2174 96.6169 90.2478 96.5656C90.2782 96.5143 90.3185 96.4695 90.3661 96.4337C90.4138 96.398 90.468 96.372 90.5257 96.3572C90.5834 96.3425 90.6434 96.3393 90.7023 96.3478C90.7613 96.3563 90.8179 96.3763 90.8691 96.4068L95.9855 99.362C96.089 99.4233 96.1647 99.5225 96.1966 99.6388C96.2284 99.755 96.2139 99.8791 96.156 99.9848C96.115 100.056 96.0566 100.116 95.9864 100.159C95.9161 100.201 95.8361 100.226 95.754 100.229Z" fill="#F7F8FC"/>
<path d="M90.6378 106.616C90.5594 106.616 90.4821 106.596 90.4138 106.558C90.3454 106.519 90.2882 106.463 90.248 106.396C90.1853 106.29 90.1668 106.165 90.1964 106.046C90.2261 105.927 90.3016 105.824 90.4063 105.761L95.5349 102.806C95.586 102.775 95.6427 102.754 95.7017 102.746C95.7607 102.737 95.8208 102.74 95.8786 102.755C95.9364 102.77 95.9907 102.796 96.0383 102.832C96.086 102.868 96.126 102.913 96.1562 102.964C96.1864 103.016 96.206 103.074 96.2138 103.133C96.2216 103.193 96.2174 103.254 96.2015 103.312C96.1856 103.37 96.1584 103.424 96.1213 103.471C96.0842 103.519 96.0381 103.558 95.9856 103.587L90.8692 106.555C90.7998 106.597 90.7193 106.619 90.6378 106.616V106.616Z" fill="#F7F8FC"/>
<path d="M98.7141 111.293C98.5945 111.293 98.4799 111.245 98.3954 111.16C98.3109 111.076 98.2633 110.961 98.2633 110.841V104.906C98.2617 104.846 98.2722 104.786 98.2941 104.729C98.3161 104.673 98.349 104.622 98.391 104.579C98.433 104.535 98.4833 104.501 98.5387 104.478C98.5942 104.454 98.6538 104.442 98.7141 104.442C98.8347 104.445 98.9494 104.495 99.0336 104.582C99.1178 104.669 99.1648 104.785 99.1648 104.906V110.841C99.1617 110.96 99.1133 111.073 99.0294 111.157C98.9455 111.241 98.8326 111.289 98.7141 111.293V111.293Z" fill="#F7F8FC"/>
<path d="M101.674 100.229C101.593 100.228 101.514 100.206 101.443 100.166C101.373 100.125 101.314 100.067 101.272 99.997C101.215 99.8913 101.2 99.7672 101.232 99.651C101.264 99.5347 101.339 99.4355 101.443 99.3742L106.559 96.419C106.663 96.3575 106.786 96.3397 106.903 96.3694C107.019 96.3992 107.119 96.4741 107.181 96.5778C107.242 96.6814 107.26 96.8053 107.23 96.9221C107.2 97.0388 107.126 97.139 107.022 97.2006L101.894 100.168C101.829 100.21 101.752 100.232 101.674 100.229V100.229Z" fill="#F7F8FC"/>
<path d="M142.604 102.174L142.346 103.367L149.371 104.891L149.628 103.698L142.604 102.174Z" fill="#FF876C"/>
<path d="M143.458 85.4777C143.298 85.4825 143.139 85.4557 142.989 85.3988C142.839 85.3419 142.702 85.2559 142.586 85.146C142.469 85.036 142.376 84.9041 142.31 84.7578C142.244 84.6114 142.208 84.4536 142.203 84.2932C142.198 84.1329 142.225 83.9731 142.282 83.8231C142.339 83.6731 142.424 83.5358 142.534 83.419C142.644 83.3022 142.775 83.2082 142.921 83.1424C143.067 83.0766 143.225 83.0403 143.385 83.0355L165.836 81.5701C165.996 81.5597 166.156 81.5809 166.308 81.6327C166.46 81.6844 166.6 81.7656 166.72 81.8716C166.841 81.9777 166.939 82.1064 167.01 82.2506C167.081 82.3948 167.123 82.5515 167.133 82.7118C167.144 82.8722 167.122 83.0331 167.071 83.1852C167.019 83.3373 166.938 83.4778 166.832 83.5986C166.727 83.7194 166.598 83.818 166.454 83.889C166.31 83.96 166.154 84.0019 165.994 84.0124L143.543 85.4777H143.458Z" fill="#FF9AA2"/>
<path d="M156.98 128.047C156.785 128.047 156.593 128.001 156.419 127.912L136.405 117.594C136.262 117.52 136.136 117.419 136.032 117.296C135.929 117.173 135.851 117.031 135.802 116.878C135.754 116.725 135.735 116.564 135.749 116.404C135.762 116.244 135.807 116.088 135.881 115.945C135.954 115.802 136.055 115.676 136.178 115.572C136.3 115.468 136.442 115.39 136.595 115.341C136.747 115.292 136.908 115.274 137.068 115.288C137.228 115.301 137.383 115.346 137.525 115.42L157.54 125.739C157.784 125.864 157.978 126.068 158.092 126.317C158.206 126.567 158.233 126.848 158.168 127.114C158.103 127.381 157.951 127.618 157.735 127.787C157.52 127.956 157.253 128.048 156.98 128.047V128.047Z" fill="#E67A61"/>
<path d="M153.842 62.8387L147.8 66.7394L148.459 67.7661L154.502 63.8653L153.842 62.8387Z" fill="#E67A61"/>
<path d="M49.6075 62.7614L48.948 63.7881L54.9907 67.6888L55.6502 66.6621L49.6075 62.7614Z" fill="#FF9AA2"/>
<path d="M67.9036 88C67.4226 87.9584 66.953 87.7977 66.5225 87.5271C66.0919 87.2565 65.7089 86.8815 65.3959 86.4241C65.1631 86.0693 64.8748 85.7775 64.5485 85.5666C64.2222 85.3556 63.8648 85.23 63.4982 85.1973C63.1316 85.1647 62.7635 85.2257 62.4165 85.3766C62.0694 85.5276 61.7508 85.7653 61.48 86.0752C61.1176 86.4715 60.6957 86.7743 60.2389 86.9659C59.7821 87.1576 59.2994 87.2344 58.8186 87.1919C58.3379 87.1494 57.8686 86.9884 57.438 86.7183C57.0075 86.4481 56.6241 86.0742 56.3102 85.6181C56.0791 85.2603 55.7914 84.9657 55.465 84.7527C55.1386 84.5398 54.7806 84.413 54.4131 84.3802C54.0457 84.3475 53.6769 84.4095 53.3295 84.5625C52.9822 84.7154 52.6638 84.956 52.3943 85.2692C52.0307 85.6633 51.6083 85.9638 51.1513 86.1536C50.6942 86.3434 50.2117 86.4187 49.7312 86.3751C49.2508 86.3315 48.7821 86.1699 48.3519 85.8996C47.9217 85.6293 47.5386 85.2556 47.2245 84.8C46.9918 84.4453 46.7034 84.1535 46.3771 83.9425C46.0508 83.7316 45.6934 83.6059 45.3268 83.5733C44.9603 83.5406 44.5922 83.6016 44.2452 83.7526C43.8982 83.9035 43.5795 84.1412 43.3086 84.4511C42.9462 84.8475 42.5244 85.1502 42.0676 85.3419C41.6108 85.5336 41.1281 85.6104 40.6473 85.5678C40.1665 85.5253 39.6973 85.3644 39.2668 85.0942C38.8362 84.8241 38.4529 84.4501 38.1389 83.994C37.9078 83.6362 37.6201 83.3416 37.2937 83.1287C36.9673 82.9157 36.6093 82.7889 36.2419 82.7561C35.8744 82.7234 35.5055 82.7855 35.1582 82.9384C34.8109 83.0914 34.4925 83.3319 34.223 83.6451C33.4888 84.4394 32.5317 84.8376 31.5622 84.7518C30.5927 84.6661 29.6903 84.1035 29.0533 83.188C28.816 82.8318 28.522 82.541 28.19 82.3339C27.8579 82.1268 27.495 82.008 27.1243 81.985C26.7565 81.9518 26.3872 82.0126 26.0389 82.1636C25.6906 82.3146 25.3707 82.5526 25.0988 82.8632C24.7364 83.2595 24.3146 83.5622 23.8577 83.7539C23.4009 83.9456 22.9182 84.0224 22.4374 83.9799C21.9567 83.9374 21.4874 83.7764 21.0569 83.5062C20.6263 83.2361 20.243 82.8621 19.929 82.406C19.6884 82.0547 19.3936 81.7672 19.0623 81.5606C18.7309 81.3539 18.3697 81.2323 18 81.203L18.0675 80C18.5482 80.038 19.0178 80.1961 19.4485 80.4647C19.8793 80.7334 20.2624 81.1072 20.5752 81.5639C20.8132 81.919 21.1074 82.2091 21.4393 82.416C21.7712 82.623 22.1337 82.7425 22.5042 82.7669C22.8719 82.7987 23.2409 82.7372 23.589 82.5863C23.9371 82.4354 24.2571 82.1981 24.5297 81.8887C24.8921 81.4924 25.3139 81.1897 25.7707 80.998C26.2276 80.8063 26.7103 80.7295 27.1911 80.772C27.6718 80.8145 28.141 80.9755 28.5716 81.2457C29.0022 81.5158 29.3855 81.8898 29.6995 82.3459C29.9314 82.704 30.22 82.9988 30.5472 83.2119C30.8744 83.425 31.2333 83.5518 31.6015 83.5845C31.9697 83.6173 32.3393 83.5552 32.6874 83.4021C33.0355 83.249 33.3547 83.0083 33.625 82.6948C33.9878 82.301 34.4094 82.0007 34.8657 81.811C35.3219 81.6214 35.8037 81.5462 36.2834 81.5899C36.763 81.6335 37.2309 81.795 37.6603 82.0651C38.0897 82.3353 38.4719 82.7087 38.7851 83.1639C39.0187 83.519 39.3079 83.8111 39.6351 84.0221C39.9622 84.2332 40.3204 84.3589 40.6878 84.3916C41.0551 84.4242 41.424 84.3631 41.7718 84.212C42.1196 84.0609 42.439 83.823 42.7107 83.5128C43.0717 83.1153 43.4926 82.8115 43.9487 82.6191C44.4049 82.4266 44.8872 82.3494 45.3676 82.392C45.8479 82.4345 46.3166 82.596 46.7464 82.8669C47.1762 83.1378 47.5584 83.5128 47.8707 83.97C48.1095 84.3239 48.4039 84.6132 48.7356 84.8201C49.0673 85.027 49.4295 85.1471 49.7998 85.173C50.1676 85.2083 50.5374 85.1485 50.8859 84.9974C51.2345 84.8463 51.5543 84.6071 51.8253 84.2947C52.188 83.9018 52.6093 83.6019 53.065 83.4121C53.5208 83.2224 54.0021 83.1466 54.4813 83.1891C54.9606 83.2316 55.4284 83.3914 55.8581 83.6596C56.2877 83.9277 56.6708 84.2989 56.9853 84.7519C57.2174 85.1094 57.5058 85.4037 57.8326 85.6169C58.1594 85.8301 58.5178 85.9575 58.8856 85.9913C59.2534 86.0251 59.6228 85.9646 59.9711 85.8135C60.3194 85.6624 60.6393 85.4239 60.9109 85.1128C61.2719 84.7153 61.6928 84.4115 62.149 84.219C62.6051 84.0266 63.0875 83.9494 63.5678 83.992C64.0482 84.0345 64.5169 84.196 64.9467 84.4669C65.3764 84.7378 65.7586 85.1128 66.071 85.5699C66.3082 85.9261 66.6022 86.2169 66.9343 86.424C67.2664 86.6311 67.6292 86.7499 68 86.7729L67.9036 88Z" fill="#E67A61"/>
<path d="M43.8476 136.155C43.6317 136.155 43.4198 136.097 43.2336 135.987C43.0474 135.878 42.8935 135.721 42.7878 135.532C42.7101 135.392 42.6608 135.238 42.6426 135.078C42.6245 134.919 42.6378 134.757 42.682 134.603C42.7261 134.449 42.8001 134.305 42.8997 134.179C42.9994 134.054 43.1228 133.949 43.2629 133.871L62.9851 122.991C63.1251 122.911 63.2794 122.859 63.4393 122.839C63.5993 122.818 63.7617 122.83 63.9172 122.872C64.0727 122.915 64.2184 122.988 64.3458 123.087C64.4733 123.185 64.5801 123.309 64.6601 123.449C64.7401 123.589 64.7917 123.744 64.812 123.904C64.8324 124.065 64.821 124.227 64.7786 124.383C64.7361 124.539 64.6635 124.685 64.5648 124.813C64.4661 124.941 64.3433 125.048 64.2033 125.128L44.481 136.008C44.287 136.114 44.0681 136.164 43.8476 136.155Z" fill="#E67A61"/>
<path d="M20.5335 130.043C20.1943 130.079 19.8538 129.99 19.5757 129.792C19.2977 129.594 19.101 129.301 19.0229 128.969C18.8279 127.906 19.9122 126.771 21.0329 126.233C22.4216 125.574 23.7981 125.928 23.993 126.954C24.1879 127.98 23.1038 129.152 21.9831 129.677C21.5336 129.907 21.038 130.032 20.5335 130.043V130.043ZM22.4703 127.1C22.1477 127.114 21.8318 127.197 21.5445 127.345C20.643 127.772 20.168 128.492 20.2167 128.737C20.6286 128.832 21.0609 128.775 21.4349 128.578C22.3485 128.151 22.8114 127.43 22.7749 127.186C22.787 127.161 22.6896 127.1 22.4703 127.1Z" fill="#62BEFB"/>
<path d="M24.018 119.542H22.7998V127.064H24.018V119.542Z" fill="#62BEFB"/>
<path d="M28.6344 128.065C28.2938 128.101 27.9516 128.012 27.6715 127.815C27.3914 127.617 27.1925 127.324 27.1117 126.99C26.9168 125.928 28.001 124.792 29.1217 124.267C30.5226 123.608 31.8992 123.95 32.0941 124.988C32.289 126.026 31.2048 127.186 30.0841 127.711C29.6318 127.932 29.1374 128.053 28.6344 128.065V128.065ZM30.5714 125.134C30.2488 125.148 29.9329 125.231 29.6455 125.379C28.7441 125.806 28.269 126.514 28.3177 126.771C28.7312 126.859 29.1624 126.798 29.5359 126.6C30.4373 126.172 30.9125 125.452 30.8637 125.208C30.8759 125.183 30.7906 125.134 30.5714 125.134V125.134Z" fill="#62BEFB"/>
<path d="M32.1059 117.563H30.8877V125.085H32.1059V117.563Z" fill="#62BEFB"/>
<path d="M23.4089 122.704C23.2717 122.702 23.1389 122.655 23.0313 122.57C22.9588 122.514 22.9002 122.441 22.8601 122.359C22.82 122.276 22.7993 122.186 22.7998 122.094V119.541C22.7991 119.406 22.8445 119.274 22.9287 119.167C23.0128 119.06 23.1306 118.986 23.2627 118.955L31.3148 117.014C31.4031 116.995 31.4942 116.995 31.5823 117.014C31.6704 117.033 31.7536 117.07 31.8265 117.124C31.8992 117.182 31.9578 117.257 31.9978 117.341C32.0379 117.426 32.0584 117.518 32.0579 117.612V120.152C32.0614 120.29 32.0173 120.425 31.9329 120.534C31.8486 120.643 31.7292 120.719 31.595 120.75L23.5064 122.716L23.4089 122.704ZM24.018 120.018V121.312L30.8885 119.639V118.345L24.018 120.018Z" fill="#62BEFB"/>
<path d="M168.382 65.048C168.252 65.0491 168.124 65.0108 168.016 64.9381L164.167 62.1295L160.305 64.9381C160.201 65.0145 160.075 65.0557 159.946 65.0557C159.817 65.0557 159.691 65.0145 159.587 64.9381C159.484 64.8608 159.408 64.7535 159.369 64.6311C159.329 64.5086 159.329 64.377 159.367 64.2543L160.841 59.7117L156.98 56.9031C156.879 56.8246 156.803 56.7173 156.764 56.5952C156.725 56.4731 156.724 56.3421 156.76 56.2192C156.799 56.0947 156.877 55.9859 156.983 55.909C157.088 55.8321 157.215 55.791 157.345 55.7918H162.108L163.582 51.2492C163.632 51.1371 163.713 51.0418 163.816 50.975C163.919 50.9081 164.038 50.8726 164.161 50.8726C164.283 50.8726 164.403 50.9081 164.506 50.975C164.608 51.0418 164.69 51.1371 164.739 51.2492L166.213 55.7918H170.976C171.108 55.7881 171.236 55.8269 171.344 55.9024C171.451 55.9779 171.531 56.0862 171.572 56.211C171.613 56.3358 171.613 56.4706 171.572 56.5953C171.53 56.72 171.449 56.8279 171.342 56.9031L167.48 59.7117L168.954 64.2543C168.997 64.3767 168.998 64.5096 168.958 64.6329C168.919 64.7562 168.841 64.8633 168.735 64.9381C168.631 65.0092 168.508 65.0474 168.382 65.048V65.048ZM164.167 60.7619C164.293 60.7624 164.416 60.8007 164.52 60.8718L167.224 62.8378L166.189 59.6628C166.147 59.5404 166.145 59.4076 166.185 59.2842C166.225 59.1609 166.303 59.0538 166.408 58.979L169.113 57.0129H165.775C165.647 57.0127 165.521 56.9727 165.417 56.8984C165.312 56.824 165.233 56.719 165.19 56.5978L164.167 53.4106L163.131 56.5978C163.089 56.7171 163.012 56.8207 162.91 56.8949C162.807 56.9691 162.685 57.0103 162.559 57.0129H159.221L161.913 58.979C162.019 59.0538 162.097 59.1609 162.137 59.2842C162.176 59.4076 162.175 59.5404 162.133 59.6628L161.109 62.8378L163.801 60.8718C163.909 60.799 164.037 60.7607 164.167 60.7619V60.7619Z" fill="#E67A61"/>
<path d="M181.489 148C181.393 147.999 181.297 147.978 181.209 147.939L168.236 141.039C168.094 140.964 167.988 140.836 167.94 140.683C167.892 140.53 167.907 140.364 167.98 140.221L173.705 129.378C173.743 129.307 173.795 129.244 173.858 129.194C173.92 129.143 173.992 129.106 174.069 129.083C174.146 129.06 174.226 129.053 174.306 129.062C174.386 129.07 174.463 129.095 174.533 129.133L187.507 136.021C187.646 136.098 187.75 136.226 187.798 136.379C187.845 136.531 187.833 136.695 187.763 136.839L182.025 147.682C181.95 147.823 181.823 147.928 181.672 147.976C181.613 147.996 181.551 148.004 181.489 148V148ZM169.308 140.246L181.197 146.571L186.362 136.802L174.46 130.477L169.308 140.246Z" fill="#62BEFB"/>
<path d="M181.684 145.24L180.344 141.845L176.812 142.2C176.668 142.216 176.523 142.179 176.404 142.095C176.285 142.012 176.201 141.889 176.166 141.748L174.668 136.13L170.635 137.486L170.258 136.326L174.899 134.812C174.974 134.778 175.055 134.761 175.137 134.761C175.218 134.761 175.299 134.778 175.374 134.812C175.446 134.851 175.509 134.905 175.56 134.97C175.61 135.035 175.646 135.11 175.667 135.19L177.214 140.942L180.685 140.588C180.816 140.573 180.948 140.603 181.06 140.671C181.172 140.74 181.259 140.843 181.307 140.966L182.817 144.788L181.684 145.24Z" fill="#62BEFB"/>
<path d="M179.747 139.061C179.245 139.049 178.76 138.882 178.356 138.582C177.953 138.283 177.652 137.866 177.494 137.388C177.317 136.786 177.378 136.139 177.664 135.581C177.972 135.042 178.474 134.64 179.067 134.459C179.66 134.277 180.3 134.329 180.856 134.604C181.41 134.897 181.825 135.399 182.01 135.999C182.195 136.599 182.135 137.248 181.842 137.803C181.634 138.179 181.331 138.494 180.963 138.714C180.595 138.935 180.176 139.055 179.747 139.061V139.061ZM179.747 135.544C179.539 135.543 179.334 135.599 179.156 135.707C178.978 135.815 178.832 135.97 178.736 136.155C178.599 136.427 178.569 136.741 178.651 137.034C178.693 137.179 178.765 137.313 178.861 137.428C178.958 137.544 179.077 137.638 179.211 137.706C179.481 137.827 179.786 137.845 180.068 137.757C180.35 137.67 180.591 137.482 180.746 137.229C180.818 137.097 180.863 136.951 180.878 136.801C180.893 136.65 180.878 136.498 180.834 136.354C180.789 136.21 180.717 136.075 180.62 135.96C180.524 135.844 180.405 135.748 180.271 135.679C180.114 135.594 179.938 135.548 179.759 135.544H179.747Z" fill="#62BEFB"/>
<path d="M34.0169 47.8299C32.6531 47.8202 31.3172 48.217 30.1786 48.9697C29.0401 49.7225 28.1503 50.7973 27.6223 52.0578C27.0942 53.3184 26.9517 54.7078 27.2127 56.0497C27.4737 57.3916 28.1266 58.6255 29.0884 59.5948C30.0502 60.5641 31.2776 61.2251 32.6148 61.4939C33.9521 61.7627 35.3388 61.6272 36.5991 61.1046C37.8594 60.582 38.9364 59.6959 39.6934 58.5586C40.4504 57.4214 40.8532 56.0843 40.8508 54.7171C40.8541 52.8959 40.1363 51.1478 38.855 49.8565C37.5737 48.5652 35.8337 47.8364 34.0169 47.8299V47.8299Z" fill="#FF876C"/>
<path d="M36.77 54.7782L32.2262 57.4281H32.1531C32.1531 57.4281 32.1531 57.4281 32.1531 57.3426V52.0551C32.1569 52.0267 32.1569 51.998 32.1531 51.9696H32.2384L36.7822 54.6073H36.8553C36.8569 54.6407 36.8498 54.674 36.8349 54.7039C36.82 54.7338 36.7976 54.7594 36.77 54.7782V54.7782Z" fill="#F7F8FC"/>
<path d="M179.199 109.253L162.23 103.148C161.912 103.033 161.574 102.983 161.236 103C160.898 103.016 160.567 103.1 160.262 103.245C159.956 103.39 159.682 103.594 159.456 103.846C159.229 104.097 159.054 104.391 158.941 104.711L155.834 113.576L155.688 113.955L155.104 115.615C155.067 115.716 155.05 115.822 155.055 115.929C155.06 116.035 155.085 116.14 155.131 116.236C155.176 116.333 155.24 116.42 155.319 116.491C155.398 116.563 155.49 116.618 155.591 116.653L157.26 117.252L157.467 117.325L174.01 123.235L174.229 123.309L175.886 123.907C176.089 123.977 176.312 123.964 176.506 123.87C176.7 123.777 176.849 123.61 176.921 123.406L177.506 121.745L177.652 121.367L180.783 112.55C180.896 112.23 180.945 111.89 180.927 111.55C180.909 111.21 180.823 110.878 180.676 110.571C180.529 110.265 180.323 109.99 180.069 109.764C179.816 109.538 179.52 109.364 179.199 109.253ZM159.489 114.944C159.456 115.039 159.405 115.127 159.338 115.202C159.271 115.277 159.19 115.338 159.099 115.381C159.008 115.424 158.91 115.449 158.809 115.453C158.709 115.458 158.609 115.443 158.514 115.408C158.419 115.375 158.332 115.324 158.257 115.256C158.182 115.189 158.121 115.108 158.078 115.017C158.035 114.926 158.01 114.827 158.006 114.727C158.001 114.626 158.017 114.525 158.051 114.431L160.22 108.325C160.291 108.137 160.433 107.984 160.615 107.9C160.797 107.816 161.005 107.806 161.194 107.873C161.383 107.94 161.538 108.079 161.625 108.26C161.712 108.441 161.724 108.649 161.657 108.838L159.489 114.944ZM163.436 116.36C163.367 116.551 163.226 116.706 163.044 116.793C162.861 116.88 162.652 116.891 162.461 116.824C162.273 116.753 162.12 116.611 162.034 116.429C161.948 116.247 161.935 116.039 161.998 115.847L164.179 109.742C164.247 109.552 164.387 109.398 164.569 109.312C164.75 109.226 164.958 109.216 165.147 109.284C165.336 109.352 165.491 109.492 165.576 109.674C165.662 109.856 165.672 110.065 165.604 110.255L163.436 116.36ZM167.383 117.777C167.315 117.966 167.175 118.121 166.993 118.207C166.811 118.293 166.603 118.303 166.414 118.235C166.225 118.167 166.071 118.026 165.985 117.844C165.9 117.662 165.89 117.453 165.957 117.264L168.126 111.158C168.208 110.988 168.35 110.854 168.525 110.782C168.7 110.71 168.896 110.705 169.074 110.769C169.252 110.832 169.4 110.96 169.491 111.126C169.581 111.293 169.607 111.487 169.563 111.671L167.383 117.777ZM171.342 119.181C171.259 119.352 171.117 119.486 170.942 119.558C170.767 119.63 170.572 119.634 170.394 119.571C170.216 119.507 170.067 119.38 169.977 119.213C169.886 119.047 169.861 118.853 169.904 118.668L172.073 112.563C172.144 112.374 172.285 112.221 172.467 112.134C172.648 112.048 172.856 112.035 173.047 112.099C173.142 112.131 173.23 112.183 173.305 112.25C173.38 112.317 173.44 112.399 173.483 112.49C173.527 112.58 173.551 112.679 173.556 112.78C173.56 112.88 173.545 112.981 173.51 113.075L171.342 119.181ZM174.326 121.062C174.231 121.029 174.144 120.977 174.069 120.91C173.994 120.843 173.933 120.762 173.89 120.671C173.847 120.58 173.822 120.481 173.818 120.38C173.813 120.28 173.829 120.179 173.863 120.085L176.032 113.979C176.063 113.883 176.113 113.795 176.179 113.719C176.245 113.643 176.325 113.581 176.415 113.536C176.505 113.492 176.603 113.466 176.704 113.46C176.804 113.453 176.904 113.468 176.999 113.501C177.094 113.534 177.181 113.586 177.256 113.653C177.33 113.721 177.39 113.803 177.433 113.894C177.476 113.985 177.5 114.084 177.504 114.184C177.508 114.285 177.492 114.385 177.457 114.48L175.289 120.585C175.222 120.77 175.088 120.921 174.914 121.01C174.74 121.098 174.538 121.117 174.351 121.062H174.326Z" fill="#FF876C"/>
<path d="M158.941 104.76L158.429 106.2L180.198 113.991L180.71 112.55C180.924 111.942 180.904 111.276 180.654 110.682C180.404 110.088 179.941 109.609 179.357 109.339L161.962 103.135C161.347 102.983 160.698 103.065 160.14 103.365C159.582 103.665 159.155 104.162 158.941 104.76V104.76Z" fill="#E67A61"/>
<path d="M157.552 103.941C157.515 104.041 157.499 104.148 157.504 104.255C157.508 104.361 157.534 104.466 157.579 104.562C157.625 104.659 157.689 104.746 157.768 104.817C157.847 104.889 157.939 104.944 158.039 104.979L181.319 113.295C181.522 113.366 181.745 113.352 181.939 113.259C182.133 113.165 182.282 112.998 182.354 112.795L183.17 110.462C183.207 110.362 183.224 110.256 183.219 110.149C183.214 110.042 183.189 109.938 183.143 109.841C183.098 109.745 183.034 109.658 182.955 109.586C182.876 109.515 182.784 109.46 182.683 109.424L159.416 101.108C159.212 101.038 158.989 101.051 158.795 101.145C158.601 101.239 158.452 101.405 158.381 101.609L157.552 103.941Z" fill="#FF876C"/>
<path d="M162.912 104.723C162.692 104.637 162.501 104.488 162.364 104.295C162.206 104.054 162.149 103.759 162.206 103.476C162.263 103.192 162.429 102.943 162.668 102.781L171.196 97.0662C171.314 96.9845 171.448 96.9275 171.588 96.8986C171.729 96.8697 171.875 96.8694 172.015 96.8979C172.156 96.9264 172.29 96.983 172.409 97.0644C172.527 97.1457 172.629 97.2502 172.706 97.3715C172.786 97.4908 172.842 97.6247 172.87 97.7656C172.897 97.9065 172.897 98.0515 172.869 98.1923C172.841 98.3331 172.785 98.4669 172.705 98.5859C172.624 98.7049 172.521 98.8069 172.402 98.8858L163.874 104.601C163.732 104.694 163.57 104.753 163.401 104.774C163.232 104.796 163.061 104.778 162.9 104.723H162.912Z" fill="#62BEFB"/>
<path d="M177.762 109.998C177.982 110.077 178.223 110.077 178.444 109.998C178.582 109.959 178.71 109.893 178.821 109.803C178.933 109.713 179.025 109.601 179.092 109.474C179.159 109.348 179.2 109.209 179.212 109.066C179.224 108.923 179.207 108.779 179.163 108.643L176.141 98.7758C176.053 98.5012 175.86 98.2727 175.604 98.1396C175.348 98.0065 175.051 97.9796 174.776 98.0646C174.501 98.1496 174.27 98.3397 174.133 98.5939C173.997 98.8481 173.965 99.1459 174.046 99.423L177.092 109.278C177.138 109.441 177.223 109.591 177.34 109.715C177.456 109.838 177.601 109.931 177.762 109.986V109.998Z" fill="#62BEFB"/>
<path d="M20.3612 92.4503H19.1431V103.025H20.3612V92.4503Z" fill="#FF876C"/>
<path d="M25.0269 97.1273H14.4775V98.3484H25.0269V97.1273Z" fill="#FF876C"/>
</g>
<defs>
<clipPath id="clip0_4:1168">
<rect width="200" height="119" fill="white" transform="translate(0 29)"/>
</clipPath>
</defs>
</svg>
