<svg id="a84149fc-9620-4b18-b352-0b65ddbb0126" data-name="Layer 1" xmlns="http://www.w3.org/2000/svg" viewBox="0 0 16.82 20.48"><title>copy-to-clipboard</title><path d="M12.92,8.81h-9a.63.63,0,0,1,0-1.26h9a.63.63,0,1,1,0,1.26Z" transform="translate(-0.02 0)" fill="#b1b1b3"/><path d="M8.92,12.7h-5a.63.63,0,0,1,0-1.26h5a.63.63,0,0,1,0,1.26Z" transform="translate(-0.02 0)" fill="#b1b1b3"/><path d="M16.12,16.11h-2v-2a.73.73,0,1,0-1.45,0v2h-2a.73.73,0,0,0,0,1.45h2v2a.73.73,0,1,0,1.45,0v-2h2a.73.73,0,1,0,0-1.45h0Z" transform="translate(-0.02 0)" fill="#b1b1b3"/><path d="M3,1.55a3,3,0,0,0-3,3V17.48a3,3,0,0,0,3,3H9.15V19.24H3a1.76,1.76,0,0,1-1.76-1.76V4.55A1.76,1.76,0,0,1,3,2.81h.82V1.55Z" transform="translate(-0.02 0)" fill="#b1b1b3"/><path d="M13.84,1.55h-.57V2.81h.55a1.76,1.76,0,0,1,1.76,1.74v8h1.26v-8A3,3,0,0,0,13.84,1.55Z" transform="translate(-0.02 0)" fill="#b1b1b3"/><rect x="5.02" y="1.2" width="7.03" height="0.35" fill="#fff" fill-opacity="0"/><rect x="5.02" y="2.81" width="7.03" height="0.17" fill="#fff" fill-opacity="0"/><rect x="5.02" y="1.55" width="7.03" height="1.26" fill="#fff" fill-opacity="0"/><path d="M12.67,3.32a.26.26,0,0,1-.26.26H4.7a.26.26,0,0,1-.26-.26V2.81h-.6v.51a.87.87,0,0,0,.86.86h7.71a.87.87,0,0,0,.86-.86V2.81h-.6Z" transform="translate(-0.02 0)" fill="#b1b1b3"/><path d="M4.44.86A.26.26,0,0,1,4.7.6h7.71a.26.26,0,0,1,.26.26v.69h.6V.86A.87.87,0,0,0,12.41,0H4.7a.87.87,0,0,0-.86.86v.69h.6Z" transform="translate(-0.02 0)" fill="#b1b1b3"/><rect x="3.82" y="1.55" width="0.6" height="1.26" fill="#b1b1b3"/><rect x="12.65" y="1.55" width="0.6" height="1.26" fill="#b1b1b3"/><path d="M12.41.6H4.7a.26.26,0,0,0-.26.26v.69H5V1.2h7v.35h.6V.86A.26.26,0,0,0,12.41.6Z" transform="translate(-0.02 0)" fill="#b1b1b3"/><path d="M12.07,3H5V2.81h-.6v.51a.26.26,0,0,0,.26.26h7.71a.26.26,0,0,0,.26-.26V2.81h-.6Z" transform="translate(-0.02 0)" fill="#b1b1b3"/><rect x="4.42" y="1.55" width="0.6" height="1.26" fill="#b1b1b3"/><rect x="12.05" y="1.55" width="0.6" height="1.26" fill="#b1b1b3"/></svg>