<svg id="Layer_1" data-name="Layer 1" xmlns="http://www.w3.org/2000/svg" viewBox="0 0 16.85 20.49"><title>copy-to-clipboard</title><path d="M14,9.26H5A.63.63,0,1,1,5,8H14a.63.63,0,0,1,0,1.26Z" transform="translate(-1.08 -0.45)" fill="#b1b1b3"/><path d="M4.1,19.69a1.76,1.76,0,0,1-1.76-1.76V5A1.76,1.76,0,0,1,4.1,3.26H14.9A1.76,1.76,0,0,1,16.66,5v8h1.26V5a3,3,0,0,0-3-3H4.1a3,3,0,0,0-3,3V17.93a3,3,0,0,0,3,3h6.13V19.69Z" transform="translate(-1.08 -0.45)" fill="#b1b1b3"/><path d="M10,13.15H5a.63.63,0,0,1,0-1.26H10a.63.63,0,0,1,0,1.26Z" transform="translate(-1.08 -0.45)" fill="#b1b1b3"/><path d="M17.2,16.56h-2v-2a.72.72,0,0,0-1.45,0v2h-2a.72.72,0,0,0,0,1.45h2v2a.72.72,0,1,0,1.45,0V18h2a.72.72,0,0,0,0-1.45Z" transform="translate(-1.08 -0.45)" fill="#b1b1b3"/><rect x="4.44" y="0.6" width="8.23" height="2.98" rx="0.26" ry="0.26" fill="#fff" stroke="#b1b1b3" stroke-miterlimit="10" stroke-width="1.2"/></svg>
