<svg data-name="Layer 1" xmlns="http://www.w3.org/2000/svg" viewBox="0 0 16.36 19.91"><path d="M3.8 7.34a.62.62 0 00-.62.62.61.61 0 00.62.61h8.75a.61.61 0 00.61-.61.62.62 0 00-.61-.62zM8.66 11.13H3.8a.61.61 0 100 1.22h4.86a.61.61 0 000-1.22zM15.66 15.66h-1.91v-1.94a.7.7 0 00-.7-.7.7.7 0 00-.71.7v2h-1.98a.7.7 0 00-.71.7.71.71 0 00.71.71h1.94v1.89a.71.71 0 00.71.71.7.7 0 00.7-.71v-1.95h1.95a.7.7 0 00.7-.71.7.7 0 00-.7-.7z" fill="#b1b1b3"/><path d="M1.21 17V4.43a1.71 1.71 0 011.71-1.71h.83v.49a.84.84 0 00.83.84h7.5a.85.85 0 00.84-.84v-.49h.53a1.71 1.71 0 011.71 1.69v7.78h1.23V4.43a2.92 2.92 0 00-2.92-2.92h-.55V.84a.85.85 0 00-.87-.84h-7.5a.84.84 0 00-.8.84v.67h-.8A2.92 2.92 0 000 4.43V17a2.92 2.92 0 002.92 2.92h6v-1.2h-6A1.72 1.72 0 011.21 17zM4.8 3V1.09h7v1.9z" fill="#b1b1b3"/></svg>