<?xml version="1.0" encoding="UTF-8" standalone="no"?>
<svg
   width="300"
   height="170.83099"
   viewBox="0 0 300 170.83099"
   fill="none"
   version="1.1"
   id="svg4"
   xmlns="http://www.w3.org/2000/svg"
   xmlns:svg="http://www.w3.org/2000/svg">
  <defs
     id="defs8" />
  <rect
     width="300"
     height="154.054"
     rx="8"
     fill="#f5f7f9"
     id="rect2"
     x="0"
     y="4" />
  <g
     id="g1122"
     transform="translate(-47.362299,79.829773)">
    <path
       d="m 215.7603,20.250225 c -22.336,-12.9443 -43.572,-5.3933 -51.398,0 6.7684,-17.0265 32.044,-51.08 79,-51.08 46.956,0 72.232,34.0535 79,51.08 -21.828,-12.9443 -43.995,-5.3933 -52.349,0 -22.59,-12.6905 -45.581,-5.2875 -54.253,0 z"
       fill="#ef6fff"
       id="path2" />
    <path
       d="m 270.0133,20.251225 c -23.161,-12.3739 -40.928,-5.394 -54.253,0 0,-30.7759 18.295,-46.7713 27.285,-51.0808 19.544,9.8381 26.122,38.047 26.968,51.0808 z"
       fill="#9a5bff"
       id="path4" />
    <rect
       x="241.1413"
       y="14.222624"
       width="2.5381501"
       height="46.955799"
       fill="#cccccc"
       id="rect6" />
    <rect
       x="239.87228"
       y="61.813229"
       width="5.0763102"
       height="15.8635"
       fill="#ef6fff"
       id="rect8" />
    <path
       fill-rule="evenodd"
       clip-rule="evenodd"
       d="m 239.8723,77.676225 c 0,0 0,0 0,0 0,7.36 5.966,13.325 13.325,13.325 7.36,0 13.326,-5.965 13.326,-13.325 0,0 0,0 0,0 h -5.077 c 0,0 0,0 0,0 0,4.556 -3.693,8.249 -8.249,8.249 -4.555,0 -8.249,-3.693 -8.249,-8.249 0,0 0,0 0,0 z"
       fill="#ef6fff"
       id="path10" />
    <line
       x1="168.36229"
       y1="-32.829777"
       x2="168.36229"
       y2="-14.829775"
       stroke="#0060df"
       stroke-width="2"
       stroke-linecap="round"
       id="line12" />
    <line
       x1="156.36229"
       y1="16.170225"
       x2="156.36229"
       y2="52.170223"
       stroke="#0060df"
       stroke-width="2"
       stroke-linecap="round"
       id="line14" />
    <line
       x1="128.36229"
       y1="17.170225"
       x2="128.36229"
       y2="35.170223"
       stroke="#0060df"
       stroke-width="2"
       stroke-linecap="round"
       id="line16" />
    <line
       x1="179.36229"
       y1="-49.829777"
       x2="179.36229"
       y2="-31.829775"
       stroke="#0060df"
       stroke-width="2"
       stroke-linecap="round"
       id="line18" />
    <line
       x1="156.36229"
       y1="-58.829777"
       x2="156.36229"
       y2="-40.829777"
       stroke="#0060df"
       stroke-width="2"
       stroke-linecap="round"
       id="line20" />
    <line
       x1="306.3623"
       y1="-28.829775"
       x2="306.3623"
       y2="-10.829775"
       stroke="#0060df"
       stroke-width="2"
       stroke-linecap="round"
       id="line22" />
    <line
       x1="199.36229"
       y1="-42.829777"
       x2="199.36229"
       y2="-24.829775"
       stroke="#0060df"
       stroke-width="2"
       stroke-linecap="round"
       id="line24" />
    <line
       x1="105.3623"
       y1="14.170225"
       x2="105.3623"
       y2="32.170223"
       stroke="#0060df"
       stroke-width="2"
       stroke-linecap="round"
       id="line26" />
    <line
       x1="142.36229"
       y1="42.170223"
       x2="142.36229"
       y2="60.170223"
       stroke="#0060df"
       stroke-width="2"
       stroke-linecap="round"
       id="line28" />
    <line
       x1="156.36229"
       y1="-29.829775"
       x2="156.36229"
       y2="-11.829775"
       stroke="#0060df"
       stroke-width="2"
       stroke-linecap="round"
       id="line30" />
    <line
       x1="294.3623"
       y1="-53.829777"
       x2="294.3623"
       y2="-35.829777"
       stroke="#0060df"
       stroke-width="2"
       stroke-linecap="round"
       id="line32" />
    <line
       x1="207.36229"
       y1="-68.829773"
       x2="207.36229"
       y2="-50.829777"
       stroke="#0060df"
       stroke-width="2"
       stroke-linecap="round"
       id="line34" />
    <line
       x1="96.362297"
       y1="-68.829773"
       x2="96.362297"
       y2="-25.829775"
       stroke="#0060df"
       stroke-width="2"
       stroke-linecap="round"
       id="line36" />
    <line
       x1="316.3623"
       y1="-60.829777"
       x2="316.3623"
       y2="-42.829777"
       stroke="#0060df"
       stroke-width="2"
       stroke-linecap="round"
       id="line38" />
    <line
       x1="113.3623"
       y1="-11.829775"
       x2="113.3623"
       y2="6.1702251"
       stroke="#0060df"
       stroke-width="2"
       stroke-linecap="round"
       id="line40" />
    <line
       x1="83.362297"
       y1="-4.8297749"
       x2="83.362297"
       y2="13.170225"
       stroke="#0060df"
       stroke-width="2"
       stroke-linecap="round"
       id="line42" />
    <line
       x1="294.3623"
       y1="-78.829773"
       x2="294.3623"
       y2="-60.829777"
       stroke="#0060df"
       stroke-width="2"
       stroke-linecap="round"
       id="line44" />
    <line
       x1="281.3623"
       y1="-63.829777"
       x2="281.3623"
       y2="-45.829777"
       stroke="#0060df"
       stroke-width="2"
       stroke-linecap="round"
       id="line46" />
    <line
       x1="271.3623"
       y1="-52.829777"
       x2="271.3623"
       y2="-34.829777"
       stroke="#0060df"
       stroke-width="2"
       stroke-linecap="round"
       id="line48" />
    <line
       x1="249.36229"
       y1="-67.829773"
       x2="249.36229"
       y2="-41.829777"
       stroke="#0060df"
       stroke-width="2"
       stroke-linecap="round"
       id="line50" />
    <line
       x1="113.3623"
       y1="-51.829777"
       x2="113.3623"
       y2="-25.829775"
       stroke="#0060df"
       stroke-width="2"
       stroke-linecap="round"
       id="line52" />
    <line
       x1="105.3623"
       y1="-39.829777"
       x2="105.3623"
       y2="-13.829775"
       stroke="#0060df"
       stroke-width="2"
       stroke-linecap="round"
       id="line54" />
    <line
       x1="83.362297"
       y1="-39.829777"
       x2="83.362297"
       y2="-13.829775"
       stroke="#0060df"
       stroke-width="2"
       stroke-linecap="round"
       id="line56" />
    <line
       x1="73.362297"
       y1="-24.829775"
       x2="73.362297"
       y2="24.170225"
       stroke="#0060df"
       stroke-width="2"
       stroke-linecap="round"
       id="line58" />
    <line
       x1="216.36229"
       y1="-78.829773"
       x2="216.36229"
       y2="-60.829777"
       stroke="#0060df"
       stroke-width="2"
       stroke-linecap="round"
       id="line60" />
    <line
       x1="227.36229"
       y1="-52.829777"
       x2="227.36229"
       y2="-34.829777"
       stroke="#0060df"
       stroke-width="2"
       stroke-linecap="round"
       id="line62" />
    <line
       x1="190.36229"
       y1="-29.829775"
       x2="190.36229"
       y2="-20.829775"
       stroke="#0060df"
       stroke-width="2"
       stroke-linecap="round"
       id="line64" />
    <line
       x1="190.36229"
       y1="-78.829773"
       x2="190.36229"
       y2="-60.829777"
       stroke="#0060df"
       stroke-width="2"
       stroke-linecap="round"
       id="line66" />
    <line
       x1="128.36229"
       y1="-62.829777"
       x2="128.36229"
       y2="-44.829777"
       stroke="#0060df"
       stroke-width="2"
       stroke-linecap="round"
       id="line68" />
    <line
       x1="96.362297"
       y1="27.170225"
       x2="96.362297"
       y2="36.170223"
       stroke="#0060df"
       stroke-width="2"
       stroke-linecap="round"
       id="line70" />
    <line
       x1="113.3623"
       y1="39.170223"
       x2="113.3623"
       y2="48.170223"
       stroke="#0060df"
       stroke-width="2"
       stroke-linecap="round"
       id="line72" />
    <line
       x1="128.36229"
       y1="-22.829775"
       x2="128.36229"
       y2="-13.829775"
       stroke="#0060df"
       stroke-width="2"
       stroke-linecap="round"
       id="line74" />
    <line
       x1="142.36229"
       y1="-48.829777"
       x2="142.36229"
       y2="-30.829775"
       stroke="#0060df"
       stroke-width="2"
       stroke-linecap="round"
       id="line76" />
    <line
       x1="105.3623"
       y1="43.170223"
       x2="105.3623"
       y2="61.170223"
       stroke="#0060df"
       stroke-width="2"
       stroke-linecap="round"
       id="line78" />
    <line
       x1="190.36229"
       y1="-53.829777"
       x2="190.36229"
       y2="-44.829777"
       stroke="#0060df"
       stroke-width="2"
       stroke-linecap="round"
       id="line80" />
    <line
       x1="142.36229"
       y1="-2.8297751"
       x2="142.36229"
       y2="11.170225"
       stroke="#0060df"
       stroke-width="2"
       stroke-linecap="round"
       id="line82" />
    <line
       x1="83.362297"
       y1="23.170225"
       x2="83.362297"
       y2="41.170223"
       stroke="#0060df"
       stroke-width="2"
       stroke-linecap="round"
       id="line84" />
    <line
       x1="128.36229"
       y1="-0.82977498"
       x2="128.36229"
       y2="8.1702251"
       stroke="#0060df"
       stroke-width="2"
       stroke-linecap="round"
       id="line86" />
    <line
       x1="142.36229"
       y1="-70.829773"
       x2="142.36229"
       y2="-61.829777"
       stroke="#0060df"
       stroke-width="2"
       stroke-linecap="round"
       id="line88" />
    <line
       x1="179.36229"
       y1="-22.829775"
       x2="179.36229"
       y2="-13.829775"
       stroke="#0060df"
       stroke-width="2"
       stroke-linecap="round"
       id="line90" />
    <line
       x1="96.362297"
       y1="3.1702249"
       x2="96.362297"
       y2="12.170225"
       stroke="#0060df"
       stroke-width="2"
       stroke-linecap="round"
       id="line92" />
    <line
       x1="128.36229"
       y1="-37.829777"
       x2="128.36229"
       y2="-28.829775"
       stroke="#0060df"
       stroke-width="2"
       stroke-linecap="round"
       id="line94" />
    <line
       x1="156.36229"
       y1="-1.829775"
       x2="156.36229"
       y2="7.1702251"
       stroke="#0060df"
       stroke-width="2"
       stroke-linecap="round"
       id="line96" />
    <line
       x1="168.36229"
       y1="-58.829777"
       x2="168.36229"
       y2="-49.829777"
       stroke="#0060df"
       stroke-width="2"
       stroke-linecap="round"
       id="line98" />
    <line
       x1="142.36229"
       y1="-23.829775"
       x2="142.36229"
       y2="-14.829775"
       stroke="#0060df"
       stroke-width="2"
       stroke-linecap="round"
       id="line100" />
    <line
       x1="96.362297"
       y1="-14.829775"
       x2="96.362297"
       y2="-5.8297749"
       stroke="#0060df"
       stroke-width="2"
       stroke-linecap="round"
       id="line102" />
    <line
       x1="199.36229"
       y1="-58.829777"
       x2="199.36229"
       y2="-49.829777"
       stroke="#0060df"
       stroke-width="2"
       stroke-linecap="round"
       id="line104" />
    <line
       x1="294.3623"
       y1="-29.829775"
       x2="294.3623"
       y2="-20.829775"
       stroke="#0060df"
       stroke-width="2"
       stroke-linecap="round"
       id="line106" />
    <line
       x1="179.36229"
       y1="-69.829773"
       x2="179.36229"
       y2="-60.829777"
       stroke="#0060df"
       stroke-width="2"
       stroke-linecap="round"
       id="line108" />
    <line
       x1="271.3623"
       y1="-78.829773"
       x2="271.3623"
       y2="-69.829773"
       stroke="#0060df"
       stroke-width="2"
       stroke-linecap="round"
       id="line110" />
    <line
       x1="306.3623"
       y1="-64.829773"
       x2="306.3623"
       y2="-55.829777"
       stroke="#0060df"
       stroke-width="2"
       stroke-linecap="round"
       id="line112" />
    <line
       x1="105.3623"
       y1="-1.829775"
       x2="105.3623"
       y2="7.1702251"
       stroke="#0060df"
       stroke-width="2"
       stroke-linecap="round"
       id="line114" />
    <line
       x1="105.3623"
       y1="-62.829777"
       x2="105.3623"
       y2="-53.829777"
       stroke="#0060df"
       stroke-width="2"
       stroke-linecap="round"
       id="line116" />
    <line
       x1="306.3623"
       y1="-43.829777"
       x2="306.3623"
       y2="-34.829777"
       stroke="#0060df"
       stroke-width="2"
       stroke-linecap="round"
       id="line118" />
    <line
       x1="142.36229"
       y1="26.170225"
       x2="142.36229"
       y2="35.170223"
       stroke="#0060df"
       stroke-width="2"
       stroke-linecap="round"
       id="line120" />
    <line
       x1="260.3623"
       y1="-51.829777"
       x2="260.3623"
       y2="-42.829777"
       stroke="#0060df"
       stroke-width="2"
       stroke-linecap="round"
       id="line122" />
    <line
       x1="260.3623"
       y1="-67.829773"
       x2="260.3623"
       y2="-58.829777"
       stroke="#0060df"
       stroke-width="2"
       stroke-linecap="round"
       id="line124" />
    <line
       x1="239.36229"
       y1="-58.829777"
       x2="239.36229"
       y2="-49.829777"
       stroke="#0060df"
       stroke-width="2"
       stroke-linecap="round"
       id="line126" />
    <line
       x1="207.36229"
       y1="-42.829777"
       x2="207.36229"
       y2="-33.829777"
       stroke="#0060df"
       stroke-width="2"
       stroke-linecap="round"
       id="line128" />
    <line
       x1="239.36229"
       y1="-43.829777"
       x2="239.36229"
       y2="-37.829777"
       stroke="#0060df"
       stroke-width="2"
       stroke-linecap="round"
       id="line130" />
    <line
       x1="128.36229"
       y1="46.170223"
       x2="128.36229"
       y2="52.170223"
       stroke="#0060df"
       stroke-width="2"
       stroke-linecap="round"
       id="line132" />
    <line
       x1="128.36229"
       y1="59.170223"
       x2="128.36229"
       y2="73.170227"
       stroke="#0060df"
       stroke-width="2"
       stroke-linecap="round"
       id="line134" />
    <line
       x1="156.36229"
       y1="59.170223"
       x2="156.36229"
       y2="65.170227"
       stroke="#0060df"
       stroke-width="2"
       stroke-linecap="round"
       id="line136" />
    <line
       x1="239.36229"
       y1="-72.829773"
       x2="239.36229"
       y2="-66.829773"
       stroke="#0060df"
       stroke-width="2"
       stroke-linecap="round"
       id="line138" />
    <line
       x1="227.36229"
       y1="-69.829773"
       x2="227.36229"
       y2="-60.829777"
       stroke="#0060df"
       stroke-width="2"
       stroke-linecap="round"
       id="line140" />
    <line
       x1="113.3623"
       y1="14.170225"
       x2="113.3623"
       y2="30.170225"
       stroke="#0060df"
       stroke-width="2"
       stroke-linecap="round"
       id="line142" />
    <line
       x1="216.36229"
       y1="-51.829777"
       x2="216.36229"
       y2="-42.829777"
       stroke="#0060df"
       stroke-width="2"
       stroke-linecap="round"
       id="line144" />
    <line
       x1="281.3623"
       y1="-37.829777"
       x2="281.3623"
       y2="-28.829775"
       stroke="#0060df"
       stroke-width="2"
       stroke-linecap="round"
       id="line146" />
  </g>
</svg>
