<svg width="50" height="50" viewBox="0 0 50 50" fill="none" xmlns="http://www.w3.org/2000/svg">
<rect width="50" height="50" rx="4" fill="#F5F7F9"/>
<rect x="25.306" y="34.1164" width="0.958697" height="2.63642" fill="#C4C4C4"/>
<rect x="24.8267" y="36.9925" width="1.91739" height="5.99186" fill="#ED6EFF"/>
<path fill-rule="evenodd" clip-rule="evenodd" d="M24.8267 42.9843C24.8267 45.764 27.0801 48.0174 29.8598 48.0174C32.6395 48.0174 34.8929 45.764 34.893 42.9843H32.9756C32.9755 44.7051 31.5806 46.1 29.8598 46.1C28.1391 46.1 26.7441 44.7051 26.7441 42.9843H24.8267Z" fill="#ED6EFF"/>
<path d="M35.143 33.8767L37.05 31.7516L25.9654 1.99999L15 31.7516L16.907 33.8767L19.0525 31.7516L21.5554 33.8767L23.7008 31.7516L25.9654 33.8767L28.3492 31.7516L30.4946 33.8767L32.9976 31.7516L35.143 33.8767Z" fill="#ED6EFF"/>
<path d="M30.5017 33.8767L32.9756 31.6482L26.025 1.99999L28.3812 31.6482L30.5017 33.8767Z" fill="#995BFF"/>
<path d="M21.5484 33.8767L19.0745 31.6482L26.025 1.99999L23.6689 31.6482L21.5484 33.8767Z" fill="#995BFF"/>
</svg>
