<svg width="300" height="154" viewBox="0 0 300 154" fill="none" xmlns="http://www.w3.org/2000/svg">
<rect x="299.895" y="154" width="299.895" height="154" rx="8" transform="rotate(180 299.895 154)" fill="url(#paint0_linear_2_5394)"/>
<path d="M91.9247 141.424C91.9234 141.539 91.9632 141.65 92.0368 141.737C92.1104 141.824 92.2128 141.882 92.3252 141.899C93.2596 142.065 95.8746 142.69 96.762 143.583C97.6493 144.477 98.2697 147.11 98.4346 148.059C98.4548 148.17 98.513 148.27 98.5991 148.342C98.6852 148.414 98.7937 148.454 98.9058 148.454L98.9058 141.424L91.9247 141.424Z" fill="#FFEA80"/>
<path d="M98.9056 148.485C99.0188 148.485 99.1283 148.444 99.2145 148.37C99.3007 148.297 99.3582 148.194 99.3768 148.082C99.526 147.141 100.115 144.5 100.994 143.614C101.874 142.729 104.536 142.096 105.486 141.93C105.598 141.911 105.699 141.853 105.773 141.767C105.846 141.68 105.886 141.57 105.887 141.456L98.8978 141.456L98.9056 148.485Z" fill="#FFD567"/>
<path d="M98.9058 141.424L98.9058 134.386C98.793 134.388 98.6844 134.429 98.5984 134.503C98.5125 134.576 98.4546 134.678 98.4346 134.789C98.2697 135.746 97.6493 138.419 96.762 139.312C95.8746 140.206 93.2596 140.791 92.3252 140.941C92.2142 140.962 92.1136 141.02 92.0405 141.106C91.9675 141.193 91.9265 141.302 91.9247 141.416L98.9058 141.416L98.9058 141.424Z" fill="#FFD567"/>
<path d="M105.895 141.424C105.894 141.309 105.852 141.198 105.778 141.111C105.703 141.024 105.599 140.966 105.486 140.949C104.536 140.799 101.89 140.206 101.002 139.321C100.115 138.435 99.5338 135.762 99.3846 134.805C99.3663 134.692 99.3091 134.589 99.223 134.514C99.1369 134.439 99.0273 134.396 98.9134 134.394L98.9134 141.432L105.895 141.424Z" fill="#FFA266"/>
<path d="M217.925 71.4243C217.923 71.5387 217.963 71.6498 218.037 71.7369C218.11 71.8241 218.213 71.8816 218.325 71.8988C219.26 72.0648 221.875 72.6895 222.762 73.583C223.649 74.4766 224.27 77.1098 224.435 78.0587C224.455 78.1697 224.513 78.27 224.599 78.3422C224.685 78.4145 224.794 78.454 224.906 78.454L224.906 71.4243L217.925 71.4243Z" fill="#FFEA80"/>
<path d="M224.906 78.4853C225.019 78.485 225.128 78.4443 225.214 78.3705C225.301 78.2966 225.358 78.1945 225.377 78.082C225.526 77.141 226.115 74.4999 226.994 73.6143C227.874 72.7287 230.536 72.0961 231.486 71.93C231.598 71.9113 231.699 71.8534 231.773 71.7666C231.846 71.6797 231.886 71.5695 231.887 71.4556L224.898 71.4556L224.906 78.4853Z" fill="#FFD567"/>
<path d="M224.906 71.4238L224.906 64.3861C224.793 64.388 224.684 64.4292 224.598 64.5028C224.513 64.5763 224.455 64.6776 224.435 64.7894C224.27 65.7462 223.649 68.4189 222.762 69.3125C221.875 70.206 219.26 70.7912 218.325 70.9414C218.214 70.9615 218.114 71.0199 218.041 71.1064C217.967 71.1929 217.927 71.3023 217.925 71.4159L224.906 71.4159L224.906 71.4238Z" fill="#FFD567"/>
<path d="M231.895 71.4239C231.894 71.3088 231.852 71.1976 231.778 71.1106C231.703 71.0236 231.599 70.9665 231.486 70.9495C230.536 70.7992 227.89 70.2062 227.002 69.3205C226.115 68.4349 225.534 65.7622 225.385 64.8054C225.366 64.6922 225.309 64.589 225.223 64.5139C225.137 64.4387 225.027 64.3964 224.913 64.3942L224.913 71.4318L231.895 71.4239Z" fill="#FFA266"/>
<path d="M71.4268 107.211C71.424 107.297 71.453 107.381 71.5081 107.447C71.5632 107.512 71.6405 107.555 71.7252 107.567C72.4241 107.693 74.3951 108.168 75.0547 108.832C75.7144 109.496 76.1855 111.481 76.3112 112.185C76.3259 112.269 76.3693 112.345 76.4338 112.399C76.4984 112.454 76.58 112.485 76.6646 112.485L76.6646 107.211L71.4268 107.211Z" fill="#FFEA80"/>
<path d="M76.6646 112.485C76.7491 112.485 76.8307 112.454 76.8953 112.399C76.9598 112.345 77.0032 112.269 77.0179 112.185C77.1279 111.473 77.5676 109.496 78.2273 108.832C78.8869 108.168 80.8893 107.693 81.5961 107.575C81.6806 107.56 81.7571 107.515 81.8118 107.448C81.8665 107.382 81.8958 107.297 81.8945 107.211L76.6567 107.211L76.6646 112.485Z" fill="#FFD567"/>
<path d="M76.6646 107.211L76.6646 101.937C76.58 101.937 76.4984 101.968 76.4338 102.022C76.3693 102.077 76.3259 102.153 76.3112 102.237C76.1855 102.957 75.7222 104.965 75.0547 105.629C74.3873 106.294 72.4319 106.736 71.733 106.855C71.6477 106.867 71.5695 106.909 71.5131 106.975C71.4567 107.04 71.426 107.124 71.4268 107.211L76.6646 107.211Z" fill="#FFD567"/>
<path d="M81.8865 107.211C81.8893 107.125 81.8603 107.041 81.8052 106.975C81.7501 106.91 81.6728 106.867 81.5881 106.855C80.8735 106.736 78.8868 106.294 78.2193 105.629C77.5518 104.965 77.1199 102.957 77.01 102.245C76.9955 102.16 76.9524 102.084 76.888 102.027C76.8236 101.971 76.7418 101.939 76.6566 101.937L76.6566 107.211L81.8865 107.211Z" fill="#FFA266"/>
<path d="M247.427 102.211C247.424 102.297 247.453 102.381 247.508 102.447C247.563 102.512 247.641 102.555 247.725 102.567C248.424 102.693 250.395 103.168 251.055 103.832C251.714 104.496 252.186 106.481 252.311 107.185C252.326 107.269 252.369 107.345 252.434 107.399C252.498 107.454 252.58 107.485 252.665 107.485L252.665 102.211L247.427 102.211Z" fill="#FFEA80"/>
<path d="M252.665 107.485C252.749 107.485 252.831 107.454 252.895 107.399C252.96 107.345 253.003 107.269 253.018 107.185C253.128 106.473 253.568 104.496 254.227 103.832C254.887 103.168 256.889 102.693 257.596 102.575C257.681 102.56 257.757 102.515 257.812 102.448C257.866 102.382 257.896 102.297 257.894 102.211L252.657 102.211L252.665 107.485Z" fill="#FFD567"/>
<path d="M252.665 102.211L252.665 96.9367C252.58 96.9372 252.498 96.9676 252.434 97.0225C252.369 97.0774 252.326 97.1533 252.311 97.2371C252.186 97.9567 251.722 99.9652 251.055 100.629C250.387 101.294 248.432 101.736 247.733 101.855C247.648 101.867 247.569 101.909 247.513 101.975C247.457 102.04 247.426 102.124 247.427 102.211L252.665 102.211Z" fill="#FFD567"/>
<path d="M257.887 102.211C257.889 102.125 257.86 102.041 257.805 101.975C257.75 101.91 257.673 101.867 257.588 101.855C256.874 101.736 254.887 101.294 254.219 100.629C253.552 99.9652 253.12 97.9567 253.01 97.2451C252.995 97.1605 252.952 97.0835 252.888 97.0273C252.824 96.9711 252.742 96.9391 252.657 96.9367L252.657 102.211L257.887 102.211Z" fill="#FFA266"/>
<path d="M81.5769 71.7464C81.5773 71.9536 81.6498 72.154 81.7817 72.313C81.9137 72.4719 82.0969 72.5792 82.2993 72.6162C83.9955 72.9167 88.7464 74.0474 90.3484 75.6606C91.9504 77.2737 93.0812 82.0656 93.3796 83.7657C93.4138 83.9629 93.5145 84.1421 93.6647 84.2732C93.8149 84.4043 94.0054 84.4792 94.2041 84.4853L94.2041 71.7385L81.5769 71.7464Z" fill="#FFEA80"/>
<path d="M94.2045 84.4853C94.4104 84.4843 94.6094 84.4099 94.7661 84.2753C94.9227 84.1407 95.027 83.9546 95.0604 83.7499C95.3353 82.0419 96.4032 77.2658 97.9973 75.6527C99.5915 74.0395 104.413 72.9167 106.172 72.6241C106.375 72.5886 106.559 72.4817 106.691 72.3224C106.824 72.1632 106.896 71.9619 106.895 71.7543L94.2045 71.7543L94.2045 84.4853Z" fill="#FFD567"/>
<path d="M94.2041 71.7468L94.2041 59C93.9993 59.0007 93.8012 59.0739 93.6447 59.207C93.4882 59.34 93.3832 59.5243 93.3482 59.7275C93.0497 61.4592 91.919 66.3065 90.317 67.9196C88.715 69.5327 83.972 70.6082 82.2836 70.8849C82.079 70.9169 81.8923 71.0211 81.757 71.1791C81.6218 71.337 81.5468 71.5383 81.5455 71.7468L94.2041 71.7468Z" fill="#FFD567"/>
<path d="M106.895 71.7468C106.895 71.539 106.822 71.3378 106.688 71.1797C106.554 71.0216 106.368 70.917 106.164 70.8849C104.444 70.6082 99.6386 69.5327 98.0366 67.9196C96.4347 66.3065 95.3745 61.475 95.0997 59.7433C95.0665 59.5379 94.9625 59.3508 94.806 59.2149C94.6495 59.0789 94.4504 59.0029 94.2437 59L94.2437 71.7468L106.895 71.7468Z" fill="#FFA266"/>
<path d="M203.577 128.738C203.578 128.946 203.65 129.146 203.782 129.305C203.914 129.464 204.097 129.571 204.3 129.608C205.996 129.909 210.739 131.04 212.349 132.653C213.959 134.266 215.074 139.058 215.38 140.758C215.413 140.962 215.518 141.147 215.675 141.28C215.832 141.413 216.031 141.486 216.236 141.485L216.236 128.738L203.577 128.738Z" fill="#FFEA80"/>
<path d="M216.236 141.485C216.442 141.484 216.641 141.41 216.798 141.275C216.954 141.141 217.058 140.955 217.092 140.75C217.367 139.042 218.427 134.266 220.029 132.653C221.631 131.04 226.445 129.909 228.164 129.608C228.367 129.571 228.55 129.464 228.682 129.305C228.814 129.146 228.886 128.946 228.887 128.738L216.228 128.738L216.236 141.485Z" fill="#FFD567"/>
<path d="M216.236 128.738L216.236 115.991C216.03 115.992 215.831 116.065 215.673 116.198C215.515 116.331 215.409 116.515 215.372 116.719C215.074 118.451 213.951 123.298 212.349 124.911C210.747 126.524 206.004 127.6 204.308 127.868C204.104 127.902 203.919 128.007 203.786 128.165C203.652 128.323 203.578 128.523 203.577 128.73L216.236 128.73L216.236 128.738Z" fill="#FFD567"/>
<path d="M228.895 128.738C228.893 128.53 228.818 128.328 228.683 128.17C228.548 128.013 228.361 127.908 228.156 127.876C226.444 127.607 221.639 126.532 220.037 124.919C218.435 123.306 217.375 118.474 217.1 116.743C217.067 116.537 216.963 116.35 216.806 116.214C216.649 116.078 216.45 116.002 216.244 115.999L216.244 128.738L228.895 128.738Z" fill="#FFA266"/>
<path d="M94.956 28.637V26.7289H86.3027V38.2276H88.3949V33.4574H94.3367V31.5493H88.3949V28.637H94.956Z" fill="black"/>
<path d="M97.0534 28.2688C97.6894 28.2688 98.2083 27.7164 98.2083 27.0971C98.2083 26.4779 97.6894 25.9423 97.0534 25.9423C96.4006 25.9423 95.8818 26.4779 95.8818 27.0971C95.8818 27.7164 96.4006 28.2688 97.0534 28.2688ZM96.0157 38.2276H98.0576V29.5743H96.0157V38.2276Z" fill="black"/>
<path d="M101.709 31.248V29.5743H99.6673V38.2276H101.709V33.8591C101.709 32.2188 102.948 31.1141 104.806 31.1141V29.3734C103.383 29.3734 102.262 30.0932 101.709 31.248Z" fill="black"/>
<path d="M109.655 36.6208C108.416 36.6208 107.513 35.7839 107.261 34.5955H113.789C113.789 31.3987 112.233 29.3734 109.555 29.3734C107.094 29.3734 105.153 31.2815 105.153 33.8758C105.153 36.5371 107.195 38.4284 109.672 38.4284C110.927 38.4284 112.433 37.8928 113.187 37.0894L111.898 35.7504C111.412 36.2526 110.458 36.6208 109.655 36.6208ZM109.638 31.1811C110.86 31.1811 111.596 31.951 111.831 33.039H107.278C107.579 31.9008 108.5 31.1811 109.638 31.1811Z" fill="black"/>
<path d="M117.473 28.8546C117.473 28.2688 117.841 27.8503 118.326 27.8503C118.678 27.8503 118.996 27.9842 119.18 28.1683L119.766 26.8628C119.28 26.4444 118.577 26.1766 117.925 26.1766C116.485 26.1766 115.481 27.2143 115.481 28.6705V29.5743H114.226V31.2648H115.481V38.2276H117.473V31.2648H119.431V29.5743H117.473V28.8546Z" fill="black"/>
<path d="M124.543 38.4284C127.054 38.4284 129.18 36.353 129.18 33.8926C129.18 31.4322 127.054 29.3734 124.543 29.3734C122.033 29.3734 119.907 31.4322 119.907 33.8926C119.907 36.353 122.033 38.4284 124.543 38.4284ZM124.543 36.6877C123.104 36.6877 121.899 35.4157 121.899 33.8926C121.899 32.3862 123.104 31.1141 124.543 31.1141C125.966 31.1141 127.171 32.3862 127.171 33.8926C127.171 35.4157 125.966 36.6877 124.543 36.6877Z" fill="black"/>
<path d="M138.187 38.2276L134.94 33.7921L138.036 29.5743H135.81L133.835 32.269L131.86 29.5743H129.617L132.714 33.8089L129.467 38.2276H131.693L133.818 35.332L135.927 38.2276H138.187Z" fill="black"/>
<path d="M153.197 30.361C153.197 28.2354 151.406 26.729 149.046 26.729H144.326V38.2276H145.397V33.9763H148.728L151.724 38.2276H152.963L149.916 33.9094C151.841 33.5914 153.197 32.2189 153.197 30.361ZM145.397 27.75H148.862C150.787 27.75 152.126 28.7542 152.126 30.361C152.126 31.9511 150.787 32.9553 148.862 32.9553H145.397V27.75Z" fill="black"/>
<path d="M158.265 37.4745C156.491 37.4745 155.169 36.102 154.985 34.3111H162.299C162.299 31.3318 160.759 29.3735 158.198 29.3735C155.855 29.3735 153.93 31.3151 153.93 33.8759C153.93 36.4702 155.956 38.4285 158.265 38.4285C159.537 38.4285 161.061 37.8929 161.797 37.0895L161.144 36.3865C160.542 37.0393 159.353 37.4745 158.265 37.4745ZM158.232 30.3275C160.056 30.3275 161.128 31.6163 161.261 33.357H155.002C155.219 31.5661 156.541 30.3275 158.232 30.3275Z" fill="black"/>
<path d="M163.656 38.2276H164.694V26.5281H163.656V38.2276Z" fill="black"/>
<path d="M170.003 29.3735C169.149 29.3735 168.078 29.6078 166.94 30.2104L167.358 31.064C168.145 30.6288 169.049 30.2941 169.919 30.2941C171.861 30.2941 172.43 31.6833 172.43 32.9553V33.3068C171.509 33.0055 170.471 32.788 169.534 32.788C167.593 32.788 166.103 33.9596 166.103 35.6668C166.103 37.3406 167.442 38.4285 169.25 38.4285C170.421 38.4285 171.794 37.8762 172.43 36.8552V38.2276H173.467V32.9553C173.467 30.8631 172.279 29.3735 170.003 29.3735ZM169.417 37.4912C168.128 37.4912 167.124 36.7715 167.124 35.6166C167.124 34.4952 168.245 33.6918 169.685 33.6918C170.656 33.6918 171.61 33.8759 172.43 34.127V35.5162C172.095 36.8552 170.622 37.4912 169.417 37.4912Z" fill="black"/>
<path d="M176.475 41.2404C177.681 41.2237 178.517 40.6713 179.07 39.2988L183.053 29.5744H181.932L178.902 37.123L175.706 29.5744H174.567L178.367 38.3615L177.848 39.483C177.53 40.052 177.078 40.2864 176.442 40.2864C176.074 40.2864 175.689 40.2027 175.371 40.0353L175.103 40.9559C175.505 41.14 175.99 41.2404 176.475 41.2404Z" fill="black"/>
<path d="M189.596 38.2276H191.688V34.3612H194.601C197.061 34.3612 198.902 32.7879 198.902 30.5451C198.902 28.3022 197.061 26.7289 194.601 26.7289H189.596V38.2276ZM191.688 32.4364V28.6537H194.366C195.789 28.6537 196.777 29.3734 196.777 30.5451C196.777 31.7167 195.789 32.4364 194.366 32.4364H191.688Z" fill="black"/>
<path d="M201.875 31.248V29.5743H199.833V38.2276H201.875V33.8591C201.875 32.2188 203.114 31.1141 204.972 31.1141V29.3734C203.549 29.3734 202.428 30.0932 201.875 31.248Z" fill="black"/>
<path d="M209.821 36.6208C208.582 36.6208 207.679 35.7839 207.428 34.5955H213.955C213.955 31.3987 212.399 29.3734 209.721 29.3734C207.26 29.3734 205.319 31.2815 205.319 33.8758C205.319 36.5371 207.361 38.4284 209.838 38.4284C211.093 38.4284 212.599 37.8928 213.353 37.0894L212.064 35.7504C211.578 36.2526 210.624 36.6208 209.821 36.6208ZM209.804 31.1811C211.026 31.1811 211.763 31.951 211.997 33.039H207.444C207.746 31.9008 208.666 31.1811 209.804 31.1811Z" fill="black"/>
<path d="M225.02 29.3734C223.731 29.3734 222.643 30.0095 222.225 31.0137C221.689 29.9927 220.685 29.3734 219.463 29.3734C218.375 29.3734 217.488 29.909 217.053 30.7459V29.5743H215.011V38.2276H217.053V32.9218C217.053 31.8673 217.84 31.1141 218.944 31.1141C219.949 31.1141 220.635 31.9175 220.635 33.0557V38.2276H222.627V32.9218C222.627 31.8673 223.396 31.1141 224.518 31.1141C225.505 31.1141 226.192 31.9175 226.192 33.0557V38.2276H228.183V32.7209C228.183 30.7627 226.828 29.3734 225.02 29.3734Z" fill="black"/>
<path d="M230.733 28.2688C231.369 28.2688 231.887 27.7164 231.887 27.0971C231.887 26.4779 231.369 25.9423 230.733 25.9423C230.08 25.9423 229.561 26.4779 229.561 27.0971C229.561 27.7164 230.08 28.2688 230.733 28.2688ZM229.695 38.2276H231.737V29.5743H229.695V38.2276Z" fill="black"/>
<path d="M239.154 29.5743V35.0475C239.02 35.968 238.133 36.6877 237.062 36.6877C235.991 36.6877 235.238 35.8509 235.238 34.6792V29.5743H233.263V35.0809C233.263 37.0392 234.585 38.4284 236.476 38.4284C237.615 38.4284 238.619 37.8761 239.154 37.0727V38.2276H241.196V29.5743H239.154Z" fill="black"/>
<path d="M252.741 29.3734C251.453 29.3734 250.365 30.0095 249.946 31.0137C249.411 29.9927 248.406 29.3734 247.185 29.3734C246.097 29.3734 245.21 29.909 244.774 30.7459V29.5743H242.732V38.2276H244.774V32.9218C244.774 31.8673 245.561 31.1141 246.666 31.1141C247.67 31.1141 248.356 31.9175 248.356 33.0557V38.2276H250.348V32.9218C250.348 31.8673 251.118 31.1141 252.239 31.1141C253.227 31.1141 253.913 31.9175 253.913 33.0557V38.2276H255.905V32.7209C255.905 30.7627 254.549 29.3734 252.741 29.3734Z" fill="black"/>
<path d="M74.9162 24.3284L64.3634 18.3105C63.9927 18.1067 63.5776 18 63.1558 18C62.734 18 62.3188 18.1067 61.9481 18.3105L51.3582 24.3284C50.9759 24.5465 50.6575 24.8633 50.4356 25.2466C50.2137 25.6298 50.0961 26.0657 50.0948 26.5099V38.5081C50.0914 38.9533 50.207 39.3911 50.4294 39.7751C50.6518 40.1592 50.9727 40.4752 51.3582 40.6896L61.911 46.6699C62.281 46.8952 62.7054 47.0124 63.1372 47.0084C63.5683 47.0073 63.9914 46.8905 64.3634 46.6699L74.9162 40.6896C75.2985 40.4715 75.6169 40.1547 75.8388 39.7715C76.0607 39.3882 76.1783 38.9523 76.1796 38.5081V26.5099C76.1905 26.0633 76.078 25.6225 75.8548 25.237C75.6316 24.8516 75.3065 24.5369 74.9162 24.3284Z" fill="url(#paint1_linear_2_5394)"/>
<path d="M55.78 35.6507L55.1483 36.0268C55.0353 36.0902 54.9358 36.1757 54.8558 36.2784C54.7758 36.3811 54.7168 36.4989 54.6822 36.625C54.6476 36.751 54.6381 36.8827 54.6544 37.0125C54.6706 37.1423 54.7122 37.2675 54.7767 37.3808C54.8597 37.5379 54.9828 37.6696 55.1331 37.7622C55.2834 37.8548 55.4554 37.9049 55.6314 37.9074C55.7986 37.9059 55.9635 37.8674 56.1144 37.7945L56.7461 37.4184C56.8591 37.355 56.9586 37.2695 57.0386 37.1668C57.1186 37.0641 57.1776 36.9463 57.2122 36.8202C57.2468 36.6942 57.2563 36.5625 57.24 36.4327C57.2238 36.3029 57.1822 36.1777 57.1177 36.0644C57.0603 35.9449 56.9792 35.8387 56.8794 35.7523C56.7797 35.666 56.6634 35.6014 56.5379 35.5626C56.4123 35.5237 56.2803 35.5115 56.1499 35.5267C56.0195 35.5418 55.8936 35.584 55.78 35.6507ZM59.6444 33.4316L58.3439 34.1838C58.2308 34.2472 58.1314 34.3327 58.0514 34.4355C57.9714 34.5382 57.9123 34.656 57.8777 34.782C57.8432 34.908 57.8337 35.0398 57.8499 35.1695C57.8662 35.2993 57.9078 35.4245 57.9723 35.5378C58.0553 35.6949 58.1783 35.8266 58.3286 35.9192C58.4789 36.0118 58.651 36.0619 58.8269 36.0644C58.9942 36.063 59.159 36.0244 59.31 35.9516L60.6105 35.1993C60.7235 35.1359 60.823 35.0504 60.903 34.9477C60.983 34.845 61.0421 34.7272 61.0766 34.6011C61.1112 34.4751 61.1207 34.3434 61.1044 34.2136C61.0882 34.0838 61.0466 33.9586 60.9821 33.8453C60.9247 33.7258 60.8436 33.6196 60.7438 33.5332C60.6441 33.4469 60.5278 33.3823 60.4023 33.3435C60.2768 33.3046 60.1447 33.2924 60.0143 33.3076C59.8839 33.3227 59.758 33.3649 59.6444 33.4316ZM64.8837 31.5923C64.8313 31.4856 64.7583 31.3907 64.6689 31.3131C64.5795 31.2356 64.4756 31.177 64.3634 31.141V23.5772C64.3639 23.4437 64.3383 23.3115 64.2881 23.188C64.2378 23.0646 64.164 22.9524 64.0707 22.858C63.9774 22.7636 63.8666 22.6889 63.7447 22.638C63.6228 22.5871 63.4921 22.5612 63.3602 22.5617C63.2303 22.5621 63.1018 22.589 62.9823 22.6406C62.8628 22.6923 62.7549 22.7677 62.6647 22.8625C62.5746 22.9572 62.5042 23.0693 62.4577 23.192C62.4113 23.3148 62.3896 23.4458 62.3941 23.5772V31.1748C62.2819 31.2109 62.178 31.2694 62.0886 31.347C61.9993 31.4245 61.9262 31.5195 61.8739 31.6262C61.8041 31.7584 61.7645 31.9047 61.758 32.0544C61.7516 32.2042 61.7785 32.3535 61.8367 32.4913C61.7785 32.6291 61.7516 32.7783 61.758 32.9281C61.7645 33.0778 61.8041 33.2242 61.8739 33.3563C61.9262 33.4631 61.9993 33.558 62.0886 33.6356C62.178 33.7131 62.2819 33.7716 62.3941 33.8077V41.4053C62.3941 41.6746 62.4998 41.9329 62.6879 42.1234C62.8761 42.3138 63.1313 42.4208 63.3973 42.4208C63.6634 42.4208 63.9186 42.3138 64.1068 42.1234C64.2949 41.9329 64.4006 41.6746 64.4006 41.4053V33.7701C64.5128 33.734 64.6167 33.6755 64.7061 33.598C64.7954 33.5204 64.8685 33.4254 64.9208 33.3187C64.9906 33.1866 65.0302 33.0402 65.0366 32.8905C65.0431 32.7407 65.0162 32.5915 64.958 32.4537C65.0439 32.1676 65.0173 31.859 64.8837 31.5923ZM67.4141 28.9934L66.1136 29.7456C66.0005 29.809 65.9011 29.8945 65.8211 29.9972C65.7411 30.0999 65.682 30.2177 65.6474 30.3438C65.6129 30.4698 65.6034 30.6016 65.6196 30.7313C65.6359 30.8611 65.6775 30.9863 65.742 31.0996C65.825 31.2567 65.948 31.3884 66.0983 31.481C66.2486 31.5736 66.4207 31.6237 66.5966 31.6262C66.7639 31.6248 66.9287 31.5862 67.0797 31.5134L68.3802 30.7611C68.4932 30.6977 68.5927 30.6122 68.6727 30.5095C68.7527 30.4068 68.8118 30.289 68.8463 30.1629C68.8809 30.0369 68.8904 29.9051 68.8741 29.7754C68.8579 29.6456 68.8163 29.5204 68.7518 29.4071C68.6944 29.2876 68.6133 29.1814 68.5135 29.095C68.4138 29.0087 68.2975 28.9441 68.172 28.9053C68.0465 28.8664 67.9144 28.8542 67.784 28.8694C67.6536 28.8845 67.5277 28.9267 67.4141 28.9934ZM70.4945 29.3695C70.6617 29.368 70.8266 29.3295 70.9775 29.2566L71.6092 28.8805C71.7221 28.8167 71.8214 28.7309 71.9014 28.628C71.9815 28.5252 72.0406 28.4074 72.0756 28.2814C72.1105 28.1553 72.1204 28.0235 72.1049 27.8936C72.0893 27.7636 72.0486 27.6381 71.9849 27.5241C71.9213 27.4102 71.8361 27.31 71.7341 27.2295C71.6321 27.149 71.5154 27.0897 71.3908 27.055C71.2661 27.0202 71.1358 27.0108 71.0075 27.0272C70.8792 27.0435 70.7554 27.0854 70.6431 27.1504L70.0114 27.5265C69.8984 27.5899 69.799 27.6754 69.7189 27.7781C69.6389 27.8808 69.5799 27.9986 69.5453 28.1247C69.5107 28.2507 69.5013 28.3825 69.5175 28.5122C69.5337 28.642 69.5753 28.7672 69.6399 28.8805C69.7249 29.033 69.8495 29.1591 70 29.2452C70.1506 29.3314 70.3216 29.3743 70.4945 29.3695ZM71.6092 36.0268L70.9775 35.6507C70.751 35.5225 70.4835 35.4904 70.2336 35.5613C69.9837 35.6322 69.7717 35.8004 69.644 36.0291C69.5163 36.2579 69.4832 36.5285 69.5521 36.7817C69.621 37.035 69.7861 37.2504 70.0114 37.3808L70.6431 37.7569C70.7941 37.8298 70.9589 37.8683 71.1262 37.8698C71.3021 37.8673 71.4742 37.8171 71.6245 37.7245C71.7748 37.6319 71.8978 37.5003 71.9808 37.3432C72.0473 37.2335 72.0905 37.1109 72.1077 36.9834C72.125 36.8559 72.1158 36.7261 72.0809 36.6023C72.0459 36.4785 71.986 36.3635 71.9048 36.2644C71.8236 36.1653 71.7229 36.0844 71.6092 36.0268ZM68.3765 34.1838L67.076 33.4316C66.9637 33.3666 66.8398 33.3247 66.7115 33.3084C66.5832 33.292 66.453 33.3014 66.3283 33.3362C66.2036 33.3709 66.087 33.4302 65.985 33.5107C65.883 33.5912 65.7978 33.6913 65.7341 33.8053C65.6705 33.9193 65.6297 34.0448 65.6142 34.1748C65.5986 34.3047 65.6086 34.4365 65.6435 34.5625C65.6784 34.6886 65.7376 34.8064 65.8176 34.9092C65.8977 35.012 65.997 35.0979 66.1099 35.1617L67.4104 35.9139C67.5613 35.9868 67.7262 36.0253 67.8934 36.0268C68.0694 36.0243 68.2414 35.9742 68.3917 35.8816C68.542 35.789 68.6651 35.6573 68.7481 35.5002C68.8157 35.3908 68.8599 35.2682 68.8777 35.1404C68.8955 35.0126 68.8867 34.8824 68.8516 34.7583C68.8166 34.6342 68.7562 34.5189 68.6744 34.42C68.5925 34.321 68.491 34.2405 68.3765 34.1838ZM58.3439 30.7235L59.6444 31.4757C59.7953 31.5486 59.9602 31.5871 60.1275 31.5886C60.3034 31.5861 60.4755 31.536 60.6258 31.4434C60.7761 31.3507 60.8991 31.2191 60.9821 31.062C61.0466 30.9487 61.0882 30.8235 61.1044 30.6937C61.1207 30.5639 61.1112 30.4322 61.0766 30.3062C61.0421 30.1801 60.983 30.0623 60.903 29.9596C60.823 29.8569 60.7235 29.7714 60.6105 29.708L59.31 28.9557C59.198 28.8904 59.0743 28.8483 58.9461 28.8319C58.8179 28.8155 58.6878 28.825 58.5633 28.86C58.4388 28.895 58.3224 28.9548 58.2209 29.0358C58.1195 29.1168 58.0349 29.2174 57.9723 29.3319C57.8478 29.5682 57.817 29.8436 57.886 30.1021C57.955 30.3606 58.1188 30.5828 58.3439 30.7235ZM56.7461 27.5265L56.1144 27.1504C56.0021 27.0854 55.8783 27.0435 55.75 27.0272C55.6217 27.0108 55.4914 27.0202 55.3668 27.055C55.2421 27.0897 55.1254 27.149 55.0234 27.2295C54.9215 27.31 54.8362 27.4102 54.7726 27.5241C54.7089 27.6381 54.6682 27.7636 54.6526 27.8936C54.6371 28.0235 54.647 28.1553 54.682 28.2814C54.7169 28.4074 54.776 28.5252 54.8561 28.628C54.9361 28.7309 55.0354 28.8167 55.1483 28.8805L55.78 29.2566C55.9309 29.3295 56.0958 29.368 56.263 29.3695C56.439 29.367 56.6111 29.3169 56.7614 29.2242C56.9117 29.1316 57.0347 29 57.1177 28.8429C57.1809 28.7323 57.2215 28.61 57.237 28.4832C57.2525 28.3564 57.2426 28.2277 57.2079 28.1049C57.1732 27.982 57.1145 27.8675 57.0351 27.7681C56.9558 27.6687 56.8575 27.5866 56.7461 27.5265Z" fill="#20133A"/>
<g filter="url(#filter0_d_2_5394)">
<path d="M197.827 67H102V127H197.827V67Z" fill="#006AA7"/>
<path d="M143.925 67H131.946V127H143.925V67Z" fill="#FECC00"/>
<path d="M197.827 90.9999H102V103H197.827V90.9999Z" fill="#FECC00"/>
</g>
<defs>
<filter id="filter0_d_2_5394" x="90" y="59" width="119.827" height="84" filterUnits="userSpaceOnUse" color-interpolation-filters="sRGB">
<feFlood flood-opacity="0" result="BackgroundImageFix"/>
<feColorMatrix in="SourceAlpha" type="matrix" values="0 0 0 0 0 0 0 0 0 0 0 0 0 0 0 0 0 0 127 0" result="hardAlpha"/>
<feOffset dy="4"/>
<feGaussianBlur stdDeviation="6"/>
<feComposite in2="hardAlpha" operator="out"/>
<feColorMatrix type="matrix" values="0 0 0 0 0 0 0 0 0 0 0 0 0 0 0 0 0 0 0.1 0"/>
<feBlend mode="normal" in2="BackgroundImageFix" result="effect1_dropShadow_2_5394"/>
<feBlend mode="normal" in="SourceGraphic" in2="effect1_dropShadow_2_5394" result="shape"/>
</filter>
<linearGradient id="paint0_linear_2_5394" x1="449.842" y1="154" x2="449.842" y2="308" gradientUnits="userSpaceOnUse">
<stop offset="0.213542" stop-color="white"/>
<stop offset="1" stop-color="#ECECEC"/>
</linearGradient>
<linearGradient id="paint1_linear_2_5394" x1="50.0948" y1="32.5052" x2="76.1833" y2="32.5052" gradientUnits="userSpaceOnUse">
<stop stop-color="#9059FF"/>
<stop offset="1" stop-color="#F770FF"/>
</linearGradient>
</defs>
</svg>
