<svg width="50" height="50" viewBox="0 0 50 50" fill="none" xmlns="http://www.w3.org/2000/svg">
<g clip-path="url(#clip0_304_95)">
<rect width="50" height="50" rx="4" fill="white"/>
<rect x="-11.4551" y="-30" width="72.9341" height="83.3533" fill="url(#paint0_linear_304_95)"/>
<circle opacity="0.2" cx="-0.254494" cy="17.1467" r="14.3263" fill="white"/>
<circle opacity="0.4" cx="42.4641" cy="37.464" r="19.5359" fill="white"/>
<circle opacity="0.2" cx="19.021" cy="41.6317" r="9.63772" fill="white"/>
<rect x="3.25581" y="5.13948" width="43.4884" height="9.72093" rx="1.7907" fill="white" stroke="#CCCCCC" stroke-width="0.511628"/>
<g clip-path="url(#clip1_304_95)">
<path d="M9.96515 8.6219C9.96515 8.38002 9.78077 8.18213 9.55543 8.18213H6.2777C6.05235 8.18213 5.86798 8.38002 5.86798 8.6219V11.2605C5.86798 11.5024 6.05235 11.7003 6.2777 11.7003H9.55543C9.78077 11.7003 9.96515 11.5024 9.96515 11.2605V8.6219ZM9.55543 8.6219L7.91656 9.71912L6.2777 8.6219H9.55543ZM9.55543 11.2605H6.2777V9.06166L7.91656 10.1611L9.55543 9.06166V11.2605Z" fill="#CCCCCC"/>
</g>
<rect x="11.8" y="8.42578" width="24.2" height="3.14848" rx="1.57424" fill="#ECECEC"/>
<g filter="url(#filter0_d_304_95)">
<rect x="17" y="18" width="30.2872" height="28.47" rx="1.21149" fill="#F5F7F9"/>
</g>
<rect opacity="0.5" x="19.7259" y="34.0522" width="25.4412" height="2.42298" rx="1.21149" fill="#CCCCCC"/>
<rect opacity="0.5" x="19.7259" y="29.8121" width="19.0809" height="2.42298" rx="1.21149" fill="#CCCCCC"/>
<rect opacity="0.5" x="19.7259" y="25.5718" width="23.624" height="2.42298" rx="1.21149" fill="#CCCCCC"/>
<rect opacity="0.5" x="19.7259" y="21.3315" width="25.4412" height="2.42298" rx="1.21149" fill="#CCCCCC"/>
<g clip-path="url(#clip2_304_95)">
<path d="M23.486 39.2506L21.8874 38.3389C21.8313 38.308 21.7684 38.2919 21.7045 38.2919C21.6406 38.2919 21.5777 38.308 21.5215 38.3389L19.9173 39.2506C19.8594 39.2836 19.8111 39.3316 19.7775 39.3897C19.7439 39.4478 19.7261 39.5138 19.7259 39.5811V41.3988C19.7254 41.4662 19.7429 41.5325 19.7766 41.5907C19.8103 41.6489 19.8589 41.6968 19.9173 41.7293L21.5159 42.6353C21.572 42.6694 21.6363 42.6872 21.7017 42.6865C21.767 42.6864 21.8311 42.6687 21.8874 42.6353L23.486 41.7293C23.544 41.6962 23.5922 41.6482 23.6258 41.5902C23.6594 41.5321 23.6772 41.4661 23.6774 41.3988V39.5811C23.6791 39.5134 23.662 39.4466 23.6282 39.3883C23.5944 39.3299 23.5452 39.2822 23.486 39.2506V39.2506Z" fill="url(#paint1_linear_304_95)"/>
<path d="M20.5871 40.9658L20.4914 41.0228C20.4743 41.0324 20.4592 41.0454 20.4471 41.0609C20.435 41.0765 20.426 41.0944 20.4208 41.1134C20.4155 41.1325 20.4141 41.1525 20.4166 41.1722C20.419 41.1918 20.4253 41.2108 20.4351 41.228C20.4477 41.2517 20.4663 41.2717 20.4891 41.2857C20.5118 41.2998 20.5379 41.3074 20.5646 41.3077C20.5899 41.3075 20.6149 41.3017 20.6377 41.2906L20.7334 41.2337C20.7506 41.224 20.7656 41.2111 20.7777 41.1955C20.7899 41.18 20.7988 41.1621 20.804 41.143C20.8093 41.1239 20.8107 41.104 20.8083 41.0843C20.8058 41.0647 20.7995 41.0457 20.7897 41.0285C20.781 41.0104 20.7687 40.9943 20.7536 40.9812C20.7385 40.9682 20.7209 40.9584 20.7019 40.9525C20.6829 40.9466 20.6629 40.9448 20.6431 40.9471C20.6234 40.9494 20.6043 40.9558 20.5871 40.9658V40.9658ZM21.1725 40.6297L20.9755 40.7436C20.9584 40.7532 20.9433 40.7662 20.9312 40.7817C20.919 40.7973 20.9101 40.8151 20.9049 40.8342C20.8996 40.8533 20.8982 40.8733 20.9007 40.893C20.9031 40.9126 20.9094 40.9316 20.9192 40.9487C20.9318 40.9725 20.9504 40.9925 20.9732 41.0065C20.9959 41.0206 21.022 41.0281 21.0487 41.0285C21.074 41.0283 21.099 41.0225 21.1218 41.0114L21.3188 40.8975C21.336 40.8879 21.351 40.8749 21.3632 40.8593C21.3753 40.8438 21.3842 40.8259 21.3895 40.8068C21.3947 40.7877 21.3961 40.7678 21.3937 40.7481C21.3912 40.7285 21.3849 40.7095 21.3751 40.6923C21.3664 40.6742 21.3542 40.6581 21.339 40.6451C21.3239 40.632 21.3063 40.6222 21.2873 40.6163C21.2683 40.6104 21.2483 40.6086 21.2285 40.6109C21.2088 40.6132 21.1897 40.6196 21.1725 40.6297V40.6297ZM21.9662 40.351C21.9582 40.3349 21.9472 40.3205 21.9336 40.3087C21.9201 40.297 21.9044 40.2881 21.8874 40.2826V39.1368C21.8874 39.1165 21.8836 39.0965 21.876 39.0778C21.8683 39.0591 21.8572 39.0421 21.843 39.0278C21.8289 39.0135 21.8121 39.0022 21.7936 38.9945C21.7752 38.9868 21.7554 38.9828 21.7354 38.9829C21.7157 38.983 21.6962 38.987 21.6781 38.9949C21.66 39.0027 21.6437 39.0141 21.63 39.0285C21.6164 39.0428 21.6057 39.0598 21.5987 39.0784C21.5916 39.097 21.5884 39.1168 21.589 39.1368V40.2878C21.572 40.2932 21.5563 40.3021 21.5428 40.3138C21.5292 40.3256 21.5182 40.34 21.5102 40.3561C21.4997 40.3762 21.4937 40.3983 21.4927 40.421C21.4917 40.4437 21.4958 40.4663 21.5046 40.4872C21.4958 40.5081 21.4917 40.5307 21.4927 40.5534C21.4937 40.5761 21.4997 40.5982 21.5102 40.6183C21.5182 40.6344 21.5292 40.6488 21.5428 40.6606C21.5563 40.6723 21.572 40.6812 21.589 40.6866V41.8376C21.589 41.8785 21.605 41.9176 21.6336 41.9464C21.6621 41.9753 21.7007 41.9915 21.741 41.9915C21.7813 41.9915 21.82 41.9753 21.8485 41.9464C21.877 41.9176 21.893 41.8785 21.893 41.8376V40.6809C21.91 40.6755 21.9257 40.6666 21.9393 40.6549C21.9528 40.6431 21.9639 40.6287 21.9718 40.6126C21.9824 40.5925 21.9884 40.5704 21.9894 40.5477C21.9903 40.525 21.9863 40.5024 21.9774 40.4815C21.9905 40.4382 21.9864 40.3914 21.9662 40.351V40.351ZM22.3495 39.9573L22.1525 40.0712C22.1354 40.0808 22.1203 40.0938 22.1082 40.1094C22.0961 40.1249 22.0871 40.1428 22.0819 40.1619C22.0766 40.181 22.0752 40.2009 22.0777 40.2206C22.0801 40.2402 22.0864 40.2592 22.0962 40.2764C22.1088 40.3002 22.1274 40.3201 22.1502 40.3341C22.173 40.3482 22.199 40.3558 22.2257 40.3561C22.251 40.3559 22.276 40.3501 22.2988 40.3391L22.4959 40.2251C22.513 40.2155 22.528 40.2025 22.5402 40.187C22.5523 40.1714 22.5612 40.1536 22.5665 40.1345C22.5717 40.1154 22.5731 40.0954 22.5707 40.0758C22.5682 40.0561 22.5619 40.0371 22.5522 40.02C22.5435 40.0019 22.5312 39.9858 22.5161 39.9727C22.5009 39.9596 22.4833 39.9498 22.4643 39.9439C22.4453 39.9381 22.4253 39.9362 22.4055 39.9385C22.3858 39.9408 22.3667 39.9472 22.3495 39.9573V39.9573ZM22.8161 40.0143C22.8415 40.014 22.8665 40.0082 22.8893 39.9972L22.985 39.9402C23.0021 39.9305 23.0172 39.9175 23.0293 39.9019C23.0414 39.8864 23.0504 39.8685 23.0557 39.8494C23.061 39.8303 23.0625 39.8104 23.0601 39.7907C23.0578 39.771 23.0516 39.752 23.0419 39.7347C23.0323 39.7174 23.0194 39.7023 23.0039 39.6901C22.9885 39.6779 22.9708 39.6689 22.9519 39.6636C22.933 39.6584 22.9133 39.6569 22.8939 39.6594C22.8744 39.6619 22.8557 39.6682 22.8387 39.6781L22.743 39.7351C22.7259 39.7447 22.7108 39.7576 22.6987 39.7732C22.6865 39.7887 22.6776 39.8066 22.6724 39.8257C22.6671 39.8448 22.6657 39.8647 22.6681 39.8844C22.6706 39.9041 22.6769 39.923 22.6867 39.9402C22.6996 39.9633 22.7184 39.9824 22.7412 39.9954C22.7641 40.0085 22.79 40.015 22.8161 40.0143ZM22.985 41.0228L22.8893 40.9658C22.855 40.9464 22.8145 40.9416 22.7766 40.9523C22.7388 40.9631 22.7067 40.9885 22.6873 41.0232C22.668 41.0578 22.663 41.0988 22.6734 41.1372C22.6838 41.1756 22.7088 41.2082 22.743 41.228L22.8387 41.2849C22.8615 41.296 22.8865 41.3018 22.9118 41.302C22.9385 41.3017 22.9646 41.2941 22.9873 41.28C23.0101 41.266 23.0287 41.2461 23.0413 41.2223C23.0514 41.2056 23.0579 41.1871 23.0605 41.1677C23.0631 41.1484 23.0618 41.1288 23.0565 41.11C23.0512 41.0913 23.0421 41.0738 23.0298 41.0588C23.0175 41.0438 23.0022 41.0316 22.985 41.0228V41.0228ZM22.4953 40.7436L22.2983 40.6297C22.2813 40.6198 22.2625 40.6135 22.2431 40.611C22.2236 40.6085 22.2039 40.6099 22.185 40.6152C22.1661 40.6205 22.1485 40.6295 22.133 40.6417C22.1176 40.6538 22.1047 40.669 22.095 40.6863C22.0854 40.7035 22.0792 40.7226 22.0768 40.7423C22.0745 40.7619 22.076 40.7819 22.0813 40.801C22.0866 40.8201 22.0955 40.8379 22.1077 40.8535C22.1198 40.8691 22.1348 40.8821 22.1519 40.8918L22.3489 41.0057C22.3718 41.0168 22.3968 41.0226 22.4221 41.0228C22.4488 41.0224 22.4748 41.0149 22.4976 41.0008C22.5204 40.9868 22.539 40.9668 22.5516 40.9431C22.5618 40.9265 22.5685 40.9079 22.5712 40.8885C22.5739 40.8692 22.5726 40.8495 22.5673 40.8307C22.562 40.8119 22.5528 40.7944 22.5404 40.7794C22.528 40.7644 22.5126 40.7522 22.4953 40.7436V40.7436ZM20.9755 40.2194L21.1725 40.3334C21.1954 40.3444 21.2203 40.3502 21.2457 40.3505C21.2723 40.3501 21.2984 40.3425 21.3212 40.3284C21.3439 40.3144 21.3626 40.2945 21.3751 40.2707C21.3849 40.2535 21.3912 40.2345 21.3937 40.2149C21.3961 40.1952 21.3947 40.1753 21.3895 40.1562C21.3842 40.1371 21.3753 40.1192 21.3632 40.1037C21.351 40.0881 21.336 40.0752 21.3188 40.0655L21.1218 39.9516C21.1049 39.9417 21.0861 39.9353 21.0667 39.9328C21.0473 39.9303 21.0276 39.9318 21.0087 39.9371C20.9899 39.9424 20.9722 39.9514 20.9569 39.9637C20.9415 39.976 20.9287 39.9912 20.9192 40.0086C20.9003 40.0444 20.8957 40.0861 20.9061 40.1253C20.9166 40.1644 20.9414 40.1981 20.9755 40.2194V40.2194ZM20.7334 39.7351L20.6377 39.6781C20.6207 39.6682 20.602 39.6619 20.5825 39.6594C20.5631 39.6569 20.5434 39.6584 20.5245 39.6636C20.5056 39.6689 20.4879 39.6779 20.4725 39.6901C20.457 39.7023 20.4441 39.7174 20.4345 39.7347C20.4248 39.752 20.4187 39.771 20.4163 39.7907C20.4139 39.8104 20.4155 39.8303 20.4207 39.8494C20.426 39.8685 20.435 39.8864 20.4471 39.9019C20.4592 39.9175 20.4743 39.9305 20.4914 39.9402L20.5871 39.9972C20.6099 40.0082 20.6349 40.014 20.6603 40.0143C20.6869 40.0139 20.713 40.0063 20.7357 39.9923C20.7585 39.9782 20.7772 39.9583 20.7897 39.9345C20.7993 39.9177 20.8054 39.8992 20.8078 39.88C20.8101 39.8608 20.8087 39.8413 20.8034 39.8227C20.7981 39.8041 20.7892 39.7867 20.7772 39.7717C20.7652 39.7566 20.7503 39.7442 20.7334 39.7351V39.7351Z" fill="#20133A"/>
</g>
<rect x="24.8747" y="39.201" width="20.2924" height="2.42298" rx="1.21149" fill="#E76DFF"/>
<path d="M11.2248 22.758C11.2339 22.6657 11.1747 22.5804 11.085 22.5566C10.7151 22.4909 9.68753 22.2484 9.34226 21.899C8.99699 21.5496 8.75037 20.522 8.6846 20.1562C8.66873 20.0663 8.59091 20.0006 8.49963 20V22.7416L11.2248 22.758Z" fill="#FFEA80"/>
<path d="M8.48335 20.0165C8.39139 20.0191 8.314 20.0861 8.29838 20.1768C8.24084 20.5426 8.01066 21.5702 7.66539 21.9155C7.32012 22.2607 6.27198 22.5074 5.90204 22.5731C5.81216 22.589 5.74644 22.6668 5.74585 22.7581H8.48746L8.48335 20.0165Z" fill="#FFD567"/>
<path d="M8.4837 22.7582V25.4998C8.57498 25.4992 8.6528 25.4335 8.66867 25.3436C8.73444 24.9695 8.97695 23.9296 9.32633 23.5802C9.67571 23.2309 10.6992 23.0048 11.065 22.9473C11.1572 22.9313 11.2247 22.8517 11.2253 22.7582H8.4837Z" fill="#FFD567"/>
<path d="M5.74197 22.7582C5.74055 22.851 5.80674 22.9311 5.89816 22.9473C6.2722 23.0048 7.31212 23.235 7.6615 23.5802C8.01088 23.9255 8.23695 24.9695 8.2945 25.3395C8.30858 25.431 8.38687 25.4989 8.47946 25.4998V22.7582H5.74197Z" fill="#FFA266"/>
<path d="M7.38946 30.9822C7.39678 30.9083 7.34939 30.84 7.27758 30.821C6.98142 30.7683 6.15876 30.5742 5.88235 30.2944C5.60593 30.0147 5.40849 29.1921 5.35584 28.8992C5.34314 28.8273 5.28084 28.7746 5.20776 28.7742V30.969L7.38946 30.9822Z" fill="#FFEA80"/>
<path d="M5.19468 28.7875C5.12106 28.7895 5.05911 28.8432 5.04661 28.9158C5.00054 29.2087 4.81626 30.0313 4.53985 30.3078C4.26343 30.5842 3.42432 30.7816 3.12816 30.8343C3.0562 30.847 3.00359 30.9093 3.00311 30.9823H5.19798L5.19468 28.7875Z" fill="#FFD567"/>
<path d="M5.19501 30.9822V33.177C5.26808 33.1766 5.33038 33.124 5.34309 33.052C5.39574 32.7525 5.58989 31.92 5.86959 31.6403C6.1493 31.3606 6.96867 31.1796 7.26153 31.1335C7.33531 31.1208 7.38937 31.057 7.38987 30.9822H5.19501Z" fill="#FFD567"/>
<path d="M3.00002 30.9822C2.99889 31.0565 3.05187 31.1206 3.12506 31.1335C3.42451 31.1796 4.25705 31.3639 4.53675 31.6403C4.81646 31.9167 4.99744 32.7525 5.04351 33.0487C5.05479 33.122 5.11746 33.1763 5.19159 33.177V30.9822H3.00002Z" fill="#FFA266"/>
<path d="M14.8693 39.9645C14.8857 39.7983 14.7792 39.6448 14.6177 39.602C13.9518 39.4836 12.1022 39.0471 11.4807 38.4182C10.8592 37.7893 10.4152 35.9396 10.2969 35.2812C10.2683 35.1194 10.1282 35.0011 9.96393 35V39.9349L14.8693 39.9645Z" fill="#FFEA80"/>
<path d="M9.9345 35.0294C9.76897 35.0341 9.62968 35.1548 9.60156 35.318C9.49798 35.9765 9.08365 37.8261 8.46216 38.4476C7.84067 39.0691 5.95399 39.513 5.28811 39.6314C5.12631 39.66 5.00803 39.8001 5.00696 39.9644H9.9419L9.9345 35.0294Z" fill="#FFD567"/>
<path d="M9.93524 39.9646V44.8995C10.0995 44.8985 10.2396 44.7802 10.2682 44.6184C10.3866 43.9451 10.8231 42.0732 11.452 41.4443C12.0809 40.8155 13.9231 40.4085 14.5816 40.3049C14.7475 40.2763 14.8691 40.1329 14.8702 39.9646H9.93524Z" fill="#FFD567"/>
<path d="M5.00004 39.9646C4.9975 40.1317 5.11663 40.2759 5.28119 40.3049C5.95447 40.4085 7.82635 40.8229 8.45524 41.4443C9.08413 42.0658 9.49106 43.9451 9.59464 44.611C9.62 44.7757 9.76092 44.8979 9.92759 44.8995V39.9646H5.00004Z" fill="#FFA266"/>
</g>
<defs>
<filter id="filter0_d_304_95" x="13.9713" y="16.1828" width="36.3447" height="34.5274" filterUnits="userSpaceOnUse" color-interpolation-filters="sRGB">
<feFlood flood-opacity="0" result="BackgroundImageFix"/>
<feColorMatrix in="SourceAlpha" type="matrix" values="0 0 0 0 0 0 0 0 0 0 0 0 0 0 0 0 0 0 127 0" result="hardAlpha"/>
<feOffset dy="1.21149"/>
<feGaussianBlur stdDeviation="1.51436"/>
<feComposite in2="hardAlpha" operator="out"/>
<feColorMatrix type="matrix" values="0 0 0 0 0 0 0 0 0 0 0 0 0 0 0 0 0 0 0.16 0"/>
<feBlend mode="normal" in2="BackgroundImageFix" result="effect1_dropShadow_304_95"/>
<feBlend mode="normal" in="SourceGraphic" in2="effect1_dropShadow_304_95" result="shape"/>
</filter>
<linearGradient id="paint0_linear_304_95" x1="25.012" y1="-2.38922" x2="25.012" y2="73.6707" gradientUnits="userSpaceOnUse">
<stop stop-color="#B00FBF"/>
<stop offset="1" stop-color="#660D7D"/>
</linearGradient>
<linearGradient id="paint1_linear_304_95" x1="19.7259" y1="40.4894" x2="23.678" y2="40.4894" gradientUnits="userSpaceOnUse">
<stop stop-color="#9059FF"/>
<stop offset="1" stop-color="#F770FF"/>
</linearGradient>
<clipPath id="clip0_304_95">
<rect width="50" height="50" rx="4" fill="white"/>
</clipPath>
<clipPath id="clip1_304_95">
<rect width="4.9166" height="5.27721" fill="white" transform="translate(5.45825 7.30249)"/>
</clipPath>
<clipPath id="clip2_304_95">
<rect width="4.34556" height="4.54308" fill="white" transform="translate(19.7259 38.2924)"/>
</clipPath>
</defs>
</svg>
