<svg width="480" height="54" viewBox="0 0 480 54" fill="none" xmlns="http://www.w3.org/2000/svg">
<path fill-rule="evenodd" clip-rule="evenodd" d="M94.4006 36.9816C93.0685 36.839 90.9486 36.3749 90.2428 36.0716L89.8979 35.9235L89.8508 34.2162C89.8251 33.277 89.7953 32.0214 89.7846 31.4259L89.7653 30.3429L89.9721 30.2439C90.0857 30.1896 90.315 30.1387 90.4817 30.131L90.7848 30.1168L91.0431 30.7521C92.0502 33.2305 93.2317 34.5671 94.7747 34.9734C95.3635 35.1285 96.4671 35.1299 96.903 34.976C98.1236 34.5451 98.793 33.6213 98.7988 32.3593C98.8057 30.8645 97.9838 30.1463 94.8787 28.9336C92.955 28.1825 92.2836 27.7958 91.4848 26.9782C90.6227 26.0963 90.209 25.0924 90.1313 23.6941C90.0374 22.0044 90.5664 20.5801 91.7387 19.3663C92.9183 18.1447 94.4497 17.4828 96.5358 17.2925C98.3729 17.125 101.193 17.5143 102.67 18.1398L102.94 18.2539L102.988 19.7758C103.014 20.6127 103.042 21.7347 103.049 22.2692L103.061 23.2407L102.699 23.375C102.127 23.5876 102.09 23.5607 101.771 22.7177C100.879 20.354 99.8419 19.2355 98.2264 18.8939C97.2419 18.6859 96.4194 18.9097 95.8217 19.5485C95.3551 20.047 95.1734 20.4894 95.1292 21.2328C95.0812 22.0379 95.2254 22.4731 95.7177 23.0117C96.3241 23.6751 97.3182 24.248 99.298 25.0751C101.723 26.0879 102.88 26.9479 103.509 28.2047C103.918 29.0211 104.033 29.6729 103.992 30.928C103.961 31.8698 103.931 32.0632 103.717 32.6954C103.018 34.7568 101.441 36.1141 99.0039 36.7503C98.1785 36.9657 98.0606 36.977 96.4194 36.9949C95.4736 37.0053 94.565 36.9992 94.4006 36.9816V36.9816ZM62.1755 36.7679C64.4468 36.4274 66.1128 35.6477 67.5238 34.265C69.5631 32.2663 70.5454 29.4454 70.4128 25.9689C70.3443 24.179 70.0519 23.0097 69.3098 21.5591C68.3044 19.5939 66.5849 18.2158 64.6325 17.8097C63.1678 17.5054 61.2834 17.7436 59.8507 18.415C59.4937 18.582 59.1519 18.7188 59.0912 18.7188C58.995 18.7188 58.9846 18.1655 59.0089 14.3596L59.0372 10L58.7371 10.0601C58.5721 10.0933 56.8896 10.4066 54.9979 10.7566C53.1062 11.1066 51.4846 11.4102 51.3945 11.4315C51.2575 11.4636 51.2336 11.5159 51.2483 11.7498C51.2645 12.0106 51.2862 12.0342 51.5618 12.0949C52.5096 12.3034 52.6783 12.3776 53.0308 12.7415C53.4624 13.1874 53.6574 13.7566 53.7854 14.9447C53.8874 15.8913 53.9099 32.2013 53.8125 34.6089L53.7551 36.0364L54.5258 36.201C57.4422 36.8245 60.3494 37.0405 62.1755 36.7679V36.7679ZM82.7723 36.7656C84.5045 36.4846 86.2104 35.6535 87.4368 34.4928C88.1082 33.8572 88.3309 33.5502 88.2376 33.3897C87.9886 32.9608 87.9993 32.9611 87.3628 33.3521C86.3494 33.9742 85.8418 34.1457 84.6513 34.2679C83.2608 34.4105 81.9781 34.1781 80.7928 33.569C80.0067 33.165 79.0643 32.2354 78.5934 31.3993C77.9509 30.2583 77.6022 28.9258 77.4982 27.213C77.4546 26.4939 77.4641 26.3146 77.5485 26.2612C77.606 26.2248 80.0991 26.1948 83.1294 26.1942L88.6062 26.193V25.9767C88.6062 25.4852 88.4447 24.1637 88.3 23.4712C87.7182 20.6855 86.1824 18.6992 83.9923 17.9004C83.1204 17.5822 82.2959 17.4485 81.2091 17.4485C78.6338 17.4485 76.5307 18.2929 74.9036 19.9797C73.6065 21.3249 72.8369 22.8358 72.3671 24.9599C72.2256 25.5998 72.2019 25.9325 72.2019 27.2768C72.2019 28.6111 72.2262 28.9553 72.3634 29.5724C73.2353 33.4925 75.8151 36.074 79.5219 36.7353C80.4611 36.9028 81.8452 36.9158 82.7723 36.7656V36.7656ZM29.7637 36.6683C31.0903 36.3587 32.148 35.886 33.0933 35.1802C35.3929 33.4633 36.6527 30.8313 36.7692 27.5009C36.8838 24.218 35.8932 21.4196 33.9781 19.6153C32.4236 18.1505 30.4643 17.4485 27.9318 17.4485C25.2474 17.4485 23.0853 18.2805 21.4222 19.9537C19.6405 21.7462 18.6979 24.2466 18.6979 27.1813C18.6979 30.2257 19.5495 32.6833 21.2006 34.405C22.1112 35.3543 22.9975 35.9238 24.2681 36.3757C24.7176 36.5354 25.0481 36.6123 26.2496 36.8355C26.3525 36.8546 27.0421 36.858 27.7822 36.8433C28.78 36.8234 29.2859 36.7789 29.7637 36.6683V36.6683ZM15.3086 27.9494L15.1355 27.2393C14.8099 25.9054 14.1833 24.9504 13.4088 24.6078C13.0514 24.4499 12.1665 24.3598 10.4548 24.3078L9.65113 24.2835V25.9704C9.65113 27.8088 9.75224 30.2959 9.88167 31.6454C10.0625 33.5271 10.5435 34.5668 11.4073 34.9431C11.5723 35.015 12.094 35.1316 12.5669 35.2024C13.0399 35.2731 13.4856 35.3615 13.5576 35.3985C13.7402 35.4929 13.7508 36.4673 13.5703 36.5366C13.4287 36.5909 0.234295 36.5868 0.0993805 36.5326C0.037268 36.5074 0.00606788 36.3212 0.00606788 35.9763C0.00606788 35.3569 -0.0335125 35.3846 1.16483 35.1625C2.08409 34.9919 2.41286 34.8177 2.81875 34.2858C3.6057 33.2542 3.77586 31.2685 3.77759 23.0914C3.77933 15.4119 3.63113 13.7967 2.81731 12.6098C2.45619 12.083 1.84777 11.7971 0.828551 11.6753L0.0433347 11.5811L0.0216663 10.9686L0 10.3558L0.246138 10.3122C0.381341 10.2879 5.13425 10.2778 10.8079 10.2894L21.1237 10.3107L21.1723 10.6096C21.1989 10.774 21.2425 12.4605 21.2691 14.3575L21.3179 17.8066L20.786 17.968C19.9852 18.2112 19.9901 18.214 19.6302 17.2616C18.7453 14.9216 17.731 13.5732 16.3428 12.8925C15.3854 12.4227 14.9428 12.3661 12.2391 12.3661H9.886L9.84555 12.7585C9.76958 13.4941 9.6494 18.2276 9.65026 20.4568L9.65113 22.6802L10.3427 22.6761C10.7232 22.6741 11.4732 22.6461 12.0094 22.614C12.8157 22.5658 13.0555 22.5231 13.3926 22.3671C14.2215 21.9836 14.7854 21.1395 15.1309 19.7648L15.3091 19.0553L16.5297 19.012V27.9928L15.3086 27.9494ZM36.9564 36.5184C36.8882 36.4751 36.8659 36.3027 36.8815 35.94L36.9041 35.4236L37.1658 35.3679C37.3097 35.3373 37.6188 35.2763 37.8528 35.2327C38.5768 35.0976 38.9928 34.7045 39.2268 33.9355C39.4175 33.3085 39.5015 31.3034 39.5059 27.2768C39.5114 22.3521 39.4088 21.1892 38.9104 20.5298C38.6406 20.1726 38.4459 20.071 37.791 19.9453C37.4677 19.8833 37.1274 19.8168 37.0349 19.7975C36.885 19.7663 36.8665 19.7175 36.8665 19.3513C36.8665 18.9952 36.8893 18.9308 37.0349 18.8708C37.2585 18.7789 44.6655 17.2989 44.9021 17.2989H45.0867L45.0506 18.4012C45.0307 19.0076 44.9986 19.8905 44.9799 20.3632L44.9452 21.2227L45.2136 20.7389C46.0725 19.1904 47.0359 18.2294 48.3169 17.6425C49.0201 17.3202 49.4892 17.2241 50.3579 17.2241C51.3884 17.2241 52.4183 17.5602 52.4183 17.8964C52.4183 18.1225 50.6032 22.9173 50.503 22.9557C50.4541 22.9745 50.0997 22.8387 49.7154 22.6545C48.9137 22.2698 48.1618 22.0818 47.4317 22.0835C46.5223 22.0856 45.5068 22.42 45.1058 22.85C44.9345 23.0339 44.9336 23.0449 44.8909 25.791C44.8487 28.5106 44.9394 31.8276 45.0922 33.1618C45.2228 34.2982 45.5247 34.8579 46.1487 35.1184C46.357 35.2053 47.6738 35.3855 48.1037 35.3861C48.1363 35.3861 48.1531 35.6468 48.1409 35.9654L48.1193 36.5447L42.5864 36.5626C39.5755 36.5721 37.0635 36.5528 36.9564 36.5184V36.5184ZM28.5521 35.4958C29.0817 35.3387 29.7351 34.7262 30.0833 34.0605C30.8023 32.6862 31.1236 30.6537 31.1314 27.4261C31.1415 23.3816 30.5071 20.8077 29.1683 19.4602C28.6061 18.8944 28.2075 18.7186 27.4887 18.7197C25.8934 18.7223 24.8808 20.3872 24.4807 23.6652C24.297 25.1721 24.2958 28.7621 24.479 30.0795C25.0458 34.157 26.5088 36.1025 28.5521 35.4958ZM60.948 35.4597C61.4911 35.3569 61.9129 35.1409 62.3662 34.7337C63.5015 33.7131 64.3552 31.6061 64.6909 28.9957C64.8278 27.9327 64.8093 25.51 64.6577 24.6226C64.2477 22.2224 63.3666 20.6451 62.0816 20.01C61.5483 19.7467 61.4662 19.7279 60.8339 19.7279C60.3814 19.7279 59.9926 19.7764 59.6618 19.8737L59.1666 20.0196L59.1299 22.7512C59.0831 26.2505 59.197 35.0109 59.2926 35.2625C59.3536 35.4227 59.4209 35.4568 59.7236 35.4805C60.4317 35.5362 60.5525 35.5345 60.948 35.4597V35.4597ZM81.7947 24.7265L83.0955 24.6812L83.0488 23.7577C82.8835 20.5004 82.0862 18.7206 80.7928 18.7217C79.3873 18.7235 78.2641 20.5299 77.7969 23.5396C77.7397 23.9096 77.6921 24.3485 77.6912 24.5149L77.69 24.8169L79.0918 24.7944C79.8628 24.782 81.0791 24.7514 81.7947 24.7265V24.7265Z" fill="black"/>
<path d="M196.685 36.6989C196.972 36.5712 197.198 36.3334 197.313 36.0375C197.427 35.7416 197.422 35.4116 197.297 35.1198L184.201 4.68484C184.075 4.39357 183.84 4.16485 183.548 4.04872C183.256 3.93259 182.93 3.9385 182.642 4.06516L152.622 17.3386C152.335 17.4668 152.11 17.7049 151.995 18.001C151.88 18.2971 151.886 18.6271 152.011 18.9191L165.106 49.354C165.232 49.6452 165.467 49.8738 165.759 49.9899C166.051 50.106 166.377 50.1002 166.665 49.9737L196.685 36.6989V36.6989Z" fill="black"/>
<path d="M182.074 14.6063H174.633V27.5887H165.708L174.355 14.6063H161.228L158.805 18.2731H166.754L158.063 31.2554H175.782L178.902 26.5884V18.2731H181.291C184.035 18.2731 185.973 19.9484 185.973 22.9296C185.973 26.1775 183.794 27.5887 181.247 27.5887H179.36V31.2554H182.074C186.625 31.2554 190.416 27.6111 190.416 22.9296C190.416 18.248 186.649 14.6063 182.074 14.6063V14.6063Z" fill="white"/>
<path d="M191.859 14.4167H195.551L198.716 21.1259C199.552 22.9119 200.193 24.6748 200.526 25.8799C200.395 24.3462 200.308 22.809 200.264 21.2701L200.193 14.4167H203.359V31.1916H199.882L197.05 24.7703C196.146 22.6708 195.121 20.3067 194.811 19.2682C194.932 20.6445 194.957 22.6241 194.979 24.0235L195.074 31.1923H191.859V14.4167ZM214.091 27.9088L215.329 29.8403C213.924 30.9974 212.448 31.5552 210.734 31.5552C207.234 31.5552 204.973 29.0448 204.973 25.1581C204.973 22.9382 205.424 21.4651 206.495 20.2573C207.496 19.1233 208.711 18.5912 210.329 18.5912C211.733 18.5912 213.068 19.0746 213.852 19.8971C214.97 21.0548 215.471 22.7202 215.471 25.3043V26.0505H208.423V26.1479C208.423 28.0531 209.354 29.1403 210.996 29.1403C212.092 29.1403 213.115 28.73 214.091 27.9088V27.9088ZM208.473 23.685H212.164V23.5408C212.164 22.6241 212.068 22.1407 211.782 21.6811C211.471 21.199 211.019 20.9567 210.377 20.9567C209.164 20.9567 208.473 21.9221 208.473 23.6369V23.685V23.685ZM223.827 18.8105L223.019 20.956H220.971V27.2582C220.971 28.8268 221.256 29.2384 222.352 29.2384C222.637 29.2384 222.923 29.1634 223.495 28.9948L223.9 30.9249C222.972 31.3128 222.137 31.4821 221.305 31.4821C219.686 31.4821 218.376 30.757 218.019 29.6724C217.829 29.1403 217.805 28.898 217.805 27.7646V20.956H216.59V18.8573H217.805C217.805 17.6508 217.805 16.8309 217.925 15.9136L221.161 15.0924C221.034 16.3274 220.971 17.5682 220.971 18.8098H223.827V18.8105V18.8105Z" fill="black"/>
<g clip-path="url(#clip0)">
<path d="M272.909 38.6422H268V7.3172L272.909 7.63507V38.6422Z" fill="black"/>
<path d="M280.946 38.6422H276.037V16.3013L280.946 16.5795V38.6422ZM278.491 9.50348C280.035 9.50348 281.302 10.7756 281.302 12.3259C281.302 13.8765 280.035 15.1486 278.491 15.1486C276.947 15.1486 275.68 13.8765 275.68 12.3259C275.68 10.7756 276.947 9.50348 278.491 9.50348" fill="black"/>
<path d="M292.664 20.7933V25.7226H288.982V38.6207H284.073V14.1149C284.073 10.3783 287.161 6.99919 290.804 6.99919C292.031 6.99919 293.021 7.35714 293.258 7.51596L293.06 12.2465H290.804C289.814 12.2465 288.982 13.0813 288.982 14.1149V20.7933H292.664Z" fill="black"/>
<path d="M299.559 25.0865H303.241V22.781C303.241 21.7473 302.41 20.9126 301.42 20.9126C300.39 20.9126 299.559 21.7473 299.559 22.781V25.0865ZM294.65 22.781C294.65 19.0441 297.659 15.9833 301.42 15.9833C305.141 15.9833 308.15 19.0441 308.15 22.781V27.5514C308.15 28.9426 307.042 30.0158 305.696 30.0158H299.559V32.1626C299.559 33.1959 300.39 34.031 301.42 34.031H306.131L306.29 38.2051L301.855 38.8807C297.58 39.5963 294.65 35.8992 294.65 32.1626V22.781Z" fill="black"/>
<path d="M312.348 38.6422V7.5159H315.516V16.9769C316.387 16.6987 317.772 16.5795 318.722 16.5795C322.088 16.5795 324.701 19.6404 324.701 23.099V38.6422H321.613V23.099C321.613 21.3895 320.227 20.0379 318.525 20.0379H315.516V38.6422H312.348Z" fill="black"/>
<path d="M336.288 32.6396V27.2729H333.24C331.538 27.2729 330.191 28.6246 330.191 30.3337V32.6396C330.191 34.3487 331.538 35.7401 333.24 35.7401C334.942 35.7401 336.288 34.3487 336.288 32.6396ZM336.288 22.5821C336.288 20.7932 335.457 19.362 333.2 19.6008H333.24C331.973 19.6404 330.35 19.7994 329.004 19.8789C328.964 18.7261 328.925 18.2888 328.885 17.4144C329.954 17.0168 331.498 16.6192 332.804 16.5795C336.763 16.5 339.377 19.72 339.377 23.1783V32.6396C339.377 36.0581 336.645 38.8806 333.24 38.8806C329.835 38.8806 327.024 36.0581 327.024 32.6396V30.6917C327.024 27.2729 329.36 24.6891 333.24 24.6891C334.705 24.6891 335.457 24.8481 336.288 25.0864V22.5821Z" fill="black"/>
<path d="M348.246 16.5795C351.651 16.5795 354.461 19.3621 354.461 22.8206V23.2182C353.234 23.258 352.244 23.258 351.334 23.2977V22.8206C351.334 21.1511 349.948 19.7598 348.246 19.7598C346.583 19.7598 345.237 21.1511 345.237 22.8206V32.7588C345.237 34.5079 346.583 35.8198 348.246 35.8198C349.909 35.8198 351.294 34.5477 351.334 32.878C352.878 32.9974 354.343 33.0769 354.461 33.0769C354.303 36.3763 351.532 39 348.246 39C344.841 39 342.07 36.2172 342.07 32.7588V22.8206C342.07 19.3621 344.841 16.5795 348.246 16.5795" fill="black"/>
<path d="M366.94 38.6422L360.922 28.1076C360.328 27.0743 360.328 26.9549 361.041 25.7225L366.346 16.8976H369.949L363.971 27.0743L370.424 38.6422H366.94ZM360.131 7.59541V38.6422H356.963V7.59541H360.131Z" fill="black"/>
<path d="M374.259 26.1995H380.356V22.8602C380.356 21.151 378.97 19.7598 377.307 19.7598C375.605 19.7598 374.259 21.151 374.259 22.8602V26.1995ZM371.091 22.8602C371.091 19.4019 373.863 16.5795 377.307 16.5795C380.712 16.5795 383.483 19.4019 383.483 22.8602V27.75C383.483 28.6644 382.771 29.3401 381.9 29.3401H374.259V32.7189C374.259 34.4283 375.605 35.8198 377.307 35.8198H381.306C381.345 36.8531 381.385 37.5691 381.464 38.2843L377.663 38.8806C373.784 39.5564 371.091 36.1775 371.091 32.7189V22.8602" fill="black"/>
<path d="M389.428 38.6422H386.261V23.1386C386.261 19.6801 388.953 16.4603 392.912 16.5396C394.258 16.5795 395.09 16.8976 396 17.3348C395.961 18.2888 395.921 19.0839 395.882 19.7994L392.437 19.72C390.774 19.72 389.428 21.5089 389.428 23.1386V38.6422" fill="black"/>
</g>
<g clip-path="url(#clip1)">
<path d="M441.014 2H479.96C479.958 17.3332 479.96 32.6668 479.959 48H441.014V2ZM464.276 6.71299C463.587 6.99221 462.935 7.38211 462.415 7.91106C461.775 8.54035 461.361 9.37034 461.181 10.2367C461.06 10.7764 461.027 11.331 461.039 11.8825C461.039 18.2264 461.039 24.5703 461.039 30.9141C461.024 31.7537 461.141 32.6059 461.467 33.3865C461.709 33.974 462.08 34.5118 462.552 34.9457C463.298 35.652 464.268 36.0825 465.259 36.3479C466.325 36.6287 467.432 36.7306 468.533 36.7478C469.593 36.7608 470.663 36.6957 471.694 36.4391C472.506 36.2388 473.297 35.9079 473.95 35.387C474.584 34.8925 475.052 34.2107 475.329 33.4673C475.624 32.6775 475.722 31.8303 475.721 30.9934C475.719 28.5337 475.724 26.0736 475.719 23.6135C473.666 23.6158 471.614 23.6116 469.561 23.6158C469.56 26.1008 469.56 28.5854 469.56 31.0704C469.566 31.3714 469.567 31.6824 469.443 31.964C469.312 32.2489 468.997 32.4106 468.687 32.4201C468.387 32.4355 468.038 32.4167 467.818 32.1896C467.594 31.9843 467.546 31.6656 467.533 31.3803C467.532 24.7143 467.534 18.0487 467.532 11.3827C467.531 11.1437 467.569 10.8936 467.707 10.6914C467.862 10.4443 468.167 10.3229 468.454 10.3198C468.768 10.2957 469.116 10.3681 469.329 10.6121C469.554 10.879 469.571 11.2429 469.56 11.5734C469.56 12.8504 469.56 14.1274 469.56 15.4047C469.565 16.381 469.55 17.3581 469.568 18.3344C471.619 18.3302 473.669 18.3352 475.72 18.3317C475.723 16.08 475.72 13.8282 475.721 11.5765C475.713 10.6983 475.586 9.80698 475.228 8.99575C474.947 8.36455 474.52 7.79079 473.968 7.36143C473.335 6.84819 472.563 6.52493 471.775 6.31772C470.793 6.06608 469.776 5.98909 468.765 5.98603C467.245 6.00058 465.695 6.14843 464.276 6.71299V6.71299ZM445.266 6.21124C445.267 16.3466 445.266 26.4823 445.267 36.6176C447.431 36.6252 449.595 36.621 451.759 36.6195C451.758 33.2769 451.759 29.9344 451.758 26.5918C451.764 26.0089 451.747 25.4255 451.767 24.8433C452.065 24.8468 452.362 24.8433 452.66 24.8441C453.377 24.8384 454.096 24.8694 454.809 24.7863C455.554 24.7066 456.295 24.5461 456.979 24.2401C457.45 24.0256 457.894 23.7441 458.256 23.3768C458.863 22.7996 459.246 22.0286 459.448 21.2308C459.659 20.431 459.691 19.5999 459.678 18.7779C459.678 16.543 459.678 14.3085 459.678 12.0737C459.686 11.4735 459.668 10.8702 459.563 10.2773C459.406 9.32821 459.036 8.3837 458.349 7.67972C457.835 7.13813 457.164 6.75589 456.452 6.52148C455.448 6.19056 454.379 6.10515 453.325 6.12008C450.647 6.11664 447.969 6.12698 445.292 6.1151C445.286 6.13885 445.273 6.18711 445.266 6.21124V6.21124ZM449.193 38.6181C448.862 38.8479 448.709 39.2416 448.625 39.6158C448.503 40.2064 448.493 40.8116 448.493 41.4118C448.504 41.9698 448.519 42.5378 448.688 43.0756C448.791 43.3854 448.974 43.6984 449.286 43.8443C449.699 44.0435 450.187 44.045 450.63 43.9565C450.688 43.8439 450.806 43.9213 450.89 43.8573C451.234 43.6911 451.411 43.3257 451.48 42.9733C451.557 42.5543 451.579 42.1188 451.511 41.6979C451.2 41.7044 450.888 41.6768 450.577 41.6849C450.607 41.989 450.614 42.2962 450.592 42.601C450.572 42.7895 450.561 42.9917 450.452 43.1549C450.344 43.328 450.1 43.3456 449.921 43.2874C449.758 43.2345 449.692 43.0599 449.657 42.9113C449.572 42.5313 449.594 42.1403 449.57 41.7553C449.575 41.3344 449.557 40.9135 449.583 40.4933C449.593 40.1164 449.591 39.7334 449.695 39.3672C449.721 39.2906 449.754 39.214 449.808 39.1528C449.925 39.0402 450.12 39.0252 450.264 39.0926C450.387 39.1413 450.424 39.278 450.462 39.3902C450.541 39.7572 450.535 40.1367 450.504 40.509C450.827 40.5086 451.149 40.4879 451.472 40.4799C451.516 39.9889 451.533 39.4653 451.325 39.0049C451.173 38.6571 450.801 38.4541 450.43 38.4116C450.013 38.3649 449.55 38.3745 449.193 38.6181V38.6181ZM460.602 38.5085C460.256 38.643 460.036 38.9716 459.926 39.3075C459.758 39.8257 459.722 40.3742 459.704 40.9142C459.696 41.5914 459.682 42.2805 459.858 42.9412C459.95 43.2828 460.121 43.6333 460.439 43.8244C460.756 44.0055 461.142 44.0381 461.501 43.9914C461.791 43.9542 461.994 43.7225 462.134 43.4892C462.216 43.6195 462.281 43.7612 462.372 43.8857C462.491 43.9404 462.635 43.8941 462.763 43.9148C462.788 43.8757 462.799 43.8336 462.796 43.7884C462.795 42.8837 462.793 41.9794 462.798 41.0747C462.31 41.0682 461.822 41.0694 461.335 41.0732C461.338 41.3325 461.315 41.5937 461.347 41.8519C461.528 41.8469 461.709 41.8503 461.89 41.8492C461.876 42.2624 461.945 42.7029 461.758 43.0894C461.644 43.3203 461.337 43.3552 461.111 43.2862C460.991 43.2487 460.934 43.1288 460.898 43.0204C460.817 42.7607 460.808 42.4873 460.792 42.2184C460.773 41.6561 460.78 41.0935 460.783 40.5312C460.804 40.1137 460.78 39.679 460.93 39.2811C461.025 38.9961 461.513 38.9639 461.618 39.2585C461.758 39.6108 461.727 40.0007 461.711 40.3707C462.035 40.4087 462.363 40.3524 462.69 40.3646C462.715 39.8878 462.725 39.3776 462.492 38.9432C462.351 38.6613 462.054 38.4821 461.745 38.4273C461.367 38.3634 460.963 38.3683 460.602 38.5085V38.5085ZM465.539 38.5472C465.222 38.7023 465.031 39.0206 464.928 39.3412C464.777 39.8127 464.75 40.311 464.724 40.8016C464.719 41.439 464.707 42.082 464.822 42.7121C464.889 43.0641 465.006 43.4303 465.28 43.6823C465.532 43.9167 465.889 43.999 466.228 44.0078C466.6 44.0235 467.012 43.9841 467.303 43.7309C467.649 43.4456 467.727 42.9764 467.764 42.5593C467.775 42.2778 467.798 41.9894 467.742 41.7121C467.431 41.6895 467.113 41.6776 466.8 41.6914C466.84 41.9534 466.821 42.2199 466.824 42.4842C466.813 42.7106 466.803 42.9538 466.681 43.153C466.556 43.3517 466.263 43.3533 466.073 43.2533C465.883 43.1078 465.87 42.8534 465.839 42.6382C465.792 42.1809 465.807 41.7197 465.804 41.2609C465.806 40.7227 465.793 40.1819 465.862 39.6472C465.889 39.4753 465.92 39.2929 466.033 39.1531C466.209 38.9884 466.566 39.0256 466.647 39.2711C466.797 39.6656 466.738 40.0984 466.738 40.5105C467.057 40.5063 467.376 40.4906 467.695 40.4791C467.754 39.9954 467.751 39.4829 467.563 39.0248C467.416 38.6671 467.038 38.4591 466.662 38.4116C466.286 38.3699 465.882 38.3722 465.539 38.5472V38.5472ZM469.593 38.3913C469.301 38.404 468.995 38.4664 468.764 38.6529C468.484 38.8693 468.344 39.2098 468.258 39.5392C468.107 40.1654 468.103 40.8131 468.108 41.4531C468.119 41.9809 468.146 42.5152 468.295 43.0254C468.385 43.328 468.541 43.6363 468.823 43.8087C469.104 43.991 469.454 44.0132 469.781 44.0109C470.122 44.0055 470.485 43.932 470.741 43.6957C471.019 43.4333 471.137 43.0576 471.214 42.6972C471.302 42.21 471.333 41.7136 471.325 41.2191C471.332 40.7082 471.305 40.1938 471.206 39.6913C471.127 39.3213 470.992 38.9348 470.693 38.6797C470.394 38.4227 469.975 38.3764 469.593 38.3913V38.3913ZM445.271 38.4741C445.256 40.2761 445.277 42.0794 445.261 43.8818C445.364 43.9286 445.48 43.9056 445.589 43.9102C445.825 43.9048 446.062 43.919 446.297 43.9044C446.3 43.8749 446.307 43.8163 446.31 43.7868C446.307 43.1376 446.314 42.488 446.307 41.8388C446.588 41.8147 446.875 41.8561 447.152 41.7867C447.48 41.7258 447.784 41.5271 447.937 41.2321C448.155 40.8185 448.169 40.337 448.148 39.8816C448.118 39.4829 447.999 39.0539 447.675 38.7874C447.4 38.5625 447.032 38.4871 446.682 38.4752C446.212 38.4725 445.742 38.4756 445.271 38.4741V38.4741ZM452.003 38.4733C452.004 40.2846 452 42.0955 452.005 43.9067C452.237 43.9144 452.468 43.9067 452.699 43.9106C452.786 43.9098 452.877 43.9194 452.96 43.8849C452.948 43.1369 452.958 42.3885 452.954 41.64C452.962 41.1119 452.933 40.5837 452.953 40.0559C452.976 40.2382 452.975 40.4232 453.004 40.6055C453.159 41.7094 453.375 42.804 453.551 43.9044C453.847 43.9109 454.145 43.9182 454.442 43.9017C454.578 43.0465 454.74 42.195 454.876 41.3398C454.951 40.8905 454.979 40.4351 455.034 39.9843C455.032 41.2923 455.023 42.6014 455.032 43.9102C455.347 43.9094 455.662 43.9125 455.978 43.9083C455.984 42.0966 455.978 40.2849 455.98 38.4733C455.541 38.4798 455.101 38.4664 454.662 38.479C454.604 38.615 454.607 38.7713 454.571 38.9153C454.375 40.0153 454.18 41.1157 453.985 42.2157C453.761 40.9728 453.553 39.7269 453.346 38.4809C452.899 38.4664 452.451 38.479 452.003 38.4733V38.4733ZM457.379 38.4748C457.103 39.9391 456.813 41.4007 456.527 42.863C456.471 43.2131 456.373 43.557 456.339 43.9102C456.657 43.9136 456.976 43.9029 457.294 43.9152C457.396 43.5919 457.415 43.2472 457.487 42.9159C457.761 42.9124 458.035 42.9113 458.309 42.9163C458.376 43.2487 458.423 43.5854 458.507 43.914C458.863 43.9006 459.221 43.9205 459.578 43.9037C459.544 43.6034 459.46 43.3111 459.405 43.0143C459.09 41.5236 458.779 40.0318 458.462 38.5411C458.464 38.4266 458.328 38.4599 458.253 38.4549C457.962 38.4672 457.667 38.43 457.379 38.4748V38.4748ZM471.742 38.4729C471.741 40.2857 471.737 42.0985 471.745 43.9113C472.061 43.8945 472.384 43.94 472.697 43.8868C472.69 42.5857 472.691 41.2842 472.692 39.9835C472.715 40.4489 472.786 40.91 472.861 41.3696C473 42.2046 473.149 43.0381 473.292 43.8726C473.323 43.9355 473.402 43.9029 473.457 43.9106C473.698 43.8983 473.942 43.9316 474.181 43.8926C474.334 42.9768 474.506 42.064 474.648 41.1463C474.71 40.7584 474.719 40.3642 474.773 39.9759C474.787 40.3393 474.778 40.7036 474.769 41.0671C474.773 42.0135 474.764 42.9599 474.774 43.906C475.088 43.9144 475.403 43.9079 475.719 43.9106C475.723 42.0985 475.722 40.2861 475.719 38.4741C475.279 38.4744 474.839 38.4744 474.399 38.4748C474.288 39.0038 474.203 39.5373 474.108 40.0693C474.082 40.2302 474.042 40.3899 474.048 40.5542C474.039 40.5638 474.022 40.5825 474.013 40.5921C473.922 41.1333 473.822 41.6738 473.723 42.2138C473.505 40.9686 473.298 39.7215 473.082 38.476C472.636 38.4714 472.189 38.4771 471.742 38.4729V38.4729ZM463.269 42.7224C463.267 43.115 463.271 43.5076 463.268 43.9006C463.576 43.9217 463.886 43.9033 464.195 43.9106C464.265 43.9071 464.343 43.9236 464.404 43.8799C464.389 43.495 464.401 43.1093 464.399 42.724C464.022 42.7163 463.646 42.7175 463.269 42.7224V42.7224Z" fill="black"/>
<path d="M451.763 10.5144C452.271 10.511 452.814 10.5366 453.261 10.7979C453.549 10.9603 453.717 11.2648 453.791 11.5735C453.87 11.8875 453.854 12.2131 453.856 12.5337C453.856 14.538 453.856 16.5427 453.856 18.547C453.862 18.981 453.854 19.4475 453.612 19.8278C453.394 20.1813 452.969 20.3453 452.569 20.4016C452.304 20.4452 452.033 20.4609 451.764 20.4498C451.751 18.1303 451.762 15.8104 451.759 13.4905C451.762 12.4984 451.753 11.5064 451.763 10.5144V10.5144Z" fill="black"/>
<path d="M469.428 39.1535C469.527 39.0474 469.686 39.0707 469.81 39.0167C469.874 39.0972 469.989 39.1182 470.044 39.2075C470.133 39.3373 470.169 39.494 470.189 39.6475C470.264 40.1684 470.24 40.6955 470.244 41.2202C470.24 41.7438 470.265 42.2708 470.184 42.7906C470.152 42.9606 470.113 43.1586 469.956 43.2621C469.818 43.3344 469.641 43.3348 469.5 43.2728C469.304 43.156 469.273 42.9154 469.236 42.7143C469.167 42.103 469.186 41.4872 469.183 40.874C469.181 40.4909 469.193 40.1083 469.23 39.7272C469.257 39.5277 469.283 39.3082 469.428 39.1535V39.1535Z" fill="black"/>
<path d="M446.309 39.1987C446.525 39.1577 446.792 39.1792 446.924 39.3764C447.075 39.6173 447.079 39.9153 447.08 40.19C447.067 40.4604 447.055 40.7637 446.856 40.974C446.71 41.1084 446.498 41.0782 446.314 41.0805C446.304 40.4535 446.314 39.8261 446.309 39.1987V39.1987Z" fill="black"/>
<path d="M457.631 42.169C457.689 41.416 457.834 40.6714 457.882 39.9176C457.969 40.6679 458.075 41.4167 458.165 42.167C457.986 42.1709 457.809 42.1697 457.631 42.169Z" fill="black"/>
<path d="M479.96 2H479.985V48H479.959C479.96 32.6668 479.959 17.3332 479.96 2Z" fill="white"/>
<path d="M464.276 6.71292C465.696 6.14836 467.246 6.00052 468.765 5.98596C469.776 5.98903 470.794 6.06601 471.775 6.31765C472.564 6.52486 473.335 6.84813 473.968 7.36137C474.52 7.79072 474.948 8.36448 475.228 8.99569C475.586 9.80691 475.713 10.6982 475.722 11.5764C475.72 13.8282 475.723 16.0799 475.72 18.3317C473.669 18.3351 471.619 18.3301 469.568 18.3343C469.55 17.358 469.566 16.381 469.561 15.4047C469.561 14.1273 469.561 12.8503 469.561 11.5734C469.571 11.2428 469.555 10.879 469.33 10.612C469.116 10.368 468.769 10.2956 468.454 10.3198C468.167 10.3228 467.862 10.4442 467.708 10.6913C467.57 10.8935 467.531 11.1436 467.532 11.3826C467.534 18.0486 467.532 24.7142 467.533 31.3802C467.546 31.6655 467.594 31.9842 467.818 32.1895C468.038 32.4166 468.387 32.4354 468.687 32.4201C468.998 32.4105 469.312 32.2489 469.444 31.9639C469.567 31.6824 469.566 31.3714 469.561 31.0703C469.561 28.5853 469.56 26.1007 469.561 23.6157C471.614 23.6115 473.666 23.6157 475.719 23.6134C475.724 26.0735 475.72 28.5336 475.722 30.9933C475.722 31.8302 475.624 32.6774 475.33 33.4672C475.053 34.2107 474.584 34.8924 473.95 35.3869C473.297 35.9078 472.507 36.2387 471.695 36.439C470.664 36.6956 469.593 36.7608 468.533 36.7477C467.432 36.7305 466.325 36.6286 465.259 36.3479C464.268 36.0824 463.298 35.6519 462.552 34.9457C462.08 34.5117 461.71 33.974 461.467 33.3864C461.141 32.6058 461.024 31.7536 461.04 30.9141C461.04 24.5702 461.04 18.2263 461.04 11.8825C461.028 11.3309 461.06 10.7763 461.181 10.2367C461.361 9.37027 461.775 8.54028 462.416 7.91099C462.935 7.38205 463.587 6.99214 464.276 6.71292V6.71292Z" fill="white"/>
<path d="M445.267 6.21125C445.273 6.18712 445.286 6.13886 445.292 6.11511C447.97 6.12699 450.647 6.11664 453.325 6.12009C454.379 6.10515 455.448 6.19057 456.452 6.52149C457.164 6.7559 457.835 7.13814 458.35 7.67972C459.036 8.3837 459.406 9.32822 459.563 10.2773C459.668 10.8702 459.686 11.4735 459.678 12.0737C459.678 14.3086 459.678 16.5431 459.678 18.7779C459.692 19.5999 459.66 20.431 459.448 21.2308C459.246 22.0286 458.863 22.7996 458.257 23.3768C457.895 23.7441 457.45 24.0256 456.979 24.2401C456.296 24.5461 455.554 24.7066 454.81 24.7863C454.096 24.8694 453.377 24.8384 452.661 24.8441C452.363 24.8434 452.065 24.8468 451.768 24.8434C451.747 25.4255 451.765 26.0089 451.759 26.5918C451.759 29.9344 451.758 33.2769 451.759 36.6195C449.595 36.621 447.431 36.6253 445.267 36.6176C445.266 26.4823 445.267 16.3466 445.267 6.21125V6.21125ZM451.763 10.5144C451.753 11.5064 451.762 12.4984 451.759 13.4904C451.763 15.8104 451.751 18.1303 451.765 20.4498C452.034 20.4609 452.304 20.4452 452.569 20.4015C452.97 20.3452 453.394 20.1813 453.613 19.8278C453.854 19.4475 453.862 18.9809 453.856 18.547C453.856 16.5427 453.856 14.538 453.856 12.5337C453.854 12.2131 453.87 11.8875 453.791 11.5734C453.717 11.2647 453.549 10.9602 453.262 10.7978C452.814 10.5366 452.271 10.511 451.763 10.5144V10.5144Z" fill="white"/>
<path d="M449.193 38.6181C449.551 38.3745 450.013 38.3649 450.431 38.4116C450.802 38.4542 451.174 38.6572 451.326 39.0049C451.533 39.4653 451.517 39.9889 451.473 40.4799C451.15 40.488 450.827 40.5086 450.504 40.509C450.535 40.1367 450.542 39.7572 450.463 39.3902C450.424 39.278 450.388 39.1413 450.264 39.0926C450.12 39.0252 449.926 39.0402 449.809 39.1528C449.754 39.2141 449.722 39.2907 449.695 39.3673C449.591 39.7334 449.593 40.1164 449.583 40.4933C449.557 40.9135 449.575 41.3344 449.57 41.7554C449.595 42.1403 449.573 42.5313 449.657 42.9113C449.692 43.0599 449.759 43.2346 449.921 43.2874C450.101 43.3456 450.344 43.328 450.453 43.1549C450.562 42.9917 450.573 42.7895 450.592 42.6011C450.615 42.2962 450.607 41.989 450.577 41.6849C450.889 41.6768 451.2 41.7044 451.512 41.6979C451.579 42.1188 451.558 42.5543 451.481 42.9733C451.411 43.3257 451.234 43.6911 450.891 43.8573C450.806 43.9213 450.688 43.8439 450.631 43.9565C450.188 44.045 449.699 44.0435 449.286 43.8443C448.975 43.6984 448.791 43.3855 448.688 43.0756C448.52 42.5379 448.505 41.9698 448.494 41.4118C448.494 40.8116 448.504 40.2064 448.625 39.6158C448.71 39.2416 448.862 38.8479 449.193 38.6181V38.6181Z" fill="white"/>
<path d="M460.603 38.5085C460.963 38.3683 461.367 38.3633 461.745 38.4273C462.055 38.482 462.351 38.6613 462.493 38.9432C462.726 39.3775 462.715 39.8877 462.69 40.3646C462.364 40.3523 462.035 40.4086 461.711 40.3707C461.728 40.0007 461.758 39.6108 461.618 39.2584C461.513 38.9639 461.026 38.996 460.93 39.281C460.78 39.679 460.804 40.1137 460.783 40.5312C460.781 41.0934 460.773 41.6561 460.792 42.2183C460.809 42.4872 460.817 42.7607 460.898 43.0204C460.934 43.1288 460.991 43.2486 461.111 43.2862C461.337 43.3551 461.644 43.3203 461.759 43.0893C461.945 42.7029 461.877 42.2624 461.891 41.8491C461.71 41.8503 461.528 41.8468 461.348 41.8518C461.316 41.5936 461.338 41.3324 461.335 41.0731C461.823 41.0693 462.311 41.0681 462.798 41.0747C462.793 41.9793 462.796 42.8836 462.797 43.7883C462.799 43.8335 462.788 43.8756 462.764 43.9147C462.635 43.894 462.491 43.9404 462.373 43.8856C462.281 43.7611 462.216 43.6194 462.134 43.4892C461.994 43.7224 461.791 43.9542 461.501 43.9913C461.143 44.038 460.757 44.0055 460.439 43.8243C460.122 43.6332 459.95 43.2827 459.859 42.9411C459.682 42.2804 459.697 41.5913 459.705 40.9142C459.722 40.3741 459.758 39.8256 459.926 39.3074C460.036 38.9715 460.256 38.6429 460.603 38.5085V38.5085Z" fill="white"/>
<path d="M465.539 38.5472C465.882 38.3722 466.287 38.3699 466.662 38.4116C467.039 38.4591 467.416 38.6671 467.564 39.0248C467.751 39.4829 467.754 39.9954 467.696 40.4791C467.376 40.4906 467.057 40.5063 466.738 40.5105C466.739 40.0984 466.797 39.6656 466.647 39.2711C466.566 39.0256 466.209 38.9884 466.033 39.1531C465.92 39.2929 465.889 39.4752 465.862 39.6472C465.793 40.1819 465.806 40.7227 465.804 41.2609C465.807 41.7197 465.793 42.1809 465.84 42.6382C465.871 42.8534 465.883 43.1077 466.074 43.2533C466.264 43.3533 466.557 43.3517 466.681 43.1529C466.804 42.9538 466.813 42.7106 466.824 42.4842C466.821 42.2199 466.84 41.9533 466.8 41.6914C467.113 41.6776 467.431 41.6894 467.742 41.712C467.798 41.9893 467.775 42.2778 467.764 42.5593C467.728 42.9764 467.649 43.4456 467.304 43.7309C467.013 43.9841 466.601 44.0235 466.228 44.0078C465.89 43.999 465.532 43.9167 465.28 43.6823C465.006 43.4302 464.889 43.0641 464.823 42.7121C464.707 42.082 464.719 41.439 464.725 40.8016C464.751 40.311 464.777 39.8127 464.928 39.3412C465.031 39.0206 465.223 38.7023 465.539 38.5472V38.5472Z" fill="white"/>
<path d="M469.593 38.3913C469.975 38.3764 470.394 38.4227 470.693 38.6797C470.993 38.9348 471.128 39.3213 471.206 39.6913C471.306 40.1938 471.333 40.7082 471.326 41.2191C471.334 41.7136 471.302 42.21 471.214 42.6971C471.137 43.0576 471.019 43.4333 470.741 43.6957C470.485 43.932 470.122 44.0055 469.781 44.0109C469.454 44.0132 469.104 43.991 468.823 43.8087C468.542 43.6363 468.386 43.328 468.295 43.0254C468.146 42.5152 468.119 41.9809 468.108 41.4531C468.103 40.8131 468.107 40.1654 468.258 39.5392C468.344 39.2098 468.485 38.8693 468.765 38.6529C468.995 38.4664 469.301 38.4039 469.593 38.3913V38.3913ZM469.429 39.1535C469.284 39.3082 469.257 39.5277 469.23 39.7273C469.193 40.1084 469.181 40.491 469.183 40.874C469.186 41.4872 469.167 42.1031 469.237 42.7144C469.273 42.9155 469.304 43.156 469.5 43.2728C469.641 43.3349 469.818 43.3345 469.956 43.2621C470.113 43.1587 470.152 42.9607 470.184 42.7906C470.265 42.2709 470.24 41.7438 470.244 41.2202C470.24 40.6955 470.264 40.1685 470.19 39.6476C470.169 39.494 470.133 39.3373 470.044 39.2075C469.989 39.1183 469.874 39.0972 469.81 39.0168C469.686 39.0708 469.527 39.0474 469.429 39.1535V39.1535Z" fill="white"/>
<path d="M445.272 38.474C445.742 38.4755 446.212 38.4725 446.682 38.4751C447.032 38.487 447.4 38.5625 447.675 38.7873C448 39.0539 448.119 39.4829 448.148 39.8816C448.169 40.337 448.155 40.8184 447.937 41.2321C447.784 41.527 447.48 41.7258 447.152 41.7867C446.875 41.856 446.588 41.8147 446.307 41.8388C446.315 42.488 446.307 43.1376 446.31 43.7868C446.307 43.8163 446.301 43.8749 446.297 43.9044C446.062 43.9189 445.826 43.9048 445.59 43.9101C445.48 43.9055 445.364 43.9285 445.261 43.8818C445.277 42.0793 445.257 40.2761 445.272 38.474V38.474ZM446.309 39.1987C446.314 39.826 446.304 40.4534 446.314 41.0804C446.498 41.0781 446.709 41.1084 446.856 40.9739C447.055 40.7637 447.067 40.4603 447.08 40.1899C447.078 39.9153 447.075 39.6173 446.924 39.3764C446.792 39.1791 446.525 39.1577 446.309 39.1987V39.1987Z" fill="white"/>
<path d="M452.004 38.4734C452.451 38.4791 452.899 38.4665 453.347 38.481C453.553 39.727 453.762 40.9729 453.985 42.2158C454.181 41.1158 454.375 40.0154 454.571 38.9154C454.608 38.7714 454.604 38.6151 454.663 38.4791C455.102 38.4665 455.541 38.4799 455.981 38.4734C455.978 40.285 455.984 42.0967 455.978 43.9084C455.663 43.9126 455.348 43.9095 455.032 43.9103C455.023 42.6015 455.032 41.2924 455.034 39.9844C454.979 40.4352 454.951 40.8906 454.877 41.3399C454.741 42.1951 454.579 43.0466 454.442 43.9018C454.146 43.9183 453.848 43.911 453.551 43.9045C453.376 42.8041 453.159 41.7095 453.004 40.6056C452.975 40.4233 452.976 40.2383 452.953 40.056C452.933 40.5838 452.963 41.112 452.955 41.6401C452.958 42.3886 452.948 43.137 452.96 43.885C452.878 43.9195 452.787 43.9099 452.7 43.9107C452.468 43.9068 452.237 43.9145 452.006 43.9068C452 42.0956 452.004 40.2847 452.004 38.4734V38.4734Z" fill="white"/>
<path d="M457.379 38.4747C457.667 38.4299 457.962 38.4671 458.253 38.4548C458.329 38.4598 458.464 38.4265 458.463 38.541C458.78 40.0317 459.09 41.5235 459.405 43.0142C459.46 43.3111 459.544 43.6033 459.579 43.9036C459.222 43.9204 458.864 43.9005 458.507 43.9139C458.423 43.5853 458.376 43.2486 458.31 42.9162C458.036 42.9112 457.762 42.9124 457.488 42.9158C457.416 43.2471 457.397 43.5918 457.294 43.9151C456.976 43.9028 456.658 43.9136 456.34 43.9101C456.373 43.557 456.471 43.213 456.527 42.8629C456.813 41.4006 457.103 39.939 457.379 38.4747ZM457.631 42.1689C457.809 42.1697 457.986 42.1708 458.165 42.167C458.075 41.4167 457.969 40.6679 457.882 39.9176C457.834 40.6713 457.689 41.4159 457.631 42.1689Z" fill="white"/>
<path d="M471.743 38.4729C472.19 38.4771 472.636 38.4714 473.083 38.476C473.299 39.7215 473.506 40.9686 473.724 42.2138C473.823 41.6738 473.922 41.1333 474.014 40.5921C474.022 40.5825 474.04 40.5638 474.048 40.5542C474.042 40.3899 474.082 40.2302 474.109 40.0693C474.203 39.5373 474.289 39.0038 474.399 38.4748C474.839 38.4744 475.279 38.4744 475.719 38.474C475.722 40.2861 475.724 42.0985 475.719 43.9106C475.404 43.9079 475.089 43.9144 474.774 43.906C474.764 42.9599 474.773 42.0135 474.77 41.0671C474.778 40.7036 474.787 40.3393 474.773 39.9758C474.719 40.3642 474.711 40.7583 474.648 41.1463C474.507 42.064 474.334 42.9768 474.182 43.8926C473.943 43.9316 473.699 43.8983 473.458 43.9106C473.402 43.9029 473.323 43.9355 473.292 43.8726C473.15 43.038 473 42.2046 472.862 41.3696C472.787 40.91 472.715 40.4489 472.692 39.9835C472.692 41.2842 472.69 42.5857 472.697 43.8868C472.385 43.94 472.062 43.8945 471.745 43.9113C471.737 42.0985 471.741 40.2857 471.743 38.4729V38.4729Z" fill="white"/>
<path d="M463.27 42.7224C463.646 42.7174 464.022 42.7162 464.399 42.7239C464.401 43.1092 464.389 43.4949 464.404 43.8798C464.343 43.9235 464.265 43.907 464.195 43.9105C463.886 43.9032 463.577 43.9216 463.268 43.9005C463.271 43.5075 463.267 43.1149 463.27 42.7224V42.7224Z" fill="white"/>
</g>
<defs>
<clipPath id="clip0">
<rect width="128" height="32" fill="white" transform="translate(268 7)"/>
</clipPath>
<clipPath id="clip1">
<rect width="39" height="46" fill="white" transform="translate(441 2)"/>
</clipPath>
</defs>
</svg>
