<svg width="503" height="401" viewBox="0 0 503 401" fill="none" xmlns="http://www.w3.org/2000/svg">
<path d="M330.848 374.926C355.211 374.277 379.975 367.111 402.626 355.707C427.597 343.122 455.221 317.532 462.444 285.661C465.796 270.234 466.296 254.323 463.918 238.713C461.348 221.173 452.264 204.91 439.951 194.967C430.795 187.58 419.004 189.408 409.638 182.843C400.097 176.159 399.159 162.759 407.133 153.058C414.525 144.061 425.824 138.285 428.667 125.017C432.128 108.748 419.453 96.3017 409.86 87.7932C399.459 78.6494 386.463 73.7983 373.98 69.1463C356.593 62.6625 338.27 56.3717 320.135 52.7151C304.102 49.4909 287.852 47.3268 271.935 43.5426C262.982 41.4096 251.304 37.9656 242.011 41.0892C236.289 43.0394 232.103 49.9443 234.931 56.5404C236.789 60.8521 242.853 64.1423 246.49 66.2974C233.669 67.0903 220.41 62.1536 207.805 60.4265C193.053 58.4351 178.246 57.016 163.291 56.2128C149.132 55.4482 134.134 54.8551 119.74 57.5654C96.9413 61.8725 83.3585 83.1162 80.5013 108.984C79.3757 119.176 77.2856 130.963 79.2699 140.95C80.3179 146.003 87.1511 157.477 85.3875 162.399C83.681 167.146 70.8615 167.376 66.7047 168.46C56.968 171.002 45.1852 171.925 36.7755 179.431C26.5452 188.584 19.1762 210.21 18.2678 224.47C17.0396 243.939 24.8824 265.878 32.7044 281.83C40.5265 297.782 51.4622 306.66 65.1619 315.19C85.121 327.633 109.605 329.542 132.283 333.84C160.403 339.175 188.199 346.997 216.279 352.324C233.935 355.673 251.276 359.74 268.524 364.006C280.438 366.957 291.867 370.496 303.96 372.784C312.82 374.459 321.835 375.177 330.848 374.926Z" fill="#F0F9FC"/>
<path d="M340.218 203.146H156.406V342.104H340.218V203.146Z" fill="white"/>
<path d="M261.681 333.068V337.479H232.94V333.068H138.622V339.501C138.63 341.3 139.35 343.022 140.626 344.293C141.901 345.563 143.628 346.277 145.429 346.28H349.192C351 346.28 352.734 345.563 354.012 344.285C355.291 343.008 356.009 341.276 356.009 339.47V333.038L261.681 333.068Z" fill="white"/>
<path d="M340.207 333.191C339.936 333.191 339.676 333.083 339.485 332.892C339.293 332.7 339.185 332.441 339.185 332.17V204.167H157.428V332.17C157.428 332.441 157.32 332.7 157.129 332.892C156.937 333.083 156.677 333.191 156.406 333.191C156.135 333.191 155.875 333.083 155.683 332.892C155.492 332.7 155.384 332.441 155.384 332.17V203.146C155.384 202.875 155.492 202.615 155.683 202.424C155.875 202.232 156.135 202.125 156.406 202.125H340.207C340.479 202.125 340.738 202.232 340.93 202.424C341.122 202.615 341.23 202.875 341.23 203.146V332.17C341.23 332.441 341.122 332.7 340.93 332.892C340.738 333.083 340.479 333.191 340.207 333.191Z" fill="#4F5A79"/>
<path d="M332.061 208.873H164.562V326.452H332.061V208.873Z" fill="#D2F0FF"/>
<path d="M262.58 326.452L332.061 281.967V236.369L191.351 326.452H262.58Z" fill="#EBFFFF"/>
<path d="M320.256 208.873H287.059L164.562 287.296V308.554L320.256 208.873Z" fill="#EBFFFF"/>
<path d="M164.562 229.487V274.697L267.374 208.873H196.758L164.562 229.487Z" fill="#EBFFFF"/>
<path d="M332.051 327.473H164.562C164.291 327.473 164.031 327.365 163.84 327.174C163.648 326.982 163.54 326.723 163.54 326.452V208.873C163.54 208.602 163.648 208.343 163.84 208.151C164.031 207.96 164.291 207.852 164.562 207.852H332.051C332.322 207.852 332.582 207.96 332.774 208.151C332.966 208.343 333.073 208.602 333.073 208.873V326.452C333.073 326.723 332.966 326.982 332.774 327.174C332.582 327.365 332.322 327.473 332.051 327.473ZM165.584 325.431H331.029V209.894H165.584V325.431Z" fill="#4F5A79"/>
<path d="M349.191 347.301H145.429C143.35 347.298 141.358 346.472 139.888 345.004C138.419 343.536 137.592 341.546 137.589 339.47V333.038C137.589 332.767 137.697 332.507 137.889 332.316C138.08 332.124 138.34 332.017 138.611 332.017H232.929C233.2 332.017 233.46 332.124 233.652 332.316C233.844 332.507 233.951 332.767 233.951 333.038V336.427H260.648V333.038C260.648 332.767 260.756 332.507 260.948 332.316C261.139 332.124 261.399 332.017 261.67 332.017H355.978C356.249 332.017 356.509 332.124 356.701 332.316C356.892 332.507 357 332.767 357 333.038V339.47C356.997 341.541 356.175 343.526 354.712 344.994C353.249 346.461 351.264 347.29 349.191 347.301ZM139.664 334.028V339.439C139.66 340.2 139.806 340.953 140.093 341.657C140.381 342.361 140.804 343.001 141.34 343.542C141.875 344.082 142.512 344.512 143.213 344.807C143.915 345.101 144.668 345.255 145.429 345.259H349.191C350.727 345.256 352.2 344.646 353.286 343.56C354.372 342.475 354.984 341.004 354.987 339.47V334.059H262.703V337.448C262.703 337.719 262.595 337.979 262.403 338.17C262.211 338.362 261.952 338.469 261.68 338.469H232.939C232.668 338.469 232.408 338.362 232.217 338.17C232.025 337.979 231.917 337.719 231.917 337.448V334.059L139.664 334.028Z" fill="#4F5A79"/>
<path d="M458.698 208.069L394.185 223.791L405.168 268.764L469.681 253.043L458.698 208.069Z" fill="white"/>
<path d="M464.416 214.15C464.416 214.15 467.738 214.079 473.911 207.422C482.988 197.62 486.493 193.301 488.221 195.823C489.948 198.345 482.436 210.74 482.436 210.74C482.436 210.74 488.629 204.808 490.408 206.595C492.186 208.382 483.683 218.296 483.683 218.296C483.683 218.296 490.837 213.109 492.288 215.233C493.74 217.356 487.004 227.321 469.935 232.222L464.416 214.15Z" fill="white"/>
<path d="M399.289 230.027C399.289 230.027 393.259 229.537 388.864 229.006C383.467 228.557 374.555 227.924 373.175 230.537C371.366 234.101 387.116 237.95 387.116 237.95C387.116 237.95 375.985 238.042 376.047 241.013C376.108 243.984 390.928 245.577 390.928 245.577C390.928 245.577 381.811 245.832 381.035 247.986C380.258 250.141 391.031 255.378 403.663 249.354L399.289 230.027Z" fill="white"/>
<path d="M455.192 200.397L437.091 204.808L440.458 218.598L458.56 214.187L455.192 200.397Z" fill="#62BEFB"/>
<path d="M469.946 233.232C469.811 233.251 469.675 233.243 469.543 233.209C469.412 233.175 469.289 233.116 469.181 233.034C468.962 232.87 468.818 232.625 468.78 232.354C468.742 232.084 468.814 231.809 468.979 231.59C469.143 231.372 469.388 231.228 469.659 231.19C483.171 227.311 489.559 220.378 491.052 217.243C491.338 216.794 491.474 216.264 491.44 215.732C490.898 215.314 487.587 216.753 484.285 219.081C484.083 219.231 483.832 219.302 483.581 219.278C483.33 219.255 483.097 219.14 482.925 218.955C482.754 218.77 482.658 218.528 482.654 218.277C482.65 218.025 482.74 217.78 482.906 217.591C486.697 213.159 489.784 208.402 489.631 207.238C489.058 206.962 486.166 208.555 483.141 211.444C482.954 211.608 482.714 211.698 482.466 211.698C482.218 211.698 481.978 211.608 481.791 211.444C481.6 211.29 481.471 211.071 481.428 210.829C481.385 210.587 481.43 210.338 481.556 210.127C485.379 203.817 488.098 197.364 487.372 196.313C487.198 196.058 487.096 196.047 487.055 196.047C485.788 195.925 482.027 200.019 477.284 205.165L474.647 208.024C468.372 214.803 464.815 215.079 464.426 215.079C464.155 215.088 463.891 214.99 463.693 214.805C463.495 214.62 463.378 214.364 463.368 214.094C463.359 213.823 463.458 213.559 463.642 213.361C463.827 213.163 464.084 213.046 464.355 213.037C464.467 213.037 467.544 212.669 473.145 206.635L475.771 203.787C482.057 196.956 484.97 193.852 487.188 194.005C487.567 194.038 487.933 194.16 488.256 194.36C488.579 194.561 488.851 194.834 489.048 195.159C490.377 197.089 488.19 202.245 485.982 206.502C487.924 205.277 489.948 204.573 491.154 205.778C492.585 207.217 490.694 210.791 487.985 214.487C489.126 213.866 490.419 213.576 491.716 213.65C492.006 213.693 492.284 213.797 492.532 213.953C492.78 214.11 492.993 214.316 493.157 214.558C493.386 214.996 493.506 215.483 493.506 215.977C493.506 216.472 493.386 216.959 493.157 217.397C491.644 221.481 484.296 229.056 470.201 233.1C470.123 233.156 470.037 233.2 469.946 233.232Z" fill="#4F5A79"/>
<path d="M391.777 253.122C386.451 253.122 382.506 251.427 381.004 250.059C379.798 248.967 379.9 248.017 380.074 247.558C380.442 246.537 381.791 245.852 383.477 245.393C379.062 244.484 375.065 243.075 375.025 240.952C375.021 240.645 375.08 240.34 375.2 240.057C375.32 239.774 375.496 239.519 375.72 239.308C376.742 238.287 379.062 237.644 381.351 237.266C377.57 236.01 373.175 234.152 372.244 232.059C372.084 231.742 372 231.393 372 231.038C372 230.683 372.084 230.333 372.244 230.017C373.655 227.24 379.931 227.168 388.925 227.975C393.299 228.536 399.289 228.996 399.35 228.996C399.484 229.007 399.615 229.045 399.735 229.107C399.854 229.169 399.961 229.253 400.047 229.356C400.134 229.459 400.2 229.578 400.241 229.706C400.282 229.834 400.297 229.969 400.285 230.104C400.274 230.238 400.236 230.368 400.174 230.488C400.112 230.607 400.028 230.713 399.925 230.8C399.822 230.887 399.703 230.952 399.574 230.993C399.446 231.034 399.311 231.049 399.176 231.038C399.176 231.038 393.044 230.527 388.71 230.017C377.467 229.067 374.554 230.017 374.064 231.038C374.064 231.109 374.002 231.17 374.064 231.324C374.933 233.202 382.343 235.765 387.351 236.99C387.594 237.048 387.808 237.194 387.951 237.399C388.094 237.604 388.157 237.855 388.128 238.103C388.098 238.352 387.977 238.581 387.788 238.747C387.6 238.913 387.357 239.003 387.106 239.002C383.671 239.002 378.326 239.614 377.161 240.809C377.11 240.86 377.048 240.931 377.048 240.982C377.457 242.095 383.988 243.78 391.02 244.556C391.271 244.584 391.503 244.703 391.671 244.892C391.839 245.08 391.931 245.324 391.93 245.577C391.93 245.848 391.822 246.107 391.63 246.299C391.439 246.49 391.179 246.598 390.908 246.598C386.819 246.72 382.639 247.496 381.995 248.262C382.545 248.903 383.248 249.395 384.039 249.691C387.933 251.448 395.282 252.183 403.132 248.436C403.253 248.377 403.385 248.342 403.52 248.335C403.655 248.327 403.789 248.346 403.917 248.391C404.044 248.435 404.161 248.505 404.262 248.595C404.362 248.685 404.444 248.794 404.501 248.915C404.617 249.159 404.632 249.439 404.542 249.693C404.452 249.948 404.265 250.156 404.021 250.273C400.203 252.121 396.019 253.095 391.777 253.122Z" fill="#4F5A79"/>
<path d="M183.512 134.932C184.994 131.573 188.019 128.244 189.971 124.977C192.608 120.556 196.104 117.044 199.926 113.491C202.492 111.071 211.946 102.872 211.864 111.051C211.864 115.135 209.892 120.24 208.011 123.874C209.119 121.955 210.834 120.457 212.886 119.617C215.595 118.769 218.426 120.26 218.395 123.15C218.395 126.703 214.583 128.142 212.927 130.746C215.687 129.847 221.891 127.009 221.84 132.247C221.84 135.759 215.554 139.098 213.07 140.68C205.2 145.704 196.86 148.593 187.927 150.89L183.512 134.932Z" fill="white"/>
<path d="M89.4798 160.161C80.8943 156.455 73.2797 150.707 64.684 146.888C62.0777 145.744 56.3642 143.753 54.1463 146.765C52.1022 149.502 55.0969 152.983 56.9673 154.811C58.112 155.934 62.415 159.559 63.9992 158.895C61.4031 160.039 54.6676 159.15 54.872 163.234C55.0867 167.563 62.2719 167.186 65.0929 167.808C63.2225 168.625 58.1427 170.024 58.112 172.627C58.112 175.925 64.8373 176.763 67.2085 177.069C70.2551 177.501 73.3403 177.594 76.4073 177.345C82.0407 176.98 87.6339 176.147 93.1286 174.853L89.4798 160.161Z" fill="white"/>
<path d="M183.258 119.527L90.6206 143.511L105.947 202.585L198.584 178.601L183.258 119.527Z" fill="white"/>
<path d="M100.937 200.634C100.707 200.642 100.48 200.571 100.294 200.434C100.109 200.297 99.9751 200.101 99.9152 199.878L84.584 140.803C84.5491 140.673 84.5402 140.538 84.5577 140.405C84.5752 140.272 84.6189 140.143 84.6862 140.027C84.8236 139.794 85.0478 139.625 85.3097 139.557L178.013 115.533C178.273 115.468 178.548 115.509 178.779 115.645C179.012 115.783 179.181 116.006 179.249 116.268L194.581 175.343C194.649 175.605 194.611 175.882 194.475 176.116C194.339 176.349 194.116 176.52 193.855 176.589L101.213 200.562C101.125 200.597 101.032 200.621 100.937 200.634ZM86.8632 141.283L101.673 198.377L192.342 174.894L177.532 117.8L86.8632 141.283Z" fill="#4F5A79"/>
<path d="M170.567 126.963L152.906 131.536L155.971 143.346L173.631 138.774L170.567 126.963Z" fill="#B9E8FD"/>
<path d="M157.416 135.349C157.145 135.383 156.872 135.307 156.656 135.14C156.44 134.972 156.3 134.726 156.266 134.455C156.232 134.185 156.308 133.911 156.475 133.696C156.643 133.481 156.89 133.341 157.161 133.307L172.921 129.223C173.051 129.189 173.187 129.181 173.32 129.2C173.453 129.219 173.582 129.263 173.697 129.332C173.813 129.4 173.914 129.49 173.995 129.598C174.076 129.705 174.135 129.828 174.168 129.958C174.237 130.219 174.199 130.497 174.063 130.73C173.927 130.964 173.704 131.134 173.442 131.203L157.672 135.287L157.416 135.349Z" fill="#4F5A79"/>
<path d="M158.857 139.934C158.723 139.95 158.587 139.941 158.456 139.905C158.326 139.869 158.204 139.808 158.097 139.725C157.99 139.642 157.901 139.539 157.834 139.421C157.767 139.304 157.724 139.174 157.707 139.04C157.691 138.906 157.7 138.77 157.736 138.64C157.772 138.51 157.833 138.388 157.916 138.281C157.999 138.174 158.103 138.085 158.22 138.018C158.338 137.951 158.468 137.908 158.602 137.892L174.373 133.808C174.503 133.774 174.638 133.766 174.771 133.785C174.905 133.804 175.033 133.848 175.149 133.917C175.265 133.985 175.366 134.075 175.447 134.183C175.527 134.29 175.586 134.413 175.619 134.543C175.685 134.804 175.644 135.08 175.506 135.312C175.368 135.543 175.145 135.711 174.884 135.778L159.113 139.862C159.033 139.901 158.946 139.925 158.857 139.934Z" fill="#4F5A79"/>
<path d="M187.927 151.891C187.656 151.925 187.383 151.849 187.167 151.682C186.951 151.514 186.811 151.268 186.777 150.997C186.743 150.727 186.819 150.453 186.986 150.238C187.154 150.023 187.401 149.883 187.672 149.849C198.301 147.102 205.732 144.08 212.518 139.751L213.541 139.097C216.055 137.556 220.746 134.687 220.777 132.165C220.823 131.849 220.795 131.526 220.694 131.223C220.592 130.919 220.421 130.644 220.194 130.419C219.029 129.582 216.024 130.654 214.236 131.287L213.213 131.644C213.013 131.712 212.795 131.716 212.592 131.655C212.389 131.594 212.21 131.471 212.08 131.304C211.95 131.137 211.875 130.933 211.865 130.722C211.856 130.51 211.913 130.301 212.028 130.123C212.74 129.109 213.586 128.195 214.542 127.407C216.034 126.059 217.312 124.895 217.343 123.068C217.362 122.655 217.278 122.245 217.1 121.872C216.922 121.5 216.654 121.178 216.321 120.934C215.861 120.62 215.333 120.419 214.781 120.346C214.229 120.274 213.668 120.332 213.142 120.515C211.338 121.285 209.832 122.617 208.849 124.313C208.714 124.55 208.489 124.724 208.226 124.796C207.962 124.867 207.681 124.832 207.444 124.696C207.207 124.561 207.033 124.337 206.961 124.074C206.889 123.81 206.925 123.529 207.06 123.292C207.929 121.628 210.75 115.829 210.801 110.928C210.801 110.152 210.72 108.804 210.035 108.498C208.655 107.896 204.679 110.254 200.591 114.114C196.911 117.585 193.436 121.056 190.809 125.345C190.012 126.682 189.031 128.03 188.091 129.337C186.675 131.162 185.443 133.121 184.411 135.187C184.357 135.31 184.279 135.421 184.182 135.513C184.084 135.606 183.97 135.678 183.845 135.727C183.719 135.775 183.586 135.798 183.451 135.795C183.317 135.792 183.185 135.762 183.062 135.708C182.939 135.654 182.828 135.576 182.735 135.479C182.643 135.381 182.57 135.267 182.522 135.142C182.473 135.017 182.45 134.883 182.453 134.749C182.457 134.615 182.486 134.483 182.541 134.36C183.621 132.159 184.926 130.075 186.435 128.142C187.396 126.815 188.295 125.559 189.051 124.293C191.77 119.749 195.399 116.125 199.18 112.592C202.247 109.754 207.704 105.21 210.852 106.589C212.202 107.171 212.897 108.631 212.897 110.908C212.768 113.728 212.177 116.507 211.149 119.137C211.603 118.865 212.086 118.646 212.59 118.483C213.424 118.205 214.312 118.126 215.182 118.254C216.052 118.381 216.88 118.712 217.598 119.219C218.188 119.656 218.663 120.231 218.982 120.892C219.3 121.554 219.453 122.283 219.428 123.017C219.428 125.436 217.935 127.009 216.474 128.357C218.283 127.897 220.133 127.744 221.431 128.673C221.938 129.08 222.335 129.607 222.586 130.206C222.838 130.805 222.936 131.457 222.872 132.104C222.872 135.759 217.762 138.883 214.695 140.762C214.317 140.997 213.97 141.201 213.673 141.395C206.693 145.836 199.088 148.94 188.234 151.748L187.927 151.891Z" fill="#4F5A79"/>
<path d="M73.3104 178.529C71.2321 178.515 69.1566 178.372 67.0961 178.1C64.3365 177.753 57.0593 176.834 57.1001 172.638C57.1001 170.596 59.0728 169.289 61.1169 168.34C57.8565 167.911 54.0339 166.961 53.8499 163.306C53.6659 159.651 57.2023 159.059 60.0744 158.66C58.7139 157.752 57.4349 156.727 56.2518 155.597C51.5195 150.972 52.051 147.94 53.3287 146.204C55.9247 142.682 61.8221 144.571 65.103 146.01C69.3753 147.879 73.6988 150.258 77.8893 152.565C82.0798 154.873 86.5872 157.364 90.9106 159.222C91.137 159.343 91.3098 159.544 91.3945 159.786C91.4793 160.027 91.4699 160.292 91.3682 160.528C91.2665 160.763 91.08 160.951 90.8457 161.056C90.6114 161.16 90.3463 161.172 90.1032 161.09C85.6878 159.191 81.2213 156.731 76.8979 154.352C72.7482 152.075 68.4657 149.706 64.2751 147.879C62.5683 147.123 56.8446 144.877 54.9742 147.419C53.5331 149.369 55.6488 152.146 57.6827 154.137C59.7167 156.128 62.7931 158.221 63.6006 157.976C63.8487 157.87 64.1288 157.867 64.3796 157.966C64.6305 158.066 64.8317 158.26 64.9395 158.507C64.9936 158.631 65.0228 158.763 65.0254 158.898C65.028 159.033 65.0039 159.166 64.9545 159.292C64.9051 159.417 64.8314 159.531 64.7376 159.628C64.6438 159.725 64.5318 159.802 64.408 159.855C63.2865 160.251 62.1185 160.502 60.933 160.6C57.3761 161.08 55.8225 161.621 55.8941 163.204C56.0065 165.552 59.1443 166.083 62.9158 166.502C63.7221 166.569 64.524 166.681 65.3177 166.839C65.5285 166.885 65.7192 166.997 65.8625 167.158C66.0057 167.32 66.0941 167.522 66.1149 167.737C66.1333 167.949 66.085 168.161 65.9769 168.344C65.8688 168.527 65.7063 168.672 65.5119 168.758C65.1848 168.901 64.7555 169.064 64.2751 169.248C62.4865 169.922 59.1647 171.188 59.1647 172.648C59.1647 173.741 60.5752 175.211 67.3414 176.058C70.3198 176.485 73.3368 176.578 76.3358 176.334C77.9711 176.181 79.5349 176.069 81.0578 175.946C85.3628 175.752 89.6419 175.175 93.8441 174.221C93.9762 174.182 94.1147 174.171 94.2513 174.188C94.3878 174.204 94.5196 174.248 94.6387 174.317C94.7579 174.386 94.8619 174.478 94.9446 174.588C95.0273 174.697 95.0869 174.823 95.1199 174.956C95.153 175.09 95.1587 175.228 95.1368 175.364C95.115 175.5 95.0659 175.629 94.9925 175.746C94.9192 175.862 94.8231 175.962 94.7101 176.04C94.597 176.119 94.4694 176.173 94.3347 176.201C90.022 177.185 85.63 177.783 81.2111 177.988C79.6984 178.1 78.1449 178.213 76.53 178.376C75.4874 178.478 74.4245 178.529 73.3104 178.529Z" fill="#4F5A79"/>
<path d="M375.326 136.086C379.057 131.073 402.698 112.47 409.126 116.554C419.071 122.843 400.245 135.708 395.676 136.851C400.786 133.982 408.053 133.155 407.941 139.823C407.849 146.796 397.812 149.175 392.313 150.033C405.784 148.164 402.462 155.75 392.18 158.517C383.38 160.886 377.084 160.968 368.284 158.517L375.326 136.086Z" fill="white"/>
<path d="M275.55 105.231C274.958 99.0031 264.359 70.8948 256.775 71.048C245 71.293 254.444 92.0398 257.797 95.3785C254.884 90.2735 249.13 85.8015 245.746 91.56C242.22 97.5839 249.569 104.833 253.821 108.407C243.263 99.8301 242.169 108.039 249.538 115.727C255.834 122.302 261.18 125.631 269.98 128.112L275.55 105.231Z" fill="white"/>
<path d="M284.172 90.8984L266.347 154.714L366.43 182.609L384.254 118.794L284.172 90.8984Z" fill="#62BEFB"/>
<path d="M316.526 153.433C316.434 153.448 316.341 153.448 316.25 153.433C315.99 153.36 315.769 153.187 315.636 152.953L280.129 90.0079C279.997 89.7716 279.964 89.4925 280.037 89.2319L280.742 86.71C280.768 86.5704 280.822 86.4376 280.901 86.3201C280.981 86.2025 281.084 86.1028 281.204 86.0273C281.324 85.9518 281.459 85.9021 281.599 85.8815C281.74 85.8608 281.883 85.8697 282.02 85.9074C282.157 85.9452 282.285 86.011 282.395 86.1007C282.505 86.1904 282.595 86.3021 282.659 86.4285C282.723 86.5549 282.761 86.6934 282.769 86.835C282.777 86.9767 282.755 87.1184 282.705 87.2512L282.112 89.3749L316.863 151.033L378.576 116.319L379.169 114.206C379.205 114.076 379.265 113.955 379.348 113.849C379.43 113.743 379.533 113.654 379.649 113.588C379.766 113.522 379.895 113.479 380.028 113.462C380.161 113.446 380.297 113.455 380.426 113.491C380.556 113.526 380.677 113.587 380.783 113.669C380.889 113.752 380.978 113.854 381.045 113.971C381.111 114.087 381.154 114.216 381.17 114.349C381.187 114.482 381.177 114.617 381.142 114.747L380.436 117.279C380.364 117.538 380.191 117.759 379.956 117.892L317.026 153.31C316.872 153.391 316.7 153.433 316.526 153.433Z" fill="#4F5A79"/>
<path d="M363.368 178.835C363.276 178.85 363.183 178.85 363.092 178.835L263.019 150.952C262.888 150.916 262.765 150.854 262.658 150.77C262.551 150.686 262.462 150.581 262.396 150.462C262.264 150.226 262.23 149.946 262.304 149.686L280.129 85.8832C280.165 85.7537 280.225 85.6326 280.308 85.5266C280.39 85.4206 280.493 85.3319 280.609 85.2655C280.726 85.1991 280.855 85.1564 280.988 85.1397C281.122 85.1231 281.257 85.1329 281.386 85.1685L381.469 113.062C381.729 113.136 381.949 113.31 382.081 113.545C382.213 113.78 382.246 114.058 382.174 114.318L364.349 178.131C364.282 178.337 364.15 178.517 363.974 178.644C363.797 178.77 363.585 178.837 363.368 178.835ZM264.553 149.226L362.673 176.569L379.946 114.716L281.826 87.3841L264.553 149.226Z" fill="#4F5A79"/>
<path d="M380.079 161.386C375.991 161.335 371.929 160.723 368.008 159.569C367.878 159.534 367.757 159.473 367.651 159.391C367.545 159.308 367.456 159.206 367.39 159.089C367.323 158.973 367.28 158.844 367.264 158.711C367.247 158.578 367.257 158.442 367.292 158.313C367.328 158.184 367.389 158.062 367.471 157.956C367.553 157.85 367.656 157.762 367.773 157.695C367.889 157.629 368.018 157.586 368.151 157.57C368.285 157.553 368.42 157.563 368.55 157.598C377.033 159.926 383.145 159.916 391.914 157.598C397.751 156.026 400.398 153.147 400.163 152.044C400.009 151.258 397.822 150.359 392.456 151.105C392.185 151.145 391.909 151.077 391.689 150.914C391.468 150.751 391.321 150.508 391.281 150.237C391.24 149.966 391.309 149.69 391.472 149.47C391.635 149.25 391.878 149.103 392.15 149.063C398.844 147.981 406.847 145.5 406.919 139.813C406.919 138.087 406.449 136.943 405.386 136.321C404.036 135.514 401.716 135.586 399.253 136.402C398.21 137.007 397.103 137.494 395.952 137.852C395.711 137.914 395.457 137.887 395.235 137.775C395.014 137.663 394.84 137.475 394.748 137.245C394.655 137.015 394.65 136.759 394.732 136.525C394.814 136.291 394.979 136.095 395.195 135.974C396.228 135.401 397.309 134.919 398.425 134.534C403.025 131.951 410.2 126.305 410.925 121.782C411.211 120.015 410.445 118.596 408.605 117.422C403.035 113.899 380.12 131.42 376.185 136.698C376.11 136.818 376.011 136.92 375.894 136.999C375.777 137.078 375.646 137.132 375.507 137.158C375.369 137.184 375.227 137.181 375.089 137.149C374.952 137.117 374.823 137.058 374.71 136.974C374.597 136.89 374.502 136.783 374.432 136.661C374.362 136.539 374.319 136.403 374.304 136.264C374.288 136.124 374.303 135.982 374.345 135.848C374.387 135.714 374.457 135.59 374.549 135.483C377.615 131.318 402.268 110.979 409.699 115.696C412.908 117.738 413.235 120.311 412.949 122.108C412.285 126.192 407.839 130.603 403.495 133.717C404.544 133.751 405.569 134.042 406.479 134.565C407.655 135.269 409.045 136.749 409.004 139.843C408.963 142.937 407.174 146.735 399.887 149.287C400.448 149.429 400.96 149.719 401.37 150.127C401.781 150.535 402.073 151.045 402.217 151.605C402.8 154.474 398.619 157.884 392.487 159.538C388.453 160.708 384.279 161.33 380.079 161.386Z" fill="#4F5A79"/>
<path d="M269.929 129.133C269.837 129.147 269.744 129.147 269.653 129.133C260.781 126.631 255.344 123.323 248.761 116.482C244.366 111.898 242.557 106.813 244.55 104.659C244.962 104.254 245.476 103.968 246.038 103.831C246.599 103.695 247.187 103.713 247.739 103.883C242.823 97.9306 243.273 93.7343 244.826 91.0797C246.38 88.425 248.322 87.8737 249.691 87.8737C250.741 87.9012 251.768 88.1814 252.686 88.6905C250.642 83.7897 249.048 77.7249 250.642 73.8757C251.327 72.1809 252.942 70.1491 256.775 70.0674H256.836C265.605 70.0674 276.082 100.024 276.583 105.17C276.608 105.439 276.526 105.707 276.353 105.916C276.181 106.125 275.932 106.257 275.663 106.282C275.393 106.308 275.124 106.226 274.915 106.053C274.706 105.881 274.574 105.633 274.549 105.364C273.915 98.8291 263.449 72.1094 256.856 72.1094C254.669 72.1094 253.279 72.9875 252.604 74.6415C250.887 78.8889 254.097 87.4142 256.693 91.9986C257.458 92.9029 258.143 93.8733 258.737 94.8982C258.861 95.1135 258.903 95.3666 258.853 95.6102C258.804 95.8538 258.668 96.0711 258.47 96.2214C258.272 96.3717 258.025 96.4446 257.777 96.4266C257.529 96.4086 257.296 96.3008 257.122 96.1234C256.327 95.2233 255.641 94.2329 255.078 93.1727C253.361 91.1307 251.409 89.9157 249.835 89.9055C248.618 89.9055 247.606 90.6304 246.768 92.1109C243.896 97.0117 249.456 103.27 254.628 107.651C254.731 107.737 254.816 107.843 254.877 107.962C254.939 108.081 254.977 108.211 254.988 108.345C255 108.479 254.985 108.613 254.944 108.741C254.903 108.869 254.837 108.988 254.751 109.09C254.578 109.296 254.33 109.425 254.063 109.45C253.795 109.475 253.528 109.393 253.32 109.223C249.109 105.813 246.779 105.445 246.237 106.037C245.47 106.864 246.237 110.693 250.417 115.053C256.693 121.597 261.916 124.773 270.389 127.162C270.649 127.236 270.869 127.409 271.001 127.645C271.133 127.88 271.166 128.158 271.094 128.418C271.022 128.66 270.864 128.866 270.649 128.998C270.433 129.13 270.177 129.178 269.929 129.133Z" fill="#4F5A79"/>
<path d="M37.3604 304.534C34.8154 303.043 32.5873 300.562 30.0934 298.837C28.6011 297.816 21.4056 294.089 20.0974 297.121C19.5761 298.347 21.7633 301.052 22.5197 301.849C24.3492 303.748 26.7614 304.279 28.8975 305.626C27.2315 306.198 24.2879 306.576 24.6967 308.781C25.1056 310.987 29.8072 312.865 31.8513 312.202C26.516 313.345 28.6318 316.959 32.6486 318.185C36.461 319.338 40.5902 317.848 44.2084 317.878L37.3604 304.534Z" fill="white"/>
<path d="M87.5634 267.734L36.4297 296.528L54.8294 329.134L105.963 300.34L87.5634 267.734Z" fill="#EF6FFF"/>
<path d="M86.5739 273.24C85.9096 270.065 87.3712 255.515 92.7064 255.035C96.6619 254.678 93.7285 267.002 92.7064 269.197C93.7285 267.318 95.9771 264.255 98.4608 265.317C101.823 266.757 98.8389 271.116 97.6226 273.209C99.6668 272.035 101.639 270.698 103.622 272.188C105.922 273.914 105.268 276.854 104.031 279.131C101.987 282.878 97.5204 285.89 93.8102 287.983L86.5739 273.24Z" fill="white"/>
<path d="M72.8165 307.607C72.7538 307.669 72.6813 307.721 72.6019 307.76C72.3654 307.893 72.086 307.926 71.8251 307.852L32.4851 296.887C32.2253 296.814 32.0048 296.641 31.8719 296.407L31.1461 295.12C31.079 295.004 31.0356 294.875 31.0183 294.741C31.0009 294.608 31.0102 294.473 31.0453 294.343C31.1162 294.08 31.2885 293.857 31.5243 293.721C31.7601 293.586 32.0402 293.55 32.3028 293.621C32.5654 293.692 32.7891 293.864 32.9246 294.099L33.4458 295.028L71.3958 305.606L81.9847 267.696L81.4634 266.767C81.3963 266.65 81.3528 266.522 81.3355 266.388C81.3182 266.255 81.3273 266.119 81.3625 265.989C81.3976 265.859 81.458 265.738 81.5402 265.631C81.6224 265.525 81.7248 265.435 81.8416 265.368C81.9583 265.301 82.0872 265.258 82.2207 265.24C82.3543 265.223 82.49 265.232 82.62 265.267C82.75 265.302 82.8719 265.363 82.9786 265.445C83.0852 265.527 83.1747 265.629 83.2418 265.746L83.9675 267.043C84.0348 267.159 84.0784 267.287 84.096 267.42C84.1135 267.554 84.1046 267.689 84.0697 267.819L73.0925 307.117C73.044 307.301 72.949 307.47 72.8165 307.607Z" fill="#4F5A79"/>
<path d="M101.68 299.051C101.617 299.113 101.545 299.165 101.466 299.204L50.3615 327.996C50.1255 328.129 49.8467 328.162 49.5862 328.089C49.3256 328.017 49.1045 327.844 48.9714 327.608L30.5739 295.008C30.5067 294.891 30.4635 294.761 30.4467 294.627C30.4298 294.493 30.4398 294.358 30.4759 294.227C30.512 294.097 30.5736 293.976 30.6571 293.87C30.7406 293.763 30.8443 293.675 30.9623 293.609L82.0665 264.817C82.3024 264.684 82.5812 264.651 82.8418 264.724C83.1023 264.796 83.3234 264.969 83.4566 265.205L101.854 297.816C101.921 297.932 101.965 298.06 101.983 298.193C102 298.327 101.991 298.462 101.956 298.592C101.903 298.765 101.808 298.923 101.68 299.051ZM50.2081 325.72L99.5748 297.928L82.1993 267.104L32.8327 294.895L50.2081 325.72Z" fill="#4F5A79"/>
<path d="M102.334 283.134C100.473 284.771 98.4129 286.168 96.2018 287.289L95.8849 287.463C95.7681 287.53 95.6393 287.573 95.5057 287.591C95.3722 287.608 95.2365 287.599 95.1064 287.564C94.9764 287.529 94.8546 287.468 94.7479 287.386C94.6412 287.304 94.5518 287.202 94.4847 287.085C94.4175 286.968 94.3741 286.84 94.3568 286.706C94.3395 286.573 94.3486 286.437 94.3837 286.308C94.4188 286.178 94.4793 286.056 94.5615 285.949C94.6437 285.843 94.7461 285.753 94.8628 285.686L95.1797 285.513C98.6241 283.573 101.312 282.041 103.203 278.652C104 277.181 105.053 274.496 103.08 273.005C101.833 272.066 100.566 272.72 98.6036 273.863L98.2051 274.088C98.0109 274.202 97.7842 274.249 97.5606 274.221C97.3369 274.194 97.1287 274.093 96.9683 273.935C96.8084 273.776 96.7056 273.568 96.676 273.345C96.6464 273.121 96.6917 272.894 96.8048 272.699L97.1523 272.117C97.9904 270.708 99.4009 268.35 98.992 267.073C98.9193 266.882 98.8044 266.709 98.6558 266.567C98.5072 266.426 98.3287 266.32 98.1335 266.257C96.396 265.511 94.4642 268.166 93.6874 269.667C93.5708 269.912 93.3616 270.101 93.1057 270.192C92.8499 270.283 92.5683 270.268 92.323 270.152C92.0776 270.035 91.8887 269.826 91.7976 269.571C91.7066 269.315 91.7209 269.034 91.8374 268.789C92.7675 266.634 94.5869 258.099 93.2275 256.23C93.1876 256.161 93.1261 256.106 93.0523 256.075C92.9785 256.044 92.8964 256.037 92.8187 256.057C92.3969 256.132 91.9961 256.297 91.6435 256.54C91.2908 256.783 90.9945 257.099 90.7745 257.466C87.9944 261.213 87.0848 270.545 87.6061 273.036C87.6329 273.168 87.6336 273.303 87.6081 273.435C87.5825 273.566 87.5313 273.692 87.4573 273.803C87.3832 273.915 87.2879 274.012 87.1766 274.087C87.0653 274.162 86.9403 274.214 86.8088 274.241C86.2569 274.353 85.4903 272.76 85.4596 272.311C85.2143 268.503 86.2671 260.059 89.1289 256.251C89.5194 255.647 90.0356 255.135 90.6424 254.749C91.2492 254.363 91.9323 254.113 92.6449 254.015C93.077 253.967 93.5141 254.036 93.9099 254.216C94.3057 254.396 94.6456 254.679 94.8935 255.036C96.2835 256.945 95.7725 261.407 95.0263 264.929C95.5716 264.5 96.2213 264.222 96.9091 264.125C97.5968 264.029 98.298 264.116 98.9409 264.378C99.4101 264.549 99.8362 264.82 100.189 265.173C100.542 265.526 100.814 265.951 100.985 266.42C101.286 267.908 101.032 269.456 100.27 270.769C100.944 270.506 101.675 270.422 102.392 270.526C103.109 270.63 103.786 270.918 104.358 271.362C106.668 273.097 106.923 276.181 105.043 279.611C104.331 280.921 103.417 282.11 102.334 283.134Z" fill="#4F5A79"/>
<path d="M44.883 318.614C44.79 318.708 44.6784 318.782 44.5552 318.832C44.4321 318.881 44.3001 318.904 44.1676 318.9C42.8665 318.926 41.5687 319.042 40.2836 319.247C37.6773 319.604 34.9893 319.962 32.3216 319.155C29.47 318.287 27.5383 316.378 27.6098 314.52C27.6398 313.932 27.8584 313.37 28.2333 312.917C27.553 312.703 26.8984 312.415 26.2811 312.059C25.661 311.755 25.1108 311.326 24.6657 310.799C24.2205 310.272 23.89 309.658 23.6952 308.996C23.317 306.954 24.7786 305.984 26.2504 305.422L26.046 305.33C24.4636 304.694 23.0171 303.762 21.7839 302.584C21.4262 302.206 18.2679 298.827 19.1572 296.754C19.3278 296.356 19.588 296.002 19.9177 295.72C20.2475 295.439 20.6377 295.237 21.0582 295.131C24.1858 294.232 29.7766 297.408 30.6761 298.02C31.8078 298.841 32.8961 299.72 33.9365 300.654C34.8564 301.451 35.7456 302.216 36.6552 302.88C37.0539 303.176 37.3298 305.729 36.8392 305.443C35.329 304.492 33.9092 303.406 32.5976 302.196C31.6211 301.311 30.5976 300.479 29.5313 299.705C28.08 298.684 23.5317 296.55 21.6408 297.091C21.512 297.114 21.391 297.169 21.2892 297.251C21.1873 297.333 21.1079 297.44 21.0582 297.561C20.9458 298.061 22.0804 299.919 23.2762 301.175C24.3412 302.163 25.5824 302.942 26.9352 303.472C27.8044 303.86 28.6476 304.304 29.4598 304.8C29.6296 304.905 29.7646 305.058 29.8481 305.24C29.9317 305.421 29.9601 305.623 29.9299 305.821C29.9075 306.012 29.8313 306.193 29.7101 306.343C29.5889 306.493 29.4277 306.606 29.2451 306.668C28.9589 306.77 28.6217 306.862 28.223 306.964C26.1073 307.567 25.5452 307.985 25.6781 308.659C25.966 309.417 26.543 310.03 27.2827 310.364C28.4455 311.068 29.7869 311.423 31.1462 311.385L31.5755 311.283C31.8265 311.238 32.0854 311.288 32.3013 311.423C32.5173 311.559 32.6746 311.77 32.7425 312.016C32.8104 312.262 32.7839 312.524 32.6682 312.751C32.5525 312.978 32.3559 313.154 32.1172 313.243C31.9365 313.303 31.7522 313.351 31.5653 313.386C30.3797 313.703 29.6437 314.193 29.6233 314.683C29.6233 315.347 30.7169 316.623 32.894 317.286C35.071 317.95 37.5853 317.634 39.977 317.286C41.357 317.069 42.7503 316.946 44.1471 316.919C44.3505 316.92 44.5491 316.981 44.7173 317.095C44.8856 317.209 45.0159 317.371 45.0917 317.56C45.1674 317.748 45.1851 317.955 45.1425 318.154C45.0998 318.353 44.9988 318.534 44.8524 318.675L44.883 318.614Z" fill="#4F5A79"/>
<path d="M230.887 160.767C230.887 161.314 230.725 161.849 230.42 162.304C230.116 162.759 229.683 163.114 229.177 163.323C228.671 163.533 228.114 163.587 227.577 163.481C227.04 163.374 226.546 163.11 226.159 162.723C225.771 162.336 225.508 161.843 225.401 161.307C225.294 160.77 225.349 160.214 225.558 159.708C225.768 159.202 226.123 158.77 226.578 158.466C227.034 158.162 227.569 158 228.117 158C228.481 157.999 228.842 158.069 229.179 158.208C229.515 158.346 229.821 158.55 230.079 158.807C230.336 159.065 230.54 159.37 230.679 159.706C230.818 160.043 230.888 160.403 230.887 160.767Z" fill="#0390ED"/>
<path d="M125.54 222.767C125.54 223.314 125.377 223.849 125.073 224.304C124.769 224.759 124.336 225.114 123.83 225.323C123.324 225.533 122.767 225.587 122.229 225.481C121.692 225.374 121.199 225.11 120.811 224.723C120.424 224.336 120.16 223.843 120.053 223.307C119.946 222.77 120.001 222.214 120.211 221.708C120.42 221.202 120.775 220.77 121.231 220.466C121.686 220.162 122.222 220 122.77 220C123.134 219.999 123.495 220.069 123.831 220.208C124.168 220.346 124.474 220.55 124.731 220.807C124.989 221.065 125.193 221.37 125.332 221.706C125.47 222.043 125.541 222.403 125.54 222.767Z" fill="#EF6FFF"/>
<path d="M267.614 178.626C267.614 179.936 267.225 181.217 266.497 182.307C265.768 183.396 264.733 184.245 263.522 184.747C262.31 185.249 260.977 185.381 259.69 185.126C258.404 184.871 257.222 184.241 256.294 183.315C255.366 182.39 254.733 181.21 254.476 179.925C254.219 178.641 254.349 177.309 254.849 176.098C255.35 174.887 256.199 173.851 257.288 173.122C258.378 172.392 259.659 172.002 260.971 172C261.842 171.999 262.706 172.169 263.512 172.501C264.318 172.834 265.051 173.322 265.668 173.937C266.285 174.553 266.774 175.284 267.108 176.088C267.442 176.893 267.614 177.755 267.614 178.626Z" fill="#FBB85E"/>
<path d="M95.6141 84.6263C95.6141 85.9369 95.225 87.218 94.4961 88.3077C93.7673 89.3974 92.7313 90.2467 91.5192 90.7482C90.3071 91.2498 88.9734 91.381 87.6867 91.1253C86.3999 90.8696 85.218 90.2386 84.2903 89.3118C83.3626 88.3851 82.7308 87.2044 82.4749 85.919C82.2189 84.6337 82.3503 83.3013 82.8524 82.0905C83.3544 80.8797 84.2046 79.8448 85.2955 79.1167C86.3863 78.3886 87.6688 78 88.9807 78C90.7392 78.0027 92.4248 78.7017 93.6682 79.9438C94.9116 81.1859 95.6113 82.8697 95.6141 84.6263Z" fill="#62BEFB"/>
<path d="M66 232.5C66 233.588 65.6774 234.651 65.073 235.556C64.4687 236.46 63.6097 237.165 62.6048 237.581C61.5998 237.998 60.4939 238.107 59.427 237.894C58.3601 237.682 57.3801 237.158 56.6109 236.389C55.8418 235.62 55.3179 234.64 55.1057 233.573C54.8935 232.506 55.0024 231.4 55.4187 230.395C55.835 229.39 56.5399 228.531 57.4444 227.927C58.3488 227.323 59.4122 227 60.5 227C61.9587 227 63.3576 227.579 64.3891 228.611C65.4205 229.642 66 231.041 66 232.5Z" fill="#FBB85E"/>
<path d="M391.854 302.248C391.854 303.286 391.546 304.301 390.968 305.165C390.391 306.028 389.569 306.7 388.609 307.097C387.648 307.494 386.592 307.598 385.572 307.394C384.553 307.191 383.617 306.69 382.882 305.955C382.148 305.22 381.649 304.284 381.447 303.266C381.246 302.247 381.351 301.191 381.75 300.233C382.149 299.274 382.824 298.455 383.69 297.879C384.555 297.304 385.572 296.998 386.611 297C388.003 297.003 389.336 297.557 390.319 298.541C391.302 299.525 391.854 300.858 391.854 302.248Z" fill="#FBB85E"/>
<path d="M383.773 197.842C386.217 197.842 388.199 195.863 388.199 193.421C388.199 190.979 386.217 189 383.773 189C381.329 189 379.347 190.979 379.347 193.421C379.347 195.863 381.329 197.842 383.773 197.842Z" fill="#0390ED"/>
<path d="M327.773 44.8419C330.217 44.8419 332.199 42.8626 332.199 40.4209C332.199 37.9793 330.217 36 327.773 36C325.329 36 323.347 37.9793 323.347 40.4209C323.347 42.8626 325.329 44.8419 327.773 44.8419Z" fill="#0390ED"/>
<path d="M330.804 209.956H165.656V223.423H330.804V209.956Z" fill="#D2F0FF"/>
<path d="M330.804 223.422H165.656V325.043H330.804V223.422Z" fill="white"/>
<path d="M318.938 212H317.757C315.321 212 313.347 214.015 313.347 216.5C313.347 218.985 315.321 221 317.757 221H318.938C321.373 221 323.347 218.985 323.347 216.5C323.347 214.015 321.373 212 318.938 212Z" fill="white"/>
<path d="M325 229H174V292H325V229Z" fill="#FFEA80"/>
<path d="M320.13 297.235L307.548 291.763L294.956 286.28L296.5 299.91L298.053 313.541L304.768 308.579L316.236 321.586L322.501 316.961L313.415 302.197L320.13 297.235Z" fill="#EF6FFF"/>
<path d="M316.073 320.383C315.881 320.36 315.706 320.265 315.582 320.117L304.605 307.671L298.472 312.184C298.36 312.27 298.227 312.325 298.086 312.341C297.946 312.357 297.804 312.334 297.675 312.276C297.544 312.222 297.431 312.133 297.346 312.02C297.262 311.907 297.21 311.773 297.195 311.633L294.128 284.372C294.113 284.232 294.134 284.091 294.189 283.962C294.245 283.833 294.333 283.721 294.445 283.637C294.559 283.55 294.694 283.496 294.836 283.48C294.978 283.464 295.122 283.486 295.253 283.545L320.427 294.49C320.557 294.548 320.669 294.638 320.754 294.753C320.838 294.868 320.891 295.002 320.907 295.143C320.927 295.283 320.908 295.426 320.852 295.556C320.796 295.685 320.706 295.797 320.59 295.879L314.458 300.402L323.227 314.542C323.33 314.716 323.365 314.922 323.326 315.12C323.286 315.318 323.175 315.494 323.012 315.615L316.757 320.24C316.661 320.313 316.55 320.364 316.431 320.389C316.313 320.414 316.19 320.412 316.073 320.383ZM304.83 305.782C305.02 305.81 305.193 305.904 305.32 306.048L316.349 318.545L321.459 314.808L312.761 300.667C312.655 300.494 312.619 300.288 312.659 300.089C312.699 299.89 312.812 299.714 312.976 299.595L318.566 295.511L295.948 285.668L298.728 310.173L304.319 306.038C304.468 305.886 304.668 305.795 304.881 305.782H304.83Z" fill="#4F5A79"/>
<path d="M290.521 276.836C290.403 276.901 290.274 276.942 290.141 276.957C290.007 276.973 289.872 276.961 289.743 276.924C289.614 276.887 289.493 276.825 289.388 276.742C289.283 276.658 289.196 276.555 289.131 276.437L285.829 270.424C285.762 270.306 285.719 270.176 285.702 270.041C285.685 269.906 285.695 269.77 285.731 269.639C285.767 269.508 285.829 269.386 285.912 269.279C285.996 269.171 286.1 269.082 286.218 269.015C286.336 268.948 286.466 268.905 286.601 268.888C286.736 268.871 286.872 268.881 287.003 268.917C287.134 268.953 287.257 269.014 287.364 269.098C287.471 269.181 287.561 269.285 287.628 269.403L290.919 275.416C290.989 275.535 291.035 275.667 291.052 275.803C291.07 275.94 291.06 276.078 291.023 276.211C290.986 276.344 290.922 276.467 290.836 276.575C290.749 276.682 290.642 276.771 290.521 276.836Z" fill="#4F5A79"/>
<path d="M285.665 284.81C285.51 284.898 285.333 284.944 285.154 284.942L278.255 284.81C277.984 284.81 277.724 284.702 277.533 284.511C277.341 284.319 277.233 284.059 277.233 283.789C277.233 283.518 277.341 283.258 277.533 283.067C277.724 282.875 277.984 282.768 278.255 282.768L285.114 282.921C285.385 282.921 285.645 283.028 285.836 283.22C286.028 283.411 286.136 283.671 286.136 283.942C286.137 284.114 286.095 284.284 286.012 284.436C285.93 284.588 285.811 284.716 285.665 284.81Z" fill="#4F5A79"/>
<path d="M311.31 285.433C311.153 285.517 310.977 285.559 310.799 285.555L303.93 285.402C303.659 285.402 303.399 285.294 303.207 285.103C303.016 284.911 302.908 284.652 302.908 284.381C302.908 284.11 303.016 283.85 303.207 283.659C303.399 283.467 303.659 283.36 303.93 283.36L310.788 283.513C311.059 283.513 311.319 283.621 311.511 283.812C311.703 284.004 311.81 284.263 311.81 284.534C311.814 284.715 311.769 284.893 311.681 285.051C311.594 285.209 311.465 285.34 311.31 285.433Z" fill="#4F5A79"/>
<path d="M286.616 298.941C286.461 299.03 286.285 299.077 286.105 299.077C285.926 299.077 285.749 299.03 285.594 298.941C285.478 298.871 285.377 298.78 285.297 298.671C285.216 298.563 285.158 298.439 285.126 298.308C285.094 298.177 285.088 298.041 285.108 297.908C285.129 297.775 285.176 297.647 285.247 297.532L288.814 291.681C288.869 291.546 288.953 291.425 289.06 291.325C289.167 291.225 289.293 291.15 289.432 291.103C289.57 291.056 289.717 291.04 289.863 291.055C290.008 291.069 290.148 291.115 290.275 291.189C290.401 291.263 290.51 291.362 290.594 291.482C290.678 291.601 290.736 291.737 290.763 291.88C290.79 292.024 290.786 292.171 290.751 292.313C290.717 292.455 290.652 292.588 290.561 292.702L286.994 298.553C286.91 298.717 286.778 298.852 286.616 298.941Z" fill="#4F5A79"/>
<path d="M299.934 277.05C299.736 277.157 299.509 277.196 299.287 277.161C299.065 277.126 298.861 277.019 298.706 276.856C298.551 276.693 298.455 276.484 298.431 276.261C298.407 276.037 298.458 275.813 298.575 275.621L302.131 269.771C302.187 269.636 302.271 269.514 302.378 269.414C302.484 269.315 302.611 269.239 302.75 269.192C302.888 269.146 303.035 269.129 303.18 269.144C303.326 269.159 303.466 269.205 303.592 269.278C303.718 269.352 303.827 269.452 303.912 269.571C303.996 269.69 304.053 269.826 304.081 269.97C304.108 270.113 304.104 270.261 304.069 270.402C304.034 270.544 303.97 270.677 303.879 270.792L300.312 276.642C300.231 276.813 300.099 276.956 299.934 277.05Z" fill="#4F5A79"/>
<path d="M408.171 264.751C407.936 264.758 407.706 264.683 407.52 264.54C407.334 264.396 407.203 264.194 407.149 263.965L396.162 218.99C396.1 218.727 396.145 218.451 396.287 218.221C396.429 217.992 396.655 217.828 396.918 217.765L461.432 202.031C461.694 201.97 461.969 202.014 462.198 202.154C462.315 202.223 462.416 202.314 462.497 202.423C462.578 202.532 462.636 202.655 462.669 202.787L473.656 247.762C473.688 247.893 473.694 248.028 473.673 248.161C473.652 248.294 473.605 248.422 473.535 248.537C473.465 248.651 473.372 248.751 473.263 248.83C473.154 248.909 473.031 248.966 472.9 248.997L408.406 264.721L408.171 264.751ZM398.42 219.5L408.927 262.495L471.448 247.251L460.951 204.257L398.42 219.5Z" fill="#4F5A79"/>
</svg>
