<svg width="474" height="403" viewBox="0 0 474 403" fill="none" xmlns="http://www.w3.org/2000/svg">
<ellipse cx="156.161" cy="161.407" rx="136.5" ry="109.5" transform="rotate(-7.0099 156.161 161.407)" fill="#F0F9FC"/>
<ellipse cx="293.788" cy="125.341" rx="136.5" ry="109.5" transform="rotate(-7.0099 293.788 125.341)" fill="#F0F9FC"/>
<ellipse cx="164.871" cy="301.894" rx="95" ry="86" transform="rotate(-7.0099 164.871 301.894)" fill="#F0F9FC"/>
<ellipse cx="310.211" cy="254.805" rx="95" ry="86" transform="rotate(-7.0099 310.211 254.805)" fill="#F0F9FC"/>
<path d="M326.259 84.1212L317.141 126.92L378.4 140L387.519 97.2014L326.259 84.1212Z" fill="white"/>
<path d="M378.393 141.112H378.159L316.873 128.004C316.586 127.94 316.337 127.766 316.178 127.519C316.019 127.272 315.964 126.972 316.024 126.685L325.139 83.8852C325.201 83.5966 325.374 83.3441 325.621 83.1828C325.868 83.0215 326.169 82.9644 326.458 83.0241L387.721 96.1089C388.01 96.1698 388.263 96.3427 388.425 96.5898C388.586 96.8377 388.642 97.1392 388.581 97.4285L379.432 140.228C379.381 140.47 379.251 140.687 379.063 140.847C378.875 141.007 378.64 141.1 378.393 141.112ZM318.459 126.047L377.533 138.662L386.135 98.0548L327.061 85.4509L318.459 126.047Z" fill="#4F5A79"/>
<path d="M367.66 98.7131L365.375 109.44L388.592 114.398L390.878 103.67L367.66 98.7131Z" fill="#FBB85E"/>
<path d="M375.468 124.828H375.222L358.856 121.149C358.706 121.125 358.563 121.07 358.434 120.988C358.306 120.906 358.196 120.799 358.111 120.673C358.025 120.547 357.967 120.405 357.938 120.256C357.909 120.107 357.911 119.953 357.944 119.804C357.977 119.656 358.04 119.515 358.128 119.392C358.217 119.268 358.33 119.164 358.46 119.086C358.591 119.008 358.736 118.957 358.886 118.937C359.037 118.916 359.19 118.927 359.337 118.968L375.714 122.592C376.01 122.624 376.281 122.773 376.468 123.006C376.654 123.239 376.741 123.536 376.708 123.833C376.675 124.13 376.526 124.401 376.294 124.588C376.061 124.775 375.764 124.861 375.468 124.828Z" fill="#4F5A79"/>
<path d="M374.786 130.218H374.54L358.208 126.506C357.921 126.439 357.673 126.262 357.516 126.012C357.359 125.763 357.307 125.462 357.37 125.175C357.434 124.886 357.61 124.634 357.859 124.475C358.109 124.315 358.411 124.261 358.7 124.325L375.077 128.004C375.22 128.037 375.355 128.098 375.475 128.183C375.594 128.269 375.696 128.377 375.774 128.501C375.851 128.626 375.904 128.765 375.928 128.91C375.952 129.055 375.948 129.203 375.915 129.346C375.857 129.6 375.713 129.827 375.507 129.986C375.301 130.145 375.046 130.227 374.786 130.218Z" fill="#4F5A79"/>
<path d="M346.554 102.941H346.297L330.378 99.1053C330.235 99.0715 330.1 99.0099 329.981 98.9238C329.861 98.8378 329.76 98.7292 329.683 98.6041C329.527 98.3513 329.477 98.0468 329.546 97.7576C329.614 97.4684 329.794 97.2182 330.046 97.0619C330.299 96.9057 330.603 96.8562 330.892 96.9245L346.811 100.705C347.107 100.739 347.378 100.889 347.563 101.123C347.749 101.357 347.834 101.655 347.8 101.951C347.765 102.248 347.615 102.519 347.381 102.705C347.148 102.89 346.85 102.975 346.554 102.941Z" fill="#4F5A79"/>
<path d="M13.3102 198.008L1.10938 236.817L61.8489 255.954L74.0497 217.145L13.3102 198.008Z" fill="white"/>
<path d="M33.6775 240.638C33.5664 240.655 33.4534 240.655 33.3423 240.638C33.2019 240.595 33.0713 240.524 32.9582 240.43C32.8451 240.336 32.7517 240.22 32.6832 240.09L12.2061 200.758C12.0688 200.496 12.0407 200.19 12.1279 199.908L12.6083 198.364C12.6516 198.223 12.7224 198.091 12.8168 197.977C12.9112 197.864 13.0272 197.77 13.1582 197.701C13.2891 197.632 13.4323 197.59 13.5795 197.577C13.7268 197.565 13.8751 197.581 14.0159 197.626C14.1562 197.671 14.2864 197.742 14.3989 197.837C14.5114 197.932 14.604 198.049 14.6715 198.18C14.739 198.311 14.78 198.453 14.7921 198.6C14.8042 198.747 14.7872 198.895 14.742 199.035L14.4069 200.154L34.1467 238.077L72.0399 218.271L72.375 217.153C72.4195 217.012 72.4911 216.882 72.586 216.769C72.6809 216.657 72.7971 216.564 72.9279 216.496C73.0587 216.429 73.2015 216.388 73.3482 216.376C73.4949 216.364 73.6425 216.38 73.7826 216.426C74.0634 216.516 74.2973 216.713 74.4333 216.975C74.5694 217.237 74.5965 217.542 74.5088 217.824L74.0284 219.367C73.9382 219.647 73.7415 219.88 73.481 220.016L34.1913 240.515C34.0323 240.597 33.8561 240.639 33.6775 240.638Z" fill="#4F5A79"/>
<path d="M61.8527 257.133C61.7417 257.15 61.6287 257.15 61.5176 257.133L0.790112 237.998C0.648792 237.955 0.517478 237.884 0.403745 237.789C0.290011 237.695 0.196141 237.579 0.127563 237.448C0.0589854 237.317 0.0170467 237.173 0.00421742 237.026C-0.00861187 236.878 0.00789794 236.73 0.0527989 236.589L12.2631 197.782C12.3065 197.641 12.3772 197.511 12.4711 197.397C12.565 197.284 12.6804 197.191 12.8105 197.122C13.0736 196.988 13.3788 196.964 13.6595 197.055L74.3982 216.19C74.679 216.28 74.9129 216.478 75.0489 216.739C75.1849 217.001 75.212 217.306 75.1243 217.588L62.9252 256.406C62.8792 256.546 62.8062 256.675 62.7104 256.786C62.6145 256.898 62.4977 256.989 62.3666 257.055C62.2047 257.124 62.0279 257.151 61.8527 257.133ZM2.52169 236.164L61.1266 254.628L72.6778 217.935L14.0729 199.46L2.52169 236.164Z" fill="#4F5A79"/>
<path d="M399.586 296.1L348 309.427L356.497 342.39L408.083 329.063L399.586 296.1Z" fill="white"/>
<path d="M384.707 325.959C384.506 325.959 384.309 325.904 384.137 325.802L352.22 306.958C351.966 306.807 351.781 306.562 351.706 306.275L351.36 304.967C351.323 304.825 351.315 304.676 351.335 304.53C351.356 304.385 351.405 304.244 351.479 304.118C351.554 303.991 351.653 303.88 351.771 303.792C351.888 303.703 352.022 303.639 352.164 303.603C352.307 303.566 352.455 303.557 352.6 303.578C352.746 303.598 352.886 303.647 353.013 303.722C353.139 303.797 353.25 303.896 353.338 304.014C353.427 304.131 353.491 304.265 353.527 304.408L353.751 305.258L384.316 323.308L402.346 292.71L402.123 291.86C402.086 291.717 402.078 291.569 402.098 291.423C402.119 291.278 402.168 291.138 402.243 291.011C402.317 290.884 402.416 290.773 402.534 290.685C402.651 290.597 402.785 290.532 402.927 290.495C403.069 290.459 403.217 290.45 403.363 290.471C403.508 290.492 403.648 290.541 403.775 290.615C403.902 290.69 404.012 290.789 404.101 290.907C404.189 291.024 404.253 291.158 404.29 291.301L404.625 292.609C404.696 292.894 404.651 293.195 404.502 293.448L385.667 325.411C385.517 325.666 385.272 325.851 384.986 325.925C384.894 325.948 384.801 325.959 384.707 325.959Z" fill="#4F5A79"/>
<path d="M360.441 338.529C360.187 338.537 359.938 338.458 359.735 338.306C359.532 338.153 359.387 337.936 359.324 337.69L350.833 304.732C350.758 304.446 350.8 304.142 350.948 303.886C351.097 303.63 351.341 303.444 351.627 303.368L403.216 290.037C403.358 290 403.506 289.991 403.652 290.012C403.798 290.032 403.938 290.081 404.064 290.156C404.191 290.231 404.302 290.33 404.39 290.448C404.478 290.565 404.542 290.699 404.579 290.842L413.114 323.845C413.185 324.131 413.14 324.434 412.99 324.687C412.839 324.941 412.595 325.124 412.309 325.198L360.72 338.495L360.441 338.529ZM353.302 305.246L361.245 336.046L410.656 323.286L402.724 292.531L353.302 305.246Z" fill="#4F5A79"/>
<path d="M155.19 351.995C153.797 353.737 151.981 355.092 149.917 355.932C144.51 358.348 138.165 356.435 135.338 350.105C132.311 343.306 134.411 335.332 141.728 332.066C142.971 331.443 144.329 331.085 145.717 331.014C147.105 330.943 148.492 331.161 149.792 331.654C151.091 332.147 152.275 332.904 153.267 333.878C154.26 334.851 155.04 336.021 155.558 337.311C157.793 342.266 156.296 346.404 153.201 347.79C151.883 348.372 150.263 348.025 149.459 345.979L149.336 346.035C149.296 347.094 148.961 348.122 148.369 349.001C147.777 349.88 146.951 350.577 145.985 351.011C144.074 351.861 141.739 351.011 140.578 348.439C140.115 347.413 139.86 346.304 139.828 345.179C139.796 344.053 139.987 342.932 140.39 341.881C140.793 340.829 141.4 339.868 142.176 339.053C142.952 338.238 143.882 337.586 144.912 337.132C146.115 336.576 147.419 336.275 148.744 336.249L150.274 342.724C150.9 345.453 151.816 346.437 152.911 345.979C154.609 345.263 155.491 342.176 153.782 338.351C151.648 333.565 147.258 331.418 142.153 333.699C136.779 336.092 134.154 342.366 137.148 349.065C139.595 354.579 144.7 356.368 149.582 354.187C151.327 353.46 152.864 352.306 154.05 350.832L155.19 351.995ZM147.024 338.575C146.423 338.663 145.836 338.832 145.281 339.078C142.376 340.376 141.259 344.156 142.678 347.354C143.337 348.808 144.521 349.591 146.029 348.898C147.94 348.048 148.599 344.827 148.051 342.612L147.024 338.575Z" fill="#505B7A"/>
<path d="M82.74 112.618L41.4824 133.148L54.5711 159.509L95.8287 138.98L82.74 112.618Z" fill="white"/>
<path d="M53.6286 160.376C53.5008 160.377 53.3754 160.342 53.2663 160.276C53.1573 160.209 53.0691 160.113 53.0116 159.999L39.9232 133.636C39.8798 133.555 39.8531 133.466 39.8447 133.374C39.8363 133.283 39.8463 133.19 39.8742 133.103C39.9021 133.015 39.9472 132.934 40.007 132.864C40.0668 132.795 40.14 132.738 40.2222 132.697C40.3044 132.656 40.394 132.632 40.4856 132.626C40.5773 132.621 40.6691 132.634 40.7557 132.664C40.8422 132.695 40.9218 132.742 40.9896 132.804C41.0574 132.866 41.1121 132.941 41.1504 133.025L53.9371 158.77L93.9633 138.866L81.1766 113.113C81.0957 112.95 81.0828 112.762 81.1407 112.59C81.1985 112.417 81.3224 112.275 81.4851 112.194C81.6479 112.113 81.836 112.1 82.0083 112.158C82.1806 112.216 82.3228 112.34 82.4038 112.503L95.499 138.866C95.5339 138.95 95.5519 139.039 95.5519 139.13C95.5519 139.221 95.5339 139.311 95.499 139.394C95.4405 139.565 95.3174 139.705 95.1562 139.786L53.9029 160.322C53.8162 160.359 53.7228 160.377 53.6286 160.376Z" fill="#4F5A79"/>
<path d="M49.1076 137.939C48.9791 137.94 48.8531 137.904 48.744 137.836C48.6349 137.768 48.5471 137.671 48.4905 137.555L38.0486 116.353C37.9838 116.183 37.9838 115.995 38.0486 115.825C38.1088 115.653 38.2346 115.512 38.3983 115.433L69.5252 100.073C69.6879 99.9917 69.8761 99.9788 70.0484 100.037C70.2206 100.095 70.3629 100.219 70.4439 100.381L80.8241 121.46C80.9041 121.624 80.9158 121.812 80.8566 121.985C80.7975 122.157 80.6723 122.299 80.5087 122.379C80.345 122.46 80.1563 122.471 79.984 122.412C79.8117 122.353 79.67 122.228 79.59 122.064L69.5183 101.61L39.6118 116.36L49.7452 136.951C49.826 137.114 49.8389 137.302 49.7811 137.475C49.7232 137.647 49.5994 137.79 49.4367 137.871C49.3339 137.919 49.2211 137.943 49.1076 137.939Z" fill="#4F5A79"/>
<path d="M74.8105 144.25L51.4996 136.528L41.6816 116.589L72.8154 101.229L82.7499 121.414L74.8105 144.25Z" fill="#EF6FFF"/>
<path d="M72.2947 145.441C72.2223 145.443 72.1502 145.431 72.0822 145.406L41.4147 135.324C41.3279 135.296 41.2474 135.252 41.1779 135.193C41.1085 135.134 41.0515 135.062 41.0102 134.981L39.92 132.77C39.8851 132.687 39.8672 132.597 39.8672 132.506C39.8672 132.416 39.8851 132.326 39.92 132.242L50.4031 101.678C50.4623 101.508 50.5862 101.368 50.7478 101.288C50.9095 101.208 51.096 101.196 51.2669 101.253L81.9344 111.328C82.0206 111.357 82.1001 111.403 82.1684 111.463C82.2367 111.524 82.2923 111.597 82.3321 111.678L83.4291 113.889C83.464 113.972 83.4819 114.062 83.4819 114.153C83.4819 114.244 83.464 114.333 83.4291 114.417L72.9392 144.981C72.8924 145.115 72.8053 145.231 72.6899 145.313C72.5745 145.396 72.4364 145.44 72.2947 145.441ZM42.1277 134.109L71.8353 143.862L82.0098 114.211L81.2008 112.495L51.4452 102.715L41.2707 132.4L42.1277 134.109Z" fill="#4F5A79"/>
<path d="M91.3329 49.1635C91.3329 50.5802 90.9126 51.965 90.1252 53.1429C89.3377 54.3208 88.2184 55.2388 86.9089 55.7809C85.5994 56.323 84.1585 56.4649 82.7683 56.1885C81.3782 55.9121 80.1013 55.23 79.099 54.2283C78.0968 53.2265 77.4142 51.9503 77.1377 50.5609C76.8612 49.1715 77.0031 47.7313 77.5455 46.4225C78.0879 45.1137 79.0065 43.9951 80.185 43.2081C81.3635 42.421 82.7491 42.001 84.1665 42.001C85.1076 42.001 86.0394 42.1862 86.9089 42.5461C87.7784 42.9061 88.5684 43.4337 89.2339 44.0988C89.8993 44.7639 90.4272 45.5535 90.7874 46.4225C91.1475 47.2915 91.3329 48.2229 91.3329 49.1635Z" fill="#FFEA80"/>
<path d="M299.641 54.808C299.643 55.7613 299.362 56.6938 298.833 57.4875C298.305 58.2812 297.553 58.9003 296.672 59.2666C295.792 59.6329 294.822 59.7298 293.886 59.5451C292.951 59.3605 292.091 58.9024 291.416 58.2291C290.74 57.5557 290.28 56.6973 290.093 55.7625C289.907 54.8277 290.001 53.8584 290.366 52.9775C290.73 52.0966 291.348 51.3435 292.141 50.8136C292.934 50.2838 293.866 50.001 294.82 50.001C296.097 50.001 297.321 50.5071 298.225 51.4083C299.129 52.3095 299.638 53.5321 299.641 54.808Z" fill="#F36FFF"/>
<path d="M398 44.4844C398.003 45.9684 397.566 47.4201 396.744 48.6557C395.922 49.8912 394.752 50.855 393.382 51.4252C392.012 51.9954 390.503 52.1464 389.047 51.8589C387.591 51.5714 386.253 50.8583 385.203 49.8101C384.152 48.7619 383.436 47.4256 383.145 45.9703C382.855 44.515 383.002 43.0061 383.569 41.6347C384.137 40.2633 385.098 39.0909 386.332 38.2661C387.565 37.4413 389.016 37.001 390.5 37.001C392.486 37.001 394.391 37.7889 395.797 39.1919C397.203 40.5948 397.996 42.4981 398 44.4844Z" fill="#FBB85E"/>
<path d="M387.624 212.809C387.624 213.958 387.283 215.081 386.645 216.036C386.006 216.991 385.098 217.736 384.036 218.176C382.974 218.615 381.806 218.73 380.678 218.506C379.551 218.282 378.515 217.729 377.702 216.916C376.89 216.104 376.336 215.069 376.112 213.942C375.887 212.815 376.003 211.647 376.442 210.586C376.882 209.525 377.627 208.617 378.583 207.979C379.539 207.341 380.663 207 381.812 207C383.354 207 384.832 207.612 385.922 208.701C387.012 209.791 387.624 211.268 387.624 212.809Z" fill="#FBB85E"/>
<path d="M143.641 101.808C143.643 102.761 143.362 103.694 142.833 104.488C142.305 105.281 141.553 105.9 140.672 106.267C139.792 106.633 138.822 106.73 137.886 106.545C136.951 106.36 136.091 105.902 135.416 105.229C134.74 104.556 134.28 103.697 134.093 102.763C133.907 101.828 134.001 100.858 134.366 99.9775C134.73 99.0966 135.348 98.3435 136.141 97.8136C136.934 97.2838 137.866 97.001 138.82 97.001C140.097 97.001 141.321 97.5071 142.225 98.4083C143.129 99.3095 143.638 100.532 143.641 101.808Z" fill="#F36FFF"/>
<path d="M332.729 167.452C331.398 167.452 330.096 167.057 328.99 166.318C327.883 165.578 327.02 164.527 326.511 163.298C326.002 162.068 325.87 160.715 326.13 159.411C326.391 158.106 327.033 156.907 327.975 155.967C328.917 155.027 330.117 154.387 331.423 154.129C332.729 153.871 334.082 154.005 335.312 154.516C336.541 155.027 337.591 155.89 338.33 156.998C339.068 158.105 339.461 159.407 339.458 160.737C339.456 162.519 338.745 164.227 337.484 165.486C336.222 166.745 334.512 167.452 332.729 167.452ZM332.729 156.143C331.82 156.143 330.931 156.413 330.176 156.918C329.42 157.422 328.831 158.14 328.483 158.979C328.135 159.819 328.044 160.742 328.221 161.633C328.399 162.525 328.836 163.343 329.479 163.986C330.122 164.628 330.941 165.066 331.833 165.243C332.724 165.42 333.648 165.329 334.488 164.981C335.328 164.634 336.046 164.045 336.551 163.289C337.056 162.534 337.326 161.646 337.326 160.737C337.326 159.519 336.841 158.35 335.979 157.489C335.117 156.627 333.948 156.143 332.729 156.143Z" fill="#4F5A79"/>
<path d="M101.599 177.193C100.491 177.193 99.4081 176.864 98.4871 176.249C97.5662 175.633 96.8486 174.759 96.4252 173.736C96.0017 172.713 95.8915 171.587 96.1084 170.501C96.3253 169.415 96.8596 168.418 97.6436 167.636C98.4277 166.854 99.4263 166.322 100.513 166.107C101.6 165.893 102.726 166.005 103.749 166.43C104.772 166.855 105.645 167.574 106.259 168.496C106.873 169.417 107.2 170.5 107.198 171.607C107.195 173.09 106.604 174.51 105.554 175.557C104.504 176.604 103.082 177.193 101.599 177.193ZM101.599 168.143C100.913 168.143 100.243 168.346 99.6732 168.727C99.1033 169.108 98.6591 169.649 98.3967 170.282C98.1344 170.915 98.0657 171.611 98.1994 172.283C98.3332 172.955 98.6633 173.572 99.148 174.057C99.6327 174.541 100.25 174.871 100.923 175.005C101.595 175.139 102.292 175.07 102.925 174.808C103.558 174.546 104.1 174.102 104.481 173.532C104.861 172.962 105.065 172.293 105.065 171.607C105.062 170.69 104.696 169.81 104.046 169.161C103.397 168.512 102.517 168.146 101.599 168.143Z" fill="#4F5A79"/>
<path d="M338.599 369.192C337.491 369.192 336.408 368.863 335.487 368.248C334.566 367.632 333.849 366.758 333.425 365.735C333.002 364.712 332.891 363.586 333.108 362.5C333.325 361.414 333.86 360.417 334.644 359.635C335.428 358.853 336.426 358.321 337.513 358.106C338.6 357.892 339.726 358.004 340.749 358.429C341.772 358.854 342.645 359.573 343.259 360.495C343.873 361.416 344.2 362.499 344.198 363.606C344.195 365.089 343.604 366.509 342.554 367.556C341.504 368.603 340.082 369.192 338.599 369.192ZM338.599 360.142C337.913 360.142 337.243 360.346 336.673 360.726C336.103 361.107 335.659 361.648 335.397 362.281C335.134 362.914 335.066 363.61 335.199 364.282C335.333 364.954 335.663 365.571 336.148 366.056C336.633 366.54 337.25 366.87 337.923 367.004C338.595 367.138 339.292 367.069 339.925 366.807C340.558 366.545 341.1 366.101 341.481 365.531C341.861 364.961 342.065 364.292 342.065 363.606C342.062 362.689 341.696 361.809 341.046 361.16C340.397 360.511 339.517 360.145 338.599 360.142Z" fill="#4F5A79"/>
<path d="M114.333 316.164C114.333 317.58 113.913 318.965 113.125 320.143C112.338 321.321 111.218 322.239 109.909 322.781C108.599 323.323 107.158 323.465 105.768 323.188C104.378 322.912 103.101 322.23 102.099 321.228C101.097 320.227 100.414 318.95 100.138 317.561C99.8612 316.172 100.003 314.731 100.546 313.423C101.088 312.114 102.006 310.995 103.185 310.208C104.363 309.421 105.749 309.001 107.166 309.001C108.108 309.001 109.039 309.186 109.909 309.546C110.778 309.906 111.568 310.434 112.234 311.099C112.899 311.764 113.427 312.553 113.787 313.423C114.148 314.292 114.333 315.223 114.333 316.164Z" fill="#FFEA80"/>
<rect x="228" y="237.001" width="30" height="4" fill="white"/>
<path d="M411.273 297.175C425.824 286.76 451.809 255.016 427.95 218.266C405.348 183.451 363.885 189.026 345.34 198.239" stroke="#4F5A79" stroke-width="2" stroke-linecap="round" stroke-dasharray="4 4"/>
<path d="M67.7043 160.845C72.1143 173.126 89.2126 197.674 119.744 188.251C148.667 179.324 153.009 149.126 150.237 134.282" stroke="#4F5A79" stroke-width="2" stroke-linecap="round" stroke-dasharray="4 4"/>
<path d="M233.235 107.503C228.825 95.2221 211.727 70.6736 181.196 80.0968C152.272 89.0236 147.93 119.222 150.702 134.066" stroke="#4F5A79" stroke-width="2" stroke-linecap="round" stroke-dasharray="4 4"/>
<path d="M244.034 23.926L169.697 43.873L183.601 95.8028L257.938 75.8558L244.034 23.926Z" fill="white"/>
<path d="M179.93 94.7371C179.677 94.7458 179.43 94.6686 179.227 94.5184C179.024 94.3681 178.878 94.1535 178.813 93.9095L165.038 42.1854C165 42.0433 164.99 41.8951 165.01 41.7493C165.029 41.6034 165.076 41.4629 165.15 41.3355C165.295 41.0786 165.536 40.8896 165.82 40.8098L239.92 21.0373C240.203 20.9633 240.504 21.0034 240.758 21.1491C241.012 21.3025 241.199 21.5461 241.283 21.8313L255.057 73.6001C255.132 73.8863 255.091 74.1906 254.942 74.4463C254.793 74.7021 254.549 74.8884 254.264 74.9645L180.22 94.7259C180.124 94.7407 180.027 94.7444 179.93 94.7371ZM167.529 42.6887L180.723 92.2543L252.61 73.0745L239.417 23.4977L167.529 42.6887Z" fill="#4F5A79"/>
<path d="M247.118 26.2503L226.258 31.8477L228.837 41.4807L249.697 35.8834L247.118 26.2503Z" fill="#62BEFB"/>
<path d="M221.855 63.8923C221.6 63.8998 221.35 63.8195 221.147 63.6648C220.944 63.5102 220.799 63.2905 220.738 63.0424C220.667 62.7562 220.712 62.4535 220.862 62.2C221.013 61.9466 221.257 61.7629 221.543 61.6891L241.439 56.6006C241.582 56.5638 241.731 56.5558 241.877 56.577C242.023 56.5982 242.164 56.6482 242.29 56.7241C242.417 56.8 242.528 56.9004 242.615 57.0193C242.703 57.1382 242.766 57.2735 242.802 57.4171C242.873 57.7047 242.826 58.0088 242.674 58.2625C242.521 58.5162 242.273 58.6988 241.986 58.7702L222.09 63.8476C222.015 63.875 221.935 63.8901 221.855 63.8923Z" fill="#4F5A79"/>
<path d="M224.168 70.2451C223.872 70.2822 223.573 70.1999 223.337 70.0164C223.101 69.8329 222.948 69.5632 222.911 69.2666C222.874 68.97 222.956 68.6708 223.139 68.4348C223.323 68.1989 223.592 68.0455 223.889 68.0084L243.785 62.9199C243.928 62.8831 244.077 62.8751 244.223 62.8963C244.369 62.9175 244.51 62.9675 244.636 63.0434C244.763 63.1193 244.874 63.2197 244.961 63.3386C245.049 63.4576 245.112 63.5927 245.148 63.7363C245.219 64.0225 245.174 64.3252 245.024 64.5786C244.873 64.8321 244.628 65.0157 244.343 65.0895L224.447 70.178C224.357 70.2115 224.263 70.2341 224.168 70.2451Z" fill="#4F5A79"/>
<path d="M178.646 55.7059C178.349 55.74 178.052 55.6549 177.818 55.4693C177.584 55.2837 177.434 55.0127 177.4 54.7161C177.366 54.4195 177.451 54.1215 177.636 53.8876C177.822 53.6538 178.092 53.5033 178.389 53.4691L197.849 48.7497C197.992 48.7147 198.141 48.7084 198.286 48.7311C198.432 48.7538 198.571 48.8051 198.697 48.882C198.822 48.959 198.932 49.0599 199.018 49.1792C199.105 49.2986 199.167 49.4339 199.201 49.5773C199.268 49.8649 199.219 50.1675 199.064 50.4189C198.909 50.6703 198.661 50.8502 198.374 50.9192L178.914 55.7059C178.825 55.7166 178.735 55.7166 178.646 55.7059Z" fill="#4F5A79"/>
<rect x="182" y="354.001" width="120" height="4" fill="#D2F0FF"/>
<mask id="path-43-inside-1_87_2211" fill="white">
<path fill-rule="evenodd" clip-rule="evenodd" d="M200.041 192.043C211.675 192.043 221.106 182.612 221.106 170.978C221.106 159.345 211.675 149.914 200.041 149.914C188.408 149.914 178.976 159.345 178.976 170.978C178.976 173.658 179.477 176.222 180.39 178.579L176 182.705L191.185 198.862L198.5 191.988C199.009 192.024 199.523 192.043 200.041 192.043Z"/>
</mask>
<path fill-rule="evenodd" clip-rule="evenodd" d="M200.041 192.043C211.675 192.043 221.106 182.612 221.106 170.978C221.106 159.345 211.675 149.914 200.041 149.914C188.408 149.914 178.976 159.345 178.976 170.978C178.976 173.658 179.477 176.222 180.39 178.579L176 182.705L191.185 198.862L198.5 191.988C199.009 192.024 199.523 192.043 200.041 192.043Z" fill="white"/>
<path d="M180.39 178.579L181.759 180.037L182.741 179.114L182.255 177.857L180.39 178.579ZM176 182.705L174.63 181.247L173.173 182.617L174.543 184.075L176 182.705ZM191.185 198.862L189.728 200.232L191.098 201.69L192.555 200.32L191.185 198.862ZM198.5 191.988L198.645 189.993L197.77 189.93L197.131 190.53L198.5 191.988ZM219.106 170.978C219.106 181.508 210.571 190.043 200.041 190.043V194.043C212.78 194.043 223.106 183.717 223.106 170.978H219.106ZM200.041 151.914C210.571 151.914 219.106 160.449 219.106 170.978H223.106C223.106 158.24 212.78 147.914 200.041 147.914V151.914ZM180.976 170.978C180.976 160.449 189.512 151.914 200.041 151.914V147.914C187.303 147.914 176.976 158.24 176.976 170.978H180.976ZM182.255 177.857C181.43 175.726 180.976 173.408 180.976 170.978H176.976C176.976 173.909 177.524 176.717 178.524 179.301L182.255 177.857ZM177.37 184.162L181.759 180.037L179.02 177.122L174.63 181.247L177.37 184.162ZM192.643 197.493L177.457 181.335L174.543 184.075L189.728 200.232L192.643 197.493ZM197.131 190.53L189.816 197.405L192.555 200.32L199.87 193.445L197.131 190.53ZM200.041 190.043C199.571 190.043 199.105 190.026 198.645 189.993L198.356 193.982C198.913 194.023 199.475 194.043 200.041 194.043V190.043Z" fill="#4F5A79" mask="url(#path-43-inside-1_87_2211)"/>
<mask id="path-45-inside-2_87_2211" fill="white">
<path fill-rule="evenodd" clip-rule="evenodd" d="M284.064 192.043C272.43 192.043 262.999 182.612 262.999 170.978C262.999 159.345 272.43 149.914 284.064 149.914C295.698 149.914 305.129 159.345 305.129 170.978C305.129 173.658 304.628 176.222 303.716 178.579L308.105 182.705L292.92 198.862L285.605 191.988C285.096 192.024 284.582 192.043 284.064 192.043Z"/>
</mask>
<path fill-rule="evenodd" clip-rule="evenodd" d="M284.064 192.043C272.43 192.043 262.999 182.612 262.999 170.978C262.999 159.345 272.43 149.914 284.064 149.914C295.698 149.914 305.129 159.345 305.129 170.978C305.129 173.658 304.628 176.222 303.716 178.579L308.105 182.705L292.92 198.862L285.605 191.988C285.096 192.024 284.582 192.043 284.064 192.043Z" fill="white"/>
<path d="M303.716 178.579L302.346 180.037L301.364 179.114L301.851 177.857L303.716 178.579ZM308.105 182.705L309.475 181.247L310.933 182.617L309.563 184.075L308.105 182.705ZM292.92 198.862L294.377 200.232L293.008 201.69L291.55 200.32L292.92 198.862ZM285.605 191.988L285.461 189.993L286.336 189.93L286.975 190.53L285.605 191.988ZM264.999 170.978C264.999 181.508 273.535 190.043 284.064 190.043V194.043C271.326 194.043 260.999 183.717 260.999 170.978H264.999ZM284.064 151.914C273.535 151.914 264.999 160.449 264.999 170.978H260.999C260.999 158.24 271.326 147.914 284.064 147.914V151.914ZM303.129 170.978C303.129 160.449 294.593 151.914 284.064 151.914V147.914C296.803 147.914 307.129 158.24 307.129 170.978H303.129ZM301.851 177.857C302.676 175.726 303.129 173.408 303.129 170.978H307.129C307.129 173.909 306.581 176.717 305.581 179.301L301.851 177.857ZM306.736 184.162L302.346 180.037L305.086 177.122L309.475 181.247L306.736 184.162ZM291.463 197.493L306.648 181.335L309.563 184.075L294.377 200.232L291.463 197.493ZM286.975 190.53L294.29 197.405L291.55 200.32L284.235 193.445L286.975 190.53ZM284.064 190.043C284.534 190.043 285 190.026 285.461 189.993L285.749 193.982C285.193 194.023 284.631 194.043 284.064 194.043V190.043Z" fill="#4F5A79" mask="url(#path-45-inside-2_87_2211)"/>
<path fill-rule="evenodd" clip-rule="evenodd" d="M189.56 242.336L141.322 249.695L197.5 196.001L176 180.001L101.41 239.716C89.2141 249.695 77.6839 272.312 129.126 282.955L182 285.976V357.001H304V284.879L357.081 281.846C408.524 271.203 396.994 248.586 384.798 238.608L308 180.501L289.5 198.501L344.886 248.586L293.857 240.802C291.483 239.648 288.817 239.001 286 239.001H282.053L279.474 238.608V239.001H200C196.108 239.001 192.505 240.236 189.56 242.336Z" fill="#D2F0FF"/>
<path d="M140.322 249.695L139.64 248.963L137.267 251.172L140.473 250.683L140.322 249.695ZM188.56 242.336L188.711 243.325L188.947 243.289L189.141 243.15L188.56 242.336ZM198 196.001L198.682 196.733L199.557 195.918L198.6 195.201L198 196.001ZM176 179.501L176.6 178.701L175.982 178.237L175.377 178.719L176 179.501ZM100.41 239.716L99.7864 238.934L99.7763 238.943L100.41 239.716ZM128.126 282.955L127.924 283.934L127.996 283.949L128.069 283.953L128.126 282.955ZM181 285.976H182V285.032L181.057 284.978L181 285.976ZM181 357.001H180V358.001H181V357.001ZM303 357.001V358.001H304V357.001H303ZM303 284.879L302.943 283.881L302 283.935V284.879H303ZM356.081 281.846L356.139 282.844L356.212 282.84L356.284 282.825L356.081 281.846ZM383.798 238.608L384.432 237.834L384.422 237.826L384.413 237.819L383.798 238.608ZM308 179.501L308.615 178.712L307.918 178.169L307.293 178.794L308 179.501ZM289 198.501L288.293 197.794L287.553 198.534L288.326 199.24L289 198.501ZM343.886 248.586L343.735 249.574L346.998 250.072L344.56 247.847L343.886 248.586ZM292.857 240.802L292.42 241.701L292.556 241.767L292.706 241.79L292.857 240.802ZM281.053 239.001L280.902 239.99L280.977 240.001H281.053V239.001ZM278.474 238.608L278.625 237.619L277.474 237.443V238.608H278.474ZM278.474 239.001V240.001H279.474V239.001H278.474ZM140.473 250.683L188.711 243.325L188.409 241.348L140.171 248.706L140.473 250.683ZM197.319 195.269L139.64 248.963L141.003 250.426L198.682 196.733L197.319 195.269ZM175.4 180.301L197.4 196.801L198.6 195.201L176.6 178.701L175.4 180.301ZM101.033 240.499L176.623 180.283L175.377 178.719L99.7864 238.934L101.033 240.499ZM128.329 281.976C115.532 279.328 106.736 275.951 100.913 272.267C95.1007 268.589 92.3079 264.644 91.3748 260.847C90.4396 257.043 91.3274 253.205 93.2412 249.66C95.1567 246.112 98.0679 242.924 101.043 240.49L99.7763 238.943C96.6534 241.498 93.55 244.878 91.4813 248.71C89.4108 252.545 88.3445 256.898 89.4326 261.325C90.5228 265.76 93.7307 270.089 99.8436 273.957C105.946 277.818 115 281.26 127.924 283.934L128.329 281.976ZM181.057 284.978L128.183 281.956L128.069 283.953L180.943 286.975L181.057 284.978ZM182 357.001V285.976H180V357.001H182ZM303 356.001H181V358.001H303V356.001ZM302 284.879V357.001H304V284.879H302ZM356.024 280.848L302.943 283.881L303.057 285.877L356.139 282.844L356.024 280.848ZM383.165 239.382C386.14 241.816 389.051 245.004 390.967 248.551C392.88 252.096 393.768 255.934 392.833 259.739C391.9 263.535 389.107 267.48 383.295 271.158C377.472 274.842 368.676 278.219 355.879 280.867L356.284 282.825C369.208 280.151 378.262 276.71 384.364 272.848C390.477 268.98 393.685 264.651 394.775 260.216C395.863 255.789 394.797 251.436 392.727 247.601C390.658 243.77 387.554 240.389 384.432 237.834L383.165 239.382ZM307.385 180.29L383.183 239.396L384.413 237.819L308.615 178.712L307.385 180.29ZM289.707 199.208L308.707 180.208L307.293 178.794L288.293 197.794L289.707 199.208ZM344.56 247.847L289.674 197.762L288.326 199.24L343.212 249.324L344.56 247.847ZM292.706 241.79L343.735 249.574L344.037 247.597L293.008 239.813L292.706 241.79ZM285 240.001C287.662 240.001 290.179 240.612 292.42 241.701L293.294 239.902C290.786 238.684 287.972 238.001 285 238.001V240.001ZM281.053 240.001H285V238.001H281.053V240.001ZM278.323 239.596L280.902 239.99L281.204 238.012L278.625 237.619L278.323 239.596ZM279.474 239.001V238.608H277.474V239.001H279.474ZM199 240.001H278.474V238.001H199V240.001ZM189.141 243.15C191.921 241.167 195.323 240.001 199 240.001V238.001C194.893 238.001 191.088 239.305 187.979 241.522L189.141 243.15Z" fill="#4F5A79"/>
<rect x="227" y="216.001" width="32" height="23" fill="white" stroke="#4F5A79" stroke-width="2"/>
<circle cx="242.888" cy="237.499" r="15.6301" fill="white" stroke="#4F5A79" stroke-width="2"/>
<path d="M214.529 206.144C214.587 208.555 215.6 210.844 217.346 212.51C219.091 214.175 221.427 215.08 223.839 215.026L264.745 214.09C265.948 214.092 267.14 213.85 268.247 213.378C269.353 212.906 270.352 212.214 271.183 211.345C272.014 210.475 272.659 209.446 273.08 208.319C273.501 207.192 273.688 205.992 273.63 204.791L272.264 144.227C272.206 141.817 271.193 139.527 269.447 137.862C267.701 136.196 265.366 135.291 262.953 135.345L222.005 136.27C220.801 136.268 219.61 136.511 218.503 136.982C217.396 137.454 216.397 138.146 215.566 139.016C214.735 139.886 214.09 140.915 213.669 142.042C213.249 143.168 213.062 144.368 213.12 145.57L214.529 206.144Z" fill="white"/>
<path d="M213.377 158.034C210.586 155.331 208.281 152.167 206.567 148.682C206.457 146.46 206.907 144.246 207.874 142.243C208.841 140.239 210.296 138.511 212.104 137.214C216.599 134.453 220.462 139.313 220.462 139.313C220.462 139.313 213.305 143.556 212.969 145.073C212.634 146.59 213.377 158.034 213.377 158.034Z" fill="#948875"/>
<path d="M277.077 171.382C277.077 171.382 282.948 148.009 281.414 141.172C279.88 134.334 279.27 129.651 270.717 129.058C258.2 128.202 258.132 130.839 251.995 127.193C245.858 123.546 234.717 114.661 230.936 113.849C229.009 113.254 226.967 113.135 224.985 113.501C223.002 113.867 221.138 114.707 219.552 115.95C217.965 117.193 216.704 118.802 215.876 120.639C215.048 122.476 214.678 124.486 214.798 126.497C214.923 128.669 214.499 130.837 213.566 132.802C212.632 134.766 211.218 136.464 209.455 137.739C209.96 138.827 212.286 139.777 216.26 141.645C227.771 147.053 234.621 148.042 243.296 145.599C251.97 143.156 268.145 137.838 270.121 144.192C272.098 150.546 271.853 170.299 272.66 171.828C273.466 173.358 275.546 172.553 277.077 171.382Z" fill="#948875"/>
<path d="M264.604 189.847C264.61 190.246 264.695 190.641 264.854 191.007C265.014 191.373 265.244 191.705 265.533 191.981C265.821 192.258 266.161 192.475 266.534 192.619C266.907 192.764 267.305 192.833 267.704 192.822L276.549 192.618C276.946 192.607 277.337 192.518 277.699 192.356C278.061 192.194 278.388 191.962 278.661 191.673C278.933 191.385 279.146 191.045 279.287 190.674C279.428 190.303 279.494 189.908 279.482 189.512L278.969 173.321C278.937 172.512 278.591 171.748 278.004 171.191C277.417 170.633 276.636 170.326 275.826 170.335L266.981 170.538C266.584 170.55 266.194 170.639 265.831 170.801C265.469 170.963 265.142 171.195 264.87 171.484C264.597 171.773 264.384 172.112 264.243 172.483C264.102 172.854 264.036 173.249 264.048 173.646L264.604 189.847Z" fill="white"/>
<path d="M211.818 191.047C211.841 191.85 212.179 192.611 212.759 193.168C213.339 193.724 214.114 194.031 214.918 194.022L223.762 193.819C224.566 193.796 225.328 193.458 225.885 192.879C226.441 192.3 226.748 191.525 226.738 190.722L226.236 174.489C226.225 174.092 226.135 173.701 225.973 173.339C225.81 172.977 225.578 172.65 225.289 172.378C225 172.106 224.66 171.893 224.289 171.752C223.918 171.611 223.522 171.545 223.125 171.556L214.281 171.76C213.884 171.771 213.493 171.86 213.131 172.023C212.769 172.185 212.442 172.417 212.169 172.706C211.897 172.994 211.684 173.334 211.543 173.705C211.402 174.075 211.336 174.47 211.348 174.867L211.818 191.047Z" fill="white"/>
<path fill-rule="evenodd" clip-rule="evenodd" d="M241.861 194.346L241.86 194.346L241.86 194.44C237.617 194.61 231.747 195.036 229.13 196.424C225.834 198.172 217.886 203.245 216.027 206.174L216.027 191.645C211.967 197.376 211.188 202.894 210.271 209.393C210.196 209.926 210.12 210.466 210.041 211.014C210.209 216.816 213.471 235.18 241.277 234.674C241.964 234.66 242.639 234.643 243.305 234.622C243.97 234.643 244.646 234.66 245.332 234.674C273.138 235.18 276.4 216.816 276.568 211.014C276.489 210.468 276.413 209.929 276.338 209.397L276.338 209.393C275.421 202.894 274.643 197.376 270.582 191.645L270.582 206.174C268.724 203.245 260.775 198.172 257.48 196.424C254.863 195.036 248.992 194.61 244.749 194.44L244.749 194.346L244.748 194.346L244.668 194.349C244.259 194.36 243.801 194.373 243.305 194.388C242.808 194.373 242.35 194.36 241.941 194.349L241.861 194.346Z" fill="#948875"/>
<path fill-rule="evenodd" clip-rule="evenodd" d="M248.816 204.028L234.869 203.737C234.427 203.725 233.992 203.792 233.588 203.936C233.185 204.08 232.821 204.298 232.518 204.576C232.215 204.853 231.979 205.186 231.823 205.555C231.668 205.924 231.596 206.321 231.612 206.723L231.68 208.313L231.612 209.903C231.596 210.305 231.668 210.702 231.823 211.071C231.979 211.44 232.215 211.773 232.518 212.051C232.821 212.328 233.185 212.546 233.588 212.69C233.992 212.834 234.427 212.901 234.869 212.889L248.816 212.598C249.258 212.591 249.698 212.504 250.112 212.342C250.526 212.181 250.905 211.947 251.227 211.656C251.549 211.365 251.807 211.021 251.987 210.645C252.168 210.269 252.266 209.868 252.277 209.466L252.295 208.874L252.329 208.874L252.312 208.313L252.329 207.752L252.295 207.752L252.277 207.16C252.266 206.758 252.168 206.357 251.987 205.981C251.807 205.605 251.549 205.262 251.227 204.97C250.905 204.679 250.526 204.445 250.112 204.284C249.698 204.122 249.258 204.035 248.816 204.028Z" fill="white"/>
<path fill-rule="evenodd" clip-rule="evenodd" d="M235.121 166.179C237.489 163.473 243.847 159.685 250.341 166.179V172.267C243.847 165.773 237.489 169.561 235.121 172.267V166.179Z" fill="#4F5A79"/>
<path d="M235.023 159.375L220.914 152.446V193.032L235.023 184.123C242.548 173.828 238.159 163.335 235.023 159.375Z" fill="#4F5A79"/>
<path d="M251.451 159.375L265.561 152.446V193.032L251.451 184.123C243.927 173.828 248.316 163.335 251.451 159.375Z" fill="#4F5A79"/>
<circle cx="212.797" cy="172.739" r="22.3227" fill="#4F5A79"/>
<circle cx="212.798" cy="172.739" r="17.7042" transform="rotate(180 212.798 172.739)" fill="#FFEA80"/>
<circle cx="273.678" cy="172.739" r="22.3227" fill="#4F5A79"/>
<circle cx="273.677" cy="172.739" r="17.7042" transform="rotate(180 273.677 172.739)" fill="#FFEA80"/>
</svg>
