<svg width="503" height="410" viewBox="0 0 503 410" fill="none" xmlns="http://www.w3.org/2000/svg">
<path d="M171.792 383.926C147.429 383.277 122.665 376.111 100.013 364.707C75.0428 352.122 47.4184 326.532 40.1963 294.661C36.8437 279.234 36.3441 263.323 38.7222 247.713C41.2923 230.173 50.3755 213.91 62.6888 203.967C71.8444 196.58 83.6359 198.408 93.0023 191.843C102.543 185.159 103.481 171.759 95.5065 162.058C88.1153 153.061 76.8163 147.285 73.9728 134.017C70.5123 117.748 83.1873 105.302 92.7801 96.7932C103.181 87.6494 116.177 82.7983 128.66 78.1463C146.046 71.6625 164.37 65.3717 182.505 61.7151C198.537 58.4909 214.788 56.3268 230.705 52.5426C239.658 50.4096 251.336 46.9656 260.628 50.0892C266.351 52.0394 270.536 58.9443 267.709 65.5404C265.851 69.8521 259.787 73.1423 256.15 75.2974C268.97 76.0903 282.23 71.1536 294.835 69.4265C309.587 67.4351 324.394 66.016 339.349 65.2128C353.508 64.4482 368.506 63.8551 382.9 66.5654C405.699 70.8725 419.281 92.1162 422.139 117.984C423.264 128.176 425.354 139.963 423.37 149.95C422.322 155.003 415.489 166.477 417.252 171.399C418.959 176.146 431.778 176.376 435.935 177.46C445.672 180.002 457.455 180.925 465.864 188.431C476.095 197.584 483.464 219.21 484.372 233.47C485.6 252.939 477.758 274.878 469.935 290.83C462.113 306.782 451.178 315.66 437.478 324.19C417.519 336.633 393.035 338.542 370.357 342.84C342.237 348.175 314.441 355.997 286.361 361.324C268.705 364.673 251.364 368.74 234.116 373.006C222.201 375.957 210.773 379.496 198.68 381.784C189.82 383.459 180.805 384.177 171.792 383.926Z" fill="#F0F9FC"/>
<path d="M117.54 266.767C117.54 267.314 117.377 267.849 117.073 268.304C116.769 268.759 116.336 269.114 115.83 269.323C115.324 269.533 114.767 269.587 114.229 269.481C113.692 269.374 113.199 269.11 112.811 268.723C112.424 268.336 112.16 267.843 112.053 267.307C111.946 266.77 112.001 266.214 112.211 265.708C112.42 265.202 112.775 264.77 113.231 264.466C113.686 264.162 114.222 264 114.77 264C115.134 263.999 115.495 264.069 115.831 264.208C116.168 264.346 116.474 264.55 116.731 264.807C116.989 265.065 117.193 265.37 117.332 265.706C117.47 266.043 117.541 266.403 117.54 266.767Z" fill="#EF6FFF"/>
<path d="M171.267 318.626C171.267 319.937 170.878 321.218 170.149 322.308C169.42 323.397 168.384 324.247 167.172 324.748C165.96 325.25 164.626 325.381 163.339 325.125C162.053 324.87 160.871 324.239 159.943 323.312C159.015 322.385 158.383 321.204 158.127 319.919C157.872 318.634 158.003 317.301 158.505 316.091C159.007 314.88 159.857 313.845 160.948 313.117C162.039 312.389 163.321 312 164.633 312C166.392 312.003 168.077 312.702 169.321 313.944C170.564 315.186 171.264 316.87 171.267 318.626Z" fill="#62BEFB"/>
<path d="M177.491 234.656C132.891 222.627 99.6847 245.513 88.6563 258.459C92.4693 225.896 120.385 155.333 201.542 133.586C282.7 111.84 342.157 158.992 361.741 185.286C318.019 173.022 283.204 196.339 271.261 209.53C226.34 198.058 190.031 221.501 177.491 234.656Z" fill="#EF6FFF"/>
<path d="M264.5 204.5C222.252 194.658 190 212.5 172 229C158.841 179.891 183.498 144.72 196 134C231.392 141.342 257.577 184.064 264.5 204.5Z" fill="#9A5BFF"/>
<rect x="213.797" y="211.615" width="7.4055" height="82.0207" rx="1" transform="rotate(-15 213.797 211.615)" fill="#CCCCCC" stroke="#4F5A79" stroke-width="2"/>
<rect x="234.611" y="293.161" width="9.4055" height="28.3854" transform="rotate(-15 234.611 293.161)" fill="#EF6FFF"/>
<path fill-rule="evenodd" clip-rule="evenodd" d="M241.959 320.581C245.368 333.3 258.442 340.848 271.161 337.44C283.88 334.032 291.429 320.958 288.022 308.239L278.296 310.845C278.326 310.949 278.356 311.055 278.384 311.16C280.4 318.686 275.934 326.423 268.408 328.439C260.882 330.456 253.145 325.989 251.129 318.463C251.1 318.357 251.073 318.252 251.048 318.146L241.959 320.581Z" fill="#EF6FFF"/>
<path d="M172.466 232.821C127.866 220.792 94.6593 243.678 83.6309 256.624C87.4439 224.061 115.359 153.498 196.517 131.751C277.675 110.005 337.132 157.157 356.716 183.451C312.994 171.187 278.178 194.504 266.236 207.696C221.315 196.223 185.005 219.666 172.466 232.821Z" stroke="#4F5A79" stroke-width="2"/>
<path d="M427.597 234H243.785V372.959H427.597V234Z" fill="white"/>
<path d="M349.059 363.923V368.333H320.318V363.923H226V370.355C226.008 372.154 226.728 373.877 228.004 375.147C229.279 376.417 231.006 377.132 232.807 377.134H436.57C438.378 377.134 440.112 376.417 441.39 375.14C442.669 373.863 443.387 372.131 443.387 370.324V363.892L349.059 363.923Z" fill="white"/>
<path d="M428.618 363.066C428.347 363.066 428.087 362.959 427.896 362.767C427.704 362.576 427.596 362.316 427.596 362.045V234.042H245.839V362.045C245.839 362.316 245.731 362.576 245.54 362.767C245.348 362.959 245.088 363.066 244.817 363.066C244.546 363.066 244.286 362.959 244.094 362.767C243.903 362.576 243.795 362.316 243.795 362.045V233.021C243.795 232.75 243.903 232.491 244.094 232.299C244.286 232.108 244.546 232 244.817 232H428.618C428.89 232 429.149 232.108 429.341 232.299C429.533 232.491 429.641 232.75 429.641 233.021V362.045C429.641 362.316 429.533 362.576 429.341 362.767C429.149 362.959 428.89 363.066 428.618 363.066Z" fill="#4F5A79"/>
<path d="M420.462 357.348H252.973C252.702 357.348 252.442 357.241 252.251 357.049C252.059 356.858 251.951 356.598 251.951 356.327V238.749C251.951 238.478 252.059 238.218 252.251 238.027C252.442 237.835 252.702 237.728 252.973 237.728H420.462C420.733 237.728 420.993 237.835 421.185 238.027C421.377 238.218 421.484 238.478 421.484 238.749V356.327C421.484 356.598 421.377 356.858 421.185 357.049C420.993 357.241 420.733 357.348 420.462 357.348ZM253.995 355.306H419.44V239.77H253.995V355.306Z" fill="#4F5A79"/>
<path d="M437.602 377.177H233.839C231.761 377.174 229.769 376.348 228.299 374.88C226.829 373.412 226.003 371.422 226 369.345V362.913C226 362.642 226.108 362.383 226.299 362.191C226.491 362 226.751 361.892 227.022 361.892H321.34C321.611 361.892 321.871 362 322.063 362.191C322.254 362.383 322.362 362.642 322.362 362.913V366.303H349.059V362.913C349.059 362.642 349.167 362.383 349.358 362.191C349.55 362 349.81 361.892 350.081 361.892H444.389C444.66 361.892 444.92 362 445.111 362.191C445.303 362.383 445.411 362.642 445.411 362.913V369.345C445.408 371.416 444.586 373.402 443.123 374.869C441.66 376.336 439.675 377.166 437.602 377.177ZM228.075 363.903V369.315C228.071 370.075 228.217 370.829 228.504 371.533C228.792 372.236 229.215 372.877 229.75 373.417C230.286 373.958 230.922 374.388 231.624 374.682C232.326 374.977 233.078 375.13 233.839 375.135H437.602C439.138 375.132 440.611 374.521 441.697 373.436C442.783 372.351 443.395 370.88 443.397 369.345V363.934H351.113V367.324C351.113 367.595 351.006 367.854 350.814 368.046C350.622 368.237 350.362 368.345 350.091 368.345H321.35C321.079 368.345 320.819 368.237 320.628 368.046C320.436 367.854 320.328 367.595 320.328 367.324V363.934L228.075 363.903Z" fill="#4F5A79"/>
<path d="M419.215 239.831H254.066V253.298H419.215V239.831Z" fill="#D2F0FF"/>
<path d="M419.215 253.298H254.066V354.918H419.215V253.298Z" fill="white"/>
<path d="M72.5313 165.231C71.2102 164.457 70.0537 163.169 68.7592 162.273C67.9846 161.743 64.2496 159.809 63.5705 161.383C63.2999 162.019 64.4353 163.423 64.8279 163.837C65.7775 164.822 67.0296 165.098 68.1384 165.798C67.2737 166.094 65.7457 166.291 65.9579 167.435C66.1701 168.58 68.6106 169.555 69.6717 169.211C66.9023 169.804 68.0005 171.68 70.0855 172.316C72.0644 172.915 74.2078 172.141 76.0858 172.157L72.5313 165.231Z" fill="white"/>
<path d="M98.5889 146.129L72.0469 161.075L81.5976 178L108.14 163.054L98.5889 146.129Z" fill="#EF6FFF"/>
<path d="M98.0757 148.987C97.7309 147.339 98.4895 139.786 101.259 139.537C103.312 139.352 101.789 145.749 101.259 146.888C101.789 145.913 102.957 144.323 104.246 144.874C105.991 145.621 104.442 147.884 103.811 148.971C104.872 148.361 105.896 147.667 106.925 148.441C108.119 149.337 107.779 150.863 107.137 152.045C106.076 153.99 103.758 155.553 101.832 156.64L98.0757 148.987Z" fill="white"/>
<path d="M90.9351 166.826C90.9025 166.858 90.8649 166.885 90.8237 166.905C90.7009 166.974 90.5559 166.991 90.4205 166.953L70.0002 161.261C69.8653 161.223 69.7509 161.134 69.6819 161.012L69.3052 160.344C69.2703 160.284 69.2478 160.217 69.2388 160.148C69.2298 160.078 69.2346 160.008 69.2528 159.941C69.2896 159.804 69.379 159.688 69.5015 159.618C69.6239 159.548 69.7692 159.529 69.9055 159.566C70.0419 159.603 70.158 159.692 70.2283 159.814L70.4989 160.297L90.1976 165.787L95.694 146.109L95.4234 145.627C95.3886 145.566 95.366 145.5 95.357 145.43C95.348 145.361 95.3528 145.291 95.371 145.223C95.3892 145.156 95.4206 145.093 95.4633 145.037C95.5059 144.982 95.5591 144.936 95.6197 144.901C95.6803 144.866 95.7472 144.843 95.8165 144.834C95.8858 144.826 95.9563 144.83 96.0238 144.848C96.0913 144.867 96.1545 144.898 96.2099 144.941C96.2653 144.983 96.3117 145.036 96.3465 145.097L96.7232 145.77C96.7582 145.83 96.7808 145.897 96.7899 145.966C96.799 146.035 96.7944 146.105 96.7763 146.173L91.0783 166.571C91.0532 166.667 91.0038 166.755 90.9351 166.826Z" fill="#4F5A79"/>
<path d="M105.917 162.385C105.884 162.417 105.847 162.444 105.806 162.464L79.2788 177.41C79.1564 177.478 79.0116 177.496 78.8764 177.458C78.7411 177.42 78.6264 177.33 78.5573 177.208L69.0076 160.286C68.9728 160.225 68.9504 160.158 68.9416 160.089C68.9329 160.019 68.9381 159.948 68.9568 159.881C68.9756 159.813 69.0075 159.75 69.0508 159.695C69.0942 159.64 69.148 159.594 69.2093 159.56L95.736 144.615C95.8584 144.546 96.0032 144.529 96.1384 144.566C96.2737 144.604 96.3884 144.694 96.4575 144.816L106.007 161.743C106.042 161.804 106.065 161.87 106.074 161.94C106.083 162.009 106.078 162.079 106.06 162.146C106.033 162.236 105.983 162.318 105.917 162.385ZM79.1992 176.228L104.824 161.802L95.805 145.802L70.1801 160.228L79.1992 176.228Z" fill="#4F5A79"/>
<path d="M106.255 154.123C105.29 154.973 104.22 155.697 103.072 156.28L102.908 156.37C102.847 156.404 102.78 156.427 102.711 156.436C102.642 156.445 102.571 156.44 102.504 156.422C102.436 156.404 102.373 156.372 102.318 156.33C102.262 156.287 102.216 156.234 102.181 156.174C102.146 156.113 102.124 156.046 102.115 155.977C102.106 155.908 102.11 155.837 102.129 155.77C102.147 155.702 102.178 155.639 102.221 155.584C102.264 155.529 102.317 155.482 102.377 155.447L102.542 155.357C104.33 154.35 105.725 153.555 106.706 151.796C107.12 151.033 107.667 149.639 106.643 148.865C105.996 148.378 105.338 148.717 104.319 149.31L104.112 149.427C104.011 149.486 103.894 149.511 103.778 149.496C103.661 149.482 103.553 149.43 103.47 149.347C103.387 149.265 103.334 149.157 103.318 149.041C103.303 148.925 103.327 148.807 103.385 148.706L103.566 148.404C104.001 147.673 104.733 146.449 104.521 145.786C104.483 145.687 104.423 145.597 104.346 145.523C104.269 145.45 104.176 145.395 104.075 145.362C103.173 144.975 102.17 146.353 101.767 147.132C101.707 147.259 101.598 147.357 101.465 147.405C101.332 147.452 101.186 147.444 101.059 147.384C100.932 147.323 100.833 147.215 100.786 147.082C100.739 146.95 100.746 146.804 100.807 146.676C101.29 145.558 102.234 141.128 101.528 140.158C101.508 140.122 101.476 140.093 101.437 140.077C101.399 140.061 101.357 140.058 101.316 140.068C101.097 140.107 100.889 140.192 100.706 140.318C100.523 140.444 100.369 140.608 100.255 140.799C98.8121 142.744 98.3399 147.588 98.6105 148.881C98.6244 148.949 98.6248 149.02 98.6115 149.088C98.5983 149.156 98.5717 149.221 98.5333 149.279C98.4948 149.337 98.4453 149.387 98.3876 149.426C98.3298 149.465 98.2649 149.493 98.1967 149.506C97.9102 149.565 97.5123 148.738 97.4963 148.505C97.369 146.528 97.9155 142.145 99.401 140.168C99.6037 139.855 99.8716 139.589 100.187 139.389C100.502 139.189 100.856 139.059 101.226 139.008C101.45 138.983 101.677 139.019 101.883 139.112C102.088 139.205 102.264 139.352 102.393 139.538C103.115 140.529 102.849 142.845 102.462 144.673C102.745 144.45 103.082 144.306 103.439 144.256C103.796 144.206 104.16 144.251 104.494 144.387C104.738 144.476 104.959 144.616 105.142 144.8C105.325 144.983 105.466 145.204 105.555 145.447C105.712 146.219 105.579 147.023 105.184 147.705C105.534 147.568 105.914 147.524 106.286 147.578C106.658 147.632 107.009 147.781 107.306 148.012C108.505 148.913 108.638 150.513 107.661 152.294C107.292 152.974 106.818 153.591 106.255 154.123Z" fill="#4F5A79"/>
<path d="M76.4351 172.539C76.3868 172.588 76.3289 172.627 76.265 172.652C76.2011 172.678 76.1326 172.69 76.0638 172.688C75.3884 172.701 74.7148 172.761 74.0477 172.868C72.6949 173.053 71.2996 173.239 69.9149 172.82C68.4347 172.37 67.432 171.379 67.4691 170.414C67.4847 170.109 67.5981 169.817 67.7927 169.582C67.4396 169.471 67.0998 169.322 66.7794 169.137C66.4575 168.979 66.172 168.757 65.9409 168.483C65.7098 168.209 65.5382 167.89 65.4372 167.547C65.2409 166.487 65.9995 165.983 66.7635 165.692L66.6574 165.644C65.836 165.314 65.0852 164.83 64.4451 164.219C64.2594 164.023 62.62 162.268 63.0816 161.193C63.1701 160.986 63.3052 160.802 63.4764 160.656C63.6475 160.51 63.8501 160.405 64.0684 160.35C65.6918 159.883 68.5938 161.532 69.0607 161.85C69.6482 162.276 70.2131 162.732 70.7531 163.217C71.2306 163.63 71.6922 164.028 72.1643 164.372C72.3712 164.526 72.5145 165.851 72.2598 165.703C71.4759 165.209 70.7389 164.645 70.0581 164.017C69.5513 163.558 69.02 163.126 68.4665 162.724C67.7132 162.194 65.3523 161.087 64.3708 161.367C64.3039 161.379 64.2411 161.408 64.1882 161.451C64.1354 161.493 64.0941 161.548 64.0684 161.611C64.01 161.871 64.5989 162.835 65.2196 163.487C65.7725 164 66.4167 164.405 67.1189 164.68C67.5701 164.881 68.0078 165.111 68.4294 165.369C68.5175 165.424 68.5876 165.503 68.631 165.597C68.6743 165.691 68.6891 165.796 68.6734 165.899C68.6618 165.998 68.6222 166.092 68.5593 166.17C68.4964 166.248 68.4127 166.306 68.318 166.339C68.1694 166.392 67.9943 166.439 67.7874 166.492C66.6892 166.805 66.3974 167.022 66.4664 167.372C66.6158 167.766 66.9154 168.084 67.2993 168.257C67.9029 168.623 68.5992 168.807 69.3047 168.787L69.5276 168.734C69.6579 168.711 69.7923 168.737 69.9043 168.807C70.0164 168.877 70.0981 168.987 70.1333 169.115C70.1686 169.242 70.1548 169.378 70.0947 169.496C70.0347 169.614 69.9327 169.705 69.8088 169.752C69.715 169.783 69.6193 169.807 69.5223 169.826C68.9069 169.99 68.5249 170.244 68.5142 170.499C68.5142 170.843 69.0819 171.506 70.212 171.85C71.342 172.195 72.6471 172.03 73.8886 171.85C74.6049 171.737 75.3281 171.674 76.0532 171.66C76.1587 171.66 76.2618 171.692 76.3491 171.751C76.4365 171.81 76.5041 171.894 76.5434 171.992C76.5828 172.09 76.5919 172.197 76.5698 172.301C76.5477 172.404 76.4953 172.498 76.4192 172.571L76.4351 172.539Z" fill="#4F5A79"/>
<path d="M124.566 110.581C123.236 108.935 122.369 106.704 121.133 104.913C120.39 103.849 116.505 99.5222 114.857 101.226C114.197 101.916 114.979 104.287 115.284 105.014C116.031 106.753 117.515 107.721 118.608 109.168C117.344 109.129 115.272 108.636 114.987 110.22C114.702 111.804 117.382 114.258 118.923 114.331C115.051 113.745 115.554 116.708 117.94 118.55C120.207 120.291 123.357 120.338 125.778 121.276L124.566 110.581Z" fill="white"/>
<path d="M167.601 98.6114L125.971 104.97L130.052 131.526L171.682 125.168L167.601 98.6114Z" fill="#EF6FFF"/>
<path d="M165.541 102.057C165.901 99.7565 170.573 90.3602 174.276 91.3914C177.022 92.1548 171.927 99.6837 170.684 100.898C171.846 99.8961 174.133 98.4103 175.531 99.7531C177.423 101.573 174.314 103.742 172.966 104.839C174.636 104.569 176.3 104.172 177.253 105.675C178.359 107.417 177.174 109.225 175.766 110.44C173.443 112.437 169.681 113.326 166.659 113.79L165.541 102.057Z" fill="white"/>
<path d="M147.588 121.638C147.53 121.664 147.468 121.68 147.405 121.687C147.213 121.715 147.017 121.667 146.86 121.551L123.232 104.211C123.076 104.096 122.972 103.924 122.942 103.733L122.781 102.685C122.766 102.59 122.77 102.493 122.792 102.399C122.814 102.305 122.855 102.216 122.911 102.138C123.025 101.98 123.198 101.873 123.39 101.842C123.583 101.811 123.78 101.858 123.938 101.972C124.097 102.086 124.203 102.259 124.234 102.451L124.349 103.207L147.142 119.934L163.866 97.1711L163.752 96.4151C163.737 96.3198 163.74 96.2223 163.762 96.1284C163.785 96.0344 163.825 95.9458 163.882 95.8675C163.938 95.7892 164.01 95.7228 164.092 95.6721C164.174 95.6214 164.265 95.5874 164.361 95.572C164.456 95.5566 164.554 95.5602 164.648 95.5824C164.742 95.6047 164.831 95.6453 164.909 95.7018C164.987 95.7583 165.054 95.8297 165.105 95.9119C165.155 95.9941 165.19 96.0855 165.205 96.1808L165.363 97.2354C165.379 97.3305 165.376 97.4277 165.354 97.5216C165.332 97.6154 165.291 97.704 165.235 97.7822L147.897 121.379C147.818 121.491 147.711 121.58 147.588 121.638Z" fill="#4F5A79"/>
<path d="M169.133 123.216C169.076 123.242 169.014 123.258 168.951 123.264L127.34 129.63C127.148 129.659 126.953 129.61 126.796 129.496C126.64 129.381 126.535 129.208 126.505 129.017L122.425 102.465C122.409 102.369 122.413 102.271 122.436 102.177C122.458 102.083 122.5 101.994 122.557 101.916C122.614 101.838 122.686 101.772 122.769 101.722C122.852 101.672 122.944 101.639 123.04 101.624L164.65 95.2589C164.842 95.23 165.038 95.2783 165.195 95.3932C165.351 95.5081 165.456 95.6803 165.485 95.872L169.564 122.431C169.579 122.526 169.576 122.623 169.554 122.717C169.532 122.811 169.492 122.899 169.435 122.978C169.356 123.08 169.252 123.162 169.133 123.216ZM127.815 128.062L168.005 121.928L164.16 96.828L123.969 102.962L127.815 128.062Z" fill="#4F5A79"/>
<path d="M173.611 112.697C171.947 113.324 170.209 113.739 168.44 113.931L168.184 113.967C168.088 113.982 167.991 113.979 167.897 113.956C167.803 113.934 167.714 113.894 167.636 113.837C167.557 113.78 167.491 113.709 167.44 113.627C167.389 113.545 167.355 113.453 167.34 113.358C167.324 113.263 167.328 113.165 167.35 113.071C167.372 112.977 167.413 112.889 167.469 112.81C167.526 112.732 167.597 112.666 167.679 112.615C167.761 112.564 167.853 112.53 167.948 112.515L168.205 112.479C171.009 112.05 173.202 111.704 175.332 109.908C176.24 109.123 177.628 107.588 176.681 106.087C176.083 105.14 175.066 105.257 173.459 105.527L173.134 105.576C172.975 105.604 172.811 105.578 172.668 105.503C172.524 105.427 172.41 105.307 172.343 105.16C172.276 105.013 172.259 104.847 172.296 104.69C172.333 104.532 172.421 104.391 172.546 104.289L172.927 103.987C173.847 103.253 175.392 102.028 175.442 101.067C175.441 100.92 175.408 100.775 175.344 100.642C175.28 100.51 175.188 100.393 175.072 100.301C174.095 99.3601 172.125 100.652 171.223 101.463C171.082 101.598 170.894 101.671 170.699 101.667C170.504 101.664 170.319 101.583 170.184 101.442C170.049 101.302 169.975 101.114 169.979 100.919C169.982 100.724 170.063 100.539 170.204 100.404C171.374 99.1937 174.761 93.9251 174.322 92.326C174.313 92.2693 174.286 92.217 174.244 92.1773C174.203 92.1375 174.149 92.1124 174.092 92.1058C173.79 92.0492 173.479 92.0581 173.181 92.1318C172.882 92.2055 172.603 92.3424 172.362 92.5331C169.545 94.3434 166.568 100.377 166.286 102.182C166.27 102.277 166.236 102.368 166.186 102.45C166.135 102.532 166.069 102.603 165.991 102.659C165.913 102.716 165.825 102.756 165.731 102.778C165.637 102.8 165.54 102.804 165.445 102.788C165.046 102.724 164.935 101.46 165.029 101.151C165.83 98.532 168.679 93.1307 171.566 91.3001C171.981 90.994 172.457 90.7811 172.963 90.6759C173.468 90.5708 173.99 90.5759 174.493 90.6909C174.796 90.7682 175.071 90.9258 175.291 91.1468C175.512 91.3679 175.668 91.6443 175.744 91.9467C176.193 93.581 174.718 96.4466 173.323 98.622C173.798 98.4719 174.305 98.4504 174.791 98.5599C175.277 98.6693 175.726 98.9057 176.091 99.2449C176.363 99.4786 176.58 99.7688 176.727 100.095C176.875 100.422 176.949 100.776 176.945 101.134C176.77 102.21 176.207 103.184 175.362 103.873C175.881 103.867 176.394 103.996 176.848 104.247C177.303 104.499 177.685 104.864 177.956 105.307C179.066 107.058 178.456 109.193 176.323 111.019C175.514 111.718 174.598 112.284 173.611 112.697Z" fill="#4F5A79"/>
<path d="M126.044 121.942C125.958 121.981 125.864 122.003 125.769 122.005C125.674 122.006 125.58 121.989 125.492 121.952C124.612 121.64 123.711 121.388 122.796 121.2C120.956 120.779 119.061 120.337 117.475 119.119C115.78 117.813 114.968 116.041 115.487 114.812C115.656 114.425 115.946 114.103 116.312 113.894C115.91 113.578 115.543 113.219 115.22 112.823C114.88 112.462 114.62 112.034 114.455 111.567C114.289 111.1 114.223 110.604 114.261 110.11C114.525 108.644 115.752 108.363 116.882 108.36L116.768 108.246C115.868 107.417 115.133 106.425 114.604 105.321C114.46 104.977 113.197 101.907 114.319 100.741C114.535 100.517 114.799 100.346 115.092 100.24C115.385 100.135 115.698 100.098 116.007 100.134C118.335 100.324 121.283 103.874 121.731 104.513C122.283 105.351 122.79 106.218 123.252 107.109C123.667 107.876 124.07 108.616 124.512 109.292C124.705 109.592 124.242 111.376 123.986 111.059C123.213 110.038 122.535 108.948 121.962 107.804C121.531 106.962 121.054 106.144 120.535 105.354C119.82 104.3 117.308 101.714 115.901 101.597C115.809 101.58 115.714 101.586 115.625 101.616C115.535 101.645 115.455 101.696 115.391 101.765C115.189 102.072 115.479 103.608 115.963 104.754C116.428 105.687 117.063 106.525 117.837 107.224C118.322 107.705 118.775 108.217 119.195 108.756C119.282 108.87 119.334 109.007 119.344 109.15C119.354 109.293 119.322 109.435 119.251 109.56C119.188 109.683 119.091 109.785 118.971 109.855C118.852 109.925 118.715 109.96 118.577 109.956C118.359 109.952 118.109 109.928 117.816 109.895C116.242 109.763 115.759 109.901 115.677 110.387C115.678 110.969 115.91 111.527 116.322 111.939C116.924 112.707 117.734 113.285 118.656 113.604L118.971 113.645C119.151 113.678 119.312 113.777 119.422 113.923C119.533 114.069 119.585 114.251 119.568 114.433C119.551 114.615 119.467 114.784 119.332 114.907C119.196 115.03 119.02 115.098 118.837 115.098C118.7 115.092 118.565 115.078 118.43 115.054C117.554 114.966 116.936 115.108 116.798 115.432C116.629 115.877 117.04 117.012 118.333 118.009C119.626 119.007 121.394 119.432 123.088 119.806C124.069 120.01 125.036 120.281 125.98 120.617C126.117 120.669 126.234 120.761 126.318 120.88C126.402 121 126.449 121.141 126.452 121.287C126.455 121.433 126.414 121.576 126.335 121.699C126.256 121.821 126.142 121.917 126.008 121.975L126.044 121.942Z" fill="#4F5A79"/>
<path d="M331.779 100.231C333.1 99.4568 334.257 98.169 335.551 97.2733C336.326 96.7433 340.061 94.8089 340.74 96.3829C341.011 97.0189 339.875 98.4233 339.483 98.8367C338.533 99.8225 337.281 100.098 336.172 100.798C337.037 101.094 338.565 101.291 338.353 102.435C338.14 103.58 335.7 104.555 334.639 104.211C337.408 104.804 336.31 106.68 334.225 107.316C332.246 107.915 330.103 107.141 328.225 107.157L331.779 100.231Z" fill="white"/>
<path d="M305.722 81.129L332.264 96.075L322.713 113L296.171 98.054L305.722 81.129Z" fill="#EF6FFF"/>
<path d="M306.235 83.9868C306.58 82.3386 305.821 74.7865 303.052 74.5374C300.998 74.3519 302.521 80.7487 303.052 81.8881C302.521 80.913 301.354 79.3231 300.065 79.8742C298.319 80.6215 299.868 82.8845 300.5 83.9709C299.439 83.3615 298.415 82.6672 297.386 83.441C296.192 84.3366 296.531 85.8629 297.173 87.0448C298.234 88.9898 300.553 90.5532 302.479 91.6397L306.235 83.9868Z" fill="white"/>
<path d="M313.375 101.826C313.408 101.858 313.446 101.885 313.487 101.905C313.61 101.974 313.755 101.991 313.89 101.953L334.31 96.2611C334.445 96.2233 334.56 96.1338 334.629 96.012L335.005 95.3442C335.04 95.2837 335.063 95.2169 335.072 95.1476C335.081 95.0784 335.076 95.008 335.058 94.9406C335.021 94.8044 334.931 94.6885 334.809 94.6182C334.687 94.5479 334.541 94.5291 334.405 94.5659C334.269 94.6026 334.153 94.692 334.082 94.8143L333.812 95.2966L314.113 100.787L308.617 81.1091L308.887 80.6269C308.922 80.5663 308.945 80.4995 308.954 80.4302C308.963 80.361 308.958 80.2906 308.94 80.2232C308.921 80.1558 308.89 80.0926 308.847 80.0373C308.805 79.982 308.751 79.9356 308.691 79.9008C308.63 79.866 308.563 79.8435 308.494 79.8345C308.425 79.8255 308.354 79.8303 308.287 79.8485C308.219 79.8667 308.156 79.898 308.101 79.9406C308.045 79.9832 307.999 80.0363 307.964 80.0969L307.587 80.77C307.552 80.8303 307.53 80.897 307.521 80.9661C307.512 81.0352 307.516 81.1054 307.534 81.1727L313.232 101.571C313.257 101.667 313.307 101.755 313.375 101.826Z" fill="#4F5A79"/>
<path d="M298.394 97.3847C298.426 97.4171 298.464 97.4439 298.505 97.4642L325.032 112.41C325.154 112.478 325.299 112.496 325.434 112.458C325.569 112.42 325.684 112.33 325.753 112.208L335.303 95.286C335.338 95.2252 335.36 95.1581 335.369 95.0886C335.378 95.0191 335.372 94.9485 335.354 94.881C335.335 94.8134 335.303 94.7503 335.26 94.6952C335.216 94.6401 335.163 94.5942 335.101 94.56L308.575 79.6147C308.452 79.546 308.307 79.5287 308.172 79.5664C308.037 79.6042 307.922 79.694 307.853 79.8161L298.303 96.7435C298.268 96.8038 298.246 96.8705 298.237 96.9396C298.228 97.0087 298.232 97.0789 298.25 97.1462C298.278 97.2362 298.327 97.3181 298.394 97.3847ZM325.111 111.228L299.486 96.8018L308.506 80.8018L334.13 95.2277L325.111 111.228Z" fill="#4F5A79"/>
<path d="M298.055 89.1226C299.021 89.9725 300.091 90.6973 301.238 91.2796L301.403 91.3696C301.463 91.4044 301.53 91.427 301.6 91.436C301.669 91.4449 301.739 91.4402 301.807 91.422C301.874 91.4038 301.938 91.3724 301.993 91.3298C302.048 91.2872 302.095 91.2341 302.13 91.1736C302.164 91.113 302.187 91.0462 302.196 90.9769C302.205 90.9077 302.2 90.8373 302.182 90.7699C302.164 90.7025 302.132 90.6393 302.09 90.584C302.047 90.5287 301.994 90.4823 301.933 90.4475L301.769 90.3574C299.981 89.3504 298.586 88.5555 297.604 86.796C297.19 86.0328 296.644 84.639 297.668 83.8652C298.315 83.3776 298.973 83.7168 299.992 84.3104L300.198 84.427C300.299 84.4863 300.417 84.5106 300.533 84.4963C300.649 84.4819 300.757 84.4296 300.84 84.3475C300.923 84.2649 300.977 84.1573 300.992 84.0413C301.007 83.9253 300.984 83.8075 300.925 83.7062L300.745 83.4041C300.31 82.6728 299.578 81.4485 299.79 80.786C299.828 80.6865 299.887 80.5968 299.964 80.5234C300.042 80.45 300.134 80.3949 300.236 80.3621C301.137 79.9752 302.14 81.3531 302.543 82.1322C302.604 82.2594 302.713 82.3574 302.845 82.4046C302.978 82.4518 303.124 82.4444 303.252 82.3839C303.379 82.3235 303.477 82.215 303.524 82.0823C303.572 81.9496 303.564 81.8036 303.504 81.6764C303.021 80.5582 302.077 76.1276 302.782 75.1577C302.803 75.1217 302.835 75.0933 302.873 75.0771C302.911 75.0608 302.954 75.0575 302.994 75.0676C303.213 75.1066 303.421 75.1921 303.604 75.3182C303.787 75.4444 303.941 75.6084 304.055 75.799C305.498 77.744 305.971 82.588 305.7 83.8811C305.686 83.9493 305.686 84.0196 305.699 84.0879C305.712 84.1563 305.739 84.2213 305.777 84.2794C305.816 84.3375 305.865 84.3874 305.923 84.4264C305.981 84.4654 306.046 84.4926 306.114 84.5065C306.4 84.5648 306.798 83.738 306.814 83.5048C306.942 81.528 306.395 77.1451 304.91 75.1683C304.707 74.8551 304.439 74.5892 304.124 74.3889C303.809 74.1886 303.454 74.0586 303.085 74.0077C302.86 73.9827 302.633 74.0188 302.428 74.1121C302.222 74.2054 302.046 74.3524 301.917 74.5377C301.196 75.5287 301.461 77.8447 301.848 79.6731C301.565 79.4501 301.228 79.3061 300.871 79.2558C300.514 79.2055 300.15 79.2508 299.816 79.3869C299.573 79.4756 299.352 79.6164 299.168 79.7995C298.985 79.9826 298.844 80.2036 298.755 80.4469C298.599 81.2195 298.731 82.0225 299.127 82.7046C298.777 82.5678 298.397 82.5242 298.025 82.5781C297.653 82.632 297.301 82.7815 297.005 83.0119C295.806 83.9129 295.673 85.5134 296.649 87.2941C297.018 87.9738 297.493 88.5909 298.055 89.1226Z" fill="#4F5A79"/>
<path d="M327.875 107.539C327.924 107.588 327.982 107.627 328.046 107.652C328.109 107.678 328.178 107.69 328.247 107.688C328.922 107.701 329.596 107.761 330.263 107.868C331.616 108.053 333.011 108.239 334.396 107.82C335.876 107.37 336.879 106.379 336.841 105.414C336.826 105.109 336.712 104.817 336.518 104.582C336.871 104.471 337.211 104.322 337.531 104.137C337.853 103.979 338.139 103.757 338.37 103.483C338.601 103.209 338.772 102.89 338.873 102.547C339.07 101.487 338.311 100.983 337.547 100.692L337.653 100.644C338.475 100.314 339.225 99.8299 339.865 99.2187C340.051 99.0226 341.691 97.2684 341.229 96.1925C341.14 95.9857 341.005 95.8021 340.834 95.656C340.663 95.5098 340.46 95.4051 340.242 95.3499C338.619 94.8835 335.717 96.5317 335.25 96.8497C334.662 97.2759 334.097 97.7323 333.557 98.217C333.08 98.6304 332.618 99.0279 332.146 99.3724C331.939 99.5261 331.796 100.851 332.051 100.703C332.835 100.209 333.572 99.6451 334.252 99.0173C334.759 98.5579 335.291 98.1263 335.844 97.7242C336.597 97.1942 338.958 96.0865 339.94 96.3674C340.007 96.3793 340.069 96.4079 340.122 96.4505C340.175 96.4931 340.216 96.5484 340.242 96.6112C340.301 96.8709 339.712 97.8354 339.091 98.4873C338.538 99 337.894 99.4045 337.192 99.6797C336.74 99.8811 336.303 100.111 335.881 100.369C335.793 100.424 335.723 100.503 335.68 100.597C335.636 100.691 335.621 100.796 335.637 100.899C335.649 100.998 335.688 101.092 335.751 101.17C335.814 101.248 335.898 101.306 335.993 101.339C336.141 101.392 336.316 101.439 336.523 101.492C337.621 101.805 337.913 102.022 337.844 102.372C337.695 102.766 337.395 103.084 337.011 103.257C336.408 103.623 335.711 103.807 335.006 103.787L334.783 103.734C334.653 103.711 334.518 103.737 334.406 103.807C334.294 103.877 334.212 103.987 334.177 104.115C334.142 104.242 334.156 104.378 334.216 104.496C334.276 104.614 334.378 104.705 334.502 104.752C334.596 104.783 334.691 104.807 334.788 104.826C335.404 104.99 335.786 105.244 335.796 105.499C335.796 105.843 335.229 106.506 334.099 106.85C332.969 107.195 331.663 107.03 330.422 106.85C329.706 106.737 328.982 106.674 328.257 106.66C328.152 106.66 328.049 106.692 327.961 106.751C327.874 106.81 327.806 106.894 327.767 106.992C327.728 107.09 327.719 107.197 327.741 107.301C327.763 107.404 327.815 107.498 327.891 107.571L327.875 107.539Z" fill="#4F5A79"/>
<path d="M149.883 33.3468C150.277 31.8675 150.193 30.1386 150.483 28.5914C150.661 27.6699 151.955 23.6675 153.545 24.3085C154.184 24.5701 154.365 26.367 154.377 26.9369C154.396 28.3056 153.7 29.3823 153.404 30.6595C154.227 30.2621 155.451 29.3265 156.106 30.2894C156.76 31.2523 155.712 33.6622 154.715 34.1638C157.101 32.6374 157.64 34.7434 156.606 36.6621C155.621 38.4799 153.553 39.4378 152.23 40.7703L149.883 33.3468Z" fill="white"/>
<path d="M117.925 38.1033L147.303 30.0535L152.422 48.801L123.044 56.8509L117.925 38.1033Z" fill="#EF6FFF"/>
<path d="M120.3 39.7732C119.386 38.3592 113.534 33.5256 111.39 35.2968C109.801 36.6093 115.383 40.0844 116.562 40.521C115.498 40.2012 113.55 39.8923 113.022 41.191C112.307 42.95 115 43.4685 116.213 43.7965C115.03 44.1098 113.814 44.3367 113.627 45.6107C113.409 47.087 114.724 47.9328 116.011 48.3212C118.134 48.9571 120.881 48.4372 123.014 47.8546L120.3 39.7732Z" fill="white"/>
<path d="M137.926 47.4278C137.972 47.4278 138.017 47.4204 138.061 47.4059C138.197 47.3683 138.312 47.2785 138.381 47.1562L148.89 28.7454C148.959 28.6237 148.977 28.4796 148.941 28.3445L148.739 27.6049C148.721 27.5373 148.69 27.474 148.648 27.4184C148.605 27.3629 148.552 27.3163 148.492 27.2812C148.37 27.2103 148.225 27.1908 148.088 27.2269C147.952 27.2631 147.835 27.352 147.764 27.474C147.693 27.5961 147.674 27.7412 147.71 27.8776L147.857 28.4107L137.719 46.1707L119.97 36.0521L119.823 35.519C119.805 35.4515 119.774 35.3881 119.732 35.3326C119.689 35.277 119.636 35.2304 119.576 35.1953C119.516 35.1602 119.449 35.1374 119.38 35.1281C119.31 35.1188 119.24 35.1232 119.173 35.1411C119.105 35.159 119.042 35.19 118.986 35.2324C118.93 35.2748 118.884 35.3277 118.849 35.3882C118.813 35.4486 118.79 35.5153 118.781 35.5846C118.772 35.6538 118.776 35.7242 118.794 35.7918L119 36.5351C119.017 36.6026 119.048 36.6659 119.09 36.7214C119.132 36.7769 119.185 36.8236 119.245 36.8587L137.645 47.3478C137.73 47.398 137.827 47.4256 137.926 47.4278Z" fill="#4F5A79"/>
<path d="M124.152 54.8112C124.198 54.8113 124.243 54.8039 124.287 54.7894L153.654 46.7498C153.789 46.7125 153.904 46.623 153.974 46.501C154.043 46.379 154.062 46.2345 154.025 46.0991L148.907 27.3544C148.889 27.2867 148.858 27.2232 148.815 27.1676C148.773 27.1121 148.719 27.0656 148.658 27.0308C148.598 26.996 148.53 26.9736 148.461 26.9649C148.391 26.9562 148.321 26.9614 148.253 26.9802L118.887 35.0198C118.751 35.0571 118.636 35.1466 118.567 35.2686C118.497 35.3906 118.479 35.5351 118.515 35.6705L123.637 54.419C123.654 54.4864 123.685 54.5497 123.727 54.6052C123.769 54.6608 123.822 54.7074 123.882 54.7425C123.965 54.7871 124.058 54.8106 124.152 54.8112ZM152.879 45.8539L124.519 53.6281L119.673 35.912L148.033 28.1378L152.879 45.8539Z" fill="#4F5A79"/>
<path d="M118.1 49.178C119.384 49.1026 120.654 48.8653 121.88 48.4717L122.06 48.42C122.127 48.4021 122.191 48.3711 122.246 48.3287C122.302 48.2863 122.349 48.2334 122.384 48.1729C122.419 48.1125 122.442 48.0458 122.451 47.9765C122.461 47.9073 122.456 47.8369 122.439 47.7693C122.421 47.7018 122.39 47.6384 122.347 47.5829C122.305 47.5274 122.252 47.4807 122.192 47.4456C122.131 47.4105 122.065 47.3877 121.995 47.3784C121.926 47.3691 121.856 47.3735 121.788 47.3914L121.608 47.4431C119.629 47.9852 118.078 48.4018 116.143 47.8418C115.312 47.5905 113.943 46.9843 114.126 45.7141C114.243 44.9122 114.949 44.6905 116.091 44.3957L116.32 44.333C116.433 44.3043 116.534 44.2388 116.606 44.147C116.679 44.0551 116.719 43.9419 116.72 43.8249C116.721 43.7079 116.683 43.5938 116.613 43.5006C116.542 43.4073 116.442 43.3402 116.329 43.3095L115.989 43.2217C115.165 43.0079 113.783 42.6529 113.468 42.0328C113.425 41.9355 113.404 41.8298 113.408 41.7234C113.411 41.6169 113.438 41.5126 113.487 41.418C113.856 40.5085 115.538 40.7824 116.372 41.0525C116.505 41.1003 116.651 41.0935 116.778 41.0337C116.906 40.9738 117.005 40.8657 117.053 40.7331C117.101 40.6006 117.094 40.4545 117.034 40.3269C116.974 40.1994 116.866 40.1008 116.734 40.053C115.604 39.5979 111.816 37.1134 111.635 35.9277C111.625 35.8875 111.627 35.8449 111.643 35.8064C111.659 35.7679 111.687 35.7356 111.723 35.7144C111.906 35.5881 112.114 35.5025 112.333 35.4634C112.552 35.4243 112.776 35.4326 112.991 35.4877C115.385 35.8549 119.129 38.9654 119.846 40.0747C119.884 40.133 119.933 40.1832 119.991 40.2225C120.048 40.2617 120.113 40.2893 120.181 40.3035C120.249 40.3177 120.32 40.3184 120.388 40.3055C120.456 40.2925 120.522 40.2662 120.58 40.2281C120.825 40.068 120.526 39.2005 120.373 39.0235C119.073 37.529 115.601 34.7985 113.155 34.4386C112.79 34.3586 112.413 34.3581 112.048 34.4373C111.683 34.5166 111.34 34.6736 111.041 34.8976C110.864 35.0377 110.728 35.2229 110.648 35.4338C110.568 35.6446 110.546 35.8732 110.585 36.0954C110.769 37.3073 112.587 38.7667 114.148 39.7937C113.79 39.8343 113.449 39.9692 113.16 40.1846C112.871 40.4 112.644 40.6882 112.503 41.0198C112.392 41.2541 112.334 41.5098 112.333 41.7689C112.331 42.028 112.386 42.2842 112.494 42.5195C112.927 43.1786 113.586 43.6564 114.347 43.8628C114.002 44.0119 113.701 44.248 113.475 44.548C113.248 44.848 113.103 45.2016 113.055 45.5742C112.836 47.058 113.868 48.2888 115.814 48.8676C116.555 49.091 117.326 49.1957 118.1 49.178Z" fill="#4F5A79"/>
<path d="M152.249 41.288C152.318 41.2888 152.386 41.2754 152.449 41.2486C152.513 41.2218 152.57 41.1821 152.617 41.1322C153.107 40.6667 153.628 40.2356 154.177 39.842C155.269 39.0221 156.391 38.1723 157.08 36.9006C157.815 35.5392 157.831 34.1295 157.126 33.4701C156.9 33.2643 156.615 33.1368 156.311 33.1064C156.484 32.7792 156.62 32.4341 156.718 32.0771C156.836 31.7387 156.882 31.3796 156.854 31.0225C156.825 30.6654 156.723 30.3182 156.553 30.0029C155.947 29.1115 155.054 29.2874 154.306 29.6177L154.347 29.5091C154.699 28.6964 154.892 27.8243 154.917 26.9396C154.911 26.6696 154.842 24.2696 153.757 23.8297C153.549 23.745 153.323 23.7096 153.099 23.7261C152.874 23.7426 152.657 23.8107 152.463 23.925C150.981 24.7356 150.078 27.9485 149.97 28.503C149.852 29.2191 149.772 29.9409 149.729 30.6653C149.68 31.295 149.632 31.9022 149.539 32.4792C149.5 32.734 150.33 33.7764 150.407 33.4918C150.617 32.5897 150.744 31.6703 150.786 30.7452C150.823 30.0621 150.897 29.3816 151.007 28.7065C151.17 27.7998 152.069 25.3517 152.964 24.8609C153.02 24.8223 153.084 24.7985 153.152 24.7916C153.219 24.7847 153.288 24.7949 153.35 24.8214C153.574 24.9649 153.834 26.0647 153.852 26.9647C153.82 27.718 153.646 28.4587 153.341 29.1483C153.162 29.6088 153.013 30.0803 152.894 30.5598C152.87 30.6608 152.876 30.7665 152.912 30.864C152.947 30.9615 153.01 31.0463 153.094 31.1082C153.172 31.1706 153.266 31.2096 153.365 31.2207C153.465 31.2317 153.566 31.2144 153.656 31.1707C153.798 31.1039 153.956 31.0146 154.141 30.9067C155.141 30.3564 155.501 30.3055 155.699 30.6027C155.869 30.9875 155.88 31.4244 155.729 31.8176C155.557 32.5021 155.192 33.1226 154.677 33.6051L154.481 33.7242C154.372 33.7991 154.295 33.9121 154.265 34.041C154.234 34.1699 154.254 34.3054 154.318 34.4208C154.383 34.5361 154.488 34.6232 154.614 34.6647C154.74 34.7062 154.876 34.6992 154.997 34.6452C155.086 34.6012 155.171 34.5515 155.253 34.4964C155.806 34.1802 156.256 34.0922 156.443 34.2656C156.685 34.5104 156.748 35.3806 156.187 36.4204C155.626 37.4602 154.583 38.2615 153.574 39.0068C152.985 39.4304 152.427 39.8939 151.901 40.394C151.827 40.4686 151.776 40.5637 151.755 40.6673C151.735 40.7708 151.746 40.8781 151.787 40.9753C151.828 41.0725 151.897 41.1553 151.985 41.213C152.073 41.2708 152.177 41.3008 152.282 41.2994L152.249 41.288Z" fill="#4F5A79"/>
<path d="M277.038 116.273L233.012 111.677L229.822 142.374L273.848 146.969L277.038 116.273Z" fill="white"/>
<path d="M279.263 121.373C279.263 121.373 281.365 122.073 286.733 119.278C294.629 115.16 297.798 113.234 298.317 115.205C298.836 117.176 291.34 123.272 291.34 123.272C291.34 123.272 296.559 120.937 297.275 122.458C297.991 123.978 290.429 128.295 290.429 128.295C290.429 128.295 296.084 126.643 296.519 128.302C296.954 129.961 290.491 134.706 278.676 133.956L279.263 121.373Z" fill="white"/>
<path d="M234.817 116.736C234.817 116.736 231.141 115.077 228.501 113.758C225.214 112.266 219.76 109.87 218.308 111.201C216.373 113.033 225.398 118.981 225.398 118.981C225.398 118.981 218.39 116.543 217.762 118.422C217.134 120.301 226.081 124.624 226.081 124.624C226.081 124.624 220.3 122.74 219.33 123.918C218.359 125.096 223.948 130.8 233.229 129.851L234.817 116.736Z" fill="white"/>
<path d="M276.556 110.67L264.203 109.381L263.225 118.793L275.578 120.083L276.556 110.67Z" fill="#62BEFB"/>
<path d="M278.455 134.592C278.367 134.574 278.283 134.538 278.208 134.488C278.133 134.437 278.069 134.372 278.02 134.296C277.919 134.144 277.884 133.958 277.921 133.78C277.958 133.601 278.064 133.445 278.216 133.345C278.369 133.245 278.555 133.209 278.734 133.246C288.086 133.84 293.651 130.92 295.291 129.287C295.572 129.069 295.776 128.767 295.873 128.426C295.627 128.041 293.225 128.203 290.631 128.924C290.47 128.973 290.297 128.96 290.145 128.889C289.992 128.819 289.871 128.694 289.805 128.539C289.739 128.385 289.733 128.212 289.787 128.053C289.841 127.894 289.952 127.761 290.099 127.678C293.473 125.747 296.478 123.452 296.642 122.687C296.345 122.386 294.172 122.737 291.625 123.873C291.471 123.933 291.3 123.936 291.144 123.881C290.988 123.825 290.858 123.715 290.778 123.57C290.692 123.43 290.66 123.264 290.687 123.103C290.714 122.941 290.799 122.795 290.925 122.69C294.74 119.586 297.894 116.145 297.674 115.322C297.622 115.123 297.56 115.094 297.535 115.084C296.767 114.723 293.487 116.45 289.356 118.617L287.06 119.821C281.6 122.67 279.305 122.045 279.061 121.958C278.889 121.903 278.745 121.782 278.662 121.622C278.579 121.461 278.563 121.274 278.618 121.102C278.673 120.93 278.794 120.787 278.954 120.704C279.115 120.621 279.302 120.605 279.474 120.66C279.545 120.685 281.558 121.144 286.428 118.612L288.715 117.413C294.193 114.534 296.718 113.239 298.076 113.832C298.307 113.938 298.509 114.096 298.667 114.295C298.825 114.493 298.934 114.725 298.985 114.974C299.387 116.483 296.857 119.229 294.517 121.407C296.01 121.074 297.439 121.085 297.926 122.112C298.501 123.337 296.513 125.156 293.984 126.869C294.84 126.735 295.716 126.843 296.514 127.18C296.686 127.273 296.837 127.4 296.958 127.554C297.078 127.707 297.166 127.884 297.215 128.074C297.26 128.4 297.226 128.732 297.116 129.043C297.005 129.353 296.82 129.632 296.578 129.855C294.713 132.08 288.401 135.188 278.646 134.566C278.584 134.584 278.52 134.593 278.455 134.592Z" fill="#4F5A79"/>
<path d="M224.923 129.551C221.58 128.357 219.483 126.408 218.846 125.212C218.334 124.256 218.611 123.683 218.823 123.433C219.283 122.875 220.284 122.748 221.446 122.838C218.877 121.277 216.684 119.496 217.135 118.154C217.201 117.96 217.307 117.783 217.446 117.632C217.584 117.481 217.752 117.361 217.94 117.278C218.81 116.866 220.411 116.983 221.933 117.259C219.841 115.622 217.498 113.47 217.384 111.948C217.354 111.713 217.38 111.475 217.459 111.252C217.539 111.029 217.67 110.828 217.842 110.666C219.35 109.239 223.306 110.601 228.771 113.124C231.392 114.458 235.049 116.089 235.087 116.103C235.169 116.14 235.243 116.193 235.304 116.259C235.365 116.324 235.413 116.401 235.444 116.485C235.476 116.569 235.49 116.659 235.487 116.749C235.484 116.838 235.463 116.926 235.426 117.008C235.389 117.09 235.336 117.163 235.27 117.224C235.204 117.285 235.127 117.333 235.043 117.364C234.959 117.396 234.87 117.41 234.78 117.407C234.69 117.404 234.602 117.383 234.52 117.346C234.52 117.346 230.785 115.65 228.179 114.358C221.333 111.241 219.292 111.184 218.755 111.715C218.739 111.76 218.687 111.784 218.691 111.894C218.815 113.268 222.892 116.539 225.762 118.431C225.901 118.522 226.003 118.661 226.047 118.822C226.091 118.983 226.074 119.155 226 119.304C225.925 119.453 225.798 119.57 225.642 119.632C225.487 119.694 225.314 119.696 225.157 119.639C223.001 118.869 219.507 118.055 218.508 118.543C218.465 118.564 218.41 118.595 218.399 118.627C218.406 119.417 222.128 121.94 226.369 124.003C226.52 124.077 226.639 124.204 226.702 124.36C226.765 124.516 226.768 124.69 226.711 124.848C226.65 125.018 226.524 125.157 226.361 125.235C226.198 125.312 226.01 125.321 225.84 125.26C223.246 124.42 220.448 123.97 219.872 124.306C220.073 124.832 220.404 125.299 220.835 125.662C222.885 127.638 227.334 129.747 233.102 129.155C233.192 129.145 233.282 129.153 233.368 129.179C233.455 129.204 233.535 129.246 233.605 129.303C233.675 129.359 233.733 129.429 233.776 129.508C233.819 129.587 233.845 129.674 233.855 129.763C233.873 129.942 233.819 130.121 233.705 130.261C233.592 130.4 233.428 130.489 233.248 130.508C230.437 130.812 227.592 130.485 224.923 129.551Z" fill="#4F5A79"/>
<path d="M232.607 140.528C232.459 140.479 232.331 140.38 232.246 140.249C232.161 140.117 232.125 139.96 232.142 139.805L235.329 109.106C235.349 108.928 235.44 108.764 235.58 108.652C235.721 108.54 235.9 108.487 236.079 108.507L280.108 113.095C280.286 113.115 280.449 113.205 280.562 113.344C280.619 113.414 280.663 113.494 280.689 113.58C280.715 113.666 280.724 113.757 280.715 113.847L277.528 144.546C277.519 144.635 277.492 144.721 277.449 144.8C277.406 144.879 277.348 144.949 277.278 145.005C277.208 145.061 277.128 145.103 277.042 145.128C276.956 145.154 276.865 145.161 276.776 145.152L232.762 140.561L232.607 140.528ZM236.633 109.933L233.588 139.281L276.256 143.73L279.307 114.385L236.633 109.933Z" fill="#4F5A79"/>
<path d="M75.387 73.0808L45.6191 84.9629L53.9135 105.713L83.6814 93.8311L75.387 73.0808Z" fill="white"/>
<path d="M78.5329 75.5996C78.5329 75.5996 80.1156 75.3405 82.6153 71.741C86.2894 66.4419 87.6724 64.1405 88.6687 65.2288C89.665 66.3171 86.9139 72.7497 86.9139 72.7497C86.9139 72.7497 89.4724 69.4952 90.4434 70.2287C91.4143 70.9623 88.0215 76.2762 88.0215 76.2762C88.0215 76.2762 91.0896 73.3129 91.9271 74.2296C92.7645 75.1463 90.2202 80.3649 82.3944 83.8629L78.5329 75.5996Z" fill="white"/>
<path d="M48.4807 87.5974C48.4807 87.5974 45.5655 87.7715 43.429 87.8153C40.8194 87.966 36.517 88.267 36.0345 89.6096C35.4112 91.4351 43.1993 92.2083 43.1993 92.2083C43.1993 92.2083 37.886 93.0058 38.1165 94.4217C38.347 95.8375 45.5378 95.5952 45.5378 95.5952C45.5378 95.5952 41.1978 96.3345 40.9724 97.4167C40.7471 98.4989 46.2503 100.273 51.8801 96.5384L48.4807 87.5974Z" fill="white"/>
<path d="M73.1924 69.6511L64.8398 72.9851L67.3831 79.3477L75.7357 76.0137L73.1924 69.6511Z" fill="#62BEFB"/>
<path d="M82.4681 84.3454C82.4052 84.3634 82.3394 84.3689 82.2744 84.3616C82.2094 84.3542 82.1465 84.3342 82.0893 84.3025C81.9737 84.2386 81.8882 84.1315 81.8518 84.0046C81.8153 83.8778 81.8308 83.7416 81.8948 83.6261C81.9588 83.5107 82.0661 83.4253 82.1931 83.3888C88.3881 80.6196 90.9717 76.8738 91.4726 75.2747C91.5792 75.0404 91.6084 74.7782 91.5559 74.5262C91.2687 74.3628 89.7835 75.2751 88.3633 76.6112C88.2768 76.6967 88.1616 76.7472 88.0401 76.7531C87.9185 76.7589 87.7991 76.7196 87.7048 76.6429C87.6105 76.5661 87.5479 76.4572 87.5291 76.3371C87.5103 76.217 87.5366 76.0941 87.6029 75.9922C89.1152 73.6177 90.2682 71.1347 90.1161 70.5888C89.8239 70.4959 88.5494 71.4529 87.2991 73.0387C87.221 73.1296 87.1126 73.189 86.9939 73.2058C86.8753 73.2226 86.7545 73.1957 86.6543 73.1301C86.5524 73.0692 86.4759 72.9736 86.4389 72.8609C86.4019 72.7482 86.4068 72.6259 86.4528 72.5165C87.8525 69.2421 88.7149 65.974 88.2969 65.5206C88.1965 65.4103 88.147 65.4124 88.1275 65.4151C87.5135 65.4424 85.9931 67.6538 84.0749 70.4343L83.0082 71.9791C80.468 75.6442 78.7867 76.0168 78.6011 76.0431C78.4722 76.0659 78.3395 76.0367 78.2322 75.9619C78.1248 75.887 78.0517 75.7726 78.0288 75.6438C78.006 75.515 78.0352 75.3824 78.1102 75.2752C78.1852 75.1679 78.2997 75.0948 78.4286 75.072C78.4824 75.0644 79.9278 74.6804 82.1961 71.4172L83.2586 69.878C85.8003 66.1879 86.9823 64.5072 88.0527 64.4302C88.2361 64.4203 88.4191 64.4536 88.5872 64.5275C88.7552 64.6014 88.9034 64.7139 89.0199 64.8557C89.7856 65.6879 89.0893 68.3003 88.3225 70.4846C89.1676 69.7675 90.0871 69.2938 90.7451 69.7879C91.5265 70.3791 90.8647 72.215 89.8205 74.1648C90.3238 73.7908 90.9218 73.5647 91.5468 73.5121C91.6884 73.5135 91.8281 73.5441 91.9572 73.602C92.0863 73.66 92.202 73.744 92.2971 73.8488C92.4363 74.0426 92.5265 74.2672 92.56 74.5034C92.5934 74.7397 92.5692 74.9805 92.4893 75.2053C92.0428 77.2596 89.0436 81.3779 82.5812 84.2646C82.5475 84.2967 82.5094 84.3239 82.4681 84.3454Z" fill="#4F5A79"/>
<path d="M46.4542 99.1438C43.9092 99.5044 41.9089 98.9615 41.0982 98.4094C40.4479 97.9689 40.4324 97.5082 40.4844 97.2768C40.5911 96.7639 41.1895 96.3456 41.9644 96.0119C39.7927 95.8766 37.7873 95.4738 37.624 94.4616C37.6013 94.3151 37.6092 94.1655 37.6472 94.0222C37.6852 93.8789 37.7525 93.745 37.8448 93.6289C38.2642 93.0717 39.3295 92.6072 40.3981 92.2716C38.5057 91.9275 36.2794 91.337 35.6931 90.3996C35.5949 90.2593 35.5312 90.0978 35.5072 89.9282C35.4831 89.7586 35.4995 89.5858 35.5549 89.4237C36.0409 88.0009 39.0354 87.5418 43.3886 87.3183C45.5174 87.2905 48.411 87.1045 48.4403 87.1004C48.5052 87.0967 48.5702 87.1059 48.6316 87.1274C48.6929 87.1488 48.7495 87.1821 48.7979 87.2254C48.8464 87.2687 48.8859 87.3211 48.9141 87.3796C48.9422 87.4381 48.9586 87.5017 48.9622 87.5665C48.9659 87.6314 48.9567 87.6963 48.9352 87.7576C48.9137 87.8189 48.8803 87.8754 48.837 87.9238C48.7936 87.9723 48.7412 88.0117 48.6826 88.0399C48.624 88.0681 48.5604 88.0844 48.4955 88.0881C48.4955 88.0881 45.53 88.2593 43.4243 88.3088C37.9867 88.6162 36.6588 89.2673 36.4935 89.7885C36.4984 89.8226 36.4732 89.8561 36.5129 89.9251C37.0553 90.7641 40.7703 91.4872 43.2468 91.7336C43.3671 91.745 43.479 91.8001 43.5614 91.8884C43.6437 91.9768 43.6906 92.0922 43.6934 92.2129C43.6959 92.334 43.6537 92.4517 43.5748 92.5437C43.4959 92.6356 43.3859 92.6954 43.2658 92.7115C41.6245 92.9441 39.1112 93.5988 38.6352 94.2486C38.6142 94.2765 38.5898 94.3148 38.5932 94.3392C38.864 94.8434 42.0994 95.2063 45.5127 95.101C45.6346 95.0973 45.7536 95.1388 45.8467 95.2175C45.9397 95.2963 46.0003 95.4066 46.0166 95.5274C46.035 95.6568 46.0011 95.7882 45.9224 95.8927C45.8438 95.9972 45.7268 96.0662 45.5973 96.0846C43.6516 96.4199 41.7063 97.0738 41.4504 97.4834C41.7564 97.7528 42.1258 97.9402 42.5241 98.0282C44.5042 98.6038 48.0661 98.4575 51.564 96.1352C51.618 96.0988 51.6787 96.0735 51.7425 96.0607C51.8064 96.0479 51.8721 96.0478 51.936 96.0605C51.9999 96.0732 52.0606 96.0984 52.1147 96.1347C52.1687 96.1709 52.2151 96.2175 52.251 96.2718C52.3229 96.3805 52.3488 96.5132 52.323 96.6409C52.2972 96.7686 52.2218 96.8809 52.1134 96.9533C50.4136 98.0951 48.4802 98.8434 46.4542 99.1438Z" fill="#4F5A79"/>
<path d="M55.0773 103.592C54.9655 103.611 54.8506 103.59 54.7519 103.535C54.6533 103.479 54.5769 103.391 54.5356 103.285L46.2391 82.5342C46.192 82.4129 46.1948 82.2778 46.247 82.1585C46.2992 82.0392 46.3965 81.9453 46.5177 81.8974L76.2853 70.0096C76.4062 69.9625 76.5408 69.9649 76.6599 70.0162C76.7203 70.0414 76.775 70.0783 76.8209 70.1248C76.8669 70.1712 76.9031 70.2264 76.9275 70.287L85.224 91.0379C85.2481 91.0982 85.2601 91.1627 85.2591 91.2277C85.2582 91.2926 85.2445 91.3568 85.2186 91.4164C85.1928 91.476 85.1555 91.53 85.1087 91.5751C85.0619 91.6203 85.0067 91.6558 84.9462 91.6795L55.1876 103.561L55.0773 103.592ZM47.3532 82.6253L55.286 102.462L84.1343 90.9434L76.2064 71.1059L47.3532 82.6253Z" fill="#4F5A79"/>
<path d="M276.056 43.6775C278.524 40.3609 294.164 28.0534 298.418 30.7554C304.997 34.9164 292.542 43.4276 289.519 44.1842C292.9 42.286 297.708 41.7389 297.633 46.1498C297.572 50.7635 290.932 52.3373 287.294 52.9048C296.207 51.6686 294.009 56.6875 287.206 58.5181C281.384 60.0853 277.219 60.1393 271.396 58.5181L276.056 43.6775Z" fill="white"/>
<path d="M210.044 23.2643C209.652 19.1438 202.64 0.547526 197.622 0.64885C189.832 0.810968 196.08 14.537 198.298 16.7458C196.371 13.3684 192.564 10.4097 190.326 14.2195C187.993 18.2049 192.855 23.0009 195.668 25.3651C188.683 19.691 187.959 25.1219 192.835 30.2084C197 34.5586 200.536 36.7607 206.359 38.4021L210.044 23.2643Z" fill="white"/>
<path d="M215.748 13.7816L203.955 56.0017L270.169 74.457L281.962 32.237L215.748 13.7816Z" fill="#62BEFB"/>
<path d="M237.152 55.1541C237.092 55.1639 237.03 55.1639 236.97 55.1541C236.798 55.1059 236.652 54.9918 236.564 54.8366L213.073 13.1925C212.985 13.0362 212.963 12.8516 213.012 12.6791L213.478 11.0107C213.495 10.9183 213.531 10.8305 213.583 10.7527C213.636 10.6749 213.704 10.6089 213.784 10.559C213.863 10.509 213.952 10.4762 214.045 10.4625C214.138 10.4489 214.233 10.4547 214.324 10.4797C214.414 10.5046 214.499 10.5482 214.571 10.6076C214.644 10.6669 214.704 10.7408 214.746 10.8244C214.789 10.9081 214.814 10.9997 214.819 11.0934C214.824 11.1871 214.81 11.2809 214.777 11.3687L214.384 12.7737L237.375 53.5667L278.205 30.6L278.597 29.2017C278.62 29.1161 278.661 29.0359 278.715 28.9658C278.77 28.8956 278.837 28.8369 278.915 28.793C278.992 28.7491 279.077 28.7208 279.165 28.7098C279.253 28.6988 279.343 28.7053 279.429 28.7288C279.514 28.7523 279.595 28.7924 279.665 28.8469C279.735 28.9013 279.794 28.9691 279.838 29.0462C279.882 29.1234 279.91 29.2085 279.921 29.2966C279.932 29.3847 279.926 29.4741 279.902 29.5597L279.435 31.2349C279.387 31.4066 279.273 31.5523 279.118 31.6402L237.484 55.0731C237.381 55.1266 237.268 55.1544 237.152 55.1541Z" fill="#4F5A79"/>
<path d="M268.143 71.9605C268.082 71.9703 268.021 71.9703 267.96 71.9605L201.753 53.5128C201.666 53.4889 201.584 53.448 201.514 53.3923C201.443 53.3366 201.384 53.2673 201.34 53.1885C201.253 53.0323 201.231 52.8476 201.279 52.6752L213.072 10.4636C213.096 10.378 213.136 10.2978 213.19 10.2277C213.245 10.1576 213.313 10.0989 213.39 10.055C213.467 10.011 213.552 9.98278 213.641 9.97177C213.729 9.96076 213.818 9.96722 213.904 9.9908L280.118 28.4453C280.29 28.4941 280.436 28.6088 280.523 28.7645C280.611 28.9202 280.633 29.1041 280.585 29.2761L268.792 71.4944C268.747 71.6309 268.66 71.7497 268.544 71.8335C268.427 71.9173 268.286 71.9618 268.143 71.9605ZM202.767 52.3712L267.683 70.4609L279.111 29.5395L214.195 11.4566L202.767 52.3712Z" fill="#4F5A79"/>
<path d="M279.198 60.4163C276.494 60.3823 273.807 59.9777 271.212 59.2139C271.127 59.1904 271.046 59.1503 270.976 59.0959C270.906 59.0414 270.847 58.9736 270.803 58.8965C270.759 58.8193 270.731 58.7342 270.72 58.6461C270.709 58.558 270.716 58.4686 270.739 58.383C270.763 58.2974 270.803 58.2172 270.857 58.1471C270.912 58.077 270.98 58.0183 271.057 57.9743C271.134 57.9304 271.219 57.9022 271.307 57.8911C271.396 57.8801 271.485 57.8866 271.571 57.9102C277.183 59.4503 281.227 59.4435 287.029 57.9102C290.89 56.8699 292.641 54.965 292.486 54.2355C292.384 53.7154 290.937 53.1209 287.387 53.614C287.208 53.6409 287.025 53.5955 286.879 53.4878C286.734 53.3802 286.637 53.219 286.61 53.0399C286.583 52.8607 286.628 52.6782 286.736 52.5326C286.844 52.3869 287.005 52.2899 287.184 52.2631C291.614 51.547 296.908 49.9056 296.956 46.1431C296.956 45.0015 296.645 44.245 295.941 43.8329C295.049 43.2993 293.514 43.3466 291.884 43.887C291.194 44.2872 290.462 44.6089 289.7 44.8462C289.541 44.8872 289.372 44.869 289.226 44.795C289.079 44.7211 288.965 44.5964 288.903 44.4442C288.842 44.292 288.838 44.1227 288.893 43.968C288.947 43.8133 289.056 43.6836 289.2 43.6033C289.883 43.2243 290.598 42.9056 291.336 42.6508C294.379 40.9418 299.126 37.2063 299.606 34.2139C299.796 33.0453 299.289 32.1064 298.071 31.3296C294.386 28.9991 279.226 40.5906 276.622 44.0828C276.572 44.1616 276.507 44.2293 276.43 44.2816C276.353 44.3339 276.266 44.3698 276.174 44.3868C276.082 44.4039 275.988 44.4019 275.897 44.3809C275.807 44.3599 275.721 44.3204 275.646 44.2648C275.572 44.2093 275.509 44.1389 275.463 44.058C275.417 43.9772 275.388 43.8877 275.378 43.7951C275.368 43.7026 275.377 43.6089 275.405 43.5201C275.433 43.4313 275.479 43.3492 275.54 43.279C277.569 40.523 293.879 27.0672 298.795 30.188C300.918 31.539 301.135 33.2412 300.945 34.4301C300.506 37.132 297.564 40.0502 294.69 42.1104C295.385 42.1329 296.063 42.3254 296.665 42.6711C297.443 43.1372 298.362 44.1166 298.335 46.1634C298.308 48.2101 297.125 50.7229 292.303 52.4117C292.675 52.5053 293.014 52.6971 293.285 52.9669C293.556 53.2367 293.75 53.5746 293.845 53.945C294.231 55.8432 291.465 58.0993 287.408 59.1936C284.739 59.9674 281.977 60.3787 279.198 60.4163Z" fill="#4F5A79"/>
<path d="M206.324 39.0772C206.264 39.0871 206.202 39.0871 206.142 39.0772C200.272 37.4223 196.675 35.2337 192.32 30.7079C189.412 27.6749 188.215 24.311 189.534 22.8857C189.806 22.6177 190.146 22.4285 190.518 22.3381C190.889 22.2477 191.278 22.2595 191.644 22.3723C188.391 18.4342 188.689 15.6579 189.716 13.9016C190.744 12.1454 192.029 11.7806 192.935 11.7806C193.63 11.7988 194.309 11.9841 194.917 12.321C193.564 9.07862 192.509 5.06619 193.564 2.51958C194.017 1.39827 195.086 0.0540394 197.621 0H197.662C203.464 0 210.395 19.8189 210.726 23.2234C210.743 23.4017 210.689 23.5793 210.574 23.7174C210.46 23.8555 210.296 23.9426 210.118 23.9597C209.939 23.9766 209.761 23.9221 209.623 23.8081C209.485 23.6941 209.398 23.53 209.381 23.3518C208.961 19.0286 202.037 1.35098 197.675 1.35098C196.228 1.35098 195.309 1.93191 194.862 3.0262C193.726 5.83625 195.85 11.4766 197.567 14.5096C198.074 15.1079 198.526 15.7499 198.92 16.428C199.002 16.5704 199.029 16.7379 198.997 16.899C198.964 17.0602 198.874 17.2039 198.743 17.3034C198.612 17.4028 198.449 17.4511 198.285 17.4391C198.121 17.4272 197.967 17.3559 197.851 17.2386C197.325 16.643 196.872 15.9878 196.499 15.2864C195.363 13.9354 194.071 13.1316 193.03 13.1248C192.225 13.1248 191.556 13.6044 191.001 14.5839C189.101 17.8262 192.78 21.967 196.201 24.8649C196.269 24.9221 196.325 24.9921 196.366 25.0709C196.407 25.1497 196.432 25.2358 196.44 25.3243C196.447 25.4128 196.437 25.5018 196.41 25.5864C196.383 25.671 196.34 25.7495 196.282 25.8173C196.168 25.9535 196.004 26.039 195.827 26.0555C195.65 26.0719 195.473 26.0179 195.336 25.9051C192.55 23.649 191.008 23.4058 190.65 23.7976C190.142 24.3447 190.65 26.8778 193.415 29.7622C197.567 34.0921 201.023 36.1929 206.628 37.7735C206.8 37.8223 206.946 37.9371 207.033 38.0928C207.121 38.2485 207.143 38.4324 207.095 38.6044C207.048 38.7644 206.943 38.9012 206.8 38.9885C206.658 39.0758 206.488 39.1074 206.324 39.0772Z" fill="#4F5A79"/>
<path d="M306.307 298.46C304.677 296.002 303.767 292.794 302.286 290.147C301.395 288.574 296.571 282.063 294.063 284.211C293.056 285.082 293.83 288.474 294.16 289.522C294.968 292.032 296.901 293.569 298.226 295.719C296.479 295.5 293.669 294.545 293.066 296.705C292.464 298.866 295.86 302.621 297.988 302.924C292.693 301.604 293.004 305.781 296.073 308.648C298.989 311.36 303.353 311.837 306.59 313.456L306.307 298.46Z" fill="white"/>
<path d="M367.578 287.486L308.992 290.86L311.179 328.236L369.765 324.861L367.578 287.486Z" fill="#FFEA80"/>
<path d="M364.268 291.995C365.068 288.851 372.779 276.427 377.781 278.342C381.491 279.761 373.437 289.539 371.554 291.061C373.298 289.823 376.664 288.061 378.428 290.107C380.815 292.878 376.218 295.481 374.205 296.826C376.557 296.671 378.917 296.337 380.042 298.548C381.349 301.109 379.468 303.462 377.356 304.963C373.873 307.429 368.537 308.17 364.284 308.419L364.268 291.995Z" fill="white"/>
<path d="M336.8 316.811C336.716 316.84 336.628 316.854 336.54 316.855C336.269 316.869 336.004 316.776 335.802 316.595L305.292 289.447C305.09 289.268 304.968 289.016 304.952 288.747L304.866 287.272C304.857 287.138 304.875 287.003 304.918 286.876C304.961 286.748 305.029 286.631 305.117 286.529C305.296 286.325 305.549 286.2 305.821 286.182C306.092 286.164 306.359 286.255 306.564 286.434C306.769 286.613 306.894 286.866 306.912 287.137L306.972 288.201L336.404 314.389L362.585 284.998L362.525 283.934C362.516 283.8 362.534 283.665 362.577 283.538C362.62 283.41 362.688 283.293 362.777 283.192C362.865 283.09 362.973 283.008 363.094 282.948C363.214 282.888 363.346 282.853 363.48 282.844C363.614 282.836 363.749 282.853 363.877 282.896C364.004 282.94 364.122 283.007 364.223 283.096C364.325 283.185 364.408 283.293 364.467 283.413C364.527 283.534 364.562 283.665 364.571 283.799L364.653 285.283C364.662 285.417 364.645 285.552 364.602 285.679C364.559 285.806 364.492 285.924 364.404 286.025L337.263 316.493C337.139 316.637 336.979 316.747 336.8 316.811Z" fill="#4F5A79"/>
<path d="M366.485 321.82C366.401 321.848 366.313 321.863 366.225 321.863L307.666 325.249C307.396 325.264 307.131 325.171 306.929 324.991C306.727 324.812 306.604 324.559 306.588 324.289L304.401 286.92C304.392 286.785 304.41 286.65 304.454 286.522C304.498 286.394 304.566 286.277 304.656 286.176C304.746 286.075 304.854 285.992 304.976 285.934C305.098 285.875 305.23 285.841 305.365 285.834L363.924 282.448C364.194 282.433 364.459 282.525 364.661 282.705C364.863 282.885 364.986 283.138 365.002 283.408L367.184 320.786C367.194 320.92 367.176 321.055 367.134 321.182C367.091 321.31 367.023 321.427 366.935 321.528C366.811 321.661 366.657 321.761 366.485 321.82ZM308.529 323.137L365.088 319.885L363.037 284.56L306.479 287.812L308.529 323.137Z" fill="#4F5A79"/>
<path d="M374.072 307.812C371.681 308.464 369.216 308.812 366.737 308.847L366.376 308.864C366.242 308.872 366.107 308.855 365.979 308.812C365.852 308.768 365.734 308.7 365.633 308.612C365.531 308.523 365.448 308.415 365.389 308.295C365.329 308.174 365.294 308.043 365.285 307.909C365.276 307.774 365.293 307.64 365.336 307.512C365.379 307.385 365.447 307.267 365.536 307.166C365.625 307.065 365.732 306.982 365.853 306.922C365.974 306.863 366.105 306.827 366.239 306.819L366.6 306.802C370.547 306.574 373.635 306.381 376.823 304.168C378.186 303.198 380.312 301.249 379.196 299.043C378.489 297.651 377.064 297.681 374.798 297.845L374.342 297.871C374.117 297.889 373.893 297.831 373.704 297.708C373.515 297.585 373.373 297.402 373.298 297.19C373.224 296.977 373.223 296.745 373.295 296.532C373.367 296.318 373.507 296.134 373.695 296.008L374.263 295.639C375.635 294.742 377.939 293.244 378.133 291.918C378.152 291.714 378.125 291.508 378.053 291.315C377.982 291.123 377.869 290.949 377.721 290.807C376.488 289.373 373.586 290.908 372.228 291.914C372.016 292.083 371.745 292.161 371.475 292.13C371.205 292.099 370.959 291.962 370.79 291.75C370.62 291.537 370.543 291.266 370.573 290.997C370.604 290.727 370.74 290.481 370.953 290.312C372.736 288.786 378.123 281.92 377.724 279.644C377.719 279.564 377.687 279.488 377.635 279.428C377.582 279.367 377.511 279.325 377.433 279.309C377.021 279.191 376.589 279.162 376.165 279.226C375.742 279.289 375.337 279.442 374.977 279.675C370.833 281.818 365.912 289.799 365.285 292.266C365.251 292.396 365.192 292.518 365.111 292.625C365.031 292.732 364.929 292.822 364.814 292.89C364.698 292.958 364.57 293.002 364.437 293.021C364.304 293.039 364.169 293.031 364.039 292.997C363.494 292.856 363.506 291.088 363.676 290.671C365.13 287.143 369.789 280.022 374.034 277.86C374.65 277.49 375.339 277.257 376.053 277.177C376.768 277.098 377.492 277.173 378.175 277.398C378.584 277.545 378.946 277.8 379.223 278.135C379.499 278.471 379.68 278.875 379.745 279.304C380.154 281.63 377.733 285.413 375.514 288.248C376.193 288.102 376.898 288.139 377.558 288.354C378.219 288.569 378.81 288.956 379.272 289.474C379.619 289.834 379.882 290.265 380.044 290.737C380.206 291.209 380.263 291.711 380.21 292.207C379.826 293.677 378.917 294.954 377.655 295.799C378.377 295.859 379.07 296.105 379.668 296.514C380.266 296.922 380.748 297.478 381.066 298.129C382.378 300.703 381.251 303.585 378.054 305.839C376.839 306.702 375.495 307.368 374.072 307.812Z" fill="#4F5A79"/>
<path d="M306.871 314.413C306.746 314.457 306.613 314.474 306.481 314.464C306.349 314.455 306.22 314.417 306.103 314.355C304.923 313.806 303.706 313.34 302.462 312.959C299.964 312.134 297.393 311.273 295.351 309.375C293.172 307.342 292.277 304.778 293.158 303.14C293.443 302.626 293.887 302.217 294.423 301.975C293.906 301.484 293.444 300.938 293.047 300.346C292.623 299.801 292.318 299.173 292.15 298.504C291.982 297.835 291.955 297.138 292.071 296.458C292.63 294.458 294.369 294.229 295.938 294.372L295.794 294.2C294.653 292.932 293.764 291.459 293.174 289.859C293.019 289.362 291.669 284.938 293.379 283.468C293.707 283.185 294.097 282.982 294.516 282.874C294.936 282.766 295.376 282.756 295.8 282.846C299.004 283.414 302.629 288.724 303.167 289.67C303.823 290.905 304.414 292.173 304.937 293.47C305.413 294.589 305.875 295.668 306.4 296.664C306.628 297.105 305.754 299.519 305.439 299.047C304.5 297.529 303.703 295.928 303.057 294.265C302.569 293.041 302.015 291.844 301.399 290.68C300.544 289.124 297.397 285.208 295.461 284.862C295.336 284.826 295.203 284.823 295.075 284.851C294.947 284.88 294.829 284.941 294.732 285.028C294.411 285.428 294.612 287.596 295.134 289.249C295.656 290.605 296.428 291.851 297.41 292.922C298.02 293.652 298.583 294.421 299.094 295.224C299.2 295.393 299.254 295.59 299.249 295.79C299.244 295.99 299.181 296.184 299.067 296.348C298.963 296.51 298.815 296.639 298.64 296.72C298.465 296.802 298.271 296.832 298.079 296.808C297.778 296.773 297.434 296.708 297.031 296.624C294.866 296.235 294.177 296.363 294 297.027C293.925 297.835 294.174 298.639 294.692 299.264C295.426 300.408 296.475 301.316 297.713 301.88L298.143 301.977C298.388 302.047 298.599 302.206 298.733 302.422C298.867 302.639 298.916 302.898 298.869 303.149C298.822 303.399 298.683 303.623 298.479 303.776C298.275 303.929 298.021 304 297.767 303.976C297.579 303.95 297.392 303.912 297.209 303.862C296.005 303.625 295.128 303.741 294.895 304.172C294.603 304.768 295.024 306.395 296.687 307.949C298.351 309.502 300.748 310.324 303.049 311.064C304.384 311.475 305.689 311.977 306.955 312.567C307.138 312.657 307.289 312.8 307.39 312.976C307.491 313.153 307.537 313.356 307.522 313.558C307.507 313.761 307.432 313.954 307.306 314.114C307.181 314.274 307.01 314.392 306.817 314.455L306.871 314.413Z" fill="#4F5A79"/>
</svg>
