<?xml version="1.0" encoding="UTF-8" standalone="no"?>
<svg
   width="134.39999"
   height="151.09352"
   viewBox="0 0 134.39999 151.09352"
   fill="none"
   version="1.1"
   id="svg31"
   xmlns="http://www.w3.org/2000/svg"
   xmlns:svg="http://www.w3.org/2000/svg">
  <g
     clip-path="url(#clip0_344_9933)"
     id="g24"
     transform="translate(15,29.99353)">
    <path
       d="m 38.5901,21.49 h -3 v -4.88 c 0.0046,-2.9504 0.7951,-5.8464 2.29,-8.39003 l 2.59,1.51001 C 39.2443,11.816 38.5955,14.1905 38.5901,16.61 Z"
       fill="#30363d"
       id="path2" />
    <path
       d="m 68.8099,21.49 h -3 v -4.88 c 2e-4,-2.4171 -0.6492,-4.7898 -1.88,-6.87001 l 2.5901,-1.53 c 1.4939,2.54771 2.2842,5.44661 2.2899,8.40001 z"
       fill="#30363d"
       id="path4" />
    <path
       d="m 104.41,26.99 v 58.62 c -0.005,1.4571 -0.586,2.853 -1.617,3.8833 -1.03,1.0303 -2.426,1.6114 -3.8831,1.6167 H 91.45 V 21.49 h 7.4599 c 1.4571,0.0053 2.8531,0.5864 3.8831,1.6167 1.031,1.0303 1.612,2.4262 1.617,3.8833 z"
       fill="#d9bfff"
       id="path6" />
    <path
       d="M 91.45,21.49 H 83.04 V 91.1 h 8.41 z"
       fill="#30363d"
       id="path8" />
    <path
       d="M 83.0401,21.49 V 91.1 h -61.67 V 21.49 Z m -9.16,29.88 v -7.55 h -15.26 v 7.55 z m -16.76,19.78 V 59.86 h -14.8 v 11.29 z m -7.39,-22 V 34.01 h -17.9 v 15.11 z"
       fill="#d9bfff"
       id="path10" />
    <path
       d="M 21.36,21.49 H 12.95 V 91.1 h 8.41 z"
       fill="#30363d"
       id="path12" />
    <path
       d="M 12.95,21.49 V 91.1 H 5.5 C 4.04293,91.0947 2.64701,90.5136 1.6167,89.4833 0.586389,88.4529 0.00526974,87.0571 0,85.6 V 26.99 C 0.00526974,25.5329 0.586389,24.137 1.6167,23.1067 2.64701,22.0764 4.04293,21.4953 5.5,21.49 Z"
       fill="#d9bfff"
       id="path14" />
    <path
       d="M 66.52,8.21997 C 65.0576,5.72008 62.9664,3.64658 60.4541,2.20563 57.9418,0.764672 55.0961,0.00646973 52.2,0.00646973 c -2.8962,0 -5.7419,0.75820227 -8.2542,2.19916027 -2.5123,1.44095 -4.6035,3.51445 -6.0659,6.01434 -0.1306,0.2302 -0.1992,0.49034 -0.1992,0.75501 0,0.26466 0.0686,0.5248 0.1992,0.755 0.1313,0.22935 0.3204,0.42022 0.5485,0.55362 0.2281,0.1334 0.4873,0.2045 0.7515,0.2064 h 26.06 c 0.264,-6e-4 0.5233,-0.0708 0.7514,-0.2036 0.2282,-0.1328 0.4173,-0.32353 0.5481,-0.55282 C 66.6703,9.50429 66.7384,9.24451 66.7367,8.9805 66.735,8.71649 66.6637,8.4576 66.5299,8.22998 Z"
       fill="#d9bfff"
       id="path16" />
    <rect
       x="28"
       y="32"
       width="22"
       height="19"
       rx="2"
       fill="#ffffff"
       id="rect18" />
    <rect
       x="40"
       y="58"
       width="19"
       height="15"
       rx="2"
       fill="#ffffff"
       id="rect20" />
    <rect
       x="56"
       y="43.52"
       width="20.4179"
       height="10.3887"
       rx="2"
       transform="rotate(-7.08972,56,43.52)"
       fill="#ffffff"
       id="rect22" />
  </g>
  <defs
     id="defs29">
    <clipPath
       id="clip0_344_9933">
      <rect
         width="104.4"
         height="91.099998"
         fill="#ffffff"
         id="rect26"
         x="0"
         y="0" />
    </clipPath>
  </defs>
</svg>
