<?xml version="1.0" encoding="UTF-8" standalone="no"?>
<svg
   width="141.08701"
   height="180.70869"
   viewBox="0 0 141.08701 180.70869"
   fill="none"
   version="1.1"
   id="svg305"
   xmlns="http://www.w3.org/2000/svg"
   xmlns:svg="http://www.w3.org/2000/svg">
  <g
     clip-path="url(#clip0_344_9730)"
     id="g298"
     transform="translate(15,-12.2913)">
    <path
       d="m 10.032,162.312 c 0,0.724 0.3119,0.435 0.7079,0.435 H 13.26 c 0.396,0 0.72,0.289 0.72,-0.435 V 54.647 c 0,-0.7239 -0.324,-0.4343 -0.72,-0.4343 h -2.5201 c -0.396,0 -0.7079,-0.2896 -0.7079,0.4343 z"
       fill="#cdd5d7"
       id="path2" />
    <path
       d="M 11.784,54.2127 H 10.968 V 162.747 h 0.816 z"
       fill="#b7bec0"
       id="path4" />
    <path
       d="m 10.416,54.1765 c -0.228,0 -0.384,0 -0.384,0.4705 v 107.665 c 0,0.507 0.156,0.519 0.384,0.483 z"
       fill="#b7bec0"
       id="path6" />
    <path
       d="m 12.2279,54.2127 h -0.816 V 162.747 h 0.816 z"
       fill="#e5e8ec"
       id="path8" />
    <path
       d="M 93.948,54.2127 H 14.112 c -0.7224,0 -1.308,0.5888 -1.308,1.3152 V 161.685 c 0,0.726 0.5856,1.315 1.308,1.315 h 79.836 c 0.7223,0 1.308,-0.589 1.308,-1.315 V 55.5279 c 0,-0.7264 -0.5857,-1.3152 -1.308,-1.3152 z"
       fill="#282d33"
       id="path10" />
    <path
       d="m 14.1239,54.2126 h 79.824 c 0.1758,-0.0016 0.3502,0.0324 0.5127,0.1 0.1625,0.0676 0.3098,0.1675 0.433,0.2936 0.1232,0.1262 0.2199,0.276 0.2842,0.4406 0.0643,0.1645 0.0949,0.3405 0.0901,0.5172 v 106.181 c -0.0273,0.332 -0.1787,0.641 -0.4237,0.865 -0.2449,0.224 -0.5653,0.346 -0.8963,0.342 h -79.824 c -0.1722,0.001 -0.343,-0.032 -0.5025,-0.097 -0.1594,-0.066 -0.3042,-0.162 -0.4259,-0.285 -0.1218,-0.122 -0.2181,-0.268 -0.2833,-0.428 -0.0651,-0.161 -0.0979,-0.332 -0.0963,-0.506 V 55.564 c -0.0048,-0.1757 0.0254,-0.3506 0.089,-0.5144 0.0636,-0.1637 0.1592,-0.3131 0.2811,-0.439 0.122,-0.126 0.2678,-0.2261 0.4289,-0.2945 0.1611,-0.0683 0.3341,-0.1035 0.509,-0.1035 z m 0.9,105.8554 c 0.2202,-0.002 0.4348,-0.07 0.6168,-0.195 0.1819,-0.125 0.323,-0.301 0.4056,-0.506 0.0827,-0.205 0.1031,-0.431 0.0587,-0.647 -0.0444,-0.217 -0.1516,-0.416 -0.3082,-0.572 -0.1565,-0.156 -0.3554,-0.261 -0.5716,-0.304 -0.2161,-0.042 -0.4399,-0.019 -0.6431,0.066 -0.2032,0.086 -0.3768,0.229 -0.4989,0.414 -0.1221,0.184 -0.1873,0.4 -0.1873,0.622 0,0.148 0.0293,0.295 0.0861,0.432 0.0568,0.137 0.1401,0.261 0.245,0.366 0.1049,0.104 0.2294,0.186 0.3661,0.242 0.1368,0.056 0.2832,0.084 0.4308,0.082 z m 0,-4.537 c 0.2236,0 0.4421,-0.067 0.6279,-0.192 0.1857,-0.125 0.3303,-0.303 0.4153,-0.511 0.0851,-0.208 0.1067,-0.437 0.0622,-0.657 -0.0446,-0.22 -0.1532,-0.422 -0.3121,-0.58 -0.159,-0.159 -0.3611,-0.266 -0.5807,-0.308 -0.2196,-0.042 -0.4468,-0.018 -0.6527,0.07 -0.2058,0.087 -0.3811,0.235 -0.5036,0.423 -0.1225,0.188 -0.1867,0.408 -0.1843,0.633 0,0.148 0.0293,0.295 0.0861,0.432 0.0568,0.137 0.1401,0.261 0.245,0.366 0.1049,0.104 0.2294,0.187 0.3661,0.242 0.1368,0.056 0.2832,0.084 0.4308,0.082 z m 0,-4.549 c 0.2202,-0.002 0.4348,-0.07 0.6168,-0.195 0.1819,-0.124 0.323,-0.301 0.4056,-0.506 0.0827,-0.205 0.1031,-0.43 0.0587,-0.647 -0.0444,-0.217 -0.1516,-0.416 -0.3082,-0.572 -0.1565,-0.155 -0.3554,-0.261 -0.5716,-0.303 -0.2161,-0.043 -0.4399,-0.02 -0.6431,0.066 -0.2032,0.085 -0.3768,0.229 -0.4989,0.413 -0.1221,0.184 -0.1873,0.401 -0.1873,0.622 0,0.148 0.0293,0.295 0.0861,0.432 0.0568,0.137 0.1401,0.261 0.245,0.366 0.1049,0.104 0.2294,0.187 0.3661,0.242 0.1368,0.056 0.2832,0.084 0.4308,0.082 z m 0,-4.537 c 0.2231,0 0.4412,-0.066 0.6267,-0.191 0.1855,-0.124 0.3301,-0.301 0.4154,-0.509 0.0854,-0.207 0.1077,-0.435 0.0642,-0.655 -0.0435,-0.22 -0.151,-0.422 -0.3087,-0.581 -0.1578,-0.158 -0.3587,-0.266 -0.5775,-0.31 -0.2188,-0.044 -0.4456,-0.022 -0.6517,0.064 -0.2061,0.086 -0.3823,0.232 -0.5063,0.418 -0.1239,0.187 -0.1901,0.406 -0.1901,0.63 0,0.149 0.0292,0.297 0.0859,0.434 0.0567,0.138 0.1397,0.263 0.2445,0.368 0.1047,0.106 0.2291,0.189 0.366,0.246 0.1368,0.057 0.2835,0.086 0.4316,0.086 z m 0,-4.549 c 0.2202,-0.002 0.4348,-0.07 0.6168,-0.194 0.1819,-0.125 0.323,-0.301 0.4056,-0.507 0.0827,-0.205 0.1031,-0.43 0.0587,-0.647 -0.0444,-0.217 -0.1516,-0.416 -0.3082,-0.571 -0.1565,-0.156 -0.3554,-0.262 -0.5716,-0.304 -0.2161,-0.042 -0.4399,-0.019 -0.6431,0.066 -0.2032,0.085 -0.3768,0.229 -0.4989,0.413 -0.1221,0.184 -0.1873,0.401 -0.1873,0.622 0,0.149 0.0293,0.296 0.0861,0.433 0.0568,0.137 0.1401,0.261 0.245,0.365 0.1049,0.105 0.2294,0.187 0.3661,0.243 0.1368,0.055 0.2832,0.083 0.4308,0.081 z m 0,-4.548 c 0.2202,-0.003 0.4348,-0.071 0.6168,-0.195 0.1819,-0.125 0.323,-0.301 0.4056,-0.506 0.0827,-0.206 0.1031,-0.431 0.0587,-0.648 -0.0444,-0.217 -0.1516,-0.415 -0.3082,-0.571 -0.1565,-0.156 -0.3554,-0.262 -0.5716,-0.304 -0.2161,-0.042 -0.4399,-0.019 -0.6431,0.066 -0.2032,0.085 -0.3768,0.229 -0.4989,0.413 -0.1221,0.185 -0.1873,0.401 -0.1873,0.622 0,0.149 0.0293,0.296 0.0861,0.433 0.0568,0.137 0.1401,0.261 0.245,0.365 0.1049,0.105 0.2294,0.187 0.3661,0.243 0.1368,0.055 0.2832,0.083 0.4308,0.082 z m 0,-4.537 c 0.2236,0 0.4421,-0.067 0.6279,-0.192 0.1857,-0.125 0.3303,-0.303 0.4153,-0.511 0.0851,-0.208 0.1067,-0.437 0.0622,-0.657 -0.0446,-0.221 -0.1532,-0.423 -0.3121,-0.581 -0.159,-0.158 -0.3611,-0.265 -0.5807,-0.307 -0.2196,-0.043 -0.4468,-0.018 -0.6527,0.069 -0.2058,0.088 -0.3811,0.235 -0.5036,0.423 -0.1225,0.188 -0.1867,0.409 -0.1843,0.634 0.0063,0.295 0.1283,0.576 0.3395,0.782 0.2112,0.205 0.4945,0.319 0.7885,0.316 z m 0,-4.549 c 0.2202,-0.003 0.4348,-0.07 0.6168,-0.195 0.1819,-0.125 0.323,-0.301 0.4056,-0.506 0.0827,-0.205 0.1031,-0.431 0.0587,-0.647 -0.0444,-0.217 -0.1516,-0.416 -0.3082,-0.572 -0.1565,-0.156 -0.3554,-0.261 -0.5716,-0.304 -0.2161,-0.042 -0.4399,-0.019 -0.6431,0.066 -0.2032,0.085 -0.3768,0.229 -0.4989,0.414 -0.1221,0.184 -0.1873,0.4 -0.1873,0.622 0,0.148 0.0293,0.295 0.0861,0.432 0.0568,0.137 0.1401,0.261 0.245,0.365 0.1049,0.105 0.2294,0.187 0.3661,0.243 0.1368,0.056 0.2832,0.083 0.4308,0.082 z m 0,-4.537 c 0.2231,0 0.4412,-0.066 0.6267,-0.191 0.1855,-0.125 0.3301,-0.302 0.4154,-0.509 0.0854,-0.207 0.1077,-0.435 0.0642,-0.655 -0.0435,-0.22 -0.151,-0.423 -0.3087,-0.581 -0.1578,-0.159 -0.3587,-0.267 -0.5775,-0.311 -0.2188,-0.043 -0.4456,-0.021 -0.6517,0.065 -0.2061,0.086 -0.3823,0.231 -0.5063,0.418 -0.1239,0.186 -0.1901,0.406 -0.1901,0.63 0,0.301 0.1188,0.589 0.3304,0.802 0.2115,0.213 0.4984,0.332 0.7976,0.332 z m 0,-4.549 c 0.2202,-0.002 0.4348,-0.07 0.6168,-0.195 0.1819,-0.125 0.323,-0.301 0.4056,-0.506 0.0827,-0.205 0.1031,-0.43 0.0587,-0.647 -0.0444,-0.217 -0.1516,-0.416 -0.3082,-0.572 -0.1565,-0.155 -0.3554,-0.261 -0.5716,-0.303 -0.2161,-0.043 -0.4399,-0.02 -0.6431,0.065 -0.2032,0.086 -0.3768,0.23 -0.4989,0.414 -0.1221,0.184 -0.1873,0.401 -0.1873,0.622 0,0.148 0.0293,0.295 0.0861,0.432 0.0568,0.137 0.1401,0.261 0.245,0.366 0.1049,0.104 0.2294,0.187 0.3661,0.242 0.1368,0.056 0.2832,0.084 0.4308,0.082 z m 0,-4.537 c 0.2231,0 0.4412,-0.066 0.6267,-0.191 0.1855,-0.124 0.3301,-0.302 0.4154,-0.509 0.0854,-0.207 0.1077,-0.435 0.0642,-0.655 -0.0435,-0.22 -0.151,-0.422 -0.3087,-0.581 -0.1578,-0.158 -0.3587,-0.267 -0.5775,-0.31 -0.2188,-0.044 -0.4456,-0.022 -0.6517,0.064 -0.2061,0.086 -0.3823,0.231 -0.5063,0.418 -0.1239,0.186 -0.1901,0.406 -0.1901,0.63 -0.0065,0.153 0.0179,0.306 0.0717,0.449 0.0538,0.143 0.1358,0.274 0.2412,0.385 0.1054,0.11 0.232,0.198 0.372,0.258 0.1401,0.06 0.2908,0.091 0.4431,0.091 z m 0,-4.549 c 0.2202,-0.002 0.4348,-0.07 0.6168,-0.195 0.1819,-0.124 0.323,-0.3 0.4056,-0.506 0.0827,-0.205 0.1031,-0.43 0.0587,-0.647 -0.0444,-0.217 -0.1516,-0.416 -0.3082,-0.571 -0.1565,-0.156 -0.3554,-0.262 -0.5716,-0.304 -0.2161,-0.042 -0.4399,-0.019 -0.6431,0.066 -0.2032,0.085 -0.3768,0.229 -0.4989,0.413 -0.1221,0.184 -0.1873,0.401 -0.1873,0.622 0,0.149 0.0293,0.296 0.0861,0.433 0.0568,0.136 0.1401,0.261 0.245,0.365 0.1049,0.104 0.2294,0.187 0.3661,0.242 0.1368,0.056 0.2832,0.084 0.4308,0.082 z m 0,-4.548 c 0.2202,-0.003 0.4348,-0.071 0.6168,-0.195 0.1819,-0.125 0.323,-0.301 0.4056,-0.506 0.0827,-0.206 0.1031,-0.431 0.0587,-0.648 -0.0444,-0.217 -0.1516,-0.416 -0.3082,-0.571 -0.1565,-0.156 -0.3554,-0.262 -0.5716,-0.304 -0.2161,-0.042 -0.4399,-0.019 -0.6431,0.066 -0.2032,0.085 -0.3768,0.229 -0.4989,0.413 -0.1221,0.184 -0.1873,0.401 -0.1873,0.622 0,0.149 0.0293,0.296 0.0861,0.433 0.0568,0.137 0.1401,0.261 0.245,0.365 0.1049,0.105 0.2294,0.187 0.3661,0.243 0.1368,0.055 0.2832,0.083 0.4308,0.082 z m 0,-4.537 c 0.2202,-0.003 0.4348,-0.071 0.6168,-0.195 0.1819,-0.125 0.323,-0.301 0.4056,-0.506 0.0827,-0.206 0.1031,-0.4307 0.0587,-0.6476 -0.0444,-0.2169 -0.1516,-0.4158 -0.3082,-0.5715 -0.1565,-0.1557 -0.3554,-0.2614 -0.5716,-0.3037 -0.2161,-0.0423 -0.4399,-0.0195 -0.6431,0.0658 -0.2032,0.0853 -0.3768,0.2291 -0.4989,0.4134 -0.1221,0.1843 -0.1873,0.4007 -0.1873,0.6221 0,0.1485 0.0293,0.2955 0.0861,0.4325 0.0568,0.137 0.1401,0.261 0.245,0.365 0.1049,0.105 0.2294,0.187 0.3661,0.243 0.1368,0.055 0.2832,0.083 0.4308,0.082 z m 0,-4.5492 c 0.2202,-0.0023 0.4348,-0.0702 0.6168,-0.1949 0.1819,-0.1247 0.323,-0.3009 0.4056,-0.5061 0.0827,-0.2052 0.1031,-0.4305 0.0587,-0.6473 -0.0444,-0.2169 -0.1516,-0.4157 -0.3082,-0.5715 -0.1565,-0.1557 -0.3554,-0.2614 -0.5716,-0.3037 -0.2161,-0.0424 -0.4399,-0.0194 -0.6431,0.0659 -0.2032,0.0853 -0.3768,0.2291 -0.4989,0.4133 -0.1221,0.1843 -0.1873,0.4008 -0.1873,0.6222 0,0.1484 0.0293,0.2953 0.0861,0.4322 0.0568,0.137 0.1401,0.2612 0.245,0.3655 0.1049,0.1044 0.2294,0.1868 0.3661,0.2425 0.1368,0.0556 0.2832,0.0835 0.4308,0.0819 z m 0,-4.5368 c 0.2236,0 0.4421,-0.0668 0.6279,-0.192 0.1857,-0.1252 0.3303,-0.3031 0.4153,-0.511 0.0851,-0.208 0.1067,-0.4366 0.0622,-0.6569 -0.0446,-0.2204 -0.1532,-0.4225 -0.3121,-0.5806 -0.159,-0.1581 -0.3611,-0.2652 -0.5807,-0.3076 -0.2196,-0.0424 -0.4468,-0.0182 -0.6527,0.0695 -0.2058,0.0877 -0.3811,0.2349 -0.5036,0.423 -0.1225,0.1881 -0.1867,0.4086 -0.1843,0.6335 0,0.1483 0.0293,0.2952 0.0861,0.4322 0.0568,0.1369 0.1401,0.2611 0.245,0.3655 0.1049,0.1043 0.2294,0.1867 0.3661,0.2424 0.1368,0.0557 0.2832,0.0836 0.4308,0.082 z m 0,-4.5489 c 0.2202,-0.0024 0.4348,-0.0702 0.6168,-0.195 0.1819,-0.1247 0.323,-0.3008 0.4056,-0.5061 0.0827,-0.2052 0.1031,-0.4304 0.0587,-0.6473 -0.0444,-0.2169 -0.1516,-0.4157 -0.3082,-0.5714 -0.1565,-0.1557 -0.3554,-0.2614 -0.5716,-0.3037 -0.2161,-0.0423 -0.4399,-0.0195 -0.6431,0.0658 -0.2032,0.0853 -0.3768,0.2291 -0.4989,0.4134 -0.1221,0.1843 -0.1873,0.4007 -0.1873,0.6221 0,0.1484 0.0293,0.2953 0.0861,0.4323 0.0568,0.1369 0.1401,0.2612 0.245,0.3655 0.1049,0.1044 0.2294,0.1868 0.3661,0.2425 0.1368,0.0557 0.2832,0.0835 0.4308,0.0819 z m 0,-4.5489 c 0.2202,-0.0023 0.4348,-0.0702 0.6168,-0.195 0.1819,-0.1247 0.323,-0.3008 0.4056,-0.506 0.0827,-0.2052 0.1031,-0.4305 0.0587,-0.6473 -0.0444,-0.2169 -0.1516,-0.4157 -0.3082,-0.5715 -0.1565,-0.1557 -0.3554,-0.2614 -0.5716,-0.3037 -0.2161,-0.0424 -0.4399,-0.0194 -0.6431,0.0659 -0.2032,0.0852 -0.3768,0.229 -0.4989,0.4133 -0.1221,0.1842 -0.1873,0.4007 -0.1873,0.6221 0,0.1484 0.0293,0.2954 0.0861,0.4323 0.0568,0.137 0.1401,0.2612 0.245,0.3655 0.1049,0.1044 0.2294,0.1868 0.3661,0.2425 0.1368,0.0556 0.2832,0.0835 0.4308,0.0819 z m 0,-4.5368 c 0.2202,-0.0024 0.4348,-0.0702 0.6168,-0.1949 0.1819,-0.1248 0.323,-0.3009 0.4056,-0.5061 0.0827,-0.2053 0.1031,-0.4305 0.0587,-0.6474 -0.0444,-0.2168 -0.1516,-0.4157 -0.3082,-0.5714 -0.1565,-0.1557 -0.3554,-0.2614 -0.5716,-0.3038 -0.2161,-0.0423 -0.4399,-0.0193 -0.6431,0.0659 -0.2032,0.0853 -0.3768,0.2291 -0.4989,0.4134 -0.1221,0.1843 -0.1873,0.4007 -0.1873,0.6222 0,0.1483 0.0293,0.2952 0.0861,0.4322 0.0568,0.1369 0.1401,0.2611 0.245,0.3655 0.1049,0.1043 0.2294,0.1867 0.3661,0.2424 0.1368,0.0557 0.2832,0.0836 0.4308,0.082 z m 0,-4.5489 c 0.2202,-0.0024 0.4348,-0.0702 0.6168,-0.195 0.1819,-0.1247 0.323,-0.3008 0.4056,-0.5061 0.0827,-0.2052 0.1031,-0.4304 0.0587,-0.6473 -0.0444,-0.2169 -0.1516,-0.4157 -0.3082,-0.5714 -0.1565,-0.1557 -0.3554,-0.2614 -0.5716,-0.3037 -0.2161,-0.0423 -0.4399,-0.0195 -0.6431,0.0658 -0.2032,0.0853 -0.3768,0.2291 -0.4989,0.4134 -0.1221,0.1843 -0.1873,0.4007 -0.1873,0.6221 0,0.1484 0.0293,0.2953 0.0861,0.4323 0.0568,0.1369 0.1401,0.2612 0.245,0.3655 0.1049,0.1044 0.2294,0.1868 0.3661,0.2425 0.1368,0.0557 0.2832,0.0835 0.4308,0.0819 z m 0,-4.5369 c 0.2236,0 0.4421,-0.0668 0.6279,-0.192 0.1857,-0.1251 0.3303,-0.303 0.4153,-0.511 0.0851,-0.2079 0.1067,-0.4366 0.0622,-0.6569 -0.0446,-0.2203 -0.1532,-0.4224 -0.3121,-0.5805 -0.159,-0.1582 -0.3611,-0.2653 -0.5807,-0.3077 -0.2196,-0.0423 -0.4468,-0.0181 -0.6527,0.0696 -0.2058,0.0877 -0.3811,0.235 -0.5036,0.4231 -0.1225,0.1881 -0.1867,0.4085 -0.1843,0.6333 0,0.1484 0.0293,0.2953 0.0861,0.4322 0.0568,0.137 0.1401,0.2612 0.245,0.3656 0.1049,0.1044 0.2294,0.1868 0.3661,0.2424 0.1368,0.0557 0.2832,0.0835 0.4308,0.0819 z m 0,-4.5488 c 0.2202,-0.0024 0.4348,-0.0703 0.6168,-0.195 0.1819,-0.1248 0.323,-0.3008 0.4056,-0.506 0.0827,-0.2053 0.1031,-0.4305 0.0587,-0.6474 -0.0444,-0.2169 -0.1516,-0.4157 -0.3082,-0.5714 -0.1565,-0.1557 -0.3554,-0.2614 -0.5716,-0.3038 -0.2161,-0.0423 -0.4399,-0.0194 -0.6431,0.0659 -0.2032,0.0852 -0.3768,0.2291 -0.4989,0.4133 -0.1221,0.1843 -0.1873,0.4008 -0.1873,0.6222 0,0.1484 0.0293,0.2953 0.0861,0.4322 0.0568,0.1369 0.1401,0.2612 0.245,0.3656 0.1049,0.1043 0.2294,0.1867 0.3661,0.2424 0.1368,0.0557 0.2832,0.0836 0.4308,0.082 z m 0,-4.5368 c 0.2231,0 0.4412,-0.0666 0.6267,-0.1912 0.1855,-0.1247 0.3301,-0.3018 0.4154,-0.5091 0.0854,-0.2072 0.1077,-0.4352 0.0642,-0.6553 -0.0435,-0.22 -0.151,-0.422 -0.3087,-0.5807 -0.1578,-0.1586 -0.3587,-0.2666 -0.5775,-0.3104 -0.2188,-0.0437 -0.4456,-0.0213 -0.6517,0.0645 -0.2061,0.0859 -0.3823,0.2312 -0.5063,0.4178 -0.1239,0.1865 -0.1901,0.4058 -0.1901,0.6301 0,0.3009 0.1188,0.5893 0.3304,0.802 0.2115,0.2127 0.4984,0.3323 0.7976,0.3323 z"
       fill="#30363d"
       id="path12" />
    <path
       d="m 14.1239,54.0317 h 79.824 c 0.3469,0 0.6796,0.1386 0.9249,0.3852 0.2453,0.2467 0.3831,0.5812 0.3831,0.93 V 161.528 c 0,0.349 -0.1378,0.683 -0.3831,0.93 -0.2453,0.247 -0.578,0.385 -0.9249,0.385 h -79.824 c -0.3469,0 -0.6796,-0.138 -0.9249,-0.385 -0.2453,-0.247 -0.3831,-0.581 -0.3831,-0.93 V 55.3469 c 0,-0.3488 0.1378,-0.6833 0.3831,-0.93 0.2453,-0.2466 0.578,-0.3852 0.9249,-0.3852 z m 0.9,105.8553 c 0.2202,-0.002 0.4348,-0.07 0.6167,-0.195 0.182,-0.125 0.3231,-0.301 0.4057,-0.506 0.0827,-0.205 0.1031,-0.43 0.0587,-0.647 -0.0444,-0.217 -0.1517,-0.416 -0.3082,-0.572 -0.1565,-0.155 -0.3554,-0.261 -0.5716,-0.304 -0.2161,-0.042 -0.4399,-0.019 -0.6431,0.066 -0.2032,0.086 -0.3768,0.229 -0.4989,0.414 -0.1222,0.184 -0.1873,0.4 -0.1873,0.622 0,0.148 0.0293,0.295 0.0861,0.432 0.0568,0.137 0.1401,0.261 0.245,0.366 0.1049,0.104 0.2294,0.186 0.3661,0.242 0.1368,0.056 0.2832,0.084 0.4308,0.082 z m 0,-4.537 c 0.2231,0 0.4412,-0.066 0.6267,-0.191 0.1855,-0.125 0.3301,-0.302 0.4154,-0.509 0.0854,-0.207 0.1077,-0.435 0.0642,-0.655 -0.0435,-0.22 -0.151,-0.422 -0.3087,-0.581 -0.1578,-0.159 -0.3587,-0.267 -0.5775,-0.31 -0.2188,-0.044 -0.4456,-0.022 -0.6517,0.064 -0.2062,0.086 -0.3823,0.231 -0.5063,0.418 -0.1239,0.186 -0.1901,0.406 -0.1901,0.63 0,0.301 0.1188,0.589 0.3304,0.802 0.2115,0.213 0.4984,0.332 0.7976,0.332 z m 0,-4.549 c 0.2202,-0.002 0.4348,-0.07 0.6167,-0.195 0.182,-0.124 0.3231,-0.301 0.4057,-0.506 0.0827,-0.205 0.1031,-0.43 0.0587,-0.647 -0.0444,-0.217 -0.1517,-0.416 -0.3082,-0.572 -0.1565,-0.155 -0.3554,-0.261 -0.5716,-0.303 -0.2161,-0.043 -0.4399,-0.02 -0.6431,0.066 -0.2032,0.085 -0.3768,0.229 -0.4989,0.413 -0.1222,0.184 -0.1873,0.401 -0.1873,0.622 0,0.149 0.0293,0.295 0.0861,0.432 0.0568,0.137 0.1401,0.262 0.245,0.366 0.1049,0.104 0.2294,0.187 0.3661,0.242 0.1368,0.056 0.2832,0.084 0.4308,0.082 z m 0,-4.549 c 0.2202,-0.002 0.4348,-0.07 0.6167,-0.195 0.182,-0.124 0.3231,-0.3 0.4057,-0.506 0.0827,-0.205 0.1031,-0.43 0.0587,-0.647 -0.0444,-0.217 -0.1517,-0.416 -0.3082,-0.571 -0.1565,-0.156 -0.3554,-0.262 -0.5716,-0.304 -0.2161,-0.042 -0.4399,-0.02 -0.6431,0.066 -0.2032,0.085 -0.3768,0.229 -0.4989,0.413 -0.1222,0.184 -0.1873,0.401 -0.1873,0.622 0,0.149 0.0293,0.296 0.0861,0.432 0.0568,0.137 0.1401,0.262 0.245,0.366 0.1049,0.104 0.2294,0.187 0.3661,0.242 0.1368,0.056 0.2832,0.084 0.4308,0.082 z m 0,-4.536 c 0.2202,-0.003 0.4348,-0.071 0.6167,-0.195 0.182,-0.125 0.3231,-0.301 0.4057,-0.506 0.0827,-0.206 0.1031,-0.431 0.0587,-0.648 -0.0444,-0.217 -0.1517,-0.415 -0.3082,-0.571 -0.1565,-0.156 -0.3554,-0.262 -0.5716,-0.304 -0.2161,-0.042 -0.4399,-0.019 -0.6431,0.066 -0.2032,0.085 -0.3768,0.229 -0.4989,0.413 -0.1222,0.184 -0.1873,0.401 -0.1873,0.622 0,0.149 0.0293,0.296 0.0861,0.433 0.0568,0.137 0.1401,0.261 0.245,0.365 0.1049,0.105 0.2294,0.187 0.3661,0.243 0.1368,0.055 0.2832,0.083 0.4308,0.082 z m 0,-4.549 c 0.2202,-0.003 0.4348,-0.071 0.6167,-0.195 0.182,-0.125 0.3231,-0.301 0.4057,-0.506 0.0827,-0.206 0.1031,-0.431 0.0587,-0.648 -0.0444,-0.217 -0.1517,-0.415 -0.3082,-0.571 -0.1565,-0.156 -0.3554,-0.262 -0.5716,-0.304 -0.2161,-0.042 -0.4399,-0.019 -0.6431,0.066 -0.2032,0.085 -0.3768,0.229 -0.4989,0.413 -0.1222,0.185 -0.1873,0.401 -0.1873,0.623 0,0.148 0.0293,0.295 0.0861,0.432 0.0568,0.137 0.1401,0.261 0.245,0.365 0.1049,0.105 0.2294,0.187 0.3661,0.243 0.1368,0.055 0.2832,0.083 0.4308,0.082 z m 0,-4.537 c 0.2236,0 0.4421,-0.067 0.6279,-0.192 0.1857,-0.125 0.3303,-0.303 0.4153,-0.511 0.0851,-0.208 0.1067,-0.437 0.0621,-0.657 -0.0445,-0.22 -0.1531,-0.423 -0.312,-0.581 -0.159,-0.158 -0.3611,-0.265 -0.5807,-0.307 -0.2196,-0.043 -0.4468,-0.018 -0.6527,0.069 -0.2059,0.088 -0.3812,0.235 -0.5036,0.423 -0.1225,0.188 -0.1867,0.409 -0.1843,0.634 0,0.148 0.0293,0.295 0.0861,0.432 0.0568,0.137 0.1401,0.261 0.245,0.365 0.1049,0.105 0.2294,0.187 0.3661,0.243 0.1368,0.056 0.2832,0.083 0.4308,0.082 z m 0,-4.549 c 0.2202,-0.002 0.4348,-0.07 0.6167,-0.195 0.182,-0.125 0.3231,-0.301 0.4057,-0.506 0.0827,-0.205 0.1031,-0.431 0.0587,-0.647 -0.0444,-0.217 -0.1517,-0.416 -0.3082,-0.572 -0.1565,-0.156 -0.3554,-0.261 -0.5716,-0.304 -0.2161,-0.042 -0.4399,-0.019 -0.6431,0.066 -0.2032,0.086 -0.3768,0.229 -0.4989,0.414 -0.1222,0.184 -0.1873,0.4 -0.1873,0.622 0,0.148 0.0293,0.295 0.0861,0.432 0.0568,0.137 0.1401,0.261 0.245,0.366 0.1049,0.104 0.2294,0.186 0.3661,0.242 0.1368,0.056 0.2832,0.084 0.4308,0.082 z m 0,-4.549 c 0.2202,-0.002 0.4348,-0.07 0.6167,-0.195 0.182,-0.125 0.3231,-0.301 0.4057,-0.506 0.0827,-0.205 0.1031,-0.43 0.0587,-0.647 -0.0444,-0.217 -0.1517,-0.416 -0.3082,-0.572 -0.1565,-0.155 -0.3554,-0.261 -0.5716,-0.304 -0.2161,-0.042 -0.4399,-0.019 -0.6431,0.066 -0.2032,0.086 -0.3768,0.23 -0.4989,0.414 -0.1222,0.184 -0.1873,0.401 -0.1873,0.622 0,0.148 0.0293,0.295 0.0861,0.432 0.0568,0.137 0.1401,0.261 0.245,0.366 0.1049,0.104 0.2294,0.186 0.3661,0.242 0.1368,0.056 0.2832,0.084 0.4308,0.082 z m 0,-4.537 c 0.2202,-0.002 0.4348,-0.07 0.6167,-0.195 0.182,-0.124 0.3231,-0.301 0.4057,-0.506 0.0827,-0.205 0.1031,-0.43 0.0587,-0.647 -0.0444,-0.217 -0.1517,-0.416 -0.3082,-0.572 -0.1565,-0.155 -0.3554,-0.261 -0.5716,-0.303 -0.2161,-0.043 -0.4399,-0.02 -0.6431,0.066 -0.2032,0.085 -0.3768,0.229 -0.4989,0.413 -0.1222,0.184 -0.1873,0.401 -0.1873,0.622 0,0.148 0.0293,0.295 0.0861,0.432 0.0568,0.137 0.1401,0.261 0.245,0.366 0.1049,0.104 0.2294,0.187 0.3661,0.242 0.1368,0.056 0.2832,0.084 0.4308,0.082 z m 0,-4.549 c 0.2202,-0.002 0.4348,-0.07 0.6167,-0.195 0.182,-0.124 0.3231,-0.3 0.4057,-0.506 0.0827,-0.205 0.1031,-0.43 0.0587,-0.647 -0.0444,-0.217 -0.1517,-0.416 -0.3082,-0.571 -0.1565,-0.156 -0.3554,-0.262 -0.5716,-0.304 -0.2161,-0.043 -0.4399,-0.02 -0.6431,0.066 -0.2032,0.085 -0.3768,0.229 -0.4989,0.413 -0.1222,0.184 -0.1873,0.401 -0.1873,0.622 0,0.149 0.0293,0.295 0.0861,0.432 0.0568,0.137 0.1401,0.262 0.245,0.366 0.1049,0.104 0.2294,0.187 0.3661,0.242 0.1368,0.056 0.2832,0.084 0.4308,0.082 z m 0,-4.537 c 0.2236,0 0.4421,-0.066 0.6279,-0.192 0.1857,-0.125 0.3303,-0.303 0.4153,-0.51 0.0851,-0.208 0.1067,-0.437 0.0621,-0.657 -0.0445,-0.221 -0.1531,-0.423 -0.312,-0.581 -0.159,-0.158 -0.3611,-0.265 -0.5807,-0.308 -0.2196,-0.042 -0.4468,-0.018 -0.6527,0.07 -0.2059,0.088 -0.3812,0.235 -0.5036,0.423 -0.1225,0.188 -0.1867,0.409 -0.1843,0.633 0.0124,0.292 0.1371,0.567 0.3477,0.767 0.2105,0.2 0.4904,0.311 0.7803,0.307 z m 0,-4.548 c 0.2202,-0.003 0.4348,-0.071 0.6167,-0.195 0.182,-0.125 0.3231,-0.301 0.4057,-0.506 0.0827,-0.206 0.1031,-0.431 0.0587,-0.648 -0.0444,-0.217 -0.1517,-0.415 -0.3082,-0.571 -0.1565,-0.156 -0.3554,-0.262 -0.5716,-0.304 -0.2161,-0.042 -0.4399,-0.019 -0.6431,0.066 -0.2032,0.085 -0.3768,0.229 -0.4989,0.413 -0.1222,0.185 -0.1873,0.401 -0.1873,0.622 0,0.149 0.0293,0.296 0.0861,0.433 0.0568,0.137 0.1401,0.261 0.245,0.365 0.1049,0.105 0.2294,0.187 0.3661,0.243 0.1368,0.055 0.2832,0.083 0.4308,0.082 z m 0,-4.537 c 0.2236,0 0.4421,-0.067 0.6279,-0.192 0.1857,-0.125 0.3303,-0.303 0.4153,-0.511 0.0851,-0.2082 0.1067,-0.4368 0.0621,-0.6571 -0.0445,-0.2204 -0.1531,-0.4225 -0.312,-0.5806 -0.159,-0.1581 -0.3611,-0.2652 -0.5807,-0.3076 -0.2196,-0.0424 -0.4468,-0.0182 -0.6527,0.0695 -0.2059,0.0877 -0.3812,0.2349 -0.5036,0.423 -0.1225,0.1881 -0.1867,0.4086 -0.1843,0.6335 0,0.1483 0.0293,0.2952 0.0861,0.4323 0.0568,0.137 0.1401,0.261 0.245,0.365 0.1049,0.105 0.2294,0.187 0.3661,0.243 0.1368,0.055 0.2832,0.083 0.4308,0.082 z m 0,-4.5491 c 0.2202,-0.0024 0.4348,-0.0702 0.6167,-0.195 0.182,-0.1247 0.3231,-0.3008 0.4057,-0.5061 0.0827,-0.2052 0.1031,-0.4304 0.0587,-0.6473 -0.0444,-0.2169 -0.1517,-0.4157 -0.3082,-0.5714 -0.1565,-0.1557 -0.3554,-0.2614 -0.5716,-0.3037 -0.2161,-0.0424 -0.4399,-0.0195 -0.6431,0.0658 -0.2032,0.0853 -0.3768,0.2291 -0.4989,0.4134 -0.1222,0.1842 -0.1873,0.4007 -0.1873,0.6221 0,0.1484 0.0293,0.2953 0.0861,0.4323 0.0568,0.1369 0.1401,0.2612 0.245,0.3655 0.1049,0.1044 0.2294,0.1868 0.3661,0.2425 0.1368,0.0556 0.2832,0.0835 0.4308,0.0819 z m 0,-4.549 c 0.2202,-0.0023 0.4348,-0.0701 0.6167,-0.1949 0.182,-0.1247 0.3231,-0.3008 0.4057,-0.506 0.0827,-0.2052 0.1031,-0.4305 0.0587,-0.6473 -0.0444,-0.2169 -0.1517,-0.4157 -0.3082,-0.5715 -0.1565,-0.1557 -0.3554,-0.2614 -0.5716,-0.3037 -0.2161,-0.0424 -0.4399,-0.0195 -0.6431,0.0658 -0.2032,0.0853 -0.3768,0.2291 -0.4989,0.4134 -0.1222,0.1842 -0.1873,0.4007 -0.1873,0.6221 -0.0049,0.1514 0.0208,0.3023 0.0755,0.4434 0.0546,0.1412 0.1371,0.2697 0.2425,0.378 0.1054,0.1082 0.2315,0.1939 0.3707,0.2518 0.1392,0.0579 0.2886,0.0869 0.4393,0.0852 z m 0,-4.5367 c 0.2202,-0.0024 0.4348,-0.0703 0.6167,-0.195 0.182,-0.1248 0.3231,-0.3008 0.4057,-0.506 0.0827,-0.2053 0.1031,-0.4305 0.0587,-0.6474 -0.0444,-0.2169 -0.1517,-0.4157 -0.3082,-0.5714 -0.1565,-0.1557 -0.3554,-0.2615 -0.5716,-0.3038 -0.2161,-0.0423 -0.4399,-0.0194 -0.6431,0.0659 -0.2032,0.0853 -0.3768,0.2291 -0.4989,0.4134 -0.1222,0.1843 -0.1873,0.4007 -0.1873,0.6222 0,0.1483 0.0293,0.2952 0.0861,0.4322 0.0568,0.1369 0.1401,0.2611 0.245,0.3655 0.1049,0.1043 0.2294,0.1867 0.3661,0.2424 0.1368,0.0557 0.2832,0.0836 0.4308,0.082 z m 0,-4.5489 c 0.2202,-0.0024 0.4348,-0.0702 0.6167,-0.195 0.182,-0.1247 0.3231,-0.3008 0.4057,-0.5061 0.0827,-0.2052 0.1031,-0.4304 0.0587,-0.6473 -0.0444,-0.2169 -0.1517,-0.4157 -0.3082,-0.5714 -0.1565,-0.1557 -0.3554,-0.2614 -0.5716,-0.3037 -0.2161,-0.0424 -0.4399,-0.0195 -0.6431,0.0658 -0.2032,0.0853 -0.3768,0.2291 -0.4989,0.4134 -0.1222,0.1842 -0.1873,0.4007 -0.1873,0.6221 0,0.1484 0.0293,0.2953 0.0861,0.4323 0.0568,0.1369 0.1401,0.2611 0.245,0.3655 0.1049,0.1043 0.2294,0.1867 0.3661,0.2424 0.1368,0.0557 0.2832,0.0836 0.4308,0.082 z m 0,-4.5369 c 0.2236,0 0.4421,-0.0668 0.6279,-0.192 0.1857,-0.1251 0.3303,-0.303 0.4153,-0.511 0.0851,-0.2079 0.1067,-0.4366 0.0621,-0.6569 -0.0445,-0.2203 -0.1531,-0.4224 -0.312,-0.5806 -0.159,-0.1581 -0.3611,-0.2652 -0.5807,-0.3076 -0.2196,-0.0424 -0.4468,-0.0181 -0.6527,0.0696 -0.2059,0.0877 -0.3812,0.2349 -0.5036,0.423 -0.1225,0.1881 -0.1867,0.4086 -0.1843,0.6334 0,0.1484 0.0293,0.2953 0.0861,0.4322 0.0568,0.137 0.1401,0.2612 0.245,0.3656 0.1049,0.1044 0.2294,0.1868 0.3661,0.2424 0.1368,0.0557 0.2832,0.0835 0.4308,0.0819 z m 0,-4.5489 c 0.2202,-0.0024 0.4348,-0.0702 0.6167,-0.1949 0.182,-0.1248 0.3231,-0.3008 0.4057,-0.506 0.0827,-0.2053 0.1031,-0.4305 0.0587,-0.6474 -0.0444,-0.2169 -0.1517,-0.4157 -0.3082,-0.5715 -0.1565,-0.1557 -0.3554,-0.2614 -0.5716,-0.3037 -0.2161,-0.0423 -0.4399,-0.0194 -0.6431,0.0659 -0.2032,0.0852 -0.3768,0.2291 -0.4989,0.4133 -0.1222,0.1843 -0.1873,0.4008 -0.1873,0.6222 0,0.1484 0.0293,0.2953 0.0861,0.4322 0.0568,0.1369 0.1401,0.2612 0.245,0.3656 0.1049,0.1043 0.2294,0.1867 0.3661,0.2424 0.1368,0.0557 0.2832,0.0835 0.4308,0.0819 z m 0,-4.5368 c 0.2231,0 0.4412,-0.0665 0.6267,-0.1911 0.1855,-0.1247 0.3301,-0.3018 0.4154,-0.5091 0.0854,-0.2072 0.1077,-0.4353 0.0642,-0.6553 -0.0435,-0.22 -0.151,-0.422 -0.3087,-0.5807 -0.1578,-0.1586 -0.3587,-0.2666 -0.5775,-0.3104 -0.2188,-0.0437 -0.4456,-0.0213 -0.6517,0.0645 -0.2062,0.0859 -0.3823,0.2312 -0.5063,0.4177 -0.1239,0.1866 -0.1901,0.4059 -0.1901,0.6302 0,0.3008 0.1188,0.5893 0.3304,0.802 0.2115,0.2127 0.4984,0.3322 0.7976,0.3322 z m 0,-4.5489 c 0.2202,-0.0024 0.4348,-0.0702 0.6167,-0.1949 0.182,-0.1248 0.3231,-0.3009 0.4057,-0.5061 0.0827,-0.2052 0.1031,-0.4305 0.0587,-0.6473 -0.0444,-0.2169 -0.1517,-0.4157 -0.3082,-0.5715 -0.1565,-0.1557 -0.3554,-0.2613 -0.5716,-0.3037 -0.2161,-0.0423 -0.4399,-0.0194 -0.6431,0.0659 -0.2032,0.0852 -0.3768,0.2291 -0.4989,0.4133 -0.1222,0.1843 -0.1873,0.4008 -0.1873,0.6222 0,0.1484 0.0293,0.2953 0.0861,0.4322 0.0568,0.137 0.1401,0.2612 0.245,0.3655 0.1049,0.1044 0.2294,0.1868 0.3661,0.2425 0.1368,0.0556 0.2832,0.0835 0.4308,0.0819 z m 0,-4.5489 c 0.2202,-0.0024 0.4348,-0.0702 0.6167,-0.1949 0.182,-0.1248 0.3231,-0.3009 0.4057,-0.5061 0.0827,-0.2053 0.1031,-0.4305 0.0587,-0.6474 -0.0444,-0.2168 -0.1517,-0.4156 -0.3082,-0.5714 -0.1565,-0.1557 -0.3554,-0.2614 -0.5716,-0.3037 -0.2161,-0.0423 -0.4399,-0.0194 -0.6431,0.0658 -0.2032,0.0853 -0.3768,0.2292 -0.4989,0.4134 -0.1222,0.1843 -0.1873,0.4008 -0.1873,0.6222 0,0.1484 0.0293,0.2953 0.0861,0.4322 0.0568,0.1369 0.1401,0.2612 0.245,0.3656 0.1049,0.1043 0.2294,0.1867 0.3661,0.2424 0.1368,0.0557 0.2832,0.0835 0.4308,0.0819 z"
       fill="#321c64"
       id="path14" />
    <path
       d="m 15.7921,58.7857 c 0,0.4826 -0.204,0.8688 -0.456,0.8688 h -3.228 c -0.252,0 -0.456,-0.3862 -0.456,-0.8688 0,-0.4827 0.204,-0.8808 0.456,-0.8808 h 3.228 c 0.252,0 0.456,0.3981 0.456,0.8808 z"
       fill="#cdd5d7"
       id="path16" />
    <path
       d="M 15.324,57.9049 H 12.42 c -0.1091,0.2036 -0.1629,0.4324 -0.156,0.6636 0,0.4826 0.204,0.8688 0.456,0.8688 h 2.304 c 0.252,0 0.456,-0.3862 0.456,-0.8688 0.0069,-0.2312 -0.0469,-0.46 -0.156,-0.6636 z"
       fill="#e5e8ec"
       id="path18" />
    <path
       d="m 12.636,58.3634 c -0.0123,-0.1526 -0.0123,-0.3059 0,-0.4585 h -0.6 c -0.1092,0.1991 -0.1631,0.4242 -0.156,0.6515 0,0.4827 0.204,0.8688 0.456,0.8688 h 0.4921 C 12.6852,59.0904 12.6195,58.7274 12.636,58.3634 Z"
       fill="#b7bec0"
       id="path20" />
    <path
       d="m 15.7921,63.3346 c 0,0.4826 -0.204,0.8808 -0.456,0.8808 h -3.228 c -0.252,0 -0.456,-0.3982 -0.456,-0.8808 0,-0.4826 0.204,-0.8808 0.456,-0.8808 h 3.228 c 0.252,0 0.456,0.3982 0.456,0.8808 z"
       fill="#cdd5d7"
       id="path22" />
    <path
       d="M 15.324,62.4538 H 12.42 c -0.1075,0.2042 -0.1612,0.4326 -0.156,0.6636 0,0.4827 0.204,0.8687 0.456,0.8687 h 2.304 c 0.252,0 0.456,-0.386 0.456,-0.8687 0.0053,-0.231 -0.0484,-0.4594 -0.156,-0.6636 z"
       fill="#e5e8ec"
       id="path24" />
    <path
       d="m 12.636,62.9123 c -0.0123,-0.1526 -0.0123,-0.3059 0,-0.4585 h -0.6 c -0.1092,0.1992 -0.1631,0.4242 -0.156,0.6515 0,0.4827 0.204,0.8688 0.456,0.8688 h 0.4921 C 12.6852,63.6392 12.6195,63.2763 12.636,62.9123 Z"
       fill="#b7bec0"
       id="path26" />
    <path
       d="m 15.7921,67.8835 c 0,0.4827 -0.204,0.8808 -0.456,0.8808 h -3.228 c -0.252,0 -0.456,-0.3981 -0.456,-0.8808 0,-0.4826 0.204,-0.8808 0.456,-0.8808 h 3.228 c 0.252,0 0.456,0.3982 0.456,0.8808 z"
       fill="#cdd5d7"
       id="path28" />
    <path
       d="M 15.324,67.0027 H 12.42 c -0.1075,0.2041 -0.1612,0.4327 -0.156,0.6636 0,0.4827 0.204,0.8808 0.456,0.8808 h 2.304 c 0.252,0 0.456,-0.3981 0.456,-0.8808 0.0053,-0.2309 -0.0484,-0.4595 -0.156,-0.6636 z"
       fill="#e5e8ec"
       id="path30" />
    <path
       d="m 12.636,67.4612 c -0.0123,-0.1526 -0.0123,-0.306 0,-0.4585 h -0.6 c -0.1092,0.1991 -0.1631,0.4242 -0.156,0.6516 0,0.4826 0.204,0.8808 0.456,0.8808 h 0.4921 C 12.6834,68.1965 12.6176,67.8292 12.636,67.4612 Z"
       fill="#b7bec0"
       id="path32" />
    <path
       d="m 15.7921,72.4565 c 0,0.4827 -0.204,0.8808 -0.456,0.8808 h -3.228 c -0.252,0 -0.456,-0.3981 -0.456,-0.8808 0,-0.4826 0.204,-0.8687 0.456,-0.8687 h 3.228 c 0.252,0 0.456,0.3861 0.456,0.8687 z"
       fill="#cdd5d7"
       id="path34" />
    <path
       d="m 15.324,71.5637 h -2.9039 c -0.1093,0.1991 -0.1632,0.4242 -0.156,0.6515 0,0.4826 0.204,0.8809 0.456,0.8809 h 2.3039 c 0.252,0 0.456,-0.3983 0.456,-0.8809 0.0071,-0.2273 -0.0467,-0.4524 -0.156,-0.6515 z"
       fill="#e5e8ec"
       id="path36" />
    <path
       d="m 12.6358,72.0101 c -0.0123,-0.1486 -0.0123,-0.2979 0,-0.4464 h -0.6 c -0.106,0.2003 -0.1597,0.4245 -0.156,0.6515 0,0.4826 0.204,0.8809 0.456,0.8809 h 0.4921 c -0.15,-0.3412 -0.216,-0.7138 -0.1921,-1.086 z"
       fill="#b7bec0"
       id="path38" />
    <path
       d="m 15.7921,76.9813 c 0,0.4947 -0.204,0.8808 -0.456,0.8808 h -3.228 c -0.252,0 -0.456,-0.3861 -0.456,-0.8808 0,-0.4827 0.204,-0.8688 0.456,-0.8688 h 3.228 c 0.252,0 0.456,0.3861 0.456,0.8688 z"
       fill="#cdd5d7"
       id="path40" />
    <path
       d="m 15.324,76.0763 h -2.9039 c -0.1093,0.1992 -0.1632,0.4242 -0.156,0.6516 0,0.4947 0.204,0.8808 0.456,0.8808 h 2.3039 c 0.252,0 0.456,-0.3861 0.456,-0.8808 0.0071,-0.2274 -0.0467,-0.4524 -0.156,-0.6516 z"
       fill="#e5e8ec"
       id="path42" />
    <path
       d="m 12.6359,76.571 c -0.0128,-0.1526 -0.0128,-0.3059 0,-0.4585 h -0.6 c -0.1099,0.1946 -0.1639,0.4159 -0.156,0.6395 0,0.4947 0.204,0.8808 0.456,0.8808 H 12.828 C 12.6851,77.298 12.6194,76.935 12.6359,76.571 Z"
       fill="#b7bec0"
       id="path44" />
    <path
       d="m 15.7921,81.5423 c 0,0.4826 -0.204,0.8687 -0.456,0.8687 h -3.228 c -0.252,0 -0.456,-0.3861 -0.456,-0.8687 0,-0.4827 0.204,-0.8809 0.456,-0.8809 h 3.228 c 0.252,0 0.456,0.3982 0.456,0.8809 z"
       fill="#cdd5d7"
       id="path46" />
    <path
       d="M 15.324,80.6614 H 12.42 c -0.1091,0.2036 -0.1629,0.4325 -0.156,0.6636 0,0.4827 0.204,0.8688 0.456,0.8688 h 2.304 c 0.252,0 0.456,-0.3861 0.456,-0.8688 0.0069,-0.2311 -0.0469,-0.46 -0.156,-0.6636 z"
       fill="#e5e8ec"
       id="path48" />
    <path
       d="m 12.636,81.1199 c -0.0123,-0.1526 -0.0123,-0.3059 0,-0.4585 h -0.6 c -0.1092,0.1992 -0.1631,0.4243 -0.156,0.6516 0,0.4827 0.204,0.8687 0.456,0.8687 h 0.4921 C 12.6852,81.8469 12.6195,81.4839 12.636,81.1199 Z"
       fill="#b7bec0"
       id="path50" />
    <path
       d="m 15.7921,86.0911 c 0,0.4826 -0.204,0.8809 -0.456,0.8809 h -3.228 c -0.252,0 -0.456,-0.3983 -0.456,-0.8809 0,-0.4826 0.204,-0.8808 0.456,-0.8808 h 3.228 c 0.252,0 0.456,0.3982 0.456,0.8808 z"
       fill="#cdd5d7"
       id="path52" />
    <path
       d="M 15.324,85.2103 H 12.42 c -0.1075,0.2042 -0.1612,0.4326 -0.156,0.6636 0,0.4827 0.204,0.8688 0.456,0.8688 h 2.304 c 0.252,0 0.456,-0.3861 0.456,-0.8688 0.0053,-0.231 -0.0484,-0.4594 -0.156,-0.6636 z"
       fill="#e5e8ec"
       id="path54" />
    <path
       d="m 12.636,85.7291 c -0.0123,-0.1525 -0.0123,-0.3059 0,-0.4585 h -0.6 c -0.1092,0.1992 -0.1631,0.4242 -0.156,0.6516 0,0.4826 0.204,0.8688 0.456,0.8688 h 0.4921 C 12.6852,86.4561 12.6195,86.0931 12.636,85.7291 Z"
       fill="#b7bec0"
       id="path56" />
    <path
       d="m 15.7921,90.64 c 0,0.4827 -0.204,0.8808 -0.456,0.8808 h -3.228 c -0.252,0 -0.456,-0.3981 -0.456,-0.8808 0,-0.4826 0.204,-0.8808 0.456,-0.8808 h 3.228 c 0.252,0 0.456,0.3982 0.456,0.8808 z"
       fill="#cdd5d7"
       id="path58" />
    <path
       d="M 15.324,89.7592 H 12.42 c -0.1075,0.2042 -0.1612,0.4327 -0.156,0.6637 0,0.4826 0.204,0.8807 0.456,0.8807 h 2.304 c 0.252,0 0.456,-0.3981 0.456,-0.8807 0.0053,-0.231 -0.0484,-0.4595 -0.156,-0.6637 z"
       fill="#e5e8ec"
       id="path60" />
    <path
       d="m 12.636,90.2177 c -0.0123,-0.1526 -0.0123,-0.3059 0,-0.4585 h -0.6 c -0.1092,0.1992 -0.1631,0.4243 -0.156,0.6516 0,0.4826 0.204,0.8808 0.456,0.8808 h 0.4921 C 12.6834,90.9531 12.6176,90.5857 12.636,90.2177 Z"
       fill="#b7bec0"
       id="path62" />
    <path
       d="m 15.7921,95.1889 c 0,0.4948 -0.204,0.8808 -0.456,0.8808 h -3.228 c -0.252,0 -0.456,-0.386 -0.456,-0.8808 0,-0.4826 0.204,-0.8687 0.456,-0.8687 h 3.228 c 0.252,0 0.456,0.3861 0.456,0.8687 z"
       fill="#cdd5d7"
       id="path64" />
    <path
       d="m 15.324,94.3202 h -2.9039 c -0.1093,0.1991 -0.1632,0.4242 -0.156,0.6515 0,0.4826 0.204,0.8809 0.456,0.8809 h 2.3039 c 0.252,0 0.456,-0.3983 0.456,-0.8809 0.0071,-0.2273 -0.0467,-0.4524 -0.156,-0.6515 z"
       fill="#e5e8ec"
       id="path66" />
    <path
       d="m 12.636,94.7787 c -0.0128,-0.1526 -0.0128,-0.306 0,-0.4585 h -0.6 c -0.1076,0.1998 -0.1614,0.4243 -0.156,0.6515 0,0.4826 0.204,0.8809 0.456,0.8809 h 0.4921 C 12.6795,95.5152 12.6136,95.1469 12.636,94.7787 Z"
       fill="#b7bec0"
       id="path68" />
    <path
       d="m 15.7921,99.7499 c 0,0.4831 -0.204,0.8691 -0.456,0.8691 h -3.228 c -0.252,0 -0.456,-0.386 -0.456,-0.8691 0,-0.4947 0.204,-0.8808 0.456,-0.8808 h 3.228 c 0.252,0 0.456,0.3861 0.456,0.8808 z"
       fill="#cdd5d7"
       id="path70" />
    <path
       d="m 15.324,98.8691 h -2.9039 c -0.1093,0.1992 -0.1632,0.4242 -0.156,0.6515 0,0.4824 0.204,0.8804 0.456,0.8804 h 2.3039 c 0.252,0 0.456,-0.398 0.456,-0.8804 0.0071,-0.2273 -0.0467,-0.4523 -0.156,-0.6515 z"
       fill="#e5e8ec"
       id="path72" />
    <path
       d="m 12.6358,99.3276 c -0.0128,-0.1526 -0.0128,-0.306 0,-0.4585 h -0.6 c -0.106,0.2004 -0.1597,0.4245 -0.156,0.6515 0,0.4824 0.204,0.8804 0.456,0.8804 h 0.4921 c -0.1447,-0.338 -0.2104,-0.7054 -0.1921,-1.0734 z"
       fill="#b7bec0"
       id="path74" />
    <path
       d="m 15.7921,104.299 c 0,0.482 -0.204,0.868 -0.456,0.868 h -3.228 c -0.252,0 -0.456,-0.386 -0.456,-0.868 0,-0.483 0.204,-0.881 0.456,-0.881 h 3.228 c 0.252,0 0.456,0.398 0.456,0.881 z"
       fill="#cdd5d7"
       id="path76" />
    <path
       d="M 15.324,103.418 H 12.42 c -0.1091,0.203 -0.1629,0.432 -0.156,0.664 0,0.482 0.204,0.868 0.456,0.868 h 2.304 c 0.252,0 0.456,-0.386 0.456,-0.868 0.0069,-0.232 -0.0469,-0.461 -0.156,-0.664 z"
       fill="#e5e8ec"
       id="path78" />
    <path
       d="m 12.636,103.828 c -0.0123,-0.152 -0.0123,-0.306 0,-0.458 h -0.6 c -0.1092,0.199 -0.1631,0.424 -0.156,0.651 0,0.483 0.204,0.869 0.456,0.869 h 0.4921 c -0.1429,-0.335 -0.2086,-0.698 -0.1921,-1.062 z"
       fill="#b7bec0"
       id="path80" />
    <path
       d="m 15.7921,108.848 c 0,0.482 -0.204,0.881 -0.456,0.881 h -3.228 c -0.252,0 -0.456,-0.399 -0.456,-0.881 0,-0.483 0.204,-0.881 0.456,-0.881 h 3.228 c 0.252,0 0.456,0.398 0.456,0.881 z"
       fill="#cdd5d7"
       id="path82" />
    <path
       d="M 15.324,107.967 H 12.42 c -0.1075,0.204 -0.1612,0.432 -0.156,0.663 0,0.483 0.204,0.869 0.456,0.869 h 2.304 c 0.252,0 0.456,-0.386 0.456,-0.869 0.0053,-0.231 -0.0484,-0.459 -0.156,-0.663 z"
       fill="#e5e8ec"
       id="path84" />
    <path
       d="m 12.636,108.425 c -0.0123,-0.152 -0.0123,-0.306 0,-0.458 h -0.6 c -0.1092,0.199 -0.1631,0.424 -0.156,0.651 0,0.483 0.204,0.869 0.456,0.869 h 0.4921 c -0.1429,-0.335 -0.2086,-0.698 -0.1921,-1.062 z"
       fill="#b7bec0"
       id="path86" />
    <path
       d="m 15.7921,113.397 c 0,0.482 -0.204,0.88 -0.456,0.88 h -3.228 c -0.252,0 -0.456,-0.398 -0.456,-0.88 0,-0.483 0.204,-0.881 0.456,-0.881 h 3.228 c 0.252,0 0.456,0.398 0.456,0.881 z"
       fill="#cdd5d7"
       id="path88" />
    <path
       d="M 15.324,112.516 H 12.42 c -0.1075,0.204 -0.1612,0.432 -0.156,0.663 0,0.483 0.204,0.881 0.456,0.881 h 2.304 c 0.252,0 0.456,-0.398 0.456,-0.881 0.0053,-0.231 -0.0484,-0.459 -0.156,-0.663 z"
       fill="#e5e8ec"
       id="path90" />
    <path
       d="m 12.636,112.974 c -0.0123,-0.152 -0.0123,-0.306 0,-0.458 h -0.6 c -0.1092,0.199 -0.1631,0.424 -0.156,0.651 0,0.483 0.204,0.881 0.456,0.881 h 0.4921 c -0.1447,-0.338 -0.2105,-0.706 -0.1921,-1.074 z"
       fill="#b7bec0"
       id="path92" />
    <path
       d="m 15.7921,117.945 c 0,0.483 -0.204,0.881 -0.456,0.881 h -3.228 c -0.252,0 -0.456,-0.398 -0.456,-0.881 0,-0.482 0.204,-0.868 0.456,-0.868 h 3.228 c 0.252,0 0.456,0.386 0.456,0.868 z"
       fill="#cdd5d7"
       id="path94" />
    <path
       d="m 15.324,117.101 h -2.9039 c -0.1093,0.199 -0.1632,0.424 -0.156,0.651 0,0.483 0.204,0.881 0.456,0.881 h 2.3039 c 0.252,0 0.456,-0.398 0.456,-0.881 0.0071,-0.227 -0.0467,-0.452 -0.156,-0.651 z"
       fill="#e5e8ec"
       id="path96" />
    <path
       d="m 12.636,117.523 c -0.0123,-0.148 -0.0123,-0.298 0,-0.446 h -0.6 c -0.1076,0.199 -0.1614,0.424 -0.156,0.651 0,0.483 0.204,0.881 0.456,0.881 h 0.4921 c -0.1501,-0.341 -0.216,-0.714 -0.1921,-1.086 z"
       fill="#b7bec0"
       id="path98" />
    <path
       d="m 15.7921,122.506 c 0,0.483 -0.204,0.869 -0.456,0.869 h -3.228 c -0.252,0 -0.456,-0.386 -0.456,-0.869 0,-0.494 0.204,-0.88 0.456,-0.88 h 3.228 c 0.252,0 0.456,0.386 0.456,0.88 z"
       fill="#cdd5d7"
       id="path100" />
    <path
       d="m 15.324,121.626 h -2.9039 c -0.1093,0.199 -0.1632,0.424 -0.156,0.651 0,0.483 0.204,0.881 0.456,0.881 h 2.3039 c 0.252,0 0.456,-0.398 0.456,-0.881 0.0071,-0.227 -0.0467,-0.452 -0.156,-0.651 z"
       fill="#e5e8ec"
       id="path102" />
    <path
       d="m 12.6358,122.084 c -0.0128,-0.152 -0.0128,-0.306 0,-0.458 h -0.6 c -0.106,0.2 -0.1597,0.424 -0.156,0.651 0,0.483 0.204,0.881 0.456,0.881 h 0.4921 c -0.1447,-0.339 -0.2104,-0.706 -0.1921,-1.074 z"
       fill="#b7bec0"
       id="path104" />
    <path
       d="m 15.7921,127.055 c 0,0.483 -0.204,0.869 -0.456,0.869 h -3.228 c -0.252,0 -0.456,-0.386 -0.456,-0.869 0,-0.482 0.204,-0.881 0.456,-0.881 h 3.228 c 0.252,0 0.456,0.399 0.456,0.881 z"
       fill="#cdd5d7"
       id="path106" />
    <path
       d="M 15.324,126.174 H 12.42 c -0.1091,0.204 -0.1629,0.433 -0.156,0.664 0,0.483 0.204,0.869 0.456,0.869 h 2.304 c 0.252,0 0.456,-0.386 0.456,-0.869 0.0069,-0.231 -0.0469,-0.46 -0.156,-0.664 z"
       fill="#e5e8ec"
       id="path108" />
    <path
       d="m 12.636,126.633 c -0.0128,-0.153 -0.0128,-0.306 0,-0.459 h -0.6 c -0.1092,0.2 -0.1631,0.425 -0.156,0.652 0,0.483 0.204,0.869 0.456,0.869 h 0.4921 c -0.1429,-0.335 -0.2086,-0.698 -0.1921,-1.062 z"
       fill="#b7bec0"
       id="path110" />
    <path
       d="m 15.7921,131.58 c 0,0.483 -0.204,0.881 -0.456,0.881 h -3.228 c -0.252,0 -0.456,-0.398 -0.456,-0.881 0,-0.483 0.204,-0.881 0.456,-0.881 h 3.228 c 0.252,0 0.456,0.398 0.456,0.881 z"
       fill="#cdd5d7"
       id="path112" />
    <path
       d="M 15.324,130.723 H 12.42 c -0.1091,0.204 -0.1629,0.433 -0.156,0.664 0,0.483 0.204,0.869 0.456,0.869 h 2.304 c 0.252,0 0.456,-0.386 0.456,-0.869 0.0069,-0.231 -0.0469,-0.46 -0.156,-0.664 z"
       fill="#e5e8ec"
       id="path114" />
    <path
       d="m 12.636,131.182 c -0.0123,-0.153 -0.0123,-0.306 0,-0.459 h -0.6 c -0.1092,0.2 -0.1631,0.425 -0.156,0.652 0,0.483 0.204,0.869 0.456,0.869 h 0.4921 c -0.1429,-0.335 -0.2086,-0.698 -0.1921,-1.062 z"
       fill="#b7bec0"
       id="path116" />
    <path
       d="m 15.7921,136.153 c 0,0.483 -0.204,0.881 -0.456,0.881 h -3.228 c -0.252,0 -0.456,-0.398 -0.456,-0.881 0,-0.483 0.204,-0.881 0.456,-0.881 h 3.228 c 0.252,0 0.456,0.398 0.456,0.881 z"
       fill="#cdd5d7"
       id="path118" />
    <path
       d="M 15.324,135.272 H 12.42 c -0.1075,0.204 -0.1612,0.433 -0.156,0.664 0,0.483 0.204,0.881 0.456,0.881 h 2.304 c 0.252,0 0.456,-0.398 0.456,-0.881 0.0053,-0.231 -0.0484,-0.46 -0.156,-0.664 z"
       fill="#e5e8ec"
       id="path120" />
    <path
       d="m 12.636,135.731 c -0.0123,-0.153 -0.0123,-0.306 0,-0.459 h -0.6 c -0.1092,0.199 -0.1631,0.424 -0.156,0.652 0,0.482 0.204,0.881 0.456,0.881 h 0.4921 c -0.1447,-0.339 -0.2105,-0.706 -0.1921,-1.074 z"
       fill="#b7bec0"
       id="path122" />
    <path
       d="m 15.7921,140.702 c 0,0.483 -0.204,0.881 -0.456,0.881 h -3.228 c -0.252,0 -0.456,-0.398 -0.456,-0.881 0,-0.483 0.204,-0.869 0.456,-0.869 h 3.228 c 0.252,0 0.456,0.386 0.456,0.869 z"
       fill="#cdd5d7"
       id="path124" />
    <path
       d="m 15.324,139.833 h -2.9039 c -0.1093,0.199 -0.1632,0.424 -0.156,0.652 0,0.482 0.204,0.881 0.456,0.881 h 2.3039 c 0.252,0 0.456,-0.399 0.456,-0.881 0.0071,-0.228 -0.0467,-0.453 -0.156,-0.652 z"
       fill="#e5e8ec"
       id="path126" />
    <path
       d="m 12.636,140.28 c -0.0123,-0.149 -0.0123,-0.298 0,-0.447 h -0.6 c -0.1076,0.2 -0.1614,0.425 -0.156,0.652 0,0.482 0.204,0.881 0.456,0.881 h 0.4921 c -0.1501,-0.342 -0.216,-0.714 -0.1921,-1.086 z"
       fill="#b7bec0"
       id="path128" />
    <path
       d="m 15.7921,145.263 c 0,0.483 -0.204,0.869 -0.456,0.869 h -3.228 c -0.252,0 -0.456,-0.386 -0.456,-0.869 0,-0.495 0.204,-0.881 0.456,-0.881 h 3.228 c 0.252,0 0.456,0.386 0.456,0.881 z"
       fill="#cdd5d7"
       id="path130" />
    <path
       d="m 15.324,144.382 h -2.9039 c -0.1093,0.199 -0.1632,0.424 -0.156,0.652 0,0.482 0.204,0.881 0.456,0.881 h 2.3039 c 0.252,0 0.456,-0.399 0.456,-0.881 0.0071,-0.228 -0.0467,-0.453 -0.156,-0.652 z"
       fill="#e5e8ec"
       id="path132" />
    <path
       d="m 12.6358,144.853 c -0.0128,-0.153 -0.0128,-0.306 0,-0.459 h -0.6 c -0.106,0.201 -0.1597,0.425 -0.156,0.652 0,0.482 0.204,0.881 0.456,0.881 h 0.4921 c -0.1447,-0.339 -0.2104,-0.706 -0.1921,-1.074 z"
       fill="#b7bec0"
       id="path134" />
    <path
       d="m 15.7921,149.812 c 0,0.482 -0.204,0.869 -0.456,0.869 h -3.228 c -0.252,0 -0.456,-0.387 -0.456,-0.869 0,-0.483 0.204,-0.881 0.456,-0.881 h 3.228 c 0.252,0 0.456,0.398 0.456,0.881 z"
       fill="#cdd5d7"
       id="path136" />
    <path
       d="M 15.324,148.931 H 12.42 c -0.1076,0.2 -0.1613,0.424 -0.156,0.652 0,0.494 0.204,0.88 0.456,0.88 h 2.304 c 0.252,0 0.456,-0.386 0.456,-0.88 0.0054,-0.228 -0.0484,-0.452 -0.156,-0.652 z"
       fill="#e5e8ec"
       id="path138" />
    <path
       d="m 12.6359,149.39 c -0.0128,-0.153 -0.0128,-0.306 0,-0.459 h -0.6 c -0.1099,0.195 -0.1639,0.416 -0.156,0.639 0,0.495 0.204,0.881 0.456,0.881 h 0.4921 c -0.1429,-0.334 -0.2086,-0.697 -0.1921,-1.061 z"
       fill="#b7bec0"
       id="path140" />
    <path
       d="m 15.7921,154.361 c 0,0.482 -0.204,0.881 -0.456,0.881 h -3.228 c -0.252,0 -0.456,-0.399 -0.456,-0.881 0,-0.483 0.204,-0.881 0.456,-0.881 h 3.228 c 0.252,0 0.456,0.398 0.456,0.881 z"
       fill="#cdd5d7"
       id="path142" />
    <path
       d="M 15.324,153.48 H 12.42 c -0.1075,0.204 -0.1612,0.433 -0.156,0.664 0,0.482 0.204,0.868 0.456,0.868 h 2.304 c 0.252,0 0.456,-0.386 0.456,-0.868 0.0053,-0.231 -0.0484,-0.46 -0.156,-0.664 z"
       fill="#e5e8ec"
       id="path144" />
    <path
       d="m 12.636,153.938 c -0.0123,-0.152 -0.0123,-0.305 0,-0.458 h -0.6 c -0.1092,0.199 -0.1631,0.424 -0.156,0.651 0,0.483 0.204,0.869 0.456,0.869 h 0.4921 c -0.1429,-0.335 -0.2086,-0.698 -0.1921,-1.062 z"
       fill="#b7bec0"
       id="path146" />
    <path
       d="m 15.7921,158.91 c 0,0.482 -0.204,0.88 -0.456,0.88 h -3.228 c -0.252,0 -0.456,-0.398 -0.456,-0.88 0,-0.483 0.204,-0.881 0.456,-0.881 h 3.228 c 0.252,0 0.456,0.398 0.456,0.881 z"
       fill="#cdd5d7"
       id="path148" />
    <path
       d="M 15.324,158.029 H 12.42 c -0.1075,0.204 -0.1612,0.432 -0.156,0.663 0,0.483 0.204,0.881 0.456,0.881 h 2.304 c 0.252,0 0.456,-0.398 0.456,-0.881 0.0053,-0.231 -0.0484,-0.459 -0.156,-0.663 z"
       fill="#e5e8ec"
       id="path150" />
    <path
       d="m 12.636,158.487 c -0.0123,-0.152 -0.0123,-0.306 0,-0.458 h -0.6 c -0.1092,0.199 -0.1631,0.424 -0.156,0.651 0,0.483 0.204,0.881 0.456,0.881 h 0.4921 c -0.1447,-0.338 -0.2105,-0.706 -0.1921,-1.074 z"
       fill="#b7bec0"
       id="path152" />
    <path
       d="m 111.087,47.1303 -65.5575,-4.839 -6.8809,93.2217 65.5574,4.839 z"
       fill="#e5e8ec"
       id="path154" />
    <path
       d="m 95.9195,124.484 -48.2408,-3.561 -0.0639,0.866 48.2407,3.561 z"
       fill="#b7bec0"
       id="path156" />
    <path
       d="m 97.0486,126.14 -49.4854,-3.653 -0.063,0.855 49.4854,3.652 z"
       fill="#b7bec0"
       id="path158" />
    <path
       d="m 95.8912,127.64 -48.4442,-3.576 -0.063,0.854 48.4442,3.576 z"
       fill="#b7bec0"
       id="path160" />
    <path
       d="m 76.6388,127.803 -29.3082,-2.163 -0.064,0.866 29.3083,2.164 z"
       fill="#b7bec0"
       id="path162" />
    <path
       d="m 99.9658,85.3161 -49.4734,-3.6518 -0.063,0.8544 49.4734,3.6517 z"
       fill="#b7bec0"
       id="path164" />
    <path
       d="m 99.239,86.8474 -48.863,-3.6067 -0.064,0.8664 48.8631,3.6067 z"
       fill="#b7bec0"
       id="path166" />
    <path
       d="m 99.7329,88.4687 -49.4734,-3.6517 -0.063,0.8544 49.4734,3.6517 z"
       fill="#b7bec0"
       id="path168" />
    <path
       d="M 99.6174,90.0331 50.144,86.3813 50.081,87.2357 99.5544,90.8875 Z"
       fill="#b7bec0"
       id="path170" />
    <path
       d="m 98.6874,91.5494 -48.6596,-3.5917 -0.0639,0.8664 48.6596,3.5917 z"
       fill="#b7bec0"
       id="path172" />
    <path
       d="m 99.3848,93.1859 -49.4734,-3.6518 -0.0631,0.8544 49.4734,3.6518 z"
       fill="#b7bec0"
       id="path174" />
    <path
       d="m 98.0359,94.6712 -48.2407,-3.5608 -0.0631,0.8544 48.2408,3.5607 z"
       fill="#b7bec0"
       id="path176" />
    <path
       d="M 99.1531,96.3265 49.6797,92.6748 49.6166,93.5291 99.09,97.1809 Z"
       fill="#b7bec0"
       id="path178" />
    <path
       d="m 98.0074,97.8269 -48.4442,-3.5757 -0.063,0.8543 48.4442,3.5758 z"
       fill="#b7bec0"
       id="path180" />
    <path
       d="m 96.5597,117.441 -48.4442,-3.576 -0.0222,0.301 48.4442,3.576 z"
       fill="#b7bec0"
       id="path182" />
    <path
       d="M 59.9664,96.6039 49.447,95.8274 49.384,96.6818 59.9033,97.4583 Z"
       fill="#b7bec0"
       id="path184" />
    <path
       d="m 100.996,71.3696 -32.0851,-2.3683 -0.0631,0.8544 32.0852,2.3682 z"
       fill="#b7bec0"
       id="path186" />
    <path
       d="m 99.7545,72.8629 -30.9598,-2.2852 -0.0631,0.8544 30.9598,2.2852 z"
       fill="#b7bec0"
       id="path188" />
    <path
       d="m 100.764,74.5102 -32.0848,-2.3683 -0.0631,0.8544 32.0849,2.3683 z"
       fill="#b7bec0"
       id="path190" />
    <path
       d="m 99.714,76.0177 -31.1513,-2.2994 -0.063,0.8544 31.1512,2.2993 z"
       fill="#b7bec0"
       id="path192" />
    <path
       d="m 77.2306,75.9431 -8.7841,-0.6484 -0.063,0.8544 8.7841,0.6483 z"
       fill="#b7bec0"
       id="path194" />
    <path
       d="m 101.727,61.4541 -49.4733,-3.6518 -0.0631,0.8544 49.4734,3.6517 z"
       fill="#b7bec0"
       id="path196" />
    <path
       d="m 93.2104,62.3982 -41.0722,-3.0316 -0.0631,0.8543 41.0723,3.0317 z"
       fill="#b7bec0"
       id="path198" />
    <path
       d="m 84.306,53.9251 -31.5941,-2.3321 -0.103,1.3959 31.594,2.332 z"
       fill="#969c9e"
       id="path200" />
    <path
       d="m 89.3144,67.422 -20.2968,-1.4981 -0.1031,1.3959 20.2968,1.4981 z"
       fill="#969c9e"
       id="path202" />
    <path
       d="m 98.3311,107.469 -32.0848,-2.368 -0.063,0.854 32.0847,2.369 z"
       fill="#b7bec0"
       id="path204" />
    <path
       d="m 97.0897,108.963 -30.9598,-2.286 -0.064,0.867 30.9598,2.285 z"
       fill="#b7bec0"
       id="path206" />
    <path
       d="m 98.0984,110.622 -32.0847,-2.368 -0.0631,0.854 32.0847,2.368 z"
       fill="#b7bec0"
       id="path208" />
    <path
       d="m 97.0485,112.13 -31.1513,-2.3 -0.063,0.855 31.1512,2.299 z"
       fill="#b7bec0"
       id="path210" />
    <path
       d="m 88.089,113.041 -22.3073,-1.646 -0.063,0.854 22.3073,1.646 z"
       fill="#b7bec0"
       id="path212" />
    <path
       d="m 54.536,117.037 -4.2364,-0.312 -0.0631,0.854 4.2365,0.313 z"
       fill="#b7bec0"
       id="path214" />
    <path
       d="m 62.829,117.65 -4.2365,-0.313 -0.063,0.854 4.2364,0.313 z"
       fill="#b7bec0"
       id="path216" />
    <path
       d="m 71.11,118.261 -4.2365,-0.313 -0.063,0.854 4.2364,0.313 z"
       fill="#b7bec0"
       id="path218" />
    <path
       d="m 79.4039,118.873 -4.2364,-0.313 -0.0631,0.855 4.2365,0.312 z"
       fill="#b7bec0"
       id="path220" />
    <path
       d="m 80.3779,103.071 -14.0258,-1.035 -0.1031,1.396 14.0259,1.035 z"
       fill="#969c9e"
       id="path222" />
    <path
       d="m 61.0129,73.1368 c -0.1659,0.4358 -0.425,0.8297 -0.7589,1.1539 l 2.0393,3.3446 c 1.2486,-0.9191 2.1547,-2.2326 2.5735,-3.7301 z"
       fill="#b7bec0"
       id="path224" />
    <path
       d="m 58.9882,68.9342 c 0.6259,0.1981 1.1739,0.5888 1.5668,1.1172 0.3928,0.5283 0.6105,1.1674 0.6224,1.8272 l 3.8575,0.7203 c 0,0 0.0062,-0.0842 0.0097,-0.1324 0.1245,-1.7504 -0.4051,-3.4841 -1.4852,-4.8616 -1.08,-1.3776 -2.6327,-2.3 -4.3543,-2.5868 z"
       fill="#484f59"
       id="path226" />
    <path
       d="m 55.9499,69.6779 c 0.4757,-0.4636 1.0891,-0.7583 1.7465,-0.839 l 0.2887,-3.9109 c -1.0031,0.0172 -1.9912,0.2507 -2.8971,0.6848 -0.906,0.4341 -1.7089,1.0586 -2.3544,1.8314 z"
       fill="#01c6da"
       id="path228" />
    <path
       d="m 59.1761,74.8766 c -0.3901,0.1384 -0.8034,0.1983 -1.2163,0.1764 -0.4103,-0.0287 -0.8109,-0.1384 -1.1789,-0.3228 -0.3681,-0.1843 -0.6963,-0.4398 -0.966,-0.7518 -0.2698,-0.312 -0.4756,-0.6745 -0.6059,-1.0666 -0.1304,-0.3922 -0.1826,-0.8063 -0.1537,-1.2189 0.0305,-0.3441 0.1164,-0.6809 0.2541,-0.9975 L 52.093,68.4617 c -0.7356,1.3093 -1.0349,2.8208 -0.854,4.3129 0.1809,1.4922 0.8325,2.8864 1.8594,3.9783 1.0268,1.0919 2.3748,1.824 3.8463,2.0891 1.4716,0.265 2.9893,0.049 4.3305,-0.6163 z"
       fill="#ff876c"
       id="path230" />
    <path
       d="m 50.8798,108.201 -2.4533,-0.181 -0.302,4.092 2.4534,0.181 z"
       fill="#484f59"
       id="path232" />
    <path
       d="m 54.8457,104.526 -2.4534,-0.181 -0.5924,8.026 2.4533,0.181 z"
       fill="#b7bec0"
       id="path234" />
    <path
       d="m 58.4279,106.206 -2.4533,-0.181 -0.4885,6.618 2.4533,0.181 z"
       fill="#ff876c"
       id="path236" />
    <path
       d="m 62.424,102.109 -2.4533,-0.181 -0.8109,10.986 2.4533,0.181 z"
       fill="#01c6da"
       id="path238" />
    <path
       d="m 49.5148,116.268 -1.6276,-0.121 -0.1208,1.637 1.6276,0.12 z"
       fill="#ff876c"
       id="path240" />
    <path
       d="m 57.7843,116.878 -1.6276,-0.12 -0.1208,1.636 1.6276,0.12 z"
       fill="#484f59"
       id="path242" />
    <path
       d="m 66.0538,117.488 -1.6275,-0.12 -0.1208,1.637 1.6275,0.12 z"
       fill="#b7bec0"
       id="path244" />
    <path
       d="m 74.3117,118.098 -1.6276,-0.12 -0.1208,1.636 1.6276,0.12 z"
       fill="#01c6da"
       id="path246" />
    <path
       d="m 4.09209,146.397 v -2.292 H 0.0480957 v 2.292 c 0,0.119 0.046812,0.232 0.1300783,0.316 0.083266,0.084 0.19616,0.131 0.313916,0.131 H 3.6481 c 0.05875,0.001 0.1172,-0.009 0.17182,-0.031 0.05462,-0.022 0.10426,-0.055 0.14583,-0.096 0.04156,-0.042 0.07422,-0.092 0.09594,-0.147 0.02173,-0.055 0.03206,-0.114 0.0304,-0.173 z"
       fill="#ff876c"
       id="path248" />
    <path
       d="m 3.53997,146.361 v -2.256 h -1.716 v 2.256 c 0.00154,0.029 0.00866,0.056 0.02095,0.082 0.0123,0.026 0.02958,0.049 0.05076,0.068 0.02118,0.019 0.0459,0.034 0.07273,0.043 0.02683,0.01 0.05519,0.014 0.08357,0.012 h 1.27199 c 0.02779,0.002 0.05566,-0.002 0.08182,-0.012 0.02615,-0.01 0.05008,-0.024 0.07031,-0.044 0.02023,-0.019 0.03632,-0.042 0.04731,-0.068 0.011,-0.025 0.0166,-0.053 0.01656,-0.081 z"
       fill="#ffa38f"
       id="path250" />
    <path
       d="M 0.996069,144.105 H 0.0480957 v 2.292 c 0,0.119 0.046812,0.232 0.1300783,0.316 0.083266,0.084 0.19616,0.131 0.313916,0.131 h 0.503979 z"
       fill="#e36e54"
       id="path252" />
    <path
       d="M 4.15208,136.406 V 71.7808 C 3.91393,71.808 3.69155,71.914 3.51992,72.0822 3.34829,72.2504 3.23719,72.4713 3.2041,72.7099 v 63.6961 z"
       fill="#30363d"
       id="path254" />
    <path
       d="M 0.947998,136.406 H 3.204 V 72.7099 C 3.16462,72.4406 3.03023,72.1945 2.82534,72.0165 2.62045,71.8386 2.35874,71.7407 2.08801,71.7407 c -0.27073,0 -0.53244,0.0979 -0.73733,0.2758 -0.20488,0.178 -0.33927,0.4241 -0.378659,0.6934 z"
       fill="#596273"
       id="path256" />
    <path
       d="M 0.947974,72.7099 C 0.91488,72.4713 0.803782,72.2504 0.632153,72.0822 0.460524,71.914 0.238142,71.808 0,71.7808 v 64.6252 h 0.947974 z"
       fill="#30363d"
       id="path258" />
    <path
       d="m 0,71.7808 c 0.237394,0.0291 0.458695,0.1358 0.629956,0.3037 0.171261,0.1678 0.282984,0.3876 0.318018,0.6254 0.039385,-0.2693 0.173776,-0.5154 0.378666,-0.6933 0.20488,-0.178 0.46659,-0.2759 0.73732,-0.2759 0.27074,0 0.53245,0.0979 0.73733,0.2759 0.20489,0.1779 0.33928,0.424 0.37867,0.6933 C 3.21305,72.4713 3.32415,72.2504 3.49578,72.0822 3.66741,71.914 3.88986,71.808 4.128,71.7808 L 2.05195,63.226 Z"
       fill="#e5e8ec"
       id="path260" />
    <path
       d="m 0,71.7808 c 0.237394,0.0291 0.458695,0.1358 0.629956,0.3037 0.171261,0.1678 0.282984,0.3876 0.318018,0.6254 0,-0.5309 1.115986,-9.4839 1.115986,-9.4839 z"
       fill="#cdd5d7"
       id="path262" />
    <path
       d="M 4.12793,136.346 H 0.0239258 v 7.843 H 4.12793 Z"
       fill="#f0ca67"
       id="path264" />
    <path
       d="m 2.77213,136.346 h -0.84 v 7.843 h 0.84 z"
       fill="#f4da80"
       id="path266" />
    <path
       d="m 1.4519,65.8081 c 0.19581,0.0125 0.39219,0.0125 0.58799,0 0.21962,0.0185 0.44044,0.0185 0.66006,0 l -0.62402,-2.57 z"
       fill="#30363d"
       id="path268" />
    <path
       d="m 4.01986,137.167 h -0.264 v 1.134 h 0.264 z"
       fill="#f4da80"
       id="path270" />
    <path
       d="m 3.42001,137.167 h -0.264 v 1.134 h 0.264 z"
       fill="#f4da80"
       id="path272" />
    <path
       d="m 2.80795,137.167 h -0.264 v 1.134 h 0.264 z"
       fill="#f0ca67"
       id="path274" />
    <path
       d="m 2.20809,137.167 h -0.264 v 1.134 h 0.264 z"
       fill="#f0ca67"
       id="path276" />
    <path
       d="m 1.60799,137.167 h -0.264 v 1.134 h 0.264 z"
       fill="#f4da80"
       id="path278" />
    <path
       d="M 1.0079,137.167 H 0.743896 v 1.134 H 1.0079 Z"
       fill="#f4da80"
       id="path280" />
    <path
       d="m 0.408043,137.167 h -0.264 v 1.134 h 0.264 z"
       fill="#f4da80"
       id="path282" />
    <path
       d="m 4.01986,141.969 h -0.264 v 1.134 h 0.264 z"
       fill="#f4da80"
       id="path284" />
    <path
       d="m 3.42001,141.969 h -0.264 v 1.134 h 0.264 z"
       fill="#f4da80"
       id="path286" />
    <path
       d="m 2.80795,141.969 h -0.264 v 1.134 h 0.264 z"
       fill="#f0ca67"
       id="path288" />
    <path
       d="m 2.20809,141.969 h -0.264 v 1.134 h 0.264 z"
       fill="#f0ca67"
       id="path290" />
    <path
       d="m 1.60799,141.969 h -0.264 v 1.134 h 0.264 z"
       fill="#f4da80"
       id="path292" />
    <path
       d="M 1.0079,141.969 H 0.743896 v 1.134 H 1.0079 Z"
       fill="#f4da80"
       id="path294" />
    <path
       d="m 0.408043,141.969 h -0.264 v 1.134 h 0.264 z"
       fill="#f4da80"
       id="path296" />
  </g>
  <defs
     id="defs303">
    <clipPath
       id="clip0_344_9730">
      <rect
         width="147"
         height="163"
         fill="#ffffff"
         id="rect300"
         x="0"
         y="0" />
    </clipPath>
  </defs>
</svg>
