<svg width="200" height="180" viewBox="0 0 200 180" fill="none" xmlns="http://www.w3.org/2000/svg">
<g clip-path="url(#clip0_7:817)">
<path d="M71.2892 117.119C71.2987 118.905 69.1403 119.807 67.8763 118.545L62.0577 112.737C61.6828 112.363 61.1746 112.152 60.6448 112.152H33C31.8954 112.152 31 111.257 31 110.152V80.1779C31 79.0733 31.8954 78.1779 33 78.1779H78.267C79.3715 78.1779 80.267 79.0733 80.267 80.1779V110.152C80.267 111.257 79.3716 112.152 78.267 112.152H73.2734C72.1646 112.152 71.2675 113.054 71.2734 114.163L71.2892 117.119ZM32.0535 109.101C32.0506 110.207 32.9469 111.106 34.0535 111.106H61.0851C61.6149 111.106 62.123 111.316 62.498 111.691L66.8854 116.07C68.1458 117.328 70.2983 116.435 70.2983 114.655V113.106C70.2983 112.002 71.1937 111.106 72.2983 111.106H77.3026C78.4072 111.106 79.3026 110.211 79.3026 109.106V81.2242C79.3026 80.1196 78.4072 79.2242 77.3026 79.2242H34.1268C33.0243 79.2242 32.1297 80.1164 32.1268 81.2189L32.0535 109.101Z" fill="#F7F8FC"/>
<path d="M164.413 74.4634H130.861C128.652 74.4634 126.861 76.2542 126.861 78.4634V99.9178C126.861 102.127 128.652 103.918 130.861 103.918H164.413C166.622 103.918 168.413 102.127 168.413 99.9178V78.4634C168.413 76.2542 166.622 74.4634 164.413 74.4634Z" fill="#484F59"/>
<path d="M156.239 108.327C154.978 109.585 152.826 108.693 152.826 106.912V100.508C152.826 99.4036 153.721 98.5082 154.826 98.5082H161.241C163.023 98.5082 163.915 100.664 162.654 101.924L156.239 108.327Z" fill="#484F59"/>
<path d="M159.797 84.1943H133.842V86.716H159.797V84.1943Z" fill="#969696"/>
<path d="M159.797 90.9119H133.842V93.4335H159.797V90.9119Z" fill="#969696"/>
<path d="M113.798 121.339L114.552 112.194C115.422 111.326 111.848 105.916 112.016 104.818L106.408 112.655L98.2314 121.339H113.798Z" fill="white"/>
<path d="M111.382 117.434C112.351 118.809 114.481 118.445 114.94 116.827L115.975 113.173C116.026 112.996 116.051 112.812 116.051 112.628V106.774C116.051 105.329 115.476 103.942 114.452 102.92C113.427 101.897 112.038 101.323 110.59 101.323H110.504C109.399 101.323 108.504 102.218 108.504 103.323V112.721C108.504 113.134 108.632 113.537 108.87 113.874L111.382 117.434Z" fill="white"/>
<path d="M77.3005 149.214H112.825C113.681 149.214 114.528 149.045 115.319 148.718C116.109 148.391 116.827 147.911 117.432 147.307C118.036 146.702 118.516 145.985 118.842 145.195C119.169 144.406 119.336 143.56 119.335 142.706V132.138C119.335 130.413 118.649 128.759 117.429 127.539C116.208 126.319 114.553 125.632 112.825 125.629H77.3005V149.214Z" fill="#F4DA80"/>
<path d="M95.3171 121.716H75.5684V153.797H95.3171V121.716Z" fill="#E5E8EC"/>
<path d="M95.3171 137.777H74.583V153.797H95.3171V137.777Z" fill="#CDD5D7"/>
<path d="M90.799 137.777H73V155.01H90.799V137.777Z" fill="#30363D"/>
<path d="M90.799 120.513H73V137.767H90.799V120.513Z" fill="#484F59"/>
<path d="M87.5912 149.308C87.5912 149.703 87.4738 150.09 87.2538 150.418C87.0338 150.747 86.7211 151.003 86.3552 151.154C85.9894 151.306 85.5868 151.345 85.1984 151.268C84.8101 151.191 84.4533 151.001 84.1733 150.721C83.8933 150.442 83.7026 150.085 83.6254 149.698C83.5481 149.31 83.5878 148.908 83.7393 148.543C83.8909 148.178 84.1475 147.866 84.4767 147.646C84.806 147.427 85.1931 147.309 85.5891 147.309C86.1192 147.312 86.6268 147.524 87.0017 147.898C87.3766 148.272 87.5884 148.779 87.5912 149.308Z" fill="#CDD5D7"/>
<path d="M136.544 127.502H130.642C130.62 126.9 130.542 126.301 130.412 125.713H136.701C137.223 125.781 137.754 125.738 138.258 125.585C138.761 125.432 139.227 125.174 139.623 124.827C140.019 124.481 140.336 124.054 140.553 123.575C140.77 123.096 140.883 122.576 140.883 122.051C140.883 121.525 140.77 121.006 140.553 120.527C140.336 120.048 140.019 119.621 139.623 119.274C139.227 118.928 138.761 118.669 138.258 118.517C137.754 118.364 137.223 118.32 136.701 118.389H121.481H121.061H105.453C102.906 118.389 100.462 119.398 98.6599 121.195C96.8575 122.992 95.8436 125.43 95.8408 127.973V143.563C95.8436 146.106 96.8575 148.544 98.6599 150.341C100.462 152.138 102.906 153.148 105.453 153.148H129.311C130.195 153.144 131.048 152.823 131.715 152.244C132.382 151.666 132.818 150.867 132.945 149.994C133.072 149.121 132.881 148.231 132.406 147.487C131.932 146.743 131.205 146.193 130.359 145.939C130.507 145.341 130.602 144.732 130.642 144.118H133.179C134.16 144.118 135.101 143.729 135.795 143.036C136.489 142.344 136.879 141.404 136.879 140.424C136.879 139.445 136.489 138.505 135.795 137.813C135.101 137.12 134.16 136.731 133.179 136.731H130.663V134.952H136.544C137.49 134.902 138.38 134.491 139.032 133.805C139.684 133.119 140.047 132.209 140.047 131.264C140.047 130.318 139.684 129.409 139.032 128.722C138.38 128.036 137.49 127.626 136.544 127.575V127.502Z" fill="white"/>
<path d="M130.945 47.8655H77.4513C74.1376 47.8655 71.4513 50.5518 71.4513 53.8655V88.2915C71.4513 91.6052 74.1376 94.2915 77.4513 94.2915H130.945C134.259 94.2915 136.945 91.6052 136.945 88.2915V53.8655C136.945 50.5518 134.259 47.8655 130.945 47.8655Z" fill="#F7F8FC"/>
<path d="M92.5985 103.2C93.859 104.458 96.0114 103.566 96.0114 101.785V87.7638C96.0114 86.6592 95.116 85.7638 94.0114 85.7638H79.9652C78.1826 85.7638 77.2906 87.9199 78.5523 89.1793L92.5985 103.2Z" fill="#F7F8FC"/>
<path d="M126.505 62.0747H81.8917V64.9207H126.505V62.0747Z" fill="#B7BEC0"/>
<path d="M126.505 69.6503H81.8917V72.4963H126.505V69.6503Z" fill="#B7BEC0"/>
<path d="M126.505 77.2362H81.8917V80.0822H126.505V77.2362Z" fill="#B7BEC0"/>
<path d="M55.3353 70.5776V62.01C55.3353 61.7205 55.1007 61.4858 54.8112 61.4858C54.5218 61.4858 54.2871 61.7205 54.2871 62.01V70.5776C54.2871 70.867 54.5218 71.1017 54.8112 71.1017C55.1007 71.1017 55.3353 70.867 55.3353 70.5776Z" fill="white" stroke="white" stroke-width="2"/>
<path d="M59.1101 65.7654H50.5232C50.2342 65.7654 50 65.9996 50 66.2885C50 66.5775 50.2342 66.8117 50.5232 66.8117H59.1101C59.399 66.8117 59.6333 66.5775 59.6333 66.2885C59.6333 65.9996 59.399 65.7654 59.1101 65.7654Z" fill="white" stroke="white" stroke-width="2"/>
<path d="M131.113 41.0917V32.5241C131.113 32.2347 130.878 32 130.589 32C130.299 32 130.064 32.2347 130.064 32.5241V41.0917C130.064 41.3812 130.299 41.6158 130.589 41.6158C130.878 41.6158 131.113 41.3812 131.113 41.0917Z" fill="#E76DFF" stroke="#E76DFF" stroke-width="2"/>
<path d="M134.877 36.2795H126.29C126.001 36.2795 125.767 36.5138 125.767 36.8027C125.767 37.0916 126.001 37.3259 126.29 37.3259H134.877C135.166 37.3259 135.4 37.0916 135.4 36.8027C135.4 36.5138 135.166 36.2795 134.877 36.2795Z" fill="#E76DFF" stroke="#E76DFF" stroke-width="2"/>
<path d="M152.947 62.8869V54.3193C152.947 54.0298 152.712 53.7952 152.423 53.7952C152.133 53.7952 151.898 54.0298 151.898 54.3193V62.8869C151.898 63.1764 152.133 63.411 152.423 63.411C152.712 63.411 152.947 63.1764 152.947 62.8869Z" fill="white" stroke="white" stroke-width="2"/>
<path d="M156.711 58.0747H148.124C147.835 58.0747 147.601 58.3089 147.601 58.5979C147.601 58.8868 147.835 59.121 148.124 59.121H156.711C157 59.121 157.234 58.8868 157.234 58.5979C157.234 58.3089 157 58.0747 156.711 58.0747Z" fill="white" stroke="white" stroke-width="2"/>
<path d="M58.5531 141.08V132.512C58.5531 132.223 58.3185 131.988 58.029 131.988C57.7395 131.988 57.5049 132.223 57.5049 132.512V141.08C57.5049 141.369 57.7395 141.604 58.029 141.604C58.3185 141.604 58.5531 141.369 58.5531 141.08Z" fill="#E76DFF" stroke="#E76DFF" stroke-width="2"/>
<path d="M62.3181 136.278H53.7312C53.4422 136.278 53.208 136.512 53.208 136.801C53.208 137.09 53.4422 137.324 53.7312 137.324H62.3181C62.607 137.324 62.8413 137.09 62.8413 136.801C62.8413 136.512 62.607 136.278 62.3181 136.278Z" fill="#E76DFF" stroke="#E76DFF" stroke-width="2"/>
<path d="M68.5478 88.8715H40.7277V89.9178H68.5478V88.8715Z" fill="#F7F8FC"/>
<path d="M68.5478 94.4275H40.7277V95.4738H68.5478V94.4275Z" fill="#F7F8FC"/>
<path d="M68.5478 99.9835H40.7277V101.03H68.5478V99.9835Z" fill="#F7F8FC"/>
<path d="M149.719 143.573C149.523 143.799 149.172 143.798 148.976 143.573L146.14 140.308C145.486 139.555 145.487 138.435 146.142 137.683L148.976 134.426C149.172 134.201 149.522 134.201 149.719 134.426V134.426C149.88 134.612 149.88 134.888 149.718 135.073L147.442 137.681C146.785 138.434 146.784 139.556 147.44 140.309L149.719 142.927C149.88 143.112 149.88 143.388 149.719 143.573V143.573Z" fill="white" stroke="white" stroke-width="2"/>
<path d="M160.5 139H147.5C147.224 139 147 139.224 147 139.5C147 139.776 147.224 140 147.5 140H160.5C160.776 140 161 139.776 161 139.5C161 139.224 160.776 139 160.5 139Z" fill="white" stroke="white" stroke-width="2"/>
<path d="M158.024 134.573C157.828 134.798 157.477 134.799 157.281 134.573V134.573C157.12 134.388 157.12 134.112 157.281 133.927L159.56 131.309C160.216 130.556 160.215 129.434 159.558 128.681L157.282 126.073C157.12 125.888 157.12 125.612 157.281 125.426V125.426C157.478 125.201 157.828 125.201 158.024 125.426L160.858 128.683C161.513 129.435 161.514 130.555 160.86 131.308L158.024 134.573Z" fill="white" stroke="white" stroke-width="2"/>
<path d="M159.5 129H146.5C146.224 129 146 129.224 146 129.5C146 129.776 146.224 130 146.5 130H159.5C159.776 130 160 129.776 160 129.5C160 129.224 159.776 129 159.5 129Z" fill="white" stroke="white" stroke-width="2"/>
</g>
<defs>
<clipPath id="clip0_7:817">
<rect width="138" height="126" fill="white" transform="translate(31 29)"/>
</clipPath>
</defs>
</svg>
