<svg width="267" height="216" viewBox="0 0 267 216" fill="none" xmlns="http://www.w3.org/2000/svg">
<path d="M93.0424 56.3163H31.31C31.2763 56.3163 31.243 56.3091 31.2123 56.2951C31.1816 56.2812 31.1543 56.2608 31.1321 56.2354C31.1112 56.2086 31.0959 56.1779 31.087 56.1451C31.0781 56.1123 31.0759 56.0781 31.0804 56.0444L39.994 0.194196C40.0033 0.139346 40.0318 0.0896175 40.0745 0.0540054C40.1172 0.0183934 40.1713 -0.000754373 40.2269 2.27586e-05H84.1255C84.1811 -0.000754373 84.2351 0.0183934 84.2778 0.0540054C84.3205 0.0896175 84.3491 0.139346 84.3584 0.194196L93.2752 56.0444C93.2797 56.0781 93.2774 56.1123 93.2686 56.1451C93.2597 56.1779 93.2444 56.2086 93.2235 56.2354C93.201 56.2612 93.1731 56.2818 93.1418 56.2958C93.1105 56.3098 93.0766 56.3167 93.0424 56.3163ZM31.5914 55.847H92.7674L83.9282 0.466036H40.4241L31.5914 55.847Z" fill="#CCCCCC"/>
<path d="M65.7212 156.79H58.9907C58.9289 156.79 58.8697 156.766 58.826 156.722C58.7823 156.678 58.7578 156.619 58.7578 156.557V56.2125C58.7578 56.1507 58.7823 56.0914 58.826 56.0477C58.8697 56.004 58.9289 55.9795 58.9907 55.9795H65.7309C65.7929 55.9795 65.8525 56.0039 65.8967 56.0475C65.9409 56.0911 65.9661 56.1504 65.967 56.2125V156.557C65.9666 156.589 65.9599 156.62 65.9472 156.649C65.9345 156.678 65.9162 156.704 65.8933 156.726C65.8704 156.747 65.8433 156.764 65.8138 156.775C65.7842 156.786 65.7527 156.792 65.7212 156.79ZM59.2138 156.324H65.4883V56.4487H59.2138V156.324Z" fill="#CCCCCC"/>
<path d="M46.7758 80.4226C46.7141 80.4226 46.6548 80.398 46.6112 80.3543C46.5675 80.3106 46.543 80.2514 46.543 80.1896V56.3324C46.543 56.2706 46.5675 56.2113 46.6112 56.1676C46.6548 56.1239 46.7141 56.0994 46.7758 56.0994C46.8376 56.0994 46.8968 56.1239 46.9405 56.1676C46.9842 56.2113 47.0087 56.2706 47.0087 56.3324V80.1896C47.0087 80.2514 46.9842 80.3106 46.9405 80.3543C46.8968 80.398 46.8376 80.4226 46.7758 80.4226Z" fill="#CCCCCC"/>
<path d="M46.8511 84.3222C46.4192 84.3222 45.997 84.194 45.6379 83.9539C45.2788 83.7137 44.999 83.3723 44.8338 82.973C44.6687 82.5737 44.6257 82.1343 44.7102 81.7105C44.7947 81.2866 45.0029 80.8974 45.3085 80.592C45.6142 80.2867 46.0035 80.0789 46.4272 79.9949C46.8509 79.911 47.2899 79.9548 47.6888 80.1206C48.0876 80.2864 48.4284 80.5669 48.6679 80.9266C48.9074 81.2862 49.0349 81.7089 49.0342 82.141C49.0342 82.4278 48.9777 82.7117 48.868 82.9765C48.7582 83.2413 48.5974 83.4819 48.3946 83.6845C48.1918 83.8871 47.9512 84.0477 47.6863 84.1571C47.4215 84.2666 47.1376 84.3227 46.8511 84.3222ZM46.8511 80.4388C46.5121 80.4388 46.1807 80.5394 45.8988 80.7279C45.6169 80.9163 45.3972 81.1842 45.2674 81.4976C45.1377 81.811 45.1037 82.1559 45.1699 82.4886C45.236 82.8213 45.3993 83.1269 45.639 83.3668C45.8787 83.6067 46.1842 83.77 46.5167 83.8362C46.8492 83.9024 47.1939 83.8684 47.5071 83.7386C47.8203 83.6088 48.088 83.389 48.2764 83.1069C48.4647 82.8248 48.5653 82.4932 48.5653 82.154C48.567 81.9277 48.5239 81.7032 48.4385 81.4936C48.3531 81.2841 48.2271 81.0934 48.0678 80.9328C47.9084 80.7722 47.7189 80.6447 47.5101 80.5576C47.3013 80.4706 47.0773 80.4259 46.8511 80.4259V80.4388Z" fill="#999999"/>
<path d="M65.7863 56.177H58.9297V59.1414H65.7863V56.177Z" fill="#ECECEC"/>
<path d="M156.565 73.7527H120.765C120.704 73.7527 120.645 73.7285 120.602 73.6854C120.559 73.6423 120.535 73.5839 120.535 73.523V30.7307C120.535 30.6698 120.559 30.6114 120.602 30.5683C120.645 30.5252 120.704 30.501 120.765 30.501H156.565C156.626 30.501 156.684 30.5252 156.727 30.5683C156.77 30.6114 156.794 30.6698 156.794 30.7307V73.5262C156.794 73.5866 156.769 73.6442 156.726 73.6866C156.683 73.729 156.625 73.7527 156.565 73.7527ZM120.988 73.2932H156.342V30.9573H120.985L120.988 73.2932Z" fill="#CCCCCC"/>
<path d="M148.109 40.187H129.211V64.0734H148.109V40.187Z" fill="#ECECEC"/>
<path d="M155.207 91.0244H238.078C240.696 91.0244 243.207 92.065 245.058 93.9173C246.909 95.7696 247.949 98.2818 247.949 100.901V164.91H145.336V100.905C145.336 99.6072 145.591 98.3225 146.086 97.1238C146.582 95.9251 147.309 94.8359 148.226 93.9184C149.143 93.0009 150.231 92.2731 151.429 91.7766C152.627 91.28 153.91 91.0244 155.207 91.0244Z" fill="#CADBE5"/>
<path d="M52.7538 91.0244H135.625C138.243 91.0244 140.754 92.065 142.605 93.9173C144.456 95.7696 145.496 98.2818 145.496 100.901V164.91H42.8828V100.905C42.8824 99.6072 43.1374 98.3225 43.6333 97.1238C44.1291 95.9251 44.8562 94.8359 45.7728 93.9184C46.6895 93.0009 47.7778 92.2731 48.9756 91.7766C50.1734 91.28 51.4572 91.0244 52.7538 91.0244Z" fill="#CADBE5"/>
<path d="M66.0156 159.525H34.1873V137.603C34.1898 135.327 35.0952 133.144 36.7046 131.535C38.314 129.926 40.4958 129.022 42.771 129.021H57.4287C59.7061 129.021 61.8902 129.926 63.5006 131.537C65.1109 133.149 66.0156 135.334 66.0156 137.613V159.525Z" fill="#B2C7D1"/>
<path d="M50.2865 159.311C60.8358 157.45 67.8798 147.384 66.0197 136.829C64.1595 126.273 54.0997 119.225 43.5504 121.086C33.0011 122.947 25.9571 133.013 27.8173 143.569C29.6774 154.125 39.7372 161.173 50.2865 159.311Z" fill="#B2C7D1"/>
<path d="M34.0547 157.373H256.352V172.638C256.352 176.112 254.973 179.444 252.517 181.901C250.062 184.358 246.732 185.738 243.26 185.738H47.147C43.6747 185.738 40.3446 184.358 37.8893 181.901C35.4341 179.444 34.0547 176.112 34.0547 172.638V157.373Z" fill="#B2C7D1"/>
<path d="M233.314 129.011H247.968C250.245 129.011 252.43 129.916 254.04 131.528C255.65 133.139 256.555 135.324 256.555 137.603V159.525H224.727V137.603C224.727 135.324 225.631 133.139 227.242 131.528C228.852 129.916 231.036 129.011 233.314 129.011Z" fill="#B2C7D1"/>
<path d="M262.784 144.29C265.048 133.814 258.395 123.485 247.925 121.22C237.455 118.955 227.132 125.611 224.868 136.088C222.605 146.564 229.257 156.893 239.727 159.158C250.197 161.423 260.52 154.767 262.784 144.29Z" fill="#B2C7D1"/>
<path d="M233.614 195.657H55.5678C52.7977 195.657 50.141 194.556 48.182 192.597C46.223 190.637 45.122 187.979 45.1211 185.208H244.057C244.057 187.979 242.957 190.637 240.998 192.597C239.04 194.556 236.384 195.657 233.614 195.657Z" fill="#292960"/>
<path d="M53.593 214.566H51.6363C48.3082 214.566 46.9595 211.867 48.6219 208.534L55.0581 195.657H69.0689L62.6327 208.534C60.9703 211.867 56.921 214.566 53.593 214.566Z" fill="#292960"/>
<path d="M234.968 214.566H236.909C240.237 214.566 241.585 211.867 239.923 208.534L233.487 195.657H219.492L225.928 208.534C227.591 211.867 231.64 214.566 234.968 214.566Z" fill="#292960"/>
<path d="M98.0254 147.257C96.9484 147.257 90.2147 148.393 90.2147 148.393C90.2147 148.393 89.9915 153.927 91.5084 155.454L97.8022 154.842L98.0254 147.257Z" fill="#E29C40"/>
<path d="M90.7056 152.632C90.2431 150.121 92.9696 147.376 94.6191 146.004C94.9699 145.709 95.2359 145.325 95.3899 144.893C95.5439 144.461 95.5804 143.995 95.4956 143.545C95.3403 142.687 93.1443 141.972 92.5847 141.308L89.6739 136.195C88.6609 134.353 87.0312 132.928 85.0716 132.169C83.6197 131.628 82.0484 131.489 80.5242 131.768L78.6289 132.118L83.3121 157.619L91.8635 156.046C91.9104 156.039 91.9547 156.02 91.992 155.991C92.0294 155.962 92.0585 155.924 92.0764 155.88C92.0944 155.836 92.1007 155.789 92.0945 155.742C92.0883 155.695 92.07 155.65 92.0414 155.612C91.3606 154.742 90.9021 153.719 90.7056 152.632Z" fill="#405C9B"/>
<path d="M84.1153 157.443L78.8672 132.019L77.4419 132.313L82.6899 157.737L84.1153 157.443Z" fill="#3D3D7F"/>
<path d="M206.374 143.289C205.942 139.699 204.103 136.428 201.26 134.196C198.418 131.963 194.806 130.951 191.219 131.383L146.741 136.745C146.458 136.715 146.175 136.699 145.89 136.697H145.567H145.505H145.415L145.237 136.716L144.878 136.758C144.755 136.758 144.629 136.788 144.555 136.8L143.584 136.962L141.825 137.302L138.439 137.998L131.76 139.448L118.499 142.386L94.2262 147.888L93.7734 155.331L120.136 152.904L133.623 151.723L140.337 151.179L143.652 150.939L145.25 150.846H145.505C146.11 150.9 146.719 150.875 147.317 150.771L190.491 158.347C191.808 158.573 193.151 158.609 194.479 158.454C196.255 158.24 197.972 157.678 199.531 156.8C201.091 155.923 202.462 154.746 203.567 153.338C204.671 151.929 205.488 150.317 205.97 148.593C206.451 146.869 206.589 145.066 206.374 143.289Z" fill="#292960"/>
<path d="M98.2275 146.276L93.7998 147.266L93.6445 156.079L97.8523 156.842L98.2275 146.276Z" fill="#3D3D7F"/>
<path d="M194.642 97.9208C194.88 97.5942 195.08 97.2413 195.237 96.8691C195.279 96.7752 195.315 96.6814 195.35 96.5875L195.373 96.5228C195.373 96.5228 195.353 96.5228 195.34 96.5422L195.176 96.9079L194.817 97.8076L194.089 99.7299L192.643 103.672L189.79 111.633L184.147 127.616C183.874 128.39 183.322 129.035 182.6 129.425C181.878 129.815 181.036 129.921 180.24 129.724C179.443 129.527 178.749 129.04 178.291 128.359C177.834 127.677 177.646 126.849 177.765 126.037L180.224 109.209L181.498 100.795L182.171 96.5616L182.536 94.4031L182.746 93.2704L182.885 92.6232L183.018 92.141L183.054 92.0213V91.9889L183.083 91.9048C183.128 91.7915 183.173 91.6782 183.222 91.5811C183.416 91.1291 183.651 90.6958 183.924 90.2867C184.935 88.864 186.47 87.9017 188.19 87.6113C189.91 87.3209 191.676 87.7262 193.098 88.7381C194.519 89.7501 195.481 91.2857 195.771 93.0072C196.062 94.7286 195.656 96.495 194.645 97.9176L194.642 97.9208Z" fill="#EBBB7B"/>
<path d="M115.981 135.888C114.739 136.577 107.637 142.13 107.637 142.13C107.637 142.13 110.871 148.693 113.581 149.509L120.486 144.842L115.981 135.888Z" fill="#F2CA95"/>
<path d="M153.117 67.2237L150.397 67.6431C150.219 67.6706 150.096 67.8375 150.124 68.0159L153.15 87.664C153.177 87.8424 153.344 87.9647 153.522 87.9372L156.243 87.5178C156.421 87.4903 156.543 87.3234 156.516 87.145L153.49 67.4969C153.462 67.3185 153.296 67.1962 153.117 67.2237Z" fill="#333966"/>
<path d="M234.164 87.2184C234.111 83.2902 232.88 79.4684 230.631 76.2481C228.382 73.0278 225.219 70.5575 221.55 69.1572C221.618 68.5902 221.649 68.0194 221.641 67.4485C221.612 65.4067 221.096 63.4014 220.135 61.5999C219.175 59.7983 217.797 58.2528 216.118 57.0922C214.439 55.9316 212.507 55.1896 210.483 54.9282C208.459 54.6667 206.402 54.8933 204.483 55.5891C202.565 56.285 200.84 57.4298 199.454 58.9281C198.067 60.4264 197.059 62.2348 196.513 64.2023C195.967 66.1699 195.899 68.2395 196.315 70.2386C196.731 72.2377 197.619 74.1083 198.904 75.6943C197.026 78.1894 195.772 81.0974 195.244 84.176C194.717 87.2547 194.933 90.4148 195.874 93.3931C193.968 95.2104 192.54 97.4706 191.718 99.973C190.895 102.475 190.704 105.142 191.159 107.737C191.615 110.331 192.704 112.773 194.33 114.844C195.956 116.916 198.069 118.554 200.479 119.612C202.89 120.67 205.525 121.116 208.15 120.909C210.774 120.703 213.307 119.851 215.524 118.43C217.74 117.008 219.571 115.06 220.853 112.76C222.136 110.46 222.831 107.878 222.877 105.244C226.292 103.644 229.173 101.093 231.175 97.8955C233.177 94.6983 234.215 90.991 234.164 87.2184Z" fill="#B10FC1"/>
<path d="M221.845 90.8227C224.621 82.4381 220.078 73.389 211.699 70.6112C203.319 67.8334 194.276 72.3786 191.499 80.7633C188.723 89.148 193.266 98.1969 201.645 100.975C210.025 103.753 219.069 99.2074 221.845 90.8227Z" fill="#B10FC1"/>
<path d="M188.287 47.3417L195.56 47.2426C197.81 47.2119 199.981 48.0771 201.594 49.6478C203.207 51.2185 204.131 53.366 204.161 55.618L204.447 76.6513L188.688 76.866C186.438 76.8966 184.267 76.0315 182.654 74.4608C181.041 72.8901 180.118 70.7425 180.087 68.4906L179.916 55.9483C179.886 53.6963 180.75 51.5244 182.32 49.9104C183.89 48.2963 186.036 47.3723 188.287 47.3417Z" fill="#F2CA95"/>
<path d="M200.559 75.4465L190.355 76.3469L190.907 82.6073L201.111 81.7069L200.559 75.4465Z" fill="#F2CA95"/>
<path d="M187.288 45.3521C182.308 45.4201 178.284 48.0025 178.148 55.9927L196.716 55.7403C196.364 47.7566 192.272 45.2744 187.288 45.3521Z" fill="#B10FC1"/>
<path d="M199.411 48.0025H199.324C197.998 47.226 196.485 46.8266 194.948 46.8472L187.674 46.9475C186.149 46.9651 184.657 47.3941 183.355 48.1892C182.053 48.9843 180.99 50.1161 180.277 51.4653C181.979 51.5623 183.633 51.7198 185.242 51.9377C186.637 52.1369 187.919 52.8159 188.868 53.8583C189.817 54.9007 190.374 56.2412 190.443 57.6496V57.7596C190.572 59.5312 191.216 61.2261 192.297 62.6355C193.377 64.0448 194.846 65.1068 196.523 65.6905C198.199 66.2741 200.01 66.3539 201.731 65.9199C203.453 65.486 205.009 64.5572 206.209 63.2484C207.41 61.9395 208.2 60.3078 208.484 58.5545C208.769 56.8011 208.533 55.003 207.808 53.3818C207.083 51.7606 205.899 50.3873 204.403 49.4314C202.907 48.4755 201.164 47.9788 199.389 48.0025H199.411Z" fill="#B10FC1"/>
<path d="M209.387 83.8627L199.7 81.8466L199.594 61.9537L209.09 61.8242L209.387 83.8627Z" fill="#B10FC1"/>
<path d="M196.987 69.0529C199.124 68.9416 200.766 67.1179 200.655 64.9796C200.544 62.8413 198.721 61.1981 196.584 61.3094C194.447 61.4207 192.805 63.2444 192.916 65.3827C193.028 67.521 194.85 69.1642 196.987 69.0529Z" fill="#F2CA95"/>
<path d="M203.886 125.169L188.335 125.972L181.773 101.277C181.216 99.5505 181.062 97.7199 181.322 95.925C181.581 94.13 182.248 92.4182 183.27 90.9208L190.991 81.9695L199.164 81.2478L203.194 85.7979C204.66 88.171 205.721 90.7718 206.334 93.4936C207.37 97.9941 207.336 102.675 206.234 107.16L203.886 125.169Z" fill="#F2CA95"/>
<path d="M183.95 154.981L147.672 124.561C146.284 123.399 145.358 121.778 145.061 119.992C144.763 118.207 145.113 116.373 146.047 114.823C146.982 113.273 148.44 112.108 150.158 111.539C151.875 110.97 153.74 111.034 155.414 111.72L199.2 129.658C202.836 131.181 205.723 134.08 207.232 137.724C208.742 141.367 208.75 145.46 207.257 149.11C205.763 152.76 202.889 155.672 199.259 157.211C195.63 158.749 191.54 158.79 187.88 157.324C186.461 156.744 185.136 155.954 183.95 154.981Z" fill="#333372"/>
<path d="M208.433 141.729L181.66 134.865L187.922 121.092L203.999 122.357L208.433 141.729Z" fill="#333372"/>
<path d="M164.043 114.636C164.052 114.724 164.077 114.809 164.117 114.888C164.117 114.888 164.117 114.914 164.133 114.914V114.875L164.114 114.798L164.069 114.642C164.007 114.429 163.959 114.238 163.888 113.995L163.467 112.633L162.594 109.869L160.799 104.319L157.151 93.2186C156.987 92.736 157.011 92.2092 157.218 91.7437C157.426 91.2782 157.801 90.9082 158.27 90.7078C158.738 90.5074 159.265 90.4913 159.745 90.6629C160.224 90.8344 160.622 91.1808 160.857 91.6329L166.355 101.963L169.091 107.141L170.45 109.759L171.129 111.095C171.242 111.309 171.362 111.571 171.478 111.814L171.566 111.995L171.611 112.089L171.63 112.134L171.676 112.244C171.792 112.568 171.892 112.872 171.98 113.189C172.091 113.717 172.095 114.262 171.992 114.791C171.888 115.321 171.68 115.824 171.379 116.272C171.079 116.719 170.691 117.102 170.24 117.397C169.789 117.692 169.283 117.894 168.753 117.99C168.222 118.087 167.678 118.075 167.152 117.958C166.626 117.84 166.129 117.618 165.69 117.304C165.251 116.991 164.88 116.593 164.597 116.133C164.315 115.674 164.127 115.162 164.046 114.629L164.043 114.636Z" fill="#F2CA95"/>
<path d="M162.126 95.3898L156.916 93.186L153.756 90.9886C153.546 90.8981 153.365 90.7537 153.229 90.5701C153.093 90.3865 153.008 90.1703 152.983 89.9433L151.492 78.6166C151.482 78.5389 151.493 78.4598 151.525 78.3882C151.557 78.3166 151.608 78.2552 151.673 78.211C151.737 78.1667 151.813 78.1413 151.891 78.1375C151.97 78.1337 152.048 78.1517 152.116 78.1894L152.763 78.5454C152.84 78.5877 152.901 78.6535 152.938 78.7331L155.373 83.7848L159.675 85.1473L162.126 95.3898Z" fill="#F2CA95"/>
<path d="M190.344 76.7396C190.344 76.7396 193.161 76.0633 194.872 74.7429C193.755 76.6884 192.32 78.4322 190.625 79.9014L190.344 76.7396Z" fill="#7C481A"/>
<path d="M203.562 85.8076L199.633 81.6653C199.633 81.6653 197.453 86.5778 186.524 87.1668L183.27 90.937C182.248 92.4344 181.581 94.1462 181.322 95.9411C181.062 97.7361 181.216 99.5667 181.773 101.293L186 124.237L207.851 138.121C207.851 138.121 212.084 95.1117 203.562 85.8076Z" fill="#E31587"/>
<path d="M198.759 104.435C199.16 104.382 199.554 104.283 199.933 104.141L200.211 104.027L200.276 103.998C200.276 103.998 200.276 103.998 200.24 103.998L199.862 104.134L198.949 104.497L197.057 105.296L193.212 106.953L185.482 110.38L170.029 117.325H170.013C169.264 117.66 168.418 117.706 167.639 117.452C166.859 117.198 166.202 116.662 165.795 115.95C165.388 115.238 165.26 114.4 165.437 113.599C165.613 112.798 166.081 112.091 166.749 111.616L180.598 101.798L187.568 96.9109L191.093 94.4741L192.908 93.2476L193.878 92.6197L194.441 92.2767L194.881 92.0405L194.991 91.9822L195.02 91.966L195.101 91.9304L195.44 91.7945C195.902 91.6228 196.378 91.495 196.863 91.4126C198.58 91.1859 200.316 91.645 201.696 92.6906C203.076 93.7362 203.989 95.2839 204.236 96.9982C204.483 98.7125 204.045 100.455 203.017 101.849C201.988 103.242 200.453 104.174 198.742 104.442L198.759 104.435Z" fill="#F2CA95"/>
<path d="M200.615 104.675L200.686 104.642C200.686 104.642 200.667 104.642 200.644 104.642L200.224 104.791L199.684 105.011H199.703C199.911 104.96 200.116 104.897 200.318 104.824L200.615 104.675Z" fill="#DB681C"/>
<path d="M198.996 105.144C199.214 105.114 199.43 105.072 199.643 105.018H199.662C199.449 105.047 199.226 105.092 198.996 105.144Z" fill="#DB681C"/>
<path d="M199.68 104.995L200.22 104.775L200.64 104.626C200.663 104.626 200.67 104.626 200.682 104.626L200.611 104.659L200.288 104.785C200.087 104.859 199.881 104.921 199.673 104.973C201.492 104.519 203.068 103.385 204.076 101.803C205.084 100.221 205.446 98.3126 205.089 96.4712C204.732 94.6297 203.682 92.9956 202.157 91.9057C200.631 90.8158 198.745 90.3533 196.889 90.6136C196.349 90.7064 195.82 90.8495 195.307 91.0407C195.178 91.0861 195.052 91.1378 194.929 91.1896L194.841 91.2284H194.825H194.793L194.67 91.2932L194.178 91.5553L193.554 91.9372L192.48 92.6362L190.462 93.9986L186.539 96.7106L186.031 97.0665L192.335 108.099L192.807 107.888L197.092 106.07L199.198 105.18L199.638 105.002C199.425 105.056 199.209 105.098 198.991 105.128C199.224 105.092 199.447 105.047 199.68 104.995Z" fill="#E31587"/>
<path d="M159.718 85.2672L156.16 80.6751C156.118 80.622 156.064 80.5797 156.002 80.5517C155.941 80.5237 155.873 80.5107 155.806 80.5139C155.738 80.5171 155.672 80.5362 155.614 80.5699C155.555 80.6035 155.505 80.6507 155.468 80.7074L155.342 80.9016C155.306 80.9571 155.283 81.0202 155.276 81.0859C155.269 81.1517 155.277 81.2182 155.3 81.2802L156.338 84.0795L159.718 85.2672Z" fill="#F2CA95"/>
<path d="M207.318 54.1572C207.992 50.9658 202.985 47.2046 196.134 45.7563C189.283 44.308 183.183 45.7211 182.509 48.9124C181.835 52.1038 186.843 55.865 193.694 57.3133C200.544 58.7616 206.644 57.3486 207.318 54.1572Z" fill="#B10FC1"/>
<path d="M160.389 120.959C160.41 118.549 159.473 116.228 157.785 114.509C156.096 112.789 153.794 111.81 151.385 111.788C150.346 111.803 149.315 111.978 148.329 112.306C148.093 112.384 147.824 112.487 147.63 112.568L147.54 112.61L147.362 112.701L147.006 112.885L146.828 112.979C146.77 113.011 146.705 113.044 146.686 113.06L145.929 113.532L145.305 113.953L144.723 114.358C143.956 114.895 143.241 115.416 142.52 115.94L138.296 119.06L129.997 125.338C125.434 128.818 120.886 132.306 116.352 135.801L121.3 144.312C126.533 141.872 131.771 139.442 137.015 137.024L146.395 132.752L151.052 130.684C151.796 130.361 152.543 130.037 153.255 129.742C153.071 129.783 152.884 129.819 152.692 129.849L152.423 129.885C152.32 129.885 152.213 129.911 152.1 129.917C151.987 129.924 151.867 129.937 151.751 129.943C151.576 129.943 151.405 129.943 151.23 129.943C151.401 129.943 151.576 129.943 151.751 129.943C151.867 129.943 151.983 129.943 152.1 129.917C152.216 129.891 152.31 129.898 152.423 129.885L152.692 129.849C152.889 129.817 153.086 129.778 153.277 129.733H153.319L153.863 129.513L154.367 129.319C154.516 129.264 154.623 129.238 154.752 129.196C154.778 129.196 154.752 129.196 154.752 129.196L154.72 129.218L154.655 129.267L154.623 129.289C154.454 129.361 154.212 129.454 154.002 129.526C153.769 129.605 153.533 129.672 153.293 129.726H153.271C155.272 129.283 157.064 128.175 158.356 126.583C159.648 124.992 160.365 123.01 160.389 120.959Z" fill="#333372"/>
<path d="M151.751 129.956C151.577 129.956 151.402 129.956 151.23 129.956C151.405 129.969 151.577 129.962 151.751 129.956Z" fill="#333372"/>
<path d="M152.684 129.862C152.873 129.832 153.061 129.796 153.246 129.755H153.269C153.078 129.791 152.881 129.83 152.684 129.862Z" fill="#333372"/>
<path d="M152.413 129.898C152.307 129.898 152.203 129.924 152.09 129.93C152.203 129.924 152.31 129.911 152.413 129.898Z" fill="#333372"/>
<path d="M116.623 134.338L113.133 138.111L118.654 146.425L123.065 144.428L116.623 134.338Z" fill="#3D3D7F"/>
<path d="M113.856 148.186C111.239 148.134 109.043 144.82 108.005 142.891C107.781 142.477 107.451 142.13 107.049 141.886C106.646 141.642 106.186 141.51 105.715 141.503C104.826 141.483 103.658 143.542 102.869 143.982L97.1541 145.839C95.0967 146.477 93.3305 147.822 92.1669 149.635C91.3249 150.985 90.8623 152.537 90.8279 154.127L90.7891 156.105L117.359 156.635L117.536 147.716C117.539 147.668 117.529 147.62 117.508 147.577C117.487 147.534 117.455 147.497 117.415 147.47C117.375 147.443 117.329 147.427 117.281 147.423C117.234 147.419 117.185 147.428 117.142 147.448C116.124 147.96 114.995 148.214 113.856 148.186Z" fill="#4D6AB5"/>
<path d="M117.339 155.789L90.7305 155.84L90.7333 157.332L117.342 157.281L117.339 155.789Z" fill="#3D3D7F"/>
<path d="M54.3 134.787C54.7302 147.541 44.3644 163.632 44.3644 163.632C44.3644 163.632 32.9345 148.279 32.5043 135.525C32.0742 122.771 36.6927 114.956 42.7117 114.752C48.7306 114.548 53.8699 122.03 54.3 134.787Z" fill="#B10FC1"/>
<path d="M67.9948 149.749C65.113 157.231 55.1677 163.988 55.1677 163.988C55.1677 163.988 52.328 152.302 55.2097 144.823C58.0915 137.344 62.6809 133.959 66.2062 135.322C69.7316 136.684 70.8765 142.27 67.9948 149.749Z" fill="#B10FC1"/>
<path d="M32.2033 143.379C36.2461 154.059 29.8746 171.534 29.8746 171.534C29.8746 171.534 13.5351 162.67 9.49875 151.988C5.46239 141.305 8.11772 132.972 14.389 130.596C20.6602 128.221 28.1604 132.697 32.2033 143.379Z" fill="#B10FC1"/>
<path d="M43.6214 207.032C43.5625 207.033 43.5052 207.013 43.4596 206.976C43.414 206.939 43.3831 206.886 43.3724 206.828L38.5954 183.301C38.3098 181.908 37.6649 180.613 36.7248 179.546C35.7847 178.478 34.5821 177.676 33.2362 177.217L28.7082 175.683C28.6494 175.658 28.6023 175.611 28.5764 175.552C28.5505 175.493 28.5477 175.427 28.5685 175.366C28.5892 175.305 28.6321 175.254 28.6886 175.224C28.7451 175.193 28.811 175.185 28.8732 175.201L33.4012 176.735C34.832 177.223 36.1104 178.078 37.1095 179.213C38.1086 180.348 38.7936 181.725 39.0967 183.207L43.8737 206.735C43.8862 206.801 43.8721 206.87 43.8347 206.926C43.7972 206.982 43.7392 207.021 43.6732 207.035L43.6214 207.032Z" fill="#292960"/>
<path d="M41.5782 206.521C41.525 206.521 41.4729 206.505 41.4295 206.474C41.386 206.443 41.3532 206.4 41.3356 206.349L23.4502 154.195C23.4294 154.131 23.4343 154.061 23.4639 154.001C23.4935 153.941 23.5454 153.894 23.6087 153.871C23.6726 153.851 23.7421 153.855 23.8025 153.885C23.8628 153.915 23.9093 153.967 23.9321 154.03L41.8175 206.188C41.8286 206.225 41.8307 206.265 41.8238 206.304C41.8168 206.342 41.8009 206.379 41.7773 206.41C41.7538 206.442 41.7232 206.467 41.6881 206.485C41.653 206.502 41.6142 206.511 41.575 206.511L41.5782 206.521Z" fill="#292960"/>
<path d="M44.6415 205.498C44.5746 205.497 44.5105 205.471 44.4629 205.424C44.4152 205.376 44.3877 205.313 44.386 205.246L43.875 143.887C43.875 143.82 43.9019 143.755 43.9498 143.707C43.9978 143.659 44.0627 143.632 44.1305 143.632C44.1983 143.632 44.2633 143.659 44.3112 143.707C44.3591 143.755 44.386 143.82 44.386 143.887L44.897 205.249C44.8975 205.282 44.8913 205.316 44.8788 205.347C44.8663 205.378 44.8478 205.406 44.8243 205.43C44.8008 205.453 44.7729 205.472 44.7421 205.485C44.7112 205.498 44.6782 205.505 44.6448 205.505L44.6415 205.498Z" fill="#292960"/>
<path d="M44.6924 204.987C44.6292 204.987 44.5682 204.964 44.5215 204.921C44.4748 204.879 44.4458 204.82 44.4401 204.757L41.9174 178.282C41.7336 176.442 42.2122 174.596 43.2669 173.078C44.3217 171.559 45.8834 170.467 47.6711 169.997C47.7042 169.987 47.7391 169.984 47.7736 169.987C47.8081 169.991 47.8415 170.001 47.8717 170.018C47.902 170.035 47.9285 170.058 47.9496 170.086C47.9707 170.113 47.986 170.145 47.9945 170.179C48.0044 170.212 48.0074 170.246 48.0036 170.281C47.9998 170.315 47.9891 170.348 47.9722 170.379C47.9553 170.409 47.9326 170.435 47.9053 170.456C47.878 170.478 47.8468 170.493 47.8134 170.502C46.1455 170.942 44.6884 171.961 43.7034 173.378C42.7184 174.794 42.2698 176.516 42.4381 178.233L44.9576 204.718C44.9639 204.786 44.9433 204.853 44.9002 204.905C44.8572 204.957 44.7952 204.99 44.7279 204.997L44.6924 204.987Z" fill="#292960"/>
<path d="M41.8804 205.981C41.8548 205.985 41.8285 205.985 41.8028 205.981C41.7706 205.97 41.7408 205.954 41.7151 205.932C41.6894 205.91 41.6682 205.883 41.6529 205.853C41.6376 205.823 41.6283 205.79 41.6257 205.757C41.6232 205.723 41.6273 205.689 41.6378 205.657L57.7736 153.914C57.7835 153.881 57.7998 153.851 57.8215 153.825C57.8432 153.799 57.8699 153.777 57.9 153.762C57.9301 153.746 57.9631 153.736 57.9969 153.734C58.0307 153.731 58.0647 153.735 58.097 153.745C58.1295 153.755 58.1596 153.771 58.1857 153.793C58.2118 153.815 58.2333 153.842 58.2489 153.872C58.2646 153.902 58.2741 153.935 58.2769 153.969C58.2797 154.003 58.2757 154.037 58.2652 154.069L42.123 205.79C42.1094 205.844 42.0782 205.892 42.0343 205.927C41.9904 205.961 41.9363 205.98 41.8804 205.981Z" fill="#292960"/>
<path d="M74.239 153.428L46.0039 170.58C46.0039 170.58 61.0465 174.884 68.4141 170.405C75.7818 165.926 77.5315 158.865 74.239 153.428Z" fill="#B10FC1"/>
<path d="M62.0164 200.612C62.0164 195.389 59.7524 190.648 56.088 187.175C55.517 186.638 54.7628 186.34 53.9792 186.34H28.1504C27.3678 186.339 26.6144 186.638 26.0449 187.175C22.374 190.632 20.1133 195.373 20.1133 200.612C20.1133 206.524 23.0079 211.816 27.5521 215.353C28.0926 215.772 28.757 216 29.4409 216H52.6661C53.3499 215.999 54.0141 215.771 54.5549 215.353C59.1217 211.799 62.0164 206.508 62.0164 200.612Z" fill="#E76DFF"/>
<path d="M0.602725 165.531L31.1762 176.123C31.1762 176.123 17.6635 183.353 9.68453 180.586C1.7056 177.819 -1.43163 171.405 0.602725 165.531Z" fill="#B10FC1"/>
<path opacity="0.4" d="M58.9727 190.58H23.1629C22.3855 191.753 21.7442 193.012 21.2515 194.33H60.8841C60.3914 193.012 59.7501 191.753 58.9727 190.58ZM61.1785 195.181H20.9572C20.7089 195.962 20.5144 196.759 20.375 197.567H61.7736C61.6297 196.761 61.4308 195.966 61.1785 195.188V195.181Z" fill="white"/>
<path d="M207.253 20.7603H163.241C163.18 20.7603 163.122 20.736 163.079 20.693C163.036 20.6499 163.012 20.5914 163.012 20.5305V0.378693C163.012 0.317754 163.036 0.259312 163.079 0.216221C163.122 0.173131 163.18 0.148926 163.241 0.148926H207.253C207.314 0.149776 207.371 0.174359 207.413 0.217357C207.456 0.260356 207.48 0.318311 207.48 0.378693V20.5305C207.48 20.5909 207.456 20.6488 207.413 20.6918C207.371 20.7348 207.314 20.7594 207.253 20.7603ZM163.458 20.3007H207.024V0.614939H163.458V20.3007Z" fill="#CCCCCC"/>
<path d="M201.326 5.6438H169.164V15.265H201.326V5.6438Z" fill="#ECECEC"/>
</svg>
