<svg width="258" height="154" viewBox="0 0 258 154" fill="none" xmlns="http://www.w3.org/2000/svg">
<ellipse cx="129" cy="150" rx="129" ry="4" fill="#ECECEC"/>
<g opacity="0.5">
<path d="M90.9486 120.581C91.3474 120.093 91.5352 119.467 91.4707 118.841C91.4063 118.215 91.0948 117.639 90.6047 117.24C79.699 108.548 72.0915 96.4259 69.0367 82.8725C65.9819 69.3191 67.6621 55.1436 73.8004 42.6837C73.9486 42.4027 74.0385 42.0949 74.0651 41.7785C74.0916 41.4621 74.0541 41.1435 73.9549 40.8415C73.8557 40.5395 73.6967 40.2602 73.4873 40.02C73.2779 39.7799 73.0223 39.5838 72.7356 39.4432C72.449 39.3027 72.137 39.2206 71.8182 39.2017C71.4993 39.1829 71.18 39.2277 70.8791 39.3335C70.5781 39.4393 70.3017 39.604 70.0659 39.8178C69.8302 40.0317 69.64 40.2903 69.5066 40.5786C62.8848 54.006 61.0672 69.2843 64.3534 83.8945C67.6396 98.5046 75.8333 111.574 87.5836 120.948C87.8292 121.144 88.111 121.29 88.4131 121.377C88.7151 121.465 89.0314 121.492 89.3439 121.458C89.6565 121.424 89.959 121.329 90.2344 121.179C90.5097 121.028 90.7524 120.825 90.9486 120.581Z" fill="#E7E7E7"/>
<path d="M73.9789 32.9002C73.6406 33.4232 73.5221 34.0575 73.6489 34.6672C73.7757 35.2768 74.1376 35.8133 74.6571 36.1614C75.1765 36.5096 75.8122 36.6418 76.4277 36.5296C77.0431 36.4174 77.5895 36.0699 77.9495 35.5615C84.933 25.2318 94.9291 17.2769 106.598 12.7626C107.163 12.5161 107.61 12.062 107.845 11.4952C108.08 10.9284 108.086 10.2927 107.861 9.72087C107.636 9.14909 107.198 8.68543 106.638 8.42676C106.078 8.16809 105.439 8.1344 104.855 8.33275C92.28 13.1979 81.507 21.7697 73.9789 32.9002Z" fill="#E7E7E7"/>
<path d="M70.2787 107.387C70.3644 106.829 70.2473 106.258 69.9482 105.776C61.8313 92.8232 58.3069 77.5482 59.9373 62.3885C60.0035 61.7604 59.816 61.1315 59.416 60.64C59.016 60.1486 58.4363 59.8349 57.8045 59.7679C57.1726 59.701 56.5403 59.8863 56.0468 60.2831C55.5532 60.6799 55.2387 61.2556 55.1725 61.8837C53.4292 78.0925 57.1982 94.4246 65.8779 108.274C66.1355 108.688 66.5148 109.014 66.9644 109.208C67.414 109.402 67.9124 109.454 68.3922 109.358C68.872 109.261 69.3102 109.02 69.6475 108.668C69.9849 108.315 70.2052 107.868 70.2787 107.387Z" fill="#E7E7E7"/>
<path d="M58.4489 55.9273C58.7553 55.9972 59.0725 56.0064 59.3823 55.9544C59.6921 55.9023 59.9885 55.7901 60.2545 55.6241C60.5204 55.4581 60.7508 55.2416 60.9324 54.987C61.1141 54.7323 61.2434 54.4444 61.313 54.1399C64.5649 39.8897 72.3272 27.0594 83.4607 17.5318C83.6982 17.3274 83.8927 17.0785 84.0332 16.7992C84.1737 16.5199 84.2575 16.2158 84.2797 15.9041C84.3019 15.5925 84.2622 15.2794 84.1628 14.9828C84.0633 14.6861 83.9061 14.4118 83.7002 14.1754C83.4942 13.939 83.2435 13.7451 82.9623 13.6049C82.6812 13.4647 82.3751 13.3809 82.0616 13.3582C81.7481 13.3355 81.4332 13.3745 81.1351 13.4728C80.8369 13.5711 80.5613 13.7269 80.3239 13.9313C68.4227 24.1183 60.1248 37.8347 56.647 53.0686C56.5761 53.3737 56.5666 53.6897 56.6188 53.9986C56.6711 54.3076 56.7841 54.6033 56.9515 54.8689C57.1189 55.1345 57.3374 55.3648 57.5943 55.5464C57.8513 55.728 58.1417 55.8575 58.4489 55.9273Z" fill="#E7E7E7"/>
<path d="M55.75 94.3606C51.7259 82.6547 50.6014 70.1611 52.472 57.9412C54.3426 45.7214 59.1531 34.1363 66.4947 24.1702C66.8701 23.6618 67.0266 23.0256 66.9299 22.4016C66.8333 21.7775 66.4913 21.2168 65.9792 20.8427C65.4671 20.4686 64.827 20.3118 64.1995 20.4068C63.572 20.5018 63.0086 20.8408 62.6333 21.3492C54.8365 31.9343 49.7277 44.2386 47.741 57.217C45.7543 70.1954 46.9482 83.4645 51.2215 95.8973C51.4275 96.4948 51.8637 96.9868 52.434 97.2651C53.0044 97.5435 53.6622 97.5854 54.2627 97.3816C54.8632 97.1778 55.3573 96.745 55.6362 96.1785C55.9151 95.612 55.9561 94.9581 55.75 94.3606Z" fill="#E7E7E7"/>
<path d="M199.385 101.907C188.306 114.033 174.078 122.886 158.26 127.497C157.651 127.674 157.139 128.085 156.835 128.639C156.532 129.193 156.462 129.844 156.642 130.45C156.822 131.055 157.236 131.565 157.793 131.868C158.351 132.171 159.006 132.241 159.615 132.064C176.274 127.204 191.259 117.879 202.93 105.109C203.343 104.64 203.554 104.029 203.518 103.406C203.482 102.783 203.201 102.199 202.737 101.779C202.272 101.359 201.66 101.137 201.033 101.161C200.406 101.185 199.814 101.453 199.385 101.907Z" fill="#E7E7E7"/>
<path d="M190.143 35.2015C190.235 35.8933 190.311 36.6069 190.373 37.3141C191.086 45.4711 190.036 53.6823 187.292 61.3958C187.08 61.9904 187.114 62.6448 187.387 63.215C187.661 63.7852 188.15 64.2246 188.749 64.4364C189.347 64.6482 190.005 64.6151 190.578 64.3444C191.151 64.0737 191.592 63.5876 191.804 62.993C194.776 54.6365 195.913 45.7413 195.14 36.9049C195.072 36.1365 194.973 35.3632 194.894 34.6132C194.814 33.9867 194.488 33.4169 193.986 33.029C193.484 32.6412 192.848 32.4672 192.218 32.5452C191.588 32.6232 191.016 32.9469 190.627 33.445C190.238 33.9432 190.064 34.575 190.143 35.2015Z" fill="#E7E7E7"/>
<path d="M188.386 70.5255C188.472 69.9703 188.358 69.4025 188.063 68.9227C187.768 68.4428 187.312 68.0818 186.776 67.9036C186.24 67.7255 185.658 67.7416 185.133 67.9492C184.608 68.1569 184.175 68.5426 183.909 69.038C179.034 78.1372 171.777 85.7556 162.904 91.0898C162.362 91.4184 161.973 91.9481 161.824 92.5623C161.674 93.1765 161.777 93.825 162.108 94.365C162.44 94.9051 162.973 95.2925 163.591 95.442C164.209 95.5915 164.861 95.4909 165.404 95.1623C175.013 89.39 182.872 81.1431 188.152 71.2918C188.273 71.0514 188.352 70.7923 188.386 70.5255Z" fill="#E7E7E7"/>
<path d="M158.853 97.3673C158.918 96.9315 158.862 96.4859 158.691 96.0791C158.569 95.79 158.392 95.5274 158.169 95.3064C157.945 95.0854 157.68 94.9103 157.389 94.7911C157.098 94.672 156.785 94.6112 156.471 94.6122C156.156 94.6132 155.844 94.6759 155.554 94.7968C146.221 98.7246 136.002 100.115 125.941 98.8265C125.312 98.7455 124.676 98.9165 124.174 99.3019C123.672 99.6872 123.344 100.255 123.264 100.881C123.184 101.507 123.357 102.14 123.745 102.639C124.134 103.139 124.706 103.466 125.336 103.547C136.239 104.942 147.314 103.435 157.429 99.1788C157.802 99.0214 158.127 98.7727 158.376 98.4559C158.625 98.1391 158.789 97.7645 158.853 97.3673Z" fill="#E7E7E7"/>
<path d="M134.736 42.4581C134.672 42.8738 134.445 43.2471 134.104 43.4958C133.764 43.7445 133.337 43.8482 132.919 43.7842C127.719 42.975 122.398 43.7391 117.646 45.9772C112.895 48.2152 108.933 51.8238 106.275 56.3338C106.115 56.6027 106.01 56.9004 105.966 57.2098C105.922 57.5193 105.94 57.8344 106.018 58.1373C106.097 58.4401 106.234 58.7248 106.423 58.975C106.612 59.2252 106.849 59.436 107.119 59.5954C107.39 59.7549 107.69 59.8598 108.001 59.9041C108.312 59.9485 108.629 59.9315 108.934 59.8541C109.238 59.7767 109.524 59.6404 109.776 59.453C110.027 59.2656 110.239 59.0307 110.398 58.7618C112.572 55.0701 115.813 52.116 119.701 50.2835C123.589 48.451 127.944 47.825 132.199 48.4868C133.872 48.7429 135.578 48.328 136.941 47.3332C138.304 46.3384 139.213 44.8453 139.467 43.1823C139.722 41.5194 139.301 39.8228 138.298 38.4659C137.295 37.1089 135.792 36.2026 134.119 35.9465C125.807 34.6826 117.323 36.497 110.278 41.0451C103.234 45.5932 98.1191 52.5582 95.9061 60.6174C93.6931 68.6765 94.5357 77.2685 98.2738 84.7614C102.012 92.2543 108.385 98.1263 116.183 101.262C116.769 101.482 117.417 101.465 117.99 101.215C118.562 100.966 119.013 100.503 119.246 99.9262C119.479 99.3494 119.475 98.7045 119.235 98.1296C118.996 97.5547 118.54 97.0955 117.964 96.8503C111.255 94.1517 105.771 89.0989 102.555 82.6514C99.3385 76.204 98.6138 68.811 100.518 61.8766C102.423 54.9421 106.824 48.9492 112.885 45.0359C118.947 41.1226 126.247 39.5615 133.399 40.6491C133.817 40.7132 134.193 40.9397 134.444 41.279C134.695 41.6182 134.8 42.0424 134.736 42.4581Z" fill="#E7E7E7"/>
<path d="M169.151 75.9654C163.664 81.7471 156.846 86.1179 149.283 88.7032C141.719 91.2886 133.634 92.0116 125.721 90.8103C120.077 89.94 115.007 86.8801 111.623 82.3018C108.239 77.7236 106.817 72.0009 107.67 66.3894L107.735 65.9662C107.843 65.3445 107.698 64.7052 107.332 64.1889C106.966 63.6725 106.409 63.3215 105.784 63.213C105.158 63.1045 104.515 63.2474 103.997 63.6102C103.478 63.9731 103.126 64.5262 103.018 65.1479L102.939 65.6652C101.896 72.5237 103.634 79.5182 107.77 85.114C111.906 90.7097 118.103 94.4495 125.001 95.5129C133.681 96.8324 142.548 96.041 150.845 93.2067C159.142 90.3724 166.621 85.5796 172.641 79.2388C173.076 78.7806 173.311 78.1687 173.292 77.5379C173.274 76.907 173.004 76.3088 172.542 75.8749C172.081 75.4409 171.465 75.2068 170.83 75.224C170.196 75.2412 169.595 75.5083 169.159 75.9666L169.151 75.9654Z" fill="#E7E7E7"/>
<path d="M180.278 27.3951C182.532 34.4311 183.163 41.8787 182.125 49.1846C181.087 56.4905 178.406 63.467 174.282 69.596C173.943 70.1196 173.824 70.755 173.952 71.3655C174.079 71.9759 174.443 72.5127 174.963 72.8605C175.484 73.2082 176.121 73.339 176.737 73.2249C177.353 73.1107 177.899 72.7607 178.258 72.2501C182.691 65.6956 185.602 58.2409 186.78 50.425C188.045 42.2284 187.381 33.8483 184.838 25.9434C184.644 25.342 184.218 24.8413 183.654 24.5515C183.09 24.2616 182.433 24.2064 181.828 24.3978C181.224 24.5893 180.721 25.0118 180.43 25.5724C180.14 26.1331 180.086 26.7859 180.279 27.3873L180.278 27.3951Z" fill="#E7E7E7"/>
<path d="M198.465 45.9742C198.272 49.3042 197.825 52.6146 197.13 55.8768C195.55 63.306 192.662 70.3968 188.598 76.8219C188.418 77.086 188.294 77.3833 188.233 77.6962C188.172 78.0091 188.174 78.3312 188.24 78.6434C188.307 78.9555 188.435 79.2513 188.619 79.5132C188.802 79.7751 189.037 79.9977 189.309 80.1679C189.58 80.338 189.883 80.4522 190.2 80.5036C190.517 80.555 190.84 80.5427 191.152 80.4672C191.463 80.3917 191.756 80.2547 192.013 80.0644C192.27 79.874 192.486 79.6341 192.648 79.359C197.013 72.4625 200.116 64.8502 201.812 56.8742C202.096 55.546 202.344 54.1883 202.55 52.8402C202.884 50.6613 203.114 48.4427 203.24 46.252C203.269 45.9342 203.233 45.6139 203.135 45.3099C203.036 45.006 202.878 44.7247 202.668 44.4828C202.458 44.2409 202.202 44.0433 201.914 43.9018C201.626 43.7602 201.313 43.6777 200.992 43.6591C200.672 43.6404 200.351 43.6861 200.049 43.7932C199.747 43.9004 199.47 44.067 199.234 44.283C198.998 44.499 198.808 44.76 198.676 45.0506C198.544 45.3411 198.472 45.6552 198.465 45.9742Z" fill="#E7E7E7"/>
<path d="M187.458 86.5049C187.839 86.0159 188.012 85.3985 187.942 84.7836C187.872 84.1687 187.564 83.6047 187.083 83.2112C186.602 82.8177 185.986 82.6257 185.366 82.676C184.746 82.7263 184.17 83.0148 183.761 83.4804C175.641 93.3177 164.797 100.571 152.568 104.346C152.268 104.438 151.989 104.589 151.748 104.788C151.506 104.988 151.307 105.233 151.161 105.51C151.015 105.786 150.925 106.089 150.897 106.4C150.869 106.711 150.903 107.025 150.996 107.324C151.09 107.622 151.242 107.899 151.443 108.14C151.644 108.38 151.891 108.579 152.17 108.724C152.448 108.87 152.753 108.96 153.066 108.988C153.379 109.017 153.694 108.984 153.994 108.891C167.114 104.842 178.748 97.0597 187.458 86.5049Z" fill="#E7E7E7"/>
<path d="M147.275 108.995C147.315 108.739 147.311 108.478 147.264 108.223C147.154 107.602 146.8 107.049 146.281 106.686C145.761 106.323 145.119 106.179 144.494 106.287C137.496 107.503 130.343 107.57 123.319 106.487C114.41 105.117 106.29 100.599 100.452 93.7619C100.252 93.5127 100.003 93.3059 99.7214 93.1538C99.4396 93.0016 99.13 92.9073 98.811 92.8763C98.492 92.8453 98.1702 92.8783 97.8645 92.9734C97.5588 93.0684 97.2756 93.2236 97.0316 93.4297C96.7876 93.6357 96.5878 93.8885 96.444 94.173C96.3003 94.4575 96.2155 94.7679 96.1948 95.0857C96.174 95.4036 96.2177 95.7225 96.3233 96.0235C96.4288 96.3245 96.5941 96.6015 96.8092 96.838C103.394 104.549 112.551 109.645 122.599 111.19C130.138 112.353 137.815 112.28 145.326 110.975C145.818 110.889 146.271 110.652 146.621 110.297C146.971 109.942 147.199 109.487 147.275 108.995Z" fill="#E7E7E7"/>
<path d="M94.9126 90.3375C95.1898 90.1906 95.435 89.9908 95.6343 89.7496C95.8336 89.5083 95.9831 89.2303 96.0742 88.9314C96.1653 88.6325 96.1962 88.3185 96.1652 88.0075C96.1342 87.6965 96.042 87.3945 95.8936 87.1187C92.0663 80.037 90.6638 71.9118 91.8989 63.9753C92.8084 58.1299 95.0996 52.5848 98.5845 47.7952C102.069 43.0057 106.649 39.1081 111.946 36.4226C112.236 36.2869 112.495 36.0948 112.708 35.8576C112.922 35.6203 113.085 35.3429 113.188 35.0416C113.291 34.7403 113.333 34.4213 113.31 34.1036C113.287 33.7859 113.2 33.4759 113.054 33.192C112.908 32.9081 112.707 32.6561 112.462 32.4509C112.216 32.2456 111.932 32.0914 111.626 31.9973C111.32 31.9032 110.998 31.8712 110.679 31.9031C110.36 31.9351 110.051 32.0303 109.771 32.1832C103.797 35.2106 98.6331 39.6052 94.7039 45.006C90.7746 50.4068 88.1918 56.6597 87.1677 63.251C85.7745 72.2033 87.3564 81.3683 91.6734 89.3564C91.8216 89.6322 92.023 89.8763 92.266 90.0749C92.5091 90.2735 92.789 90.4226 93.0898 90.5137C93.3906 90.6048 93.7064 90.6362 94.0192 90.6059C94.332 90.5757 94.6356 90.4845 94.9126 90.3375Z" fill="#E7E7E7"/>
<path d="M141.032 32.9588C141.184 32.6853 141.28 32.3845 141.316 32.0738C141.351 31.7631 141.324 31.4484 141.236 31.1478C141.149 30.8472 141.003 30.5666 140.806 30.322C140.61 30.0775 140.367 29.8737 140.091 29.7225C138.613 28.9105 137.002 28.3652 135.334 28.1119C129.658 27.233 123.863 27.5227 118.309 28.9629C117.723 29.146 117.231 29.5463 116.934 30.0807C116.638 30.6152 116.56 31.243 116.716 31.8341C116.873 32.4251 117.252 32.9341 117.775 33.2556C118.298 33.577 118.925 33.6864 119.526 33.561C124.444 32.2876 129.574 32.0327 134.598 32.8121C135.709 32.9813 136.78 33.3449 137.763 33.8861C138.039 34.0404 138.343 34.1388 138.657 34.1756C138.971 34.2125 139.289 34.187 139.593 34.1008C139.897 34.0146 140.181 33.8692 140.428 33.6732C140.675 33.4772 140.88 33.2343 141.032 32.9588Z" fill="#E7E7E7"/>
<path d="M169.418 22.3059C169.849 23.0777 170.261 23.8667 170.636 24.6581C174.186 32.0776 175.415 40.3825 174.161 48.4957C172.862 56.8379 169.028 64.5814 163.174 70.6885C157.32 76.7957 149.725 80.9748 141.407 82.666C136.635 83.6164 131.73 83.7209 126.919 82.9748C123.363 82.4306 120.169 80.5049 118.037 77.6213C115.906 74.7377 115.012 71.1325 115.553 67.5987C116.094 64.065 118.025 60.8921 120.922 58.7782C123.818 56.6643 127.443 55.7825 130.998 56.3267C133.466 56.7037 135.989 56.4347 138.318 55.5461C140.647 54.6576 142.701 53.1803 144.279 51.2599C145.857 49.3396 146.903 47.0425 147.314 44.5955C147.725 42.1484 147.487 39.6359 146.624 37.3058C146.404 36.7136 145.956 36.2323 145.38 35.9676C144.803 35.703 144.145 35.6767 143.55 35.8946C142.954 36.1125 142.471 36.5567 142.206 37.1295C141.941 37.7023 141.916 38.3567 142.136 38.9489C142.71 40.5017 142.868 42.1758 142.593 43.8061C142.318 45.4364 141.621 46.9667 140.57 48.2462C139.519 49.5256 138.15 50.5101 136.599 51.1025C135.047 51.6949 133.366 51.8749 131.722 51.6247C126.912 50.8884 122.008 52.0814 118.089 54.9414C114.17 57.8014 111.558 62.0941 110.826 66.8751C110.094 71.656 111.303 76.5337 114.187 80.435C117.07 84.3363 121.393 86.9417 126.203 87.678C128.529 88.0375 130.878 88.2228 133.232 88.2326C141.026 88.2321 148.69 86.2738 155.512 82.5394C162.335 78.805 168.095 73.4156 172.257 66.8716C176.419 60.3276 178.849 52.841 179.321 45.107C179.793 37.373 178.292 29.6422 174.957 22.6324C174.537 21.7659 174.08 20.8738 173.602 20.0185C173.294 19.4661 172.778 19.0576 172.167 18.8829C171.557 18.7082 170.902 18.7817 170.347 19.0871C169.792 19.3925 169.382 19.9048 169.207 20.5114C169.033 21.118 169.108 21.7691 169.416 22.3216L169.418 22.3059Z" fill="#E7E7E7"/>
<path d="M158.808 26.2297C154.986 20.1776 149.131 15.6658 142.285 13.4972C141.679 13.3067 141.023 13.3629 140.46 13.6536C139.897 13.9442 139.474 14.4455 139.283 15.0471C139.093 15.6487 139.151 16.3014 139.444 16.8615C139.737 17.4216 140.242 17.8434 140.848 18.0339C146.975 19.9712 152.145 24.1337 155.327 29.6901C158.509 35.2466 159.468 41.788 158.012 48.0082C156.557 54.2284 152.794 59.6696 147.475 63.2452C142.156 66.8208 135.673 68.2678 129.32 67.297C128.692 67.201 128.053 67.3566 127.542 67.7296C127.031 68.1027 126.69 68.6626 126.594 69.2862C126.499 69.9098 126.657 70.546 127.033 71.0549C127.409 71.5638 127.973 71.9036 128.6 71.9996C134.338 72.8749 140.205 72.0943 145.504 69.7506C150.804 67.4069 155.312 63.5986 158.493 58.7783C161.674 53.958 163.395 48.3284 163.451 42.5586C163.507 36.7888 161.895 31.1213 158.808 26.2297Z" fill="#E7E7E7"/>
<path d="M92.7989 24.2484C84.8924 30.4586 78.7485 38.6079 74.9695 47.8973C71.1906 57.1867 69.9062 67.2975 71.2424 77.2383C71.3269 77.8639 71.6579 78.431 72.1626 78.8147C72.6672 79.1985 73.3041 79.3675 73.9332 79.2846C74.5623 79.2016 75.1321 78.8736 75.5172 78.3725C75.9022 77.8715 76.071 77.2386 75.9865 76.6129C75.3131 71.6137 75.3606 66.5457 76.1276 61.5624C80.3035 34.2834 105.245 14.5627 132.909 16.6719C133.512 16.7176 134.109 16.535 134.581 16.1609C135.052 15.7868 135.364 15.2489 135.453 14.655C135.466 14.5956 135.476 14.5353 135.481 14.4747C135.505 14.1631 135.466 13.8498 135.368 13.5526C135.27 13.2555 135.114 12.9804 134.909 12.743C134.704 12.5057 134.454 12.3107 134.174 12.1693C133.893 12.0279 133.587 11.9428 133.274 11.9189C118.692 10.8077 104.236 15.2113 92.7989 24.2484Z" fill="#E7E7E7"/>
<path d="M118.665 124.242C118.679 124.183 118.688 124.123 118.693 124.062C118.786 123.469 118.649 122.862 118.311 122.364C117.972 121.866 117.457 121.513 116.869 121.376C107.666 119.222 99.1957 114.685 92.3178 108.229C85.44 101.772 80.3994 93.6237 77.7074 84.6117C77.6261 84.3025 77.483 84.0127 77.2867 83.7595C77.0904 83.5062 76.8448 83.2948 76.5647 83.1378C76.2846 82.9808 75.9756 82.8815 75.6563 82.8457C75.337 82.8099 75.0138 82.8384 74.706 82.9295C74.3982 83.0206 74.1121 83.1725 73.8648 83.376C73.6175 83.5795 73.4141 83.8305 73.2666 84.114C73.1191 84.3976 73.0307 84.7079 73.0065 85.0264C72.9823 85.3449 73.0229 85.6651 73.1258 85.9679C76.0606 95.7856 81.5534 104.662 89.047 111.696C96.5406 118.73 105.768 123.672 115.795 126.021C116.101 126.092 116.418 126.102 116.728 126.051C117.038 126 117.335 125.889 117.602 125.724C117.868 125.559 118.1 125.343 118.282 125.089C118.465 124.834 118.595 124.547 118.665 124.242Z" fill="#E7E7E7"/>
<path d="M172.937 117.119C173.003 116.688 172.948 116.247 172.779 115.845C172.61 115.442 172.333 115.093 171.979 114.836C171.624 114.579 171.206 114.424 170.769 114.387C170.332 114.35 169.893 114.434 169.501 114.628C155.838 121.419 140.512 124.223 125.298 122.713C124.666 122.65 124.034 122.84 123.543 123.24C123.052 123.64 122.742 124.218 122.68 124.847C122.618 125.475 122.809 126.103 123.213 126.592C123.616 127.081 124.198 127.391 124.831 127.454C140.94 129.049 157.167 126.078 171.634 118.885C171.978 118.716 172.276 118.468 172.502 118.16C172.729 117.853 172.878 117.496 172.937 117.119Z" fill="#E7E7E7"/>
<path d="M205.86 78.6692C199.235 91.7101 189.184 102.721 176.771 110.537C176.482 110.692 176.228 110.905 176.026 111.162C175.823 111.419 175.676 111.715 175.594 112.032C175.512 112.348 175.496 112.678 175.548 113.001C175.6 113.324 175.718 113.633 175.895 113.908C176.072 114.184 176.304 114.421 176.577 114.603C176.85 114.786 177.158 114.911 177.481 114.97C177.805 115.029 178.137 115.022 178.457 114.948C178.777 114.874 179.078 114.735 179.342 114.54C192.486 106.265 203.129 94.6058 210.142 80.7967C210.404 80.2351 210.435 79.5939 210.229 79.0091C210.022 78.4244 209.595 77.9422 209.037 77.6652C208.48 77.3882 207.836 77.3381 207.242 77.5256C206.649 77.713 206.153 78.1233 205.86 78.6692Z" fill="#E7E7E7"/>
<path d="M158.023 16.4365C157.791 16.6466 157.603 16.9003 157.469 17.1829C157.336 17.4656 157.26 17.7717 157.245 18.0839C157.231 18.396 157.278 18.708 157.385 19.0021C157.492 19.2962 157.656 19.5665 157.868 19.7977C160.443 22.6017 162.52 25.8207 164.009 29.3166C165.82 33.5444 166.723 38.1007 166.658 42.6927C166.645 43.2982 166.864 43.8864 167.271 44.3374C167.679 44.7884 168.244 45.0682 168.851 45.1197C169.458 45.1712 170.062 44.9905 170.539 44.6146C171.016 44.2386 171.33 43.6957 171.418 43.0965C171.435 42.9876 171.443 42.8777 171.444 42.7676C171.519 37.5144 170.487 32.3017 168.416 27.4646C166.714 23.4734 164.343 19.7974 161.405 16.5932C161.193 16.3621 160.937 16.1747 160.652 16.0418C160.368 15.9088 160.059 15.8329 159.745 15.8183C159.431 15.8038 159.118 15.8509 158.822 15.9569C158.527 16.063 158.255 16.226 158.023 16.4365Z" fill="#E7E7E7"/>
<path d="M123.44 68.8044C123.663 67.3493 124.458 66.0429 125.651 65.1725C126.844 64.302 128.336 63.9389 129.8 64.163C133.909 64.7963 138.112 64.2711 141.931 62.6471C142.498 62.3892 142.941 61.9211 143.166 61.3426C143.39 60.7641 143.378 60.121 143.132 59.5503C142.886 58.9796 142.426 58.5266 141.85 58.2877C141.274 58.0489 140.627 58.0432 140.047 58.2718C137.047 59.5448 133.746 59.9566 130.52 59.4604C127.801 59.0442 125.029 59.7186 122.814 61.3351C120.6 62.9516 119.123 65.3779 118.709 68.0802C118.295 70.7825 118.979 73.5394 120.609 75.7445C122.239 77.9496 124.682 79.4222 127.4 79.8384C136.765 81.261 146.321 79.1882 154.227 74.0195C162.134 68.8508 167.831 60.952 170.22 51.8453L170.258 51.6023C170.321 51.296 170.322 50.9802 170.263 50.6729C170.203 50.3657 170.083 50.073 169.91 49.8117C169.736 49.5503 169.513 49.3254 169.252 49.1497C168.992 48.974 168.699 48.851 168.39 48.7878C168.082 48.7245 167.765 48.7222 167.456 48.781C167.147 48.8398 166.853 48.9586 166.59 49.1305C166.327 49.3024 166.102 49.5241 165.925 49.7829C165.749 50.0418 165.626 50.3327 165.563 50.639C163.503 58.6205 158.528 65.5492 151.608 70.077C144.687 74.6048 136.315 76.408 128.12 75.1358C126.656 74.9117 125.341 74.1187 124.463 72.9314C123.586 71.744 123.218 70.2595 123.44 68.8044Z" fill="#E7E7E7"/>
<path d="M146.168 53.9392C145.956 54.1702 145.793 54.4404 145.687 54.7344C145.581 55.0283 145.534 55.3403 145.549 55.6525C145.564 55.9647 145.641 56.2709 145.775 56.5538C145.909 56.8367 146.098 57.0906 146.331 57.3011C146.564 57.5116 146.836 57.6745 147.132 57.7805C147.428 57.8866 147.741 57.9337 148.055 57.9192C148.369 57.9047 148.677 57.8289 148.962 57.696C149.246 57.5631 149.501 57.3759 149.712 57.1449C152.42 54.1749 154.266 50.5297 155.055 46.5966C155.843 42.6635 155.545 38.5895 154.192 34.8075C152.838 31.0255 150.48 27.6769 147.368 25.1176C144.256 22.5582 140.506 20.8838 136.517 20.2722C128.889 19.083 121.091 19.6679 113.736 21.9811C106.381 24.2943 99.6679 28.2727 94.1254 33.6037C93.8903 33.8176 93.7007 34.0761 93.5677 34.3641C93.4347 34.6521 93.361 34.9638 93.3509 35.2807C93.3409 35.5977 93.3947 35.9135 93.5091 36.2097C93.6236 36.5059 93.7964 36.7765 94.0175 37.0055C94.2385 37.2346 94.5033 37.4174 94.7963 37.5434C95.0892 37.6693 95.4044 37.7358 95.7234 37.7389C96.0424 37.742 96.3586 37.6817 96.6536 37.5615C96.9485 37.4413 97.2162 37.2637 97.4409 37.039C102.456 32.2156 108.53 28.6159 115.185 26.5226C121.84 24.4293 128.895 23.8995 135.797 24.9748C138.93 25.4557 141.876 26.7712 144.32 28.7814C146.764 30.7917 148.617 33.4217 149.68 36.3921C150.744 39.3626 150.979 42.5625 150.361 45.652C149.742 48.7416 148.293 51.6053 146.168 53.9392Z" fill="#E7E7E7"/>
<path d="M92.0784 43.1606C92.2659 42.908 92.401 42.6209 92.4762 42.3158C92.5513 42.0108 92.5649 41.6939 92.5162 41.3834C92.4674 41.0729 92.3573 40.775 92.1923 40.5068C92.0272 40.2386 91.8104 40.0055 91.5543 39.8209C91.2983 39.6363 91.0081 39.5039 90.7005 39.4314C90.393 39.3588 90.0741 39.3475 89.7623 39.3981C89.4505 39.4487 89.152 39.5602 88.884 39.7262C88.6161 39.8921 88.3839 40.1093 88.201 40.3651C83.6205 46.6303 80.5915 53.8832 79.3595 61.5356L79.3559 61.5592C79.3071 61.8677 79.3199 62.1829 79.3936 62.4867C79.4673 62.7906 79.6004 63.0771 79.7854 63.33C80.159 63.8407 80.721 64.1834 81.348 64.2825C81.9749 64.3817 82.6153 64.2293 83.1283 63.8588C83.6413 63.4883 83.9849 62.93 84.0835 62.3069C85.1961 55.3859 87.9352 48.8262 92.0784 43.1606Z" fill="#E7E7E7"/>
<path d="M78.7148 70.5486C78.901 79.4255 81.4589 88.0977 86.1261 95.6755C90.7934 103.253 97.402 109.464 105.274 113.67C105.833 113.969 106.489 114.035 107.096 113.853C107.704 113.672 108.213 113.258 108.513 112.702C108.643 112.465 108.73 112.207 108.771 111.94C108.845 111.454 108.765 110.957 108.544 110.517C108.322 110.077 107.969 109.716 107.533 109.484C100.413 105.678 94.4353 100.059 90.2141 93.2033C85.9929 86.348 83.6798 78.5029 83.512 70.4728C83.5128 70.1566 83.4501 69.8433 83.3277 69.5513C83.2053 69.2592 83.0256 68.9943 82.7992 68.7719C82.5727 68.5494 82.304 68.3741 82.0088 68.256C81.7136 68.1379 81.3977 68.0795 81.0797 68.0841C80.7618 68.0888 80.448 68.1564 80.1568 68.283C79.8657 68.4096 79.6029 68.5928 79.3839 68.8217C79.165 69.0506 78.9942 69.3207 78.8815 69.6161C78.7688 69.9116 78.7166 70.2266 78.7278 70.5426L78.7148 70.5486Z" fill="#E7E7E7"/>
<path d="M205.212 56.1638C204.943 57.5505 204.629 58.9462 204.283 60.309C199.857 77.8951 188.973 93.188 173.77 103.183C158.567 113.178 140.144 117.152 122.12 114.325C119.694 113.954 117.302 113.391 114.966 112.64C114.664 112.533 114.344 112.487 114.024 112.505C113.704 112.523 113.392 112.605 113.104 112.745C112.817 112.886 112.562 113.082 112.352 113.323C112.143 113.563 111.985 113.843 111.887 114.146C111.788 114.449 111.752 114.769 111.781 115.086C111.809 115.403 111.901 115.712 112.051 115.993C112.201 116.274 112.407 116.523 112.656 116.724C112.904 116.925 113.191 117.075 113.498 117.164C116.078 117.996 118.72 118.619 121.4 119.027C140.587 121.942 160.166 117.668 176.338 107.035C192.51 96.4022 204.122 80.1687 208.921 61.4842C209.292 60.0331 209.625 58.5478 209.911 57.0716L209.925 56.9776C210.033 56.3558 209.888 55.7166 209.521 55.2006C209.155 54.6846 208.598 54.334 207.972 54.226C207.346 54.118 206.704 54.2615 206.186 54.6248C205.667 54.988 205.316 55.5414 205.208 56.1632L205.212 56.1638Z" fill="#E7E7E7"/>
</g>
<g clip-path="url(#clip0_394_4423)">
<path d="M150.806 35.1161L113.576 35.1033C108.036 35.1017 103.542 39.5911 103.54 45.1326L103.51 139.393C103.508 144.933 107.998 149.428 113.539 149.429L150.769 149.442C156.309 149.444 160.803 144.954 160.804 139.413L160.835 45.1519C160.837 39.612 156.347 35.1177 150.806 35.1161Z" fill="#333372"/>
<path d="M111.999 36.9376H152.346C156.039 36.9376 159.038 39.9365 159.038 43.6292V140.914C159.038 144.607 156.039 147.606 152.346 147.606H111.999C108.306 147.606 105.308 144.607 105.308 140.914V43.6308C105.308 39.9365 108.306 36.9376 111.999 36.9376Z" fill="white"/>
<path d="M159.613 44.6685H104.732L104.965 42.7731C105.666 39.6377 106.838 38.7141 108.626 37.2605L110.703 36.1554L153.71 36.1618L155.782 37.0356C158.092 38.7174 159.611 40.8697 159.508 44.1368L159.611 44.6669L159.613 44.6685Z" fill="#333372"/>
<path d="M136.128 41.2905L128.217 41.2873C127.763 41.2873 127.392 40.9163 127.392 40.4617C127.392 40.0072 127.763 39.6361 128.217 39.6361L136.128 39.6393C136.583 39.6393 136.954 40.0104 136.954 40.4649C136.954 40.9195 136.583 41.2905 136.128 41.2905Z" fill="#E31587"/>
<path d="M159.002 139.891H104.267L104.479 142.048C105.378 143.96 106.294 145.556 108.337 146.978L110.092 148.404L153.1 148.398L154.629 147.723C158.527 145.558 159.603 143.839 159.603 139.891H159.001H159.002Z" fill="#333372"/>
<path d="M129.024 112.126H113.507C111.306 112.126 109.521 113.91 109.521 116.111V119.211C109.521 121.412 111.306 123.196 113.507 123.196H129.024C131.225 123.196 133.01 121.412 133.01 119.211V116.111C133.01 113.91 131.225 112.126 129.024 112.126Z" fill="#E31587"/>
<path d="M113.913 122.566C113.961 122.659 113.167 123.196 113.167 123.196L110.135 125.992C110.135 125.992 109.37 126.299 109.548 125.466L110.613 120.78C110.613 120.78 112.917 120.663 113.913 122.566Z" fill="#E31587"/>
<path d="M125.057 116.935C125.057 116.935 124.561 116.708 124.149 117.014C123.749 117.311 123.717 117.662 123.743 117.892C123.769 118.12 123.998 118.469 124.373 118.641C124.781 118.829 125.176 118.874 125.503 118.425C125.831 117.979 125.748 117.626 125.683 117.484C125.595 117.291 125.306 117.015 125.058 116.936L125.057 116.935Z" fill="white"/>
<path d="M122.49 117.645C122.49 117.645 122.439 117.102 121.97 116.896C121.514 116.697 121.191 116.846 121.006 116.983C120.821 117.12 120.634 117.492 120.672 117.902C120.714 118.348 120.871 118.713 121.422 118.774C121.973 118.835 122.237 118.586 122.328 118.459C122.452 118.287 122.547 117.899 122.492 117.645H122.49Z" fill="white"/>
<path d="M119.175 117.246C119.175 117.246 118.879 116.787 118.368 116.822C117.872 116.856 117.654 117.136 117.552 117.341C117.45 117.547 117.456 117.964 117.678 118.311C117.92 118.689 118.227 118.941 118.746 118.742C119.263 118.543 119.384 118.202 119.406 118.046C119.437 117.836 119.342 117.447 119.176 117.248L119.175 117.246Z" fill="white"/>
<path d="M129.024 76.9443H113.507C111.306 76.9443 109.521 78.7285 109.521 80.9294V84.0294C109.521 86.2303 111.306 88.0145 113.507 88.0145H129.024C131.225 88.0145 133.01 86.2303 133.01 84.0294V80.9294C133.01 78.7285 131.225 76.9443 129.024 76.9443Z" fill="#E31587"/>
<path d="M113.913 87.3848C113.961 87.478 113.167 88.0145 113.167 88.0145L110.135 90.811C110.135 90.811 109.37 91.1177 109.548 90.2841L110.613 85.5987C110.613 85.5987 112.917 85.4814 113.913 87.3848Z" fill="#E31587"/>
<path d="M125.057 81.7534C125.057 81.7534 124.561 81.5269 124.149 81.8321C123.749 82.1293 123.717 82.481 123.743 82.7107C123.769 82.9388 123.998 83.2873 124.373 83.4592C124.781 83.6471 125.176 83.6921 125.503 83.244C125.831 82.7974 125.748 82.4441 125.683 82.3027C125.595 82.11 125.306 81.8337 125.058 81.755L125.057 81.7534Z" fill="white"/>
<path d="M122.49 82.4649C122.49 82.4649 122.439 81.922 121.97 81.7164C121.514 81.5172 121.191 81.6666 121.006 81.8031C120.821 81.9397 120.634 82.3123 120.672 82.7219C120.714 83.1684 120.871 83.5331 121.422 83.5941C121.973 83.6551 122.237 83.4078 122.328 83.2793C122.452 83.1074 122.547 82.7187 122.492 82.4649H122.49Z" fill="white"/>
<path d="M119.175 82.065C119.175 82.065 118.879 81.6056 118.368 81.6409C117.872 81.6746 117.654 81.9541 117.552 82.1597C117.45 82.3653 117.456 82.783 117.678 83.1299C117.92 83.5074 118.227 83.7595 118.746 83.5604C119.263 83.3612 119.384 83.0207 119.406 82.8649C119.437 82.6545 119.342 82.2657 119.176 82.0666L119.175 82.065Z" fill="white"/>
<path d="M150.338 94.8635H134.82C132.619 94.8635 130.835 96.6476 130.835 98.8485V101.949C130.835 104.149 132.619 105.934 134.82 105.934H150.338C152.539 105.934 154.323 104.149 154.323 101.949V98.8485C154.323 96.6476 152.539 94.8635 150.338 94.8635Z" fill="#FFCFBC"/>
<path d="M149.932 105.304C149.884 105.397 150.677 105.934 150.677 105.934L153.71 108.73C153.71 108.73 154.474 109.037 154.296 108.203L153.231 103.518C153.231 103.518 150.928 103.401 149.932 105.304Z" fill="#FFCFBC"/>
<path d="M138.787 99.6709C138.787 99.6709 139.284 99.4445 139.695 99.7496C140.095 100.047 140.127 100.399 140.101 100.628C140.076 100.858 139.846 101.205 139.472 101.377C139.064 101.565 138.668 101.61 138.341 101.162C138.013 100.715 138.097 100.362 138.161 100.22C138.249 100.028 138.538 99.7512 138.786 99.6725L138.787 99.6709Z" fill="white"/>
<path d="M141.354 100.383C141.354 100.383 141.406 99.8396 141.875 99.634C142.331 99.4348 142.654 99.5842 142.838 99.7207C143.023 99.8573 143.211 100.23 143.173 100.64C143.131 101.086 142.973 101.451 142.422 101.512C141.872 101.573 141.608 101.325 141.517 101.197C141.393 101.025 141.298 100.636 141.353 100.383H141.354Z" fill="white"/>
<path d="M144.67 99.9826C144.67 99.9826 144.965 99.5232 145.476 99.5585C145.972 99.5922 146.191 99.8717 146.292 100.077C146.395 100.283 146.388 100.701 146.167 101.048C145.924 101.425 145.617 101.677 145.098 101.478C144.581 101.279 144.461 100.938 144.438 100.782C144.408 100.572 144.503 100.183 144.668 99.9842L144.67 99.9826Z" fill="white"/>
<path d="M150.338 59.4957H134.82C132.619 59.4957 130.835 61.2798 130.835 63.4808V66.5808C130.835 68.7817 132.619 70.5659 134.82 70.5659H150.338C152.539 70.5659 154.323 68.7817 154.323 66.5808V63.4808C154.323 61.2798 152.539 59.4957 150.338 59.4957Z" fill="#FFCFBC"/>
<path d="M149.932 69.9378C149.884 70.031 150.677 70.5675 150.677 70.5675L153.71 73.3639C153.71 73.3639 154.474 73.6707 154.296 72.8371L153.231 68.1517C153.231 68.1517 150.928 68.0344 149.932 69.9378Z" fill="#FFCFBC"/>
<path d="M138.787 64.3048C138.787 64.3048 139.284 64.0783 139.695 64.3835C140.095 64.6806 140.127 65.0324 140.101 65.2621C140.076 65.4902 139.846 65.8387 139.472 66.0106C139.064 66.1985 138.668 66.2435 138.341 65.7954C138.013 65.3488 138.097 64.9955 138.161 64.8541C138.249 64.6614 138.538 64.3851 138.786 64.3064L138.787 64.3048Z" fill="white"/>
<path d="M141.354 65.0163C141.354 65.0163 141.406 64.4734 141.875 64.2678C142.331 64.0686 142.654 64.218 142.838 64.3545C143.023 64.4911 143.211 64.8637 143.173 65.2733C143.131 65.7198 142.973 66.0845 142.422 66.1455C141.872 66.2065 141.608 65.9592 141.517 65.8307C141.393 65.6588 141.298 65.2701 141.353 65.0163H141.354Z" fill="white"/>
<path d="M144.67 64.6164C144.67 64.6164 144.965 64.157 145.476 64.1923C145.972 64.226 146.191 64.5055 146.292 64.7111C146.395 64.9167 146.388 65.3343 146.167 65.6813C145.924 66.0588 145.617 66.3109 145.098 66.1118C144.581 65.9126 144.461 65.5721 144.438 65.4163C144.408 65.2058 144.503 64.8171 144.668 64.618L144.67 64.6164Z" fill="white"/>
<path d="M159.017 130.239H105.301V139.838H159.017V130.239Z" fill="#D8DDEF"/>
<path d="M145.792 137.201H110.836C109.549 137.201 108.505 136.157 108.505 134.87C108.505 133.584 109.549 132.539 110.836 132.539H145.792C147.079 132.539 148.123 133.584 148.123 134.87C148.123 136.157 147.079 137.201 145.792 137.201Z" fill="white"/>
<path d="M155.382 135.219C155.607 133.981 154.786 132.794 153.548 132.568C152.309 132.343 151.123 133.164 150.897 134.402C150.672 135.641 151.493 136.828 152.731 137.053C153.97 137.279 155.156 136.458 155.382 135.219Z" fill="white"/>
</g>
<g clip-path="url(#clip1_394_4423)">
<path d="M183.39 77.3585L183.075 75.2382C183.01 74.7981 183.22 74.3628 183.605 74.1412L190.14 70.3697C190.536 70.14 191.039 70.3842 191.107 70.8371L191.449 73.1405C191.502 73.5003 191.33 73.8569 191.015 74.04L184.412 77.8516C183.993 78.0925 183.463 77.8371 183.392 77.3585H183.39Z" fill="#B10FC1"/>
<path d="M183.814 76.7112L183.546 75.023C183.511 74.6777 183.658 74.2632 184.139 73.9902L189.82 70.7102C190.284 70.4468 190.453 70.6813 190.524 71.16L190.803 73.0104C190.811 73.4328 190.806 73.5453 190.397 73.7428L184.656 77.0581C184.185 77.3071 183.885 77.2509 183.817 76.7128L183.814 76.7112Z" fill="white"/>
<path d="M167.524 71.2708C172.039 69.7545 171.874 68.3394 175.748 66.799C177.603 66.0602 179.258 64.4571 180.342 63.3553C183.423 60.2231 183.349 55.838 182.875 53.4512C182.399 51.0659 186.158 50.4796 184.773 45.6738C183.941 42.7938 181.198 42.5336 179.622 42.6861C178.503 42.7938 175.509 44.4434 175.509 44.4434C170.798 41.9762 169.76 45.2192 166.904 49.8837C165.044 52.9211 161.512 53.6969 159.655 53.8495C157.798 54.0021 153.068 55.7963 152.493 61.0905C152.237 63.4372 152.226 65.3582 153.132 67.056C155.227 70.9785 159.75 72.9477 164.087 71.9631L167.526 71.2708H167.524Z" fill="#B10FC1"/>
<path d="M184.7 74.0271C184.7 74.0271 182.136 75.349 181.529 77.185C181.529 77.185 182.825 78.0989 183.607 76.3706C183.607 76.3706 183.81 75.5707 184.1 75.2013C184.391 74.8318 185.034 74.5764 184.701 74.0271H184.7Z" fill="#FFCFBC"/>
<path d="M183.161 75.7265C183.161 75.7265 184.908 76.5891 188.861 75.3587C189.152 75.2687 189.033 75.8454 187.26 76.9408C185.891 77.7857 182.775 79.0932 181.791 78.0331C180.806 76.973 183.159 75.7265 183.159 75.7265H183.161Z" fill="#FFCFBC"/>
<path d="M170.818 60.4914C170.818 60.4914 177.816 60.8464 176.369 72.0435C175.997 74.9315 175.802 77.4212 176.234 79.6474C177.648 86.9318 177.648 90.549 177.648 94.351L174.281 94.9871C174.281 94.9871 166.791 76.4735 170.816 60.4898L170.818 60.4914Z" fill="#E31587"/>
<path d="M176.559 133.725C176.559 133.725 177.007 135.082 177.788 136.565C179.041 138.943 180.898 142.712 181.023 145.065C181.023 145.065 180.526 146.986 181.704 147.11C182.881 147.233 187.472 147.32 187.472 147.32C187.472 147.32 188.378 145.869 186.564 145.296C184.979 144.795 183.742 143.815 183.172 141.383C182.39 138.052 181.776 132.722 181.776 132.722L176.559 133.723V133.725Z" fill="#FFCFBC"/>
<path d="M173.359 81.774L163.632 82.8759L168.886 137.597C168.886 137.597 166.383 138.108 172.641 137.597C178.616 137.111 182.136 135.492 182.136 135.492L173.359 81.774Z" fill="#292960"/>
<path d="M180.318 47.2864C180.318 47.2864 182.873 48.5665 181.081 53.4511C179.259 58.4144 176.456 59.7749 175.245 57.5727C174.265 55.7914 173.351 59.6046 174.501 62.6469C174.501 62.6469 170.847 66.2657 168.401 59.9644C168.401 59.9644 169.402 58.9204 170.431 55.928C170.958 54.3924 171.986 52.0714 171.536 50.9486C170.772 49.042 173.332 47.1691 173.567 49.5705C173.567 49.5705 173.946 50.0106 174.964 49.0757C176 48.1248 178.249 46.0753 180.318 47.288V47.2864Z" fill="#FFCFBC"/>
<path d="M174.501 62.6469C174.501 62.6469 171.533 64.372 168.401 59.9645C168.401 59.9645 164.401 58.8964 160.818 68.3298C156.527 79.6201 158.151 83.9039 163.068 86.2201C168.402 88.7339 177.547 84.1192 182.128 79.6458C182.128 79.6458 184.269 77.6637 181.289 76.7272L175.957 77.1433C180.35 72.898 178.314 69.2293 174.501 62.6469Z" fill="#E31587"/>
<path opacity="0.1" d="M166.189 77.2236C166.215 76.0832 166.557 74.4287 167.566 72.0435C167.566 72.0435 167.524 76.8365 169.781 77.858L173.358 77.9689L168.732 79.2073C167.436 79.5542 166.159 78.5648 166.187 77.2236H166.189Z" fill="black"/>
<path d="M181.064 52.7814C181.064 52.7814 181.064 54.4471 181.368 56.1047C181.368 56.1047 180.782 56.1979 179.551 55.7433C179.551 55.7433 180.064 53.6986 181.064 52.7798V52.7814Z" fill="#FFCFBC"/>
<path d="M170.049 54.1274C169.856 53.9845 169.688 53.8094 169.546 53.6086C169.201 53.1139 169.068 52.5148 169.174 51.9205C169.366 50.8298 170.346 50.0283 171.451 50.0556L171.439 50.5728C170.587 50.5519 169.832 51.1703 169.683 52.0104C169.603 52.4682 169.704 52.9308 169.97 53.3115C170.237 53.6921 170.635 53.9475 171.093 54.0278C172.038 54.1949 172.944 53.562 173.111 52.6176C173.25 51.8305 172.809 51.0804 171.961 50.6579L172.19 50.1954C173.254 50.7238 173.8 51.6859 173.618 52.7075C173.401 53.9331 172.227 54.7555 171.002 54.537C170.65 54.4744 170.325 54.333 170.048 54.1274H170.049Z" fill="white"/>
<path d="M181.01 145.131C181.01 145.131 180.986 145.007 183.014 146.305C184.507 147.259 184.359 145.137 185.387 144.679C185.387 144.679 190.97 147.542 191.216 148.195C191.216 148.195 192.234 149.943 184.277 148.857C184.277 148.857 180.038 149.307 180.216 147.657C180.395 146.008 181.012 145.129 181.012 145.129L181.01 145.131Z" fill="#B10FC1"/>
<path d="M180.499 149.37C180.499 149.37 179.137 148.258 180.21 147.172C180.21 147.172 181.805 147.405 183.038 148.115C184.498 148.958 185.902 148.555 186.67 148.626C188.586 148.799 191.058 148.766 191.216 148.199C191.216 148.199 191.918 149.386 190.124 149.318C188.694 149.265 181.835 149.752 180.499 149.37Z" fill="#F79FB2"/>
<path d="M175.276 117.988C175.276 117.988 174.124 118.833 172.955 120.035C171.08 121.961 169.578 124.259 167.379 125.106C167.379 125.106 165.399 125.228 165.645 126.386C165.89 127.544 165.232 132.295 165.232 132.295C165.232 132.295 165.68 132.286 166.875 130.806C168.091 129.301 169.407 127.305 171.541 126.01C174.466 124.237 177.839 122.638 177.839 122.638L175.274 117.987L175.276 117.988Z" fill="#FFCFBC"/>
<path d="M168.077 124.646C168.077 124.646 168.2 124.624 166.858 126.623C165.87 128.093 167.995 127.994 168.43 129.031C168.43 129.031 165.444 134.549 164.784 134.78C164.784 134.78 163.014 135.76 164.278 127.828C164.278 127.828 163.923 123.58 165.569 123.795C167.216 124.01 168.078 124.646 168.078 124.646H168.077Z" fill="#B10FC1"/>
<path d="M163.85 124.039C163.85 124.039 164.992 122.703 166.054 123.8C166.054 123.8 165.786 125.39 165.047 126.606C164.172 128.047 164.543 129.459 164.456 130.225C164.239 132.136 164.218 134.608 164.782 134.778C164.782 134.778 163.579 135.453 163.687 133.662C163.772 132.234 163.439 125.366 163.85 124.037V124.039Z" fill="#F79FB2"/>
<path d="M173.962 85.0958C173.962 85.0958 189.957 101.052 192.763 107.032C195.57 113.012 176.917 128.586 176.917 128.586C176.917 128.586 172.699 125.331 168.427 120.057L176.082 111.973C176.082 111.973 165.36 103.664 163.6 98.275C161.839 92.886 163.6 86.4434 163.6 86.4434C163.6 86.4434 167.572 87.9741 173.96 85.0958H173.962Z" fill="#333372"/>
</g>
<path d="M80.2389 77.8412L80.5537 75.721C80.6196 75.2808 80.4092 74.8456 80.0237 74.6239L73.4895 70.8524C73.0928 70.6227 72.59 70.8669 72.5225 71.3199L72.1804 73.6232C72.1274 73.983 72.2993 74.3396 72.6141 74.5227L79.2174 78.3343C79.6366 78.5752 80.1666 78.3199 80.2373 77.8412H80.2389Z" fill="#B10FC1"/>
<path d="M79.8137 77.1941L80.0819 75.5059C80.1172 75.1606 79.9695 74.7462 79.4892 74.4731L73.8079 71.1931C73.3437 70.9297 73.1751 71.1642 73.1044 71.6429L72.8249 73.4933C72.8169 73.9157 72.8217 74.0282 73.2313 74.2257L78.972 77.541C79.4426 77.79 79.743 77.7338 79.8105 77.1957L79.8137 77.1941Z" fill="white"/>
<path d="M82.1027 52.4303C80.0306 51.1565 77.4735 50.9638 78.8581 46.1579C79.6885 43.2763 82.4319 43.0161 84.0077 43.1687C85.1272 43.2763 88.1213 44.9259 88.1213 44.9259C91.5393 43.6795 93.87 46.1483 93.6034 49.8474C93.4042 52.6037 92.9014 53.7892 91.1587 54.1747C91.1587 54.1747 84.5168 53.9128 82.1027 52.4303Z" fill="#333333"/>
<path d="M78.6073 74.1595C78.6073 74.1595 81.4889 76.1384 81.9402 78.4369C81.9402 78.4369 80.2424 79.338 79.5662 77.1423C79.5662 77.1423 79.3076 76.3889 79.0136 75.9007C78.7197 75.4124 78.1222 74.7699 78.6073 74.1595Z" fill="#FFCFBC"/>
<path d="M80.3719 76.6557C80.3719 76.6557 78.3608 77.3512 74.2456 75.4768C73.9437 75.3386 73.9919 75.9811 75.7635 77.4091C77.1305 78.511 80.3269 80.3549 81.5396 79.3414C82.7523 78.3278 80.3719 76.6557 80.3719 76.6557Z" fill="#FFCFBC"/>
<path d="M91.3678 60.9739C91.3678 60.9739 84.3694 61.3289 85.8167 72.526C86.1893 75.414 86.3837 77.9037 85.9516 80.1299C84.5381 87.4142 84.5381 91.0315 84.5381 94.8335L87.9048 95.4695C87.9048 95.4695 95.3947 76.956 91.3694 60.9723L91.3678 60.9739Z" fill="white"/>
<path d="M87.8735 134.207C87.8735 134.207 87.4253 135.565 86.6447 137.047C85.3918 139.426 83.535 143.194 83.4097 145.547C83.4097 145.547 83.906 147.469 82.7287 147.592C81.5513 147.716 76.9607 147.803 76.9607 147.803C76.9607 147.803 76.0547 146.352 77.8682 145.779C79.4535 145.278 80.6903 144.298 81.2606 141.866C82.0428 138.535 82.6564 133.205 82.6564 133.205L87.8735 134.206V134.207Z" fill="#FFCFBC"/>
<path d="M90.2717 82.2566L100.505 83.4163C100.505 83.4163 100.969 91.0604 100.028 98.7575C99.1928 105.582 94.1684 112.131 94.1556 116.906C94.1283 126.517 88.3844 142.757 88.3844 142.757L84.3655 142.333C80.3355 141.908 79.126 141.135 79.126 141.135L90.2717 82.2566Z" fill="#CC1379"/>
<path d="M82.4513 48.654C82.4513 48.654 80.7583 49.0475 82.5509 53.9337C84.3724 58.897 86.8701 60.0599 88.3864 58.0553C88.69 57.6537 89.6649 59.9539 89.1301 63.1294C89.1301 63.1294 93.6854 66.7611 96.1301 60.4598C96.1301 60.4598 95.2531 59.3226 93.8588 56.5631C93.1264 55.1143 91.3868 52.4093 92.0952 51.4311C93.5745 49.388 90.2994 47.6517 90.0649 50.053C90.0649 50.053 89.6858 50.4931 88.6675 49.5583C87.6314 48.6074 84.5202 47.4445 82.4529 48.6572L82.4513 48.654Z" fill="#FFCFBC"/>
<path d="M89.204 62.3712C89.204 62.3712 91.2536 63.7365 95.6515 59.7579C95.6515 59.7579 101.201 60.4582 103.455 68.4509C106.731 80.0768 105.899 85.1686 100.984 87.4864C95.6499 90.0002 85.3394 85.2746 80.7584 80.8012C80.7584 80.8012 79.3626 78.1445 82.3406 77.2081L87.6139 78.22C87.6749 72.6399 85.5852 70.3237 89.204 62.3696V62.3712Z" fill="white"/>
<path d="M82.4575 52.6019C82.4575 52.6019 82.1026 54.6274 82.0801 56.5147C82.0801 56.5147 82.7949 56.8119 84.0798 55.914C84.0798 55.914 83.4582 53.5207 82.4575 52.6019Z" fill="#FFCFBC"/>
<path d="M83.4232 145.613C83.4232 145.613 83.4473 145.49 81.4186 146.788C79.9264 147.742 80.0741 145.62 79.0461 145.162C79.0461 145.162 73.4629 148.024 73.2171 148.678C73.2171 148.678 72.1987 150.426 80.1561 149.34C80.1561 149.34 84.3949 149.79 84.2166 148.14C84.0383 146.49 83.4216 145.612 83.4216 145.612L83.4232 145.613Z" fill="#3644AC"/>
<path d="M83.9341 149.852C83.9341 149.852 85.2962 148.741 84.2233 147.655C84.2233 147.655 82.6283 147.888 81.3947 148.598C79.9346 149.441 78.5307 149.038 77.763 149.109C75.8467 149.282 73.3747 149.248 73.2173 148.681C73.2173 148.681 72.5154 149.868 74.3095 149.801C75.7391 149.748 82.5977 150.235 83.9341 149.852Z" fill="#D8DDEF"/>
<path d="M97.3932 77.0348C97.2696 75.9425 96.8905 74.4793 96.0633 72.5261C96.0633 72.5261 95.7725 76.9561 93.5142 77.9793L89.5869 78.6217L94.4715 79.6819C96.0954 80.0336 97.5812 78.686 97.3932 77.0364V77.0348Z" fill="#ECECEC"/>
<path d="M88.3546 118.471C88.3546 118.471 89.5063 119.316 90.6756 120.517C92.5501 122.443 94.0519 124.741 96.2509 125.588C96.2509 125.588 98.2314 125.71 97.9856 126.868C97.7398 128.026 98.3984 132.777 98.3984 132.777C98.3984 132.777 97.9503 132.768 96.7552 131.288C95.5393 129.783 94.2238 127.787 92.0891 126.492C89.1641 124.719 85.791 123.121 85.791 123.121L88.3562 118.469L88.3546 118.471Z" fill="#FFCFBC"/>
<path d="M95.5539 125.128C95.5539 125.128 95.4302 125.106 96.7731 127.106C97.7609 128.575 95.6358 128.476 95.2021 129.513C95.2021 129.513 98.1882 135.031 98.8483 135.262C98.8483 135.262 100.618 136.242 99.3543 128.31C99.3543 128.31 99.7093 124.062 98.0629 124.277C96.4165 124.492 95.5539 125.128 95.5539 125.128Z" fill="#3644AC"/>
<path d="M99.7799 124.521C99.7799 124.521 98.6379 123.185 97.5762 124.282C97.5762 124.282 97.8444 125.872 98.5833 127.088C99.4587 128.529 99.0876 129.941 99.1744 130.707C99.3912 132.618 99.4121 135.09 98.8483 135.26C98.8483 135.26 100.051 135.935 99.9438 134.144C99.8586 132.716 100.191 125.848 99.7799 124.519V124.521Z" fill="#D8DDEF"/>
<path d="M88.8608 89.7144C88.8608 89.7144 73.2883 99.7422 70.8677 107.515C68.9032 113.821 88.3869 128.86 88.3869 128.86C88.3869 128.86 91.6974 128.104 94.1694 122.124C94.1694 122.124 91.805 119.398 87.7958 115.013C84.1818 111.06 82.4824 110.324 82.4824 110.324C82.4824 110.324 98.1272 102.489 99.6547 98.6949C101.585 93.9035 100.387 89.6373 100.387 89.6373C100.387 89.6373 93.3219 86.8263 89.2806 86.9853L88.8624 89.7144H88.8608Z" fill="#E31587"/>
<path d="M88.3856 49.3013C88.3856 49.3013 88.4097 54.2309 86.5561 55.2412C84.7041 56.2515 83.6729 56.3656 83.6729 56.3656C83.6729 56.3656 84.545 59.9876 85.655 60.182C87.2451 60.4599 91.3748 59.2279 90.7628 55.5223C90.1492 51.8167 90.0657 50.0514 90.0657 50.0514C90.0657 50.0514 90.1042 48.4131 88.3872 49.3013H88.3856Z" fill="#333333"/>
<path d="M87.7539 85.3792C87.7539 85.3792 95.7436 89.5053 100.604 87.5001V90.4947C100.604 90.4947 90.252 91.1736 87.7539 85.381V85.3792Z" fill="#ECECEC"/>
<defs>
<clipPath id="clip0_394_4423">
<rect width="57.3252" height="114.339" fill="white" transform="translate(103.51 35.1033)"/>
</clipPath>
<clipPath id="clip1_394_4423">
<rect width="40.7905" height="106.865" fill="white" transform="translate(152.342 42.6525)"/>
</clipPath>
</defs>
</svg>
