<svg width="191" height="200" viewBox="0 0 191 200" fill="none" xmlns="http://www.w3.org/2000/svg">
<g opacity="0.5">
<path d="M32.8396 110.189C33.4634 110.116 34.0316 109.798 34.4197 109.305C34.8078 108.812 34.9841 108.184 34.9101 107.559C33.1307 93.7766 36.0903 79.826 43.3008 68.0074C50.5112 56.1888 61.542 47.2079 74.5742 42.5458C74.8751 42.4473 75.1529 42.2894 75.3912 42.0813C75.6296 41.8733 75.8237 41.6193 75.962 41.3343C76.1004 41.0493 76.1802 40.7392 76.1968 40.4221C76.2135 40.1051 76.1665 39.7875 76.0588 39.4882C75.9511 39.1888 75.7847 38.9138 75.5696 38.6792C75.3544 38.4447 75.0948 38.2554 74.8061 38.1224C74.5173 37.9895 74.2053 37.9157 73.8883 37.9053C73.5713 37.8949 73.2559 37.9482 72.9605 38.062C58.9116 43.0814 47.0178 52.7564 39.2402 65.4918C31.4627 78.2272 28.2657 93.2624 30.1765 108.119C30.2165 108.429 30.3172 108.729 30.4727 109.001C30.6282 109.273 30.8355 109.512 31.0829 109.704C31.3302 109.896 31.6126 110.038 31.9141 110.121C32.2155 110.204 32.53 110.227 32.8396 110.189V110.189Z" fill="#E7E7E7"/>
<path d="M81.486 35.667C80.8813 35.8068 80.3567 36.1787 80.0247 36.703C79.6928 37.2272 79.5799 37.8621 79.7103 38.4715C79.8407 39.0808 80.204 39.6161 80.7223 39.9626C81.2406 40.309 81.8726 40.439 82.4828 40.3248C94.6429 37.7734 107.313 39.0103 118.795 43.8697C119.37 44.0848 120.004 44.0695 120.566 43.8269C121.127 43.5844 121.572 43.1334 121.807 42.5682C122.043 42.003 122.051 41.3672 121.829 40.7937C121.607 40.2203 121.174 39.7534 120.618 39.4907C108.245 34.2541 94.5911 32.92 81.486 35.667V35.667Z" fill="#E7E7E7"/>
<path d="M27.1932 86.414C27.6418 86.0737 27.9539 85.5838 28.0735 85.0321C31.2447 70.1334 39.3127 56.7569 50.9902 47.0371C51.473 46.6334 51.7749 46.0533 51.8293 45.4242C51.8838 44.7951 51.6864 44.1687 51.2806 43.6827C50.8747 43.1967 50.2937 42.8909 49.6654 42.8327C49.037 42.7745 48.4127 42.9686 47.9299 43.3722C35.4442 53.7648 26.8183 68.0673 23.4288 83.9974C23.3258 84.4727 23.371 84.9691 23.5585 85.4196C23.7459 85.8701 24.0664 86.2529 24.4769 86.5164C24.8873 86.7799 25.3679 86.9113 25.8536 86.893C26.3394 86.8747 26.807 86.7075 27.1932 86.414V86.414Z" fill="#E7E7E7"/>
<path d="M54.4046 41.381C54.5755 41.6435 54.7961 41.87 55.0539 42.0475C55.3118 42.2251 55.6017 42.3502 55.9071 42.4158C56.2126 42.4814 56.5276 42.4862 56.8341 42.4298C57.1407 42.3735 57.4328 42.2571 57.6939 42.0874C69.9013 34.1427 84.3526 30.3414 98.927 31.2413C99.2386 31.2597 99.5504 31.2164 99.8446 31.1139C100.139 31.0115 100.41 30.8518 100.642 30.6442C100.874 30.4365 101.062 30.1849 101.197 29.9036C101.331 29.6224 101.409 29.3171 101.425 29.005C101.442 28.693 101.397 28.3805 101.293 28.0852C101.189 27.7899 101.028 27.5177 100.819 27.2841C100.611 27.0505 100.358 26.8601 100.077 26.7238C99.7951 26.5874 99.4897 26.5078 99.1781 26.4895C83.5972 25.5293 68.1482 29.5934 55.097 38.0857C54.8347 38.2548 54.6087 38.4744 54.4319 38.7317C54.2551 38.9891 54.131 39.2792 54.0667 39.5853C54.0024 39.8915 53.9991 40.2077 54.0571 40.5159C54.1151 40.824 54.2332 41.118 54.4046 41.381V41.381Z" fill="#E7E7E7"/>
<path d="M25.8259 67.0175C31.0617 55.8491 38.919 46.1274 48.7301 38.6782C58.5413 31.2289 70.0166 26.2723 82.181 24.2294C82.8021 24.1258 83.3553 23.7789 83.7187 23.2653C84.0822 22.7516 84.2262 22.1131 84.1191 21.4904C84.0119 20.8676 83.6624 20.3115 83.1475 19.9444C82.6325 19.5774 81.9942 19.4294 81.3731 19.5331C68.4537 21.7035 56.2664 26.9681 45.8461 34.8797C35.4259 42.7913 27.0807 53.1163 21.5192 64.9776C21.2525 65.5481 21.2236 66.2026 21.4388 66.7973C21.654 67.3919 22.0958 67.878 22.6669 68.1485C23.238 68.419 23.8916 68.4518 24.4841 68.2397C25.0765 68.0276 25.5592 67.588 25.8259 67.0175V67.0175Z" fill="#E7E7E7"/>
<path d="M123.398 172.004C107.062 173.002 90.7399 169.474 76.222 161.807C75.6632 161.512 75.0115 161.45 74.4104 161.636C73.8093 161.822 73.3079 162.24 73.0166 162.798C72.7253 163.356 72.6679 164.009 72.8571 164.612C73.0462 165.215 73.4664 165.72 74.0252 166.015C89.318 174.087 106.509 177.802 123.716 176.753C124.336 176.705 124.912 176.413 125.318 175.943C125.724 175.472 125.928 174.859 125.886 174.236C125.844 173.613 125.56 173.03 125.095 172.613C124.63 172.195 124.02 171.977 123.398 172.004V172.004Z" fill="#E7E7E7"/>
<path d="M163.032 117.853C162.618 118.412 162.178 118.976 161.731 119.525C156.587 125.858 150.142 131.006 142.83 134.624C142.266 134.903 141.837 135.395 141.637 135.993C141.437 136.59 141.483 137.244 141.765 137.811C142.046 138.378 142.54 138.81 143.138 139.014C143.736 139.217 144.388 139.175 144.952 138.896C152.873 134.975 159.854 129.397 165.427 122.537C165.911 121.94 166.376 121.318 166.84 120.726C167.217 120.222 167.379 119.588 167.288 118.963C167.198 118.337 166.864 117.772 166.359 117.391C165.854 117.01 165.22 116.845 164.596 116.931C163.972 117.018 163.409 117.35 163.032 117.853Z" fill="#E7E7E7"/>
<path d="M137.284 141.918C137.73 141.58 138.042 141.094 138.164 140.547C138.286 139.999 138.21 139.424 137.949 138.925C137.689 138.426 137.261 138.034 136.742 137.819C136.222 137.603 135.645 137.579 135.111 137.749C125.313 140.882 114.837 141.303 104.788 138.969C104.172 138.828 103.526 138.938 102.994 139.274C102.461 139.61 102.085 140.145 101.948 140.762C101.81 141.378 101.924 142.025 102.262 142.561C102.601 143.096 103.137 143.476 103.754 143.617C114.633 146.148 125.976 145.695 136.585 142.304C136.839 142.216 137.075 142.086 137.284 141.918V141.918Z" fill="#E7E7E7"/>
<path d="M97.5356 140.653C97.8848 140.387 98.1536 140.029 98.3128 139.619C98.4265 139.328 98.4816 139.017 98.4749 138.704C98.4683 138.391 98.4 138.082 98.2741 137.794C98.1481 137.507 97.9669 137.247 97.7409 137.029C97.5148 136.812 97.2484 136.641 96.9568 136.526C87.5537 132.867 79.2752 126.777 72.968 118.879C72.5735 118.385 71.9999 118.066 71.3734 117.994C70.7469 117.922 70.1188 118.101 69.6274 118.494C69.1359 118.886 68.8214 119.459 68.7528 120.086C68.6843 120.713 68.8675 121.343 69.2621 121.838C76.0986 130.396 85.0705 136.996 95.2609 140.963C95.6364 141.108 96.042 141.156 96.4399 141.102C96.8377 141.048 97.2147 140.893 97.5356 140.653V140.653Z" fill="#E7E7E7"/>
<path d="M118.344 84.6322C118.011 84.8857 117.589 84.9953 117.173 84.9371C116.757 84.8788 116.379 84.6574 116.124 84.3216C112.964 80.1374 108.625 76.9948 103.673 75.3022C98.7202 73.6097 93.3826 73.4454 88.3535 74.8309C88.0527 74.9125 87.7712 75.0528 87.5251 75.2437C87.279 75.4346 87.0731 75.6724 86.9193 75.9435C86.7654 76.2147 86.6665 76.5138 86.6283 76.8239C86.5901 77.134 86.6133 77.4489 86.6965 77.7508C86.7798 78.0526 86.9215 78.3354 87.1135 78.583C87.3056 78.8306 87.5442 79.0382 87.8158 79.1939C88.0874 79.3496 88.3866 79.4503 88.6964 79.4904C89.0062 79.5305 89.3205 79.5091 89.6214 79.4275C93.7364 78.2921 98.1046 78.425 102.158 79.8091C106.211 81.1932 109.762 83.7644 112.349 87.1883C113.369 88.5316 114.877 89.4171 116.542 89.6502C118.208 89.8832 119.893 89.4446 121.229 88.4309C122.564 87.4171 123.439 85.9113 123.662 84.2446C123.885 82.578 123.437 80.887 122.417 79.5437C117.344 72.8761 110.014 68.2926 101.819 66.6636C93.6234 65.0347 85.1338 66.4739 77.9623 70.7077C70.7907 74.9416 65.4368 81.6753 62.9172 89.63C60.3977 97.5846 60.8881 106.206 64.2953 113.857C64.5621 114.42 65.0377 114.858 65.6205 115.076C66.2034 115.294 66.8469 115.276 67.4135 115.024C67.98 114.773 68.4244 114.309 68.6516 113.731C68.8788 113.154 68.8706 112.509 68.6289 111.934C65.6975 105.351 65.2759 97.9324 67.4441 91.0879C69.6123 84.2434 74.2194 78.4495 80.3902 74.8067C86.5611 71.1638 93.8661 69.9257 100.918 71.3275C107.969 72.7292 114.277 76.6732 118.642 82.4105C118.897 82.7463 119.008 83.169 118.953 83.5857C118.897 84.0023 118.678 84.3788 118.344 84.6322Z" fill="#E7E7E7"/>
<path d="M119.745 132.475C111.809 132.809 103.899 131.211 96.6927 127.817C89.4866 124.423 83.1988 119.335 78.368 112.989C74.932 108.453 73.4247 102.748 74.1768 97.125C74.9289 91.5019 77.879 86.4203 82.3798 82.9951L82.7197 82.7371C83.228 82.367 83.5675 81.809 83.6636 81.1857C83.7597 80.5625 83.6045 79.9251 83.232 79.4137C82.8596 78.9024 82.3004 78.559 81.6776 78.4591C81.0548 78.3593 80.4194 78.511 79.911 78.8811L79.4957 79.1965C73.9944 83.3826 70.3885 89.5935 69.4692 96.4662C68.55 103.339 70.3924 110.312 74.5923 115.856C79.8896 122.818 86.7853 128.4 94.6888 132.124C102.592 135.848 111.268 137.602 119.973 137.238C120.602 137.212 121.194 136.936 121.618 136.472C122.043 136.008 122.264 135.392 122.235 134.762C122.205 134.131 121.927 133.537 121.461 133.109C120.995 132.681 120.379 132.456 119.75 132.482L119.745 132.475Z" fill="#E7E7E7"/>
<path d="M161.384 105.426C158.118 112.025 153.407 117.793 147.598 122.302C141.79 126.811 135.034 129.946 127.833 131.474C127.228 131.613 126.702 131.986 126.37 132.511C126.038 133.037 125.926 133.673 126.058 134.283C126.189 134.893 126.555 135.428 127.075 135.773C127.595 136.119 128.228 136.247 128.839 136.13C136.556 134.512 143.808 131.195 150.07 126.417C156.659 121.428 161.993 114.969 165.654 107.549C165.932 106.984 165.975 106.33 165.772 105.732C165.569 105.133 165.137 104.638 164.571 104.356C164.006 104.074 163.353 104.028 162.757 104.227C162.16 104.427 161.668 104.857 161.39 105.421L161.384 105.426Z" fill="#E7E7E7"/>
<path d="M161.52 131.333C159.073 133.583 156.458 135.643 153.699 137.496C147.417 141.718 140.434 144.79 133.07 146.571C132.759 146.636 132.464 146.762 132.203 146.944C131.942 147.125 131.72 147.358 131.552 147.627C131.383 147.896 131.27 148.197 131.219 148.512C131.169 148.827 131.183 149.149 131.259 149.459C131.336 149.769 131.473 150.061 131.664 150.317C131.855 150.573 132.096 150.789 132.371 150.951C132.646 151.113 132.951 151.218 133.267 151.26C133.583 151.302 133.903 151.28 134.21 151.195C142.116 149.286 149.614 145.988 156.358 141.455C157.482 140.702 158.601 139.902 159.683 139.08C161.433 137.752 163.136 136.324 164.745 134.843C164.986 134.635 165.182 134.381 165.323 134.096C165.463 133.81 165.545 133.499 165.562 133.18C165.58 132.862 165.533 132.542 165.425 132.241C165.317 131.941 165.15 131.664 164.934 131.429C164.717 131.193 164.456 131.003 164.166 130.871C163.875 130.738 163.561 130.665 163.243 130.656C162.924 130.647 162.608 130.702 162.311 130.819C162.015 130.935 161.746 131.11 161.52 131.333V131.333Z" fill="#E7E7E7"/>
<path d="M125.541 152.711C126.152 152.625 126.704 152.304 127.081 151.815C127.457 151.326 127.627 150.709 127.556 150.094C127.484 149.479 127.177 148.914 126.698 148.52C126.219 148.126 125.607 147.934 124.992 147.983C112.359 149.394 99.5689 147.067 88.1991 141.29C87.9201 141.148 87.6164 141.063 87.3051 141.038C86.9938 141.014 86.6812 141.051 86.385 141.148C86.0888 141.245 85.8149 141.399 85.5789 141.602C85.3429 141.805 85.1494 142.053 85.0095 142.332C84.8696 142.611 84.786 142.914 84.7635 143.226C84.741 143.538 84.78 143.851 84.8784 144.148C84.9767 144.445 85.1324 144.721 85.3365 144.958C85.5407 145.196 85.7894 145.391 86.0683 145.533C98.2663 151.731 111.988 154.226 125.541 152.711V152.711Z" fill="#E7E7E7"/>
<path d="M81.1878 140.949C81.3939 140.793 81.5721 140.604 81.715 140.389C82.0672 139.868 82.1976 139.227 82.0775 138.607C81.9574 137.987 81.5967 137.438 81.0746 137.082C75.2233 133.101 70.057 128.19 65.7809 122.545C60.3538 115.387 57.675 106.524 58.2363 97.5821C58.2659 97.265 58.2316 96.9448 58.1353 96.6406C58.0391 96.3363 57.8829 96.0541 57.6761 95.8108C57.4693 95.5674 57.216 95.3679 56.9314 95.224C56.6467 95.0801 56.3364 94.9948 56.0189 94.9731C55.7013 94.9514 55.3831 94.9938 55.083 95.0978C54.7829 95.2017 54.507 95.3651 54.2717 95.5782C54.0365 95.7914 53.8467 96.0499 53.7135 96.3385C53.5804 96.6271 53.5066 96.9399 53.4966 97.2584C52.8631 107.343 55.8842 117.339 62.0052 125.411C66.5945 131.47 72.1395 136.741 78.4201 141.014C78.832 141.294 79.3206 141.439 79.817 141.427C80.3135 141.415 80.7929 141.248 81.1878 140.949Z" fill="#E7E7E7"/>
<path d="M56.646 91.2909C56.9462 91.3779 57.2603 91.405 57.5702 91.3705C57.8801 91.3359 58.1798 91.2406 58.4523 91.0898C58.7247 90.939 58.9645 90.7358 59.158 90.4917C59.3514 90.2476 59.4948 89.9675 59.5798 89.6672C61.7504 81.9451 66.38 75.1572 72.7666 70.333C77.4703 66.7799 82.9547 64.3997 88.7697 63.3878C94.5847 62.3759 100.564 62.7612 106.218 64.512C106.519 64.6156 106.838 64.6578 107.155 64.6359C107.472 64.614 107.782 64.5285 108.064 64.3845C108.347 64.2405 108.598 64.0409 108.802 63.7976C109.006 63.5542 109.158 63.2721 109.251 62.9678C109.343 62.6636 109.374 62.3435 109.341 62.0265C109.307 61.7096 109.211 61.4021 109.057 61.1225C108.903 60.8428 108.695 60.5967 108.444 60.3986C108.194 60.2005 107.907 60.0545 107.6 59.9693C101.226 57.9943 94.4829 57.5596 87.9261 58.7008C81.3692 59.8421 75.1854 62.5268 69.8824 66.5344C62.6785 71.9759 57.4563 79.6324 55.0078 88.3428C54.9227 88.643 54.8976 88.9574 54.9338 89.268C54.9701 89.5786 55.0671 89.8794 55.2192 90.1532C55.3713 90.427 55.5756 90.6684 55.8204 90.8636C56.0653 91.0588 56.3458 91.204 56.646 91.2909V91.2909Z" fill="#E7E7E7"/>
<path d="M129.437 82.1983C129.736 82.108 130.013 81.9596 130.254 81.7615C130.494 81.5633 130.693 81.3194 130.839 81.0437C130.985 80.7679 131.075 80.4658 131.104 80.1545C131.133 79.8432 131.1 79.5289 131.008 79.2295C130.513 77.6237 129.738 76.1168 128.719 74.7787C125.266 70.2144 120.918 66.404 115.944 63.5839C115.398 63.3088 114.768 63.254 114.185 63.431C113.602 63.608 113.111 64.0031 112.813 64.5346C112.516 65.066 112.434 65.6931 112.585 66.2858C112.737 66.8786 113.11 67.3915 113.627 67.7185C118.03 70.2167 121.878 73.5912 124.934 77.6328C125.611 78.5235 126.126 79.5266 126.454 80.5955C126.545 80.8972 126.694 81.1783 126.894 81.4225C127.093 81.6667 127.338 81.8692 127.616 82.0182C127.893 82.1673 128.197 82.2599 128.51 82.2909C128.822 82.3218 129.138 82.2903 129.437 82.1983Z" fill="#E7E7E7"/>
<path d="M157.14 94.2546C156.913 95.1056 156.661 95.9559 156.381 96.7824C153.778 104.554 148.899 111.35 142.377 116.288C135.663 121.358 127.55 124.242 119.126 124.554C110.702 124.867 102.368 122.592 95.2425 118.036C91.1681 115.407 87.585 112.081 84.6583 108.211C82.491 105.357 81.5396 101.764 82.0133 98.2219C82.487 94.6802 84.3471 91.4803 87.1843 89.3262C90.0215 87.172 93.6035 86.24 97.1422 86.7351C100.681 87.2303 103.886 89.1121 106.054 91.9666C107.559 93.9474 109.551 95.5041 111.834 96.4829C114.117 97.4617 116.612 97.8289 119.072 97.5482C121.533 97.2676 123.874 96.3488 125.865 94.8825C127.856 93.4161 129.428 91.453 130.426 89.1867C130.679 88.6102 130.692 87.9553 130.463 87.3661C130.234 86.7769 129.781 86.3017 129.203 86.045C128.626 85.7883 127.973 85.7711 127.386 85.9973C126.799 86.2234 126.327 86.6743 126.074 87.2509C125.408 88.7604 124.36 90.0679 123.034 91.0444C121.707 92.0209 120.147 92.6328 118.507 92.8197C116.868 93.0067 115.206 92.7623 113.684 92.1105C112.163 91.4588 110.835 90.4223 109.832 89.1031C106.9 85.2411 102.563 82.6951 97.775 82.0252C92.9873 81.3552 88.1411 82.6162 84.3025 85.5307C80.464 88.4452 77.9474 92.7744 77.3065 97.5661C76.6656 102.358 77.9528 107.219 80.885 111.081C82.3007 112.951 83.8538 114.713 85.5314 116.351C91.1102 121.755 97.9534 125.667 105.426 127.724C112.898 129.782 120.757 129.918 128.273 128.12C135.789 126.322 142.719 122.648 148.419 117.44C154.119 112.232 158.405 105.658 160.878 98.3284C161.178 97.4169 161.47 96.4618 161.72 95.518C161.883 94.9089 161.797 94.2588 161.481 93.7105C161.165 93.1623 160.645 92.7609 160.036 92.5946C159.427 92.4283 158.779 92.5108 158.233 92.824C157.688 93.1371 157.29 93.6551 157.128 94.2642L157.14 94.2546Z" fill="#E7E7E7"/>
<path d="M146.826 89.7072C148.286 82.7257 147.224 75.437 143.827 69.138C143.526 68.5819 143.017 68.1671 142.413 67.9849C141.808 67.8027 141.158 67.868 140.604 68.1665C140.051 68.465 139.64 68.9721 139.461 69.5764C139.283 70.1807 139.352 70.8327 139.653 71.3888C142.695 77.0234 143.51 83.5876 141.935 89.7705C140.36 95.9535 136.511 101.3 131.157 104.743C125.802 108.186 119.336 109.471 113.051 108.343C106.765 107.215 101.121 103.755 97.247 98.6556C96.8646 98.1519 96.2989 97.8198 95.6744 97.7324C95.0499 97.645 94.4178 97.8095 93.9171 98.1896C93.4164 98.5698 93.0882 99.1345 93.0046 99.7595C92.921 100.384 93.0889 101.019 93.4714 101.522C96.9715 106.127 101.712 109.636 107.13 111.633C112.547 113.629 118.414 114.029 124.034 112.785C129.653 111.541 134.787 108.704 138.828 104.614C142.868 100.523 145.644 95.3488 146.826 89.7072V89.7072Z" fill="#E7E7E7"/>
<path d="M100.953 42.522C90.9886 41.4851 80.9412 43.0582 71.7958 47.0869C62.6505 51.1156 54.7212 57.4617 48.7853 65.5031C48.4121 66.0095 48.2558 66.6448 48.3509 67.2694C48.4461 67.8939 48.7848 68.4565 49.2925 68.8333C49.8003 69.2101 50.4356 69.3703 51.0585 69.2787C51.6815 69.1871 52.2412 68.8511 52.6144 68.3447C55.5986 64.2997 59.1463 60.7053 63.1503 57.6704C85.0524 41.0411 116.577 44.2188 134.914 64.9088C135.314 65.3591 135.868 65.6424 136.465 65.7018C137.062 65.7613 137.658 65.5924 138.134 65.2291C138.184 65.1957 138.233 65.159 138.279 65.1192C138.512 64.9126 138.701 64.6618 138.837 64.3811C138.973 64.1004 139.052 63.7954 139.07 63.4833C139.088 63.1713 139.044 62.8585 138.941 62.5627C138.838 62.2669 138.678 61.994 138.471 61.7596C128.805 50.8545 115.405 43.9837 100.953 42.522V42.522Z" fill="#E7E7E7"/>
<path d="M50.1399 132.026C50.1905 131.993 50.2388 131.956 50.2846 131.916C50.7623 131.556 51.0851 131.027 51.1883 130.436C51.2915 129.845 51.1674 129.235 50.8409 128.729C45.7481 120.806 42.8307 111.687 42.3848 102.297C41.9388 92.907 43.9802 83.5804 48.3017 75.2639C48.4579 74.9862 48.5564 74.6795 48.5915 74.3622C48.6265 74.0448 48.5973 73.7232 48.5057 73.4167C48.4141 73.1101 48.2618 72.8248 48.0581 72.5778C47.8543 72.3307 47.6032 72.127 47.3198 71.9789C47.0363 71.8307 46.7263 71.741 46.4082 71.7152C46.0901 71.6894 45.7705 71.728 45.4683 71.8287C45.1662 71.9294 44.8877 72.0902 44.6496 72.3014C44.4115 72.5126 44.2185 72.7699 44.0823 73.058C39.3759 82.1196 37.1532 92.2808 37.6397 102.511C38.1261 112.741 41.3044 122.676 46.8521 131.309C47.0221 131.572 47.2421 131.799 47.4993 131.978C47.7566 132.156 48.0462 132.282 48.3515 132.349C48.6569 132.415 48.972 132.421 49.2788 132.366C49.5857 132.31 49.8783 132.195 50.1399 132.026V132.026Z" fill="#E7E7E7"/>
<path d="M93.9214 164.555C94.2672 164.292 94.5338 163.939 94.6919 163.534C94.8501 163.129 94.8938 162.687 94.8183 162.257C94.7427 161.827 94.5509 161.426 94.2636 161.097C93.9764 160.767 93.6048 160.523 93.1894 160.39C78.7012 155.778 65.7889 147.159 55.9464 135.53C55.5372 135.046 54.954 134.744 54.3251 134.69C53.6961 134.636 53.073 134.834 52.5927 135.241C52.1124 135.648 51.8143 136.231 51.764 136.861C51.7137 137.49 51.9153 138.116 52.3245 138.599C62.7493 150.91 76.423 160.033 91.7643 164.915C92.1274 165.033 92.5129 165.062 92.8883 164.999C93.2637 164.937 93.618 164.784 93.9214 164.555V164.555Z" fill="#E7E7E7"/>
<path d="M144.144 159.861C130.361 164.602 115.533 165.515 101.229 162.502C100.915 162.413 100.586 162.389 100.262 162.433C99.9391 162.477 99.6288 162.587 99.3506 162.756C99.0725 162.925 98.8325 163.151 98.6456 163.418C98.4588 163.685 98.3291 163.988 98.2647 164.308C98.2003 164.628 98.2025 164.958 98.2712 165.278C98.3399 165.598 98.4736 165.901 98.6639 166.168C98.8543 166.434 99.0973 166.659 99.3777 166.828C99.6581 166.997 99.9699 167.107 100.294 167.15C115.439 170.341 131.14 169.374 145.734 164.353C146.31 164.133 146.777 163.695 147.035 163.133C147.293 162.572 147.321 161.931 147.114 161.346C146.907 160.761 146.481 160.278 145.926 160.001C145.371 159.724 144.732 159.674 144.144 159.861V159.861Z" fill="#E7E7E7"/>
<path d="M153.054 82.1534C152.742 82.1428 152.431 82.1938 152.14 82.3035C151.848 82.4133 151.581 82.5796 151.355 82.793C151.128 83.0064 150.946 83.2627 150.818 83.5473C150.691 83.8318 150.621 84.139 150.612 84.4514C150.511 88.244 149.766 91.9878 148.408 95.522C146.773 99.8041 144.26 103.691 141.03 106.932C140.6 107.357 140.35 107.93 140.329 108.535C140.308 109.14 140.518 109.732 140.917 110.19C141.316 110.648 141.873 110.937 142.475 110.999C143.077 111.06 143.678 110.89 144.157 110.522C144.244 110.455 144.327 110.383 144.403 110.305C148.099 106.596 150.975 102.15 152.846 97.2522C154.395 93.2156 155.247 88.9408 155.365 84.6101C155.374 84.2977 155.321 83.9863 155.209 83.6937C155.098 83.4012 154.93 83.1331 154.715 82.905C154.5 82.6768 154.243 82.493 153.958 82.3641C153.673 82.2351 153.366 82.1635 153.054 82.1534Z" fill="#E7E7E7"/>
<path d="M91.9925 95.6575C93.1608 94.7705 94.6357 94.3867 96.0928 94.5906C97.5499 94.7945 98.8699 95.5694 99.7623 96.7447C102.264 100.047 105.637 102.585 109.496 104.071C110.081 104.279 110.722 104.251 111.284 103.993C111.846 103.734 112.283 103.266 112.503 102.687C112.722 102.108 112.707 101.465 112.46 100.894C112.213 100.324 111.754 99.871 111.181 99.6327C108.151 98.4638 105.503 96.4703 103.538 93.878C101.881 91.6952 99.4293 90.2562 96.7232 89.8775C94.0171 89.4988 91.278 90.2115 89.1084 91.8589C86.9387 93.5062 85.5163 95.9531 85.1541 98.6615C84.7918 101.37 85.5194 104.118 87.1767 106.3C92.8927 113.811 101.169 118.953 110.412 120.735C119.654 122.518 129.208 120.814 137.233 115.953L137.428 115.805C137.685 115.629 137.906 115.405 138.076 115.143C138.246 114.882 138.363 114.589 138.42 114.282C138.477 113.975 138.473 113.659 138.409 113.352C138.344 113.046 138.22 112.755 138.043 112.496C137.866 112.237 137.64 112.015 137.378 111.843C137.117 111.671 136.824 111.552 136.517 111.493C136.21 111.434 135.894 111.436 135.589 111.499C135.283 111.562 134.993 111.685 134.736 111.861C127.727 116.145 119.363 117.655 111.27 116.097C103.178 114.54 95.9354 110.026 90.9524 103.434C90.06 102.258 89.6682 100.779 89.8633 99.3204C90.0583 97.8621 90.8242 96.5445 91.9925 95.6575V95.6575Z" fill="#E7E7E7"/>
<path d="M118.566 100.776C118.255 100.795 117.951 100.875 117.671 101.012C117.391 101.148 117.141 101.339 116.936 101.573C116.73 101.807 116.573 102.08 116.473 102.375C116.373 102.67 116.332 102.983 116.352 103.295C116.373 103.607 116.455 103.912 116.593 104.193C116.731 104.474 116.923 104.726 117.158 104.933C117.393 105.14 117.666 105.3 117.961 105.402C118.257 105.504 118.569 105.546 118.881 105.528C122.878 105.279 126.726 103.95 130.018 101.682C133.309 99.4136 135.92 96.291 137.574 92.6457C139.227 89.0005 139.861 84.9689 139.408 80.9793C138.955 76.9898 137.432 73.1914 135.001 69.9879C130.366 63.8484 124.38 58.8606 117.511 55.4165C110.643 51.9725 103.08 50.1659 95.4171 50.1387C95.1005 50.1288 94.7855 50.1824 94.4907 50.2963C94.1958 50.4102 93.927 50.5822 93.7 50.8021C93.4731 51.0219 93.2926 51.2853 93.1692 51.5767C93.0457 51.868 92.9818 52.1815 92.9812 52.4987C92.9807 52.8159 93.0434 53.1303 93.1657 53.4236C93.2881 53.7169 93.4676 53.983 93.6938 54.2064C93.9199 54.4297 94.1881 54.6058 94.4825 54.7243C94.7769 54.8428 95.0917 54.9012 95.4083 54.8962C102.342 54.9209 109.185 56.5555 115.399 59.6714C121.614 62.7874 127.031 67.3 131.225 72.8546C133.135 75.3712 134.331 78.3548 134.686 81.4884C135.042 84.622 134.545 87.7887 133.246 90.6522C131.948 93.5156 129.898 95.9689 127.313 97.7513C124.728 99.5338 121.706 100.579 118.566 100.776V100.776Z" fill="#E7E7E7"/>
<path d="M87.3259 55.5591C87.6351 55.5083 87.9309 55.3965 88.1962 55.2303C88.4615 55.0641 88.6909 54.8467 88.8713 54.5906C89.0517 54.3346 89.1795 54.0451 89.2472 53.7386C89.315 53.4322 89.3215 53.1151 89.2662 52.8054C89.2109 52.4958 89.095 52.1999 88.9252 51.9347C88.7554 51.6695 88.535 51.4403 88.2768 51.2603C88.0185 51.0804 87.7276 50.9532 87.4207 50.8862C87.1138 50.8193 86.7971 50.8137 86.4887 50.87C78.8666 52.1784 71.67 55.2694 65.4826 59.8924L65.4637 59.9068C65.2149 60.0938 65.0055 60.3282 64.8476 60.5968C64.6897 60.8653 64.5863 61.1627 64.5433 61.472C64.4566 62.0966 64.6214 62.7315 65.0013 63.2371C65.3813 63.7427 65.9453 64.0777 66.5694 64.1682C67.1934 64.2587 67.8264 64.0974 68.329 63.7197C73.9239 59.5375 80.4323 56.7416 87.3259 55.5591V55.5591Z" fill="#E7E7E7"/>
<path d="M58.7727 65.8964C52.7513 72.379 48.5694 80.3594 46.6561 89.0191C44.7427 97.6787 45.1668 106.706 47.8847 115.174C48.0779 115.776 48.5013 116.278 49.062 116.569C49.6226 116.86 50.2745 116.917 50.8742 116.727C51.1317 116.647 51.3731 116.523 51.5876 116.36C51.9773 116.063 52.265 115.653 52.4112 115.184C52.5573 114.716 52.5548 114.213 52.4039 113.744C49.9466 106.083 49.5642 97.9172 51.296 90.0839C53.0278 82.2506 56.8114 75.0319 62.2588 69.1682C62.4785 68.9424 62.6509 68.6747 62.7658 68.3808C62.8806 68.0869 62.9358 67.7727 62.9279 67.4565C62.92 67.1403 62.8493 66.8285 62.7198 66.5393C62.5904 66.2501 62.4048 65.9893 62.174 65.7722C61.9432 65.555 61.6718 65.3859 61.3756 65.2747C61.0794 65.1634 60.7644 65.1123 60.4489 65.1243C60.1335 65.1363 59.824 65.2112 59.5385 65.3446C59.253 65.478 58.9972 65.6672 58.7862 65.9011L58.7727 65.8964Z" fill="#E7E7E7"/>
<path d="M159.284 143.304C158.13 144.11 156.938 144.891 155.745 145.627C140.384 155.145 121.992 158.545 104.181 155.158C86.3695 151.771 70.428 141.842 59.4881 127.322C58.0086 125.375 56.6868 123.313 55.5355 121.156C55.3938 120.87 55.1965 120.615 54.9552 120.407C54.7138 120.198 54.4334 120.04 54.1305 119.941C53.8276 119.842 53.5084 119.806 53.1918 119.833C52.8752 119.86 52.5676 119.951 52.2874 120.099C52.0071 120.248 51.7598 120.452 51.5601 120.698C51.3604 120.945 51.2124 121.23 51.1249 121.535C51.0373 121.841 51.012 122.161 51.0505 122.478C51.0889 122.794 51.1903 123.1 51.3487 123.377C52.6182 125.761 54.0775 128.039 55.7124 130.189C67.4248 145.578 84.4013 156.093 103.348 159.695C122.295 163.298 141.861 159.73 158.25 149.684C159.522 148.903 160.79 148.07 162.018 147.212L162.094 147.155C162.602 146.784 162.941 146.226 163.036 145.603C163.132 144.979 162.976 144.342 162.603 143.831C162.23 143.32 161.671 142.977 161.048 142.878C160.425 142.778 159.79 142.931 159.282 143.301L159.284 143.304Z" fill="#E7E7E7"/>
</g>
<g filter="url(#filter0_d_394_6700)">
<rect x="74.4551" y="58.9741" width="46.4421" height="81.0266" rx="4" fill="white"/>
<rect x="77.4189" y="65.8909" width="40.5133" height="61.264" rx="4" fill="#D9BFFF"/>
<circle cx="97.6743" cy="133.577" r="3.45845" fill="#C4C4C4"/>
<rect x="91.2529" y="61.9387" width="12.8457" height="1.97626" rx="0.988129" fill="#C4C4C4"/>
</g>
<rect x="93.6211" y="81.0895" width="75.9291" height="27.2755" rx="8" fill="#AB71FF"/>
<path d="M105.416 114.262V99.5189H120.16L105.416 114.262Z" fill="#AB71FF"/>
<path fill-rule="evenodd" clip-rule="evenodd" d="M155.544 99.5342L155.462 99.5253C154.281 99.3358 153.22 98.6942 152.504 97.7362C151.671 96.6048 151.208 95.244 151.177 93.8395C151.121 93.221 151.121 91.8631 151.121 91.1075C151.119 90.4455 151.595 89.8785 152.247 89.7644L155.544 89.1982L158.84 89.7644C159.493 89.8779 159.969 90.4455 159.967 91.1083V91.1083C159.967 91.8624 159.967 93.221 159.908 93.8395C159.877 95.244 159.414 96.6048 158.581 97.7362C157.865 98.6942 156.805 99.3358 155.624 99.5253L155.544 99.5342ZM152.595 91.1997C152.595 91.6549 152.59 92.0579 152.586 92.4045C152.578 92.9701 152.573 93.3855 152.595 93.6324C152.615 94.7971 152.998 95.9267 153.692 96.8627C154.145 97.4692 154.803 97.8898 155.544 98.0458C156.285 97.8898 156.943 97.4691 157.396 96.8627C158.09 95.9267 158.473 94.7972 158.493 93.6324C158.515 93.3855 158.51 92.9701 158.503 92.4045V92.4045V92.4045C158.498 92.0579 158.493 91.6548 158.493 91.1997L155.544 90.6947L152.595 91.1997ZM153.701 92.1322L155.544 91.8167V96.9039H155.538C155.155 96.7754 154.821 96.5328 154.58 96.2088C154.023 95.4567 153.731 94.542 153.747 93.6066C153.723 93.3522 153.708 92.8266 153.701 92.1322Z" fill="white"/>
<path d="M112.491 100.36H114.217L114.061 97.4839L116.476 99.0677L117.342 97.5621L114.757 96.2695L117.342 94.9768L116.476 93.4712L114.061 95.055L114.217 92.1785H112.491L112.655 95.055L110.24 93.4712L109.374 94.9768L111.952 96.2695L109.374 97.5621L110.24 99.0677L112.655 97.4839L112.491 100.36ZM123.351 100.36H125.077L124.92 97.4839L127.335 99.0677L128.202 97.5621L125.616 96.2695L128.202 94.9768L127.335 93.4712L124.92 95.055L125.077 92.1785H123.351L123.514 95.055L121.099 93.4712L120.233 94.9768L122.811 96.2695L120.233 97.5621L121.099 99.0677L123.514 97.4839L123.351 100.36ZM134.21 100.36H135.936L135.78 97.4839L138.195 99.0677L139.061 97.5621L136.476 96.2695L139.061 94.9768L138.195 93.4712L135.78 95.055L135.936 92.1785H134.21L134.374 95.055L131.959 93.4712L131.092 94.9768L133.67 96.2695L131.092 97.5621L131.959 99.0677L134.374 97.4839L134.21 100.36ZM117.921 124.36H119.647L119.491 121.484L121.905 123.068L122.772 121.562L120.187 120.269L122.772 118.977L121.905 117.471L119.491 119.055L119.647 116.179H117.921L118.084 119.055L115.67 117.471L114.803 118.977L117.381 120.269L114.803 121.562L115.67 123.068L118.084 121.484L117.921 124.36ZM128.78 124.36H130.506L130.35 121.484L132.765 123.068L133.631 121.562L131.046 120.269L133.631 118.977L132.765 117.471L130.35 119.055L130.506 116.179H128.78L128.944 119.055L126.529 117.471L125.663 118.977L128.241 120.269L125.663 121.562L126.529 123.068L128.944 121.484L128.78 124.36Z" fill="#FFFF98"/>
<path d="M66.3462 58.9691C66.3457 58.6972 66.1506 58.4644 65.8823 58.4158C64.793 58.2246 61.7421 57.5053 60.7134 56.4791C59.6846 55.4529 58.9584 52.4045 58.7668 51.323C58.7215 51.0645 58.5003 50.8732 58.2373 50.8652V58.9742L66.3462 58.9691Z" fill="#FFEA80"/>
<path d="M58.2369 50.8652C57.9651 50.8665 57.734 51.0645 57.6899 51.3336C57.5143 52.4215 56.8318 55.4637 55.8132 56.4911C54.7946 57.5186 51.7136 58.2338 50.5896 58.4201C50.3216 58.4669 50.1264 58.7011 50.1279 58.9742H58.2369V50.8652Z" fill="#FFD567"/>
<path d="M58.2373 58.9741V67.0831C58.5081 67.0822 58.7393 66.8871 58.7856 66.6203C58.9768 65.5186 59.7011 62.435 60.7273 61.4088C61.7535 60.3826 64.7919 59.6985 65.8734 59.5224C66.1442 59.4805 66.3445 59.2482 66.3462 58.9741L58.2373 58.9741Z" fill="#FFD567"/>
<path d="M50.1279 58.9741C50.1271 59.2473 50.326 59.4802 50.596 59.5224C51.6984 59.6985 54.7789 60.3826 55.8057 61.4088C56.8325 62.435 57.512 65.5086 57.6882 66.6102C57.7321 66.8799 57.9634 67.0793 58.2369 67.0831V58.9741L50.1279 58.9741Z" fill="#FFA266"/>
<path d="M90.6722 49.3885C90.672 49.2649 90.5833 49.1591 90.4613 49.137C89.9662 49.0501 88.5794 48.7232 88.1118 48.2567C87.6442 47.7903 87.3141 46.4046 87.227 45.913C87.2064 45.7955 87.1059 45.7086 86.9863 45.705V49.3908L90.6722 49.3885Z" fill="#FFEA80"/>
<path d="M86.9867 45.705C86.8631 45.7055 86.7581 45.7955 86.738 45.9179C86.6582 46.4124 86.348 47.7951 85.885 48.2622C85.422 48.7292 84.0215 49.0543 83.5106 49.139C83.3888 49.1602 83.3001 49.2667 83.3008 49.3908H86.9867V45.705Z" fill="#FFD567"/>
<path d="M86.9863 49.3909V53.0767C87.1094 53.0763 87.2145 52.9877 87.2356 52.8664C87.3224 52.3656 87.6517 50.964 88.1182 50.4975C88.5846 50.0311 89.9657 49.7201 90.4573 49.6401C90.5804 49.621 90.6714 49.5154 90.6722 49.3909L86.9863 49.3909Z" fill="#FFD567"/>
<path d="M83.3008 49.3909C83.3004 49.515 83.3908 49.6209 83.5136 49.6401C84.0146 49.7201 85.4148 50.0311 85.8816 50.4975C86.3483 50.964 86.6572 52.3611 86.7373 52.8618C86.7572 52.9844 86.8624 53.075 86.9867 53.0767V49.3909L83.3008 49.3909Z" fill="#FFA266"/>
<path d="M114.262 67.8178C114.262 67.6942 114.173 67.5884 114.051 67.5663C113.556 67.4794 112.169 67.1524 111.702 66.686C111.234 66.2195 110.904 64.8339 110.817 64.3423C110.796 64.2248 110.696 64.1379 110.576 64.1342V67.8201L114.262 67.8178Z" fill="#FFEA80"/>
<path d="M110.577 64.1342C110.453 64.1348 110.348 64.2248 110.328 64.3471C110.248 64.8416 109.938 66.2244 109.475 66.6914C109.012 67.1585 107.611 67.4836 107.1 67.5683C106.979 67.5895 106.89 67.696 106.891 67.8201H110.577V64.1342Z" fill="#FFD567"/>
<path d="M110.576 67.8202V71.5061C110.699 71.5057 110.804 71.417 110.825 71.2957C110.912 70.795 111.242 69.3933 111.708 68.9269C112.174 68.4604 113.556 68.1494 114.047 68.0694C114.17 68.0503 114.261 67.9448 114.262 67.8202H110.576Z" fill="#FFD567"/>
<path d="M106.891 67.8202C106.89 67.9444 106.981 68.0502 107.103 68.0694C107.604 68.1494 109.005 68.4604 109.471 68.9269C109.938 69.3933 110.247 70.7904 110.327 71.2911C110.347 71.4137 110.452 71.5044 110.577 71.5061V67.8202H106.891Z" fill="#FFA266"/>
<path d="M60.4486 90.6704C60.4484 90.5468 60.3596 90.441 60.2377 90.4189C59.7426 90.332 58.3558 90.005 57.8882 89.5386C57.4206 89.0721 57.0905 87.6865 57.0034 87.1949C56.9828 87.0774 56.8822 86.9905 56.7627 86.9868V90.6727L60.4486 90.6704Z" fill="#FFEA80"/>
<path d="M56.762 86.9868C56.6385 86.9874 56.5335 87.0774 56.5134 87.1997C56.4336 87.6942 56.1234 89.077 55.6604 89.544C55.1974 90.0111 53.7969 90.3362 53.286 90.4209C53.1642 90.4421 53.0755 90.5486 53.0762 90.6727H56.762V86.9868Z" fill="#FFD567"/>
<path d="M56.7627 90.6726V94.3585C56.8858 94.3581 56.9909 94.2694 57.0119 94.1481C57.0988 93.6474 57.4281 92.2457 57.8945 91.7793C58.361 91.3128 59.742 91.0019 60.2336 90.9218C60.3567 90.9028 60.4478 90.7972 60.4486 90.6726H56.7627Z" fill="#FFD567"/>
<path d="M53.0762 90.6726C53.0758 90.7968 53.1662 90.9026 53.289 90.9218C53.79 91.0019 55.1902 91.3128 55.657 91.7793C56.1237 92.2457 56.4326 93.6428 56.5127 94.1436C56.5326 94.2662 56.6378 94.3568 56.762 94.3585V90.6726H53.0762Z" fill="#FFA266"/>
<path d="M78.1406 106.887C78.1402 106.689 77.9983 106.52 77.8032 106.485C77.011 106.346 74.7921 105.822 74.0439 105.076C73.2957 104.33 72.7676 102.113 72.6283 101.326C72.5953 101.138 72.4344 100.999 72.2432 100.993V106.891L78.1406 106.887Z" fill="#FFEA80"/>
<path d="M72.2431 100.993C72.0455 100.994 71.8774 101.138 71.8453 101.334C71.7176 102.125 71.2213 104.338 70.4805 105.085C69.7396 105.832 67.4989 106.352 66.6815 106.488C66.4865 106.522 66.3446 106.692 66.3457 106.891H72.2431V100.993Z" fill="#FFD567"/>
<path d="M72.2432 106.891V112.788C72.4401 112.787 72.6082 112.645 72.6419 112.451C72.781 111.65 73.3078 109.408 74.0541 108.661C74.8004 107.915 77.0101 107.417 77.7967 107.289C77.9936 107.259 78.1393 107.09 78.1406 106.891L72.2432 106.891Z" fill="#FFD567"/>
<path d="M66.3457 106.891C66.3451 107.089 66.4897 107.259 66.6862 107.289C67.4878 107.417 69.7282 107.915 70.475 108.661C71.2218 109.408 71.716 111.643 71.8441 112.444C71.876 112.64 72.0442 112.785 72.2431 112.788V106.891L66.3457 106.891Z" fill="#FFA266"/>
<defs>
<filter id="filter0_d_394_6700" x="66.4551" y="54.9741" width="62.4424" height="97.0266" filterUnits="userSpaceOnUse" color-interpolation-filters="sRGB">
<feFlood flood-opacity="0" result="BackgroundImageFix"/>
<feColorMatrix in="SourceAlpha" type="matrix" values="0 0 0 0 0 0 0 0 0 0 0 0 0 0 0 0 0 0 127 0" result="hardAlpha"/>
<feOffset dy="4"/>
<feGaussianBlur stdDeviation="4"/>
<feComposite in2="hardAlpha" operator="out"/>
<feColorMatrix type="matrix" values="0 0 0 0 0 0 0 0 0 0 0 0 0 0 0 0 0 0 0.1 0"/>
<feBlend mode="normal" in2="BackgroundImageFix" result="effect1_dropShadow_394_6700"/>
<feBlend mode="normal" in="SourceGraphic" in2="effect1_dropShadow_394_6700" result="shape"/>
</filter>
</defs>
</svg>
