<svg width="171" height="160" viewBox="0 0 171 160" fill="none" xmlns="http://www.w3.org/2000/svg">
<rect x="157.552" y="59.6659" width="1.16107" height="8.51449" rx="0.580534" transform="rotate(45 157.552 59.6659)" fill="#E22850"/>
<rect width="1.16107" height="8.51449" rx="0.580534" transform="matrix(-0.707107 0.707107 0.707107 0.707107 152.326 59.6659)" fill="#E22850"/>
<rect x="28.4158" y="108.413" width="1.16107" height="8.51449" rx="0.580534" transform="rotate(45 28.4158 108.413)" fill="#E22850"/>
<rect width="1.16107" height="8.51449" rx="0.580534" transform="matrix(-0.707107 0.707107 0.707107 0.707107 23.1904 108.413)" fill="#E22850"/>
<rect x="21.1162" y="42.5618" width="0.580534" height="4.25725" rx="0.290267" transform="rotate(45 21.1162 42.5618)" fill="#E22850"/>
<rect width="0.580534" height="4.25725" rx="0.290267" transform="matrix(-0.707107 0.707107 0.707107 0.707107 18.5037 42.5618)" fill="#E22850"/>
<rect x="63.4788" y="10.0638" width="1.16107" height="8.51449" rx="0.580534" transform="rotate(45 63.4788 10.0638)" fill="#E22850"/>
<rect width="1.16107" height="8.51449" rx="0.580534" transform="matrix(-0.707107 0.707107 0.707107 0.707107 58.2534 10.0638)" fill="#E22850"/>
<rect x="134.858" y="32.2994" width="0.580534" height="4.25725" rx="0.290267" transform="rotate(45 134.858 32.2994)" fill="#E22850"/>
<rect width="0.580534" height="4.25725" rx="0.290267" transform="matrix(-0.707107 0.707107 0.707107 0.707107 132.246 32.2994)" fill="#E22850"/>
<path d="M37.5823 105.22C38.0677 104.992 38.4416 104.581 38.622 104.076C38.8025 103.572 38.7748 103.015 38.545 102.529C33.3635 91.8524 31.9733 79.7531 34.6039 68.2263C37.2345 56.6996 43.7286 46.4337 53.0155 39.1215C53.2324 38.9601 53.4144 38.7568 53.551 38.5236C53.6875 38.2905 53.7757 38.0321 53.8104 37.7638C53.8451 37.4955 53.8256 37.2227 53.753 36.9615C53.6804 36.7003 53.5562 36.4559 53.3877 36.2427C53.2192 36.0296 53.0099 35.852 52.772 35.7205C52.5341 35.589 52.2725 35.5061 52.0026 35.4769C51.7328 35.4476 51.46 35.4726 51.2006 35.5502C50.9411 35.6278 50.7001 35.7566 50.4918 35.9289C40.4786 43.8064 33.4741 54.8686 30.6332 67.2916C27.7923 79.7145 29.2847 92.7565 34.8642 104.267C34.9808 104.508 35.1436 104.723 35.3434 104.901C35.5432 105.079 35.7759 105.216 36.0284 105.305C36.2808 105.393 36.548 105.432 36.8146 105.417C37.0813 105.403 37.3422 105.336 37.5823 105.22Z" fill="#E22850"/>
<path d="M56.7446 31.6758C56.2929 31.9531 55.9691 32.3966 55.8426 32.9112C55.7161 33.4258 55.797 33.9705 56.068 34.4285C56.339 34.8865 56.7784 35.2213 57.2921 35.3612C57.8058 35.501 58.3529 35.4348 58.8159 35.1766C67.9696 29.8102 78.5643 27.3728 89.1802 28.1911C89.7042 28.2092 90.2139 28.0246 90.6026 27.6758C90.9914 27.327 91.2292 26.8411 91.2664 26.3195C91.3036 25.798 91.1373 25.2811 90.8023 24.8769C90.4672 24.4727 89.9894 24.2124 89.4684 24.1503C78.028 23.2688 66.6104 25.8944 56.7446 31.6758Z" fill="#E22850"/>
<path d="M26.5586 87.5021C26.8295 87.1047 26.9491 86.6234 26.8962 86.1442C25.4201 73.2198 28.3222 60.1989 35.1394 49.1591C35.4208 48.7012 35.5078 48.1495 35.3811 47.6253C35.2545 47.1012 34.9246 46.6475 34.4641 46.3641C34.0036 46.0808 33.4501 45.9909 32.9255 46.1143C32.4009 46.2378 31.9481 46.5643 31.6667 47.0222C24.3777 58.8261 21.2753 72.7483 22.8546 86.567C22.9002 86.9799 23.0715 87.3695 23.3455 87.6834C23.6196 87.9973 23.983 88.2203 24.3869 88.3222C24.7907 88.4242 25.2155 88.4002 25.6039 88.2535C25.9923 88.1069 26.3255 87.8446 26.5586 87.5021Z" fill="#E22850"/>
<path d="M36.3683 43.6527C36.5779 43.8188 36.818 43.9423 37.075 44.0161C37.3319 44.0899 37.6006 44.1125 37.8658 44.0828C38.1309 44.053 38.3872 43.9713 38.6202 43.8425C38.8531 43.7136 39.0581 43.5401 39.2234 43.3319C46.9515 33.5856 57.6212 26.5852 69.6664 23.358C69.9237 23.2883 70.1645 23.1686 70.3749 23.0058C70.5853 22.843 70.7612 22.6402 70.8927 22.4091C71.0242 22.178 71.1086 21.9231 71.1412 21.6588C71.1738 21.3946 71.1538 21.1263 71.0825 20.8692C71.0111 20.612 70.8898 20.3712 70.7254 20.1603C70.5611 19.9495 70.3569 19.7727 70.1245 19.6402C69.8921 19.5077 69.6361 19.422 69.3711 19.3881C69.1061 19.3541 68.8373 19.3725 68.58 19.4422C55.7033 22.8938 44.2972 30.3778 36.0345 40.7965C35.8681 41.0046 35.7447 41.2437 35.6713 41.5001C35.598 41.7564 35.5763 42.025 35.6073 42.2904C35.6383 42.5557 35.7215 42.8127 35.8521 43.0465C35.9827 43.2802 36.1581 43.4862 36.3683 43.6527Z" fill="#E22850"/>
<path d="M20.186 72.168C21.3942 61.7038 25.1176 51.6993 31.0399 43.0046C36.9622 34.3099 44.9085 27.1818 54.2037 22.226C54.6785 21.9735 55.0322 21.5425 55.1871 21.0279C55.342 20.5133 55.2853 19.9573 55.0295 19.4821C54.7738 19.0069 54.3398 18.6515 53.8232 18.4941C53.3066 18.3366 52.7496 18.39 52.2748 18.6426C42.403 23.9066 33.9637 31.4773 27.6737 40.7118C21.3837 49.9462 17.4289 60.5715 16.1452 71.6852C16.084 72.2196 16.2383 72.7574 16.5739 73.1805C16.9096 73.6036 17.3992 73.8772 17.9351 73.9412C18.4709 74.0053 19.0091 73.8544 19.4312 73.5219C19.8534 73.1893 20.1249 72.7023 20.186 72.168Z" fill="#E22850"/>
<path d="M127.687 130.693C114.73 135.935 100.556 137.509 86.7198 135.241C86.1872 135.154 85.6429 135.281 85.2067 135.595C84.7704 135.909 84.4779 136.383 84.3935 136.914C84.309 137.445 84.4396 137.989 84.7565 138.426C85.0734 138.863 85.5506 139.157 86.0832 139.245C100.657 141.63 115.585 139.972 129.233 134.453C129.722 134.245 130.109 133.853 130.31 133.361C130.511 132.87 130.51 132.318 130.307 131.825C130.104 131.332 129.716 130.938 129.226 130.726C128.736 130.514 128.183 130.502 127.687 130.693Z" fill="#E22850"/>
<path d="M145.082 76.0895C144.898 76.6543 144.695 77.2302 144.482 77.7956C142.035 84.3199 138.214 90.2381 133.276 95.1525C132.895 95.5312 132.681 96.0462 132.681 96.5843C132.682 97.1224 132.896 97.6395 133.278 98.0218C133.66 98.4041 134.177 98.6203 134.716 98.6229C135.256 98.6255 135.773 98.4142 136.154 98.0355C141.503 92.7108 145.642 86.2994 148.292 79.2317C148.522 78.6168 148.73 77.9867 148.945 77.3819C149.113 76.8717 149.072 76.3143 148.829 75.8324C148.586 75.3504 148.162 74.9834 147.65 74.812C147.138 74.6407 146.579 74.679 146.098 74.9185C145.616 75.1581 145.25 75.5793 145.082 76.0895Z" fill="#E22850"/>
<path d="M130.765 102.563C131.035 102.168 131.155 101.69 131.105 101.214C131.055 100.737 130.838 100.293 130.491 99.9591C130.145 99.6254 129.692 99.4242 129.213 99.3909C128.734 99.3577 128.26 99.4946 127.874 99.7775C120.791 104.973 112.423 108.158 103.652 108.996C103.115 109.049 102.622 109.313 102.282 109.729C101.942 110.146 101.783 110.682 101.839 111.218C101.895 111.754 102.162 112.247 102.582 112.589C103.002 112.931 103.539 113.093 104.076 113.04C113.573 112.136 122.634 108.69 130.304 103.065C130.485 102.925 130.641 102.756 130.765 102.563Z" fill="#E22850"/>
<path d="M98.2365 112.328C98.4469 112.017 98.5675 111.655 98.5851 111.279C98.5981 111.013 98.5584 110.746 98.468 110.495C98.3776 110.243 98.2385 110.011 98.0585 109.813C97.8785 109.614 97.6613 109.453 97.4192 109.338C97.1771 109.223 96.9149 109.157 96.6478 109.143C88.0406 108.733 79.6844 106.048 72.4339 101.366C71.9802 101.072 71.4293 100.97 70.9024 101.082C70.3755 101.193 69.9158 101.509 69.6243 101.96C69.3329 102.411 69.2336 102.96 69.3484 103.487C69.4631 104.013 69.7824 104.474 70.2362 104.767C78.0946 109.841 87.1507 112.75 96.4788 113.196C96.8223 113.212 97.1637 113.141 97.4711 112.989C97.7785 112.837 98.0418 112.61 98.2365 112.328Z" fill="#E22850"/>
<path d="M99.8799 61.319C99.6784 61.6148 99.3669 61.818 99.014 61.8838C98.6611 61.9497 98.2957 61.8728 97.9981 61.6701C94.3032 59.1399 89.9373 57.7728 85.4678 57.7466C80.9982 57.7204 76.6317 59.0362 72.9356 61.523C72.7142 61.6707 72.5243 61.8607 72.3769 62.0821C72.2294 62.3035 72.1273 62.5519 72.0763 62.8132C72.0253 63.0745 72.0265 63.3436 72.0797 63.605C72.1329 63.8665 72.2371 64.1152 72.3865 64.337C72.5358 64.5588 72.7273 64.7493 72.95 64.8977C73.1727 65.046 73.4223 65.1493 73.6844 65.2017C73.9466 65.254 74.2163 65.2544 74.478 65.2028C74.7397 65.1512 74.9884 65.0486 75.2099 64.9008C78.2337 62.8645 81.8067 61.7865 85.4644 61.8071C89.122 61.8276 92.6951 62.9458 95.7189 65.0161C96.9094 65.8269 98.3712 66.1345 99.7828 65.8712C101.194 65.6079 102.44 64.7952 103.246 63.612C104.052 62.4288 104.352 60.9719 104.08 59.5619C103.809 58.1519 102.987 56.9042 101.797 56.0934C95.8792 52.0714 88.6998 50.3497 81.6218 51.2551C74.5438 52.1605 68.0603 55.6301 63.4026 61.0048C58.7449 66.3796 56.2374 73.2851 56.3564 80.41C56.4754 87.5348 59.2126 94.3827 64.0481 99.653C64.4169 100.037 64.9209 100.262 65.452 100.28C65.9831 100.299 66.4991 100.109 66.8896 99.7516C67.2801 99.3943 67.514 98.8979 67.5412 98.3686C67.5684 97.8393 67.3867 97.3192 67.0351 96.9198C62.8746 92.3847 60.5197 86.4923 60.4176 80.3618C60.3154 74.2312 62.4732 68.2894 66.4811 63.6648C70.489 59.0402 76.0678 56.055 82.1581 55.276C88.2484 54.4971 94.4259 55.9786 99.5175 59.4394C99.8151 59.6421 100.02 59.954 100.088 60.3065C100.156 60.659 100.081 61.0232 99.8799 61.319Z" fill="#E22850"/>
<path d="M114 99.6781C107.664 102.102 100.826 102.955 94.0698 102.163C87.3138 101.371 80.8415 98.9579 75.2074 95.1305C71.1942 92.3904 68.4251 88.1799 67.5079 83.4227C66.5907 78.6655 67.6001 73.7501 70.3148 69.7551L70.5199 69.4539C70.8311 69.0163 70.9546 68.4723 70.8632 67.9415C70.7719 67.4108 70.4731 66.9368 70.0328 66.6239C69.5924 66.311 69.0465 66.1847 68.5151 66.2728C67.9837 66.361 67.5103 66.6564 67.1992 67.094L66.9485 67.4621C63.6302 72.3449 62.3963 78.3526 63.5173 84.167C64.6384 89.9815 68.023 95.1277 72.9283 98.4765C79.1073 102.676 86.2059 105.324 93.6162 106.194C101.026 107.064 108.528 106.13 115.477 103.472C115.98 103.28 116.384 102.897 116.602 102.406C116.819 101.914 116.832 101.356 116.636 100.854C116.441 100.351 116.054 99.9451 115.561 99.7254C115.068 99.5056 114.508 99.49 114.005 99.6819L114 99.6781Z" fill="#E22850"/>
<path d="M140.373 66.4747C139.52 72.7037 137.271 78.6531 133.791 83.8809C130.312 89.1087 125.693 93.4806 120.277 96.6719C119.824 96.9495 119.5 97.3937 119.374 97.9092C119.247 98.4246 119.329 98.9701 119.601 99.4283C119.874 99.8864 120.315 100.221 120.83 100.359C121.344 100.498 121.892 100.43 122.355 100.169C128.165 96.7647 133.136 92.1101 136.91 86.5422C140.891 80.7141 143.457 74.0364 144.407 67.0342C144.479 66.5014 144.336 65.9607 144.009 65.5309C143.682 65.1012 143.198 64.8177 142.664 64.7427C142.129 64.6678 141.588 64.8076 141.159 65.1313C140.73 65.4551 140.449 65.9363 140.377 66.4691L140.373 66.4747Z" fill="#E22850"/>
<path d="M147.515 87.4146C146.144 89.9003 144.586 92.2779 142.855 94.5272C138.915 99.6508 134.094 104.034 128.615 107.475C128.38 107.612 128.176 107.794 128.014 108.012C127.852 108.23 127.735 108.478 127.672 108.742C127.608 109.006 127.598 109.28 127.643 109.549C127.688 109.817 127.786 110.074 127.932 110.304C128.078 110.535 128.269 110.734 128.493 110.889C128.718 111.045 128.971 111.155 129.237 111.211C129.504 111.267 129.78 111.27 130.047 111.218C130.314 111.166 130.568 111.061 130.793 110.909C136.676 107.217 141.853 102.512 146.083 97.0115C146.788 96.0961 147.477 95.1449 148.131 94.1857C149.187 92.6354 150.178 91.0167 151.079 89.381C151.218 89.1476 151.308 88.8885 151.344 88.6191C151.38 88.3497 151.362 88.0755 151.29 87.8128C151.217 87.5501 151.093 87.3042 150.924 87.0899C150.755 86.8756 150.544 86.6971 150.305 86.5652C150.066 86.4332 149.803 86.3505 149.532 86.3219C149.261 86.2932 148.987 86.3193 148.726 86.3986C148.466 86.4778 148.225 86.6086 148.016 86.7832C147.808 86.9577 147.638 87.1724 147.515 87.4146Z" fill="#E22850"/>
<path d="M124.186 114.49C124.657 114.255 125.017 113.844 125.189 113.347C125.361 112.849 125.332 112.303 125.107 111.824C124.882 111.345 124.48 110.972 123.985 110.783C123.491 110.594 122.943 110.604 122.458 110.811C112.612 115.382 101.624 116.97 90.8498 115.378C90.5854 115.339 90.3162 115.352 90.0576 115.417C89.799 115.481 89.5559 115.597 89.3424 115.755C89.1288 115.914 88.9489 116.113 88.8129 116.342C88.677 116.57 88.5876 116.824 88.5499 117.087C88.5123 117.351 88.527 117.619 88.5934 117.878C88.6597 118.136 88.7764 118.379 88.9367 118.593C89.097 118.807 89.2977 118.988 89.5275 119.125C89.7574 119.262 90.0117 119.352 90.276 119.392C101.835 121.099 113.623 119.396 124.186 114.49Z" fill="#E22850"/>
<path d="M85.0795 117.004C85.2041 116.823 85.2971 116.621 85.3544 116.408C85.4982 115.89 85.4298 115.336 85.1642 114.867C84.8987 114.397 84.4578 114.051 83.9384 113.904C78.1198 112.269 72.6037 109.694 67.609 106.284C61.2719 101.962 56.6972 95.512 54.7247 88.1195C54.6626 87.8548 54.5479 87.6048 54.3874 87.3846C54.2269 87.1643 54.0238 86.9782 53.7903 86.8373C53.5568 86.6964 53.2976 86.6036 53.028 86.5644C52.7585 86.5251 52.4841 86.5403 52.2211 86.6089C51.9581 86.6775 51.7119 86.7982 51.4971 86.9638C51.2823 87.1295 51.1033 87.3366 50.9707 87.5731C50.838 87.8095 50.7545 88.0704 50.725 88.3402C50.6955 88.61 50.7207 88.8833 50.799 89.1439C53.0233 97.4813 58.1827 104.755 65.3299 109.63C70.6905 113.291 76.611 116.053 82.8562 117.809C83.2658 117.924 83.7006 117.908 84.0994 117.764C84.4982 117.62 84.841 117.354 85.0795 117.004Z" fill="#E22850"/>
<path d="M51.7294 83.4571C51.9961 83.446 52.2577 83.3827 52.4993 83.2706C52.7409 83.1586 52.9577 83 53.1374 82.8039C53.317 82.6079 53.456 82.3783 53.5464 82.1281C53.6369 81.878 53.6769 81.6122 53.6642 81.346C53.3258 74.5042 55.232 67.7514 59.094 62.1117C61.9382 57.958 65.733 54.5421 70.1668 52.1445C74.6006 49.7468 79.547 48.4357 84.6 48.3188C84.8722 48.321 85.1416 48.2686 85.3925 48.1648C85.6433 48.061 85.8705 47.9079 86.0604 47.7145C86.2503 47.5211 86.3992 47.2915 86.4982 47.0391C86.5971 46.7867 86.6442 46.5168 86.6366 46.2454C86.629 45.9739 86.5668 45.7065 86.4538 45.4588C86.3408 45.2112 86.1792 44.9885 85.9786 44.8038C85.7781 44.6192 85.5427 44.4764 85.2863 44.3839C85.0299 44.2914 84.7579 44.2511 84.4862 44.2654C78.7885 44.3965 73.2109 45.8746 68.2115 48.5784C63.2122 51.2822 58.9337 55.1344 55.7276 59.8188C51.3714 66.1801 49.2211 73.7971 49.6028 81.5146C49.6153 81.7807 49.6803 82.0421 49.794 82.2838C49.9076 82.5255 50.0678 82.7427 50.2653 82.9231C50.4628 83.1035 50.6937 83.2435 50.9449 83.3351C51.1962 83.4267 51.4627 83.4682 51.7294 83.4571Z" fill="#E22850"/>
<path d="M108.201 56.3377C108.418 56.1836 108.603 55.988 108.744 55.7623C108.885 55.5366 108.979 55.2851 109.023 55.0223C109.066 54.7594 109.057 54.4904 108.996 54.2305C108.935 53.9705 108.823 53.7249 108.667 53.5076C107.83 52.3417 106.794 51.3318 105.606 50.5248C101.571 47.7663 97.0161 45.8612 92.2231 44.9277C91.7062 44.8532 91.1814 44.9798 90.7575 45.2813C90.3336 45.5828 90.0432 46.0361 89.9463 46.5472C89.8494 47.0584 89.9535 47.5883 90.237 48.0271C90.5205 48.466 90.9617 48.7801 91.4693 48.9045C95.7122 49.7323 99.7444 51.4201 103.316 53.8631C104.106 54.4005 104.795 55.0731 105.351 55.8495C105.506 56.0692 105.703 56.2563 105.931 56.3999C106.159 56.5435 106.412 56.6409 106.677 56.6863C106.942 56.7317 107.214 56.7242 107.475 56.6644C107.737 56.6046 107.983 56.4935 108.201 56.3377Z" fill="#E22850"/>
<path d="M133.906 58.5801C133.953 59.3307 133.98 60.0877 133.977 60.8329C133.979 67.8325 131.873 74.6592 127.932 80.4279C123.872 86.3552 118.086 90.8926 111.349 93.432C104.613 95.9715 97.2481 96.3917 90.2414 94.6363C86.2289 93.614 82.4249 91.8935 79.0047 89.5542C76.4751 87.8312 74.7294 85.1799 74.1517 82.1836C73.5739 79.1873 74.2115 76.0914 75.9242 73.5771C77.6368 71.0627 80.2842 69.3358 83.2839 68.7763C86.2837 68.2168 89.39 68.8704 91.9197 70.5935C93.6759 71.7889 95.7115 72.5086 97.8258 72.6815C99.94 72.8544 102.06 72.4745 103.976 71.5794C105.892 70.6843 107.539 69.3049 108.753 67.5772C109.967 65.8495 110.707 63.8333 110.899 61.7275C110.948 61.192 110.781 60.6581 110.435 60.2433C110.09 59.8284 109.594 59.5666 109.057 59.5153C108.52 59.4641 107.986 59.6277 107.572 59.9701C107.158 60.3125 106.899 60.8057 106.85 61.3411C106.721 62.7441 106.227 64.0872 105.418 65.238C104.609 66.3888 103.512 67.3077 102.235 67.9041C100.958 68.5004 99.546 68.7537 98.1373 68.6389C96.7286 68.5241 95.3722 68.0452 94.2016 67.2494C90.7791 64.9182 86.5764 64.0338 82.5179 64.7908C78.4594 65.5479 74.8777 67.8842 72.5606 71.286C70.2435 74.6878 69.3809 78.8763 70.1625 82.9301C70.9441 86.9839 73.3059 90.5709 76.7284 92.9021C78.3822 94.032 80.1179 95.0369 81.921 95.9084C87.9049 98.7694 94.5077 100.08 101.116 99.7174C107.725 99.3551 114.126 97.3322 119.724 93.8363C125.322 90.3404 129.936 85.4849 133.138 79.7206C136.339 73.9564 138.025 67.4701 138.038 60.8641C138.034 60.0447 138.011 59.1922 137.957 58.3599C137.924 57.8226 137.677 57.3196 137.273 56.9614C136.868 56.6032 136.339 56.4192 135.8 56.4499C135.262 56.4805 134.759 56.7234 134.403 57.125C134.046 57.5266 133.864 58.054 133.898 58.5913L133.906 58.5801Z" fill="#E22850"/>
<path d="M124.319 57.698C123.607 51.6484 120.768 46.0351 116.308 41.8567C115.913 41.4882 115.389 41.2904 114.85 41.3069C114.311 41.3234 113.802 41.5529 113.435 41.9448C113.068 42.3367 112.872 42.8589 112.892 43.3967C112.912 43.9344 113.144 44.4435 113.539 44.8121C117.532 48.5488 119.973 53.6427 120.376 59.0766C120.779 64.5106 119.114 69.8846 115.713 74.1256C112.312 78.3666 107.425 81.1625 102.029 81.9549C96.633 82.7473 91.1245 81.478 86.6034 78.4003C86.157 78.0963 85.6088 77.9809 85.0795 78.0796C84.5501 78.1784 84.0829 78.4831 83.7807 78.9268C83.4784 79.3706 83.3659 79.9169 83.4679 80.4456C83.5698 80.9744 83.8779 81.4423 84.3243 81.7463C88.4082 84.5249 93.1992 86.0797 98.1279 86.2258C103.057 86.3719 107.916 85.1032 112.128 82.5705C116.34 80.0379 119.728 76.3477 121.889 71.9386C124.05 67.5295 124.893 62.5868 124.319 57.698Z" fill="#E22850"/>
<path d="M74.3686 31.9422C66.0187 33.8072 58.3101 37.808 51.9985 43.5524C45.6869 49.2967 40.989 56.5874 38.3652 64.7098C38.2005 65.2211 38.2464 65.778 38.4929 66.2579C38.7395 66.7377 39.1664 67.1013 39.6798 67.2686C40.1933 67.4359 40.7511 67.3932 41.2307 67.1499C41.7103 66.9067 42.0722 66.4827 42.237 65.9714C43.5554 61.8861 45.4524 58.0128 47.8708 54.4686C61.0915 35.0589 87.4795 29.0756 107.944 40.8511C108.389 41.1073 108.915 41.1864 109.414 41.0724C109.914 40.9585 110.351 40.6599 110.637 40.2367C110.669 40.1959 110.698 40.1531 110.725 40.1084C110.857 39.8779 110.943 39.6233 110.977 39.3592C111.011 39.095 110.992 38.8265 110.922 38.5691C110.851 38.3116 110.731 38.0701 110.567 37.8586C110.404 37.647 110.2 37.4694 109.968 37.3359C99.1818 31.1296 86.4671 29.2032 74.3686 31.9422Z" fill="#E22850"/>
<path d="M57.5178 118.207C57.5497 118.166 57.5788 118.123 57.6051 118.079C57.8941 117.657 58.0119 117.141 57.935 116.635C57.8581 116.128 57.5922 115.668 57.1906 115.347C50.9164 110.314 46.079 103.722 43.1692 96.2399C40.2594 88.7577 39.3809 80.6518 40.6228 72.7449C40.6739 72.4776 40.6705 72.2026 40.6127 71.9361C40.5549 71.6696 40.444 71.4171 40.2866 71.1938C40.1292 70.9704 39.9285 70.7807 39.6965 70.636C39.4645 70.4913 39.2059 70.3945 38.9361 70.3515C38.6664 70.3084 38.391 70.32 38.1264 70.3854C37.8619 70.4509 37.6135 70.5689 37.3962 70.7324C37.1789 70.896 36.9971 71.1017 36.8616 71.3373C36.7261 71.573 36.6397 71.8337 36.6076 72.104C35.2563 80.7187 36.2146 89.5496 39.3851 97.7011C42.5557 105.852 47.8258 113.034 54.6609 118.518C54.87 118.685 55.1098 118.81 55.3665 118.884C55.6233 118.959 55.892 118.983 56.1573 118.954C56.4226 118.925 56.6794 118.844 56.9128 118.716C57.1462 118.588 57.3518 118.415 57.5178 118.207Z" fill="#E22850"/>
<path d="M101.799 132.662C102.008 132.356 102.128 131.997 102.146 131.626C102.164 131.255 102.079 130.885 101.901 130.558C101.724 130.23 101.459 129.957 101.137 129.769C100.815 129.58 100.448 129.483 100.076 129.488C87.0926 129.686 74.2979 126.212 63.1719 119.467C62.7094 119.187 62.1552 119.101 61.6313 119.227C61.1074 119.354 60.6566 119.684 60.3782 120.144C60.0998 120.604 60.0165 121.156 60.1467 121.68C60.2769 122.203 60.6098 122.655 61.0724 122.935C72.8548 130.074 86.403 133.75 100.15 133.539C100.476 133.536 100.796 133.455 101.083 133.302C101.37 133.149 101.615 132.93 101.799 132.662Z" fill="#E22850"/>
<path d="M141.189 115.23C131.316 122.81 119.557 127.574 107.157 129.017C106.879 129.03 106.606 129.1 106.356 129.223C106.106 129.346 105.885 129.519 105.705 129.732C105.526 129.945 105.393 130.192 105.314 130.459C105.235 130.726 105.213 131.007 105.247 131.283C105.282 131.56 105.373 131.827 105.516 132.067C105.658 132.308 105.849 132.517 106.075 132.681C106.302 132.845 106.56 132.961 106.833 133.022C107.105 133.083 107.388 133.087 107.662 133.034C120.791 131.507 133.242 126.463 143.696 118.436C144.103 118.101 144.362 117.62 144.418 117.095C144.475 116.57 144.323 116.043 143.997 115.626C143.671 115.209 143.195 114.934 142.67 114.86C142.146 114.786 141.615 114.919 141.189 115.23Z" fill="#E22850"/>
<path d="M127.312 49.891C127.057 49.967 126.819 50.0926 126.613 50.2606C126.406 50.4286 126.236 50.6357 126.11 50.87C125.984 51.1043 125.906 51.3613 125.88 51.6263C125.854 51.8913 125.881 52.1591 125.959 52.4144C126.907 55.5126 127.319 58.7463 127.179 61.9767C127.017 65.8876 126.037 69.7169 124.302 73.2184C124.069 73.6784 124.022 74.2105 124.169 74.7064C124.316 75.2022 124.647 75.6244 125.094 75.8868C125.542 76.1492 126.071 76.2321 126.576 76.1186C127.08 76.0051 127.521 75.7038 127.808 75.276C127.861 75.1985 127.908 75.1173 127.949 75.0331C129.935 71.0275 131.057 66.647 131.242 62.1729C131.401 58.484 130.93 54.7914 129.851 51.2527C129.773 50.9975 129.645 50.7597 129.475 50.5531C129.306 50.3465 129.097 50.1751 128.861 50.0486C128.625 49.9222 128.367 49.8431 128.101 49.8161C127.836 49.789 127.567 49.8145 127.312 49.891Z" fill="#E22850"/>
<path d="M81.5356 77.3986C82.2408 76.3632 83.3309 75.6522 84.5661 75.4218C85.8013 75.1914 87.0804 75.4605 88.122 76.17C91.044 78.1647 94.4636 79.3045 97.9922 79.46C98.5222 79.4702 99.034 79.2734 99.4186 78.9116C99.8032 78.5498 100.03 78.0517 100.051 77.5233C100.072 76.995 99.8848 76.4782 99.53 76.0833C99.1752 75.6884 98.6807 75.4465 98.1517 75.4091C95.3811 75.2851 92.6962 74.3895 90.4011 72.824C88.4667 71.5064 86.0912 71.0065 83.7973 71.4344C81.5034 71.8623 79.4789 73.1829 78.1693 75.1056C76.8596 77.0283 76.372 79.3957 76.8138 81.687C77.2556 83.9783 78.5906 86.0058 80.525 87.3234C87.1918 91.8534 95.2892 93.7704 103.257 92.7049C111.224 91.6394 118.498 87.6669 123.676 81.5529L123.794 81.38C123.955 81.1679 124.072 80.9261 124.139 80.6683C124.206 80.4105 124.221 80.1418 124.184 79.8775C124.147 79.6132 124.058 79.3585 123.922 79.1279C123.787 78.8974 123.607 78.6954 123.393 78.5337C123.18 78.372 122.937 78.2536 122.678 78.1853C122.42 78.1171 122.15 78.1003 121.885 78.1358C121.621 78.1714 121.366 78.2587 121.136 78.3927C120.905 78.5268 120.704 78.7049 120.543 78.9169C116.031 84.2881 109.669 87.7811 102.693 88.7165C95.7176 89.6518 88.6282 87.9626 82.8041 83.9774C81.7625 83.2679 81.0437 82.1762 80.8058 80.9424C80.5679 79.7086 80.8304 78.4339 81.5356 77.3986Z" fill="#E22850"/>
<path d="M104.443 74.33C104.196 74.4298 103.971 74.5772 103.782 74.7639C103.592 74.9507 103.442 75.173 103.339 75.4182C103.236 75.6634 103.183 75.9268 103.182 76.1932C103.181 76.4596 103.233 76.7239 103.334 76.9709C103.435 77.2179 103.584 77.4429 103.773 77.633C103.961 77.823 104.185 77.9744 104.431 78.0785C104.677 78.1827 104.942 78.2375 105.209 78.2398C105.476 78.2422 105.74 78.192 105.987 78.0923C109.156 76.8062 111.912 74.6854 113.961 71.9555C116.011 69.2255 117.277 65.9883 117.627 62.5879C117.976 59.1876 117.395 55.7511 115.946 52.6436C114.496 49.5362 112.232 46.874 109.394 44.94C103.974 41.2267 97.7731 38.813 91.277 37.8885C84.7808 36.964 78.1668 37.5539 71.9546 39.6118C71.6955 39.6897 71.455 39.8186 71.2472 39.9909C71.0394 40.1632 70.8684 40.3754 70.7443 40.615C70.6202 40.8547 70.5456 41.1169 70.5247 41.3863C70.5038 41.6558 70.5372 41.9269 70.6228 42.1839C70.7084 42.4409 70.8446 42.6785 71.0232 42.8827C71.2019 43.087 71.4195 43.2538 71.6632 43.3732C71.907 43.4927 72.1719 43.5625 72.4425 43.5785C72.713 43.5945 72.9838 43.5564 73.2387 43.4664C78.8597 41.6045 84.8441 41.0707 90.7219 41.907C96.5997 42.7432 102.211 44.9267 107.115 48.286C109.344 49.8055 111.122 51.8967 112.26 54.3374C113.399 56.7782 113.856 59.4774 113.582 62.1483C113.308 64.8193 112.313 67.3622 110.704 69.507C109.095 71.6519 106.931 73.3185 104.443 74.33Z" fill="#E22850"/>
<path d="M66.8728 46.1976C67.1095 46.0725 67.3186 45.9017 67.4883 45.6951C67.658 45.4885 67.7847 45.2502 67.8613 44.9939C67.9379 44.7377 67.9628 44.4685 67.9345 44.202C67.9062 43.9355 67.8253 43.677 67.6965 43.4413C67.5677 43.2055 67.3935 42.9974 67.1841 42.8287C66.9746 42.6601 66.7339 42.5343 66.476 42.4587C66.2181 42.3831 65.948 42.3591 65.6813 42.3882C65.4146 42.4172 65.1566 42.4987 64.9223 42.6279C59.1056 45.7562 54.1175 50.2124 50.3623 55.6351L50.3509 55.6518C50.2001 55.8708 50.0942 56.1174 50.0392 56.3778C49.9843 56.6381 49.9813 56.9069 50.0304 57.169C50.1297 57.6983 50.4355 58.1677 50.8804 58.4739C51.3253 58.7802 51.8729 58.8983 52.4028 58.8022C52.9326 58.7061 53.4014 58.4037 53.7058 57.9615C57.1009 53.0565 61.612 49.0261 66.8728 46.1976Z" fill="#E22850"/>
<path d="M46.5592 62.3177C43.4432 69.2011 42.2232 76.798 43.0243 84.3291C43.8255 91.8602 46.619 99.0544 51.1182 105.174C51.438 105.609 51.917 105.9 52.45 105.983C52.983 106.067 53.5263 105.936 53.9603 105.62C54.1472 105.485 54.309 105.319 54.4384 105.129C54.6734 104.783 54.7949 104.372 54.7861 103.953C54.7773 103.534 54.6387 103.128 54.3893 102.789C50.3203 97.2529 47.7942 90.7447 47.0704 83.9319C46.3465 77.1192 47.4508 70.2472 50.27 64.0207C50.3866 63.7782 50.4536 63.5147 50.4668 63.2456C50.4801 62.9764 50.4394 62.707 50.3472 62.4531C50.255 62.1993 50.1131 61.966 49.9298 61.7669C49.7465 61.5679 49.5255 61.4071 49.2796 61.2939C49.0338 61.1807 48.7681 61.1174 48.4981 61.1078C48.2281 61.0981 47.9591 61.1422 47.707 61.2376C47.4548 61.3329 47.2245 61.4775 47.0296 61.663C46.8346 61.8485 46.6789 62.0711 46.5715 62.3179L46.5592 62.3177Z" fill="#E22850"/>
<path d="M148.955 97.7145C148.24 98.6804 147.486 99.6364 146.72 100.556C136.866 112.432 122.895 120.177 107.554 122.269C92.2133 124.361 76.6103 120.648 63.8112 111.861C62.0847 110.686 60.4548 109.375 58.937 107.941C58.7448 107.748 58.5158 107.595 58.2637 107.491C58.0117 107.388 57.7416 107.336 57.4696 107.338C57.1976 107.341 56.9292 107.397 56.6802 107.505C56.4312 107.613 56.2068 107.77 56.0202 107.967C55.8336 108.163 55.6886 108.395 55.5939 108.649C55.4991 108.903 55.4565 109.174 55.4686 109.445C55.4807 109.716 55.5472 109.982 55.6642 110.228C55.7812 110.474 55.9463 110.694 56.1497 110.875C57.8246 112.461 59.6246 113.909 61.5321 115.207C75.1925 124.488 91.7928 128.395 108.112 126.169C124.431 123.943 139.305 115.743 149.849 103.161C150.667 102.183 151.468 101.165 152.229 100.137L152.275 100.07C152.586 99.6318 152.709 99.0877 152.617 98.557C152.525 98.0264 152.226 97.5527 151.785 97.2401C151.345 96.9275 150.799 96.8017 150.268 96.8903C149.736 96.9789 149.263 97.2747 148.952 97.7126L148.955 97.7145Z" fill="#E22850"/>
<g filter="url(#filter0_d_394_7518)">
<rect x="56.5776" y="43.4171" width="53.878" height="94" rx="4" fill="white"/>
<rect x="60.0164" y="51.4413" width="47" height="71.0732" rx="4" fill="#CCCCCC"/>
<circle cx="83.5149" cy="129.966" r="4.01219" fill="#C4C4C4"/>
<rect x="76.0652" y="46.8563" width="14.9024" height="2.29268" rx="1.14634" fill="#C4C4C4"/>
</g>
<rect x="91.821" y="75.9148" width="3.4832" height="25.5435" rx="1.7416" transform="rotate(45 91.821 75.9148)" fill="white"/>
<rect width="3.4832" height="25.5435" rx="1.7416" transform="matrix(-0.707107 0.707107 0.707107 0.707107 76.1445 75.9148)" fill="white"/>
<rect x="124.297" y="53.6796" width="1.01593" height="7.45018" rx="0.507967" transform="rotate(45 124.297 53.6796)" fill="white"/>
<rect width="1.01593" height="7.45018" rx="0.507967" transform="matrix(-0.707107 0.707107 0.707107 0.707107 119.725 53.6796)" fill="white"/>
<rect x="130.185" y="90.4534" width="1.16107" height="8.51449" rx="0.580534" transform="rotate(45 130.185 90.4534)" fill="white"/>
<rect width="1.16107" height="8.51449" rx="0.580534" transform="matrix(-0.707107 0.707107 0.707107 0.707107 124.96 90.4534)" fill="white"/>
<rect x="34.4021" y="69.0734" width="1.16107" height="8.51449" rx="0.580534" transform="rotate(45 34.4021 69.0734)" fill="white"/>
<rect width="1.16107" height="8.51449" rx="0.580534" transform="matrix(-0.707107 0.707107 0.707107 0.707107 29.1768 69.0734)" fill="white"/>
<rect x="76.7046" y="32.2994" width="0.580534" height="4.25725" rx="0.290267" transform="rotate(45 76.7046 32.2994)" fill="white"/>
<rect width="0.580534" height="4.25725" rx="0.290267" transform="matrix(-0.707107 0.707107 0.707107 0.707107 74.092 32.2994)" fill="white"/>
<defs>
<filter id="filter0_d_394_7518" x="50.5776" y="39.4171" width="65.8779" height="106" filterUnits="userSpaceOnUse" color-interpolation-filters="sRGB">
<feFlood flood-opacity="0" result="BackgroundImageFix"/>
<feColorMatrix in="SourceAlpha" type="matrix" values="0 0 0 0 0 0 0 0 0 0 0 0 0 0 0 0 0 0 127 0" result="hardAlpha"/>
<feOffset dy="2"/>
<feGaussianBlur stdDeviation="3"/>
<feComposite in2="hardAlpha" operator="out"/>
<feColorMatrix type="matrix" values="0 0 0 0 0 0 0 0 0 0 0 0 0 0 0 0 0 0 0.1 0"/>
<feBlend mode="normal" in2="BackgroundImageFix" result="effect1_dropShadow_394_7518"/>
<feBlend mode="normal" in="SourceGraphic" in2="effect1_dropShadow_394_7518" result="shape"/>
</filter>
</defs>
</svg>
