<svg width="258" height="159" viewBox="0 0 258 159" fill="none" xmlns="http://www.w3.org/2000/svg" xmlns:xlink="http://www.w3.org/1999/xlink">
<ellipse cx="129" cy="155" rx="129" ry="4" fill="#ECECEC"/>
<path d="M70.8507 143.261C69.555 143.261 61.4543 144.628 61.4543 144.628C61.4543 144.628 61.1858 151.285 63.0106 153.123L70.5822 152.387L70.8507 143.261Z" fill="#E29C40"/>
<path d="M62.0469 149.728C61.4906 146.706 64.7705 143.405 66.7548 141.754C67.1769 141.399 67.4969 140.938 67.6822 140.418C67.8674 139.898 67.9113 139.338 67.8093 138.796C67.6225 137.764 64.9806 136.904 64.3075 136.105L60.8058 129.954C59.5871 127.738 57.6266 126.023 55.2691 125.111C53.5225 124.459 51.6322 124.293 49.7986 124.628L47.5186 125.049L53.1525 155.727L63.4399 153.835C63.4962 153.827 63.5495 153.804 63.5945 153.769C63.6394 153.734 63.6744 153.688 63.696 153.635C63.7177 153.583 63.7252 153.525 63.7178 153.469C63.7104 153.412 63.6883 153.359 63.6539 153.313C62.8349 152.267 62.2833 151.036 62.0469 149.728Z" fill="#405C9B"/>
<path d="M54.1221 155.515L47.8086 124.93L46.0939 125.284L52.4074 155.869L54.1221 155.515Z" fill="#3D3D7F"/>
<path d="M201.199 138.488C200.679 134.169 198.466 130.234 195.047 127.548C191.628 124.862 187.282 123.645 182.966 124.165L129.46 130.616C129.12 130.579 128.778 130.559 128.436 130.557H128.047H127.973H127.864L127.65 130.581L127.218 130.631C127.071 130.631 126.919 130.666 126.829 130.682L125.662 130.877L123.545 131.285L119.472 132.122L111.437 133.867L95.4847 137.402L66.284 144.02L65.7393 152.974L97.4535 150.054L113.678 148.633L121.756 147.979L125.744 147.691L127.666 147.578H127.973C128.7 147.644 129.433 147.614 130.152 147.489L182.091 156.603C183.676 156.874 185.291 156.917 186.888 156.731C189.025 156.474 191.091 155.798 192.967 154.742C194.843 153.686 196.492 152.27 197.821 150.576C199.15 148.882 200.133 146.942 200.712 144.868C201.292 142.794 201.457 140.626 201.199 138.488Z" fill="#292960"/>
<path d="M71.0953 142.082L65.7688 143.273L65.582 153.874L70.644 154.793L71.0953 142.082Z" fill="#3D3D7F"/>
<path d="M187.086 83.9098C187.372 83.5169 187.612 83.0924 187.802 82.6445C187.852 82.5316 187.895 82.4187 187.938 82.3058L187.965 82.228C187.965 82.228 187.942 82.228 187.926 82.2513L187.728 82.6913L187.296 83.7736L186.42 86.0861L184.681 90.828L181.249 100.405L174.46 119.634C174.131 120.565 173.468 121.341 172.599 121.81C171.73 122.278 170.718 122.407 169.76 122.17C168.802 121.932 167.966 121.347 167.416 120.527C166.865 119.707 166.64 118.711 166.783 117.734L169.74 97.4892L171.273 87.367L172.083 82.2747L172.522 79.6779L172.775 78.3153L172.943 77.5367L173.102 76.9566L173.145 76.8126V76.7736L173.18 76.6724C173.234 76.5362 173.289 76.3999 173.347 76.2831C173.581 75.7393 173.863 75.2181 174.192 74.7259C175.408 73.0144 177.254 71.8567 179.324 71.5073C181.394 71.158 183.517 71.6456 185.228 72.863C186.938 74.0803 188.095 75.9277 188.444 77.9986C188.794 80.0696 188.306 82.1945 187.09 83.9059L187.086 83.9098Z" fill="#EBBB7B"/>
<path d="M92.4525 129.584C90.9584 130.413 82.4141 137.094 82.4141 137.094C82.4141 137.094 86.3049 144.989 89.5654 145.97L97.8724 140.356L92.4525 129.584Z" fill="#F2CA95"/>
<path d="M137.127 46.9805L133.854 47.485C133.64 47.5181 133.493 47.7189 133.526 47.9335L137.166 71.5703C137.199 71.7849 137.399 71.9321 137.614 71.899L140.886 71.3945C141.101 71.3614 141.248 71.1606 141.215 70.946L137.575 47.3092C137.542 47.0946 137.341 46.9474 137.127 46.9805Z" fill="#333966"/>
<path d="M234.629 71.0346C234.565 66.3089 233.085 61.7112 230.379 57.8372C227.674 53.9632 223.868 50.9915 219.455 49.3068C219.536 48.6248 219.573 47.9381 219.564 47.2512C219.529 44.795 218.908 42.3826 217.752 40.2153C216.597 38.048 214.94 36.1887 212.92 34.7925C210.9 33.3963 208.575 32.5037 206.14 32.1892C203.706 31.8746 201.231 32.1473 198.923 32.9844C196.615 33.8214 194.54 35.1987 192.872 37.0011C191.204 38.8036 189.991 40.9791 189.334 43.3461C188.677 45.713 188.596 48.2028 189.096 50.6078C189.597 53.0127 190.665 55.2631 192.211 57.171C189.952 60.1726 188.442 63.671 187.808 67.3746C187.174 71.0782 187.434 74.8798 188.565 78.4628C186.273 80.649 184.555 83.3681 183.566 86.3784C182.576 89.3888 182.346 92.5971 182.894 95.7182C183.442 98.8393 184.752 101.777 186.709 104.269C188.665 106.761 191.206 108.731 194.106 110.004C197.006 111.277 200.176 111.813 203.333 111.565C206.491 111.317 209.538 110.292 212.204 108.582C214.87 106.872 217.073 104.529 218.616 101.761C220.159 98.9939 220.995 95.888 221.05 92.7195C225.158 90.795 228.624 87.7256 231.033 83.8793C233.442 80.033 234.69 75.5731 234.629 71.0346Z" fill="#B10FC1"/>
<path d="M219.81 75.3708C223.15 65.284 217.685 54.3979 207.604 51.0562C197.523 47.7144 186.644 53.1824 183.304 63.2692C179.964 73.356 185.429 84.242 195.51 87.5838C205.591 90.9256 216.47 85.4576 219.81 75.3708Z" fill="#B10FC1"/>
<path d="M179.436 23.0625L188.186 22.9433C190.893 22.9064 193.505 23.9472 195.445 25.8368C197.386 27.7263 198.497 30.3098 198.533 33.0189L198.878 58.3222L179.919 58.5804C177.212 58.6173 174.601 57.5765 172.66 55.687C170.72 53.7974 169.609 51.2139 169.572 48.5048L169.367 33.4163C169.33 30.7072 170.37 28.0943 172.258 26.1526C174.147 24.2109 176.729 23.0994 179.436 23.0625Z" fill="#F2CA95"/>
<path d="M194.202 56.8729L181.928 57.9561L182.592 65.4873L194.866 64.4042L194.202 56.8729Z" fill="#F2CA95"/>
<path d="M178.24 20.6691C172.248 20.7509 167.408 23.8576 167.244 33.4698L189.581 33.1662C189.157 23.5617 184.235 20.5757 178.24 20.6691Z" fill="#B10FC1"/>
<path d="M192.819 23.8577H192.714C191.118 22.9236 189.298 22.443 187.45 22.4678L178.699 22.5885C176.864 22.6097 175.07 23.1257 173.503 24.0822C171.937 25.0387 170.658 26.4003 169.801 28.0234C171.847 28.1402 173.838 28.3296 175.773 28.5918C177.452 28.8313 178.994 29.6483 180.136 30.9022C181.278 32.1562 181.947 33.7689 182.03 35.4632V35.5956C182.185 37.7267 182.96 39.7658 184.26 41.4613C185.56 43.1567 187.327 44.4343 189.344 45.1364C191.361 45.8386 193.539 45.9345 195.61 45.4125C197.681 44.8904 199.554 43.7732 200.997 42.1986C202.441 40.624 203.392 38.661 203.734 36.5518C204.076 34.4425 203.793 32.2793 202.921 30.329C202.048 28.3787 200.624 26.7266 198.824 25.5767C197.024 24.4267 194.927 23.8291 192.792 23.8577H192.819Z" fill="#B10FC1"/>
<path d="M204.823 66.998L193.17 64.5725L193.042 40.6412L204.466 40.4855L204.823 66.998Z" fill="#B10FC1"/>
<path d="M189.905 49.1809C192.476 49.047 194.452 46.8531 194.318 44.2807C194.184 41.7083 191.991 39.7315 189.421 39.8654C186.85 39.9994 184.874 42.1932 185.008 44.7656C185.142 47.338 187.334 49.3148 189.905 49.1809Z" fill="#F2CA95"/>
<path d="M198.201 116.689L179.494 117.655L171.599 87.9462C170.93 85.8697 170.744 83.6675 171.056 81.5081C171.369 79.3487 172.171 77.2895 173.401 75.4881L182.688 64.7196L192.521 63.8514L197.368 69.3252C199.132 72.1801 200.409 75.3088 201.146 78.5831C202.393 83.9973 202.351 89.6286 201.026 95.024L198.201 116.689Z" fill="#F2CA95"/>
<path d="M174.223 152.554L130.579 115.958C128.91 114.56 127.796 112.61 127.438 110.462C127.08 108.313 127.501 106.108 128.625 104.243C129.75 102.378 131.504 100.977 133.57 100.292C135.636 99.6076 137.879 99.6849 139.894 100.51L192.568 122.09C196.942 123.922 200.416 127.41 202.231 131.793C204.047 136.176 204.057 141.1 202.261 145.491C200.464 149.882 197.006 153.385 192.639 155.236C188.273 157.087 183.353 157.136 178.95 155.372C177.243 154.674 175.649 153.724 174.223 152.554Z" fill="#333372"/>
<path d="M203.677 136.611L171.469 128.354L179.001 111.785L198.343 113.307L203.677 136.611Z" fill="#333372"/>
<path d="M150.272 104.018C150.284 104.123 150.314 104.226 150.362 104.321C150.362 104.321 150.362 104.352 150.381 104.352V104.306L150.358 104.212L150.303 104.025C150.23 103.768 150.171 103.539 150.086 103.247L149.58 101.608L148.529 98.283L146.37 91.6062L141.981 78.2526C141.784 77.672 141.813 77.0383 142.062 76.4783C142.312 75.9182 142.764 75.4731 143.327 75.2321C143.891 74.991 144.525 74.9717 145.102 75.178C145.679 75.3844 146.157 75.8011 146.44 76.345L153.054 88.7719L156.346 95.001L157.98 98.1506L158.797 99.7585C158.933 100.015 159.077 100.331 159.217 100.623L159.322 100.841L159.377 100.954L159.4 101.008L159.455 101.141C159.595 101.53 159.715 101.896 159.82 102.277C159.954 102.912 159.959 103.568 159.835 104.205C159.711 104.842 159.46 105.447 159.098 105.986C158.737 106.524 158.27 106.984 157.728 107.34C157.185 107.695 156.577 107.937 155.938 108.053C155.3 108.169 154.646 108.156 154.013 108.014C153.38 107.872 152.782 107.605 152.254 107.228C151.726 106.851 151.279 106.372 150.939 105.819C150.6 105.267 150.374 104.651 150.276 104.01L150.272 104.018Z" fill="#F2CA95"/>
<path d="M147.964 80.8652L141.696 78.2139L137.895 75.5705C137.643 75.4616 137.424 75.2879 137.261 75.067C137.097 74.8462 136.995 74.5861 136.965 74.313L135.171 60.6869C135.159 60.5934 135.173 60.4982 135.211 60.4121C135.25 60.3259 135.311 60.2522 135.389 60.1989C135.467 60.1457 135.558 60.115 135.652 60.1105C135.746 60.1059 135.84 60.1275 135.922 60.173L136.701 60.6012C136.793 60.6522 136.866 60.7313 136.911 60.8271L139.84 66.9043L145.015 68.5433L147.964 80.8652Z" fill="#F2CA95"/>
<path d="M181.912 58.4284C181.912 58.4284 185.301 57.6147 187.359 56.0263C186.016 58.3667 184.289 60.4645 182.251 62.232L181.912 58.4284Z" fill="#7C481A"/>
<path d="M197.812 69.3374L193.085 64.3541C193.085 64.3541 190.462 70.264 177.315 70.9725L173.401 75.508C172.171 77.3095 171.369 79.3687 171.056 81.5281C170.744 83.6875 170.93 85.8897 171.599 87.9662L176.685 115.569L202.971 132.27C202.971 132.27 208.064 80.5302 197.812 69.3374Z" fill="#E31587"/>
<path d="M192.037 91.7464C192.52 91.6823 192.994 91.5634 193.449 91.3921L193.784 91.2558L193.862 91.2208C193.862 91.2208 193.862 91.2208 193.819 91.2208L193.364 91.3843L192.267 91.8204L189.99 92.782L185.364 94.7753L176.065 98.8981L157.475 107.253H157.455C156.555 107.657 155.537 107.711 154.6 107.405C153.662 107.1 152.871 106.456 152.382 105.599C151.892 104.743 151.738 103.735 151.95 102.771C152.163 101.807 152.725 100.957 153.529 100.385L170.19 88.5734L178.575 82.6948L182.816 79.7632L184.998 78.2877L186.166 77.5324L186.843 77.1198L187.372 76.8356L187.504 76.7655L187.539 76.746L187.636 76.7032L188.045 76.5397C188.6 76.3331 189.173 76.1793 189.757 76.0803C191.822 75.8075 193.91 76.3598 195.571 77.6177C197.231 78.8755 198.329 80.7374 198.626 82.7998C198.923 84.8621 198.397 86.9586 197.159 88.6348C195.922 90.311 194.075 91.4318 192.018 91.7542L192.037 91.7464Z" fill="#F2CA95"/>
<path d="M194.265 92.0346L194.351 91.9957C194.351 91.9957 194.327 91.9957 194.3 91.9957L193.794 92.1748L193.145 92.4396H193.168C193.418 92.3779 193.665 92.3025 193.907 92.2137L194.265 92.0346Z" fill="#DB681C"/>
<path d="M192.322 92.5991C192.584 92.5632 192.844 92.5125 193.1 92.4473H193.124C192.867 92.4823 192.599 92.5368 192.322 92.5991Z" fill="#DB681C"/>
<path d="M193.146 92.4203L193.796 92.1555L194.301 91.9765C194.329 91.9765 194.336 91.9765 194.352 91.9765L194.266 92.0154L193.877 92.1672C193.635 92.256 193.388 92.3314 193.138 92.393C195.326 91.8475 197.222 90.4826 198.434 88.5797C199.647 86.6768 200.083 84.3811 199.653 82.1658C199.224 79.9505 197.961 77.9846 196.125 76.6735C194.29 75.3624 192.022 74.806 189.788 75.119C189.139 75.2308 188.502 75.4028 187.885 75.6329C187.73 75.6874 187.578 75.7497 187.43 75.812L187.325 75.8587H187.306H187.267L187.119 75.9366L186.528 76.252L185.777 76.7114L184.485 77.5523L182.057 79.1913L177.337 82.4538L176.727 82.882L184.31 96.1538L184.878 95.9008L190.033 93.7128L192.566 92.6422L193.095 92.4281C192.839 92.4933 192.579 92.544 192.317 92.5799C192.597 92.5371 192.866 92.4826 193.146 92.4203Z" fill="#E31587"/>
<path d="M145.07 68.6872L140.79 63.1628C140.74 63.099 140.675 63.0482 140.601 63.0144C140.527 62.9807 140.445 62.9651 140.364 62.9689C140.283 62.9727 140.204 62.9958 140.133 63.0363C140.062 63.0768 140.002 63.1335 139.958 63.2018L139.806 63.4354C139.763 63.5021 139.736 63.578 139.727 63.6571C139.718 63.7362 139.728 63.8163 139.755 63.8909L141.004 67.2584L145.07 68.6872Z" fill="#F2CA95"/>
<path d="M202.335 31.2616C203.145 27.4224 197.121 22.8976 188.88 21.1553C180.638 19.413 173.3 21.1129 172.489 24.9521C171.679 28.7914 177.703 33.3161 185.944 35.0584C194.186 36.8007 201.524 35.1009 202.335 31.2616Z" fill="#B10FC1"/>
<path d="M145.878 111.625C145.903 108.725 144.776 105.934 142.745 103.865C140.713 101.796 137.944 100.619 135.046 100.592C133.796 100.61 132.556 100.82 131.369 101.215C131.085 101.308 130.762 101.433 130.529 101.53L130.42 101.581L130.206 101.69L129.778 101.912L129.564 102.025C129.494 102.064 129.416 102.103 129.393 102.122L128.482 102.69L127.731 103.197L127.031 103.683C126.109 104.329 125.249 104.956 124.381 105.587L119.3 109.34L109.316 116.893C103.827 121.079 98.3554 125.275 92.9004 129.479L98.8534 139.718C105.149 136.783 111.451 133.86 117.759 130.951L129.042 125.812L134.645 123.324C135.54 122.935 136.439 122.546 137.295 122.191C137.074 122.241 136.849 122.283 136.618 122.32L136.295 122.363C136.17 122.363 136.042 122.394 135.906 122.402C135.77 122.409 135.626 122.425 135.486 122.433C135.276 122.433 135.069 122.433 134.859 122.433C135.065 122.433 135.276 122.433 135.486 122.433C135.626 122.433 135.766 122.433 135.906 122.402C136.046 122.37 136.159 122.378 136.295 122.363L136.618 122.32C136.855 122.281 137.093 122.234 137.322 122.18H137.373L138.026 121.915L138.633 121.681C138.812 121.615 138.941 121.584 139.096 121.533C139.127 121.533 139.096 121.533 139.096 121.533L139.057 121.561L138.98 121.619L138.941 121.646C138.738 121.732 138.447 121.845 138.194 121.93C137.914 122.026 137.63 122.106 137.342 122.172H137.314C139.721 121.638 141.877 120.306 143.432 118.391C144.987 116.476 145.849 114.092 145.878 111.625Z" fill="#333372"/>
<path d="M135.485 122.448C135.275 122.448 135.065 122.448 134.859 122.448C135.069 122.464 135.275 122.456 135.485 122.448Z" fill="#333372"/>
<path d="M136.607 122.335C136.835 122.298 137.061 122.256 137.284 122.206H137.311C137.081 122.249 136.844 122.296 136.607 122.335Z" fill="#333372"/>
<path d="M136.283 122.379C136.155 122.379 136.031 122.41 135.895 122.417C136.031 122.41 136.159 122.394 136.283 122.379Z" fill="#333372"/>
<path d="M93.2275 127.719L89.0293 132.259L95.671 142.26L100.978 139.858L93.2275 127.719Z" fill="#3D3D7F"/>
<path d="M89.896 144.378C86.7483 144.316 84.1064 140.329 82.8574 138.009C82.5882 137.511 82.191 137.093 81.7068 136.8C81.2226 136.506 80.6688 136.347 80.1027 136.339C79.0327 136.315 77.6281 138.792 76.6788 139.321L69.8037 141.556C67.3286 142.323 65.2039 143.941 63.804 146.122C62.7911 147.746 62.2346 149.613 62.1932 151.526L62.1465 153.905L94.1097 154.543L94.3237 143.814C94.3271 143.756 94.3154 143.698 94.2898 143.646C94.2643 143.595 94.2257 143.55 94.1779 143.518C94.1301 143.485 94.0747 143.465 94.017 143.461C93.9594 143.456 93.9015 143.466 93.849 143.491C92.6243 144.107 91.2666 144.412 89.896 144.378Z" fill="#4D6AB5"/>
<path d="M94.0851 153.525L62.0752 153.586L62.0786 155.381L94.0885 155.32L94.0851 153.525Z" fill="#3D3D7F"/>
<rect x="39.001" width="79" height="47" rx="23.5" fill="white"/>
<path d="M125 46.9998L109.5 28.9998L101 38.4998L125 46.9998Z" fill="white"/>
<rect x="46" y="4.00012" width="66" height="38" fill="url(#pattern0)"/>
<defs>
<pattern id="pattern0" patternContentUnits="objectBoundingBox" width="1" height="1">
<use xlink:href="#image0_394_6478" transform="translate(-0.0117845) scale(0.000533109 0.000925926)"/>
</pattern>
</defs>
</svg>
