<svg width="16" height="16" viewBox="0 0 16 16" fill="none" xmlns="http://www.w3.org/2000/svg">
<path d="M8 0C6.41775 0 4.87103 0.469192 3.55544 1.34824C2.23985 2.22729 1.21447 3.47672 0.608967 4.93853C0.00346625 6.40034 -0.15496 8.00887 0.153721 9.56072C0.462403 11.1126 1.22433 12.538 2.34315 13.6569C3.46197 14.7757 4.88743 15.5376 6.43928 15.8463C7.99113 16.155 9.59966 15.9965 11.0615 15.391C12.5233 14.7855 13.7727 13.7602 14.6518 12.4446C15.5308 11.129 16 9.58225 16 8C15.9976 5.879 15.154 3.84555 13.6542 2.34578C12.1545 0.846002 10.121 0.00238211 8 0V0ZM8 14C6.81332 14 5.65328 13.6481 4.66658 12.9888C3.67989 12.3295 2.91085 11.3925 2.45673 10.2961C2.0026 9.19974 1.88378 7.99334 2.11529 6.82946C2.3468 5.66557 2.91825 4.59647 3.75736 3.75736C4.59648 2.91824 5.66558 2.3468 6.82946 2.11529C7.99335 1.88378 9.19975 2.0026 10.2961 2.45672C11.3925 2.91085 12.3295 3.67988 12.9888 4.66658C13.6481 5.65327 14 6.81331 14 8C13.9982 9.59073 13.3654 11.1158 12.2406 12.2406C11.1158 13.3654 9.59073 13.9981 8 14ZM11.5 8H8V4.5C8 4.36739 7.94733 4.24021 7.85356 4.14645C7.75979 4.05268 7.63261 4 7.5 4C7.3674 4 7.24022 4.05268 7.14645 4.14645C7.05268 4.24021 7 4.36739 7 4.5V8.5C7 8.63261 7.05268 8.75979 7.14645 8.85355C7.24022 8.94732 7.3674 9 7.5 9H11.5C11.6326 9 11.7598 8.94732 11.8536 8.85355C11.9473 8.75979 12 8.63261 12 8.5C12 8.36739 11.9473 8.24021 11.8536 8.14645C11.7598 8.05268 11.6326 8 11.5 8Z" fill="#9059FF"/>
</svg>
