<?xml version="1.0" encoding="UTF-8" standalone="no"?>
<svg
   width="18"
   height="18"
   viewBox="0 0 18 18"
   fill="none"
   version="1.1"
   id="svg4"
   xmlns="http://www.w3.org/2000/svg"
   xmlns:svg="http://www.w3.org/2000/svg">
  <defs
     id="defs8" />
  <path
     d="M9 4.50002C11.8425 4.50002 14.3775 6.09753 15.615 8.62503C15.1725 9.54003 14.55 10.3275 13.8075 10.965L14.865 12.0225C15.9075 11.1 16.7325 9.94503 17.25 8.62503C15.9525 5.33253 12.75 3.00002 9 3.00002C8.0475 3.00002 7.1325 3.15002 6.27 3.42752L7.5075 4.66502C7.995 4.56752 8.49 4.50002 9 4.50002ZM8.1975 5.35502L9.75 6.90753C10.1775 7.09503 10.5225 7.44002 10.71 7.86753L12.2625 9.42003C12.3225 9.16503 12.3675 8.89502 12.3675 8.61753C12.375 6.75752 10.86 5.25002 9 5.25002C8.7225 5.25002 8.46 5.28752 8.1975 5.35502ZM1.5075 2.90252L3.5175 4.91252C2.295 5.87253 1.3275 7.14752 0.75 8.62503C2.0475 11.9175 5.25 14.25 9 14.25C10.14 14.25 11.235 14.0325 12.24 13.635L14.805 16.2L15.8625 15.1425L2.565 1.83752L1.5075 2.90252ZM7.1325 8.52752L9.09 10.485C9.06 10.4925 9.03 10.5 9 10.5C7.965 10.5 7.125 9.66003 7.125 8.62503C7.125 8.58752 7.1325 8.56502 7.1325 8.52752ZM4.5825 5.97752L5.895 7.29003C5.7225 7.70253 5.625 8.15252 5.625 8.62503C5.625 10.485 7.14 12 9 12C9.4725 12 9.9225 11.9025 10.3275 11.73L11.0625 12.465C10.4025 12.645 9.7125 12.75 9 12.75C6.1575 12.75 3.6225 11.1525 2.385 8.62503C2.91 7.55253 3.675 6.66752 4.5825 5.97752Z"
     fill="#0060DF"
     id="path2"
     style="fill:#000000;fill-opacity:1" />
</svg>
