<svg width="18" height="18" viewBox="0 0 18 18" fill="none" xmlns="http://www.w3.org/2000/svg">
<path fill-rule="evenodd" clip-rule="evenodd" d="M16 9C16 12.866 12.866 16 9 16C5.13401 16 2 12.866 2 9C2 5.13401 5.13401 2 9 2C12.866 2 16 5.13401 16 9ZM18 9C18 13.9706 13.9706 18 9 18C4.02944 18 0 13.9706 0 9C0 4.02944 4.02944 0 9 0C13.9706 0 18 4.02944 18 9ZM7 8C7.55228 8 8 7.55228 8 7C8 6.44772 7.55228 6 7 6C6.44772 6 6 6.44772 6 7C6 7.55228 6.44772 8 7 8ZM12 7C12 7.55228 11.5523 8 11 8C10.4477 8 10 7.55228 10 7C10 6.44772 10.4477 6 11 6C11.5523 6 12 6.44772 12 7ZM5.83216 10.4453C5.5258 9.98579 4.90493 9.86161 4.44541 10.168C3.98588 10.4743 3.8617 11.0952 4.16806 11.5547C4.74503 12.4202 6.44709 14 9.00011 14C11.5531 14 13.2552 12.4202 13.8322 11.5547C14.1385 11.0952 14.0143 10.4743 13.5548 10.168C13.0953 9.86161 12.4744 9.98579 12.1681 10.4453C11.8561 10.9132 10.7138 12 9.00011 12C7.28646 12 6.14407 10.9132 5.83216 10.4453Z" fill="#3D3D3D"/>
</svg>
