<svg width="288" height="182" viewBox="0 0 288 182" fill="none" xmlns="http://www.w3.org/2000/svg">
<rect y="12" width="288" height="154" rx="8" fill="url(#paint0_linear_59_576)"/>
<circle opacity="0.2" cx="69.5" cy="94.5" r="51.5" fill="white"/>
<circle opacity="0.4" cx="129.5" cy="51.5" r="51.5" fill="white"/>
<circle opacity="0.1" cx="211.5" cy="130.5" r="51.5" fill="white"/>
<circle opacity="0.1" cx="167.5" cy="67.5" r="35.5" fill="white"/>
<rect x="44.5" y="74.5" width="94" height="22" rx="3.5" fill="white"/>
<rect x="44.5" y="74.5" width="94" height="22" rx="3.5" stroke="#0A84FF"/>
<rect x="44.5" y="74.5" width="94" height="22" rx="3.5" stroke="#0A84FF" stroke-opacity="0.291712"/>
<rect x="44.5" y="102.5" width="94" height="22" rx="3.5" fill="white"/>
<rect x="44.5" y="102.5" width="94" height="22" rx="3.5" stroke="#0A84FF"/>
<rect x="44.5" y="102.5" width="94" height="22" rx="3.5" stroke="#0A84FF" stroke-opacity="0.291712"/>
<rect x="44.5" y="130.5" width="94" height="22" rx="3.5" fill="#0A84FF" stroke="#0A84FF"/>
<g filter="url(#filter0_d_59_576)">
<rect x="121" y="58" width="138" height="80" rx="4" fill="white"/>
</g>
<rect opacity="0.1" x="125" y="111" width="129" height="20" rx="2" fill="#45A1FF"/>
<rect x="130" y="68" width="115" height="6" rx="3" fill="#ECECEC"/>
<rect x="130" y="83" width="91" height="6" rx="3" fill="#ECECEC"/>
<rect x="130" y="97" width="104" height="6" rx="3" fill="#ECECEC"/>
<rect x="148" y="117" width="99" height="8" rx="4" fill="#E76DFF"/>
<g filter="url(#filter1_d_59_576)">
<path fill-rule="evenodd" clip-rule="evenodd" d="M234.651 132.845L236.1 132.065L237.356 131.413L235.358 127.667H238.728L229.877 118.794V131.25L232.457 128.745L234.651 132.845Z" fill="white"/>
<path fill-rule="evenodd" clip-rule="evenodd" d="M234.871 131.7L236.244 130.968L234.086 126.922H236.889L230.647 120.666V129.368L232.615 127.469L234.871 131.7Z" fill="black"/>
</g>
<path fill-rule="evenodd" clip-rule="evenodd" d="M241.805 144.65C241.912 145.038 241.705 145.454 241.315 145.603C240.901 145.762 240.439 145.561 240.283 145.153L237.399 137.64L237.375 137.568C237.268 137.18 237.476 136.765 237.865 136.615C238.279 136.456 238.741 136.658 238.897 137.065L241.781 144.578L241.805 144.65ZM244.43 131.478C244.698 131.127 245.2 131.055 245.552 131.316L252.042 136.135L252.101 136.184C252.401 136.454 252.446 136.913 252.194 137.243C251.926 137.593 251.423 137.666 251.072 137.404L244.581 132.586L244.522 132.537C244.223 132.266 244.177 131.808 244.43 131.478ZM229.144 138.902C229.23 138.473 229.652 138.19 230.086 138.271C230.494 138.348 230.768 138.719 230.726 139.12L230.714 139.196L229.116 147.12C229.029 147.549 228.607 147.832 228.174 147.751C227.765 147.674 227.492 147.303 227.534 146.902L227.545 146.826L229.144 138.902ZM227.98 114.657C228.087 115.045 227.879 115.46 227.49 115.61C227.076 115.769 226.614 115.567 226.458 115.16L223.574 107.647L223.55 107.575C223.443 107.187 223.651 106.772 224.04 106.622C224.454 106.463 224.916 106.665 225.072 107.072L227.956 114.585L227.98 114.657ZM236.659 114.457C236.572 114.886 236.151 115.169 235.717 115.088C235.309 115.011 235.035 114.64 235.077 114.239L235.088 114.163L236.687 106.239C236.774 105.81 237.196 105.527 237.629 105.608C238.038 105.685 238.311 106.056 238.269 106.457L238.258 106.533L236.659 114.457ZM220.398 120.595C220.13 120.945 219.627 121.018 219.275 120.756L212.785 115.937L212.726 115.889C212.427 115.618 212.381 115.16 212.633 114.83C212.901 114.479 213.404 114.407 213.756 114.668L220.246 119.487L220.305 119.535C220.605 119.806 220.65 120.265 220.398 120.595Z" fill="url(#paint1_linear_59_576)"/>
<path d="M142.759 117.253L137.335 114.16C137.144 114.055 136.931 114 136.714 114C136.497 114 136.284 114.055 136.093 114.16L130.649 117.253C130.453 117.365 130.289 117.528 130.175 117.725C130.061 117.922 130.001 118.146 130 118.375V124.543C129.998 124.772 130.058 124.997 130.172 125.194C130.286 125.392 130.451 125.554 130.649 125.664L136.074 128.739C136.264 128.854 136.483 128.915 136.704 128.913C136.926 128.912 137.144 128.852 137.335 128.739L142.759 125.664C142.956 125.552 143.12 125.389 143.234 125.192C143.348 124.995 143.408 124.771 143.409 124.543V118.375C143.415 118.145 143.357 117.919 143.242 117.72C143.127 117.522 142.96 117.361 142.759 117.253Z" fill="url(#paint2_linear_59_576)"/>
<path d="M132.923 123.074L132.598 123.267C132.54 123.3 132.489 123.344 132.447 123.396C132.406 123.449 132.376 123.51 132.358 123.575C132.34 123.639 132.336 123.707 132.344 123.774C132.352 123.841 132.374 123.905 132.407 123.963C132.449 124.044 132.513 124.112 132.59 124.159C132.667 124.207 132.756 124.233 132.846 124.234C132.932 124.233 133.017 124.213 133.094 124.176L133.419 123.983C133.477 123.95 133.528 123.906 133.57 123.853C133.611 123.8 133.641 123.74 133.659 123.675C133.677 123.61 133.681 123.542 133.673 123.476C133.665 123.409 133.643 123.345 133.61 123.286C133.581 123.225 133.539 123.17 133.488 123.126C133.436 123.082 133.377 123.048 133.312 123.028C133.248 123.008 133.18 123.002 133.113 123.01C133.046 123.018 132.981 123.039 132.923 123.074ZM134.909 121.933L134.241 122.32C134.182 122.352 134.131 122.396 134.09 122.449C134.049 122.502 134.019 122.562 134.001 122.627C133.983 122.692 133.978 122.76 133.987 122.826C133.995 122.893 134.016 122.957 134.049 123.016C134.092 123.096 134.155 123.164 134.233 123.212C134.31 123.259 134.398 123.285 134.489 123.286C134.575 123.286 134.66 123.266 134.737 123.228L135.406 122.842C135.464 122.809 135.515 122.765 135.556 122.712C135.597 122.66 135.628 122.599 135.645 122.534C135.663 122.469 135.668 122.402 135.66 122.335C135.651 122.268 135.63 122.204 135.597 122.146C135.567 122.084 135.525 122.03 135.474 121.985C135.423 121.941 135.363 121.908 135.299 121.888C135.234 121.868 135.166 121.861 135.099 121.869C135.032 121.877 134.967 121.899 134.909 121.933ZM137.602 120.987C137.575 120.933 137.538 120.884 137.492 120.844C137.446 120.804 137.393 120.774 137.335 120.755V116.867C137.335 116.798 137.322 116.73 137.296 116.667C137.27 116.603 137.232 116.546 137.184 116.497C137.136 116.449 137.079 116.41 137.017 116.384C136.954 116.358 136.887 116.345 136.819 116.345C136.752 116.345 136.686 116.359 136.625 116.386C136.563 116.412 136.508 116.451 136.462 116.5C136.415 116.548 136.379 116.606 136.355 116.669C136.331 116.732 136.32 116.799 136.323 116.867V120.773C136.265 120.791 136.211 120.821 136.165 120.861C136.12 120.901 136.082 120.95 136.055 121.005C136.019 121.073 135.999 121.148 135.996 121.225C135.992 121.302 136.006 121.379 136.036 121.45C136.006 121.52 135.992 121.597 135.996 121.674C135.999 121.751 136.019 121.826 136.055 121.894C136.082 121.949 136.12 121.998 136.165 122.038C136.211 122.078 136.265 122.108 136.323 122.126V126.032C136.323 126.171 136.377 126.303 136.474 126.401C136.57 126.499 136.701 126.554 136.838 126.554C136.975 126.554 137.106 126.499 137.203 126.401C137.3 126.303 137.354 126.171 137.354 126.032V122.107C137.412 122.088 137.465 122.058 137.511 122.018C137.557 121.979 137.594 121.93 137.621 121.875C137.657 121.807 137.678 121.732 137.681 121.655C137.684 121.578 137.67 121.501 137.64 121.43C137.685 121.283 137.671 121.125 137.602 120.987ZM138.903 119.651L138.235 120.038C138.176 120.071 138.125 120.115 138.084 120.167C138.043 120.22 138.013 120.281 137.995 120.346C137.977 120.41 137.972 120.478 137.981 120.545C137.989 120.612 138.01 120.676 138.044 120.734C138.086 120.815 138.149 120.883 138.227 120.93C138.304 120.978 138.392 121.004 138.483 121.005C138.569 121.004 138.654 120.984 138.731 120.947L139.4 120.56C139.458 120.528 139.509 120.484 139.55 120.431C139.591 120.378 139.622 120.317 139.639 120.253C139.657 120.188 139.662 120.12 139.654 120.053C139.645 119.987 139.624 119.922 139.591 119.864C139.561 119.803 139.519 119.748 139.468 119.704C139.417 119.659 139.357 119.626 139.293 119.606C139.228 119.586 139.16 119.58 139.093 119.588C139.026 119.595 138.961 119.617 138.903 119.651ZM140.487 119.845C140.572 119.844 140.657 119.824 140.735 119.787L141.06 119.593C141.118 119.561 141.169 119.516 141.21 119.464C141.251 119.411 141.281 119.35 141.299 119.285C141.317 119.221 141.322 119.153 141.314 119.086C141.306 119.019 141.285 118.955 141.253 118.896C141.22 118.837 141.176 118.786 141.124 118.745C141.071 118.703 141.011 118.673 140.947 118.655C140.883 118.637 140.816 118.632 140.75 118.641C140.684 118.649 140.621 118.671 140.563 118.704L140.238 118.897C140.18 118.93 140.129 118.974 140.088 119.027C140.047 119.079 140.016 119.14 139.999 119.205C139.981 119.27 139.976 119.337 139.984 119.404C139.993 119.471 140.014 119.535 140.047 119.593C140.091 119.672 140.155 119.737 140.232 119.781C140.31 119.825 140.398 119.847 140.487 119.845ZM141.06 123.267L140.735 123.074C140.618 123.008 140.481 122.991 140.352 123.028C140.224 123.064 140.115 123.151 140.049 123.268C139.984 123.386 139.967 123.525 140.002 123.655C140.037 123.785 140.122 123.896 140.238 123.963L140.563 124.157C140.641 124.194 140.725 124.214 140.811 124.215C140.902 124.213 140.99 124.187 141.067 124.14C141.145 124.092 141.208 124.025 141.251 123.944C141.285 123.887 141.307 123.824 141.316 123.759C141.325 123.693 141.32 123.627 141.302 123.563C141.284 123.499 141.253 123.44 141.211 123.389C141.17 123.338 141.118 123.297 141.06 123.267ZM139.398 122.32L138.729 121.933C138.672 121.9 138.608 121.878 138.542 121.87C138.476 121.861 138.409 121.866 138.345 121.884C138.281 121.902 138.221 121.932 138.168 121.974C138.116 122.015 138.072 122.066 138.039 122.125C138.007 122.184 137.986 122.248 137.978 122.315C137.97 122.382 137.975 122.45 137.993 122.514C138.011 122.579 138.041 122.64 138.082 122.693C138.124 122.745 138.175 122.79 138.233 122.822L138.901 123.209C138.979 123.247 139.063 123.266 139.149 123.267C139.24 123.266 139.328 123.24 139.406 123.192C139.483 123.145 139.546 123.077 139.589 122.996C139.624 122.94 139.646 122.877 139.655 122.811C139.665 122.746 139.66 122.679 139.642 122.615C139.624 122.551 139.593 122.492 139.551 122.441C139.509 122.39 139.457 122.349 139.398 122.32ZM134.241 120.541L134.909 120.927C134.987 120.965 135.071 120.985 135.157 120.985C135.248 120.984 135.336 120.958 135.414 120.911C135.491 120.863 135.554 120.796 135.597 120.715C135.63 120.657 135.651 120.592 135.66 120.525C135.668 120.459 135.663 120.391 135.645 120.326C135.628 120.261 135.597 120.201 135.556 120.148C135.515 120.095 135.464 120.051 135.406 120.019L134.737 119.632C134.68 119.598 134.616 119.577 134.55 119.568C134.484 119.56 134.417 119.565 134.353 119.583C134.289 119.601 134.229 119.632 134.177 119.673C134.125 119.715 134.082 119.767 134.049 119.825C133.986 119.947 133.97 120.088 134.005 120.221C134.041 120.354 134.125 120.468 134.241 120.541ZM133.419 118.897L133.094 118.704C133.037 118.671 132.973 118.649 132.907 118.641C132.841 118.632 132.774 118.637 132.71 118.655C132.646 118.673 132.586 118.703 132.534 118.745C132.481 118.786 132.437 118.837 132.405 118.896C132.372 118.955 132.351 119.019 132.343 119.086C132.335 119.153 132.34 119.221 132.358 119.285C132.376 119.35 132.406 119.411 132.448 119.464C132.489 119.516 132.54 119.561 132.598 119.593L132.923 119.787C133 119.824 133.085 119.844 133.171 119.845C133.261 119.843 133.35 119.818 133.427 119.77C133.504 119.722 133.568 119.655 133.61 119.574C133.643 119.517 133.664 119.454 133.671 119.389C133.679 119.324 133.674 119.258 133.657 119.195C133.639 119.131 133.609 119.073 133.568 119.021C133.527 118.97 133.476 118.928 133.419 118.897Z" fill="#20133A"/>
<path d="M122.998 119.029C123.015 118.861 122.907 118.705 122.743 118.662C122.069 118.542 120.195 118.1 119.565 117.463C118.936 116.826 118.486 114.952 118.366 114.285C118.337 114.121 118.195 114.001 118.029 114V118.999L122.998 119.029Z" fill="#FFEA80"/>
<path d="M117.999 114.03C117.831 114.034 117.69 114.157 117.662 114.322C117.557 114.989 117.137 116.863 116.508 117.493C115.878 118.122 113.967 118.572 113.292 118.692C113.128 118.721 113.008 118.863 113.007 119.029H118.007L117.999 114.03Z" fill="#FFD567"/>
<path d="M118 119.03V124.029C118.166 124.028 118.308 123.908 118.337 123.744C118.457 123.062 118.899 121.166 119.536 120.529C120.173 119.892 122.04 119.479 122.707 119.374C122.875 119.345 122.998 119.2 122.999 119.03H118Z" fill="#FFD567"/>
<path d="M113 119.03C112.997 119.199 113.118 119.345 113.285 119.374C113.967 119.479 115.863 119.899 116.5 120.529C117.137 121.158 117.55 123.062 117.655 123.737C117.68 123.904 117.823 124.027 117.992 124.029V119.03H113Z" fill="#FFA266"/>
<path d="M116.004 134.026C116.018 133.892 115.931 133.767 115.8 133.732C115.26 133.636 113.76 133.282 113.256 132.772C112.752 132.262 112.392 130.762 112.296 130.228C112.273 130.097 112.159 130.001 112.026 130V134.002L116.004 134.026Z" fill="#FFEA80"/>
<path d="M112.002 130.024C111.868 130.028 111.755 130.126 111.732 130.258C111.648 130.792 111.312 132.292 110.808 132.796C110.304 133.3 108.774 133.66 108.234 133.756C108.102 133.779 108.006 133.893 108.006 134.026H112.008L112.002 130.024Z" fill="#FFD567"/>
<path d="M112.003 134.026V138.029C112.136 138.028 112.25 137.932 112.273 137.801C112.369 137.255 112.723 135.737 113.233 135.226C113.743 134.716 115.237 134.386 115.771 134.302C115.906 134.279 116.004 134.163 116.005 134.026H112.003Z" fill="#FFD567"/>
<path d="M108 134.026C107.998 134.162 108.095 134.279 108.228 134.302C108.774 134.386 110.292 134.722 110.802 135.226C111.312 135.731 111.642 137.255 111.726 137.795C111.747 137.928 111.861 138.027 111.996 138.029V134.026H108Z" fill="#FFA266"/>
<path d="M138.997 142.053C139.027 141.75 138.833 141.47 138.538 141.392C137.324 141.176 133.951 140.38 132.818 139.233C131.685 138.086 130.875 134.713 130.659 133.513C130.607 133.218 130.352 133.002 130.052 133V141.999L138.997 142.053Z" fill="#FFEA80"/>
<path d="M129.998 133.054C129.696 133.062 129.442 133.282 129.391 133.58C129.202 134.781 128.447 138.154 127.313 139.287C126.18 140.42 122.74 141.23 121.525 141.446C121.23 141.498 121.015 141.753 121.013 142.053H130.012L129.998 133.054Z" fill="#FFD567"/>
<path d="M130 142.053V151.052C130.299 151.05 130.555 150.834 130.607 150.539C130.823 149.312 131.619 145.898 132.765 144.751C133.912 143.605 137.272 142.862 138.473 142.674C138.775 142.621 138.997 142.36 138.999 142.053H130Z" fill="#FFD567"/>
<path d="M121 142.053C120.995 142.358 121.213 142.621 121.513 142.674C122.741 142.862 126.154 143.618 127.301 144.751C128.448 145.885 129.19 149.312 129.378 150.526C129.425 150.826 129.682 151.049 129.986 151.052V142.053H121Z" fill="#FFA266"/>
<path d="M62.8333 82.4999C62.8333 81.8583 62.3083 81.3333 61.6666 81.3333H52.3333C51.6916 81.3333 51.1666 81.8583 51.1666 82.4999V89.4999C51.1666 90.1416 51.6916 90.6666 52.3333 90.6666H61.6666C62.3083 90.6666 62.8333 90.1416 62.8333 89.4999V82.4999ZM61.6666 82.4999L57 85.4108L52.3333 82.4999H61.6666ZM61.6666 89.4999H52.3333V83.6666L57 86.5833L61.6666 83.6666V89.4999Z" fill="#CCCCCC"/>
<path d="M60.5 110.667H59.9167V109.5C59.9167 107.89 58.61 106.583 57 106.583C55.39 106.583 54.0834 107.89 54.0834 109.5V110.667H53.5C52.8584 110.667 52.3334 111.192 52.3334 111.833V117.667C52.3334 118.308 52.8584 118.833 53.5 118.833H60.5C61.1417 118.833 61.6667 118.308 61.6667 117.667V111.833C61.6667 111.192 61.1417 110.667 60.5 110.667ZM55.25 109.5C55.25 108.532 56.0317 107.75 57 107.75C57.9684 107.75 58.75 108.532 58.75 109.5V110.667H55.25V109.5ZM60.5 117.667H53.5V111.833H60.5V117.667ZM57 115.917C57.6417 115.917 58.1667 115.392 58.1667 114.75C58.1667 114.108 57.6417 113.583 57 113.583C56.3584 113.583 55.8334 114.108 55.8334 114.75C55.8334 115.392 56.3584 115.917 57 115.917Z" fill="#CCCCCC"/>
<path d="M69.6676 115.182H70.5923L70.5114 113.384L72.0284 114.359L72.4929 113.55L70.8821 112.727L72.4929 111.905L72.0284 111.095L70.5114 112.071L70.5923 110.273H69.6676L69.7486 112.071L68.2315 111.095L67.767 111.905L69.3778 112.727L67.767 113.55L68.2315 114.359L69.7486 113.384L69.6676 115.182ZM75.9254 115.182H76.8501L76.7692 113.384L78.2862 114.359L78.7507 113.55L77.1399 112.727L78.7507 111.905L78.2862 111.095L76.7692 112.071L76.8501 110.273H75.9254L76.0064 112.071L74.4893 111.095L74.0249 111.905L75.6357 112.727L74.0249 113.55L74.4893 114.359L76.0064 113.384L75.9254 115.182ZM82.1832 115.182H83.108L83.027 113.384L84.544 114.359L85.0085 113.55L83.3977 112.727L85.0085 111.905L84.544 111.095L83.027 112.071L83.108 110.273H82.1832L82.2642 112.071L80.7472 111.095L80.2827 111.905L81.8935 112.727L80.2827 113.55L80.7472 114.359L82.2642 113.384L82.1832 115.182ZM88.4411 115.182H89.3658L89.2848 113.384L90.8018 114.359L91.2663 113.55L89.6555 112.727L91.2663 111.905L90.8018 111.095L89.2848 112.071L89.3658 110.273H88.4411L88.522 112.071L87.005 111.095L86.5405 111.905L88.1513 112.727L86.5405 113.55L87.005 114.359L88.522 113.384L88.4411 115.182Z" fill="#CCCCCC"/>
<defs>
<filter id="filter0_d_59_576" x="117" y="54" width="146" height="88" filterUnits="userSpaceOnUse" color-interpolation-filters="sRGB">
<feFlood flood-opacity="0" result="BackgroundImageFix"/>
<feColorMatrix in="SourceAlpha" type="matrix" values="0 0 0 0 0 0 0 0 0 0 0 0 0 0 0 0 0 0 127 0" result="hardAlpha"/>
<feOffset/>
<feGaussianBlur stdDeviation="2"/>
<feColorMatrix type="matrix" values="0 0 0 0 0 0 0 0 0 0 0 0 0 0 0 0 0 0 0.294089 0"/>
<feBlend mode="normal" in2="BackgroundImageFix" result="effect1_dropShadow_59_576"/>
<feBlend mode="normal" in="SourceGraphic" in2="effect1_dropShadow_59_576" result="shape"/>
</filter>
<filter id="filter1_d_59_576" x="226.877" y="116.794" width="14.8503" height="20.0513" filterUnits="userSpaceOnUse" color-interpolation-filters="sRGB">
<feFlood flood-opacity="0" result="BackgroundImageFix"/>
<feColorMatrix in="SourceAlpha" type="matrix" values="0 0 0 0 0 0 0 0 0 0 0 0 0 0 0 0 0 0 127 0" result="hardAlpha"/>
<feOffset dy="1"/>
<feGaussianBlur stdDeviation="1.5"/>
<feColorMatrix type="matrix" values="0 0 0 0 0 0 0 0 0 0 0 0 0 0 0 0 0 0 0.4049 0"/>
<feBlend mode="normal" in2="BackgroundImageFix" result="effect1_dropShadow_59_576"/>
<feBlend mode="normal" in="SourceGraphic" in2="effect1_dropShadow_59_576" result="shape"/>
</filter>
<linearGradient id="paint0_linear_59_576" x1="144" y1="63.0125" x2="144" y2="203.538" gradientUnits="userSpaceOnUse">
<stop stop-color="#B00FBF"/>
<stop offset="1" stop-color="#660D7D"/>
</linearGradient>
<linearGradient id="paint1_linear_59_576" x1="259.819" y1="122.226" x2="228.321" y2="156.119" gradientUnits="userSpaceOnUse">
<stop stop-color="#FF9100"/>
<stop offset="0.518515" stop-color="#F10366"/>
<stop offset="1" stop-color="#6173FF"/>
</linearGradient>
<linearGradient id="paint2_linear_59_576" x1="130" y1="121.457" x2="143.411" y2="121.457" gradientUnits="userSpaceOnUse">
<stop stop-color="#9059FF"/>
<stop offset="1" stop-color="#F770FF"/>
</linearGradient>
</defs>
</svg>
