<svg width="50" height="50" viewBox="0 0 50 50" fill="none" xmlns="http://www.w3.org/2000/svg">
<rect width="50" height="50" rx="4" fill="white"/>
<g clip-path="url(#clip0_71_1093)">
<path opacity="0.15" d="M41.5867 13.2222L26.527 4.46653C25.9998 4.16037 25.4019 3.99921 24.7934 3.99921C24.1848 3.99921 23.587 4.16037 23.0598 4.46653L8.00005 13.2222C7.47129 13.5277 7.03186 13.9682 6.72607 14.4992C6.42027 15.0303 6.25893 15.6331 6.2583 16.247V33.7584C6.25933 34.3708 6.42031 34.9721 6.72507 35.5021C7.02983 36.032 7.46766 36.4719 7.9946 36.7776L23.0543 45.5333C23.5817 45.8389 24.1795 45.9998 24.7879 45.9998C25.3964 45.9998 25.9942 45.8389 26.5215 45.5333L41.5812 36.7776C42.1082 36.4719 42.546 36.032 42.8508 35.5021C43.1555 34.9721 43.3165 34.3708 43.3176 33.7584V16.247C43.3171 15.6351 43.1569 15.0341 42.8531 14.5042C42.5494 13.9743 42.1126 13.5341 41.5867 13.2277V13.2222Z" fill="#BFBFC9"/>
<path d="M43.2112 21.4208H7.106C6.0176 21.4208 5.13528 22.3092 5.13528 23.4052V26.0896C5.13528 27.1856 6.0176 28.074 7.106 28.074H43.2112C44.2996 28.074 45.182 27.1856 45.182 26.0896V23.4052C45.182 22.3092 44.2996 21.4208 43.2112 21.4208Z" fill="#D9BFFF"/>
<path d="M43.1485 20.1143H6.43816C5.5537 20.1179 4.70648 20.4733 4.08107 21.103C3.45565 21.7328 3.10271 22.5859 3.09912 23.4766V26.5287C3.10271 27.4193 3.45565 28.2725 4.08107 28.9022C4.70648 29.532 5.5537 29.8874 6.43816 29.891H43.1485C44.033 29.8874 44.8802 29.532 45.5056 28.9022C46.131 28.2725 46.484 27.4193 46.4876 26.5287V23.4766C46.484 22.5859 46.131 21.7328 45.5056 21.103C44.8802 20.4733 44.033 20.1179 43.1485 20.1143ZM11.6471 25.2552C11.6722 25.2657 11.6948 25.2814 11.7136 25.3012C11.7324 25.3211 11.7469 25.3447 11.7561 25.3704C11.7646 25.3963 11.7673 25.4238 11.764 25.4508C11.7607 25.4779 11.7515 25.5039 11.737 25.5269L11.3227 26.2295C11.3091 26.2525 11.2909 26.2724 11.2694 26.288C11.2478 26.3035 11.2233 26.3145 11.1973 26.3201C11.1713 26.3255 11.1443 26.3251 11.1184 26.319C11.0925 26.3128 11.0683 26.301 11.0474 26.2844L10.1588 25.5928L10.3005 26.7373C10.3032 26.7639 10.3004 26.7907 10.2924 26.8162C10.2845 26.8417 10.2715 26.8653 10.2542 26.8855C10.2365 26.9057 10.2147 26.9218 10.1902 26.9327C10.1657 26.9436 10.1392 26.9491 10.1125 26.9487H9.29474C9.26799 26.9491 9.24147 26.9436 9.21701 26.9327C9.19254 26.9218 9.17071 26.9057 9.153 26.8855C9.13549 26.8655 9.12251 26.8419 9.11498 26.8163C9.10745 26.7907 9.10554 26.7637 9.10939 26.7373L9.25113 25.5845L8.3271 26.2844C8.30626 26.3011 8.28192 26.3127 8.25593 26.3184C8.22995 26.3241 8.20302 26.3237 8.17719 26.3174C8.15092 26.3126 8.12605 26.302 8.10436 26.2863C8.08267 26.2706 8.06472 26.2503 8.0518 26.2268L7.65657 25.5214C7.64652 25.497 7.64135 25.4709 7.64135 25.4445C7.64135 25.4182 7.64652 25.392 7.65657 25.3677C7.67605 25.3176 7.7142 25.2772 7.76287 25.2552L8.81774 24.8105L7.76015 24.3494C7.73585 24.3392 7.71402 24.3239 7.69615 24.3045C7.67827 24.2851 7.66477 24.262 7.65657 24.2369C7.64835 24.2111 7.64556 24.1838 7.64837 24.1569C7.65119 24.13 7.65955 24.1039 7.67292 24.0804L8.07633 23.3887C8.08995 23.3658 8.1081 23.3459 8.12967 23.3303C8.15124 23.3147 8.17577 23.3038 8.20172 23.2982C8.22778 23.2927 8.2547 23.2931 8.2806 23.2993C8.30649 23.3055 8.33074 23.3172 8.35163 23.3338L9.26203 24.0283L9.12302 22.8919C9.11917 22.8655 9.12108 22.8386 9.12861 22.813C9.13614 22.7874 9.14912 22.7638 9.16663 22.7437C9.18433 22.7235 9.20617 22.7074 9.23064 22.6965C9.2551 22.6856 9.28162 22.6802 9.30837 22.6806H10.1261C10.1528 22.6802 10.1794 22.6856 10.2038 22.6965C10.2283 22.7074 10.2501 22.7235 10.2678 22.7437C10.2851 22.764 10.2981 22.7876 10.3061 22.813C10.314 22.8385 10.3168 22.8654 10.3142 22.8919L10.1724 24.031L11.0828 23.3448C11.1044 23.3285 11.1291 23.3169 11.1554 23.3107C11.1817 23.3046 11.209 23.304 11.2355 23.3091C11.2617 23.3149 11.2865 23.3262 11.3081 23.3423C11.3297 23.3584 11.3477 23.3789 11.3609 23.4025L11.7534 24.1051C11.7648 24.1296 11.7707 24.1563 11.7707 24.1833C11.7707 24.2104 11.7648 24.2371 11.7534 24.2616C11.7447 24.2869 11.7307 24.3101 11.7124 24.3295C11.694 24.3489 11.6718 24.3641 11.6471 24.3741L10.5949 24.8132L11.6471 25.2552ZM17.6437 25.2552C17.6666 25.2645 17.6875 25.2783 17.7051 25.2958C17.7227 25.3133 17.7368 25.3341 17.7464 25.357C17.756 25.38 17.761 25.4046 17.7612 25.4295C17.7613 25.4544 17.7566 25.4791 17.7473 25.5022L17.7337 25.5296L17.3193 26.2323C17.3067 26.2538 17.29 26.2726 17.2701 26.2876C17.2502 26.3025 17.2276 26.3134 17.2035 26.3195C17.1794 26.3257 17.1544 26.3269 17.1298 26.3233C17.1053 26.3196 17.0817 26.3111 17.0604 26.2982H17.0468L16.1609 25.6065L16.3026 26.751C16.3053 26.7776 16.3025 26.8044 16.2945 26.8299C16.2866 26.8554 16.2736 26.879 16.2563 26.8993C16.2386 26.9195 16.2168 26.9356 16.1923 26.9465C16.1678 26.9573 16.1413 26.9628 16.1146 26.9624H15.2968C15.2701 26.9628 15.2436 26.9573 15.2191 26.9465C15.1946 26.9356 15.1728 26.9195 15.1551 26.8993C15.1378 26.879 15.1248 26.8554 15.1169 26.8299C15.1089 26.8044 15.1061 26.7776 15.1088 26.751L15.2505 25.5982L14.3292 26.2982C14.3078 26.3148 14.283 26.3265 14.2566 26.3322C14.2302 26.3379 14.2028 26.3375 14.1766 26.3311C14.1506 26.3255 14.1261 26.3145 14.1045 26.2989C14.0829 26.2833 14.0648 26.2635 14.0512 26.2405L13.6587 25.5351C13.6456 25.5144 13.6366 25.4913 13.6324 25.4671C13.6282 25.4429 13.6288 25.4181 13.6341 25.3942C13.6394 25.3702 13.6494 25.3475 13.6634 25.3274C13.6775 25.3073 13.6953 25.2902 13.7159 25.2771L13.7513 25.2606L14.8062 24.816L13.7486 24.3549C13.7243 24.3447 13.7025 24.3294 13.6846 24.31C13.6667 24.2906 13.6532 24.2675 13.645 24.2423C13.6368 24.2166 13.634 24.1893 13.6368 24.1624C13.6397 24.1354 13.648 24.1094 13.6614 24.0859L14.0648 23.3942C14.0784 23.3713 14.0966 23.3514 14.1181 23.3358C14.1397 23.3202 14.1642 23.3093 14.1902 23.3036C14.2163 23.2984 14.2431 23.2989 14.269 23.3051C14.2949 23.3112 14.3191 23.3229 14.3401 23.3393L15.2505 24.0337L15.1088 22.8974C15.1061 22.8708 15.1089 22.844 15.1169 22.8185C15.1248 22.7931 15.1378 22.7695 15.1551 22.7492C15.1728 22.729 15.1946 22.7129 15.2191 22.702C15.2436 22.6911 15.2701 22.6857 15.2968 22.6861H16.1146C16.1413 22.6857 16.1678 22.6911 16.1923 22.702C16.2168 22.7129 16.2386 22.729 16.2563 22.7492C16.2736 22.7695 16.2866 22.7931 16.2945 22.8185C16.3025 22.844 16.3053 22.8708 16.3026 22.8974L16.1609 24.0365L17.0713 23.3503C17.0928 23.3338 17.1175 23.3221 17.1438 23.316C17.1701 23.3098 17.1974 23.3094 17.2239 23.3146C17.2501 23.3207 17.2747 23.3322 17.2962 23.3482C17.3178 23.3643 17.3359 23.3846 17.3493 23.4079L17.7418 24.1106C17.7548 24.1319 17.7634 24.1555 17.7672 24.1801C17.7711 24.2047 17.7701 24.2299 17.7642 24.2541C17.7584 24.2783 17.7479 24.3011 17.7333 24.3213C17.7187 24.3414 17.7003 24.3584 17.6791 24.3713L17.6492 24.3851L16.5943 24.8242L17.6437 25.2552ZM23.6404 25.2552C23.6633 25.2645 23.6841 25.2783 23.7018 25.2958C23.7194 25.3133 23.7334 25.3341 23.743 25.357C23.7526 25.38 23.7577 25.4046 23.7578 25.4295C23.758 25.4544 23.7533 25.4791 23.7439 25.5022L23.7303 25.5296L23.316 26.2323C23.3022 26.2556 23.2837 26.2758 23.2616 26.2914C23.2395 26.307 23.2144 26.3177 23.1879 26.3229C23.1618 26.3279 23.135 26.3273 23.1091 26.3212C23.0833 26.315 23.059 26.3034 23.038 26.2872L22.1521 25.5955L22.2911 26.7401C22.295 26.7665 22.293 26.7934 22.2855 26.819C22.278 26.8446 22.265 26.8682 22.2475 26.8883C22.2298 26.9085 22.208 26.9246 22.1835 26.9355C22.159 26.9464 22.1325 26.9518 22.1058 26.9514H21.288C21.2613 26.9518 21.2348 26.9464 21.2103 26.9355C21.1858 26.9246 21.164 26.9085 21.1463 26.8883C21.129 26.868 21.116 26.8444 21.108 26.8189C21.1001 26.7935 21.0973 26.7666 21.1 26.7401L21.2417 25.5873L20.3204 26.2872C20.299 26.3039 20.2742 26.3155 20.2478 26.3212C20.2214 26.3269 20.194 26.3265 20.1677 26.3201C20.1418 26.3145 20.1173 26.3035 20.0957 26.288C20.0741 26.2724 20.056 26.2525 20.0424 26.2295L19.6499 25.5241C19.6363 25.5012 19.628 25.4754 19.6257 25.4488C19.6233 25.4222 19.6269 25.3954 19.6362 25.3704C19.6449 25.3455 19.6586 25.3227 19.6764 25.3033C19.6942 25.2839 19.7158 25.2685 19.7398 25.2579L20.7947 24.8132L19.7398 24.3521C19.7152 24.342 19.693 24.3267 19.6747 24.3073C19.6563 24.2879 19.6423 24.2649 19.6335 24.2396C19.6253 24.2138 19.6225 24.1866 19.6253 24.1596C19.6281 24.1327 19.6365 24.1067 19.6499 24.0831L20.056 23.3915C20.0681 23.3702 20.0843 23.3515 20.1037 23.3365C20.123 23.3216 20.1451 23.3106 20.1686 23.3042C20.1921 23.2978 20.2167 23.2962 20.2409 23.2994C20.2651 23.3026 20.2884 23.3106 20.3095 23.3229H20.3286L21.239 24.0173L21.0972 22.881C21.0946 22.8544 21.0974 22.8275 21.1053 22.8021C21.1133 22.7766 21.1263 22.753 21.1436 22.7327C21.1613 22.7125 21.1831 22.6964 21.2076 22.6855C21.232 22.6746 21.2586 22.6692 21.2853 22.6696H22.103C22.1298 22.6692 22.1563 22.6746 22.1808 22.6855C22.2052 22.6964 22.2271 22.7125 22.2448 22.7327C22.2623 22.7528 22.2753 22.7764 22.2828 22.802C22.2903 22.8276 22.2922 22.8545 22.2884 22.881L22.1466 24.02L23.0598 23.3338C23.0812 23.3173 23.106 23.3056 23.1323 23.2995C23.1586 23.2933 23.1859 23.2929 23.2124 23.2982C23.2383 23.304 23.2626 23.3153 23.2838 23.3314C23.305 23.3475 23.3224 23.368 23.3351 23.3915L23.7303 24.0941C23.7432 24.1154 23.7519 24.139 23.7557 24.1636C23.7596 24.1882 23.7585 24.2134 23.7527 24.2376C23.7469 24.2618 23.7364 24.2847 23.7218 24.3048C23.7072 24.3249 23.6888 24.3419 23.6676 24.3549L23.6376 24.3686L22.5828 24.8078L23.6404 25.2552ZM29.637 25.2552C29.6615 25.2662 29.6836 25.282 29.7019 25.3018C29.7201 25.3217 29.7342 25.345 29.7433 25.3704C29.7515 25.3962 29.7543 25.4235 29.7515 25.4504C29.7487 25.4773 29.7403 25.5034 29.7269 25.5269L29.3099 26.2295C29.2963 26.2525 29.2781 26.2724 29.2566 26.288C29.235 26.3035 29.2105 26.3145 29.1845 26.3201C29.1584 26.3252 29.1316 26.3246 29.1058 26.3184C29.0799 26.3123 29.0557 26.3007 29.0346 26.2844L28.146 25.5928L28.2878 26.7373C28.2908 26.7622 28.2889 26.7875 28.2821 26.8116C28.2754 26.8358 28.264 26.8583 28.2485 26.878C28.233 26.8977 28.2138 26.914 28.192 26.9262C28.1702 26.9383 28.1462 26.9459 28.1215 26.9487H27.2847C27.2583 26.949 27.2322 26.9436 27.2082 26.9327C27.1842 26.9218 27.1628 26.9057 27.1457 26.8855C27.1273 26.8659 27.1136 26.8424 27.1056 26.8168C27.0976 26.7911 27.0954 26.7639 27.0993 26.7373L27.2411 25.5845L26.317 26.2844C26.2962 26.3011 26.2718 26.3127 26.2459 26.3184C26.2199 26.3241 26.1929 26.3237 26.1671 26.3174C26.1409 26.3126 26.116 26.302 26.0943 26.2863C26.0726 26.2706 26.0547 26.2503 26.0417 26.2268L25.6492 25.5214C25.6359 25.4984 25.6276 25.4728 25.6248 25.4463C25.6219 25.4198 25.6247 25.393 25.6329 25.3677C25.6524 25.3176 25.6905 25.2772 25.7392 25.2552L26.794 24.8105L25.7365 24.3494C25.7122 24.3392 25.6903 24.3239 25.6724 24.3045C25.6546 24.2851 25.6411 24.262 25.6329 24.2369C25.6246 24.2111 25.6219 24.1838 25.6247 24.1569C25.6275 24.13 25.6359 24.1039 25.6492 24.0804L26.0526 23.3887C26.0653 23.3672 26.082 23.3484 26.1019 23.3334C26.1218 23.3185 26.1444 23.3076 26.1685 23.3015C26.1926 23.2953 26.2176 23.2941 26.2422 23.2978C26.2667 23.3014 26.2903 23.31 26.3116 23.3229H26.3252L27.2356 24.0173L27.0939 22.881C27.09 22.8543 27.0921 22.8272 27.1002 22.8015C27.1082 22.7758 27.1219 22.7523 27.1402 22.7327C27.1574 22.7126 27.1787 22.6965 27.2027 22.6856C27.2268 22.6747 27.2529 22.6692 27.2792 22.6696H28.0969C28.1234 22.6698 28.1494 22.6756 28.1735 22.6867C28.1975 22.6977 28.219 22.7137 28.2365 22.7336C28.2539 22.7536 28.2671 22.777 28.275 22.8024C28.2829 22.8278 28.2854 22.8545 28.2823 22.881L28.1406 24.02L29.0537 23.3338C29.0748 23.3176 29.099 23.306 29.1248 23.2998C29.1507 23.2937 29.1775 23.2931 29.2036 23.2982C29.2298 23.3039 29.2546 23.3152 29.2762 23.3313C29.2978 23.3474 29.3158 23.3679 29.329 23.3915L29.7215 24.0941C29.7351 24.1176 29.7434 24.1438 29.7457 24.1708C29.7481 24.1979 29.7445 24.2251 29.7351 24.2506C29.7265 24.2755 29.7128 24.2983 29.695 24.3177C29.6771 24.3371 29.6556 24.3525 29.6315 24.3631L28.5767 24.8023L29.637 25.2552ZM35.6336 25.2552C35.6586 25.2654 35.6811 25.2811 35.6994 25.301C35.7178 25.3209 35.7316 25.3446 35.7399 25.3704C35.7495 25.396 35.753 25.4234 35.7501 25.4506C35.7473 25.4778 35.7382 25.5039 35.7236 25.5269L35.3093 26.2295C35.2957 26.2525 35.2775 26.2724 35.2559 26.288C35.2344 26.3035 35.2098 26.3145 35.1839 26.3201C35.1578 26.3255 35.1309 26.3251 35.105 26.319C35.0791 26.3128 35.0549 26.301 35.034 26.2844L34.1454 25.5928L34.2871 26.7373C34.2897 26.7639 34.287 26.7907 34.279 26.8162C34.2711 26.8417 34.258 26.8653 34.2408 26.8855C34.2231 26.9057 34.2012 26.9218 34.1768 26.9327C34.1523 26.9436 34.1258 26.9491 34.099 26.9487H33.2813C33.2546 26.9491 33.228 26.9436 33.2036 26.9327C33.1791 26.9218 33.1573 26.9057 33.1396 26.8855C33.1221 26.8655 33.1091 26.8419 33.1016 26.8163C33.094 26.7907 33.0921 26.7637 33.096 26.7373L33.2377 25.5845L32.3137 26.2844C32.2923 26.3011 32.2675 26.3127 32.2411 26.3184C32.2147 26.3241 32.1873 26.3238 32.161 26.3174C32.1351 26.3117 32.1106 26.3008 32.089 26.2852C32.0674 26.2696 32.0493 26.2497 32.0357 26.2268L31.6077 25.5214C31.5977 25.497 31.5925 25.4709 31.5925 25.4445C31.5925 25.4182 31.5977 25.392 31.6077 25.3677C31.6272 25.3176 31.6653 25.2772 31.714 25.2552L32.7689 24.8105L31.7113 24.3494C31.687 24.3392 31.6652 24.3239 31.6473 24.3045C31.6294 24.2851 31.6159 24.262 31.6077 24.2369C31.5995 24.2111 31.5967 24.1838 31.5995 24.1569C31.6023 24.13 31.6107 24.1039 31.6241 24.0804L32.0275 23.3887C32.0411 23.3658 32.0592 23.3459 32.0808 23.3303C32.1024 23.3147 32.1269 23.3038 32.1529 23.2982C32.1789 23.2927 32.2058 23.2931 32.2317 23.2993C32.2576 23.3055 32.2819 23.3172 32.3028 23.3338L33.2132 24.0283L33.0742 22.8919C33.0703 22.8655 33.0722 22.8386 33.0797 22.813C33.0873 22.7874 33.1003 22.7638 33.1178 22.7437C33.1355 22.7235 33.1573 22.7074 33.1818 22.6965C33.2062 22.6856 33.2328 22.6802 33.2595 22.6806H34.0772C34.104 22.6802 34.1305 22.6856 34.155 22.6965C34.1794 22.7074 34.2013 22.7235 34.219 22.7437C34.2362 22.764 34.2493 22.7876 34.2572 22.813C34.2652 22.8385 34.2679 22.8654 34.2653 22.8919L34.1236 24.031L35.034 23.3448C35.0555 23.3285 35.0803 23.3169 35.1065 23.3107C35.1328 23.3046 35.1601 23.304 35.1866 23.3091C35.2127 23.3152 35.2373 23.3267 35.2589 23.3427C35.2805 23.3588 35.2985 23.3791 35.312 23.4025L35.7045 24.1051C35.7181 24.1286 35.7264 24.1547 35.7287 24.1818C35.7311 24.2088 35.7275 24.2361 35.7181 24.2616C35.7095 24.2869 35.6955 24.3101 35.6772 24.3295C35.6588 24.3489 35.6365 24.3641 35.6118 24.3741L34.557 24.8132L35.6336 25.2552ZM41.6303 25.2552C41.6553 25.2654 41.6777 25.2811 41.6961 25.301C41.7144 25.3209 41.7283 25.3446 41.7366 25.3704C41.7448 25.3962 41.7476 25.4235 41.7448 25.4504C41.742 25.4773 41.7336 25.5034 41.7202 25.5269L41.3059 26.2295C41.2921 26.2529 41.2736 26.273 41.2515 26.2887C41.2294 26.3043 41.2043 26.315 41.1778 26.3201C41.1517 26.3252 41.1249 26.3246 41.0991 26.3184C41.0732 26.3123 41.049 26.3007 41.0279 26.2844L40.142 25.5928L40.2838 26.7373C40.2864 26.7639 40.2836 26.7907 40.2757 26.8162C40.2677 26.8417 40.2547 26.8653 40.2374 26.8855C40.2197 26.9057 40.1979 26.9218 40.1734 26.9327C40.149 26.9436 40.1224 26.9491 40.0957 26.9487H39.278C39.2512 26.9491 39.2247 26.9436 39.2002 26.9327C39.1758 26.9218 39.1539 26.9057 39.1362 26.8855C39.1189 26.8653 39.1059 26.8417 39.098 26.8162C39.09 26.7907 39.0873 26.7639 39.0899 26.7373L39.2316 25.5845L38.3103 26.2844C38.289 26.3011 38.2642 26.3127 38.2377 26.3184C38.2113 26.3241 38.1839 26.3238 38.1577 26.3174C38.1317 26.3117 38.1072 26.3008 38.0856 26.2852C38.0641 26.2696 38.0459 26.2497 38.0323 26.2268L37.6044 25.5214C37.593 25.4974 37.5871 25.4711 37.5871 25.4445C37.5871 25.4179 37.593 25.3917 37.6044 25.3677C37.613 25.3423 37.627 25.3192 37.6453 25.2998C37.6637 25.2803 37.686 25.2651 37.7107 25.2552L38.7628 24.8105L37.7079 24.3494C37.6625 24.3311 37.6261 24.2954 37.6067 24.2501C37.5873 24.2049 37.5864 24.1537 37.6044 24.1079L37.6207 24.0749L38.0241 23.3832C38.0377 23.3603 38.0559 23.3404 38.0775 23.3248C38.099 23.3092 38.1235 23.2983 38.1495 23.2927C38.1756 23.2876 38.2024 23.2882 38.2283 23.2943C38.2541 23.3005 38.2783 23.3121 38.2994 23.3283L39.2098 24.0228L39.0681 22.8864C39.0655 22.8599 39.0682 22.833 39.0762 22.8076C39.0841 22.7821 39.0971 22.7585 39.1144 22.7382C39.1321 22.718 39.1539 22.7019 39.1784 22.691C39.2029 22.6801 39.2294 22.6747 39.2562 22.6751H40.0739C40.1006 22.6747 40.1271 22.6801 40.1516 22.691C40.1761 22.7019 40.1979 22.718 40.2156 22.7382C40.2329 22.7585 40.2459 22.7821 40.2539 22.8076C40.2618 22.833 40.2646 22.8599 40.262 22.8864L40.1202 24.0255L41.0306 23.3393C41.0521 23.3228 41.0768 23.3111 41.1031 23.305C41.1294 23.2988 41.1568 23.2984 41.1833 23.3036C41.2094 23.3097 41.234 23.3212 41.2555 23.3372C41.2771 23.3533 41.2952 23.3736 41.3086 23.397L41.7011 24.0996C41.7141 24.1233 41.722 24.1495 41.7243 24.1764C41.7267 24.2033 41.7234 24.2305 41.7148 24.2561C41.6953 24.3061 41.6571 24.3465 41.6085 24.3686L40.5536 24.8078L41.6303 25.2552Z" fill="#7542E5"/>
<path d="M33.5593 33.237V28.0906L33.5457 23.0074V21.8683C33.5457 21.7227 33.4883 21.5831 33.386 21.4801C33.2838 21.3772 33.1452 21.3193 33.0006 21.3193H16.6161C16.4715 21.3193 16.3329 21.3772 16.2306 21.4801C16.1284 21.5831 16.071 21.7227 16.071 21.8683V34.3706C16.071 34.5162 16.1284 34.6558 16.2306 34.7587C16.3329 34.8617 16.4715 34.9195 16.6161 34.9195H33.0115C33.1561 34.9195 33.2947 34.8617 33.3969 34.7587C33.4992 34.6558 33.5566 34.5162 33.5566 34.3706L33.5593 33.237Z" fill="#FFD567"/>
<path d="M16.0492 22.9662V28.0522H33.5157V22.9662H16.0492Z" fill="#FFEA80"/>
<path d="M16.071 33.1957H33.5375V28.052H16.071V33.1957Z" fill="#FFD567"/>
<path d="M18.287 19.5572H21.1763V21.8299H18.287V19.5572Z" fill="#9F9FAD"/>
<path d="M28.394 19.5572H31.2833V21.8299H28.394V19.5572Z" fill="#9F9FAD"/>
<path d="M16.071 34.3349C16.071 34.4805 16.1284 34.6201 16.2306 34.7231C16.3329 34.826 16.4715 34.8839 16.6161 34.8839H33.0115C33.1561 34.8839 33.2947 34.826 33.3969 34.7231C33.4992 34.6201 33.5566 34.4805 33.5566 34.3349V33.1959H16.071V34.3349Z" fill="#FFA266"/>
<path d="M33.5157 21.8297C33.5157 21.6841 33.4583 21.5445 33.3561 21.4415C33.2538 21.3386 33.1152 21.2808 32.9706 21.2808H16.5807C16.4361 21.2808 16.2974 21.3386 16.1952 21.4415C16.093 21.5445 16.0355 21.6841 16.0355 21.8297V22.966H33.5157V21.8297Z" fill="#BFBFC9"/>
<path d="M31.2833 18.6899C31.2833 16.9545 30.5987 15.2901 29.3801 14.063C28.1614 12.8359 26.5086 12.1465 24.7852 12.1465C23.0617 12.1465 21.4089 12.8359 20.1903 14.063C18.9716 15.2901 18.287 16.9545 18.287 18.6899V19.5573H21.1736V18.6899C21.1994 17.743 21.5911 16.8437 22.2653 16.1831C22.9396 15.5226 23.8431 15.153 24.7838 15.153C25.7245 15.153 26.628 15.5226 27.3023 16.1831C27.9765 16.8437 28.3682 17.743 28.3941 18.6899V19.5573H31.2833V18.6899Z" fill="#BFBFC9"/>
<path d="M24.7933 31.2526C24.1529 31.2526 23.5268 31.0614 22.9943 30.7031C22.4618 30.3448 22.0467 29.8355 21.8016 29.2397C21.5565 28.6439 21.4924 27.9882 21.6174 27.3557C21.7423 26.7232 22.0507 26.1422 22.5036 25.6862C22.9565 25.2301 23.5334 24.9196 24.1616 24.7938C24.7897 24.6679 25.4408 24.7325 26.0325 24.9793C26.6242 25.2261 27.13 25.6441 27.4858 26.1803C27.8416 26.7165 28.0315 27.3469 28.0315 27.9919C28.0315 28.8567 27.6904 29.686 27.0831 30.2976C26.4758 30.9091 25.6522 31.2526 24.7933 31.2526Z" fill="#3FE1B0"/>
<path d="M24.7933 30.7667C24.2466 30.7667 23.7122 30.6034 23.2577 30.2976C22.8032 29.9918 22.4489 29.5571 22.2397 29.0486C22.0306 28.54 21.9758 27.9804 22.0825 27.4405C22.1891 26.9006 22.4523 26.4047 22.8389 26.0155C23.2254 25.6263 23.7179 25.3612 24.2541 25.2538C24.7902 25.1464 25.3459 25.2015 25.851 25.4122C26.356 25.6228 26.7877 25.9796 27.0914 26.4372C27.3951 26.8949 27.5572 27.433 27.5572 27.9835C27.5565 28.7214 27.265 29.4289 26.7468 29.9507C26.2287 30.4725 25.5261 30.7659 24.7933 30.7667Z" fill="#2AC3A2"/>
<path d="M24.1855 29.6111C24.1494 29.611 24.1137 29.6036 24.0805 29.5895C24.0473 29.5754 24.0172 29.5547 23.9919 29.5288L23.1742 28.7054C23.1234 28.6539 23.0949 28.5844 23.0949 28.5119C23.0949 28.4394 23.1234 28.3698 23.1742 28.3184C23.2253 28.2672 23.2944 28.2385 23.3664 28.2385C23.4384 28.2385 23.5075 28.2672 23.5585 28.3184L24.15 28.914L25.8836 26.4217C25.9044 26.392 25.9307 26.3667 25.9612 26.3472C25.9917 26.3277 26.0257 26.3145 26.0612 26.3083C26.0968 26.302 26.1332 26.3029 26.1685 26.3108C26.2037 26.3187 26.237 26.3336 26.2666 26.3545C26.2961 26.3754 26.3212 26.402 26.3406 26.4327C26.3599 26.4633 26.3731 26.4976 26.3793 26.5334C26.3855 26.5692 26.3846 26.6059 26.3767 26.6414C26.3688 26.6768 26.3541 26.7104 26.3333 26.7401L24.4253 29.5013C24.4025 29.534 24.3728 29.5612 24.3385 29.5811C24.3041 29.601 24.2658 29.6131 24.2263 29.6166L24.1855 29.6111Z" fill="#E3FFF3"/>
<path d="M18.1344 12.3055C18.1342 12.2336 18.1091 12.164 18.0632 12.1088C18.0174 12.0537 17.9539 12.0164 17.8836 12.0036C17.2948 11.8993 15.6485 11.5068 15.0897 10.9469C14.5309 10.3869 14.1439 8.72362 14.0376 8.1335C14.0259 8.06273 13.9896 7.99845 13.9352 7.95218C13.8807 7.90591 13.8117 7.88067 13.7404 7.88098V12.3055H18.1344Z" fill="#FFEA80"/>
<path d="M13.7405 7.88101C13.669 7.88136 13.5999 7.90718 13.5455 7.95391C13.4911 8.00063 13.4549 8.06524 13.4433 8.13627C13.3479 8.72914 12.98 10.387 12.4239 10.9469C11.8679 11.5068 10.197 11.8993 9.60004 12.0036C9.52977 12.0165 9.4662 12.0537 9.42038 12.1089C9.37456 12.164 9.3494 12.2336 9.34927 12.3055H13.7432L13.7405 7.88101Z" fill="#FFD567"/>
<path d="M13.7404 12.3056V16.7301C13.8119 16.73 13.881 16.7047 13.9358 16.6585C13.9905 16.6124 14.0275 16.5484 14.0403 16.4776C14.1439 15.8765 14.5336 14.194 15.0897 13.6341C15.6457 13.0741 17.2921 12.7008 17.8809 12.6075C17.9514 12.5959 18.0156 12.5594 18.062 12.5046C18.1084 12.4499 18.134 12.3803 18.1344 12.3083H13.7404V12.3056Z" fill="#FFD567"/>
<path d="M9.34656 12.3056C9.34701 12.378 9.37304 12.4479 9.41999 12.5027C9.46694 12.5575 9.53173 12.5937 9.60278 12.6048C10.197 12.6981 11.8651 13.0714 12.4212 13.6313C12.9773 14.1912 13.3452 15.8683 13.4406 16.4694C13.4521 16.5407 13.4882 16.6056 13.5426 16.6528C13.5969 16.7 13.666 16.7264 13.7377 16.7274V12.3056H9.34656Z" fill="#FFA266"/>
<path d="M38.2367 14.8967C38.2377 14.8668 38.2276 14.8377 38.2085 14.8149C38.1893 14.7921 38.1625 14.7772 38.1331 14.7731C37.8905 14.7292 37.2064 14.5645 36.9774 14.334C36.7485 14.1034 36.5849 13.4145 36.5413 13.1702C36.5362 13.1411 36.5211 13.1148 36.4987 13.0957C36.4763 13.0767 36.448 13.0661 36.4186 13.0659V14.8967H38.2367Z" fill="#FFEA80"/>
<path d="M36.4186 13.0659C36.3893 13.0661 36.361 13.0767 36.3386 13.0957C36.3161 13.1148 36.3011 13.1411 36.296 13.1702C36.2578 13.4172 36.1052 14.1034 35.8762 14.334C35.6472 14.5645 34.9522 14.7292 34.7069 14.7704C34.6775 14.7756 34.651 14.7912 34.632 14.8143C34.613 14.8375 34.6028 14.8667 34.6033 14.8967H36.4214L36.4186 13.0659Z" fill="#FFD567"/>
<path d="M36.4186 14.8967V16.7274C36.448 16.7272 36.4763 16.7167 36.4987 16.6976C36.5211 16.6786 36.5362 16.6522 36.5413 16.6231C36.5849 16.3734 36.7457 15.6762 36.9774 15.4456C37.2091 15.2151 37.8878 15.0614 38.1304 15.0202C38.16 15.0162 38.1872 15.0014 38.2068 14.9787C38.2263 14.956 38.237 14.9268 38.2367 14.8967H36.4186Z" fill="#FFD567"/>
<path d="M34.606 14.8967C34.6051 14.9265 34.6152 14.9557 34.6343 14.9785C34.6534 15.0013 34.6803 15.0162 34.7096 15.0202C34.9577 15.0614 35.6473 15.2151 35.879 15.4456C36.1107 15.6762 36.2606 16.3734 36.2987 16.6204C36.3038 16.6498 36.3187 16.6765 36.3411 16.696C36.3634 16.7155 36.3918 16.7266 36.4214 16.7274V14.8967H34.606Z" fill="#FFA266"/>
<path d="M13.5387 37.1592C13.5387 37.1193 13.5247 37.0807 13.4993 37.0501C13.4739 37.0195 13.4386 36.9988 13.3997 36.9918C13.0753 36.9341 12.1676 36.7173 11.8596 36.4099C11.5516 36.1025 11.3363 35.183 11.279 34.8564C11.2721 34.8176 11.252 34.7824 11.2222 34.7569C11.1923 34.7313 11.1546 34.717 11.1155 34.7164V37.1592H13.5387Z" fill="#FFEA80"/>
<path d="M11.1156 34.7164C11.076 34.7171 11.038 34.7318 11.0081 34.7579C10.9783 34.784 10.9584 34.8198 10.952 34.8591C10.9002 35.1857 10.6958 36.0997 10.3905 36.4099C10.0852 36.72 9.16121 36.9341 8.8314 36.9918C8.79241 36.9988 8.75713 37.0195 8.73173 37.0501C8.70632 37.0807 8.69239 37.1193 8.69238 37.1592H11.1183L11.1156 34.7164Z" fill="#FFD567"/>
<path d="M11.1155 37.1592V39.5993C11.1549 39.5997 11.1932 39.5858 11.2232 39.5601C11.2533 39.5343 11.2731 39.4985 11.279 39.4593C11.3363 39.1272 11.5516 38.1994 11.8596 37.892C12.1676 37.5846 13.0753 37.3788 13.3997 37.3239C13.4387 37.3179 13.4742 37.298 13.4997 37.2677C13.5253 37.2374 13.5391 37.1989 13.5387 37.1592H11.1155Z" fill="#FFD567"/>
<path d="M8.68967 37.1592C8.68988 37.1991 8.70429 37.2377 8.73029 37.2679C8.75628 37.2981 8.79215 37.318 8.83141 37.3239C9.16122 37.3788 10.0798 37.5819 10.3878 37.892C10.6958 38.2022 10.8975 39.1272 10.9493 39.4593C10.9558 39.4983 10.9757 39.5338 11.0056 39.5594C11.0356 39.585 11.0736 39.5991 11.1129 39.5992V37.1592H8.68967Z" fill="#FFA266"/>
<path d="M40.8971 37.9333C40.8969 37.8614 40.8718 37.7918 40.826 37.7366C40.7801 37.6814 40.7166 37.6442 40.6463 37.6314C40.0575 37.5271 38.4085 37.1346 37.8524 36.5746C37.2964 36.0147 36.9039 34.3514 36.8003 33.7613C36.7884 33.6928 36.7534 33.6306 36.7013 33.5851C36.6492 33.5396 36.583 33.5136 36.5141 33.5115V37.936L40.8971 37.9333Z" fill="#FFEA80"/>
<path d="M36.5141 33.5115C36.4426 33.5118 36.3735 33.5377 36.3191 33.5844C36.2648 33.6311 36.2286 33.6957 36.217 33.7668C36.1216 34.3596 35.7509 36.0175 35.1975 36.5774C34.6442 37.1373 32.9706 37.5271 32.36 37.6286C32.2895 37.6409 32.2256 37.678 32.1797 37.7333C32.1338 37.7886 32.1088 37.8585 32.1093 37.9305H36.5141V33.5115Z" fill="#FFD567"/>
<path d="M36.5141 37.9331V42.3576C36.5852 42.3574 36.6539 42.332 36.7082 42.2858C36.7626 42.2396 36.799 42.1756 36.8112 42.1051C36.9148 41.504 37.3073 39.8215 37.8633 39.2616C38.4194 38.7016 40.0657 38.3283 40.6517 38.2323C40.7228 38.2212 40.7876 38.185 40.8345 38.1302C40.8815 38.0754 40.9075 38.0055 40.908 37.9331H36.5141Z" fill="#FFD567"/>
<path d="M32.1093 37.9331C32.109 38.0052 32.1345 38.0751 32.181 38.13C32.2275 38.1848 32.292 38.2211 32.3628 38.2323C32.9597 38.3283 34.6278 38.7016 35.1839 39.2616C35.74 39.8215 36.1079 41.4985 36.2033 42.0996C36.2149 42.1709 36.2509 42.2359 36.3053 42.283C36.3596 42.3302 36.4287 42.3566 36.5004 42.3576V37.9331H32.1093Z" fill="#FFA266"/>
<path d="M16.7088 41.0566C16.7117 41.0268 16.704 40.9969 16.687 40.9722C16.6701 40.9476 16.6449 40.9298 16.6161 40.9221C16.3708 40.8782 15.6894 40.7163 15.4604 40.483C15.2315 40.2497 15.0679 39.5635 15.0243 39.3192C15.0192 39.2901 15.0041 39.2638 14.9817 39.2447C14.9593 39.2256 14.931 39.2151 14.9016 39.2149V41.0456L16.7088 41.0566Z" fill="#FFEA80"/>
<path d="M14.8908 39.226C14.8612 39.2268 14.8328 39.238 14.8104 39.2575C14.7881 39.277 14.7731 39.3037 14.7681 39.3331C14.7299 39.5773 14.5773 40.2635 14.3483 40.4941C14.1194 40.7246 13.4243 40.8893 13.179 40.9332C13.1501 40.9384 13.1239 40.9535 13.105 40.9761C13.0861 40.9987 13.0756 41.0272 13.0754 41.0568H14.8935L14.8908 39.226Z" fill="#FFD567"/>
<path d="M14.8907 41.0568V42.8875C14.92 42.8873 14.9484 42.8768 14.9708 42.8577C14.9932 42.8387 15.0082 42.8123 15.0133 42.7832C15.057 42.5335 15.2178 41.839 15.4495 41.6057C15.6812 41.3724 16.3599 41.2215 16.6025 41.183C16.6321 41.1779 16.6589 41.1624 16.6784 41.1394C16.6978 41.1163 16.7086 41.0871 16.7088 41.0568H14.8907Z" fill="#FFD567"/>
<path d="M13.0726 41.0568C13.0722 41.0868 13.0824 41.116 13.1013 41.1391C13.1203 41.1623 13.1469 41.1778 13.1762 41.183C13.4243 41.2215 14.1139 41.3752 14.3456 41.6057C14.5773 41.8363 14.7272 42.5335 14.7653 42.7805C14.7699 42.8101 14.7847 42.8371 14.8071 42.8567C14.8296 42.8763 14.8583 42.8872 14.888 42.8875V41.0568H13.0726Z" fill="#FFA266"/>
<path d="M33.1068 6.5937C33.1073 6.55398 33.0934 6.51544 33.0679 6.48518C33.0423 6.45492 33.0068 6.43497 32.9678 6.42901C32.6434 6.37138 31.7358 6.15454 31.4278 5.84438C31.1197 5.53423 30.9044 4.62023 30.8472 4.29086C30.8402 4.25234 30.82 4.21751 30.7901 4.19243C30.7602 4.16736 30.7225 4.15363 30.6836 4.15363V6.5937H33.1068Z" fill="#FFEA80"/>
<path d="M30.6837 4.14279C30.6444 4.14291 30.6064 4.15703 30.5765 4.18265C30.5465 4.20827 30.5266 4.24374 30.5201 4.28277C30.4683 4.6094 30.2639 5.52614 29.9586 5.83355C29.6534 6.14096 28.7293 6.36054 28.3995 6.41818C28.3608 6.42467 28.3255 6.44476 28.3001 6.47491C28.2746 6.50505 28.2606 6.5433 28.2605 6.58286H30.6864L30.6837 4.14279Z" fill="#FFD567"/>
<path d="M30.6836 6.5939V9.03672C30.7228 9.03607 30.7605 9.02176 30.7903 8.99623C30.8201 8.9707 30.8402 8.93553 30.8472 8.89674C30.9044 8.56463 31.1197 7.6369 31.4278 7.32675C31.7358 7.01659 32.6434 6.81348 32.9678 6.76133C33.0063 6.75434 33.0412 6.7341 33.0666 6.70407C33.092 6.67403 33.1062 6.63606 33.1068 6.59665H30.6836V6.5939Z" fill="#FFD567"/>
<path d="M28.2578 6.59384C28.258 6.63381 28.2724 6.67238 28.2984 6.70258C28.3244 6.73279 28.3603 6.75263 28.3995 6.75852C28.7294 6.81067 29.6479 7.01653 29.956 7.32394C30.264 7.63135 30.4657 8.55907 30.5175 8.89119C30.5238 8.93049 30.5437 8.96629 30.5736 8.99237C30.6034 9.01845 30.6415 9.03315 30.681 9.03391V6.59109L28.2578 6.59384Z" fill="#FFA266"/>
</g>
<defs>
<clipPath id="clip0_71_1093">
<rect width="43.3884" height="42" fill="white" transform="translate(3.09912 4)"/>
</clipPath>
</defs>
</svg>
