<svg width="140" height="160" viewBox="0 0 140 160" fill="none" xmlns="http://www.w3.org/2000/svg">
<rect width="140" height="160" rx="8" fill="#F5F7F9"/>
<path d="M37.695 125H41.839V105.764H38.535L32.767 109.628L34.419 112.54L37.695 110.496V125ZM53.8801 125.336C58.9481 125.336 62.5321 121.22 62.5321 115.368C62.5321 109.544 58.9481 105.428 53.8801 105.428C48.8121 105.428 45.2561 109.544 45.2561 115.368C45.2561 121.22 48.8121 125.336 53.8801 125.336ZM53.8801 121.584C51.3041 121.584 49.4841 118.98 49.4841 115.368C49.4841 111.756 51.3041 109.18 53.8801 109.18C56.4841 109.18 58.2761 111.756 58.2761 115.368C58.2761 118.98 56.4841 121.584 53.8801 121.584ZM65.8376 125H69.9536V113.016L75.9176 123.88L81.8536 113.016V125H85.9976V105.764H81.8536L75.9176 116.628L69.9536 105.764H65.8376V125ZM90.1189 125H100.227C103.895 125 106.527 122.872 106.527 119.792C106.527 117.664 105.239 115.872 102.999 114.864C104.707 113.968 105.687 112.54 105.687 110.58C105.687 107.78 103.307 105.764 99.8629 105.764H90.1189V125ZM94.2349 113.52V109.292H98.8269C100.367 109.292 101.459 110.188 101.459 111.392C101.459 112.624 100.367 113.52 98.8269 113.52H94.2349ZM94.2349 121.472V116.768H99.4709C101.123 116.768 102.299 117.748 102.299 119.12C102.299 120.492 101.123 121.472 99.4709 121.472H94.2349Z" fill="black"/>
<path d="M79.9018 64.6695L70.2973 74.2082L61.729 65.755L61.0382 65.0807L59.9363 66.2812L34.9384 92.6278C35.4151 93.1426 35.9924 93.5542 36.6345 93.8371C37.2766 94.1199 37.9699 94.2681 38.6716 94.2724H101.923C102.625 94.2671 103.318 94.1185 103.96 93.8357C104.602 93.5529 105.179 93.1418 105.656 92.6278L80.9873 65.9688L79.9018 64.6695Z" fill="#7542E5"/>
<path d="M61.2522 66.1823L34.8234 41.6448C33.8721 42.6258 33.3259 43.9296 33.2939 45.2958V88.9271C33.3065 89.6226 33.4585 90.3085 33.741 90.9441C34.0235 91.5797 34.4307 92.1521 34.9385 92.6275L60.2326 67.3828L61.2522 66.1823ZM105.657 41.5132L79.3429 65.8533L80.527 67.0046L105.657 92.6275C106.162 92.1535 106.567 91.5836 106.85 90.9511C107.132 90.3185 107.285 89.6361 107.301 88.9436V45.4767C107.273 44.9087 107.139 44.3509 106.906 43.8321C106.693 42.9609 106.263 42.1576 105.657 41.4968V41.5132Z" fill="#9059FF"/>
<path d="M61.0876 67.1032L61.7618 67.7775L70.3631 76.1814L79.9841 66.6921L105.656 41.4967C105.201 41.0276 104.656 40.6537 104.055 40.3967C103.454 40.1398 102.807 40.005 102.153 40.0002H38.6552C37.9544 39.9946 37.2604 40.1384 36.6195 40.422C35.9787 40.7055 35.4055 41.1224 34.9384 41.6448L61.0876 67.1032Z" fill="#C689FF"/>
<g clip-path="url(#clip0_158_418)">
<path d="M112.146 45.4792L111.958 45.5734L111.157 44.7723L111.392 44.631L112.146 45.4792Z" fill="#FCEE21"/>
<path d="M116.811 65.8837L116.293 65.2711L117.424 65.0355L117.942 65.6952L116.811 65.8837Z" fill="#ED1E79"/>
<path d="M127.696 29.8813L127.932 29.3158L133.351 28.5147L133.115 29.0802L127.696 29.8813Z" fill="#39B54A"/>
<path d="M98.1515 50.0031L99.3296 50.4743L98.2458 52.6891L97.0677 52.1707L98.1515 50.0031Z" fill="#FBB03B"/>
<path d="M52.6329 63.8574L53.0098 63.6689L53.6695 68.287L53.2926 68.5226L52.6329 63.8574Z" fill="#39B54A"/>
<path d="M102.911 57.0245L103.335 51.3696L103.712 51.2754L103.241 56.9302L102.911 57.0245Z" fill="#FBB03B"/>
<path d="M72.3294 25.4045L72.8006 24.6506L73.1304 26.8654L72.7063 27.6193L72.3294 25.4045Z" fill="#00FFFF"/>
<path d="M70.1618 48.6365L67.9 47.8825L68.3241 47.2699L70.5859 48.0239L70.1618 48.6365Z" fill="#ED1E79"/>
<path d="M120.817 28.6561L123.173 29.0802L122.937 31.5306L120.534 31.1536L120.817 28.6561Z" fill="#00FFFF"/>
<path d="M66.5335 74.6487L70.1147 78.0887L68.1356 79.0312L64.5073 75.5441L66.5335 74.6487Z" fill="#00FFFF"/>
<path d="M104.042 55.1867L103.288 57.9198L102.581 57.1658L103.335 54.4327L104.042 55.1867Z" fill="#FCEE21"/>
<path d="M65.2613 30.3525L64.7901 32.6616L63.1408 32.049L63.612 29.7399L65.2613 30.3525Z" fill="#FBB03B"/>
<path d="M51.7847 40.5783L50.7009 38.7405L52.1146 37.9394L53.1983 39.8244L51.7847 40.5783Z" fill="#ED1C24"/>
<path d="M75.2037 25.5459L74.8268 25.7815L74.2613 24.8862L74.5912 24.6506L75.2037 25.5459Z" fill="#FBB03B"/>
<path d="M117.283 59.7576L116.906 61.8311L115.586 61.2656L115.963 59.2393L117.283 59.7576Z" fill="#FBB03B"/>
<path d="M73.6016 30.3054L72.4236 31.2007L70.3032 31.7662L71.4812 30.8709L73.6016 30.3054Z" fill="#00FFFF"/>
<path d="M49.0988 6.08385L48.4391 6.7907L47.6852 5.28275" fill="#00FFFF"/>
<path d="M105.267 64.3286L105.832 63.6218L106.539 63.4333L105.926 64.1401L105.267 64.3286Z" fill="#00FFFF"/>
<path d="M111.911 28.7974L110.262 27.9021L110.874 27.478L112.571 28.3733L111.911 28.7974Z" fill="#ED1C24"/>
<path d="M28.083 35.9131L27.3291 39.4474L26.0097 39.2118L26.7636 35.6775L28.083 35.9131Z" fill="#00FFFF"/>
<path d="M87.8321 66.7791L86.607 67.1089L84.4865 62.7264L85.6646 62.3966L87.8321 66.7791Z" fill="#FBB03B"/>
<path d="M93.4866 32.8972L92.1672 31.7191L92.4028 29.4572L93.7222 30.6353L93.4866 32.8972Z" fill="#00FFFF"/>
<path d="M71.0571 70.7375L70.7744 73.8476L67.523 71.6799L67.7586 68.5698L71.0571 70.7375Z" fill="#39B54A"/>
<path d="M99.094 23.7552L99.9421 21.2105L104.23 22.6242L103.382 25.1689L99.094 23.7552Z" fill="#39B54A"/>
<path d="M89.6227 71.8213L88.4447 69.041L91.4604 69.418L92.6384 72.1512L89.6227 71.8213Z" fill="#FBB03B"/>
<path d="M133.021 78.1359L132.785 77.7117L134.764 75.6854L135 76.0624L133.021 78.1359Z" fill="#ED1C24"/>
<path d="M80.6698 14.7075L79.209 15.6499L80.1514 13.765L81.6122 12.8225L80.6698 14.7075Z" fill="#00FFFF"/>
<path d="M13.2871 19.3727L12.2975 19.0428L12.3446 18.6187L13.3342 18.9486L13.2871 19.3727Z" fill="#ED1C24"/>
<path d="M25.5385 65.2711L23.8421 64.5643L23.7007 61.5012L25.3971 62.2081L25.5385 65.2711Z" fill="#ED1C24"/>
<path d="M97.539 31.7191L98.0102 32.4259L98.34 34.9706L97.8217 34.2638L97.539 31.7191Z" fill="#FBB03B"/>
<path d="M32.0882 28.3262L31.0516 27.9021L30.9102 24.5563L31.9469 24.9804L32.0882 28.3262Z" fill="#FBB03B"/>
<path d="M123.691 24.5563V24.2736L125.764 25.6401V25.9229L123.691 24.5563Z" fill="#ED1C24"/>
<path d="M50.9837 56.6004L50.8894 57.1658L50.3711 57.0716L50.4653 56.5061L50.9837 56.6004Z" fill="#ED1C24"/>
<path d="M105.738 59.0508L104.089 59.8048L102.487 56.5532L104.136 55.7993L105.738 59.0508Z" fill="#39B54A"/>
<path d="M88.0677 11.8329L87.408 11.4088L87.7379 10.3721L88.3976 10.8433L88.0677 11.8329Z" fill="#FBB03B"/>
<path d="M21.062 42.5575L20.5908 42.9345L17.3866 42.7931L17.8578 42.369L21.062 42.5575Z" fill="#39B54A"/>
<path d="M28.9783 55.7993L27.0934 54.951L27.2819 54.0557L29.1668 54.8568L28.9783 55.7993Z" fill="#FBB03B"/>
<path d="M100.413 25.4045L100.837 25.7815L100.413 26.6769L99.9893 26.2528L100.413 25.4045Z" fill="#39B54A"/>
<path d="M48.9103 48.5894L51.0779 47.4113L51.5962 47.9767L49.4287 49.1548L48.9103 48.5894Z" fill="#FBB03B"/>
<path d="M112.665 26.347L112.806 26.8182H112.571L112.429 26.347H112.665Z" fill="#39B54A"/>
<path d="M51.5491 14.3305L53.3868 17.1108L52.4444 17.8176L50.6067 15.0373L51.5491 14.3305Z" fill="#39B54A"/>
<path d="M131.325 13.8592L130.241 12.4927L130.9 10.1365L131.937 11.5031L131.325 13.8592Z" fill="#FCEE21"/>
<path d="M6.45455 18.713L7.44408 19.9382L5.18229 18.5716L4.19275 17.3935L6.45455 18.713Z" fill="#ED1C24"/>
<path d="M104.796 22.1059L103.523 22.7656L102.675 19.9853L103.9 19.3727L104.796 22.1059Z" fill="#FBB03B"/>
<path d="M24.5018 43.3115L24.2191 42.9345L25.0201 42.1334L25.3029 42.5104L24.5018 43.3115Z" fill="#ED1C24"/>
<path d="M49.0517 36.3372L49.1931 41.0967L46.036 41.1909L45.8946 36.4786L49.0517 36.3372Z" fill="#ED1C24"/>
<path d="M21.9102 42.3219L23.6536 41.1438L24.172 41.9449L22.4285 43.123L21.9102 42.3219Z" fill="#ED1E79"/>
<path d="M61.9628 14.142L61.7272 14.0477L61.8214 12.8225L62.1042 12.9639L61.9628 14.142Z" fill="#FCEE21"/>
<path d="M51.0308 6.74358L52.2088 7.26194L51.502 9.24113L50.324 8.72277L51.0308 6.74358Z" fill="#FBB03B"/>
<path d="M62.4811 58.7209L61.8685 59.522L61.5387 59.3807L62.1042 58.5796L62.4811 58.7209Z" fill="#FCEE21"/>
<path d="M62.3869 32.3317L64.8843 30.6353L66.345 32.5202L63.8005 34.2166L62.3869 32.3317Z" fill="#39B54A"/>
<path d="M106.492 56.1291L106.775 56.6475L105.125 57.4957L104.796 56.9774L106.492 56.1291Z" fill="#FBB03B"/>
<path d="M76.8058 58.1554L77.1357 57.4957L77.5598 57.4015L77.2771 58.0141L76.8058 58.1554Z" fill="#39B54A"/>
<path d="M88.7274 16.4982L85.429 17.7234L86.3714 16.3568L89.7169 15.1316L88.7274 16.4982Z" fill="#FBB03B"/>
<path d="M34.2087 32.1432L34.0673 35.8188L33.172 35.7717L33.3134 32.1432H34.2087Z" fill="#FCEE21"/>
<path d="M94.806 41.5679L95.3714 41.0967L98.3871 42.6047L97.8217 43.0759L94.806 41.5679Z" fill="#00FFFF"/>
<path d="M42.7375 34.7821L42.4548 34.0282L44.2454 33.3213L44.5281 34.0753L42.7375 34.7821Z" fill="#00FFFF"/>
<path d="M94.2877 32.5202L94.2405 37.0912L91.1777 37.3268L91.2719 32.8029L94.2877 32.5202Z" fill="#FBB03B"/>
<path d="M48.8161 73.8947L48.7219 72.9994L50.8423 73.4235L50.9365 74.2717L48.8161 73.8947Z" fill="#39B54A"/>
<path d="M84.0153 17.6291L87.2667 15.3201L89.1044 19.8911L85.853 22.2001L84.0153 17.6291Z" fill="#ED1C24"/>
<path d="M21.1091 52.3121L20.4023 51.2283L23.3238 51.7466L24.0306 52.8305L21.1091 52.3121Z" fill="#39B54A"/>
<path d="M114.644 30.6352L116.858 27.0067L117.188 28.2319L114.974 31.8605L114.644 30.6352Z" fill="#ED1C24"/>
<path d="M133.822 51.7938L134.152 51.134L134.859 51.4168L134.529 52.1236L133.822 51.7938Z" fill="#FCEE21"/>
<path d="M98.7641 56.2705L98.9055 58.6267L95.8427 59.0979L95.7484 56.7417L98.7641 56.2705Z" fill="#FBB03B"/>
<path d="M82.3661 21.1163L81.565 20.2209L82.0834 19.7968L82.8844 20.7393L82.3661 21.1163Z" fill="#39B54A"/>
<path d="M111.722 37.1854L111.675 37.798L109.885 37.8923L109.932 37.2797L111.722 37.1854Z" fill="#39B54A"/>
<path d="M70.2089 47.694L66.6749 44.9608L67.523 44.6781L71.0571 47.4584L70.2089 47.694Z" fill="#00FFFF"/>
<path d="M69.5492 38.5049L67.523 38.1279L67.6173 37.6095L69.6435 37.9865L69.5492 38.5049Z" fill="#FBB03B"/>
<path d="M84.3452 21.399L83.1671 18.336L83.6855 18.1004L84.8635 21.1634L84.3452 21.399Z" fill="#ED1C24"/>
<path d="M85.8059 15.8384L82.5074 15.3672L84.5808 14.7075L87.8792 15.1787L85.8059 15.8384Z" fill="#ED1C24"/>
<path d="M37.4129 60.6059L38.0255 61.2185L38.0726 64.9884L37.46 64.3758L37.4129 60.6059Z" fill="#ED1E79"/>
<path d="M18.2347 37.798L20.0725 35.8188L20.1196 36.1958L18.2819 38.175L18.2347 37.798Z" fill="#FBB03B"/>
<path d="M134.717 24.0851L132.832 24.3678L132.691 23.661L134.623 23.3782L134.717 24.0851Z" fill="#FBB03B"/>
<path d="M113.607 59.4278L114.267 59.6163L114.125 60.276L113.466 60.0875L113.607 59.4278Z" fill="#FBB03B"/>
<path d="M71.6697 37.2326L73.4131 36.6199L73.4603 37.7038L71.7639 38.3164L71.6697 37.2326Z" fill="#FBB03B"/>
<path d="M74.2142 23.7081L74.8739 22.7656H75.5807L74.921 23.661L74.2142 23.7081Z" fill="#ED1C24"/>
<path d="M19.3656 6.13097L22.0515 7.73317L19.884 11.3617L17.1981 9.75949L19.3656 6.13097Z" fill="#FBB03B"/>
<path d="M114.55 37.5153L114.974 37.4211L116.01 39.4474L115.586 39.5416L114.55 37.5153Z" fill="#39B54A"/>
<path d="M66.5335 34.1224L66.722 34.358L64.5073 35.112L64.3188 34.8293L66.5335 34.1224Z" fill="#FBB03B"/>
<path d="M46.3658 25.7815L46.9784 22.8599L47.3554 22.3415L46.7899 25.2632L46.3658 25.7815Z" fill="#FBB03B"/>
<path d="M116.152 75.1199L116.34 74.8372L116.953 74.5545L116.717 74.8372L116.152 75.1199Z" fill="#00FFFF"/>
<path d="M53.1983 11.5502L55.6486 10.702L56.4025 12.3513L53.9051 13.1995L53.1983 11.5502Z" fill="#FBB03B"/>
<path d="M119.497 26.9125L119.45 25.8286L123.455 29.5043V30.5881L119.497 26.9125Z" fill="#00FFFF"/>
<path d="M29.4023 80.3507L33.1249 75.9682L35.0097 77.6175L31.3343 82L29.4023 80.3507Z" fill="#ED1C24"/>
<path d="M73.2247 27.4308L75.298 26.7711L75.3451 28.5618L73.2247 29.2687V27.4308Z" fill="#39B54A"/>
<path d="M31.3343 28.8917L29.5909 25.4045L33.5961 23.3782L35.3396 26.8654L31.3343 28.8917Z" fill="#39B54A"/>
<path d="M97.6803 52.3592L95.4185 55.0453H95.23L97.4918 52.3592H97.6803Z" fill="#FBB03B"/>
<path d="M110.073 47.0343L110.309 44.5367L113.419 44.0655L113.23 46.563L110.073 47.0343Z" fill="#FCEE21"/>
<path d="M67.2875 68.0985L65.8267 66.1665L66.1094 65.9308L67.5702 67.8629L67.2875 68.0985Z" fill="#ED1C24"/>
<path d="M94.429 48.5422L95.2301 47.5998L95.984 48.1181L95.1358 49.0606L94.429 48.5422Z" fill="#39B54A"/>
<path d="M51.0308 34.9235L52.4444 36.3843L51.3135 37.4682L49.8999 36.0073L51.0308 34.9235Z" fill="#FBB03B"/>
<path d="M46.2245 35.7717L45.282 32.8972L46.3187 32.5202L47.2611 35.3947L46.2245 35.7717Z" fill="#FCEE21"/>
<path d="M52.1146 11.5031L54.4706 13.011L51.879 14.896L49.5229 13.3409L52.1146 11.5031Z" fill="#FBB03B"/>
<path d="M12.1561 67.8158L10.8368 65.5539L11.7792 64.7056L13.0986 66.9204L12.1561 67.8158Z" fill="#FBB03B"/>
<path d="M14.8892 9.05263L14.7478 8.15729L15.3133 7.7803L15.4546 8.72277L14.8892 9.05263Z" fill="#ED1C24"/>
<path d="M34.6328 60.276L34.4443 59.0979L39.392 58.0141L39.6276 59.2393L34.6328 60.276Z" fill="#39B54A"/>
<path d="M15.596 11.3146L15.0305 11.8329L14.7949 9.52387L15.4075 9.00551L15.596 11.3146Z" fill="#ED1C24"/>
<path d="M89.8583 68.8054V68.7111H89.9996V68.8054H89.8583Z" fill="#FCEE21"/>
<path d="M20.8264 45.4321L19.884 46.0918L19.6955 45.4792L20.6379 44.8195L20.8264 45.4321Z" fill="#FBB03B"/>
<path d="M119.921 30.2111L119.12 33.4156L118.461 33.1799L119.262 29.9755L119.921 30.2111Z" fill="#FCEE21"/>
<path d="M86.1829 34.0753L81.6122 33.4155L83.3556 32.7087L87.9263 33.3684L86.1829 34.0753Z" fill="#FBB03B"/>
<path d="M111.298 71.8213L110.12 72.5282L109.508 66.6848L110.686 65.978L111.298 71.8213Z" fill="#FBB03B"/>
<path d="M121.476 36.5257V37.3739L119.827 37.8452V36.9969L121.476 36.5257Z" fill="#ED1C24"/>
<path d="M106.068 74.9315L106.68 74.6958L106.775 75.0257L106.209 75.2142L106.068 74.9315Z" fill="#39B54A"/>
<path d="M50.5596 41.5208L48.4391 45.2436L44.104 44.0184L46.2716 40.2956L50.5596 41.5208Z" fill="#00FFFF"/>
<path d="M113.937 50.8513L114.267 45.9504L115.822 46.8458L115.539 51.7466L113.937 50.8513Z" fill="#ED1C24"/>
<path d="M26.528 66.8733L25.4913 67.1561L24.8788 63.7632L25.9154 63.4804L26.528 66.8733Z" fill="#ED1C24"/>
<path d="M60.4078 35.7717L62.8581 33.6512L63.5178 34.1224L61.0675 36.243L60.4078 35.7717Z" fill="#FBB03B"/>
<path d="M103.712 58.8623L103.052 59.1922L101.403 58.8152L102.063 58.4382L103.712 58.8623Z" fill="#ED1E79"/>
<path d="M71.1042 19.1842L75.5807 17.4878L76.1933 19.0428L71.6697 20.7393L71.1042 19.1842Z" fill="#FCEE21"/>
<path d="M19.9311 61.407L18.2347 65.0826L14.7478 63.4804L16.4441 59.8519L19.9311 61.407Z" fill="#FBB03B"/>
<path d="M64.1775 39.3531L64.8372 39.4474L64.5073 40.437L63.8476 40.3427L64.1775 39.3531Z" fill="#39B54A"/>
<path d="M43.8684 50.3329L43.303 50.0973L43.9156 50.0502L44.481 50.2387L43.8684 50.3329Z" fill="#ED1E79"/>
<path d="M10.5069 9.52386L9.56452 10.7491L6.83151 9.14688L7.77393 7.92166L10.5069 9.52386Z" fill="#00FFFF"/>
<path d="M96.0311 31.3421L93.1567 30.918L91.319 29.2215L94.1934 29.6457L96.0311 31.3421Z" fill="#ED1C24"/>
<path d="M41.6537 74.0832L40.7585 74.2246L40.9469 73.989L41.8422 73.8476L41.6537 74.0832Z" fill="#39B54A"/>
<path d="M6.26605 12.3984L7.58543 10.4663L9.23466 11.9743L7.86816 13.9064L6.26605 12.3984Z" fill="#39B54A"/>
<path d="M31.7584 51.7938L30.062 51.1811L31.7113 46.94L33.3605 47.5526L31.7584 51.7938Z" fill="#FCEE21"/>
<path d="M47.591 39.9657L48.6276 40.7197L48.4392 42.1334L47.4025 41.3794L47.591 39.9657Z" fill="#FCEE21"/>
<path d="M25.5384 74.9786L27.6589 75.7326L26.905 76.1567L24.7845 75.4027L25.5384 74.9786Z" fill="#00FFFF"/>
<path d="M55.6486 68.7111L54.7062 68.5226L54.6591 68.1457L55.6015 68.3341L55.6486 68.7111Z" fill="#39B54A"/>
<path d="M108.612 9.71236L108.518 12.5398L105.926 12.4927L106.021 9.66524L108.612 9.71236Z" fill="#FCEE21"/>
<path d="M117.047 57.0716L117.377 59.3335L116.434 58.8623L116.105 56.6475L117.047 57.0716Z" fill="#00FFFF"/>
<path d="M40.7585 55.4694L41.2297 56.6004L41.1354 57.6842L40.6171 56.5532L40.7585 55.4694Z" fill="#FCEE21"/>
<path d="M87.9263 59.7577L88.1619 60.3703L87.031 59.8048L86.8426 59.1922L87.9263 59.7577Z" fill="#39B54A"/>
<path d="M20.9206 6.74358L21.863 8.29866L21.7217 9.28825L20.7793 7.7803L20.9206 6.74358Z" fill="#ED1C24"/>
<path d="M57.7691 48.7778L56.8738 47.5526L57.5806 47.4113L58.4759 48.5893L57.7691 48.7778Z" fill="#ED1C24"/>
<path d="M90.6593 53.8672L89.9525 52.5477L90.4709 52.265L91.1777 53.5373L90.6593 53.8672Z" fill="#ED1E79"/>
<path d="M60.6906 46.3274L61.0675 46.94L59.9837 47.3641L59.6068 46.7515L60.6906 46.3274Z" fill="#39B54A"/>
<path d="M23.7479 38.6463L23.8892 38.0808L24.2662 39.2117L24.1248 39.7772L23.7479 38.6463Z" fill="#00FFFF"/>
<path d="M46.9313 51.9823L51.8319 52.5477L51.4078 56.1291L46.5072 55.5636L46.9313 51.9823Z" fill="#ED1C24"/>
<path d="M129.999 47.5141C130.007 47.4093 129.978 47.3049 129.918 47.2189C129.857 47.1328 129.768 47.0704 129.667 47.0423C128.788 46.8829 126.353 46.313 125.535 45.4857C124.717 44.6584 124.133 42.2256 123.973 41.3677C123.954 41.2654 123.901 41.1727 123.821 41.1056C123.741 41.0385 123.641 41.0012 123.536 41V47.4774L129.999 47.5141Z" fill="#FFEA80"/>
<path d="M123.499 41.0367C123.394 41.0396 123.292 41.0791 123.213 41.1484C123.133 41.2178 123.08 41.3126 123.063 41.4166C122.921 42.2807 122.38 44.7074 121.562 45.5224C120.745 46.3375 118.23 46.9196 117.381 47.079C117.278 47.0963 117.184 47.1496 117.117 47.2292C117.049 47.3089 117.012 47.4098 117.012 47.5141H123.506L123.499 41.0367ZM123.499 47.5141V53.9914C123.604 53.9902 123.704 53.9529 123.784 53.8858C123.864 53.8187 123.917 53.726 123.936 53.6237C124.09 52.7413 124.668 50.2839 125.498 49.4566C126.328 48.6294 128.75 48.0962 129.617 47.9614C129.723 47.9417 129.818 47.8866 129.888 47.8051C129.957 47.7237 129.996 47.6209 129.999 47.5141H123.499Z" fill="#FFD567"/>
<path d="M117.001 47.5141C116.998 47.6204 117.033 47.7243 117.101 47.8065C117.169 47.8887 117.264 47.9437 117.369 47.9614C118.255 48.0962 120.721 48.6416 121.551 49.4567C122.381 50.2717 122.916 52.7413 123.051 53.6115C123.067 53.716 123.12 53.8115 123.199 53.8811C123.279 53.9506 123.381 53.9897 123.488 53.9914V47.5141H117.001Z" fill="#FFA266"/>
<path d="M57.9988 27.5141C58.0069 27.4093 57.9783 27.3049 57.9177 27.2189C57.8571 27.1328 57.7684 27.0704 57.6668 27.0423C56.7875 26.8829 54.3526 26.313 53.5348 25.4857C52.717 24.6584 52.1328 22.2256 51.973 21.3677C51.9544 21.2654 51.9007 21.1727 51.821 21.1056C51.7413 21.0385 51.6407 21.0012 51.5364 21V27.4774L57.9988 27.5141Z" fill="#FFEA80"/>
<path d="M51.4994 21.0367C51.3936 21.0396 51.2922 21.0791 51.2125 21.1484C51.1329 21.2178 51.0799 21.3126 51.0628 21.4166C50.9214 22.2807 50.3803 24.7074 49.5625 25.5224C48.7447 26.3375 46.2298 26.9196 45.3813 27.079C45.2781 27.0963 45.1845 27.1496 45.1169 27.2292C45.0494 27.3089 45.0123 27.4098 45.0124 27.5141H51.5055L51.4994 21.0367ZM51.4994 27.5141V33.9914C51.6037 33.9902 51.7043 33.9529 51.784 33.8858C51.8636 33.8187 51.9174 33.726 51.9359 33.6237C52.0897 32.7413 52.6677 30.2839 53.4978 29.4566C54.3278 28.6294 56.7505 28.0962 57.6175 27.9614C57.7229 27.9417 57.8183 27.8866 57.8877 27.8051C57.9571 27.7237 57.9963 27.6209 57.9987 27.5141H51.4994Z" fill="#FFD567"/>
<path d="M45.0005 27.5141C44.9976 27.6204 45.0333 27.7243 45.1011 27.8065C45.1689 27.8887 45.2642 27.9437 45.3695 27.9614C46.2549 28.0962 48.7206 28.6416 49.5507 29.4567C50.3808 30.2717 50.9157 32.7413 51.051 33.6115C51.067 33.716 51.1196 33.8115 51.1995 33.8811C51.2794 33.9506 51.3815 33.9897 51.4876 33.9914V27.5141H45.0005Z" fill="#FFA266"/>
</g>
<path d="M38.9979 84.0194C39.0091 83.8743 38.9694 83.7298 38.8856 83.6106C38.8017 83.4914 38.6789 83.405 38.5382 83.3661C37.3207 83.1455 33.9493 82.3564 32.817 81.2109C31.6847 80.0655 30.8759 76.697 30.6545 75.5091C30.6288 75.3675 30.5544 75.2392 30.4441 75.1463C30.3338 75.0534 30.1945 75.0016 30.05 75V83.9685L38.9979 84.0194Z" fill="#FFEA80"/>
<path d="M29.999 75.0508C29.8526 75.0548 29.7122 75.1095 29.6019 75.2055C29.4915 75.3015 29.4182 75.4328 29.3945 75.5769C29.1987 76.7732 28.4495 80.1332 27.3172 81.2617C26.1849 82.3902 22.7028 83.1963 21.5279 83.4169C21.3851 83.441 21.2554 83.5147 21.1619 83.6249C21.0684 83.7352 21.0171 83.8749 21.0171 84.0193H30.0075L29.999 75.0508ZM29.999 84.0193V92.9879C30.1434 92.9862 30.2827 92.9345 30.3931 92.8416C30.5034 92.7487 30.5778 92.6204 30.6035 92.4788C30.8163 91.2569 31.6166 87.8545 32.7659 86.709C33.9153 85.5636 37.2697 84.8254 38.4701 84.6387C38.616 84.6115 38.7481 84.5351 38.8442 84.4223C38.9404 84.3095 38.9946 84.1673 38.9979 84.0193H29.999Z" fill="#FFD567"/>
<path d="M21.0002 84.0194C20.9961 84.1667 21.0456 84.3105 21.1394 84.4243C21.2333 84.5381 21.3653 84.6143 21.5111 84.6388C22.737 84.8254 26.151 85.5806 27.3003 86.7091C28.4497 87.8376 29.1904 91.257 29.3777 92.4618C29.3998 92.6066 29.4727 92.7388 29.5833 92.8351C29.694 92.9314 29.8353 92.9856 29.9822 92.9879V84.0194H21.0002Z" fill="#FFA266"/>
<defs>
<clipPath id="clip0_158_418">
<rect width="130.807" height="77" fill="white" transform="translate(4.19275 5)"/>
</clipPath>
</defs>
</svg>
