<svg width="260" height="160" viewBox="0 0 260 160" fill="none" xmlns="http://www.w3.org/2000/svg">
<rect width="260" height="160" rx="8" fill="#F5F7F9"/>
<path d="M143.72 63.0686L131.935 74.7724L121.422 64.4005L120.575 63.5731L119.223 65.0462L88.5509 97.3726C89.1359 98.0043 89.8442 98.5093 90.632 98.8563C91.4199 99.2034 92.2706 99.3852 93.1315 99.3905H170.739C171.6 99.384 172.45 99.2017 173.238 98.8547C174.026 98.5077 174.734 98.0033 175.32 97.3726L145.052 64.6628L143.72 63.0686Z" fill="#7542E5"/>
<path d="M120.836 64.9248L88.4089 34.818C87.2416 36.0218 86.5715 37.6215 86.5322 39.2977V92.8321C86.5476 93.6854 86.7342 94.527 87.0808 95.3068C87.4274 96.0867 87.927 96.7891 88.5501 97.3723L119.585 66.3979L120.836 64.9248ZM175.319 34.6566L143.033 64.5212L144.486 65.9338L175.319 97.3723C175.939 96.7908 176.436 96.0915 176.783 95.3154C177.129 94.5393 177.318 93.702 177.337 92.8523V39.5197C177.303 38.8227 177.139 38.1383 176.853 37.5018C176.591 36.4328 176.063 35.4473 175.319 34.6364V34.6566Z" fill="#9059FF"/>
<path d="M120.635 66.0549L121.463 66.8822L132.016 77.1936L143.821 65.5504L175.32 34.6365C174.761 34.0608 174.093 33.602 173.355 33.2868C172.617 32.9716 171.824 32.8062 171.022 32.8002H93.1113C92.2515 32.7934 91.4 32.9698 90.6137 33.3177C89.8273 33.6657 89.1241 34.1771 88.5509 34.8181L120.635 66.0549Z" fill="#C689FF"/>
<g clip-path="url(#clip0_158_417)">
<path d="M212.806 82.3656L212.447 82.5452L210.921 81.0189L211.37 80.7495L212.806 82.3656Z" fill="#FCEE21"/>
<path d="M221.694 121.242L220.707 120.074L222.861 119.626L223.849 120.882L221.694 121.242Z" fill="#ED1E79"/>
<path d="M242.433 52.6475L242.882 51.5701L253.206 50.0438L252.757 51.1212L242.433 52.6475Z" fill="#39B54A"/>
<path d="M186.142 90.9848L188.387 91.8826L186.322 96.1024L184.078 95.1148L186.142 90.9848Z" fill="#FBB03B"/>
<path d="M99.4175 117.381L100.136 117.022L101.393 125.821L100.674 126.269L99.4175 117.381Z" fill="#39B54A"/>
<path d="M195.21 104.362L196.018 93.5885L196.736 93.4089L195.838 104.183L195.21 104.362Z" fill="#FBB03B"/>
<path d="M136.944 44.1181L137.842 42.6816L138.471 46.9014L137.663 48.3379L136.944 44.1181Z" fill="#00FFFF"/>
<path d="M132.815 88.3811L128.505 86.9446L129.313 85.7774L133.623 87.2139L132.815 88.3811Z" fill="#ED1E79"/>
<path d="M229.325 50.3131L233.814 51.1212L233.365 55.7899L228.787 55.0716L229.325 50.3131Z" fill="#00FFFF"/>
<path d="M125.902 137.941L132.725 144.495L128.954 146.291L122.041 139.647L125.902 137.941Z" fill="#00FFFF"/>
<path d="M197.365 100.861L195.928 106.068L194.582 104.632L196.018 99.4244L197.365 100.861Z" fill="#FCEE21"/>
<path d="M123.478 53.5453L122.58 57.9447L119.438 56.7775L120.336 52.3781L123.478 53.5453Z" fill="#FBB03B"/>
<path d="M97.8015 73.0282L95.7366 69.5267L98.4299 68.0004L100.495 71.5917L97.8015 73.0282Z" fill="#ED1C24"/>
<path d="M142.421 44.3875L141.703 44.8364L140.625 43.1305L141.254 42.6816L142.421 44.3875Z" fill="#FBB03B"/>
<path d="M222.592 109.57L221.874 113.52L219.36 112.443L220.078 108.582L222.592 109.57Z" fill="#FBB03B"/>
<path d="M139.368 53.4555L137.124 55.1614L133.084 56.2388L135.328 54.5329L139.368 53.4555Z" fill="#00FFFF"/>
<path d="M92.6842 7.30712L91.4273 8.65386L89.9908 5.78081" fill="#00FFFF"/>
<path d="M199.699 118.279L200.776 116.932L202.123 116.573L200.956 117.92L199.699 118.279Z" fill="#00FFFF"/>
<path d="M212.358 50.5825L209.215 48.8766L210.382 48.0686L213.614 49.7744L212.358 50.5825Z" fill="#ED1C24"/>
<path d="M52.6434 64.1397L51.207 70.8734L48.6932 70.4245L50.1297 63.6908L52.6434 64.1397Z" fill="#00FFFF"/>
<path d="M166.481 122.948L164.147 123.576L160.107 115.226L162.351 114.598L166.481 122.948Z" fill="#FBB03B"/>
<path d="M177.254 58.3936L174.741 56.149L175.19 51.8394L177.703 54.084L177.254 58.3936Z" fill="#00FFFF"/>
<path d="M134.52 130.489L133.982 136.415L127.787 132.285L128.236 126.359L134.52 130.489Z" fill="#39B54A"/>
<path d="M187.938 40.9757L189.554 36.1274L197.724 38.8209L196.108 43.6692L187.938 40.9757Z" fill="#39B54A"/>
<path d="M169.893 132.554L167.648 127.257L173.394 127.975L175.639 133.183L169.893 132.554Z" fill="#FBB03B"/>
<path d="M252.578 144.585L252.129 143.777L255.9 139.916L256.348 140.635L252.578 144.585Z" fill="#ED1C24"/>
<path d="M152.835 23.7374L150.052 25.533L151.847 21.9417L154.631 20.1461L152.835 23.7374Z" fill="#00FFFF"/>
<path d="M24.4533 32.6259L22.568 31.9974L22.6578 31.1894L24.5431 31.8179L24.4533 32.6259Z" fill="#ED1C24"/>
<path d="M47.7954 120.074L44.5634 118.728L44.2941 112.892L47.5261 114.239L47.7954 120.074Z" fill="#ED1C24"/>
<path d="M184.975 56.149L185.873 57.4958L186.502 62.344L185.514 60.9973L184.975 56.149Z" fill="#FBB03B"/>
<path d="M60.2745 49.6846L58.2994 48.8766L58.03 42.502L60.0051 43.3101L60.2745 49.6846Z" fill="#FBB03B"/>
<path d="M234.802 42.502V41.9633L238.752 44.567V45.1057L234.802 42.502Z" fill="#ED1C24"/>
<path d="M96.2753 103.554L96.0957 104.632L95.1082 104.452L95.2877 103.375L96.2753 103.554Z" fill="#ED1C24"/>
<path d="M200.597 108.223L197.454 109.66L194.402 103.465L197.544 102.028L200.597 108.223Z" fill="#39B54A"/>
<path d="M166.93 18.2606L165.673 17.4526L166.302 15.4774L167.559 16.3752L166.93 18.2606Z" fill="#FBB03B"/>
<path d="M39.2666 76.7991L38.3688 77.5173L32.2639 77.248L33.1617 76.4399L39.2666 76.7991Z" fill="#39B54A"/>
<path d="M54.3492 102.028L50.7581 100.412L51.1172 98.7061L54.7083 100.232L54.3492 102.028Z" fill="#FBB03B"/>
<path d="M190.452 44.1181L191.26 44.8364L190.452 46.5422L189.644 45.7342L190.452 44.1181Z" fill="#39B54A"/>
<path d="M92.3251 88.2913L96.4548 86.0467L97.4424 87.1241L93.3126 89.3687L92.3251 88.2913Z" fill="#FBB03B"/>
<path d="M213.794 45.9138L214.063 46.8116H213.614L213.345 45.9138H213.794Z" fill="#39B54A"/>
<path d="M97.3526 23.0191L100.854 28.3163L99.0583 29.6631L95.557 24.3659L97.3526 23.0191Z" fill="#39B54A"/>
<path d="M249.346 22.1213L247.281 19.5176L248.538 15.0284L250.513 17.6321L249.346 22.1213Z" fill="#FCEE21"/>
<path d="M11.4355 31.3689L13.3209 33.7033L9.01155 31.0996L7.12622 28.855L11.4355 31.3689Z" fill="#ED1C24"/>
<path d="M198.801 37.8333L196.377 39.0903L194.761 33.7931L197.095 32.6259L198.801 37.8333Z" fill="#FBB03B"/>
<path d="M45.8203 78.2356L45.2816 77.5173L46.8078 75.991L47.3465 76.7093L45.8203 78.2356Z" fill="#ED1C24"/>
<path d="M92.5943 64.9477L92.8636 74.0158L86.8486 74.1954L86.5792 65.2171L92.5943 64.9477Z" fill="#ED1C24"/>
<path d="M40.8826 76.3502L44.2043 74.1056L45.1919 75.6319L41.8701 77.8765L40.8826 76.3502Z" fill="#ED1E79"/>
<path d="M117.193 22.66L116.745 22.4804L116.924 20.1461L117.463 20.4154L117.193 22.66Z" fill="#FCEE21"/>
<path d="M96.365 8.56407L98.6094 9.55168L97.2627 13.3226L95.0183 12.335L96.365 8.56407Z" fill="#FBB03B"/>
<path d="M118.181 107.595L117.014 109.121L116.385 108.852L117.463 107.325L118.181 107.595Z" fill="#FCEE21"/>
<path d="M118.001 57.3162L122.76 54.084L125.543 57.6753L120.695 60.9075L118.001 57.3162Z" fill="#39B54A"/>
<path d="M202.033 102.657L202.572 103.644L199.429 105.26L198.801 104.273L202.033 102.657Z" fill="#FBB03B"/>
<path d="M145.473 106.517L146.102 105.26L146.91 105.081L146.371 106.248L145.473 106.517Z" fill="#39B54A"/>
<path d="M168.187 27.1491L161.903 29.4835L163.698 26.8798L170.072 24.5454L168.187 27.1491Z" fill="#FBB03B"/>
<path d="M64.3145 56.9571L64.0451 63.9601L62.3394 63.8703L62.6087 56.9571H64.3145Z" fill="#FCEE21"/>
<path d="M179.768 74.9136L180.846 74.0158L186.591 76.8889L185.514 77.7867L179.768 74.9136Z" fill="#00FFFF"/>
<path d="M80.5642 61.9849L80.0255 60.5484L83.4371 59.2016L83.9757 60.6382L80.5642 61.9849Z" fill="#00FFFF"/>
<path d="M178.781 57.6753L178.691 66.3843L172.855 66.8332L173.035 58.214L178.781 57.6753Z" fill="#FBB03B"/>
<path d="M92.1455 136.505L91.9659 134.799L96.0059 135.607L96.1855 137.223L92.1455 136.505Z" fill="#39B54A"/>
<path d="M159.209 29.3039L165.404 24.9046L168.905 33.6135L162.711 38.0129L159.209 29.3039Z" fill="#ED1C24"/>
<path d="M39.3563 95.3841L38.0096 93.3191L43.5758 94.3067L44.9225 96.3717L39.3563 95.3841Z" fill="#39B54A"/>
<path d="M217.565 54.084L221.784 47.1707L222.413 49.5051L218.193 56.4184L217.565 54.084Z" fill="#ED1C24"/>
<path d="M254.104 94.3965L254.732 93.1396L256.079 93.6783L255.451 95.025L254.104 94.3965Z" fill="#FCEE21"/>
<path d="M187.31 102.926L187.579 107.415L181.743 108.313L181.564 103.824L187.31 102.926Z" fill="#FBB03B"/>
<path d="M156.067 35.9479L154.541 34.242L155.528 33.4339L157.055 35.2296L156.067 35.9479Z" fill="#39B54A"/>
<path d="M211.998 66.5638L211.909 67.731L208.497 67.9106L208.587 66.7434L211.998 66.5638Z" fill="#39B54A"/>
<path d="M132.904 86.5854L126.171 81.378L127.787 80.8393L134.52 86.1365L132.904 86.5854Z" fill="#00FFFF"/>
<path d="M131.648 69.0777L127.787 68.3595L127.967 67.3719L131.827 68.0901L131.648 69.0777Z" fill="#FBB03B"/>
<path d="M159.838 36.4866L157.593 30.6507L158.581 30.2018L160.825 36.0376L159.838 36.4866Z" fill="#ED1C24"/>
<path d="M162.621 25.8922L156.336 24.9944L160.286 23.7374L166.571 24.6352L162.621 25.8922Z" fill="#ED1C24"/>
<path d="M70.4193 111.186L71.5864 112.353L71.6762 119.536L70.5091 118.369L70.4193 111.186Z" fill="#ED1E79"/>
<path d="M33.8799 67.731L37.3812 63.9601L37.471 64.6784L33.9697 68.4493L33.8799 67.731Z" fill="#FBB03B"/>
<path d="M255.81 41.6042L252.219 42.1429L251.949 40.7961L255.63 40.2574L255.81 41.6042Z" fill="#FBB03B"/>
<path d="M215.589 108.941L216.846 109.3L216.577 110.557L215.32 110.198L215.589 108.941Z" fill="#FBB03B"/>
<path d="M135.688 66.6536L139.009 65.4864L139.099 67.5514L135.867 68.7186L135.688 66.6536Z" fill="#FBB03B"/>
<path d="M140.536 40.8859L141.792 39.0903H143.139L141.882 40.7961L140.536 40.8859Z" fill="#ED1C24"/>
<path d="M36.0345 7.3969L41.1519 10.4495L37.0221 17.3628L31.9048 14.3102L36.0345 7.3969Z" fill="#FBB03B"/>
<path d="M217.385 67.1923L218.193 67.0128L220.168 70.8734L219.36 71.053L217.385 67.1923Z" fill="#39B54A"/>
<path d="M125.902 60.7279L126.261 61.1769L122.041 62.6134L121.682 62.0747L125.902 60.7279Z" fill="#FBB03B"/>
<path d="M87.4771 44.8364L88.6442 39.2698L89.3624 38.2822L88.285 43.8488L87.4771 44.8364Z" fill="#FBB03B"/>
<path d="M220.438 138.839L220.797 138.3L221.964 137.762L221.515 138.3L220.438 138.839Z" fill="#00FFFF"/>
<path d="M100.495 17.7219L105.163 16.1058L106.6 19.2482L101.841 20.8643L100.495 17.7219Z" fill="#FBB03B"/>
<path d="M226.812 46.9912L226.722 44.9261L234.353 51.9292V53.9942L226.812 46.9912Z" fill="#00FFFF"/>
<path d="M55.1571 148.805L62.2495 140.455L65.8406 143.598L58.838 151.947L55.1571 148.805Z" fill="#ED1C24"/>
<path d="M138.65 47.9788L142.6 46.7218L142.69 50.1336L138.65 51.4803V47.9788Z" fill="#39B54A"/>
<path d="M58.838 50.762L55.5162 44.1181L63.1473 40.2574L66.4691 46.9014L58.838 50.762Z" fill="#39B54A"/>
<path d="M185.245 95.4739L180.935 100.592H180.576L184.886 95.4739H185.245Z" fill="#FBB03B"/>
<path d="M208.856 85.3285L209.305 80.57L215.23 79.6721L214.871 84.4306L208.856 85.3285Z" fill="#FCEE21"/>
<path d="M127.338 125.461L124.555 121.78L125.094 121.331L127.877 125.013L127.338 125.461Z" fill="#ED1C24"/>
<path d="M179.05 88.2015L180.576 86.4059L182.013 87.3935L180.397 89.1891L179.05 88.2015Z" fill="#39B54A"/>
<path d="M96.365 62.2543L99.0583 65.0375L96.9037 67.1025L94.2103 64.3193L96.365 62.2543Z" fill="#FBB03B"/>
<path d="M87.2077 63.8703L85.4121 58.3936L87.3872 57.6753L89.1828 63.1521L87.2077 63.8703Z" fill="#FCEE21"/>
<path d="M98.43 17.6322L102.919 20.5052L97.9811 24.0965L93.4922 21.1337L98.43 17.6322Z" fill="#FBB03B"/>
<path d="M22.2986 124.923L19.7848 120.613L21.5803 118.997L24.0941 123.217L22.2986 124.923Z" fill="#FBB03B"/>
<path d="M27.5057 12.9634L27.2363 11.2576L28.3137 10.5393L28.583 12.335L27.5057 12.9634Z" fill="#ED1C24"/>
<path d="M65.1224 110.557L64.7633 108.313L74.1899 106.248L74.6388 108.582L65.1224 110.557Z" fill="#39B54A"/>
<path d="M28.8524 17.273L27.7751 18.2606L27.3262 13.8613L28.4933 12.8737L28.8524 17.273Z" fill="#ED1C24"/>
<path d="M170.342 126.808V126.629H170.611V126.808H170.342Z" fill="#FCEE21"/>
<path d="M38.8176 82.2759L37.0221 83.5328L36.663 82.3656L38.4585 81.1087L38.8176 82.2759Z" fill="#FBB03B"/>
<path d="M227.62 53.276L226.093 59.3812L224.837 58.9323L226.363 52.8271L227.62 53.276Z" fill="#FCEE21"/>
<path d="M163.339 60.6382L154.631 59.3812L157.952 58.0345L166.661 59.2914L163.339 60.6382Z" fill="#FBB03B"/>
<path d="M211.19 132.554L208.946 133.901L207.779 122.768L210.023 121.421L211.19 132.554Z" fill="#FBB03B"/>
<path d="M230.582 65.3069V66.923L227.44 67.8208V66.2047L230.582 65.3069Z" fill="#ED1C24"/>
<path d="M201.225 138.48L202.392 138.031L202.572 138.659L201.494 139.019L201.225 138.48Z" fill="#39B54A"/>
<path d="M95.4672 74.8239L91.4272 81.9167L83.1677 79.5824L87.2975 72.4895L95.4672 74.8239Z" fill="#00FFFF"/>
<path d="M216.218 92.6009L216.846 83.2634L219.809 84.9693L219.27 94.3067L216.218 92.6009Z" fill="#ED1C24"/>
<path d="M49.6808 123.127L47.7057 123.666L46.5386 117.201L48.5137 116.663L49.6808 123.127Z" fill="#ED1C24"/>
<path d="M114.231 63.8703L118.899 59.8301L120.156 60.7279L115.488 64.7682L114.231 63.8703Z" fill="#FBB03B"/>
<path d="M196.736 107.864L195.479 108.492L192.337 107.774L193.594 107.056L196.736 107.864Z" fill="#ED1E79"/>
<path d="M134.61 32.2668L143.139 29.0346L144.306 31.9974L135.688 35.2296L134.61 32.2668Z" fill="#FCEE21"/>
<path d="M37.1118 112.712L33.8799 119.715L27.2363 116.663L30.4683 109.749L37.1118 112.712Z" fill="#FBB03B"/>
<path d="M121.413 70.6938L122.67 70.8734L122.041 72.7589L120.784 72.5793L121.413 70.6938Z" fill="#39B54A"/>
<path d="M82.7188 91.6133L81.6415 91.1643L82.8086 91.0746L83.8859 91.4337L82.7188 91.6133Z" fill="#ED1E79"/>
<path d="M19.1564 13.8613L17.3609 16.1956L12.1538 13.143L13.9494 10.8087L19.1564 13.8613Z" fill="#00FFFF"/>
<path d="M182.102 55.4308L176.626 54.6227L173.125 51.3905L178.601 52.1986L182.102 55.4308Z" fill="#ED1C24"/>
<path d="M78.4992 136.864L76.7935 137.133L77.1526 136.684L78.8583 136.415L78.4992 136.864Z" fill="#39B54A"/>
<path d="M11.0764 19.338L13.5902 15.6569L16.7324 18.53L14.1288 22.2111L11.0764 19.338Z" fill="#39B54A"/>
<path d="M59.6461 94.3965L56.4141 93.2294L59.5563 85.1489L62.6985 86.3161L59.6461 94.3965Z" fill="#FCEE21"/>
<path d="M89.8113 71.861L91.7864 73.2975L91.4273 75.991L89.4521 74.5545L89.8113 71.861Z" fill="#FCEE21"/>
<path d="M47.7955 138.57L51.8354 140.006L50.399 140.814L46.359 139.378L47.7955 138.57Z" fill="#00FFFF"/>
<path d="M105.163 126.629L103.368 126.269L103.278 125.551L105.073 125.91L105.163 126.629Z" fill="#39B54A"/>
<path d="M206.073 14.2204L205.893 19.6074L200.956 19.5176L201.135 14.1306L206.073 14.2204Z" fill="#FCEE21"/>
<path d="M222.143 104.452L222.772 108.762L220.976 107.864L220.348 103.644L222.143 104.452Z" fill="#00FFFF"/>
<path d="M76.7935 101.4L77.6913 103.554L77.5117 105.619L76.5242 103.465L76.7935 101.4Z" fill="#FCEE21"/>
<path d="M166.661 109.57L167.11 110.737L164.955 109.66L164.596 108.492L166.661 109.57Z" fill="#39B54A"/>
<path d="M38.9972 8.56407L40.7928 11.5269L40.5235 13.4123L38.7279 10.5393L38.9972 8.56407Z" fill="#ED1C24"/>
<path d="M109.203 88.6504L107.497 86.3161L108.844 86.0467L110.55 88.2913L109.203 88.6504Z" fill="#ED1C24"/>
<path d="M171.868 98.347L170.521 95.8331L171.509 95.2944L172.855 97.7185L171.868 98.347Z" fill="#ED1E79"/>
<path d="M114.769 83.9817L115.488 85.1489L113.423 85.9569L112.704 84.7898L114.769 83.9817Z" fill="#39B54A"/>
<path d="M44.3839 69.3471L44.6532 68.2697L45.3715 70.4245L45.1021 71.5019L44.3839 69.3471Z" fill="#00FFFF"/>
<path d="M88.5543 94.7557L97.8912 95.8331L97.0832 102.657L87.7463 101.579L88.5543 94.7557Z" fill="#ED1C24"/>
</g>
<path d="M94.8958 133H99.6318V111.016H95.8558L89.2638 115.432L91.1518 118.76L94.8958 116.424V133ZM113.393 133.384C119.185 133.384 123.281 128.68 123.281 121.992C123.281 115.336 119.185 110.632 113.393 110.632C107.601 110.632 103.537 115.336 103.537 121.992C103.537 128.68 107.601 133.384 113.393 133.384ZM113.393 129.096C110.449 129.096 108.369 126.12 108.369 121.992C108.369 117.864 110.449 114.92 113.393 114.92C116.369 114.92 118.417 117.864 118.417 121.992C118.417 126.12 116.369 129.096 113.393 129.096ZM127.059 133H131.763V119.304L138.579 131.72L145.363 119.304V133H150.099V111.016H145.363L138.579 123.432L131.763 111.016H127.059V133ZM154.809 133H166.361C170.553 133 173.561 130.568 173.561 127.048C173.561 124.616 172.089 122.568 169.529 121.416C171.481 120.392 172.601 118.76 172.601 116.52C172.601 113.32 169.881 111.016 165.945 111.016H154.809V133ZM159.513 119.88V115.048H164.761C166.521 115.048 167.769 116.072 167.769 117.448C167.769 118.856 166.521 119.88 164.761 119.88H159.513ZM159.513 128.968V123.592H165.497C167.385 123.592 168.729 124.712 168.729 126.28C168.729 127.848 167.385 128.968 165.497 128.968H159.513Z" fill="black"/>
<defs>
<clipPath id="clip0_158_417">
<rect width="249.222" height="146.705" fill="white" transform="translate(7.12622 5.24211)"/>
</clipPath>
</defs>
</svg>
