<svg width="301" height="154" viewBox="0 0 301 154" fill="none" xmlns="http://www.w3.org/2000/svg">
<rect x="0.684204" width="299.895" height="154" rx="8" fill="#F5F7F9"/>
<path d="M162.404 61.0686L150.62 72.7723L140.106 62.4004L139.259 61.5731L137.907 63.0462L107.235 95.3726C107.82 96.0043 108.528 96.5092 109.316 96.8563C110.104 97.2034 110.955 97.3852 111.816 97.3905H189.423C190.284 97.384 191.134 97.2017 191.922 96.8547C192.71 96.5077 193.418 96.0033 194.004 95.3726L163.736 62.6628L162.404 61.0686Z" fill="#7542E5"/>
<path d="M139.52 62.9248L107.093 32.818C105.926 34.0217 105.256 35.6215 105.216 37.2977V90.8321C105.232 91.6854 105.418 92.5269 105.765 93.3068C106.112 94.0867 106.611 94.7891 107.234 95.3723L138.269 64.3979L139.52 62.9248ZM194.003 32.6566L161.717 62.5212L163.17 63.9337L194.003 95.3723C194.623 94.7907 195.121 94.0915 195.467 93.3154C195.814 92.5393 196.002 91.702 196.021 90.8523V37.5197C195.987 36.8227 195.823 36.1383 195.537 35.5018C195.275 34.4328 194.747 33.4472 194.003 32.6364V32.6566Z" fill="#9059FF"/>
<path d="M139.319 64.0549L140.147 64.8822L150.7 75.1936L162.505 63.5504L194.004 32.6365C193.445 32.0608 192.777 31.602 192.039 31.2868C191.301 30.9715 190.508 30.8061 189.706 30.8002H111.796C110.936 30.7933 110.084 30.9698 109.298 31.3177C108.512 31.6656 107.808 32.1771 107.235 32.8181L139.319 64.0549Z" fill="#C689FF"/>
<g clip-path="url(#clip0_8_428)">
<path d="M231.491 80.3656L231.131 80.5452L229.605 79.0189L230.054 78.7495L231.491 80.3656Z" fill="#FCEE21"/>
<path d="M240.379 119.242L239.391 118.074L241.546 117.626L242.533 118.882L240.379 119.242Z" fill="#ED1E79"/>
<path d="M261.117 50.6475L261.566 49.5701L271.89 48.0438L271.441 49.1212L261.117 50.6475Z" fill="#39B54A"/>
<path d="M204.827 88.9848L207.071 89.8826L205.006 94.1024L202.762 93.1148L204.827 88.9848Z" fill="#FBB03B"/>
<path d="M118.102 115.381L118.82 115.022L120.077 123.821L119.359 124.269L118.102 115.381Z" fill="#39B54A"/>
<path d="M213.894 102.362L214.702 91.5885L215.42 91.4089L214.523 102.183L213.894 102.362Z" fill="#FBB03B"/>
<path d="M155.629 42.1181L156.526 40.6816L157.155 44.9014L156.347 46.3379L155.629 42.1181Z" fill="#00FFFF"/>
<path d="M151.499 86.3811L147.19 84.9446L147.998 83.7774L152.307 85.2139L151.499 86.3811Z" fill="#ED1E79"/>
<path d="M248.01 48.3131L252.499 49.1212L252.05 53.7899L247.471 53.0716L248.01 48.3131Z" fill="#00FFFF"/>
<path d="M144.586 135.941L151.409 142.495L147.638 144.291L140.726 137.647L144.586 135.941Z" fill="#00FFFF"/>
<path d="M216.049 98.8609L214.612 104.068L213.266 102.632L214.702 97.4244L216.049 98.8609Z" fill="#FCEE21"/>
<path d="M142.162 51.5453L141.264 55.9447L138.122 54.7775L139.02 50.3781L142.162 51.5453Z" fill="#FBB03B"/>
<path d="M116.486 71.0282L114.421 67.5267L117.114 66.0004L119.179 69.5917L116.486 71.0282Z" fill="#ED1C24"/>
<path d="M161.105 42.3875L160.387 42.8364L159.309 41.1305L159.938 40.6816L161.105 42.3875Z" fill="#FBB03B"/>
<path d="M241.276 107.57L240.558 111.52L238.044 110.443L238.763 106.582L241.276 107.57Z" fill="#FBB03B"/>
<path d="M158.053 51.4555L155.808 53.1614L151.768 54.2388L154.013 52.5329L158.053 51.4555Z" fill="#00FFFF"/>
<path d="M111.368 5.30712L110.111 6.65386L108.675 3.78081" fill="#00FFFF"/>
<path d="M218.383 116.279L219.46 114.932L220.807 114.573L219.64 115.92L218.383 116.279Z" fill="#00FFFF"/>
<path d="M231.042 48.5825L227.899 46.8766L229.067 46.0685L232.298 47.7744L231.042 48.5825Z" fill="#ED1C24"/>
<path d="M71.3276 62.1397L69.8912 68.8734L67.3774 68.4245L68.8139 61.6908L71.3276 62.1397Z" fill="#00FFFF"/>
<path d="M185.165 120.947L182.831 121.576L178.791 113.226L181.036 112.598L185.165 120.947Z" fill="#FBB03B"/>
<path d="M195.939 56.3936L193.425 54.149L193.874 49.8394L196.388 52.084L195.939 56.3936Z" fill="#00FFFF"/>
<path d="M153.205 128.489L152.666 134.415L146.471 130.285L146.92 124.359L153.205 128.489Z" fill="#39B54A"/>
<path d="M206.622 38.9757L208.238 34.1274L216.408 36.8209L214.792 41.6692L206.622 38.9757Z" fill="#39B54A"/>
<path d="M188.577 130.554L186.333 125.257L192.078 125.975L194.323 131.183L188.577 130.554Z" fill="#FBB03B"/>
<path d="M271.262 142.585L270.813 141.777L274.584 137.916L275.033 138.635L271.262 142.585Z" fill="#ED1C24"/>
<path d="M171.519 21.7374L168.736 23.533L170.532 19.9417L173.315 18.1461L171.519 21.7374Z" fill="#00FFFF"/>
<path d="M43.1375 30.6259L41.2522 29.9974L41.342 29.1894L43.2273 29.8178L43.1375 30.6259Z" fill="#ED1C24"/>
<path d="M66.4796 118.074L63.2476 116.728L62.9783 110.892L66.2103 112.239L66.4796 118.074Z" fill="#ED1C24"/>
<path d="M203.66 54.149L204.557 55.4958L205.186 60.344L204.198 58.9973L203.66 54.149Z" fill="#FBB03B"/>
<path d="M78.9587 47.6846L76.9836 46.8766L76.7142 40.502L78.6893 41.3101L78.9587 47.6846Z" fill="#FBB03B"/>
<path d="M253.486 40.502V39.9633L257.436 42.567V43.1057L253.486 40.502Z" fill="#ED1C24"/>
<path d="M114.959 101.554L114.78 102.632L113.792 102.452L113.972 101.375L114.959 101.554Z" fill="#ED1C24"/>
<path d="M219.281 106.223L216.139 107.66L213.086 101.465L216.228 100.028L219.281 106.223Z" fill="#39B54A"/>
<path d="M185.614 16.2606L184.357 15.4526L184.986 13.4774L186.243 14.3752L185.614 16.2606Z" fill="#FBB03B"/>
<path d="M57.9508 74.7991L57.053 75.5173L50.9481 75.248L51.8459 74.4399L57.9508 74.7991Z" fill="#39B54A"/>
<path d="M73.0334 100.028L69.4423 98.412L69.8014 96.7061L73.3925 98.2324L73.0334 100.028Z" fill="#FBB03B"/>
<path d="M209.136 42.1181L209.944 42.8364L209.136 44.5422L208.328 43.7342L209.136 42.1181Z" fill="#39B54A"/>
<path d="M111.009 86.2913L115.139 84.0467L116.127 85.1241L111.997 87.3687L111.009 86.2913Z" fill="#FBB03B"/>
<path d="M232.478 43.9138L232.747 44.8116H232.299L232.029 43.9138H232.478Z" fill="#39B54A"/>
<path d="M116.037 21.0191L119.538 26.3163L117.743 27.6631L114.241 22.3659L116.037 21.0191Z" fill="#39B54A"/>
<path d="M268.03 20.1213L265.965 17.5176L267.222 13.0284L269.197 15.6321L268.03 20.1213Z" fill="#FCEE21"/>
<path d="M30.1197 29.3689L32.0051 31.7033L27.6958 29.0996L25.8104 26.855L30.1197 29.3689Z" fill="#ED1C24"/>
<path d="M217.485 35.8333L215.061 37.0903L213.445 31.7931L215.78 30.6259L217.485 35.8333Z" fill="#FBB03B"/>
<path d="M64.5045 76.2356L63.9658 75.5173L65.492 73.991L66.0307 74.7093L64.5045 76.2356Z" fill="#ED1C24"/>
<path d="M111.279 62.9478L111.548 72.0158L105.533 72.1954L105.263 63.2171L111.279 62.9478Z" fill="#ED1C24"/>
<path d="M59.5668 74.3502L62.8885 72.1056L63.8761 73.6319L60.5543 75.8765L59.5668 74.3502Z" fill="#ED1E79"/>
<path d="M135.878 20.66L135.429 20.4804L135.608 18.1461L136.147 18.4154L135.878 20.66Z" fill="#FCEE21"/>
<path d="M115.049 6.56407L117.294 7.55168L115.947 11.3226L113.703 10.335L115.049 6.56407Z" fill="#FBB03B"/>
<path d="M136.865 105.595L135.698 107.121L135.07 106.852L136.147 105.325L136.865 105.595Z" fill="#FCEE21"/>
<path d="M136.686 55.3162L141.444 52.084L144.227 55.6753L139.379 58.9075L136.686 55.3162Z" fill="#39B54A"/>
<path d="M220.717 100.657L221.256 101.644L218.114 103.26L217.485 102.273L220.717 100.657Z" fill="#FBB03B"/>
<path d="M164.157 104.517L164.786 103.26L165.594 103.081L165.055 104.248L164.157 104.517Z" fill="#39B54A"/>
<path d="M186.871 25.1491L180.587 27.4835L182.382 24.8798L188.756 22.5454L186.871 25.1491Z" fill="#FBB03B"/>
<path d="M82.9987 54.9571L82.7293 61.9601L81.0236 61.8703L81.2929 54.9571H82.9987Z" fill="#FCEE21"/>
<path d="M198.452 72.9136L199.53 72.0158L205.275 74.8889L204.198 75.7867L198.452 72.9136Z" fill="#00FFFF"/>
<path d="M99.2484 59.9849L98.7097 58.5484L102.121 57.2016L102.66 58.6382L99.2484 59.9849Z" fill="#00FFFF"/>
<path d="M197.465 55.6753L197.375 64.3843L191.54 64.8332L191.719 56.214L197.465 55.6753Z" fill="#FBB03B"/>
<path d="M110.83 134.505L110.65 132.799L114.69 133.607L114.87 135.223L110.83 134.505Z" fill="#39B54A"/>
<path d="M177.893 27.3039L184.088 22.9046L187.589 31.6135L181.395 36.0129L177.893 27.3039Z" fill="#ED1C24"/>
<path d="M58.0405 93.3842L56.6938 91.3192L62.2601 92.3068L63.6067 94.3718L58.0405 93.3842Z" fill="#39B54A"/>
<path d="M236.249 52.084L240.468 45.1707L241.097 47.5051L236.877 54.4184L236.249 52.084Z" fill="#ED1C24"/>
<path d="M272.788 92.3965L273.417 91.1396L274.763 91.6783L274.135 93.025L272.788 92.3965Z" fill="#FCEE21"/>
<path d="M205.994 100.926L206.263 105.415L200.428 106.313L200.248 101.824L205.994 100.926Z" fill="#FBB03B"/>
<path d="M174.751 33.9479L173.225 32.242L174.213 31.434L175.739 33.2296L174.751 33.9479Z" fill="#39B54A"/>
<path d="M230.683 64.5638L230.593 65.731L227.181 65.9106L227.271 64.7434L230.683 64.5638Z" fill="#39B54A"/>
<path d="M151.589 84.5854L144.855 79.378L146.471 78.8393L153.205 84.1365L151.589 84.5854Z" fill="#00FFFF"/>
<path d="M150.332 67.0778L146.471 66.3595L146.651 65.3719L150.511 66.0901L150.332 67.0778Z" fill="#FBB03B"/>
<path d="M178.522 34.4866L176.277 28.6507L177.265 28.2018L179.509 34.0376L178.522 34.4866Z" fill="#ED1C24"/>
<path d="M181.305 23.8922L175.021 22.9944L178.971 21.7374L185.255 22.6352L181.305 23.8922Z" fill="#ED1C24"/>
<path d="M89.1035 109.186L90.2706 110.353L90.3604 117.536L89.1933 116.369L89.1035 109.186Z" fill="#ED1E79"/>
<path d="M52.5641 65.731L56.0654 61.9601L56.1552 62.6784L52.6539 66.4493L52.5641 65.731Z" fill="#FBB03B"/>
<path d="M274.494 39.6042L270.903 40.1429L270.634 38.7961L274.314 38.2574L274.494 39.6042Z" fill="#FBB03B"/>
<path d="M234.274 106.941L235.531 107.3L235.261 108.557L234.004 108.198L234.274 106.941Z" fill="#FBB03B"/>
<path d="M154.372 64.6536L157.693 63.4865L157.783 65.5515L154.551 66.7186L154.372 64.6536Z" fill="#FBB03B"/>
<path d="M159.22 38.8859L160.477 37.0903H161.823L160.566 38.7961L159.22 38.8859Z" fill="#ED1C24"/>
<path d="M54.7188 5.3969L59.8361 8.44952L55.7063 15.3628L50.589 12.3102L54.7188 5.3969Z" fill="#FBB03B"/>
<path d="M236.069 65.1923L236.877 65.0128L238.852 68.8734L238.044 69.053L236.069 65.1923Z" fill="#39B54A"/>
<path d="M144.586 58.7279L144.945 59.1769L140.726 60.6134L140.366 60.0747L144.586 58.7279Z" fill="#FBB03B"/>
<path d="M106.161 42.8364L107.328 37.2698L108.047 36.2822L106.969 41.8488L106.161 42.8364Z" fill="#FBB03B"/>
<path d="M239.122 136.839L239.481 136.3L240.648 135.762L240.199 136.3L239.122 136.839Z" fill="#00FFFF"/>
<path d="M119.179 15.7219L123.847 14.1058L125.284 17.2482L120.526 18.8643L119.179 15.7219Z" fill="#FBB03B"/>
<path d="M245.496 44.9912L245.406 42.9261L253.037 49.9292V51.9942L245.496 44.9912Z" fill="#00FFFF"/>
<path d="M73.8413 146.805L80.9337 138.455L84.5248 141.598L77.5222 149.947L73.8413 146.805Z" fill="#ED1C24"/>
<path d="M157.334 45.9788L161.285 44.7218L161.374 48.1336L157.334 49.4803V45.9788Z" fill="#39B54A"/>
<path d="M77.5222 48.762L74.2004 42.1181L81.8315 38.2574L85.1533 44.9014L77.5222 48.762Z" fill="#39B54A"/>
<path d="M203.929 93.4739L199.62 98.5916H199.26L203.57 93.4739H203.929Z" fill="#FBB03B"/>
<path d="M227.54 83.3284L227.989 78.57L233.914 77.6721L233.555 82.4306L227.54 83.3284Z" fill="#FCEE21"/>
<path d="M146.022 123.461L143.239 119.78L143.778 119.331L146.561 123.013L146.022 123.461Z" fill="#ED1C24"/>
<path d="M197.734 86.2015L199.26 84.4059L200.697 85.3935L199.081 87.1891L197.734 86.2015Z" fill="#39B54A"/>
<path d="M115.049 60.2543L117.743 63.0375L115.588 65.1026L112.895 62.3193L115.049 60.2543Z" fill="#FBB03B"/>
<path d="M105.892 61.8703L104.096 56.3936L106.071 55.6753L107.867 61.1521L105.892 61.8703Z" fill="#FCEE21"/>
<path d="M117.114 15.6322L121.603 18.5052L116.665 22.0965L112.176 19.1337L117.114 15.6322Z" fill="#FBB03B"/>
<path d="M40.9828 122.923L38.469 118.613L40.2645 116.997L42.7783 121.217L40.9828 122.923Z" fill="#FBB03B"/>
<path d="M46.1899 10.9634L45.9205 9.25757L46.9979 8.53931L47.2672 10.335L46.1899 10.9634Z" fill="#ED1C24"/>
<path d="M83.8066 108.557L83.4475 106.313L92.8741 104.248L93.323 106.582L83.8066 108.557Z" fill="#39B54A"/>
<path d="M47.5366 15.273L46.4593 16.2606L46.0104 11.8613L47.1775 10.8737L47.5366 15.273Z" fill="#ED1C24"/>
<path d="M189.026 124.808V124.629H189.295V124.808H189.026Z" fill="#FCEE21"/>
<path d="M57.5018 80.2759L55.7063 81.5328L55.3472 80.3656L57.1427 79.1087L57.5018 80.2759Z" fill="#FBB03B"/>
<path d="M246.304 51.276L244.778 57.3812L243.521 56.9323L245.047 50.8271L246.304 51.276Z" fill="#FCEE21"/>
<path d="M182.023 58.6382L173.315 57.3812L176.637 56.0345L185.345 57.2914L182.023 58.6382Z" fill="#FBB03B"/>
<path d="M229.875 130.554L227.63 131.901L226.463 120.768L228.707 119.421L229.875 130.554Z" fill="#FBB03B"/>
<path d="M249.266 63.3069V64.923L246.124 65.8208V64.2047L249.266 63.3069Z" fill="#ED1C24"/>
<path d="M219.909 136.48L221.076 136.031L221.256 136.659L220.179 137.019L219.909 136.48Z" fill="#39B54A"/>
<path d="M114.151 72.8239L110.111 79.9167L101.852 77.5824L105.982 70.4895L114.151 72.8239Z" fill="#00FFFF"/>
<path d="M234.902 90.6009L235.531 81.2634L238.493 82.9693L237.954 92.3067L234.902 90.6009Z" fill="#ED1C24"/>
<path d="M68.365 121.127L66.3899 121.666L65.2228 115.201L67.1979 114.663L68.365 121.127Z" fill="#ED1C24"/>
<path d="M132.915 61.8703L137.583 57.8301L138.84 58.7279L134.172 62.7682L132.915 61.8703Z" fill="#FBB03B"/>
<path d="M215.42 105.864L214.163 106.492L211.021 105.774L212.278 105.056L215.42 105.864Z" fill="#ED1E79"/>
<path d="M153.294 30.2668L161.823 27.0346L162.99 29.9974L154.372 33.2296L153.294 30.2668Z" fill="#FCEE21"/>
<path d="M55.7961 110.712L52.5641 117.715L45.9205 114.663L49.1525 107.749L55.7961 110.712Z" fill="#FBB03B"/>
<path d="M140.097 68.6938L141.354 68.8734L140.726 70.7589L139.469 70.5793L140.097 68.6938Z" fill="#39B54A"/>
<path d="M101.403 89.6133L100.326 89.1644L101.493 89.0746L102.57 89.4337L101.403 89.6133Z" fill="#ED1E79"/>
<path d="M37.8407 11.8613L36.0451 14.1956L30.838 11.143L32.6336 8.80865L37.8407 11.8613Z" fill="#00FFFF"/>
<path d="M200.787 53.4308L195.31 52.6227L191.809 49.3905L197.285 50.1986L200.787 53.4308Z" fill="#ED1C24"/>
<path d="M97.1836 134.864L95.4778 135.133L95.8369 134.684L97.5427 134.415L97.1836 134.864Z" fill="#39B54A"/>
<path d="M29.7606 17.338L32.2744 13.6569L35.4166 16.53L32.8131 20.2111L29.7606 17.338Z" fill="#39B54A"/>
<path d="M78.3303 92.3965L75.0983 91.2294L78.2405 83.1489L81.3827 84.3161L78.3303 92.3965Z" fill="#FCEE21"/>
<path d="M108.495 69.861L110.471 71.2975L110.111 73.991L108.136 72.5545L108.495 69.861Z" fill="#FCEE21"/>
<path d="M66.4797 136.57L70.5196 138.006L69.0832 138.814L65.0432 137.378L66.4797 136.57Z" fill="#00FFFF"/>
<path d="M123.847 124.629L122.052 124.269L121.962 123.551L123.758 123.91L123.847 124.629Z" fill="#39B54A"/>
<path d="M224.757 12.2204L224.578 17.6074L219.64 17.5176L219.819 12.1306L224.757 12.2204Z" fill="#FCEE21"/>
<path d="M240.827 102.452L241.456 106.762L239.66 105.864L239.032 101.644L240.827 102.452Z" fill="#00FFFF"/>
<path d="M95.4777 99.3996L96.3755 101.554L96.1959 103.619L95.2084 101.465L95.4777 99.3996Z" fill="#FCEE21"/>
<path d="M185.345 107.57L185.794 108.737L183.639 107.66L183.28 106.492L185.345 107.57Z" fill="#39B54A"/>
<path d="M57.6814 6.56407L59.477 9.52691L59.2077 11.4123L57.4121 8.53929L57.6814 6.56407Z" fill="#ED1C24"/>
<path d="M127.887 86.6504L126.182 84.3161L127.528 84.0467L129.234 86.2913L127.887 86.6504Z" fill="#ED1C24"/>
<path d="M190.552 96.347L189.205 93.8331L190.193 93.2944L191.54 95.7185L190.552 96.347Z" fill="#ED1E79"/>
<path d="M133.454 81.9817L134.172 83.1489L132.107 83.9569L131.389 82.7898L133.454 81.9817Z" fill="#39B54A"/>
<path d="M63.0681 67.3471L63.3374 66.2697L64.0557 68.4245L63.7863 69.5019L63.0681 67.3471Z" fill="#00FFFF"/>
<path d="M107.239 92.7557L116.575 93.8331L115.767 100.657L106.431 99.5792L107.239 92.7557Z" fill="#ED1C24"/>
</g>
<path d="M107.174 131H123.782V126.744H114.47L118.47 123.64C122.31 120.856 123.59 118.584 123.59 115.64C123.59 111.512 120.198 108.632 115.526 108.632C111.974 108.632 109.19 110.168 107.014 112.92L110.022 115.832C111.622 114.008 113.254 112.92 115.398 112.92C117.19 112.92 118.726 114.008 118.726 115.832C118.726 117.368 117.894 118.808 115.27 120.888L107.174 127.16V131ZM134.992 131.416C140.24 131.416 143.728 128.44 143.728 123.768C143.728 119.288 140.368 116.792 136.464 116.792C134.672 116.792 133.264 117.368 132.176 118.136L132.304 113.272H142.512V109.016H127.952L127.632 120.888L130.8 122.168C131.984 121.272 133.392 120.728 135.056 120.728C137.456 120.728 139.024 122.008 139.024 123.928C139.024 125.816 137.488 127.288 135.024 127.288C132.912 127.288 130.896 126.264 129.264 124.696L126.48 128.024C128.528 130.072 131.312 131.416 134.992 131.416ZM147.477 131H152.181V117.304L158.997 129.72L165.781 117.304V131H170.517V109.016H165.781L158.997 121.432L152.181 109.016H147.477V131ZM175.227 131H186.779C190.971 131 193.979 128.568 193.979 125.048C193.979 122.616 192.507 120.568 189.947 119.416C191.899 118.392 193.019 116.76 193.019 114.52C193.019 111.32 190.299 109.016 186.363 109.016H175.227V131ZM179.931 117.88V113.048H185.179C186.939 113.048 188.187 114.072 188.187 115.448C188.187 116.856 186.939 117.88 185.179 117.88H179.931ZM179.931 126.968V121.592H185.915C187.803 121.592 189.147 122.712 189.147 124.28C189.147 125.848 187.803 126.968 185.915 126.968H179.931Z" fill="black"/>
<defs>
<clipPath id="clip0_8_428">
<rect width="249.222" height="146.705" fill="white" transform="translate(25.8104 3.24211)"/>
</clipPath>
</defs>
</svg>
