<svg width="24" height="24" viewBox="0 0 24 24" fill="none" xmlns="http://www.w3.org/2000/svg">
<path d="M14 17H10C9.73478 17 9.48043 16.8946 9.29289 16.7071C9.10536 16.5196 9 16.2652 9 16C8.78941 15.2971 8.41202 14.6556 7.9 14.13C6.82591 13.0023 6.15748 11.5494 6 10C6 9.21207 6.15519 8.43185 6.45672 7.7039C6.75825 6.97595 7.20021 6.31451 7.75736 5.75736C8.31451 5.20021 8.97595 4.75825 9.7039 4.45672C10.4319 4.15519 11.2121 4 12 4C12.7879 4 13.5681 4.15519 14.2961 4.45672C15.0241 4.75825 15.6855 5.20021 16.2426 5.75736C16.7998 6.31451 17.2417 6.97595 17.5433 7.7039C17.8448 8.43185 18 9.21207 18 10C17.8425 11.5494 17.1741 13.0023 16.1 14.13C15.588 14.6556 15.2106 15.2971 15 16C15 16.2652 14.8946 16.5196 14.7071 16.7071C14.5196 16.8946 14.2652 17 14 17ZM10.812 15H13.188C13.5259 14.2411 13.9733 13.5359 14.516 12.907C15.2979 12.1137 15.8161 11.0986 16 10C15.986 8.94348 15.5601 7.93417 14.813 7.18703C14.0658 6.4399 13.0565 6.01398 12 6C10.9435 6.01398 9.93417 6.4399 9.18703 7.18703C8.4399 7.93417 8.01398 8.94348 8 10C8.18391 11.0986 8.70213 12.1137 9.484 12.907C10.027 13.536 10.474 14.241 10.812 15ZM14 20H10C9.73478 20 9.48043 19.8946 9.29289 19.7071C9.10536 19.5196 9 19.2652 9 19C9 18.7348 9.10536 18.4804 9.29289 18.2929C9.48043 18.1054 9.73478 18 10 18H14C14.2652 18 14.5196 18.1054 14.7071 18.2929C14.8946 18.4804 15 18.7348 15 19C15 19.2652 14.8946 19.5196 14.7071 19.7071C14.5196 19.8946 14.2652 20 14 20Z" fill="#3D3D3D"/>
</svg>
