<svg width="25" height="25" viewBox="0 0 25 25" fill="none" xmlns="http://www.w3.org/2000/svg">
<path d="M18.1608 3.13464L19.2816 8.83842L23.6608 12.6609L19.2816 16.4834L18.1608 22.1872L12.6608 20.3059L7.1608 22.1872L6.04004 16.4834L1.6608 12.6609L6.04004 8.83842L7.1608 3.13464L12.6608 5.01592L18.1608 3.13464Z" fill="#9059FF"/>
<path d="M15.7806 7.25723L16.3834 10.3248L16.4164 10.4927L16.5452 10.6051L18.9005 12.6609L16.5452 14.7167L16.4164 14.8292L16.3834 14.997L15.7806 18.0646L12.8226 17.0528L12.6608 16.9975L12.499 17.0528L9.54098 18.0646L8.93822 14.997L8.90524 14.8292L8.7764 14.7167L6.42116 12.6609L8.77639 10.6051L8.90524 10.4927L8.93822 10.3248L9.54098 7.25723L12.499 8.26902L12.6608 8.32437L12.8226 8.26902L15.7806 7.25723Z" fill="#FFD567" stroke="#321C64"/>
</svg>
