<svg width="240" height="290" viewBox="0 0 240 290" fill="none" xmlns="http://www.w3.org/2000/svg">
<g opacity="0.1">
<path d="M214.461 125.135C213.53 125.372 212.545 125.229 211.722 124.737C210.898 124.245 210.303 123.445 210.067 122.511C205.077 101.858 193.227 83.554 176.472 70.6176C159.717 57.6811 139.058 50.8846 117.901 51.3487C117.417 51.3725 116.934 51.2988 116.48 51.132C116.026 50.9651 115.61 50.7085 115.257 50.3772C114.903 50.0459 114.62 49.6466 114.423 49.2029C114.226 48.7593 114.119 48.2801 114.11 47.7938C114.1 47.3075 114.187 46.8238 114.366 46.3713C114.545 45.9188 114.813 45.5066 115.152 45.159C115.492 44.8114 115.897 44.5355 116.344 44.3474C116.791 44.1594 117.271 44.0631 117.755 44.0642C140.559 43.5546 162.83 50.8708 180.896 64.8064C198.961 78.7421 211.743 98.4652 217.133 120.724C217.245 121.189 217.265 121.672 217.192 122.145C217.118 122.619 216.953 123.073 216.705 123.483C216.457 123.893 216.131 124.249 215.746 124.533C215.361 124.816 214.924 125.021 214.461 125.135Z" fill="#CECECF"/>
<path d="M104.272 45.3018C105.212 45.171 106.164 45.4154 106.925 45.9826C107.685 46.5498 108.193 47.3948 108.34 48.3361C108.487 49.2775 108.261 50.2405 107.71 51.0184C107.159 51.7964 106.328 52.3274 105.394 52.4977C86.6352 55.4994 69.2188 64.1893 55.4785 77.4029C54.7748 78.0243 53.8603 78.3491 52.9261 78.3096C51.9919 78.2701 51.1101 77.8692 50.4651 77.1907C49.82 76.5122 49.4616 75.6086 49.4645 74.6686C49.4675 73.7286 49.8317 72.825 50.4811 72.1464C65.2889 57.9069 84.057 48.5406 104.272 45.3018Z" fill="#CECECF"/>
<path d="M209.528 88.0998C208.702 87.859 207.988 87.3299 207.516 86.6074C194.846 67.0653 176.015 52.373 154.029 44.8746C153.118 44.562 152.37 43.8985 151.949 43.0299C151.527 42.1614 151.467 41.159 151.781 40.2432C152.095 39.3275 152.757 38.5734 153.623 38.1468C154.488 37.7203 155.486 37.6563 156.396 37.9689C179.904 45.9862 200.038 61.6962 213.583 82.5918C213.99 83.2142 214.197 83.9478 214.175 84.6935C214.154 85.4392 213.905 86.161 213.463 86.7616C213.021 87.3621 212.406 87.8125 211.703 88.0518C210.999 88.2911 210.24 88.3079 209.528 88.0998Z" fill="#CECECF"/>
<path d="M146.067 38.6614C145.966 39.1296 145.775 39.5736 145.504 39.968C145.233 40.3625 144.887 40.6996 144.487 40.9602C144.087 41.2208 143.639 41.3997 143.171 41.4868C142.702 41.5738 142.222 41.5673 141.756 41.4676C119.983 36.7936 97.2691 39.2626 76.949 48.512C76.5141 48.7085 76.0452 48.8171 75.5691 48.8315C75.093 48.846 74.619 48.766 74.1743 48.5963C73.7295 48.4265 73.3226 48.1703 72.9769 47.8422C72.6312 47.514 72.3534 47.1205 72.1593 46.6839C71.9653 46.2474 71.8588 45.7764 71.8459 45.298C71.8331 44.8195 71.9142 44.3428 72.0845 43.8952C72.2548 43.4476 72.5111 43.0378 72.8387 42.6892C73.1663 42.3407 73.5587 42.0601 73.9937 41.8637C95.7183 31.9782 120 29.3394 143.278 34.3341C143.744 34.4323 144.187 34.6224 144.58 34.8932C144.973 35.1641 145.309 35.5105 145.568 35.9125C145.827 36.3146 146.005 36.7644 146.091 37.2361C146.176 37.7078 146.168 38.1922 146.067 38.6614Z" fill="#CECECF"/>
<path d="M200.883 59.6544C187.303 46.5674 170.77 36.9786 152.689 31.7027C134.608 26.4268 115.514 25.6197 97.0266 29.3499C96.083 29.5413 95.1036 29.3483 94.3039 28.8134C93.5041 28.2785 92.9496 27.4455 92.7623 26.4977C92.5749 25.5498 92.7701 24.5647 93.3049 23.7592C93.8397 22.9536 94.6702 22.3935 95.6139 22.2021C115.249 18.2414 135.529 19.0992 154.732 24.7026C173.935 30.306 191.494 40.4894 205.918 54.388C206.61 55.0569 207.009 55.9757 207.027 56.9425C207.045 57.9093 206.679 58.8447 206.012 59.5431C205.344 60.2414 204.428 60.6455 203.467 60.6664C202.505 60.6872 201.575 60.3232 200.883 59.6544Z" fill="#CECECF"/>
<path d="M118.926 262.891C142.8 255.388 164.179 241.431 180.72 222.549C181.357 221.822 182.254 221.379 183.214 221.316C184.174 221.253 185.118 221.576 185.839 222.213C186.56 222.851 186.999 223.751 187.058 224.716C187.118 225.681 186.794 226.631 186.157 227.358C168.73 247.242 146.212 261.941 121.068 269.846C120.155 270.116 119.175 270.014 118.338 269.564C117.501 269.113 116.874 268.35 116.593 267.438C116.312 266.526 116.4 265.538 116.836 264.688C117.272 263.837 118.023 263.192 118.926 262.891Z" fill="#CECECF"/>
<path d="M32.7384 207.224C33.6349 207.796 34.5713 208.361 35.5087 208.9C46.316 215.132 58.3328 218.962 70.7515 220.133C71.7091 220.223 72.5907 220.691 73.2025 221.436C73.8143 222.18 74.1061 223.139 74.0138 224.102C73.9214 225.064 73.4524 225.952 72.71 226.569C71.9676 227.187 71.0126 227.483 70.055 227.394C56.6021 226.123 43.5848 221.972 31.8772 215.222C30.8596 214.634 29.8556 213.999 28.8704 213.407C28.0563 212.894 27.4793 212.077 27.2664 211.134C27.0535 210.192 27.222 209.202 27.7349 208.382C28.2479 207.562 29.0632 206.98 30.0015 206.762C30.9398 206.545 31.9243 206.712 32.7384 207.224Z" fill="#CECECF"/>
<path d="M82.6555 227.518C81.8335 227.279 81.123 226.756 80.6497 226.04C80.1765 225.325 79.9711 224.463 80.07 223.607C80.1688 222.752 80.5655 221.959 81.1897 221.368C81.8139 220.776 82.6255 220.426 83.4806 220.378C99.1838 219.496 114.373 214.374 127.448 205.549C128.251 205.011 129.232 204.815 130.177 205.004C131.121 205.193 131.951 205.751 132.483 206.557C133.016 207.362 133.208 208.348 133.017 209.297C132.826 210.247 132.268 211.083 131.465 211.621C117.312 221.181 100.867 226.731 83.8645 227.687C83.4546 227.7 83.0458 227.643 82.6555 227.518Z" fill="#CECECF"/>
<path d="M138.722 203.99C138.078 203.801 137.499 203.437 137.047 202.938C136.726 202.585 136.477 202.171 136.316 201.72C136.154 201.269 136.083 200.791 136.106 200.312C136.129 199.832 136.245 199.362 136.449 198.928C136.653 198.494 136.94 198.104 137.294 197.781C148.721 187.417 157.215 174.196 161.906 159.472C162.199 158.55 162.844 157.782 163.699 157.337C164.554 156.891 165.549 156.805 166.466 157.096C167.382 157.388 168.144 158.034 168.584 158.892C169.025 159.75 169.108 160.75 168.814 161.672C163.729 177.629 154.524 191.956 142.14 203.189C141.683 203.602 141.13 203.892 140.532 204.032C139.935 204.172 139.312 204.158 138.722 203.99Z" fill="#CECECF"/>
<path d="M78.3961 135.365C79.0112 135.544 79.6729 135.47 80.2356 135.16C80.7982 134.849 81.2158 134.327 81.3963 133.708C83.623 126.006 88.101 119.147 94.2483 114.024C100.396 108.901 107.928 105.749 115.866 104.98C116.341 104.932 116.819 104.978 117.275 105.116C117.731 105.254 118.155 105.482 118.522 105.785C118.89 106.088 119.195 106.461 119.419 106.883C119.643 107.305 119.782 107.767 119.828 108.244C119.874 108.72 119.826 109.201 119.687 109.66C119.548 110.118 119.321 110.545 119.018 110.916C118.716 111.287 118.343 111.594 117.923 111.821C117.502 112.047 117.042 112.188 116.568 112.236C110.071 112.864 103.906 115.44 98.8744 119.632C93.8428 123.823 90.1772 129.435 88.3545 135.738C87.6321 138.214 85.9619 140.303 83.7113 141.545C81.4607 142.788 78.8139 143.083 76.3534 142.365C73.8928 141.647 71.82 139.975 70.5909 137.717C69.3618 135.459 69.0771 132.799 69.7995 130.324C73.3999 118.031 81.3625 107.48 92.1751 100.675C102.988 93.8706 115.897 91.2864 128.452 93.4133C141.006 95.5402 152.331 102.23 160.276 112.212C168.221 122.195 172.232 134.774 171.547 147.561C171.474 148.511 171.034 149.396 170.321 150.026C169.608 150.656 168.679 150.981 167.732 150.932C166.786 150.882 165.898 150.463 165.258 149.762C164.618 149.061 164.277 148.136 164.308 147.184C164.897 136.181 161.445 125.357 154.608 116.768C147.772 108.179 138.027 102.423 127.224 100.593C116.422 98.7636 105.314 100.987 96.0104 106.843C86.7068 112.698 79.8555 121.776 76.7576 132.354C76.577 132.973 76.6482 133.638 76.9555 134.203C77.2627 134.767 77.7809 135.185 78.3961 135.365Z" fill="#CECECF"/>
<path d="M102.539 204.45C114.054 200.59 124.475 193.985 132.911 185.201C141.347 176.417 147.545 165.715 150.976 154.013C153.403 145.658 152.438 136.688 148.291 129.069C144.144 121.45 137.155 115.806 128.856 113.375L128.23 113.192C127.302 112.941 126.512 112.33 126.034 111.492C125.556 110.655 125.43 109.66 125.682 108.726C125.935 107.792 126.545 106.997 127.38 106.514C128.215 106.031 129.205 105.9 130.133 106.151L130.899 106.374C141.042 109.346 149.585 116.244 154.654 125.556C159.722 134.868 160.902 145.832 157.934 156.043C154.174 168.88 147.377 180.619 138.126 190.256C128.875 199.892 117.445 207.139 104.816 211.375C103.903 211.682 102.907 211.612 102.047 211.181C101.188 210.75 100.535 209.992 100.233 209.075C99.9304 208.159 100.003 207.158 100.435 206.292C100.867 205.427 101.622 204.768 102.535 204.461L102.539 204.45Z" fill="#CECECF"/>
<path d="M28.2966 188.579C36.5652 196.217 46.4455 201.879 57.2039 205.144C67.9622 208.409 79.3222 209.194 90.4399 207.44C91.3812 207.309 92.335 207.554 93.0962 208.122C93.8574 208.691 94.3652 209.538 94.5104 210.481C94.6557 211.424 94.4267 212.388 93.8728 213.165C93.319 213.943 92.4844 214.472 91.5485 214.638C79.6444 216.546 67.4759 215.771 55.9232 212.371C43.7884 208.847 32.6414 202.539 23.3588 193.943C22.6527 193.289 22.2351 192.379 22.1978 191.413C22.1605 190.447 22.5065 189.504 23.1598 188.792C23.813 188.081 24.72 187.658 25.6812 187.617C26.6424 187.577 27.579 187.921 28.2851 188.576L28.2966 188.579Z" fill="#CECECF"/>
<path d="M42.2628 225.645C46.9864 227.52 51.8454 229.034 56.7983 230.171C68.0755 232.768 79.7269 233.339 91.215 231.858C91.6951 231.78 92.1856 231.8 92.6572 231.916C93.1289 232.033 93.5721 232.244 93.9606 232.536C94.3491 232.828 94.6748 233.196 94.9185 233.618C95.1623 234.04 95.3189 234.507 95.3792 234.992C95.4395 235.476 95.4022 235.969 95.2696 236.439C95.1369 236.909 94.9116 237.349 94.607 237.73C94.3024 238.112 93.9248 238.429 93.4965 238.661C93.0683 238.894 92.5982 239.037 92.1142 239.084C79.7811 240.678 67.2719 240.067 55.1649 237.279C53.1478 236.817 51.1129 236.286 49.1183 235.704C45.8943 234.764 42.6816 233.655 39.5751 232.42C39.1177 232.255 38.6983 231.999 38.3416 231.668C37.985 231.337 37.6986 230.937 37.4993 230.492C37.3001 230.047 37.1921 229.565 37.1818 229.077C37.1716 228.588 37.2592 228.102 37.4396 227.647C37.6199 227.193 37.8892 226.779 38.2316 226.431C38.5739 226.082 38.9822 225.807 39.4323 225.62C39.8823 225.433 40.3648 225.339 40.851 225.343C41.3373 225.348 41.8174 225.45 42.2628 225.645Z" fill="#CECECF"/>
<path d="M105.322 236.514C104.402 236.725 103.438 236.567 102.633 236.075C101.829 235.583 101.248 234.794 101.014 233.877C100.78 232.96 100.911 231.985 101.38 231.161C101.848 230.337 102.617 229.727 103.523 229.462C122.333 224.573 139.325 214.261 152.404 199.799C152.725 199.444 153.112 199.156 153.543 198.951C153.974 198.746 154.441 198.628 154.917 198.604C155.393 198.581 155.868 198.651 156.316 198.813C156.764 198.974 157.176 199.222 157.528 199.543C157.88 199.865 158.165 200.253 158.368 200.685C158.57 201.118 158.686 201.587 158.708 202.065C158.73 202.543 158.658 203.021 158.496 203.472C158.334 203.923 158.086 204.338 157.765 204.693C143.734 220.209 125.503 231.271 105.322 236.514Z" fill="#CECECF"/>
<path d="M162.228 195.483C161.849 195.374 161.491 195.201 161.169 194.972C160.382 194.42 159.845 193.576 159.678 192.625C159.511 191.674 159.726 190.694 160.277 189.9C166.457 181.017 171.15 171.181 174.172 160.783C178.01 147.596 176.992 133.476 171.304 121.014C171.089 120.578 170.963 120.102 170.934 119.615C170.905 119.127 170.974 118.639 171.136 118.179C171.299 117.718 171.551 117.295 171.879 116.934C172.207 116.573 172.603 116.281 173.045 116.077C173.487 115.872 173.964 115.759 174.45 115.743C174.935 115.728 175.418 115.81 175.871 115.986C176.323 116.162 176.735 116.428 177.083 116.767C177.431 117.106 177.707 117.513 177.896 117.962C184.311 132.016 185.459 147.941 181.13 162.813C177.888 173.974 172.85 184.53 166.216 194.064C165.781 194.689 165.163 195.163 164.447 195.417C163.732 195.672 162.956 195.695 162.228 195.483Z" fill="#CECECF"/>
<path d="M170.138 111.154C169.757 111.442 169.323 111.652 168.862 111.772C168.4 111.892 167.92 111.92 167.449 111.853C166.977 111.787 166.524 111.628 166.114 111.385C165.704 111.142 165.347 110.82 165.061 110.438C157.742 100.597 147.422 93.4342 135.665 90.0354C127.007 87.532 117.875 87.1302 109.018 88.8629C100.161 90.5956 91.8328 94.4134 84.7164 100.003C84.3427 100.316 83.9107 100.55 83.4458 100.692C82.981 100.834 82.4928 100.881 82.0102 100.83C81.5277 100.779 81.0605 100.631 80.6365 100.395C80.2125 100.159 79.8402 99.8392 79.5418 99.4554C79.2434 99.0716 79.0249 98.6312 78.8993 98.1603C78.7736 97.6894 78.7434 97.1977 78.8104 96.7143C78.8774 96.2308 79.0402 95.7655 79.2893 95.3459C79.5383 94.9263 79.8685 94.5609 80.2602 94.2715C88.2839 87.9677 97.6747 83.6623 107.661 81.709C117.648 79.7557 127.946 80.2101 137.708 83.035C150.969 86.8686 162.61 94.9482 170.866 106.048C171.152 106.431 171.359 106.866 171.477 107.329C171.595 107.793 171.621 108.275 171.554 108.749C171.486 109.223 171.326 109.68 171.083 110.092C170.84 110.505 170.519 110.865 170.138 111.154Z" fill="#CECECF"/>
<path d="M61.2253 137.952C60.7497 137.987 60.2724 137.926 59.8207 137.775C59.369 137.623 58.9518 137.384 58.5928 137.07C58.2339 136.755 57.9403 136.373 57.7289 135.944C57.5174 135.516 57.3923 135.049 57.3607 134.571C57.1899 132.008 57.4726 129.432 58.1958 126.965C60.6324 118.56 64.7596 110.743 70.3213 103.998C70.951 103.306 71.8203 102.884 72.7493 102.818C73.6782 102.753 74.5956 103.048 75.3113 103.645C76.027 104.241 76.4862 105.092 76.5938 106.021C76.7015 106.95 76.4492 107.886 75.8894 108.636C70.9676 114.609 67.3159 121.531 65.1607 128.972C64.6803 130.614 64.4934 132.328 64.6088 134.034C64.6444 134.514 64.5849 134.997 64.4337 135.455C64.2825 135.912 64.0427 136.335 63.728 136.7C63.4134 137.064 63.0302 137.363 62.6006 137.578C62.171 137.793 61.7036 137.92 61.2253 137.952Z" fill="#CECECF"/>
<path d="M28.2563 170.306C29.0453 171.397 29.8702 172.473 30.7219 173.5C38.6861 183.176 49.3666 190.214 61.3785 193.701C73.7365 197.272 86.8972 196.957 99.0975 192.8C111.298 188.642 121.955 180.841 129.64 170.44C134.022 164.46 137.321 157.753 139.386 150.627C140.921 145.367 140.316 139.715 137.704 134.917C135.092 130.118 130.687 126.565 125.458 125.04C120.23 123.514 114.606 124.141 109.823 126.781C105.04 129.422 101.491 133.861 99.9562 139.122C98.8896 142.773 96.8953 146.084 94.1701 148.73C91.4449 151.375 88.083 153.263 84.416 154.206C80.7489 155.15 76.9036 155.118 73.2592 154.112C69.6149 153.106 66.2976 151.161 63.6345 148.47C62.9583 147.785 62.5814 146.858 62.5867 145.891C62.5921 144.924 62.9792 143.998 63.6629 143.316C64.3467 142.634 65.2711 142.253 66.2327 142.255C67.1944 142.257 68.1145 142.643 68.7908 143.328C70.5662 145.12 72.777 146.414 75.2054 147.084C77.6337 147.753 80.1957 147.774 82.6389 147.145C85.0822 146.517 87.3222 145.259 89.1384 143.497C90.9547 141.735 92.2843 139.529 92.9963 137.097C95.073 129.98 99.8749 123.975 106.345 120.402C112.816 116.829 120.425 115.981 127.499 118.045C134.574 120.109 140.533 124.916 144.067 131.408C147.6 137.9 148.419 145.546 146.342 152.663C145.342 156.107 144.087 159.471 142.587 162.728C137.574 173.493 129.939 182.819 120.393 189.84C110.848 196.861 99.6993 201.35 87.9837 202.89C76.2681 204.43 64.365 202.971 53.3793 198.649C42.3937 194.326 32.6817 187.28 25.1449 178.166C24.2184 177.028 23.28 175.824 22.4063 174.613C21.8415 173.832 21.6093 172.856 21.7606 171.901C21.912 170.945 22.4345 170.088 23.2134 169.518C23.9922 168.948 24.9635 168.711 25.9136 168.86C26.8637 169.009 27.7147 169.532 28.2795 170.313L28.2563 170.306Z" fill="#CECECF"/>
<path d="M40.4998 158.177C34.5989 149.006 32.1331 138.017 33.5414 127.166C33.6677 126.208 34.1675 125.337 34.931 124.747C35.6945 124.156 36.659 123.894 37.6125 124.018C38.566 124.142 39.4303 124.641 40.0152 125.407C40.6002 126.172 40.8579 127.141 40.7316 128.1C39.4667 137.808 41.8902 147.627 47.5181 155.595C53.146 163.564 61.5642 169.095 71.0915 171.086C80.6189 173.076 90.5543 171.378 98.9138 166.332C107.273 161.286 113.442 153.262 116.187 143.862C116.458 142.934 117.084 142.151 117.928 141.685C118.772 141.219 119.765 141.108 120.687 141.377C121.61 141.647 122.387 142.274 122.848 143.12C123.309 143.967 123.416 144.964 123.145 145.893C120.663 154.381 115.812 161.983 109.166 167.794C102.521 173.606 94.3615 177.383 85.6577 178.677C76.9538 179.97 68.0716 178.726 60.0665 175.093C52.0615 171.459 45.2702 165.588 40.4998 158.177Z" fill="#CECECF"/>
<path d="M80.2161 65.7307C93.8787 58.8047 109.086 55.5604 124.347 56.3157C139.608 57.071 154.398 61.8 167.269 70.0392C168.079 70.5584 168.649 71.3803 168.855 72.3241C169.06 73.2679 168.884 74.2563 168.365 75.0719C167.845 75.8875 167.026 76.4634 166.086 76.673C165.147 76.8826 164.164 76.7086 163.354 76.1895C156.882 72.044 149.852 68.8501 142.476 66.7043C102.113 54.9266 58.8336 76.6911 43.9537 116.257C43.6293 117.118 42.9931 117.826 42.1729 118.237C41.3527 118.648 40.4092 118.733 39.5316 118.474C39.4411 118.454 39.352 118.428 39.2649 118.396C38.8192 118.228 38.4111 117.974 38.0638 117.647C37.7165 117.321 37.4369 116.928 37.2409 116.492C37.0449 116.057 36.9364 115.586 36.9216 115.107C36.9068 114.629 36.986 114.152 37.1546 113.703C44.9983 92.849 60.378 75.7153 80.2161 65.7307Z" fill="#CECECF"/>
<path d="M201.69 165.773C201.599 165.753 201.51 165.727 201.423 165.695C200.544 165.442 199.794 164.863 199.324 164.075C198.853 163.287 198.697 162.349 198.887 161.448C201.83 147.351 201.013 132.735 196.518 119.083C192.024 105.43 184.012 93.2277 173.296 83.7134C172.921 83.4022 172.613 83.0182 172.39 82.5841C172.166 82.1501 172.032 81.675 171.995 81.1871C171.959 80.6993 172.02 80.2087 172.176 79.7446C172.332 79.2805 172.579 78.8524 172.903 78.4859C173.227 78.1194 173.621 77.8219 174.061 77.6113C174.501 77.4006 174.979 77.281 175.465 77.2597C175.952 77.2385 176.437 77.3158 176.892 77.4873C177.348 77.6587 177.764 77.9207 178.116 78.2577C189.789 88.6256 198.515 101.921 203.411 116.795C208.307 131.669 209.197 147.593 205.993 162.952C205.894 163.421 205.704 163.865 205.434 164.261C205.164 164.656 204.82 164.995 204.42 165.257C204.02 165.519 203.574 165.699 203.105 165.788C202.637 165.876 202.156 165.871 201.69 165.773Z" fill="#CECECF"/>
<path d="M156.945 236.149C156.308 235.962 155.734 235.604 155.287 235.111C154.839 234.619 154.536 234.012 154.409 233.357C154.282 232.702 154.336 232.024 154.566 231.397C154.797 230.77 155.194 230.218 155.714 229.801C173.883 215.297 187.611 195.933 195.311 173.949C195.631 173.035 196.299 172.285 197.168 171.864C198.036 171.443 199.034 171.386 199.943 171.705C200.851 172.023 201.595 172.692 202.011 173.564C202.427 174.435 202.481 175.439 202.16 176.353C194.001 199.629 179.461 220.129 160.222 235.484C159.768 235.851 159.233 236.103 158.663 236.218C158.093 236.334 157.503 236.31 156.945 236.149Z" fill="#CECECF"/>
<path d="M82.6644 256.89C104.937 256.128 126.61 249.328 145.389 237.21C145.789 236.911 146.246 236.697 146.731 236.583C147.217 236.469 147.72 236.456 148.21 236.546C148.7 236.636 149.165 236.827 149.578 237.106C149.991 237.385 150.341 237.747 150.608 238.169C150.875 238.591 151.053 239.064 151.13 239.558C151.206 240.053 151.181 240.558 151.055 241.043C150.929 241.528 150.704 241.981 150.396 242.376C150.088 242.77 149.703 243.097 149.264 243.336C129.381 256.169 106.432 263.369 82.8485 264.173C81.9046 264.174 80.9989 263.804 80.324 263.143C79.649 262.482 79.258 261.582 79.234 260.633C79.2101 259.685 79.555 258.763 80.1956 258.064C80.8362 257.365 81.7218 256.944 82.6644 256.89Z" fill="#CECECF"/>
<path d="M27.4778 150.794C27.9174 150.609 28.3888 150.512 28.8651 150.509C29.3413 150.507 29.8131 150.598 30.2535 150.779C30.6939 150.96 31.0943 151.226 31.4317 151.563C31.7692 151.9 32.0371 152.3 32.2202 152.741C34.4364 158.102 37.5468 163.041 41.4178 167.345C46.0917 172.567 51.8045 176.744 58.1885 179.608C59.0335 179.979 59.7048 180.66 60.0656 181.513C60.4263 182.366 60.4494 183.326 60.13 184.198C59.8107 185.069 59.173 185.787 58.347 186.204C57.5209 186.621 56.5688 186.706 55.6847 186.442C55.5236 186.395 55.3662 186.336 55.2136 186.266C47.91 182.991 41.3738 178.214 36.0251 172.242C31.6072 167.324 28.0548 161.685 25.5193 155.566C25.3364 155.124 25.2421 154.65 25.2416 154.172C25.241 153.693 25.3344 153.218 25.5163 152.775C25.6982 152.332 25.965 151.929 26.3016 151.589C26.6382 151.249 27.0378 150.979 27.4778 150.794Z" fill="#CECECF"/>
<path d="M122.05 136.709C119.897 136.081 117.581 136.339 115.612 137.426C113.642 138.513 112.181 140.341 111.549 142.507C109.781 148.59 106.352 154.057 101.652 158.288C100.932 158.905 100 159.216 99.0569 159.154C98.1136 159.091 97.2331 158.661 96.603 157.955C95.9729 157.248 95.6431 156.321 95.6839 155.372C95.7247 154.422 96.1328 153.525 96.8214 152.871C100.509 149.546 103.201 145.253 104.591 140.477C105.765 136.454 108.479 133.06 112.136 131.04C115.793 129.021 120.094 128.542 124.093 129.708C128.091 130.875 131.459 133.592 133.457 137.261C135.454 140.931 135.916 145.252 134.743 149.275C130.685 163.124 121.676 174.989 109.451 182.585C97.2273 190.181 82.6534 192.969 68.5385 190.413L68.179 190.308C67.7153 190.198 67.278 189.997 66.892 189.717C66.5061 189.437 66.179 189.083 65.9295 188.675C65.6801 188.268 65.5131 187.815 65.4381 187.342C65.3631 186.869 65.3816 186.385 65.4925 185.919C65.6034 185.452 65.8045 185.012 66.0844 184.623C66.3643 184.234 66.7175 183.904 67.1238 183.652C67.5301 183.4 67.9816 183.231 68.4524 183.154C68.9233 183.077 69.4043 183.094 69.868 183.204C82.2169 185.492 94.986 183.078 105.691 176.431C116.396 169.785 124.271 159.381 127.785 147.245C128.417 145.079 128.167 142.752 127.092 140.776C126.017 138.8 124.203 137.337 122.05 136.709Z" fill="#CECECF"/>
<path d="M86.8986 158.54C87.3535 158.397 87.8318 158.345 88.3061 158.387C88.7803 158.43 89.2414 158.566 89.6628 158.787C90.0842 159.009 90.4578 159.312 90.7622 159.679C91.0666 160.047 91.2959 160.471 91.4369 160.928C91.5779 161.384 91.628 161.865 91.5842 162.342C91.5404 162.819 91.4036 163.282 91.1816 163.707C90.9596 164.131 90.6568 164.508 90.2905 164.815C89.9241 165.122 89.5014 165.354 89.0465 165.497C83.2031 167.326 76.981 167.532 71.0414 166.091C65.1018 164.651 59.6666 161.619 55.3135 157.317C50.9605 153.015 47.8521 147.605 46.3189 141.66C44.7856 135.716 44.8848 129.459 46.6058 123.556C49.8691 112.256 55.6925 101.862 63.6182 93.1911C71.5439 84.5198 81.3562 77.8072 92.284 73.5808C92.7307 73.3937 93.2098 73.2981 93.6931 73.2996C94.1764 73.3012 94.6542 73.3998 95.0985 73.5898C95.5427 73.7798 95.9443 74.0572 96.2798 74.4058C96.6153 74.7544 96.8779 75.1672 97.052 75.6198C97.2262 76.0724 97.3085 76.5557 97.294 77.0414C97.2795 77.527 97.1686 78.0051 96.9678 78.4477C96.7669 78.8902 96.4802 79.2882 96.1245 79.6183C95.7688 79.9483 95.3512 80.2038 94.8964 80.3696C85.0088 84.1939 76.1306 90.2674 68.959 98.113C61.7874 105.959 56.5177 115.363 53.5639 125.587C52.2129 130.224 52.1354 135.138 53.3397 139.807C54.544 144.476 56.9851 148.726 60.4037 152.106C63.8223 155.485 68.0908 157.868 72.7558 159.001C77.4208 160.134 82.3081 159.974 86.8986 158.54Z" fill="#CECECF"/>
<path d="M106.804 76.9009C106.335 76.9973 105.851 76.9994 105.381 76.9069C104.912 76.8145 104.465 76.6295 104.068 76.3625C103.67 76.0955 103.33 75.7518 103.065 75.3513C102.801 74.9508 102.619 74.5014 102.528 74.029C102.438 73.5567 102.442 73.0707 102.54 72.5992C102.637 72.1277 102.827 71.68 103.097 71.282C103.367 70.8839 103.713 70.5433 104.115 70.28C104.517 70.0166 104.966 69.8356 105.437 69.7475C117.036 67.4506 129.002 67.9319 140.364 71.1523L140.399 71.1624C140.856 71.2934 141.283 71.5138 141.655 71.811C142.028 72.1082 142.338 72.4764 142.568 72.8945C143.033 73.739 143.145 74.7357 142.879 75.6654C142.612 76.595 141.99 77.3815 141.148 77.8518C140.307 78.3221 139.315 78.4376 138.391 78.173C128.116 75.2582 117.294 74.8224 106.804 76.9009Z" fill="#CECECF"/>
<path d="M153.223 76.0564C165.364 82.0229 175.697 91.1336 183.161 102.454C190.625 113.774 194.953 126.896 195.699 140.474C195.752 141.439 195.422 142.387 194.78 143.109C194.139 143.831 193.239 144.269 192.279 144.325C191.868 144.352 191.455 144.306 191.06 144.191C190.341 143.98 189.706 143.551 189.241 142.962C188.776 142.373 188.505 141.653 188.464 140.901C187.787 128.619 183.871 116.749 177.117 106.51C170.364 96.2705 161.016 88.0299 150.033 82.6334C149.596 82.4311 149.203 82.143 148.879 81.7861C148.554 81.4293 148.304 81.0107 148.142 80.5548C147.981 80.099 147.911 79.6151 147.938 79.1314C147.965 78.6477 148.087 78.1739 148.298 77.7377C148.509 77.3015 148.804 76.9116 149.166 76.5909C149.529 76.2702 149.951 76.0251 150.408 75.8698C150.864 75.7146 151.347 75.6524 151.828 75.6869C152.309 75.7213 152.777 75.8517 153.206 76.0705L153.223 76.0564Z" fill="#CECECF"/>
<path d="M51.9976 241.519C54.0857 242.039 56.2157 242.503 58.3204 242.902C85.4567 248.099 113.579 242.903 137.162 228.333C160.745 213.763 178.083 190.874 185.771 164.162C186.819 160.573 187.58 156.906 188.045 153.197C188.091 152.711 188.234 152.239 188.465 151.809C188.695 151.379 189.009 151 189.388 150.694C189.766 150.388 190.202 150.161 190.669 150.027C191.136 149.892 191.625 149.854 192.106 149.913C192.588 149.972 193.052 150.128 193.472 150.371C193.892 150.614 194.259 150.939 194.551 151.328C194.843 151.716 195.054 152.16 195.172 152.633C195.29 153.106 195.312 153.598 195.238 154.08C194.728 158.178 193.889 162.228 192.729 166.192C184.413 194.567 165.918 218.86 140.831 234.358C115.743 249.855 85.8537 255.453 56.9605 250.063C54.7173 249.643 52.4523 249.147 50.2291 248.593L50.09 248.552C49.1621 248.301 48.3728 247.689 47.8957 246.851C47.4186 246.013 47.2928 245.018 47.546 244.085C47.7992 243.151 48.4106 242.356 49.2458 241.873C50.0809 241.391 51.0714 241.261 51.9993 241.513L51.9976 241.519Z" fill="#CECECF"/>
</g>
</svg>
