<svg width="36" height="36" viewBox="0 0 36 36" fill="none" xmlns="http://www.w3.org/2000/svg">
<path d="M18 3.375C11.1375 3.375 4.89378 7.25625 1.85628 13.4438C-1.18122 19.6313 -0.449972 26.9438 3.76878 32.4H32.2313C36.45 27 37.1813 19.6313 34.1438 13.4438C31.1063 7.25625 24.8625 3.375 18 3.375Z" fill="#7542E4"/>
<path d="M30.3188 20.925H32.0625C32.2875 20.925 32.5125 21.0938 32.5125 21.375C32.5125 21.6 32.3438 21.825 32.0625 21.825H30.3188C30.0938 21.825 29.8688 21.6563 29.8688 21.375C29.8688 21.15 30.0375 20.925 30.3188 20.925Z" fill="#DABDFF"/>
<path d="M5.68118 21.825H3.93743C3.71243 21.825 3.48743 21.6563 3.48743 21.375C3.48743 21.15 3.65618 20.925 3.93743 20.925H5.68118C5.90618 20.925 6.13118 21.0938 6.13118 21.375C6.13118 21.6 5.96243 21.825 5.68118 21.825Z" fill="#DABDFF"/>
<path d="M17.5499 9.0563V7.31255C17.5499 7.08755 17.7187 6.86255 17.9999 6.86255C18.2249 6.86255 18.4499 7.0313 18.4499 7.31255V9.0563C18.4499 9.2813 18.2812 9.5063 17.9999 9.5063C17.7749 9.5063 17.5499 9.33755 17.5499 9.0563V9.0563Z" fill="#DABDFF"/>
<path d="M11.475 10.7999L10.5187 9.33744C10.4062 9.11244 10.4625 8.88744 10.6312 8.71869C10.8562 8.60619 11.0812 8.66244 11.25 8.83119L12.2062 10.2937C12.3187 10.5187 12.2625 10.7437 12.0937 10.9124C11.8687 11.0812 11.5875 11.0249 11.475 10.7999Z" fill="#DABDFF"/>
<path d="M7.03123 15.6375L5.51248 14.7375C5.28748 14.625 5.23123 14.3438 5.34373 14.1188C5.45623 13.8938 5.73748 13.8375 5.96248 13.95L7.48123 14.85C7.70623 14.9625 7.76248 15.2438 7.64998 15.4688C7.59373 15.5813 7.48123 15.6375 7.36873 15.6938C7.25623 15.75 7.08748 15.6938 7.03123 15.6375V15.6375Z" fill="#DABDFF"/>
<path d="M28.575 14.9061L30.0375 13.9499C30.2625 13.8374 30.4875 13.8936 30.6562 14.0624C30.7125 14.1749 30.7687 14.2874 30.7125 14.3999C30.7125 14.5124 30.6 14.6249 30.5437 14.6811L29.0812 15.6374C28.8562 15.7499 28.575 15.6936 28.4625 15.5249C28.2937 15.2999 28.35 15.0749 28.575 14.9061V14.9061Z" fill="#DABDFF"/>
<path d="M23.7938 10.4061L24.6938 8.88735C24.8063 8.66235 25.0875 8.6061 25.3125 8.7186C25.5375 8.8311 25.5938 9.11235 25.4813 9.33735L24.5813 10.8561C24.4688 11.0811 24.1875 11.1374 23.9625 11.0249C23.85 10.9686 23.7938 10.8561 23.7375 10.7436C23.6813 10.6311 23.7375 10.4624 23.7938 10.4061Z" fill="#DABDFF"/>
<path d="M18 27.9562C20.6717 27.9562 22.8375 25.7904 22.8375 23.1187C22.8375 20.4471 20.6717 18.2812 18 18.2812C15.3283 18.2812 13.1625 20.4471 13.1625 23.1187C13.1625 25.7904 15.3283 27.9562 18 27.9562Z" fill="#8F59FF"/>
<path d="M18 26.1562C19.7086 26.1562 21.0938 24.7711 21.0938 23.0625C21.0938 21.3539 19.7086 19.9688 18 19.9688C16.2914 19.9688 14.9062 21.3539 14.9062 23.0625C14.9062 24.7711 16.2914 26.1562 18 26.1562Z" fill="#DABDFF"/>
<path d="M18.4499 23.0061C18.1687 23.0061 17.8312 22.8374 17.7187 22.5561C17.6062 22.2749 17.5499 21.9374 17.7187 21.7124L24.3562 9.11235C24.5249 8.8311 24.8062 8.66235 25.0874 8.66235C25.4249 8.66235 25.7062 8.8311 25.8749 9.0561C26.0437 9.33735 26.0437 9.67485 25.9312 9.9561L19.2374 22.5561C19.0687 22.8374 18.7874 23.0061 18.4499 23.0061V23.0061Z" fill="#DABDFF"/>
</svg>
