<svg width="36" height="36" viewBox="0 0 36 36" fill="none" xmlns="http://www.w3.org/2000/svg">
<g clip-path="url(#clip0_744_101)">
<path d="M27.6188 5.90625H18.0563C17.8313 5.90625 17.6063 5.68125 17.6063 5.45625V0.45C17.6063 0.225 17.7751 0 18.0563 0H27.5626C27.7313 0 27.9001 0.1125 27.9563 0.225C28.0126 0.39375 28.0126 0.5625 27.9001 0.675L25.3688 2.925L27.9001 5.175C28.0126 5.2875 28.0126 5.5125 27.9563 5.625C27.9001 5.79375 27.7876 5.90625 27.6188 5.90625Z" fill="#7542E4"/>
<path d="M34.875 36H1.12504C0.731288 36 0.337538 35.8312 0.168788 35.4937C3.78173e-05 35.1562 -0.0562122 34.7625 0.168788 34.3687L12.2625 14.4563L14.5688 17.6062C14.625 17.7187 14.7938 17.775 14.9063 17.775C15.0188 17.775 15.1875 17.7187 15.2438 17.6062L18 13.7812L20.7563 17.6062C20.8125 17.7187 20.9813 17.775 21.0938 17.775C21.2063 17.775 21.375 17.7187 21.4313 17.6062L23.7375 14.4563L35.8313 34.425C36 34.7625 36 35.1562 35.8313 35.4937C35.6625 35.8312 35.2688 36 34.875 36Z" fill="#7542E4"/>
<path d="M23.7938 14.4562L21.4876 17.6062C21.4313 17.7187 21.2626 17.7749 21.1501 17.7749C21.0376 17.7749 20.8688 17.7187 20.8126 17.6062L18.0001 13.7812L15.2438 17.6062C15.1876 17.7187 15.0188 17.7749 14.9063 17.7749C14.7938 17.7749 14.6251 17.7187 14.5688 17.6062L12.2626 14.4562L12.6563 13.7812L17.1001 6.41243C17.1563 6.29993 17.2126 6.24368 17.3251 6.18743C17.5501 5.96243 17.8876 5.84993 18.2251 5.90618C18.5626 5.96243 18.8438 6.13118 19.0126 6.41243L23.4563 13.7812L23.7938 14.4562V14.4562Z" fill="#DABDFF"/>
</g>
<defs>
<clipPath id="clip0_744_101">
<rect width="36" height="36" fill="white"/>
</clipPath>
</defs>
</svg>
