<svg width="36" height="30" viewBox="0 0 36 30" fill="none" xmlns="http://www.w3.org/2000/svg">
<path d="M36 22.3688V23.9438H3.59998V22.3688L7.76248 21.3H31.275L36 22.3688Z" fill="#DABDFF"/>
<path d="M5.11877 20.85V1.89375C5.11877 1.05 5.79377 0.375 6.63752 0.375H32.9063C33.75 0.375 34.425 1.05 34.425 1.89375V20.85C34.425 21.6938 33.75 22.3687 32.9063 22.3687H6.63752C5.79377 22.3687 5.11877 21.6938 5.11877 20.85V20.85Z" fill="#DABDFF"/>
<path d="M32.3437 1.94995H7.25623C7.14373 1.94995 6.97498 2.0062 6.86248 2.1187C6.74998 2.2312 6.69373 2.3437 6.69373 2.51245V19.7812C6.69373 19.8937 6.74998 20.0624 6.86248 20.1749C6.97498 20.2874 7.08748 20.3437 7.25623 20.3437H32.3437C32.625 20.3437 32.85 20.1187 32.85 19.8374V2.51245C32.85 2.39995 32.7937 2.2312 32.6812 2.1187C32.625 2.0062 32.4562 1.94995 32.3437 1.94995Z" fill="#7542E4"/>
<path d="M32.625 21.8625H6.975C6.8625 21.8625 6.75 21.75 6.75 21.5813C6.75 21.4125 6.8625 21.3563 6.975 21.3H32.625C32.7375 21.3 32.85 21.4125 32.85 21.5813C32.85 21.75 32.7375 21.8063 32.625 21.8625Z" fill="#7542E4"/>
<path d="M21.5438 23.1H17.8875C17.775 23.1 17.6625 23.0438 17.6625 22.9875C17.6063 22.875 17.6063 22.8188 17.6625 22.7063C17.7188 22.5938 17.8313 22.5938 17.8875 22.5938H21.5438C21.6563 22.5938 21.7688 22.7062 21.7688 22.875C21.7688 23.0437 21.6563 23.1 21.5438 23.1V23.1Z" fill="#7542E4"/>
<path d="M12.4313 6.7312H1.575C0.73125 6.7312 0 7.4062 0 8.3062V28.0499C0 28.8937 0.675 29.6249 1.575 29.6249H12.4875C13.3313 29.6249 14.0625 28.9499 14.0625 28.0499V8.3062C14.0062 7.46245 13.3313 6.7312 12.4313 6.7312Z" fill="#DABDFF"/>
<path d="M11.925 8.30615H2.0813C1.9688 8.30615 1.80005 8.3624 1.68755 8.4749C1.57505 8.5874 1.5188 8.6999 1.5188 8.86865V27.0374C1.5188 27.1499 1.57505 27.3187 1.68755 27.4312C1.80005 27.5437 1.91255 27.5999 2.0813 27.5999H11.925C12.2063 27.5999 12.4313 27.3749 12.4313 27.0937V8.8124C12.4313 8.6999 12.375 8.53115 12.2625 8.41865C12.2063 8.3624 12.0938 8.30615 11.925 8.30615V8.30615Z" fill="#7542E4"/>
<path d="M4.38748 25.9686C4.8224 25.9686 5.17498 25.616 5.17498 25.1811C5.17498 24.7461 4.8224 24.3936 4.38748 24.3936C3.95255 24.3936 3.59998 24.7461 3.59998 25.1811C3.59998 25.616 3.95255 25.9686 4.38748 25.9686Z" fill="#DABDFF"/>
<path d="M7.03127 25.9686C7.4662 25.9686 7.81877 25.616 7.81877 25.1811C7.81877 24.7461 7.4662 24.3936 7.03127 24.3936C6.59635 24.3936 6.24377 24.7461 6.24377 25.1811C6.24377 25.616 6.59635 25.9686 7.03127 25.9686Z" fill="#DABDFF"/>
<path d="M9.6188 25.9686C10.0537 25.9686 10.4063 25.616 10.4063 25.1811C10.4063 24.7461 10.0537 24.3936 9.6188 24.3936C9.18387 24.3936 8.8313 24.7461 8.8313 25.1811C8.8313 25.616 9.18387 25.9686 9.6188 25.9686Z" fill="#DABDFF"/>
</svg>
