<svg width="599" height="549" viewBox="0 0 599 549" fill="none" xmlns="http://www.w3.org/2000/svg">
<path d="M486.489 120.28L286.887 6.73271C279.875 2.88797 272.023 0.874023 264.045 0.874023C256.066 0.874023 248.214 2.88797 241.203 6.73271L40.8975 120.28C33.6664 124.395 27.6451 130.373 23.4474 137.603C19.2496 144.834 17.0254 153.059 17.0014 161.44V387.824C16.9365 396.224 19.1235 404.484 23.3304 411.731C27.5373 418.977 33.6074 424.939 40.8975 428.985L240.5 541.822C247.498 546.074 255.526 548.284 263.693 548.209C271.848 548.189 279.851 545.985 286.887 541.822L486.489 428.985C493.72 424.87 499.742 418.892 503.939 411.661C508.137 404.431 510.361 396.206 510.385 387.824V161.44C510.592 153.013 508.464 144.696 504.242 137.424C500.021 130.152 493.872 124.214 486.489 120.28Z" fill="url(#paint0_linear)"/>
<g opacity="0.5" filter="url(#filter0_f)">
<path d="M231.537 56.1602L228.12 59.3284L224.83 56.3292L224.438 56.7109L215.547 65.4549C215.896 65.7997 216.373 65.9959 216.872 66.0002H239.369C239.868 65.9962 240.345 65.8 240.694 65.4549L231.954 56.5909L231.537 56.1602Z" fill="#FF651D"/>
<path d="M224.84 56.6818L215.536 48.5225L215.553 48.5068H215.536C215.2 48.8355 215.009 49.2685 215 49.7211V64.2236C215.003 64.6871 215.206 65.1301 215.564 65.4535L224.457 57.0613L224.84 56.6818Z" fill="#FF9200"/>
<path d="M240.628 48.5068H240.614C240.614 48.5068 240.614 48.5068 240.628 48.5203L231.4 56.8347L231.815 57.2441L240.683 66.0002C241.04 65.665 241.241 65.2094 241.24 64.7343V49.8212C241.24 49.6345 241.208 49.449 241.146 49.2717C241.044 48.9802 240.866 48.7173 240.628 48.5068Z" fill="#FF9200"/>
<path d="M224.861 57.003L228.157 59.9866L231.581 56.8403L240.693 48.4672C240.693 48.4672 240.693 48.4672 240.678 48.4536C240.343 48.14 239.895 47.9631 239.427 47.96H216.888C216.385 47.9642 215.906 48.1662 215.563 48.5187L215.546 48.535L224.861 57.003Z" fill="#FBB85E"/>
<circle cx="241.4" cy="50.16" r="6.16" fill="white"/>
<path d="M241.399 45.7598C238.97 45.7598 236.999 47.731 236.999 50.1598C236.999 52.5886 238.97 54.5598 241.399 54.5598C243.828 54.5598 245.799 52.5886 245.799 50.1598C245.799 47.731 243.828 45.7598 241.399 45.7598ZM237.879 50.1598C237.879 48.215 239.454 46.6398 241.399 46.6398C242.213 46.6398 242.961 46.917 243.555 47.3834L238.623 52.3158C238.156 51.7218 237.879 50.9738 237.879 50.1598ZM241.399 53.6798C240.585 53.6798 239.837 53.4026 239.243 52.9362L244.175 48.0038C244.642 48.5978 244.919 49.3458 244.919 50.1598C244.919 52.1046 243.344 53.6798 241.399 53.6798Z" fill="#FF298A"/>
</g>
<g opacity="0.5" filter="url(#filter1_f)">
<path d="M431.537 46.1602L428.12 49.3284L424.83 46.3292L424.438 46.7109L415.547 55.4549C415.896 55.7997 416.373 55.9959 416.872 56.0002H439.369C439.868 55.9962 440.345 55.8 440.694 55.4549L431.954 46.5909L431.537 46.1602Z" fill="#FF651D"/>
<path d="M424.84 46.6818L415.536 38.5225L415.553 38.5068H415.536C415.2 38.8355 415.009 39.2685 415 39.7211V54.2236C415.003 54.6871 415.206 55.1301 415.564 55.4535L424.457 47.0613L424.84 46.6818Z" fill="#FF9200"/>
<path d="M440.628 38.5068H440.614C440.614 38.5068 440.614 38.5068 440.628 38.5203L431.4 46.8347L431.815 47.2441L440.683 56.0002C441.04 55.665 441.241 55.2094 441.24 54.7343V39.8212C441.24 39.6345 441.208 39.449 441.146 39.2717C441.044 38.9802 440.866 38.7173 440.628 38.5068Z" fill="#FF9200"/>
<path d="M424.861 47.003L428.157 49.9866L431.581 46.8403L440.693 38.4672C440.693 38.4672 440.693 38.4672 440.678 38.4536C440.343 38.14 439.895 37.9631 439.427 37.96H416.888C416.385 37.9642 415.906 38.1662 415.563 38.5187L415.546 38.535L424.861 47.003Z" fill="#FBB85E"/>
<circle cx="441.4" cy="40.16" r="6.16" fill="white"/>
<path d="M441.399 35.7598C438.97 35.7598 436.999 37.731 436.999 40.1598C436.999 42.5886 438.97 44.5598 441.399 44.5598C443.828 44.5598 445.799 42.5886 445.799 40.1598C445.799 37.731 443.828 35.7598 441.399 35.7598ZM437.879 40.1598C437.879 38.215 439.454 36.6398 441.399 36.6398C442.213 36.6398 442.961 36.917 443.555 37.3834L438.623 42.3158C438.156 41.7218 437.879 40.9738 437.879 40.1598ZM441.399 43.6798C440.585 43.6798 439.837 43.4026 439.243 42.9362L444.175 38.0038C444.642 38.5978 444.919 39.3458 444.919 40.1598C444.919 42.1046 443.344 43.6798 441.399 43.6798Z" fill="#FF298A"/>
</g>
<g opacity="0.5" filter="url(#filter2_f)">
<path d="M578.537 441.16L575.12 444.328L571.83 441.329L571.438 441.711L562.547 450.455C562.896 450.8 563.373 450.996 563.872 451H586.369C586.868 450.996 587.345 450.8 587.694 450.455L578.954 441.591L578.537 441.16Z" fill="#FF651D"/>
<path d="M571.84 441.682L562.536 433.523L562.553 433.507H562.536C562.2 433.835 562.009 434.268 562 434.721V449.224C562.003 449.687 562.206 450.13 562.564 450.454L571.457 442.061L571.84 441.682Z" fill="#FF9200"/>
<path d="M587.628 433.507H587.614C587.614 433.507 587.614 433.507 587.628 433.52L578.4 441.835L578.815 442.244L587.683 451C588.04 450.665 588.241 450.209 588.24 449.734V434.821C588.24 434.634 588.208 434.449 588.146 434.272C588.044 433.98 587.866 433.717 587.628 433.507Z" fill="#FF9200"/>
<path d="M571.861 442.003L575.157 444.987L578.581 441.84L587.693 433.467C587.693 433.467 587.693 433.467 587.678 433.454C587.343 433.14 586.895 432.963 586.427 432.96H563.888C563.385 432.964 562.906 433.166 562.563 433.519L562.546 433.535L571.861 442.003Z" fill="#FBB85E"/>
<circle cx="588.4" cy="435.16" r="6.16" fill="white"/>
<path d="M588.399 430.76C585.97 430.76 583.999 432.731 583.999 435.16C583.999 437.589 585.97 439.56 588.399 439.56C590.828 439.56 592.799 437.589 592.799 435.16C592.799 432.731 590.828 430.76 588.399 430.76ZM584.879 435.16C584.879 433.215 586.454 431.64 588.399 431.64C589.213 431.64 589.961 431.917 590.555 432.383L585.623 437.316C585.156 436.722 584.879 435.974 584.879 435.16ZM588.399 438.68C587.585 438.68 586.837 438.403 586.243 437.936L591.175 433.004C591.642 433.598 591.919 434.346 591.919 435.16C591.919 437.105 590.344 438.68 588.399 438.68Z" fill="#FF298A"/>
</g>
<g opacity="0.5" filter="url(#filter3_f)">
<path d="M20.537 303.16L17.1202 306.328L13.8303 303.329L13.4384 303.711L4.54688 312.455C4.89605 312.8 5.37282 312.996 5.87187 313H28.3685C28.8677 312.996 29.3445 312.8 29.6935 312.455L20.9542 303.591L20.537 303.16Z" fill="#FF651D"/>
<path d="M13.84 303.682L4.5357 295.523L4.55262 295.507H4.5357C4.20034 295.835 4.0093 296.268 4 296.721V311.224C4.00313 311.687 4.20623 312.13 4.5639 312.454L13.4565 304.061L13.84 303.682Z" fill="#FF9200"/>
<path d="M29.6282 295.507H29.6139C29.6139 295.507 29.6139 295.507 29.6282 295.52L20.4004 303.835L20.8152 304.244L29.6826 313C30.0402 312.665 30.241 312.209 30.2404 311.734V296.821C30.2401 296.634 30.2083 296.449 30.146 296.272C30.0436 295.98 29.8656 295.717 29.6282 295.507Z" fill="#FF9200"/>
<path d="M13.8612 304.003L17.1574 306.987L20.5807 303.84L29.6926 295.467C29.6926 295.467 29.6926 295.467 29.6784 295.454C29.3434 295.14 28.895 294.963 28.4272 294.96H5.88754C5.38495 294.964 4.90615 295.166 4.56285 295.519L4.5459 295.535L13.8612 304.003Z" fill="#FBB85E"/>
<circle cx="30.4002" cy="297.16" r="6.16" fill="white"/>
<path d="M30.399 292.76C27.9702 292.76 25.999 294.731 25.999 297.16C25.999 299.589 27.9702 301.56 30.399 301.56C32.8278 301.56 34.799 299.589 34.799 297.16C34.799 294.731 32.8278 292.76 30.399 292.76ZM26.879 297.16C26.879 295.215 28.4542 293.64 30.399 293.64C31.213 293.64 31.961 293.917 32.555 294.383L27.6226 299.316C27.1562 298.722 26.879 297.974 26.879 297.16ZM30.399 300.68C29.585 300.68 28.837 300.403 28.243 299.936L33.1754 295.004C33.6418 295.598 33.919 296.346 33.919 297.16C33.919 299.105 32.3438 300.68 30.399 300.68Z" fill="#FF298A"/>
</g>
<g filter="url(#filter4_d)">
<path d="M505.643 11.6317L512.716 5L525.096 26.6636L505.643 11.6317Z" fill="#F5F7F9"/>
<path d="M503.432 22.2426L505.642 11.6318L525.095 26.6637L503.432 22.2426Z" fill="#666666"/>
<path d="M500.779 16.9375L502.106 24.4534L525.538 26.664L500.779 16.9375Z" fill="#666666"/>
<path d="M500.779 13.8418H480L525.538 26.6631L500.779 13.8418Z" fill="#F5F7F9"/>
</g>
<path opacity="0.2" d="M489 10.4143C463.541 3.22215 396.495 -2.46085 331.983 32.3446C317.063 39.8905 282.178 61.9859 262 90" stroke="#C10CD7" stroke-width="2" stroke-linejoin="round" stroke-dasharray="4 4"/>
<defs>
<filter id="filter0_f" x="211" y="40" width="40.5602" height="30.0002" filterUnits="userSpaceOnUse" color-interpolation-filters="sRGB">
<feFlood flood-opacity="0" result="BackgroundImageFix"/>
<feBlend mode="normal" in="SourceGraphic" in2="BackgroundImageFix" result="shape"/>
<feGaussianBlur stdDeviation="2" result="effect1_foregroundBlur"/>
</filter>
<filter id="filter1_f" x="411" y="30" width="40.5602" height="30.0002" filterUnits="userSpaceOnUse" color-interpolation-filters="sRGB">
<feFlood flood-opacity="0" result="BackgroundImageFix"/>
<feBlend mode="normal" in="SourceGraphic" in2="BackgroundImageFix" result="shape"/>
<feGaussianBlur stdDeviation="2" result="effect1_foregroundBlur"/>
</filter>
<filter id="filter2_f" x="558" y="425" width="40.5602" height="30.0002" filterUnits="userSpaceOnUse" color-interpolation-filters="sRGB">
<feFlood flood-opacity="0" result="BackgroundImageFix"/>
<feBlend mode="normal" in="SourceGraphic" in2="BackgroundImageFix" result="shape"/>
<feGaussianBlur stdDeviation="2" result="effect1_foregroundBlur"/>
</filter>
<filter id="filter3_f" x="0" y="287" width="40.5602" height="30.0002" filterUnits="userSpaceOnUse" color-interpolation-filters="sRGB">
<feFlood flood-opacity="0" result="BackgroundImageFix"/>
<feBlend mode="normal" in="SourceGraphic" in2="BackgroundImageFix" result="shape"/>
<feGaussianBlur stdDeviation="2" result="effect1_foregroundBlur"/>
</filter>
<filter id="filter4_d" x="476" y="5" width="53.5377" height="29.664" filterUnits="userSpaceOnUse" color-interpolation-filters="sRGB">
<feFlood flood-opacity="0" result="BackgroundImageFix"/>
<feColorMatrix in="SourceAlpha" type="matrix" values="0 0 0 0 0 0 0 0 0 0 0 0 0 0 0 0 0 0 127 0" result="hardAlpha"/>
<feOffset dy="4"/>
<feGaussianBlur stdDeviation="2"/>
<feComposite in2="hardAlpha" operator="out"/>
<feColorMatrix type="matrix" values="0 0 0 0 0 0 0 0 0 0 0 0 0 0 0 0 0 0 0.05 0"/>
<feBlend mode="normal" in2="BackgroundImageFix" result="effect1_dropShadow"/>
<feBlend mode="normal" in="SourceGraphic" in2="effect1_dropShadow" result="shape"/>
</filter>
<linearGradient id="paint0_linear" x1="58.2488" y1="414.804" x2="457.284" y2="135.304" gradientUnits="userSpaceOnUse">
<stop stop-color="#570D70"/>
<stop offset="0.904505" stop-color="#B10EC1"/>
</linearGradient>
</defs>
</svg>
