<svg width="12" height="12" viewBox="0 0 12 12" fill="none" xmlns="http://www.w3.org/2000/svg">
<path d="M3.98771 11.9922C3.72252 11.9921 3.4682 11.8867 3.28071 11.6992L0.280712 8.6992C0.0985537 8.51059 -0.00224062 8.25799 3.78026e-05 7.9958C0.00231622 7.7336 0.107485 7.48279 0.292893 7.29738C0.478301 7.11197 0.729114 7.0068 0.99131 7.00452C1.25351 7.00224 1.50611 7.10304 1.69471 7.2852L3.85171 9.4422L10.1677 0.419197C10.3208 0.204643 10.5524 0.0591996 10.8121 0.0144941C11.0719 -0.0302113 11.3388 0.0294365 11.5548 0.180467C11.7708 0.331497 11.9184 0.561696 11.9656 0.821006C12.0128 1.08032 11.9557 1.34777 11.8067 1.5652L4.80671 11.5652C4.7234 11.6856 4.61467 11.7863 4.48818 11.8601C4.36169 11.9339 4.22055 11.979 4.07471 11.9922C4.04573 11.9937 4.01669 11.9937 3.98771 11.9922Z" fill="#0250BB"/>
</svg>
