<svg width="151" height="33" viewBox="0 0 151 33" fill="none" xmlns="http://www.w3.org/2000/svg">
<g clip-path="url(#clip0)">
<path d="M27.6891 6.95997L15.9171 0.33762C15.5036 0.113385 15.0405 -0.0040741 14.5699 -0.0040741C14.0994 -0.0040741 13.6363 0.113385 13.2228 0.33762L1.40929 6.95997C0.982825 7.19999 0.627707 7.54862 0.380134 7.97033C0.13256 8.39204 0.00138222 8.87175 -3.17517e-05 9.36057V22.5639C-0.00385728 23.0538 0.125121 23.5355 0.373233 23.9582C0.621345 24.3808 0.979347 24.7285 1.40929 24.9645L13.1813 31.5454C13.5941 31.7934 14.0675 31.9223 14.5492 31.9179C15.0301 31.9168 15.5021 31.7882 15.9171 31.5454L27.6891 24.9645C28.1156 24.7245 28.4707 24.3758 28.7182 23.9541C28.9658 23.5324 29.097 23.0527 29.0984 22.5639V9.36057C29.1106 8.8691 28.9851 8.38399 28.7361 7.95987C28.4871 7.53574 28.1245 7.18945 27.6891 6.95997V6.95997Z" fill="url(#paint0_linear)"/>
<path d="M6.3414 19.42L5.63673 19.8339C5.51064 19.9037 5.39973 19.9978 5.31045 20.1108C5.22117 20.2239 5.15533 20.3535 5.11674 20.4922C5.07816 20.6309 5.06762 20.7758 5.08573 20.9186C5.10384 21.0614 5.15024 21.1992 5.22223 21.3239C5.31479 21.4968 5.45205 21.6417 5.61972 21.7436C5.78738 21.8455 5.97933 21.9007 6.17559 21.9034C6.36214 21.9018 6.54608 21.8594 6.71445 21.7792L7.41912 21.3653C7.54521 21.2956 7.65612 21.2014 7.7454 21.0884C7.83468 20.9754 7.90053 20.8457 7.93911 20.7071C7.97769 20.5684 7.98823 20.4234 7.97012 20.2806C7.95201 20.1378 7.90561 20 7.83363 19.8753C7.76961 19.7438 7.67914 19.6269 7.56786 19.5319C7.45657 19.4369 7.32687 19.3658 7.18684 19.3231C7.04681 19.2803 6.89947 19.2669 6.754 19.2836C6.60854 19.3003 6.46808 19.3467 6.3414 19.42V19.42ZM10.6523 16.978L9.2015 17.8058C9.07541 17.8756 8.96449 17.9697 8.87522 18.0827C8.78594 18.1958 8.72009 18.3254 8.68151 18.4641C8.64293 18.6028 8.63238 18.7477 8.65049 18.8906C8.6686 19.0334 8.71501 19.1711 8.78699 19.2958C8.87956 19.4687 9.01682 19.6136 9.18448 19.7155C9.35215 19.8174 9.5441 19.8726 9.74036 19.8753C9.92691 19.8737 10.1108 19.8313 10.2792 19.7511L11.73 18.9233C11.8561 18.8536 11.967 18.7594 12.0563 18.6464C12.1456 18.5334 12.2114 18.4038 12.25 18.2651C12.2886 18.1264 12.2991 17.9814 12.281 17.8386C12.2629 17.6958 12.2165 17.558 12.1445 17.4333C12.0805 17.3018 11.99 17.1849 11.8787 17.0899C11.7675 16.9949 11.6377 16.9238 11.4977 16.8811C11.3577 16.8383 11.2103 16.8249 11.0649 16.8416C10.9194 16.8583 10.779 16.9047 10.6523 16.978V16.978ZM16.4968 14.9541C16.4384 14.8366 16.357 14.7321 16.2573 14.6468C16.1576 14.5615 16.0417 14.497 15.9165 14.4574V6.13392C15.9171 5.98701 15.8885 5.84144 15.8325 5.70561C15.7764 5.56978 15.694 5.44637 15.59 5.34249C15.4859 5.23861 15.3623 5.15631 15.2263 5.10035C15.0903 5.04438 14.9445 5.01585 14.7974 5.0164C14.6524 5.01686 14.5091 5.0464 14.3758 5.10325C14.2426 5.1601 14.1221 5.24311 14.0216 5.34734C13.921 5.45157 13.8425 5.57491 13.7907 5.71003C13.7388 5.84515 13.7146 5.9893 13.7196 6.13392V14.4946C13.5945 14.5343 13.4786 14.5987 13.3789 14.684C13.2792 14.7694 13.1977 14.8739 13.1393 14.9913C13.0614 15.1368 13.0173 15.2978 13.0101 15.4626C13.0029 15.6274 13.0329 15.7916 13.0979 15.9433C13.0329 16.0949 13.0029 16.2592 13.0101 16.424C13.0173 16.5887 13.0614 16.7498 13.1393 16.8952C13.1977 17.0127 13.2792 17.1172 13.3789 17.2025C13.4786 17.2878 13.5945 17.3523 13.7196 17.3919V25.7526C13.7196 26.049 13.8375 26.3333 14.0474 26.5428C14.2573 26.7524 14.542 26.8702 14.8388 26.8702C15.1356 26.8702 15.4203 26.7524 15.6302 26.5428C15.8401 26.3333 15.958 26.049 15.958 25.7526V17.3505C16.0831 17.3109 16.199 17.2464 16.2987 17.1611C16.3984 17.0758 16.4799 16.9713 16.5383 16.8538C16.6162 16.7084 16.6603 16.5473 16.6675 16.3826C16.6747 16.2178 16.6447 16.0535 16.5797 15.9019C16.6756 15.5871 16.6459 15.2475 16.4968 14.9541V14.9541ZM19.3196 12.094L17.8689 12.9218C17.7428 12.9916 17.6319 13.0857 17.5426 13.1988C17.4533 13.3118 17.3874 13.4414 17.3489 13.5801C17.3103 13.7188 17.2997 13.8638 17.3179 14.0066C17.336 14.1494 17.3824 14.2871 17.4544 14.4119C17.5469 14.5847 17.6842 14.7296 17.8518 14.8315C18.0195 14.9334 18.2115 14.9886 18.4077 14.9913C18.5943 14.9897 18.7782 14.9473 18.9466 14.8671L20.3974 14.0393C20.5234 13.9696 20.6344 13.8754 20.7236 13.7624C20.8129 13.6494 20.8788 13.5198 20.9173 13.3811C20.9559 13.2424 20.9665 13.0974 20.9484 12.9546C20.9303 12.8118 20.8838 12.674 20.8119 12.5493C20.7478 12.4178 20.6574 12.3009 20.5461 12.2059C20.4348 12.1109 20.3051 12.0398 20.1651 11.9971C20.025 11.9544 19.8777 11.9409 19.7322 11.9576C19.5868 11.9743 19.4463 12.0207 19.3196 12.094V12.094ZM22.7559 12.5079C22.9425 12.5063 23.1264 12.464 23.2948 12.3838L23.9994 11.9699C24.1254 11.8996 24.2361 11.8052 24.3254 11.692C24.4147 11.5789 24.4807 11.4492 24.5197 11.3105C24.5586 11.1718 24.5697 11.0268 24.5524 10.8838C24.535 10.7408 24.4896 10.6026 24.4186 10.4772C24.3476 10.3518 24.2525 10.2417 24.1387 10.1531C24.025 10.0645 23.8948 9.99918 23.7557 9.96096C23.6166 9.92275 23.4714 9.91235 23.3282 9.93036C23.1851 9.94838 23.047 9.99445 22.9217 10.0659L22.217 10.4798C22.091 10.5496 21.98 10.6437 21.8908 10.7568C21.8015 10.8698 21.7356 10.9994 21.6971 11.1381C21.6585 11.2768 21.6479 11.4218 21.666 11.5646C21.6841 11.7074 21.7305 11.8452 21.8025 11.9699C21.8974 12.1376 22.0364 12.2764 22.2043 12.3712C22.3723 12.466 22.563 12.5133 22.7559 12.5079ZM23.9994 19.8339L23.2948 19.42C23.042 19.279 22.7436 19.2436 22.4649 19.3217C22.1861 19.3997 21.9496 19.5848 21.8071 19.8365C21.6647 20.0882 21.6278 20.386 21.7046 20.6647C21.7815 20.9434 21.9657 21.1805 22.217 21.3239L22.9217 21.7378C23.0901 21.818 23.274 21.8604 23.4606 21.862C23.6568 21.8593 23.8488 21.8041 24.0164 21.7022C24.1841 21.6003 24.3214 21.4554 24.4139 21.2825C24.4881 21.1618 24.5363 21.027 24.5555 20.8866C24.5748 20.7463 24.5646 20.6034 24.5256 20.4672C24.4866 20.331 24.4197 20.2044 24.3291 20.0954C24.2386 19.9864 24.1263 19.8973 23.9994 19.8339V19.8339ZM20.3932 17.8058L18.9424 16.978C18.8172 16.9065 18.679 16.8605 18.5359 16.8424C18.3928 16.8244 18.2475 16.8348 18.1084 16.873C17.9693 16.9113 17.8392 16.9765 17.7254 17.0651C17.6117 17.1537 17.5166 17.2639 17.4456 17.3893C17.3746 17.5147 17.3291 17.6529 17.3118 17.7959C17.2944 17.9389 17.3055 18.0839 17.3445 18.2226C17.3834 18.3613 17.4494 18.4909 17.5387 18.6041C17.628 18.7172 17.7388 18.8117 17.8647 18.8819L19.3155 19.7097C19.4839 19.7899 19.6678 19.8323 19.8544 19.8339C20.0506 19.8312 20.2426 19.776 20.4102 19.6741C20.5779 19.5722 20.7151 19.4273 20.8077 19.2544C20.8832 19.134 20.9324 18.9991 20.9523 18.8585C20.9722 18.7179 20.9623 18.5746 20.9232 18.438C20.8842 18.3015 20.8168 18.1746 20.7255 18.0657C20.6342 17.9568 20.521 17.8682 20.3932 17.8058V17.8058ZM9.2015 13.998L10.6523 14.8258C10.8207 14.906 11.0046 14.9483 11.1911 14.9499C11.3874 14.9472 11.5794 14.892 11.747 14.7901C11.9147 14.6882 12.0519 14.5433 12.1445 14.3705C12.2165 14.2458 12.2629 14.108 12.281 13.9652C12.2991 13.8224 12.2886 13.6774 12.25 13.5387C12.2114 13.4 12.1456 13.2704 12.0563 13.1574C11.967 13.0443 11.8561 12.9502 11.73 12.8804L10.2792 12.0526C10.1543 11.9808 10.0163 11.9344 9.87333 11.9163C9.73032 11.8983 9.58513 11.9088 9.44624 11.9473C9.30734 11.9858 9.17751 12.0516 9.06433 12.1407C8.95114 12.2299 8.85687 12.3406 8.78699 12.4665C8.64814 12.7266 8.61371 13.0297 8.69071 13.3142C8.76771 13.5987 8.95036 13.8432 9.2015 13.998V13.998ZM7.41912 10.4798L6.71445 10.0659C6.58921 9.99445 6.45106 9.94838 6.30793 9.93036C6.1648 9.91235 6.01952 9.92275 5.88043 9.96096C5.74134 9.99918 5.61118 10.0645 5.49743 10.1531C5.38368 10.2417 5.28858 10.3518 5.21759 10.4772C5.14661 10.6026 5.10114 10.7408 5.08379 10.8838C5.06644 11.0268 5.07756 11.1718 5.11651 11.3105C5.15546 11.4492 5.22146 11.5789 5.31074 11.692C5.40002 11.8052 5.5108 11.8996 5.63673 11.9699L6.3414 12.3838C6.50977 12.464 6.69371 12.5063 6.88026 12.5079C7.07652 12.5052 7.26847 12.45 7.43614 12.3481C7.6038 12.2462 7.74106 12.1013 7.83363 11.9285C7.90415 11.8068 7.94941 11.6722 7.96671 11.5326C7.98401 11.3931 7.97299 11.2515 7.9343 11.1163C7.89562 10.9811 7.83007 10.8551 7.74156 10.7457C7.65304 10.6364 7.54338 10.546 7.41912 10.4798V10.4798Z" fill="#20133A"/>
</g>
<path d="M110.999 9.07452C111.602 9.06355 112.202 9.17578 112.765 9.40514C113.278 9.60769 113.747 9.91676 114.146 10.3143C114.535 10.7028 114.844 11.1722 115.054 11.6932C115.421 12.6383 115.472 13.6884 115.199 14.6688C115.083 15.0693 114.912 15.4492 114.691 15.7959C114.463 16.1489 114.186 16.462 113.867 16.7239C113.532 17.0026 113.155 17.2185 112.751 17.3626L115.5 22.4872H113.874L111.402 17.7646H107.434V22.4872H106V9.07452H110.999ZM107.434 16.3669H110.889C111.329 16.375 111.766 16.2907 112.175 16.119C112.53 15.9679 112.853 15.7431 113.126 15.4577C113.383 15.1873 113.584 14.8621 113.715 14.5034C113.846 14.1438 113.913 13.7618 113.913 13.3763C113.917 12.9797 113.846 12.5863 113.705 12.2192C113.564 11.8672 113.353 11.5519 113.087 11.2949C112.811 11.0291 112.488 10.8258 112.136 10.6976C111.736 10.5596 111.317 10.4935 110.896 10.5022H107.434V16.3669ZM119.682 22.2956C119.1 22.0493 118.572 21.6799 118.128 21.2098C117.693 20.7476 117.355 20.1933 117.135 19.583C116.899 18.9389 116.779 18.2531 116.782 17.5617C116.771 16.861 116.891 16.165 117.135 15.5141C117.384 14.9015 117.744 14.3473 118.195 13.8835C118.631 13.4018 119.153 13.0185 119.732 12.7564C120.347 12.4816 121.008 12.3436 121.675 12.3507C122.323 12.3436 122.966 12.4712 123.568 12.7264C124.131 12.9633 124.642 13.32 125.07 13.7746C125.499 14.2361 125.838 14.784 126.066 15.3864C126.31 16.0307 126.43 16.7206 126.419 17.4152V18.0952H118.17C118.23 18.7633 118.466 19.4 118.851 19.9317C119.236 20.4635 119.754 20.8688 120.346 21.1008C120.782 21.262 121.241 21.3421 121.703 21.3375C122.342 21.3749 122.978 21.2141 123.533 20.8746C124.088 20.5351 124.538 20.0316 124.829 19.4252L126.041 20.1766C125.595 20.9316 124.99 21.5668 124.275 22.0326C123.489 22.498 122.599 22.7266 121.699 22.6938C121.009 22.7012 120.324 22.566 119.682 22.2956ZM120.41 13.9324C120.032 14.0777 119.684 14.2969 119.382 14.5786C119.079 14.8529 118.824 15.1824 118.63 15.5517C118.426 15.931 118.282 16.3436 118.206 16.7727H124.964C124.899 15.9035 124.518 15.0956 123.9 14.5219C123.283 13.9482 122.479 13.6544 121.661 13.7032C121.234 13.6998 120.811 13.7774 120.41 13.9324ZM129.973 8V22.4872H128.56V8H129.973ZM133.88 22.4609C133.497 22.3274 133.143 22.1113 132.842 21.8259C132.574 21.568 132.362 21.2514 132.22 20.8979C132.079 20.5413 132.008 20.1577 132.012 19.7708C131.992 19.3042 132.087 18.8401 132.285 18.4236C132.484 18.007 132.78 17.6519 133.146 17.3926C133.898 16.8366 134.933 16.5548 136.247 16.5548H139.201V16.1791C139.217 15.8387 139.164 15.4985 139.047 15.1812C138.93 14.8638 138.751 14.5765 138.522 14.3381C138.067 13.8798 137.381 13.6506 136.473 13.6506C135.882 13.6173 135.294 13.7553 134.771 14.0497C134.247 14.3441 133.809 14.784 133.502 15.3225L132.276 14.4959C132.739 13.8503 133.329 13.3195 134.004 12.9405C134.771 12.5344 135.62 12.3356 136.477 12.3619C137.076 12.3515 137.672 12.4441 138.243 12.6362C138.717 12.7981 139.152 13.0644 139.522 13.4177C139.869 13.7553 140.141 14.1712 140.317 14.6349C140.498 15.1266 140.588 15.651 140.582 16.1791V22.4872H139.201V20.7439C138.778 21.3629 138.212 21.8559 137.558 22.1753C136.865 22.5194 136.108 22.6952 135.343 22.69C134.847 22.701 134.352 22.6235 133.88 22.4609ZM136.636 21.221C136.984 21.1231 137.32 20.9806 137.636 20.7965C137.958 20.6068 138.255 20.3718 138.519 20.0977C138.791 19.8188 139.021 19.4969 139.201 19.1434V17.7683H136.314C135.336 17.7683 134.615 17.9299 134.156 18.2455C133.808 18.5007 133.571 18.8922 133.494 19.3339C133.418 19.7756 133.51 20.2314 133.75 20.6011C133.815 20.7001 133.89 20.7919 133.972 20.8754C134.437 21.2434 135.013 21.4172 135.59 21.3638C135.948 21.3659 136.304 21.3191 136.65 21.2248L136.636 21.221ZM142.14 25.7596C141.769 25.6167 141.429 25.3985 141.137 25.1171L142.055 23.8848C142.225 24.0815 142.423 24.2488 142.642 24.3807C142.877 24.509 143.14 24.5723 143.405 24.5648C143.623 24.5687 143.841 24.5383 144.051 24.4746C144.248 24.4068 144.431 24.2983 144.588 24.1553C144.776 23.9665 144.935 23.7487 145.061 23.5091C145.24 23.182 145.402 22.8446 145.545 22.4984L145.754 22.0213L141.843 12.5648H143.383L146.496 20.248L149.46 12.5648H151L146.761 22.9305C146.562 23.4163 146.334 23.8881 146.079 24.3432C145.881 24.7003 145.633 25.0234 145.344 25.3012C145.089 25.5379 144.792 25.7192 144.472 25.8347C143.702 26.0784 142.88 26.0521 142.126 25.7596H142.14Z" fill="black"/>
<path d="M38 22.7813H41.0353V16.6146H46.8747V14.0123H41.0353V10.4551H47.5056V7.85285H38V22.7813Z" fill="black"/>
<path d="M49.0212 22.7813H52.0075V11.585H49.0212V22.7813ZM50.5213 10.1417C51.4116 10.1417 52.1407 9.43463 52.1407 8.5672C52.1407 7.70706 51.4116 7 50.5213 7C49.6381 7 48.909 7.70706 48.909 8.5672C48.909 9.43463 49.6381 10.1417 50.5213 10.1417Z" fill="black"/>
<path d="M53.9296 22.7813H56.9159V16.4469C56.9159 15.0692 57.8833 14.1216 59.2012 14.1216C59.6148 14.1216 60.1826 14.1945 60.463 14.2893V11.5339C60.1966 11.4683 59.8251 11.4246 59.5236 11.4246C58.3179 11.4246 57.3295 12.1535 56.9369 13.5385H56.8248V11.585H53.9296V22.7813Z" fill="black"/>
<path d="M65.9427 23C68.6066 23 70.4011 21.6515 70.8217 19.574L68.0598 19.3845C67.7583 20.2374 66.9872 20.682 65.9918 20.682C64.4987 20.682 63.5523 19.6542 63.5523 17.985V17.9777H70.8848V17.1248C70.8848 13.3198 68.6697 11.4392 65.8236 11.4392C62.655 11.4392 60.6011 13.779 60.6011 17.2342C60.6011 20.7841 62.627 23 65.9427 23ZM63.5523 16.0533C63.6154 14.7777 64.5478 13.7572 65.8726 13.7572C67.1695 13.7572 68.0668 14.7194 68.0738 16.0533H63.5523Z" fill="black"/>
<path d="M78.1539 11.585H76.0158V10.8342C76.0158 10.0761 76.3103 9.63144 77.1865 9.63144C77.544 9.63144 77.9085 9.71162 78.1469 9.7918L78.6726 7.45923C78.3011 7.3426 77.4809 7.15307 76.5626 7.15307C74.5367 7.15307 73.0296 8.34123 73.0296 10.7759V11.585H71.5084V13.9175H73.0296V22.7813H76.0158V13.9175H78.1539V11.585Z" fill="black"/>
<path d="M83.9877 23C87.2543 23 89.2872 20.6747 89.2872 17.2269C89.2872 13.7572 87.2543 11.4392 83.9877 11.4392C80.721 11.4392 78.6881 13.7572 78.6881 17.2269C78.6881 20.6747 80.721 23 83.9877 23ZM84.0017 20.5945C82.4945 20.5945 81.7234 19.1585 81.7234 17.205C81.7234 15.2515 82.4945 13.8082 84.0017 13.8082C85.4808 13.8082 86.2519 15.2515 86.2519 17.205C86.2519 19.1585 85.4808 20.5945 84.0017 20.5945Z" fill="black"/>
<path d="M92.8498 11.585H89.7653L92.8498 17.1831L89.6532 22.7813H92.7376L94.8266 18.9107L96.9506 22.7813H100L96.7964 17.1831L99.9159 11.585H96.8525L94.8266 15.4993L92.8498 11.585Z" fill="black"/>
<defs>
<linearGradient id="paint0_linear" x1="-3.17517e-05" y1="15.9581" x2="29.1026" y2="15.9581" gradientUnits="userSpaceOnUse">
<stop stop-color="#9059FF"/>
<stop offset="1" stop-color="#F770FF"/>
</linearGradient>
<clipPath id="clip0">
<rect width="32" height="33" fill="white"/>
</clipPath>
</defs>
</svg>
