<svg width="756" height="792" viewBox="0 0 756 792" fill="none" xmlns="http://www.w3.org/2000/svg">
<path d="M287.48 14.0312C346.377 -4.67705 409.623 -4.67709 468.52 14.0312L547.52 39.125C671.294 78.4416 756 193.431 756 324.084V392.282C756 516.421 690.056 609.509 654.938 651.112C632.314 677.914 603.257 706.244 567.964 730.377C540.834 748.927 472.399 791.458 378 791.458C285.914 791.458 218.393 751.536 188.246 731.127C151.576 706.301 121.83 677.037 98.959 649.55C62.3922 605.603 0.000136241 513.447 0 392.282V324.084C0 193.43 84.7066 78.4414 208.48 39.125L287.48 14.0312ZM381.481 285.581C379.358 284.906 377.087 284.865 374.945 285.455L374.519 285.581L295.519 310.676C290.744 312.192 287.5 316.615 287.5 321.625V389.823C287.5 413.287 301.646 441.193 319.959 463.202C329.123 474.216 339.353 483.779 349.419 490.594C359.473 497.4 369.417 501.5 378 501.5C386.058 501.5 395.74 497.396 405.689 490.593C415.654 483.78 425.948 474.218 435.244 463.205C453.819 441.2 468.5 413.292 468.5 389.823V321.625C468.5 316.615 465.256 312.192 460.481 310.676L381.481 285.581ZM375.903 285.743C376.031 285.718 376.16 285.696 376.288 285.676C376.16 285.696 376.031 285.718 375.903 285.743ZM379.609 285.661C379.646 285.667 379.684 285.672 379.721 285.678C379.684 285.672 379.646 285.667 379.609 285.661ZM376.357 285.665C376.471 285.648 376.586 285.633 376.7 285.619C376.586 285.633 376.471 285.648 376.357 285.665ZM379.224 285.61C379.259 285.614 379.295 285.619 379.331 285.623C379.295 285.619 379.259 285.614 379.224 285.61ZM377.579 285.55C377.307 285.56 377.036 285.581 376.766 285.611C376.896 285.596 377.027 285.583 377.158 285.573L377.579 285.55Z" fill="#0060DF" fill-opacity="0.035"/>
<path d="M302.012 59.7787C351.453 44.0738 404.547 44.0738 453.988 59.7787L532.988 84.8734C636.903 117.882 708 214.417 708 324.084V392.282C708 499.592 650.637 581.792 618.258 620.15C597.858 644.316 571.935 669.514 540.871 690.754C516.625 707.333 457.995 743.458 378 743.458C299.858 743.458 241.951 709.52 215.154 691.379C182.926 669.561 156.44 643.586 135.856 618.848C102.309 578.531 48 497.107 48 392.282V324.084C48.0001 214.416 119.098 117.882 223.012 84.8734L302.012 59.7787ZM381.481 285.581C379.358 284.907 377.087 284.865 374.945 285.455L374.519 285.581L295.519 310.676C290.744 312.193 287.5 316.615 287.5 321.625V389.824C287.5 413.287 301.646 441.193 319.959 463.203C329.123 474.216 339.353 483.78 349.419 490.594C359.473 497.401 369.417 501.5 378 501.5C386.058 501.5 395.74 497.396 405.689 490.593C415.654 483.78 425.948 474.218 435.244 463.205C453.819 441.2 468.5 413.292 468.5 389.824V321.625C468.5 316.615 465.256 312.193 460.481 310.676L381.481 285.581ZM375.903 285.744C376.031 285.719 376.16 285.696 376.288 285.676C376.16 285.696 376.031 285.719 375.903 285.744ZM379.609 285.661C379.646 285.667 379.684 285.672 379.721 285.678C379.684 285.672 379.646 285.667 379.609 285.661ZM376.357 285.665C376.471 285.648 376.586 285.633 376.7 285.619C376.586 285.633 376.471 285.648 376.357 285.665ZM379.224 285.611C379.259 285.615 379.295 285.619 379.331 285.623C379.295 285.619 379.259 285.615 379.224 285.611ZM377.579 285.55C377.307 285.561 377.036 285.581 376.766 285.612C376.896 285.597 377.027 285.584 377.158 285.574L377.579 285.55Z" fill="#0060DF" fill-opacity="0.035"/>
<path d="M316.544 106.069C356.53 93.3676 399.47 93.3676 439.456 106.069L518.456 131.163C602.509 157.862 660 235.942 660 324.627V392.825C660 483.313 611.211 554.627 581.579 589.731C563.405 611.262 540.613 633.325 513.778 651.674C492.412 666.283 443.587 696.001 378 696.001C313.802 696.001 265.509 668.046 242.063 652.174C214.278 633.363 191.049 610.677 172.754 588.689C142.235 552.011 96.0001 481.32 96 392.825V324.627C96.0001 235.941 153.492 157.862 237.544 131.163L316.544 106.069ZM381.481 285.582C379.358 284.907 377.087 284.866 374.945 285.456L374.519 285.582L295.519 310.676C290.744 312.193 287.5 316.615 287.5 321.626V389.824C287.5 413.287 301.646 441.194 319.959 463.203C329.123 474.217 339.353 483.78 349.419 490.594C359.473 497.401 369.417 501.501 378 501.501C386.058 501.501 395.74 497.397 405.689 490.593C415.654 483.78 425.948 474.218 435.244 463.206C453.819 441.201 468.5 413.293 468.5 389.824V321.626C468.5 316.615 465.256 312.193 460.481 310.676L381.481 285.582ZM376.738 285.615C376.459 285.647 376.18 285.69 375.903 285.744C376.042 285.717 376.181 285.692 376.32 285.671L376.738 285.615ZM377.579 285.551L377.158 285.574C377.438 285.552 377.719 285.542 378 285.542C377.86 285.542 377.719 285.545 377.579 285.551Z" fill="#0060DF" fill-opacity="0.035"/>
<path d="M331.075 151.815C361.607 142.116 394.393 142.116 424.925 151.815L503.925 176.908C568.113 197.298 612 256.919 612 324.624V392.823C612 466.497 571.777 526.926 544.899 558.767C528.95 577.662 509.291 596.591 486.686 612.048C468.193 624.693 429.176 647.999 378 647.999C327.745 647.999 289.065 626.025 268.973 612.423C245.629 596.62 225.659 577.223 209.651 557.986C182.171 524.959 144 464.997 144 392.823V324.624C144 256.919 187.887 197.298 252.075 176.908L331.075 151.815ZM381.481 285.58C379.358 284.906 377.087 284.864 374.945 285.454L374.519 285.58L295.519 310.675C290.744 312.192 287.5 316.614 287.5 321.624V389.823C287.5 413.286 301.646 441.192 319.959 463.201C329.123 474.215 339.353 483.779 349.419 490.593C359.473 497.4 369.417 501.499 378 501.499C386.058 501.499 395.74 497.395 405.689 490.592C415.654 483.779 425.948 474.217 435.244 463.204C453.819 441.199 468.5 413.291 468.5 389.823V321.624C468.5 316.614 465.256 312.192 460.481 310.675L381.481 285.58ZM380.511 285.831C380.786 285.896 381.059 285.971 381.33 286.057C381.195 286.014 381.058 285.974 380.922 285.937L380.511 285.831Z" fill="#0060DF" fill-opacity="0.035"/>
<path d="M345.606 197.562C366.683 190.867 389.317 190.867 410.394 197.562L489.394 222.657C533.713 236.735 564 277.897 564 324.625V392.823C564 449.691 532.334 499.239 508.221 527.805C494.496 544.064 477.97 559.86 459.593 572.425C443.968 583.109 414.761 600 378 600C341.686 600 312.619 584.007 295.882 572.675C276.98 559.879 260.268 543.772 246.549 527.285C222.119 497.924 192 448.688 192 392.823V324.625C192 277.896 222.287 236.735 266.606 222.657L345.606 197.562ZM381.481 285.582C379.358 284.907 377.087 284.866 374.945 285.456L374.519 285.582L295.519 310.676C290.744 312.193 287.5 316.615 287.5 321.626V389.824C287.5 413.287 301.646 441.194 319.959 463.203C329.123 474.217 339.353 483.78 349.419 490.594C359.473 497.401 369.417 501.501 378 501.501C386.058 501.501 395.74 497.397 405.689 490.593C415.654 483.78 425.948 474.218 435.244 463.206C453.819 441.201 468.5 413.293 468.5 389.824V321.626C468.5 316.615 465.256 312.193 460.481 310.676L381.481 285.582ZM379.68 285.671C379.958 285.714 380.235 285.767 380.511 285.832C380.373 285.8 380.235 285.771 380.097 285.744L379.68 285.671Z" fill="#0060DF" fill-opacity="0.035"/>
<path d="M360.139 243.31C371.76 239.618 384.24 239.618 395.861 243.31L474.861 268.404C499.309 276.17 516 298.869 516 324.625V392.823C516 432.897 492.879 471.566 471.541 496.844C460.042 510.466 446.648 523.129 432.5 532.803C419.735 541.531 400.339 551.999 378 551.999C355.626 551.999 336.17 541.986 322.79 532.928C308.33 523.138 294.876 510.32 283.446 496.583C262.081 470.906 240 432.394 240 392.823V324.625C240 298.868 256.692 276.17 281.139 268.404L360.139 243.31ZM381.481 285.581C379.358 284.907 377.087 284.865 374.945 285.455L374.519 285.581L295.519 310.676C290.744 312.192 287.5 316.615 287.5 321.625V389.823C287.5 413.287 301.646 441.193 319.959 463.202C329.123 474.216 339.353 483.779 349.419 490.594C359.473 497.401 369.417 501.5 378 501.5C386.058 501.5 395.74 497.396 405.689 490.593C415.654 483.78 425.948 474.218 435.244 463.205C453.819 441.2 468.5 413.292 468.5 389.823V321.625C468.5 316.615 465.256 312.192 460.481 310.676L381.481 285.581Z" fill="#0060DF" fill-opacity="0.035"/>
<path d="M378.5 469V318.481C378.5 315.771 381.139 313.845 383.72 314.672L439.72 332.61C441.376 333.14 442.5 334.68 442.5 336.419V391C442.5 422.612 401.437 466.328 382.407 472.311C380.3 472.974 378.5 471.209 378.5 469Z" fill="#0060DF" fill-opacity="0.16"/>
<path d="M378.75 318.481C378.75 316.02 381.072 314.248 383.417 314.845L383.644 314.91L439.644 332.848C441.196 333.345 442.25 334.789 442.25 336.419V391C442.25 406.717 432.031 425.492 419.396 441.109C413.083 448.912 406.177 455.914 399.665 461.336C393.351 466.593 387.425 470.35 382.778 471.927L382.332 472.073C381.368 472.376 380.481 472.126 379.829 471.546C379.173 470.962 378.75 470.038 378.75 469V318.481Z" stroke="black" stroke-opacity="0.04" stroke-width="0.5" stroke-linecap="round" stroke-linejoin="round"/>
</svg>
