<svg width="20" height="20" viewBox="0 0 20 20" fill="none" xmlns="http://www.w3.org/2000/svg">
<path d="M17.9597 4.18429L15.9486 3.03231L11.3571 0.403416L11.2143 0.321285C10.4615 -0.107095 9.53877 -0.107095 8.78604 0.321285L8.64321 0.40413L2.18702 4.10215L2.04418 4.185C1.29537 4.61375 0.832464 5.40968 0.830078 6.27255V13.9964C0.832651 14.8594 1.29548 15.6555 2.04418 16.0847L8.64535 19.8648C9.12911 20.1426 9.7463 19.9788 10.0287 19.4977C10.1631 19.2669 10.1995 18.9919 10.1299 18.734C10.0603 18.4762 9.89036 18.2569 9.65806 18.1251L3.20187 14.4278C2.98734 14.3054 2.85465 14.0777 2.85406 13.8307V6.43824C2.85465 6.19128 2.98734 5.96351 3.20187 5.84118L9.65091 2.14102C9.86568 2.01887 10.1289 2.01887 10.3437 2.14102L16.802 5.83976C17.0155 5.96254 17.1475 6.18977 17.1484 6.4361V13.8336C17.1478 14.0805 17.0151 14.3083 16.8006 14.4306L14.6159 15.6819L13.5132 14.0193C14.625 13.0345 15.2617 11.6207 15.2622 10.1355C15.2622 7.25526 12.9004 4.91203 9.99658 4.91203C7.09272 4.91203 4.73093 7.25526 4.73093 10.1355C4.73093 13.0158 7.09272 15.3591 9.99658 15.3591C10.6024 15.3596 11.2037 15.2557 11.7742 15.052L13.4489 17.5773C13.4751 17.6158 13.5034 17.6528 13.5339 17.688L13.5518 17.7059C13.5871 17.744 13.6256 17.7791 13.6667 17.8108C13.6767 17.8187 13.686 17.8273 13.6967 17.8351C13.7421 17.8678 13.7898 17.8969 13.8396 17.9223L13.8739 17.9373C13.9184 17.9572 13.9642 17.9741 14.011 17.988L14.0424 17.998C14.0956 18.0114 14.1498 18.0203 14.2045 18.0244H14.2495C14.2652 18.0244 14.2802 18.0244 14.2959 18.0244C14.3267 18.0244 14.3574 18.0208 14.3874 18.018C14.4016 18.018 14.4152 18.018 14.4295 18.018C14.4872 18.01 14.544 17.9971 14.5995 17.9794C14.6145 17.9751 14.6288 17.9687 14.6437 17.963C14.6879 17.9469 14.7308 17.9278 14.7723 17.9058C14.7816 17.9008 14.7923 17.898 14.8016 17.8923L17.9597 16.0875C18.7092 15.6577 19.1721 14.8604 19.1738 13.9964V6.27183C19.1714 5.40897 18.7085 4.61303 17.9597 4.18429ZM6.75563 10.1355C6.74463 8.82229 7.52725 7.63222 8.7374 7.12202C9.94755 6.61182 11.346 6.88237 12.2785 7.8071C13.211 8.73183 13.4933 10.1279 12.9933 11.3423C12.4933 12.5567 11.3099 13.3494 9.99658 13.3494C8.21511 13.3545 6.76546 11.917 6.75563 10.1355Z" fill="black"/>
<path d="M17.9597 4.18429L15.9486 3.03231L11.3571 0.403416L11.2143 0.321285C10.4615 -0.107095 9.53877 -0.107095 8.78604 0.321285L8.64321 0.40413L2.18702 4.10215L2.04418 4.185C1.29537 4.61375 0.832464 5.40968 0.830078 6.27255V13.9964C0.832651 14.8594 1.29548 15.6555 2.04418 16.0847L8.64535 19.8648C9.12911 20.1426 9.7463 19.9788 10.0287 19.4977C10.1631 19.2669 10.1995 18.9919 10.1299 18.734C10.0603 18.4762 9.89036 18.2569 9.65806 18.1251L3.20187 14.4278C2.98734 14.3054 2.85465 14.0777 2.85406 13.8307V6.43824C2.85465 6.19128 2.98734 5.96351 3.20187 5.84118L9.65091 2.14102C9.86568 2.01887 10.1289 2.01887 10.3437 2.14102L16.802 5.83976C17.0155 5.96254 17.1475 6.18977 17.1484 6.4361V13.8336C17.1478 14.0805 17.0151 14.3083 16.8006 14.4306L14.6159 15.6819L13.5132 14.0193C14.625 13.0345 15.2617 11.6207 15.2622 10.1355C15.2622 7.25526 12.9004 4.91203 9.99658 4.91203C7.09272 4.91203 4.73093 7.25526 4.73093 10.1355C4.73093 13.0158 7.09272 15.3591 9.99658 15.3591C10.6024 15.3596 11.2037 15.2557 11.7742 15.052L13.4489 17.5773C13.4751 17.6158 13.5034 17.6528 13.5339 17.688L13.5518 17.7059C13.5871 17.744 13.6256 17.7791 13.6667 17.8108C13.6767 17.8187 13.686 17.8273 13.6967 17.8351C13.7421 17.8678 13.7898 17.8969 13.8396 17.9223L13.8739 17.9373C13.9184 17.9572 13.9642 17.9741 14.011 17.988L14.0424 17.998C14.0956 18.0114 14.1498 18.0203 14.2045 18.0244H14.2495C14.2652 18.0244 14.2802 18.0244 14.2959 18.0244C14.3267 18.0244 14.3574 18.0208 14.3874 18.018C14.4016 18.018 14.4152 18.018 14.4295 18.018C14.4872 18.01 14.544 17.9971 14.5995 17.9794C14.6145 17.9751 14.6288 17.9687 14.6437 17.963C14.6879 17.9469 14.7308 17.9278 14.7723 17.9058C14.7816 17.9008 14.7923 17.898 14.8016 17.8923L17.9597 16.0875C18.7092 15.6577 19.1721 14.8604 19.1738 13.9964V6.27183C19.1714 5.40897 18.7085 4.61303 17.9597 4.18429ZM6.75563 10.1355C6.74463 8.82229 7.52725 7.63222 8.7374 7.12202C9.94755 6.61182 11.346 6.88237 12.2785 7.8071C13.211 8.73183 13.4933 10.1279 12.9933 11.3423C12.4933 12.5567 11.3099 13.3494 9.99658 13.3494C8.21511 13.3545 6.76546 11.917 6.75563 10.1355Z" fill="black"/>
<path d="M17.9597 4.18429L15.9486 3.03231L13.1432 1.42681C12.4985 1.0585 11.7098 1.04664 11.0543 1.39539L9.65091 2.14102C9.86568 2.01887 10.1289 2.01887 10.3437 2.14102L16.802 5.83976C17.0155 5.96254 17.1475 6.18977 17.1484 6.4361V13.8336C17.1478 14.0805 17.0151 14.3083 16.8006 14.4306L14.6159 15.6819L14.9566 16.2268C15.3644 16.8769 16.2131 17.0885 16.8784 16.706L17.9597 16.0875C18.7104 15.6589 19.1738 14.8608 19.1738 13.9964V6.27183C19.1727 5.40861 18.7095 4.61206 17.9597 4.18429Z" fill="black"/>
<path d="M17.1484 6.43822V10.027H19.1738L19.1738 6.27183C19.1727 5.40861 18.7095 4.61206 17.9597 4.18429L15.9486 3.03231L13.1432 1.42681C12.4985 1.0585 11.7098 1.04664 11.0543 1.39539L9.65091 2.14102C9.86568 2.01887 10.1289 2.01887 10.3437 2.14102L16.802 5.83976C17.0162 5.96292 17.1483 6.19112 17.1484 6.43822Z" fill="black"/>
<path d="M17.1484 10.6048L17.1484 13.8336C17.1478 14.0805 17.0151 14.3083 16.8006 14.4306L14.6159 15.6819L14.9566 16.2268C15.3644 16.8769 16.2131 17.0885 16.8784 16.706L17.9597 16.0875C18.7104 15.6589 19.1738 14.8608 19.1738 13.9964L19.1738 10.6048H17.1484Z" fill="black"/>
<path d="M14.4602 15.4476L13.5132 14.0193C13.0056 14.4725 12.4151 14.8232 11.7742 15.052L12.7812 16.5725C13.3501 16.2096 13.9098 15.8347 14.4602 15.4476Z" fill="black"/>
</svg>
