<svg width="35" height="41" viewBox="0 0 35 41" fill="none" xmlns="http://www.w3.org/2000/svg">
<path d="M24.1299 39.6751L24.1299 1.32512C24.1299 0.648558 23.5814 0.100098 22.9049 0.100098L1.8949 0.100098C1.21834 0.100098 0.669882 0.648558 0.669882 1.32512L0.669882 39.6751C0.669882 40.3516 1.21834 40.9001 1.8949 40.9001H22.9049C23.5814 40.9001 24.1299 40.3516 24.1299 39.6751Z" fill="#D9BFFF"/>
<path d="M1.89392 0.100098H22.9059C23.2305 0.100098 23.5419 0.229054 23.7714 0.458599C24.001 0.688143 24.1299 0.999473 24.1299 1.3241V2.2778H0.669922V1.3241C0.669922 0.999473 0.798879 0.688143 1.02842 0.458599C1.25797 0.229054 1.5693 0.100098 1.89392 0.100098Z" fill="#7542E5"/>
<path d="M24.1299 2.27979H0.669922V5.50502H24.1299V2.27979Z" fill="#592ACB"/>
<path d="M22.9579 2.67163H1.84184C1.60693 2.67163 1.4165 2.86206 1.4165 3.09697V4.68715C1.4165 4.92206 1.60693 5.11249 1.84184 5.11249H22.9579C23.1928 5.11249 23.3832 4.92206 23.3832 4.68715V3.09697C23.3832 2.86206 23.1928 2.67163 22.9579 2.67163Z" fill="#45278D"/>
<path d="M3.54635 3.7793H2.58653C2.4902 3.7793 2.41211 3.85739 2.41211 3.95372V4.46678C2.41211 4.56311 2.4902 4.6412 2.58653 4.6412H3.54635C3.64268 4.6412 3.72077 4.56311 3.72077 4.46678V3.95372C3.72077 3.85739 3.64268 3.7793 3.54635 3.7793Z" fill="#AB71FF" stroke="#AB71FF" stroke-linecap="round" stroke-linejoin="round"/>
<path d="M3.06669 3.05811C2.95848 3.05811 2.85471 3.10109 2.77819 3.17761C2.70168 3.25412 2.65869 3.3579 2.65869 3.46611V4.04547C2.65869 4.15367 2.70168 4.25745 2.77819 4.33397C2.85471 4.41048 2.95848 4.45347 3.06669 4.45347C3.1749 4.45347 3.27868 4.41048 3.35519 4.33397C3.43171 4.25745 3.47469 4.15367 3.47469 4.04547V3.46611C3.47469 3.3579 3.43171 3.25412 3.35519 3.17761C3.27868 3.10109 3.1749 3.05811 3.06669 3.05811ZM3.32679 4.04343C3.32902 4.07902 3.32393 4.1147 3.31184 4.14825C3.29975 4.1818 3.28092 4.21252 3.2565 4.23852C3.23208 4.26451 3.2026 4.28523 3.16987 4.29939C3.13713 4.31355 3.10185 4.32086 3.06618 4.32086C3.03052 4.32086 2.99523 4.31355 2.9625 4.29939C2.92977 4.28523 2.90028 4.26451 2.87586 4.23852C2.85144 4.21252 2.83261 4.1818 2.82052 4.14825C2.80843 4.1147 2.80334 4.07902 2.80557 4.04343V3.46611C2.80334 3.43051 2.80843 3.39484 2.82052 3.36128C2.83261 3.32773 2.85144 3.29701 2.87586 3.27101C2.90028 3.24502 2.92977 3.2243 2.9625 3.21014C2.99523 3.19598 3.03052 3.18867 3.06618 3.18867C3.10185 3.18867 3.13713 3.19598 3.16987 3.21014C3.2026 3.2243 3.23208 3.24502 3.2565 3.27101C3.28092 3.29701 3.29975 3.32773 3.31184 3.36128C3.32393 3.39484 3.32902 3.43051 3.32679 3.46611V4.04343Z" fill="#AB71FF" stroke="#AB71FF" stroke-linecap="round" stroke-linejoin="round"/>
<path d="M17.1604 3.24683H4.96838C4.8022 3.24683 4.66748 3.38154 4.66748 3.54773V4.14953C4.66748 4.31571 4.8022 4.45043 4.96838 4.45043H17.1604C17.3266 4.45043 17.4613 4.31571 17.4613 4.14953V3.54773C17.4613 3.38154 17.3266 3.24683 17.1604 3.24683Z" fill="#D9BFFF"/>
<path d="M22.9059 40.9001H1.89388C1.56926 40.9001 1.25793 40.7712 1.02838 40.5416C0.798836 40.3121 0.66988 40.0008 0.66988 39.6761V38.7204H24.1299V39.6741C24.1301 39.835 24.0987 39.9944 24.0373 40.1431C23.9759 40.2919 23.8858 40.427 23.7721 40.5409C23.6584 40.6548 23.5234 40.7451 23.3748 40.8068C23.2261 40.8684 23.0668 40.9001 22.9059 40.9001Z" fill="#7542E5"/>
<path d="M24.1299 35.0483H0.669922V38.7203H24.1299V35.0483Z" fill="#592ACB"/>
<path d="M3.00151 36.0266L2.19775 36.8844H4.03375" stroke="#AB71FF" stroke-width="3" stroke-linecap="round" stroke-linejoin="round"/>
<path d="M2.19775 36.8843L3.00151 37.7431" stroke="#AB71FF" stroke-width="3" stroke-linecap="round" stroke-linejoin="round"/>
<path d="M7.88038 36.0266L8.68415 36.8844H6.84814" stroke="#AB71FF" stroke-width="3" stroke-linecap="round" stroke-linejoin="round"/>
<path d="M8.68413 36.8843L7.88037 37.7431" stroke="#AB71FF" stroke-width="3" stroke-linecap="round" stroke-linejoin="round"/>
<path d="M17.7121 36.1489H16.4432C16.2866 36.1489 16.1597 36.2759 16.1597 36.4325V37.3372C16.1597 37.4938 16.2866 37.6208 16.4432 37.6208H17.7121C17.8687 37.6208 17.9957 37.4938 17.9957 37.3372V36.4325C17.9957 36.2759 17.8687 36.1489 17.7121 36.1489Z" stroke="#AB71FF" stroke-width="3" stroke-linecap="round" stroke-linejoin="round"/>
<path d="M22.6461 36.0581H20.8101" stroke="#AB71FF" stroke-width="3" stroke-linecap="round" stroke-linejoin="round"/>
<path d="M22.6461 37.7104H20.8101" stroke="#AB71FF" stroke-width="3" stroke-linecap="round" stroke-linejoin="round"/>
<path d="M22.6461 36.8843H20.8101" stroke="#AB71FF" stroke-width="3" stroke-linecap="round" stroke-linejoin="round"/>
<path d="M12.4072 37.8023C12.2485 37.8027 12.0924 37.762 11.9541 37.6841C11.8159 37.6062 11.7002 37.4937 11.6183 37.3578C11.5365 37.2218 11.4913 37.067 11.4871 36.9083C11.483 36.7497 11.52 36.5927 11.5947 36.4526C11.6693 36.3126 11.7789 36.1942 11.9129 36.1092C12.0469 36.0242 12.2007 35.9753 12.3592 35.9674C12.5177 35.9596 12.6755 35.9929 12.8173 36.0642C12.9591 36.1355 13.0799 36.2424 13.1681 36.3743C13.176 36.3842 13.1817 36.3957 13.1849 36.4079C13.1881 36.4202 13.1888 36.4329 13.1868 36.4455C13.1849 36.458 13.1804 36.4699 13.1735 36.4806C13.1667 36.4913 13.1578 36.5004 13.1473 36.5075C13.1368 36.5146 13.1249 36.5194 13.1125 36.5216C13.1 36.5239 13.0872 36.5235 13.0749 36.5206C13.0626 36.5177 13.051 36.5122 13.0409 36.5046C13.0308 36.497 13.0223 36.4873 13.0161 36.4763C12.9214 36.3356 12.7809 36.232 12.6185 36.1832C12.4561 36.1343 12.2818 36.1432 12.1252 36.2082C11.9686 36.2733 11.8393 36.3906 11.7593 36.5401C11.6793 36.6897 11.6536 36.8623 11.6864 37.0287C11.7193 37.1951 11.8087 37.345 11.9395 37.4529C12.0703 37.5608 12.2345 37.6202 12.4041 37.6208C12.5737 37.6215 12.7383 37.5634 12.8699 37.4565C13.0016 37.3496 13.0922 37.2004 13.1263 37.0342C13.1314 37.0106 13.1456 36.9899 13.1658 36.9766C13.186 36.9632 13.2106 36.9583 13.2344 36.9628C13.2463 36.9653 13.2576 36.97 13.2676 36.9768C13.2776 36.9837 13.2862 36.9924 13.2929 37.0025C13.2995 37.0127 13.3041 37.024 13.3063 37.036C13.3085 37.0479 13.3083 37.0601 13.3058 37.072C13.2627 37.2784 13.1498 37.4637 12.9862 37.5967C12.8225 37.7297 12.6181 37.8023 12.4072 37.8023Z" fill="#AB71FF" stroke="#AB71FF" stroke-linecap="round" stroke-linejoin="round"/>
<path d="M12.7745 36.6498H13.2365C13.2564 36.6496 13.2753 36.6415 13.2892 36.6274C13.3032 36.6133 13.311 36.5942 13.311 36.5744V36.1133C13.3111 36.0985 13.3069 36.0839 13.2987 36.0716C13.2905 36.0592 13.2788 36.0495 13.2651 36.0438C13.2514 36.0381 13.2363 36.0366 13.2218 36.0396C13.2072 36.0425 13.1939 36.0497 13.1835 36.0603L12.7214 36.5223C12.7109 36.5328 12.7036 36.5461 12.7007 36.5606C12.6978 36.5752 12.6992 36.5903 12.7049 36.604C12.7106 36.6177 12.7203 36.6294 12.7327 36.6376C12.7451 36.6457 12.7596 36.65 12.7745 36.6498Z" fill="#AB71FF" stroke="#AB71FF" stroke-linecap="round" stroke-linejoin="round"/>
<path d="M11.0578 7.65942H2.63767C2.49233 7.65942 2.37451 7.77724 2.37451 7.92258V8.71614C2.37451 8.86148 2.49233 8.9793 2.63767 8.9793H11.0578C11.2031 8.9793 11.3209 8.86148 11.3209 8.71614V7.92258C11.3209 7.77724 11.2031 7.65942 11.0578 7.65942Z" fill="#C689FF"/>
<path d="M21.3394 10.1858H2.76211C2.54805 10.1858 2.37451 10.3593 2.37451 10.5734V11.1181C2.37451 11.3321 2.54805 11.5057 2.76211 11.5057H21.3394C21.5534 11.5057 21.727 11.3321 21.727 11.1181V10.5734C21.727 10.3593 21.5534 10.1858 21.3394 10.1858Z" fill="#C689FF"/>
<path d="M21.3394 12.7124H2.76211C2.54805 12.7124 2.37451 12.8859 2.37451 13.1V13.6447C2.37451 13.8587 2.54805 14.0323 2.76211 14.0323H21.3394C21.5534 14.0323 21.727 13.8587 21.727 13.6447V13.1C21.727 12.8859 21.5534 12.7124 21.3394 12.7124Z" fill="#C689FF"/>
<path d="M21.3394 15.3521H2.76211C2.54805 15.3521 2.37451 15.5256 2.37451 15.7397V16.2843C2.37451 16.4984 2.54805 16.6719 2.76211 16.6719H21.3394C21.5534 16.6719 21.727 16.4984 21.727 16.2843V15.7397C21.727 15.5256 21.5534 15.3521 21.3394 15.3521Z" fill="#C689FF"/>
<path d="M9.16465 17.991H2.60809C2.47909 17.991 2.37451 18.0955 2.37451 18.2245V19.0773C2.37451 19.2063 2.47909 19.3108 2.60809 19.3108H9.16465C9.29365 19.3108 9.39823 19.2063 9.39823 19.0773V18.2245C9.39823 18.0955 9.29365 17.991 9.16465 17.991Z" fill="#C689FF"/>
<path d="M21.3394 22.8206H2.76211C2.54805 22.8206 2.37451 22.9941 2.37451 23.2082V23.7528C2.37451 23.9669 2.54805 24.1404 2.76211 24.1404H21.3394C21.5534 24.1404 21.727 23.9669 21.727 23.7528V23.2082C21.727 22.9941 21.5534 22.8206 21.3394 22.8206Z" fill="#C689FF"/>
<path d="M21.3394 25.3481H2.76211C2.54805 25.3481 2.37451 25.5217 2.37451 25.7357V26.2804C2.37451 26.4945 2.54805 26.668 2.76211 26.668H21.3394C21.5534 26.668 21.727 26.4945 21.727 26.2804V25.7357C21.727 25.5217 21.5534 25.3481 21.3394 25.3481Z" fill="#C689FF"/>
<path d="M21.3394 27.9868H2.76211C2.54805 27.9868 2.37451 28.1604 2.37451 28.3744V28.9191C2.37451 29.1332 2.54805 29.3067 2.76211 29.3067H21.3394C21.5534 29.3067 21.727 29.1332 21.727 28.9191V28.3744C21.727 28.1604 21.5534 27.9868 21.3394 27.9868Z" fill="#C689FF"/>
<path d="M13.4079 30.6257H2.67133C2.5074 30.6257 2.37451 30.7586 2.37451 30.9226V31.6488C2.37451 31.8127 2.5074 31.9456 2.67133 31.9456H13.4079C13.5718 31.9456 13.7047 31.8127 13.7047 31.6488V30.9226C13.7047 30.7586 13.5718 30.6257 13.4079 30.6257Z" fill="#C689FF"/>
<path d="M24.1297 30.7001C29.763 30.7001 34.3297 26.1334 34.3297 20.5C34.3297 14.8667 29.763 10.3 24.1297 10.3C18.4964 10.3 13.9297 14.8667 13.9297 20.5C13.9297 26.1334 18.4964 30.7001 24.1297 30.7001Z" fill="#9059FF"/>
<path d="M24.1298 29.213C28.9418 29.213 32.8427 25.3122 32.8427 20.5002C32.8427 15.6882 28.9418 11.7874 24.1298 11.7874C19.3179 11.7874 15.417 15.6882 15.417 20.5002C15.417 25.3122 19.3179 29.213 24.1298 29.213Z" fill="#592ACB"/>
<path d="M24.1299 21.8446C26.2835 21.8446 28.0294 20.0987 28.0294 17.9451C28.0294 15.7915 26.2835 14.0457 24.1299 14.0457C21.9763 14.0457 20.2305 15.7915 20.2305 17.9451C20.2305 20.0987 21.9763 21.8446 24.1299 21.8446Z" fill="#D9BFFF"/>
<path d="M27.9997 21.8445C26.9552 21.8445 25.3293 22.993 24.1298 23.0042C22.9303 23.0154 21.3013 21.8445 20.2599 21.8445C19.7112 21.8445 18.6167 22.179 18.6167 23.3367C18.6167 24.6464 21.0565 26.9537 24.1298 26.9537C27.2031 26.9537 29.6429 24.6464 29.6429 23.3367C29.6429 22.175 28.5484 21.8445 27.9997 21.8445Z" fill="#D9BFFF"/>
</svg>
