<svg width="36" height="36" viewBox="0 0 36 36" fill="none" xmlns="http://www.w3.org/2000/svg">
<g clip-path="url(#clip0_488_8416)">
<path d="M18 36C8.04375 36 0 27.9563 0 18C0 8.04375 8.04375 0 18 0C27.9563 0 36 8.04375 36 18C36 27.9563 27.9563 36 18 36Z" fill="#7542E4"/>
<path d="M17.9998 20.1938C17.7748 20.1938 17.5498 20.025 17.5498 19.7437V8.325C17.5498 8.1 17.7186 7.875 17.9998 7.875C18.2248 7.875 18.4498 8.04375 18.4498 8.325V19.7437C18.4498 20.025 18.2248 20.1938 17.9998 20.1938Z" fill="#DABDFF"/>
<path d="M25.4811 19.2939H17.6061C17.0998 19.2939 16.7061 18.9001 16.7061 18.3939C16.7061 17.8876 17.0998 17.4939 17.6061 17.4939H25.4811C25.9873 17.4939 26.3811 17.8876 26.3811 18.3939C26.3248 18.9001 25.9311 19.2939 25.4811 19.2939Z" fill="#DABDFF"/>
<path d="M32.0625 17.3811H30.2625C29.925 17.3811 29.7 17.6624 29.7 17.9999C29.7 18.3374 29.9812 18.5624 30.2625 18.5624H32.0625C32.4 18.5624 32.625 18.2811 32.625 17.9436C32.6812 17.6624 32.4 17.3811 32.0625 17.3811ZM6.3 17.9999C6.3 17.6624 6.01875 17.4374 5.7375 17.4374H3.9375C3.6 17.4374 3.375 17.7186 3.375 18.0561C3.375 18.3936 3.65625 18.6186 3.9375 18.6186H5.7375C6.075 18.6186 6.3 18.3374 6.3 17.9999ZM18 29.6999C17.6625 29.6999 17.4375 29.9811 17.4375 30.2624V32.0624C17.4375 32.3999 17.7187 32.6249 18.0562 32.6249C18.3937 32.6249 18.6187 32.3436 18.6187 32.0624V30.2624C18.6187 29.9249 18.3375 29.6999 18 29.6999ZM24.5813 28.4624C24.4125 28.1811 24.0188 28.1249 23.7375 28.2936C23.625 28.4061 23.5125 28.5186 23.4563 28.6874C23.4 28.8561 23.4562 29.0249 23.5125 29.1374L24.4688 30.6561C24.5812 30.8249 24.75 30.9374 24.975 30.9374C25.0875 30.9374 25.2 30.8811 25.3125 30.8249C25.425 30.7686 25.5375 30.5999 25.5938 30.4311C25.65 30.2624 25.5938 30.0936 25.5375 29.9811L24.5813 28.4624ZM30.6 24.5249L29.0813 23.6249C28.8 23.4561 28.4625 23.5686 28.2375 23.8499C28.1812 23.9624 28.125 24.1311 28.1812 24.2999C28.2375 24.4686 28.2937 24.5811 28.4625 24.6374L30.0375 25.5374C30.15 25.5936 30.2063 25.5936 30.3188 25.5936H30.4875C30.6562 25.5374 30.7687 25.4811 30.825 25.3124V25.2561C30.9937 25.0311 30.8813 24.6936 30.6 24.5249ZM6.8625 23.5124L5.34375 24.4686C5.0625 24.6374 4.95 25.0311 5.175 25.3686C5.2875 25.5374 5.4 25.5936 5.56875 25.6499H5.68125C5.79375 25.6499 5.90625 25.5936 6.01875 25.5374L7.5375 24.5811C7.81875 24.4124 7.93125 24.0186 7.70625 23.6811C7.5375 23.3999 7.14375 23.3436 6.8625 23.5124ZM12.2063 28.2374C11.8688 28.0686 11.5312 28.1249 11.3625 28.4061L10.4625 29.9811C10.4062 30.0936 10.35 30.2624 10.4062 30.4311C10.4625 30.5999 10.5188 30.7124 10.6875 30.7686H10.7438C10.8563 30.8249 10.9125 30.8249 11.025 30.8249C11.25 30.8249 11.4187 30.7124 11.5312 30.5436L12.4313 28.9686C12.4875 28.8561 12.5438 28.6874 12.4875 28.5186L12.2063 28.2374ZM18 3.3186C17.6625 3.3186 17.4375 3.59985 17.4375 3.8811V5.6811C17.4375 6.0186 17.7187 6.2436 18.0562 6.2436C18.3937 6.2436 18.6187 5.96235 18.6187 5.6811V3.93735C18.6187 3.59985 18.3375 3.3186 18 3.3186ZM11.3625 7.53735C11.4188 7.64985 11.5875 7.76235 11.7562 7.8186H11.8688C11.9812 7.8186 12.0938 7.76235 12.2063 7.7061C12.3188 7.64985 12.4313 7.4811 12.4875 7.31235C12.5438 7.1436 12.4875 6.97485 12.4313 6.86235L11.475 5.3436C11.3062 5.06235 10.9125 5.0061 10.6312 5.17485C10.5187 5.28735 10.4062 5.39985 10.35 5.5686C10.2937 5.73735 10.35 5.9061 10.4062 6.0186L11.3625 7.53735ZM7.5375 11.3061L5.9625 10.4061C5.68125 10.2374 5.34375 10.3499 5.11875 10.6311C5.0625 10.7436 5.00625 10.9124 5.0625 11.0811C5.11875 11.2499 5.175 11.3624 5.34375 11.4186L6.91875 12.3186C7.03125 12.3749 7.0875 12.3749 7.2 12.3749H7.36875C7.5375 12.3186 7.65 12.2624 7.7625 12.0936C7.81875 11.9811 7.875 11.8124 7.81875 11.6436C7.7625 11.5311 7.70625 11.4186 7.5375 11.3061ZM28.6875 12.5436H28.8C28.9125 12.5436 29.025 12.4874 29.1375 12.4311L30.6562 11.4749C30.7687 11.4186 30.8813 11.2499 30.9375 11.0811C30.9937 10.9124 30.9375 10.7436 30.825 10.6311C30.6562 10.3499 30.2625 10.2936 30.0375 10.4624L28.5188 11.4186C28.4062 11.5311 28.2938 11.6436 28.2375 11.8124C28.1812 11.9811 28.2375 12.1499 28.35 12.2624C28.4062 12.3749 28.5187 12.4874 28.6875 12.5436ZM25.3125 5.17485C25.2 5.1186 25.0312 5.06235 24.8625 5.1186C24.6938 5.17485 24.5812 5.2311 24.525 5.39985L23.625 6.97485C23.5688 7.08735 23.5125 7.2561 23.5688 7.42485C23.625 7.5936 23.6813 7.7061 23.85 7.8186C23.9625 7.87485 24.0188 7.87485 24.1313 7.87485C24.3563 7.87485 24.525 7.76235 24.6375 7.5936L25.5375 6.0186C25.5938 5.9061 25.65 5.73735 25.5938 5.5686C25.5938 5.39985 25.4813 5.28735 25.3125 5.17485Z" fill="#DABDFF"/>
</g>
<defs>
<clipPath id="clip0_488_8416">
<rect width="36" height="36" fill="white"/>
</clipPath>
</defs>
</svg>
