<svg width="20" height="20" viewBox="0 0 20 20" fill="none" xmlns="http://www.w3.org/2000/svg">
<path d="M10.1138 0.00152588C10.596 0.0167077 11.0686 0.137965 11.4984 0.355835L11.59 0.403748L11.6028 0.410767L11.6156 0.418091L17.5574 3.78937C18.0337 4.05244 18.4341 4.43146 18.7228 4.89014L18.7808 4.98566L18.8354 5.08331C19.0925 5.56229 19.2237 6.09863 19.2181 6.64215L19.2184 13.3685C19.2168 13.9463 19.063 14.5143 18.772 15.0143C18.4809 15.5144 18.0623 15.9294 17.5577 16.2158L17.5552 16.2173L17.5528 16.2186L11.611 19.5685C11.1261 19.8472 10.5771 19.9962 10.0168 19.9997L10.0171 20C10.0142 20 10.0112 19.9997 10.0082 19.9997C10.007 19.9997 10.0058 20 10.0046 20L10.0043 19.9997C9.43401 20.0026 8.87454 19.8522 8.38318 19.5654L2.4469 16.2186L2.4472 16.2183C1.93869 15.9338 1.51675 15.5185 1.22437 15.0162C0.932082 14.514 0.779658 13.9434 0.781555 13.3633L0.78125 6.63666C0.782916 6.0589 0.936671 5.49116 1.22772 4.99115L1.28387 4.89838C1.57158 4.43964 1.96891 4.05791 2.44202 3.78937L2.44476 3.78784L8.40759 0.41687L8.41888 0.410156L8.43048 0.403748C8.9146 0.138979 9.4579 0 10.0104 0L10.1138 0.00152588ZM2.65625 13.3633C2.65434 13.6126 2.71939 13.8578 2.84454 14.0729C2.96977 14.288 3.15061 14.4651 3.36761 14.5853L9.30939 17.9352C9.51768 18.0614 9.75662 18.1272 9.99969 18.125C10.2424 18.1244 10.4809 18.0588 10.6903 17.9352L16.6321 14.5853C16.8204 14.4784 16.9811 14.3292 17.102 14.1498L17.1515 14.071C17.2764 13.8564 17.3427 13.6121 17.3434 13.3633V6.64215C17.3496 6.39196 17.286 6.14485 17.1603 5.92895C17.0347 5.71312 16.8518 5.53671 16.6321 5.41992L10.6903 2.04895C10.4816 1.93482 10.2478 1.87502 10.0104 1.875C9.7729 1.875 9.53913 1.93483 9.33044 2.04895L3.36761 5.41992L3.28857 5.46844C3.10838 5.5872 2.95753 5.74663 2.84821 5.93445C2.72326 6.14911 2.65696 6.39333 2.65625 6.64215V13.3633Z" fill="black"/>
<path fill-rule="evenodd" clip-rule="evenodd" d="M5.00546 7.01255C5.14683 6.77033 5.4578 6.68858 5.70002 6.82996L6.12293 7.07679C6.36514 7.21817 6.4469 7.52913 6.30552 7.77135C6.16415 8.01357 5.85319 8.09532 5.61097 7.95394L5.18806 7.70711C4.94584 7.56573 4.86409 7.25477 5.00546 7.01255ZM6.95085 8.148C7.09223 7.90578 7.40319 7.82403 7.64541 7.96541L8.49123 8.45908C8.73345 8.60046 8.8152 8.91142 8.67383 9.15364C8.53245 9.39585 8.22149 9.47761 7.97927 9.33623L7.13345 8.84256C6.89123 8.70118 6.80948 8.39022 6.95085 8.148ZM9.31916 9.53029C9.46053 9.28807 9.77149 9.20632 10.0137 9.3477L10.0842 9.38884C10.2901 9.34904 10.5075 9.44024 10.6192 9.63158C10.6795 9.73483 10.6992 9.85056 10.6832 9.96033C10.6992 10.0701 10.6795 10.1858 10.6192 10.2891C10.5075 10.4804 10.2901 10.5716 10.0842 10.5318L10.0137 10.573C9.77149 10.7143 9.46053 10.6326 9.31916 10.3904C9.23993 10.2546 9.23078 10.0973 9.28067 9.96033C9.23078 9.82336 9.23993 9.66603 9.31916 9.53029ZM8.67383 10.767C8.8152 11.0092 8.73345 11.3202 8.49123 11.4616L7.64541 11.9553C7.40319 12.0966 7.09223 12.0149 6.95085 11.7727C6.80948 11.5304 6.89123 11.2195 7.13345 11.0781L7.97927 10.5844C8.22149 10.4431 8.53245 10.5248 8.67383 10.767ZM6.30552 12.1493C6.4469 12.3915 6.36514 12.7025 6.12293 12.8439L5.70002 13.0907C5.4578 13.2321 5.14683 13.1503 5.00546 12.9081C4.86409 12.6659 4.94584 12.3549 5.18806 12.2136L5.61097 11.9667C5.85319 11.8254 6.16415 11.9071 6.30552 12.1493Z" fill="black"/>
<path fill-rule="evenodd" clip-rule="evenodd" d="M15.1251 7.01255C15.2664 7.25477 15.1847 7.56573 14.9425 7.70711L14.5196 7.95394C14.2773 8.09532 13.9664 8.01357 13.825 7.77135C13.6836 7.52913 13.7654 7.21817 14.0076 7.07679L14.4305 6.82996C14.6727 6.68858 14.9837 6.77033 15.1251 7.01255ZM13.1797 8.148C13.321 8.39022 13.2393 8.70118 12.9971 8.84256L12.1513 9.33623C11.909 9.47761 11.5981 9.39585 11.4567 9.15364C11.3153 8.91142 11.3971 8.60046 11.6393 8.45908L12.4851 7.96541C12.7273 7.82403 13.0383 7.90578 13.1797 8.148ZM9.44729 9.96033C9.43132 10.0701 9.45104 10.1858 9.5113 10.2891C9.62298 10.4804 9.84047 10.5716 10.0463 10.5318L10.1168 10.573C10.359 10.7143 10.67 10.6326 10.8114 10.3904C10.8906 10.2546 10.8997 10.0973 10.8499 9.96033C10.8997 9.82336 10.8906 9.66603 10.8114 9.53029C10.67 9.28807 10.359 9.20632 10.1168 9.3477L10.0463 9.38884C9.84047 9.34904 9.62298 9.44024 9.5113 9.63158C9.45104 9.73483 9.43132 9.85056 9.44729 9.96033ZM11.4567 10.767C11.5981 10.5248 11.909 10.4431 12.1513 10.5844L12.9971 11.0781C13.2393 11.2195 13.321 11.5304 13.1797 11.7727C13.0383 12.0149 12.7273 12.0966 12.4851 11.9553L11.6393 11.4616C11.3971 11.3202 11.3153 11.0092 11.4567 10.767ZM13.825 12.1493C13.9664 11.9071 14.2773 11.8254 14.5196 11.9667L14.9425 12.2136C15.1847 12.3549 15.2664 12.6659 15.1251 12.9081C14.9837 13.1503 14.6727 13.2321 14.4305 13.0907L14.0076 12.8439C13.7654 12.7025 13.6836 12.3915 13.825 12.1493Z" fill="black"/>
<path fill-rule="evenodd" clip-rule="evenodd" d="M10.0648 4.22157C10.3453 4.22157 10.5727 4.44893 10.5727 4.72938L10.5727 15.2919C10.5727 15.5723 10.3453 15.7997 10.0648 15.7997C9.78439 15.7997 9.55703 15.5723 9.55703 15.2919V4.72938C9.55703 4.44893 9.78439 4.22157 10.0648 4.22157Z" fill="black"/>
</svg>
