<svg width="121" height="52" viewBox="0 0 121 52" fill="none" xmlns="http://www.w3.org/2000/svg">
<g filter="url(#filter0_d_746_1283)">
<path fill-rule="evenodd" clip-rule="evenodd" d="M89.0511 0C88.7849 0.0915486 88.4997 0.148923 88.2013 0.166477H76.3142C74.2711 0.166477 72.6924 1.8381 72.6924 3.78832V11.9607L72.6926 11.9973V15.6572C72.8952 17.1063 74.0498 18.1827 75.4529 18.1827C76.5514 18.1827 77.3588 17.4135 78.2096 16.603C79.157 15.7004 80.1582 14.7466 81.675 14.7466C84.8325 14.7466 87.1542 18.0898 87.1542 22.0832C87.1542 26.1693 85.1111 29.234 81.8608 29.234C79.9921 29.234 79.0869 28.2185 78.2351 27.2629C77.4783 26.4139 76.7637 25.6121 75.4529 25.6121C74.008 25.6971 72.8743 26.7155 72.6924 28.0266V40.2854C72.7853 42.3284 74.4569 44.0001 76.5 44.0001H88.387C88.5793 44.0001 88.7669 43.9799 88.948 43.9412H100.935C101.082 43.9711 101.233 43.9909 101.389 44.0001H113.276C115.319 44.0001 116.897 42.3284 116.897 40.3782V28.3983C116.897 28.2708 116.906 28.1454 116.924 28.0225V15.6598C116.911 15.5734 116.903 15.4857 116.897 15.3968V3.88119C116.897 2.02383 115.597 0.166477 113.183 0.166477H101.296C100.969 0.166477 100.655 0.108016 100.365 0H89.0511Z" fill="white"/>
</g>
<rect x="72.6924" width="43.9596" height="9.23152" rx="4.61576" fill="white"/>
<rect x="72.6924" y="34.728" width="43.9596" height="9.23152" rx="4.61576" fill="white"/>
<path fill-rule="evenodd" clip-rule="evenodd" d="M100.387 14.3859C99.6221 14.3859 99.0022 15.0058 99.0022 15.7706C99.0022 16.5353 99.6221 17.1553 100.387 17.1553C101.152 17.1553 101.772 16.5353 101.772 15.7706C101.772 15.0058 101.152 14.3859 100.387 14.3859ZM97.1559 15.7706C97.1559 13.9861 98.6025 12.5396 100.387 12.5396C102.171 12.5396 103.618 13.9861 103.618 15.7706C103.618 17.555 102.171 19.0016 100.387 19.0016C99.8305 19.0016 99.3069 18.861 98.8498 18.6133L97.4599 20.0031C97.5648 20.1967 97.6505 20.4022 97.7144 20.6171H103.059C103.457 19.2825 104.693 18.3093 106.157 18.3093C107.941 18.3093 109.388 19.7558 109.388 21.5403C109.388 23.3247 107.941 24.7713 106.157 24.7713C105.6 24.7713 105.077 24.6307 104.619 24.383L103.23 25.7728C103.477 26.23 103.618 26.7535 103.618 27.31C103.618 29.0944 102.171 30.541 100.387 30.541C98.6025 30.541 97.1559 29.0944 97.1559 27.31C97.1559 25.5255 98.6025 24.079 100.387 24.079C100.943 24.079 101.467 24.2196 101.924 24.4673L103.314 23.0774C103.209 22.8838 103.123 22.6783 103.059 22.4634H97.7144C97.3172 23.7981 96.0809 24.7713 94.6172 24.7713C92.8328 24.7713 91.3862 23.3247 91.3862 21.5403C91.3862 19.7558 92.8328 18.3093 94.6172 18.3093C95.1736 18.3093 95.6972 18.4499 96.1543 18.6976L97.5442 17.3077C97.2965 16.8506 97.1559 16.327 97.1559 15.7706ZM99.0022 27.31C99.0022 26.5452 99.6221 25.9253 100.387 25.9253C101.152 25.9253 101.772 26.5452 101.772 27.31C101.772 28.0748 101.152 28.6947 100.387 28.6947C99.6221 28.6947 99.0022 28.0748 99.0022 27.31ZM94.6172 20.1556C93.8524 20.1556 93.2325 20.7755 93.2325 21.5403C93.2325 22.3051 93.8524 22.925 94.6172 22.925C95.382 22.925 96.0019 22.3051 96.0019 21.5403C96.0019 20.7755 95.382 20.1556 94.6172 20.1556ZM104.772 21.5403C104.772 20.7755 105.392 20.1556 106.157 20.1556C106.921 20.1556 107.541 20.7755 107.541 21.5403C107.541 22.3051 106.921 22.925 106.157 22.925C105.392 22.925 104.772 22.3051 104.772 21.5403Z" fill="black"/>
<g filter="url(#filter1_d_746_1283)">
<path fill-rule="evenodd" clip-rule="evenodd" d="M20.3589 0C20.0926 0.0915797 19.8074 0.148973 19.5089 0.166531H7.62184C5.57875 0.166531 4 1.83815 4 3.78838V8.20126V11.9607V24.7765V32.8837V40.2854C4.09287 42.3285 5.76449 44.0001 7.80758 44.0001H19.6947C19.8867 44.0001 20.0741 43.9799 20.2551 43.9414H32.2431C32.39 43.9712 32.5413 43.991 32.6961 44.0001H44.5832C46.6263 44.0001 48.2051 42.3285 48.2051 40.3783V28.3983C48.2051 26.9124 49.4123 25.7052 50.9911 25.6123C52.3019 25.6123 53.0165 26.414 53.7733 27.2631C54.6251 28.2186 55.5303 29.2341 57.399 29.2341C60.6494 29.2341 62.6924 26.1695 62.6924 22.0833C62.6924 18.09 60.3708 14.7468 57.2132 14.7468C55.6965 14.7468 54.6952 15.7006 53.7478 16.6031C52.897 17.4137 52.0896 18.1829 50.9911 18.1829C49.5052 18.1829 48.2979 16.9756 48.2051 15.3968V3.88124C48.2051 2.02389 46.9049 0.166531 44.4904 0.166531H32.6033C32.2763 0.166531 31.9627 0.10805 31.6726 0H20.3589Z" fill="white"/>
</g>
<rect x="4" width="44.3992" height="43.9596" rx="8" fill="white"/>
<path d="M34.5214 16.3364L27.7127 12.5062C27.4736 12.3765 27.2057 12.3086 26.9336 12.3086C26.6614 12.3086 26.3936 12.3765 26.1544 12.5062L19.3218 16.3364C19.0751 16.4753 18.8697 16.6769 18.7265 16.9208C18.5833 17.1647 18.5075 17.4422 18.5066 17.7249V25.3614C18.5044 25.6447 18.579 25.9234 18.7225 26.1678C18.866 26.4123 19.0731 26.6134 19.3218 26.7498L26.1304 30.5561C26.3692 30.6995 26.643 30.7741 26.9216 30.7716C27.1997 30.7709 27.4727 30.6965 27.7127 30.5561L34.5214 26.7498C34.7681 26.611 34.9735 26.4094 35.1166 26.1655C35.2598 25.9216 35.3357 25.6441 35.3365 25.3614V17.7249C35.3436 17.4406 35.271 17.1601 35.127 16.9148C34.983 16.6695 34.7732 16.4692 34.5214 16.3364V16.3364Z" fill="url(#paint0_linear_746_1283)"/>
<path d="M22.1746 23.5407L21.767 23.7801C21.6941 23.8204 21.63 23.8749 21.5783 23.9403C21.5267 24.0056 21.4886 24.0806 21.4663 24.1608C21.444 24.241 21.4379 24.3249 21.4483 24.4075C21.4588 24.4901 21.4857 24.5698 21.5273 24.6419C21.5808 24.7418 21.6602 24.8257 21.7572 24.8846C21.8542 24.9435 21.9652 24.9755 22.0787 24.977C22.1866 24.9761 22.293 24.9516 22.3904 24.9052L22.7979 24.6658C22.8709 24.6255 22.935 24.571 22.9866 24.5057C23.0383 24.4403 23.0764 24.3653 23.0987 24.2851C23.121 24.2049 23.1271 24.121 23.1166 24.0384C23.1061 23.9558 23.0793 23.8762 23.0377 23.804C23.0006 23.728 22.9483 23.6604 22.884 23.6054C22.8196 23.5504 22.7446 23.5093 22.6636 23.4846C22.5826 23.4599 22.4974 23.4521 22.4132 23.4618C22.3291 23.4714 22.2479 23.4983 22.1746 23.5407V23.5407ZM24.6679 22.1283L23.8288 22.6071C23.7559 22.6474 23.6917 22.7019 23.6401 22.7672C23.5885 22.8326 23.5504 22.9076 23.5281 22.9878C23.5057 23.068 23.4996 23.1519 23.5101 23.2345C23.5206 23.3171 23.5474 23.3967 23.5891 23.4689C23.6426 23.5688 23.722 23.6526 23.819 23.7116C23.9159 23.7705 24.027 23.8024 24.1405 23.804C24.2484 23.8031 24.3548 23.7786 24.4521 23.7322L25.2912 23.2534C25.3642 23.2131 25.4283 23.1586 25.48 23.0933C25.5316 23.0279 25.5697 22.9529 25.592 22.8727C25.6143 22.7925 25.6204 22.7086 25.6099 22.626C25.5995 22.5434 25.5726 22.4638 25.531 22.3916C25.494 22.3156 25.4416 22.248 25.3773 22.193C25.3129 22.1381 25.2379 22.0969 25.1569 22.0722C25.0759 22.0475 24.9907 22.0397 24.9066 22.0494C24.8224 22.059 24.7412 22.0859 24.6679 22.1283V22.1283ZM28.0483 20.9577C28.0145 20.8898 27.9674 20.8293 27.9097 20.78C27.8521 20.7306 27.785 20.6934 27.7126 20.6704V15.8563C27.713 15.7713 27.6964 15.6872 27.664 15.6086C27.6316 15.53 27.5839 15.4587 27.5238 15.3986C27.4636 15.3385 27.3921 15.2909 27.3134 15.2585C27.2347 15.2262 27.1504 15.2096 27.0653 15.21C26.9815 15.2102 26.8986 15.2273 26.8215 15.2602C26.7444 15.2931 26.6748 15.3411 26.6166 15.4014C26.5585 15.4617 26.5131 15.533 26.4831 15.6111C26.4531 15.6893 26.4391 15.7727 26.442 15.8563V20.692C26.3696 20.7149 26.3026 20.7522 26.2449 20.8015C26.1873 20.8509 26.1401 20.9113 26.1064 20.9792C26.0613 21.0634 26.0358 21.1565 26.0316 21.2518C26.0275 21.3471 26.0448 21.4421 26.0824 21.5298C26.0448 21.6175 26.0275 21.7125 26.0316 21.8078C26.0358 21.9031 26.0613 21.9963 26.1064 22.0804C26.1401 22.1483 26.1873 22.2088 26.2449 22.2581C26.3026 22.3075 26.3696 22.3447 26.442 22.3677V27.2033C26.442 27.3748 26.5102 27.5392 26.6316 27.6604C26.753 27.7816 26.9176 27.8497 27.0893 27.8497C27.261 27.8497 27.4256 27.7816 27.547 27.6604C27.6684 27.5392 27.7366 27.3748 27.7366 27.2033V22.3437C27.809 22.3208 27.876 22.2836 27.9337 22.2342C27.9914 22.1848 28.0385 22.1244 28.0722 22.0565C28.1173 21.9724 28.1428 21.8792 28.147 21.7839C28.1511 21.6886 28.1338 21.5936 28.0962 21.5059C28.1517 21.3238 28.1345 21.1274 28.0483 20.9577V20.9577ZM29.6809 19.3035L28.8418 19.7823C28.7689 19.8226 28.7047 19.8771 28.6531 19.9425C28.6015 20.0078 28.5634 20.0828 28.5411 20.163C28.5188 20.2432 28.5127 20.3271 28.5231 20.4097C28.5336 20.4923 28.5604 20.572 28.6021 20.6441C28.6556 20.744 28.735 20.8279 28.832 20.8868C28.929 20.9457 29.04 20.9777 29.1535 20.9792C29.2614 20.9783 29.3678 20.9538 29.4651 20.9074L30.3042 20.4286C30.3772 20.3883 30.4413 20.3338 30.493 20.2685C30.5446 20.2031 30.5827 20.1281 30.605 20.0479C30.6273 19.9677 30.6334 19.8838 30.6229 19.8012C30.6125 19.7187 30.5856 19.639 30.544 19.5668C30.507 19.4908 30.4546 19.4232 30.3903 19.3682C30.3259 19.3133 30.2509 19.2721 30.1699 19.2474C30.0889 19.2227 30.0037 19.215 29.9196 19.2246C29.8354 19.2342 29.7542 19.2611 29.6809 19.3035V19.3035ZM31.6684 19.5429C31.7763 19.542 31.8827 19.5175 31.98 19.4711L32.3876 19.2317C32.4604 19.1911 32.5245 19.1364 32.5762 19.071C32.6278 19.0056 32.666 18.9306 32.6885 18.8503C32.711 18.7701 32.7174 18.6862 32.7074 18.6035C32.6974 18.5208 32.6711 18.4409 32.63 18.3684C32.589 18.2959 32.534 18.2321 32.4682 18.1809C32.4024 18.1297 32.3271 18.0919 32.2467 18.0698C32.1662 18.0477 32.0822 18.0417 31.9994 18.0521C31.9166 18.0625 31.8367 18.0892 31.7643 18.1305L31.3567 18.3699C31.2838 18.4103 31.2196 18.4647 31.168 18.5301C31.1164 18.5954 31.0783 18.6704 31.056 18.7506C31.0336 18.8308 31.0275 18.9147 31.038 18.9973C31.0485 19.0799 31.0753 19.1596 31.117 19.2317C31.1719 19.3287 31.2522 19.409 31.3494 19.4638C31.4465 19.5186 31.5568 19.546 31.6684 19.5429ZM32.3876 23.7801L31.98 23.5407C31.8339 23.4591 31.6613 23.4387 31.5 23.4838C31.3388 23.529 31.202 23.636 31.1196 23.7816C31.0372 23.9272 31.0159 24.0994 31.0604 24.2606C31.1048 24.4218 31.2113 24.5589 31.3567 24.6419L31.7643 24.8813C31.8617 24.9277 31.968 24.9522 32.0759 24.9531C32.1895 24.9515 32.3005 24.9196 32.3974 24.8607C32.4944 24.8017 32.5738 24.7179 32.6273 24.6179C32.6702 24.5481 32.6981 24.4701 32.7092 24.3889C32.7204 24.3078 32.7145 24.2252 32.6919 24.1464C32.6694 24.0676 32.6307 23.9944 32.5783 23.9313C32.5259 23.8683 32.461 23.8168 32.3876 23.7801V23.7801ZM30.3018 22.6071L29.4628 22.1283C29.3903 22.087 29.3104 22.0603 29.2276 22.0499C29.1448 22.0395 29.0608 22.0455 28.9804 22.0676C28.8999 22.0897 28.8246 22.1274 28.7589 22.1787C28.6931 22.2299 28.6381 22.2936 28.597 22.3662C28.5559 22.4387 28.5296 22.5186 28.5196 22.6013C28.5096 22.684 28.516 22.7679 28.5385 22.8481C28.5611 22.9284 28.5992 23.0033 28.6509 23.0688C28.7025 23.1342 28.7666 23.1888 28.8394 23.2295L29.6785 23.7083C29.7759 23.7547 29.8823 23.7792 29.9902 23.7801C30.1037 23.7785 30.2147 23.7466 30.3117 23.6876C30.4087 23.6287 30.4881 23.5449 30.5416 23.4449C30.5852 23.3753 30.6137 23.2973 30.6252 23.2159C30.6367 23.1346 30.631 23.0517 30.6084 22.9727C30.5858 22.8938 30.5468 22.8204 30.494 22.7574C30.4412 22.6944 30.3757 22.6432 30.3018 22.6071V22.6071ZM23.8288 20.4047L24.6679 20.8835C24.7653 20.9299 24.8717 20.9544 24.9796 20.9553C25.0931 20.9537 25.2041 20.9218 25.3011 20.8629C25.3981 20.8039 25.4774 20.7201 25.531 20.6202C25.5726 20.548 25.5995 20.4683 25.6099 20.3857C25.6204 20.3031 25.6143 20.2193 25.592 20.1391C25.5697 20.0589 25.5316 19.9839 25.48 19.9185C25.4283 19.8532 25.3642 19.7987 25.2912 19.7584L24.4521 19.2796C24.3799 19.238 24.3001 19.2112 24.2174 19.2007C24.1347 19.1903 24.0507 19.1964 23.9704 19.2187C23.89 19.2409 23.8149 19.279 23.7495 19.3305C23.684 19.3821 23.6295 19.4461 23.5891 19.519C23.5088 19.6694 23.4888 19.8447 23.5334 20.0092C23.5779 20.1738 23.6836 20.3152 23.8288 20.4047V20.4047ZM22.7979 18.3699L22.3904 18.1305C22.3179 18.0892 22.238 18.0625 22.1552 18.0521C22.0725 18.0417 21.9884 18.0477 21.908 18.0698C21.8275 18.0919 21.7523 18.1297 21.6865 18.1809C21.6207 18.2321 21.5657 18.2959 21.5246 18.3684C21.4836 18.4409 21.4573 18.5208 21.4472 18.6035C21.4372 18.6862 21.4436 18.7701 21.4661 18.8503C21.4887 18.9306 21.5269 19.0056 21.5785 19.071C21.6301 19.1364 21.6942 19.1911 21.767 19.2317L22.1746 19.4711C22.272 19.5175 22.3784 19.542 22.4863 19.5429C22.5998 19.5413 22.7108 19.5094 22.8078 19.4505C22.9047 19.3915 22.9841 19.3077 23.0377 19.2078C23.0785 19.1374 23.1046 19.0595 23.1146 18.9788C23.1246 18.8981 23.1183 18.8162 23.0959 18.738C23.0735 18.6598 23.0356 18.5869 22.9844 18.5237C22.9332 18.4604 22.8698 18.4081 22.7979 18.3699V18.3699Z" fill="#20133A"/>
<defs>
<filter id="filter0_d_746_1283" x="68.6924" y="0" width="52.2312" height="52" filterUnits="userSpaceOnUse" color-interpolation-filters="sRGB">
<feFlood flood-opacity="0" result="BackgroundImageFix"/>
<feColorMatrix in="SourceAlpha" type="matrix" values="0 0 0 0 0 0 0 0 0 0 0 0 0 0 0 0 0 0 127 0" result="hardAlpha"/>
<feOffset dy="4"/>
<feGaussianBlur stdDeviation="2"/>
<feComposite in2="hardAlpha" operator="out"/>
<feColorMatrix type="matrix" values="0 0 0 0 0 0 0 0 0 0 0 0 0 0 0 0 0 0 0.1 0"/>
<feBlend mode="normal" in2="BackgroundImageFix" result="effect1_dropShadow_746_1283"/>
<feBlend mode="normal" in="SourceGraphic" in2="effect1_dropShadow_746_1283" result="shape"/>
</filter>
<filter id="filter1_d_746_1283" x="0" y="0" width="66.6924" height="52" filterUnits="userSpaceOnUse" color-interpolation-filters="sRGB">
<feFlood flood-opacity="0" result="BackgroundImageFix"/>
<feColorMatrix in="SourceAlpha" type="matrix" values="0 0 0 0 0 0 0 0 0 0 0 0 0 0 0 0 0 0 127 0" result="hardAlpha"/>
<feOffset dy="4"/>
<feGaussianBlur stdDeviation="2"/>
<feComposite in2="hardAlpha" operator="out"/>
<feColorMatrix type="matrix" values="0 0 0 0 0 0 0 0 0 0 0 0 0 0 0 0 0 0 0.1 0"/>
<feBlend mode="normal" in2="BackgroundImageFix" result="effect1_dropShadow_746_1283"/>
<feBlend mode="normal" in="SourceGraphic" in2="effect1_dropShadow_746_1283" result="shape"/>
</filter>
<linearGradient id="paint0_linear_746_1283" x1="18.5066" y1="21.5408" x2="35.3389" y2="21.5408" gradientUnits="userSpaceOnUse">
<stop stop-color="#9059FF"/>
<stop offset="1" stop-color="#F770FF"/>
</linearGradient>
</defs>
</svg>
