<svg width="20" height="20" viewBox="0 0 20 20" fill="none" xmlns="http://www.w3.org/2000/svg">
<path fill-rule="evenodd" clip-rule="evenodd" d="M10 2.05128C9.15033 2.05128 8.46154 2.74008 8.46154 3.58974C8.46154 4.43941 9.15033 5.1282 10 5.1282C10.8497 5.1282 11.5385 4.43941 11.5385 3.58974C11.5385 2.74008 10.8497 2.05128 10 2.05128ZM6.41026 3.58974C6.41026 1.60718 8.01744 0 10 0C11.9826 0 13.5897 1.60718 13.5897 3.58974C13.5897 5.57231 11.9826 7.17949 10 7.17949C9.38179 7.17949 8.80008 7.0232 8.2922 6.748L6.748 8.2922C6.86456 8.50728 6.95977 8.73562 7.03082 8.97436H12.9692C13.4105 7.49154 14.7841 6.41026 16.4103 6.41026C18.3928 6.41026 20 8.01744 20 10C20 11.9826 18.3928 13.5897 16.4103 13.5897C15.7921 13.5897 15.2103 13.4335 14.7025 13.1583L13.1583 14.7025C13.4335 15.2103 13.5897 15.7921 13.5897 16.4103C13.5897 18.3928 11.9826 20 10 20C8.01744 20 6.41026 18.3928 6.41026 16.4103C6.41026 14.4277 8.01744 12.8205 10 12.8205C10.6182 12.8205 11.1999 12.9768 11.7078 13.252L13.252 11.7078C13.1354 11.4927 13.0402 11.2644 12.9692 11.0256H7.03082C6.58954 12.5085 5.2159 13.5897 3.58974 13.5897C1.60718 13.5897 0 11.9826 0 10C0 8.01744 1.60718 6.41026 3.58974 6.41026C4.20795 6.41026 4.78967 6.56654 5.29754 6.84172L6.84172 5.29754C6.56654 4.78967 6.41026 4.20795 6.41026 3.58974ZM8.46154 16.4103C8.46154 15.5606 9.15033 14.8718 10 14.8718C10.8497 14.8718 11.5385 15.5606 11.5385 16.4103C11.5385 17.2599 10.8497 17.9487 10 17.9487C9.15033 17.9487 8.46154 17.2599 8.46154 16.4103ZM3.58974 8.46154C2.74008 8.46154 2.05128 9.15033 2.05128 10C2.05128 10.8497 2.74008 11.5385 3.58974 11.5385C4.43941 11.5385 5.1282 10.8497 5.1282 10C5.1282 9.15033 4.43941 8.46154 3.58974 8.46154ZM14.8718 10C14.8718 9.15033 15.5606 8.46154 16.4103 8.46154C17.2599 8.46154 17.9487 9.15033 17.9487 10C17.9487 10.8497 17.2599 11.5385 16.4103 11.5385C15.5606 11.5385 14.8718 10.8497 14.8718 10Z" fill="black"/>
</svg>
