<svg width="216" height="200" viewBox="0 0 216 200" fill="none" xmlns="http://www.w3.org/2000/svg">
<path fill-rule="evenodd" clip-rule="evenodd" d="M175.419 106.512H40.6206V0H175.419V106.512Z" fill="#E7DFFF"/>
<path fill-rule="evenodd" clip-rule="evenodd" d="M171.625 97.6683H45.1233V6.91011H171.625V97.6683Z" fill="#F7E2FF"/>
<path fill-rule="evenodd" clip-rule="evenodd" d="M178.518 111.26H38.0471V104.797H178.518V111.26Z" fill="#E7DFFF"/>
<mask id="mask0_344_11441" style="mask-type:alpha" maskUnits="userSpaceOnUse" x="138" y="73" width="34" height="25">
<path fill-rule="evenodd" clip-rule="evenodd" d="M171.625 73.1406H138.151V97.6683H171.625V73.1406Z" fill="white"/>
</mask>
<g mask="url(#mask0_344_11441)">
<path fill-rule="evenodd" clip-rule="evenodd" d="M175.774 103.484H153.332C144.948 103.484 138.151 96.6912 138.151 88.3122C138.151 79.9333 144.948 73.1406 153.332 73.1406H175.774C184.158 73.1406 190.955 79.9333 190.955 88.3122C190.955 96.6912 184.158 103.484 175.774 103.484Z" fill="#E7DFFF"/>
</g>
<mask id="mask1_344_11441" style="mask-type:alpha" maskUnits="userSpaceOnUse" x="145" y="57" width="27" height="24">
<path fill-rule="evenodd" clip-rule="evenodd" d="M171.625 57.1223H145.844V80.9312H171.625V57.1223Z" fill="white"/>
</mask>
<g mask="url(#mask1_344_11441)">
<path fill-rule="evenodd" clip-rule="evenodd" d="M175.365 80.9312H157.756C151.177 80.9312 145.844 75.6012 145.844 69.0264C145.844 62.4524 151.177 57.1223 157.756 57.1223H175.365C181.943 57.1223 187.276 62.4524 187.276 69.0264C187.276 75.6012 181.943 80.9312 175.365 80.9312Z" fill="#CB9EFF"/>
</g>
<path fill-rule="evenodd" clip-rule="evenodd" d="M153.924 90.8838H137.195C131.774 90.8838 127.379 86.4919 127.379 81.0731C127.379 75.655 131.774 71.2624 137.195 71.2624H153.924C159.346 71.2624 163.742 75.655 163.742 81.0731C163.742 86.4919 159.346 90.8838 153.924 90.8838Z" fill="#CB9EFF"/>
<mask id="mask2_344_11441" style="mask-type:alpha" maskUnits="userSpaceOnUse" x="61" y="80" width="42" height="18">
<path fill-rule="evenodd" clip-rule="evenodd" d="M102.93 80.1289H61.782V97.6683H102.93V80.1289Z" fill="white"/>
</mask>
<g mask="url(#mask2_344_11441)">
<path fill-rule="evenodd" clip-rule="evenodd" d="M102.883 82.7832L102.93 144.923L90.2493 144.809L90.8078 107.034L61.782 80.1289L73.8045 80.6878L91.0857 89.8246L90.5952 82.958L102.883 82.7832Z" fill="#F6B8FF"/>
</g>
<path fill-rule="evenodd" clip-rule="evenodd" d="M68.9181 83.7609H102.697C115.317 83.7609 125.548 73.5367 125.548 60.9245C125.548 48.3123 115.317 38.0881 102.697 38.0881H68.9181C56.298 38.0881 46.0674 48.3123 46.0674 60.9245C46.0674 73.5367 56.298 83.7609 68.9181 83.7609Z" fill="#CB9EFF"/>
<path fill-rule="evenodd" clip-rule="evenodd" d="M69.5343 49.814H96.0395C105.942 49.814 113.969 41.7918 113.969 31.8956V31.8956C113.969 21.9995 105.942 13.977 96.0395 13.977H69.5343C59.6321 13.977 51.6045 21.9995 51.6045 31.8956V31.8956C51.6045 41.7918 59.6321 49.814 69.5343 49.814Z" fill="#E7DFFF"/>
<path fill-rule="evenodd" clip-rule="evenodd" d="M101.806 64.7959H126.986C135.147 64.7959 141.763 58.1842 141.763 50.0285C141.763 41.8724 135.147 35.2608 126.986 35.2608H101.806C93.6454 35.2608 87.0295 41.8724 87.0295 50.0285C87.0295 58.1842 93.6454 64.7959 101.806 64.7959Z" fill="#E7DFFF"/>
<path fill-rule="evenodd" clip-rule="evenodd" d="M172.646 54.7284H43.9114V50.0426H172.646V54.7284Z" fill="#E7DFFF"/>
<path opacity="0.5" d="M107.797 199.253C48.2623 199.253 -7.62939e-05 197.507 -7.62939e-05 195.353C-7.62939e-05 193.199 48.2623 191.452 107.797 191.452C167.332 191.452 215.594 193.199 215.594 195.353C215.594 197.507 167.332 199.253 107.797 199.253Z" fill="#F7E2FF"/>
<path fill-rule="evenodd" clip-rule="evenodd" d="M186.981 97.4146C186.981 97.4146 191.699 111.686 189.659 128.632C187.619 145.579 184.176 179.982 184.176 179.982H176.399C176.399 179.982 175.761 147.363 174.614 136.277C173.466 125.192 172.956 117.292 172.956 117.292L171.044 109.265L170.406 119.84C170.406 119.84 157.146 170.808 156.126 180.874L148.732 180.747C148.732 180.747 152.939 120.223 153.704 115.636C154.469 111.048 160.079 98.8163 160.079 98.8163L186.981 97.4146Z" fill="#ECAFA3"/>
<path fill-rule="evenodd" clip-rule="evenodd" d="M176.308 181.581H184.115C184.518 181.581 184.844 181.255 184.844 180.852V180.846C184.844 180.443 184.518 180.117 184.115 180.117H176.308C175.906 180.117 175.579 180.443 175.579 180.846V180.852C175.579 181.255 175.906 181.581 176.308 181.581Z" fill="#FF298A"/>
<path fill-rule="evenodd" clip-rule="evenodd" d="M175.548 181.986C175.548 182.109 175.598 182.219 175.678 182.299C175.758 182.38 175.869 182.43 175.992 182.43H176.124V186.851H184.241V182.43H184.37C184.615 182.43 184.813 182.231 184.813 181.986C184.813 181.864 184.763 181.753 184.683 181.673C184.603 181.593 184.492 181.543 184.37 181.543H175.992C175.747 181.543 175.548 181.741 175.548 181.986Z" fill="#E7DFFF"/>
<path fill-rule="evenodd" clip-rule="evenodd" d="M188.228 194.625C188.228 194.625 188.371 192.35 187.673 192.099C186.974 191.849 175.143 191.509 175.143 191.509L175.164 193.873C175.164 193.873 178.712 194.804 181.795 194.911C184.877 195.019 188.138 194.768 188.228 194.625Z" fill="#E7DFFF"/>
<path fill-rule="evenodd" clip-rule="evenodd" d="M175.143 191.509C175.141 191.639 175.139 191.713 175.139 191.713C175.139 191.713 177.467 192.21 179.456 192.413C181.445 192.617 187.299 192.865 187.683 192.368C188 191.957 185.54 188.586 184.676 187.428C184.864 187.34 184.995 187.149 184.995 186.928C184.995 186.776 184.933 186.638 184.833 186.538C184.734 186.439 184.595 186.377 184.443 186.377H175.617C175.312 186.377 175.065 186.623 175.065 186.928C175.065 187.08 175.127 187.219 175.227 187.318C175.265 187.356 175.308 187.388 175.355 187.414C175.211 188.454 175.157 190.804 175.143 191.509Z" fill="#F770FF"/>
<path fill-rule="evenodd" clip-rule="evenodd" d="M186.964 190.781C186.964 190.781 188.292 192.205 187.627 192.435C186.962 192.665 181.744 192.87 179.825 192.563L177.907 192.256C177.907 192.256 177.759 191.413 178.913 190.561C179.737 189.953 180.274 189.114 181.041 188.961C181.809 188.808 183.289 188.726 183.954 189.058C184.619 189.391 185.769 190.069 186.964 190.781Z" fill="#FF298A"/>
<path d="M184.569 188.461C183.98 188.286 183.324 188.188 182.62 188.203C181.708 188.223 180.788 188.435 179.879 188.877C179.745 188.941 179.69 189.103 179.755 189.237C179.82 189.37 179.981 189.426 180.114 189.36C180.951 188.954 181.796 188.759 182.632 188.741C183.277 188.727 183.878 188.817 184.416 188.977C184.59 189.028 184.745 189.083 184.877 189.138C184.915 189.154 184.949 189.169 184.978 189.182L185.015 189.199L185.029 189.206C185.161 189.274 185.324 189.223 185.392 189.091C185.46 188.958 185.408 188.796 185.276 188.728L185.249 188.714C185.21 188.696 185.155 188.671 185.083 188.641C184.934 188.58 184.762 188.518 184.569 188.461Z" fill="white"/>
<path d="M183.851 186.835C183.262 186.66 182.606 186.562 181.902 186.577C180.99 186.597 180.07 186.809 179.161 187.251C179.027 187.315 178.972 187.477 179.037 187.61C179.102 187.744 179.263 187.8 179.396 187.734C180.233 187.328 181.078 187.133 181.914 187.115C182.559 187.101 183.16 187.191 183.698 187.35C183.872 187.402 184.027 187.457 184.159 187.512L184.202 187.53C184.216 187.536 184.229 187.542 184.242 187.547L184.291 187.57L184.311 187.58C184.443 187.648 184.606 187.597 184.674 187.464C184.742 187.332 184.69 187.17 184.558 187.102L184.541 187.093C184.502 187.074 184.443 187.047 184.365 187.015C184.216 186.953 184.044 186.892 183.851 186.835Z" fill="white"/>
<path d="M184.125 187.356C183.533 187.195 182.87 187.112 182.16 187.146C181.23 187.191 180.297 187.435 179.385 187.919C179.254 187.989 179.204 188.152 179.274 188.283C179.343 188.414 179.506 188.465 179.638 188.395C180.478 187.949 181.333 187.724 182.186 187.683C182.837 187.652 183.443 187.728 183.985 187.875C184.144 187.918 184.285 187.964 184.405 188.009L184.445 188.025C184.47 188.035 184.493 188.044 184.513 188.052L184.544 188.066C184.678 188.13 184.839 188.072 184.902 187.937C184.966 187.803 184.908 187.643 184.774 187.58L184.746 187.567C184.711 187.551 184.661 187.531 184.596 187.506C184.459 187.455 184.302 187.404 184.125 187.356Z" fill="white"/>
<path d="M184.199 188.122C182.869 187.605 181.345 187.496 179.72 188.05C179.58 188.098 179.505 188.251 179.553 188.391C179.601 188.532 179.754 188.607 179.894 188.559C181.388 188.05 182.784 188.149 184.003 188.624C184.227 188.711 184.424 188.804 184.594 188.896C184.636 188.919 184.673 188.941 184.707 188.96L184.754 188.989L184.79 189.013C184.913 189.097 185.081 189.065 185.165 188.943C185.249 188.82 185.217 188.652 185.095 188.569L185.065 188.549C185.017 188.518 184.946 188.475 184.852 188.424C184.663 188.321 184.444 188.218 184.199 188.122Z" fill="white"/>
<path fill-rule="evenodd" clip-rule="evenodd" d="M155.738 182.25L147.94 181.853C147.539 181.833 147.229 181.49 147.249 181.088L147.25 181.082C147.27 180.68 147.613 180.371 148.015 180.391L155.812 180.788C156.214 180.809 156.524 181.151 156.503 181.553L156.503 181.559C156.482 181.961 156.14 182.271 155.738 182.25Z" fill="#FF298A"/>
<path fill-rule="evenodd" clip-rule="evenodd" d="M156.476 182.694C156.47 182.816 156.414 182.924 156.33 183C156.246 183.076 156.133 183.121 156.011 183.114L155.878 183.107L155.653 187.523L147.547 187.11L147.771 182.695L147.643 182.688C147.399 182.675 147.21 182.467 147.223 182.222C147.229 182.1 147.284 181.991 147.368 181.916C147.452 181.84 147.566 181.796 147.689 181.803L156.056 182.228C156.3 182.241 156.488 182.449 156.476 182.694Z" fill="#E7DFFF"/>
<path fill-rule="evenodd" clip-rule="evenodd" d="M143.17 194.671C143.17 194.671 143.142 192.392 143.853 192.177C144.564 191.962 156.396 192.224 156.396 192.224L156.255 194.583C156.255 194.583 152.664 195.333 149.58 195.284C146.496 195.234 143.252 194.818 143.17 194.671Z" fill="#E7DFFF"/>
<path fill-rule="evenodd" clip-rule="evenodd" d="M156.396 192.224C156.391 192.354 156.389 192.428 156.389 192.428C156.389 192.428 154.039 192.806 152.042 192.908C150.046 193.01 144.187 192.96 143.829 192.444C143.532 192.018 146.161 188.777 147.083 187.664C146.9 187.567 146.779 187.37 146.79 187.149C146.798 186.997 146.867 186.861 146.971 186.767C147.076 186.673 147.218 186.618 147.37 186.626L156.184 187.075C156.488 187.09 156.722 187.349 156.707 187.654C156.699 187.805 156.63 187.94 156.525 188.035C156.486 188.071 156.441 188.1 156.393 188.124C156.483 189.17 156.418 191.519 156.396 192.224Z" fill="#F770FF"/>
<path fill-rule="evenodd" clip-rule="evenodd" d="M144.627 190.896C144.627 190.896 143.228 192.251 143.881 192.514C144.533 192.778 149.734 193.248 151.666 193.039L153.598 192.83C153.598 192.83 153.788 191.995 152.679 191.086C151.887 190.436 151.394 189.572 150.635 189.38C149.876 189.188 148.402 189.03 147.721 189.329C147.04 189.627 145.857 190.245 144.627 190.896Z" fill="#FF298A"/>
<path d="M149.012 188.537C148.298 188.494 147.633 188.571 147.04 188.726C146.886 188.765 146.747 188.808 146.625 188.851L146.588 188.864C146.508 188.894 146.45 188.917 146.417 188.932C146.282 188.993 146.222 189.153 146.284 189.288C146.343 189.419 146.494 189.479 146.627 189.427L146.669 189.409L146.706 189.395C146.72 189.389 146.734 189.384 146.749 189.379L146.772 189.37C146.888 189.328 147.022 189.286 147.175 189.246C147.718 189.105 148.326 189.035 148.98 189.074C149.839 189.125 150.699 189.362 151.54 189.826C151.671 189.898 151.834 189.85 151.906 189.72C151.978 189.59 151.93 189.426 151.8 189.355C150.887 188.852 149.949 188.592 149.012 188.537Z" fill="white"/>
<path d="M149.812 186.95C149.098 186.907 148.434 186.983 147.84 187.138C147.686 187.178 147.547 187.221 147.424 187.264L147.388 187.276C147.307 187.306 147.25 187.33 147.218 187.344C147.082 187.406 147.022 187.565 147.083 187.7C147.143 187.831 147.294 187.892 147.427 187.84L147.469 187.822L147.506 187.807C147.526 187.799 147.548 187.791 147.572 187.782C147.687 187.74 147.823 187.698 147.975 187.658C148.517 187.518 149.126 187.447 149.78 187.486C150.639 187.537 151.499 187.775 152.34 188.238C152.47 188.31 152.634 188.263 152.706 188.133C152.778 188.003 152.73 187.839 152.6 187.767C151.687 187.264 150.749 187.005 149.812 186.95Z" fill="white"/>
<path d="M149.523 187.502C148.804 187.44 148.134 187.502 147.539 187.642C147.386 187.677 147.251 187.716 147.132 187.755L147.097 187.767C147.043 187.785 147.002 187.8 146.978 187.81C146.84 187.867 146.775 188.024 146.831 188.161C146.886 188.295 147.035 188.36 147.17 188.313L147.209 188.298L147.242 188.286C147.259 188.28 147.279 188.273 147.3 188.266C147.404 188.232 147.525 188.197 147.662 188.165C148.205 188.038 148.818 187.982 149.477 188.038C150.352 188.113 151.223 188.381 152.066 188.886C152.193 188.962 152.358 188.92 152.435 188.793C152.511 188.665 152.469 188.5 152.342 188.424C151.427 187.877 150.477 187.584 149.523 187.502Z" fill="white"/>
<path d="M152.001 188.537C150.362 187.884 148.799 187.935 147.428 188.414C147.221 188.487 147.034 188.565 146.871 188.643L146.83 188.662C146.724 188.714 146.649 188.756 146.607 188.781C146.48 188.859 146.44 189.025 146.518 189.151C146.593 189.274 146.751 189.315 146.876 189.247L146.92 189.222L146.929 189.217C146.968 189.196 147.014 189.171 147.067 189.145C147.222 189.07 147.403 188.993 147.606 188.922C148.862 188.483 150.294 188.436 151.801 189.037C151.939 189.092 152.096 189.025 152.151 188.887C152.206 188.748 152.139 188.592 152.001 188.537Z" fill="white"/>
<path fill-rule="evenodd" clip-rule="evenodd" d="M187.131 90.6491C187.131 90.6491 189.439 104.792 192.71 120.607C192.71 120.607 192.95 121.686 190.251 121.327C187.552 120.967 179.755 121.387 176.156 122.106C172.557 122.825 172.257 122.825 172.257 120.308C172.257 117.79 171.777 111.736 171.777 111.736C171.777 111.736 171.537 122.645 170.338 122.346C169.138 122.046 162.451 117.896 150.831 120.035C150.831 120.035 149.532 119.729 149.914 118.354C150.296 116.979 157.163 97.4146 158.062 90.6491H187.131Z" fill="#F770FF"/>
<path fill-rule="evenodd" clip-rule="evenodd" d="M175.964 46.6695C175.964 46.6695 176.212 52.1268 179.398 54.0532C182.288 55.801 176.165 65.9432 169.578 65.3382C165.972 65.007 165.127 55.1532 165.127 55.1532C165.127 55.1532 168.039 54.591 166.963 50.1542L175.964 46.6695Z" fill="#ECAFA3"/>
<path fill-rule="evenodd" clip-rule="evenodd" d="M170.69 52.2184C174.96 51.7023 178.042 48.8964 178.473 44.2417C179.715 44.4392 180.007 41.2067 179.662 40.1682C179.316 39.1283 178.186 39.7364 178.186 39.7364C178.186 39.7364 178.092 39.4898 178.026 39.2203C176.161 31.5735 170.936 31.8768 170.936 31.8768C161.336 32.3766 163.586 42.172 164.134 44.7706C164.683 47.3695 166.562 52.7168 170.69 52.2184Z" fill="#ECAFA3"/>
<path fill-rule="evenodd" clip-rule="evenodd" d="M199.43 70.6094C199.43 70.6094 210.834 88.6656 206.625 92.5198C202.417 96.3741 190.567 83.1428 190.567 83.1428C190.567 83.1428 191.178 80.1885 193.72 76.6962C196.263 73.2038 199.43 70.6094 199.43 70.6094Z" fill="#ECAFA3"/>
<path fill-rule="evenodd" clip-rule="evenodd" d="M151.514 79.1619L157.063 78.5164C157.063 78.5164 155.643 97.6064 156.177 97.6064C156.463 97.6064 163.129 101.218 172.471 101.218C179.647 101.218 188.45 98.8465 188.822 98.8263C188.868 98.8236 188.912 98.7927 188.955 98.7355C188.835 97.4188 188.74 95.0907 188.644 92.5199C188.577 90.7163 188.508 88.7937 188.429 87.0177C188.356 85.3655 188.274 83.8403 188.175 82.6554C187.744 77.4875 188.042 72.7714 188.042 72.7714L190.167 78.5345L203.639 73.6295C203.639 73.6295 199.14 67.0776 193.777 61.3792C188.457 55.725 179.923 54.2906 179.79 54.2691C179.789 54.2684 179.789 54.2684 179.789 54.2684C179.789 54.2684 180.268 62.0691 172.195 62.6682C165.483 63.1665 165.135 55.1265 165.135 55.1265C165.135 55.1265 157.289 57.1735 155.038 59.092C152.787 61.0106 142.857 74.1096 142.857 74.4405C142.857 74.7714 151.514 79.1619 151.514 79.1619Z" fill="#B833E1"/>
<path fill-rule="evenodd" clip-rule="evenodd" d="M188.429 87.0177C188.508 88.7937 188.576 90.7163 188.644 92.5198C188.659 91.2979 188.611 89.5408 188.429 87.0177Z" fill="#B833E1"/>
<path fill-rule="evenodd" clip-rule="evenodd" d="M160.534 81.4075L167.591 81.9806C168.016 82.0152 168.389 81.6986 168.423 81.2734L169.551 67.4047C169.586 66.9795 169.269 66.6068 168.844 66.5723L161.787 65.9991C161.361 65.9646 160.988 66.2812 160.954 66.7064L159.826 80.5751C159.791 81.0002 160.108 81.3728 160.534 81.4075Z" fill="#204EB2"/>
<path fill-rule="evenodd" clip-rule="evenodd" d="M159.814 81.0231L166.897 81.5984C167.315 81.6324 167.682 81.321 167.716 80.9028L168.805 67.5139C168.839 67.0959 168.527 66.7293 168.109 66.6953L161.026 66.1201C160.608 66.0861 160.241 66.3975 160.207 66.8156L159.118 80.2045C159.084 80.6226 159.396 80.9891 159.814 81.0231Z" fill="#1F9BEB"/>
<path fill-rule="evenodd" clip-rule="evenodd" d="M161.006 67.6465C160.973 68.0481 161.272 68.4001 161.674 68.4327C162.076 68.4654 162.428 68.1663 162.461 67.7647C162.493 67.3632 162.194 67.0112 161.792 66.9785C161.39 66.9459 161.038 67.2449 161.006 67.6465Z" fill="#204EB2"/>
<path fill-rule="evenodd" clip-rule="evenodd" d="M162.403 80.5339C162.403 80.5339 165.942 81.3048 165.965 80.0805C165.965 80.0805 163.56 79.0828 163.015 79.1282C162.471 79.1736 159.953 79.4682 159.953 79.4682L163.061 77.9265L166.146 78.8788C166.146 78.8788 166.85 78.9241 167.167 78.4253C167.485 77.9265 167.122 77.6318 167.122 77.6318L163.083 76.294C163.083 76.294 162.947 75.8633 163.968 75.8179C164.989 75.7725 167.235 75.6138 167.235 75.6138C167.235 75.6138 167.734 75.183 167.508 74.4121C167.281 73.6413 166.01 73.9134 166.01 73.9134C166.01 73.9134 166.713 73.2332 165.647 72.485C165.647 72.485 162.38 72.5756 161.178 73.3238C159.975 74.0721 151.744 79.1227 151.744 79.1227L145.338 75.7597C145.338 75.7597 133.176 90.6383 138.885 93.3893C144.593 96.1403 162.403 80.5339 162.403 80.5339Z" fill="#ECAFA3"/>
<path fill-rule="evenodd" clip-rule="evenodd" d="M158.849 76.0747L162.066 74.2531L166.071 73.8242L166.042 73.5568L162.009 73.9887C161.991 73.9906 161.973 73.9963 161.957 74.0054L158.716 75.8407L158.849 76.0747Z" fill="black"/>
<path fill-rule="evenodd" clip-rule="evenodd" d="M145.938 82.7992L153.626 77.9712L153.482 77.7434L145.795 82.5714L145.938 82.7992Z" fill="black"/>
<path fill-rule="evenodd" clip-rule="evenodd" d="M194.143 77.2775L201.856 82.0667L201.998 81.8382L194.285 77.049L194.143 77.2775Z" fill="black"/>
<path fill-rule="evenodd" clip-rule="evenodd" d="M159.11 77.5518C159.13 77.5381 161.146 76.1744 161.671 75.9555C162.072 75.7885 162.874 76.0932 163.149 76.2247L163.265 75.982C163.22 75.9606 162.161 75.4601 161.568 75.7072C161.017 75.9364 159.042 77.2724 158.959 77.3291L159.11 77.5518Z" fill="black"/>
<path fill-rule="evenodd" clip-rule="evenodd" d="M159.802 72.2317L157.816 75.2673L159.705 74.0803L159.802 72.2317Z" fill="#ECAFA3"/>
<path fill-rule="evenodd" clip-rule="evenodd" d="M157.888 75.3811L159.777 74.1942L159.633 73.9664L157.745 75.1533L157.888 75.3811Z" fill="black"/>
<path fill-rule="evenodd" clip-rule="evenodd" d="M184.258 82.7821L186.623 82.7358C189.113 82.687 191.092 80.63 191.043 78.1415L190.895 70.6094L180.141 70.8203L180.301 78.9796C180.343 81.1217 182.114 82.8241 184.258 82.7821Z" fill="white"/>
<path fill-rule="evenodd" clip-rule="evenodd" d="M191.13 73.2126C191.13 73.2126 192.101 73.8362 192.413 74.2172C192.725 74.5982 192.448 74.6675 193.141 75.395C193.834 76.1224 195.082 77.9583 192.898 80.7641C190.714 83.5699 189.987 83.3274 189.085 82.8424C188.184 82.3574 188.08 82.0111 186.382 81.8379C184.683 81.6647 183.054 80.002 183.089 79.5863L183.124 79.1707C183.124 79.1707 181.564 78.5818 181.668 77.9236C181.772 77.2655 182.222 77.3348 182.222 77.3348C182.222 77.3348 181.91 77.023 182.153 76.4688C182.396 75.9146 183.54 76.0185 184.857 76.1917C186.174 76.3649 189.571 77.0576 189.779 76.9191C189.987 76.7806 189.917 76.5727 189.12 76.4688C188.323 76.3649 185.099 76.3302 185.099 75.4296C185.099 74.5289 186.07 74.3558 187.942 74.3904C189.813 74.425 190.16 74.3211 190.61 74.4944L191.061 74.6675L191.13 73.2126Z" fill="#ECAFA3"/>
<path fill-rule="evenodd" clip-rule="evenodd" d="M182.195 77.3309C182.195 77.3309 182.096 77.2591 182.837 77.5421C183.108 77.6451 183.488 77.7526 184.025 77.8543C186.035 78.2353 189.189 78.9282 190.16 79.0667C191.131 79.2053 190.333 79.4131 188.115 78.9628C185.897 78.5125 183.256 77.9084 183.137 77.8688C182.936 77.8016 182.33 77.5999 182.195 77.3309Z" fill="black"/>
<path fill-rule="evenodd" clip-rule="evenodd" d="M183.851 79.3785C183.851 79.3785 185.492 79.9536 186.3 80.1553C187.157 80.3695 187.803 80.6602 187.976 80.3831C188.149 80.1059 188.357 80.0367 188.357 80.0367L188.635 80.3484C188.635 80.3484 188.588 80.6933 188.739 80.7295C189.008 80.7941 189.536 80.9027 189.536 80.9027C189.536 80.9027 189.53 81.0968 187.915 80.7605C187.514 80.6771 186.771 80.5588 186.3 80.4243C185.866 80.3006 184.302 79.8982 184.094 79.7249C183.886 79.5517 183.851 79.3785 183.851 79.3785Z" fill="black"/>
<path fill-rule="evenodd" clip-rule="evenodd" d="M188.947 79.2053C188.947 79.2053 188.972 80.6002 188.578 80.5782C188.184 80.5562 188.045 80.5562 187.976 80.4523C187.907 80.3484 188.08 80.002 188.08 79.621C188.08 79.2399 188.08 79.0667 188.392 79.1013C188.704 79.136 188.912 79.136 188.947 79.2053Z" fill="#B833E1"/>
<path d="M167.823 40.9882L167.567 41.0703L167.592 41.1506C167.612 41.216 167.634 41.2909 167.658 41.374C167.728 41.6114 167.797 41.8664 167.861 42.1289C167.933 42.4206 167.995 42.7036 168.043 42.9707L168.057 43.0498C168.174 43.7293 168.19 44.2481 168.086 44.5271L168.079 44.5429C167.482 46.0199 168.293 46.7689 169.996 46.2444L170.048 46.2281L169.966 45.9719C168.432 46.4624 167.817 45.9098 168.329 44.6437C168.47 44.2953 168.448 43.7038 168.308 42.9231C168.258 42.6499 168.196 42.3616 168.123 42.0647C168.064 41.8279 168.003 41.5972 167.94 41.3797L167.917 41.2988C167.903 41.2505 167.889 41.205 167.876 41.1624L167.844 41.0545L167.823 40.9882Z" fill="black"/>
<path d="M174.468 51.2782L174.336 51.0436L174.288 51.0698L174.244 51.0932C174.177 51.1283 174.101 51.167 174.017 51.2085L173.98 51.2265C173.696 51.3647 173.382 51.5031 173.047 51.6322C172.277 51.929 171.516 52.1316 170.808 52.1973C170.487 52.2271 170.182 52.2279 169.898 52.1973L169.841 52.1908L169.808 52.4578C170.129 52.4973 170.472 52.4987 170.832 52.4652C171.568 52.3968 172.352 52.1882 173.144 51.8831C173.487 51.7511 173.808 51.6098 174.098 51.4683L174.208 51.414C174.255 51.3906 174.299 51.3682 174.34 51.3469L174.416 51.3067L174.468 51.2782Z" fill="black"/>
<path fill-rule="evenodd" clip-rule="evenodd" d="M169.566 48.3503C170.836 48.3503 171.793 47.769 171.838 47.7413C171.933 47.6828 171.962 47.5584 171.903 47.4636C171.845 47.3689 171.721 47.3395 171.626 47.398C171.607 47.4096 170.482 48.0849 169.126 47.9205C169.016 47.9072 168.915 47.9859 168.902 48.0965C168.888 48.207 168.967 48.3076 169.078 48.321C169.244 48.3413 169.408 48.3503 169.566 48.3503Z" fill="black"/>
<path fill-rule="evenodd" clip-rule="evenodd" d="M169.042 46.4117C169.314 46.4117 169.653 46.3585 170.077 46.223L169.995 45.9668C169.206 46.2191 168.623 46.1985 168.354 45.9087C168.125 45.6621 168.127 45.2111 168.358 44.6387C168.515 44.2503 168.476 43.5138 168.243 42.4494C168.072 41.6705 167.854 40.9899 167.852 40.9831L167.596 41.0653C167.832 41.8005 168.384 43.8577 168.109 44.5379C167.759 45.4025 167.942 45.8601 168.157 46.0917C168.31 46.257 168.578 46.4117 169.042 46.4117Z" fill="black"/>
<mask id="mask3_344_11441" style="mask-type:alpha" maskUnits="userSpaceOnUse" x="169" y="39" width="6" height="2">
<path fill-rule="evenodd" clip-rule="evenodd" d="M174.344 39.5413H169.794V40.8451H174.344V39.5413Z" fill="white"/>
</mask>
<g mask="url(#mask3_344_11441)">
<path fill-rule="evenodd" clip-rule="evenodd" d="M170.165 40.845C170.205 40.845 170.246 40.8383 170.286 40.8242C170.679 40.6873 171.813 40.3233 172.339 40.2845C172.834 40.2478 173.589 40.4922 173.839 40.5895C174.029 40.6637 174.244 40.5699 174.318 40.3798C174.392 40.1897 174.299 39.9753 174.108 39.9007C174.066 39.884 173.05 39.4901 172.285 39.5468C171.554 39.6008 170.104 40.1044 170.043 40.1258C169.85 40.1932 169.748 40.404 169.815 40.5969C169.868 40.7494 170.012 40.845 170.165 40.845Z" fill="black"/>
</g>
<path fill-rule="evenodd" clip-rule="evenodd" d="M163.938 42.1077C164.012 42.1077 164.087 42.085 164.151 42.0378C164.357 41.8872 164.992 41.4792 165.454 41.402C165.947 41.3197 167.081 41.4128 167.477 41.4555C167.675 41.4766 167.853 41.3336 167.875 41.1354C167.896 40.9372 167.753 40.759 167.554 40.7376C167.492 40.7309 166.027 40.5743 165.335 40.6898C164.608 40.8113 163.759 41.4294 163.723 41.4557C163.563 41.5737 163.528 41.7997 163.646 41.9604C163.717 42.0567 163.827 42.1077 163.938 42.1077Z" fill="black"/>
<path fill-rule="evenodd" clip-rule="evenodd" d="M171.081 42.4772C171.081 42.6956 171.258 42.8726 171.477 42.8726C171.695 42.8726 171.872 42.6956 171.872 42.4772C171.872 42.2588 171.695 42.0818 171.477 42.0818C171.258 42.0818 171.081 42.2588 171.081 42.4772Z" fill="black"/>
<path fill-rule="evenodd" clip-rule="evenodd" d="M166.018 42.9264C166.018 43.1448 166.195 43.3218 166.414 43.3218C166.632 43.3218 166.809 43.1448 166.809 42.9264C166.809 42.708 166.632 42.531 166.414 42.531C166.195 42.531 166.018 42.708 166.018 42.9264Z" fill="black"/>
<path fill-rule="evenodd" clip-rule="evenodd" d="M190.715 18.5795C186.61 21.8073 182.64 28.3303 175.642 27.3216C168.644 26.3128 159.477 30.4434 163.623 41.8612C163.623 41.8612 163.463 35.6602 166.962 33.5083C170.461 31.3564 171.605 42.7211 178.266 39.8295C178.266 39.8295 179.343 39.2243 179.612 40.1657C179.881 41.1072 179.697 43.6156 178.982 44.1098C178.982 44.1098 178.805 44.2678 178.468 44.1333C178.468 44.1333 178.267 47.3261 176.383 49.2938C176.383 49.2938 176.854 50.8583 177.022 51.0935L177.142 51.1211C177.142 51.1211 183.582 56.1033 190.58 50.4545C197.578 44.8058 202.221 49.1096 207.874 43.8643C213.526 38.6191 199.95 22.7982 203.433 19.0502C199.261 14.5446 192.725 16.9987 190.715 18.5795Z" fill="#9B5120"/>
<path fill-rule="evenodd" clip-rule="evenodd" d="M169.993 41.9754C169.993 43.2269 171.008 44.2413 172.26 44.2413C173.513 44.2413 174.528 43.2269 174.528 41.9754C174.528 40.7239 173.513 39.7094 172.26 39.7094C171.008 39.7094 169.993 40.7239 169.993 41.9754Z" fill="black"/>
<path fill-rule="evenodd" clip-rule="evenodd" d="M172.26 39.9448C173.381 39.9448 174.292 40.8557 174.292 41.9754C174.292 43.0951 173.381 44.006 172.26 44.006C171.14 44.006 170.228 43.0951 170.228 41.9754C170.228 40.8557 171.14 39.9448 172.26 39.9448ZM172.26 44.4768C173.64 44.4768 174.763 43.3546 174.763 41.9754C174.763 40.5962 173.64 39.474 172.26 39.474C170.88 39.474 169.757 40.5962 169.757 41.9754C169.757 43.3546 170.88 44.4768 172.26 44.4768Z" fill="black"/>
<path fill-rule="evenodd" clip-rule="evenodd" d="M163.673 42.5878C163.673 43.8392 164.688 44.8538 165.94 44.8538C167.193 44.8538 168.208 43.8392 168.208 42.5878C168.208 41.3364 167.193 40.3219 165.94 40.3219C164.688 40.3219 163.673 41.3364 163.673 42.5878Z" fill="black"/>
<mask id="mask4_344_11441" style="mask-type:alpha" maskUnits="userSpaceOnUse" x="163" y="40" width="6" height="6">
<path fill-rule="evenodd" clip-rule="evenodd" d="M168.443 40.0865H163.438V45.0892H168.443V40.0865Z" fill="white"/>
</mask>
<g mask="url(#mask4_344_11441)">
<path fill-rule="evenodd" clip-rule="evenodd" d="M165.94 40.5572C167.061 40.5572 167.972 41.4681 167.972 42.5878C167.972 43.7075 167.061 44.6185 165.94 44.6185C164.82 44.6185 163.909 43.7075 163.909 42.5878C163.909 41.4681 164.82 40.5572 165.94 40.5572ZM165.94 45.0892C167.321 45.0892 168.443 43.967 168.443 42.5878C168.443 41.2086 167.321 40.0865 165.94 40.0865C164.56 40.0865 163.438 41.2086 163.438 42.5878C163.438 43.967 164.56 45.0892 165.94 45.0892Z" fill="black"/>
</g>
<path fill-rule="evenodd" clip-rule="evenodd" d="M177.959 40.2474L174.595 41.5923L177.959 40.2474Z" fill="black"/>
<path fill-rule="evenodd" clip-rule="evenodd" d="M174.682 41.8109L178.047 40.4659L177.872 40.0288L174.507 41.3738L174.682 41.8109Z" fill="black"/>
<path fill-rule="evenodd" clip-rule="evenodd" d="M170.034 42.1357L168.27 42.3321L170.034 42.1357Z" fill="black"/>
<path fill-rule="evenodd" clip-rule="evenodd" d="M168.296 42.566L170.06 42.3697L170.008 41.9018L168.244 42.0981L168.296 42.566Z" fill="black"/>
<path fill-rule="evenodd" clip-rule="evenodd" d="M177.811 44.1141C177.811 44.5041 178.128 44.8202 178.518 44.8202C178.908 44.8202 179.224 44.5041 179.224 44.1141C179.224 43.7241 178.908 43.408 178.518 43.408C178.128 43.408 177.811 43.7241 177.811 44.1141Z" fill="white"/>
<path fill-rule="evenodd" clip-rule="evenodd" d="M116.068 191.851C116.068 191.851 117.274 191.45 118.781 183.773C120.288 176.095 118.637 173.641 114.673 174.305C110.71 174.969 113.793 191.484 116.068 191.851Z" fill="#FFBD4F"/>
<path fill-rule="evenodd" clip-rule="evenodd" d="M112.734 196.571H115.861C117.903 196.571 119.558 194.917 119.558 192.877C119.558 190.837 117.903 189.183 115.861 189.183H112.734C110.692 189.183 109.037 190.837 109.037 192.877C109.037 194.917 110.692 196.571 112.734 196.571Z" fill="#FCEBEC"/>
<path fill-rule="evenodd" clip-rule="evenodd" d="M115.861 189.101H112.734C110.647 189.101 108.955 190.791 108.955 192.877C108.955 194.963 110.647 196.653 112.734 196.653H115.861C117.948 196.653 119.64 194.963 119.64 192.877C119.64 190.791 117.948 189.101 115.861 189.101ZM112.734 189.265H115.861C117.857 189.265 119.475 190.882 119.475 192.877C119.475 194.872 117.857 196.489 115.861 196.489H112.734C110.738 196.489 109.12 194.872 109.12 192.877C109.12 190.882 110.738 189.265 112.734 189.265Z" fill="#FFA7C4"/>
<path fill-rule="evenodd" clip-rule="evenodd" d="M91.8628 196.882H94.9904C97.0319 196.882 98.6868 195.228 98.6868 193.188C98.6868 191.148 97.0319 189.494 94.9904 189.494H91.8628C89.8215 189.494 88.1668 191.148 88.1668 193.188C88.1668 195.228 89.8215 196.882 91.8628 196.882Z" fill="#FCEBEC"/>
<path fill-rule="evenodd" clip-rule="evenodd" d="M94.9903 189.412H91.8627C89.7758 189.412 88.0841 191.102 88.0841 193.188C88.0841 195.274 89.7758 196.964 91.8627 196.964H94.9903C97.0771 196.964 98.7688 195.274 98.7688 193.188C98.7688 191.102 97.0771 189.412 94.9903 189.412ZM91.8627 189.576H94.9903C96.9862 189.576 98.6043 191.193 98.6043 193.188C98.6043 195.183 96.9862 196.8 94.9903 196.8H91.8627C89.8667 196.8 88.249 195.183 88.249 193.188C88.249 191.193 89.8667 189.576 91.8627 189.576Z" fill="#FFA7C4"/>
<path fill-rule="evenodd" clip-rule="evenodd" d="M111.675 171.962C111.675 171.962 117.008 176.266 116.358 195.357L92.3444 195.826C92.3444 195.826 88.773 183.367 96.4423 171.847L111.675 171.962Z" fill="#FFBD4F"/>
<path d="M111.91 171.898C111.875 171.849 111.806 171.838 111.757 171.873C111.708 171.909 111.697 171.977 111.733 172.026C113.091 173.899 114.122 176.127 114.86 178.637C115.547 180.972 115.956 183.464 116.139 186.006L116.153 186.206C116.27 187.934 116.272 189.508 116.204 190.834L116.197 190.971C116.191 191.073 116.186 191.168 116.18 191.255L116.171 191.375L116.161 191.499C116.156 191.559 116.2 191.612 116.26 191.618C116.32 191.623 116.374 191.579 116.379 191.519L116.386 191.435C116.389 191.407 116.391 191.377 116.393 191.344L116.401 191.232C116.409 191.116 116.416 190.987 116.423 190.845C116.494 189.46 116.489 187.807 116.358 185.991C116.174 183.433 115.762 180.926 115.071 178.576C114.326 176.043 113.285 173.792 111.91 171.898Z" fill="#56ACF6"/>
<path fill-rule="evenodd" clip-rule="evenodd" d="M97.2952 172.585H110.859C111.411 172.585 111.858 172.139 111.858 171.588V170.941C111.858 170.39 111.411 169.944 110.859 169.944H97.2952C96.7439 169.944 96.297 170.39 96.297 170.941V171.588C96.297 172.139 96.7439 172.585 97.2952 172.585Z" fill="#FFA7C4"/>
<path fill-rule="evenodd" clip-rule="evenodd" d="M100.686 172.705C100.686 172.069 101.205 171.55 101.841 171.55C102.389 171.55 102.842 171.923 102.967 172.434H105.349C105.473 171.923 105.927 171.55 106.475 171.55C107.111 171.55 107.629 172.069 107.629 172.705C107.629 172.967 107.542 173.216 107.381 173.42C107.542 173.625 107.629 173.873 107.629 174.136C107.629 174.772 107.111 175.29 106.475 175.29C105.927 175.29 105.473 174.918 105.349 174.406H102.967C102.842 174.918 102.389 175.29 101.841 175.29C101.205 175.29 100.686 174.772 100.686 174.136C100.686 173.873 100.774 173.625 100.935 173.42C100.774 173.216 100.686 172.967 100.686 172.705Z" fill="#E27F2E"/>
<path fill-rule="evenodd" clip-rule="evenodd" d="M113.049 154.861C113.049 154.861 108.407 153.178 105.767 155.973C103.126 158.769 100.774 156.836 100.774 156.836L100.332 156.288C100.332 156.288 96.339 154.496 93.4983 155.744L96.9312 158.847L104.041 159.108L110.158 158.011L113.049 154.861Z" fill="#FFA7C4"/>
<mask id="mask5_344_11441" style="mask-type:alpha" maskUnits="userSpaceOnUse" x="93" y="154" width="21" height="12">
<path fill-rule="evenodd" clip-rule="evenodd" d="M113.274 154.332H93.4178V165.191H113.274V154.332Z" fill="white"/>
</mask>
<g mask="url(#mask5_344_11441)">
<path fill-rule="evenodd" clip-rule="evenodd" d="M113.048 154.861C113.048 154.861 113.966 157.817 112.096 161.555C112.096 161.555 112.572 162.506 112.64 163.526C112.708 164.545 111.824 165.191 111.824 165.191L95.6738 164.137C95.6738 164.137 95.5039 162.71 95.9799 161.725C95.9799 161.725 92.8857 159.584 93.4978 155.744C93.4978 155.744 95.9118 154.963 98.7 157.375C98.7 157.375 99.1079 156.594 100.332 156.288L100.502 155.303C100.502 155.303 101.488 155.337 102.474 155.948C102.474 155.948 102.644 155.269 102.338 154.589C102.338 154.589 103.528 155.031 104.072 155.812C104.072 155.812 104.208 154.895 104.174 154.385C104.14 153.875 107.676 157.205 107.676 157.205C107.676 157.205 108.832 154.827 113.048 154.861Z" fill="#FFBD4F"/>
</g>
<path fill-rule="evenodd" clip-rule="evenodd" d="M107.427 160.492C107.427 160.878 107.74 161.191 108.126 161.191C108.512 161.191 108.825 160.878 108.825 160.492C108.825 160.106 108.512 159.793 108.126 159.793C107.74 159.793 107.427 160.106 107.427 160.492Z" fill="black"/>
<path fill-rule="evenodd" clip-rule="evenodd" d="M99.7109 160.492C99.7109 160.878 100.024 161.191 100.41 161.191C100.796 161.191 101.109 160.878 101.109 160.492C101.109 160.106 100.796 159.793 100.41 159.793C100.024 159.793 99.7109 160.106 99.7109 160.492Z" fill="black"/>
<path d="M96.8945 163.248C96.7915 163.259 96.6795 163.281 96.5611 163.315C96.2351 163.409 95.911 163.582 95.6082 163.853C95.5631 163.894 95.5593 163.963 95.5996 164.008C95.64 164.053 95.7093 164.057 95.7544 164.016C96.0318 163.768 96.3266 163.611 96.6218 163.526C96.7279 163.495 96.8276 163.476 96.9185 163.466C96.9707 163.46 97.0124 163.458 97.0422 163.458L97.1688 163.459L107.928 163.474L111.491 163.485C111.528 163.485 111.556 163.486 111.574 163.486C111.849 163.491 112.089 163.552 112.292 163.649C112.365 163.685 112.429 163.723 112.481 163.76L112.5 163.774C112.52 163.789 112.533 163.8 112.539 163.806C112.584 163.847 112.653 163.845 112.694 163.8C112.736 163.756 112.733 163.687 112.689 163.646C112.635 163.595 112.534 163.523 112.387 163.452C112.166 163.346 111.909 163.279 111.618 163.268L111.578 163.267C111.537 163.266 111.449 163.265 111.315 163.265L104.331 163.249L97.0584 163.24C97.0188 163.239 96.9634 163.241 96.8945 163.248Z" fill="#56ACF6"/>
<path fill-rule="evenodd" clip-rule="evenodd" d="M97.2924 171.137H111.328C112.691 171.137 113.796 170.033 113.796 168.67V165.87C113.796 164.507 112.691 163.403 111.328 163.403H97.2924C95.9291 163.403 94.8239 164.507 94.8239 165.87V168.67C94.8239 170.033 95.9291 171.137 97.2924 171.137Z" fill="#FCEBEC"/>
<path fill-rule="evenodd" clip-rule="evenodd" d="M102.958 163.353L103.781 164.171C103.895 164.284 104.045 164.34 104.194 164.339C104.34 164.337 104.486 164.282 104.597 164.171L105.42 163.353C105.786 162.989 105.528 162.365 105.012 162.365H103.366C102.85 162.365 102.592 162.989 102.958 163.353Z" fill="black"/>
<path d="M104.087 163.718L104.079 165.788L104.298 165.789L104.306 163.719L104.087 163.718Z" fill="black"/>
<path d="M105.308 165.103C105.262 165.065 105.193 165.071 105.154 165.117L105.131 165.143L105.1 165.178C105.09 165.19 105.078 165.202 105.066 165.215C104.998 165.29 104.924 165.364 104.85 165.434C104.776 165.502 104.706 165.561 104.639 165.609C104.587 165.646 104.538 165.676 104.495 165.697L104.477 165.705H103.869L103.852 165.698L103.844 165.695C103.809 165.68 103.769 165.659 103.726 165.633C103.6 165.556 103.473 165.446 103.354 165.299C103.316 165.252 103.279 165.201 103.244 165.148C103.211 165.097 103.143 165.083 103.093 165.116C103.042 165.149 103.028 165.217 103.061 165.268C103.1 165.327 103.141 165.383 103.183 165.436C103.318 165.604 103.464 165.73 103.611 165.82C103.696 165.871 103.764 165.902 103.81 165.917L103.834 165.924H104.519L104.538 165.917C104.61 165.889 104.686 165.845 104.767 165.786C104.842 165.733 104.919 165.668 104.999 165.594C105.078 165.521 105.155 165.442 105.228 165.364L105.264 165.324L105.309 165.273C105.314 165.266 105.319 165.261 105.321 165.258C105.36 165.211 105.354 165.142 105.308 165.103Z" fill="black"/>
<path fill-rule="evenodd" clip-rule="evenodd" d="M110.481 196.582H113.608C115.65 196.582 117.305 194.928 117.305 192.888C117.305 190.848 115.65 189.194 113.608 189.194H110.481C108.44 189.194 106.785 190.848 106.785 192.888C106.785 194.928 108.44 196.582 110.481 196.582Z" fill="#FCEBEC"/>
<path fill-rule="evenodd" clip-rule="evenodd" d="M113.608 189.112H110.481C108.394 189.112 106.702 190.802 106.702 192.888C106.702 194.973 108.394 196.664 110.481 196.664H113.608C115.695 196.664 117.387 194.973 117.387 192.888C117.387 190.802 115.695 189.112 113.608 189.112ZM110.481 189.276H113.608C115.604 189.276 117.222 190.893 117.222 192.888C117.222 194.882 115.604 196.499 113.608 196.499H110.481C108.485 196.499 106.867 194.882 106.867 192.888C106.867 190.893 108.485 189.276 110.481 189.276Z" fill="#FFA7C4"/>
<path fill-rule="evenodd" clip-rule="evenodd" d="M93.8348 196.88H96.9624C99.0038 196.88 100.659 195.227 100.659 193.187C100.659 191.146 99.0038 189.493 96.9624 189.493H93.8348C91.7935 189.493 90.1386 191.146 90.1386 193.187C90.1386 195.227 91.7935 196.88 93.8348 196.88Z" fill="#FCEBEC"/>
<path fill-rule="evenodd" clip-rule="evenodd" d="M96.9624 189.41H93.8348C91.7481 189.41 90.0564 191.101 90.0564 193.187C90.0564 195.272 91.7481 196.963 93.8348 196.963H96.9624C99.0493 196.963 100.741 195.272 100.741 193.187C100.741 191.101 99.0493 189.41 96.9624 189.41ZM93.8348 189.575H96.9624C98.9584 189.575 100.576 191.192 100.576 193.187C100.576 195.181 98.9584 196.798 96.9624 196.798H93.8348C91.8389 196.798 90.2209 195.181 90.2209 193.187C90.2209 191.192 91.8389 189.575 93.8348 189.575Z" fill="#FFA7C4"/>
<path d="M107.675 179.312C107.647 179.276 107.596 179.27 107.56 179.298C107.524 179.326 107.518 179.378 107.546 179.414C108.316 180.392 108.922 181.618 109.384 183.034C109.822 184.381 110.107 185.825 110.267 187.27C110.32 187.747 110.356 188.193 110.378 188.596L110.381 188.666C110.387 188.784 110.391 188.891 110.394 188.987L110.397 189.102L110.399 189.194C110.399 189.239 110.436 189.276 110.481 189.276C110.527 189.276 110.563 189.239 110.563 189.193L110.563 189.157L110.562 189.098L110.559 188.982C110.556 188.885 110.551 188.777 110.546 188.658C110.524 188.234 110.487 187.761 110.431 187.252C110.269 185.797 109.983 184.342 109.54 182.983C109.073 181.55 108.458 180.307 107.675 179.312Z" fill="#56ACF6"/>
<path d="M100.148 178.947C100.109 178.924 100.059 178.937 100.036 178.977C98.6726 181.323 97.789 183.796 97.2897 186.243C97.1212 187.069 97.009 187.835 96.9423 188.524L96.9351 188.6C96.9121 188.848 96.8969 189.068 96.8879 189.258L96.8855 189.313C96.8843 189.339 96.8834 189.364 96.8827 189.387L96.88 189.492C96.8797 189.537 96.9162 189.575 96.9617 189.575C97.0071 189.575 97.0442 189.539 97.0446 189.493L97.0458 189.436L97.0479 189.369C97.0487 189.345 97.0498 189.32 97.051 189.293L97.0565 189.184C97.0656 189.016 97.0795 188.826 97.0989 188.615C97.164 187.912 97.2774 187.126 97.4509 186.276C97.9468 183.846 98.8245 181.389 100.178 179.059C100.201 179.02 100.188 178.97 100.148 178.947Z" fill="#56ACF6"/>
</svg>
