<svg width="257" height="194" viewBox="0 0 257 194" fill="none" xmlns="http://www.w3.org/2000/svg">
<path opacity="0.5" d="M128.377 193.374C199.277 193.374 256.753 191.295 256.753 188.729C256.753 186.163 199.277 184.083 128.377 184.083C57.4761 184.083 0 186.163 0 188.729C0 191.295 57.4761 193.374 128.377 193.374Z" fill="#F7E2FF"/>
<path fill-rule="evenodd" clip-rule="evenodd" d="M83.2464 118.301C82.2819 123.966 73 185.051 73 185.051C73 185.051 73.2087 186.593 74.7194 186.82C76.2292 187.047 77.0285 185.641 77.0285 185.641L90.1205 119.785L83.2464 118.301Z" fill="#D9BFFF"/>
<path fill-rule="evenodd" clip-rule="evenodd" d="M113.71 119.747C114.729 125.403 126.763 185.984 126.763 185.984C126.763 185.984 127.482 187.357 128.976 187.034C130.469 186.712 130.742 185.109 130.742 185.109L120.661 118.704L113.71 119.747Z" fill="#D9BFFF"/>
<path fill-rule="evenodd" clip-rule="evenodd" d="M128.969 119.563C129.988 125.218 142.021 185.799 142.021 185.799C142.021 185.799 142.74 187.172 144.234 186.85C145.727 186.527 146 184.924 146 184.924L135.92 118.52L128.969 119.563Z" fill="#D9BFFF"/>
<path fill-rule="evenodd" clip-rule="evenodd" d="M137.079 120.887H81.3906C79.281 120.887 77.5715 119.14 77.5715 116.986C77.5715 114.831 79.281 113.083 81.3906 113.083H137.079C139.189 113.083 140.898 114.831 140.898 116.986C140.898 119.14 139.189 120.887 137.079 120.887Z" fill="#E7DFFF"/>
<path fill-rule="evenodd" clip-rule="evenodd" d="M148.368 178.252L154.658 184.222L164.246 183.445L163.476 180.912L151.732 177.047L148.368 178.252Z" fill="#E7E7E7"/>
<path fill-rule="evenodd" clip-rule="evenodd" d="M144.553 142.722C144.491 143.579 146.885 160.776 146.885 160.776L155.973 161.615L158.2 141.767L144.553 142.722Z" fill="#7D4439"/>
<path fill-rule="evenodd" clip-rule="evenodd" d="M145.6 170.217C145.621 169.924 146.604 160.301 146.604 160.301C146.604 160.301 146.341 159.871 146.421 158.76C146.5 157.65 147.219 156.643 151.924 157.392C156.629 158.14 156.88 158.745 156.846 159.213C156.813 159.68 156.207 160.753 156.153 161.513C156.098 162.273 155.98 169.667 155.98 169.667L145.6 170.217Z" fill="#F7E2FF"/>
<path fill-rule="evenodd" clip-rule="evenodd" d="M145.49 169.837L144.63 177.532L150.852 176.353L156.727 178.759L165.655 182.016L173.111 181.241L172.797 179.323C172.797 179.323 166.098 175.82 164.498 174.848C162.898 173.876 162.257 172.184 162.257 172.184L159.741 168.548C159.741 168.548 157.054 164.668 154.909 164.334C152.764 163.999 150.93 164.374 151.338 165.235C151.747 166.096 152.759 167.614 152.759 167.614L148.839 166.827L146.619 169.56L146.03 170.205L146.267 170.659" fill="#E7E7E7"/>
<mask id="mask0_344_11697" style="mask-type:alpha" maskUnits="userSpaceOnUse" x="139" y="165" width="36" height="25">
<path fill-rule="evenodd" clip-rule="evenodd" d="M139.525 167.997L173.511 165.62L175 186.898L141.013 189.275L139.525 167.997Z" fill="white"/>
</mask>
<g mask="url(#mask0_344_11697)">
<path fill-rule="evenodd" clip-rule="evenodd" d="M145.332 168.15C145.332 168.15 142.759 174.243 142.985 174.156C143.211 174.069 144.657 171.088 144.718 172.229C144.778 173.37 144.028 174.829 144.183 176.097C144.183 176.097 145.358 179.16 146.064 179.21C146.771 179.261 150.14 178.382 150.14 178.382C150.14 178.382 151.677 176.388 154.861 178.474C158.045 180.56 162.155 182.684 162.155 182.684C162.155 182.684 161.654 183.105 161.635 183.495C161.616 183.885 161.866 184.417 161.866 184.417L149.41 182.621L142.704 178.081L141.874 178.169C141.874 178.169 141.105 178.643 141.035 180.021C140.966 181.398 141.029 181.756 140.822 182.182C140.615 182.609 140.084 183.453 141.702 183.863C143.32 184.274 155.467 187.172 160.819 187.615C166.17 188.057 171.662 186.538 173.149 185.085C174.636 183.632 174.865 182.472 174.533 181.361C174.201 180.248 173.544 178.907 172.009 179.162C170.474 179.417 169.597 179.672 167.079 178.868C164.561 178.064 163.567 178.157 163.655 178.728C163.744 179.299 165.598 179.843 165.598 179.843C165.598 179.843 168.086 180.398 168.069 180.643C168.052 180.889 167.965 181.107 165.708 180.933C163.451 180.76 160.747 180.267 157.198 178.108C153.65 175.949 152.598 175.103 150.267 175.364C147.937 175.625 145.848 176.696 145.26 175.048C144.672 173.401 146.279 171.217 146.267 170.658C146.254 170.1 145.489 169.836 145.489 169.836L145.338 167.59" fill="#E7E7E7"/>
<path fill-rule="evenodd" clip-rule="evenodd" d="M145.652 166.752C145.652 166.752 145.567 166.864 145.338 167.59C145.108 168.316 145.029 170.553 145.808 170.48C146.588 170.406 147.198 168.869 147.89 167.999C148.581 167.129 149.454 166.885 150.199 167.293C150.944 167.701 153.823 167.523 153.823 167.523C153.823 167.523 153.052 166.213 150.495 166.188C150.495 166.188 148.687 165.59 147.632 167.232C146.576 168.875 145.933 170.507 145.856 169.125C145.789 167.936 146.163 167.207 146.084 166.787C146.004 166.367 145.652 166.752 145.652 166.752Z" fill="#E7E7E7"/>
<path fill-rule="evenodd" clip-rule="evenodd" d="M165.252 175.172C165.252 175.172 163.889 175.373 159.929 175C155.969 174.627 156.846 172.831 155.232 172.356C153.617 171.881 153.443 171.808 152.561 170.306C151.68 168.804 149.453 170.173 148.393 169.918C147.331 169.662 150.508 166.742 150.508 166.742C150.508 166.742 152.227 166.28 153.823 167.523C154.272 167.873 155.179 169.127 155.454 169.421C155.727 169.714 157.393 170.319 158.874 172.175C160.354 174.032 162.438 173.506 162.852 173.62C163.266 173.735 159.697 168.775 159.697 168.775L159.704 168.282C159.704 168.282 161.933 171.56 163.023 173.021C164.114 174.481 165.013 174.845 165.175 174.931C165.337 175.017 165.252 175.172 165.252 175.172Z" fill="#E7E7E7"/>
<path fill-rule="evenodd" clip-rule="evenodd" d="M144.027 171.167C144.027 171.167 141.477 176.976 141.62 178.309C141.763 179.642 144.62 178.784 145.825 181.341C147.029 183.899 148.828 185.02 156.448 186.348C164.068 187.676 170.497 184.819 170.529 184.374C170.561 183.929 170.51 183.068 170.51 183.068C170.51 183.068 159.537 184.854 154.987 181.77C150.437 178.686 150.281 177.743 148.572 178.18C146.864 178.617 145.86 178.061 144.557 176.476C144.557 176.476 144.427 175.684 144.91 173.632C145.392 171.579 144.969 168.65 144.027 171.167Z" fill="white"/>
<path fill-rule="evenodd" clip-rule="evenodd" d="M150.602 166.441C150.602 166.441 149.671 165.429 151.211 164.335C152.752 163.241 155.503 164.054 156.329 164.93C156.329 164.93 154.75 164.158 152.786 164.361C150.822 164.565 151.283 165.128 152.187 166.526L150.411 166.299" fill="#E7E7E7"/>
<path fill-rule="evenodd" clip-rule="evenodd" d="M153.227 167.575C153.438 167.911 153.258 168.403 152.826 168.675C152.393 168.947 151.871 168.895 151.66 168.559C151.449 168.223 151.629 167.73 152.062 167.459C152.495 167.187 153.017 167.239 153.227 167.575Z" fill="#E7E7E7"/>
<path fill-rule="evenodd" clip-rule="evenodd" d="M151.919 168.197C151.919 168.197 152.022 167.478 153.406 167.004C154.79 166.529 157.406 165.761 158.793 166.842C160.181 167.922 160.057 168.41 160.057 168.41C160.057 168.41 159.043 167.802 158.259 167.542C157.475 167.282 156.412 167.181 155.353 167.385C154.294 167.59 153.237 167.934 152.896 168.075C152.555 168.217 152.238 168.907 151.919 168.197Z" fill="#E8D9F3"/>
<path fill-rule="evenodd" clip-rule="evenodd" d="M155.084 169.122C155.295 169.458 155.115 169.95 154.682 170.222C154.25 170.494 153.728 170.442 153.517 170.106C153.306 169.77 153.486 169.278 153.919 169.006C154.352 168.734 154.873 168.786 155.084 169.122Z" fill="#E7E7E7"/>
<path fill-rule="evenodd" clip-rule="evenodd" d="M153.776 169.744C153.776 169.744 153.877 169.025 155.208 168.547C156.54 168.069 159.056 167.294 160.387 168.37C161.718 169.446 161.597 169.935 161.597 169.935C161.597 169.935 160.625 169.33 159.872 169.072C159.119 168.814 158.098 168.716 157.079 168.923C156.06 169.131 155.044 169.478 154.715 169.62C154.387 169.762 154.08 170.454 153.776 169.744Z" fill="#E8D9F3"/>
<path fill-rule="evenodd" clip-rule="evenodd" d="M157.135 170.529C157.346 170.865 157.166 171.358 156.734 171.629C156.301 171.901 155.779 171.849 155.568 171.513C155.357 171.177 155.537 170.685 155.97 170.413C156.403 170.141 156.924 170.193 157.135 170.529Z" fill="#E7E7E7"/>
<path fill-rule="evenodd" clip-rule="evenodd" d="M155.825 171.181C155.825 171.181 155.91 170.535 156.971 170.096C158.032 169.657 160.715 169.076 161.763 170.032C162.812 170.988 162.165 171.647 162.165 171.647C162.165 171.647 161.266 170.758 160.67 170.532C160.075 170.306 159.264 170.225 158.454 170.419C157.643 170.613 156.833 170.933 156.572 171.062C156.31 171.193 156.061 171.815 155.825 171.181Z" fill="#E8D9F3"/>
</g>
<path fill-rule="evenodd" clip-rule="evenodd" d="M76.9244 90.2415C76.9244 90.2415 76.3738 106.95 79.3512 105.96C79.3512 105.96 95.5642 107.568 99.5246 108.187C101.517 108.498 105.328 110.883 117.254 112.873C129.18 114.862 140.55 116.913 140.55 117.713C140.55 119.322 143.148 131.059 143.767 145.416C143.767 145.416 147.48 149.871 158.619 145.911C158.619 145.911 159.426 117.841 153.857 106.95C143.222 92.8406 109.513 90.2415 109.513 90.2415H76.9244Z" fill="#F68FFF"/>
<path fill-rule="evenodd" clip-rule="evenodd" d="M109.008 140.974C109.008 141.833 110.072 163.814 110.072 163.814L118.752 164.612L123.55 139.771L109.008 140.974Z" fill="#7D4439"/>
<path fill-rule="evenodd" clip-rule="evenodd" d="M111.802 168.637L117.66 175.032L127.279 174.924L126.688 172.345L115.242 167.669L111.802 168.637Z" fill="#E7E7E7"/>
<path fill-rule="evenodd" clip-rule="evenodd" d="M111.826 178.728L117.684 185.122L127.303 185.015L126.712 182.435L115.265 177.76L111.826 178.728Z" fill="#E7E7E7"/>
<path fill-rule="evenodd" clip-rule="evenodd" d="M109.258 171.866C109.258 171.573 109.551 161.904 109.551 161.904C109.551 161.904 109.258 161.494 109.258 160.38C109.258 159.267 109.903 158.212 114.649 158.622C119.396 159.032 119.689 159.618 119.689 160.087C119.689 160.556 119.162 161.669 119.162 162.431C119.162 163.193 119.572 170.577 119.572 170.577L109.258 171.866Z" fill="#F7E2FF"/>
<path fill-rule="evenodd" clip-rule="evenodd" d="M109.12 171.495L108.813 179.232L114.934 177.612L120.966 179.593L130.104 182.203L137.486 180.898L137.035 179.007C137.035 179.007 130.104 175.991 128.438 175.136C126.773 174.281 126.012 172.638 126.012 172.638L123.243 169.191C123.243 169.191 120.286 165.514 118.123 165.333C115.96 165.153 114.157 165.658 114.625 166.487C115.094 167.316 116.212 168.759 116.212 168.759L112.246 168.254L110.227 171.138L109.686 171.824L109.954 172.26" fill="#E7E7E7"/>
<path fill-rule="evenodd" clip-rule="evenodd" d="M108.843 169.825C108.843 169.825 106.712 176.086 106.931 175.983C107.15 175.88 108.38 172.804 108.521 173.937C108.663 175.071 108.02 176.58 108.265 177.834C108.265 177.834 109.655 180.805 110.363 180.805C111.072 180.805 114.37 179.687 114.37 179.687C114.37 179.687 115.759 177.589 119.084 179.442C122.409 181.295 126.661 183.121 126.661 183.121C126.661 183.121 126.192 183.575 126.2 183.966C126.209 184.356 126.496 184.87 126.496 184.87L113.943 183.967L106.931 179.918L106.109 180.064C106.109 180.064 105.376 180.593 105.405 181.972C105.434 183.351 105.522 183.703 105.346 184.144C105.17 184.584 104.701 185.464 106.344 185.757C107.987 186.051 120.31 188.075 125.68 188.134C131.049 188.192 136.419 186.285 137.798 184.731C139.177 183.175 139.324 182.001 138.913 180.916C138.502 179.83 137.751 178.54 136.238 178.903C134.725 179.267 133.869 179.583 131.3 178.962C128.731 178.34 127.746 178.505 127.875 179.068C128.004 179.631 129.892 180.041 129.892 180.041C129.892 180.041 132.414 180.416 132.414 180.663C132.414 180.909 132.344 181.132 130.08 181.12C127.816 181.108 125.083 180.81 121.39 178.91C117.697 177.009 116.586 176.241 114.281 176.668C111.975 177.095 109.968 178.312 109.264 176.711C108.559 175.109 110.006 172.816 109.954 172.26C109.902 171.704 109.12 171.496 109.12 171.496L108.808 169.266" fill="#E7E7E7"/>
<path fill-rule="evenodd" clip-rule="evenodd" d="M109.062 168.408C109.062 168.408 108.985 168.526 108.808 169.266C108.631 170.006 108.712 172.243 109.484 172.114C110.257 171.985 110.756 170.408 111.383 169.491C112.011 168.574 112.864 168.268 113.636 168.622C114.409 168.976 117.267 168.593 117.267 168.593C117.267 168.593 116.405 167.341 113.852 167.499C113.852 167.499 112.007 167.031 111.071 168.745C110.135 170.458 109.611 172.132 109.435 170.76C109.283 169.578 109.605 168.825 109.495 168.411C109.386 167.998 109.062 168.408 109.062 168.408Z" fill="#E7E7E7"/>
<path fill-rule="evenodd" clip-rule="evenodd" d="M129.213 175.406C129.213 175.406 127.868 175.704 123.892 175.615C119.915 175.525 120.662 173.671 119.018 173.312C117.373 172.954 117.194 172.894 116.207 171.458C115.221 170.023 113.098 171.548 112.022 171.369C110.945 171.189 113.905 168.05 113.905 168.05C113.905 168.05 115.586 167.467 117.267 168.593C117.74 168.91 118.735 170.095 119.03 170.369C119.323 170.642 121.028 171.126 122.637 172.872C124.247 174.619 126.288 173.946 126.709 174.029C127.13 174.114 123.216 169.422 123.216 169.422L123.188 168.929C123.188 168.929 125.645 172.04 126.837 173.419C128.03 174.798 128.952 175.096 129.12 175.17C129.287 175.245 129.213 175.406 129.213 175.406Z" fill="#E7E7E7"/>
<path fill-rule="evenodd" clip-rule="evenodd" d="M107.757 172.926C107.757 172.926 105.628 178.903 105.865 180.222C106.103 181.541 108.892 180.482 110.276 182.947C111.66 185.411 113.535 186.401 121.23 187.181C128.926 187.962 135.134 184.654 135.134 184.207C135.134 183.761 135.023 182.906 135.023 182.906C135.023 182.906 124.204 185.471 119.446 182.72C114.687 179.969 114.464 179.04 112.791 179.597C111.118 180.155 110.077 179.672 108.665 178.185C108.665 178.185 108.479 177.404 108.813 175.322C109.148 173.24 108.517 170.349 107.757 172.926Z" fill="white"/>
<path fill-rule="evenodd" clip-rule="evenodd" d="M113.977 167.744C113.977 167.744 112.976 166.8 114.434 165.599C115.893 164.398 118.695 165.012 119.582 165.827C119.582 165.827 117.952 165.17 116.007 165.513C114.063 165.856 114.563 166.385 115.564 167.715L113.777 167.615" fill="#E7E7E7"/>
<path fill-rule="evenodd" clip-rule="evenodd" d="M116.677 168.687C116.911 169.006 116.767 169.511 116.355 169.813C115.943 170.114 115.418 170.1 115.184 169.78C114.95 169.46 115.094 168.956 115.506 168.654C115.919 168.352 116.443 168.367 116.677 168.687Z" fill="#E7E7E7"/>
<path fill-rule="evenodd" clip-rule="evenodd" d="M115.417 169.401C115.417 169.401 115.468 168.676 116.814 168.104C118.161 167.533 120.715 166.58 122.177 167.558C123.638 168.537 123.549 169.032 123.549 169.032C123.549 169.032 122.494 168.498 121.694 168.295C120.893 168.092 119.826 168.066 118.784 168.346C117.742 168.626 116.713 169.045 116.382 169.21C116.052 169.375 115.785 170.087 115.417 169.401Z" fill="#E8D9F3"/>
<path fill-rule="evenodd" clip-rule="evenodd" d="M118.639 170.097C118.874 170.417 118.729 170.921 118.317 171.223C117.905 171.525 117.381 171.511 117.146 171.191C116.912 170.871 117.056 170.367 117.469 170.065C117.881 169.763 118.405 169.777 118.639 170.097Z" fill="#E7E7E7"/>
<path fill-rule="evenodd" clip-rule="evenodd" d="M117.379 170.811C117.379 170.811 117.428 170.087 118.722 169.515C120.016 168.943 122.471 167.99 123.875 168.969C125.279 169.947 125.194 170.442 125.194 170.442C125.194 170.442 124.18 169.909 123.411 169.705C122.642 169.502 121.616 169.477 120.615 169.756C119.613 170.036 118.624 170.455 118.307 170.62C117.989 170.786 117.733 171.497 117.379 170.811Z" fill="#E8D9F3"/>
<path fill-rule="evenodd" clip-rule="evenodd" d="M120.786 171.355C121.02 171.675 120.876 172.179 120.464 172.481C120.051 172.783 119.527 172.768 119.293 172.448C119.058 172.128 119.203 171.624 119.615 171.322C120.027 171.02 120.551 171.035 120.786 171.355Z" fill="#E7E7E7"/>
<path fill-rule="evenodd" clip-rule="evenodd" d="M119.525 172.098C119.525 172.098 119.564 171.448 120.591 170.934C121.618 170.42 124.252 169.65 125.367 170.529C126.481 171.407 125.883 172.111 125.883 172.111C125.883 172.111 124.923 171.288 124.312 171.105C123.702 170.923 122.888 170.9 122.093 171.151C121.299 171.402 120.514 171.779 120.262 171.927C120.01 172.075 119.806 172.715 119.525 172.098Z" fill="#E8D9F3"/>
<path fill-rule="evenodd" clip-rule="evenodd" d="M85.4689 112.872C97.3949 114.862 108.766 116.913 108.766 117.712C108.766 119.321 107.8 131.059 108.419 145.415C108.419 145.415 112.132 149.87 123.27 145.91C123.27 145.91 127.641 117.84 122.072 106.949C111.437 92.8401 77.7282 90.241 77.7282 90.241C77.7282 90.241 73.543 110.883 85.4689 112.872Z" fill="#F68FFF"/>
<path d="M112.588 98.4899C120.134 101.309 124.027 106.506 124.25 114.061L124.256 114.291L123.989 114.296C123.842 106.804 120.092 101.654 112.719 98.8253L112.495 98.7403L112.588 98.4899Z" fill="black"/>
<path fill-rule="evenodd" clip-rule="evenodd" d="M79.2241 64.0518L76.0173 94.0907C76.0173 94.0907 107.225 101.596 118.602 91.7801L119.757 65.3355L79.2241 64.0518Z" fill="#AB71FF"/>
<path fill-rule="evenodd" clip-rule="evenodd" d="M92.8501 24.9445C92.8501 24.9445 92.5213 32.1739 88.3042 34.7258C84.478 37.0412 92.5842 50.4765 101.304 49.6751C106.078 49.2363 107.196 36.183 107.196 36.183C107.196 36.183 103.342 35.4382 104.766 29.5607L92.8501 24.9445Z" fill="#7D4439"/>
<path fill-rule="evenodd" clip-rule="evenodd" d="M99.8328 32.2951C94.1796 31.6114 90.0997 27.8944 89.5284 21.7283C87.8849 21.9899 87.4973 17.7077 87.9551 16.3321C88.4132 14.9546 89.9086 15.76 89.9086 15.76C89.9086 15.76 90.0328 15.4335 90.1198 15.0763C92.5893 4.9466 99.5061 5.34835 99.5061 5.34835C112.216 6.01049 109.238 18.9865 108.512 22.4289C107.786 25.8717 105.298 32.9553 99.8328 32.2951Z" fill="#7D4439"/>
<path fill-rule="evenodd" clip-rule="evenodd" d="M118.628 73.6839C116.752 72.9202 114.336 70.5032 111.445 66.5002C109.301 63.5316 107.68 60.7481 107.664 60.7204L107.972 60.5415C108.036 60.6517 114.424 71.5868 118.762 73.3538L118.628 73.6839Z" fill="#864A56"/>
<mask id="mask1_344_11697" style="mask-type:alpha" maskUnits="userSpaceOnUse" x="68" y="34" width="54" height="56">
<path fill-rule="evenodd" clip-rule="evenodd" d="M68 34.3523H121.799V89.2911H68V34.3523Z" fill="white"/>
</mask>
<g mask="url(#mask1_344_11697)">
<path fill-rule="evenodd" clip-rule="evenodd" d="M88.6651 34.3523C88.6651 34.3523 72.8344 35.8512 69.5698 52.2947C66.3053 68.7382 65.9143 88.1339 91.0703 89.1382C116.226 90.1423 118.366 85.91 118.348 84.9852C118.33 84.0605 118.775 68.8273 120.824 57.2466C122.873 45.6658 123.051 39.43 107.372 35.5995C107.372 35.5995 100.424 44.8641 88.6651 34.3523Z" fill="#AB71FF"/>
</g>
<path fill-rule="evenodd" clip-rule="evenodd" d="M100.691 41.1218L102.562 32.5698C102.562 32.5698 102.473 31.1445 104.7 31.2336C106.927 31.3227 122.695 31.0554 122.695 31.0554C122.695 31.0554 123.942 30.8773 124.299 32.0353C124.655 33.1934 120.023 52.6134 120.023 52.6134C120.023 52.6134 120.112 53.9497 118.597 53.9497C117.083 53.9497 98.4644 54.6623 98.4644 54.6623L100.691 41.1218Z" fill="#C689FF"/>
<mask id="mask2_344_11697" style="mask-type:alpha" maskUnits="userSpaceOnUse" x="98" y="31" width="27" height="24">
<path fill-rule="evenodd" clip-rule="evenodd" d="M98.4114 31.0019H124.361V54.7089H98.4114V31.0019Z" fill="white"/>
</mask>
<g mask="url(#mask2_344_11697)">
<path fill-rule="evenodd" clip-rule="evenodd" d="M100.735 41.1301L98.517 54.6158C99.6341 54.5731 117.139 53.9051 118.597 53.9051C119.062 53.9051 119.419 53.7766 119.656 53.5229C120.008 53.1483 119.978 52.6216 119.978 52.6164L119.977 52.6097L119.979 52.6031C120.025 52.409 124.604 33.1817 124.256 32.0485C123.915 30.941 122.75 31.0925 122.701 31.0995C122.537 31.1027 106.901 31.3664 104.698 31.2781C103.882 31.2454 103.29 31.4115 102.937 31.7715C102.585 32.1307 102.606 32.5628 102.606 32.5672L102.607 32.5733L102.605 32.5794L100.735 41.1301ZM98.4114 54.709L100.648 41.1123L102.517 32.5661C102.515 32.5058 102.512 32.0784 102.872 31.7106C103.243 31.3309 103.861 31.1564 104.702 31.1891C106.902 31.2772 122.536 31.0136 122.694 31.0109C122.701 31.0095 123.978 30.8416 124.34 32.0222C124.696 33.1758 120.277 51.737 120.067 52.6175C120.071 52.6863 120.081 53.1992 119.722 53.5831C119.468 53.856 119.088 53.9942 118.597 53.9942C117.101 53.9942 98.6521 54.6998 98.4659 54.7069L98.4114 54.709Z" fill="black"/>
</g>
<path fill-rule="evenodd" clip-rule="evenodd" d="M101.315 41.7455L103.186 33.1935C103.186 33.1935 103.097 31.7682 105.324 31.8573C107.551 31.9464 123.319 31.6791 123.319 31.6791C123.319 31.6791 124.566 31.501 124.922 32.659C125.278 33.8171 120.646 53.2371 120.646 53.2371C120.646 53.2371 120.735 54.5734 119.221 54.5734C117.706 54.5734 99.0879 55.286 99.0879 55.286L101.315 41.7455Z" fill="#E7DFFF"/>
<path fill-rule="evenodd" clip-rule="evenodd" d="M91.6227 55.1548C91.6227 55.1548 96.8034 49.2506 98.2164 46.7201C99.6294 44.1897 99.6294 42.7136 99.5116 41.5539C99.3938 40.3941 99.3938 39.0235 100.336 38.8126C101.278 38.6017 101.396 39.1289 101.513 40.3941C101.631 41.6593 101.513 42.9245 103.633 42.1865C105.752 41.4485 110.933 39.6561 111.522 41.1321C112.11 42.6082 110.815 42.819 110.815 42.819C110.815 42.819 111.757 42.9245 111.993 43.6625C112.228 44.4006 111.993 44.9278 111.286 45.244C110.58 45.5604 110.226 45.6657 110.226 45.6657C110.226 45.6657 111.639 45.4549 111.993 46.5093C112.346 47.5636 111.757 48.0907 111.168 48.3016C111.168 48.3016 111.926 48.4235 112.11 49.2506C112.228 49.7778 111.522 50.094 110.697 50.4103C109.583 50.838 106.223 50.9375 103.397 52.7298C100.571 54.5223 93.7421 66.2254 90.3275 69.8102C86.9129 73.395 83.4983 64.1168 83.4983 64.1168C83.4983 64.1168 87.7371 58.7396 91.6227 55.1548Z" fill="#7D4439"/>
<path fill-rule="evenodd" clip-rule="evenodd" d="M104.962 44.5295L104.893 44.2716L110.78 42.69L110.85 42.948L104.962 44.5295Z" fill="black"/>
<path fill-rule="evenodd" clip-rule="evenodd" d="M104.962 47.2708L104.893 47.0128L110.78 45.4312L110.85 45.6892L104.962 47.2708Z" fill="black"/>
<path fill-rule="evenodd" clip-rule="evenodd" d="M105.669 50.0125L105.6 49.7545L111.487 48.173L111.556 48.431L105.669 50.0125Z" fill="black"/>
<mask id="mask3_344_11697" style="mask-type:alpha" maskUnits="userSpaceOnUse" x="116" y="38" width="12" height="36">
<path fill-rule="evenodd" clip-rule="evenodd" d="M116.131 38.5417H127.594V73.7271H116.131V38.5417Z" fill="white"/>
</mask>
<g mask="url(#mask3_344_11697)">
<path fill-rule="evenodd" clip-rule="evenodd" d="M119.113 68.7005C119.113 68.7005 119.937 64.4831 120.291 59.2114C120.644 53.9398 120.526 51.6203 120.055 51.1985C119.584 50.7768 116.287 50.8821 116.287 49.1953C116.287 47.5082 118.642 48.0354 118.642 48.0354C118.642 48.0354 116.169 47.6137 116.405 46.3485C116.64 45.0833 118.053 45.2942 118.053 45.2942C118.053 45.2942 115.816 44.8724 116.169 43.5018C116.523 42.1312 118.642 42.6583 118.642 42.6583C118.642 42.6583 116.64 42.342 117.464 40.9714C118.289 39.6008 119.702 40.4442 121.35 40.8659C122.999 41.2877 123.116 41.3931 123.234 40.7605C123.352 40.1279 123.116 38.4409 124.412 38.5464C125.707 38.6518 125.942 39.0736 125.942 41.3931C125.942 43.7127 126.296 45.8213 126.649 47.93C127.002 50.0387 127.12 52.4636 126.884 56.3647C126.649 60.2657 129.946 71.758 124.058 73.4451C118.171 75.132 119.113 68.7005 119.113 68.7005Z" fill="#7D4439"/>
</g>
<path fill-rule="evenodd" clip-rule="evenodd" d="M121.603 48.7576L118.14 48.0138L118.197 47.7526L121.659 48.4962L121.603 48.7576Z" fill="black"/>
<path fill-rule="evenodd" clip-rule="evenodd" d="M121.52 46.1675L118.056 45.4237L118.113 45.1624L121.576 45.9061L121.52 46.1675Z" fill="black"/>
<path fill-rule="evenodd" clip-rule="evenodd" d="M121.671 43.3809L118.209 42.6372L118.265 42.3759L121.728 43.1196L121.671 43.3809Z" fill="black"/>
<path fill-rule="evenodd" clip-rule="evenodd" d="M124.859 41.6812L123.152 41.3121L123.208 41.051L124.916 41.42L124.859 41.6812Z" fill="black"/>
<path d="M103.612 17.3588L103.944 17.4654L103.912 17.5694C103.886 17.6543 103.857 17.7514 103.825 17.8591C103.736 18.167 103.646 18.4977 103.562 18.8381C103.469 19.2164 103.39 19.5834 103.327 19.9298L103.309 20.0324C103.158 20.9135 103.136 21.5863 103.272 21.9481L103.28 21.9686C104.054 23.8839 103.002 24.8552 100.796 24.1751L100.729 24.1539L100.835 23.8218C102.823 24.4578 103.62 23.7412 102.956 22.0994C102.773 21.6474 102.802 20.8805 102.984 19.868C103.048 19.5138 103.129 19.1399 103.223 18.7548C103.299 18.4477 103.379 18.1486 103.46 17.8665L103.49 17.7616C103.509 17.6991 103.526 17.64 103.543 17.5848L103.585 17.4448L103.612 17.3588Z" fill="black"/>
<path d="M95 30.7029L95.1707 30.3986L95.2329 30.4327L95.2901 30.463C95.3766 30.5085 95.475 30.5588 95.5845 30.6126L95.632 30.6358C96.0001 30.8151 96.4072 30.9945 96.8414 31.162C97.8397 31.5469 98.8262 31.8096 99.7439 31.8948C100.16 31.9335 100.554 31.9344 100.923 31.8948L100.997 31.8864L101.039 32.2326C100.623 32.2839 100.179 32.2856 99.7117 32.2422C98.7578 32.1536 97.7418 31.883 96.7159 31.4874C96.272 31.3162 95.8559 31.1329 95.4793 30.9494L95.3369 30.8791C95.2763 30.8487 95.2195 30.8197 95.1665 30.792L95.0678 30.7399L95 30.7029Z" fill="black"/>
<path fill-rule="evenodd" clip-rule="evenodd" d="M102.171 26.3264C102.171 26.6096 101.941 26.8392 101.658 26.8392C101.375 26.8392 101.145 26.6096 101.145 26.3264C101.145 26.0432 101.375 25.8136 101.658 25.8136C101.941 25.8136 102.171 26.0432 102.171 26.3264Z" fill="black"/>
<path fill-rule="evenodd" clip-rule="evenodd" d="M96.6631 19.4467L98.756 18.0514L96.6631 19.4467Z" fill="white"/>
<path fill-rule="evenodd" clip-rule="evenodd" d="M96.7357 19.5555L96.5906 19.3378L98.6835 17.9425L98.8286 18.1602L96.7357 19.5555Z" fill="black"/>
<path fill-rule="evenodd" clip-rule="evenodd" d="M97.6223 19.9699L99.7153 18.5746L97.6223 19.9699Z" fill="white"/>
<path fill-rule="evenodd" clip-rule="evenodd" d="M97.6949 20.0787L97.5498 19.8611L99.6428 18.4658L99.7879 18.6834L97.6949 20.0787Z" fill="black"/>
<path fill-rule="evenodd" clip-rule="evenodd" d="M104.861 20.1443L106.954 18.749L104.861 20.1443Z" fill="white"/>
<path fill-rule="evenodd" clip-rule="evenodd" d="M104.933 20.2531L104.788 20.0355L106.881 18.6402L107.026 18.8578L104.933 20.2531Z" fill="black"/>
<path fill-rule="evenodd" clip-rule="evenodd" d="M105.82 20.6675L107.913 19.2722L105.82 20.6675Z" fill="white"/>
<path fill-rule="evenodd" clip-rule="evenodd" d="M105.892 20.7764L105.747 20.5587L107.84 19.1634L107.985 19.3811L105.892 20.7764Z" fill="black"/>
<path d="M97.7854 14.0386C98.0512 14.0026 98.2982 13.9907 98.5242 14.0075C98.8424 14.031 99.2638 14.1164 99.7728 14.2507C99.9285 14.2917 100.09 14.3368 100.257 14.3854C100.536 14.4669 100.815 14.554 101.081 14.6412L101.256 14.6992L101.43 14.7583C101.68 14.8456 101.812 15.1192 101.725 15.3692C101.639 15.6131 101.377 15.7446 101.132 15.6701L101.107 15.6618L101.026 15.6339C100.954 15.6095 100.872 15.5822 100.782 15.5528C100.526 15.4687 100.256 15.3846 99.9879 15.3062C99.8292 15.26 99.6755 15.2171 99.5282 15.1782L99.4317 15.1531C99.0192 15.0473 98.6815 14.981 98.4534 14.9641C98.3004 14.9528 98.1182 14.9616 97.914 14.9892C97.6683 15.0224 97.4014 15.0811 97.1273 15.1581C96.9909 15.1964 96.8603 15.2371 96.7388 15.278L96.6788 15.2985C96.6405 15.3118 96.6055 15.3243 96.5743 15.3357L96.5105 15.3596C96.2639 15.4562 95.9856 15.3347 95.8889 15.0881C95.7922 14.8414 95.9138 14.5631 96.1604 14.4665L96.2104 14.4474C96.25 14.4326 96.302 14.4139 96.3649 14.3921C96.5201 14.3383 96.6894 14.2847 96.8679 14.2346C97.182 14.1464 97.491 14.0784 97.7854 14.0386Z" fill="black"/>
<path d="M106.262 15.4402L106.377 15.4371C106.852 15.4265 107.241 15.4412 107.53 15.4896C107.69 15.5162 107.856 15.5609 108.029 15.6216C108.286 15.7117 108.552 15.8353 108.824 15.9839C108.998 16.0788 109.165 16.1792 109.322 16.2804L109.388 16.3238C109.494 16.3938 109.573 16.4492 109.619 16.4828C109.828 16.6358 109.872 16.9289 109.719 17.1373C109.57 17.3401 109.289 17.388 109.082 17.2495L109.017 17.2037L108.964 17.1668C108.936 17.1475 108.905 17.127 108.873 17.1056C108.717 17.0032 108.549 16.9007 108.375 16.8055C108.145 16.6795 107.923 16.5767 107.719 16.5052C107.594 16.4613 107.479 16.4303 107.376 16.4132C107.139 16.3735 106.76 16.362 106.29 16.3762C106.003 16.3848 105.695 16.4024 105.381 16.4264L105.245 16.4371C105.156 16.4444 105.07 16.4519 104.989 16.4595L104.755 16.4824C104.498 16.5103 104.267 16.3245 104.239 16.0674C104.212 15.8167 104.388 15.5909 104.635 15.5539L104.704 15.5462L104.81 15.5357L104.84 15.5329C104.984 15.5192 105.142 15.5055 105.31 15.4927C105.637 15.4677 105.959 15.4493 106.262 15.4402Z" fill="black"/>
<path fill-rule="evenodd" clip-rule="evenodd" d="M110.054 19.3346C110.054 17.6654 109.682 15.552 110.683 14.7175C111.685 13.8829 113.855 12.4642 112.603 10.7114C111.351 8.95884 112.77 5.53708 110.6 5.11991C108.43 4.70255 108.338 4.0159 107.754 2.43014C107.17 0.844471 104.689 2.09804 103.67 1.29754C102.709 0.542569 101.56 -0.759018 98.8994 0.576866C97.4666 1.29621 95.0211 -1.49956 93.2406 2.44921C92.0987 4.98174 90.8906 2.76394 89.2383 4.07978C87.2742 5.64371 89.1855 7.92966 87.4329 9.09798C85.6803 10.2664 87.2066 11.6061 86.5761 12.9228C85.5358 15.0954 87.3151 22.7294 88.4835 23.397C89.652 24.0648 90.2563 25.1884 90.2563 25.1884C90.2563 25.1884 89.7174 23.3583 89.5846 21.689C89.5846 21.689 88.6815 21.9144 88.1886 20.3014C87.6957 18.6884 87.5206 15.9393 88.5871 15.6296C89.6536 15.3201 89.8529 16.1872 89.8529 16.1872C89.8529 16.1872 90.2031 17.516 90.0004 18.5296C89.7976 19.5433 90.4565 20.1515 90.8112 18.631C91.166 17.1105 92.9398 17.0599 92.585 14.982C92.2303 12.904 92.9398 11.6877 94.3589 11.0796C95.7779 10.4715 96.1834 7.37993 97.3997 7.68397C98.6161 7.9881 99.9844 6.67039 101.86 7.5826C103.735 8.49489 103.583 9.76192 105.205 10.066C106.826 10.3701 107.688 11.3837 107.688 12.2453C107.688 13.1068 108.803 13.4109 109.107 14.6272C109.411 15.8435 109.144 19.45 108.508 22.4783C108.508 22.4783 110.054 21.0037 110.054 19.3346Z" fill="#C38741"/>
<path fill-rule="evenodd" clip-rule="evenodd" d="M105.752 28.6789C105.752 28.6789 105.306 27.4281 103.851 25.8121C103.048 24.9215 98.6963 22.7936 96.9333 24.4894C95.1704 26.1852 94.2081 26.5225 94.5118 26.5727C97.4805 27.0622 98.0897 25.7333 99.4638 25.805C100.999 25.8852 101.861 25.7184 101.861 25.7184C102.261 26.3594 102.702 26.8268 103.69 27.6949C104.019 27.9836 105.524 29.3803 105.752 28.6789Z" fill="#C38741"/>
<path fill-rule="evenodd" clip-rule="evenodd" d="M46.4512 187.083L61.5394 96.4724L66.0336 97.4536L81.1359 186.957H78.1466L63.7641 98.7249L49.2342 187.07L46.4512 187.083Z" fill="#D9BFFF"/>
<path fill-rule="evenodd" clip-rule="evenodd" d="M50.3176 101.753H75.614V98.4726H50.3176V101.753Z" fill="#E7DFFF"/>
<path fill-rule="evenodd" clip-rule="evenodd" d="M162.356 187.007L177.445 96.3955L181.94 97.3768L197.041 186.881H194.052L179.67 98.6488L165.139 186.993L162.356 187.007Z" fill="#D9BFFF"/>
<path fill-rule="evenodd" clip-rule="evenodd" d="M166.223 101.75H191.519V98.4692H166.223V101.75Z" fill="#E7DFFF"/>
<path fill-rule="evenodd" clip-rule="evenodd" d="M220.331 98.5029H23.3655C22.6113 98.5029 22 97.6831 22 96.6712V87.9152C22 86.9033 22.6113 86.0835 23.3655 86.0835H220.331C221.084 86.0835 221.696 86.9033 221.696 87.9152V96.6712C221.696 97.6831 221.084 98.5029 220.331 98.5029Z" fill="#E7DFFF"/>
<path fill-rule="evenodd" clip-rule="evenodd" d="M186.799 79.5822H200.176V73.4668H186.799V79.5822Z" fill="#CB9EFF"/>
<path fill-rule="evenodd" clip-rule="evenodd" d="M201.808 52.272L194.338 52.2596L194.355 60.488H194.347L194.37 72.0061L200.175 71.9989V73.5031L186.805 73.5237V72.0194L192.874 72.0061V58.1957H192.879L192.867 52.2596L185.126 52.274V51.3331C185.126 50.4629 185.831 49.758 186.699 49.758L192.659 49.7436C192.077 49.403 191.687 48.7709 191.687 48.0475C191.687 46.9629 192.564 46.0835 193.646 46.0835C194.728 46.0835 195.605 46.9629 195.605 48.0475C195.605 48.7709 195.214 49.403 194.633 49.7436L200.343 49.7559C201.151 49.7559 201.808 50.4137 201.808 51.2243V52.272Z" fill="#C689FF"/>
<path fill-rule="evenodd" clip-rule="evenodd" d="M201.885 51.444L201.823 81.1201H185.372L185.307 57.1814L181 51.4979L201.885 51.444ZM201.006 80.2992L201.064 52.2669L182.647 52.3144L186.125 56.904L186.189 80.2992H201.006Z" fill="#C689FF"/>
<path fill-rule="evenodd" clip-rule="evenodd" d="M185.431 81.3319L182.713 85.8888L204.558 85.9168L201.886 81.3135L185.431 81.3319Z" fill="#C689FF"/>
<path fill-rule="evenodd" clip-rule="evenodd" d="M210.607 68.6632C210.607 71.8533 208.187 74.4389 205.2 74.4389H202.775V56.5529H204.925C208.063 56.5529 210.607 59.2701 210.607 62.623V68.6632ZM204.726 54.7356H201.588V76.6174H205.093C209.085 76.6174 212.321 73.3739 212.321 69.3731V62.3494C212.321 58.1444 208.92 54.7356 204.726 54.7356Z" fill="#C689FF"/>
<path fill-rule="evenodd" clip-rule="evenodd" d="M174.358 87.2911L171.794 87.2408C169.094 87.1879 166.948 84.956 167.001 82.256L167.161 74.0835L178.823 74.3123L178.649 83.1653C178.604 85.4895 176.683 87.3367 174.358 87.2911Z" fill="#D9BFFF"/>
</svg>
