<svg width="243" height="197" viewBox="0 0 243 197" fill="none" xmlns="http://www.w3.org/2000/svg">
<g opacity="0.5">
<g opacity="0.5">
<path opacity="0.5" fill-rule="evenodd" clip-rule="evenodd" d="M179.809 55.843C176.327 67.1757 169.122 77.3895 160.273 87.0864C151.425 96.784 140.96 105.899 128.077 110.982C115.171 116.078 99.8828 117.097 89.297 111.477C78.8297 105.88 72.96 93.7556 68.2005 81.9598L68.0567 81.602C63.2714 69.6939 59.6177 58.1998 60.1357 45.6375C60.6647 33.0958 65.4127 19.4601 75.1804 11.4911C84.8849 3.61002 99.5557 1.2579 112.912 0.386008L113.316 0.360006C126.768 -0.511739 138.838 0.0725615 150.184 3.52505C161.531 6.97754 172.155 13.2983 177.607 22.6887C183.047 32.058 183.279 44.4891 179.809 55.843ZM145.687 39.1343L145.288 38.5468C142.251 34.1055 139.06 30.1622 134.566 27.3788C129.93 24.5136 123.882 22.8971 118.662 24.464C113.554 26.0097 109.216 30.6079 105.705 35.1364L105.464 35.4487C101.907 40.0675 99.2065 44.5444 97.7115 49.4611C96.2165 54.377 95.927 59.7325 97.9884 63.9783C100.045 68.2142 104.458 71.326 109.377 72.8458C114.212 74.3316 119.526 74.2588 125.049 73.4796L125.321 73.4402C130.941 72.6253 136.741 71.0864 141.675 67.698C146.619 64.3043 150.672 59.0617 151.205 53.8911C151.716 48.772 148.778 43.7144 145.687 39.1343Z" fill="#FFF5F3"/>
</g>
</g>
<path opacity="0.5" d="M121.5 194.876C188.603 194.876 243 192.907 243 190.479C243 188.051 188.603 186.083 121.5 186.083C54.3974 186.083 0 188.051 0 190.479C0 192.907 54.3974 194.876 121.5 194.876Z" fill="#F7E2FF"/>
<path fill-rule="evenodd" clip-rule="evenodd" d="M90.7935 187.484L96.1482 192.565L104.311 191.903L103.657 189.748L93.6571 186.459L90.7935 187.484Z" fill="#E7DFFF"/>
<path fill-rule="evenodd" clip-rule="evenodd" d="M88.4373 180.647C88.4551 180.398 89.2918 172.209 89.2918 172.209C89.2918 172.209 89.0679 171.843 89.1356 170.898C89.2033 169.952 89.8149 169.097 93.8209 169.733C97.8269 170.37 98.0401 170.885 98.0116 171.283C97.9831 171.681 97.4676 172.594 97.4212 173.241C97.3748 173.887 97.2743 180.179 97.2743 180.179L88.4373 180.647Z" fill="#E7DFFF"/>
<path fill-rule="evenodd" clip-rule="evenodd" d="M88.3432 180.324L87.6116 186.872L92.9086 185.868L97.9103 187.917L105.511 190.687L111.859 190.028L111.592 188.396C111.592 188.396 105.889 185.415 104.527 184.588C103.164 183.761 102.619 182.321 102.619 182.321L100.476 179.226C100.476 179.226 98.1892 175.925 96.3629 175.641C94.5368 175.357 92.9751 175.675 93.3228 176.408C93.6703 177.14 94.5319 178.432 94.5319 178.432L91.1945 177.763L89.3044 180.088L88.8035 180.637L89.005 181.023" fill="#E7DFFF"/>
<mask id="mask0_344_11590" style="mask-type:alpha" maskUnits="userSpaceOnUse" x="83" y="176" width="31" height="21">
<path fill-rule="evenodd" clip-rule="evenodd" d="M83.2646 178.758L112.2 176.735L113.467 194.842L84.5314 196.864L83.2646 178.758Z" fill="white"/>
</mask>
<g mask="url(#mask0_344_11590)">
<path fill-rule="evenodd" clip-rule="evenodd" d="M88.2088 178.889C88.2088 178.889 86.0186 184.074 86.2107 183.999C86.4029 183.925 87.6348 181.389 87.6862 182.36C87.7375 183.33 87.0992 184.572 87.2313 185.651C87.2313 185.651 88.231 188.257 88.8327 188.3C89.4344 188.343 92.3027 187.595 92.3027 187.595C92.3027 187.595 93.6106 185.898 96.3214 187.674C99.0322 189.448 102.531 191.257 102.531 191.257C102.531 191.257 102.106 191.614 102.089 191.946C102.072 192.278 102.286 192.73 102.286 192.73L91.6806 191.202L85.9717 187.339L85.2651 187.414C85.2651 187.414 84.61 187.818 84.5511 188.99C84.4921 190.162 84.5455 190.466 84.3693 190.829C84.1929 191.192 83.7408 191.91 85.1183 192.259C86.4958 192.608 96.8378 195.076 101.394 195.452C105.95 195.828 110.626 194.535 111.892 193.299C113.157 192.063 113.353 191.076 113.07 190.13C112.788 189.183 112.228 188.042 110.921 188.259C109.614 188.476 108.867 188.692 106.724 188.009C104.581 187.325 103.733 187.404 103.809 187.89C103.884 188.375 105.463 188.839 105.463 188.839C105.463 188.839 107.582 189.311 107.567 189.519C107.551 189.729 107.479 189.914 105.557 189.767C103.635 189.619 101.332 189.199 98.3117 187.362C95.2908 185.525 94.3948 184.804 92.4108 185.027C90.4268 185.249 88.6487 186.161 88.1478 184.758C87.6468 183.357 89.0152 181.498 89.0049 181.023C88.9943 180.548 88.3431 180.324 88.3431 180.324L88.2138 178.412" fill="#E7DFFF"/>
<path fill-rule="evenodd" clip-rule="evenodd" d="M88.4813 177.699C88.4813 177.699 88.4089 177.794 88.2136 178.412C88.0183 179.029 87.9506 180.932 88.6144 180.87C89.2782 180.808 89.7977 179.5 90.3865 178.759C90.9752 178.019 91.7181 177.812 92.3525 178.159C92.9869 178.506 95.4379 178.355 95.4379 178.355C95.4379 178.355 94.7812 177.24 92.6042 177.219C92.6042 177.219 91.0655 176.709 90.1666 178.107C89.2678 179.504 88.7205 180.894 88.6545 179.718C88.5977 178.705 88.9165 178.086 88.8488 177.728C88.781 177.371 88.4813 177.699 88.4813 177.699Z" fill="#E7DFFF"/>
<path fill-rule="evenodd" clip-rule="evenodd" d="M105.168 184.864C105.168 184.864 104.008 185.035 100.636 184.717C97.2648 184.4 98.0121 182.872 96.6375 182.467C95.2627 182.063 95.1144 182.001 94.3634 180.722C93.6133 179.444 91.7179 180.61 90.8149 180.393C89.9113 180.174 92.6159 177.69 92.6159 177.69C92.6159 177.69 94.0789 177.297 95.4379 178.354C95.8203 178.652 96.5926 179.72 96.8262 179.97C97.0593 180.219 98.477 180.734 99.7379 182.314C100.998 183.894 102.772 183.446 103.125 183.543C103.477 183.64 100.439 179.42 100.439 179.42L100.445 179C100.445 179 102.342 181.79 103.271 183.033C104.2 184.275 104.964 184.585 105.103 184.658C105.241 184.732 105.168 184.864 105.168 184.864Z" fill="#E7DFFF"/>
<path fill-rule="evenodd" clip-rule="evenodd" d="M87.0982 181.456C87.0982 181.456 84.9267 186.399 85.0484 187.533C85.1701 188.667 87.6032 187.937 88.6283 190.113C89.6536 192.289 91.1854 193.243 97.673 194.373C104.16 195.504 109.634 193.072 109.661 192.693C109.688 192.315 109.645 191.583 109.645 191.583C109.645 191.583 100.302 193.102 96.4289 190.478C92.5552 187.854 92.4223 187.051 90.9677 187.424C89.5132 187.795 88.6585 187.321 87.5492 185.973C87.5492 185.973 87.439 185.3 87.8496 183.553C88.2603 181.806 87.9003 179.313 87.0982 181.456Z" fill="#E7DFFF"/>
<path fill-rule="evenodd" clip-rule="evenodd" d="M92.6951 177.434C92.6951 177.434 91.9025 176.572 93.2141 175.641C94.5256 174.711 96.8682 175.403 97.5714 176.149C97.5714 176.149 96.2272 175.491 94.555 175.664C92.8828 175.838 93.2756 176.317 94.0448 177.506L92.533 177.313" fill="#E7DFFF"/>
<path fill-rule="evenodd" clip-rule="evenodd" d="M94.9309 178.399C95.1105 178.685 94.9573 179.104 94.5889 179.335C94.2205 179.566 93.7762 179.522 93.5967 179.236C93.4171 178.95 93.5702 178.531 93.9387 178.3C94.3072 178.068 94.7514 178.113 94.9309 178.399Z" fill="#E7DFFF"/>
<path fill-rule="evenodd" clip-rule="evenodd" d="M93.8171 178.928C93.8171 178.928 93.9044 178.317 95.0829 177.913C96.2614 177.509 98.4882 176.856 99.6696 177.775C100.851 178.695 100.745 179.11 100.745 179.11C100.745 179.11 99.882 178.593 99.2148 178.371C98.5474 178.15 97.6424 178.064 96.7406 178.238C95.8388 178.411 94.9394 178.705 94.6488 178.825C94.3583 178.945 94.0884 179.533 93.8171 178.928Z" fill="#F9F9FA"/>
<path fill-rule="evenodd" clip-rule="evenodd" d="M96.5117 179.715C96.6913 180.001 96.5381 180.42 96.1697 180.651C95.8012 180.883 95.3569 180.839 95.1775 180.553C94.9979 180.267 95.151 179.848 95.5195 179.617C95.888 179.385 96.3321 179.429 96.5117 179.715Z" fill="#E7DFFF"/>
<path fill-rule="evenodd" clip-rule="evenodd" d="M95.3979 180.244C95.3979 180.244 95.4834 179.632 96.6174 179.226C97.7513 178.819 99.8936 178.159 101.027 179.075C102.16 179.991 102.057 180.406 102.057 180.406C102.057 180.406 101.228 179.892 100.588 179.672C99.9466 179.453 99.0772 179.369 98.2099 179.546C97.3426 179.722 96.4772 180.018 96.1976 180.139C95.9179 180.26 95.657 180.848 95.3979 180.244Z" fill="#F9F9FA"/>
<path fill-rule="evenodd" clip-rule="evenodd" d="M98.2578 180.913C98.4373 181.198 98.2842 181.618 97.9157 181.849C97.5473 182.08 97.1031 182.036 96.9236 181.75C96.744 181.464 96.8971 181.045 97.2655 180.814C97.6341 180.583 98.0782 180.627 98.2578 180.913Z" fill="#E7DFFF"/>
<path fill-rule="evenodd" clip-rule="evenodd" d="M97.1421 181.468C97.1421 181.468 97.2146 180.917 98.1182 180.544C99.0216 180.171 101.306 179.676 102.198 180.49C103.091 181.304 102.54 181.864 102.54 181.864C102.54 181.864 101.775 181.108 101.268 180.915C100.76 180.723 100.071 180.654 99.3804 180.82C98.6904 180.984 98.0009 181.256 97.778 181.367C97.5549 181.478 97.3433 182.008 97.1421 181.468Z" fill="#F9F9FA"/>
</g>
<path fill-rule="evenodd" clip-rule="evenodd" d="M42.7517 178.202L47.7387 183.644L55.9285 183.552L55.4252 181.358L45.6798 177.379L42.7517 178.202Z" fill="#E7DFFF"/>
<path fill-rule="evenodd" clip-rule="evenodd" d="M42.772 186.789L47.759 192.23L55.9487 192.139L55.4455 189.944L45.7001 185.966L42.772 186.789Z" fill="#E7DFFF"/>
<path fill-rule="evenodd" clip-rule="evenodd" d="M40.5859 180.95C40.5859 180.7 40.8354 172.473 40.8354 172.473C40.8354 172.473 40.5859 172.123 40.5859 171.176C40.5859 170.229 41.1347 169.331 45.176 169.68C49.2174 170.029 49.4668 170.527 49.4668 170.927C49.4668 171.326 49.0178 172.273 49.0178 172.921C49.0178 173.569 49.367 179.853 49.367 179.853L40.5859 180.95Z" fill="#E7DFFF"/>
<path fill-rule="evenodd" clip-rule="evenodd" d="M40.4685 180.634L40.2068 187.218L45.4186 185.839L50.5538 187.525L58.3332 189.746L64.6181 188.636L64.2348 187.027C64.2348 187.027 58.3332 184.46 56.9153 183.733C55.4974 183.005 54.8501 181.607 54.8501 181.607L52.4923 178.674C52.4923 178.674 49.9752 175.544 48.1333 175.391C46.2914 175.238 44.7565 175.667 45.1556 176.373C45.5547 177.078 46.5063 178.306 46.5063 178.306L43.1296 177.876L41.4105 180.331L40.95 180.914L41.1786 181.285" fill="#E7DFFF"/>
<path fill-rule="evenodd" clip-rule="evenodd" d="M40.2321 179.213C40.2321 179.213 38.4179 184.541 38.6043 184.453C38.7907 184.365 39.8382 181.748 39.9587 182.712C40.0794 183.676 39.5315 184.961 39.7403 186.028C39.7403 186.028 40.9236 188.556 41.5268 188.556C42.1301 188.556 44.9376 187.605 44.9376 187.605C44.9376 187.605 46.1209 185.819 48.9517 187.396C51.7824 188.973 55.402 190.527 55.402 190.527C55.402 190.527 55.0026 190.913 55.01 191.246C55.0174 191.578 55.2617 192.015 55.2617 192.015L44.5748 191.247L38.6044 187.802L37.905 187.926C37.905 187.926 37.2805 188.375 37.3054 189.549C37.3304 190.722 37.4053 191.023 37.2555 191.397C37.1056 191.771 36.7059 192.52 38.1048 192.77C39.5037 193.02 49.9956 194.742 54.5671 194.792C59.1385 194.842 63.71 193.219 64.884 191.897C66.0581 190.573 66.1831 189.574 65.8334 188.651C65.4836 187.727 64.844 186.628 63.5557 186.938C62.2675 187.247 61.5385 187.517 59.3515 186.987C57.1645 186.459 56.3257 186.599 56.4355 187.078C56.5454 187.557 58.1532 187.906 58.1532 187.906C58.1532 187.906 60.3003 188.225 60.3003 188.435C60.3003 188.645 60.2403 188.834 58.3129 188.824C56.3856 188.814 54.0591 188.56 50.9147 186.944C47.7701 185.327 46.825 184.672 44.862 185.036C42.8989 185.399 41.1904 186.435 40.5906 185.072C39.9907 183.71 41.2229 181.758 41.1785 181.285C41.1342 180.812 40.4685 180.634 40.4685 180.634L40.203 178.737" fill="#E7DFFF"/>
<path fill-rule="evenodd" clip-rule="evenodd" d="M40.419 178.006C40.419 178.006 40.3537 178.107 40.2029 178.737C40.0522 179.367 40.1207 181.27 40.7784 181.161C41.436 181.051 41.8608 179.709 42.3951 178.929C42.9294 178.148 43.6556 177.888 44.3133 178.189C44.9709 178.491 47.4047 178.165 47.4047 178.165C47.4047 178.165 46.6701 177.099 44.4971 177.234C44.4971 177.234 42.926 176.835 42.1292 178.294C41.3324 179.752 40.8859 181.176 40.7361 180.008C40.6071 179.002 40.8808 178.362 40.7876 178.01C40.6946 177.658 40.419 178.006 40.419 178.006Z" fill="#E7DFFF"/>
<path fill-rule="evenodd" clip-rule="evenodd" d="M57.5752 183.961C57.5752 183.961 56.4299 184.215 53.0444 184.139C49.6588 184.063 50.2951 182.485 48.895 182.18C47.495 181.875 47.3425 181.824 46.5022 180.602C45.6626 179.381 43.8553 180.679 42.9391 180.527C42.0222 180.373 44.5424 177.702 44.5424 177.702C44.5424 177.702 45.9736 177.206 47.4047 178.164C47.8075 178.434 48.6539 179.443 48.9049 179.675C49.1552 179.908 50.606 180.32 51.9765 181.805C53.347 183.292 55.0846 182.719 55.4433 182.79C55.8012 182.862 52.4695 178.869 52.4695 178.869L52.4452 178.45C52.4452 178.45 54.5369 181.097 55.5518 182.271C56.5673 183.444 57.3523 183.698 57.4956 183.761C57.6382 183.825 57.5752 183.961 57.5752 183.961Z" fill="#E7DFFF"/>
<path fill-rule="evenodd" clip-rule="evenodd" d="M39.3076 181.852C39.3076 181.852 37.4949 186.938 37.6974 188.06C37.8999 189.183 40.2745 188.281 41.4526 190.379C42.6307 192.476 44.2267 193.318 50.7786 193.982C57.3303 194.647 62.616 191.831 62.616 191.452C62.616 191.072 62.5211 190.344 62.5211 190.344C62.5211 190.344 53.3106 192.527 49.2593 190.186C45.208 187.845 45.0181 187.054 43.5938 187.529C42.1694 188.003 41.2833 187.592 40.0805 186.326C40.0805 186.326 39.9223 185.662 40.2071 183.891C40.4919 182.119 39.9547 179.659 39.3076 181.852Z" fill="#E7DFFF"/>
<path fill-rule="evenodd" clip-rule="evenodd" d="M44.6031 177.442C44.6031 177.442 43.7509 176.639 44.9926 175.617C46.2343 174.595 48.6203 175.118 49.3751 175.812C49.3751 175.812 47.9872 175.252 46.3317 175.544C44.6761 175.836 45.1022 176.286 45.9543 177.417L44.4327 177.332" fill="#E7DFFF"/>
<path fill-rule="evenodd" clip-rule="evenodd" d="M46.902 178.244C47.1015 178.516 46.9788 178.945 46.6278 179.202C46.2768 179.459 45.8306 179.447 45.631 179.175C45.4315 178.903 45.5543 178.474 45.9053 178.217C46.2563 177.96 46.7025 177.972 46.902 178.244Z" fill="#E7DFFF"/>
<path fill-rule="evenodd" clip-rule="evenodd" d="M45.8291 178.852C45.8291 178.852 45.8723 178.235 47.019 177.749C48.1658 177.263 50.3401 176.452 51.5843 177.284C52.8282 178.117 52.7525 178.539 52.7525 178.539C52.7525 178.539 51.8546 178.084 51.1731 177.911C50.4917 177.738 49.5829 177.717 48.6959 177.955C47.8088 178.192 46.9325 178.549 46.6512 178.689C46.37 178.83 46.1429 179.436 45.8291 178.852Z" fill="#F9F9FA"/>
<path fill-rule="evenodd" clip-rule="evenodd" d="M48.573 179.445C48.7724 179.717 48.6496 180.146 48.2987 180.403C47.9477 180.659 47.5015 180.647 47.3019 180.375C47.1024 180.103 47.2252 179.674 47.5762 179.417C47.9272 179.16 48.3734 179.172 48.573 179.445Z" fill="#E7DFFF"/>
<path fill-rule="evenodd" clip-rule="evenodd" d="M47.4998 180.052C47.4998 180.052 47.5414 179.436 48.6433 178.949C49.7452 178.463 51.8349 177.652 53.0304 178.484C54.226 179.317 54.1531 179.738 54.1531 179.738C54.1531 179.738 53.2903 179.284 52.6354 179.112C51.9804 178.939 51.1071 178.917 50.2547 179.155C49.4022 179.393 48.5601 179.749 48.2899 179.89C48.0196 180.03 47.8013 180.636 47.4998 180.052Z" fill="#F9F9FA"/>
<path fill-rule="evenodd" clip-rule="evenodd" d="M50.4003 180.514C50.5998 180.787 50.477 181.216 50.1261 181.473C49.7751 181.73 49.3288 181.717 49.1293 181.445C48.9298 181.172 49.0526 180.743 49.4036 180.486C49.7545 180.229 50.2008 180.242 50.4003 180.514Z" fill="#E7DFFF"/>
<path fill-rule="evenodd" clip-rule="evenodd" d="M49.3271 181.147C49.3271 181.147 49.3602 180.593 50.2347 180.157C51.1091 179.719 53.3517 179.064 54.3004 179.811C55.2492 180.559 54.7397 181.157 54.7397 181.157C54.7397 181.157 53.9224 180.458 53.4027 180.302C52.883 180.147 52.1899 180.127 51.5134 180.341C50.8369 180.555 50.1687 180.875 49.9542 181.001C49.7397 181.128 49.5664 181.671 49.3271 181.147Z" fill="#F9F9FA"/>
<path fill-rule="evenodd" clip-rule="evenodd" d="M101.86 147.74C102.158 160.567 102.307 178.913 102.307 178.913L88.0004 179.466C88.0004 179.466 85.0153 180.289 83.1624 144.382C82.9222 139.727 73.6155 105.302 73.9139 109.387C74.2593 114.113 52.1328 177.082 52.1328 177.082L39.332 176.994L56.578 76.8492H89.4179C89.4179 76.8492 101.561 134.912 101.86 147.74Z" fill="#AB71FF"/>
<path d="M76.0336 98.0595L73.5437 109.305L74.2842 109.469L76.7741 98.2233L76.0336 98.0595Z" fill="#204EB2"/>
<path fill-rule="evenodd" clip-rule="evenodd" d="M69.0891 27.2732C69.0891 27.2732 68.8092 33.4249 65.2189 35.5965C61.9614 37.5667 68.8627 48.9993 76.2869 48.3174C80.3508 47.944 81.3033 36.8365 81.3033 36.8365C81.3033 36.8365 78.0219 36.2027 79.234 31.2013L69.0891 27.2732Z" fill="#C26E5E"/>
<path fill-rule="evenodd" clip-rule="evenodd" d="M75.0341 33.5284C70.2211 32.9466 66.7476 29.7837 66.2612 24.5367C64.862 24.7594 64.532 21.1155 64.9217 19.9449C65.3118 18.7727 66.5849 19.4581 66.5849 19.4581C66.5849 19.4581 66.6906 19.1802 66.7647 18.8763C68.8672 10.2565 74.756 10.5984 74.756 10.5984C85.5768 11.1618 83.0414 22.2036 82.4232 25.1329C81.8049 28.0625 79.6868 34.0902 75.0341 33.5284Z" fill="#C26E5E"/>
<path fill-rule="evenodd" clip-rule="evenodd" d="M57.4512 60.57L54.7195 86.125C54.7195 86.125 74.1687 89.6201 90.9955 84.1592L91.9792 61.6621L57.4512 60.57Z" fill="#F770FF"/>
<mask id="mask1_344_11590" style="mask-type:alpha" maskUnits="userSpaceOnUse" x="46" y="35" width="54" height="48">
<path fill-rule="evenodd" clip-rule="evenodd" d="M46.4919 35.3087H99.9148V82.0406H46.4919V35.3087Z" fill="white"/>
</mask>
<g mask="url(#mask1_344_11590)">
<path fill-rule="evenodd" clip-rule="evenodd" d="M54.8511 78.6088C54.8511 78.6088 45.5073 72.7855 46.5767 63.3411C47.6461 53.8967 51.6295 41.0031 58.4735 38.3534C65.3174 35.7038 65.5325 35.3087 65.5325 35.3087C65.5325 35.3087 68.2753 38.8875 73.0534 39.115C77.8315 39.3424 80.941 36.6892 80.941 36.6892C80.941 36.6892 90.3247 38.9232 93.0278 43.1504C95.7301 47.3776 102.632 66.2527 98.7638 72.2412C94.8958 78.2298 87.4157 79.9747 87.4157 79.9747C87.4157 79.9747 64.559 85.4311 54.8511 78.6088Z" fill="#F770FF"/>
</g>
<path fill-rule="evenodd" clip-rule="evenodd" d="M68.2758 61.2336L68.2068 55.1693C68.2068 55.1693 68 53.8806 69.9995 53.8048C71.9989 53.729 77.3769 53.6532 77.3769 53.6532C77.3769 53.6532 78.6869 53.35 78.7558 55.2451C78.8248 57.1402 78.8937 63.6593 78.8937 63.6593L70.62 66.0092L67.5173 65.8576L68.2758 61.2336Z" fill="#FFBD4F"/>
<path fill-rule="evenodd" clip-rule="evenodd" d="M67.5617 65.8216L70.6158 65.9708L78.8556 63.6305C78.8505 63.1547 78.7839 57.0548 78.7181 55.2462C78.694 54.5853 78.5166 54.1239 78.1908 53.8746C77.8228 53.5929 77.39 53.6887 77.3856 53.6899L77.3775 53.6908C77.3238 53.6915 71.9771 53.7675 70.0011 53.8425C69.2747 53.87 68.7617 54.0598 68.4763 54.4065C68.1849 54.7606 68.2437 55.1591 68.2443 55.1631L68.3139 61.2362L68.3133 61.2395L67.5617 65.8216ZM70.6245 66.0471L70.6183 66.0468L67.4731 65.8931L68.2379 61.2305L68.169 55.1695C68.1666 55.1574 68.1041 54.7407 68.4167 54.3597C68.7163 53.9946 69.2483 53.7951 69.9982 53.7666C71.9527 53.6925 77.2016 53.6175 77.3726 53.6151C77.4226 53.6043 77.8562 53.5229 78.2369 53.8144C78.5816 54.0781 78.769 54.559 78.7939 55.2434C78.8621 57.1173 78.9311 63.5934 78.9318 63.6587L78.9321 63.6877L78.9042 63.6955L70.6245 66.0471Z" fill="#F770FF"/>
<path fill-rule="evenodd" clip-rule="evenodd" d="M68.2043 55.3959L68.1997 54.3516C68.1997 54.3516 68.1997 53.5178 69.3373 53.442C70.475 53.3662 77.225 53.2145 77.225 53.2145C77.225 53.2145 78.1351 53.1387 78.5143 53.6694C78.8935 54.2 78.7732 55.4899 78.7732 55.4899C78.7732 55.4899 78.7309 53.6823 77.2196 53.7137C75.7081 53.7452 69.8284 53.8666 69.8284 53.8666C69.8284 53.8666 68.2847 53.7111 68.2043 55.3959Z" fill="#56ACF6"/>
<path fill-rule="evenodd" clip-rule="evenodd" d="M77.2583 53.6753C78.2888 53.6753 78.6362 54.5302 78.7528 55.0662C78.7554 54.6459 78.7161 54.0166 78.4836 53.6913C78.1211 53.1841 77.2371 53.2513 77.2283 53.2522C77.1585 53.2538 70.4638 53.4048 69.34 53.4797C68.8871 53.5098 68.5531 53.671 68.3738 53.9458C68.2393 54.1519 68.2377 54.3495 68.2377 54.3515L68.2401 54.9055C68.3218 54.6066 68.4682 54.3651 68.6778 54.1846C69.1627 53.7667 69.8051 53.8261 69.8323 53.8288C69.8277 53.8286 75.7075 53.7072 77.2188 53.6757C77.232 53.6754 77.2453 53.6753 77.2583 53.6753ZM78.811 55.4934L78.7353 55.4907C78.7352 55.4863 78.7224 55.0394 78.5277 54.6034C78.2697 54.0254 77.8305 53.7379 77.2204 53.7515C75.709 53.783 69.8293 53.9044 69.8293 53.9044C69.8185 53.9036 69.1864 53.846 68.7267 54.2424C68.4296 54.4988 68.2665 54.8874 68.2423 55.3976L68.1664 55.3959L68.1619 54.3516C68.1619 54.3428 68.1753 53.4813 69.3349 53.404C70.4604 53.329 77.1567 53.178 77.2242 53.1765C77.26 53.1735 78.1579 53.1053 78.5453 53.6472C78.9283 54.1831 78.8159 55.4401 78.811 55.4934Z" fill="#F770FF"/>
<path fill-rule="evenodd" clip-rule="evenodd" d="M68.2918 58.8057C68.2918 58.8057 67.1979 59.5085 66.8463 59.938C66.4947 60.3675 66.8072 60.4457 66.0259 61.2656C65.2446 62.0857 63.8381 64.1551 66.2993 67.318C68.7606 70.4808 69.581 70.2074 70.5968 69.6608C71.6125 69.1141 71.7297 68.7237 73.644 68.5284C75.5583 68.3332 77.3944 66.4589 77.3553 65.9903L77.3163 65.5218C77.3163 65.5218 79.0742 64.858 78.9571 64.1161C78.8399 63.3742 78.3321 63.4523 78.3321 63.4523C78.3321 63.4523 78.6837 63.1009 78.4102 62.4761C78.1367 61.8514 76.8475 61.9685 75.3629 62.1638C73.8784 62.359 70.0498 63.1399 69.8154 62.9837C69.581 62.8276 69.6591 62.5933 70.5576 62.4761C71.4562 62.359 75.0895 62.3199 75.0895 61.3047C75.0895 60.2894 73.9956 60.0942 71.886 60.1333C69.7763 60.1723 69.3857 60.0551 68.8778 60.2505L68.3699 60.4457L68.2918 58.8057Z" fill="#C26E5E"/>
<path fill-rule="evenodd" clip-rule="evenodd" d="M78.3628 63.448C78.3628 63.448 78.475 63.367 77.639 63.6861C77.3346 63.8022 76.9053 63.9234 76.3005 64.038C74.0346 64.4675 70.4795 65.2485 69.3856 65.4047C68.2917 65.5609 69.1903 65.7952 71.6906 65.2876C74.1909 64.7799 77.1674 64.099 77.301 64.0544C77.5285 63.9786 78.2111 63.7512 78.3628 63.448Z" fill="#F770FF"/>
<path fill-rule="evenodd" clip-rule="evenodd" d="M76.4957 65.7563C76.4957 65.7563 74.6463 66.4045 73.7362 66.6319C72.7699 66.8733 72.042 67.201 71.8467 66.8886C71.6514 66.5762 71.4169 66.4982 71.4169 66.4982L71.1045 66.8496C71.1045 66.8496 71.1575 67.2383 70.9872 67.2791C70.6833 67.3519 70.0886 67.4744 70.0886 67.4744C70.0886 67.4744 70.0958 67.6931 71.916 67.3141C72.3676 67.2201 73.2053 67.0867 73.7362 66.9351C74.2246 66.7956 75.9878 66.342 76.2223 66.1467C76.4566 65.9515 76.4957 65.7563 76.4957 65.7563Z" fill="#F770FF"/>
<path fill-rule="evenodd" clip-rule="evenodd" d="M70.7528 65.5609C70.7528 65.5609 70.724 67.1333 71.1681 67.1085C71.6123 67.0837 71.7686 67.0837 71.8467 66.9665C71.9249 66.8494 71.7295 66.459 71.7295 66.0295C71.7295 65.6 71.7295 65.4047 71.3779 65.4437C71.0263 65.4828 70.7919 65.4828 70.7528 65.5609Z" fill="#321C64"/>
<path fill-rule="evenodd" clip-rule="evenodd" d="M73.3975 28.4435C73.3975 28.4435 73.3794 29.6525 75.0765 29.8691C76.7737 30.0856 77.532 29.8691 77.4959 29.0931C77.4959 29.0931 77.2251 28.245 76.8278 28.2089C76.4306 28.1728 76.0154 28.3893 76.0154 28.3893C76.0154 28.3893 75.6182 27.866 75.203 27.9201C74.7877 27.9743 73.9572 28.4615 73.3975 28.4435Z" fill="#CE4129"/>
<mask id="mask2_344_11590" style="mask-type:alpha" maskUnits="userSpaceOnUse" x="70" y="18" width="7" height="3">
<path fill-rule="evenodd" clip-rule="evenodd" d="M70.4583 18.8587H76.3536V20.656H70.4583V18.8587Z" fill="white"/>
</mask>
<g mask="url(#mask2_344_11590)">
<path fill-rule="evenodd" clip-rule="evenodd" d="M76.1629 20.6558C76.1629 20.6558 73.9718 20.0488 73.4006 19.8763C72.8294 19.7036 72.7099 19.5841 72.0324 19.6505C71.355 19.7169 70.5845 19.8629 70.4649 19.7302C70.3454 19.5974 71.8597 18.9336 72.3645 18.8672C72.8692 18.8008 75.8505 19.1113 76.2326 19.8504C76.5409 20.4469 76.1629 20.6558 76.1629 20.6558Z" fill="#0C0C0D"/>
</g>
<path fill-rule="evenodd" clip-rule="evenodd" d="M76.3826 29.0982C75.1452 28.9333 73.6653 28.7142 73.2009 28.4822C72.8621 28.3128 72.7373 28.3554 72.7361 28.3559C72.7362 28.3559 72.8448 27.9653 73.3365 28.2109C73.8153 28.4502 75.7778 28.7117 76.4227 28.7977C77.5509 28.9479 77.6527 28.8898 77.7815 28.8163L77.932 29.0795C77.8072 29.1509 77.6893 29.1945 77.4225 29.1945C77.2041 29.1945 76.886 29.1653 76.3826 29.0982Z" fill="#0C0C0D"/>
<mask id="mask3_344_11590" style="mask-type:alpha" maskUnits="userSpaceOnUse" x="78" y="20" width="5" height="2">
<path fill-rule="evenodd" clip-rule="evenodd" d="M78.7649 20.1959H82.6324V21.4988H78.7649V20.1959Z" fill="white"/>
</mask>
<g mask="url(#mask3_344_11590)">
<path fill-rule="evenodd" clip-rule="evenodd" d="M78.7682 20.9471C78.7682 20.9471 78.8158 20.4715 79.3964 20.2622C79.977 20.0529 82.0042 20.3954 82.1565 20.5096C82.3088 20.6237 82.5848 20.8996 82.6324 21.4988C82.6324 21.4988 82.4128 21.0423 82.0131 20.9662C81.6134 20.8901 80.3672 21.2325 79.5772 21.2231C78.7872 21.2135 78.7492 21.1184 78.7682 20.9471Z" fill="#0C0C0D"/>
</g>
<path fill-rule="evenodd" clip-rule="evenodd" d="M75.4229 33.8056C74.3722 33.8056 73.2859 33.4993 72.5069 33.2164C71.5089 32.854 70.7848 32.4503 70.7776 32.4463L70.8889 32.2479C70.9171 32.2637 73.7304 33.8217 75.979 33.5456L76.0068 33.7712C75.815 33.7948 75.6195 33.8056 75.4229 33.8056Z" fill="#0C0C0D"/>
<path d="M78.265 20.8691L78.5539 20.9617L78.5257 21.0521C78.5029 21.1259 78.4776 21.2103 78.4503 21.304C78.3724 21.5716 78.2943 21.8591 78.2216 22.1549C78.1407 22.4838 78.0714 22.8028 78.0171 23.1039L78.0014 23.1931C77.8696 23.959 77.851 24.5438 77.9687 24.8583L77.9757 24.8762C78.6491 26.541 77.7347 27.3853 75.8155 26.7941L75.7571 26.7758L75.8495 26.487C77.5783 27.0399 78.2716 26.4169 77.6944 24.9898C77.5355 24.597 77.56 23.9303 77.7185 23.0502C77.774 22.7423 77.8447 22.4173 77.9269 22.0825C77.9926 21.8156 78.0624 21.5556 78.1327 21.3104L78.159 21.2192C78.1749 21.1648 78.19 21.1135 78.2045 21.0655L78.2415 20.9439L78.265 20.8691Z" fill="#0C0C0D"/>
<path d="M70.7751 32.4684L70.9236 32.204L70.9777 32.2335L71.0274 32.2599C71.1026 32.2994 71.1883 32.3431 71.2835 32.3899L71.3248 32.4101C71.645 32.566 71.999 32.7219 72.3766 32.8674C73.2448 33.202 74.1028 33.4304 74.9009 33.5045C75.2627 33.5381 75.6055 33.5389 75.9265 33.5045L75.9904 33.4971L76.0275 33.7981C75.6653 33.8427 75.2794 33.8442 74.8729 33.8064C74.0433 33.7294 73.1597 33.4942 72.2675 33.1503C71.8814 33.0015 71.5195 32.8422 71.192 32.6827L71.0681 32.6215C71.0155 32.5951 70.966 32.5699 70.92 32.5459L70.8341 32.5005L70.7751 32.4684Z" fill="#0C0C0D"/>
<path fill-rule="evenodd" clip-rule="evenodd" d="M76.8912 26.9825C76.5846 26.9825 76.202 26.9225 75.7246 26.7699L75.817 26.4811C76.7061 26.7654 77.3629 26.7422 77.6664 26.4156C77.9245 26.1376 77.9229 25.6292 77.6619 24.9839C77.4848 24.5462 77.5286 23.7159 77.792 22.5161C77.9847 21.6381 78.23 20.8708 78.2325 20.8632L78.5213 20.9558C78.2553 21.7846 77.633 24.1036 77.9431 24.8703C78.3374 25.845 78.1311 26.3608 77.8887 26.6218C77.7158 26.8082 77.414 26.9825 76.8912 26.9825Z" fill="#0C0C0D"/>
<path d="M78.7009 22.4037C78.7854 22.3176 78.9216 22.313 79.0117 22.3906L79.0527 22.4288C79.0798 22.4534 79.1115 22.4811 79.1476 22.5112C79.2515 22.5976 79.3683 22.6841 79.4947 22.7647C79.8399 22.9847 80.1882 23.1171 80.5115 23.1224C80.8389 23.1277 81.1416 23.0212 81.4125 22.8383C81.5061 22.7751 81.5887 22.7074 81.6593 22.6401L81.6821 22.6179C81.6997 22.6005 81.7137 22.5859 81.724 22.5747L81.7384 22.5583C81.8186 22.4617 81.962 22.4483 82.0587 22.5285C82.1554 22.6087 82.1688 22.7521 82.0885 22.8488L82.0733 22.8665C82.0503 22.8925 82.017 22.9276 81.9736 22.969C81.8854 23.0532 81.783 23.137 81.6672 23.2152C81.3242 23.4467 80.9338 23.5842 80.5041 23.5772C80.0831 23.5702 79.6599 23.4094 79.2501 23.1482C79.1064 23.0567 78.9744 22.9588 78.8565 22.8608L78.8224 22.8321C78.7683 22.786 78.7283 22.7492 78.7038 22.7252C78.6142 22.6372 78.6129 22.4933 78.7009 22.4037Z" fill="#0C0C0D"/>
<path d="M72.1087 21.6591C72.1932 21.5731 72.3293 21.5684 72.4194 21.6461L72.4604 21.6842L72.4951 21.7152C72.5136 21.7314 72.5337 21.7486 72.5553 21.7666C72.6592 21.853 72.776 21.9396 72.9025 22.0202C73.2476 22.2401 73.5959 22.3725 73.9193 22.3778C74.2466 22.3832 74.5492 22.2766 74.8202 22.0937C74.9138 22.0306 74.9965 21.9629 75.067 21.8955L75.1 21.8632C75.1161 21.847 75.1286 21.8336 75.1374 21.8238L75.1461 21.8137C75.2263 21.7171 75.3698 21.7038 75.4665 21.784C75.5631 21.8642 75.5765 22.0076 75.4962 22.1042L75.481 22.122C75.458 22.148 75.4247 22.183 75.3813 22.2244C75.2931 22.3086 75.1908 22.3924 75.0748 22.4707C74.7319 22.7021 74.3415 22.8396 73.9118 22.8326C73.4908 22.8257 73.0677 22.6648 72.6578 22.4037C72.5141 22.3121 72.3821 22.2143 72.2642 22.1162L72.2301 22.0875C72.176 22.0414 72.136 22.0047 72.1116 21.9807C72.0219 21.8927 72.0206 21.7487 72.1087 21.6591Z" fill="#0C0C0D"/>
<path fill-rule="evenodd" clip-rule="evenodd" d="M78.9126 34.9806C78.9126 34.9806 81.9672 34.0261 85.0219 34.9806C88.0765 35.935 90.1766 34.5033 90.1766 34.5033C90.1766 34.5033 85.6427 33.0063 88.5728 28.3803C91.1991 24.2341 86.2154 20.0825 85.6427 17.1237C85.0699 14.1649 85.2571 6.94648 75.6237 6.3875C66.7943 5.87522 63.7432 10.9557 63.4486 14.3646C63.1508 17.8089 59.4251 19.1282 60.5848 23.5273C61.4641 26.8626 59.2485 30.5502 56.9575 31.6955C56.9575 31.6955 59.2484 34.5033 61.253 34.0261C63.2576 33.5489 66.5986 34.3124 66.5986 34.3124C66.5986 34.3124 69.5148 32.9697 68.6757 30.3966C67.8365 27.8236 65.9904 26.649 66.7736 23.6844C67.5568 20.7198 70.0876 20.2075 69.9756 17.5785C69.8637 14.9496 72.256 11.043 76.8433 12.6093C76.8433 12.6093 81.8223 12.2177 81.8223 15.7416C81.8223 19.2655 82.8424 21.091 83.1995 22.108L82.4912 24.1101C82.4912 24.1101 81.0241 30.3098 78.9358 32.0765C78.9358 32.0765 78.4065 33.6175 78.9126 34.9806Z" fill="#0F0F0F"/>
<path fill-rule="evenodd" clip-rule="evenodd" d="M70.4597 22.018C70.4597 20.4189 71.7568 19.1226 73.3567 19.1226C74.9566 19.1226 76.2536 20.4189 76.2536 22.018C76.2536 23.6171 74.9566 24.9134 73.3567 24.9134C71.7567 24.9134 70.4597 23.6171 70.4597 22.018ZM75.571 22.018C75.571 20.7957 74.5796 19.8048 73.3567 19.8048C72.1337 19.8048 71.1423 20.7957 71.1423 22.018C71.1423 23.2403 72.1337 24.2311 73.3567 24.2311C74.5796 24.2311 75.571 23.2403 75.571 22.018Z" fill="#E31587"/>
<path fill-rule="evenodd" clip-rule="evenodd" d="M77.583 22.7083C77.583 21.1092 78.88 19.8129 80.48 19.8129C82.0799 19.8129 83.3768 21.1092 83.3768 22.7083C83.3768 24.3074 82.0799 25.6037 80.48 25.6037C78.88 25.6037 77.583 24.3074 77.583 22.7083ZM82.6943 22.7083C82.6943 21.486 81.7029 20.4951 80.48 20.4951C79.257 20.4951 78.2656 21.486 78.2656 22.7083C78.2656 23.9306 79.257 24.9215 80.48 24.9215C81.7029 24.9215 82.6943 23.9306 82.6943 22.7083Z" fill="#E31587"/>
<path d="M66.6163 19.9434C66.6842 19.7736 66.8734 19.6884 67.0444 19.7476L67.0599 19.7533L70.8521 21.2694C71.0271 21.3394 71.1122 21.5379 71.0422 21.7128C70.9743 21.8826 70.7851 21.9677 70.6141 21.9086L70.5986 21.9028L66.8064 20.3868C66.6314 20.3168 66.5463 20.1183 66.6163 19.9434Z" fill="#E31587"/>
<path d="M75.6027 22.1611C75.6229 21.9792 75.7828 21.8467 75.9636 21.8584L75.9797 21.8598L77.9683 22.081C78.1556 22.1018 78.2905 22.2705 78.2697 22.4577C78.2494 22.6396 78.0896 22.7721 77.9088 22.7604L77.8928 22.759L75.9042 22.5378C75.7168 22.517 75.5819 22.3483 75.6027 22.1611Z" fill="#E31587"/>
<path fill-rule="evenodd" clip-rule="evenodd" d="M67.0063 24.3923C67.0063 24.8319 66.6498 25.1882 66.2099 25.1882C65.7701 25.1882 65.4136 24.8319 65.4136 24.3923C65.4136 23.9526 65.7701 23.5963 66.2099 23.5963C66.6498 23.5963 67.0063 23.9526 67.0063 24.3923Z" fill="white"/>
<path fill-rule="evenodd" clip-rule="evenodd" d="M219.185 103.713L124.761 90.1903L133.782 150.682L219.185 145.976V103.713Z" fill="#E7DFFF"/>
<path d="M126.916 89.887L122.733 90.5101L131.664 150.476L121.652 174.484H221.916V170.254L127.998 170.254L136.021 151.018L126.916 89.887Z" fill="#D9BFFF"/>
<path d="M110.496 78.2133C109.327 78.2133 108.379 79.1624 108.379 80.3321C108.379 81.5025 109.327 82.4515 110.496 82.4515C118.123 82.4515 121.947 85.0797 122.75 90.5042C122.921 91.6617 123.997 92.4614 125.154 92.2893C126.31 92.118 127.108 91.0409 126.938 89.8833C125.795 82.1589 120.054 78.2133 110.496 78.2133Z" fill="#D9BFFF"/>
<path d="M213.8 190.479C210.156 190.479 207.202 187.526 207.202 183.884C207.202 180.242 210.156 177.289 213.8 177.289C217.445 177.289 220.399 180.242 220.399 183.884C220.399 187.526 217.445 190.479 213.8 190.479Z" fill="#D9BFFF"/>
<path d="M133.483 190.479C129.839 190.479 126.885 187.526 126.885 183.884C126.885 180.242 129.839 177.289 133.483 177.289C137.127 177.289 140.081 180.242 140.081 183.884C140.081 187.526 137.127 190.479 133.483 190.479Z" fill="#D9BFFF"/>
</svg>
