<svg width="454" height="253" viewBox="0 0 454 253" fill="none" xmlns="http://www.w3.org/2000/svg">
<path fill-rule="evenodd" clip-rule="evenodd" d="M257.605 98.1843H340.524V0.156094H257.605V98.1843Z" fill="#D9BFFF"/>
<path fill-rule="evenodd" clip-rule="evenodd" d="M259.87 95.8329H338.502V2.42636H259.87V95.8329Z" fill="#D9BFFF"/>
<path fill-rule="evenodd" clip-rule="evenodd" d="M307.518 63.076H338.501V26.2648H307.518V63.076Z" fill="#E7DFFF"/>
<path fill-rule="evenodd" clip-rule="evenodd" d="M313.833 59.9135H318.035V30.4808H313.833V59.9135Z" fill="#D9BFFF"/>
<path fill-rule="evenodd" clip-rule="evenodd" d="M307.519 26.2648L300.643 38.9946L300.76 62.9527L307.519 63.076V26.2648Z" fill="#D9BFFF"/>
<path fill-rule="evenodd" clip-rule="evenodd" d="M259.79 95.8331H287.052V59.3461H259.79V95.8331Z" fill="#E7DFFF"/>
<path fill-rule="evenodd" clip-rule="evenodd" d="M267.634 75.8056H287.05V66.7245H267.634V75.8056Z" fill="#D9BFFF"/>
<path fill-rule="evenodd" clip-rule="evenodd" d="M267.634 89.6704H287.05V80.0219H267.634V89.6704Z" fill="#D9BFFF"/>
<path fill-rule="evenodd" clip-rule="evenodd" d="M300.804 95.8328H338.502V59.0216H300.804V95.8328Z" fill="#E7DFFF"/>
<path fill-rule="evenodd" clip-rule="evenodd" d="M307.929 75.9677H338.52V66.7245H307.929V75.9677Z" fill="#D9BFFF"/>
<path fill-rule="evenodd" clip-rule="evenodd" d="M308.008 89.9139H338.601V80.6706H308.008V89.9139Z" fill="#D9BFFF"/>
<path fill-rule="evenodd" clip-rule="evenodd" d="M300.804 59.0216L293.927 71.7515L294.045 95.7096L300.804 95.8328V59.0216Z" fill="#D9BFFF"/>
<path fill-rule="evenodd" clip-rule="evenodd" d="M286.161 22.0483C286.161 26.8845 282.249 30.8051 277.424 30.8051C272.599 30.8051 268.688 26.8845 268.688 22.0483C268.688 17.212 272.599 13.2914 277.424 13.2914C282.249 13.2914 286.161 17.212 286.161 22.0483Z" fill="#CB9EFF"/>
<path fill-rule="evenodd" clip-rule="evenodd" d="M323.946 59.9135H328.147V30.4808H323.946V59.9135Z" fill="#D9BFFF"/>
<path fill-rule="evenodd" clip-rule="evenodd" d="M334.298 60.0758H338.499V30.4808H334.298V60.0758Z" fill="#D9BFFF"/>
<path opacity="0.5" d="M243.714 252.215C359.536 252.215 453.429 248.809 453.429 244.607C453.429 240.406 359.536 237 243.714 237C127.892 237 34 240.406 34 244.607C34 248.809 127.892 252.215 243.714 252.215Z" fill="#E7DFFF"/>
<path fill-rule="evenodd" clip-rule="evenodd" d="M188.086 41.1086H250.215V0H188.086V41.1086Z" fill="#D9BFFF"/>
<path fill-rule="evenodd" clip-rule="evenodd" d="M190.026 39.0816H248.031V2.33057H190.026V39.0816Z" fill="#D9BFFF"/>
<path fill-rule="evenodd" clip-rule="evenodd" d="M212.582 22.3135C212.286 21.2021 211.427 20.2955 210.382 19.8459C209.269 19.3669 208.001 19.4374 206.924 19.9813C206.329 20.2813 205.815 20.7288 205.448 21.2857C205.354 21.4283 205.476 21.6741 205.658 21.6517C206.235 21.5806 206.85 21.495 207.418 21.667C207.84 21.7948 208.242 22.0918 208.322 22.5476C208.4 22.4449 208.478 22.3422 208.556 22.2396C207.888 22.1741 207.219 22.1087 206.551 22.0432C205.967 21.9861 205.313 21.8522 204.802 22.2229C204.574 22.3879 204.401 22.6078 204.224 22.8234C204.02 23.0715 203.819 23.3221 203.622 23.5752C203.228 24.0796 202.846 24.593 202.476 25.1156C202.317 25.3412 202.672 25.6123 202.857 25.4103C203.82 24.3599 205.367 23.93 206.743 24.2629C206.723 24.1148 206.704 23.9665 206.685 23.8183C205.461 24.3933 204.217 24.938 203.013 25.5518C202.508 25.8089 202.005 26.1172 201.635 26.5546C201.273 26.9819 201.044 27.4972 200.919 28.0409C200.778 28.6575 200.753 29.2945 200.738 29.9247C200.733 30.1296 201.011 30.2535 201.152 30.0967C201.96 29.2027 202.779 28.2918 203.784 27.6146C204.747 26.9655 205.875 26.5419 207.048 26.6017C207.007 26.4506 206.966 26.2995 206.925 26.1484C206.242 26.6497 205.559 27.1511 204.875 27.6524C204.278 28.0905 203.673 28.522 203.114 29.0096C202.109 29.8872 201.249 31.0295 201.237 32.4211C201.231 33.1365 201.472 33.8298 201.967 34.3515C202.066 34.4562 202.283 34.4449 202.348 34.3022C203.022 32.8149 204.209 31.6228 205.656 30.8834C205.558 30.756 205.46 30.6287 205.362 30.5013C204.759 31.1678 204.205 31.8802 203.714 32.6336C203.478 32.9944 203.239 33.3644 203.05 33.7516C202.905 34.0463 202.794 34.3753 202.795 34.7072C202.797 35.0298 202.924 35.337 203.197 35.52C203.505 35.7263 203.892 35.7013 204.214 35.5442C204.56 35.3757 204.794 35.0727 204.931 34.7198C205.082 34.3309 205.109 33.9082 205.248 33.5156C205.52 32.7441 206.206 32.1581 206.973 31.9171C206.874 31.8174 206.774 31.7177 206.675 31.6179C206.095 33.0005 205.434 34.3486 204.704 35.6576C204.61 35.8253 204.771 36.0992 204.978 36.0149C205.575 35.7726 206.112 35.4355 206.62 35.0412C207.12 34.6526 207.611 34.2327 208.063 33.7885C208.474 33.3855 208.749 32.9199 208.863 32.354C208.962 31.8606 208.968 31.3558 209.024 30.857C209.078 30.3754 209.203 29.8559 209.607 29.5456L209.25 29.4002C209.556 30.5598 209.459 31.8038 208.969 32.8997C208.865 33.1329 209.149 33.4147 209.35 33.1943C209.97 32.5146 210.935 32.1805 211.844 32.3162C212.034 32.3445 212.178 32.2123 212.143 32.017C212.008 31.2769 211.468 30.7308 211.069 30.1248C210.758 29.6518 210.467 28.9039 210.919 28.4238C210.792 28.4074 210.665 28.391 210.538 28.3746C211.202 29.4813 211.723 30.6635 212.084 31.9035C212.144 32.1111 212.414 32.1349 212.527 31.9616C212.788 31.5635 213.377 31.5268 213.784 31.3648C214.228 31.1876 214.731 30.8438 214.707 30.3033C214.694 30.0063 214.514 29.7633 214.352 29.5284C214.151 29.2367 213.949 28.945 213.748 28.6532L212.577 26.9573C212.467 27.0683 212.356 27.1792 212.245 27.2902C213.648 28.1729 214.351 29.745 214.981 31.2129C215.069 31.4168 215.37 31.3361 215.425 31.1548C215.59 30.6117 215.875 30.1096 216.257 29.6901C216.45 29.4786 216.663 29.2897 216.893 29.1204C217.118 28.9549 217.357 28.7942 217.543 28.5826C217.939 28.1304 217.955 27.5475 217.626 27.0494C217.295 26.5479 216.764 26.1863 216.244 25.9054C215.621 25.5696 214.942 25.3473 214.242 25.2483V25.7173C215.454 25.4912 216.739 25.794 217.722 26.5386C217.85 26.6358 218.041 26.5299 218.079 26.3932C218.322 25.5176 218.326 24.5271 217.929 23.695C217.487 22.7681 216.512 22.3047 215.51 22.4382C214.325 22.5962 213.306 23.3703 212.376 24.0685C211.473 24.7459 210.6 25.4785 209.865 26.3392C209.075 27.2641 208.447 28.3406 208.223 29.549C208.182 29.7697 208.453 29.9802 208.629 29.7857C209.274 29.0741 209.919 28.3624 210.564 27.6507C211.168 26.9842 211.756 26.2964 212.388 25.6568C212.938 25.1015 213.565 24.61 214.341 24.4343C215.068 24.2696 215.842 24.3886 216.526 24.6687C218.002 25.2734 218.927 26.6476 219.527 28.0698C220.198 29.6601 220.625 31.3761 220.823 33.0899C221.05 35.0635 220.973 37.0688 220.584 39.017H221.052C220.272 36.422 220.282 33.6957 220.438 31.0147C220.597 28.294 220.904 25.5659 220.705 22.8388C220.602 21.4301 220.313 20.0621 220.005 18.6872C219.702 17.3387 219.419 15.9731 219.47 14.5831C219.516 13.3628 219.84 12.1318 220.6 11.1575C221.272 10.2959 222.231 9.6583 223.316 9.48259C223.613 9.43475 223.922 9.42113 224.187 9.5833C224.436 9.73606 224.635 9.9776 224.827 10.1946C225.232 10.654 225.587 11.1557 225.89 11.6884C226.484 12.7326 226.874 13.9034 226.995 15.1009C227.025 15.4 227.039 15.7004 227.038 16.0011C227.189 15.9602 227.339 15.9193 227.49 15.8783C226.533 14.2269 225.576 12.5753 224.62 10.9238C223.907 9.69381 222.846 7.96157 223.967 6.64229C224.761 5.70911 226.131 5.41478 227.302 5.48776C228.635 5.57087 229.946 6.19115 230.943 7.06797C232.054 8.04557 232.863 9.40767 233.005 10.8994C233.143 10.8421 233.281 10.7847 233.419 10.7273C231.698 9.38254 229.322 8.96618 227.241 9.62019C227.031 9.68643 226.99 10.0461 227.241 10.0893C228.779 10.3545 230.402 10.655 231.75 11.4872C232.366 11.8669 232.909 12.3749 233.254 13.0176C233.596 13.6539 233.706 14.4148 233.586 15.1257C233.444 15.9619 233.022 16.7145 232.374 17.2604C232.501 17.2768 232.628 17.2932 232.755 17.3096C231.896 15.9456 230.805 14.7383 229.543 13.739C229.445 13.8664 229.347 13.9938 229.249 14.1211C230.09 14.5745 231.022 15.4407 230.993 16.481C230.978 17.0229 230.632 17.4359 230.276 17.8099C229.865 18.2425 229.48 18.685 229.176 19.2023C228.84 19.7758 228.598 20.4057 228.467 21.0578C228.603 21.022 228.738 20.9862 228.873 20.9504C227.462 19.4709 225.111 19.0802 223.258 19.8835C223.369 19.9127 223.48 19.9417 223.59 19.9708C222.749 18.5532 223.872 16.9269 224.417 15.6278C224.576 15.25 224.717 14.858 224.78 14.4515C224.833 14.106 224.795 13.7357 224.515 13.4947C224.032 13.0799 223.254 13.2356 222.849 13.6795C222.329 14.2486 222.247 15.1407 222.163 15.8718C222.063 16.7517 222.071 17.6431 222.185 18.5214C222.207 18.6977 222.279 18.9056 222.259 19.083C222.251 19.1532 222.266 19.1427 222.19 19.1416C222.1 19.1403 221.999 19.087 221.914 19.0595C221.47 18.9147 221.026 18.7698 220.582 18.625C220.299 18.5329 219.792 18.4658 219.759 18.0963C219.743 17.9216 219.794 17.7422 219.832 17.5735C219.877 17.3652 219.928 17.1581 219.984 16.9523C220.455 15.211 221.272 13.5806 222.356 12.1418C222.478 11.9795 222.272 11.7055 222.081 11.7846C220.287 12.5297 219.134 14.1157 218.274 15.7984C218.032 16.2729 217.809 16.757 217.59 17.2429C217.66 17.2027 217.73 17.1626 217.8 17.1225C216.685 17.0228 216.042 15.757 216.298 14.7408C216.637 13.3933 217.934 12.5452 219.046 11.8726C219.779 11.4293 220.522 11.0018 221.182 10.4502C221.349 10.3101 221.207 10.0361 221.01 10.0348C218.916 10.0224 216.818 10.8357 215.333 12.3277H215.677C214.968 11.7429 214.907 10.7728 215.235 9.96122C215.625 8.99821 216.556 8.4042 217.465 7.99595C218.05 7.73292 218.664 7.53727 219.275 7.34235C219.571 7.24765 219.444 6.77786 219.146 6.87321C217.98 7.24554 216.776 7.63806 215.815 8.42544C215.001 9.09194 214.45 10.1259 214.569 11.2007C214.633 11.7728 214.886 12.3026 215.333 12.6717C215.435 12.7551 215.577 12.7721 215.677 12.6717C217.073 11.2683 219.041 10.5097 221.01 10.5213C220.953 10.3829 220.896 10.2445 220.838 10.1061C219.606 11.1371 218.046 11.7057 216.901 12.8532C216.391 13.3642 215.959 13.9942 215.807 14.7104C215.677 15.3191 215.787 15.9582 216.1 16.4954C216.464 17.1203 217.077 17.5443 217.8 17.609C217.876 17.6158 217.978 17.5593 218.01 17.4884C218.736 15.8718 219.537 14.1733 220.933 13.0244C221.317 12.7086 221.752 12.4442 222.21 12.2537C222.119 12.1345 222.028 12.0154 221.936 11.8962C220.946 13.2117 220.176 14.692 219.68 16.2641C219.557 16.6526 219.451 17.0463 219.364 17.444C219.286 17.7976 219.191 18.2046 219.402 18.5319C219.618 18.8648 220.037 18.9587 220.389 19.0734C220.833 19.2183 221.278 19.3631 221.722 19.5079C221.906 19.568 222.097 19.6462 222.294 19.624C222.493 19.6016 222.661 19.4709 222.718 19.2752C222.766 19.1109 222.734 18.9424 222.708 18.7777C222.671 18.5429 222.641 18.3072 222.621 18.0705C222.541 17.1678 222.571 16.2524 222.722 15.3586C222.821 14.77 222.962 13.8605 223.686 13.7503C223.912 13.7161 224.209 13.7669 224.295 14.009C224.355 14.1792 224.306 14.379 224.268 14.5483C224.22 14.759 224.155 14.9656 224.08 15.1682C223.762 16.032 223.258 16.8188 222.997 17.7053C222.752 18.5345 222.717 19.4516 223.171 20.2164C223.244 20.3391 223.382 20.3563 223.503 20.3036C225.156 19.5868 227.282 19.9859 228.53 21.2945C228.65 21.4206 228.899 21.3674 228.935 21.1871C229.059 20.5732 229.279 19.9878 229.596 19.4478C229.918 18.8973 230.345 18.4614 230.77 17.9928C231.159 17.5639 231.461 17.0757 231.478 16.481C231.494 15.9478 231.28 15.4219 230.976 14.993C230.593 14.4524 230.076 14.0144 229.494 13.701C229.263 13.5768 228.974 13.9045 229.2 14.083C230.43 15.0571 231.498 16.2252 232.336 17.5551C232.424 17.6962 232.595 17.7067 232.717 17.6043C233.961 16.5573 234.464 14.716 233.864 13.1904C233.249 11.623 231.709 10.7543 230.185 10.2627C229.267 9.96698 228.318 9.78373 227.37 9.62019V10.0893C229.272 9.49159 231.493 9.83425 233.076 11.0714C233.22 11.1843 233.512 11.1342 233.49 10.8994C233.212 7.98022 230.713 5.52165 227.856 5.06402C226.533 4.85207 225.029 5.08746 223.971 5.95852C223.458 6.38136 223.109 6.97407 223.019 7.63611C222.896 8.54934 223.253 9.43759 223.67 10.2303C224.193 11.2226 224.787 12.181 225.349 13.1512C225.923 14.1421 226.497 15.133 227.071 16.1239C227.192 16.3331 227.523 16.2418 227.523 16.0011C227.527 14.7283 227.251 13.4733 226.743 12.3085C226.491 11.732 226.18 11.1813 225.816 10.6683C225.456 10.16 225.046 9.61046 224.541 9.23805C224.016 8.85048 223.335 8.94542 222.743 9.11164C222.187 9.26797 221.663 9.53716 221.204 9.88687C220.247 10.6148 219.58 11.6434 219.253 12.7982C218.443 15.6591 219.617 18.5341 220.053 21.3474C220.485 24.138 220.226 26.9803 220.033 29.7796C219.841 32.562 219.696 35.395 220.318 38.137C220.394 38.4765 220.484 38.8129 220.584 39.1463C220.649 39.3631 221.003 39.3924 221.052 39.1463C221.776 35.5209 221.468 31.6847 220.116 28.239C219.526 26.7341 218.653 25.2447 217.191 24.4501C216.493 24.0709 215.692 23.8469 214.895 23.8767C214.058 23.908 213.308 24.2375 212.658 24.7556C211.881 25.3743 211.245 26.1767 210.581 26.9096C209.816 27.7536 209.051 28.5976 208.286 29.4417C208.421 29.5206 208.556 29.5995 208.691 29.6784C209.069 27.6421 210.591 26.0918 212.151 24.8511C212.561 24.5247 212.984 24.2127 213.414 23.9134C213.869 23.597 214.35 23.2952 214.872 23.1011C215.366 22.9171 215.903 22.8231 216.418 22.9748C216.791 23.0846 217.12 23.3182 217.339 23.6409C217.85 24.3942 217.847 25.4153 217.611 26.2639L217.967 26.1185C216.878 25.2937 215.447 24.9994 214.113 25.2483C213.887 25.2906 213.877 25.6839 214.113 25.7173C214.685 25.7983 215.247 25.957 215.768 26.208C216.257 26.4433 216.763 26.7464 217.114 27.1691C217.267 27.3542 217.405 27.5959 217.382 27.8453C217.36 28.0819 217.195 28.2623 217.024 28.4117C216.837 28.5748 216.628 28.7096 216.434 28.8628C216.219 29.0319 216.021 29.2205 215.842 29.4273C215.439 29.8938 215.136 30.4349 214.957 31.0254C215.105 31.0061 215.253 30.9867 215.401 30.9673C214.732 29.4126 213.972 27.8028 212.49 26.8701C212.291 26.7449 212.018 27.0005 212.158 27.2029C212.523 27.7317 212.888 28.2606 213.253 28.7893C213.442 29.0629 213.631 29.3364 213.82 29.6098C213.954 29.8047 214.198 30.0549 214.222 30.3033C214.263 30.7362 213.595 30.9242 213.287 31.0166C212.839 31.1512 212.377 31.3048 212.108 31.7161C212.256 31.7355 212.404 31.7548 212.552 31.7743C212.18 30.4962 211.642 29.2697 210.957 28.129C210.878 27.9982 210.685 27.9642 210.576 28.0798C210.038 28.651 210.164 29.4737 210.5 30.1161C210.862 30.8099 211.529 31.3468 211.675 32.1463C211.774 32.0465 211.874 31.9469 211.973 31.8471C210.894 31.686 209.752 32.0331 209.007 32.8504C209.134 32.9486 209.261 33.0469 209.388 33.1452C209.933 31.9265 210.059 30.5651 209.718 29.2709C209.682 29.134 209.488 29.0282 209.362 29.1255C208.529 29.7659 208.556 30.802 208.462 31.7554C208.414 32.24 208.316 32.7279 208.014 33.1221C207.818 33.3771 207.569 33.5898 207.33 33.8029C207.101 34.0074 206.872 34.2113 206.636 34.4078C206.094 34.8604 205.507 35.2785 204.849 35.5458C204.94 35.6649 205.032 35.7841 205.123 35.9032C205.874 34.5567 206.546 33.1692 207.143 31.7473C207.215 31.5737 207.006 31.3974 206.844 31.448C206.179 31.6567 205.6 32.0631 205.183 32.6229C204.98 32.8956 204.827 33.2063 204.733 33.5332C204.628 33.8967 204.602 34.2913 204.442 34.6376C204.321 34.9011 204.082 35.1362 203.785 35.1809C203.529 35.2194 203.316 35.0546 203.284 34.8011C203.252 34.5451 203.342 34.2648 203.45 34.0364C203.61 33.6965 203.818 33.3732 204.019 33.0565C204.516 32.2715 205.082 31.5339 205.705 30.8454C205.892 30.6389 205.659 30.3367 205.411 30.4633C203.899 31.2358 202.633 32.5024 201.929 34.0567C202.056 34.0403 202.183 34.024 202.31 34.0075C201.506 33.1593 201.605 31.833 202.15 30.8734C202.81 29.7118 203.96 28.9239 205.012 28.1517C205.732 27.6239 206.451 27.0961 207.17 26.5685C207.362 26.4279 207.301 26.1281 207.048 26.1152C205.816 26.0524 204.604 26.4881 203.586 27.1629C202.523 27.867 201.658 28.8123 200.809 29.7527C200.947 29.81 201.085 29.8674 201.223 29.9247C201.247 28.9185 201.279 27.7851 201.93 26.957C202.271 26.5236 202.749 26.2325 203.233 25.9846C203.777 25.7053 204.339 25.4563 204.893 25.1959C205.572 24.8767 206.251 24.5575 206.93 24.2383C207.12 24.1487 207.065 23.8406 206.872 23.7938C205.334 23.4216 203.594 23.8885 202.514 25.0663C202.641 25.1646 202.768 25.2629 202.895 25.3611C203.241 24.8725 203.597 24.3909 203.965 23.9192C204.149 23.683 204.337 23.4489 204.526 23.2171C204.689 23.0183 204.848 22.7943 205.054 22.6373C205.269 22.4733 205.525 22.4482 205.787 22.4604C206.086 22.4741 206.386 22.5136 206.685 22.5428C207.308 22.6039 207.932 22.665 208.556 22.7261C208.727 22.7428 208.815 22.5582 208.79 22.4182C208.69 21.8467 208.204 21.4463 207.689 21.2469C207.045 20.9976 206.325 21.0831 205.658 21.1652C205.728 21.2873 205.798 21.4093 205.868 21.5313C206.432 20.6752 207.431 20.128 208.441 20.0259C209.479 19.921 210.517 20.28 211.264 21.0125C211.668 21.4081 211.968 21.8947 212.114 22.4428C212.194 22.745 212.663 22.6168 212.582 22.3135Z" fill="white"/>
<path fill-rule="evenodd" clip-rule="evenodd" d="M211.096 98.2709H250.169V50.9192H211.096V98.2709Z" fill="#D9BFFF"/>
<path fill-rule="evenodd" clip-rule="evenodd" d="M213.296 95.783H248.312V53.2706H213.296V95.783Z" fill="#E7DFFF"/>
<path fill-rule="evenodd" clip-rule="evenodd" d="M239.077 70.6534L233.867 81.8103L228.144 71.6532C228.953 63.1712 233.975 54.2408 233.975 54.2408C235.34 56.6278 236.381 58.873 237.156 60.9771L234 70.9648L233.934 75.9862L237.95 63.3974C238.719 66.069 239.049 68.4877 239.077 70.6534Z" fill="#C689FF"/>
<path fill-rule="evenodd" clip-rule="evenodd" d="M237.949 63.3972L233.933 75.9859L233.999 70.9645L237.154 60.977C237.459 61.8056 237.723 62.6124 237.949 63.3972Z" fill="#D9BFFF"/>
<path fill-rule="evenodd" clip-rule="evenodd" d="M233.683 84.6661C228.758 81.9856 227.644 76.9058 228.144 71.6534L233.866 81.8104L239.077 70.6537C239.201 80.0258 233.683 84.6661 233.683 84.6661Z" fill="#D9BFFF"/>
<path fill-rule="evenodd" clip-rule="evenodd" d="M233.683 84.6659L233.974 54.2408L233.683 84.6659Z" fill="#FFA436"/>
<path fill-rule="evenodd" clip-rule="evenodd" d="M233.925 84.6684L233.44 84.6637L233.731 54.2384L234.217 54.2431L233.925 84.6684Z" fill="#FFA436"/>
<mask id="mask0_344_8595" style="mask-type:alpha" maskUnits="userSpaceOnUse" x="213" y="60" width="11" height="25">
<path fill-rule="evenodd" clip-rule="evenodd" d="M213.197 60.006H223.466V84.3877H213.197V60.006Z" fill="white"/>
</mask>
<g mask="url(#mask0_344_8595)">
<path fill-rule="evenodd" clip-rule="evenodd" d="M222.831 72.0855L223.467 84.3877L213.651 78.1212C210.386 70.2543 210.628 60.006 210.628 60.006C212.952 61.4694 214.924 62.96 216.595 64.4517L218.497 74.7534L220.794 79.2162L218.432 66.2132C220.364 68.2088 221.79 70.1876 222.831 72.0855Z" fill="#C689FF"/>
</g>
<path fill-rule="evenodd" clip-rule="evenodd" d="M218.429 66.2133L220.791 79.2162L218.494 74.7535L216.593 64.4517C217.251 65.0393 217.862 65.627 218.429 66.2133Z" fill="#D9BFFF"/>
<path fill-rule="evenodd" clip-rule="evenodd" d="M224.644 86.994C219.04 86.9497 215.673 82.9921 213.65 78.121L223.466 84.3876L222.83 72.0854C227.337 80.2979 224.644 86.994 224.644 86.994Z" fill="#D9BFFF"/>
<mask id="mask1_344_8595" style="mask-type:alpha" maskUnits="userSpaceOnUse" x="213" y="60" width="12" height="27">
<path fill-rule="evenodd" clip-rule="evenodd" d="M213.197 60.0057H224.645V86.994H213.197V60.0057Z" fill="white"/>
</mask>
<g mask="url(#mask1_344_8595)">
<path fill-rule="evenodd" clip-rule="evenodd" d="M224.643 86.9945L210.625 60.006L224.643 86.9945Z" fill="#FFA436"/>
</g>
<mask id="mask2_344_8595" style="mask-type:alpha" maskUnits="userSpaceOnUse" x="213" y="59" width="12" height="29">
<path fill-rule="evenodd" clip-rule="evenodd" d="M213.197 59.8939H224.86V87.1068H213.197V59.8939Z" fill="white"/>
</mask>
<g mask="url(#mask2_344_8595)">
<path fill-rule="evenodd" clip-rule="evenodd" d="M224.43 87.1068L210.411 60.1186L210.842 59.8939L224.86 86.8821L224.43 87.1068Z" fill="#FFA436"/>
</g>
<path fill-rule="evenodd" clip-rule="evenodd" d="M246.932 94.2419L244.681 93.5276L226.66 87.6799L226.625 87.6312L236.464 85.3893C238.048 85.9439 239.723 86.8472 241.446 88.2288L230.929 88.9853L234.642 90.1456L242.976 89.574C244.281 90.8243 245.605 92.3616 246.932 94.2419Z" fill="#D9BFFF"/>
<mask id="mask3_344_8595" style="mask-type:alpha" maskUnits="userSpaceOnUse" x="226" y="87" width="21" height="9">
<path fill-rule="evenodd" clip-rule="evenodd" d="M226.659 87.6798H246.931V95.6687H226.659V87.6798Z" fill="white"/>
</mask>
<g mask="url(#mask3_344_8595)">
<path fill-rule="evenodd" clip-rule="evenodd" d="M246.931 94.2417C246.931 94.2417 246.923 94.2442 246.906 94.2498C246.408 94.4055 238.578 96.8039 232.298 95.5504L226.776 87.8428L226.659 87.6798L244.68 93.5274L246.931 94.2417Z" fill="#C689FF"/>
</g>
<path fill-rule="evenodd" clip-rule="evenodd" d="M242.976 89.5738L234.642 90.1454L230.929 88.9852L241.445 88.2287C241.952 88.6349 242.462 89.0825 242.976 89.5738Z" fill="#D9BFFF"/>
<path fill-rule="evenodd" clip-rule="evenodd" d="M226.778 87.843L232.3 95.5506C228.281 94.7479 224.895 92.4493 224.469 87.1101C224.469 87.1101 224.513 87.0744 224.6 87.0112C225.442 86.399 230.25 83.2125 236.465 85.3895L226.626 87.6314L226.661 87.6801L226.778 87.843Z" fill="#D9BFFF"/>
<path fill-rule="evenodd" clip-rule="evenodd" d="M244.616 93.7317L226.712 88.0471L224.403 87.3142L224.532 86.9056L244.745 93.3231L244.616 93.7317Z" fill="#FFA436"/>
<mask id="mask4_344_8595" style="mask-type:alpha" maskUnits="userSpaceOnUse" x="238" y="75" width="11" height="10">
<path fill-rule="evenodd" clip-rule="evenodd" d="M238.061 75.7049H248.214V84.6278H238.061V75.7049Z" fill="white"/>
</mask>
<g mask="url(#mask4_344_8595)">
<path fill-rule="evenodd" clip-rule="evenodd" d="M251.633 75.7049L250.124 76.6806L238.077 84.5851L238.061 84.6278L245.724 84.2976C246.775 83.573 247.822 82.5746 248.81 81.2155L240.947 82.7711L243.438 81.1751L249.664 79.922C250.37 78.7434 251.035 77.3502 251.633 75.7049Z" fill="#D9BFFF"/>
</g>
<mask id="mask5_344_8595" style="mask-type:alpha" maskUnits="userSpaceOnUse" x="238" y="75" width="11" height="10">
<path fill-rule="evenodd" clip-rule="evenodd" d="M238.077 75.6941H248.214V84.5849H238.077V75.6941Z" fill="white"/>
</mask>
<g mask="url(#mask5_344_8595)">
<path fill-rule="evenodd" clip-rule="evenodd" d="M251.633 75.7048C251.633 75.7048 251.626 75.7047 251.613 75.704C251.216 75.6898 244.996 75.502 240.64 77.6816L238.131 84.4418L238.077 84.5849L250.124 76.6805L251.633 75.7048Z" fill="#C689FF"/>
</g>
<mask id="mask6_344_8595" style="mask-type:alpha" maskUnits="userSpaceOnUse" x="240" y="79" width="9" height="4">
<path fill-rule="evenodd" clip-rule="evenodd" d="M240.946 79.9215H248.213V82.7707H240.946V79.9215Z" fill="white"/>
</mask>
<g mask="url(#mask6_344_8595)">
<path fill-rule="evenodd" clip-rule="evenodd" d="M249.664 79.9215L243.438 81.1747L240.946 82.7707L248.81 81.2152C249.1 80.8156 249.385 80.385 249.664 79.9215Z" fill="#D9BFFF"/>
</g>
<path fill-rule="evenodd" clip-rule="evenodd" d="M238.127 84.4418L240.637 77.6814C237.85 79.0766 235.826 81.4417 236.58 85.4429C236.58 85.4429 236.62 85.4601 236.696 85.4891C237.436 85.7691 241.598 87.141 245.721 84.2973L238.058 84.6276L238.074 84.5848L238.127 84.4418Z" fill="#D9BFFF"/>
<mask id="mask7_344_8595" style="mask-type:alpha" maskUnits="userSpaceOnUse" x="236" y="76" width="13" height="10">
<path fill-rule="evenodd" clip-rule="evenodd" d="M236.492 76.5434H248.21V85.5796H236.492V76.5434Z" fill="white"/>
</mask>
<g mask="url(#mask7_344_8595)">
<path fill-rule="evenodd" clip-rule="evenodd" d="M236.668 85.5796L236.492 85.3059L250.033 76.5434L250.209 76.8171L236.668 85.5796Z" fill="#FFA436"/>
</g>
<mask id="mask8_344_8595" style="mask-type:alpha" maskUnits="userSpaceOnUse" x="244" y="93" width="5" height="2">
<path fill-rule="evenodd" clip-rule="evenodd" d="M244.61 93.2959H248.216V94.9111H244.61V93.2959Z" fill="white"/>
</mask>
<g mask="url(#mask8_344_8595)">
<path fill-rule="evenodd" clip-rule="evenodd" d="M248.162 94.9111L244.61 93.7588L244.76 93.2959L248.312 94.4482L248.162 94.9111Z" fill="#FFA436"/>
</g>
<path fill-rule="evenodd" clip-rule="evenodd" d="M226.587 87.9111L223.766 86.9958L223.916 86.533L226.736 87.4483L226.587 87.9111Z" fill="#FFA436"/>
<path d="M168.55 83.6765H118.636C116.872 83.6765 115.441 85.1104 115.441 86.8793C115.441 88.6482 116.872 90.0821 118.636 90.0821H168.55C170.315 90.0821 171.746 88.6482 171.746 86.8793C171.746 85.1104 170.315 83.6765 168.55 83.6765Z" fill="#D9BFFF"/>
<path fill-rule="evenodd" clip-rule="evenodd" d="M135.479 78.6053H146.049V73.773H135.479V78.6053Z" fill="#CB9EFF"/>
<path fill-rule="evenodd" clip-rule="evenodd" d="M147.338 57.025L141.436 57.0153L141.449 63.5173H141.443L141.461 72.6187L146.048 72.613V73.8017L135.483 73.8179V72.6293L140.279 72.6187V61.7059H140.283L140.273 57.0153L134.157 57.0266V56.2831C134.157 55.5955 134.713 55.0385 135.399 55.0385L140.109 55.0272C139.649 54.758 139.341 54.2585 139.341 53.6869C139.341 52.8298 140.034 52.135 140.889 52.135C141.744 52.135 142.437 52.8298 142.437 53.6869C142.437 54.2585 142.128 54.758 141.669 55.0272L146.181 55.0369C146.82 55.0369 147.338 55.5566 147.338 56.1972V57.025Z" fill="#C689FF"/>
<path fill-rule="evenodd" clip-rule="evenodd" d="M147.399 56.3708L147.351 79.8205H134.351L134.3 60.9044L130.896 56.4133L147.399 56.3708ZM146.705 79.1719L146.751 57.021L132.198 57.0586L134.946 60.6852L134.997 79.1719H146.705Z" fill="#C689FF"/>
<path fill-rule="evenodd" clip-rule="evenodd" d="M134.398 79.9879L132.25 83.5887L149.512 83.6109L147.4 79.9734L134.398 79.9879Z" fill="#C689FF"/>
<path fill-rule="evenodd" clip-rule="evenodd" d="M154.291 69.9772C154.291 72.498 152.379 74.5411 150.019 74.5411H148.103V60.4078H149.801C152.281 60.4078 154.291 62.5549 154.291 65.2043V69.9772ZM149.644 58.9718H147.165V76.2625H149.934C153.088 76.2625 155.645 73.6995 155.645 70.5381V64.9881C155.645 61.6653 152.958 58.9718 149.644 58.9718Z" fill="#C689FF"/>
<path fill-rule="evenodd" clip-rule="evenodd" d="M409.512 183.033C409.508 182.947 409.044 174.331 407.179 163.358C406.084 156.917 404.728 150.937 403.149 145.583C401.177 138.9 398.851 133.183 396.233 128.589L396.774 128.26C399.417 132.899 401.764 138.664 403.75 145.398C405.337 150.778 406.699 156.785 407.798 163.254C409.669 174.263 410.134 182.912 410.139 182.998L409.512 183.033Z" fill="#C689FF"/>
<path fill-rule="evenodd" clip-rule="evenodd" d="M402.8 124.201C402.707 128.186 399.508 131.338 395.654 131.242C391.8 131.146 388.751 127.839 388.843 123.854C388.936 119.87 392.136 116.718 395.99 116.814C399.844 116.909 402.893 120.217 402.8 124.201Z" fill="#F9C818"/>
<path fill-rule="evenodd" clip-rule="evenodd" d="M404.251 133.006C404.251 133.006 392.765 109.556 403.72 91.1005C414.676 72.6451 423.596 87.0575 421.777 101.374C419.959 115.691 413.626 125.978 404.251 133.006Z" fill="#C689FF"/>
<path fill-rule="evenodd" clip-rule="evenodd" d="M400.92 137.406L400.501 136.922C403.106 134.515 405.398 130.82 407.313 125.941C408.873 121.964 410.192 117.185 411.231 111.736C412.87 103.145 413.373 95.1652 413.513 92.1332C413.519 92.0136 413.522 91.9366 413.524 91.9051L414.15 91.9495C414.148 91.9792 414.145 92.0516 414.14 92.1642C413.999 95.2104 413.494 103.228 411.847 111.862C410.799 117.351 409.47 122.169 407.894 126.184C405.943 131.157 403.596 134.932 400.92 137.406Z" fill="#C689FF"/>
<path fill-rule="evenodd" clip-rule="evenodd" d="M419.652 145.701C419.652 145.701 407.523 164.541 403.137 188.042C398.751 211.543 404.715 221.919 404.715 221.919L409.646 219.412C409.646 219.412 406.712 205.315 409.594 188.985C412.476 172.655 424.053 148.87 424.053 148.87L419.652 145.701Z" fill="#C689FF"/>
<path fill-rule="evenodd" clip-rule="evenodd" d="M411.442 119.139C411.442 119.139 407.089 125.027 413.234 131.669C419.379 138.31 411.375 147.709 420.192 151.723C420.192 151.723 424.89 154.234 429.181 148.113C433.473 141.992 433.984 141.113 439.923 142.097C445.862 143.08 448.8 136.582 448.8 136.582C448.8 136.582 441.564 129.812 428.553 125.636C415.542 121.46 411.442 119.139 411.442 119.139Z" fill="#F6B8FF"/>
<path fill-rule="evenodd" clip-rule="evenodd" d="M411.442 119.139C411.442 119.139 420.658 128.207 433.077 131.921C445.495 135.636 448.801 136.582 448.801 136.582C448.801 136.582 443.723 130.126 433.534 125.519C423.346 120.913 416.538 121.822 411.442 119.139Z" fill="#FEA78D"/>
<path fill-rule="evenodd" clip-rule="evenodd" d="M398.586 160.801C398.586 160.801 402.298 173.761 411.041 184.837C419.785 195.912 426.669 197.057 426.669 197.057L427.445 193.76C427.445 193.76 420.07 189.754 413.932 182.137C407.793 174.52 401.676 159.929 401.676 159.929L398.586 160.801Z" fill="#C689FF"/>
<path fill-rule="evenodd" clip-rule="evenodd" d="M383.037 154.606C383.037 154.606 383.982 158.922 389.279 158.553C394.577 158.182 395.681 165.574 400.836 162.931C400.836 162.931 403.748 161.665 402.676 157.289C401.605 152.911 401.41 152.333 404.12 149.895C406.83 147.456 405.072 143.576 405.072 143.576C405.072 143.576 399.3 144.414 392.468 148.982C385.636 153.551 383.037 154.606 383.037 154.606Z" fill="#F6B8FF"/>
<path fill-rule="evenodd" clip-rule="evenodd" d="M383.037 154.606C383.037 154.606 390.586 153.709 396.986 149.244C403.387 144.78 405.072 143.576 405.072 143.576C405.072 143.576 400.265 143.511 394.323 146.577C388.38 149.642 386.177 153.217 383.037 154.606Z" fill="#FFB4DB"/>
<path fill-rule="evenodd" clip-rule="evenodd" d="M373.473 217.031C373.473 231.361 385.062 242.978 399.359 242.978H418.642C432.939 242.978 444.528 231.361 444.528 217.031V174.788H373.473V217.031Z" fill="#F6B8FF"/>
<mask id="mask9_344_8595" style="mask-type:alpha" maskUnits="userSpaceOnUse" x="56" y="104" width="43" height="71">
<path fill-rule="evenodd" clip-rule="evenodd" d="M56.2695 104.028H98.1906V174.904H56.2695V104.028Z" fill="white"/>
</mask>
<g mask="url(#mask9_344_8595)">
<path fill-rule="evenodd" clip-rule="evenodd" d="M61.2748 158.932C61.2748 158.932 57.5886 151.959 59.7847 143.526C61.9807 135.093 54.2161 127.391 56.8044 120.823C59.3925 114.256 64.1768 104.526 64.1768 104.526C64.1768 104.526 76.2549 101.769 80.6469 109.228C85.039 116.688 93.5879 118.229 92.9605 126.175C92.333 134.12 92.1762 136.472 96.6466 140.607C101.117 144.742 94.1369 163.472 97.274 172.716C100.411 181.959 61.2748 158.932 61.2748 158.932Z" fill="#F770FF"/>
</g>
<path fill-rule="evenodd" clip-rule="evenodd" d="M64.176 104.526C64.176 104.526 72.9602 112.715 76.3326 131.445C79.7052 150.175 83.0463 154.133 81.8464 169.303C81.3522 170.283 61.2741 158.932 61.2741 158.932C61.2741 158.932 57.9017 153.499 58.2938 148.148C58.686 142.797 60.8851 137.66 57.3934 130.58C53.9017 123.499 55.3919 119.364 64.176 104.526Z" fill="#CB9EFF"/>
<path fill-rule="evenodd" clip-rule="evenodd" d="M94.8418 153.499C94.8418 153.499 99.3122 154.067 99.3122 160.31V193.635L84.7243 193.959C84.7243 193.959 80.1754 184.473 72.3324 181.391C64.4894 178.31 82.9204 155.04 82.9204 155.04C82.9204 155.04 92.332 151.959 94.8418 153.499Z" fill="#C689FF"/>
<path fill-rule="evenodd" clip-rule="evenodd" d="M45.6653 152.202C45.6653 152.202 41.9791 154.716 42.9987 160.067C44.0183 165.419 45.3516 166.878 42.2929 172.067C39.2341 177.256 37.3518 189.743 47.077 201.743C47.077 201.743 57.4298 203.851 62.6846 196.392C67.9394 188.932 67.2335 186.338 76.0177 183.013C84.8017 179.689 79.3901 161.202 85.1155 157.473C90.8409 153.743 93.1938 153.013 93.1938 153.013L45.6653 152.202Z" fill="#F6B8FF"/>
<mask id="mask10_344_8595" style="mask-type:alpha" maskUnits="userSpaceOnUse" x="38" y="152" width="27" height="50">
<path fill-rule="evenodd" clip-rule="evenodd" d="M38.4111 152.202H64.5669V201.743H38.4111V152.202Z" fill="white"/>
</mask>
<g mask="url(#mask10_344_8595)">
<path fill-rule="evenodd" clip-rule="evenodd" d="M45.668 152.202C45.668 152.202 41.4328 153.986 43.0014 160.067C44.57 166.148 42.9229 165.905 39.1583 176.608C35.3937 187.311 47.0797 201.743 47.0797 201.743C47.0797 201.743 47.7855 187.797 53.354 179.851C58.9225 171.905 57.3486 155.223 64.5668 152.659L45.668 152.202Z" fill="#C689FF"/>
</g>
<path fill-rule="evenodd" clip-rule="evenodd" d="M82.8008 193.573L101.873 193.42C103.954 193.404 105.769 194.879 106.245 196.973L113.985 231.018C115.368 237.104 110.901 242.933 104.854 242.933H82.9235C77.2109 242.933 72.825 237.699 73.6396 231.853L78.4246 197.522C78.7387 195.268 80.5984 193.59 82.8008 193.573Z" fill="#F6B8FF"/>
<path fill-rule="evenodd" clip-rule="evenodd" d="M99.6249 170.932C99.6249 170.932 89.8212 188.122 96.9583 196.879C104.095 205.635 110.056 203.771 112.487 213.825C114.918 223.879 133.35 217.149 133.35 217.149C133.35 217.149 135.153 207.338 131.468 200.852C127.781 194.365 123.311 195.095 123.232 185.77C123.154 176.446 118.291 170.608 118.291 170.608L99.6249 170.932Z" fill="#C689FF"/>
<path fill-rule="evenodd" clip-rule="evenodd" d="M108.381 170.672C108.381 170.672 105.586 182.77 110.214 192.338C114.841 201.905 128.645 205.311 133.35 217.149C133.35 217.149 136.801 207.824 132.959 201.905C129.115 195.986 125.194 194.851 124.488 187.067C123.782 179.284 118.292 170.608 118.292 170.608L108.381 170.672Z" fill="#F6B8FF"/>
<path fill-rule="evenodd" clip-rule="evenodd" d="M85.4487 193.543H82.1258C82.1258 193.543 78.8734 193.536 78.23 198.045C77.5863 202.554 73.4296 232.554 73.4296 232.554C73.4296 232.554 72.959 236.852 75.155 239.203C77.351 241.554 78.9668 242.905 82.355 243C82.355 243 79.2333 238.798 79.5471 231.662C79.8608 224.527 83.2333 200.77 83.2333 200.77C83.2333 200.77 83.9778 194.101 85.4487 193.543Z" fill="#FEA78D"/>
<path fill-rule="evenodd" clip-rule="evenodd" d="M391.908 193.05H119.012C115.133 193.05 111.989 189.898 111.989 186.01V119.494C111.989 115.606 115.133 112.454 119.012 112.454H391.908C395.786 112.454 398.931 115.606 398.931 119.494V186.01C398.931 189.898 395.786 193.05 391.908 193.05Z" fill="#D9BFFF"/>
<path fill-rule="evenodd" clip-rule="evenodd" d="M129.46 202.698H376.439V176.347H129.46V202.698Z" fill="#AB71FF"/>
<path fill-rule="evenodd" clip-rule="evenodd" d="M121.092 222.283L114.863 242.958L119.798 242.634L134.867 222.239L121.092 222.283Z" fill="#D9BFFF"/>
<path fill-rule="evenodd" clip-rule="evenodd" d="M389.368 222.283L395.597 242.958L390.663 242.634L375.593 222.239L389.368 222.283Z" fill="#D9BFFF"/>
<path fill-rule="evenodd" clip-rule="evenodd" d="M136.339 145.373C136.339 145.373 137.148 144.481 146.37 146.346C155.592 148.211 169.413 143.479 171.401 144.913C173.39 146.346 173.066 173.914 178.324 180.968C183.583 188.022 165.138 177.725 148.15 184.941C131.161 192.157 144.914 163.779 144.914 163.779L136.339 145.373Z" fill="#F7E2FF"/>
<path fill-rule="evenodd" clip-rule="evenodd" d="M126.499 137.277C126.499 137.277 123.704 159.132 140.636 179.777C157.568 200.423 150.812 163.752 141 149.731C131.189 135.711 126.665 131.779 126.499 137.277Z" fill="#D9BFFF"/>
<path fill-rule="evenodd" clip-rule="evenodd" d="M380.081 168.725C379.918 168.267 379.272 161.671 379.677 153.4C380.081 145.13 367.834 154.659 350.877 151.617C341.303 149.898 326.565 146.572 329.197 154.373C331.947 162.52 325.071 176.752 329.925 177.482C334.779 178.212 360.423 173.509 371.668 178.536C382.913 183.563 382.427 175.293 380.081 168.725Z" fill="#F7E2FF"/>
<path fill-rule="evenodd" clip-rule="evenodd" d="M99.2525 162.464L120.168 220.075C120.745 221.668 122.253 222.729 123.944 222.734L386.496 223.528C388.224 223.533 389.761 222.436 390.322 220.799L410.932 160.62C411.807 158.067 409.987 155.39 407.297 155.271L387.801 154.409C386.207 154.338 384.721 155.217 384.011 156.651L367.113 190.81C366.435 192.182 365.039 193.052 363.51 193.056L146.992 193.531C145.428 193.534 144.002 192.63 143.336 191.21L128.08 158.718C127.397 157.262 125.916 156.351 124.311 156.399L102.92 157.044C100.175 157.127 98.3133 159.877 99.2525 162.464Z" fill="#CB9EFF"/>
<path fill-rule="evenodd" clip-rule="evenodd" d="M312.428 133.137L309.516 160.478C309.516 160.478 337.856 167.309 348.188 158.375L349.236 134.305L312.428 133.137Z" fill="#F770FF"/>
<path fill-rule="evenodd" clip-rule="evenodd" d="M324.8 97.5415C324.8 97.5415 324.502 104.122 320.672 106.444C317.197 108.552 324.559 120.78 332.478 120.051C336.813 119.652 337.829 107.771 337.829 107.771C337.829 107.771 334.329 107.093 335.621 101.743L324.8 97.5415Z" fill="#960E18"/>
<path fill-rule="evenodd" clip-rule="evenodd" d="M331.142 104.232C326.009 103.61 322.304 100.227 321.785 94.6144C320.292 94.8525 319.94 90.9549 320.356 89.7029C320.772 88.449 322.13 89.1821 322.13 89.1821C322.13 89.1821 322.243 88.8849 322.322 88.5598C324.564 79.3399 330.846 79.7056 330.846 79.7056C342.388 80.3082 339.683 92.1189 339.024 95.2521C338.365 98.3857 336.105 104.833 331.142 104.232Z" fill="#960E18"/>
<path fill-rule="evenodd" clip-rule="evenodd" d="M348.209 141.904C346.506 141.208 344.311 139.008 341.686 135.365C339.739 132.663 338.267 130.13 338.252 130.104L338.532 129.941C338.59 130.042 344.391 139.995 348.331 141.603L348.209 141.904Z" fill="#864A56"/>
<mask id="mask11_344_8595" style="mask-type:alpha" maskUnits="userSpaceOnUse" x="302" y="106" width="50" height="51">
<path fill-rule="evenodd" clip-rule="evenodd" d="M302.232 106.104H351.088V156.108H302.232V106.104Z" fill="white"/>
</mask>
<g mask="url(#mask11_344_8595)">
<path fill-rule="evenodd" clip-rule="evenodd" d="M320.998 106.104C320.998 106.104 306.622 107.468 303.658 122.435C300.693 137.401 300.338 155.055 323.182 155.969C346.027 156.883 347.969 153.031 347.953 152.189C347.937 151.347 348.341 137.482 350.202 126.942C352.063 116.401 352.224 110.725 337.986 107.239C337.986 107.239 331.676 115.671 320.998 106.104Z" fill="#F770FF"/>
</g>
<path fill-rule="evenodd" clip-rule="evenodd" d="M331.92 112.266L333.619 104.482C333.619 104.482 333.538 103.185 335.56 103.266C337.583 103.347 351.901 103.104 351.901 103.104C351.901 103.104 353.034 102.942 353.358 103.996C353.681 105.05 349.475 122.726 349.475 122.726C349.475 122.726 349.555 123.942 348.18 123.942C346.805 123.942 329.897 124.59 329.897 124.59L331.92 112.266Z" fill="#0250BB"/>
<mask id="mask12_344_8595" style="mask-type:alpha" maskUnits="userSpaceOnUse" x="329" y="103" width="25" height="22">
<path fill-rule="evenodd" clip-rule="evenodd" d="M329.85 103.055H353.415V124.633H329.85V103.055Z" fill="white"/>
</mask>
<g mask="url(#mask12_344_8595)">
<path fill-rule="evenodd" clip-rule="evenodd" d="M331.96 112.273L329.946 124.548C330.96 124.509 346.857 123.901 348.181 123.901C348.603 123.901 348.928 123.784 349.143 123.553C349.463 123.212 349.435 122.733 349.435 122.728L349.434 122.722L349.436 122.716C349.478 122.539 353.636 105.039 353.32 104.007C353.01 102.999 351.953 103.137 351.908 103.144C351.759 103.147 337.559 103.387 335.559 103.306C334.818 103.276 334.28 103.428 333.96 103.755C333.64 104.082 333.659 104.476 333.659 104.479L333.66 104.485L333.658 104.491L331.96 112.273ZM329.85 124.633L331.881 112.257L333.578 104.479C333.576 104.424 333.574 104.035 333.9 103.7C334.238 103.354 334.798 103.195 335.562 103.225C337.56 103.305 351.758 103.065 351.902 103.063C351.908 103.062 353.067 102.909 353.397 103.983C353.719 105.033 349.707 121.928 349.516 122.729C349.519 122.792 349.529 123.259 349.203 123.608C348.971 123.856 348.627 123.982 348.181 123.982C346.822 123.982 330.068 124.624 329.899 124.631L329.85 124.633Z" fill="#E31587"/>
</g>
<path fill-rule="evenodd" clip-rule="evenodd" d="M332.485 112.834L334.184 105.05C334.184 105.05 334.103 103.752 336.126 103.833C338.148 103.915 352.468 103.671 352.468 103.671C352.468 103.671 353.6 103.509 353.924 104.563C354.247 105.617 350.041 123.293 350.041 123.293C350.041 123.293 350.122 124.509 348.746 124.509C347.371 124.509 330.463 125.158 330.463 125.158L332.485 112.834Z" fill="#FFBD4F"/>
<path fill-rule="evenodd" clip-rule="evenodd" d="M323.685 125.039C323.685 125.039 328.39 119.665 329.673 117.362C330.956 115.059 330.956 113.715 330.849 112.659C330.742 111.604 330.742 110.356 331.598 110.164C332.453 109.973 332.56 110.452 332.667 111.604C332.774 112.755 332.667 113.907 334.592 113.235C336.516 112.564 341.221 110.932 341.756 112.276C342.29 113.619 341.114 113.811 341.114 113.811C341.114 113.811 341.969 113.907 342.183 114.579C342.397 115.251 342.183 115.73 341.542 116.018C340.9 116.306 340.579 116.402 340.579 116.402C340.579 116.402 341.862 116.21 342.183 117.17C342.504 118.129 341.969 118.609 341.435 118.801C341.435 118.801 342.122 118.912 342.29 119.665C342.397 120.145 341.756 120.432 341.007 120.72C339.995 121.11 336.944 121.2 334.378 122.832C331.811 124.463 325.61 135.115 322.509 138.378C319.408 141.641 316.307 133.196 316.307 133.196C316.307 133.196 320.156 128.302 323.685 125.039Z" fill="#960E18"/>
<path fill-rule="evenodd" clip-rule="evenodd" d="M335.799 115.368L335.736 115.133L341.083 113.693L341.146 113.928L335.799 115.368Z" fill="#E31587"/>
<path fill-rule="evenodd" clip-rule="evenodd" d="M335.799 117.863L335.736 117.628L341.083 116.189L341.146 116.423L335.799 117.863Z" fill="#E31587"/>
<path fill-rule="evenodd" clip-rule="evenodd" d="M336.441 120.358L336.378 120.123L341.724 118.684L341.787 118.918L336.441 120.358Z" fill="#E31587"/>
<mask id="mask13_344_8595" style="mask-type:alpha" maskUnits="userSpaceOnUse" x="345" y="109" width="12" height="33">
<path fill-rule="evenodd" clip-rule="evenodd" d="M345.942 109.917H356.35V141.942H345.942V109.917Z" fill="white"/>
</mask>
<g mask="url(#mask13_344_8595)">
<path fill-rule="evenodd" clip-rule="evenodd" d="M348.649 137.367C348.649 137.367 349.397 133.528 349.718 128.73C350.039 123.932 349.932 121.821 349.504 121.437C349.077 121.053 346.083 121.149 346.083 119.613C346.083 118.078 348.221 118.558 348.221 118.558C348.221 118.558 345.976 118.174 346.19 117.022C346.404 115.871 347.687 116.063 347.687 116.063C347.687 116.063 345.655 115.679 345.976 114.431C346.297 113.184 348.221 113.664 348.221 113.664C348.221 113.664 346.404 113.376 347.152 112.128C347.901 110.881 349.184 111.648 350.68 112.032C352.177 112.416 352.284 112.512 352.391 111.936C352.498 111.36 352.284 109.825 353.46 109.921C354.636 110.017 354.85 110.401 354.85 112.512C354.85 114.623 355.171 116.543 355.491 118.462C355.813 120.381 355.919 122.588 355.705 126.139C355.491 129.69 358.485 140.15 353.139 141.685C347.794 143.221 348.649 137.367 348.649 137.367Z" fill="#960E18"/>
</g>
<path fill-rule="evenodd" clip-rule="evenodd" d="M350.911 119.217L347.766 118.54L347.817 118.302L350.962 118.979L350.911 119.217Z" fill="#E31587"/>
<path fill-rule="evenodd" clip-rule="evenodd" d="M350.833 116.858L347.688 116.181L347.74 115.944L350.884 116.621L350.833 116.858Z" fill="#E31587"/>
<path fill-rule="evenodd" clip-rule="evenodd" d="M350.974 114.322L347.829 113.645L347.88 113.408L351.025 114.084L350.974 114.322Z" fill="#E31587"/>
<path fill-rule="evenodd" clip-rule="evenodd" d="M353.865 112.775L352.316 112.439L352.367 112.201L353.917 112.537L353.865 112.775Z" fill="#E31587"/>
<path fill-rule="evenodd" clip-rule="evenodd" d="M218.319 172.182L220.584 180.522L216.458 181.912L213.87 173.723L218.319 172.182Z" fill="#F8D8B8"/>
<path fill-rule="evenodd" clip-rule="evenodd" d="M214.111 173.155L217.023 182.398L212.817 183.777L209.743 174.777L214.111 173.155Z" fill="#E7DFFF"/>
<path fill-rule="evenodd" clip-rule="evenodd" d="M209.422 173.803C209.422 173.803 210.069 173.803 210.878 174.209C211.687 174.614 215.894 180.209 213.467 183.695C213.467 183.695 213.063 183.939 212.577 184.02C212.092 184.101 211.202 185.56 209.665 186.371C209.665 186.371 209.988 185.317 208.775 182.155C207.562 178.993 200.604 162.209 197.288 162.046C197.288 162.046 198.582 160.992 202.546 165.533C206.291 169.822 209.422 173.803 209.422 173.803Z" fill="#2E2C36"/>
<path fill-rule="evenodd" clip-rule="evenodd" d="M209.664 186.371C209.664 186.371 208.288 188.723 206.104 188.317C203.92 187.912 203.287 185.906 202.551 184.233C201.817 182.561 194.381 164.155 194.381 164.155C194.381 164.155 195.2 161.505 197.442 162.019C200.037 162.614 202.464 168.128 202.464 168.128L209.502 182.723C209.502 182.723 210.23 184.831 209.664 186.371Z" fill="#E7DFFF"/>
<mask id="mask14_344_8595" style="mask-type:alpha" maskUnits="userSpaceOnUse" x="194" y="163" width="14" height="25">
<path fill-rule="evenodd" clip-rule="evenodd" d="M207.719 163.504H194.106V187.304H207.719V163.504Z" fill="white"/>
</mask>
<g mask="url(#mask14_344_8595)">
<path fill-rule="evenodd" clip-rule="evenodd" d="M207.719 185.56L198.74 166.263C198.74 166.263 196.879 162.939 195.019 163.587C193.158 164.236 194.614 167.236 195.261 169.587C195.908 171.939 202.38 185.722 204.079 187.02C205.266 187.926 207.638 186.452 207.719 185.56Z" fill="#2E2C36"/>
</g>
<path fill-rule="evenodd" clip-rule="evenodd" d="M212.575 184.02C212.575 184.02 213.465 181.669 212.413 178.831C211.361 175.993 209.42 173.804 209.42 173.804C209.42 173.804 211.467 173.161 213.194 177.293C214.921 181.425 214.597 183.615 212.575 184.182" fill="#3B3D4A"/>
<path fill-rule="evenodd" clip-rule="evenodd" d="M312.151 183.43C312.151 183.43 311.262 186.988 310.853 187.627C310.444 188.265 302.843 191.697 300.417 191.463C297.991 191.228 293.913 189.681 293.378 188.516C292.843 187.351 293.563 183.754 294.331 183.092C295.1 182.431 312.151 183.43 312.151 183.43Z" fill="#E7DFFF"/>
<path fill-rule="evenodd" clip-rule="evenodd" d="M348.573 152.52C348.573 152.52 354.55 175.02 340.96 178.506C327.369 181.993 312.182 178.841 295.495 173.398C281.824 168.939 282.39 163.831 264.997 168.858C252.552 172.455 220.504 181.425 220.504 181.425L217.187 171.696C217.187 171.696 264.997 146.966 284.008 147.533C291.129 147.746 313.551 152.316 313.551 152.316L348.573 152.52Z" fill="#E31587"/>
<path fill-rule="evenodd" clip-rule="evenodd" d="M346.809 155.295C346.809 155.295 331.898 124.343 326.235 121.587C320.572 118.83 318.388 122.154 317.902 125.803C317.417 129.452 306.9 164.155 306.9 164.155L319.439 167.479L346.809 155.295Z" fill="#E31587"/>
<path d="M327.025 150.203L319.3 166.406L319.665 166.581L327.39 150.377L327.025 150.203Z" fill="#0250BB"/>
<path fill-rule="evenodd" clip-rule="evenodd" d="M308.717 164.188L307.769 167.299C311.536 167.295 314.52 169.014 315.336 169.423L316.187 166.374L308.717 164.188Z" fill="#F7C8A9"/>
<path fill-rule="evenodd" clip-rule="evenodd" d="M305.692 173.178L313.931 175.229L315.641 169.02C315.641 169.02 315.618 169.009 315.479 168.939C314.664 168.529 311.424 167.016 307.657 167.02" fill="#E7DFFF"/>
<path fill-rule="evenodd" clip-rule="evenodd" d="M308.41 185.505C308.41 185.505 302.637 187.888 298.728 186.379C294.818 184.869 293.918 183.864 293.94 183.764C293.963 183.665 300.432 178.069 301.706 177.521C302.98 176.974 306.262 174.582 307.567 176.652C308.872 178.722 310.817 180.31 310.566 181.819C310.315 183.329 308.41 185.505 308.41 185.505Z" fill="#353644"/>
<path fill-rule="evenodd" clip-rule="evenodd" d="M313.735 176.375C313.735 176.375 313.417 181.728 311.972 184.221L308.195 185.665C308.195 185.665 309.285 182.783 308.391 181.642C307.497 180.5 306.984 179.236 306.972 178.502C306.96 177.768 303.697 176.927 303.697 176.927C303.697 176.927 303.154 178.162 302.183 178.151C301.211 178.141 296.209 181.783 296.209 181.783C296.209 181.783 297.433 180.489 298.717 179.108C300.001 177.728 304.501 173.35 304.501 173.35L313.735 176.375Z" fill="#2C262B"/>
<path fill-rule="evenodd" clip-rule="evenodd" d="M314.165 174.203C314.165 174.203 314.97 175.049 314.459 175.848C313.948 176.647 312.229 176.176 310.589 175.722C308.95 175.269 305.022 174.299 304.734 173.735C304.446 173.171 304.967 171.959 306.021 171.698C306.021 171.698 305.711 172.709 306.149 172.974C306.587 173.239 313.443 175.203 313.733 175.019C314.023 174.835 314.165 174.203 314.165 174.203Z" fill="#3E454F"/>
<path fill-rule="evenodd" clip-rule="evenodd" d="M308.302 178.53C308.302 178.53 306.168 176.219 303.788 176.845C303.788 176.845 303.007 177.001 303.289 176.483C303.572 175.965 303.984 175.975 303.984 175.975C303.984 175.975 303.933 175.465 304.363 175.396C304.363 175.396 304.233 174.868 304.821 174.835C304.821 174.835 305.009 173.63 306.279 174.25C307.549 174.869 310.013 175.342 309.696 176.019C309.378 176.695 309.194 176.404 309.194 176.404C309.194 176.404 309.342 176.853 308.999 177.274C308.655 177.695 308.709 177.458 308.709 177.458C308.709 177.458 309.101 178.295 308.302 178.53Z" fill="white"/>
<path fill-rule="evenodd" clip-rule="evenodd" d="M309.273 176.832C309.273 176.832 309.273 176.832 309.382 176.713C309.491 176.593 309.491 176.593 309.491 176.593L309.491 176.593L309.491 176.593L309.49 176.592L309.489 176.591C309.487 176.589 309.486 176.588 309.483 176.586C309.479 176.582 309.472 176.576 309.464 176.569C309.448 176.555 309.424 176.536 309.393 176.512C309.331 176.465 309.242 176.401 309.127 176.331C308.897 176.192 308.563 176.029 308.148 175.935L308.077 176.251C308.45 176.336 308.752 176.483 308.959 176.608C309.063 176.671 309.143 176.729 309.196 176.77C309.223 176.79 309.243 176.806 309.256 176.817C309.262 176.823 309.267 176.827 309.27 176.829C309.271 176.831 309.272 176.831 309.273 176.832L309.273 176.832L309.273 176.832Z" fill="#E31587"/>
<path fill-rule="evenodd" clip-rule="evenodd" d="M304.464 174.685C304.464 174.685 304.464 174.685 304.443 174.845C304.422 175.006 304.422 175.006 304.422 175.006L304.422 175.006L304.424 175.006L304.431 175.007C304.437 175.008 304.446 175.009 304.458 175.011C304.483 175.015 304.518 175.02 304.563 175.028C304.652 175.043 304.776 175.066 304.915 175.097C305.198 175.161 305.53 175.257 305.768 175.387L305.923 175.103C305.644 174.95 305.275 174.846 304.986 174.781C304.84 174.748 304.71 174.724 304.616 174.708C304.57 174.7 304.532 174.694 304.506 174.691C304.493 174.689 304.483 174.687 304.476 174.686L304.467 174.685L304.465 174.685L304.464 174.685Z" fill="#E31587"/>
<path fill-rule="evenodd" clip-rule="evenodd" d="M303.543 175.954C303.543 175.954 303.543 175.954 303.548 176.117C303.553 176.279 303.553 176.279 303.553 176.279L303.554 176.279L303.556 176.279L303.566 176.278C303.575 176.278 303.588 176.278 303.604 176.278C303.638 176.277 303.687 176.276 303.747 176.276C303.868 176.276 304.035 176.277 304.218 176.285C304.591 176.301 305.005 176.342 305.245 176.434L305.36 176.13C305.065 176.018 304.602 175.977 304.232 175.961C304.043 175.953 303.871 175.951 303.746 175.951C303.684 175.952 303.633 175.952 303.598 175.953C303.581 175.953 303.567 175.954 303.558 175.954L303.547 175.954L303.544 175.954L303.543 175.954Z" fill="#E31587"/>
<path fill-rule="evenodd" clip-rule="evenodd" d="M308.852 177.983C308.852 177.983 308.852 177.983 308.959 177.861C309.066 177.739 309.066 177.739 309.066 177.739L309.066 177.739L309.065 177.738L309.063 177.736C309.061 177.735 309.059 177.733 309.055 177.73C309.049 177.724 309.039 177.716 309.027 177.706C309.003 177.686 308.968 177.658 308.922 177.622C308.83 177.552 308.697 177.455 308.53 177.348C308.195 177.134 307.719 176.876 307.157 176.706L307.064 177.017C307.589 177.176 308.037 177.418 308.355 177.621C308.514 177.723 308.639 177.814 308.725 177.88C308.767 177.912 308.8 177.939 308.821 177.956C308.832 177.965 308.84 177.972 308.845 177.977C308.848 177.979 308.85 177.981 308.851 177.981L308.852 177.983L308.852 177.983Z" fill="#E31587"/>
<path d="M334.694 90.5568L334.991 90.652L334.962 90.745C334.938 90.8208 334.912 90.9076 334.884 91.0038C334.804 91.2789 334.724 91.5743 334.649 91.8784C334.566 92.2164 334.495 92.5442 334.439 92.8537L334.423 92.9453C334.288 93.7324 334.269 94.3335 334.39 94.6567L334.397 94.6751C335.088 96.3861 334.149 97.2538 332.178 96.6462L332.118 96.6274L332.213 96.3306C333.988 96.8988 334.701 96.2586 334.108 94.7918C333.945 94.3881 333.97 93.703 334.132 92.7984C334.189 92.482 334.262 92.148 334.347 91.804C334.414 91.5296 334.486 91.2624 334.558 91.0104L334.585 90.9167C334.601 90.8608 334.617 90.8081 334.632 90.7587L334.67 90.6337L334.694 90.5568Z" fill="black"/>
<path d="M327 102.478L327.152 102.206L327.208 102.236L327.259 102.264C327.336 102.304 327.424 102.349 327.522 102.397L327.565 102.418C327.893 102.578 328.257 102.738 328.645 102.888C329.537 103.232 330.418 103.467 331.238 103.543C331.61 103.577 331.962 103.578 332.292 103.543L332.357 103.535L332.395 103.844C332.023 103.89 331.627 103.892 331.209 103.853C330.357 103.774 329.449 103.532 328.533 103.179C328.136 103.026 327.765 102.862 327.428 102.698L327.301 102.635C327.247 102.608 327.196 102.582 327.149 102.558L327.061 102.511L327 102.478Z" fill="black"/>
<path fill-rule="evenodd" clip-rule="evenodd" d="M332.417 99.441C330.997 99.0605 330.1 98.1232 330.058 98.0786C329.97 97.9847 329.974 97.8368 330.068 97.7482C330.162 97.6598 330.31 97.6641 330.398 97.7581C330.416 97.7767 331.471 98.8694 333.037 99.0917C333.164 99.1097 333.254 99.2281 333.236 99.3559C333.217 99.4837 333.099 99.5727 332.971 99.5545C332.779 99.5273 332.594 99.4884 332.417 99.441Z" fill="black"/>
<path fill-rule="evenodd" clip-rule="evenodd" d="M333.282 96.9594C332.967 96.9594 332.574 96.8978 332.084 96.7409L332.179 96.444C333.092 96.7363 333.767 96.7124 334.079 96.3767C334.344 96.0911 334.342 95.5685 334.074 94.9054C333.892 94.4555 333.937 93.6022 334.208 92.3691C334.406 91.4667 334.658 90.6782 334.66 90.6704L334.957 90.7656C334.684 91.6173 334.044 94.0006 334.363 94.7886C334.768 95.7903 334.556 96.3204 334.307 96.5887C334.129 96.7802 333.819 96.9594 333.282 96.9594Z" fill="black"/>
<path fill-rule="evenodd" clip-rule="evenodd" d="M331.982 90.5104C331.936 90.5104 331.888 90.5027 331.841 90.4864C331.387 90.3278 330.073 89.9061 329.465 89.8611C328.892 89.8186 328.017 90.1017 327.729 90.2145C327.508 90.3005 327.26 90.1918 327.174 89.9716C327.087 89.7512 327.196 89.5029 327.416 89.4165C327.466 89.3971 328.642 88.9408 329.528 89.0065C330.374 89.0691 332.052 89.6525 332.124 89.6773C332.347 89.7553 332.465 89.9996 332.387 90.223C332.325 90.3997 332.16 90.5104 331.982 90.5104Z" fill="black"/>
<path fill-rule="evenodd" clip-rule="evenodd" d="M339.192 91.9733C339.106 91.9733 339.019 91.947 338.945 91.8923C338.707 91.7178 337.971 91.2451 337.436 91.1557C336.865 91.0603 335.552 91.1681 335.095 91.2176C334.865 91.2421 334.659 91.0764 334.634 90.8468C334.609 90.6172 334.775 90.4108 335.005 90.386C335.076 90.3782 336.773 90.1968 337.574 90.3306C338.416 90.4713 339.398 91.1875 339.44 91.2179C339.626 91.3546 339.666 91.6164 339.529 91.8026C339.448 91.9142 339.321 91.9733 339.192 91.9733Z" fill="black"/>
<path fill-rule="evenodd" clip-rule="evenodd" d="M331.164 92.7496C331.107 92.7496 331.051 92.7292 331.006 92.688C331.003 92.6854 330.617 92.3432 330.061 92.3639C329.486 92.3852 329.103 92.6668 329.1 92.6696C328.997 92.7467 328.85 92.7265 328.773 92.624C328.695 92.5214 328.714 92.3758 328.817 92.2976C328.837 92.2823 329.313 91.9238 330.044 91.8968C330.796 91.8698 331.301 92.3243 331.322 92.3437C331.417 92.4309 331.423 92.5788 331.336 92.6738C331.29 92.7241 331.227 92.7496 331.164 92.7496Z" fill="black"/>
<path fill-rule="evenodd" clip-rule="evenodd" d="M337.718 93.4619C337.661 93.4619 337.605 93.4416 337.56 93.4004C337.557 93.3977 337.172 93.0551 336.615 93.0763C336.041 93.0975 335.658 93.3785 335.655 93.3813C335.552 93.4597 335.405 93.4401 335.327 93.3376C335.248 93.235 335.268 93.0883 335.371 93.01C335.391 92.9947 335.868 92.6361 336.598 92.6091C337.349 92.5823 337.855 93.0366 337.876 93.056C337.971 93.1433 337.977 93.2911 337.89 93.3862C337.844 93.4364 337.781 93.4619 337.718 93.4619Z" fill="black"/>
<mask id="mask15_344_8595" style="mask-type:alpha" maskUnits="userSpaceOnUse" x="323" y="63" width="19" height="14">
<path fill-rule="evenodd" clip-rule="evenodd" d="M323.943 63.8925H341.384V76.2643H323.943V63.8925Z" fill="white"/>
</mask>
<g mask="url(#mask15_344_8595)">
<path fill-rule="evenodd" clip-rule="evenodd" d="M338.313 76.1072C338.313 76.1072 337.984 75.3426 339.776 75.2591C341.568 75.1756 342.276 71.5002 339.693 69.8712C337.109 68.2424 339.901 66.53 335.942 64.4835C331.984 62.4369 330.025 66.3629 330.025 66.3629C330.025 66.3629 325.859 64.734 324.4 68.0753C322.942 71.4166 325.442 72.7532 325.442 72.7532C325.442 72.7532 323.775 73.8809 325.109 75.2591C326.442 76.6374 330.04 75.1057 330.637 75.8507C331.234 76.5957 338.313 76.1072 338.313 76.1072Z" fill="#0F0F0F"/>
</g>
<path fill-rule="evenodd" clip-rule="evenodd" d="M326.333 76.8723C326.333 76.8723 327.595 74.5437 330.595 74.3262C333.595 74.1087 334.941 75.1766 335.289 76.8723C335.637 78.5679 326.333 76.8723 326.333 76.8723Z" fill="white"/>
<mask id="mask16_344_8595" style="mask-type:alpha" maskUnits="userSpaceOnUse" x="319" y="75" width="22" height="19">
<path fill-rule="evenodd" clip-rule="evenodd" d="M319.955 75.9172H340.221V93.86H319.955V75.9172Z" fill="white"/>
</mask>
<g mask="url(#mask16_344_8595)">
<path fill-rule="evenodd" clip-rule="evenodd" d="M321.761 92.0489C321.761 92.0489 321.636 91.506 322.428 90.7542C323.219 90.0024 322.928 86.5358 324.803 85.9093C326.678 85.2828 329.803 82.0669 331.262 82.0669C332.72 82.0669 335.22 83.4034 336.22 83.3198C337.221 83.2363 338.554 85.2411 338.637 86.2852C338.721 87.3294 340.087 89.1974 339.237 93.86C339.237 93.86 340.221 92.2995 340.221 90.4618C340.221 88.6241 339.971 88.2064 340.096 85.5752C340.221 82.944 339.929 80.2292 338.012 78.9762C336.095 77.7232 334.887 75.4261 331.928 76.0108C328.97 76.5955 326.678 75.8855 324.928 77.765C323.641 79.1474 321.719 80.1039 321.303 82.944C320.914 85.5898 318.771 86.8133 320.849 89.6608C320.849 89.6608 321.761 91.1301 321.761 92.0489Z" fill="#0F0F0F"/>
</g>
<path fill-rule="evenodd" clip-rule="evenodd" d="M326.547 76.6824C326.547 76.6824 327.099 74.3913 330.739 74.148C334.379 73.9048 335.088 75.4764 335.26 76.7581C335.26 76.7581 333.764 75.7554 331.847 76.1679C329.93 76.5803 327.775 76.298 326.547 76.6824Z" fill="#FFBD4F"/>
<mask id="mask17_344_8595" style="mask-type:alpha" maskUnits="userSpaceOnUse" x="0" y="45" width="66" height="198">
<path fill-rule="evenodd" clip-rule="evenodd" d="M0 45.8111H65.3803V242.993H0V45.8111Z" fill="white"/>
</mask>
<g mask="url(#mask17_344_8595)">
<path fill-rule="evenodd" clip-rule="evenodd" d="M34.2478 67.5687L39.2367 62.6203L32.7811 56.0802L8.75793 80.0845C8.75793 80.0845 6.21857 82.5413 5.33598 85.003C4.45339 87.4646 4.45339 90.1225 4.45339 90.1225L4.39029 237.788L40.2989 237.808C41.713 237.808 42.8585 238.957 42.8585 240.373V240.427C42.8585 241.844 41.713 242.993 40.2989 242.993H2.55959C1.14631 242.993 0 241.844 0 240.427V240.373C0 239.198 0.886633 238.194 1.96661 237.891L1.9472 90.1225C1.9472 90.1225 2.01676 86.4973 3.1833 83.6092C4.18076 81.1402 6.18378 79.0507 7.17558 78.1159C7.19095 78.1004 7.20632 78.0867 7.22169 78.0721L31.0184 54.2948L28.0195 51.2574C27.539 50.7718 27.5431 49.9869 28.0284 49.5061L31.393 46.1687C31.8783 45.6882 32.6606 45.6923 33.1411 46.1785L43.5518 56.7232C43.9174 57.0937 44.0024 57.6378 43.8058 58.0886L49.3117 52.6285L65.3803 68.9033L50.3164 83.8443L34.2478 67.5687Z" fill="#C689FF"/>
</g>
</svg>
