<svg width="420" height="352" viewBox="0 0 420 352" fill="none" xmlns="http://www.w3.org/2000/svg">
<g opacity="0.5">
<g opacity="0.5">
<path opacity="0.5" fill-rule="evenodd" clip-rule="evenodd" d="M254.866 0C280.891 0 309.342 9.04806 326.26 29.8249C334.077 39.4253 337.992 50.6948 338.004 61.8966C338.01 74.5434 333.041 87.1036 323.084 97.1074C313.875 106.356 302.116 112.616 290.105 117.757L288.78 118.321C287.427 118.902 286.05 119.553 285.197 120.734C284.554 121.615 284.275 122.7 284.032 123.761L283.987 123.961C281.456 135.099 276.809 144.612 270.605 152.637H270.6C259.55 166.935 243.525 176.498 225.671 182.095C211.997 186.384 197.244 188.351 182.815 188.351C158.545 188.351 136.267 182.654 118.816 173.147L118.809 173.14C115.77 171.496 112.873 169.721 110.142 167.847C92.3686 155.647 81.4247 138.984 81.4247 120.615C81.4247 85.5965 121.204 56.7825 172.225 53.2461C177.913 23.1538 212.742 0 254.866 0ZM142.886 1.4428C151.743 1.4428 158.922 6.31697 158.922 12.3294C158.922 18.3426 151.743 23.2159 142.886 23.2159C134.029 23.2159 126.85 18.3426 126.85 12.3294C126.85 6.31697 134.029 1.4428 142.886 1.4428Z" fill="#F68FFF"/>
</g>
</g>
<path opacity="0.5" d="M209.714 351.777C325.536 351.777 419.429 348.371 419.429 344.17C419.429 339.968 325.536 336.562 209.714 336.562C93.8923 336.562 0 339.968 0 344.17C0 348.371 93.8923 351.777 209.714 351.777Z" fill="#E7DFFF"/>
<path fill-rule="evenodd" clip-rule="evenodd" d="M49.8759 341.199L77.422 178.535L85.6268 180.296L113.199 340.972H107.741L81.4836 182.579L54.9567 341.174L49.8759 341.199Z" fill="#CB9EFF"/>
<path fill-rule="evenodd" clip-rule="evenodd" d="M56.9347 188.015H103.117V182.126H56.9347V188.015Z" fill="#D9BFFF"/>
<path fill-rule="evenodd" clip-rule="evenodd" d="M261.48 341.061L289.027 178.397L297.233 180.159L324.803 340.835H319.346L293.089 182.442L266.561 341.036L261.48 341.061Z" fill="#CB9EFF"/>
<path fill-rule="evenodd" clip-rule="evenodd" d="M268.539 188.009H314.722V182.12H268.539V188.009Z" fill="#D9BFFF"/>
<path fill-rule="evenodd" clip-rule="evenodd" d="M367.322 182.18H7.72921C6.35245 182.18 5.23633 180.708 5.23633 178.892V163.173C5.23633 161.356 6.35245 159.885 7.72921 159.885H367.322C368.698 159.885 369.815 161.356 369.815 163.173V178.892C369.815 180.708 368.698 182.18 367.322 182.18Z" fill="#D9BFFF"/>
<path fill-rule="evenodd" clip-rule="evenodd" d="M369.685 78.1884C369.685 78.1884 368.36 80.0456 366.704 81.6393C365.048 83.2316 363.195 81.9042 363.195 81.9042L351.867 69.8254L352.276 69.3493L342.672 60.4826V154.617H358.037C360.872 154.617 363.171 156.921 363.171 159.762H318.225C318.225 158.341 318.8 157.056 319.729 156.124C320.658 155.193 321.942 154.617 323.36 154.617H338.703V56.8179L305.47 26.1296L305.323 26.9743C305.323 26.9743 309.307 31.2502 312.863 34.8848C316.419 38.5193 315.992 42.6536 315.992 42.6536L299.135 39.3745L299.136 39.3653L281.714 35.7504C281.714 35.7504 282.914 31.7736 287.597 29.7995C292.279 27.8242 297.602 25.4239 297.602 25.4239L298.992 19.3209L301.261 19.7905L302.121 16.2609L303.401 16.5035L303.403 16.4983L304.691 16.7737L304.123 20.3623L306.395 20.8083L306.212 21.8615L354.645 66.587L355.112 66.0426C355.112 66.0426 366.507 74.0069 368.36 75.3343C370.215 76.6616 369.685 78.1884 369.685 78.1884Z" fill="#D9BFFF"/>
<path fill-rule="evenodd" clip-rule="evenodd" d="M281.714 35.7502C281.714 35.7502 288.754 33.7389 299.384 36.0475C310.012 38.3561 315.992 42.6533 315.992 42.6533C315.992 42.6533 308.972 44.6118 298.64 42.6755C288.309 40.7392 281.714 35.7502 281.714 35.7502Z" fill="#CB9EFF"/>
<path fill-rule="evenodd" clip-rule="evenodd" d="M295.756 35.3984C295.756 35.3984 295.561 38.0134 298.823 38.9285C302.086 39.8438 302.803 36.9019 302.803 36.9019C302.803 36.9019 299.664 35.9893 295.756 35.3984Z" fill="#E7DFFF"/>
<path fill-rule="evenodd" clip-rule="evenodd" d="M146.423 233.432C144.886 242.287 130.095 337.759 130.095 337.759C130.095 337.759 130.427 340.17 132.835 340.524C135.241 340.88 136.515 338.681 136.515 338.681L157.377 235.752L146.423 233.432Z" fill="#CB9EFF"/>
<path fill-rule="evenodd" clip-rule="evenodd" d="M194.969 235.693C196.593 244.532 215.769 339.218 215.769 339.218C215.769 339.218 216.916 341.364 219.296 340.86C221.676 340.357 222.11 337.851 222.11 337.851L206.046 234.063L194.969 235.693Z" fill="#CB9EFF"/>
<path fill-rule="evenodd" clip-rule="evenodd" d="M219.285 235.405C220.908 244.244 240.084 338.929 240.084 338.929C240.084 338.929 241.23 341.075 243.61 340.571C245.99 340.068 246.425 337.563 246.425 337.563L230.361 233.774L219.285 235.405Z" fill="#CB9EFF"/>
<path fill-rule="evenodd" clip-rule="evenodd" d="M232.21 237.475H143.466C140.104 237.475 137.38 234.744 137.38 231.377C137.38 228.009 140.104 225.278 143.466 225.278H232.21C235.571 225.278 238.295 228.009 238.295 231.377C238.295 234.744 235.571 237.475 232.21 237.475Z" fill="#D9BFFF"/>
<path fill-rule="evenodd" clip-rule="evenodd" d="M262.962 139.755H113.553C110.952 139.755 108.843 137.642 108.843 135.036V42.7539C108.843 40.1472 110.952 38.034 113.553 38.034H262.962C265.565 38.034 267.674 40.1472 267.674 42.7539V135.036C267.674 137.642 265.565 139.755 262.962 139.755Z" fill="#CB9EFF"/>
<path fill-rule="evenodd" clip-rule="evenodd" d="M261.007 119.32H114.98V47.6632C114.98 45.7419 116.536 44.1844 118.453 44.1844H257.699C259.617 44.1844 261.17 45.7419 261.17 47.6632V119.156C261.17 119.246 261.097 119.32 261.007 119.32Z" fill="#E7DFFF"/>
<path fill-rule="evenodd" clip-rule="evenodd" d="M267.699 118.515V136.349C267.699 138.27 266.143 139.827 264.226 139.827H212V152.645C215.863 152.891 218.92 156.109 218.92 160.041H158.828C158.828 157.993 159.655 156.141 160.994 154.8C162.269 153.522 164.007 152.709 165.934 152.635V139.827H112.257C110.34 139.827 108.784 138.27 108.784 136.349V118.351H267.535C267.625 118.351 267.699 118.424 267.699 118.515Z" fill="#CB9EFF"/>
<path fill-rule="evenodd" clip-rule="evenodd" d="M192.418 129.345C192.418 131.476 190.693 133.205 188.566 133.205C186.438 133.205 184.714 131.476 184.714 129.345C184.714 127.213 186.438 125.485 188.566 125.485C190.693 125.485 192.418 127.213 192.418 129.345Z" fill="#E7DFFF"/>
<path fill-rule="evenodd" clip-rule="evenodd" d="M251.686 51.5832C251.686 52.2676 251.132 52.8224 250.449 52.8224C249.767 52.8224 249.213 52.2676 249.213 51.5832C249.213 50.8988 249.767 50.344 250.449 50.344C251.132 50.344 251.686 50.8988 251.686 51.5832Z" fill="white"/>
<path fill-rule="evenodd" clip-rule="evenodd" d="M126.285 51.6927C126.285 52.3771 125.732 52.9319 125.048 52.9319C124.366 52.9319 123.813 52.3771 123.813 51.6927C123.813 51.0084 124.366 50.4536 125.048 50.4536C125.732 50.4536 126.285 51.0084 126.285 51.6927Z" fill="#E22850"/>
<path fill-rule="evenodd" clip-rule="evenodd" d="M131.329 51.6394C131.329 52.3239 130.776 52.8787 130.092 52.8787C129.409 52.8787 128.855 52.3239 128.855 51.6394C128.855 50.955 129.409 50.4002 130.092 50.4002C130.776 50.4002 131.329 50.955 131.329 51.6394Z" fill="#FFDFE7"/>
<path fill-rule="evenodd" clip-rule="evenodd" d="M136.53 51.6722C136.53 52.3566 135.977 52.9115 135.293 52.9115C134.61 52.9115 134.056 52.3566 134.056 51.6722C134.056 50.9878 134.61 50.433 135.293 50.433C135.977 50.433 136.53 50.9878 136.53 51.6722Z" fill="#F770FF"/>
<path fill-rule="evenodd" clip-rule="evenodd" d="M248.61 61.5201H124.916C123.231 61.5201 121.866 60.1521 121.866 58.464C121.866 56.776 123.231 55.4066 124.916 55.4066H248.61C250.295 55.4066 251.66 56.776 251.66 58.464C251.66 60.1521 250.295 61.5201 248.61 61.5201Z" fill="white"/>
<path fill-rule="evenodd" clip-rule="evenodd" d="M248.522 113.992H177.772C176.311 113.992 175.127 112.806 175.127 111.342V67.871C175.127 66.4086 176.311 65.2215 177.772 65.2215H248.522C249.983 65.2215 251.166 66.4086 251.166 67.871V111.342C251.166 112.806 249.983 113.992 248.522 113.992Z" fill="white"/>
<path fill-rule="evenodd" clip-rule="evenodd" d="M199.102 92.4432H185.669C184.208 92.4432 183.025 91.2562 183.025 89.7937V74.2967C183.025 72.8343 184.208 71.6472 185.669 71.6472H199.102C200.563 71.6472 201.746 72.8343 201.746 74.2967V89.7937C201.746 91.2562 200.563 92.4432 199.102 92.4432Z" fill="#D9BFFF"/>
<path fill-rule="evenodd" clip-rule="evenodd" d="M221.741 92.4078H208.308C206.848 92.4078 205.663 91.2221 205.663 89.7583V74.2626C205.663 72.7989 206.848 71.6131 208.308 71.6131H221.741C223.202 71.6131 224.385 72.7989 224.385 74.2626V89.7583C224.385 91.2221 223.202 92.4078 221.741 92.4078Z" fill="#D9BFFF"/>
<path fill-rule="evenodd" clip-rule="evenodd" d="M244.189 92.4432H230.757C229.296 92.4432 228.112 91.2562 228.112 89.7937V74.2967C228.112 72.8343 229.296 71.6472 230.757 71.6472H244.189C245.65 71.6472 246.835 72.8343 246.835 74.2967V89.7937C246.835 91.2562 245.65 92.4432 244.189 92.4432Z" fill="#D9BFFF"/>
<path fill-rule="evenodd" clip-rule="evenodd" d="M197.789 91.3978H184.356C182.895 91.3978 181.712 90.2121 181.712 88.7483V73.2527C181.712 71.7889 182.895 70.6019 184.356 70.6019H197.789C199.25 70.6019 200.433 71.7889 200.433 73.2527V88.7483C200.433 90.2121 199.25 91.3978 197.789 91.3978Z" fill="#E7DFFF"/>
<path fill-rule="evenodd" clip-rule="evenodd" d="M161.896 113.846H128.457C124.822 113.846 121.875 111.116 121.875 107.746V72.0722C121.875 68.7026 124.822 65.9718 128.457 65.9718H161.896C165.532 65.9718 168.479 68.7026 168.479 72.0722V107.746C168.479 111.116 165.532 113.846 161.896 113.846Z" fill="white"/>
<path fill-rule="evenodd" clip-rule="evenodd" d="M200.438 74.6129H181.716V72.6362C181.716 71.5135 182.624 70.6032 183.745 70.6032H198.409C199.53 70.6032 200.438 71.5135 200.438 72.6362V74.6129Z" fill="#A39FFF"/>
<path fill-rule="evenodd" clip-rule="evenodd" d="M220.428 91.3624H206.996C205.535 91.3624 204.351 90.1767 204.351 88.7129V73.2173C204.351 71.7535 205.535 70.5678 206.996 70.5678H220.428C221.889 70.5678 223.072 71.7535 223.072 73.2173V88.7129C223.072 90.1767 221.889 91.3624 220.428 91.3624Z" fill="#E7DFFF"/>
<path fill-rule="evenodd" clip-rule="evenodd" d="M223.078 74.5774H204.355V72.6021C204.355 71.4794 205.263 70.5691 206.384 70.5691H221.048C222.169 70.5691 223.078 71.4794 223.078 72.6021V74.5774Z" fill="#F770FF"/>
<path fill-rule="evenodd" clip-rule="evenodd" d="M242.877 91.3978H229.443C227.984 91.3978 226.799 90.2121 226.799 88.7483V73.2527C226.799 71.7889 227.984 70.6019 229.443 70.6019H242.877C244.337 70.6019 245.522 71.7889 245.522 73.2527V88.7483C245.522 90.2121 244.337 91.3978 242.877 91.3978Z" fill="#E7DFFF"/>
<path fill-rule="evenodd" clip-rule="evenodd" d="M245.525 74.6129H226.804V72.6362C226.804 71.5135 227.713 70.6032 228.834 70.6032H243.496C244.617 70.6032 245.525 71.5135 245.525 72.6362V74.6129Z" fill="#321C64"/>
<path fill-rule="evenodd" clip-rule="evenodd" d="M246.151 100.452H182.784C182.352 100.452 182.003 100.156 182.003 99.7884C182.003 99.4224 182.352 99.126 182.784 99.126H246.151C246.583 99.126 246.933 99.4224 246.933 99.7884C246.933 100.156 246.583 100.452 246.151 100.452Z" fill="#F770FF"/>
<path fill-rule="evenodd" clip-rule="evenodd" d="M149.503 103.305H137.792C137.712 103.305 137.648 102.634 137.648 101.803C137.648 100.976 137.712 100.305 137.792 100.305H149.503C149.583 100.305 149.648 100.976 149.648 101.803C149.648 102.634 149.583 103.305 149.503 103.305Z" fill="#F770FF"/>
<path d="M153.384 98.1428C153.378 98.1591 153.372 98.1712 153.368 98.18H133.928C133.923 98.1712 133.918 98.1591 133.912 98.1428C133.887 98.0787 133.863 97.9786 133.842 97.846C133.799 97.5829 133.773 97.2144 133.773 96.8035C133.773 96.394 133.799 96.0264 133.842 95.7636C133.863 95.6312 133.887 95.5312 133.912 95.4671C133.918 95.4509 133.923 95.4388 133.928 95.43H153.368C153.372 95.4388 153.378 95.4509 153.384 95.4671C153.408 95.5312 153.433 95.6312 153.454 95.7636C153.496 96.0264 153.523 96.394 153.523 96.8035C153.523 97.2144 153.496 97.5829 153.454 97.846C153.433 97.9786 153.408 98.0787 153.384 98.1428Z" fill="white" stroke="#F770FF" stroke-width="0.25"/>
<path fill-rule="evenodd" clip-rule="evenodd" d="M245.89 106.501H182.521C182.09 106.501 181.741 106.204 181.741 105.838C181.741 105.472 182.09 105.174 182.521 105.174H245.89C246.322 105.174 246.671 105.472 246.671 105.838C246.671 106.204 246.322 106.501 245.89 106.501Z" fill="#F770FF"/>
<path d="M131.424 87.305H137.407V85.984H133.606V85.9243L135.111 84.3945C136.807 82.7666 137.275 81.974 137.275 80.9896C137.275 79.528 136.086 78.4584 134.331 78.4584C132.601 78.4584 131.373 79.5323 131.373 81.1899H132.878C132.878 80.2993 133.44 79.7411 134.309 79.7411C135.14 79.7411 135.758 80.2482 135.758 81.0706C135.758 81.7993 135.315 82.3192 134.454 83.1928L131.424 86.1629V87.305ZM142.103 87.4712C144.209 87.4754 145.466 85.8135 145.466 82.9499C145.466 80.1033 144.2 78.4584 142.103 78.4584C140.007 78.4584 138.746 80.099 138.741 82.9499C138.741 85.8092 139.998 87.4712 142.103 87.4712ZM142.103 86.1374C141.017 86.1374 140.335 85.0465 140.339 82.9499C140.344 80.8703 141.021 79.7752 142.103 79.7752C143.19 79.7752 143.868 80.8703 143.872 82.9499C143.872 85.0465 143.194 86.1374 142.103 86.1374ZM151.548 85.6686C151.548 86.6828 152.195 87.5479 153.393 87.5479C154.586 87.5479 155.238 86.6828 155.238 85.6686V85.2084C155.238 84.1857 154.603 83.3291 153.393 83.3291C152.212 83.3291 151.548 84.1942 151.548 85.2084V85.6686ZM147.112 80.6743C147.112 81.6885 147.759 82.545 148.961 82.545C150.15 82.545 150.802 81.697 150.802 80.6743V80.2141C150.802 79.1913 150.167 78.3348 148.961 78.3348C147.785 78.3348 147.112 79.1913 147.112 80.2141V80.6743ZM147.593 87.305H148.663L154.663 78.5777H153.593L147.593 87.305ZM152.66 85.2084C152.66 84.7567 152.856 84.3007 153.393 84.3007C153.955 84.3007 154.117 84.7567 154.117 85.2084V85.6686C154.117 86.1203 153.938 86.5678 153.393 86.5678C152.847 86.5678 152.66 86.1161 152.66 85.6686V85.2084ZM148.232 80.2141C148.232 79.7666 148.42 79.3064 148.961 79.3064C149.524 79.3064 149.681 79.7624 149.681 80.2141V80.6743C149.681 81.126 149.507 81.5735 148.961 81.5735C148.416 81.5735 148.232 81.126 148.232 80.6743V80.2141Z" fill="#F770FF"/>
<path fill-rule="evenodd" clip-rule="evenodd" d="M44.5742 126.577L44.048 103.527C43.7744 91.5377 47.5909 82.8986 50.8408 77.7624C54.3678 72.1883 57.9086 69.4941 58.0576 69.382L58.4505 69.9066C58.4149 69.9335 54.8402 72.6575 51.3771 78.1398C48.1832 83.1958 44.4327 91.7016 44.7024 103.512L45.2285 126.562L44.5742 126.577Z" fill="#0A4343"/>
<path fill-rule="evenodd" clip-rule="evenodd" d="M33.1849 135.494L32.7921 111.491C32.5904 99.155 28.3139 87.4918 24.762 79.8799C20.9086 71.6218 17.0524 66.217 17.0139 66.1633L17.5451 65.7803C17.5839 65.8344 21.4698 71.279 25.3487 79.5887C28.9305 87.2617 33.2427 99.023 33.4467 111.48L33.8394 135.483L33.1849 135.494Z" fill="#0A4343"/>
<path fill-rule="evenodd" clip-rule="evenodd" d="M36.0296 114.241C35.9725 114.241 35.9157 114.228 35.8626 114.201C35.6073 114.074 35.2898 113.915 35.4104 107.676C35.5217 101.907 34.7329 92.3168 30.3423 79.385C27.7133 71.6415 25.0006 66.3055 24.9736 66.2525L25.556 65.9534C25.5834 66.0068 28.314 71.3769 30.9584 79.1629C33.4003 86.3532 36.2685 97.1386 36.0647 107.688C36.0132 110.354 36.0499 111.842 36.1042 112.671C36.4816 110.602 36.9651 105.644 37.1445 99.5843C37.304 94.1991 37.3258 84.078 35.6801 76.7998L31.8837 60.0108L32.5222 59.8659L36.3185 76.6548C38.002 84.1002 37.9624 94.4302 37.7889 99.9251C37.6784 103.43 37.4567 106.886 37.1653 109.656C36.7298 113.794 36.4083 114.047 36.2709 114.155C36.1992 114.212 36.1144 114.241 36.0296 114.241Z" fill="#0A4343"/>
<path fill-rule="evenodd" clip-rule="evenodd" d="M40.7028 118.623L40.545 118.477C40.423 118.363 40.401 118.343 40.4121 116.844C40.4195 115.864 40.4487 114.553 40.4945 113.153C40.536 111.886 40.5993 110.27 40.6956 108.386C40.808 87.9562 39.2245 61.163 39.2074 60.876L39.8606 60.8369C39.8754 61.0831 41.0426 80.8314 41.3043 99.3509C42.0091 90.9739 43.3366 80.1859 45.7698 73.0794C48.3942 65.4149 51.3375 61.2142 54.518 60.5942C56.8919 60.1315 58.4365 61.8786 58.501 61.9531L58.0068 62.383C57.9524 62.3206 56.6341 60.8449 54.6344 61.2397C52.6192 61.6376 49.5529 64.0517 46.3891 73.2922C43.2102 82.5762 41.8627 98.5171 41.3484 108.692C41.34 110.005 41.3247 111.29 41.3013 112.541C41.2672 114.352 41.2284 115.854 41.1883 116.885C41.1278 118.442 41.1192 118.446 40.8982 118.54L40.7028 118.623Z" fill="#0A4343"/>
<path fill-rule="evenodd" clip-rule="evenodd" d="M39.9948 119.79L37.3248 98.6935C34.6909 77.8817 28.9479 63.8757 28.8901 63.7366L29.4945 63.4849C29.5525 63.6248 35.3294 77.7125 37.9742 98.611L40.2185 116.344L43.9202 60.8345L44.5733 60.8782L40.6461 119.771L39.9948 119.79Z" fill="#0A4343"/>
<mask id="mask0_344_11830" style="mask-type:alpha" maskUnits="userSpaceOnUse" x="14" y="63" width="6" height="7">
<path fill-rule="evenodd" clip-rule="evenodd" d="M14.0071 63.742H19.767V69.5132H14.0071V63.742Z" fill="white"/>
</mask>
<g mask="url(#mask0_344_11830)">
<path fill-rule="evenodd" clip-rule="evenodd" d="M19.767 66.6276C19.767 68.2213 18.4776 69.5132 16.8871 69.5132C15.2967 69.5132 14.0071 68.2213 14.0071 66.6276C14.0071 65.034 15.2967 63.742 16.8871 63.742C18.4776 63.742 19.767 65.034 19.767 66.6276Z" fill="#321C64"/>
</g>
<path fill-rule="evenodd" clip-rule="evenodd" d="M27.8832 66.3653C27.8832 67.9589 26.5938 69.2509 25.0033 69.2509C23.4129 69.2509 22.1233 67.9589 22.1233 66.3653C22.1233 64.7717 23.4129 63.4797 25.0033 63.4797C26.5938 63.4797 27.8832 64.7717 27.8832 66.3653Z" fill="#321C64"/>
<path fill-rule="evenodd" clip-rule="evenodd" d="M31.6796 63.742C31.6796 65.3357 30.3902 66.6276 28.7996 66.6276C27.2092 66.6276 25.9197 65.3357 25.9197 63.742C25.9197 62.1484 27.2092 60.8564 28.7996 60.8564C30.3902 60.8564 31.6796 62.1484 31.6796 63.742Z" fill="#321C64"/>
<path fill-rule="evenodd" clip-rule="evenodd" d="M35.0832 59.676C35.0832 61.2696 33.7937 62.5616 32.2032 62.5616C30.6128 62.5616 29.3232 61.2696 29.3232 59.676C29.3232 58.0823 30.6128 56.7904 32.2032 56.7904C33.7937 56.7904 35.0832 58.0823 35.0832 59.676Z" fill="#321C64"/>
<path fill-rule="evenodd" clip-rule="evenodd" d="M42.2831 61.3811C42.2831 62.9747 40.9937 64.2667 39.4032 64.2667C37.8128 64.2667 36.5232 62.9747 36.5232 61.3811C36.5232 59.7875 37.8128 58.4955 39.4032 58.4955C40.9937 58.4955 42.2831 59.7875 42.2831 61.3811Z" fill="#321C64"/>
<mask id="mask1_344_11830" style="mask-type:alpha" maskUnits="userSpaceOnUse" x="41" y="55" width="7" height="7">
<path fill-rule="evenodd" clip-rule="evenodd" d="M41.8905 55.7411H47.6504V61.5122H41.8905V55.7411Z" fill="white"/>
</mask>
<g mask="url(#mask1_344_11830)">
<path fill-rule="evenodd" clip-rule="evenodd" d="M47.6504 58.6266C47.6504 60.2203 46.361 61.5122 44.7705 61.5122C43.1801 61.5122 41.8905 60.2203 41.8905 58.6266C41.8905 57.033 43.1801 55.7411 44.7705 55.7411C46.361 55.7411 47.6504 57.033 47.6504 58.6266Z" fill="#321C64"/>
</g>
<path fill-rule="evenodd" clip-rule="evenodd" d="M61.6575 61.7746C61.6575 63.3682 60.3681 64.6602 58.7776 64.6602C57.1872 64.6602 55.8976 63.3682 55.8976 61.7746C55.8976 60.1809 57.1872 58.889 58.7776 58.889C60.3681 58.889 61.6575 60.1809 61.6575 61.7746Z" fill="#321C64"/>
<path fill-rule="evenodd" clip-rule="evenodd" d="M61.003 69.3821C61.003 70.9757 59.7136 72.2677 58.123 72.2677C56.5326 72.2677 55.243 70.9757 55.243 69.3821C55.243 67.7884 56.5326 66.4965 58.123 66.4965C59.7136 66.4965 61.003 67.7884 61.003 69.3821Z" fill="#321C64"/>
<path fill-rule="evenodd" clip-rule="evenodd" d="M20.0287 70.0379C20.0287 71.6315 18.7393 72.9235 17.1488 72.9235C15.5584 72.9235 14.2688 71.6315 14.2688 70.0379C14.2688 68.4442 15.5584 67.1523 17.1488 67.1523C18.7393 67.1523 20.0287 68.4442 20.0287 70.0379Z" fill="#321C64"/>
<path fill-rule="evenodd" clip-rule="evenodd" d="M22.9089 62.955C22.9089 64.5487 21.6194 65.8406 20.0289 65.8406C18.4385 65.8406 17.1489 64.5487 17.1489 62.955C17.1489 61.3614 18.4385 60.0695 20.0289 60.0695C21.6194 60.0695 22.9089 61.3614 22.9089 62.955Z" fill="#321C64"/>
<path fill-rule="evenodd" clip-rule="evenodd" d="M32.4651 67.8081C32.4651 69.4017 31.1757 70.6937 29.5852 70.6937C27.9948 70.6937 26.7052 69.4017 26.7052 67.8081C26.7052 66.2144 27.9948 64.9225 29.5852 64.9225C31.1757 64.9225 32.4651 66.2144 32.4651 67.8081Z" fill="#321C64"/>
<path fill-rule="evenodd" clip-rule="evenodd" d="M56.9449 64.0043C56.9449 65.598 55.6554 66.8899 54.0649 66.8899C52.4745 66.8899 51.1849 65.598 51.1849 64.0043C51.1849 62.4107 52.4745 61.1187 54.0649 61.1187C55.6554 61.1187 56.9449 62.4107 56.9449 64.0043Z" fill="#321C64"/>
<path fill-rule="evenodd" clip-rule="evenodd" d="M55.8976 70.5625C55.8976 72.1562 54.6082 73.4481 53.0177 73.4481C51.4273 73.4481 50.1377 72.1562 50.1377 70.5625C50.1377 68.9689 51.4273 67.6769 53.0177 67.6769C54.6082 67.6769 55.8976 68.9689 55.8976 70.5625Z" fill="#321C64"/>
<path fill-rule="evenodd" clip-rule="evenodd" d="M27.6215 70.4314C27.6215 72.025 26.3321 73.317 24.7415 73.317C23.1511 73.317 21.8616 72.025 21.8616 70.4314C21.8616 68.8377 23.1511 67.5458 24.7415 67.5458C26.3321 67.5458 27.6215 68.8377 27.6215 70.4314Z" fill="#321C64"/>
<path fill-rule="evenodd" clip-rule="evenodd" d="M36.916 62.8239C36.916 64.4175 35.6265 65.7095 34.036 65.7095C32.4456 65.7095 31.156 64.4175 31.156 62.8239C31.156 61.2302 32.4456 59.9383 34.036 59.9383C35.6265 59.9383 36.916 61.2302 36.916 62.8239Z" fill="#321C64"/>
<path fill-rule="evenodd" clip-rule="evenodd" d="M48.9595 63.0862C48.9595 64.6798 47.6701 65.9718 46.0796 65.9718C44.4892 65.9718 43.1996 64.6798 43.1996 63.0862C43.1996 61.4926 44.4892 60.2006 46.0796 60.2006C47.6701 60.2006 48.9595 61.4926 48.9595 63.0862Z" fill="#321C64"/>
<path fill-rule="evenodd" clip-rule="evenodd" d="M57.0757 59.4136C57.0757 61.0073 55.7863 62.2993 54.1958 62.2993C52.6054 62.2993 51.3158 61.0073 51.3158 59.4136C51.3158 57.82 52.6054 56.528 54.1958 56.528C55.7863 56.528 57.0757 57.82 57.0757 59.4136Z" fill="#321C64"/>
<path fill-rule="evenodd" clip-rule="evenodd" d="M59.9557 73.4481C59.9557 75.0418 58.6663 76.3337 57.0758 76.3337C55.4854 76.3337 54.1958 75.0418 54.1958 73.4481C54.1958 71.8545 55.4854 70.5625 57.0758 70.5625C58.6663 70.5625 59.9557 71.8545 59.9557 73.4481Z" fill="#321C64"/>
<path fill-rule="evenodd" clip-rule="evenodd" d="M27.6215 103.878L27.7524 126.045C27.7524 126.045 17.2798 134.57 18.0653 141.915C18.8507 149.261 30.072 160.002 30.072 160.002L48.2267 159.837C48.2267 159.837 60.3485 149.129 60.0867 142.309C59.8249 135.488 50.6613 126.438 50.6613 126.438L50.5304 104.14L27.6215 103.878Z" fill="#C689FF"/>
<path fill-rule="evenodd" clip-rule="evenodd" d="M356.553 293.181L355.435 282.782L360.958 289.544L356.553 293.181Z" fill="#FFD6CA"/>
<path fill-rule="evenodd" clip-rule="evenodd" d="M364.74 288.093L355.435 282.782L360.998 289.526L364.74 288.093Z" fill="#FFA436"/>
<path fill-rule="evenodd" clip-rule="evenodd" d="M380.104 282.129L370.971 287.646L376.53 290.1L380.104 282.129Z" fill="#FFD6CA"/>
<path fill-rule="evenodd" clip-rule="evenodd" d="M376.567 290.13L379.748 292.93L380.104 282.129L376.567 290.13Z" fill="#FFA436"/>
<path fill-rule="evenodd" clip-rule="evenodd" d="M368.265 345.387C360.05 345.387 353.391 338.714 353.391 330.484V302.326C353.391 294.095 360.05 287.423 368.265 287.423C376.479 287.423 383.139 294.095 383.139 302.326V330.484C383.139 338.714 376.479 345.387 368.265 345.387Z" fill="#FFA436"/>
<path fill-rule="evenodd" clip-rule="evenodd" d="M367.932 345.487H311.107C311.107 327.629 325.555 313.153 343.378 313.153H367.932V345.487Z" fill="#FFA436"/>
<path fill-rule="evenodd" clip-rule="evenodd" d="M362.852 303.283L352.181 298.22L352.349 297.864L363.827 303.31L352.012 308.132L351.864 307.768L362.852 303.283Z" fill="#E22850"/>
<path fill-rule="evenodd" clip-rule="evenodd" d="M363.352 303.544L352.785 302.657L352.818 302.265L363.385 303.152L363.352 303.544Z" fill="#E22850"/>
<path fill-rule="evenodd" clip-rule="evenodd" d="M386.312 298.443L386.447 298.812L375.363 302.891L385.903 308.351L385.723 308.7L374.39 302.829L386.312 298.443Z" fill="#E22850"/>
<path fill-rule="evenodd" clip-rule="evenodd" d="M374.303 302.671L384.907 302.743L384.904 303.136L374.301 303.065L374.303 302.671Z" fill="#E22850"/>
<path fill-rule="evenodd" clip-rule="evenodd" d="M369.415 309.825L367.453 309.879C365.502 309.932 363.877 308.391 363.823 306.435C363.77 304.48 365.309 302.852 367.261 302.799L369.223 302.745C371.175 302.692 372.799 304.233 372.853 306.188C372.905 308.144 371.367 309.772 369.415 309.825Z" fill="#E7DFFF"/>
<path fill-rule="evenodd" clip-rule="evenodd" d="M366.567 302.788L368.477 304.552L370.24 302.754L366.567 302.788Z" fill="#E22850"/>
<path fill-rule="evenodd" clip-rule="evenodd" d="M368.762 304.485L370.485 306.12C370.563 306.195 370.567 306.319 370.493 306.398C370.418 306.477 370.294 306.48 370.215 306.406L368.712 304.98L366.652 306.271C366.56 306.329 366.439 306.301 366.382 306.209C366.324 306.116 366.352 305.995 366.444 305.937L368.762 304.485Z" fill="#E22850"/>
<mask id="mask2_344_11830" style="mask-type:alpha" maskUnits="userSpaceOnUse" x="288" y="291" width="35" height="55">
<path fill-rule="evenodd" clip-rule="evenodd" d="M288.259 291.601H322.457V345.486H288.259V291.601Z" fill="white"/>
</mask>
<g mask="url(#mask2_344_11830)">
<path fill-rule="evenodd" clip-rule="evenodd" d="M312.734 339.438C312.734 339.438 287.606 334.769 295.94 310.01C295.94 310.01 300.054 298.561 314.686 297.964C326.095 297.498 325.054 289.776 310.82 292.003C296.395 294.259 286.874 304.858 288.424 321.947C289.975 339.036 306.463 344.655 311.107 345.486L312.734 339.438Z" fill="#FFA436"/>
</g>
<path fill-rule="evenodd" clip-rule="evenodd" d="M382.445 317.273H353.952C353.147 317.273 352.495 316.619 352.495 315.813V314.481C352.495 313.675 353.147 313.021 353.952 313.021H382.445C383.25 313.021 383.902 313.675 383.902 314.481V315.813C383.902 316.619 383.25 317.273 382.445 317.273Z" fill="#E22850"/>
<path fill-rule="evenodd" clip-rule="evenodd" d="M381.395 346.318H372.963C369.974 346.318 367.551 343.891 367.551 340.896V340.496C367.551 337.501 369.974 335.073 372.963 335.073H381.395C384.384 335.073 386.807 337.501 386.807 340.496V340.896C386.807 343.891 384.384 346.318 381.395 346.318Z" fill="#FFD6CA"/>
<path fill-rule="evenodd" clip-rule="evenodd" d="M362.196 346.067H353.764C350.775 346.067 348.352 343.639 348.352 340.645V340.244C348.352 337.25 350.775 334.822 353.764 334.822H362.196C365.185 334.822 367.608 337.25 367.608 340.244V340.645C367.608 343.639 365.185 346.067 362.196 346.067Z" fill="#FFD6CA"/>
<path fill-rule="evenodd" clip-rule="evenodd" d="M247.046 327.585L256.288 336.376L270.379 335.231L269.248 331.502L251.989 325.811L247.046 327.585Z" fill="#E7DFFF"/>
<path fill-rule="evenodd" clip-rule="evenodd" d="M241.439 275.271C241.349 276.533 244.867 301.853 244.867 301.853L258.221 303.089L261.494 273.866L241.439 275.271Z" fill="#FFB587"/>
<path fill-rule="evenodd" clip-rule="evenodd" d="M242.979 315.754C243.01 315.324 244.454 301.154 244.454 301.154C244.454 301.154 244.067 300.521 244.184 298.886C244.301 297.25 245.357 295.769 252.271 296.871C259.186 297.972 259.554 298.863 259.504 299.552C259.455 300.241 258.565 301.82 258.485 302.939C258.405 304.058 258.232 314.945 258.232 314.945L242.979 315.754Z" fill="#E7DFFF"/>
<path fill-rule="evenodd" clip-rule="evenodd" d="M242.816 315.195L241.553 326.525L250.696 324.789L259.329 328.332L272.448 333.127L283.405 331.986L282.945 329.162C282.945 329.162 273.1 324.005 270.749 322.573C268.398 321.142 267.456 318.65 267.456 318.65L263.758 313.297C263.758 313.297 259.81 307.585 256.658 307.092C253.506 306.6 250.811 307.152 251.411 308.419C252.011 309.686 253.498 311.922 253.498 311.922L247.737 310.763L244.475 314.787L243.61 315.737L243.958 316.405" fill="#E7DFFF"/>
<mask id="mask3_344_11830" style="mask-type:alpha" maskUnits="userSpaceOnUse" x="234" y="308" width="53" height="36">
<path fill-rule="evenodd" clip-rule="evenodd" d="M234.05 312.486L283.995 308.987L286.182 340.316L261.209 342.066L236.237 343.816L234.05 312.486Z" fill="white"/>
</mask>
<g mask="url(#mask3_344_11830)">
<path fill-rule="evenodd" clip-rule="evenodd" d="M242.584 312.712C242.584 312.712 238.804 321.684 239.135 321.556C239.467 321.427 241.593 317.039 241.682 318.718C241.771 320.398 240.669 322.547 240.897 324.414C240.897 324.414 242.622 328.923 243.661 328.997C244.7 329.072 249.65 327.777 249.65 327.777C249.65 327.777 251.908 324.842 256.587 327.913C261.266 330.984 267.306 334.112 267.306 334.112C267.306 334.112 266.571 334.731 266.542 335.306C266.514 335.88 266.881 336.663 266.881 336.663L248.577 334.018L238.723 327.334L237.503 327.463C237.503 327.463 236.372 328.162 236.271 330.19C236.169 332.218 236.261 332.745 235.957 333.372C235.652 334.001 234.872 335.244 237.25 335.847C239.627 336.452 257.478 340.72 265.342 341.372C273.206 342.023 281.277 339.786 283.462 337.647C285.647 335.508 285.984 333.8 285.496 332.163C285.008 330.525 284.043 328.551 281.786 328.926C279.531 329.301 278.242 329.676 274.542 328.493C270.842 327.309 269.381 327.447 269.511 328.288C269.641 329.128 272.366 329.929 272.366 329.929C272.366 329.929 276.022 330.745 275.997 331.107C275.971 331.469 275.844 331.789 272.527 331.534C269.21 331.279 265.236 330.552 260.022 327.373C254.808 324.195 253.261 322.949 249.837 323.334C246.412 323.718 243.343 325.295 242.479 322.869C241.614 320.443 243.976 317.228 243.958 316.406C243.94 315.584 242.816 315.195 242.816 315.195L242.593 311.887" fill="#E7DFFF"/>
<path fill-rule="evenodd" clip-rule="evenodd" d="M243.055 310.654C243.055 310.654 242.93 310.819 242.593 311.887C242.255 312.956 242.139 316.249 243.284 316.142C244.43 316.034 245.327 313.77 246.343 312.489C247.359 311.208 248.642 310.848 249.737 311.449C250.832 312.051 255.062 311.789 255.062 311.789C255.062 311.789 253.929 309.859 250.171 309.823C250.171 309.823 247.515 308.941 245.964 311.36C244.412 313.778 243.468 316.181 243.354 314.147C243.256 312.396 243.806 311.323 243.689 310.705C243.572 310.086 243.055 310.654 243.055 310.654Z" fill="#E7DFFF"/>
<path fill-rule="evenodd" clip-rule="evenodd" d="M271.857 323.05C271.857 323.05 269.854 323.347 264.035 322.798C258.215 322.248 259.505 319.604 257.133 318.904C254.76 318.205 254.504 318.097 253.207 315.886C251.913 313.674 248.641 315.691 247.083 315.315C245.523 314.937 250.191 310.638 250.191 310.638C250.191 310.638 252.716 309.958 255.062 311.789C255.722 312.304 257.055 314.15 257.458 314.583C257.861 315.015 260.308 315.905 262.484 318.638C264.66 321.373 267.722 320.599 268.331 320.766C268.938 320.934 263.695 313.632 263.695 313.632L263.705 312.906C263.705 312.906 266.979 317.733 268.582 319.883C270.185 322.034 271.506 322.569 271.745 322.695C271.982 322.823 271.857 323.05 271.857 323.05Z" fill="#E7DFFF"/>
<path fill-rule="evenodd" clip-rule="evenodd" d="M240.667 317.153C240.667 317.153 236.919 325.707 237.129 327.669C237.339 329.632 241.539 328.369 243.308 332.134C245.078 335.9 247.722 337.55 258.92 339.506C270.118 341.461 279.565 337.255 279.612 336.599C279.659 335.945 279.584 334.676 279.584 334.676C279.584 334.676 263.458 337.306 256.772 332.765C250.086 328.225 249.857 326.837 247.346 327.48C244.835 328.123 243.36 327.304 241.446 324.971C241.446 324.971 241.255 323.805 241.964 320.783C242.673 317.761 242.052 313.448 240.667 317.153Z" fill="#E7DFFF"/>
<path fill-rule="evenodd" clip-rule="evenodd" d="M250.328 310.196C250.328 310.196 248.96 308.705 251.224 307.094C253.488 305.484 257.531 306.681 258.745 307.971C258.745 307.971 256.425 306.834 253.538 307.134C250.652 307.433 251.33 308.263 252.658 310.321L250.048 309.986" fill="#E7DFFF"/>
<path fill-rule="evenodd" clip-rule="evenodd" d="M254.187 311.865C254.497 312.359 254.233 313.085 253.597 313.485C252.961 313.885 252.194 313.808 251.884 313.314C251.574 312.819 251.839 312.094 252.475 311.694C253.111 311.294 253.877 311.37 254.187 311.865Z" fill="#D9BFFF"/>
<path fill-rule="evenodd" clip-rule="evenodd" d="M252.265 312.781C252.265 312.781 252.415 311.722 254.45 311.024C256.484 310.326 260.327 309.195 262.366 310.786C264.405 312.376 264.223 313.095 264.223 313.095C264.223 313.095 262.733 312.2 261.581 311.817C260.429 311.434 258.867 311.285 257.311 311.586C255.754 311.887 254.202 312.395 253.7 312.602C253.199 312.81 252.733 313.827 252.265 312.781Z" fill="#E8D9F3"/>
<path fill-rule="evenodd" clip-rule="evenodd" d="M256.915 314.143C257.225 314.637 256.961 315.362 256.325 315.763C255.689 316.163 254.922 316.086 254.612 315.592C254.302 315.097 254.567 314.372 255.203 313.972C255.839 313.572 256.605 313.648 256.915 314.143Z" fill="#D9BFFF"/>
<path fill-rule="evenodd" clip-rule="evenodd" d="M254.993 315.058C254.993 315.058 255.141 314 257.098 313.296C259.055 312.593 262.753 311.451 264.708 313.036C266.664 314.62 266.486 315.339 266.486 315.339C266.486 315.339 265.057 314.449 263.951 314.069C262.844 313.69 261.344 313.545 259.847 313.85C258.35 314.155 256.856 314.667 256.373 314.876C255.891 315.085 255.44 316.103 254.993 315.058Z" fill="#E8D9F3"/>
<path fill-rule="evenodd" clip-rule="evenodd" d="M259.93 316.215C260.24 316.709 259.975 317.434 259.339 317.834C258.703 318.234 257.937 318.158 257.627 317.664C257.317 317.169 257.581 316.444 258.217 316.044C258.853 315.644 259.62 315.72 259.93 316.215Z" fill="#D9BFFF"/>
<path fill-rule="evenodd" clip-rule="evenodd" d="M258.004 317.174C258.004 317.174 258.129 316.223 259.689 315.577C261.248 314.93 265.19 314.075 266.731 315.483C268.272 316.891 267.321 317.861 267.321 317.861C267.321 317.861 266.001 316.552 265.125 316.219C264.249 315.887 263.058 315.768 261.867 316.053C260.676 316.338 259.486 316.809 259.101 317C258.717 317.192 258.351 318.109 258.004 317.174Z" fill="#E8D9F3"/>
</g>
<path fill-rule="evenodd" clip-rule="evenodd" d="M142.059 198C142.059 198 141.25 222.601 145.625 221.143C145.625 221.143 169.45 223.512 175.27 224.423C178.198 224.881 183.798 228.393 201.323 231.322C218.849 234.252 235.558 237.271 235.558 238.448C235.558 240.818 239.375 258.099 240.285 279.237C240.285 279.237 245.741 285.797 262.109 279.966C262.109 279.966 263.296 238.637 255.112 222.601C239.484 201.827 189.948 198 189.948 198H142.059Z" fill="#321C64"/>
<path fill-rule="evenodd" clip-rule="evenodd" d="M189.206 272.699C189.206 273.964 190.77 306.328 190.77 306.328L203.525 307.502L210.576 270.927L189.206 272.699Z" fill="#FFB587"/>
<path fill-rule="evenodd" clip-rule="evenodd" d="M193.312 313.43L201.92 322.845L216.056 322.687L215.187 318.889L198.366 312.005L193.312 313.43Z" fill="#E7DFFF"/>
<path fill-rule="evenodd" clip-rule="evenodd" d="M193.347 328.287L201.955 337.704L216.091 337.545L215.222 333.746L198.401 326.863L193.347 328.287Z" fill="#E7DFFF"/>
<path fill-rule="evenodd" clip-rule="evenodd" d="M189.574 318.184C189.574 317.753 190.004 303.516 190.004 303.516C190.004 303.516 189.574 302.912 189.574 301.272C189.574 299.633 190.521 298.08 197.496 298.684C204.472 299.288 204.902 300.15 204.902 300.841C204.902 301.531 204.127 303.17 204.127 304.292C204.127 305.414 204.73 316.286 204.73 316.286L189.574 318.184Z" fill="#E7DFFF"/>
<path fill-rule="evenodd" clip-rule="evenodd" d="M189.371 317.638L188.919 329.03L197.915 326.644L206.779 329.561L220.206 333.404L231.054 331.483L230.393 328.699C230.393 328.699 220.206 324.258 217.759 322.999C215.311 321.74 214.194 319.321 214.194 319.321L210.125 314.246C210.125 314.246 205.78 308.831 202.601 308.566C199.422 308.3 196.772 309.044 197.461 310.265C198.15 311.486 199.793 313.609 199.793 313.609L193.964 312.866L190.997 317.113L190.202 318.122L190.597 318.764" fill="#E7DFFF"/>
<path fill-rule="evenodd" clip-rule="evenodd" d="M188.963 315.178C188.963 315.178 185.832 324.398 186.153 324.246C186.475 324.094 188.283 319.565 188.491 321.233C188.699 322.902 187.754 325.125 188.114 326.971C188.114 326.971 190.157 331.345 191.198 331.345C192.239 331.345 197.085 329.699 197.085 329.699C197.085 329.699 199.127 326.609 204.013 329.338C208.899 332.066 215.147 334.755 215.147 334.755C215.147 334.755 214.458 335.424 214.47 336C214.483 336.574 214.905 337.33 214.905 337.33L196.459 336.001L186.154 330.04L184.946 330.255C184.946 330.255 183.868 331.033 183.912 333.063C183.955 335.093 184.084 335.613 183.825 336.261C183.567 336.909 182.877 338.205 185.291 338.636C187.706 339.069 205.815 342.049 213.706 342.136C221.596 342.222 229.487 339.414 231.513 337.125C233.54 334.835 233.756 333.106 233.152 331.509C232.548 329.91 231.444 328.01 229.221 328.545C226.997 329.081 225.739 329.546 221.964 328.631C218.189 327.716 216.741 327.958 216.931 328.787C217.12 329.616 219.896 330.221 219.896 330.221C219.896 330.221 223.602 330.773 223.602 331.136C223.602 331.498 223.498 331.826 220.171 331.809C216.845 331.792 212.829 331.353 207.402 328.554C201.974 325.757 200.343 324.625 196.954 325.254C193.566 325.882 190.617 327.674 189.582 325.317C188.546 322.959 190.673 319.583 190.597 318.764C190.52 317.945 189.371 317.638 189.371 317.638L188.913 314.355" fill="#E7DFFF"/>
<path fill-rule="evenodd" clip-rule="evenodd" d="M189.286 313.091C189.286 313.091 189.173 313.265 188.913 314.355C188.653 315.445 188.771 318.738 189.906 318.549C191.041 318.359 191.774 316.037 192.697 314.687C193.619 313.336 194.872 312.886 196.007 313.407C197.143 313.928 201.343 313.364 201.343 313.364C201.343 313.364 200.075 311.521 196.325 311.754C196.325 311.754 193.613 311.065 192.238 313.588C190.862 316.111 190.092 318.575 189.833 316.555C189.61 314.815 190.083 313.705 189.922 313.097C189.761 312.488 189.286 313.091 189.286 313.091Z" fill="#E7DFFF"/>
<path fill-rule="evenodd" clip-rule="evenodd" d="M218.898 323.395C218.898 323.395 216.921 323.835 211.078 323.704C205.234 323.571 206.332 320.841 203.916 320.313C201.499 319.786 201.236 319.697 199.786 317.583C198.337 315.47 195.217 317.716 193.636 317.452C192.053 317.187 196.403 312.565 196.403 312.565C196.403 312.565 198.873 311.706 201.343 313.364C202.039 313.831 203.5 315.577 203.933 315.979C204.365 316.382 206.869 317.094 209.235 319.665C211.6 322.237 214.599 321.245 215.218 321.369C215.836 321.493 210.086 314.585 210.086 314.585L210.044 313.86C210.044 313.86 213.654 318.44 215.406 320.47C217.159 322.501 218.513 322.94 218.761 323.049C219.007 323.159 218.898 323.395 218.898 323.395Z" fill="#E7DFFF"/>
<path fill-rule="evenodd" clip-rule="evenodd" d="M187.367 319.745C187.367 319.745 184.239 328.545 184.588 330.487C184.938 332.429 189.036 330.87 191.07 334.499C193.103 338.127 195.858 339.584 207.167 340.733C218.475 341.884 227.599 337.012 227.599 336.355C227.599 335.698 227.435 334.439 227.435 334.439C227.435 334.439 211.537 338.216 204.544 334.165C197.552 330.114 197.224 328.746 194.766 329.567C192.307 330.389 190.777 329.678 188.701 327.487C188.701 327.487 188.428 326.338 188.92 323.273C189.412 320.207 188.484 315.95 187.367 319.745Z" fill="#E7DFFF"/>
<path fill-rule="evenodd" clip-rule="evenodd" d="M196.508 312.114C196.508 312.114 195.037 310.725 197.18 308.956C199.323 307.188 203.442 308.093 204.745 309.293C204.745 309.293 202.349 308.325 199.492 308.83C196.634 309.335 197.369 310.114 198.84 312.072L196.214 311.925" fill="#E7DFFF"/>
<path fill-rule="evenodd" clip-rule="evenodd" d="M200.476 313.503C200.82 313.974 200.608 314.716 200.002 315.161C199.397 315.605 198.626 315.584 198.282 315.113C197.938 314.642 198.15 313.9 198.755 313.455C199.361 313.011 200.132 313.032 200.476 313.503Z" fill="#D9BFFF"/>
<path fill-rule="evenodd" clip-rule="evenodd" d="M198.624 314.554C198.624 314.554 198.698 313.487 200.678 312.645C202.657 311.803 206.41 310.4 208.557 311.841C210.705 313.282 210.574 314.011 210.574 314.011C210.574 314.011 209.024 313.225 207.848 312.926C206.672 312.627 205.103 312.589 203.572 313.001C202.041 313.412 200.528 314.03 200.043 314.273C199.557 314.516 199.165 315.564 198.624 314.554Z" fill="#E8D9F3"/>
<path fill-rule="evenodd" clip-rule="evenodd" d="M203.36 315.579C203.704 316.051 203.492 316.793 202.886 317.237C202.281 317.682 201.51 317.661 201.166 317.189C200.822 316.719 201.033 315.976 201.639 315.532C202.245 315.087 203.015 315.108 203.36 315.579Z" fill="#D9BFFF"/>
<path fill-rule="evenodd" clip-rule="evenodd" d="M201.507 316.631C201.507 316.631 201.579 315.564 203.481 314.722C205.383 313.88 208.99 312.477 211.053 313.918C213.117 315.358 212.991 316.088 212.991 316.088C212.991 316.088 211.502 315.302 210.372 315.003C209.241 314.704 207.734 314.666 206.262 315.078C204.791 315.489 203.338 316.107 202.871 316.35C202.405 316.593 202.028 317.641 201.507 316.631Z" fill="#E8D9F3"/>
<path fill-rule="evenodd" clip-rule="evenodd" d="M206.514 317.431C206.858 317.902 206.646 318.644 206.04 319.089C205.435 319.533 204.664 319.512 204.32 319.041C203.976 318.57 204.187 317.827 204.793 317.383C205.399 316.938 206.169 316.959 206.514 317.431Z" fill="#D9BFFF"/>
<path fill-rule="evenodd" clip-rule="evenodd" d="M204.661 318.525C204.661 318.525 204.718 317.568 206.228 316.811C207.737 316.055 211.608 314.92 213.246 316.214C214.883 317.508 214.004 318.544 214.004 318.544C214.004 318.544 212.593 317.332 211.696 317.064C210.799 316.795 209.603 316.761 208.435 317.131C207.267 317.5 206.114 318.055 205.744 318.273C205.373 318.492 205.074 319.433 204.661 318.525Z" fill="#E8D9F3"/>
<path fill-rule="evenodd" clip-rule="evenodd" d="M154.615 231.322C172.141 234.251 188.85 237.271 188.85 238.448C188.85 240.817 187.431 258.099 188.341 279.237C188.341 279.237 193.797 285.797 210.165 279.966C210.165 279.966 216.588 238.637 208.404 222.601C192.776 201.827 143.24 198 143.24 198C143.24 198 137.09 228.392 154.615 231.322Z" fill="#321C64"/>
<path d="M194.513 209.157C205.65 213.326 211.406 221.025 211.735 232.203L211.743 232.543L211.089 232.556C210.875 221.579 205.398 214.042 194.612 209.896L194.284 209.772L194.513 209.157Z" fill="#321C64"/>
<path fill-rule="evenodd" clip-rule="evenodd" d="M165.461 100.993C165.461 100.993 164.978 111.637 158.781 115.394C153.159 118.803 165.071 138.585 177.885 137.405C184.9 136.759 186.544 117.54 186.544 117.54C186.544 117.54 180.88 116.443 182.972 107.789L165.461 100.993Z" fill="#FFB587"/>
<path fill-rule="evenodd" clip-rule="evenodd" d="M175.722 111.816C167.415 110.809 161.42 105.336 160.58 96.2572C158.165 96.6424 157.595 90.3374 158.268 88.312C158.941 86.2836 161.139 87.4696 161.139 87.4696C161.139 87.4696 161.321 86.9888 161.449 86.4629C165.078 71.5481 175.242 72.1397 175.242 72.1397C193.92 73.1146 189.543 92.2202 188.476 97.2888C187.409 102.358 183.753 112.788 175.722 111.816Z" fill="#FFB587"/>
<path fill-rule="evenodd" clip-rule="evenodd" d="M117.053 153.754C117.053 153.754 106.18 173.015 112.314 182.55C118.449 192.085 127.151 179.485 130.728 165.412C134.305 151.339 141.701 142.936 141.701 142.936L117.053 153.754Z" fill="#FFB587"/>
<path fill-rule="evenodd" clip-rule="evenodd" d="M142.147 119.581C152.999 116.218 156.343 116.029 156.343 116.029L167.798 118.502C167.798 118.502 174.077 126.77 174.615 134.139C174.615 134.139 174.794 124.434 178.92 117.783C178.92 117.783 197.079 117.616 203.924 124.778C214.737 136.09 214.533 155.939 214.533 155.939L196.692 157.777L203.924 147.687C203.924 147.687 204.381 188.796 203.305 199.4C189.685 214.453 140.726 202.802 140.726 202.802C140.726 202.802 141.788 168.786 141.967 159.482C142.147 150.177 138.712 151.434 133.978 162.968C130.107 172.397 117.802 152.847 117.802 152.847C117.802 152.847 125.355 124.784 142.147 119.581Z" fill="#F770FF"/>
<path fill-rule="evenodd" clip-rule="evenodd" d="M197.545 170.814C197.545 170.814 206.355 167.649 215.313 169.518C215.313 169.518 215.197 166.588 215.29 162.719C215.364 159.542 217.102 154.624 210.835 155.154C203.541 155.77 200.415 155.834 197.243 157.272C197.243 157.272 196.488 167.788 197.545 170.814Z" fill="#E7DFFF"/>
<path fill-rule="evenodd" clip-rule="evenodd" d="M113.751 159.02L117.592 146.907C117.592 146.907 131.811 143.931 137.445 156.246L133.223 167.21C133.223 167.21 125.327 155.545 113.751 159.02Z" fill="#321C64"/>
<mask id="mask4_344_11830" style="mask-type:alpha" maskUnits="userSpaceOnUse" x="149" y="114" width="20" height="13">
<path fill-rule="evenodd" clip-rule="evenodd" d="M149.7 114.24H168.127V126.268H149.7V114.24Z" fill="white"/>
</mask>
<g mask="url(#mask4_344_11830)">
<path fill-rule="evenodd" clip-rule="evenodd" d="M156.526 114.253C156.526 114.253 149.273 116.713 149.719 117.384C150.166 118.054 163.043 126.635 164.008 126.255C164.973 125.875 168.593 119.001 168.076 118.311C167.559 117.62 157.146 113.995 156.526 114.253Z" fill="#321C64"/>
</g>
<path fill-rule="evenodd" clip-rule="evenodd" d="M190.551 117.243C190.551 117.243 196.794 121.685 196.174 122.2C195.554 122.714 180.761 127.23 179.945 126.588C179.129 125.946 177.631 118.321 178.324 117.808C179.018 117.295 190.031 116.818 190.551 117.243Z" fill="#321C64"/>
<path fill-rule="evenodd" clip-rule="evenodd" d="M122.379 166.379C125.953 171.623 123.833 171.719 125.389 174.603C126.946 177.487 128.41 183.506 130.197 183.355C131.983 183.205 132.077 182.21 131.381 180.349C130.685 178.488 128.646 172.531 129.41 172.247C130.174 171.964 132.642 183.741 135.473 183.552C138.304 183.362 135.929 177.326 134.648 174.626C133.367 171.926 132.932 169.925 133.741 170.099C134.55 170.274 137.669 183.454 139.972 183.057C142.276 182.661 141.105 178.03 139.829 175.296C138.552 172.562 136.647 168.253 136.647 168.253C136.647 168.253 139.883 172.456 141.35 177.472C142.818 182.488 143.721 182.744 144.545 182.26C145.37 181.776 144.277 175.87 144.277 175.87C144.277 175.87 147.038 171.343 143.564 167.309C140.091 163.274 138.149 159.022 133.361 156.74C128.573 154.458 125.598 156.357 125.598 156.357C125.598 156.357 118.805 161.135 122.379 166.379Z" fill="#FFB587"/>
<path fill-rule="evenodd" clip-rule="evenodd" d="M192.171 141.718H180.281C179.797 141.718 179.405 141.325 179.405 140.84V139.808C179.405 139.323 179.797 138.93 180.281 138.93H192.171C192.655 138.93 193.047 139.323 193.047 139.808V140.84C193.047 141.325 192.655 141.718 192.171 141.718Z" fill="#321C64"/>
<path fill-rule="evenodd" clip-rule="evenodd" d="M181.607 185.911L157.688 179.268C157.688 179.268 156.201 177.695 160.579 177.282C164.958 176.868 210.704 175.643 210.704 175.643L181.607 185.911Z" fill="#6D6D6E"/>
<path fill-rule="evenodd" clip-rule="evenodd" d="M249.42 185.839H182.332C181.089 185.839 180.082 184.83 180.082 183.585L186.172 139.319C186.172 138.074 187.179 137.064 188.422 137.064H255.51C256.753 137.064 257.76 138.074 257.76 139.319L251.67 183.585C251.67 184.83 250.664 185.839 249.42 185.839Z" fill="#9E9E9E"/>
<path fill-rule="evenodd" clip-rule="evenodd" d="M233.541 185.839C233.541 185.839 233.163 186.605 232.645 187.413C232.127 188.221 231.833 187.749 230.902 189.473C229.972 191.196 227.324 194.616 220.817 192.259C214.309 189.902 214.32 188.406 214.676 186.443C215.032 184.481 215.61 184.079 214.91 180.826C214.21 177.573 216.31 173.551 217.1 173.365L217.89 173.178C217.89 173.178 218.043 169.932 219.323 169.728C220.605 169.524 220.747 170.401 220.747 170.401C220.747 170.401 221.137 169.635 222.309 169.75C223.481 169.866 223.975 172.049 224.447 174.596C224.918 177.142 225.677 183.856 226.06 184.158C226.44 184.46 226.783 184.207 226.497 182.666C226.21 181.126 224.337 175.129 226.005 174.586C227.671 174.043 228.576 175.738 229.636 179.229C230.698 182.719 231.098 183.299 231.048 184.239L231.369 185.839H233.541Z" fill="#FFB587"/>
<path fill-rule="evenodd" clip-rule="evenodd" d="M220.738 170.348C220.738 170.348 220.811 170.12 220.733 171.666C220.704 172.229 220.734 172.999 220.869 174.055C221.372 178.012 221.986 184.277 222.313 186.16C222.639 188.042 221.775 186.69 221.275 182.306C220.775 177.922 220.306 172.662 220.309 172.419C220.311 172.004 220.32 170.76 220.738 170.348Z" fill="#321C64"/>
<path fill-rule="evenodd" clip-rule="evenodd" d="M217.976 179.66C218.095 181.378 218.356 184.225 218.379 184.527C218.422 185.066 218.539 186.11 218.539 186.11C218.539 186.11 218.175 186.215 217.827 183.018C217.74 182.225 217.512 180.776 217.478 179.822C217.447 178.944 217.252 175.802 217.447 175.311C217.643 174.822 217.943 174.653 217.943 174.653C217.943 174.653 217.865 178.041 217.976 179.66Z" fill="#321C64"/>
<path fill-rule="evenodd" clip-rule="evenodd" d="M173.599 102.904C173.599 102.904 175.714 106.183 178.586 104.287L173.599 102.904Z" fill="#321C64"/>
<path fill-rule="evenodd" clip-rule="evenodd" d="M185.071 94.4761C185.071 94.9106 184.719 95.263 184.285 95.263C183.851 95.263 183.5 94.9106 183.5 94.4761C183.5 94.0415 183.851 93.6891 184.285 93.6891C184.719 93.6891 185.071 94.0415 185.071 94.4761Z" fill="#321C64"/>
<path fill-rule="evenodd" clip-rule="evenodd" d="M168.348 89.9079C168.348 89.9079 170.345 88.6999 171.869 88.4251C172.809 88.2555 178.003 88.9899 177.837 90.051C177.676 91.0849 177.164 90.9457 175.114 90.5927C173.064 90.2396 172.127 90.0042 170.942 90.1326C169.757 90.2609 168.38 90.5177 168.348 89.9079Z" fill="#321C64"/>
<path fill-rule="evenodd" clip-rule="evenodd" d="M189.694 91.9089C189.694 91.9089 189.352 90.8595 188.789 90.3551C188.225 89.8511 183.986 88.7624 183.269 89.4357C182.13 90.5055 182.948 90.8888 185.235 91.1265C187.074 91.3177 187.801 91.3815 188.653 91.7524C189.818 92.2592 189.668 92.1043 189.694 91.9089Z" fill="#321C64"/>
<path d="M181.299 89.9112L181.798 90.0715L181.749 90.228C181.71 90.3557 181.667 90.5017 181.619 90.6637C181.485 91.1268 181.35 91.6242 181.225 92.1362C181.085 92.7052 180.965 93.2571 180.872 93.7782L180.845 93.9324C180.617 95.2577 180.585 96.2696 180.788 96.8138L180.8 96.8447C181.962 99.7254 180.384 101.186 177.072 100.163L176.971 100.131L177.13 99.6319C180.114 100.589 181.311 99.5107 180.315 97.0413C180.04 96.3616 180.083 95.208 180.356 93.6852C180.452 93.1525 180.574 92.59 180.716 92.0109C180.829 91.5491 180.95 91.0992 181.071 90.6749L181.117 90.517C181.144 90.423 181.17 90.3342 181.195 90.2511L181.259 90.0406L181.299 89.9112Z" fill="#321C64"/>
<path d="M168.372 109.982L168.628 109.524L168.721 109.575L168.807 109.621C168.937 109.689 169.085 109.765 169.249 109.846L169.32 109.881C169.873 110.15 170.484 110.42 171.136 110.672C172.634 111.251 174.115 111.646 175.493 111.774C176.117 111.832 176.709 111.834 177.263 111.774L177.373 111.762L177.437 112.282C176.812 112.359 176.146 112.362 175.445 112.297C174.013 112.164 172.487 111.757 170.947 111.162C170.281 110.904 169.657 110.628 169.091 110.352L168.877 110.247C168.786 110.201 168.701 110.157 168.622 110.116L168.474 110.037L168.372 109.982Z" fill="#321C64"/>
<path fill-rule="evenodd" clip-rule="evenodd" d="M175.369 93.4019C175.274 93.4019 175.179 93.3676 175.104 93.2983C175.099 93.2938 174.451 92.7177 173.516 92.7526C172.549 92.7884 171.907 93.2626 171.9 93.2673C171.727 93.3971 171.481 93.3631 171.351 93.1904C171.221 93.0177 171.253 92.7725 171.425 92.641C171.458 92.6153 172.26 92.0117 173.487 91.9661C174.75 91.9206 175.599 92.6858 175.635 92.7185C175.794 92.8654 175.805 93.1144 175.658 93.2744C175.581 93.359 175.475 93.4019 175.369 93.4019Z" fill="#321C64"/>
<mask id="mask5_344_11830" style="mask-type:alpha" maskUnits="userSpaceOnUse" x="158" y="66" width="36" height="29">
<path fill-rule="evenodd" clip-rule="evenodd" d="M158.791 66.6276H193.751V94.0757H158.791V66.6276Z" fill="white"/>
</mask>
<g mask="url(#mask5_344_11830)">
<path fill-rule="evenodd" clip-rule="evenodd" d="M161.284 89.0719C161.284 89.0719 156.571 83.1695 160.106 75.0374C163.64 66.9053 171.756 65.7248 176.6 67.4299C176.6 67.4299 193.487 62.5769 193.749 76.7425C193.963 88.3097 177.255 79.1035 177.255 79.1035C177.255 79.1035 177.255 85.924 170.578 85.137C163.902 84.35 163.902 94.5808 162.724 94.0561C161.546 93.5314 161.284 89.0719 161.284 89.0719Z" fill="#E22850"/>
</g>
</svg>
