<svg width="120" height="42" viewBox="0 0 120 42" fill="none" xmlns="http://www.w3.org/2000/svg">
<path d="M44.9614 11.599H47.2348V4.97977L50.529 10.9803L53.8076 4.97977V11.599H56.0965V0.974227H53.8076L50.529 6.97481L47.2348 0.974227H44.9614V11.599Z" fill="black"/>
<path d="M62.1464 11.7846C64.5126 11.7846 66.4922 9.86684 66.4922 7.59342C66.4922 5.32001 64.5126 3.41776 62.1464 3.41776C59.7647 3.41776 57.7697 5.32001 57.7697 7.59342C57.7697 9.86684 59.7647 11.7846 62.1464 11.7846ZM62.1464 9.88231C60.9401 9.88231 59.9348 8.83066 59.9348 7.59342C59.9348 6.35619 60.9401 5.32001 62.1464 5.32001C63.3372 5.32001 64.3425 6.35619 64.3425 7.59342C64.3425 8.83066 63.3372 9.88231 62.1464 9.88231Z" fill="black"/>
<path d="M67.6643 11.599H74.6547V9.68126H70.6027L74.6237 5.19628V3.60335H67.7725V5.52106H71.6853L67.6643 10.006V11.599Z" fill="black"/>
<path d="M77.3801 2.5053C78.0451 2.5053 78.5864 1.94855 78.5864 1.26807C78.5864 0.633988 78.0451 0.0617676 77.3801 0.0617676C76.6841 0.0617676 76.1428 0.633988 76.1428 1.26807C76.1428 1.94855 76.6841 2.5053 77.3801 2.5053ZM76.2356 11.599H78.4936V3.60335H76.2356V11.599Z" fill="black"/>
<path d="M80.4648 11.599H82.7228V0.788642H80.4648V11.599Z" fill="black"/>
<path d="M84.6936 11.599H86.9516V0.788642H84.6936V11.599Z" fill="black"/>
<path d="M92.495 3.41776C91.3815 3.41776 90.2834 3.72707 89.1544 4.29929L89.9122 5.79944C90.5463 5.47466 91.2423 5.22722 91.9846 5.22722C93.2992 5.22722 93.825 5.96956 93.825 6.82015V6.97481C93.1445 6.7119 92.4331 6.57271 91.7836 6.57271C89.9277 6.57271 88.4585 7.65529 88.4585 9.23276C88.4585 10.7638 89.7731 11.7846 91.4743 11.7846C92.3403 11.7846 93.2528 11.4443 93.825 10.7948V11.599H96.0056V6.82015C96.0056 4.73232 94.5828 3.41776 92.495 3.41776ZM91.9846 10.2225C91.2113 10.2225 90.6391 9.82044 90.6391 9.1709C90.6391 8.52135 91.2887 8.04192 92.1083 8.04192C92.727 8.04192 93.3146 8.15018 93.825 8.33576V9.0781C93.6703 9.82044 92.8507 10.2225 91.9846 10.2225Z" fill="black"/>
<path d="M64.495 16.4497L57.3861 33.9153L50.2771 16.4497H44.2869L54.3909 41.2408H60.3451L70.4492 16.4497H64.495Z" fill="black"/>
<path d="M73.3713 41.2408H78.6759V33.1936H84.5219C89.8987 33.1936 93.8681 29.7293 93.8681 24.8217C93.8681 19.914 89.8987 16.4497 84.5219 16.4497H73.3713V41.2408ZM78.6759 28.322V21.3213H83.9445C86.5788 21.3213 88.3831 22.6926 88.3831 24.8217C88.3831 26.9507 86.5788 28.322 83.9445 28.322H78.6759Z" fill="black"/>
<path d="M97.4102 41.2408H102.715V25.2186L114.659 41.2408H120V16.4497H114.659V32.4719L102.715 16.4497H97.4102V41.2408Z" fill="black"/>
<path fill-rule="evenodd" clip-rule="evenodd" d="M20.6207 4.63974C18.9124 4.63974 17.5276 6.02456 17.5276 7.73282C17.5276 9.44108 18.9124 10.8259 20.6207 10.8259C22.3289 10.8259 23.7137 9.44108 23.7137 7.73282C23.7137 6.02456 22.3289 4.63974 20.6207 4.63974ZM13.4035 7.73282C13.4035 3.74687 16.6347 0.515625 20.6207 0.515625C24.6066 0.515625 27.8379 3.74687 27.8379 7.73282C27.8379 11.7188 24.6066 14.95 20.6207 14.95C19.3777 14.95 18.2082 14.6358 17.1871 14.0825L14.0825 17.1871C14.3168 17.6196 14.5083 18.0786 14.6511 18.5586H26.5902C27.4774 15.5774 30.2391 13.4035 33.5085 13.4035C37.4944 13.4035 40.7257 16.6347 40.7257 20.6207C40.7257 24.6066 37.4944 27.8379 33.5085 27.8379C32.2656 27.8379 31.096 27.5237 30.075 26.9704L26.9704 30.075C27.5237 31.096 27.8379 32.2656 27.8379 33.5085C27.8379 37.4944 24.6066 40.7257 20.6207 40.7257C16.6347 40.7257 13.4035 37.4944 13.4035 33.5085C13.4035 29.5226 16.6347 26.2913 20.6207 26.2913C21.8636 26.2913 23.0331 26.6055 24.0542 27.1588L27.1588 24.0542C26.9245 23.6217 26.733 23.1627 26.5902 22.6827H14.6511C13.7639 25.6639 11.0022 27.8379 7.73282 27.8379C3.74687 27.8379 0.515625 24.6066 0.515625 20.6207C0.515625 16.6347 3.74687 13.4035 7.73282 13.4035C8.97574 13.4035 10.1453 13.7177 11.1663 14.2709L14.2709 11.1663C13.7177 10.1453 13.4035 8.97574 13.4035 7.73282ZM17.5276 33.5085C17.5276 31.8002 18.9124 30.4154 20.6207 30.4154C22.3289 30.4154 23.7137 31.8002 23.7137 33.5085C23.7137 35.2168 22.3289 36.6016 20.6207 36.6016C18.9124 36.6016 17.5276 35.2168 17.5276 33.5085ZM7.73282 17.5276C6.02456 17.5276 4.63974 18.9124 4.63974 20.6207C4.63974 22.3289 6.02456 23.7137 7.73282 23.7137C9.44108 23.7137 10.8259 22.3289 10.8259 20.6207C10.8259 18.9124 9.44108 17.5276 7.73282 17.5276ZM30.4154 20.6207C30.4154 18.9124 31.8002 17.5276 33.5085 17.5276C35.2168 17.5276 36.6016 18.9124 36.6016 20.6207C36.6016 22.3289 35.2168 23.7137 33.5085 23.7137C31.8002 23.7137 30.4154 22.3289 30.4154 20.6207Z" fill="black"/>
</svg>
