<svg width="238" height="33" viewBox="0 0 238 33" fill="none" xmlns="http://www.w3.org/2000/svg">
<path d="M27.6892 7.96014L15.9172 1.33779C15.5037 1.11355 15.0406 0.996094 14.57 0.996094C14.0995 0.996094 13.6364 1.11355 13.2229 1.33779L1.40941 7.96014C0.982939 8.20016 0.627822 8.54879 0.380248 8.9705C0.132675 9.3922 0.00149666 9.87191 8.26892e-05 10.3607V23.564C-0.00374284 24.0539 0.125236 24.5357 0.373348 24.9583C0.62146 25.381 0.979462 25.7287 1.40941 25.9646L13.1814 32.5456C13.5942 32.7936 14.0676 32.9225 14.5493 32.9181C15.0302 32.9169 15.5022 32.7884 15.9172 32.5456L27.6892 25.9646C28.1157 25.7246 28.4708 25.376 28.7184 24.9543C28.9659 24.5326 29.0971 24.0529 29.0985 23.564V10.3607C29.1107 9.86927 28.9852 9.38416 28.7362 8.96004C28.4872 8.53591 28.1246 8.18962 27.6892 7.96014V7.96014Z" fill="url(#paint0_linear_125_91)"/>
<path d="M6.34173 20.4202L5.63706 20.8341C5.51097 20.9039 5.40006 20.998 5.31078 21.111C5.2215 21.2241 5.15565 21.3537 5.11707 21.4924C5.07849 21.6311 5.06795 21.7761 5.08606 21.9189C5.10417 22.0617 5.15057 22.1994 5.22255 22.3241C5.31512 22.497 5.45238 22.6419 5.62004 22.7438C5.78771 22.8457 5.97966 22.9009 6.17592 22.9036C6.36247 22.902 6.54641 22.8596 6.71478 22.7794L7.41945 22.3655C7.54554 22.2958 7.65645 22.2016 7.74573 22.0886C7.83501 21.9756 7.90085 21.846 7.93944 21.7073C7.97802 21.5686 7.98856 21.4236 7.97045 21.2808C7.95234 21.138 7.90594 21.0002 7.83395 20.8755C7.76994 20.744 7.67947 20.6271 7.56818 20.5321C7.4569 20.4371 7.3272 20.366 7.18717 20.3233C7.04714 20.2805 6.89979 20.2671 6.75433 20.2838C6.60887 20.3005 6.46841 20.3469 6.34173 20.4202V20.4202ZM10.6526 17.9782L9.20183 18.806C9.07574 18.8758 8.96482 18.9699 8.87555 19.0829C8.78627 19.196 8.72042 19.3256 8.68184 19.4643C8.64325 19.603 8.63271 19.748 8.65082 19.8908C8.66893 20.0336 8.71533 20.1713 8.78732 20.2961C8.87989 20.4689 9.01714 20.6138 9.18481 20.7157C9.35247 20.8176 9.54442 20.8728 9.74069 20.8755C9.92724 20.8739 10.1112 20.8315 10.2795 20.7513L11.7303 19.9235C11.8564 19.8538 11.9673 19.7596 12.0566 19.6466C12.1459 19.5336 12.2117 19.404 12.2503 19.2653C12.2889 19.1266 12.2994 18.9816 12.2813 18.8388C12.2632 18.696 12.2168 18.5582 12.1448 18.4335C12.0808 18.302 11.9903 18.1851 11.8791 18.0901C11.7678 17.9951 11.6381 17.924 11.498 17.8813C11.358 17.8386 11.2107 17.8251 11.0652 17.8418C10.9197 17.8585 10.7793 17.9049 10.6526 17.9782V17.9782ZM16.4972 15.9543C16.4388 15.8368 16.3573 15.7323 16.2576 15.647C16.1579 15.5617 16.042 15.4973 15.9169 15.4576V7.13413C15.9174 6.98722 15.8888 6.84166 15.8328 6.70583C15.7767 6.57 15.6943 6.44658 15.5903 6.3427C15.4862 6.23882 15.3627 6.15653 15.2266 6.10056C15.0906 6.04459 14.9448 6.01606 14.7977 6.01661C14.6528 6.01708 14.5094 6.04661 14.3762 6.10346C14.2429 6.16031 14.1224 6.24332 14.0219 6.34755C13.9214 6.45179 13.8429 6.57513 13.791 6.71024C13.7391 6.84536 13.715 6.98951 13.72 7.13413V15.4948C13.5948 15.5345 13.4789 15.5989 13.3792 15.6843C13.2795 15.7696 13.198 15.8741 13.1397 15.9915C13.0618 16.137 13.0176 16.298 13.0104 16.4628C13.0033 16.6276 13.0333 16.7918 13.0982 16.9435C13.0333 17.0951 13.0033 17.2594 13.0104 17.4242C13.0176 17.5889 13.0618 17.75 13.1397 17.8954C13.198 18.0129 13.2795 18.1174 13.3792 18.2027C13.4789 18.2881 13.5948 18.3525 13.72 18.3921V26.7528C13.72 27.0492 13.8379 27.3335 14.0478 27.5431C14.2576 27.7526 14.5423 27.8704 14.8391 27.8704C15.136 27.8704 15.4206 27.7526 15.6305 27.5431C15.8404 27.3335 15.9583 27.0492 15.9583 26.7528V18.3507C16.0835 18.3111 16.1994 18.2467 16.2991 18.1613C16.3988 18.076 16.4802 17.9715 16.5386 17.8541C16.6165 17.7086 16.6606 17.5476 16.6678 17.3828C16.675 17.218 16.645 17.0537 16.5801 16.9021C16.676 16.5873 16.6463 16.2477 16.4972 15.9543V15.9543ZM19.32 13.0942L17.8692 13.922C17.7431 13.9918 17.6322 14.0859 17.5429 14.199C17.4536 14.312 17.3878 14.4416 17.3492 14.5803C17.3106 14.719 17.3001 14.864 17.3182 15.0068C17.3363 15.1496 17.3827 15.2874 17.4547 15.4121C17.5472 15.5849 17.6845 15.7298 17.8522 15.8317C18.0198 15.9336 18.2118 15.9888 18.408 15.9915C18.5946 15.9899 18.7785 15.9476 18.9469 15.8674L20.3977 15.0396C20.5238 14.9698 20.6347 14.8757 20.724 14.7626C20.8132 14.6496 20.8791 14.52 20.9177 14.3813C20.9563 14.2426 20.9668 14.0976 20.9487 13.9548C20.9306 13.812 20.8842 13.6742 20.8122 13.5495C20.7482 13.418 20.6577 13.3011 20.5464 13.2061C20.4351 13.1111 20.3054 13.04 20.1654 12.9973C20.0254 12.9546 19.878 12.9411 19.7326 12.9578C19.5871 12.9745 19.4466 13.0209 19.32 13.0942V13.0942ZM22.7562 13.5081C22.9428 13.5066 23.1267 13.4642 23.2951 13.384L23.9998 12.9701C24.1257 12.8998 24.2365 12.8054 24.3257 12.6922C24.415 12.5791 24.481 12.4494 24.52 12.3107C24.5589 12.172 24.57 12.027 24.5527 11.884C24.5354 11.741 24.4899 11.6028 24.4189 11.4774C24.3479 11.352 24.2528 11.2419 24.1391 11.1533C24.0253 11.0647 23.8952 10.9994 23.7561 10.9612C23.617 10.923 23.4717 10.9126 23.3286 10.9306C23.1854 10.9486 23.0473 10.9947 22.922 11.0662L22.2174 11.48C22.0913 11.5498 21.9804 11.644 21.8911 11.757C21.8018 11.87 21.736 11.9996 21.6974 12.1383C21.6588 12.277 21.6483 12.422 21.6664 12.5648C21.6845 12.7076 21.7309 12.8454 21.8029 12.9701C21.8978 13.1378 22.0367 13.2766 22.2047 13.3714C22.3726 13.4662 22.5633 13.5135 22.7562 13.5081ZM23.9998 20.8341L23.2951 20.4202C23.0424 20.2792 22.744 20.2438 22.4652 20.3219C22.1864 20.3999 21.9499 20.585 21.8075 20.8367C21.665 21.0884 21.6282 21.3862 21.705 21.6649C21.7818 21.9437 21.966 22.1807 22.2174 22.3241L22.922 22.738C23.0904 22.8182 23.2743 22.8606 23.4609 22.8622C23.6572 22.8595 23.8491 22.8043 24.0168 22.7024C24.1844 22.6005 24.3217 22.4556 24.4143 22.2828C24.4884 22.162 24.5366 22.0272 24.5559 21.8868C24.5751 21.7465 24.5649 21.6037 24.5259 21.4675C24.4869 21.3313 24.42 21.2046 24.3295 21.0956C24.2389 20.9866 24.1266 20.8975 23.9998 20.8341V20.8341ZM20.3935 18.806L18.9428 17.9782C18.8175 17.9067 18.6794 17.8607 18.5362 17.8427C18.3931 17.8246 18.2478 17.835 18.1087 17.8733C17.9696 17.9115 17.8395 17.9768 17.7257 18.0653C17.612 18.1539 17.5169 18.2641 17.4459 18.3895C17.3749 18.5149 17.3294 18.6531 17.3121 18.7961C17.2948 18.9391 17.3059 19.0841 17.3448 19.2228C17.3838 19.3615 17.4498 19.4912 17.539 19.6043C17.6283 19.7175 17.7391 19.8119 17.865 19.8822L19.3158 20.7099C19.4842 20.7902 19.6681 20.8325 19.8547 20.8341C20.0509 20.8314 20.2429 20.7762 20.4106 20.6743C20.5782 20.5724 20.7155 20.4275 20.808 20.2547C20.8835 20.1342 20.9328 19.9994 20.9527 19.8587C20.9726 19.7181 20.9627 19.5748 20.9236 19.4383C20.8845 19.3017 20.8171 19.1748 20.7258 19.0659C20.6345 18.957 20.5213 18.8685 20.3935 18.806V18.806ZM9.20183 14.9982L10.6526 15.826C10.821 15.9062 11.0049 15.9486 11.1915 15.9501C11.3877 15.9474 11.5797 15.8922 11.7473 15.7903C11.915 15.6884 12.0523 15.5435 12.1448 15.3707C12.2168 15.246 12.2632 15.1082 12.2813 14.9654C12.2994 14.8226 12.2889 14.6776 12.2503 14.5389C12.2117 14.4002 12.1459 14.2706 12.0566 14.1576C11.9673 14.0446 11.8564 13.9504 11.7303 13.8807L10.2795 13.0529C10.1547 12.981 10.0167 12.9346 9.87366 12.9166C9.73065 12.8985 9.58546 12.909 9.44656 12.9475C9.30767 12.9861 9.17784 13.0518 9.06466 13.141C8.95147 13.2301 8.8572 13.3408 8.78732 13.4668C8.64847 13.7268 8.61404 14.0299 8.69104 14.3144C8.76804 14.5989 8.95069 14.8434 9.20183 14.9982V14.9982ZM7.41945 11.48L6.71478 11.0662C6.58954 10.9947 6.45139 10.9486 6.30826 10.9306C6.16513 10.9126 6.01985 10.923 5.88075 10.9612C5.74166 10.9994 5.6115 11.0647 5.49775 11.1533C5.38401 11.2419 5.28891 11.352 5.21792 11.4774C5.14694 11.6028 5.10147 11.741 5.08412 11.884C5.06677 12.027 5.07789 12.172 5.11684 12.3107C5.15579 12.4494 5.22179 12.5791 5.31107 12.6922C5.40035 12.8054 5.51113 12.8998 5.63706 12.9701L6.34173 13.384C6.5101 13.4642 6.69404 13.5066 6.88059 13.5081C7.07685 13.5054 7.2688 13.4502 7.43647 13.3483C7.60413 13.2464 7.74139 13.1015 7.83395 12.9287C7.90448 12.807 7.94974 12.6724 7.96704 12.5328C7.98434 12.3933 7.97332 12.2517 7.93463 12.1165C7.89595 11.9813 7.8304 11.8553 7.74189 11.7459C7.65337 11.6366 7.54371 11.5462 7.41945 11.48V11.48Z" fill="#20133A"/>
<path d="M112.999 10.0745C113.602 10.0635 114.202 10.1758 114.765 10.4051C115.278 10.6077 115.747 10.9168 116.146 11.3143C116.535 11.7028 116.844 12.1722 117.054 12.6932C117.421 13.6383 117.472 14.6884 117.199 15.6688C117.083 16.0693 116.912 16.4492 116.691 16.7959C116.463 17.1489 116.186 17.462 115.867 17.7239C115.532 18.0026 115.155 18.2185 114.751 18.3626L117.5 23.4872H115.874L113.402 18.7646H109.434V23.4872H108V10.0745H112.999ZM109.434 17.3669H112.889C113.329 17.375 113.766 17.2907 114.175 17.119C114.53 16.9679 114.853 16.7431 115.126 16.4577C115.383 16.1873 115.584 15.8621 115.715 15.5034C115.846 15.1438 115.913 14.7618 115.913 14.3763C115.917 13.9797 115.846 13.5863 115.705 13.2192C115.564 12.8672 115.353 12.5519 115.087 12.2949C114.811 12.0291 114.488 11.8258 114.136 11.6976C113.736 11.5596 113.317 11.4935 112.896 11.5022H109.434V17.3669ZM121.682 23.2956C121.1 23.0493 120.572 22.6799 120.128 22.2098C119.693 21.7476 119.355 21.1933 119.135 20.583C118.899 19.9389 118.779 19.2531 118.782 18.5617C118.771 17.861 118.891 17.165 119.135 16.5141C119.384 15.9015 119.744 15.3473 120.195 14.8835C120.631 14.4018 121.153 14.0185 121.732 13.7564C122.347 13.4816 123.008 13.3436 123.675 13.3507C124.323 13.3436 124.966 13.4712 125.568 13.7264C126.131 13.9633 126.642 14.32 127.07 14.7746C127.499 15.2361 127.838 15.784 128.066 16.3864C128.31 17.0307 128.43 17.7206 128.419 18.4152V19.0952H120.17C120.23 19.7633 120.466 20.4 120.851 20.9317C121.236 21.4635 121.754 21.8688 122.346 22.1008C122.782 22.262 123.241 22.3421 123.703 22.3375C124.342 22.3749 124.978 22.2141 125.533 21.8746C126.088 21.5351 126.538 21.0316 126.829 20.4252L128.041 21.1766C127.595 21.9316 126.99 22.5668 126.275 23.0326C125.489 23.498 124.599 23.7266 123.699 23.6938C123.009 23.7012 122.324 23.566 121.682 23.2956ZM122.41 14.9324C122.032 15.0777 121.684 15.2969 121.382 15.5786C121.079 15.8529 120.824 16.1824 120.63 16.5517C120.426 16.931 120.282 17.3436 120.206 17.7727H126.964C126.899 16.9035 126.518 16.0956 125.9 15.5219C125.283 14.9482 124.479 14.6544 123.661 14.7032C123.234 14.6998 122.811 14.7774 122.41 14.9324ZM131.973 9V23.4872H130.56V9H131.973ZM135.88 23.4609C135.497 23.3274 135.143 23.1113 134.842 22.8259C134.574 22.568 134.362 22.2514 134.22 21.8979C134.079 21.5413 134.008 21.1577 134.012 20.7708C133.992 20.3042 134.087 19.8401 134.285 19.4236C134.484 19.007 134.78 18.6519 135.146 18.3926C135.898 17.8366 136.933 17.5548 138.247 17.5548H141.201V17.1791C141.217 16.8387 141.164 16.4985 141.047 16.1812C140.93 15.8638 140.751 15.5765 140.522 15.3381C140.067 14.8798 139.381 14.6506 138.473 14.6506C137.882 14.6173 137.294 14.7553 136.771 15.0497C136.247 15.3441 135.809 15.784 135.502 16.3225L134.276 15.4959C134.739 14.8503 135.329 14.3195 136.004 13.9405C136.771 13.5344 137.62 13.3356 138.477 13.3619C139.076 13.3515 139.672 13.4441 140.243 13.6362C140.717 13.7981 141.152 14.0644 141.522 14.4177C141.869 14.7553 142.141 15.1712 142.317 15.6349C142.498 16.1266 142.588 16.651 142.582 17.1791V23.4872H141.201V21.7439C140.778 22.3629 140.212 22.8559 139.558 23.1753C138.865 23.5194 138.108 23.6952 137.343 23.69C136.847 23.701 136.352 23.6235 135.88 23.4609ZM138.636 22.221C138.984 22.1231 139.32 21.9806 139.636 21.7965C139.958 21.6068 140.255 21.3718 140.519 21.0977C140.791 20.8188 141.021 20.4969 141.201 20.1434V18.7683H138.314C137.336 18.7683 136.615 18.9299 136.156 19.2455C135.808 19.5007 135.571 19.8922 135.494 20.3339C135.418 20.7756 135.51 21.2314 135.75 21.6011C135.815 21.7001 135.89 21.7919 135.972 21.8754C136.437 22.2434 137.013 22.4172 137.59 22.3638C137.948 22.3659 138.304 22.3191 138.65 22.2248L138.636 22.221ZM144.14 26.7596C143.769 26.6167 143.429 26.3985 143.137 26.1171L144.055 24.8848C144.225 25.0815 144.423 25.2488 144.642 25.3807C144.877 25.509 145.14 25.5723 145.405 25.5648C145.623 25.5687 145.841 25.5383 146.051 25.4746C146.248 25.4068 146.431 25.2983 146.588 25.1553C146.776 24.9665 146.935 24.7487 147.061 24.5091C147.24 24.182 147.402 23.8446 147.545 23.4984L147.754 23.0213L143.843 13.5648H145.383L148.496 21.248L151.46 13.5648H153L148.761 23.9305C148.562 24.4163 148.334 24.8881 148.079 25.3432C147.881 25.7003 147.633 26.0234 147.344 26.3012C147.089 26.5379 146.792 26.7192 146.472 26.8347C145.702 27.0784 144.88 27.0521 144.126 26.7596H144.14Z" fill="black"/>
<path d="M38 23.7813H41.0353V17.6146H46.8747V15.0123H41.0353V11.4551H47.5056V8.85285H38V23.7813Z" fill="black"/>
<path d="M49.0212 23.7813H52.0075V12.585H49.0212V23.7813ZM50.5213 11.1417C51.4116 11.1417 52.1407 10.4346 52.1407 9.5672C52.1407 8.70706 51.4116 8 50.5213 8C49.6381 8 48.909 8.70706 48.909 9.5672C48.909 10.4346 49.6381 11.1417 50.5213 11.1417Z" fill="black"/>
<path d="M53.9296 23.7813H56.9159V17.4469C56.9159 16.0692 57.8833 15.1216 59.2012 15.1216C59.6148 15.1216 60.1826 15.1945 60.463 15.2893V12.5339C60.1966 12.4683 59.8251 12.4246 59.5236 12.4246C58.3179 12.4246 57.3295 13.1535 56.9369 14.5385H56.8248V12.585H53.9296V23.7813Z" fill="black"/>
<path d="M65.9427 24C68.6066 24 70.4011 22.6515 70.8217 20.574L68.0598 20.3845C67.7583 21.2374 66.9872 21.682 65.9918 21.682C64.4987 21.682 63.5523 20.6542 63.5523 18.985V18.9777H70.8848V18.1248C70.8848 14.3198 68.6697 12.4392 65.8236 12.4392C62.655 12.4392 60.6011 14.779 60.6011 18.2342C60.6011 21.7841 62.627 24 65.9427 24ZM63.5523 17.0533C63.6154 15.7777 64.5478 14.7572 65.8726 14.7572C67.1695 14.7572 68.0668 15.7194 68.0738 17.0533H63.5523Z" fill="black"/>
<path d="M78.1539 12.585H76.0158V11.8342C76.0158 11.0761 76.3103 10.6314 77.1865 10.6314C77.544 10.6314 77.9085 10.7116 78.1469 10.7918L78.6726 8.45923C78.3011 8.3426 77.4809 8.15307 76.5626 8.15307C74.5367 8.15307 73.0296 9.34123 73.0296 11.7759V12.585H71.5084V14.9175H73.0296V23.7813H76.0158V14.9175H78.1539V12.585Z" fill="black"/>
<path d="M83.9877 24C87.2543 24 89.2872 21.6747 89.2872 18.2269C89.2872 14.7572 87.2543 12.4392 83.9877 12.4392C80.721 12.4392 78.6881 14.7572 78.6881 18.2269C78.6881 21.6747 80.721 24 83.9877 24ZM84.0017 21.5945C82.4945 21.5945 81.7234 20.1585 81.7234 18.205C81.7234 16.2515 82.4945 14.8082 84.0017 14.8082C85.4808 14.8082 86.2519 16.2515 86.2519 18.205C86.2519 20.1585 85.4808 21.5945 84.0017 21.5945Z" fill="black"/>
<path d="M92.8498 12.585H89.7653L92.8498 18.1831L89.6532 23.7813H92.7376L94.8266 19.9107L96.9506 23.7813H100L96.7964 18.1831L99.9159 12.585H96.8525L94.8266 16.4993L92.8498 12.585Z" fill="black"/>
<path d="M159 23.7813H161.976V18.9412H164.477C167.713 18.9412 169.596 16.8929 169.596 13.9116C169.596 10.9449 167.748 8.85285 164.552 8.85285H159V23.7813ZM161.976 16.4118V11.4333H163.982C165.7 11.4333 166.532 12.4246 166.532 13.9116C166.532 15.3913 165.7 16.4118 163.996 16.4118H161.976Z" fill="black"/>
<path d="M171.013 23.7813H173.941V17.4469C173.941 16.0692 174.889 15.1216 176.181 15.1216C176.586 15.1216 177.143 15.1945 177.418 15.2893V12.5339C177.157 12.4683 176.793 12.4246 176.497 12.4246C175.315 12.4246 174.346 13.1535 173.961 14.5385H173.851V12.585H171.013V23.7813Z" fill="black"/>
<path d="M182.79 24C185.401 24 187.16 22.6515 187.572 20.574L184.865 20.3845C184.569 21.2374 183.814 21.682 182.838 21.682C181.374 21.682 180.446 20.6542 180.446 18.985V18.9777H187.634V18.1248C187.634 14.3198 185.463 12.4392 182.673 12.4392C179.567 12.4392 177.553 14.779 177.553 18.2342C177.553 21.7841 179.539 24 182.79 24ZM180.446 17.0533C180.508 15.7777 181.422 14.7572 182.721 14.7572C183.992 14.7572 184.872 15.7194 184.879 17.0533H180.446Z" fill="black"/>
<path d="M189.084 23.7813H192.011V17.0606C192.011 15.8214 192.753 14.9977 193.729 14.9977C194.691 14.9977 195.337 15.6975 195.337 16.7982V23.7813H198.175V16.944C198.175 15.785 198.801 14.9977 199.866 14.9977C200.8 14.9977 201.501 15.6173 201.501 16.8638V23.7813H204.422V16.2515C204.422 13.8241 203.061 12.4392 201.096 12.4392C199.55 12.4392 198.347 13.2774 197.914 14.5604H197.804C197.468 13.2629 196.389 12.4392 194.939 12.4392C193.516 12.4392 192.437 13.241 191.998 14.5604H191.874V12.585H189.084V23.7813Z" fill="black"/>
<path d="M206.273 23.7813H209.201V12.585H206.273V23.7813ZM207.744 11.1417C208.617 11.1417 209.331 10.4346 209.331 9.5672C209.331 8.70706 208.617 8 207.744 8C206.878 8 206.163 8.70706 206.163 9.5672C206.163 10.4346 206.878 11.1417 207.744 11.1417Z" fill="black"/>
<path d="M217.854 19.0141C217.861 20.5157 216.892 21.303 215.84 21.303C214.734 21.303 214.019 20.4793 214.012 19.1599V12.585H211.085V19.7139C211.092 22.3308 212.535 23.9271 214.658 23.9271C216.246 23.9271 217.387 23.0597 217.861 21.7476H217.971V23.7813H220.781V12.585H217.854V19.0141Z" fill="black"/>
<path d="M222.662 23.7813H225.589V17.0606C225.589 15.8214 226.332 14.9977 227.307 14.9977C228.269 14.9977 228.915 15.6975 228.915 16.7982V23.7813H231.754V16.944C231.754 15.785 232.379 14.9977 233.444 14.9977C234.379 14.9977 235.079 15.6173 235.079 16.8638V23.7813H238V16.2515C238 13.8241 236.639 12.4392 234.674 12.4392C233.128 12.4392 231.925 13.2774 231.492 14.5604H231.382C231.046 13.2629 229.967 12.4392 228.517 12.4392C227.094 12.4392 226.016 13.241 225.576 14.5604H225.452V12.585H222.662V23.7813Z" fill="black"/>
<defs>
<linearGradient id="paint0_linear_125_91" x1="8.26892e-05" y1="16.9583" x2="29.1027" y2="16.9583" gradientUnits="userSpaceOnUse">
<stop stop-color="#9059FF"/>
<stop offset="1" stop-color="#F770FF"/>
</linearGradient>
</defs>
</svg>
