<svg id="Mozilla" data-name="Mozilla" xmlns="http://www.w3.org/2000/svg" viewBox="0 0 2000 571.9"><title>Mozilla</title><rect width="2000" height="571.9" fill="#ffffff"/><path fill="#000000" d="M1910.2,410.5a38.17,38.17,0,0,1-10.5,1.7c-11.7,0-17.2-5-17.2-19.4V284.1c0-57.1-45.5-84.9-99.3-84.9-41.1,0-63.2,5-107.1,22.7l-9.8,57.6,57.1,6.1,8.1-28.2c11.7-6.1,23.3-7.2,38.3-7.2,40.5,0,41.1,30.5,41.1,56v8.3c-12.8-1.7-27.2-2.2-41.1-2.2-57.1,0-116.5,14.4-116.5,76,0,52.1,41,71.6,77.1,71.6,40.5,0,66-24.4,80.4-49.9,3.3,30.5,21.6,49.9,54.9,49.9a95.62,95.62,0,0,0,44.9-11.7Zm-153.6-1.6c-21.6,0-29.4-12.8-29.4-28.9,0-27.2,22.2-34.4,47.7-34.4,11.6,0,24.4,1.7,36.1,3.3C1809.3,390.6,1782.1,408.9,1756.6,408.9ZM1660.5,72.7,1552.3,454.4h-70.5L1590,72.7Zm-145.3,0L1407,454.4h-70.4L1444.8,72.7h70.4ZM1214.8,204.2h74.9V294h-74.9Zm0,160.3h74.9v89.9h-74.9Zm-109-3.3,56.6,5.5-15.5,87.7H928.3l-7.2-37.7,137.6-158.1H980.5l-11.1,38.8-51.6-5.6,8.9-87.7h219.7l5.6,37.7L1013.2,400h81Zm-358.5-162c-89.9,0-134.3,60.5-134.3,133.7,0,79.9,53.3,127,130.4,127,79.9,0,137.6-50.5,137.6-130.4C881,259.6,837.1,199.2,747.3,199.2ZM745.6,405c-38.8,0-58.8-33.3-58.8-76.6,0-47.2,22.7-74.3,59.4-74.3,33.8,0,61,22.7,61,73.2C807.2,375,782.8,405,745.6,405Zm-197-5h33.3v54.4H477V313.5c0-43.3-14.4-59.9-42.7-59.9C399.9,253.6,386,278,386,313v87h33.3v54.4H314.5V313.5c0-43.3-14.4-59.9-42.7-59.9-34.4,0-48.3,24.4-48.3,59.4v87h47.7v54.4H118.7V400H152V258.5H118.7V204.1H223.5v37.7c15-26.6,41.1-42.7,76-42.7,36.1,0,69.3,17.2,81.6,53.8,13.9-33.3,42.2-53.8,81.6-53.8,44.9,0,86,27.2,86,86.5V400Z"/></svg>
