<svg width="234.834" height="80" fill="none" viewBox="0 0 234.834 80" xmlns="http://www.w3.org/2000/svg"><path d="M86.637 22.462h4.416V9.602l6.4 11.658 6.369-11.658v12.86h4.447V1.821h-4.447l-6.369 11.657-6.4-11.657h-4.416v20.641zm33.385.36c4.597 0 8.442-3.725 8.442-8.142s-3.845-8.112-8.442-8.112c-4.627 0-8.503 3.695-8.503 8.112s3.876 8.142 8.503 8.142zm0-3.695c-2.344 0-4.297-2.043-4.297-4.447s1.953-4.417 4.297-4.417c2.313 0 4.266 2.013 4.266 4.417s-1.953 4.447-4.266 4.447zm10.721 3.335h13.58v-3.726h-7.872l7.812-8.713V6.928h-13.31v3.726h7.602l-7.812 8.713v3.095zm18.876-17.667a2.378 2.378 0 0 0 2.343-2.403 2.387 2.387 0 0 0-2.343-2.344c-1.352 0-2.404 1.112-2.404 2.344a2.391 2.391 0 0 0 2.404 2.403zm-2.224 17.667h4.387V6.928h-4.387v15.534zm8.215 0h4.387V1.46h-4.387v21.002zm8.215 0h4.387V1.46h-4.387v21.002zM178.98 6.568c-2.161 0-4.294.601-6.487 1.712l1.472 2.915c1.232-.631 2.584-1.112 4.026-1.112 2.554 0 3.576 1.442 3.576 3.095v.3a11.227 11.227 0 0 0-3.966-.781c-3.606 0-6.46 2.103-6.46 5.168 0 2.974 2.554 4.957 5.859 4.957 1.682 0 3.455-.661 4.567-1.923v1.563h4.236v-9.284c0-4.056-2.764-6.61-6.82-6.61zm-.989 13.22c-1.502 0-2.614-.782-2.614-2.043 0-1.262 1.262-2.194 2.855-2.194 1.201 0 2.343.211 3.335.571v1.442c-.301 1.442-1.893 2.224-3.576 2.224zm-53.407 12.098l-13.811 33.931-13.811-33.931H85.325l19.629 48.162h11.567l19.63-48.162h-11.567zm17.245 48.162h10.306V64.415h11.357c10.446 0 18.157-6.731 18.157-16.265s-7.711-16.264-18.157-16.264h-21.663v48.162zm10.306-25.098v-13.6h10.235c5.118 0 8.623 2.664 8.623 6.8 0 4.136-3.505 6.8-8.623 6.8h-10.235zm36.395 25.098h10.305V48.921l23.205 31.127h10.375V31.886H222.04v31.126l-23.205-31.126H188.53v48.162z" fill="#1d1133"/><path fill-rule="evenodd" clip-rule="evenodd" d="M39.346 8.941c-4.626 0-7.517 5.008-5.204 9.014a6.008 6.008 0 0 0 5.204 3.004c4.625 0 7.516-5.007 5.204-9.013a6.012 6.012 0 0 0-5.204-3.005zM25.325 14.95C25.327 4.157 37.013-2.586 46.359 2.812c9.346 5.399 9.343 18.891-.006 24.286a14.019 14.019 0 0 1-13.677.188l-6.034 6.034c.458.839.828 1.731 1.106 2.662h23.195c3.085-10.343 16.209-13.469 23.625-5.626 7.415 7.843 3.559 20.772-6.941 23.273a14.021 14.021 0 0 1-9.914-1.305l-6.034 6.034c5.133 9.495-1.937 20.986-12.726 20.684-10.789-.302-17.206-12.171-11.55-21.364 3.899-6.335 12.066-8.524 18.61-4.986l6.034-6.034a13.934 13.934 0 0 1-1.104-2.664H27.748C24.664 54.337 11.539 57.463 4.124 49.62c-7.416-7.843-3.56-20.772 6.94-23.273a14.02 14.02 0 0 1 9.914 1.305l6.032-6.029a13.959 13.959 0 0 1-1.685-6.673zm8.012 50.076c0-4.626 5.007-7.517 9.013-5.204a6.01 6.01 0 0 1 3.005 5.204c0 4.625-5.008 7.516-9.014 5.203a6.008 6.008 0 0 1-3.004-5.203zM14.308 33.979c-4.626 0-7.517 5.007-5.204 9.013a6.008 6.008 0 0 0 5.204 3.005c4.626 0 7.517-5.008 5.204-9.014a6.008 6.008 0 0 0-5.204-3.004zm44.066 6.009c0-4.626 5.008-7.517 9.014-5.204a6.008 6.008 0 0 1 3.004 5.204c0 4.626-5.007 7.517-9.013 5.204a6.008 6.008 0 0 1-3.005-5.204z" fill="#1d1133"/></svg>
