<svg xmlns="http://www.w3.org/2000/svg" xmlns:xlink="http://www.w3.org/1999/xlink" viewBox="0 0 261.88 287.45"><defs><style>.cls-1{fill:#20123a;}.cls-2{fill:url(#linear-gradient);}.cls-3{fill:url(#linear-gradient-2);}.cls-4{fill:url(#linear-gradient-3);}.cls-5{fill:url(#linear-gradient-4);}.cls-6{fill:url(#linear-gradient-5);}.cls-7{fill:url(#linear-gradient-6);}.cls-8{fill:url(#linear-gradient-7);}.cls-9{fill:url(#linear-gradient-8);}.cls-10{fill:url(#linear-gradient-9);}</style><linearGradient id="linear-gradient" x1="48.04" y1="112.7" x2="233.08" y2="112.7" gradientTransform="matrix(1, 0, 0, -1, -6.5, 298.27)" gradientUnits="userSpaceOnUse"><stop offset="0" stop-color="#9059ff"/><stop offset="1" stop-color="#f770ff"/></linearGradient><linearGradient id="linear-gradient-2" x1="48.04" y1="132.89" x2="233.08" y2="132.89" xlink:href="#linear-gradient"/><linearGradient id="linear-gradient-3" x1="48.04" y1="154.97" x2="233.08" y2="154.97" xlink:href="#linear-gradient"/><linearGradient id="linear-gradient-4" x1="48.04" y1="176.86" x2="233.08" y2="176.86" xlink:href="#linear-gradient"/><linearGradient id="linear-gradient-5" x1="48.04" y1="197.25" x2="233.08" y2="197.25" xlink:href="#linear-gradient"/><linearGradient id="linear-gradient-6" x1="48.04" y1="112.98" x2="233.08" y2="112.98" xlink:href="#linear-gradient"/><linearGradient id="linear-gradient-7" x1="48.04" y1="132.68" x2="233.08" y2="132.68" xlink:href="#linear-gradient"/><linearGradient id="linear-gradient-8" x1="48.04" y1="177" x2="233.08" y2="177" xlink:href="#linear-gradient"/><linearGradient id="linear-gradient-9" x1="48.04" y1="197.29" x2="233.08" y2="197.29" xlink:href="#linear-gradient"/></defs><g id="Layer_2" data-name="Layer 2"><g id="eeb09675-565f-404a-90f3-b8df8e06f4fa"><path class="cls-1" d="M249.09,62.58l-106-59.4a25,25,0,0,0-24.39,0l-106,59.4A24.92,24.92,0,0,0,0,84.34V203.13a24.94,24.94,0,0,0,12.75,21.75l106,59.4a25,25,0,0,0,24.39,0l106-59.4a24.93,24.93,0,0,0,12.74-21.75V84.34A24.94,24.94,0,0,0,249.09,62.58Z"/><path class="cls-2" d="M56.85,175.05l-6.48,3.66a9.93,9.93,0,1,0,9.24,17.57l.53-.29,6.48-3.71A9.92,9.92,0,1,0,56.85,175Z"/><path class="cls-3" d="M95.81,153l-13,7.35a9.93,9.93,0,1,0,9.24,17.57l.53-.29,13-7.34a9.93,9.93,0,0,0-9.64-17.37l-.13.08Z"/><path class="cls-4" d="M148.3,134.74a9.82,9.82,0,0,0-5.21-4.39V55.19a9.93,9.93,0,0,0-19.85-.63q0,.31,0,.63v75.16a9.79,9.79,0,0,0-5.89,12.54l.15.39a9.82,9.82,0,0,0,5.33,12.83l.42.17v75.14a9.93,9.93,0,1,0,19.85.63q0-.31,0-.63V156.28A9.84,9.84,0,0,0,149,143.67l-.15-.39A9.86,9.86,0,0,0,148.3,134.74Z"/><path class="cls-5" d="M173.73,109l-13,7.35A9.93,9.93,0,1,0,170,133.87l.53-.29,13-7.3A9.93,9.93,0,0,0,173.72,109Z"/><path class="cls-6" d="M204.6,112.84a10.05,10.05,0,0,0,4.88-1.29l6.48-3.67a9.93,9.93,0,0,0-9.42-17.49l-.36.21-6.47,3.68a9.93,9.93,0,0,0,4.89,18.57Z"/><path class="cls-7" d="M216,178.71l-6.46-3.66a9.92,9.92,0,0,0-10.62,16.76c.27.17.55.32.83.47l6.48,3.67A9.93,9.93,0,0,0,216,178.67Z"/><path class="cls-8" d="M183.5,160.36l-13-7.35a9.93,9.93,0,0,0-9.75,17.27l13,7.34A9.93,9.93,0,0,0,184.55,161,9.07,9.07,0,0,0,183.5,160.36Z"/><path class="cls-9" d="M82.82,126.28l13,7.35a10,10,0,1,0,9.76-17.35h0l-13-7.35a10,10,0,0,0-9.76,17.35Z"/><path class="cls-10" d="M66.62,94.28l-6.48-3.67A9.93,9.93,0,1,0,50,107.68l.36.21,6.48,3.67a9.93,9.93,0,0,0,9.78-17.28Z"/></g></g></svg>