<svg id="eeb09675-565f-404a-90f3-b8df8e06f4fa" data-name="Layer 1" xmlns="http://www.w3.org/2000/svg" xmlns:xlink="http://www.w3.org/1999/xlink" viewBox="0 0 287.5 297.27"><defs><linearGradient id="e455c9c9-879b-4f06-9e3a-b7bb6c5fc777" x1="260.87" y1="267.52" x2="218.86" y2="227.75" gradientUnits="userSpaceOnUse"><stop offset="0" stop-color="#054096" stop-opacity="0.5"/><stop offset="0.05" stop-color="#0f3d9c" stop-opacity="0.44"/><stop offset="0.26" stop-color="#2f35b1" stop-opacity="0.25"/><stop offset="0.47" stop-color="#462fbf" stop-opacity="0.11"/><stop offset="0.67" stop-color="#542bc8" stop-opacity="0.03"/><stop offset="0.86" stop-color="#592acb" stop-opacity="0"/></linearGradient><linearGradient id="a7de2a06-de64-4088-9bc9-6774d2e26404" x1="48.04" y1="187.24" x2="233.08" y2="187.24" gradientUnits="userSpaceOnUse"><stop offset="0" stop-color="#9059ff"/><stop offset="1" stop-color="#f770ff"/></linearGradient><linearGradient id="a21cd5d1-71a1-4e5b-aac8-ccee93a78698" x1="48.04" y1="167.05" x2="233.08" y2="167.05" xlink:href="#a7de2a06-de64-4088-9bc9-6774d2e26404"/><linearGradient id="a0ac2feb-37de-46c8-9680-f6dcd1f8e29a" x1="48.04" y1="145.02" x2="233.08" y2="145.02" xlink:href="#a7de2a06-de64-4088-9bc9-6774d2e26404"/><linearGradient id="ebc13af1-77f0-4780-827a-23e1d30a80c4" x1="48.04" y1="122.98" x2="233.08" y2="122.98" xlink:href="#a7de2a06-de64-4088-9bc9-6774d2e26404"/><linearGradient id="a46bb057-fd1b-4946-b794-18e742b2efae" x1="48.04" y1="102.79" x2="233.08" y2="102.79" xlink:href="#a7de2a06-de64-4088-9bc9-6774d2e26404"/><linearGradient id="b94b69c6-b53c-4274-9b42-0aafdb4957cc" x1="146.37" y1="228.46" x2="298.01" y2="292.62" gradientUnits="userSpaceOnUse"><stop offset="0" stop-color="#54ffbd"/><stop offset="1" stop-color="#0df"/></linearGradient></defs><path d="M264.07,193H142.71a6.47,6.47,0,0,0-6.47,6.47V218.9A51.78,51.78,0,0,0,188,270.68h67.15A38.84,38.84,0,0,0,294,231.84v-17C294,205.15,284.29,193,264.07,193Z" transform="translate(-6.5 -1.72)" fill="#008787"/><g opacity="0.9"><path d="M264.07,193H142.71a6.47,6.47,0,0,0-6.47,6.47V218.9A51.78,51.78,0,0,0,188,270.68h67.15A38.84,38.84,0,0,0,294,231.84v-17C294,205.15,284.29,193,264.07,193Z" transform="translate(-6.5 -1.72)" fill="url(#e455c9c9-879b-4f06-9e3a-b7bb6c5fc777)"/></g><path d="M255.59,64.3l-106-59.4a25,25,0,0,0-24.39,0l-106,59.4A24.94,24.94,0,0,0,6.5,86.06V204.85A24.92,24.92,0,0,0,19.25,226.6l106,59.4a25,25,0,0,0,24.39,0l106-59.4a24.93,24.93,0,0,0,12.74-21.75V86.06A24.93,24.93,0,0,0,255.59,64.3Z" transform="translate(-6.5 -1.72)" fill="#20123a"/><path d="M63.35,176.77l-6.48,3.66a9.93,9.93,0,1,0,9.77,17.28L73.12,194a9.92,9.92,0,1,0-9.77-17.27Z" transform="translate(-6.5 -1.72)" fill="url(#a7de2a06-de64-4088-9bc9-6774d2e26404)"/><path d="M102.31,154.73l-13,7.35a9.93,9.93,0,1,0,9.77,17.28l13-7.34a9.93,9.93,0,1,0-9.77-17.29Z" transform="translate(-6.5 -1.72)" fill="url(#a21cd5d1-71a1-4e5b-aac8-ccee93a78698)"/><path d="M154.8,136.46a9.87,9.87,0,0,0-5.21-4.39V56.91a9.93,9.93,0,1,0-19.85,0v75.16A9.8,9.8,0,0,0,124,145a9.83,9.83,0,0,0,5.75,13v75.14a9.93,9.93,0,1,0,19.85,0V158a9.84,9.84,0,0,0,5.74-13A9.87,9.87,0,0,0,154.8,136.46Z" transform="translate(-6.5 -1.72)" fill="url(#a0ac2feb-37de-46c8-9680-f6dcd1f8e29a)"/><path d="M180.23,110.67l-13,7.35A9.93,9.93,0,1,0,177,135.3L190,128a9.93,9.93,0,0,0-9.78-17.28Z" transform="translate(-6.5 -1.72)" fill="url(#ebc13af1-77f0-4780-827a-23e1d30a80c4)"/><path d="M211.1,114.56a9.9,9.9,0,0,0,4.88-1.29l6.48-3.67a9.93,9.93,0,1,0-9.78-17.28L206.21,96a9.93,9.93,0,0,0,4.89,18.57Z" transform="translate(-6.5 -1.72)" fill="url(#a46bb057-fd1b-4946-b794-18e742b2efae)"/><path d="M222.46,180.43,216,176.77A9.92,9.92,0,1,0,206.21,194l6.48,3.67a9.93,9.93,0,0,0,9.77-17.28Z" transform="translate(-6.5 -1.72)" fill="url(#a7de2a06-de64-4088-9bc9-6774d2e26404)"/><path d="M190,162.08l-13-7.35A9.93,9.93,0,0,0,167.25,172l13,7.34A9.93,9.93,0,1,0,190,162.08Z" transform="translate(-6.5 -1.72)" fill="url(#a21cd5d1-71a1-4e5b-aac8-ccee93a78698)"/><path d="M89.32,128l13,7.35A9.93,9.93,0,0,0,112.08,118l-13-7.35A9.93,9.93,0,0,0,89.32,128Z" transform="translate(-6.5 -1.72)" fill="url(#ebc13af1-77f0-4780-827a-23e1d30a80c4)"/><path d="M73.12,96l-6.48-3.67a9.93,9.93,0,1,0-9.78,17.28l6.48,3.67A9.93,9.93,0,0,0,73.12,96Z" transform="translate(-6.5 -1.72)" fill="url(#a46bb057-fd1b-4946-b794-18e742b2efae)"/><path d="M287.53,221.33H176a47.81,47.81,0,0,0-47.81,47.81v23.38a6.47,6.47,0,0,0,6.47,6.47H246.19A47.81,47.81,0,0,0,294,251.18V214.85A6.48,6.48,0,0,1,287.53,221.33Z" transform="translate(-6.5 -1.72)" fill="url(#b94b69c6-b53c-4274-9b42-0aafdb4957cc)"/><path d="M178.07,259.72a7.08,7.08,0,0,0,3.7-6.51c0-5.77-4-9-11.14-9H157.34v32.12h13.38c7.13,0,11.53-3.16,11.53-9.5A7.48,7.48,0,0,0,178.07,259.72Zm-14.61-10h7.31c3.25,0,4.79,1.36,4.79,3.61s-1.41,3.83-4.71,3.83h-7.39Zm7.35,21h-7.35v-8h7.09c3.91,0,5.41,1.45,5.41,4S174.2,270.76,170.81,270.76Z" transform="translate(-6.5 -1.72)" fill="#20123a"/><polygon points="181.69 274.63 203.3 274.63 203.3 268.74 187.89 268.74 187.89 261.43 203.3 261.43 203.3 255.58 187.89 255.58 187.89 248.36 203.3 248.36 203.3 242.51 181.69 242.51 181.69 274.63" fill="#20123a"/><polygon points="232.51 242.51 208.62 242.51 208.62 248.23 217.55 248.23 217.55 274.63 223.67 274.63 223.67 248.23 232.51 248.23 232.51 242.51" fill="#20123a"/><path d="M255.65,244.23h-6.12l-12.15,32.12h6.39l2.11-5.85H259.3l2.11,5.85h6.38ZM248,264.87l4.66-12.76,4.62,12.76Z" transform="translate(-6.5 -1.72)" fill="#20123a"/></svg>