<svg xmlns="http://www.w3.org/2000/svg" xmlns:xlink="http://www.w3.org/1999/xlink" viewBox="0 0 261.88 287.45"><defs><style>.cls-1{fill:#20123a;}.cls-2{fill:url(#linear-gradient);}.cls-3{fill:url(#linear-gradient-2);}.cls-4{fill:url(#linear-gradient-3);}.cls-5{fill:url(#linear-gradient-4);}.cls-6{fill:url(#linear-gradient-5);}.cls-7{fill:url(#linear-gradient-6);}.cls-8{fill:url(#linear-gradient-7);}.cls-9{fill:url(#linear-gradient-8);}.cls-10{fill:url(#linear-gradient-9);}</style><linearGradient id="linear-gradient" x1="42.91" y1="185.57" x2="217.25" y2="185.57" gradientUnits="userSpaceOnUse"><stop offset="0" stop-color="#9059ff"/><stop offset="1" stop-color="#f770ff"/></linearGradient><linearGradient id="linear-gradient-2" x1="42.91" y1="165.38" x2="217.25" y2="165.38" xlink:href="#linear-gradient"/><linearGradient id="linear-gradient-3" x1="42.91" y1="143.3" x2="217.25" y2="143.3" xlink:href="#linear-gradient"/><linearGradient id="linear-gradient-4" x1="42.91" y1="121.41" x2="217.25" y2="121.41" xlink:href="#linear-gradient"/><linearGradient id="linear-gradient-5" x1="42.91" y1="101.02" x2="217.25" y2="101.02" xlink:href="#linear-gradient"/><linearGradient id="linear-gradient-6" x1="42.91" y1="185.3" x2="217.25" y2="185.3" xlink:href="#linear-gradient"/><linearGradient id="linear-gradient-7" x1="42.91" y1="165.59" x2="217.25" y2="165.59" xlink:href="#linear-gradient"/><linearGradient id="linear-gradient-8" x1="42.91" y1="121.28" x2="217.25" y2="121.28" xlink:href="#linear-gradient"/><linearGradient id="linear-gradient-9" x1="42.91" y1="100.98" x2="217.25" y2="100.98" xlink:href="#linear-gradient"/></defs><g id="Layer_2" data-name="Layer 2"><g id="Layer_1-2" data-name="Layer 1"><path class="cls-1" d="M249.09,62.58l-106-59.4a25,25,0,0,0-24.39,0l-106,59.4A24.91,24.91,0,0,0,0,84.34V203.13a24.93,24.93,0,0,0,12.75,21.75l106,59.4a25,25,0,0,0,24.39,0l106-59.4a24.95,24.95,0,0,0,12.74-21.75V84.34a24.94,24.94,0,0,0-12.79-21.76Z"/><path class="cls-2" d="M56.85,175.05l-6.48,3.66a9.84,9.84,0,0,0-3.06,2.49,10.12,10.12,0,0,0-1.85,3.49,9.9,9.9,0,0,0-.33,3.94,9.74,9.74,0,0,0,1.22,3.75,9.9,9.9,0,0,0,2.59,3,9.74,9.74,0,0,0,3.54,1.73A10,10,0,0,0,60.14,196l6.48-3.71a9.93,9.93,0,0,0,3.75-13.52,9.91,9.91,0,0,0-6-4.68,10.07,10.07,0,0,0-3.86-.29A9.76,9.76,0,0,0,56.85,175Z"/><path class="cls-3" d="M95.81,153l-13,7.35a9.84,9.84,0,0,0-3.06,2.49,10.12,10.12,0,0,0-1.85,3.49,9.9,9.9,0,0,0-.33,3.94A9.74,9.74,0,0,0,78.79,174a9.9,9.9,0,0,0,2.59,3,9.74,9.74,0,0,0,3.54,1.73,10,10,0,0,0,7.66-1.11l13-7.34a9.91,9.91,0,0,0,4.74-6,10,10,0,0,0,.3-3.88,9.89,9.89,0,0,0-3.76-6.65,9.82,9.82,0,0,0-3.48-1.74,9.83,9.83,0,0,0-7.57,1Z"/><path class="cls-4" d="M148.3,134.74a9.86,9.86,0,0,0-5.21-4.39V55.19a10,10,0,0,0-.66-3.9A9.9,9.9,0,0,0,137,45.73a9.9,9.9,0,0,0-7.75,0,9.9,9.9,0,0,0-5.39,5.56,10,10,0,0,0-.66,3.9v75.16a9.8,9.8,0,0,0-5.74,12.93,9.85,9.85,0,0,0,.1,7.73,9.82,9.82,0,0,0,5.65,5.27v75.14a9.94,9.94,0,0,0,6.05,9.46,10,10,0,0,0,7.75,0,9.93,9.93,0,0,0,6-9.46V156.28a10,10,0,0,0,3.36-2.06,9.74,9.74,0,0,0,2.28-3.22,9.83,9.83,0,0,0,.1-7.72,9.9,9.9,0,0,0-.54-8.54Z"/><path class="cls-5" d="M173.73,109l-13,7.35a9.84,9.84,0,0,0-3.06,2.49,10.12,10.12,0,0,0-1.85,3.49,9.9,9.9,0,0,0-.33,3.94,9.74,9.74,0,0,0,1.22,3.75,9.94,9.94,0,0,0,13.79,3.61l13-7.3A9.93,9.93,0,0,0,173.72,109Z"/><path class="cls-6" d="M204.6,112.84a9.94,9.94,0,0,0,4.88-1.29l6.48-3.67a10,10,0,0,0,3-2.51,9.93,9.93,0,0,0-5.18-15.83,9.92,9.92,0,0,0-7.62,1.06l-6.47,3.68a9.93,9.93,0,0,0,4.89,18.57Z"/><path class="cls-7" d="M216,178.71l-6.46-3.66a10,10,0,0,0-3.73-1.42,10.07,10.07,0,0,0-4,.17,9.93,9.93,0,0,0-3.6,1.73,10,10,0,0,0-3.86,6.79,9.9,9.9,0,0,0,2.26,7.48,9.9,9.9,0,0,0,3.12,2.48l6.48,3.67A9.93,9.93,0,0,0,216,178.67Z"/><path class="cls-8" d="M183.5,160.36l-13-7.35a9.93,9.93,0,0,0-9.75,17.27l13,7.34a10,10,0,0,0,7.77,1.31,10.23,10.23,0,0,0,3.63-1.73,9.87,9.87,0,0,0,3.87-6.86,9.91,9.91,0,0,0-5.52-10Z"/><path class="cls-9" d="M82.82,126.28l13,7.35a10,10,0,1,0,9.76-17.35l-13-7.35a10,10,0,0,0-9.76,17.35Z"/><path class="cls-10" d="M66.62,94.28l-6.48-3.67A9.92,9.92,0,0,0,49,91.29a9.74,9.74,0,0,0-2.57,3,9.94,9.94,0,0,0,.91,11.13,10,10,0,0,0,3,2.51l6.48,3.67a9.93,9.93,0,0,0,9.78-17.28Z"/></g></g></svg>