<svg data-name="Layer 1" xmlns="http://www.w3.org/2000/svg" xmlns:xlink="http://www.w3.org/1999/xlink" viewBox="0 0 287.5 297.27"><defs><linearGradient id="b" x1="260.87" y1="267.52" x2="218.86" y2="227.75" gradientUnits="userSpaceOnUse"><stop offset="0" stop-color="#054096" stop-opacity=".5"/><stop offset=".05" stop-color="#0f3d9c" stop-opacity=".44"/><stop offset=".26" stop-color="#2f35b1" stop-opacity=".25"/><stop offset=".47" stop-color="#462fbf" stop-opacity=".11"/><stop offset=".67" stop-color="#542bc8" stop-opacity=".03"/><stop offset=".86" stop-color="#592acb" stop-opacity="0"/></linearGradient><linearGradient id="a" x1="48.04" y1="187.24" x2="233.08" y2="187.24" gradientUnits="userSpaceOnUse"><stop offset="0" stop-color="#9059ff"/><stop offset="1" stop-color="#f770ff"/></linearGradient><linearGradient id="c" x1="48.04" y1="167.05" x2="233.08" y2="167.05" xlink:href="#a"/><linearGradient id="d" x1="48.04" y1="145.02" x2="233.08" y2="145.02" xlink:href="#a"/><linearGradient id="e" x1="48.04" y1="122.98" x2="233.08" y2="122.98" xlink:href="#a"/><linearGradient id="f" x1="48.04" y1="102.79" x2="233.08" y2="102.79" xlink:href="#a"/><linearGradient id="g" x1="146.37" y1="228.46" x2="298.01" y2="292.62" gradientUnits="userSpaceOnUse"><stop offset="0" stop-color="#54ffbd"/><stop offset="1" stop-color="#0df"/></linearGradient></defs><path d="M257.57 191.28H136.21a6.47 6.47 0 00-6.47 6.47v19.43a51.78 51.78 0 0051.76 51.78h67.15a38.84 38.84 0 0038.85-38.84v-17c0-9.69-9.71-21.84-29.93-21.84z" fill="#008787"/><path d="M264.07 193H142.71a6.47 6.47 0 00-6.47 6.47v19.43A51.78 51.78 0 00188 270.68h67.15A38.84 38.84 0 00294 231.84v-17c0-9.69-9.71-21.84-29.93-21.84z" transform="translate(-6.5 -1.72)" fill="url(#b)" opacity=".9"/><path d="M249.09 62.58l-106-59.4a25 25 0 00-24.39 0l-106 59.4A24.94 24.94 0 000 84.34v118.79a24.92 24.92 0 0012.75 21.75l106 59.4a25 25 0 0024.39 0l106-59.4a24.93 24.93 0 0012.74-21.75V84.34a24.93 24.93 0 00-12.79-21.76z" fill="#20123a"/><path d="M63.35 176.77l-6.48 3.66a9.93 9.93 0 109.77 17.28l6.48-3.71a9.92 9.92 0 10-9.77-17.27z" transform="translate(-6.5 -1.72)" fill="url(#a)"/><path d="M102.31 154.73l-13 7.35a9.93 9.93 0 109.77 17.28l13-7.34a9.93 9.93 0 10-9.77-17.29z" transform="translate(-6.5 -1.72)" fill="url(#c)"/><path d="M154.8 136.46a9.87 9.87 0 00-5.21-4.39V56.91a9.93 9.93 0 10-19.85 0v75.16A9.8 9.8 0 00124 145a9.83 9.83 0 005.75 13v75.14a9.93 9.93 0 1019.85 0V158a9.84 9.84 0 005.74-13 9.87 9.87 0 00-.54-8.54z" transform="translate(-6.5 -1.72)" fill="url(#d)"/><path d="M180.23 110.67l-13 7.35A9.93 9.93 0 10177 135.3l13-7.3a9.93 9.93 0 00-9.78-17.28z" transform="translate(-6.5 -1.72)" fill="url(#e)"/><path d="M211.1 114.56a9.9 9.9 0 004.88-1.29l6.48-3.67a9.93 9.93 0 10-9.78-17.28L206.21 96a9.93 9.93 0 004.89 18.57z" transform="translate(-6.5 -1.72)" fill="url(#f)"/><path d="M222.46 180.43l-6.46-3.66a9.92 9.92 0 10-9.79 17.23l6.48 3.67a9.93 9.93 0 009.77-17.28z" transform="translate(-6.5 -1.72)" fill="url(#a)"/><path d="M190 162.08l-13-7.35a9.93 9.93 0 00-9.75 17.27l13 7.34a9.93 9.93 0 109.75-17.26z" transform="translate(-6.5 -1.72)" fill="url(#c)"/><path d="M89.32 128l13 7.35a9.93 9.93 0 009.76-17.35l-13-7.35A9.93 9.93 0 0089.32 128z" transform="translate(-6.5 -1.72)" fill="url(#e)"/><path d="M73.12 96l-6.48-3.67a9.93 9.93 0 10-9.78 17.28l6.48 3.67A9.93 9.93 0 0073.12 96z" transform="translate(-6.5 -1.72)" fill="url(#f)"/><path d="M287.53 221.33H176a47.81 47.81 0 00-47.81 47.81v23.38a6.47 6.47 0 006.47 6.47h111.53A47.81 47.81 0 00294 251.18v-36.33a6.48 6.48 0 01-6.47 6.48z" transform="translate(-6.5 -1.72)" fill="url(#g)"/><path d="M171.57 258a7.08 7.08 0 003.7-6.51c0-5.77-4-9-11.14-9h-13.29v32.12h13.38c7.13 0 11.53-3.16 11.53-9.5a7.48 7.48 0 00-4.18-7.11zm-14.61-10h7.31c3.25 0 4.79 1.36 4.79 3.61s-1.41 3.83-4.71 3.83h-7.39zm7.35 21h-7.35v-8h7.09c3.91 0 5.41 1.45 5.41 4s-1.76 4.04-5.15 4.04zm17.38 5.63h21.61v-5.89h-15.41v-7.31h15.41v-5.85h-15.41v-7.22h15.41v-5.85h-21.61v32.12zm50.82-32.12h-23.89v5.72h8.93v26.4h6.12v-26.4h8.84v-5.72zm16.64 0h-6.12l-12.15 32.12h6.39l2.11-5.85h13.42l2.11 5.85h6.38zm-7.65 20.64l4.66-12.76 4.62 12.76z" fill="#20123a"/></svg>