<?xml version="1.0" encoding="UTF-8" standalone="no"?>
<svg
   width="300"
   height="154"
   viewBox="0 0 300 154"
   fill="none"
   version="1.1"
   id="svg192"
   xmlns="http://www.w3.org/2000/svg"
   xmlns:svg="http://www.w3.org/2000/svg">
  <rect
     width="300"
     height="154"
     rx="8"
     fill="#f770ff"
     id="rect2"
     x="0"
     y="0" />
  <mask
     id="mask0_289_720"
     maskUnits="userSpaceOnUse"
     x="0"
     y="0"
     width="300"
     height="154">
    <rect
       width="300"
       height="154"
       rx="8"
       fill="#f770ff"
       id="rect4"
       x="0"
       y="0" />
  </mask>
  <g
     mask="url(#mask0_289_720)"
     id="g31">
    <path
       opacity="0.2"
       d="m 343.732,131.995 c -16.353,0 -29.759,-5.507 -40.692,-16.644 -12.563,-12.8 -20.093,-31.2459 -26.74,-47.5264 -8.21,-20.1038 -15.301,-37.4694 -29.182,-39.5371 -20.185,-3.0043 -37.325,8.3169 -53.899,19.2593 -14.09,9.3046 -27.404,18.0975 -41.995,18.0975 -5.538,0 -10.069,-2.1138 -13.477,-6.285 -5.885,-7.2062 -8.44,-20.3443 -7.587,-39.0355 0.634,-13.86483 3.015,-25.78992 3.04,-25.91276 0.056,-0.27637 0.322,-0.46062 0.603,-0.39921 0.276,0.0563 0.455,0.32756 0.398,0.60394 -0.097,0.47086 -9.344,47.33703 4.343,64.09863 3.203,3.9205 7.469,5.9114 12.685,5.9114 14.285,0 27.471,-8.7058 41.433,-17.9286 16.737,-11.0499 34.046,-22.4785 54.609,-19.4179 14.453,2.1495 21.647,19.7659 29.974,40.1614 6.611,16.1885 14.106,34.5363 26.525,47.1933 14.213,14.485 32.738,19.27 56.622,14.628 0.276,-0.051 0.547,0.128 0.598,0.404 0.056,0.277 -0.128,0.548 -0.404,0.599 -5.936,1.152 -11.551,1.735 -16.854,1.735 z"
       fill="#9059ff"
       id="path7" />
    <path
       opacity="0.2"
       d="m 240.732,119.995 c -16.353,0 -29.759,-5.507 -40.692,-16.644 C 187.477,90.5507 179.947,72.1051 173.3,55.8246 165.09,35.7208 157.999,18.3552 144.118,16.2875 123.933,13.2832 106.793,24.6044 90.2193,35.5468 76.129,44.8514 62.8153,53.6443 48.2243,53.6443 c -5.538,0 -10.0696,-2.1138 -13.4772,-6.285 C 28.8616,40.1531 26.3072,27.015 27.1604,8.32381 27.7939,-5.54103 30.1746,-17.4661 30.2001,-17.589 c 0.0562,-0.2763 0.3219,-0.4606 0.6029,-0.3992 0.2759,0.0563 0.4547,0.3276 0.3985,0.604 -0.0971,0.4708 -9.3442,47.337 4.3425,64.0986 3.2033,3.9205 7.4692,5.9114 12.6854,5.9114 14.2844,0 27.4705,-8.7058 41.433,-17.9286 16.7366,-11.0499 34.0456,-22.4785 54.6086,-19.4179 14.453,2.1495 21.647,19.7659 29.974,40.1614 6.611,16.1885 14.106,34.5367 26.525,47.1933 14.213,14.485 32.738,19.27 56.622,14.628 0.276,-0.051 0.547,0.128 0.598,0.404 0.056,0.277 -0.128,0.548 -0.404,0.599 -5.936,1.152 -11.551,1.735 -16.854,1.735 z"
       fill="#9059ff"
       id="path9" />
    <path
       opacity="0.2"
       d="m 130.465,177.619 c -4.66,0 -9.55,-0.78 -14.66,-2.57 -15.63,-5.48 -24.79,-20.61 -33.65,-35.24 -8.9,-14.69 -18.09,-29.88 -33.83,-35.47 -2.3,-0.82 -4.54,-1.51 -6.71,-2.06 -1,7.2 -3.59,13.08 -7.05,17.1 -4.81,5.58 -11.27,7.62 -17.73,5.6 -4.32,-1.35 -7.42999,-4.7 -8.31999,-8.96 -0.96,-4.57 0.73,-9.27 4.51999,-12.59 3.54,-3.09 11.42,-7.1403 26.88,-3.6403 0.81,-9.24 -1.04,-20.56 -7,-32.86 -8.13,-16.78 -22.31,-29.85 -39.94999,-36.8 -17.82001,-7.04 -36.85001,-6.82 -53.56001,0.62 -0.5,0.23 -1.1,0 -1.32,-0.51 -0.22,-0.5 0,-1.1 0.51,-1.32 17.2,-7.66 36.78,-7.89 55.11001,-0.66 18.09999,7.14 32.66999,20.56 41.00999,37.79 6.18,12.76 8.05,24.55 7.14,34.2003 2.23,0.57 4.61,1.3 7.14,2.2 16.4,5.83 25.79,21.33 34.87,36.32 9.08,14.99 17.65,29.14 32.6,34.39 26.14,9.17 45.78,-8.87 60.12,-22.04 6.92,-6.36 11.92,-10.95 16.03,-10.95 12.15,0 23.93,20.53 24.43,21.41 0.27,0.48 0.1,1.09 -0.38,1.36 -0.48,0.27 -1.09,0.1 -1.36,-0.38 -0.12,-0.2 -11.7,-20.39 -22.69,-20.39 -3.33,0 -8.59,4.83 -14.68,10.42 -11.28,10.36 -27.26,25.03 -47.48,25.03 z m -101.68,-77.14 c -6.09,0 -11.04,1.49 -14.43,4.45 -3.24,2.83 -4.68999,6.82 -3.88,10.67 0.76,3.6 3.3,6.32 6.96,7.47 5.75,1.8 11.29,0.03 15.62,-4.99 3.28,-3.8 5.71,-9.39 6.63,-16.26 -3.92,-0.89 -7.58,-1.33 -10.91,-1.33 z"
       fill="#9059ff"
       id="path11" />
    <path
       opacity="0.5"
       d="M 8.01346,18.4 C 3.63242,22.3494 12.0877,29.7021 14.76,25.687 17.4322,21.6718 11.9503,14.8452 8.01346,18.4 Z"
       fill="#ffd18d"
       id="path13" />
    <path
       opacity="0.4"
       d="m 22.6228,137.976 c 4.6844,3.585 10.3656,-6.074 5.9292,-7.966 -4.4363,-1.892 -10.1445,4.746 -5.9292,7.966 z"
       fill="#9059ff"
       id="path15" />
    <path
       opacity="0.5"
       d="m 239.297,120.261 c -3.28,12.802 21.703,16.019 21.703,5.215 0,-10.803 -18.763,-16.73 -21.703,-5.215 z"
       fill="#ffd18d"
       id="path17" />
    <path
       opacity="0.3"
       d="m 236.297,107.756 c 5.757,4.933 13.745,-7.109 8.185,-9.847 -5.559,-2.7384 -13.365,5.415 -8.185,9.847 z"
       fill="#9059ff"
       id="path19" />
    <path
       opacity="0.3"
       d="m 211.858,127.496 c 2.27,5.945 12.986,0.263 9.982,-3.984 -3.004,-4.247 -12.028,-1.36 -9.982,3.984 z"
       fill="#9059ff"
       id="path21" />
    <path
       opacity="0.3"
       d="m 236.201,144.036 c 7.055,-2.775 0.16,-15.473 -4.864,-11.845 -5.024,3.629 -1.479,14.345 4.864,11.845 z"
       fill="#9059ff"
       id="path23" />
    <path
       opacity="0.2"
       d="m 225.014,112.686 c -2.363,5.198 8.021,8.456 8.838,3.86 0.817,-4.596 -6.716,-8.536 -8.838,-3.86 z"
       fill="#9059ff"
       id="path25" />
    <path
       opacity="0.2"
       d="m 223.042,89.3366 c -3.912,1.7457 0.303,8.7393 3.047,6.5631 2.744,-2.1763 0.47,-8.1358 -3.047,-6.5631 z"
       fill="#9059ff"
       id="path27" />
    <path
       opacity="0.5"
       d="m -83.6828,129.547 c -0.48,0 -0.94,-0.29 -1.13,-0.76 -7.42,-18.21 -4.83,-40.9498 6.59,-57.9298 11.57,-17.21 30.77,-26.69 54.04,-26.69 13.54,0 24.080037,2.39 32.03004,6.12 2.04,-3.08 4.80996,-5.86 8.38996,-8.12 11.4,-7.2 22.05,-4.18 33.31,-0.97 12.5,3.56 25.43,7.23 42.04,-1.25 21.0898,-10.77 21.6298,-32.65004 22.1498,-53.81 0.41,-16.45 0.79,-31.98 10.88,-41.17 19.6,-17.84 72.92,4.1 75.18,5.04 0.62,0.26 0.91,0.97 0.66,1.59 -0.26,0.62 -0.97,0.91 -1.59,0.66 -0.54,-0.23 -54.15,-22.29 -72.6,-5.49 -9.32,8.48 -9.69,23.51 -10.08,39.43 -0.51,20.84996 -1.1,44.49 -23.4798,55.92 -17.46,8.92 -31.46,4.93 -43.81,1.42 -11.19,-3.18 -20.86,-5.93 -31.34,0.69 -3.25,2.05 -5.71,4.49 -7.51,7.14 11.16,5.93 16.65,14.61 17.89,22.53 1.16,7.45 -1.68,13.81 -6.91,15.49 -5.39,1.72 -11.19996,-2.1401 -14.78996,-9.8401 -3.81,-8.18 -4.23,-18.5999 0.39,-27.1699 -7.609997,-3.52 -17.73004,-5.78 -30.78004,-5.78 -22.44,0 -40.91,9.1 -52.02,25.61 -11,16.34 -13.5,38.1898 -6.38,55.6698 0.25,0.62 -0.05,1.33 -0.67,1.59 -0.15,0.06 -0.31,0.09 -0.46,0.09 z M 8.76724,53.4572 c -4.63,8.58 -3.29,18.75 -0.34,25.07 3.03996,6.52 7.68996,9.87 11.83996,8.54 4.06,-1.3 6.22,-6.56 5.25,-12.79 -1.14,-7.31 -6.28,-15.31 -16.73996,-20.82 z"
       fill="#ffc36b"
       id="path29" />
  </g>
  <path
     d="m 64.4581,39 h 1.7557 v -4.4034 h 2.3863 c 0.0398,0 0.0739,0 0.1137,0 L 71.0774,39 h 2 l -2.5795,-4.7102 c 1.4261,-0.5284 2.1363,-1.7159 2.1363,-3.2784 0,-2.1421 -1.3295,-3.6478 -4.0284,-3.6478 h -4.1477 z m 1.7557,-5.9148 v -4.2159 h 2.2045 c 1.733,0 2.4489,0.8239 2.4489,2.1421 0,1.3125 -0.7159,2.0738 -2.4261,2.0738 z m 12.0724,6.0909 c 1.9034,0 3.25,-0.9375 3.6364,-2.3579 l -1.608,-0.2898 c -0.3068,0.8239 -1.0454,1.2443 -2.0113,1.2443 -1.4546,0 -2.4319,-0.9432 -2.4773,-2.625 h 6.2045 v -0.6022 c 0,-3.1535 -1.8863,-4.3864 -3.8636,-4.3864 -2.4318,0 -4.0341,1.8523 -4.0341,4.5341 0,2.7102 1.5796,4.4829 4.1534,4.4829 z M 75.8317,33.875 c 0.0682,-1.2386 0.9659,-2.3125 2.3466,-2.3125 1.3181,0 2.1818,0.9773 2.1875,2.3125 z m 8.0838,8.3977 h 1.6988 V 37.642 h 0.1023 c 0.3068,0.5569 0.9318,1.5285 2.5227,1.5285 2.1137,0 3.6478,-1.6932 3.6478,-4.5171 0,-2.8295 -1.5568,-4.4943 -3.6648,-4.4943 -1.6193,0 -2.2045,0.9886 -2.5057,1.5284 h -0.142 v -1.4148 h -1.6591 z m 1.6648,-7.6363 c 0,-1.8239 0.7954,-3.0341 2.2784,-3.0341 1.5397,0 2.3125,1.3011 2.3125,3.0341 0,1.75 -0.7955,3.0852 -2.3125,3.0852 -1.4603,0 -2.2784,-1.25 -2.2784,-3.0852 z m 9.909,-7.2728 H 93.7905 V 39 h 1.6988 z m 3.3594,14.9091 c 1.4033,0 2.2893,-0.7329 2.7953,-2.1079 l 3.597,-9.8921 h -1.824 l -2.21,6.7728 h -0.091 l -2.2105,-6.7728 h -1.8181 l 3.1936,8.8409 -0.211,0.5796 c -0.4315,1.1591 -1.0395,1.2557 -1.9713,1 l -0.4091,1.392 c 0.2046,0.0909 0.6478,0.1875 1.1591,0.1875 z M 106.837,39 h 1.699 v -8.7273 h -1.699 z m 0.858,-10.0739 c 0.586,0 1.074,-0.4545 1.074,-1.0113 0,-0.5568 -0.488,-1.0171 -1.074,-1.0171 -0.591,0 -1.074,0.4603 -1.074,1.0171 0,0.5568 0.483,1.0113 1.074,1.0113 z m 4.826,4.8921 c 0,-1.3921 0.852,-2.1875 2.034,-2.1875 1.153,0 1.852,0.7557 1.852,2.0227 V 39 h 1.699 v -5.5511 c 0,-2.1591 -1.188,-3.2898 -2.972,-3.2898 -1.312,0 -2.17,0.6079 -2.574,1.5341 h -0.108 v -1.4205 h -1.63 V 39 h 1.699 z m 11.522,8.6363 c 2.222,0 3.938,-1.017 3.938,-3.2613 v -8.9205 h -1.665 v 1.4148 h -0.125 c -0.301,-0.5398 -0.903,-1.5284 -2.528,-1.5284 -2.108,0 -3.659,1.6648 -3.659,4.4432 0,2.7841 1.585,4.267 3.647,4.267 1.603,0 2.222,-0.9034 2.529,-1.4602 h 0.108 v 1.7159 c 0,1.3693 -0.938,1.9602 -2.228,1.9602 -1.414,0 -1.966,-0.7102 -2.267,-1.2102 l -1.46,0.6023 c 0.46,1.0682 1.625,1.9772 3.71,1.9772 z m -0.017,-4.9943 c -1.517,0 -2.307,-1.1647 -2.307,-2.8807 0,-1.6761 0.773,-2.9772 2.307,-2.9772 1.483,0 2.279,1.2102 2.279,2.9772 0,1.8012 -0.813,2.8807 -2.279,2.8807 z m 14.541,-7.1875 h -1.789 v -2.0909 h -1.699 v 2.0909 H 133.8 v 1.3637 h 1.279 v 5.1534 c -0.006,1.5852 1.204,2.3522 2.545,2.3238 0.54,-0.0056 0.904,-0.1079 1.103,-0.1818 l -0.307,-1.4034 c -0.114,0.0227 -0.324,0.0739 -0.597,0.0739 -0.551,0 -1.045,-0.1818 -1.045,-1.1648 v -4.8011 h 1.789 z m 5.462,8.9034 c 2.46,0 4.068,-1.8011 4.068,-4.5 0,-2.7159 -1.608,-4.517 -4.068,-4.517 -2.46,0 -4.068,1.8011 -4.068,4.517 0,2.6989 1.608,4.5 4.068,4.5 z m 0.006,-1.4261 c -1.608,0 -2.358,-1.4034 -2.358,-3.0795 0,-1.6705 0.75,-3.091 2.358,-3.091 1.596,0 2.346,1.4205 2.346,3.091 0,1.6761 -0.75,3.0795 -2.346,3.0795 z m 10.687,-4.5682 c 0,2.8523 0.762,5.2273 2.205,7.25 h 1.557 c -1.12,-1.5 -2,-4.5454 -2,-7.25 0,-2.6988 0.88,-5.7443 2,-7.2443 h -1.557 c -1.443,2.0227 -2.205,4.3977 -2.205,7.2443 z m 9.371,5.9773 c 2.341,0 4.011,-1.6534 4.006,-3.9205 0.005,-2.25 -1.563,-3.8863 -3.682,-3.8863 -0.864,0 -1.665,0.3295 -2.119,0.7727 h -0.069 l 0.37,-3.2557 h 4.937 v -1.5057 h -6.398 l -0.653,5.8637 1.608,0.2386 c 0.438,-0.392 1.222,-0.6591 1.926,-0.6591 1.381,0.0114 2.381,1.0455 2.381,2.4659 0,1.3978 -0.972,2.4091 -2.307,2.4091 -1.125,0 -2.017,-0.7159 -2.108,-1.7159 h -1.704 c 0.068,1.8523 1.676,3.1932 3.812,3.1932 z m 9.922,0 c 2.341,0 4.011,-1.6534 4.006,-3.9205 0.005,-2.25 -1.563,-3.8863 -3.682,-3.8863 -0.864,0 -1.665,0.3295 -2.12,0.7727 h -0.068 l 0.37,-3.2557 h 4.937 v -1.5057 h -6.398 l -0.653,5.8637 1.608,0.2386 c 0.437,-0.392 1.222,-0.6591 1.926,-0.6591 1.381,0.0114 2.381,1.0455 2.381,2.4659 0,1.3978 -0.972,2.4091 -2.307,2.4091 -1.125,0 -2.017,-0.7159 -2.108,-1.7159 h -1.705 c 0.069,1.8523 1.677,3.1932 3.813,3.1932 z m 9.922,0 c 2.341,0 4.011,-1.6534 4.005,-3.9205 0.006,-2.25 -1.562,-3.8863 -3.681,-3.8863 -0.864,0 -1.665,0.3295 -2.12,0.7727 h -0.068 l 0.369,-3.2557 h 4.938 v -1.5057 h -6.398 l -0.653,5.8637 1.608,0.2386 c 0.437,-0.392 1.221,-0.6591 1.926,-0.6591 1.381,0.0114 2.381,1.0455 2.381,2.4659 0,1.3978 -0.972,2.4091 -2.307,2.4091 -1.125,0 -2.017,-0.7159 -2.108,-1.7159 h -1.705 c 0.068,1.8523 1.676,3.1932 3.813,3.1932 z m 9.371,-5.9716 c 0,-2.8523 -0.762,-5.2273 -2.205,-7.25 h -1.557 c 1.119,1.5 2,4.5455 2,7.25 0,2.6989 -0.881,5.7443 -2,7.2443 h 1.557 c 1.443,-2.0227 2.205,-4.3977 2.205,-7.2443 z m 10.832,5.9716 c 2.341,0 4.011,-1.6534 4.006,-3.9205 0.005,-2.25 -1.563,-3.8863 -3.682,-3.8863 -0.864,0 -1.665,0.3295 -2.12,0.7727 h -0.068 l 0.37,-3.2557 h 4.937 v -1.5057 h -6.398 l -0.653,5.8637 1.608,0.2386 c 0.437,-0.392 1.222,-0.6591 1.926,-0.6591 1.381,0.0114 2.381,1.0455 2.381,2.4659 0,1.3978 -0.972,2.4091 -2.307,2.4091 -1.125,0 -2.017,-0.7159 -2.108,-1.7159 h -1.705 c 0.069,1.8523 1.677,3.1932 3.813,3.1932 z m 9.922,0 c 2.341,0 4.011,-1.6534 4.005,-3.9205 0.006,-2.25 -1.562,-3.8863 -3.681,-3.8863 -0.864,0 -1.665,0.3295 -2.12,0.7727 h -0.068 l 0.369,-3.2557 h 4.938 v -1.5057 h -6.398 l -0.653,5.8637 1.608,0.2386 c 0.437,-0.392 1.221,-0.6591 1.926,-0.6591 1.381,0.0114 2.381,1.0455 2.381,2.4659 0,1.3978 -0.972,2.4091 -2.307,2.4091 -1.125,0 -2.017,-0.7159 -2.108,-1.7159 h -1.705 c 0.068,1.8523 1.676,3.1932 3.813,3.1932 z m 9.922,0 c 2.341,0 4.011,-1.6534 4.005,-3.9205 0.006,-2.25 -1.562,-3.8863 -3.681,-3.8863 -0.864,0 -1.665,0.3295 -2.12,0.7727 h -0.068 l 0.369,-3.2557 h 4.938 v -1.5057 h -6.398 l -0.653,5.8637 1.608,0.2386 c 0.437,-0.392 1.221,-0.6591 1.926,-0.6591 1.38,0.0114 2.38,1.0455 2.38,2.4659 0,1.3978 -0.971,2.4091 -2.306,2.4091 -1.125,0 -2.017,-0.7159 -2.108,-1.7159 h -1.705 c 0.068,1.8523 1.676,3.1932 3.813,3.1932 z m 11.245,-6.7102 h -5.159 v 1.4716 h 5.159 z m 6.111,-5.2444 c -2.443,-0.0227 -4.04,1.733 -4.04,3.9375 0.006,2.2216 1.614,3.8239 3.631,3.8239 1.233,0 2.29,-0.6023 2.886,-1.5795 h 0.091 c -0.005,2.6761 -1.011,4.2386 -2.716,4.2386 -1.113,0 -1.829,-0.6818 -2.056,-1.6761 h -1.733 c 0.255,1.8806 1.71,3.2102 3.789,3.2102 2.705,0 4.398,-2.3239 4.398,-6.3977 -0.005,-4.25 -2.176,-5.5398 -4.25,-5.5569 z m 0.006,1.4773 c 1.346,0 2.341,1.1421 2.341,2.4205 0.005,1.2954 -1.046,2.4318 -2.375,2.4318 -1.335,0 -2.301,-1.0682 -2.307,-2.4148 0,-1.3523 1.006,-2.4375 2.341,-2.4375 z m 10.229,10.4773 c 2.42,0 4.13,-1.375 4.142,-3.2614 -0.012,-1.4659 -1.04,-2.6988 -2.341,-2.9318 v -0.0682 c 1.13,-0.2727 1.897,-1.3352 1.909,-2.5909 -0.012,-1.7784 -1.58,-3.1023 -3.71,-3.1023 -2.154,0 -3.722,1.3239 -3.711,3.1023 -0.011,1.25 0.756,2.3182 1.909,2.5909 v 0.0682 c -1.323,0.233 -2.352,1.4659 -2.34,2.9318 -0.012,1.8864 1.698,3.2614 4.142,3.2614 z m 0,-1.4375 c -1.455,0 -2.375,-0.7727 -2.364,-1.9375 -0.011,-1.2102 0.989,-2.0739 2.364,-2.0739 1.352,0 2.352,0.8637 2.363,2.0739 -0.011,1.1648 -0.926,1.9375 -2.363,1.9375 z m 0,-5.4148 c -1.177,0 -2.012,-0.7443 -2,-1.8523 -0.012,-1.0909 0.795,-1.8125 2,-1.8125 1.181,0 1.988,0.7216 2,1.8125 -0.012,1.108 -0.841,1.8523 -2,1.8523 z M 258.144,39 h 1.835 l 5.063,-10.0795 v -1.5569 h -7.693 v 1.5057 h 5.875 v 0.0852 z m 12.686,0.1591 c 2.432,0.0227 4.046,-1.7273 4.04,-3.9602 0.006,-2.2273 -1.614,-3.8239 -3.631,-3.8239 -1.227,0 -2.289,0.5909 -2.886,1.5739 h -0.085 c 0.005,-2.6421 1.005,-4.2103 2.71,-4.2103 1.119,0 1.824,0.6819 2.062,1.6478 h 1.733 c -0.267,-1.8409 -1.715,-3.1819 -3.795,-3.1819 -2.705,0 -4.392,2.3239 -4.392,6.3694 -0.006,4.2841 2.176,5.5681 4.244,5.5852 z m -0.005,-1.4773 c -1.353,0 -2.341,-1.1363 -2.341,-2.4432 0.005,-1.3011 1.039,-2.4375 2.38,-2.4375 1.33,0 2.307,1.0739 2.301,2.4205 0.006,1.375 -1.011,2.4602 -2.34,2.4602 z"
     fill="#000000"
     id="path33" />
  <circle
     cx="37"
     cy="34"
     r="20"
     fill="#321c64"
     id="circle35" />
  <path
     d="M 33.4645,45.7863 32.3392,42.9955 H 41.48 v 0.0088 c 4.9504,-0.1316 8.938,-4.3138 8.938,-9.4361 0,-5.1223 -3.9932,-9.2736 -8.9264,-9.4247 v -0.0011 h -0.0309 c -0.0018,0 -0.0038,0 -0.0056,-3e-4 L 29.1524,24.1266 v 4.4473 l 12.4172,0.0111 c 2.5256,0.175 4.5286,2.3423 4.5286,4.9834 0,2.6411 -2.0106,4.8165 -4.5428,4.9843 v -0.0054 h -9.1785 l 1.0879,-2.791 c 0,-0.4756 -0.4581,-0.773 -0.8245,-0.5352 l -3.8635,2.5076 -4.6879,3.0426 4.6879,3.0426 3.8633,2.5074 c 0.3664,0.2378 0.8244,-0.0592 0.8244,-0.535 z"
     fill="#ffffff"
     id="path37" />
  <circle
     cx="29.404499"
     cy="26.4051"
     fill="#ffffff"
     id="ellipse39"
     r="2.2784801" />
  <path
     d="m 281.167,79.7417 h -0.688 V 60.9032 c 0,-2.8917 -1.149,-5.665 -3.193,-7.7097 C 275.241,51.1487 272.468,50 269.576,50 h -39.912 c -1.432,0 -2.85,0.282 -4.173,0.8299 -1.322,0.548 -2.524,1.3511 -3.537,2.3636 -1.012,1.0124 -1.815,2.2144 -2.363,3.5372 -0.548,1.3228 -0.83,2.7406 -0.83,4.1725 V 164.253 c 0,2.891 1.148,5.665 3.193,7.709 2.045,2.045 4.818,3.194 7.71,3.194 h 39.912 c 2.892,0 5.665,-1.149 7.71,-3.194 2.044,-2.044 3.193,-4.818 3.193,-7.709 V 93.1512 h 0.688 z"
     fill="#ffffff"
     id="path41"
     mask="url(#mask362)" />
  <path
     d="M 278.157,60.9788 V 164.177 c 0,1.069 -0.211,2.127 -0.619,3.115 -0.409,0.988 -1.009,1.885 -1.765,2.641 -0.756,0.757 -1.653,1.356 -2.641,1.766 -0.987,0.409 -2.046,0.619 -3.115,0.62 H 229.91 c -2.159,0 -4.23,-0.858 -5.757,-2.385 -1.526,-1.526 -2.384,-3.597 -2.384,-5.756 V 60.9788 c -0.001,-1.0691 0.21,-2.1278 0.619,-3.1156 0.409,-0.9877 1.009,-1.8853 1.765,-2.6413 0.756,-0.756 1.653,-1.3558 2.641,-1.765 0.988,-0.4092 2.046,-0.6198 3.115,-0.6199 h 4.869 c -0.24,0.5874 -0.332,1.2246 -0.267,1.8557 0.065,0.631 0.283,1.2365 0.637,1.763 0.354,0.5266 0.832,0.958 1.392,1.2563 0.559,0.2984 1.184,0.4545 1.818,0.4545 h 22.866 c 0.635,-5e-4 1.259,-0.1568 1.819,-0.4552 0.559,-0.2985 1.037,-0.7299 1.391,-1.2563 0.353,-0.5264 0.572,-1.1317 0.637,-1.7626 0.065,-0.6309 -0.026,-1.268 -0.266,-1.8554 h 5.21 c 1.069,0 2.128,0.2105 3.116,0.6196 0.987,0.4091 1.885,1.0087 2.641,1.7647 0.756,0.756 1.356,1.6534 1.765,2.6412 0.409,0.9877 0.62,2.0463 0.62,3.1155 z"
     fill="#f2f2f2"
     id="path43"
     mask="url(#mask356)" />
  <path
     d="m 271.032,91.38 h -16.716 c -2.371,0 -4.293,1.9219 -4.293,4.2927 v 3.3394 c 0,2.3709 1.922,4.2929 4.293,4.2929 h 16.716 c 2.371,0 4.293,-1.922 4.293,-4.2929 v -3.3394 c 0,-2.3708 -1.922,-4.2927 -4.293,-4.2927 z"
     fill="#cececf"
     id="path45" />
  <path
     d="m 270.594,102.627 c -0.052,0.1 0.803,0.678 0.803,0.678 l 3.267,3.012 c 0,0 0.823,0.331 0.631,-0.567 l -1.147,-5.047 c 0,0 -2.481,-0.127 -3.554,1.924 z"
     fill="#cececf"
     id="path47" />
  <path
     d="m 258.589,96.5587 c 0,0 0.535,-0.244 0.978,0.0847 0.431,0.3201 0.465,0.6991 0.438,0.9465 -0.028,0.2474 -0.275,0.6211 -0.679,0.8063 -0.439,0.2024 -0.865,0.2509 -1.218,-0.2319 -0.353,-0.481 -0.263,-0.8616 -0.193,-1.0139 0.095,-0.2076 0.406,-0.5052 0.673,-0.59 z"
     fill="#ffffff"
     id="path49" />
  <path
     d="m 261.355,97.3251 c 0,0 0.055,-0.5848 0.56,-0.8063 0.492,-0.2145 0.839,-0.0536 1.038,0.0935 0.199,0.147 0.402,0.5485 0.36,0.9897 -0.045,0.481 -0.214,0.8737 -0.808,0.9395 -0.593,0.0657 -0.877,-0.2007 -0.976,-0.3391 -0.133,-0.1852 -0.235,-0.6039 -0.176,-0.8773 z"
     fill="#ffffff"
     id="path51" />
  <path
     d="m 264.925,96.8943 c 0,0 0.319,-0.4948 0.869,-0.4567 0.534,0.0363 0.77,0.3373 0.879,0.5588 0.11,0.2215 0.104,0.6713 -0.135,1.0451 -0.261,0.4066 -0.592,0.6782 -1.151,0.4637 -0.557,-0.2146 -0.687,-0.5814 -0.711,-0.7492 -0.033,-0.2267 0.069,-0.6454 0.247,-0.8599 z"
     fill="#ffffff"
     id="path53" />
  <path
     d="m 271.032,119.91 h -16.716 c -2.371,0 -4.293,1.922 -4.293,4.293 v 3.339 c 0,2.371 1.922,4.293 4.293,4.293 h 16.716 c 2.371,0 4.293,-1.922 4.293,-4.293 v -3.339 c 0,-2.371 -1.922,-4.293 -4.293,-4.293 z"
     fill="#cececf"
     id="path55" />
  <path
     d="m 270.594,131.157 c -0.052,0.1 0.803,0.678 0.803,0.678 l 3.267,3.012 c 0,0 0.823,0.331 0.631,-0.567 l -1.147,-5.047 c 0,0 -2.481,-0.127 -3.554,1.924 z"
     fill="#cececf"
     id="path57" />
  <path
     d="m 258.589,125.089 c 0,0 0.535,-0.244 0.978,0.084 0.431,0.321 0.465,0.699 0.438,0.947 -0.028,0.247 -0.275,0.621 -0.679,0.806 -0.439,0.203 -0.865,0.251 -1.218,-0.232 -0.353,-0.481 -0.263,-0.861 -0.193,-1.014 0.095,-0.207 0.406,-0.505 0.673,-0.59 z"
     fill="#ffffff"
     id="path59" />
  <path
     d="m 261.355,125.855 c 0,0 0.055,-0.585 0.56,-0.806 0.492,-0.215 0.839,-0.054 1.038,0.093 0.199,0.147 0.402,0.549 0.36,0.99 -0.045,0.481 -0.214,0.874 -0.808,0.94 -0.593,0.065 -0.877,-0.201 -0.976,-0.34 -0.133,-0.185 -0.235,-0.603 -0.176,-0.877 z"
     fill="#ffffff"
     id="path61" />
  <path
     d="m 264.925,125.424 c 0,0 0.319,-0.495 0.869,-0.456 0.534,0.036 0.77,0.337 0.879,0.558 0.11,0.222 0.104,0.672 -0.135,1.045 -0.261,0.407 -0.592,0.679 -1.151,0.464 -0.557,-0.214 -0.687,-0.581 -0.711,-0.749 -0.033,-0.227 0.069,-0.645 0.247,-0.86 z"
     fill="#ffffff"
     id="path63" />
  <path
     d="m 271.032,60.665 h -16.716 c -2.371,0 -4.293,1.9219 -4.293,4.2927 v 3.3394 c 0,2.3708 1.922,4.2927 4.293,4.2927 h 16.716 c 2.371,0 4.293,-1.9219 4.293,-4.2927 v -3.3394 c 0,-2.3708 -1.922,-4.2927 -4.293,-4.2927 z"
     fill="#cececf"
     id="path65" />
  <path
     d="m 270.594,71.9115 c -0.052,0.1004 0.803,0.6783 0.803,0.6783 l 3.267,3.0123 c 0,0 0.823,0.3305 0.631,-0.5675 l -1.147,-5.0471 c 0,0 -2.481,-0.1263 -3.554,1.924 z"
     fill="#cececf"
     id="path67" />
  <path
     d="m 258.589,65.8435 c 0,0 0.535,-0.2439 0.978,0.0848 0.431,0.3201 0.465,0.699 0.438,0.9465 -0.028,0.2474 -0.275,0.6211 -0.679,0.8063 -0.439,0.2024 -0.865,0.2508 -1.218,-0.2319 -0.353,-0.481 -0.263,-0.8617 -0.193,-1.0139 0.095,-0.2076 0.406,-0.5053 0.673,-0.59 z"
     fill="#ffffff"
     id="path69" />
  <path
     d="m 261.355,66.61 c 0,0 0.055,-0.5848 0.56,-0.8063 0.492,-0.2145 0.839,-0.0536 1.038,0.0935 0.199,0.147 0.402,0.5485 0.36,0.9897 -0.045,0.481 -0.214,0.8738 -0.808,0.9395 -0.593,0.0658 -0.877,-0.2007 -0.976,-0.3391 -0.133,-0.1852 -0.235,-0.6039 -0.176,-0.8773 z"
     fill="#ffffff"
     id="path71" />
  <path
     d="m 264.925,66.1792 c 0,0 0.319,-0.4948 0.869,-0.4568 0.534,0.0364 0.77,0.3374 0.879,0.5589 0.11,0.2215 0.104,0.6713 -0.135,1.0451 -0.261,0.4066 -0.592,0.6782 -1.151,0.4637 -0.557,-0.2146 -0.687,-0.5814 -0.711,-0.7492 -0.033,-0.2267 0.069,-0.6454 0.247,-0.86 z"
     fill="#ffffff"
     id="path73" />
  <path
     d="m 229.148,74.7427 h 16.716 c 2.37,0 4.292,1.9219 4.292,4.2927 v 3.3394 c 0,2.3708 -1.922,4.2927 -4.292,4.2927 h -16.716 c -2.371,0 -4.293,-1.9219 -4.293,-4.2927 v -3.3394 c 0,-2.3708 1.922,-4.2927 4.293,-4.2927 z"
     fill="#9e9e9e"
     id="path75" />
  <path
     d="m 229.586,85.9893 c 0.052,0.1003 -0.803,0.6782 -0.803,0.6782 l -3.267,3.0124 c 0,0 -0.823,0.3304 -0.631,-0.5676 l 1.147,-5.0471 c 0,0 2.481,-0.1263 3.554,1.9241 z"
     fill="#9e9e9e"
     id="path77" />
  <path
     d="m 241.589,79.9213 c 0,0 -0.534,-0.244 -0.977,0.0848 -0.431,0.3201 -0.466,0.699 -0.438,0.9464 0.028,0.2475 0.275,0.6212 0.678,0.8063 0.44,0.2025 0.865,0.2509 1.218,-0.2318 0.353,-0.481 0.263,-0.8617 0.194,-1.014 -0.095,-0.2076 -0.406,-0.5052 -0.673,-0.59 z"
     fill="#ffffff"
     id="path79" />
  <path
     d="m 238.825,80.6878 c 0,0 -0.055,-0.5848 -0.561,-0.8063 -0.491,-0.2145 -0.839,-0.0536 -1.038,0.0934 -0.199,0.1471 -0.401,0.5485 -0.36,0.9897 0.045,0.4811 0.215,0.8738 0.808,0.9396 0.594,0.0657 0.878,-0.2007 0.976,-0.3392 0.133,-0.1851 0.236,-0.6038 0.177,-0.8772 z"
     fill="#ffffff"
     id="path81" />
  <path
     d="m 235.254,80.257 c 0,0 -0.319,-0.4949 -0.869,-0.4568 -0.535,0.0363 -0.77,0.3374 -0.879,0.5589 -0.111,0.2214 -0.104,0.6713 0.135,1.045 0.261,0.4066 0.592,0.6783 1.151,0.4637 0.557,-0.2145 0.686,-0.5813 0.711,-0.7492 0.033,-0.2266 -0.07,-0.6453 -0.248,-0.8599 z"
     fill="#ffffff"
     id="path83" />
  <path
     d="m 229.148,104.888 h 16.716 c 2.37,0 4.292,1.922 4.292,4.293 v 3.339 c 0,2.371 -1.922,4.293 -4.292,4.293 h -16.716 c -2.371,0 -4.293,-1.922 -4.293,-4.293 v -3.339 c 0,-2.371 1.922,-4.293 4.293,-4.293 z"
     fill="#9e9e9e"
     id="path85" />
  <path
     d="m 229.586,116.135 c 0.052,0.1 -0.803,0.678 -0.803,0.678 l -3.267,3.012 c 0,0 -0.823,0.331 -0.631,-0.567 l 1.147,-5.047 c 0,0 2.481,-0.127 3.554,1.924 z"
     fill="#9e9e9e"
     id="path87" />
  <path
     d="m 241.589,110.067 c 0,0 -0.534,-0.244 -0.977,0.084 -0.431,0.321 -0.466,0.699 -0.438,0.947 0.028,0.247 0.275,0.621 0.678,0.806 0.44,0.203 0.865,0.251 1.218,-0.232 0.353,-0.481 0.263,-0.861 0.194,-1.014 -0.095,-0.207 -0.406,-0.505 -0.673,-0.59 z"
     fill="#ffffff"
     id="path89" />
  <path
     d="m 238.825,110.833 c 0,0 -0.055,-0.585 -0.561,-0.806 -0.491,-0.215 -0.839,-0.054 -1.038,0.093 -0.199,0.147 -0.401,0.549 -0.36,0.99 0.045,0.481 0.215,0.874 0.808,0.939 0.594,0.066 0.878,-0.2 0.976,-0.339 0.133,-0.185 0.236,-0.604 0.177,-0.877 z"
     fill="#ffffff"
     id="path91" />
  <path
     d="m 235.254,110.402 c 0,0 -0.319,-0.495 -0.869,-0.456 -0.535,0.036 -0.77,0.337 -0.879,0.558 -0.111,0.222 -0.104,0.672 0.135,1.045 0.261,0.407 0.592,0.679 1.151,0.464 0.557,-0.214 0.686,-0.581 0.711,-0.749 0.033,-0.227 -0.07,-0.645 -0.248,-0.86 z"
     fill="#ffffff"
     id="path93" />
  <path
     d="m 219.83,69.8619 h -2.227 v 11.9732 h 2.227 z"
     fill="#ffffff"
     id="path95" />
  <path
     d="m 219.83,83.2273 h -2.227 v 6.9612 h 2.227 z"
     fill="#ffffff"
     id="path97" />
  <path
     d="m 239.043,55.6611 c 0.616,0 1.114,-0.4987 1.114,-1.1138 0,-0.6152 -0.498,-1.1138 -1.114,-1.1138 -0.615,0 -1.113,0.4986 -1.113,1.1138 0,0.6151 0.498,1.1138 1.113,1.1138 z"
     fill="#ffffff"
     id="path99" />
  <g
     filter="url(#filter0_d_289_720)"
     id="g103">
    <rect
       x="17"
       y="70"
       width="217"
       height="58"
       rx="12"
       fill="#ffffff"
       id="rect101" />
  </g>
  <path
     d="m 234.363,123.5 c 0.451,3.009 3.003,5.833 4.505,6.5 -5.767,0 -9.462,-2.167 -10.363,-3.5 L 224,128 l 0.45,-15 h 9.462 v 2 2 0.5 c 0,1 0,3 0.451,6 z"
     fill="#ffffff"
     id="path105" />
  <path
     d="m 52.4872,93.2045 c 0.4773,0.0038 0.9546,0.0947 1.4318,0.2728 0.4773,0.178 0.9129,0.4735 1.3069,0.8863 0.3939,0.4091 0.7102,0.9678 0.9488,1.6762 0.2387,0.7083 0.358,1.5966 0.358,2.6647 0,1.0341 -0.0985,1.9525 -0.2955,2.7555 -0.1932,0.799 -0.4735,1.474 -0.8409,2.023 -0.3636,0.549 -0.8068,0.966 -1.3295,1.25 -0.519,0.284 -1.1061,0.426 -1.7614,0.426 -0.6515,0 -1.233,-0.129 -1.7443,-0.386 -0.5076,-0.262 -0.9243,-0.623 -1.25,-1.085 -0.322,-0.466 -0.5284,-1.006 -0.6193,-1.62 h 1.3863 c 0.125,0.534 0.3731,0.976 0.7443,1.324 0.375,0.345 0.8694,0.517 1.483,0.517 0.8977,0 1.6061,-0.392 2.125,-1.176 0.5227,-0.784 0.7841,-1.892 0.7841,-3.3239 h -0.0909 c -0.2121,0.3182 -0.464,0.5929 -0.7557,0.8239 -0.2917,0.231 -0.6155,0.409 -0.9716,0.534 -0.3561,0.125 -0.7348,0.188 -1.1364,0.188 -0.6666,0 -1.2784,-0.165 -1.8352,-0.495 -0.553,-0.333 -0.9962,-0.7895 -1.3295,-1.3691 -0.3296,-0.5833 -0.4943,-1.25 -0.4943,-2 0,-0.7121 0.159,-1.3636 0.4772,-1.9545 0.322,-0.5947 0.7728,-1.0682 1.3523,-1.4205 0.5833,-0.3523 1.2689,-0.5227 2.0568,-0.5114 z m 0,1.25 c -0.4773,0 -0.9072,0.1194 -1.2898,0.358 -0.3787,0.2348 -0.6799,0.553 -0.9034,0.9545 -0.2197,0.3978 -0.3295,0.8391 -0.3295,1.3239 0,0.4849 0.106,0.9261 0.3182,1.3239 0.2159,0.3939 0.5094,0.7083 0.8807,0.9432 0.375,0.231 0.8011,0.3465 1.2784,0.3465 0.3598,0 0.695,-0.07 1.0056,-0.2102 0.3106,-0.1439 0.5815,-0.339 0.8125,-0.5852 0.2349,-0.25 0.4186,-0.5322 0.5512,-0.8466 0.1326,-0.3182 0.1988,-0.6496 0.1988,-0.9943 0,-0.4546 -0.1098,-0.8807 -0.3295,-1.2784 -0.2159,-0.3978 -0.5152,-0.7197 -0.8977,-0.9659 -0.3788,-0.2462 -0.8106,-0.3694 -1.2955,-0.3694 z m 10.0071,10.7045 c -0.7803,0 -1.4697,-0.138 -2.0682,-0.415 -0.5947,-0.28 -1.0587,-0.664 -1.392,-1.153 -0.3333,-0.493 -0.4981,-1.053 -0.4943,-1.682 -0.0038,-0.492 0.0928,-0.947 0.2897,-1.364 0.197,-0.42 0.466,-0.7704 0.8069,-1.0507 0.3447,-0.2841 0.7291,-0.464 1.1534,-0.5398 v -0.0681 c -0.5568,-0.144 -1,-0.4565 -1.3296,-0.9375 -0.3295,-0.4849 -0.4924,-1.036 -0.4886,-1.6534 -0.0038,-0.591 0.1458,-1.1194 0.4489,-1.5853 0.303,-0.4659 0.7197,-0.8333 1.25,-1.1022 0.534,-0.269 1.142,-0.4035 1.8238,-0.4035 0.6743,0 1.2765,0.1345 1.8068,0.4035 0.5303,0.2689 0.947,0.6363 1.25,1.1022 0.3069,0.4659 0.4622,0.9943 0.4659,1.5853 -0.0037,0.6174 -0.1723,1.1685 -0.5056,1.6534 -0.3296,0.481 -0.7671,0.7935 -1.3125,0.9375 v 0.0681 c 0.4204,0.0758 0.7992,0.2557 1.1363,0.5398 0.3371,0.2803 0.6061,0.6307 0.8068,1.0507 0.2008,0.417 0.3031,0.872 0.3069,1.364 -0.0038,0.629 -0.1743,1.189 -0.5114,1.682 -0.3333,0.489 -0.7973,0.873 -1.392,1.153 -0.591,0.277 -1.2747,0.415 -2.0512,0.415 z m 0,-1.25 c 0.5265,0 0.9811,-0.085 1.3637,-0.256 0.3825,-0.17 0.678,-0.411 0.8863,-0.721 0.2084,-0.311 0.3144,-0.674 0.3182,-1.091 -0.0038,-0.439 -0.1174,-0.828 -0.3409,-1.165 -0.2235,-0.337 -0.5284,-0.602 -0.9148,-0.7953 -0.3826,-0.1932 -0.8201,-0.2898 -1.3125,-0.2898 -0.4962,0 -0.9394,0.0966 -1.3295,0.2898 -0.3864,0.1933 -0.6913,0.4583 -0.9148,0.7953 -0.2197,0.337 -0.3277,0.726 -0.3239,1.165 -0.0038,0.417 0.0966,0.78 0.3012,1.091 0.2083,0.31 0.5057,0.551 0.892,0.721 0.3864,0.171 0.8447,0.256 1.375,0.256 z m 0,-5.5226 c 0.4167,0 0.786,-0.0834 1.108,-0.25 0.3257,-0.1667 0.5814,-0.3997 0.767,-0.6989 0.1856,-0.2992 0.2803,-0.6496 0.2841,-1.0511 -0.0038,-0.394 -0.0966,-0.7368 -0.2784,-1.0284 -0.1818,-0.2955 -0.4337,-0.5228 -0.7557,-0.6819 -0.322,-0.1628 -0.697,-0.2443 -1.125,-0.2443 -0.4356,0 -0.8163,0.0815 -1.142,0.2443 -0.3258,0.1591 -0.5777,0.3864 -0.7557,0.6819 -0.178,0.2916 -0.2652,0.6344 -0.2614,1.0284 -0.0038,0.4015 0.0853,0.7519 0.2671,1.0511 0.1856,0.2992 0.4413,0.5322 0.767,0.6989 0.3258,0.1666 0.7008,0.25 1.125,0.25 z M 68.9901,105 74.1946,94.7045 v -0.0909 h -6 v -1.25 h 7.4545 v 1.3182 L 70.4673,105 Z m 12.3906,0.159 c -0.4773,-0.007 -0.9546,-0.098 -1.4318,-0.273 -0.4773,-0.174 -0.9129,-0.467 -1.3069,-0.88 -0.3939,-0.417 -0.7102,-0.979 -0.9488,-1.688 -0.2387,-0.712 -0.358,-1.606 -0.358,-2.6816 0,-1.0303 0.0966,-1.9432 0.2898,-2.7387 0.1932,-0.7992 0.4735,-1.4716 0.8409,-2.017 0.3674,-0.5493 0.8106,-0.9659 1.3296,-1.25 0.5227,-0.2841 1.1117,-0.4262 1.767,-0.4262 0.6515,0 1.2311,0.1307 1.7386,0.3921 0.5114,0.2576 0.9281,0.6174 1.25,1.0795 0.322,0.4622 0.5303,0.9944 0.625,1.5966 h -1.3863 c -0.1288,-0.5227 -0.3788,-0.9564 -0.75,-1.3011 -0.3712,-0.3447 -0.8637,-0.5171 -1.4773,-0.5171 -0.9015,0 -1.6117,0.3921 -2.1307,1.1762 -0.5151,0.7841 -0.7746,1.8845 -0.7784,3.3011 h 0.0909 c 0.2121,-0.322 0.464,-0.5966 0.7557,-0.8238 0.2955,-0.2311 0.6212,-0.4091 0.9773,-0.5341 0.356,-0.125 0.7329,-0.1875 1.1307,-0.1875 0.6666,0 1.2765,0.1666 1.8295,0.5 0.553,0.3295 0.9962,0.7859 1.3295,1.3693 0.3334,0.5795 0.5,1.2443 0.5,1.9943 0,0.72 -0.1609,1.379 -0.4829,1.977 -0.322,0.595 -0.7746,1.068 -1.358,1.421 -0.5795,0.348 -1.2613,0.519 -2.0454,0.511 z m 0,-1.25 c 0.4773,0 0.9053,-0.119 1.2841,-0.358 0.3825,-0.239 0.6837,-0.559 0.9034,-0.96 0.2235,-0.402 0.3352,-0.849 0.3352,-1.341 0,-0.481 -0.1079,-0.919 -0.3239,-1.3125 -0.2121,-0.3977 -0.5056,-0.714 -0.8806,-0.9489 -0.3712,-0.2348 -0.7955,-0.3522 -1.2728,-0.3522 -0.3598,0 -0.695,0.0719 -1.0056,0.2159 -0.3107,0.1401 -0.5834,0.3333 -0.8182,0.5795 -0.2311,0.2462 -0.4129,0.5284 -0.5455,0.8462 -0.1326,0.315 -0.1988,0.646 -0.1988,0.995 0,0.462 0.1079,0.894 0.3238,1.295 0.2197,0.402 0.519,0.726 0.8977,0.972 0.3826,0.246 0.8163,0.369 1.3012,0.369 z m 14.4389,-7.6363 v 1.1364 H 91.2969 V 96.2727 Z M 92.6151,94.1818 H 93.956 V 102.5 c 0,0.379 0.0549,0.663 0.1647,0.852 0.1137,0.186 0.2576,0.311 0.4319,0.375 0.178,0.061 0.3655,0.091 0.5625,0.091 0.1477,0 0.2689,-0.007 0.3636,-0.023 0.0947,-0.018 0.1704,-0.034 0.2273,-0.045 l 0.2727,1.205 c -0.0909,0.034 -0.2178,0.068 -0.3807,0.102 -0.1629,0.038 -0.3693,0.057 -0.6193,0.057 -0.3788,0 -0.75,-0.082 -1.1136,-0.245 -0.3599,-0.163 -0.6591,-0.411 -0.8978,-0.744 -0.2348,-0.333 -0.3522,-0.754 -0.3522,-1.261 z m 6.0852,14.0912 c -0.2273,0 -0.4299,-0.019 -0.608,-0.057 -0.178,-0.034 -0.3011,-0.068 -0.3693,-0.102 l 0.3409,-1.182 c 0.3258,0.083 0.6137,0.113 0.8637,0.091 0.25,-0.023 0.4715,-0.135 0.6647,-0.335 0.197,-0.197 0.3769,-0.518 0.5397,-0.961 l 0.25,-0.682 -3.2272,-8.7723 h 1.4546 l 2.4086,6.9543 h 0.091 l 2.409,-6.9543 h 1.455 l -3.705,10.0003 c -0.166,0.45 -0.373,0.824 -0.619,1.119 -0.246,0.299 -0.532,0.521 -0.8578,0.665 -0.322,0.144 -0.6856,0.216 -1.0909,0.216 z m 8.0427,0 V 96.2727 h 1.295 v 1.3864 h 0.159 c 0.099,-0.1515 0.235,-0.3447 0.41,-0.5796 0.178,-0.2386 0.431,-0.4507 0.761,-0.6363 0.333,-0.1894 0.784,-0.2841 1.352,-0.2841 0.735,0 1.383,0.1837 1.943,0.5511 0.561,0.3675 0.998,0.8883 1.313,1.5625 0.314,0.6743 0.471,1.4697 0.471,2.3863 0,0.924 -0.157,1.725 -0.471,2.403 -0.315,0.675 -0.75,1.197 -1.307,1.569 -0.557,0.367 -1.199,0.551 -1.926,0.551 -0.561,0 -1.01,-0.093 -1.347,-0.279 -0.337,-0.189 -0.596,-0.403 -0.778,-0.642 -0.182,-0.242 -0.322,-0.443 -0.421,-0.602 h -0.113 v 4.614 z m 1.318,-7.637 c 0,0.659 0.097,1.241 0.29,1.745 0.193,0.5 0.475,0.892 0.846,1.176 0.372,0.28 0.826,0.42 1.364,0.42 0.561,0 1.028,-0.147 1.403,-0.443 0.379,-0.299 0.663,-0.701 0.853,-1.204 0.193,-0.508 0.29,-1.072 0.29,-1.694 0,-0.613 -0.095,-1.1663 -0.285,-1.6587 -0.185,-0.4962 -0.467,-0.8883 -0.846,-1.1762 -0.375,-0.2916 -0.847,-0.4375 -1.415,-0.4375 -0.545,0 -1.004,0.1383 -1.375,0.4148 -0.371,0.2727 -0.651,0.6553 -0.841,1.1477 -0.189,0.4887 -0.284,1.0587 -0.284,1.7099 z m 12.091,4.546 c -0.841,0 -1.566,-0.186 -2.176,-0.557 -0.606,-0.375 -1.074,-0.898 -1.404,-1.568 -0.325,-0.674 -0.488,-1.459 -0.488,-2.352 0,-0.8944 0.163,-1.6823 0.488,-2.3641 0.33,-0.6856 0.788,-1.2197 1.375,-1.6023 0.591,-0.3863 1.281,-0.5795 2.069,-0.5795 0.454,0 0.903,0.0757 1.346,0.2273 0.443,0.1515 0.847,0.3977 1.21,0.7386 0.364,0.3371 0.654,0.7841 0.87,1.3409 0.216,0.5568 0.324,1.2424 0.324,2.0571 v 0.568 h -6.728 v -1.1592 h 5.364 c 0,-0.4924 -0.098,-0.9318 -0.295,-1.3182 -0.194,-0.3863 -0.47,-0.6913 -0.83,-0.9147 -0.356,-0.2235 -0.777,-0.3353 -1.261,-0.3353 -0.534,0 -0.997,0.1326 -1.387,0.3978 -0.386,0.2613 -0.683,0.6022 -0.892,1.0227 -0.208,0.4204 -0.312,0.8712 -0.312,1.3519 v 0.773 c 0,0.659 0.113,1.218 0.341,1.676 0.231,0.455 0.551,0.801 0.96,1.04 0.409,0.235 0.884,0.352 1.426,0.352 0.352,0 0.67,-0.049 0.955,-0.147 0.287,-0.103 0.536,-0.254 0.744,-0.455 0.208,-0.205 0.369,-0.458 0.483,-0.761 l 1.295,0.363 c -0.136,0.44 -0.365,0.826 -0.687,1.159 -0.322,0.33 -0.72,0.587 -1.193,0.773 -0.474,0.182 -1.006,0.273 -1.597,0.273 z m 11.017,3.091 c -0.227,0 -0.43,-0.019 -0.608,-0.057 -0.178,-0.034 -0.301,-0.068 -0.369,-0.102 l 0.341,-1.182 c 0.325,0.083 0.613,0.113 0.863,0.091 0.25,-0.023 0.472,-0.135 0.665,-0.335 0.197,-0.197 0.377,-0.518 0.54,-0.961 l 0.25,-0.682 -3.227,-8.7723 h 1.454 l 2.409,6.9543 h 0.091 l 2.409,-6.9543 h 1.455 l -3.705,10.0003 c -0.166,0.45 -0.373,0.824 -0.619,1.119 -0.246,0.299 -0.532,0.521 -0.858,0.665 -0.322,0.144 -0.686,0.216 -1.091,0.216 z m 11.276,-3.091 c -0.788,0 -1.48,-0.188 -2.074,-0.563 -0.591,-0.375 -1.053,-0.899 -1.387,-1.574 -0.329,-0.674 -0.494,-1.462 -0.494,-2.363 0,-0.9093 0.165,-1.7028 0.494,-2.3809 0.334,-0.678 0.796,-1.2045 1.387,-1.5795 0.594,-0.375 1.286,-0.5625 2.074,-0.5625 0.787,0 1.477,0.1875 2.068,0.5625 0.594,0.375 1.057,0.9015 1.386,1.5795 0.333,0.6781 0.5,1.4716 0.5,2.3809 0,0.901 -0.167,1.689 -0.5,2.363 -0.329,0.675 -0.792,1.199 -1.386,1.574 -0.591,0.375 -1.281,0.563 -2.068,0.563 z m 0,-1.205 c 0.598,0 1.091,-0.153 1.477,-0.46 0.386,-0.307 0.672,-0.71 0.858,-1.21 0.185,-0.5 0.278,-1.042 0.278,-1.625 0,-0.584 -0.093,-1.1271 -0.278,-1.6309 -0.186,-0.5038 -0.472,-0.9109 -0.858,-1.2216 -0.386,-0.3106 -0.879,-0.4659 -1.477,-0.4659 -0.599,0 -1.091,0.1553 -1.478,0.4659 -0.386,0.3107 -0.672,0.7178 -0.858,1.2216 -0.185,0.5038 -0.278,1.0469 -0.278,1.6309 0,0.583 0.093,1.125 0.278,1.625 0.186,0.5 0.472,0.903 0.858,1.21 0.387,0.307 0.879,0.46 1.478,0.46 z m 11.501,-2.545 v -5.1593 h 1.341 V 105 h -1.341 v -1.477 h -0.091 c -0.204,0.443 -0.523,0.82 -0.954,1.13 -0.432,0.307 -0.978,0.461 -1.637,0.461 -0.545,0 -1.03,-0.12 -1.454,-0.358 -0.425,-0.243 -0.758,-0.606 -1,-1.091 -0.243,-0.489 -0.364,-1.104 -0.364,-1.847 v -5.5453 h 1.341 v 5.4543 c 0,0.637 0.178,1.144 0.534,1.523 0.36,0.379 0.818,0.568 1.375,0.568 0.333,0 0.672,-0.085 1.017,-0.256 0.349,-0.17 0.64,-0.431 0.875,-0.784 0.239,-0.352 0.358,-0.801 0.358,-1.346 z m 3.797,3.568 v -8.7273 h 1.295 v 1.3182 h 0.091 c 0.159,-0.4318 0.447,-0.7822 0.864,-1.0511 0.417,-0.269 0.886,-0.4034 1.409,-0.4034 0.098,0 0.222,0.0019 0.369,0.0056 0.148,0.0038 0.26,0.0095 0.336,0.0171 v 1.3636 c -0.046,-0.0113 -0.15,-0.0284 -0.313,-0.0511 -0.159,-0.0265 -0.328,-0.0398 -0.506,-0.0398 -0.424,0 -0.803,0.089 -1.136,0.2671 -0.33,0.1742 -0.591,0.4166 -0.784,0.7272 -0.189,0.3069 -0.284,0.6572 -0.284,1.0512 V 105 Z m 10.453,0 v -8.7273 h 1.295 v 1.3182 h 0.091 c 0.159,-0.4318 0.447,-0.7822 0.864,-1.0511 0.417,-0.269 0.886,-0.4034 1.409,-0.4034 0.099,0 0.222,0.0019 0.369,0.0056 0.148,0.0038 0.26,0.0095 0.336,0.0171 v 1.3636 c -0.046,-0.0113 -0.15,-0.0284 -0.313,-0.0511 -0.159,-0.0265 -0.327,-0.0398 -0.506,-0.0398 -0.424,0 -0.803,0.089 -1.136,0.2671 -0.329,0.1742 -0.591,0.4166 -0.784,0.7272 -0.189,0.3069 -0.284,0.6572 -0.284,1.0512 V 105 Z m 9.347,0.182 c -0.841,0 -1.567,-0.186 -2.177,-0.557 -0.606,-0.375 -1.073,-0.898 -1.403,-1.568 -0.326,-0.674 -0.489,-1.459 -0.489,-2.352 0,-0.8944 0.163,-1.6823 0.489,-2.3641 0.33,-0.6856 0.788,-1.2197 1.375,-1.6023 0.591,-0.3863 1.28,-0.5795 2.068,-0.5795 0.455,0 0.904,0.0757 1.347,0.2273 0.443,0.1515 0.846,0.3977 1.21,0.7386 0.364,0.3371 0.653,0.7841 0.869,1.3409 0.216,0.5568 0.324,1.2424 0.324,2.0571 v 0.568 h -6.727 v -1.1592 h 5.364 c 0,-0.4924 -0.099,-0.9318 -0.296,-1.3182 -0.193,-0.3863 -0.47,-0.6913 -0.829,-0.9147 -0.356,-0.2235 -0.777,-0.3353 -1.262,-0.3353 -0.534,0 -0.996,0.1326 -1.386,0.3978 -0.386,0.2613 -0.684,0.6022 -0.892,1.0227 -0.208,0.4204 -0.313,0.8712 -0.313,1.3519 v 0.773 c 0,0.659 0.114,1.218 0.341,1.676 0.231,0.455 0.551,0.801 0.96,1.04 0.41,0.235 0.885,0.352 1.427,0.352 0.352,0 0.67,-0.049 0.954,-0.147 0.288,-0.103 0.536,-0.254 0.744,-0.455 0.209,-0.205 0.37,-0.458 0.483,-0.761 l 1.296,0.363 c -0.136,0.44 -0.366,0.826 -0.688,1.159 -0.322,0.33 -0.719,0.587 -1.193,0.773 -0.473,0.182 -1.005,0.273 -1.596,0.273 z m 5.653,3.091 V 96.2727 h 1.295 v 1.3864 h 0.16 c 0.098,-0.1515 0.234,-0.3447 0.409,-0.5796 0.178,-0.2386 0.431,-0.4507 0.761,-0.6363 0.333,-0.1894 0.784,-0.2841 1.352,-0.2841 0.735,0 1.383,0.1837 1.943,0.5511 0.561,0.3675 0.999,0.8883 1.313,1.5625 0.314,0.6743 0.472,1.4697 0.472,2.3863 0,0.924 -0.158,1.725 -0.472,2.403 -0.314,0.675 -0.75,1.197 -1.307,1.569 -0.557,0.367 -1.199,0.551 -1.926,0.551 -0.561,0 -1.009,-0.093 -1.347,-0.279 -0.337,-0.189 -0.596,-0.403 -0.778,-0.642 -0.182,-0.242 -0.322,-0.443 -0.42,-0.602 h -0.114 v 4.614 z m 1.318,-7.637 c 0,0.659 0.097,1.241 0.29,1.745 0.193,0.5 0.475,0.892 0.847,1.176 0.371,0.28 0.825,0.42 1.363,0.42 0.561,0 1.029,-0.147 1.404,-0.443 0.378,-0.299 0.662,-0.701 0.852,-1.204 0.193,-0.508 0.29,-1.072 0.29,-1.694 0,-0.613 -0.095,-1.1663 -0.284,-1.6587 -0.186,-0.4962 -0.468,-0.8883 -0.847,-1.1762 -0.375,-0.2916 -0.847,-0.4375 -1.415,-0.4375 -0.545,0 -1.004,0.1383 -1.375,0.4148 -0.371,0.2727 -0.651,0.6553 -0.841,1.1477 -0.189,0.4887 -0.284,1.0587 -0.284,1.7099 z m 9.773,-7.2724 V 105 h -1.341 V 93.3636 Z m 3.32,14.9094 c -0.228,0 -0.43,-0.019 -0.608,-0.057 -0.178,-0.034 -0.302,-0.068 -0.37,-0.102 l 0.341,-1.182 c 0.326,0.083 0.614,0.113 0.864,0.091 0.25,-0.023 0.471,-0.135 0.665,-0.335 0.197,-0.197 0.376,-0.518 0.539,-0.961 l 0.25,-0.682 -3.227,-8.7723 h 1.455 l 2.409,6.9543 h 0.091 l 2.409,-6.9543 h 1.454 l -3.704,10.0003 c -0.167,0.45 -0.373,0.824 -0.62,1.119 -0.246,0.299 -0.532,0.521 -0.858,0.665 -0.322,0.144 -0.685,0.216 -1.09,0.216 z"
     fill="#000000"
     id="path107" />
  <path
     d="m 194.781,122.771 c -0.194,0 -0.36,0.14 -0.395,0.331 -0.136,0.777 -0.649,2.953 -1.381,3.687 -0.732,0.734 -2.907,1.252 -3.678,1.389 -0.185,0.032 -0.321,0.19 -0.327,0.377 h 5.784 z"
     fill="#ffea80"
     id="path109" />
  <path
     d="m 189,128.555 c 0.001,0.194 0.142,0.359 0.334,0.391 0.776,0.125 2.946,0.612 3.679,1.338 0.733,0.727 1.243,2.925 1.376,3.727 0.034,0.191 0.201,0.33 0.395,0.329 v -5.785 z"
     fill="#ffd567"
     id="path111" />
  <path
     d="m 194.784,128.555 h 5.785 c -10e-4,-0.193 -0.14,-0.358 -0.331,-0.391 -0.785,-0.136 -2.985,-0.653 -3.717,-1.385 -0.732,-0.732 -1.22,-2.899 -1.346,-3.671 -0.03,-0.193 -0.195,-0.336 -0.391,-0.337 z"
     fill="#ffd567"
     id="path113" />
  <path
     d="m 194.784,134.34 c 0.195,0 0.361,-0.141 0.391,-0.334 0.126,-0.786 0.614,-2.984 1.346,-3.716 0.732,-0.733 2.924,-1.218 3.71,-1.343 0.193,-0.032 0.335,-0.197 0.338,-0.392 h -5.785 z"
     fill="#ffa266"
     id="path115" />
  <path
     d="m 270.036,44 c 0.1,2e-4 0.184,0.0713 0.202,0.1691 0.07,0.3969 0.332,1.5085 0.706,1.8834 0.374,0.3748 1.484,0.6394 1.878,0.7092 0.095,0.0166 0.164,0.0971 0.167,0.193 h -2.954 z"
     fill="#ffea80"
     id="path117" />
  <path
     d="m 272.989,46.9545 c 0,0.099 -0.072,0.1832 -0.17,0.1993 -0.397,0.064 -1.505,0.3127 -1.88,0.6838 -0.374,0.3712 -0.635,1.4938 -0.703,1.9033 -0.017,0.0977 -0.102,0.1688 -0.201,0.1682 v -2.9546 z"
     fill="#ffd567"
     id="path119" />
  <path
     d="m 270.035,46.9547 h -2.954 c 0,-0.0987 0.071,-0.1829 0.168,-0.1998 0.402,-0.0697 1.525,-0.3336 1.899,-0.7075 0.374,-0.3739 0.623,-1.481 0.687,-1.8751 0.016,-0.0986 0.1,-0.1716 0.2,-0.1723 z"
     fill="#ffd567"
     id="path121" />
  <path
     d="m 270.035,49.9092 c -0.099,3e-4 -0.184,-0.0721 -0.2,-0.1705 -0.064,-0.4017 -0.313,-1.5241 -0.687,-1.8982 -0.374,-0.3742 -1.494,-0.6218 -1.895,-0.686 -0.098,-0.016 -0.171,-0.1003 -0.172,-0.1999 h 2.954 z"
     fill="#ffa266"
     id="path123" />
  <path
     d="m 260.363,69.566 c 0.099,2e-4 0.184,0.0713 0.201,0.1691 0.07,0.3969 0.332,1.5085 0.706,1.8834 0.374,0.3748 1.485,0.6394 1.879,0.7092 0.094,0.0165 0.164,0.0971 0.166,0.193 h -2.954 z"
     fill="#ffea80"
     id="path125" />
  <path
     d="m 263.315,72.5207 c 0,0.099 -0.072,0.1832 -0.17,0.1992 -0.397,0.064 -1.505,0.3127 -1.879,0.6839 -0.375,0.3711 -0.635,1.4937 -0.703,1.9033 -0.017,0.0976 -0.103,0.1688 -0.202,0.1682 v -2.9546 z"
     fill="#ffd567"
     id="path127" />
  <path
     d="m 260.36,72.5207 h -2.954 c 0,-0.0987 0.071,-0.1829 0.168,-0.1998 0.402,-0.0697 1.525,-0.3336 1.899,-0.7075 0.374,-0.3739 0.623,-1.481 0.688,-1.8751 0.015,-0.0987 0.099,-0.1716 0.199,-0.1723 z"
     fill="#ffd567"
     id="path129" />
  <path
     d="m 260.36,75.4753 c -0.099,3e-4 -0.184,-0.0722 -0.199,-0.1706 -0.065,-0.4017 -0.314,-1.5241 -0.688,-1.8982 -0.374,-0.3742 -1.494,-0.6218 -1.895,-0.686 -0.098,-0.016 -0.171,-0.1002 -0.172,-0.1999 h 2.954 z"
     fill="#ffa266"
     id="path131" />
  <path
     d="m 203.11,84.0765 c 0.08,1e-4 0.148,0.057 0.162,0.1352 0.055,0.3175 0.265,1.2069 0.564,1.5067 0.299,0.2999 1.188,0.5116 1.503,0.5674 0.076,0.0132 0.131,0.0777 0.134,0.1544 h -2.364 z"
     fill="#ffea80"
     id="path133" />
  <path
     d="m 205.473,86.4402 c -0.001,0.0792 -0.058,0.1466 -0.137,0.1594 -0.317,0.0512 -1.204,0.2501 -1.503,0.5471 -0.3,0.2969 -0.508,1.195 -0.563,1.5226 -0.013,0.0782 -0.081,0.135 -0.161,0.1346 v -2.3637 z"
     fill="#ffd567"
     id="path135" />
  <path
     d="m 203.109,86.4402 h -2.363 c 0,-0.079 0.057,-0.1463 0.135,-0.1599 0.321,-0.0557 1.22,-0.2668 1.519,-0.5659 0.299,-0.2992 0.498,-1.1848 0.55,-1.5001 0.012,-0.0789 0.079,-0.1373 0.159,-0.1378 z"
     fill="#ffd567"
     id="path137" />
  <path
     d="m 203.109,88.8039 c -0.079,2e-4 -0.147,-0.0577 -0.159,-0.1365 -0.052,-0.3213 -0.251,-1.2192 -0.55,-1.5185 -0.299,-0.2994 -1.195,-0.4974 -1.516,-0.5488 -0.079,-0.0128 -0.137,-0.0802 -0.138,-0.1599 h 2.363 z"
     fill="#ffa266"
     id="path139" />
  <path
     d="m 260.561,110.334 c 0.06,0 0.111,0.042 0.121,0.101 0.042,0.238 0.199,0.905 0.424,1.13 0.224,0.225 0.89,0.384 1.127,0.426 0.056,0.009 0.098,0.058 0.1,0.115 h -1.773 z"
     fill="#ffea80"
     id="path141" />
  <path
     d="m 262.333,112.106 c 0,0.06 -0.044,0.11 -0.102,0.12 -0.238,0.038 -0.903,0.187 -1.128,0.41 -0.225,0.223 -0.381,0.896 -0.422,1.142 -0.01,0.059 -0.061,0.101 -0.121,0.101 v -1.773 z"
     fill="#ffd567"
     id="path143" />
  <path
     d="m 260.561,112.106 h -1.773 c 0,-0.059 0.043,-0.109 0.101,-0.12 0.241,-0.041 0.915,-0.2 1.139,-0.424 0.225,-0.224 0.374,-0.889 0.413,-1.125 0.009,-0.059 0.06,-0.103 0.12,-0.103 z"
     fill="#ffd567"
     id="path145" />
  <path
     d="m 260.561,113.879 c -0.06,0 -0.111,-0.043 -0.12,-0.102 -0.039,-0.241 -0.188,-0.915 -0.413,-1.139 -0.224,-0.225 -0.896,-0.373 -1.137,-0.412 -0.059,-0.009 -0.102,-0.06 -0.103,-0.12 h 1.773 z"
     fill="#ffa266"
     id="path147" />
  <path
     d="m 212.079,57.8194 c -0.218,4e-4 -0.404,0.1568 -0.443,0.3719 -0.154,0.8731 -0.73,3.3188 -1.553,4.1434 -0.822,0.8247 -3.266,1.4068 -4.133,1.5604 -0.207,0.0363 -0.361,0.2136 -0.367,0.4245 h 6.5 z"
     fill="#ffea80"
     id="path149" />
  <path
     d="m 205.583,64.3196 c 0.001,0.2178 0.16,0.4031 0.375,0.4384 0.873,0.1408 3.311,0.6879 4.135,1.5044 0.823,0.8165 1.397,3.2863 1.546,4.1873 0.038,0.2149 0.225,0.3713 0.444,0.3701 v -6.5002 z"
     fill="#ffd567"
     id="path151" />
  <path
     d="m 212.084,64.3196 h 6.5 c -0.001,-0.2171 -0.157,-0.4024 -0.371,-0.4396 -0.883,-0.1532 -3.355,-0.7339 -4.177,-1.5565 -0.823,-0.8226 -1.371,-3.2581 -1.512,-4.1251 -0.034,-0.2171 -0.22,-0.3777 -0.44,-0.379 z"
     fill="#ffd567"
     id="path153" />
  <path
     d="m 212.084,70.8198 c 0.219,6e-4 0.406,-0.1588 0.44,-0.3753 0.141,-0.8836 0.689,-3.353 1.512,-4.1761 0.822,-0.8231 3.286,-1.3678 4.169,-1.509 0.216,-0.0352 0.376,-0.2206 0.379,-0.4398 h -6.5 z"
     fill="#ffa266"
     id="path155" />
  <path
     d="m 234.304,50.2187 c 0.06,1e-4 0.111,0.0428 0.121,0.1014 0.042,0.2382 0.2,0.9052 0.424,1.1301 0.224,0.2249 0.891,0.3836 1.127,0.4255 0.057,0.0099 0.098,0.0583 0.1,0.1158 h -1.773 z"
     fill="#ffea80"
     id="path157" />
  <path
     d="m 236.076,51.9915 c 0,0.0594 -0.043,0.1099 -0.102,0.1196 -0.238,0.0384 -0.903,0.1875 -1.128,0.4102 -0.224,0.2227 -0.381,0.8963 -0.421,1.142 -0.011,0.0586 -0.062,0.1013 -0.122,0.101 v -1.7728 z"
     fill="#ffd567"
     id="path159" />
  <path
     d="m 234.304,51.9915 h -1.773 c 0,-0.0592 0.043,-0.1098 0.101,-0.1199 0.241,-0.0418 0.915,-0.2001 1.139,-0.4245 0.225,-0.2243 0.374,-0.8886 0.413,-1.125 0.009,-0.0592 0.06,-0.103 0.12,-0.1034 z"
     fill="#ffd567"
     id="path161" />
  <path
     d="m 234.304,53.7643 c -0.06,1e-4 -0.111,-0.0433 -0.12,-0.1024 -0.039,-0.241 -0.188,-0.9144 -0.413,-1.1389 -0.224,-0.2245 -0.896,-0.3731 -1.137,-0.4116 -0.059,-0.0096 -0.102,-0.0601 -0.103,-0.1199 h 1.773 z"
     fill="#ffa266"
     id="path163" />
  <path
     d="m 293.528,74.4028 c 0.099,2e-4 0.184,0.0713 0.201,0.1691 0.07,0.3969 0.332,1.5085 0.706,1.8834 0.374,0.3748 1.485,0.6394 1.879,0.7092 0.094,0.0166 0.164,0.0971 0.166,0.193 h -2.954 z"
     fill="#ffea80"
     id="path165" />
  <path
     d="m 296.48,77.3575 c 0,0.099 -0.072,0.1832 -0.17,0.1992 -0.397,0.064 -1.505,0.3127 -1.879,0.6838 -0.375,0.3712 -0.635,1.4938 -0.703,1.9034 -0.017,0.0976 -0.103,0.1687 -0.202,0.1682 v -2.9546 z"
     fill="#ffd567"
     id="path167" />
  <path
     d="m 293.526,77.3575 h -2.954 c 0,-0.0987 0.071,-0.1829 0.168,-0.1998 0.402,-0.0697 1.525,-0.3336 1.899,-0.7075 0.374,-0.3739 0.623,-1.481 0.688,-1.8751 0.015,-0.0986 0.1,-0.1716 0.199,-0.1723 z"
     fill="#ffd567"
     id="path169" />
  <path
     d="m 293.526,80.3121 c -0.099,3e-4 -0.184,-0.0722 -0.199,-0.1706 -0.065,-0.4016 -0.314,-1.5241 -0.688,-1.8982 -0.374,-0.3742 -1.494,-0.6217 -1.895,-0.6859 -0.098,-0.016 -0.171,-0.1003 -0.172,-0.1999 h 2.954 z"
     fill="#ffa266"
     id="path171" />
  <defs
     id="defs190">
    <filter
       id="filter0_d_289_720"
       x="1"
       y="58"
       width="249"
       height="90"
       filterUnits="userSpaceOnUse"
       color-interpolation-filters="sRGB">
      <feFlood
         flood-opacity="0"
         result="BackgroundImageFix"
         id="feFlood173" />
      <feColorMatrix
         in="SourceAlpha"
         type="matrix"
         values="0 0 0 0 0 0 0 0 0 0 0 0 0 0 0 0 0 0 127 0"
         result="hardAlpha"
         id="feColorMatrix175" />
      <feOffset
         dy="4"
         id="feOffset177" />
      <feGaussianBlur
         stdDeviation="8"
         id="feGaussianBlur179" />
      <feComposite
         in2="hardAlpha"
         operator="out"
         id="feComposite181" />
      <feColorMatrix
         type="matrix"
         values="0 0 0 0 0 0 0 0 0 0 0 0 0 0 0 0 0 0 0.16 0"
         id="feColorMatrix183" />
      <feBlend
         mode="normal"
         in2="BackgroundImageFix"
         result="effect1_dropShadow_289_720"
         id="feBlend185" />
      <feBlend
         mode="normal"
         in="SourceGraphic"
         in2="effect1_dropShadow_289_720"
         result="shape"
         id="feBlend187" />
    </filter>
    <mask
       maskUnits="userSpaceOnUse"
       id="mask356">
      <rect
         width="300"
         height="154"
         rx="8"
         fill="#f770ff"
         id="rect358"
         x="0"
         y="0" />
    </mask>
    <mask
       maskUnits="userSpaceOnUse"
       id="mask362">
      <rect
         width="300"
         height="154"
         rx="8"
         fill="#f770ff"
         id="rect364"
         x="0"
         y="0" />
    </mask>
  </defs>
</svg>
