<svg xmlns="http://www.w3.org/2000/svg" viewBox="0 0 97.5 71.9"><radialGradient id="a" cx="48.75" cy="21.096" r="35.654" gradientTransform="matrix(1 0 0 -1 0 74)" gradientUnits="userSpaceOnUse"><stop offset="0" stop-color="#fff"/><stop offset="1"/></radialGradient><path d="M61.5 34.1l-4.4 4.2c-4.7 4.4-12 4.5-16.6 0l-3.9-3.7-1.5 1.5-33 33.6c1.3 1.3 3.1 2.1 4.9 2h83.5c1.8 0 3.6-.7 4.9-2L63 35.7l-1.5-1.6z" opacity=".04" fill="url(#a)"/><path d="M36.6 34.7L2 2C1.2 2.9.6 3.9.3 5 .1 5.6 0 6.2 0 6.9v58c0 1.8.7 3.6 2 4.9l33-33.6 1.6-1.5zM97.1 4.6c-.4-1.1-1-2.2-1.9-3L61.5 34.1l1.5 1.6 32.4 34c1.3-1.3 2-3.1 2.1-4.9v-58c0-.7-.1-1.5-.4-2.2z" opacity=".01" fill="#231f20"/><path d="M38.4 35l3.1 2.9c4.1 3.8 10.4 3.8 14.5 0l3.5-3.4L88.1 7.2c-1-1-2.4-1.6-3.9-1.6H13.5c-1.6 0-3.1.7-4.2 1.8L38.4 35z" fill="none"/></svg>