<svg id="Layer_1" data-name="Layer 1" xmlns="http://www.w3.org/2000/svg" xmlns:xlink="http://www.w3.org/1999/xlink" viewBox="0 0 274.41 274.41"><defs><style>.cls-1,.cls-10{fill:#fff;}.cls-1,.cls-10,.cls-11,.cls-12,.cls-14,.cls-18,.cls-19,.cls-2,.cls-20,.cls-23,.cls-5,.cls-6,.cls-7,.cls-9{fill-rule:evenodd;}.cls-2{stroke:#fff;stroke-miterlimit:10;fill:url(#linear-gradient);}.cls-3{mask:url(#mask);}.cls-4{filter:url(#d);}.cls-6{fill:#f7f7f8;}.cls-7{fill:#ececef;}.cls-8{fill:#d8d8d8;}.cls-11,.cls-9{fill:#a6a6a6;}.cls-9{fill-opacity:0.4;}.cls-10{stroke:#cdcdcd;opacity:0.59;}.cls-10,.cls-13,.cls-15{isolation:isolate;}.cls-11,.cls-12{fill-opacity:0.2;}.cls-12,.cls-14{fill:#0c0c0d;}.cls-13,.cls-15{fill:none;stroke:#979797;stroke-linecap:square;}.cls-13{opacity:0.4;}.cls-14{fill-opacity:0.8;}.cls-15{opacity:0.25;}.cls-16{mask:url(#mask-2);}.cls-17,.cls-18{fill:#ededf0;}.cls-19{fill:#4656d1;}.cls-20{fill:#2a2a2e;}.cls-21{fill:url(#linear-gradient-2);}.cls-22{fill:url(#linear-gradient-3);}.cls-23{fill:url(#linear-gradient-4);}.cls-24{fill:#190026;}.cls-25{mask:url(#mask-9);}.cls-26{fill:url(#linear-gradient-5);}</style><linearGradient id="linear-gradient" x1="-468.49" y1="535.94" x2="-469.21" y2="535.17" gradientTransform="matrix(280, 0, 0, -280, 131409, 150105)" gradientUnits="userSpaceOnUse"><stop offset="0" stop-color="#ffa436"/><stop offset="1" stop-color="#ff7139"/></linearGradient><mask id="mask" x="0" y="0.5" width="273.91" height="273.41" maskUnits="userSpaceOnUse"><g transform="translate(-2.8 -2.8)"><g id="c"><path id="a" class="cls-1" d="M140,3.3h0A136.7,136.7,0,0,1,276.7,140h0A136.7,136.7,0,0,1,140,276.7h0A136.7,136.7,0,0,1,3.3,140h0A136.7,136.7,0,0,1,140,3.3Z"/></g></g></mask><filter id="d" x="-2.9%" y="-5.9%" width="105.7%" height="111.8%" name="d"><feOffset result="shadowOffsetOuter1" in="SourceAlpha"/><feGaussianBlur result="shadowBlurOuter1" stdDeviation="4" in="shadowOffsetOuter1"/><feColorMatrix values="0 0 0 0 0.53 0 0 0 0 0 0 0 0 0 0 0 0 0 0.45 0" in="shadowBlurOuter1"/></filter><mask id="mask-2" x="0.5" y="0.5" width="273.41" height="273.41" maskUnits="userSpaceOnUse"><g transform="translate(-2.8 -2.8)"><g id="c-2" data-name="c"><path id="a-2" data-name="a" class="cls-1" d="M140,3.3h0A136.7,136.7,0,0,1,276.7,140h0A136.7,136.7,0,0,1,140,276.7h0A136.7,136.7,0,0,1,3.3,140h0A136.7,136.7,0,0,1,140,3.3Z"/></g></g></mask><linearGradient id="linear-gradient-2" x1="-411.27" y1="508.82" x2="-412.2" y2="508.17" gradientTransform="matrix(7.98, 0, 0, -9.16, 3521.92, 4729.91)" gradientUnits="userSpaceOnUse"><stop offset="0" stop-color="#dd54f3"/><stop offset="1" stop-color="#9a55ff"/></linearGradient><linearGradient id="linear-gradient-3" x1="-528.63" y1="485.53" x2="-529.85" y2="485.29" gradientTransform="translate(-3984.69 2510.45) rotate(180) scale(7.98 5.02)" xlink:href="#linear-gradient-2"/><linearGradient id="linear-gradient-4" x1="-406.57" y1="449.68" x2="-407.55" y2="449.68" gradientTransform="matrix(7.39, 0, 0, -2.95, 3247, 1405.45)" gradientUnits="userSpaceOnUse"><stop offset="0" stop-color="#00feff"/><stop offset="1" stop-color="#b3fcdf"/></linearGradient><mask id="mask-9" x="0.47" y="0.5" width="273.44" height="273.41" maskUnits="userSpaceOnUse"><g transform="translate(-2.8 -2.8)"><g id="c-9" data-name="c"><path id="a-9" data-name="a" class="cls-1" d="M140,3.3h0A136.7,136.7,0,0,1,276.7,140h0A136.7,136.7,0,0,1,140,276.7h0A136.7,136.7,0,0,1,3.3,140h0A136.7,136.7,0,0,1,140,3.3Z"/></g></g></mask><linearGradient id="linear-gradient-5" x1="-469.15" y1="540.25" x2="-470.09" y2="539.88" gradientTransform="translate(27475.81 -124947.11) rotate(-41) scale(218.67 141.55)" gradientUnits="userSpaceOnUse"><stop offset="0" stop-color="#ff9100"/><stop offset="0.52" stop-color="#f10366"/><stop offset="1" stop-color="#6173ff"/></linearGradient></defs><path id="a-10" data-name="a" class="cls-2" d="M140,3.3h0A136.7,136.7,0,0,1,276.7,140h0A136.7,136.7,0,0,1,140,276.7h0A136.7,136.7,0,0,1,3.3,140h0A136.7,136.7,0,0,1,140,3.3Z" transform="translate(-2.8 -2.8)"/><g class="cls-3"><g class="cls-4"><path id="e" class="cls-5" d="M3.3,84.34H267.92V239.6H3.3ZM27,41.38h81.11V60.54H276.7v23.8H3.3V60.54H27Z" transform="translate(-2.8 -2.8)"/></g><path id="e-2" data-name="e" class="cls-6" d="M3.3,84.34H267.92V239.6H3.3ZM27,41.38h81.11V60.54H276.7v23.8H3.3V60.54H27Z" transform="translate(-2.8 -2.8)"/><polygon class="cls-7" points="24.18 38.58 105.28 38.58 105.28 57.74 273.91 57.74 273.91 81.55 0.5 81.55 0.5 57.74 24.18 57.74 24.18 38.58"/><rect class="cls-8" x="30.77" y="43.46" width="9.76" height="9.76"/><polygon class="cls-9" points="46.39 46.39 93.26 46.39 93.26 52.25 46.39 52.25 46.39 46.39"/><path class="cls-10" d="M220.07,64.32H25.75a1.47,1.47,0,0,0-1,.43,1.45,1.45,0,0,0-.43,1V78.48a1.45,1.45,0,0,0,.43,1,1.47,1.47,0,0,0,1,.43H220.07a1.51,1.51,0,0,0,1-.43,1.48,1.48,0,0,0,.42-1V65.79a1.48,1.48,0,0,0-.42-1A1.51,1.51,0,0,0,220.07,64.32Z" transform="translate(-2.8 -2.8)"/><polygon class="cls-11" points="57.13 65.92 203.6 65.92 203.6 72.76 57.13 72.76 57.13 65.92"/><path class="cls-12" d="M29.9,69.77c0,.9,0,1.52,0,1.82a4.16,4.16,0,0,0,.82,2.4,2.32,2.32,0,0,0,1.38.89A2.32,2.32,0,0,0,33.48,74a4.16,4.16,0,0,0,.82-2.4c0-.3,0-.92,0-1.82l-2.2-.37ZM32.1,76H32a3.39,3.39,0,0,1-2.2-1.34,5,5,0,0,1-1-2.9c0-.46,0-1.47,0-2a1,1,0,0,1,.83-1l2.46-.42,2.46.42a1,1,0,0,1,.84,1c0,.56,0,1.57,0,2a5,5,0,0,1-1,2.9A3.39,3.39,0,0,1,32.16,76Zm0-5.75-1.37.24c0,.52,0,.91,0,1.1a3.23,3.23,0,0,0,.62,1.94,1.43,1.43,0,0,0,.72.51h0Z" transform="translate(-2.8 -2.8)"/><line class="cls-13" x1="37.85" y1="65.2" x2="37.85" y2="73.48"/><path id="f" class="cls-14" d="M50.2,71.58h-.28V70.49a2.2,2.2,0,1,0-4.39,0v1.09h-.28a.82.82,0,0,0-.82.82v2.76a.82.82,0,0,0,.82.82h5a.82.82,0,0,0,.82-.82V72.4A.82.82,0,0,0,50.2,71.58Zm-3.57-1.09a1.1,1.1,0,1,1,2.19,0v1.09H46.63Z" transform="translate(-2.8 -2.8)"/><line class="cls-15" x1="0.5" y1="81.06" x2="266.1" y2="81.06"/></g><g class="cls-16"><rect class="cls-17" x="9.29" y="117.68" width="225.56" height="19.53" rx="3.91"/></g><g class="cls-16"><path class="cls-18" d="M83.85,159.53H236.18A3.42,3.42,0,0,1,239.6,163h0a3.42,3.42,0,0,1-3.42,3.41H83.85A3.41,3.41,0,0,1,80.44,163h0A3.42,3.42,0,0,1,83.85,159.53Z" transform="translate(-2.8 -2.8)"/></g><g class="cls-16"><path class="cls-18" d="M83.85,170.27H236.18a3.42,3.42,0,0,1,3.42,3.42h0a3.42,3.42,0,0,1-3.42,3.42H83.85a3.42,3.42,0,0,1-3.41-3.42h0A3.42,3.42,0,0,1,83.85,170.27Z" transform="translate(-2.8 -2.8)"/></g><g class="cls-16"><path class="cls-18" d="M83.85,181H236.18a3.42,3.42,0,0,1,3.42,3.42h0a3.42,3.42,0,0,1-3.42,3.42H83.85a3.42,3.42,0,0,1-3.41-3.42h0A3.42,3.42,0,0,1,83.85,181Z" transform="translate(-2.8 -2.8)"/></g><g class="cls-16"><path class="cls-18" d="M83.85,191.75H204.93a3.42,3.42,0,0,1,3.42,3.42h0a3.42,3.42,0,0,1-3.42,3.42H83.85a3.42,3.42,0,0,1-3.41-3.42h0A3.42,3.42,0,0,1,83.85,191.75Z" transform="translate(-2.8 -2.8)"/></g><g class="cls-16"><rect class="cls-17" x="19.05" y="156.73" width="42.96" height="42.96" rx="3.91"/></g><g class="cls-16"><path class="cls-19" d="M239.58,75.42h4.32a1.14,1.14,0,0,0-1.15-1.15h-4.33A1.16,1.16,0,0,0,239.58,75.42Z" transform="translate(-2.8 -2.8)"/><path class="cls-20" d="M233.13,68.35,236.58,67A1.93,1.93,0,0,1,238,67l3.5,1.31a2,2,0,0,1,1.27,1.86l-.07,4.33a2,2,0,0,1-1.09,1.72l-3.4,1.67a2,2,0,0,1-1.7,0l-3.54-1.68a1.94,1.94,0,0,1-1.12-1.79l.07-4.33A2,2,0,0,1,233.13,68.35Z" transform="translate(-2.8 -2.8)"/><path class="cls-21" d="M237.27,68.21a.42.42,0,0,1,.43.37V72a.43.43,0,0,1,.24.18.4.4,0,0,1-.14.53l-.1,0v4a.43.43,0,0,1-.86,0V73.1a.4.4,0,0,1-.24-.18.39.39,0,0,1,.14-.53l.1,0V68.61A.41.41,0,0,1,237.27,68.21Zm-3,5.53a.39.39,0,0,1,.38.67l-.67.38a.38.38,0,0,1-.38-.66Zm1.44-.86a.38.38,0,1,1,.39.66l-.67.39a.4.4,0,0,1-.53-.14.38.38,0,0,1,.14-.53Zm3.46-2a.38.38,0,1,1,.39.66l-.67.39a.4.4,0,0,1-.53-.14.39.39,0,0,1,.14-.53Zm1.44-.87a.39.39,0,0,1,.39.67l-.67.38a.39.39,0,0,1-.53-.14.39.39,0,0,1,.14-.52Z" transform="translate(-2.8 -2.8)"/><path class="cls-22" d="M234,70l.67.39a.37.37,0,0,1,.14.52.38.38,0,0,1-.52.14l-.67-.38A.39.39,0,0,1,234,70Zm1.45.87.67.38a.39.39,0,0,1-.39.67l-.67-.39a.37.37,0,0,1-.14-.52A.38.38,0,0,1,235.4,70.86ZM237.13,72l.67.38a.4.4,0,0,1,.14.53.39.39,0,0,1-.53.14l-.67-.38a.39.39,0,1,1,.39-.67Zm1.73.87.67.38a.39.39,0,0,1,.14.53.4.4,0,0,1-.53.14l-.67-.39a.38.38,0,1,1,.39-.66Zm1.44.86.67.39a.38.38,0,1,1-.39.66l-.67-.38a.4.4,0,0,1-.14-.53A.39.39,0,0,1,240.3,73.74Z" transform="translate(-2.8 -2.8)"/><path class="cls-23" d="M239.58,75.42h4.32A2.89,2.89,0,0,1,241,78.31h-4.33A2.89,2.89,0,0,1,239.58,75.42Z" transform="translate(-2.8 -2.8)"/><path class="cls-24" d="M238.67,77.54a.55.55,0,0,0,.24,0,.44.44,0,0,0,.15-.12.41.41,0,0,0,.05-.18.38.38,0,0,0,0-.16.29.29,0,0,0-.11-.11.28.28,0,0,0-.13,0h0l.12,0a.24.24,0,0,0,.08-.09.28.28,0,0,0,0-.13.34.34,0,0,0-.05-.17.26.26,0,0,0-.14-.11.53.53,0,0,0-.23,0h-.51v1.25Zm-.07-.73h-.2V76.5h.2a.2.2,0,0,1,.14,0,.16.16,0,0,1,0,.11.14.14,0,0,1,0,.09.13.13,0,0,1-.07.05.13.13,0,0,1-.09,0Zm0,.52h-.22V77h.22a.18.18,0,0,1,.11,0,.16.16,0,0,1,.08.06.24.24,0,0,1,0,.09.13.13,0,0,1-.05.11A.23.23,0,0,1,238.62,77.33Zm1.51.21v-.21h-.59V77h.54v-.21h-.54v-.3h.59v-.22h-.85v1.25Zm.81,0v-1h.38v-.22h-1v.22h.39v1Zm.62,0,.09-.28h.46l.09.28h.28l-.43-1.25h-.34l-.44,1.25Zm.48-.49h-.32l.15-.48h0l.16.48Z" transform="translate(-2.8 -2.8)"/></g><g class="cls-25"><path class="cls-26" d="M3.26,134.15c5.58-7.42,19.12-12.27,36.27-12.75,2.82-.08,5.62,0,8.37.12l.17,0,0,.19c-1.85,10.2.51,21.64,7,31.54l.3.45c8.69,12.87,23.14,19.09,34.4,16.16,11.91-3.1,15.15-14.92,6.1-29.61-7.36-12-24.11-19.57-43.42-21.54l-.47,0,.09-.32a31,31,0,0,1,2-4.88l.21-.39C60.52,101.38,73.4,96,90,99.72a93.35,93.35,0,0,1,14.21,4.73l.93.39c7.34,3.08,29.24,13.15,31.87,14.3l1.82.79c21,9.06,36.56,13.43,50.94,13,18.12-.51,32.38-9.13,42.57-27.47l-.13-.11a22.73,22.73,0,0,1,3.08,3.48,2,2,0,0,0,.29.29,1.23,1.23,0,0,0,.5.25,1.31,1.31,0,0,0,.68,0,1.55,1.55,0,0,0,.5-.25h0a1.55,1.55,0,0,0,.44-.55,2.3,2.3,0,0,0,.15-.32c0-.15.1-.29.14-.45a14,14,0,0,0,.31-1.71c.08-.66.15-1.4.2-2.19.1-1.57.14-3.32.09-4.9a25.63,25.63,0,0,0-.2-2.85,8.4,8.4,0,0,0-.25-1.27,4.07,4.07,0,0,0-.22-.58,1.73,1.73,0,0,0-.54-.66,1.41,1.41,0,0,0-.46-.23,1.89,1.89,0,0,0-.6,0,4.38,4.38,0,0,0-.44.08,6.8,6.8,0,0,0-.85.31c-.6.26-1.3.63-2.08,1.06-1.55.88-3.39,2-5,3.16-1.09.75-2.09,1.47-2.86,2.09a12.86,12.86,0,0,0-1.09,1,4.39,4.39,0,0,0-.42.51,1.9,1.9,0,0,0-.19.44,1.19,1.19,0,0,0,0,.45,1.28,1.28,0,0,0,.23.61,1.3,1.3,0,0,0,.31.31,1.34,1.34,0,0,0,.41.19,1.81,1.81,0,0,0,.42,0h.08l.44,0c.86,0,1.61,0,2.27,0a9.32,9.32,0,0,1,2,.29l.11,0c-9.65,17.4-22.91,25.41-39.93,25.89-14,.39-29.44-4-50.52-13.17l-1.69-.75c-4.92-2.21-25.73-11.75-31.86-14.27l-.22-.09a97.15,97.15,0,0,0-14.69-4.89c-17.93-4.05-32.24,2-39.17,15a34.47,34.47,0,0,0-2.62,6.45l-.1.36-.61,0q-4-.23-8-.15l-.73,0c-15.81.45-29,4.47-36.15,11.15ZM89.05,167c-9.8,2.6-22.76-3.07-30.65-14.95-6.22-9.35-8.48-20.18-6.79-29.76l.11-.56h.1c18.34,1.74,34.24,8.85,41.16,19.82l.25.4c7.93,13.1,5.39,22.51-4.18,25Z" transform="translate(-2.8 -2.8)"/></g></svg>