<svg id="Layer_1" data-name="Layer 1" xmlns="http://www.w3.org/2000/svg" xmlns:xlink="http://www.w3.org/1999/xlink" viewBox="0 0 418 280"><defs><style>.cls-1,.cls-9{fill:#fff;}.cls-1,.cls-10,.cls-11,.cls-13,.cls-17,.cls-18,.cls-19,.cls-2,.cls-22,.cls-4,.cls-5,.cls-6,.cls-8,.cls-9{fill-rule:evenodd;}.cls-2{fill:url(#linear-gradient);}.cls-3{mask:url(#mask);}.cls-5{fill:#f7f7f8;}.cls-6{fill:#ececef;}.cls-7{fill:#d8d8d8;}.cls-10,.cls-8{fill:#a6a6a6;}.cls-8{fill-opacity:0.4;}.cls-9{stroke:#cdcdcd;opacity:0.59;}.cls-12,.cls-14,.cls-9{isolation:isolate;}.cls-10,.cls-11{fill-opacity:0.2;}.cls-11,.cls-13{fill:#0c0c0d;}.cls-12,.cls-14{fill:none;stroke:#979797;stroke-linecap:square;}.cls-12{opacity:0.4;}.cls-13{fill-opacity:0.8;}.cls-14{opacity:0.25;}.cls-15{mask:url(#mask-2);}.cls-16,.cls-17{fill:#ededf0;}.cls-18{fill:#4656d1;}.cls-19{fill:#2a2a2e;}.cls-20{fill:url(#linear-gradient-2);}.cls-21{fill:url(#linear-gradient-3);}.cls-22{fill:url(#linear-gradient-4);}.cls-23{fill:#190026;}.cls-24{mask:url(#mask-9);}.cls-25{fill:url(#linear-gradient-5);}</style><linearGradient id="linear-gradient" x1="-107.77" y1="390.47" x2="-108.51" y2="389.68" gradientTransform="matrix(280, 0, 0, -280, 30411, 109371)" gradientUnits="userSpaceOnUse"><stop offset="0" stop-color="#ffa436"/><stop offset="1" stop-color="#ff7139"/></linearGradient><mask id="mask" x="0" y="0" width="418" height="280" maskUnits="userSpaceOnUse"><g transform="translate(84)"><g id="c"><path id="a" class="cls-1" d="M140,0h0A140,140,0,0,1,280,140h0A140,140,0,0,1,140,280h0A140,140,0,0,1,0,140H0A140,140,0,0,1,140,0Z"/></g></g></mask><mask id="mask-2" x="84" y="0" width="280" height="280" maskUnits="userSpaceOnUse"><g transform="translate(84)"><g id="c-2" data-name="c"><path id="a-2" data-name="a" class="cls-1" d="M140,0h0A140,140,0,0,1,280,140h0A140,140,0,0,1,140,280h0A140,140,0,0,1,0,140H0A140,140,0,0,1,140,0Z"/></g></g></mask><linearGradient id="linear-gradient-2" x1="-94.34" y1="378.95" x2="-95.29" y2="378.28" gradientTransform="matrix(7.98, 0, 0, -9.16, 996.15, 3538.68)" gradientUnits="userSpaceOnUse"><stop offset="0" stop-color="#dd54f3"/><stop offset="1" stop-color="#9a55ff"/></linearGradient><linearGradient id="linear-gradient-3" x1="-121.54" y1="368.92" x2="-122.78" y2="368.68" gradientTransform="translate(-734.92 1923.14) rotate(180) scale(7.98 5.02)" xlink:href="#linear-gradient-2"/><linearGradient id="linear-gradient-4" x1="-93.24" y1="353.61" x2="-94.24" y2="353.61" gradientTransform="matrix(7.39, 0, 0, -2.95, 935.14, 1120.09)" gradientUnits="userSpaceOnUse"><stop offset="0" stop-color="#00feff"/><stop offset="1" stop-color="#b3fcdf"/></linearGradient><mask id="mask-9" x="77.93" y="0" width="286.07" height="280" maskUnits="userSpaceOnUse"><g transform="translate(84)"><g id="c-9" data-name="c"><path id="a-9" data-name="a" class="cls-1" d="M140,0h0A140,140,0,0,1,280,140h0A140,140,0,0,1,140,280h0A140,140,0,0,1,0,140H0A140,140,0,0,1,140,0Z"/></g></g></mask><linearGradient id="linear-gradient-5" x1="-107.95" y1="391.79" x2="-108.95" y2="391.4" gradientTransform="translate(-18347.06 -57270.74) rotate(-41) scale(218.67 141.55)" gradientUnits="userSpaceOnUse"><stop offset="0" stop-color="#ff9100"/><stop offset="0.52" stop-color="#f10366"/><stop offset="1" stop-color="#6173ff"/></linearGradient></defs><path id="a-10" data-name="a" class="cls-2" d="M140,0h0A140,140,0,0,1,280,140h0A140,140,0,0,1,140,280h0A140,140,0,0,1,0,140H0A140,140,0,0,1,140,0Z" transform="translate(84)"/><g class="cls-3"><path id="e" class="cls-4" d="M-33,83H271V242H-33ZM24.25,39h83.06V58.62H334V83H-84V58.62H24.25Z" transform="translate(84)"/><path id="e-2" data-name="e" class="cls-5" d="M-33,83H271V242H-33ZM24.25,39h83.06V58.62H334V83H-84V58.62H24.25Z" transform="translate(84)"/><polygon class="cls-6" points="108.25 39 191.31 39 191.31 58.62 418 58.62 418 83 0 83 0 58.62 108.25 58.62 108.25 39"/><rect class="cls-7" x="115" y="44" width="10" height="10"/><polygon class="cls-8" points="131 47 179 47 179 53 131 53 131 47"/><path class="cls-9" d="M222,62.5H23A1.5,1.5,0,0,0,21.5,64V77A1.5,1.5,0,0,0,23,78.5H222a1.5,1.5,0,0,0,1.5-1.5V64a1.5,1.5,0,0,0-1.5-1.5Z" transform="translate(84)"/><polygon class="cls-10" points="142 67 292 67 292 74 142 74 142 67"/><path class="cls-11" d="M27.25,68.08c0,.92,0,1.55,0,1.86a4.2,4.2,0,0,0,.84,2.46,2.32,2.32,0,0,0,1.41.91,2.32,2.32,0,0,0,1.41-.91,4.2,4.2,0,0,0,.84-2.46c0-.31,0-.94,0-1.86L29.5,67.7Zm2.25,6.36h-.06a3.51,3.51,0,0,1-2.26-1.36,5.13,5.13,0,0,1-1-3c-.05-.48-.05-1.51-.05-2.09A1,1,0,0,1,27,67l2.52-.44L32,67a1,1,0,0,1,.87,1c0,.58,0,1.61-.05,2.09a5.21,5.21,0,0,1-1,3,3.51,3.51,0,0,1-2.26,1.36Zm0-5.89-1.41.24c0,.53,0,.93,0,1.13a3.27,3.27,0,0,0,.63,2,1.46,1.46,0,0,0,.74.53h0Z" transform="translate(84)"/><line class="cls-12" x1="122.25" y1="66.26" x2="122.25" y2="74.74"/><path id="f" class="cls-13" d="M48,69.93h-.28V68.81a2.25,2.25,0,0,0-4.5,0v1.12H43a.85.85,0,0,0-.85.84v2.82a.85.85,0,0,0,.85.85H48a.85.85,0,0,0,.85-.85V70.77A.85.85,0,0,0,48,69.93Zm-3.65-1.12a1.12,1.12,0,1,1,2.24,0v1.12H44.38Z" transform="translate(84)"/><line class="cls-14" x1="52" y1="82.5" x2="356" y2="82.5"/></g><g class="cls-15"><rect class="cls-16" x="93" y="120" width="231" height="20" rx="4"/></g><g class="cls-15"><path class="cls-17" d="M82.5,160h156a3.5,3.5,0,0,1,3.5,3.5h0a3.5,3.5,0,0,1-3.5,3.5H82.5a3.5,3.5,0,0,1-3.5-3.5h0A3.5,3.5,0,0,1,82.5,160Z" transform="translate(84)"/></g><g class="cls-15"><path class="cls-17" d="M82.5,171h156a3.5,3.5,0,0,1,3.5,3.5h0a3.5,3.5,0,0,1-3.5,3.5H82.5a3.5,3.5,0,0,1-3.5-3.5h0A3.5,3.5,0,0,1,82.5,171Z" transform="translate(84)"/></g><g class="cls-15"><path class="cls-17" d="M82.5,182h156a3.5,3.5,0,0,1,3.5,3.5h0a3.5,3.5,0,0,1-3.5,3.5H82.5a3.5,3.5,0,0,1-3.5-3.5h0A3.5,3.5,0,0,1,82.5,182Z" transform="translate(84)"/></g><g class="cls-15"><path class="cls-17" d="M82.5,193h124a3.5,3.5,0,0,1,3.5,3.5h0a3.5,3.5,0,0,1-3.5,3.5H82.5a3.5,3.5,0,0,1-3.5-3.5h0A3.5,3.5,0,0,1,82.5,193Z" transform="translate(84)"/></g><g class="cls-15"><rect class="cls-16" x="103" y="160" width="44" height="44" rx="4"/></g><g class="cls-15"><path class="cls-18" d="M242,73.86h4.43a1.18,1.18,0,0,0-1.18-1.18H240.8A1.18,1.18,0,0,0,242,73.86Z" transform="translate(84)"/><path class="cls-19" d="M235.38,66.62l3.53-1.35a2,2,0,0,1,1.41,0l3.59,1.34a2,2,0,0,1,1.29,1.91L245.13,73A2,2,0,0,1,244,74.72l-3.47,1.71a2,2,0,0,1-1.74,0l-3.63-1.71A2,2,0,0,1,234,72.89l.07-4.43A2,2,0,0,1,235.38,66.62Z" transform="translate(84)"/><path class="cls-20" d="M239.61,66.48a.43.43,0,0,1,.44.37v3.48a.41.41,0,0,1,.24.19.39.39,0,0,1-.15.53l-.09.06v4.11a.45.45,0,0,1-.89,0V71.49a.38.38,0,0,1-.24-.19.39.39,0,0,1,.14-.54l.1-.05V66.89A.43.43,0,0,1,239.61,66.48Zm-3.1,5.66a.4.4,0,0,1,.39.69l-.68.39a.4.4,0,0,1-.54-.14.39.39,0,0,1,.14-.54Zm1.48-.88a.39.39,0,1,1,.39.68l-.68.39a.39.39,0,0,1-.4-.68Zm3.54-2.07a.39.39,0,1,1,.4.68l-.69.4a.4.4,0,0,1-.54-.15.4.4,0,0,1,.15-.54ZM243,68.3a.4.4,0,0,1,.39.69l-.68.39a.4.4,0,0,1-.54-.15.38.38,0,0,1,.14-.53Z" transform="translate(84)"/><path class="cls-21" d="M236.22,68.3l.68.4a.39.39,0,0,1,.15.53.4.4,0,0,1-.54.15l-.69-.39a.4.4,0,0,1,.4-.69Zm1.48.89.68.39a.4.4,0,0,1,.15.54.4.4,0,0,1-.54.15l-.69-.4a.39.39,0,1,1,.4-.68Zm1.77,1.18.68.39a.4.4,0,0,1-.39.69l-.69-.4a.38.38,0,0,1-.14-.53A.4.4,0,0,1,239.47,70.37Zm1.77.89.69.39a.39.39,0,1,1-.4.68l-.68-.39a.39.39,0,1,1,.39-.68Zm1.48.88.68.4a.4.4,0,0,1,.15.54.4.4,0,0,1-.54.14l-.69-.39a.4.4,0,0,1,.4-.69Z" transform="translate(84)"/><path class="cls-22" d="M242,73.86h4.43a3,3,0,0,1-3,3H239A3,3,0,0,1,242,73.86Z" transform="translate(84)"/><path class="cls-23" d="M241.05,76a.54.54,0,0,0,.24-.05.31.31,0,0,0,.15-.12.32.32,0,0,0,.05-.19.27.27,0,0,0,0-.16.27.27,0,0,0-.1-.11.33.33,0,0,0-.14,0h0a.33.33,0,0,0,.12,0,.25.25,0,0,0,.08-.1.25.25,0,0,0,0-.13.33.33,0,0,0,0-.17.36.36,0,0,0-.15-.12.53.53,0,0,0-.23,0h-.52V76Zm-.08-.75h-.2V75H241a.2.2,0,0,1,.14,0,.17.17,0,0,1,0,.12.11.11,0,0,1,0,.08.11.11,0,0,1-.07.06l-.1,0Zm0,.53h-.22v-.35H241a.2.2,0,0,1,.11,0,.12.12,0,0,1,.08.06.3.3,0,0,1,0,.1.13.13,0,0,1-.05.11A.25.25,0,0,1,241,75.82Zm1.55.22v-.23h-.6v-.3h.56v-.23h-.56V75h.6v-.22h-.87V76Zm.83,0V75h.4v-.22h-1.06V75h.39V76Zm.64,0,.09-.29h.47l.09.29H245l-.44-1.29h-.35L243.71,76Zm.49-.51h-.33l.16-.49h0l.16.49Z" transform="translate(84)"/></g><g class="cls-24"><path class="cls-25" d="M239.59,108.41a1.84,1.84,0,0,0,.45-.55c.06-.12.1-.23.15-.34s.1-.3.14-.46a14.28,14.28,0,0,0,.32-1.75c.08-.67.15-1.43.21-2.24.1-1.61.14-3.4.09-5a26.63,26.63,0,0,0-.21-2.92,8.44,8.44,0,0,0-.25-1.29,3.37,3.37,0,0,0-.23-.6,1.81,1.81,0,0,0-.55-.68,1.55,1.55,0,0,0-.47-.23,1.75,1.75,0,0,0-.62,0,2.79,2.79,0,0,0-.45.08,7.83,7.83,0,0,0-.87.32,21.79,21.79,0,0,0-2.13,1.09c-1.59.89-3.47,2.08-5.14,3.23-1.12.77-2.14,1.51-2.93,2.14a13.51,13.51,0,0,0-1.11,1,3.21,3.21,0,0,0-.43.53,1.52,1.52,0,0,0-.2.44,1.3,1.3,0,0,0,0,.47,1.35,1.35,0,0,0,.23.62,1.39,1.39,0,0,0,.32.32,1.42,1.42,0,0,0,.43.19,1.39,1.39,0,0,0,.42.05h.09l.44,0a22.79,22.79,0,0,1,2.33,0,9.68,9.68,0,0,1,2.06.3l.11,0c-9.88,17.82-23.47,26-40.89,26.51-14.35.4-30.15-4.1-51.74-13.48l-1.73-.77c-5-2.26-26.35-12-32.63-14.62l-.22-.09a98.73,98.73,0,0,0-15.05-5c-18.36-4.15-33,2-40.11,15.33a34.72,34.72,0,0,0-2.68,6.6l-.1.37-.64,0q-4.05-.24-8.19-.15l-.76,0c-25,.7-43.44,10.12-43.08,24.78a1.61,1.61,0,0,0,1.65,1.57,1.6,1.6,0,0,0,1.56-1.65c-.3-12.23,16.55-20.83,40-21.48,2.9-.09,5.76,0,8.58.12h.18l0,.19c-1.9,10.46.53,22.17,7.21,32.31l.31.46C62.24,167.23,77,173.6,88.56,170.6c12.2-3.18,15.52-15.28,6.26-30.33-7.54-12.25-24.69-20-44.47-22.05l-.48,0,.09-.32a31.58,31.58,0,0,1,2-5l.21-.4c6.4-12,19.58-17.54,36.57-13.7a95,95,0,0,1,14.55,4.85l1,.39c7.52,3.16,29.94,13.46,32.64,14.65l1.86.8c21.51,9.29,37.44,13.76,52.17,13.35,18.55-.52,33.16-9.35,43.59-28.13l-.12-.12a24.55,24.55,0,0,1,3.15,3.57,2,2,0,0,0,.29.3,1.49,1.49,0,0,0,.52.26,1.34,1.34,0,0,0,.69,0,1.49,1.49,0,0,0,.52-.26ZM87.82,167.7c-10,2.65-23.31-3.16-31.39-15.31-6.36-9.58-8.68-20.68-7-30.49l.11-.57h.1c18.78,1.78,35.07,9.06,42.16,20.3l.25.41c8.12,13.41,5.52,23-4.28,25.65Z" transform="translate(84)"/></g></svg>