<svg id="Layer_1" data-name="Layer 1" xmlns="http://www.w3.org/2000/svg" xmlns:xlink="http://www.w3.org/1999/xlink" viewBox="0 0 274.41 274.41"><defs><linearGradient id="linear-gradient" x1="-468.49" y1="535.94" x2="-469.21" y2="535.17" gradientTransform="matrix(280 0 0 -280 131409 150105)" gradientUnits="userSpaceOnUse"><stop offset="0" stop-color="#ffa436"/><stop offset="1" stop-color="#ff7139"/></linearGradient><linearGradient id="linear-gradient-2" x1="-411.27" y1="508.82" x2="-412.2" y2="508.17" gradientTransform="matrix(7.98 0 0 -9.16 3521.92 4729.91)" gradientUnits="userSpaceOnUse"><stop offset="0" stop-color="#dd54f3"/><stop offset="1" stop-color="#9a55ff"/></linearGradient><linearGradient id="linear-gradient-3" x1="-528.63" y1="485.53" x2="-529.85" y2="485.29" gradientTransform="matrix(-7.98 0 0 -5.02 -3984.69 2510.45)" xlink:href="#linear-gradient-2"/><linearGradient id="linear-gradient-4" x1="-406.57" y1="449.68" x2="-407.55" y2="449.68" gradientTransform="matrix(7.39 0 0 -2.95 3247 1405.45)" gradientUnits="userSpaceOnUse"><stop offset="0" stop-color="#00feff"/><stop offset="1" stop-color="#b3fcdf"/></linearGradient><linearGradient id="linear-gradient-5" x1="-469.15" y1="540.25" x2="-470.09" y2="539.88" gradientTransform="matrix(165.03234 -143.46043 92.86516 106.82914 27475.81 -124947.11)" gradientUnits="userSpaceOnUse"><stop offset="0" stop-color="#ff9100"/><stop offset=".52" stop-color="#f10366"/><stop offset="1" stop-color="#6173ff"/></linearGradient><mask id="mask" x="0" y=".5" width="273.91" height="273.41" maskUnits="userSpaceOnUse"><g transform="translate(-2.8 -2.8)"><g id="c"><path id="a" class="cls-1" d="M140 3.3A136.7 136.7 0 01276.7 140 136.7 136.7 0 01140 276.7 136.7 136.7 0 013.3 140 136.7 136.7 0 01140 3.3z"/></g></g></mask><mask id="mask-2" x=".5" y=".5" width="273.41" height="273.41" maskUnits="userSpaceOnUse"><g transform="translate(-2.8 -2.8)"><g id="c-2" data-name="c"><path id="a-2" data-name="a" class="cls-1" d="M140 3.3A136.7 136.7 0 01276.7 140 136.7 136.7 0 01140 276.7 136.7 136.7 0 013.3 140 136.7 136.7 0 01140 3.3z"/></g></g></mask><mask id="mask-9" x=".47" y=".5" width="273.44" height="273.41" maskUnits="userSpaceOnUse"><g transform="translate(-2.8 -2.8)"><g id="c-9" data-name="c"><path id="a-9" data-name="a" class="cls-1" d="M140 3.3A136.7 136.7 0 01276.7 140 136.7 136.7 0 01140 276.7 136.7 136.7 0 013.3 140 136.7 136.7 0 01140 3.3z"/></g></g></mask><filter id="d" x="-2.9%" y="-5.9%" width="105.7%" height="111.8%"><feOffset result="shadowOffsetOuter1" in="SourceAlpha"/><feGaussianBlur result="shadowBlurOuter1" stdDeviation="4" in="shadowOffsetOuter1"/><feColorMatrix values="0 0 0 0 0.53 0 0 0 0 0 0 0 0 0 0 0 0 0 0.45 0" in="shadowBlurOuter1"/></filter><style>.cls-1{fill:#fff}.cls-1,.cls-18{fill-rule:evenodd}.cls-16{mask:url(#mask-2)}.cls-17,.cls-18{fill:#ededf0}</style></defs><path id="a-10" data-name="a" d="M140 3.3h0A136.7 136.7 0 01276.7 140h0A136.7 136.7 0 01140 276.7h0A136.7 136.7 0 013.3 140h0A136.7 136.7 0 01140 3.3z" transform="translate(-2.8 -2.8)" stroke="#fff" stroke-miterlimit="10" fill="url(#linear-gradient)" fill-rule="evenodd"/><g mask="url(#mask)"><g filter="url(#d)"><path id="e" d="M3.3 84.34h264.62V239.6H3.3zM27 41.38h81.11v19.16H276.7v23.8H3.3v-23.8H27z" transform="translate(-2.8 -2.8)" fill-rule="evenodd"/></g><path id="e-2" data-name="e" d="M3.3 84.34h264.62V239.6H3.3zM27 41.38h81.11v19.16H276.7v23.8H3.3v-23.8H27z" transform="translate(-2.8 -2.8)" fill="#f7f7f8" fill-rule="evenodd"/><path fill="#ececef" fill-rule="evenodd" d="M24.18 38.58h81.1v19.16h168.63v23.81H.5V57.74h23.68V38.58z"/><path fill="#d8d8d8" d="M30.77 43.46h9.76v9.76h-9.76z"/><path fill-opacity=".4" fill="#a6a6a6" fill-rule="evenodd" d="M46.39 46.39h46.87v5.86H46.39v-5.86z"/><path d="M220.07 64.32H25.75a1.47 1.47 0 00-1 .43 1.45 1.45 0 00-.43 1v12.73a1.45 1.45 0 00.43 1 1.47 1.47 0 001 .43h194.32a1.51 1.51 0 001-.43 1.48 1.48 0 00.42-1V65.79a1.48 1.48 0 00-.42-1 1.51 1.51 0 00-1-.47z" transform="translate(-2.8 -2.8)" style="isolation:isolate" stroke="#cdcdcd" opacity=".59" fill-rule="evenodd" fill="#fff"/><path fill-opacity=".2" fill="#a6a6a6" fill-rule="evenodd" d="M57.13 65.92H203.6v6.84H57.13v-6.84z"/><path d="M29.9 69.77v1.82a4.16 4.16 0 00.82 2.4 2.32 2.32 0 001.38.89 2.32 2.32 0 001.38-.88 4.16 4.16 0 00.82-2.4v-1.82l-2.2-.37zM32.1 76H32a3.39 3.39 0 01-2.2-1.34 5 5 0 01-1-2.9v-2a1 1 0 01.83-1l2.46-.42 2.46.42a1 1 0 01.84 1v2a5 5 0 01-1 2.9A3.39 3.39 0 0132.16 76zm0-5.75l-1.37.24v1.1a3.23 3.23 0 00.62 1.94 1.43 1.43 0 00.72.51z" transform="translate(-2.8 -2.8)" fill="#0c0c0d" fill-opacity=".2" fill-rule="evenodd"/><path style="isolation:isolate" opacity=".4" fill="none" stroke="#979797" stroke-linecap="square" d="M37.85 65.2v8.28"/><path id="f" d="M50.2 71.58h-.28v-1.09a2.2 2.2 0 10-4.39 0v1.09h-.28a.82.82 0 00-.82.82v2.76a.82.82 0 00.82.82h5a.82.82 0 00.82-.82V72.4a.82.82 0 00-.87-.82zm-3.57-1.09a1.1 1.1 0 112.19 0v1.09h-2.19z" transform="translate(-2.8 -2.8)" fill-opacity=".8" fill="#0c0c0d" fill-rule="evenodd"/><path style="isolation:isolate" opacity=".25" fill="none" stroke="#979797" stroke-linecap="square" d="M.5 81.06h265.6"/></g><g class="cls-16"><rect class="cls-17" x="9.29" y="117.68" width="225.56" height="19.53" rx="3.91"/></g><g class="cls-16"><path class="cls-18" d="M83.85 159.53h152.33a3.42 3.42 0 013.42 3.47 3.42 3.42 0 01-3.42 3.41H83.85a3.41 3.41 0 01-3.41-3.41 3.42 3.42 0 013.41-3.47z" transform="translate(-2.8 -2.8)"/></g><g class="cls-16"><path class="cls-18" d="M83.85 170.27h152.33a3.42 3.42 0 013.42 3.42 3.42 3.42 0 01-3.42 3.42H83.85a3.42 3.42 0 01-3.41-3.42 3.42 3.42 0 013.41-3.42z" transform="translate(-2.8 -2.8)"/></g><g class="cls-16"><path class="cls-18" d="M83.85 181h152.33a3.42 3.42 0 013.42 3.42 3.42 3.42 0 01-3.42 3.42H83.85a3.42 3.42 0 01-3.41-3.42 3.42 3.42 0 013.41-3.42z" transform="translate(-2.8 -2.8)"/></g><g class="cls-16"><path class="cls-18" d="M83.85 191.75h121.08a3.42 3.42 0 013.42 3.42 3.42 3.42 0 01-3.42 3.42H83.85a3.42 3.42 0 01-3.41-3.42 3.42 3.42 0 013.41-3.42z" transform="translate(-2.8 -2.8)"/></g><g class="cls-16"><rect class="cls-17" x="19.05" y="156.73" width="42.96" height="42.96" rx="3.91"/></g><g class="cls-16"><path d="M239.58 75.42h4.32a1.14 1.14 0 00-1.15-1.15h-4.33a1.16 1.16 0 001.16 1.15z" transform="translate(-2.8 -2.8)" fill="#4656d1" fill-rule="evenodd"/><path d="M233.13 68.35l3.45-1.35a1.93 1.93 0 011.42 0l3.5 1.31a2 2 0 011.27 1.86l-.07 4.33a2 2 0 01-1.09 1.72l-3.4 1.67a2 2 0 01-1.7 0l-3.54-1.68a1.94 1.94 0 01-1.12-1.79l.07-4.33a2 2 0 011.21-1.74z" transform="translate(-2.8 -2.8)" fill="#2a2a2e" fill-rule="evenodd"/><path d="M237.27 68.21a.42.42 0 01.43.37V72a.43.43 0 01.24.18.4.4 0 01-.14.53h-.1v4a.43.43 0 01-.86 0V73.1a.4.4 0 01-.24-.18.39.39 0 01.14-.53h.1v-3.78a.41.41 0 01.43-.4zm-3 5.53a.39.39 0 01.38.67l-.67.38a.38.38 0 01-.38-.66zm1.44-.86a.38.38 0 11.39.66l-.67.39a.4.4 0 01-.53-.14.38.38 0 01.14-.53zm3.46-2a.38.38 0 11.39.66l-.67.39a.4.4 0 01-.53-.14.39.39 0 01.14-.53zm1.44-.87a.39.39 0 01.39.67l-.67.38a.39.39 0 01-.53-.14.39.39 0 01.14-.52z" transform="translate(-2.8 -2.8)" fill="url(#linear-gradient-2)"/><path d="M234 70l.67.39a.37.37 0 01.14.52.38.38 0 01-.52.14l-.67-.38A.39.39 0 01234 70zm1.45.87l.67.38a.39.39 0 01-.39.67l-.67-.39a.37.37 0 01-.14-.52.38.38 0 01.48-.15zm1.68 1.13l.67.38a.4.4 0 01.14.53.39.39 0 01-.53.14l-.67-.38a.39.39 0 11.39-.67zm1.73.87l.67.38a.39.39 0 01.14.53.4.4 0 01-.53.14l-.67-.39a.38.38 0 11.39-.66zm1.44.86l.67.39a.38.38 0 11-.39.66l-.67-.38a.4.4 0 01-.14-.53.39.39 0 01.53-.13z" transform="translate(-2.8 -2.8)" fill="url(#linear-gradient-3)"/><path d="M239.58 75.42h4.32a2.89 2.89 0 01-2.9 2.89h-4.33a2.89 2.89 0 012.91-2.89z" transform="translate(-2.8 -2.8)" fill="url(#linear-gradient-4)" fill-rule="evenodd"/><path d="M238.67 77.54a.55.55 0 00.24 0 .44.44 0 00.15-.12.41.41 0 00.05-.18.38.38 0 000-.16.29.29 0 00-.11-.11.28.28 0 00-.13 0h.12a.24.24 0 00.08-.09.28.28 0 000-.13.34.34 0 00-.05-.17.26.26 0 00-.14-.11.53.53 0 00-.23 0h-.51v1.25zm-.07-.73h-.2v-.31h.2a.2.2 0 01.14 0 .16.16 0 010 .11.14.14 0 010 .09.13.13 0 01-.07.05.13.13 0 01-.09 0zm0 .52h-.22V77h.22a.18.18 0 01.11 0 .16.16 0 01.08.06.24.24 0 010 .09.13.13 0 01-.05.11.23.23 0 01-.12.07zm1.51.21v-.21h-.59V77h.54v-.21h-.54v-.3h.59v-.22h-.85v1.25zm.81 0v-1h.38v-.22h-1v.22h.39v1zm.62 0l.09-.28h.46l.09.28h.28l-.43-1.25h-.34l-.44 1.25zm.48-.49h-.32l.15-.48.16.48z" transform="translate(-2.8 -2.8)" fill="#190026"/></g><g mask="url(#mask-9)"><path d="M3.26 134.15c5.58-7.42 19.12-12.27 36.27-12.75 2.82-.08 5.62 0 8.37.12h.17v.19c-1.85 10.2.51 21.64 7 31.54l.3.45c8.69 12.87 23.14 19.09 34.4 16.16 11.91-3.1 15.15-14.92 6.1-29.61-7.36-12-24.11-19.57-43.42-21.54h-.47l.09-.32a31 31 0 012-4.88l.21-.39C60.52 101.38 73.4 96 90 99.72a93.35 93.35 0 0114.21 4.73l.93.39c7.34 3.08 29.24 13.15 31.87 14.3l1.82.79c21 9.06 36.56 13.43 50.94 13 18.12-.51 32.38-9.13 42.57-27.47l-.13-.11a22.73 22.73 0 013.08 3.48 2 2 0 00.29.29 1.23 1.23 0 00.5.25 1.31 1.31 0 00.68 0 1.55 1.55 0 00.5-.25 1.55 1.55 0 00.44-.55 2.3 2.3 0 00.15-.32c0-.15.1-.29.14-.45a14 14 0 00.31-1.71c.08-.66.15-1.4.2-2.19.1-1.57.14-3.32.09-4.9a25.63 25.63 0 00-.2-2.85 8.4 8.4 0 00-.25-1.27 4.07 4.07 0 00-.22-.58 1.73 1.73 0 00-.54-.66 1.41 1.41 0 00-.46-.23 1.89 1.89 0 00-.6 0 4.38 4.38 0 00-.44.08 6.8 6.8 0 00-.85.31c-.6.26-1.3.63-2.08 1.06-1.55.88-3.39 2-5 3.16-1.09.75-2.09 1.47-2.86 2.09a12.86 12.86 0 00-1.09 1 4.39 4.39 0 00-.42.51 1.9 1.9 0 00-.19.44 1.19 1.19 0 000 .45 1.28 1.28 0 00.23.61 1.3 1.3 0 00.31.31 1.34 1.34 0 00.41.19 1.81 1.81 0 00.42 0h2.79a9.32 9.32 0 012 .29h.11c-9.65 17.4-22.91 25.41-39.93 25.89-14 .39-29.44-4-50.52-13.17l-1.69-.75c-4.92-2.21-25.73-11.75-31.86-14.27l-.22-.09a97.15 97.15 0 00-14.69-4.89c-17.93-4.05-32.24 2-39.17 15a34.47 34.47 0 00-2.62 6.45l-.1.36h-.61q-4-.23-8-.15h-.73c-15.81.45-29 4.47-36.15 11.15zM89.05 167c-9.8 2.6-22.76-3.07-30.65-14.95-6.22-9.35-8.48-20.18-6.79-29.76l.11-.56h.1c18.34 1.74 34.24 8.85 41.16 19.82l.25.4c7.93 13.1 5.39 22.51-4.18 25z" transform="translate(-2.8 -2.8)" fill="url(#linear-gradient-5)"/></g></svg>