<?xml version="1.0" encoding="utf-8"?>
<!-- Generator: Adobe Illustrator 23.0.4, SVG Export Plug-In . SVG Version: 6.00 Build 0)  -->
<svg version="1.1" id="ff218721-0155-4fed-80b9-fb00110c12fe"
	 xmlns="http://www.w3.org/2000/svg" xmlns:xlink="http://www.w3.org/1999/xlink" x="0px" y="0px" viewBox="0 0 294.5 28.6"
	 style="enable-background:new 0 0 294.5 28.6;" xml:space="preserve">
<style type="text/css">
	.st0{fill:#20123A;}
</style>
<title>logotype</title>
<path class="st0" d="M13.8,1.7v3.9H4.1v4.9h9.6v3.9H4.1v8.6H0V1.7H13.8z"/>
<path class="st0" d="M17,0.9c0.5-0.5,1.1-0.7,1.8-0.7c0.7,0,1.4,0.2,1.9,0.7c0.5,0.5,0.7,1.2,0.7,1.9c0,0.7-0.2,1.4-0.7,1.8
	c-1.1,1-2.7,1-3.7,0c-0.5-0.5-0.7-1.2-0.7-1.8C16.2,2.1,16.5,1.4,17,0.9z M20.9,7.3v15.8h-4.1V7.3H20.9z"/>
<path class="st0" d="M28.1,7.3v2.4c0.3-0.9,0.9-1.6,1.7-2.1c0.8-0.5,1.7-0.7,2.7-0.7c0.5,0,1,0.1,1.5,0.2c0.4,0.1,0.8,0.2,1.2,0.4
	l-1.5,4c-0.3-0.2-0.6-0.3-0.9-0.4C32.4,11.1,32,11,31.6,11c-0.9,0-1.8,0.3-2.5,0.9c-0.7,0.8-1,1.8-0.9,2.9v8.3h-4V7.3H28.1z"/>
<path class="st0" d="M40.3,22.7c-2-0.8-3.5-2.4-4.3-4.3c-0.4-1-0.6-2.1-0.6-3.2c0-1.1,0.2-2.2,0.6-3.2c0.4-1,1-1.9,1.7-2.6
	c0.8-0.7,1.6-1.3,2.6-1.7c1-0.4,2.2-0.7,3.3-0.6c1.1,0,2.2,0.2,3.3,0.6c1,0.4,1.8,0.9,2.6,1.6c0.7,0.7,1.3,1.6,1.7,2.6
	c0.4,1,0.6,2.1,0.6,3.2v1.5H39.3c0.2,1,0.8,1.8,1.6,2.4c0.9,0.6,1.9,0.9,2.9,0.9c0.8,0,1.6-0.2,2.4-0.6c0.6-0.4,1.2-0.9,1.6-1.5
	l3.3,2c-0.8,1.1-1.8,2-2.9,2.7c-1.3,0.7-2.8,1.1-4.4,1C42.6,23.4,41.4,23.2,40.3,22.7z M41,11.2c-0.8,0.6-1.3,1.3-1.6,2.2h8.4
	c-0.2-0.9-0.7-1.7-1.5-2.3c-0.8-0.5-1.7-0.8-2.7-0.8C42.7,10.3,41.8,10.6,41,11.2z"/>
<path class="st0" d="M55.6,7.3V6.7c0-1.1,0.1-2.2,0.3-3.2C56.1,2.7,56.5,2,57,1.4c0.6-0.5,1.3-0.9,2.1-1.1C60.2,0.1,61.2,0,62.3,0h1
	v3.7h-0.7c-0.6,0-1.1,0-1.7,0.1c-0.4,0-0.7,0.2-1,0.4c-0.2,0.2-0.4,0.5-0.4,0.9c-0.1,0.5-0.1,1-0.1,1.4v0.8h3.8v3.6h-3.8v12.2h-4
	V10.9H53V7.3H55.6z"/>
<path class="st0" d="M69.4,22.7c-1-0.4-1.9-1-2.7-1.8c-1.5-1.5-2.4-3.6-2.4-5.8c0-1.1,0.2-2.2,0.6-3.2c0.4-1,1-1.9,1.8-2.6
	C69.2,7,72.8,6.3,76,7.6c1,0.4,1.9,1,2.7,1.7c0.8,0.8,1.4,1.6,1.8,2.6c0.4,1,0.6,2.1,0.6,3.2c0,1.1-0.2,2.2-0.6,3.2
	c-0.4,1-1,1.9-1.8,2.6c-0.7,0.7-1.6,1.3-2.6,1.7c-1.1,0.4-2.2,0.7-3.3,0.6C71.6,23.4,70.4,23.2,69.4,22.7z M74.4,19.2
	c0.5-0.2,1-0.5,1.4-0.9c0.4-0.4,0.7-0.9,0.9-1.4c0.4-1.1,0.4-2.3,0-3.5c-0.2-0.5-0.5-1-0.9-1.4c-0.4-0.4-0.9-0.7-1.4-0.9
	c-0.5-0.2-1.1-0.4-1.7-0.4c-0.6,0-1.2,0.1-1.7,0.4c-0.5,0.2-1,0.5-1.4,0.9c-0.4,0.4-0.7,0.9-0.9,1.4c-0.2,0.5-0.3,1.1-0.3,1.7
	c0,0.6,0.1,1.2,0.3,1.7c0.2,0.5,0.5,1,0.9,1.4c0.4,0.4,0.9,0.7,1.4,0.9c0.5,0.2,1.1,0.4,1.7,0.4C73.3,19.5,73.9,19.4,74.4,19.2
	L74.4,19.2z"/>
<path class="st0" d="M81.5,7.3h4.8l3.3,4.7l3.3-4.7h4.7L92.1,15l6,8.1h-4.9l-3.6-4.9L86,23.1h-4.8l5.9-8.1L81.5,7.3z"/>
<path class="st0" d="M117.6,1.7c1,0,2,0.2,3,0.5c0.8,0.3,1.6,0.8,2.2,1.4c0.7,0.6,1.2,1.4,1.5,2.2c0.4,0.9,0.5,1.8,0.5,2.7
	c0,0.7-0.1,1.4-0.3,2c-0.2,0.6-0.5,1.3-0.9,1.8c-0.4,0.6-0.9,1.1-1.4,1.5c-0.6,0.4-1.2,0.8-1.9,1l4.7,8.2h-2.8l-4.2-7.5h-6.7v7.5
	h-2.4V1.7H117.6z M111.6,13.3h5.9c0.7,0,1.5-0.1,2.2-0.4c0.6-0.2,1.1-0.6,1.6-1.1c0.4-0.4,0.8-0.9,1-1.5c0.2-0.6,0.3-1.2,0.3-1.8
	c0-0.6-0.1-1.3-0.4-1.8c-0.2-0.6-0.6-1.1-1-1.5c-0.5-0.4-1-0.8-1.6-1c-0.7-0.2-1.4-0.4-2.1-0.3h-5.9V13.3z"/>
<path class="st0" d="M132.3,22.7c-1-0.4-1.9-1-2.6-1.7c-0.7-0.7-1.3-1.6-1.7-2.6c-0.4-1-0.6-2.1-0.6-3.2c0-1.1,0.2-2.2,0.6-3.3
	c0.4-1,1-1.9,1.7-2.6c0.7-0.8,1.6-1.3,2.6-1.7c1-0.4,2.2-0.7,3.3-0.6c1.1,0,2.2,0.2,3.2,0.6c1,0.4,1.8,0.9,2.5,1.7
	c0.7,0.7,1.3,1.6,1.7,2.5c0.4,1,0.6,2.1,0.6,3.2v1.1h-14c0.1,1.4,0.8,2.8,1.9,3.7c0.5,0.5,1.1,0.8,1.8,1.1c0.7,0.3,1.5,0.4,2.3,0.4
	c1.1,0,2.2-0.2,3.2-0.8c0.9-0.5,1.6-1.3,2.1-2.2l2,1.2c-0.8,1.2-1.8,2.2-3,3c-1.3,0.7-2.8,1.1-4.4,1
	C134.6,23.4,133.4,23.2,132.3,22.7z M133.6,9.4c-0.6,0.2-1.2,0.6-1.7,1c-0.5,0.4-0.9,1-1.3,1.6c-0.3,0.6-0.6,1.3-0.7,1.9h11.4
	c-0.2-2.9-2.7-5-5.6-4.9C135,9,134.2,9.2,133.6,9.4L133.6,9.4z"/>
<path class="st0" d="M149.8,0v23.1h-2.4v-23L149.8,0z"/>
<path class="st0" d="M156.4,23c-0.6-0.2-1.2-0.6-1.8-1c-0.5-0.4-0.8-0.9-1-1.5c-0.2-0.6-0.4-1.2-0.4-1.8c-0.1-1.5,0.7-2.9,1.9-3.8
	c1.6-1,3.4-1.4,5.2-1.3h5V13c0-1.1-0.4-2.1-1.2-2.9c-1-0.8-2.2-1.2-3.5-1.1c-1,0-2.1,0.2-3,0.7c-0.8,0.5-1.5,1.2-2,2l-2.1-1.3
	c0.8-1,1.8-1.9,2.9-2.5c1.3-0.7,2.8-1,4.2-0.9c1,0,2,0.1,3,0.4c0.8,0.3,1.5,0.7,2.1,1.2c0.6,0.5,1,1.2,1.3,1.9
	c0.3,0.8,0.5,1.6,0.5,2.5v10.1h-2.3v-2.8c-0.7,1-1.7,1.8-2.8,2.3c-1.2,0.6-2.5,0.8-3.8,0.8C158,23.4,157.1,23.3,156.4,23z M161,21
	c0.6-0.2,1.2-0.4,1.7-0.7c0.5-0.3,1-0.7,1.5-1.1c0.5-0.5,0.9-1,1.2-1.5v-2.1h-4.9c-1.3-0.1-2.5,0.2-3.7,0.8
	c-0.8,0.5-1.2,1.4-1.2,2.3c0,0.7,0.3,1.5,0.9,1.9c0.8,0.6,1.8,0.9,2.7,0.8C159.9,21.3,160.5,21.2,161,21L161,21z"/>
<path class="st0" d="M170.4,28.3c-0.6-0.2-1.2-0.6-1.7-1l1.5-2c0.3,0.3,0.6,0.6,1,0.8c0.4,0.2,0.8,0.3,1.3,0.3c0.4,0,0.7,0,1.1-0.1
	c0.3-0.1,0.6-0.3,0.9-0.5c0.3-0.3,0.6-0.6,0.8-1c0.2-0.4,0.5-1,0.8-1.6l0.4-0.8l-6.6-15h2.6l5.3,12.2l5-12.2h2.6l-7.2,16.5
	c-0.3,0.8-0.7,1.5-1.2,2.3c-0.3,0.6-0.8,1.1-1.2,1.5c-0.4,0.4-0.9,0.7-1.5,0.8c-0.6,0.2-1.2,0.3-1.8,0.3
	C171.8,28.7,171,28.5,170.4,28.3z"/>
</svg>
