<svg id="a0a03a9d-d5fd-4e16-8aaf-7f20270e675a" data-name="Layer 1" xmlns="http://www.w3.org/2000/svg" xmlns:xlink="http://www.w3.org/1999/xlink" viewBox="0 0 286.4 295.78"><defs><linearGradient id="f56d72d7-852b-46f2-bc97-08ebb82a7da9" x1="298.21" y1="-53.48" x2="256.36" y2="-13.86" gradientTransform="matrix(1, 0, 0, -1, -38, 213)" gradientUnits="userSpaceOnUse"><stop offset="0" stop-color="#054096" stop-opacity="0.5"/><stop offset="0.1" stop-color="#173ba1" stop-opacity="0.44"/><stop offset="0.29" stop-color="#3434b3" stop-opacity="0.33"/><stop offset="0.49" stop-color="#482ec1" stop-opacity="0.22"/><stop offset="0.68" stop-color="#552bc8" stop-opacity="0.11"/><stop offset="0.86" stop-color="#592acb" stop-opacity="0"/></linearGradient><linearGradient id="f116f776-2175-48cf-8be1-56829e33fba4" x1="48.11" y1="115.26" x2="232.46" y2="115.26" gradientTransform="matrix(1, 0, 0, -1, 0, 302)" gradientUnits="userSpaceOnUse"><stop offset="0" stop-color="#9059ff"/><stop offset="1" stop-color="#f770ff"/></linearGradient><linearGradient id="f12f5ecb-cbf3-4bd9-98e7-94735bee6736" x1="48.11" y1="135.57" x2="232.46" y2="135.57" xlink:href="#f116f776-2175-48cf-8be1-56829e33fba4"/><linearGradient id="ab913933-3a60-4524-8e39-af0dde02a869" x1="48.11" y1="157.27" x2="232.46" y2="157.27" xlink:href="#f116f776-2175-48cf-8be1-56829e33fba4"/><linearGradient id="b4f80268-509b-42d0-9d45-e8513eaffe4a" x1="48.11" y1="179.4" x2="232.46" y2="179.4" xlink:href="#f116f776-2175-48cf-8be1-56829e33fba4"/><linearGradient id="bf1f8614-86ef-4d3e-ad9b-46ede7cbd2fa" x1="48.11" y1="199.32" x2="232.46" y2="199.32" xlink:href="#f116f776-2175-48cf-8be1-56829e33fba4"/><linearGradient id="adb48447-9176-4bab-af42-07d0434e30af" x1="48.11" y1="115.74" x2="232.46" y2="115.74" xlink:href="#f116f776-2175-48cf-8be1-56829e33fba4"/><linearGradient id="add3f593-128b-470e-9c38-86c930da4048" x1="48.11" y1="135.8" x2="232.46" y2="135.8" xlink:href="#f116f776-2175-48cf-8be1-56829e33fba4"/><linearGradient id="ef7bdd58-fa66-4b3d-b44f-5e1e6f3bf332" x1="48.11" y1="179.44" x2="232.46" y2="179.44" xlink:href="#f116f776-2175-48cf-8be1-56829e33fba4"/><linearGradient id="b948ac74-672c-44b8-a30a-1588fee487ff" x1="48.11" y1="199.69" x2="232.46" y2="199.69" xlink:href="#f116f776-2175-48cf-8be1-56829e33fba4"/><linearGradient id="acbeae18-5753-457f-9e26-c22a4b0e794c" x1="146.04" y1="74.29" x2="297.12" y2="10.37" gradientTransform="matrix(1, 0, 0, -1, 0, 302)" gradientUnits="userSpaceOnUse"><stop offset="0" stop-color="#54ffbd"/><stop offset="1" stop-color="#0df"/></linearGradient></defs><title>logomark</title><path d="M263.48,192.28H142.39a6.26,6.26,0,0,0-6.32,6.32v19.31a51.52,51.52,0,0,0,51.63,51.63h66.87a38.6,38.6,0,0,0,38.63-38.63V213.83C293.2,204.54,283.54,192.28,263.48,192.28Z" transform="translate(-6.8 -2)" fill="#008787"/><g opacity="0.9"><path d="M263.48,192.28H142.39a6.26,6.26,0,0,0-6.32,6.32v19.31a51.52,51.52,0,0,0,51.63,51.63h66.87a38.6,38.6,0,0,0,38.63-38.63V213.83C293.2,204.54,283.54,192.28,263.48,192.28Z" transform="translate(-6.8 -2)" fill="url(#f56d72d7-852b-46f2-bc97-08ebb82a7da9)"/></g><path d="M254.94,64.13,149.44,5.06a25.33,25.33,0,0,0-24.14,0L19.43,64.13A24.82,24.82,0,0,0,6.8,85.67v118.5a24.38,24.38,0,0,0,12.63,21.54l105.5,59.06a23.35,23.35,0,0,0,12.25,3.35,24.33,24.33,0,0,0,12.26-3.35l105.5-59.06a24.83,24.83,0,0,0,12.63-21.54V85.67A24.82,24.82,0,0,0,254.94,64.13Z" transform="translate(-6.8 -2)" fill="#20123a"/><path d="M63.26,176.31,57,180a9.73,9.73,0,0,0-3.72,13.37,9.87,9.87,0,0,0,8.55,5.21,11.53,11.53,0,0,0,4.83-1.12l6.31-3.71a9.74,9.74,0,0,0,3.72-13.38C74,175.19,68.09,173.34,63.26,176.31Z" transform="translate(-6.8 -2)" fill="url(#f116f776-2175-48cf-8be1-56829e33fba4)"/><path d="M102.27,154l-13,7.43a9.73,9.73,0,0,0-3.72,13.37A9.87,9.87,0,0,0,94.1,180a11.44,11.44,0,0,0,4.82-1.11l13-7.43a9.74,9.74,0,0,0,3.71-13.37A9.85,9.85,0,0,0,102.27,154Z" transform="translate(-6.8 -2)" fill="url(#f12f5ecb-cbf3-4bd9-98e7-94735bee6736)"/><path d="M154.64,135.82a8.76,8.76,0,0,0-5.2-4.46V56.7a10,10,0,0,0-20.06,0v75a8.85,8.85,0,0,0-5.2,4.46,9.9,9.9,0,0,0-.37,8.54,9.92,9.92,0,0,0,.37,8.55,8.8,8.8,0,0,0,5.2,4.45v75a10,10,0,0,0,20.06,0V157.36a8.77,8.77,0,0,0,5.2-4.45,9.85,9.85,0,0,0,.37-8.55A9.87,9.87,0,0,0,154.64,135.82Z" transform="translate(-6.8 -2)" fill="url(#ab913933-3a60-4524-8e39-af0dde02a869)"/><path d="M179.9,110.19l-13,7.43A9.73,9.73,0,0,0,163.19,131a9.86,9.86,0,0,0,8.54,5.2,11.48,11.48,0,0,0,4.83-1.11l13-7.43a9.74,9.74,0,0,0,3.72-13.38A9.87,9.87,0,0,0,179.9,110.19Z" transform="translate(-6.8 -2)" fill="url(#b4f80268-509b-42d0-9d45-e8513eaffe4a)"/><path d="M210.73,114.27a11.45,11.45,0,0,0,4.83-1.11l6.32-3.72a9.81,9.81,0,1,0-9.66-17.08l-6.32,3.71a9.74,9.74,0,0,0-3.71,13.37A9.39,9.39,0,0,0,210.73,114.27Z" transform="translate(-6.8 -2)" fill="url(#bf1f8614-86ef-4d3e-ad9b-46ede7cbd2fa)"/><path d="M221.88,179.65l-6.32-3.71A9.81,9.81,0,0,0,205.9,193l6.32,3.72a11.48,11.48,0,0,0,4.83,1.11,9.87,9.87,0,0,0,8.54-5.2C228.19,188.57,226.71,182.62,221.88,179.65Z" transform="translate(-6.8 -2)" fill="url(#adb48447-9176-4bab-af42-07d0434e30af)"/><path d="M189.56,161.45l-13-7.43a9.82,9.82,0,0,0-9.66,17.09l13,7.43a11.51,11.51,0,0,0,4.83,1.11,9.88,9.88,0,0,0,8.55-5.2C195.88,170.36,194.39,164.05,189.56,161.45Z" transform="translate(-6.8 -2)" fill="url(#add3f593-128b-470e-9c38-86c930da4048)"/><path d="M89.27,127.65l13,7.43a11.45,11.45,0,0,0,4.83,1.11,9.87,9.87,0,0,0,8.54-5.2,9.74,9.74,0,0,0-3.71-13.37l-13-7.43a9.73,9.73,0,0,0-13.37,3.71A10.27,10.27,0,0,0,89.27,127.65Z" transform="translate(-6.8 -2)" fill="url(#ef7bdd58-fa66-4b3d-b44f-5e1e6f3bf332)"/><path d="M72.92,95.7,66.61,92A9.81,9.81,0,1,0,57,109.07l6.31,3.72a11.51,11.51,0,0,0,4.83,1.11,9.85,9.85,0,0,0,8.55-5.2C79.61,104.24,77.75,98.3,72.92,95.7Z" transform="translate(-6.8 -2)" fill="url(#b948ac74-672c-44b8-a30a-1588fee487ff)"/><path d="M286.88,220.51H175.45a47.4,47.4,0,0,0-47.55,47.55v23.4a6.27,6.27,0,0,0,6.31,6.32H245.28a47.41,47.41,0,0,0,47.55-47.55v-36A6,6,0,0,1,286.88,220.51Z" transform="translate(-6.8 -2)" fill="url(#acbeae18-5753-457f-9e26-c22a4b0e794c)"/><path d="M177.67,258.77a7.65,7.65,0,0,0,3.72-6.31c0-5.58-4.09-8.92-11.15-8.92H156.87v32h13.37c7.06,0,11.52-3,11.52-9.29C181.76,262.49,180.27,260.26,177.67,258.77Zm-14.48-10h7.43c3.34,0,4.83,1.49,4.83,3.72s-1.49,3.71-4.83,3.71h-7.43Zm7.05,21.18h-7.42v-8.18h7.42c4.09,0,5.58,1.49,5.58,4.09C175.45,268.43,174,269.92,170.24,269.92Z" transform="translate(-6.8 -2)" fill="#20123a"/><polygon points="180.9 273.49 202.45 273.49 202.45 267.54 187.22 267.54 187.22 260.12 202.45 260.12 202.45 254.54 187.22 254.54 187.22 247.11 202.45 247.11 202.45 241.17 180.9 241.17 180.9 273.49" fill="#20123a"/><polygon points="231.42 241.17 207.65 241.17 207.65 247.11 216.56 247.11 216.56 273.49 222.88 273.49 222.88 247.11 231.42 247.11 231.42 241.17" fill="#20123a"/><path d="M254.94,243.17H249l-12.25,32h6.31l2.23-5.95h13.37l2.23,5.95h6.32Zm-7.8,20.8L252,251.34,256.42,264Z" transform="translate(-6.8 -2)" fill="#20123a"/></svg>