<svg id="ff218721-0155-4fed-80b9-fb00110c12fe" data-name="Layer 1" xmlns="http://www.w3.org/2000/svg" viewBox="0 0 294.51 28.64"><title>logotype</title><path d="M30.73,5.51V9.43h-9.6v4.94h9.6v3.86h-9.6v8.63H17V5.51Z" transform="translate(-16.98 -3.81)" fill="#20123a"/><path d="M34,4.73A2.52,2.52,0,0,1,35.82,4a2.49,2.49,0,0,1,1.88.74,2.62,2.62,0,0,1,.72,1.89,2.52,2.52,0,0,1-.72,1.84,2.76,2.76,0,0,1-3.74,0,2.52,2.52,0,0,1-.72-1.84A2.63,2.63,0,0,1,34,4.73Zm3.92,6.34V26.86H33.77V11.07Z" transform="translate(-16.98 -3.81)" fill="#20123a"/><path d="M45.09,11.07v2.42a4.15,4.15,0,0,1,1.71-2.06,5.13,5.13,0,0,1,2.65-.66,5.75,5.75,0,0,1,1.47.18,5.29,5.29,0,0,1,1.19.44l-1.46,4a2.89,2.89,0,0,0-.88-.4,4.31,4.31,0,0,0-1.23-.16,3.57,3.57,0,0,0-2.49.86,3.76,3.76,0,0,0-.93,2.85v8.34h-4V11.07Z" transform="translate(-16.98 -3.81)" fill="#20123a"/><path d="M57.29,26.55A7.58,7.58,0,0,1,53,22.21,8.73,8.73,0,0,1,52.37,19,8.27,8.27,0,0,1,53,15.76a8.11,8.11,0,0,1,1.74-2.62,8.24,8.24,0,0,1,2.63-1.75,8.35,8.35,0,0,1,3.28-.65,8.55,8.55,0,0,1,3.28.62A8,8,0,0,1,66.5,13a7.6,7.6,0,0,1,1.7,2.56,8.43,8.43,0,0,1,.61,3.25v1.52H56.26a4.36,4.36,0,0,0,1.6,2.44,4.71,4.71,0,0,0,2.94.89,4.56,4.56,0,0,0,2.36-.57,4.4,4.4,0,0,0,1.56-1.53L68,23.53a9.26,9.26,0,0,1-2.92,2.66,8.71,8.71,0,0,1-4.36,1A9.06,9.06,0,0,1,57.29,26.55ZM58,15a4.53,4.53,0,0,0-1.61,2.22H64.8a4,4,0,0,0-1.49-2.27,4.43,4.43,0,0,0-2.66-.77A4.34,4.34,0,0,0,58,15Z" transform="translate(-16.98 -3.81)" fill="#20123a"/><path d="M72.58,11.07v-.56a12.7,12.7,0,0,1,.34-3.22A4.36,4.36,0,0,1,74,5.23a4.37,4.37,0,0,1,2.08-1.1,14,14,0,0,1,3.23-.32h1V7.5h-.67a10.54,10.54,0,0,0-1.67.1,1.81,1.81,0,0,0-1,.41,1.43,1.43,0,0,0-.42.85,9.15,9.15,0,0,0-.09,1.44v.77h3.8v3.62h-3.8V26.86h-4V14.69H70V11.07Z" transform="translate(-16.98 -3.81)" fill="#20123a"/><path d="M86.36,26.54a8.32,8.32,0,0,1-2.65-1.77A8.18,8.18,0,0,1,81.33,19a8.19,8.19,0,0,1,.63-3.2,8,8,0,0,1,1.75-2.62A8.6,8.6,0,0,1,93,11.39a8.31,8.31,0,0,1,2.67,1.75,8.19,8.19,0,0,1,1.77,2.62A8,8,0,0,1,98,19a7.94,7.94,0,0,1-.64,3.19,8.44,8.44,0,0,1-1.76,2.62A8,8,0,0,1,93,26.54a8.47,8.47,0,0,1-3.32.64A8.37,8.37,0,0,1,86.36,26.54Zm5-3.54a4.56,4.56,0,0,0,1.38-.94,4.32,4.32,0,0,0,.92-1.39,4.7,4.7,0,0,0,0-3.46,4.31,4.31,0,0,0-.92-1.41,4.53,4.53,0,0,0-1.38-.93,4,4,0,0,0-1.7-.35,4,4,0,0,0-1.69.35,4.42,4.42,0,0,0-1.38.93,4.31,4.31,0,0,0-.92,1.41,4.55,4.55,0,0,0-.34,1.72,4.5,4.5,0,0,0,.34,1.74,4.32,4.32,0,0,0,.92,1.39A4.44,4.44,0,0,0,88,23a4.16,4.16,0,0,0,1.69.35A4.2,4.2,0,0,0,91.39,23Z" transform="translate(-16.98 -3.81)" fill="#20123a"/><path d="M98.5,11.07h4.79l3.31,4.68,3.33-4.68h4.74l-5.61,7.72,6,8.07H110.2l-3.63-4.94L103,26.86H98.18l5.9-8.1Z" transform="translate(-16.98 -3.81)" fill="#20123a"/><path d="M132.81,5.51a8.68,8.68,0,0,1,3.2.57A7.15,7.15,0,0,1,140.08,10a7.48,7.48,0,0,1,.57,2.94,7.64,7.64,0,0,1-.57,2.95,7,7,0,0,1-1.61,2.38A7.47,7.47,0,0,1,136,19.88a8.39,8.39,0,0,1-3.19.57h-5.59v6.41h-2.46V5.51ZM127.22,18.2h5.44a6,6,0,0,0,2.31-.41,5.19,5.19,0,0,0,1.74-1.11,4.73,4.73,0,0,0,1.1-1.65,5.55,5.55,0,0,0,.38-2.06,5.69,5.69,0,0,0-.38-2.08,4.72,4.72,0,0,0-1.1-1.67A5,5,0,0,0,135,8.13a6.36,6.36,0,0,0-2.33-.4h-5.41Z" transform="translate(-16.98 -3.81)" fill="#20123a"/><path d="M146.76,11.07v3a4.49,4.49,0,0,1,1.65-2.4,4.77,4.77,0,0,1,2.85-.82,5,5,0,0,1,2.64.59l-1,2.28a2.37,2.37,0,0,0-.8-.37A4.23,4.23,0,0,0,151,13.2a4,4,0,0,0-3.07,1.19,5.56,5.56,0,0,0-1.08,3.81v8.66h-2.37V11.07Z" transform="translate(-16.98 -3.81)" fill="#20123a"/><path d="M156.72,4.85a1.8,1.8,0,0,1,1.33-.54,1.83,1.83,0,0,1,1.37.54A1.87,1.87,0,0,1,160,6.21a1.87,1.87,0,0,1-.53,1.36,1.83,1.83,0,0,1-1.37.54,1.8,1.8,0,0,1-1.35-.54,1.86,1.86,0,0,1-.52-1.36A1.84,1.84,0,0,1,156.72,4.85Zm2.56,6.22V26.86h-2.43V11.07Z" transform="translate(-16.98 -3.81)" fill="#20123a"/><path d="M164.66,11.07l5.09,12.87,5.18-12.87h2.54l-6.64,15.79h-2.37l-6.35-15.79Z" transform="translate(-16.98 -3.81)" fill="#20123a"/><path d="M182.12,26.82a5,5,0,0,1-1.75-1,4.25,4.25,0,0,1-1.06-1.48,4.62,4.62,0,0,1-.35-1.8,4.34,4.34,0,0,1,1.92-3.79,9.14,9.14,0,0,1,5.25-1.33h5V16.8A3.79,3.79,0,0,0,190,13.89a4.85,4.85,0,0,0-3.46-1.1,6,6,0,0,0-3,.7,5.93,5.93,0,0,0-2,2l-2.08-1.31a8.51,8.51,0,0,1,7.14-3.4,9.3,9.3,0,0,1,3,.44,6,6,0,0,1,2.17,1.25A5.35,5.35,0,0,1,193,14.34a6.49,6.49,0,0,1,.45,2.46V26.86h-2.34V24.08a7,7,0,0,1-2.78,2.28,8.63,8.63,0,0,1-3.77.82A7.59,7.59,0,0,1,182.12,26.82Zm4.67-2a7.26,7.26,0,0,0,1.69-.67,6.61,6.61,0,0,0,2.65-2.66V19.34h-4.88a6.94,6.94,0,0,0-3.66.76,2.7,2.7,0,0,0-.31,4.2,4,4,0,0,0,2.74.78A6.85,6.85,0,0,0,186.79,24.84Z" transform="translate(-16.98 -3.81)" fill="#20123a"/><path d="M199,11.07V7.58l2.37-1.52v5H206V13.2h-4.62V22A3,3,0,0,0,202,24.2a2.2,2.2,0,0,0,1.65.64,2.58,2.58,0,0,0,1.81-.76l1.26,1.9a5.41,5.41,0,0,1-1.46.82,5,5,0,0,1-1.79.3,4.41,4.41,0,0,1-3.33-1.19A5.37,5.37,0,0,1,199,22.09V13.2H195.9V11.07Z" transform="translate(-16.98 -3.81)" fill="#20123a"/><path d="M212.73,26.55a8,8,0,0,1-2.63-1.72,7.52,7.52,0,0,1-1.68-2.59,8.77,8.77,0,0,1-.59-3.22,8.35,8.35,0,0,1,.63-3.26,8,8,0,0,1,4.33-4.37,8.26,8.26,0,0,1,3.29-.65,8.4,8.4,0,0,1,3.2.6A7.58,7.58,0,0,1,221.83,13a7.76,7.76,0,0,1,1.68,2.55,8.3,8.3,0,0,1,.61,3.23v1.08h-14a5.54,5.54,0,0,0,.62,2.08,5.62,5.62,0,0,0,3.08,2.69,6.72,6.72,0,0,0,2.3.38,5.59,5.59,0,0,0,5.29-3l2,1.2a9.21,9.21,0,0,1-3,2.95,8.38,8.38,0,0,1-4.36,1.05A9,9,0,0,1,212.73,26.55ZM214,13.24a5.78,5.78,0,0,0-3,2.58,6.36,6.36,0,0,0-.72,1.94h11.44a5.33,5.33,0,0,0-5.59-4.88A6.09,6.09,0,0,0,214,13.24Z" transform="translate(-16.98 -3.81)" fill="#20123a"/><path d="M243.75,5.51a8.2,8.2,0,0,1,3,.52A7.09,7.09,0,0,1,249,7.48a6.5,6.5,0,0,1,1.51,2.2,6.89,6.89,0,0,1,.54,2.73,6.77,6.77,0,0,1-.29,2,6.61,6.61,0,0,1-.86,1.82,7,7,0,0,1-1.39,1.48,6.33,6.33,0,0,1-1.85,1l4.66,8.16h-2.75l-4.19-7.52H237.7v7.52h-2.43V5.51ZM237.7,17.12h5.85a5.67,5.67,0,0,0,2.17-.39,5,5,0,0,0,1.61-1.06,4.42,4.42,0,0,0,1-1.52,5,5,0,0,0,.33-1.8,4.68,4.68,0,0,0-.35-1.84,4,4,0,0,0-1-1.46,4.39,4.39,0,0,0-1.6-1,6.2,6.2,0,0,0-2.12-.34H237.7Z" transform="translate(-16.98 -3.81)" fill="#20123a"/><path d="M258.45,26.55a7.85,7.85,0,0,1-2.63-1.72,7.41,7.41,0,0,1-1.69-2.59,8.77,8.77,0,0,1-.58-3.22,8.35,8.35,0,0,1,.63-3.26,8.22,8.22,0,0,1,1.72-2.62,8,8,0,0,1,2.61-1.75,8.26,8.26,0,0,1,3.29-.65,8.4,8.4,0,0,1,3.2.6A7.54,7.54,0,0,1,267.54,13a7.63,7.63,0,0,1,1.69,2.55,8.3,8.3,0,0,1,.61,3.23v1.08H255.89a5.55,5.55,0,0,0,1.89,3.7,5.63,5.63,0,0,0,1.81,1.07,6.71,6.71,0,0,0,2.29.38,6,6,0,0,0,3.19-.79A6.11,6.11,0,0,0,267.18,22l2.05,1.2a9.24,9.24,0,0,1-3,2.95,8.35,8.35,0,0,1-4.36,1.05A9,9,0,0,1,258.45,26.55Zm1.23-13.31a5.61,5.61,0,0,0-1.74,1,5.83,5.83,0,0,0-1.28,1.55,6.1,6.1,0,0,0-.71,1.94h11.43a5.31,5.31,0,0,0-5.58-4.88A6.09,6.09,0,0,0,259.68,13.24Z" transform="translate(-16.98 -3.81)" fill="#20123a"/><path d="M275.87,3.81V26.86h-2.4v-23Z" transform="translate(-16.98 -3.81)" fill="#20123a"/><path d="M282.48,26.82a5,5,0,0,1-1.76-1,4.1,4.1,0,0,1-1.05-1.48,4.45,4.45,0,0,1-.35-1.8,4.35,4.35,0,0,1,1.91-3.79,9.14,9.14,0,0,1,5.25-1.33h5V16.8a3.83,3.83,0,0,0-1.16-2.91,4.88,4.88,0,0,0-3.47-1.1,5.93,5.93,0,0,0-3,.7,6.05,6.05,0,0,0-2,2l-2.07-1.31a8.9,8.9,0,0,1,2.92-2.47,8.79,8.79,0,0,1,4.21-.93,9.37,9.37,0,0,1,3,.44A5.88,5.88,0,0,1,292,12.43a5.11,5.11,0,0,1,1.33,1.91,6.49,6.49,0,0,1,.46,2.46V26.86h-2.34V24.08a7.07,7.07,0,0,1-2.78,2.28,8.64,8.64,0,0,1-3.78.82A7.57,7.57,0,0,1,282.48,26.82Zm4.66-2a7.34,7.34,0,0,0,1.7-.67,6.79,6.79,0,0,0,1.49-1.11,6.61,6.61,0,0,0,1.16-1.55V19.34H286.6a6.94,6.94,0,0,0-3.66.76,2.52,2.52,0,0,0-1.17,2.26,2.49,2.49,0,0,0,.87,1.94,4,4,0,0,0,2.73.78A6.74,6.74,0,0,0,287.14,24.84Z" transform="translate(-16.98 -3.81)" fill="#20123a"/><path d="M296.46,32.07a5.33,5.33,0,0,1-1.7-1l1.55-2a3.67,3.67,0,0,0,1,.79,2.53,2.53,0,0,0,1.28.3,3.7,3.7,0,0,0,1.1-.15,2.44,2.44,0,0,0,.91-.53,4.16,4.16,0,0,0,.8-1c.25-.43.53-1,.82-1.61l.35-.76-6.61-15h2.6l5.3,12.22,5-12.22h2.6l-7.16,16.49a20.36,20.36,0,0,1-1.16,2.26,6.7,6.7,0,0,1-1.24,1.52,4.14,4.14,0,0,1-1.48.84,5.77,5.77,0,0,1-1.83.27A6.05,6.05,0,0,1,296.46,32.07Z" transform="translate(-16.98 -3.81)" fill="#20123a"/></svg>