<svg version="1.1" id="ff218721-0155-4fed-80b9-fb00110c12fe" xmlns="http://www.w3.org/2000/svg" x="0" y="0" viewBox="0 0 294.5 28.6" xml:space="preserve"><style>.st0{fill:#20123a}</style><path class="st0" d="M13.8 1.7v3.9H4.1v4.9h9.6v3.9H4.1V23H0V1.7h13.8zM17 .9c.5-.5 1.1-.7 1.8-.7s1.4.2 1.9.7c.5.5.7 1.2.7 1.9s-.2 1.4-.7 1.8c-1.1 1-2.7 1-3.7 0-.5-.5-.7-1.2-.7-1.8-.1-.7.2-1.4.7-1.9zm3.9 6.4v15.8h-4.1V7.3h4.1zM28.1 7.3v2.4c.3-.9.9-1.6 1.7-2.1.8-.5 1.7-.7 2.7-.7.5 0 1 .1 1.5.2.4.1.8.2 1.2.4l-1.5 4c-.3-.2-.6-.3-.9-.4-.4 0-.8-.1-1.2-.1-.9 0-1.8.3-2.5.9-.7.8-1 1.8-.9 2.9v8.3h-4V7.3h3.9zM40.3 22.7c-2-.8-3.5-2.4-4.3-4.3-.4-1-.6-2.1-.6-3.2s.2-2.2.6-3.2c.4-1 1-1.9 1.7-2.6.8-.7 1.6-1.3 2.6-1.7 1-.4 2.2-.7 3.3-.6 1.1 0 2.2.2 3.3.6 1 .4 1.8.9 2.6 1.6.7.7 1.3 1.6 1.7 2.6.4 1 .6 2.1.6 3.2v1.5H39.3c.2 1 .8 1.8 1.6 2.4.9.6 1.9.9 2.9.9.8 0 1.6-.2 2.4-.6.6-.4 1.2-.9 1.6-1.5l3.3 2c-.8 1.1-1.8 2-2.9 2.7-1.3.7-2.8 1.1-4.4 1-1.2-.1-2.4-.3-3.5-.8zm.7-11.5c-.8.6-1.3 1.3-1.6 2.2h8.4c-.2-.9-.7-1.7-1.5-2.3-.8-.5-1.7-.8-2.7-.8-.9 0-1.8.3-2.6.9zM55.6 7.3v-.6c0-1.1.1-2.2.3-3.2.2-.8.6-1.5 1.1-2.1.6-.5 1.3-.9 2.1-1.1 1.1-.2 2.1-.3 3.2-.3h1v3.7h-.7c-.6 0-1.1 0-1.7.1-.4 0-.7.2-1 .4-.2.2-.4.5-.4.9-.1.5-.1 1-.1 1.4v.8h3.8v3.6h-3.8v12.2h-4V10.9H53V7.3h2.6zM69.4 22.7c-1-.4-1.9-1-2.7-1.8-1.5-1.5-2.4-3.6-2.4-5.8 0-1.1.2-2.2.6-3.2.4-1 1-1.9 1.8-2.6 2.5-2.3 6.1-3 9.3-1.7 1 .4 1.9 1 2.7 1.7.8.8 1.4 1.6 1.8 2.6.4 1 .6 2.1.6 3.2s-.2 2.2-.6 3.2c-.4 1-1 1.9-1.8 2.6-.7.7-1.6 1.3-2.6 1.7-1.1.4-2.2.7-3.3.6-1.2.2-2.4 0-3.4-.5zm5-3.5c.5-.2 1-.5 1.4-.9.4-.4.7-.9.9-1.4.4-1.1.4-2.3 0-3.5-.2-.5-.5-1-.9-1.4-.4-.4-.9-.7-1.4-.9-.5-.2-1.1-.4-1.7-.4-.6 0-1.2.1-1.7.4-.5.2-1 .5-1.4.9-.4.4-.7.9-.9 1.4-.2.5-.3 1.1-.3 1.7 0 .6.1 1.2.3 1.7.2.5.5 1 .9 1.4.4.4.9.7 1.4.9.5.2 1.1.4 1.7.4.6 0 1.2-.1 1.7-.3zM81.5 7.3h4.8l3.3 4.7 3.3-4.7h4.7L92.1 15l6 8.1h-4.9l-3.6-4.9-3.6 4.9h-4.8l5.9-8.1-5.6-7.7zM117.6 1.7c1 0 2 .2 3 .5.8.3 1.6.8 2.2 1.4.7.6 1.2 1.4 1.5 2.2.4.9.5 1.8.5 2.7 0 .7-.1 1.4-.3 2-.2.6-.5 1.3-.9 1.8-.4.6-.9 1.1-1.4 1.5-.6.4-1.2.8-1.9 1L125 23h-2.8l-4.2-7.5h-6.7V23h-2.4V1.7h8.7zm-6 11.6h5.9c.7 0 1.5-.1 2.2-.4.6-.2 1.1-.6 1.6-1.1.4-.4.8-.9 1-1.5.2-.6.3-1.2.3-1.8 0-.6-.1-1.3-.4-1.8-.2-.6-.6-1.1-1-1.5-.5-.4-1-.8-1.6-1-.7-.2-1.4-.4-2.1-.3h-5.9v9.4zM132.3 22.7c-1-.4-1.9-1-2.6-1.7-.7-.7-1.3-1.6-1.7-2.6-.4-1-.6-2.1-.6-3.2s.2-2.2.6-3.3c.4-1 1-1.9 1.7-2.6.7-.8 1.6-1.3 2.6-1.7 1-.4 2.2-.7 3.3-.6 1.1 0 2.2.2 3.2.6 1 .4 1.8.9 2.5 1.7.7.7 1.3 1.6 1.7 2.5.4 1 .6 2.1.6 3.2v1.1h-14c.1 1.4.8 2.8 1.9 3.7.5.5 1.1.8 1.8 1.1.7.3 1.5.4 2.3.4 1.1 0 2.2-.2 3.2-.8.9-.5 1.6-1.3 2.1-2.2l2 1.2c-.8 1.2-1.8 2.2-3 3-1.3.7-2.8 1.1-4.4 1-.9-.1-2.1-.3-3.2-.8zm1.3-13.3c-.6.2-1.2.6-1.7 1s-.9 1-1.3 1.6c-.3.6-.6 1.3-.7 1.9h11.4c-.2-2.9-2.7-5-5.6-4.9-.7 0-1.5.2-2.1.4zM149.8 0v23.1h-2.4V.1l2.4-.1zM156.4 23c-.6-.2-1.2-.6-1.8-1-.5-.4-.8-.9-1-1.5-.2-.6-.4-1.2-.4-1.8-.1-1.5.7-2.9 1.9-3.8 1.6-1 3.4-1.4 5.2-1.3h5V13c0-1.1-.4-2.1-1.2-2.9-1-.8-2.2-1.2-3.5-1.1-1 0-2.1.2-3 .7-.8.5-1.5 1.2-2 2l-2.1-1.3c.8-1 1.8-1.9 2.9-2.5 1.3-.7 2.8-1 4.2-.9 1 0 2 .1 3 .4.8.3 1.5.7 2.1 1.2.6.5 1 1.2 1.3 1.9.3.8.5 1.6.5 2.5v10.1h-2.3v-2.8c-.7 1-1.7 1.8-2.8 2.3-1.2.6-2.5.8-3.8.8-.6 0-1.5-.1-2.2-.4zm4.6-2c.6-.2 1.2-.4 1.7-.7.5-.3 1-.7 1.5-1.1.5-.5.9-1 1.2-1.5v-2.1h-4.9c-1.3-.1-2.5.2-3.7.8-.8.5-1.2 1.4-1.2 2.3 0 .7.3 1.5.9 1.9.8.6 1.8.9 2.7.8.7-.1 1.3-.2 1.8-.4zM170.4 28.3c-.6-.2-1.2-.6-1.7-1l1.5-2c.3.3.6.6 1 .8.4.2.8.3 1.3.3.4 0 .7 0 1.1-.1.3-.1.6-.3.9-.5.3-.3.6-.6.8-1l.8-1.6.4-.8-6.6-15h2.6l5.3 12.2 5-12.2h2.6l-7.2 16.5c-.3.8-.7 1.5-1.2 2.3-.3.6-.8 1.1-1.2 1.5-.4.4-.9.7-1.5.8-.6.2-1.2.3-1.8.3-.7-.1-1.5-.3-2.1-.5z"/></svg>