<svg id="e0cefa53-ac99-4933-bc42-9163146adbe0" data-name="Layer 1" xmlns="http://www.w3.org/2000/svg" xmlns:xlink="http://www.w3.org/1999/xlink" viewBox="0 0 79.43 82.03"><defs><linearGradient id="bd62a72f-7212-4164-9d48-1b3d8d857f2b" x1="461.9" y1="-118.67" x2="450.31" y2="-107.7" gradientTransform="matrix(1, 0, 0, -1, -389, -45.01)" gradientUnits="userSpaceOnUse"><stop offset="0" stop-color="#054096" stop-opacity="0.5"/><stop offset="0.1" stop-color="#173ba1" stop-opacity="0.44"/><stop offset="0.29" stop-color="#3434b3" stop-opacity="0.33"/><stop offset="0.49" stop-color="#482ec1" stop-opacity="0.22"/><stop offset="0.68" stop-color="#552bc8" stop-opacity="0.11"/><stop offset="0.86" stop-color="#592acb" stop-opacity="0"/></linearGradient><linearGradient id="b0a21400-995e-4888-81a8-6fa52c6a4202" x1="2.66" y1="44.98" x2="74.9" y2="44.98" gradientTransform="matrix(1, 0, 0, -1, 0, 84.99)" gradientUnits="userSpaceOnUse"><stop offset="0" stop-color="#9059ff"/><stop offset="1" stop-color="#f770ff"/></linearGradient><linearGradient id="a31f5c44-66c7-4d24-a833-e341a5fe7d58" x1="41.28" y1="22.06" x2="83.12" y2="4.36" gradientTransform="matrix(1, 0, 0, -1, 0, 84.99)" gradientUnits="userSpaceOnUse"><stop offset="0" stop-color="#54ffbd"/><stop offset="1" stop-color="#0df"/></linearGradient></defs><title>logomark</title><path d="M73.76,53.14H40.32a1.73,1.73,0,0,0-1.75,1.75v5.35a14.27,14.27,0,0,0,14.3,14.3H71.39a10.69,10.69,0,0,0,10.7-10.7V59.1C82,56.43,79.32,53.14,73.76,53.14Z" transform="translate(-2.66 -0.33)" fill="#008787"/><g opacity="0.9"><path d="M73.76,53.14H40.32a1.73,1.73,0,0,0-1.75,1.75v5.35a14.27,14.27,0,0,0,14.3,14.3H71.39a10.69,10.69,0,0,0,10.7-10.7V59.1C82,56.43,79.32,53.14,73.76,53.14Z" transform="translate(-2.66 -0.33)" fill="url(#bd62a72f-7212-4164-9d48-1b3d8d857f2b)"/></g><path d="M71.39,17.64,42.17,1.18a7,7,0,0,0-6.68,0L6.16,17.64a6.88,6.88,0,0,0-3.5,6V56.43a6.77,6.77,0,0,0,3.5,6L35.38,78.76a6.54,6.54,0,0,0,3.4.92,6.8,6.8,0,0,0,3.39-.92L71.39,62.4a6.89,6.89,0,0,0,3.5-6V23.61A6.57,6.57,0,0,0,71.39,17.64Z" transform="translate(-2.66 -0.33)" fill="url(#b0a21400-995e-4888-81a8-6fa52c6a4202)"/><path d="M18.41,48.61l-1.75,1A2.76,2.76,0,0,0,18,54.78a3.09,3.09,0,0,0,1.34-.31l1.75-1a2.69,2.69,0,0,0,1-3.7A2.64,2.64,0,0,0,18.41,48.61Z" transform="translate(-2.66 -0.33)" fill="#20133a"/><path d="M29.11,42.54l-3.6,2.06a2.76,2.76,0,0,0,1.33,5.14,3.12,3.12,0,0,0,1.34-.31l3.6-2.06a2.69,2.69,0,0,0,1-3.7A2.64,2.64,0,0,0,29.11,42.54Z" transform="translate(-2.66 -0.33)" fill="#20133a"/><path d="M43.61,37.5a2.44,2.44,0,0,0-1.44-1.24V15.58A2.77,2.77,0,0,0,39.4,12.8a2.68,2.68,0,0,0-2.68,2.78V36.37a2.39,2.39,0,0,0-1.44,1.23,2.74,2.74,0,0,0-.1,2.37,2.72,2.72,0,0,0,.1,2.36,2.44,2.44,0,0,0,1.44,1.24V64.35a2.78,2.78,0,0,0,5.56,0V43.46a2.42,2.42,0,0,0,1.44-1.23,2.74,2.74,0,0,0,.1-2.37A3.1,3.1,0,0,0,43.61,37.5Z" transform="translate(-2.66 -0.33)" fill="#20133a"/><path d="M50.61,30.4,47,32.46a2.69,2.69,0,0,0-1,3.7,2.72,2.72,0,0,0,2.37,1.44,3.08,3.08,0,0,0,1.33-.31l3.61-2.06a2.69,2.69,0,0,0,1-3.7A2.64,2.64,0,0,0,50.61,30.4Z" transform="translate(-2.66 -0.33)" fill="#20133a"/><path d="M59.15,31.43a3.27,3.27,0,0,0,1.34-.31l1.75-1a2.72,2.72,0,1,0-2.68-4.73l-1.75,1a2.7,2.7,0,0,0-1,3.71A2.65,2.65,0,0,0,59.15,31.43Z" transform="translate(-2.66 -0.33)" fill="#20133a"/><path d="M62.24,49.64l-1.75-1a2.72,2.72,0,1,0-2.68,4.73l1.75,1a3.12,3.12,0,0,0,1.34.31,2.76,2.76,0,0,0,2.37-1.44A2.55,2.55,0,0,0,62.24,49.64Z" transform="translate(-2.66 -0.33)" fill="#20133a"/><path d="M53.29,44.6l-3.61-2.06A2.72,2.72,0,0,0,47,47.27l3.6,2.06a3.27,3.27,0,0,0,1.34.31,2.74,2.74,0,0,0,2.36-1.44A2.52,2.52,0,0,0,53.29,44.6Z" transform="translate(-2.66 -0.33)" fill="#20133a"/><path d="M25.51,35.13l3.6,2.06a3.23,3.23,0,0,0,1.33.31,2.74,2.74,0,0,0,2.37-1.44,2.7,2.7,0,0,0-1-3.71l-3.6-2.06a2.7,2.7,0,0,0-3.7,1A2.88,2.88,0,0,0,25.51,35.13Z" transform="translate(-2.66 -0.33)" fill="#20133a"/><path d="M21.08,26.38l-1.75-1a2.72,2.72,0,1,0-2.67,4.73l1.75,1a3.23,3.23,0,0,0,1.33.31A2.74,2.74,0,0,0,22.11,30,2.61,2.61,0,0,0,21.08,26.38Z" transform="translate(-2.66 -0.33)" fill="#20133a"/><path d="M80.24,61H49.48A13.12,13.12,0,0,0,36.31,74.13v6.48a1.73,1.73,0,0,0,1.75,1.75H68.82A13.13,13.13,0,0,0,82,69.19v-10A1.74,1.74,0,0,1,80.24,61Z" transform="translate(-2.66 -0.33)" fill="url(#a31f5c44-66c7-4d24-a833-e341a5fe7d58)"/><path d="M50,71.55a2.12,2.12,0,0,0,1-1.75c0-1.54-1.13-2.47-3.09-2.47h-3.7v8.85H48c2,0,3.19-.82,3.19-2.57A2,2,0,0,0,50,71.55Zm-4-2.77H48c.92,0,1.34.41,1.34,1s-.42,1-1.34,1H46ZM48,74.54H46V72.38h2c1.14,0,1.55.41,1.55,1.13S49,74.54,48,74.54Z" transform="translate(-2.66 -0.33)" fill="#20123a"/><polygon points="50.21 75.75 56.18 75.75 56.18 74.11 51.86 74.11 51.86 72.15 56.18 72.15 56.18 70.5 51.86 70.5 51.86 68.55 56.18 68.55 56.18 66.9 50.21 66.9 50.21 75.75" fill="#20123a"/><polygon points="64.2 66.9 57.62 66.9 57.62 68.45 60.09 68.45 60.09 75.75 61.73 75.75 61.73 68.45 64.2 68.45 64.2 66.9" fill="#20123a"/><path d="M71.5,67.23H69.85l-3.4,8.85H68.2l.62-1.65h3.71l.61,1.65h1.75ZM69.34,73l1.33-3.49L71.91,73Z" transform="translate(-2.66 -0.33)" fill="#20123a"/></svg>