<svg xmlns="http://www.w3.org/2000/svg" viewBox="0 0 164.8 128.1"><radialGradient id="a" cx="186.76" cy="13.2" r="110.37" fx="171.561" fy="13.2" gradientTransform="matrix(1 0 0 -1 -2.15 124.46)" gradientUnits="userSpaceOnUse"><stop offset="0" stop-color="#fff44f"/><stop offset=".35" stop-color="#ff980e"/><stop offset=".8" stop-color="#ff3647"/><stop offset="1" stop-color="#e31587"/></radialGradient><path d="M147.9 47.2H91.2c-1.7 0-3 1.3-3 3v9.1c0 13.4 10.8 24.2 24.2 24.2h31.3c10 0 18.1-8.1 18.1-18.1v-7.9c0-4.6-4.5-10.3-13.9-10.3z" fill="url(#a)"/><linearGradient id="b" gradientUnits="userSpaceOnUse" x1="134.158" y1="106.629" x2="138.478" y2="62.319" gradientTransform="matrix(1 0 0 -1 -2.15 124.46)"><stop offset=".14" stop-color="#6a2bea" stop-opacity="0"/><stop offset=".34" stop-color="#642de4" stop-opacity=".03"/><stop offset=".55" stop-color="#5131d3" stop-opacity=".12"/><stop offset=".76" stop-color="#3139b7" stop-opacity=".27"/><stop offset=".98" stop-color="#054490" stop-opacity=".48"/><stop offset="1" stop-color="#00458b" stop-opacity=".5"/></linearGradient><path d="M144.7 92.8V33.9c0-13-10.5-23.5-23.5-23.5v11c6.9 0 12.5 5.6 12.5 12.5v58.9" opacity=".9" fill="url(#b)"/><linearGradient id="c" gradientUnits="userSpaceOnUse" x1="32.71" y1="19.065" x2="32.71" y2="19.065" gradientTransform="matrix(1 0 0 -1 -2.15 124.46)"><stop offset="0" stop-color="#3a8ee6"/><stop offset=".24" stop-color="#5c79f0"/><stop offset=".63" stop-color="#9059ff"/><stop offset="1" stop-color="#c139e6"/></linearGradient><linearGradient id="d" gradientUnits="userSpaceOnUse" x1="41.717" y1="-3.268" x2="141.937" y2="34.282" gradientTransform="matrix(1 0 0 -1 -2.15 124.46)"><stop offset=".14" stop-color="#6a2bea" stop-opacity="0"/><stop offset=".34" stop-color="#642de4" stop-opacity=".03"/><stop offset=".55" stop-color="#5131d3" stop-opacity=".12"/><stop offset=".76" stop-color="#3139b7" stop-opacity=".27"/><stop offset=".98" stop-color="#054490" stop-opacity=".48"/><stop offset="1" stop-color="#00458b" stop-opacity=".5"/></linearGradient><path d="M144.7 93.5c0 13-10.5 23.5-23.5 23.5h-81v-11h81c6.9 0 12.5-5.6 12.5-12.5" opacity=".9" fill="url(#d)"/><linearGradient id="e" gradientUnits="userSpaceOnUse" x1="120.992" y1="128.123" x2="1.402" y2="16.823" gradientTransform="matrix(1 0 0 -1 -2.15 124.46)"><stop offset=".05" stop-color="#2e7fe2"/><stop offset=".24" stop-color="#4f72ff"/><stop offset=".63" stop-color="#604aff"/><stop offset="1" stop-color="#8639e6"/></linearGradient><path d="M121.1 22.1h-81c-6.9 0-12.6 5.6-12.6 12.5l53.1 35.1 53.1-35.1c0-6.9-5.6-12.5-12.6-12.5z" fill="url(#e)" fill-opacity=".15"/><linearGradient id="f" gradientUnits="userSpaceOnUse" x1="25.116" y1="14.758" x2="140.452" y2="106.065" gradientTransform="matrix(1 0 0 -1 -2.15 124.46)"><stop offset=".05" stop-color="#3a8ee6"/><stop offset=".24" stop-color="#5c79f0"/><stop offset=".63" stop-color="#9059ff"/><stop offset="1" stop-color="#c139e6"/></linearGradient><path d="M121.1 117h-81c-13 0-23.5-10.5-23.5-23.5V34.6c0-13 10.5-23.5 23.5-23.5h81c13 0 23.5 10.5 23.5 23.5v58.9c0 13-10.5 23.5-23.5 23.5zm-81-95c-6.9 0-12.6 5.6-12.6 12.5v58.9c0 6.9 5.6 12.6 12.6 12.5h81c6.9 0 12.5-5.6 12.5-12.5V34.6c0-6.9-5.6-12.5-12.5-12.5h-81z" fill="url(#f)"/><linearGradient id="g" gradientUnits="userSpaceOnUse" x1="82.78" y1="74.325" x2="82.78" y2="74.325" gradientTransform="matrix(1 0 0 -1 -2.15 124.46)"><stop offset=".05" stop-color="#3a8ee6"/><stop offset=".24" stop-color="#5c79f0"/><stop offset=".63" stop-color="#9059ff"/><stop offset="1" stop-color="#c139e6"/></linearGradient><linearGradient id="h" gradientUnits="userSpaceOnUse" x1="95.02" y1="29.605" x2="165.821" y2="59.565" gradientTransform="translate(-2.15 34.17)"><stop offset="0" stop-color="#54ffbd"/><stop offset=".23" stop-color="#1adae2"/><stop offset="1" stop-color="#09f"/></linearGradient><path d="M158.8 60.5h-52.1c-12.3 0-22.3 10-22.3 22.3v10.9c0 1.7 1.3 3 3 3h52.1c12.3 0 22.3-10 22.3-22.3v-17c0 1.7-1.4 3-3 3.1z" fill="url(#h)"/><path d="M107.7 78.1c1.1-.6 1.8-1.8 1.7-3 0-2.7-1.9-4.2-5.2-4.2H98v15h6.2c3.3 0 5.4-1.5 5.4-4.4.1-1.5-.7-2.8-1.9-3.4zm-6.8-4.7h3.4c1.5 0 2.2.6 2.2 1.7s-.7 1.8-2.2 1.8h-3.5v-3.5zm3.4 9.8h-3.4v-3.7h3.3c1.8 0 2.5.7 2.5 1.8s-.8 1.9-2.4 1.9zm8.1 2.6h10.1V83h-7.2v-3.4h7.2v-2.8h-7.2v-3.4h7.2v-2.7h-10.1v15.1zm23.7-15H125v2.7h4.2v12.3h2.9V73.5h4.1l-.1-2.7zm7.8 0H141l-5.7 15h3l1-2.7h6.3l1 2.7h3l-5.7-15zm-3.6 9.7l2.2-6 2.2 6h-4.4z" fill="#282936"/></svg>