<svg data-name="Layer 1" xmlns="http://www.w3.org/2000/svg" xmlns:xlink="http://www.w3.org/1999/xlink" viewBox="0 0 286.4 295.78"><defs><linearGradient id="b" x1="298.21" y1="-53.48" x2="256.36" y2="-13.86" gradientTransform="matrix(1 0 0 -1 -38 213)" gradientUnits="userSpaceOnUse"><stop offset="0" stop-color="#054096" stop-opacity=".5"/><stop offset=".1" stop-color="#173ba1" stop-opacity=".44"/><stop offset=".29" stop-color="#3434b3" stop-opacity=".33"/><stop offset=".49" stop-color="#482ec1" stop-opacity=".22"/><stop offset=".68" stop-color="#552bc8" stop-opacity=".11"/><stop offset=".86" stop-color="#592acb" stop-opacity="0"/></linearGradient><linearGradient id="a" x1="48.11" y1="115.26" x2="232.46" y2="115.26" gradientTransform="matrix(1 0 0 -1 0 302)" gradientUnits="userSpaceOnUse"><stop offset="0" stop-color="#9059ff"/><stop offset="1" stop-color="#f770ff"/></linearGradient><linearGradient id="c" x1="48.11" y1="135.57" x2="232.46" y2="135.57" xlink:href="#a"/><linearGradient id="d" x1="48.11" y1="157.27" x2="232.46" y2="157.27" xlink:href="#a"/><linearGradient id="e" x1="48.11" y1="179.4" x2="232.46" y2="179.4" xlink:href="#a"/><linearGradient id="f" x1="48.11" y1="199.32" x2="232.46" y2="199.32" xlink:href="#a"/><linearGradient id="g" x1="48.11" y1="115.74" x2="232.46" y2="115.74" xlink:href="#a"/><linearGradient id="h" x1="48.11" y1="135.8" x2="232.46" y2="135.8" xlink:href="#a"/><linearGradient id="i" x1="48.11" y1="179.44" x2="232.46" y2="179.44" xlink:href="#a"/><linearGradient id="j" x1="48.11" y1="199.69" x2="232.46" y2="199.69" xlink:href="#a"/><linearGradient id="k" x1="146.04" y1="74.29" x2="297.12" y2="10.37" gradientTransform="matrix(1 0 0 -1 0 302)" gradientUnits="userSpaceOnUse"><stop offset="0" stop-color="#54ffbd"/><stop offset="1" stop-color="#0df"/></linearGradient></defs><path d="M256.68 190.28H135.59a6.26 6.26 0 00-6.32 6.32v19.31a51.52 51.52 0 0051.63 51.63h66.87a38.6 38.6 0 0038.63-38.63v-17.08c0-9.29-9.66-21.55-29.72-21.55z" fill="#008787"/><path d="M263.48 192.28H142.39a6.26 6.26 0 00-6.32 6.32v19.31a51.52 51.52 0 0051.63 51.63h66.87a38.6 38.6 0 0038.63-38.63v-17.08c0-9.29-9.66-21.55-29.72-21.55z" transform="translate(-6.8 -2)" fill="url(#b)" opacity=".9"/><path d="M248.14 62.13L142.64 3.06a25.33 25.33 0 00-24.14 0L12.63 62.13A24.82 24.82 0 000 83.67v118.5a24.38 24.38 0 0012.63 21.54l105.5 59.06a23.35 23.35 0 0012.25 3.35 24.33 24.33 0 0012.26-3.35l105.5-59.06a24.83 24.83 0 0012.63-21.54V83.67a24.82 24.82 0 00-12.63-21.54z" fill="#20123a"/><path d="M63.26 176.31L57 180a9.73 9.73 0 00-3.72 13.37 9.87 9.87 0 008.55 5.21 11.53 11.53 0 004.83-1.12l6.31-3.71a9.74 9.74 0 003.72-13.38c-2.69-5.18-8.6-7.03-13.43-4.06z" transform="translate(-6.8 -2)" fill="url(#a)"/><path d="M102.27 154l-13 7.43a9.73 9.73 0 00-3.72 13.37 9.87 9.87 0 008.55 5.2 11.44 11.44 0 004.82-1.11l13-7.43a9.74 9.74 0 003.71-13.37 9.85 9.85 0 00-13.36-4.09z" transform="translate(-6.8 -2)" fill="url(#c)"/><path d="M154.64 135.82a8.76 8.76 0 00-5.2-4.46V56.7a10 10 0 00-20.06 0v75a8.85 8.85 0 00-5.2 4.46 9.9 9.9 0 00-.37 8.54 9.92 9.92 0 00.37 8.55 8.8 8.8 0 005.2 4.45v75a10 10 0 0020.06 0v-75.34a8.77 8.77 0 005.2-4.45 9.85 9.85 0 00.37-8.55 9.87 9.87 0 00-.37-8.54z" transform="translate(-6.8 -2)" fill="url(#d)"/><path d="M179.9 110.19l-13 7.43a9.73 9.73 0 00-3.71 13.38 9.86 9.86 0 008.54 5.2 11.48 11.48 0 004.83-1.11l13-7.43a9.74 9.74 0 003.72-13.38 9.87 9.87 0 00-13.38-4.09z" transform="translate(-6.8 -2)" fill="url(#e)"/><path d="M210.73 114.27a11.45 11.45 0 004.83-1.11l6.32-3.72a9.81 9.81 0 10-9.66-17.08l-6.32 3.71a9.74 9.74 0 00-3.71 13.37 9.39 9.39 0 008.54 4.83z" transform="translate(-6.8 -2)" fill="url(#f)"/><path d="M221.88 179.65l-6.32-3.71A9.81 9.81 0 00205.9 193l6.32 3.72a11.48 11.48 0 004.83 1.11 9.87 9.87 0 008.54-5.2c2.6-4.06 1.12-10.01-3.71-12.98z" transform="translate(-6.8 -2)" fill="url(#g)"/><path d="M189.56 161.45l-13-7.43a9.82 9.82 0 00-9.66 17.09l13 7.43a11.51 11.51 0 004.83 1.11 9.88 9.88 0 008.55-5.2c2.6-4.09 1.11-10.4-3.72-13z" transform="translate(-6.8 -2)" fill="url(#h)"/><path d="M89.27 127.65l13 7.43a11.45 11.45 0 004.83 1.11 9.87 9.87 0 008.54-5.2 9.74 9.74 0 00-3.71-13.37l-13-7.43a9.73 9.73 0 00-13.37 3.71 10.27 10.27 0 003.71 13.75z" transform="translate(-6.8 -2)" fill="url(#i)"/><path d="M72.92 95.7L66.61 92A9.81 9.81 0 1057 109.07l6.31 3.72a11.51 11.51 0 004.83 1.11 9.85 9.85 0 008.55-5.2c2.92-4.46 1.06-10.4-3.77-13z" transform="translate(-6.8 -2)" fill="url(#j)"/><path d="M286.88 220.51H175.45a47.4 47.4 0 00-47.55 47.55v23.4a6.27 6.27 0 006.31 6.32h111.07a47.41 47.41 0 0047.55-47.55v-36a6 6 0 01-5.95 6.28z" transform="translate(-6.8 -2)" fill="url(#k)"/><path d="M170.87 256.77a7.65 7.65 0 003.72-6.31c0-5.58-4.09-8.92-11.15-8.92h-13.37v32h13.37c7.06 0 11.52-3 11.52-9.29 0-3.76-1.49-5.99-4.09-7.48zm-14.48-10h7.43c3.34 0 4.83 1.49 4.83 3.72s-1.49 3.71-4.83 3.71h-7.43zm7.05 21.18h-7.42v-8.18h7.42c4.09 0 5.58 1.49 5.58 4.09-.37 2.57-1.82 4.06-5.58 4.06zM180.9 273.49h21.55v-5.95h-15.23v-7.42h15.23v-5.58h-15.23v-7.43h15.23v-5.94H180.9v32.32zM231.42 241.17h-23.77v5.94h8.91v26.38h6.32v-26.38h8.54v-5.94zM248.14 241.17h-5.94l-12.25 32h6.31l2.23-5.95h13.37l2.23 5.95h6.32zm-7.8 20.8l4.86-12.63 4.42 12.66z" fill="#20123a"/></svg>