<svg xmlns="http://www.w3.org/2000/svg" width="16" height="16"><path fill="rgba(12, 12, 13, .8)" d="M15 7h-2.1a4.967 4.967 0 00-.732-1.753l1.49-1.49a1 1 0 00-1.414-1.414l-1.49 1.49A4.968 4.968 0 009 3.1V1a1 1 0 00-2 0v2.1a4.968 4.968 0 00-1.753.732l-1.49-1.49a1 1 0 00-1.414 1.415l1.49 1.49A4.967 4.967 0 003.1 7H1a1 1 0 000 2h2.1a4.968 4.968 0 00.737 1.763c-.014.013-.032.017-.045.03l-1.45 1.45a1 1 0 101.414 1.414l1.45-1.45c.013-.013.018-.031.03-.045A4.968 4.968 0 007 12.9V15a1 1 0 002 0v-2.1a4.968 4.968 0 001.753-.732l1.49 1.49a1 1 0 001.414-1.414l-1.49-1.49A4.967 4.967 0 0012.9 9H15a1 1 0 000-2zM5 8a3 3 0 113 3 3 3 0 01-3-3z"/></svg>