<?xml version="1.0" encoding="UTF-8" standalone="no"?>
<svg
   data-name="Layer 1"
   viewBox="0 0 70.202151 77.125813"
   version="1.1"
   id="svg31"
   width="70.202148"
   height="77.125816"
   xmlns="http://www.w3.org/2000/svg"
   xmlns:svg="http://www.w3.org/2000/svg">
  <defs
     id="defs25">
    <linearGradient
       id="a"
       x1="460.66"
       y1="-120.15"
       x2="449.39001"
       y2="-109.49"
       gradientTransform="matrix(1,0,0,-1,-389,-47.01)"
       gradientUnits="userSpaceOnUse">
      <stop
         offset="0"
         stop-color="#054096"
         stop-opacity=".5"
         id="stop2" />
      <stop
         offset=".1"
         stop-color="#173ba1"
         stop-opacity=".44"
         id="stop4" />
      <stop
         offset=".29"
         stop-color="#3434b3"
         stop-opacity=".33"
         id="stop6" />
      <stop
         offset=".49"
         stop-color="#482ec1"
         stop-opacity=".22"
         id="stop8" />
      <stop
         offset=".68"
         stop-color="#552bc8"
         stop-opacity=".11"
         id="stop10" />
      <stop
         offset=".86"
         stop-color="#592acb"
         stop-opacity="0"
         id="stop12" />
    </linearGradient>
    <linearGradient
       id="b"
       x1="3.3900001"
       y1="42.560001"
       x2="73.599998"
       y2="42.560001"
       gradientTransform="matrix(1,0,0,-1,-3.3898006,81.125553)"
       gradientUnits="userSpaceOnUse">
      <stop
         offset="0"
         stop-color="#9059ff"
         id="stop15" />
      <stop
         offset="1"
         stop-color="#f770ff"
         id="stop17" />
    </linearGradient>
    <linearGradient
       id="c"
       x1="40.919998"
       y1="20.280001"
       x2="81.589996"
       y2="3.0699999"
       gradientTransform="matrix(1,0,0,-1,0,82.99)"
       gradientUnits="userSpaceOnUse">
      <stop
         offset="0"
         stop-color="#54ffbd"
         id="stop20" />
      <stop
         offset="1"
         stop-color="#0df"
         id="stop22" />
    </linearGradient>
  </defs>
  <path
     d="m 66.800199,16.825553 -28.4,-15.99999951 a 6.81,6.81 0 0 0 -6.5,0 L 3.4001994,16.825553 a 6.68,6.68 0 0 0 -3.39999997131,5.8 v 31.9 a 6.56,6.56 0 0 0 3.39999997131,5.8 l 28.3999996,15.9 a 6.29,6.29 0 0 0 3.3,0.9 6.56,6.56 0 0 0 3.3,-0.9 l 28.4,-15.9 a 6.68,6.68 0 0 0 3.4,-5.8 v -31.9 a 6.38,6.38 0 0 0 -3.4,-5.8 z"
     fill="url(#b)"
     id="path27"
     style="fill:url(#b)" />
  <path
     d="m 15.300199,46.925553 -1.7,1 a 2.62,2.62 0 0 0 -1,3.6 2.65,2.65 0 0 0 2.3,1.4 3.08,3.08 0 0 0 1.3,-0.3 l 1.7,-1 a 2.62,2.62 0 0 0 1,-3.6 2.57,2.57 0 0 0 -3.6,-1.1 z m 10.4,-5.9 -3.5,2 a 2.62,2.62 0 0 0 -1,3.6 2.65,2.65 0 0 0 2.3,1.4 3.08,3.08 0 0 0 1.3,-0.3 l 3.5,-2 a 2.62,2.62 0 0 0 1,-3.6 2.57,2.57 0 0 0 -3.6,-1.1 z m 14.1,-4.89 a 2.36,2.36 0 0 0 -1.4,-1.2 v -20.11 a 2.69,2.69 0 0 0 -2.7,-2.7 2.61,2.61 0 0 0 -2.6,2.7 v 20.2 a 2.36,2.36 0 0 0 -1.4,1.2 2.66,2.66 0 0 0 -0.1,2.3 2.66,2.66 0 0 0 0.1,2.3 2.36,2.36 0 0 0 1.4,1.2 v 20.2 a 2.7,2.7 0 0 0 5.4,0 v -20.3 a 2.36,2.36 0 0 0 1.4,-1.2 2.66,2.66 0 0 0 0.1,-2.3 3.08,3.08 0 0 0 -0.2,-2.29 z m 6.81,-6.91 -3.5,2 a 2.62,2.62 0 0 0 -1,3.6 2.65,2.65 0 0 0 2.3,1.4 3.08,3.08 0 0 0 1.3,-0.3 l 3.5,-2 a 2.62,2.62 0 0 0 1,-3.6 2.57,2.57 0 0 0 -3.6,-1.1 z m 8.29,1 a 3.08,3.08 0 0 0 1.3,-0.3 l 1.7,-1 a 2.642,2.642 0 1 0 -2.6,-4.6 l -1.7,1 a 2.62,2.62 0 0 0 -1,3.6 2.56,2.56 0 0 0 2.3,1.3 z m 3,17.7 -1.7,-1 a 2.642,2.642 0 0 0 -2.6,4.6 l 1.7,1 a 3.08,3.08 0 0 0 1.3,0.3 2.65,2.65 0 0 0 2.3,-1.4 2.47,2.47 0 0 0 -1,-3.5 z m -8.7,-4.9 -3.5,-2 a 2.642,2.642 0 1 0 -2.6,4.6 l 3.5,2 a 3.08,3.08 0 0 0 1.3,0.3 2.65,2.65 0 0 0 2.3,-1.4 2.45,2.45 0 0 0 -1,-3.5 z m -27,-9.2 3.5,2 a 3.08,3.08 0 0 0 1.3,0.3 2.65,2.65 0 0 0 2.3,-1.4 2.62,2.62 0 0 0 -1,-3.6 l -3.5,-2 a 2.62,2.62 0 0 0 -3.6,1 2.8,2.8 0 0 0 1,3.7 z m -4.3,-8.5 -1.7,-1 a 2.642,2.642 0 1 0 -2.6,4.6 l 1.7,1 a 3.08,3.08 0 0 0 1.3,0.3 2.65,2.65 0 0 0 2.3,-1.4 2.53,2.53 0 0 0 -1,-3.5 z"
     fill="#20133a"
     id="path29" />
</svg>
