<svg xmlns="http://www.w3.org/2000/svg" xmlns:xlink="http://www.w3.org/1999/xlink" version="1.1" viewBox="0 0 3600 2862" style="background: #ffffff"><defs><style>@import url(https://fonts.googleapis.com/css?family=Open+Sans:400,700);</style></defs><defs joint-selector="defs"></defs><g  joint-selector="layers" transform="matrix(1,0,0,1,0,0)"><g ></g><g ><!--z-index:-35--><!--z-index:-34--><!--z-index:-33--><!--z-index:-32--><!--z-index:-31--><!--z-index:-30--><!--z-index:-29--><!--z-index:-28--><!--z-index:-27--><!--z-index:-26--><!--z-index:-25--><!--z-index:-24--><!--z-index:-23--><!--z-index:-22--><!--z-index:-21--><!--z-index:-20--><!--z-index:-19--><!--z-index:-18--><!--z-index:-17--><!--z-index:-16--><!--z-index:-15--><!--z-index:-14--><!--z-index:-13--><!--z-index:-12--><!--z-index:-11--><!--z-index:-10--><!--z-index:-9--><!--z-index:-8--><!--z-index:-7--><!--z-index:-6--><!--z-index:-5--><!--z-index:-4--><!--z-index:-3--><!--z-index:-2--><!--z-index:-1--><!--z-index:0--><!--z-index:1--><!--z-index:2--><!--z-index:3--><!--z-index:4--><!--z-index:5--><!--z-index:6--><!--z-index:7--><!--z-index:8--><!--z-index:9--><!--z-index:10--><!--z-index:11--><!--z-index:12--><!--z-index:13--><!--z-index:14--><!--z-index:15--><!--z-index:16--><!--z-index:17--><!--z-index:18--><!--z-index:19--><!--z-index:20--><!--z-index:21--><!--z-index:22--><!--z-index:23--><!--z-index:24--><!--z-index:25--><!--z-index:26--><!--z-index:27--><!--z-index:28--><!--z-index:29--><!--z-index:30--><!--z-index:31--><!--z-index:32--><!--z-index:33--><g   id="j_2208"  transform="translate(20,2825.6)"><g id="v-35903"><text  id="v-35904" font-size="22px" xml:space="preserve" y="0.8em" font-weight="normal" text-anchor="start" fill="#aaaaaa" pointer-events="none" display="block" font-family="Open Sans"><tspan  dy="0">Wednesday, September 4, 2024 at 11:41 AM Central Daylight Time</tspan></text></g></g><!--z-index:34--><g   id="j_2207"  transform="translate(20,2799.2)"><g id="v-35901"><text  id="v-35902" font-size="22px" xml:space="preserve" y="0.8em" font-weight="normal" text-anchor="start" fill="#aaaaaa" pointer-events="none" display="block" font-family="Open Sans"><tspan  dy="0">ForwardEmailProcess</tspan></text></g></g><!--z-index:35--><g   id="j_2206"  transform="translate(20,2756)"><g id="v-35899"><text  id="v-35900" font-size="36px" xml:space="preserve" y="0.8em" font-weight="normal" text-anchor="start" fill="#000000" pointer-events="none" display="block" font-family="Open Sans"><tspan  dy="0">[Dynamic] Forwarding an Email to a Relay User</tspan></text></g></g><!--z-index:36--><g   id="j_2210"  transform="translate(200,681)" style=""><g id="v-35916"><rect  id="v-35917" width="2755" height="1981" rx="0" ry="0" fill="#ffffff" stroke="#005526" stroke-width="1" stroke-dasharray="20,20" pointer-events="none"></rect><text  id="v-35918" font-size="24px" xml:space="preserve" y="1942" font-weight="normal" fill="#005526" text-anchor="start" pointer-events="visible" font-family="Open Sans" transform="matrix(1,0,0,1,15,0)"><tspan  dy="0">Firefox Relay</tspan></text><text  id="v-35919" font-size="17px" xml:space="preserve" y="1966" font-weight="normal" fill="#005526" text-anchor="start" pointer-events="visible" font-family="Open Sans" transform="matrix(1,0,0,1,15,0)"><tspan  dy="0">[Software System]</tspan></text><image  id="v-35920" pointer-events="visible"></image></g></g><!--z-index:37--><g   id="j_2209"  transform="translate(220,720)" style=""><g  id="v-35908" style="opacity: 1;"><path  d="M 0,30 a 225,30 0,0,0 450 0 a 225,30 0,0,0 -450 0 l 0,240 a 225,30 0,0,0 450 0 l 0,-240" id="v-35909" stroke="#00bd2b" stroke-width="2" pointer-events="visiblePainted" fill="#00d230" style="fill: rgb(0, 210, 48); stroke: rgb(0, 189, 43);"></path><rect  id="v-35910" stroke-width="0" pointer-events="visiblePainted" fill="none" stroke="none" width="450" height="270" x="0" y="30"></rect><text  id="v-35911" font-size="34" xml:space="preserve" y="0.8em" font-weight="bold" text-anchor="middle" pointer-events="visible" font-family="Open Sans" fill="#000000" transform="matrix(1,0,0,1,225,110.5999984741211)" style="fill: rgb(0, 0, 0);"><tspan  dy="0">Database</tspan></text><text  id="v-35912" font-size="17" xml:space="preserve" y="0.8em" text-anchor="middle" font-family="Open Sans" fill="#000000" transform="matrix(1,0,0,1,225,151.39999389648438)" style="fill: rgb(0, 0, 0);"><tspan  dy="0">[Container: PostgreSQL]</tspan></text><text  id="v-35913" font-size="24" xml:space="preserve" y="0.8em" text-anchor="middle" font-family="Open Sans" fill="#000000" transform="matrix(1,0,0,1,225,181.8000030517578)" style="fill: rgb(0, 0, 0);"><tspan  dy="0">Stores Relay User profiles, masks,</tspan><tspan dy="1.2em" x="0" >abuse metrics, etc.</tspan></text><g  id="v-35914" font-weight="normal" text-anchor="middle" color="#000000" transform="matrix(1,0,0,1,222.5,268)" style="fill: rgb(0, 0, 0);" display="none"><g ></g><g ></g><g ></g><g ></g></g><image  id="v-35915"></image></g></g><!--z-index:38--><g   id="j_2211"  transform="translate(220,1825)" style=""><g  id="v-35924" style="opacity: 1;"><ellipse  id="v-35925" stroke="#00bd2b" stroke-width="2" pointer-events="visiblePainted" fill="#00d230" cx="225" cy="150" rx="225" ry="150" style="fill: rgb(0, 210, 48); stroke: rgb(0, 189, 43);"></ellipse><text  id="v-35926" font-size="34" xml:space="preserve" y="0.8em" font-weight="bold" text-anchor="middle" pointer-events="visible" font-family="Open Sans" fill="#000000" transform="matrix(1,0,0,1,225,102.5)" style="fill: rgb(0, 0, 0);"><tspan  dy="0">Log Aggregator</tspan></text><text  id="v-35927" font-size="17" xml:space="preserve" y="0.8em" text-anchor="middle" font-family="Open Sans" fill="#000000" transform="matrix(1,0,0,1,225,143.3000030517578)" style="fill: rgb(0, 0, 0);"><tspan  dy="0">[Container]</tspan></text><text  id="v-35928" font-size="24" xml:space="preserve" y="0.8em" text-anchor="middle" font-family="Open Sans" fill="#000000" transform="matrix(1,0,0,1,225,173.6999969482422)" style="fill: rgb(0, 0, 0);"><tspan  dy="0">Collects logs from other containers</tspan></text><g  id="v-35929" font-weight="normal" text-anchor="middle" color="#000000" transform="matrix(1,0,0,1,222.5,268)" style="fill: rgb(0, 0, 0);" display="none"><g ></g><g ></g><g ></g><g ></g></g><image  id="v-35930"></image></g></g><!--z-index:39--><g   id="j_2212"  transform="translate(220,1272)" style=""><g  id="v-35937" style="opacity: 1;"><rect  id="v-35938" rx="20" ry="20" stroke="#00d230" stroke-width="10" pointer-events="visiblePainted" fill="#ffffff" width="450" height="300" style="fill: rgb(255, 255, 255); stroke: rgb(0, 210, 48);"></rect><text  id="v-35939" font-size="34" xml:space="preserve" y="0.8em" font-weight="bold" text-anchor="middle" pointer-events="visible" font-family="Open Sans" fill="#000000" transform="matrix(1,0,0,1,225,88.0999984741211)" style="fill: rgb(0, 0, 0);"><tspan  dy="0">Metrics Aggregator</tspan></text><text  id="v-35940" font-size="17" xml:space="preserve" y="0.8em" text-anchor="middle" font-family="Open Sans" fill="#000000" transform="matrix(1,0,0,1,225,128.89999389648438)" style="fill: rgb(0, 0, 0);"><tspan  dy="0">[Container: telegraf]</tspan></text><text  id="v-35941" font-size="24" xml:space="preserve" y="0.8em" text-anchor="middle" font-family="Open Sans" fill="#000000" transform="matrix(1,0,0,1,225,159.3000030517578)" style="fill: rgb(0, 0, 0);"><tspan  dy="0">Collects metrics from other</tspan><tspan dy="1.2em" x="0" >containers</tspan></text><g  id="v-35942" color="#000000" transform="matrix(1,0,0,1,222.5,268)" style="fill: rgb(0, 0, 0);" display="none"><g ></g><g ></g><g ></g><g ></g></g><image  id="v-35943"></image></g></g><!--z-index:40--><g   id="j_2213"  transform="translate(1550,1790)" style=""><g  id="v-35950" style="opacity: 1;"><ellipse  id="v-35951" stroke="#00bd2b" stroke-width="2" pointer-events="visiblePainted" fill="#00d230" cx="225" cy="150" rx="225" ry="150" style="fill: rgb(0, 210, 48); stroke: rgb(0, 189, 43);"></ellipse><text  id="v-35952" font-size="34" xml:space="preserve" y="0.8em" font-weight="bold" text-anchor="middle" pointer-events="visible" font-family="Open Sans" fill="#000000" transform="matrix(1,0,0,1,225,102.5)" style="fill: rgb(0, 0, 0);"><tspan  dy="0">Email Encryption</tspan></text><text  id="v-35953" font-size="17" xml:space="preserve" y="0.8em" text-anchor="middle" font-family="Open Sans" fill="#000000" transform="matrix(1,0,0,1,225,143.3000030517578)" style="fill: rgb(0, 0, 0);"><tspan  dy="0">[Container: AWS KMS]</tspan></text><text  id="v-35954" font-size="24" xml:space="preserve" y="0.8em" text-anchor="middle" font-family="Open Sans" fill="#000000" transform="matrix(1,0,0,1,225,173.6999969482422)" style="fill: rgb(0, 0, 0);"><tspan  dy="0">Encrypts emails, notifications at rest</tspan></text><g  id="v-35955" font-weight="normal" text-anchor="middle" color="#000000" transform="matrix(1,0,0,1,222.5,268)" style="fill: rgb(0, 0, 0);" display="none"><g ></g><g ></g><g ></g><g ></g></g><image  id="v-35956"></image></g></g><!--z-index:41--><g   id="j_2214"  transform="translate(1545,1045)" style=""><g  id="v-35960" style="opacity: 1;"><path  d="M 0,30 a 225,30 0,0,0 450 0 a 225,30 0,0,0 -450 0 l 0,240 a 225,30 0,0,0 450 0 l 0,-240" id="v-35961" stroke="#00bd2b" stroke-width="2" pointer-events="visiblePainted" fill="#00d230" style="fill: rgb(0, 210, 48); stroke: rgb(0, 189, 43);"></path><rect  id="v-35962" stroke-width="0" pointer-events="visiblePainted" fill="none" stroke="none" width="450" height="270" x="0" y="30"></rect><text  id="v-35963" font-size="34" xml:space="preserve" y="0.8em" font-weight="bold" text-anchor="middle" pointer-events="visible" font-family="Open Sans" fill="#000000" transform="matrix(1,0,0,1,225,125)" style="fill: rgb(0, 0, 0);"><tspan  dy="0">Incoming Email Storage</tspan></text><text  id="v-35964" font-size="17" xml:space="preserve" y="0.8em" text-anchor="middle" font-family="Open Sans" fill="#000000" transform="matrix(1,0,0,1,225,165.8000030517578)" style="fill: rgb(0, 0, 0);"><tspan  dy="0">[Container: AWS S3]</tspan></text><text  id="v-35965" font-size="24" xml:space="preserve" y="0.8em" text-anchor="middle" font-family="Open Sans" fill="#000000" transform="matrix(1,0,0,1,225,196.1999969482422)" style="fill: rgb(0, 0, 0);"><tspan  dy="0">Stores incoming mail</tspan></text><g  id="v-35966" font-weight="normal" text-anchor="middle" color="#000000" transform="matrix(1,0,0,1,222.5,268)" style="fill: rgb(0, 0, 0);" display="none"><g ></g><g ></g><g ></g><g ></g></g><image  id="v-35967"></image></g></g><!--z-index:42--><g   id="j_2215"  transform="translate(1546,2271)" style=""><g  id="v-35974" style="opacity: 1;"><path  d="M 0,30 a 225,30 0,0,0 450 0 a 225,30 0,0,0 -450 0 l 0,240 a 225,30 0,0,0 450 0 l 0,-240" id="v-35975" stroke="#00bd2b" stroke-width="2" pointer-events="visiblePainted" fill="#00d230" style="fill: rgb(0, 210, 48); stroke: rgb(0, 189, 43);"></path><rect  id="v-35976" stroke-width="0" pointer-events="visiblePainted" fill="none" stroke="none" width="450" height="270" x="0" y="30"></rect><text  id="v-35977" font-size="34" xml:space="preserve" y="0.8em" font-weight="bold" text-anchor="middle" pointer-events="visible" font-family="Open Sans" fill="#000000" transform="matrix(1,0,0,1,225,110.5999984741211)" style="fill: rgb(0, 0, 0);"><tspan  dy="0">Email Notification Queue</tspan></text><text  id="v-35978" font-size="17" xml:space="preserve" y="0.8em" text-anchor="middle" font-family="Open Sans" fill="#000000" transform="matrix(1,0,0,1,225,151.39999389648438)" style="fill: rgb(0, 0, 0);"><tspan  dy="0">[Container: AWS SQS]</tspan></text><text  id="v-35979" font-size="24" xml:space="preserve" y="0.8em" text-anchor="middle" font-family="Open Sans" fill="#000000" transform="matrix(1,0,0,1,225,181.8000030517578)" style="fill: rgb(0, 0, 0);"><tspan  dy="0">Holds notifications for emails,</tspan><tspan dy="1.2em" x="0" >complaints, and bounces</tspan></text><g  id="v-35980" font-weight="normal" text-anchor="middle" color="#000000" transform="matrix(1,0,0,1,222.5,268)" style="fill: rgb(0, 0, 0);" display="none"><g ></g><g ></g><g ></g><g ></g></g><image  id="v-35981"></image></g></g><!--z-index:43--><g   id="j_2216"  transform="translate(1970,1360)" style=""><g  id="v-35985" style="opacity: 1;"><ellipse  id="v-35986" stroke="#00bd2b" stroke-width="2" pointer-events="visiblePainted" fill="#00d230" cx="225" cy="150" rx="225" ry="150" style="fill: rgb(0, 210, 48); stroke: rgb(0, 189, 43);"></ellipse><text  id="v-35987" font-size="34" xml:space="preserve" y="0.8em" font-weight="bold" text-anchor="middle" pointer-events="visible" font-family="Open Sans" fill="#000000" transform="matrix(1,0,0,1,225,88.0999984741211)" style="fill: rgb(0, 0, 0);"><tspan  dy="0">Email Pub/Sub</tspan></text><text  id="v-35988" font-size="17" xml:space="preserve" y="0.8em" text-anchor="middle" font-family="Open Sans" fill="#000000" transform="matrix(1,0,0,1,225,128.89999389648438)" style="fill: rgb(0, 0, 0);"><tspan  dy="0">[Container: AWS SNS]</tspan></text><text  id="v-35989" font-size="24" xml:space="preserve" y="0.8em" text-anchor="middle" font-family="Open Sans" fill="#000000" transform="matrix(1,0,0,1,225,159.3000030517578)" style="fill: rgb(0, 0, 0);"><tspan  dy="0">Published notifications to</tspan><tspan dy="1.2em" x="0" >subscribers</tspan></text><g  id="v-35990" font-weight="normal" text-anchor="middle" color="#000000" transform="matrix(1,0,0,1,222.5,268)" style="fill: rgb(0, 0, 0);" display="none"><g ></g><g ></g><g ></g><g ></g></g><image  id="v-35991"></image></g></g><!--z-index:44--><g   id="j_2217"  transform="translate(2485,701)" style=""><g  id="v-35995" style="opacity: 1;"><ellipse  id="v-35996" stroke="#00bd2b" stroke-width="2" pointer-events="visiblePainted" fill="#00d230" cx="225" cy="150" rx="225" ry="150" style="fill: rgb(0, 210, 48); stroke: rgb(0, 189, 43);"></ellipse><text  id="v-35997" font-size="34" xml:space="preserve" y="0.8em" font-weight="bold" text-anchor="middle" pointer-events="visible" font-family="Open Sans" fill="#000000" transform="matrix(1,0,0,1,225,88.0999984741211)" style="fill: rgb(0, 0, 0);"><tspan  dy="0">Email Sender</tspan></text><text  id="v-35998" font-size="17" xml:space="preserve" y="0.8em" text-anchor="middle" font-family="Open Sans" fill="#000000" transform="matrix(1,0,0,1,225,128.89999389648438)" style="fill: rgb(0, 0, 0);"><tspan  dy="0">[Container: Amazon SES]</tspan></text><text  id="v-35999" font-size="24" xml:space="preserve" y="0.8em" text-anchor="middle" font-family="Open Sans" fill="#000000" transform="matrix(1,0,0,1,225,159.3000030517578)" style="fill: rgb(0, 0, 0);"><tspan  dy="0">Sends emails from the Relay</tspan><tspan dy="1.2em" x="0" >domain</tspan></text><g  id="v-36000" font-weight="normal" text-anchor="middle" color="#000000" transform="matrix(1,0,0,1,222.5,268)" style="fill: rgb(0, 0, 0);" display="none"><g ></g><g ></g><g ></g><g ></g></g><image  id="v-36001"></image></g></g><!--z-index:45--><g   id="j_2218"  transform="translate(2485,1790)" style=""><g  id="v-36005" style="opacity: 1;"><ellipse  id="v-36006" stroke="#00bd2b" stroke-width="2" pointer-events="visiblePainted" fill="#00d230" cx="225" cy="150" rx="225" ry="150" style="fill: rgb(0, 210, 48); stroke: rgb(0, 189, 43);"></ellipse><text  id="v-36007" font-size="34" xml:space="preserve" y="0.8em" font-weight="bold" text-anchor="middle" pointer-events="visible" font-family="Open Sans" fill="#000000" transform="matrix(1,0,0,1,225,88.0999984741211)" style="fill: rgb(0, 0, 0);"><tspan  dy="0">Email Receiver</tspan></text><text  id="v-36008" font-size="17" xml:space="preserve" y="0.8em" text-anchor="middle" font-family="Open Sans" fill="#000000" transform="matrix(1,0,0,1,225,128.89999389648438)" style="fill: rgb(0, 0, 0);"><tspan  dy="0">[Container: Amazon SES]</tspan></text><text  id="v-36009" font-size="24" xml:space="preserve" y="0.8em" text-anchor="middle" font-family="Open Sans" fill="#000000" transform="matrix(1,0,0,1,225,159.3000030517578)" style="fill: rgb(0, 0, 0);"><tspan  dy="0">Routes incoming emails,</tspan><tspan dy="1.2em" x="0" >complaints, and bounces</tspan></text><g  id="v-36010" font-weight="normal" text-anchor="middle" color="#000000" transform="matrix(1,0,0,1,222.5,268)" style="fill: rgb(0, 0, 0);" display="none"><g ></g><g ></g><g ></g><g ></g></g><image  id="v-36011"></image></g></g><!--z-index:46--><g   id="j_2219"  transform="translate(950,701)" style=""><g  id="v-36018" style="opacity: 1;"><rect  id="v-36019" rx="20" ry="20" stroke="#00bd2b" stroke-width="2" pointer-events="visiblePainted" fill="#00d230" width="450" height="300" style="fill: rgb(0, 210, 48); stroke: rgb(0, 189, 43);"></rect><text  id="v-36020" font-size="34" xml:space="preserve" y="0.8em" font-weight="bold" text-anchor="middle" pointer-events="visible" font-family="Open Sans" fill="#000000" transform="matrix(1,0,0,1,225,73.69999694824219)" style="fill: rgb(0, 0, 0);"><tspan  dy="0">Email Processor</tspan></text><text  id="v-36021" font-size="17" xml:space="preserve" y="0.8em" text-anchor="middle" font-family="Open Sans" fill="#000000" transform="matrix(1,0,0,1,225,114.5)" style="fill: rgb(0, 0, 0);"><tspan  dy="0">[Container: Python - Django Command]</tspan></text><text  id="v-36022" font-size="24" xml:space="preserve" y="0.8em" text-anchor="middle" font-family="Open Sans" fill="#000000" transform="matrix(1,0,0,1,225,144.89999389648438)" style="fill: rgb(0, 0, 0);"><tspan  dy="0">Processes and forwards incoming</tspan><tspan dy="1.2em" x="0" >emails; Processes complaint and</tspan><tspan dy="1.2em" x="0" >bounce reports</tspan></text><g  id="v-36023" color="#000000" transform="matrix(1,0,0,1,222.5,268)" style="fill: rgb(0, 0, 0);" display="none"><g ></g><g ></g><g ></g><g ></g></g><image  id="v-36024"></image></g></g><!--z-index:47--><g   id="j_2220"  transform="translate(1700,200)" style=""><g  id="v-36028" style="opacity: 1;"><rect  x="0" y="160" width="400" height="240" rx="70" id="v-36030" stroke="#e68a00" stroke-width="2" pointer-events="visiblePainted" fill="#ff9900" style="fill: rgb(255, 153, 0); stroke: rgb(230, 138, 0);"></rect><circle  cx="200" cy="88.88888888888889" r="88.88888888888889" id="v-36029" stroke="#e68a00" stroke-width="2" pointer-events="visiblePainted" fill="#ff9900" style="fill: rgb(255, 153, 0); stroke: rgb(230, 138, 0);"></circle><line  x1="80" y1="266.6666666666667" x2="80" y2="400" id="v-36036" stroke="#e68a00" stroke-width="2" style="stroke: rgb(230, 138, 0);"></line><line  x1="320" y1="266.6666666666667" x2="320" y2="400" id="v-36037" stroke="#e68a00" stroke-width="2" style="stroke: rgb(230, 138, 0);"></line><text  id="v-36031" font-size="34" xml:space="preserve" y="0.8em" font-weight="bold" text-anchor="middle" pointer-events="visible" font-family="Open Sans" fill="#000000" transform="matrix(1,0,0,1,200,232.5)" style="fill: rgb(0, 0, 0);"><tspan  dy="0">Relay User</tspan></text><text  id="v-36032" font-size="17" xml:space="preserve" y="0.8em" text-anchor="middle" font-family="Open Sans" fill="#000000" transform="matrix(1,0,0,1,200,273.29998779296875)" style="fill: rgb(0, 0, 0);"><tspan  dy="0">[Person]</tspan></text><text  id="v-36033" font-size="24" xml:space="preserve" y="0.8em" text-anchor="middle" font-family="Open Sans" fill="#000000" transform="matrix(1,0,0,1,200,303.70001220703125)" style="fill: rgb(0, 0, 0);"><tspan  dy="0">A user of Firefox Relay.</tspan></text><g  id="v-36034" font-weight="normal" text-anchor="middle" color="#000000" transform="matrix(1,0,0,1,197.5,368)" style="fill: rgb(0, 0, 0);" display="none"><g ></g><g ></g><g ></g><g ></g></g><image  id="v-36035"></image></g></g><!--z-index:48--><g   id="j_2221"  transform="translate(3000,1015)" style=""><g  id="v-36041" style="opacity: 1;"><rect  x="0" y="160" width="400" height="240" rx="70" id="v-36043" stroke="#c7c7c7" stroke-width="2" pointer-events="visiblePainted" fill="#dddddd" style="fill: rgb(221, 221, 221); stroke: rgb(199, 199, 199);"></rect><circle  cx="200" cy="88.88888888888889" r="88.88888888888889" id="v-36042" stroke="#c7c7c7" stroke-width="2" pointer-events="visiblePainted" fill="#dddddd" style="fill: rgb(221, 221, 221); stroke: rgb(199, 199, 199);"></circle><line  x1="80" y1="266.6666666666667" x2="80" y2="400" id="v-36049" stroke="#c7c7c7" stroke-width="2" style="stroke: rgb(199, 199, 199);"></line><line  x1="320" y1="266.6666666666667" x2="320" y2="400" id="v-36050" stroke="#c7c7c7" stroke-width="2" style="stroke: rgb(199, 199, 199);"></line><text  id="v-36044" font-size="34" xml:space="preserve" y="0.8em" font-weight="bold" text-anchor="middle" pointer-events="visible" font-family="Open Sans" fill="#000000" transform="matrix(1,0,0,1,200,218.10000610351562)" style="fill: rgb(0, 0, 0);"><tspan  dy="0">Email Contact</tspan></text><text  id="v-36045" font-size="17" xml:space="preserve" y="0.8em" text-anchor="middle" font-family="Open Sans" fill="#000000" transform="matrix(1,0,0,1,200,258.8999938964844)" style="fill: rgb(0, 0, 0);"><tspan  dy="0">[Person]</tspan></text><text  id="v-36046" font-size="24" xml:space="preserve" y="0.8em" text-anchor="middle" font-family="Open Sans" fill="#000000" transform="matrix(1,0,0,1,200,289.29998779296875)" style="fill: rgb(0, 0, 0);"><tspan  dy="0">A person or business emailing</tspan><tspan dy="1.2em" x="0" >with a Relay User.</tspan></text><g  id="v-36047" font-weight="normal" text-anchor="middle" color="#000000" transform="matrix(1,0,0,1,197.5,368)" style="fill: rgb(0, 0, 0);" display="none"><g ></g><g ></g><g ></g><g ></g></g><image  id="v-36048"></image></g></g><!--z-index:49--><g   id="j_2222" ><path  stroke="#505050" d="M 3065 1415 L 2811 1790" id="v-36066" stroke-width="2" fill="none"></path><path  fill="black" stroke="black" d="M 0 0 0 0" transform="matrix(-0.5599660873413086,0.8285155296325684,-0.8285155296325684,-0.5599660873413086,3064.830078125,1415)"></path><path  fill="#505050" stroke="#505050" d="M 20 0 L 0 10 L 20 20 z" id="v-36068" transform="matrix(0.5599658489227295,-0.8285157084465027,0.8285157084465027,0.5599658489227295,2803.094970703125,1784.400390625)"></path><path  d="M 3065 1415 L 2811 1790" id="v-36067" fill="none" style="cursor: default;"></path><g ><g id="v-36057"  label-idx="0" cursor="move" transform="matrix(1,0,0,1,2938,1602.5)" style="cursor: default;"><rect joint-selector="rect" id="v-36061" fill="#ffffff" rx="3" ry="3" pointer-events="none" width="196.11666870117188" height="120.40000534057617" transform="matrix(1,0,0,1,-98.0999984741211,-60.20000076293945)"></rect><text joint-selector="text" id="v-36060" font-size="24px" xml:space="preserve" y="0.8em" fill="#505050" text-anchor="middle" pointer-events="none" font-family="Open Sans" font-weight="normal" transform="matrix(1,0,0,1,0,-53.400001525878906)"><tspan  dy="0">1: Sends email.</tspan><tspan dy="1.2em" x="0" >Email passes</tspan><tspan dy="1.2em" x="0" >DMARC, virus,</tspan><tspan dy="1.2em" x="0" >and spam checks</tspan></text></g><g id="v-36058"  label-idx="1" cursor="move" transform="matrix(1,0,0,1,2938,1672.0999755859375)" style="cursor: default;"><rect joint-selector="rect" id="v-36063" fill="#ffffff" rx="3" ry="3" pointer-events="none" width="231.61666870117188" height="24" transform="matrix(1,0,0,1,-115.80000305175781,-12)"></rect><text joint-selector="text" id="v-36062" font-size="17px" xml:space="preserve" y="0.8em" fill="#505050" text-anchor="middle" pointer-events="none" font-family="Open Sans" font-weight="normal" transform="matrix(1,0,0,1,0,-6.599999904632568)"><tspan  dy="0">[SMTP via user's email mask]</tspan></text></g><g id="v-36059"  label-idx="2" cursor="move" transform="matrix(1,0,0,1,2928,1680.5)" style="cursor: default;"><rect joint-selector="rect" id="v-36065" fill="#ffffff" rx="3" ry="3"  width="0" height="0" transform="matrix(1,0,0,1,0,0)" display="none"></rect><text joint-selector="text" id="v-36064" fill="#000000" font-size="14" text-anchor="middle" pointer-events="none"></text></g></g><g  display="none"></g><g  id="v-36070" display="none"><g  id="v-36055"><path  end="source" d="M 26 0 L 0 13 L 26 26 z"></path></g><g  id="v-36056"><path  end="target" d="M 26 0 L 0 13 L 26 26 z"></path></g></g><g  id="v-36069" display="none"><g  id="v-36054" transform="translate(3042.5680269857767, 1448.118070395015) "><g  event="remove"><circle r="11"></circle><path transform="scale(.8) translate(-16, -16)" d="M24.778,21.419 19.276,15.917 24.777,10.415 21.949,7.585 16.447,13.087 10.945,7.585 8.117,10.415 13.618,15.917 8.116,21.419 10.946,24.248 16.447,18.746 21.948,24.248z"></path><title>Remove link.</title></g><g  event="link:options"><circle r="11" transform="translate(25)"></circle><path fill="white" transform="scale(.55) translate(29, -16)" d="M31.229,17.736c0.064-0.571,0.104-1.148,0.104-1.736s-0.04-1.166-0.104-1.737l-4.377-1.557c-0.218-0.716-0.504-1.401-0.851-2.05l1.993-4.192c-0.725-0.91-1.549-1.734-2.458-2.459l-4.193,1.994c-0.647-0.347-1.334-0.632-2.049-0.849l-1.558-4.378C17.165,0.708,16.588,0.667,16,0.667s-1.166,0.041-1.737,0.105L12.707,5.15c-0.716,0.217-1.401,0.502-2.05,0.849L6.464,4.005C5.554,4.73,4.73,5.554,4.005,6.464l1.994,4.192c-0.347,0.648-0.632,1.334-0.849,2.05l-4.378,1.557C0.708,14.834,0.667,15.412,0.667,16s0.041,1.165,0.105,1.736l4.378,1.558c0.217,0.715,0.502,1.401,0.849,2.049l-1.994,4.193c0.725,0.909,1.549,1.733,2.459,2.458l4.192-1.993c0.648,0.347,1.334,0.633,2.05,0.851l1.557,4.377c0.571,0.064,1.148,0.104,1.737,0.104c0.588,0,1.165-0.04,1.736-0.104l1.558-4.377c0.715-0.218,1.399-0.504,2.049-0.851l4.193,1.993c0.909-0.725,1.733-1.549,2.458-2.458l-1.993-4.193c0.347-0.647,0.633-1.334,0.851-2.049L31.229,17.736zM16,20.871c-2.69,0-4.872-2.182-4.872-4.871c0-2.69,2.182-4.872,4.872-4.872c2.689,0,4.871,2.182,4.871,4.872C20.871,18.689,18.689,20.871,16,20.871z"></path><title>Link options.</title></g></g></g></g><!--z-index:50--><g   id="j_2223" ><path  stroke="#505050" d="M 2708 1790 L 2701 1371 C 2701 1364.3333333333333 2698.333333333333 1359.3333333333333 2693 1356 L 2449 1196 C 2443.6666666666665 1192.6666666666665 2437.6666666666665 1191 2431 1191 L 1995 1194" id="v-36088" stroke-width="2" fill="none"></path><path  fill="black" stroke="black" d="M 0 0 0 0" transform="matrix(-0.015545843169093132,-0.9998791813850403,0.9998791813850403,-0.015545843169093132,2707.669921875,1790)"></path><path  fill="#505050" stroke="#505050" d="M 20 0 L 0 10 L 20 20 z" id="v-36090" transform="matrix(0.9999822378158569,-0.005963847506791353,0.005963847506791353,0.9999822378158569,1994.9404296875,1183.66015625)"></path><path  d="M 2708 1790 L 2701 1371 C 2701 1364.3333333333333 2698.333333333333 1359.3333333333333 2693 1356 L 2449 1196 C 2443.6666666666665 1192.6666666666665 2437.6666666666665 1191 2431 1191 L 1995 1194" id="v-36089" fill="none" style="cursor: default;"></path><g ><g id="v-36079"  label-idx="0" cursor="move" transform="matrix(1,0,0,1,2563.451904296875,1271.0504150390625)" style="cursor: default;"><rect joint-selector="rect" id="v-36083" fill="#ffffff" rx="3" ry="3" pointer-events="none" width="184.3333282470703" height="62.79999923706055" transform="matrix(1,0,0,1,-92.19999694824219,-31.399999618530273)"></rect><text joint-selector="text" id="v-36082" font-size="24px" xml:space="preserve" y="0.8em" fill="#505050" text-anchor="middle" pointer-events="none" font-family="Open Sans" font-weight="normal" transform="matrix(1,0,0,1,0,-24.600000381469727)"><tspan  dy="0">2: Stores</tspan><tspan dy="1.2em" x="0" >encrypted email</tspan></text></g><g id="v-36080"  label-idx="1" cursor="move" transform="matrix(1,0,0,1,2563.451904296875,1311.8504638671875)" style="cursor: default;"><rect joint-selector="rect" id="v-36085" fill="#ffffff" rx="3" ry="3" pointer-events="none" width="34.16666793823242" height="24" transform="matrix(1,0,0,1,-17.100000381469727,-12)"></rect><text joint-selector="text" id="v-36084" font-size="17px" xml:space="preserve" y="0.8em" fill="#505050" text-anchor="middle" pointer-events="none" font-family="Open Sans" font-weight="normal" transform="matrix(1,0,0,1,0,-6.599999904632568)"><tspan  dy="0">[S3]</tspan></text></g><g id="v-36081"  label-idx="2" cursor="move" transform="matrix(1,0,0,1,2553.451904296875,1320.25048828125)" style="cursor: default;"><rect joint-selector="rect" id="v-36087" fill="#ffffff" rx="3" ry="3"  width="0" height="0" transform="matrix(1,0,0,1,0,0)" display="none"></rect><text joint-selector="text" id="v-36086" fill="#000000" font-size="14" text-anchor="middle" pointer-events="none"></text></g></g><g  display="none"><g  transform="translate(2701, 1361)" id="v-36075"><circle  idx="0" r="10"></circle><path  idx="0" d="M16,5.333c-7.732,0-14,4.701-14,10.5c0,1.982,0.741,3.833,2.016,5.414L2,25.667l5.613-1.441c2.339,1.317,5.237,2.107,8.387,2.107c7.732,0,14-4.701,14-10.5C30,10.034,23.732,5.333,16,5.333z" transform="translate(5, -33)"></path><path  idx="0" transform="scale(.8) translate(9.5, -37)" d="M24.778,21.419 19.276,15.917 24.777,10.415 21.949,7.585 16.447,13.087 10.945,7.585 8.117,10.415 13.618,15.917 8.116,21.419 10.946,24.248 16.447,18.746 21.948,24.248z"><title>Remove vertex.</title></path></g><g  transform="translate(2441, 1191)" id="v-36076"><circle  idx="1" r="10"></circle><path  idx="1" d="M16,5.333c-7.732,0-14,4.701-14,10.5c0,1.982,0.741,3.833,2.016,5.414L2,25.667l5.613-1.441c2.339,1.317,5.237,2.107,8.387,2.107c7.732,0,14-4.701,14-10.5C30,10.034,23.732,5.333,16,5.333z" transform="translate(5, -33)"></path><path  idx="1" transform="scale(.8) translate(9.5, -37)" d="M24.778,21.419 19.276,15.917 24.777,10.415 21.949,7.585 16.447,13.087 10.945,7.585 8.117,10.415 13.618,15.917 8.116,21.419 10.946,24.248 16.447,18.746 21.948,24.248z"><title>Remove vertex.</title></path></g></g><g  id="v-36092" display="none"><g  id="v-36077"><path  end="source" d="M 26 0 L 0 13 L 26 26 z"></path></g><g  id="v-36078"><path  end="target" d="M 26 0 L 0 13 L 26 26 z"></path></g></g><g  id="v-36091" display="none"><g  id="v-36074" transform="translate(2707.3318354810503, 1750.0055809371404) "><g  event="remove"><circle r="11"></circle><path transform="scale(.8) translate(-16, -16)" d="M24.778,21.419 19.276,15.917 24.777,10.415 21.949,7.585 16.447,13.087 10.945,7.585 8.117,10.415 13.618,15.917 8.116,21.419 10.946,24.248 16.447,18.746 21.948,24.248z"></path><title>Remove link.</title></g><g  event="link:options"><circle r="11" transform="translate(25)"></circle><path fill="white" transform="scale(.55) translate(29, -16)" d="M31.229,17.736c0.064-0.571,0.104-1.148,0.104-1.736s-0.04-1.166-0.104-1.737l-4.377-1.557c-0.218-0.716-0.504-1.401-0.851-2.05l1.993-4.192c-0.725-0.91-1.549-1.734-2.458-2.459l-4.193,1.994c-0.647-0.347-1.334-0.632-2.049-0.849l-1.558-4.378C17.165,0.708,16.588,0.667,16,0.667s-1.166,0.041-1.737,0.105L12.707,5.15c-0.716,0.217-1.401,0.502-2.05,0.849L6.464,4.005C5.554,4.73,4.73,5.554,4.005,6.464l1.994,4.192c-0.347,0.648-0.632,1.334-0.849,2.05l-4.378,1.557C0.708,14.834,0.667,15.412,0.667,16s0.041,1.165,0.105,1.736l4.378,1.558c0.217,0.715,0.502,1.401,0.849,2.049l-1.994,4.193c0.725,0.909,1.549,1.733,2.459,2.458l4.192-1.993c0.648,0.347,1.334,0.633,2.05,0.851l1.557,4.377c0.571,0.064,1.148,0.104,1.737,0.104c0.588,0,1.165-0.04,1.736-0.104l1.558-4.377c0.715-0.218,1.399-0.504,2.049-0.851l4.193,1.993c0.909-0.725,1.733-1.549,2.458-2.458l-1.993-4.193c0.347-0.647,0.633-1.334,0.851-2.049L31.229,17.736zM16,20.871c-2.69,0-4.872-2.182-4.872-4.871c0-2.69,2.182-4.872,4.872-4.872c2.689,0,4.871,2.182,4.871,4.872C20.871,18.689,18.689,20.871,16,20.871z"></path><title>Link options.</title></g></g></g></g><!--z-index:51--><g   id="j_2224" ><path  stroke="#505050" d="M 2485 1940 L 2000 1940" id="v-36108" stroke-width="2" fill="none"></path><path  fill="black" stroke="black" d="M 0 0 0 0" transform="matrix(-1,1.2246468525851679e-16,-1.2246468525851679e-16,-1,2485,1940)"></path><path  fill="#505050" stroke="#505050" d="M 20 0 L 0 10 L 20 20 z" id="v-36110" transform="matrix(1,0,0,1,2000,1930)"></path><path  d="M 2485 1940 L 2000 1940" id="v-36109" fill="none" style="cursor: default;"></path><g ><g id="v-36099"  label-idx="0" cursor="move" transform="matrix(1,0,0,1,2363.75,1940)" style="cursor: default;"><rect joint-selector="rect" id="v-36103" fill="#ffffff" rx="3" ry="3" pointer-events="none" width="193.6999969482422" height="62.79999923706055" transform="matrix(1,0,0,1,-96.80000305175781,-31.399999618530273)"></rect><text joint-selector="text" id="v-36102" font-size="24px" xml:space="preserve" y="0.8em" fill="#505050" text-anchor="middle" pointer-events="none" font-family="Open Sans" font-weight="normal" transform="matrix(1,0,0,1,0,-24.600000381469727)"><tspan  dy="0">2: Encrypts email</tspan><tspan dy="1.2em" x="0" >with key</tspan></text></g><g id="v-36100"  label-idx="1" cursor="move" transform="matrix(1,0,0,1,2363.75,1980.800048828125)" style="cursor: default;"><rect joint-selector="rect" id="v-36105" fill="#ffffff" rx="3" ry="3" pointer-events="none" width="50.150001525878906" height="24" transform="matrix(1,0,0,1,-25.100000381469727,-12)"></rect><text joint-selector="text" id="v-36104" font-size="17px" xml:space="preserve" y="0.8em" fill="#505050" text-anchor="middle" pointer-events="none" font-family="Open Sans" font-weight="normal" transform="matrix(1,0,0,1,0,-6.599999904632568)"><tspan  dy="0">[KMS]</tspan></text></g><g id="v-36101"  label-idx="2" cursor="move" transform="matrix(1,0,0,1,2353.75,1989.199951171875)" style="cursor: default;"><rect joint-selector="rect" id="v-36107" fill="#ffffff" rx="3" ry="3"  width="0" height="0" transform="matrix(1,0,0,1,0,0)" display="none"></rect><text joint-selector="text" id="v-36106" fill="#000000" font-size="14" text-anchor="middle" pointer-events="none"></text></g></g><g  display="none"></g><g  id="v-36112" display="none"><g  id="v-36097"><path  end="source" d="M 26 0 L 0 13 L 26 26 z"></path></g><g  id="v-36098"><path  end="target" d="M 26 0 L 0 13 L 26 26 z"></path></g></g><g  id="v-36111" display="none"><g  id="v-36096" transform="translate(2444.9999999999995, 1940) "><g  event="remove"><circle r="11"></circle><path transform="scale(.8) translate(-16, -16)" d="M24.778,21.419 19.276,15.917 24.777,10.415 21.949,7.585 16.447,13.087 10.945,7.585 8.117,10.415 13.618,15.917 8.116,21.419 10.946,24.248 16.447,18.746 21.948,24.248z"></path><title>Remove link.</title></g><g  event="link:options"><circle r="11" transform="translate(25)"></circle><path fill="white" transform="scale(.55) translate(29, -16)" d="M31.229,17.736c0.064-0.571,0.104-1.148,0.104-1.736s-0.04-1.166-0.104-1.737l-4.377-1.557c-0.218-0.716-0.504-1.401-0.851-2.05l1.993-4.192c-0.725-0.91-1.549-1.734-2.458-2.459l-4.193,1.994c-0.647-0.347-1.334-0.632-2.049-0.849l-1.558-4.378C17.165,0.708,16.588,0.667,16,0.667s-1.166,0.041-1.737,0.105L12.707,5.15c-0.716,0.217-1.401,0.502-2.05,0.849L6.464,4.005C5.554,4.73,4.73,5.554,4.005,6.464l1.994,4.192c-0.347,0.648-0.632,1.334-0.849,2.05l-4.378,1.557C0.708,14.834,0.667,15.412,0.667,16s0.041,1.165,0.105,1.736l4.378,1.558c0.217,0.715,0.502,1.401,0.849,2.049l-1.994,4.193c0.725,0.909,1.549,1.733,2.459,2.458l4.192-1.993c0.648,0.347,1.334,0.633,2.05,0.851l1.557,4.377c0.571,0.064,1.148,0.104,1.737,0.104c0.588,0,1.165-0.04,1.736-0.104l1.558-4.377c0.715-0.218,1.399-0.504,2.049-0.851l4.193,1.993c0.909-0.725,1.733-1.549,2.458-2.458l-1.993-4.193c0.347-0.647,0.633-1.334,0.851-2.049L31.229,17.736zM16,20.871c-2.69,0-4.872-2.182-4.872-4.871c0-2.69,2.182-4.872,4.872-4.872c2.689,0,4.871,2.182,4.871,4.872C20.871,18.689,18.689,20.871,16,20.871z"></path><title>Link options.</title></g></g></g></g><!--z-index:52--><g   id="j_2225" ><path  stroke="#505050" d="M 2530 1790 L 2375 1660" id="v-36128" stroke-width="2" fill="none"></path><path  fill="black" stroke="black" d="M 0 0 0 0" transform="matrix(-0.7676148414611816,-0.6409114599227905,0.6409114599227905,-0.7676148414611816,2530.35009765625,1790)"></path><path  fill="#505050" stroke="#505050" d="M 20 0 L 0 10 L 20 20 z" id="v-36130" transform="matrix(0.7676147818565369,0.6409115195274353,-0.6409115195274353,0.7676147818565369,2381.05908203125,1652.3238525390625)"></path><path  d="M 2530 1790 L 2375 1660" id="v-36129" fill="none" style="cursor: default;"></path><g ><g id="v-36119"  label-idx="0" cursor="move" transform="matrix(1,0,0,1,2452.5,1725)" style="cursor: default;"><rect joint-selector="rect" id="v-36123" fill="#ffffff" rx="3" ry="3" pointer-events="none" width="197.89999389648438" height="62.79999923706055" transform="matrix(1,0,0,1,-98.9000015258789,-31.399999618530273)"></rect><text joint-selector="text" id="v-36122" font-size="24px" xml:space="preserve" y="0.8em" fill="#505050" text-anchor="middle" pointer-events="none" font-family="Open Sans" font-weight="normal" transform="matrix(1,0,0,1,0,-24.600000381469727)"><tspan  dy="0">3: Publishes</tspan><tspan dy="1.2em" x="0" >email notification</tspan></text></g><g id="v-36120"  label-idx="1" cursor="move" transform="matrix(1,0,0,1,2452.5,1765.800048828125)" style="cursor: default;"><rect joint-selector="rect" id="v-36125" fill="#ffffff" rx="3" ry="3" pointer-events="none" width="46.56666564941406" height="24" transform="matrix(1,0,0,1,-23.299999237060547,-12)"></rect><text joint-selector="text" id="v-36124" font-size="17px" xml:space="preserve" y="0.8em" fill="#505050" text-anchor="middle" pointer-events="none" font-family="Open Sans" font-weight="normal" transform="matrix(1,0,0,1,0,-6.599999904632568)"><tspan  dy="0">[SNS]</tspan></text></g><g id="v-36121"  label-idx="2" cursor="move" transform="matrix(1,0,0,1,2442.5,1774.199951171875)" style="cursor: default;"><rect joint-selector="rect" id="v-36127" fill="#ffffff" rx="3" ry="3"  width="0" height="0" transform="matrix(1,0,0,1,0,0)" display="none"></rect><text joint-selector="text" id="v-36126" fill="#000000" font-size="14" text-anchor="middle" pointer-events="none"></text></g></g><g  display="none"></g><g  id="v-36132" display="none"><g  id="v-36117"><path  end="source" d="M 26 0 L 0 13 L 26 26 z"></path></g><g  id="v-36118"><path  end="target" d="M 26 0 L 0 13 L 26 26 z"></path></g></g><g  id="v-36131" display="none"><g  id="v-36116" transform="translate(2499.352338274968, 1764.295509520941) "><g  event="remove"><circle r="11"></circle><path transform="scale(.8) translate(-16, -16)" d="M24.778,21.419 19.276,15.917 24.777,10.415 21.949,7.585 16.447,13.087 10.945,7.585 8.117,10.415 13.618,15.917 8.116,21.419 10.946,24.248 16.447,18.746 21.948,24.248z"></path><title>Remove link.</title></g><g  event="link:options"><circle r="11" transform="translate(25)"></circle><path fill="white" transform="scale(.55) translate(29, -16)" d="M31.229,17.736c0.064-0.571,0.104-1.148,0.104-1.736s-0.04-1.166-0.104-1.737l-4.377-1.557c-0.218-0.716-0.504-1.401-0.851-2.05l1.993-4.192c-0.725-0.91-1.549-1.734-2.458-2.459l-4.193,1.994c-0.647-0.347-1.334-0.632-2.049-0.849l-1.558-4.378C17.165,0.708,16.588,0.667,16,0.667s-1.166,0.041-1.737,0.105L12.707,5.15c-0.716,0.217-1.401,0.502-2.05,0.849L6.464,4.005C5.554,4.73,4.73,5.554,4.005,6.464l1.994,4.192c-0.347,0.648-0.632,1.334-0.849,2.05l-4.378,1.557C0.708,14.834,0.667,15.412,0.667,16s0.041,1.165,0.105,1.736l4.378,1.558c0.217,0.715,0.502,1.401,0.849,2.049l-1.994,4.193c0.725,0.909,1.549,1.733,2.459,2.458l4.192-1.993c0.648,0.347,1.334,0.633,2.05,0.851l1.557,4.377c0.571,0.064,1.148,0.104,1.737,0.104c0.588,0,1.165-0.04,1.736-0.104l1.558-4.377c0.715-0.218,1.399-0.504,2.049-0.851l4.193,1.993c0.909-0.725,1.733-1.549,2.458-2.458l-1.993-4.193c0.347-0.647,0.633-1.334,0.851-2.049L31.229,17.736zM16,20.871c-2.69,0-4.872-2.182-4.872-4.871c0-2.69,2.182-4.872,4.872-4.872c2.689,0,4.871,2.182,4.871,4.872C20.871,18.689,18.689,20.871,16,20.871z"></path><title>Link options.</title></g></g></g></g><!--z-index:53--><g   id="j_2226" ><path  stroke="#505050" d="M 2048 1660 L 1922 1790" id="v-36148" stroke-width="2" fill="none"></path><path  fill="black" stroke="black" d="M 0 0 0 0" transform="matrix(-0.6987485885620117,0.715367317199707,-0.715367317199707,-0.6987485885620117,2048.489990234375,1660)"></path><path  fill="#505050" stroke="#505050" d="M 20 0 L 0 10 L 20 20 z" id="v-36150" transform="matrix(0.6987485885620117,-0.715367317199707,0.715367317199707,0.6987485885620117,1914.3563232421875,1783.012451171875)"></path><path  d="M 2048 1660 L 1922 1790" id="v-36149" fill="none" style="cursor: default;"></path><g ><g id="v-36139"  label-idx="0" cursor="move" transform="matrix(1,0,0,1,1985,1725)" style="cursor: default;"><rect joint-selector="rect" id="v-36143" fill="#ffffff" rx="3" ry="3" pointer-events="none" width="130.5" height="62.79999923706055" transform="matrix(1,0,0,1,-65.19999694824219,-31.399999618530273)"></rect><text joint-selector="text" id="v-36142" font-size="24px" xml:space="preserve" y="0.8em" fill="#505050" text-anchor="middle" pointer-events="none" font-family="Open Sans" font-weight="normal" transform="matrix(1,0,0,1,0,-24.600000381469727)"><tspan  dy="0">4: Decrypts</tspan><tspan dy="1.2em" x="0" >notification</tspan></text></g><g id="v-36140"  label-idx="1" cursor="move" transform="matrix(1,0,0,1,1985,1765.800048828125)" style="cursor: default;"><rect joint-selector="rect" id="v-36145" fill="#ffffff" rx="3" ry="3" pointer-events="none" width="50.150001525878906" height="24" transform="matrix(1,0,0,1,-25.100000381469727,-12)"></rect><text joint-selector="text" id="v-36144" font-size="17px" xml:space="preserve" y="0.8em" fill="#505050" text-anchor="middle" pointer-events="none" font-family="Open Sans" font-weight="normal" transform="matrix(1,0,0,1,0,-6.599999904632568)"><tspan  dy="0">[KMS]</tspan></text></g><g id="v-36141"  label-idx="2" cursor="move" transform="matrix(1,0,0,1,1975,1774.199951171875)" style="cursor: default;"><rect joint-selector="rect" id="v-36147" fill="#ffffff" rx="3" ry="3"  width="0" height="0" transform="matrix(1,0,0,1,0,0)" display="none"></rect><text joint-selector="text" id="v-36146" fill="#000000" font-size="14" text-anchor="middle" pointer-events="none"></text></g></g><g  display="none"></g><g  id="v-36152" display="none"><g  id="v-36137"><path  end="source" d="M 26 0 L 0 13 L 26 26 z"></path></g><g  id="v-36138"><path  end="target" d="M 26 0 L 0 13 L 26 26 z"></path></g></g><g  id="v-36151" display="none"><g  id="v-36136" transform="translate(2020.1610685904457, 1688.722707009858) "><g  event="remove"><circle r="11"></circle><path transform="scale(.8) translate(-16, -16)" d="M24.778,21.419 19.276,15.917 24.777,10.415 21.949,7.585 16.447,13.087 10.945,7.585 8.117,10.415 13.618,15.917 8.116,21.419 10.946,24.248 16.447,18.746 21.948,24.248z"></path><title>Remove link.</title></g><g  event="link:options"><circle r="11" transform="translate(25)"></circle><path fill="white" transform="scale(.55) translate(29, -16)" d="M31.229,17.736c0.064-0.571,0.104-1.148,0.104-1.736s-0.04-1.166-0.104-1.737l-4.377-1.557c-0.218-0.716-0.504-1.401-0.851-2.05l1.993-4.192c-0.725-0.91-1.549-1.734-2.458-2.459l-4.193,1.994c-0.647-0.347-1.334-0.632-2.049-0.849l-1.558-4.378C17.165,0.708,16.588,0.667,16,0.667s-1.166,0.041-1.737,0.105L12.707,5.15c-0.716,0.217-1.401,0.502-2.05,0.849L6.464,4.005C5.554,4.73,4.73,5.554,4.005,6.464l1.994,4.192c-0.347,0.648-0.632,1.334-0.849,2.05l-4.378,1.557C0.708,14.834,0.667,15.412,0.667,16s0.041,1.165,0.105,1.736l4.378,1.558c0.217,0.715,0.502,1.401,0.849,2.049l-1.994,4.193c0.725,0.909,1.549,1.733,2.459,2.458l4.192-1.993c0.648,0.347,1.334,0.633,2.05,0.851l1.557,4.377c0.571,0.064,1.148,0.104,1.737,0.104c0.588,0,1.165-0.04,1.736-0.104l1.558-4.377c0.715-0.218,1.399-0.504,2.049-0.851l4.193,1.993c0.909-0.725,1.733-1.549,2.458-2.458l-1.993-4.193c0.347-0.647,0.633-1.334,0.851-2.049L31.229,17.736zM16,20.871c-2.69,0-4.872-2.182-4.872-4.871c0-2.69,2.182-4.872,4.872-4.872c2.689,0,4.871,2.182,4.871,4.872C20.871,18.689,18.689,20.871,16,20.871z"></path><title>Link options.</title></g></g></g></g><!--z-index:54--><g   id="j_2227" ><path  stroke="#505050" d="M 2195 1660 L 2196 2301 C 2196 2307.6666666666665 2192.6666666666665 2312 2186 2314 L 1996 2363" id="v-36169" stroke-width="2" fill="none"></path><path  fill="black" stroke="black" d="M 0 0 0 0" transform="matrix(0.0012442285660654306,0.9999992251396179,-0.9999992251396179,0.0012442285660654306,2195.18994140625,1660)"></path><path  fill="#505050" stroke="#505050" d="M 20 0 L 0 10 L 20 20 z" id="v-36171" transform="matrix(0.9681048393249512,-0.25054553151130676,0.25054553151130676,0.9681048393249512,1993.4945068359375,2353.0791015625)"></path><path  d="M 2195 1660 L 2196 2301 C 2196 2307.6666666666665 2192.6666666666665 2312 2186 2314 L 1996 2363" id="v-36170" fill="none" style="cursor: default;"></path><g ><g id="v-36160"  label-idx="0" cursor="move" transform="matrix(1,0,0,1,2195.6669921875,2087.509521484375)" style="cursor: default;"><rect joint-selector="rect" id="v-36164" fill="#ffffff" rx="3" ry="3" pointer-events="none" width="153.63333129882812" height="62.79999923706055" transform="matrix(1,0,0,1,-76.80000305175781,-31.399999618530273)"></rect><text joint-selector="text" id="v-36163" font-size="24px" xml:space="preserve" y="0.8em" fill="#505050" text-anchor="middle" pointer-events="none" font-family="Open Sans" font-weight="normal" transform="matrix(1,0,0,1,0,-24.600000381469727)"><tspan  dy="0">4: Adds email</tspan><tspan dy="1.2em" x="0" >notification</tspan></text></g><g id="v-36161"  label-idx="1" cursor="move" transform="matrix(1,0,0,1,2195.6669921875,2128.3095703125)" style="cursor: default;"><rect joint-selector="rect" id="v-36166" fill="#ffffff" rx="3" ry="3" pointer-events="none" width="46.983333587646484" height="24" transform="matrix(1,0,0,1,-23.5,-12)"></rect><text joint-selector="text" id="v-36165" font-size="17px" xml:space="preserve" y="0.8em" fill="#505050" text-anchor="middle" pointer-events="none" font-family="Open Sans" font-weight="normal" transform="matrix(1,0,0,1,0,-6.599999904632568)"><tspan  dy="0">[SQS]</tspan></text></g><g id="v-36162"  label-idx="2" cursor="move" transform="matrix(1,0,0,1,2185.6669921875,2136.70947265625)" style="cursor: default;"><rect joint-selector="rect" id="v-36168" fill="#ffffff" rx="3" ry="3"  width="0" height="0" transform="matrix(1,0,0,1,0,0)" display="none"></rect><text joint-selector="text" id="v-36167" fill="#000000" font-size="14" text-anchor="middle" pointer-events="none"></text></g></g><g  display="none"><g  transform="translate(2196, 2311)" id="v-36157"><circle  idx="0" r="10"></circle><path  idx="0" d="M16,5.333c-7.732,0-14,4.701-14,10.5c0,1.982,0.741,3.833,2.016,5.414L2,25.667l5.613-1.441c2.339,1.317,5.237,2.107,8.387,2.107c7.732,0,14-4.701,14-10.5C30,10.034,23.732,5.333,16,5.333z" transform="translate(5, -33)"></path><path  idx="0" transform="scale(.8) translate(9.5, -37)" d="M24.778,21.419 19.276,15.917 24.777,10.415 21.949,7.585 16.447,13.087 10.945,7.585 8.117,10.415 13.618,15.917 8.116,21.419 10.946,24.248 16.447,18.746 21.948,24.248z"><title>Remove vertex.</title></path></g></g><g  id="v-36173" display="none"><g  id="v-36158"><path  end="source" d="M 26 0 L 0 13 L 26 26 z"></path></g><g  id="v-36159"><path  end="target" d="M 26 0 L 0 13 L 26 26 z"></path></g></g><g  id="v-36172" display="none"><g  id="v-36156" transform="translate(2195.0624024201625, 1699.9999513241949) "><g  event="remove"><circle r="11"></circle><path transform="scale(.8) translate(-16, -16)" d="M24.778,21.419 19.276,15.917 24.777,10.415 21.949,7.585 16.447,13.087 10.945,7.585 8.117,10.415 13.618,15.917 8.116,21.419 10.946,24.248 16.447,18.746 21.948,24.248z"></path><title>Remove link.</title></g><g  event="link:options"><circle r="11" transform="translate(25)"></circle><path fill="white" transform="scale(.55) translate(29, -16)" d="M31.229,17.736c0.064-0.571,0.104-1.148,0.104-1.736s-0.04-1.166-0.104-1.737l-4.377-1.557c-0.218-0.716-0.504-1.401-0.851-2.05l1.993-4.192c-0.725-0.91-1.549-1.734-2.458-2.459l-4.193,1.994c-0.647-0.347-1.334-0.632-2.049-0.849l-1.558-4.378C17.165,0.708,16.588,0.667,16,0.667s-1.166,0.041-1.737,0.105L12.707,5.15c-0.716,0.217-1.401,0.502-2.05,0.849L6.464,4.005C5.554,4.73,4.73,5.554,4.005,6.464l1.994,4.192c-0.347,0.648-0.632,1.334-0.849,2.05l-4.378,1.557C0.708,14.834,0.667,15.412,0.667,16s0.041,1.165,0.105,1.736l4.378,1.558c0.217,0.715,0.502,1.401,0.849,2.049l-1.994,4.193c0.725,0.909,1.549,1.733,2.459,2.458l4.192-1.993c0.648,0.347,1.334,0.633,2.05,0.851l1.557,4.377c0.571,0.064,1.148,0.104,1.737,0.104c0.588,0,1.165-0.04,1.736-0.104l1.558-4.377c0.715-0.218,1.399-0.504,2.049-0.851l4.193,1.993c0.909-0.725,1.733-1.549,2.458-2.458l-1.993-4.193c0.347-0.647,0.633-1.334,0.851-2.049L31.229,17.736zM16,20.871c-2.69,0-4.872-2.182-4.872-4.871c0-2.69,2.182-4.872,4.872-4.872c2.689,0,4.871,2.182,4.871,4.872C20.871,18.689,18.689,20.871,16,20.871z"></path><title>Link options.</title></g></g></g></g><!--z-index:55--><g   id="j_2228" ><path  stroke="#505050" d="M 1772 2271 L 1774 2090" id="v-36189" stroke-width="2" fill="none"></path><path  fill="black" stroke="black" d="M 0 0 0 0" transform="matrix(0.008287129923701286,-0.9999656677246094,0.9999656677246094,0.008287129923701286,1772.25,2271)"></path><path  fill="#505050" stroke="#505050" d="M 20 0 L 0 10 L 20 20 z" id="v-36191" transform="matrix(-0.008286996744573116,0.9999656677246094,-0.9999656677246094,-0.008286996744573116,1783.7496337890625,2090.0830078125)"></path><path  d="M 1772 2271 L 1774 2090" id="v-36190" fill="none" style="cursor: default;"></path><g ><g id="v-36180"  label-idx="0" cursor="move" transform="matrix(1,0,0,1,1773,2180.5)" style="cursor: default;"><rect joint-selector="rect" id="v-36184" fill="#ffffff" rx="3" ry="3" pointer-events="none" width="130.5" height="62.79999923706055" transform="matrix(1,0,0,1,-65.19999694824219,-31.399999618530273)"></rect><text joint-selector="text" id="v-36183" font-size="24px" xml:space="preserve" y="0.8em" fill="#505050" text-anchor="middle" pointer-events="none" font-family="Open Sans" font-weight="normal" transform="matrix(1,0,0,1,0,-24.600000381469727)"><tspan  dy="0">5: Decrypts</tspan><tspan dy="1.2em" x="0" >notification</tspan></text></g><g id="v-36181"  label-idx="1" cursor="move" transform="matrix(1,0,0,1,1773,2221.300048828125)" style="cursor: default;"><rect joint-selector="rect" id="v-36186" fill="#ffffff" rx="3" ry="3" pointer-events="none" width="50.150001525878906" height="24" transform="matrix(1,0,0,1,-25.100000381469727,-12)"></rect><text joint-selector="text" id="v-36185" font-size="17px" xml:space="preserve" y="0.8em" fill="#505050" text-anchor="middle" pointer-events="none" font-family="Open Sans" font-weight="normal" transform="matrix(1,0,0,1,0,-6.599999904632568)"><tspan  dy="0">[KMS]</tspan></text></g><g id="v-36182"  label-idx="2" cursor="move" transform="matrix(1,0,0,1,1763,2229.699951171875)" style="cursor: default;"><rect joint-selector="rect" id="v-36188" fill="#ffffff" rx="3" ry="3"  width="0" height="0" transform="matrix(1,0,0,1,0,0)" display="none"></rect><text joint-selector="text" id="v-36187" fill="#000000" font-size="14" text-anchor="middle" pointer-events="none"></text></g></g><g  display="none"></g><g  id="v-36193" display="none"><g  id="v-36178"><path  end="source" d="M 26 0 L 0 13 L 26 26 z"></path></g><g  id="v-36179"><path  end="target" d="M 26 0 L 0 13 L 26 26 z"></path></g></g><g  id="v-36192" display="none"><g  id="v-36177" transform="translate(1772.441961970118, 2231.002441704312) "><g  event="remove"><circle r="11"></circle><path transform="scale(.8) translate(-16, -16)" d="M24.778,21.419 19.276,15.917 24.777,10.415 21.949,7.585 16.447,13.087 10.945,7.585 8.117,10.415 13.618,15.917 8.116,21.419 10.946,24.248 16.447,18.746 21.948,24.248z"></path><title>Remove link.</title></g><g  event="link:options"><circle r="11" transform="translate(25)"></circle><path fill="white" transform="scale(.55) translate(29, -16)" d="M31.229,17.736c0.064-0.571,0.104-1.148,0.104-1.736s-0.04-1.166-0.104-1.737l-4.377-1.557c-0.218-0.716-0.504-1.401-0.851-2.05l1.993-4.192c-0.725-0.91-1.549-1.734-2.458-2.459l-4.193,1.994c-0.647-0.347-1.334-0.632-2.049-0.849l-1.558-4.378C17.165,0.708,16.588,0.667,16,0.667s-1.166,0.041-1.737,0.105L12.707,5.15c-0.716,0.217-1.401,0.502-2.05,0.849L6.464,4.005C5.554,4.73,4.73,5.554,4.005,6.464l1.994,4.192c-0.347,0.648-0.632,1.334-0.849,2.05l-4.378,1.557C0.708,14.834,0.667,15.412,0.667,16s0.041,1.165,0.105,1.736l4.378,1.558c0.217,0.715,0.502,1.401,0.849,2.049l-1.994,4.193c0.725,0.909,1.549,1.733,2.459,2.458l4.192-1.993c0.648,0.347,1.334,0.633,2.05,0.851l1.557,4.377c0.571,0.064,1.148,0.104,1.737,0.104c0.588,0,1.165-0.04,1.736-0.104l1.558-4.377c0.715-0.218,1.399-0.504,2.049-0.851l4.193,1.993c0.909-0.725,1.733-1.549,2.458-2.458l-1.993-4.193c0.347-0.647,0.633-1.334,0.851-2.049L31.229,17.736zM16,20.871c-2.69,0-4.872-2.182-4.872-4.871c0-2.69,2.182-4.872,4.872-4.872c2.689,0,4.871,2.182,4.871,4.872C20.871,18.689,18.689,20.871,16,20.871z"></path><title>Link options.</title></g></g></g></g><!--z-index:56--><g   id="j_2229" ><path  stroke="#505050" d="M 1201 1001 L 1369 1966 C 1370.3333333333333 1972.6666666666665 1373.3333333333333 1978.3333333333333 1378 1983 L 1636 2271" id="v-36210" stroke-width="2" fill="none"></path><path  fill="black" stroke="black" d="M 0 0 0 0" transform="matrix(0.17164014279842377,0.985159695148468,-0.985159695148468,0.17164014279842377,1201.1300048828125,1001)"></path><path  fill="#505050" stroke="#505050" d="M 20 0 L 0 10 L 20 20 z" id="v-36212" transform="matrix(-0.6685049533843994,-0.7437076568603516,0.7437076568603516,-0.6685049533843994,1628.73291015625,2277.68505859375)"></path><path  d="M 1201 1001 L 1369 1966 C 1370.3333333333333 1972.6666666666665 1373.3333333333333 1978.3333333333333 1378 1983 L 1636 2271" id="v-36211" fill="none" style="cursor: default;"></path><g ><g id="v-36201"  label-idx="0" cursor="move" transform="matrix(1,0,0,1,1319.8330078125,1683.582275390625)" style="cursor: default;"><rect joint-selector="rect" id="v-36205" fill="#ffffff" rx="3" ry="3" pointer-events="none" width="183.10000610351562" height="91.60000228881836" transform="matrix(1,0,0,1,-91.5999984741211,-45.79999923706055)"></rect><text joint-selector="text" id="v-36204" font-size="24px" xml:space="preserve" y="0.8em" fill="#505050" text-anchor="middle" pointer-events="none" font-family="Open Sans" font-weight="normal" transform="matrix(1,0,0,1,0,-39)"><tspan  dy="0">5: Pulls and</tspan><tspan dy="1.2em" x="0" >processes email</tspan><tspan dy="1.2em" x="0" >notification</tspan></text></g><g id="v-36202"  label-idx="1" cursor="move" transform="matrix(1,0,0,1,1319.8330078125,1738.7823486328125)" style="cursor: default;"><rect joint-selector="rect" id="v-36207" fill="#ffffff" rx="3" ry="3" pointer-events="none" width="77.13333129882812" height="24" transform="matrix(1,0,0,1,-38.599998474121094,-12)"></rect><text joint-selector="text" id="v-36206" font-size="17px" xml:space="preserve" y="0.8em" fill="#505050" text-anchor="middle" pointer-events="none" font-family="Open Sans" font-weight="normal" transform="matrix(1,0,0,1,0,-6.599999904632568)"><tspan  dy="0">[SQS API]</tspan></text></g><g id="v-36203"  label-idx="2" cursor="move" transform="matrix(1,0,0,1,1309.8330078125,1747.1822509765625)" style="cursor: default;"><rect joint-selector="rect" id="v-36209" fill="#ffffff" rx="3" ry="3"  width="0" height="0" transform="matrix(1,0,0,1,0,0)" display="none"></rect><text joint-selector="text" id="v-36208" fill="#000000" font-size="14" text-anchor="middle" pointer-events="none"></text></g></g><g  display="none"><g  transform="translate(1371, 1976)" id="v-36198"><circle  idx="0" r="10"></circle><path  idx="0" d="M16,5.333c-7.732,0-14,4.701-14,10.5c0,1.982,0.741,3.833,2.016,5.414L2,25.667l5.613-1.441c2.339,1.317,5.237,2.107,8.387,2.107c7.732,0,14-4.701,14-10.5C30,10.034,23.732,5.333,16,5.333z" transform="translate(5, -33)"></path><path  idx="0" transform="scale(.8) translate(9.5, -37)" d="M24.778,21.419 19.276,15.917 24.777,10.415 21.949,7.585 16.447,13.087 10.945,7.585 8.117,10.415 13.618,15.917 8.116,21.419 10.946,24.248 16.447,18.746 21.948,24.248z"><title>Remove vertex.</title></path></g></g><g  id="v-36214" display="none"><g  id="v-36199"><path  end="source" d="M 26 0 L 0 13 L 26 26 z"></path></g><g  id="v-36200"><path  end="target" d="M 26 0 L 0 13 L 26 26 z"></path></g></g><g  id="v-36213" display="none"><g  id="v-36197" transform="translate(1207.8605403945462, 1040.4072707186733) "><g  event="remove"><circle r="11"></circle><path transform="scale(.8) translate(-16, -16)" d="M24.778,21.419 19.276,15.917 24.777,10.415 21.949,7.585 16.447,13.087 10.945,7.585 8.117,10.415 13.618,15.917 8.116,21.419 10.946,24.248 16.447,18.746 21.948,24.248z"></path><title>Remove link.</title></g><g  event="link:options"><circle r="11" transform="translate(25)"></circle><path fill="white" transform="scale(.55) translate(29, -16)" d="M31.229,17.736c0.064-0.571,0.104-1.148,0.104-1.736s-0.04-1.166-0.104-1.737l-4.377-1.557c-0.218-0.716-0.504-1.401-0.851-2.05l1.993-4.192c-0.725-0.91-1.549-1.734-2.458-2.459l-4.193,1.994c-0.647-0.347-1.334-0.632-2.049-0.849l-1.558-4.378C17.165,0.708,16.588,0.667,16,0.667s-1.166,0.041-1.737,0.105L12.707,5.15c-0.716,0.217-1.401,0.502-2.05,0.849L6.464,4.005C5.554,4.73,4.73,5.554,4.005,6.464l1.994,4.192c-0.347,0.648-0.632,1.334-0.849,2.05l-4.378,1.557C0.708,14.834,0.667,15.412,0.667,16s0.041,1.165,0.105,1.736l4.378,1.558c0.217,0.715,0.502,1.401,0.849,2.049l-1.994,4.193c0.725,0.909,1.549,1.733,2.459,2.458l4.192-1.993c0.648,0.347,1.334,0.633,2.05,0.851l1.557,4.377c0.571,0.064,1.148,0.104,1.737,0.104c0.588,0,1.165-0.04,1.736-0.104l1.558-4.377c0.715-0.218,1.399-0.504,2.049-0.851l4.193,1.993c0.909-0.725,1.733-1.549,2.458-2.458l-1.993-4.193c0.347-0.647,0.633-1.334,0.851-2.049L31.229,17.736zM16,20.871c-2.69,0-4.872-2.182-4.872-4.871c0-2.69,2.182-4.872,4.872-4.872c2.689,0,4.871,2.182,4.871,4.872C20.871,18.689,18.689,20.871,16,20.871z"></path><title>Link options.</title></g></g></g></g><!--z-index:57--><g   id="j_2230" ><path  stroke="#505050" d="M 1771 1345 L 1774 1790" id="v-36230" stroke-width="2" fill="none"></path><path  fill="black" stroke="black" d="M 0 0 0 0" transform="matrix(0.006696468684822321,0.9999775886535645,-0.9999775886535645,0.006696468684822321,1771.010009765625,1345)"></path><path  fill="#505050" stroke="#505050" d="M 20 0 L 0 10 L 20 20 z" id="v-36232" transform="matrix(-0.006696735043078661,-0.9999775886535645,0.9999775886535645,-0.006696735043078661,1763.990234375,1790.0670166015625)"></path><path  d="M 1771 1345 L 1774 1790" id="v-36231" fill="none" style="cursor: default;"></path><g ><g id="v-36221"  label-idx="0" cursor="move" transform="matrix(1,0,0,1,1772.5,1567.5)" style="cursor: default;"><rect joint-selector="rect" id="v-36225" fill="#ffffff" rx="3" ry="3" pointer-events="none" width="196.5500030517578" height="62.79999923706055" transform="matrix(1,0,0,1,-98.30000305175781,-31.399999618530273)"></rect><text joint-selector="text" id="v-36224" font-size="24px" xml:space="preserve" y="0.8em" fill="#505050" text-anchor="middle" pointer-events="none" font-family="Open Sans" font-weight="normal" transform="matrix(1,0,0,1,0,-24.600000381469727)"><tspan  dy="0">6: Decrypts email</tspan><tspan dy="1.2em" x="0" >body</tspan></text></g><g id="v-36222"  label-idx="1" cursor="move" transform="matrix(1,0,0,1,1772.5,1608.300048828125)" style="cursor: default;"><rect joint-selector="rect" id="v-36227" fill="#ffffff" rx="3" ry="3" pointer-events="none" width="50.150001525878906" height="24" transform="matrix(1,0,0,1,-25.100000381469727,-12)"></rect><text joint-selector="text" id="v-36226" font-size="17px" xml:space="preserve" y="0.8em" fill="#505050" text-anchor="middle" pointer-events="none" font-family="Open Sans" font-weight="normal" transform="matrix(1,0,0,1,0,-6.599999904632568)"><tspan  dy="0">[KMS]</tspan></text></g><g id="v-36223"  label-idx="2" cursor="move" transform="matrix(1,0,0,1,1762.5,1616.699951171875)" style="cursor: default;"><rect joint-selector="rect" id="v-36229" fill="#ffffff" rx="3" ry="3"  width="0" height="0" transform="matrix(1,0,0,1,0,0)" display="none"></rect><text joint-selector="text" id="v-36228" fill="#000000" font-size="14" text-anchor="middle" pointer-events="none"></text></g></g><g  display="none"></g><g  id="v-36234" display="none"><g  id="v-36219"><path  end="source" d="M 26 0 L 0 13 L 26 26 z"></path></g><g  id="v-36220"><path  end="target" d="M 26 0 L 0 13 L 26 26 z"></path></g></g><g  id="v-36233" display="none"><g  id="v-36218" transform="translate(1771.2696567936284, 1384.9990910548433) "><g  event="remove"><circle r="11"></circle><path transform="scale(.8) translate(-16, -16)" d="M24.778,21.419 19.276,15.917 24.777,10.415 21.949,7.585 16.447,13.087 10.945,7.585 8.117,10.415 13.618,15.917 8.116,21.419 10.946,24.248 16.447,18.746 21.948,24.248z"></path><title>Remove link.</title></g><g  event="link:options"><circle r="11" transform="translate(25)"></circle><path fill="white" transform="scale(.55) translate(29, -16)" d="M31.229,17.736c0.064-0.571,0.104-1.148,0.104-1.736s-0.04-1.166-0.104-1.737l-4.377-1.557c-0.218-0.716-0.504-1.401-0.851-2.05l1.993-4.192c-0.725-0.91-1.549-1.734-2.458-2.459l-4.193,1.994c-0.647-0.347-1.334-0.632-2.049-0.849l-1.558-4.378C17.165,0.708,16.588,0.667,16,0.667s-1.166,0.041-1.737,0.105L12.707,5.15c-0.716,0.217-1.401,0.502-2.05,0.849L6.464,4.005C5.554,4.73,4.73,5.554,4.005,6.464l1.994,4.192c-0.347,0.648-0.632,1.334-0.849,2.05l-4.378,1.557C0.708,14.834,0.667,15.412,0.667,16s0.041,1.165,0.105,1.736l4.378,1.558c0.217,0.715,0.502,1.401,0.849,2.049l-1.994,4.193c0.725,0.909,1.549,1.733,2.459,2.458l4.192-1.993c0.648,0.347,1.334,0.633,2.05,0.851l1.557,4.377c0.571,0.064,1.148,0.104,1.737,0.104c0.588,0,1.165-0.04,1.736-0.104l1.558-4.377c0.715-0.218,1.399-0.504,2.049-0.851l4.193,1.993c0.909-0.725,1.733-1.549,2.458-2.458l-1.993-4.193c0.347-0.647,0.633-1.334,0.851-2.049L31.229,17.736zM16,20.871c-2.69,0-4.872-2.182-4.872-4.871c0-2.69,2.182-4.872,4.872-4.872c2.689,0,4.871,2.182,4.871,4.872C20.871,18.689,18.689,20.871,16,20.871z"></path><title>Link options.</title></g></g></g></g><!--z-index:58--><g   id="j_2231" ><path  stroke="#505050" d="M 1286 1001 L 1391 1144 C 1395 1149.3333333333333 1400.3333333333333 1152.3333333333333 1407 1153 L 1545 1169" id="v-36251" stroke-width="2" fill="none"></path><path  fill="black" stroke="black" d="M 0 0 0 0" transform="matrix(0.5935680270195007,0.804783821105957,-0.804783821105957,0.5935680270195007,1285.6300048828125,1001)"></path><path  fill="#505050" stroke="#505050" d="M 20 0 L 0 10 L 20 20 z" id="v-36253" transform="matrix(-0.9934218525886536,-0.1145121157169342,0.1145121157169342,-0.9934218525886536,1543.8548583984375,1178.9942626953125)"></path><path  d="M 1286 1001 L 1391 1144 C 1395 1149.3333333333333 1400.3333333333333 1152.3333333333333 1407 1153 L 1545 1169" id="v-36252" fill="none" style="cursor: default;"></path><g ><g id="v-36242"  label-idx="0" cursor="move" transform="matrix(1,0,0,1,1385.213134765625,1136.1187744140625)" style="cursor: default;"><rect joint-selector="rect" id="v-36246" fill="#ffffff" rx="3" ry="3" pointer-events="none" width="200.25" height="62.79999923706055" transform="matrix(1,0,0,1,-100.0999984741211,-31.399999618530273)"></rect><text joint-selector="text" id="v-36245" font-size="24px" xml:space="preserve" y="0.8em" fill="#505050" text-anchor="middle" pointer-events="none" font-family="Open Sans" font-weight="normal" transform="matrix(1,0,0,1,0,-24.600000381469727)"><tspan  dy="0">6: Requests email</tspan><tspan dy="1.2em" x="0" >body</tspan></text></g><g id="v-36243"  label-idx="1" cursor="move" transform="matrix(1,0,0,1,1385.213134765625,1176.9188232421875)" style="cursor: default;"><rect joint-selector="rect" id="v-36248" fill="#ffffff" rx="3" ry="3" pointer-events="none" width="64.31666564941406" height="24" transform="matrix(1,0,0,1,-32.20000076293945,-12)"></rect><text joint-selector="text" id="v-36247" font-size="17px" xml:space="preserve" y="0.8em" fill="#505050" text-anchor="middle" pointer-events="none" font-family="Open Sans" font-weight="normal" transform="matrix(1,0,0,1,0,-6.599999904632568)"><tspan  dy="0">[S3 API]</tspan></text></g><g id="v-36244"  label-idx="2" cursor="move" transform="matrix(1,0,0,1,1375.213134765625,1185.31884765625)" style="cursor: default;"><rect joint-selector="rect" id="v-36250" fill="#ffffff" rx="3" ry="3"  width="0" height="0" transform="matrix(1,0,0,1,0,0)" display="none"></rect><text joint-selector="text" id="v-36249" fill="#000000" font-size="14" text-anchor="middle" pointer-events="none"></text></g></g><g  display="none"><g  transform="translate(1397, 1152)" id="v-36239"><circle  idx="0" r="10"></circle><path  idx="0" d="M16,5.333c-7.732,0-14,4.701-14,10.5c0,1.982,0.741,3.833,2.016,5.414L2,25.667l5.613-1.441c2.339,1.317,5.237,2.107,8.387,2.107c7.732,0,14-4.701,14-10.5C30,10.034,23.732,5.333,16,5.333z" transform="translate(5, -33)"></path><path  idx="0" transform="scale(.8) translate(9.5, -37)" d="M24.778,21.419 19.276,15.917 24.777,10.415 21.949,7.585 16.447,13.087 10.945,7.585 8.117,10.415 13.618,15.917 8.116,21.419 10.946,24.248 16.447,18.746 21.948,24.248z"><title>Remove vertex.</title></path></g></g><g  id="v-36255" display="none"><g  id="v-36240"><path  end="source" d="M 26 0 L 0 13 L 26 26 z"></path></g><g  id="v-36241"><path  end="target" d="M 26 0 L 0 13 L 26 26 z"></path></g></g><g  id="v-36254" display="none"><g  id="v-36238" transform="translate(1309.674091409263, 1033.2418578240438) "><g  event="remove"><circle r="11"></circle><path transform="scale(.8) translate(-16, -16)" d="M24.778,21.419 19.276,15.917 24.777,10.415 21.949,7.585 16.447,13.087 10.945,7.585 8.117,10.415 13.618,15.917 8.116,21.419 10.946,24.248 16.447,18.746 21.948,24.248z"></path><title>Remove link.</title></g><g  event="link:options"><circle r="11" transform="translate(25)"></circle><path fill="white" transform="scale(.55) translate(29, -16)" d="M31.229,17.736c0.064-0.571,0.104-1.148,0.104-1.736s-0.04-1.166-0.104-1.737l-4.377-1.557c-0.218-0.716-0.504-1.401-0.851-2.05l1.993-4.192c-0.725-0.91-1.549-1.734-2.458-2.459l-4.193,1.994c-0.647-0.347-1.334-0.632-2.049-0.849l-1.558-4.378C17.165,0.708,16.588,0.667,16,0.667s-1.166,0.041-1.737,0.105L12.707,5.15c-0.716,0.217-1.401,0.502-2.05,0.849L6.464,4.005C5.554,4.73,4.73,5.554,4.005,6.464l1.994,4.192c-0.347,0.648-0.632,1.334-0.849,2.05l-4.378,1.557C0.708,14.834,0.667,15.412,0.667,16s0.041,1.165,0.105,1.736l4.378,1.558c0.217,0.715,0.502,1.401,0.849,2.049l-1.994,4.193c0.725,0.909,1.549,1.733,2.459,2.458l4.192-1.993c0.648,0.347,1.334,0.633,2.05,0.851l1.557,4.377c0.571,0.064,1.148,0.104,1.737,0.104c0.588,0,1.165-0.04,1.736-0.104l1.558-4.377c0.715-0.218,1.399-0.504,2.049-0.851l4.193,1.993c0.909-0.725,1.733-1.549,2.458-2.458l-1.993-4.193c0.347-0.647,0.633-1.334,0.851-2.049L31.229,17.736zM16,20.871c-2.69,0-4.872-2.182-4.872-4.871c0-2.69,2.182-4.872,4.872-4.872c2.689,0,4.871,2.182,4.871,4.872C20.871,18.689,18.689,20.871,16,20.871z"></path><title>Link options.</title></g></g></g></g><!--z-index:59--><g   id="j_2232" ><path  stroke="#505050" d="M 950 857 L 670 864" id="v-36271" stroke-width="2" fill="none"></path><path  fill="black" stroke="black" d="M 0 0 0 0" transform="matrix(-0.9996621608734131,0.025991123169660568,-0.025991123169660568,-0.9996621608734131,950,856.8599853515625)"></path><path  fill="#505050" stroke="#505050" d="M 20 0 L 0 10 L 20 20 z" id="v-36273" transform="matrix(0.9996621608734131,-0.025991123169660568,0.025991123169660568,0.9996621608734131,669.7401123046875,854.1433715820312)"></path><path  d="M 950 857 L 670 864" id="v-36272" fill="none" style="cursor: default;"></path><g ><g id="v-36262"  label-idx="0" cursor="move" transform="matrix(1,0,0,1,810,860.5)" style="cursor: default;"><rect joint-selector="rect" id="v-36266" fill="#ffffff" rx="3" ry="3" pointer-events="none" width="181.06666564941406" height="91.60000228881836" transform="matrix(1,0,0,1,-90.5,-45.79999923706055)"></rect><text joint-selector="text" id="v-36265" font-size="24px" xml:space="preserve" y="0.8em" fill="#505050" text-anchor="middle" pointer-events="none" font-family="Open Sans" font-weight="normal" transform="matrix(1,0,0,1,0,-39)"><tspan  dy="0">7: Adds reply</tspan><tspan dy="1.2em" x="0" >record, updates</tspan><tspan dy="1.2em" x="0" >usage</tspan></text></g><g id="v-36263"  label-idx="1" cursor="move" transform="matrix(1,0,0,1,810,915.7000122070312)" style="cursor: default;"><rect joint-selector="rect" id="v-36268" fill="#ffffff" rx="3" ry="3" pointer-events="none" width="114.51667022705078" height="24" transform="matrix(1,0,0,1,-57.29999923706055,-12)"></rect><text joint-selector="text" id="v-36267" font-size="17px" xml:space="preserve" y="0.8em" fill="#505050" text-anchor="middle" pointer-events="none" font-family="Open Sans" font-weight="normal" transform="matrix(1,0,0,1,0,-6.599999904632568)"><tspan  dy="0">[Django ORM]</tspan></text></g><g id="v-36264"  label-idx="2" cursor="move" transform="matrix(1,0,0,1,800,924.0999755859375)" style="cursor: default;"><rect joint-selector="rect" id="v-36270" fill="#ffffff" rx="3" ry="3"  width="0" height="0" transform="matrix(1,0,0,1,0,0)" display="none"></rect><text joint-selector="text" id="v-36269" fill="#000000" font-size="14" text-anchor="middle" pointer-events="none"></text></g></g><g  display="none"></g><g  id="v-36275" display="none"><g  id="v-36260"><path  end="source" d="M 26 0 L 0 13 L 26 26 z"></path></g><g  id="v-36261"><path  end="target" d="M 26 0 L 0 13 L 26 26 z"></path></g></g><g  id="v-36274" display="none"><g  id="v-36259" transform="translate(910.0124941436751, 857.9996876464081) "><g  event="remove"><circle r="11"></circle><path transform="scale(.8) translate(-16, -16)" d="M24.778,21.419 19.276,15.917 24.777,10.415 21.949,7.585 16.447,13.087 10.945,7.585 8.117,10.415 13.618,15.917 8.116,21.419 10.946,24.248 16.447,18.746 21.948,24.248z"></path><title>Remove link.</title></g><g  event="link:options"><circle r="11" transform="translate(25)"></circle><path fill="white" transform="scale(.55) translate(29, -16)" d="M31.229,17.736c0.064-0.571,0.104-1.148,0.104-1.736s-0.04-1.166-0.104-1.737l-4.377-1.557c-0.218-0.716-0.504-1.401-0.851-2.05l1.993-4.192c-0.725-0.91-1.549-1.734-2.458-2.459l-4.193,1.994c-0.647-0.347-1.334-0.632-2.049-0.849l-1.558-4.378C17.165,0.708,16.588,0.667,16,0.667s-1.166,0.041-1.737,0.105L12.707,5.15c-0.716,0.217-1.401,0.502-2.05,0.849L6.464,4.005C5.554,4.73,4.73,5.554,4.005,6.464l1.994,4.192c-0.347,0.648-0.632,1.334-0.849,2.05l-4.378,1.557C0.708,14.834,0.667,15.412,0.667,16s0.041,1.165,0.105,1.736l4.378,1.558c0.217,0.715,0.502,1.401,0.849,2.049l-1.994,4.193c0.725,0.909,1.549,1.733,2.459,2.458l4.192-1.993c0.648,0.347,1.334,0.633,2.05,0.851l1.557,4.377c0.571,0.064,1.148,0.104,1.737,0.104c0.588,0,1.165-0.04,1.736-0.104l1.558-4.377c0.715-0.218,1.399-0.504,2.049-0.851l4.193,1.993c0.909-0.725,1.733-1.549,2.458-2.458l-1.993-4.193c0.347-0.647,0.633-1.334,0.851-2.049L31.229,17.736zM16,20.871c-2.69,0-4.872-2.182-4.872-4.871c0-2.69,2.182-4.872,4.872-4.872c2.689,0,4.871,2.182,4.871,4.872C20.871,18.689,18.689,20.871,16,20.871z"></path><title>Link options.</title></g></g></g></g><!--z-index:60--><g   id="j_2233" ><path  stroke="#505050" d="M 1400 851 L 2485 851" id="v-36291" stroke-width="2" fill="none"></path><path  fill="black" stroke="black" d="M 0 0 0 0" transform="matrix(1,0,0,1,1400,851)"></path><path  fill="#505050" stroke="#505050" d="M 20 0 L 0 10 L 20 20 z" id="v-36293" transform="matrix(-1,1.2246468525851679e-16,-1.2246468525851679e-16,-1,2485,861)"></path><path  d="M 1400 851 L 2485 851" id="v-36292" fill="none" style="cursor: default;"></path><g ><g id="v-36282"  label-idx="0" cursor="move" transform="matrix(1,0,0,1,1942.5,851)" style="cursor: default;"><rect joint-selector="rect" id="v-36286" fill="#ffffff" rx="3" ry="3" pointer-events="none" width="202.14999389648438" height="34" transform="matrix(1,0,0,1,-101.0999984741211,-17)"></rect><text joint-selector="text" id="v-36285" font-size="24px" xml:space="preserve" y="0.8em" fill="#505050" text-anchor="middle" pointer-events="none" font-family="Open Sans" font-weight="normal" transform="matrix(1,0,0,1,0,-10.199999809265137)"><tspan  dy="0">7: Forwards email</tspan></text></g><g id="v-36283"  label-idx="1" cursor="move" transform="matrix(1,0,0,1,1942.5,877.4000244140625)" style="cursor: default;"><rect joint-selector="rect" id="v-36288" fill="#ffffff" rx="3" ry="3" pointer-events="none" width="73.36666870117188" height="24" transform="matrix(1,0,0,1,-36.70000076293945,-12)"></rect><text joint-selector="text" id="v-36287" font-size="17px" xml:space="preserve" y="0.8em" fill="#505050" text-anchor="middle" pointer-events="none" font-family="Open Sans" font-weight="normal" transform="matrix(1,0,0,1,0,-6.599999904632568)"><tspan  dy="0">[SES API]</tspan></text></g><g id="v-36284"  label-idx="2" cursor="move" transform="matrix(1,0,0,1,1932.5,885.7999877929688)" style="cursor: default;"><rect joint-selector="rect" id="v-36290" fill="#ffffff" rx="3" ry="3"  width="0" height="0" transform="matrix(1,0,0,1,0,0)" display="none"></rect><text joint-selector="text" id="v-36289" fill="#000000" font-size="14" text-anchor="middle" pointer-events="none"></text></g></g><g  display="none"></g><g  id="v-36295" display="none"><g  id="v-36280"><path  end="source" d="M 26 0 L 0 13 L 26 26 z"></path></g><g  id="v-36281"><path  end="target" d="M 26 0 L 0 13 L 26 26 z"></path></g></g><g  id="v-36294" display="none"><g  id="v-36279" transform="translate(1440, 851.0000000000001) "><g  event="remove"><circle r="11"></circle><path transform="scale(.8) translate(-16, -16)" d="M24.778,21.419 19.276,15.917 24.777,10.415 21.949,7.585 16.447,13.087 10.945,7.585 8.117,10.415 13.618,15.917 8.116,21.419 10.946,24.248 16.447,18.746 21.948,24.248z"></path><title>Remove link.</title></g><g  event="link:options"><circle r="11" transform="translate(25)"></circle><path fill="white" transform="scale(.55) translate(29, -16)" d="M31.229,17.736c0.064-0.571,0.104-1.148,0.104-1.736s-0.04-1.166-0.104-1.737l-4.377-1.557c-0.218-0.716-0.504-1.401-0.851-2.05l1.993-4.192c-0.725-0.91-1.549-1.734-2.458-2.459l-4.193,1.994c-0.647-0.347-1.334-0.632-2.049-0.849l-1.558-4.378C17.165,0.708,16.588,0.667,16,0.667s-1.166,0.041-1.737,0.105L12.707,5.15c-0.716,0.217-1.401,0.502-2.05,0.849L6.464,4.005C5.554,4.73,4.73,5.554,4.005,6.464l1.994,4.192c-0.347,0.648-0.632,1.334-0.849,2.05l-4.378,1.557C0.708,14.834,0.667,15.412,0.667,16s0.041,1.165,0.105,1.736l4.378,1.558c0.217,0.715,0.502,1.401,0.849,2.049l-1.994,4.193c0.725,0.909,1.549,1.733,2.459,2.458l4.192-1.993c0.648,0.347,1.334,0.633,2.05,0.851l1.557,4.377c0.571,0.064,1.148,0.104,1.737,0.104c0.588,0,1.165-0.04,1.736-0.104l1.558-4.377c0.715-0.218,1.399-0.504,2.049-0.851l4.193,1.993c0.909-0.725,1.733-1.549,2.458-2.458l-1.993-4.193c0.347-0.647,0.633-1.334,0.851-2.049L31.229,17.736zM16,20.871c-2.69,0-4.872-2.182-4.872-4.871c0-2.69,2.182-4.872,4.872-4.872c2.689,0,4.871,2.182,4.871,4.872C20.871,18.689,18.689,20.871,16,20.871z"></path><title>Link options.</title></g></g></g></g><!--z-index:61--><g   id="j_2234" ><path  stroke="#505050" d="M 983 1001 L 637 1272" id="v-36311" stroke-width="2" fill="none"></path><path  fill="black" stroke="black" d="M 0 0 0 0" transform="matrix(-0.7876623868942261,0.6161071062088013,-0.6161071062088013,-0.7876623868942261,983.22998046875,1001)"></path><path  fill="#505050" stroke="#505050" d="M 20 0 L 0 10 L 20 20 z" id="v-36313" transform="matrix(0.7876623868942261,-0.6161071062088013,0.6161071062088013,0.7876623868942261,630.60888671875,1264.1234130859375)"></path><path  d="M 983 1001 L 637 1272" id="v-36312" fill="none" style="cursor: default;"></path><g ><g id="v-36302"  label-idx="0" cursor="move" transform="matrix(1,0,0,1,810,1136.5)" style="cursor: default;"><rect joint-selector="rect" id="v-36306" fill="#ffffff" rx="3" ry="3" pointer-events="none" width="202.9499969482422" height="62.79999923706055" transform="matrix(1,0,0,1,-101.5,-31.399999618530273)"></rect><text joint-selector="text" id="v-36305" font-size="24px" xml:space="preserve" y="0.8em" fill="#505050" text-anchor="middle" pointer-events="none" font-family="Open Sans" font-weight="normal" transform="matrix(1,0,0,1,0,-24.600000381469727)"><tspan  dy="0">7: Emits counters,</tspan><tspan dy="1.2em" x="0" >timers</tspan></text></g><g id="v-36303"  label-idx="1" cursor="move" transform="matrix(1,0,0,1,810,1177.300048828125)" style="cursor: default;"><rect joint-selector="rect" id="v-36308" fill="#ffffff" rx="3" ry="3" pointer-events="none" width="56.63333511352539" height="24" transform="matrix(1,0,0,1,-28.299999237060547,-12)"></rect><text joint-selector="text" id="v-36307" font-size="17px" xml:space="preserve" y="0.8em" fill="#505050" text-anchor="middle" pointer-events="none" font-family="Open Sans" font-weight="normal" transform="matrix(1,0,0,1,0,-6.599999904632568)"><tspan  dy="0">[HTTP]</tspan></text></g><g id="v-36304"  label-idx="2" cursor="move" transform="matrix(1,0,0,1,800,1185.699951171875)" style="cursor: default;"><rect joint-selector="rect" id="v-36310" fill="#ffffff" rx="3" ry="3"  width="0" height="0" transform="matrix(1,0,0,1,0,0)" display="none"></rect><text joint-selector="text" id="v-36309" fill="#000000" font-size="14" text-anchor="middle" pointer-events="none"></text></g></g><g  display="none"></g><g  id="v-36315" display="none"><g  id="v-36300"><path  end="source" d="M 26 0 L 0 13 L 26 26 z"></path></g><g  id="v-36301"><path  end="target" d="M 26 0 L 0 13 L 26 26 z"></path></g></g><g  id="v-36314" display="none"><g  id="v-36299" transform="translate(951.5094051574697, 1025.6645988506523) "><g  event="remove"><circle r="11"></circle><path transform="scale(.8) translate(-16, -16)" d="M24.778,21.419 19.276,15.917 24.777,10.415 21.949,7.585 16.447,13.087 10.945,7.585 8.117,10.415 13.618,15.917 8.116,21.419 10.946,24.248 16.447,18.746 21.948,24.248z"></path><title>Remove link.</title></g><g  event="link:options"><circle r="11" transform="translate(25)"></circle><path fill="white" transform="scale(.55) translate(29, -16)" d="M31.229,17.736c0.064-0.571,0.104-1.148,0.104-1.736s-0.04-1.166-0.104-1.737l-4.377-1.557c-0.218-0.716-0.504-1.401-0.851-2.05l1.993-4.192c-0.725-0.91-1.549-1.734-2.458-2.459l-4.193,1.994c-0.647-0.347-1.334-0.632-2.049-0.849l-1.558-4.378C17.165,0.708,16.588,0.667,16,0.667s-1.166,0.041-1.737,0.105L12.707,5.15c-0.716,0.217-1.401,0.502-2.05,0.849L6.464,4.005C5.554,4.73,4.73,5.554,4.005,6.464l1.994,4.192c-0.347,0.648-0.632,1.334-0.849,2.05l-4.378,1.557C0.708,14.834,0.667,15.412,0.667,16s0.041,1.165,0.105,1.736l4.378,1.558c0.217,0.715,0.502,1.401,0.849,2.049l-1.994,4.193c0.725,0.909,1.549,1.733,2.459,2.458l4.192-1.993c0.648,0.347,1.334,0.633,2.05,0.851l1.557,4.377c0.571,0.064,1.148,0.104,1.737,0.104c0.588,0,1.165-0.04,1.736-0.104l1.558-4.377c0.715-0.218,1.399-0.504,2.049-0.851l4.193,1.993c0.909-0.725,1.733-1.549,2.458-2.458l-1.993-4.193c0.347-0.647,0.633-1.334,0.851-2.049L31.229,17.736zM16,20.871c-2.69,0-4.872-2.182-4.872-4.871c0-2.69,2.182-4.872,4.872-4.872c2.689,0,4.871,2.182,4.871,4.872C20.871,18.689,18.689,20.871,16,20.871z"></path><title>Link options.</title></g></g></g></g><!--z-index:62--><g   id="j_2235" ><path  stroke="#505050" d="M 1078 1001 L 542 1825" id="v-36331" stroke-width="2" fill="none"></path><path  fill="black" stroke="black" d="M 0 0 0 0" transform="matrix(-0.5446735620498657,0.8386481404304504,-0.8386481404304504,-0.5446735620498657,1077.5799560546875,1001)"></path><path  fill="#505050" stroke="#505050" d="M 20 0 L 0 10 L 20 20 z" id="v-36333" transform="matrix(0.5446734428405762,-0.83864825963974,0.83864825963974,0.5446734428405762,534.0335693359375,1819.55322265625)"></path><path  d="M 1078 1001 L 542 1825" id="v-36332" fill="none" style="cursor: default;"></path><g ><g id="v-36322"  label-idx="0" cursor="move" transform="matrix(1,0,0,1,810,1413)" style="cursor: default;"><rect joint-selector="rect" id="v-36326" fill="#ffffff" rx="3" ry="3" pointer-events="none" width="150.73333740234375" height="120.40000534057617" transform="matrix(1,0,0,1,-75.4000015258789,-60.20000076293945)"></rect><text joint-selector="text" id="v-36325" font-size="24px" xml:space="preserve" y="0.8em" fill="#505050" text-anchor="middle" pointer-events="none" font-family="Open Sans" font-weight="normal" transform="matrix(1,0,0,1,0,-53.400001525878906)"><tspan  dy="0">7: Logs</tspan><tspan dy="1.2em" x="0" >processing</tspan><tspan dy="1.2em" x="0" >events, glean</tspan><tspan dy="1.2em" x="0" >metrics</tspan></text></g><g id="v-36323"  label-idx="1" cursor="move" transform="matrix(1,0,0,1,810,1482.5999755859375)" style="cursor: default;"><rect joint-selector="rect" id="v-36328" fill="#ffffff" rx="3" ry="3" pointer-events="none" width="129.51666259765625" height="24" transform="matrix(1,0,0,1,-64.80000305175781,-12)"></rect><text joint-selector="text" id="v-36327" font-size="17px" xml:space="preserve" y="0.8em" fill="#505050" text-anchor="middle" pointer-events="none" font-family="Open Sans" font-weight="normal" transform="matrix(1,0,0,1,0,-6.599999904632568)"><tspan  dy="0">[stdout / stderr]</tspan></text></g><g id="v-36324"  label-idx="2" cursor="move" transform="matrix(1,0,0,1,800,1491)" style="cursor: default;"><rect joint-selector="rect" id="v-36330" fill="#ffffff" rx="3" ry="3"  width="0" height="0" transform="matrix(1,0,0,1,0,0)" display="none"></rect><text joint-selector="text" id="v-36329" fill="#000000" font-size="14" text-anchor="middle" pointer-events="none"></text></g></g><g  display="none"></g><g  id="v-36335" display="none"><g  id="v-36320"><path  end="source" d="M 26 0 L 0 13 L 26 26 z"></path></g><g  id="v-36321"><path  end="target" d="M 26 0 L 0 13 L 26 26 z"></path></g></g><g  id="v-36334" display="none"><g  id="v-36319" transform="translate(1056.1890248216584, 1034.530305124913) "><g  event="remove"><circle r="11"></circle><path transform="scale(.8) translate(-16, -16)" d="M24.778,21.419 19.276,15.917 24.777,10.415 21.949,7.585 16.447,13.087 10.945,7.585 8.117,10.415 13.618,15.917 8.116,21.419 10.946,24.248 16.447,18.746 21.948,24.248z"></path><title>Remove link.</title></g><g  event="link:options"><circle r="11" transform="translate(25)"></circle><path fill="white" transform="scale(.55) translate(29, -16)" d="M31.229,17.736c0.064-0.571,0.104-1.148,0.104-1.736s-0.04-1.166-0.104-1.737l-4.377-1.557c-0.218-0.716-0.504-1.401-0.851-2.05l1.993-4.192c-0.725-0.91-1.549-1.734-2.458-2.459l-4.193,1.994c-0.647-0.347-1.334-0.632-2.049-0.849l-1.558-4.378C17.165,0.708,16.588,0.667,16,0.667s-1.166,0.041-1.737,0.105L12.707,5.15c-0.716,0.217-1.401,0.502-2.05,0.849L6.464,4.005C5.554,4.73,4.73,5.554,4.005,6.464l1.994,4.192c-0.347,0.648-0.632,1.334-0.849,2.05l-4.378,1.557C0.708,14.834,0.667,15.412,0.667,16s0.041,1.165,0.105,1.736l4.378,1.558c0.217,0.715,0.502,1.401,0.849,2.049l-1.994,4.193c0.725,0.909,1.549,1.733,2.459,2.458l4.192-1.993c0.648,0.347,1.334,0.633,2.05,0.851l1.557,4.377c0.571,0.064,1.148,0.104,1.737,0.104c0.588,0,1.165-0.04,1.736-0.104l1.558-4.377c0.715-0.218,1.399-0.504,2.049-0.851l4.193,1.993c0.909-0.725,1.733-1.549,2.458-2.458l-1.993-4.193c0.347-0.647,0.633-1.334,0.851-2.049L31.229,17.736zM16,20.871c-2.69,0-4.872-2.182-4.872-4.871c0-2.69,2.182-4.872,4.872-4.872c2.689,0,4.871,2.182,4.871,4.872C20.871,18.689,18.689,20.871,16,20.871z"></path><title>Link options.</title></g></g></g></g><!--z-index:63--><g   id="j_2236" ><path  stroke="#505050" d="M 1400 876 L 1537 892 C 1543.6666666666665 892.6666666666665 1549 895.6666666666665 1553 901 L 1659 1045" id="v-36352" stroke-width="2" fill="none"></path><path  fill="black" stroke="black" d="M 0 0 0 0" transform="matrix(0.9936842918395996,0.11221196502447128,-0.11221196502447128,0.9936842918395996,1400,876.4000244140625)"></path><path  fill="#505050" stroke="#505050" d="M 20 0 L 0 10 L 20 20 z" id="v-36354" transform="matrix(-0.5940220355987549,-0.8044487833976746,0.8044487833976746,-0.5940220355987549,1651.195556640625,1050.9403076171875)"></path><path  d="M 1400 876 L 1537 892 C 1543.6666666666665 892.6666666666665 1549 895.6666666666665 1553 901 L 1659 1045" id="v-36353" fill="none" style="cursor: default;"></path><g ><g id="v-36343"  label-idx="0" cursor="move" transform="matrix(1,0,0,1,1559.505126953125,909.837158203125)" style="cursor: default;"><rect joint-selector="rect" id="v-36347" fill="#ffffff" rx="3" ry="3" pointer-events="none" width="203.93333435058594" height="62.79999923706055" transform="matrix(1,0,0,1,-102,-31.399999618530273)"></rect><text joint-selector="text" id="v-36346" font-size="24px" xml:space="preserve" y="0.8em" fill="#505050" text-anchor="middle" pointer-events="none" font-family="Open Sans" font-weight="normal" transform="matrix(1,0,0,1,0,-24.600000381469727)"><tspan  dy="0">8: Deletes original</tspan><tspan dy="1.2em" x="0" >email</tspan></text></g><g id="v-36344"  label-idx="1" cursor="move" transform="matrix(1,0,0,1,1559.505126953125,950.6371459960938)" style="cursor: default;"><rect joint-selector="rect" id="v-36349" fill="#ffffff" rx="3" ry="3" pointer-events="none" width="64.31666564941406" height="24" transform="matrix(1,0,0,1,-32.20000076293945,-12)"></rect><text joint-selector="text" id="v-36348" font-size="17px" xml:space="preserve" y="0.8em" fill="#505050" text-anchor="middle" pointer-events="none" font-family="Open Sans" font-weight="normal" transform="matrix(1,0,0,1,0,-6.599999904632568)"><tspan  dy="0">[S3 API]</tspan></text></g><g id="v-36345"  label-idx="2" cursor="move" transform="matrix(1,0,0,1,1549.505126953125,959.0371704101562)" style="cursor: default;"><rect joint-selector="rect" id="v-36351" fill="#ffffff" rx="3" ry="3"  width="0" height="0" transform="matrix(1,0,0,1,0,0)" display="none"></rect><text joint-selector="text" id="v-36350" fill="#000000" font-size="14" text-anchor="middle" pointer-events="none"></text></g></g><g  display="none"><g  transform="translate(1547, 893)" id="v-36340"><circle  idx="0" r="10"></circle><path  idx="0" d="M16,5.333c-7.732,0-14,4.701-14,10.5c0,1.982,0.741,3.833,2.016,5.414L2,25.667l5.613-1.441c2.339,1.317,5.237,2.107,8.387,2.107c7.732,0,14-4.701,14-10.5C30,10.034,23.732,5.333,16,5.333z" transform="translate(5, -33)"></path><path  idx="0" transform="scale(.8) translate(9.5, -37)" d="M24.778,21.419 19.276,15.917 24.777,10.415 21.949,7.585 16.447,13.087 10.945,7.585 8.117,10.415 13.618,15.917 8.116,21.419 10.946,24.248 16.447,18.746 21.948,24.248z"><title>Remove vertex.</title></path></g></g><g  id="v-36356" display="none"><g  id="v-36341"><path  end="source" d="M 26 0 L 0 13 L 26 26 z"></path></g><g  id="v-36342"><path  end="target" d="M 26 0 L 0 13 L 26 26 z"></path></g></g><g  id="v-36355" display="none"><g  id="v-36339" transform="translate(1439.729968960974, 880.6399963750043) "><g  event="remove"><circle r="11"></circle><path transform="scale(.8) translate(-16, -16)" d="M24.778,21.419 19.276,15.917 24.777,10.415 21.949,7.585 16.447,13.087 10.945,7.585 8.117,10.415 13.618,15.917 8.116,21.419 10.946,24.248 16.447,18.746 21.948,24.248z"></path><title>Remove link.</title></g><g  event="link:options"><circle r="11" transform="translate(25)"></circle><path fill="white" transform="scale(.55) translate(29, -16)" d="M31.229,17.736c0.064-0.571,0.104-1.148,0.104-1.736s-0.04-1.166-0.104-1.737l-4.377-1.557c-0.218-0.716-0.504-1.401-0.851-2.05l1.993-4.192c-0.725-0.91-1.549-1.734-2.458-2.459l-4.193,1.994c-0.647-0.347-1.334-0.632-2.049-0.849l-1.558-4.378C17.165,0.708,16.588,0.667,16,0.667s-1.166,0.041-1.737,0.105L12.707,5.15c-0.716,0.217-1.401,0.502-2.05,0.849L6.464,4.005C5.554,4.73,4.73,5.554,4.005,6.464l1.994,4.192c-0.347,0.648-0.632,1.334-0.849,2.05l-4.378,1.557C0.708,14.834,0.667,15.412,0.667,16s0.041,1.165,0.105,1.736l4.378,1.558c0.217,0.715,0.502,1.401,0.849,2.049l-1.994,4.193c0.725,0.909,1.549,1.733,2.459,2.458l4.192-1.993c0.648,0.347,1.334,0.633,2.05,0.851l1.557,4.377c0.571,0.064,1.148,0.104,1.737,0.104c0.588,0,1.165-0.04,1.736-0.104l1.558-4.377c0.715-0.218,1.399-0.504,2.049-0.851l4.193,1.993c0.909-0.725,1.733-1.549,2.458-2.458l-1.993-4.193c0.347-0.647,0.633-1.334,0.851-2.049L31.229,17.736zM16,20.871c-2.69,0-4.872-2.182-4.872-4.871c0-2.69,2.182-4.872,4.872-4.872c2.689,0,4.871,2.182,4.871,4.872C20.871,18.689,18.689,20.871,16,20.871z"></path><title>Link options.</title></g></g></g></g><!--z-index:64--><g   id="j_2237" ><path  stroke="#505050" d="M 2485 726 L 2100 511" id="v-36372" stroke-width="2" fill="none"></path><path  fill="black" stroke="black" d="M 0 0 0 0" transform="matrix(-0.8737030029296875,-0.48645973205566406,0.48645973205566406,-0.8737030029296875,2485,725.719970703125)"></path><path  fill="#505050" stroke="#505050" d="M 20 0 L 0 10 L 20 20 z" id="v-36374" transform="matrix(0.8737030029296875,0.4864597022533417,-0.4864597022533417,0.8737030029296875,2104.86474609375,502.62298583984375)"></path><path  d="M 2485 726 L 2100 511" id="v-36373" fill="none" style="cursor: default;"></path><g ><g id="v-36363"  label-idx="0" cursor="move" transform="matrix(1,0,0,1,2292.5,618.5)" style="cursor: default;"><rect joint-selector="rect" id="v-36367" fill="#ffffff" rx="3" ry="3" pointer-events="none" width="179.96665954589844" height="62.79999923706055" transform="matrix(1,0,0,1,-90,-31.399999618530273)"></rect><text joint-selector="text" id="v-36366" font-size="24px" xml:space="preserve" y="0.8em" fill="#505050" text-anchor="middle" pointer-events="none" font-family="Open Sans" font-weight="normal" transform="matrix(1,0,0,1,0,-24.600000381469727)"><tspan  dy="0">9: User receives</tspan><tspan dy="1.2em" x="0" >email</tspan></text></g><g id="v-36364"  label-idx="1" cursor="move" transform="matrix(1,0,0,1,2292.5,659.2999877929688)" style="cursor: default;"><rect joint-selector="rect" id="v-36369" fill="#ffffff" rx="3" ry="3" pointer-events="none" width="219.63333129882812" height="24" transform="matrix(1,0,0,1,-109.80000305175781,-12)"></rect><text joint-selector="text" id="v-36368" font-size="17px" xml:space="preserve" y="0.8em" fill="#505050" text-anchor="middle" pointer-events="none" font-family="Open Sans" font-weight="normal" transform="matrix(1,0,0,1,0,-6.599999904632568)"><tspan  dy="0">[SMTP via user's real email]</tspan></text></g><g id="v-36365"  label-idx="2" cursor="move" transform="matrix(1,0,0,1,2282.5,667.7000122070312)" style="cursor: default;"><rect joint-selector="rect" id="v-36371" fill="#ffffff" rx="3" ry="3"  width="0" height="0" transform="matrix(1,0,0,1,0,0)" display="none"></rect><text joint-selector="text" id="v-36370" fill="#000000" font-size="14" text-anchor="middle" pointer-events="none"></text></g></g><g  display="none"></g><g  id="v-36376" display="none"><g  id="v-36361"><path  end="source" d="M 26 0 L 0 13 L 26 26 z"></path></g><g  id="v-36362"><path  end="target" d="M 26 0 L 0 13 L 26 26 z"></path></g></g><g  id="v-36375" display="none"><g  id="v-36360" transform="translate(2450.076581596361, 706.4973118005653) "><g  event="remove"><circle r="11"></circle><path transform="scale(.8) translate(-16, -16)" d="M24.778,21.419 19.276,15.917 24.777,10.415 21.949,7.585 16.447,13.087 10.945,7.585 8.117,10.415 13.618,15.917 8.116,21.419 10.946,24.248 16.447,18.746 21.948,24.248z"></path><title>Remove link.</title></g><g  event="link:options"><circle r="11" transform="translate(25)"></circle><path fill="white" transform="scale(.55) translate(29, -16)" d="M31.229,17.736c0.064-0.571,0.104-1.148,0.104-1.736s-0.04-1.166-0.104-1.737l-4.377-1.557c-0.218-0.716-0.504-1.401-0.851-2.05l1.993-4.192c-0.725-0.91-1.549-1.734-2.458-2.459l-4.193,1.994c-0.647-0.347-1.334-0.632-2.049-0.849l-1.558-4.378C17.165,0.708,16.588,0.667,16,0.667s-1.166,0.041-1.737,0.105L12.707,5.15c-0.716,0.217-1.401,0.502-2.05,0.849L6.464,4.005C5.554,4.73,4.73,5.554,4.005,6.464l1.994,4.192c-0.347,0.648-0.632,1.334-0.849,2.05l-4.378,1.557C0.708,14.834,0.667,15.412,0.667,16s0.041,1.165,0.105,1.736l4.378,1.558c0.217,0.715,0.502,1.401,0.849,2.049l-1.994,4.193c0.725,0.909,1.549,1.733,2.459,2.458l4.192-1.993c0.648,0.347,1.334,0.633,2.05,0.851l1.557,4.377c0.571,0.064,1.148,0.104,1.737,0.104c0.588,0,1.165-0.04,1.736-0.104l1.558-4.377c0.715-0.218,1.399-0.504,2.049-0.851l4.193,1.993c0.909-0.725,1.733-1.549,2.458-2.458l-1.993-4.193c0.347-0.647,0.633-1.334,0.851-2.049L31.229,17.736zM16,20.871c-2.69,0-4.872-2.182-4.872-4.871c0-2.69,2.182-4.872,4.872-4.872c2.689,0,4.871,2.182,4.871,4.872C20.871,18.689,18.689,20.871,16,20.871z"></path><title>Link options.</title></g></g></g></g><!--z-index:65--><!--z-index:66--><!--z-index:67--><!--z-index:68--><!--z-index:69--><!--z-index:70--><!--z-index:71--><!--z-index:72--><!--z-index:73--><!--z-index:74--><!--z-index:75--><!--z-index:76--><!--z-index:77--><!--z-index:78--><!--z-index:79--><!--z-index:80--><!--z-index:81--><!--z-index:82--><!--z-index:83--><!--z-index:84--><!--z-index:85--><!--z-index:86--><!--z-index:87--><!--z-index:88--><!--z-index:89--><!--z-index:90--><!--z-index:91--><!--z-index:92--><!--z-index:93--><!--z-index:94--><!--z-index:95--><!--z-index:96--><!--z-index:97--><!--z-index:98--><!--z-index:99--><!--z-index:100--><!--z-index:101--><!--z-index:102--><!--z-index:103--><!--z-index:104--><!--z-index:105--><!--z-index:106--><!--z-index:107--><!--z-index:108--><!--z-index:109--><!--z-index:110--><!--z-index:111--><!--z-index:112--><!--z-index:113--><!--z-index:114--><!--z-index:115--><!--z-index:116--><!--z-index:117--><!--z-index:118--><!--z-index:119--><!--z-index:120--><!--z-index:121--><!--z-index:122--><!--z-index:123--><!--z-index:124--><!--z-index:125--><!--z-index:126--><!--z-index:127--><!--z-index:128--><!--z-index:129--><!--z-index:130--><!--z-index:131--><!--z-index:132--><!--z-index:133--><!--z-index:134--><!--z-index:135--><!--z-index:136--><!--z-index:137--><!--z-index:138--><!--z-index:139--><!--z-index:140--><!--z-index:141--><!--z-index:142--><!--z-index:143--><!--z-index:144--><!--z-index:145--><!--z-index:146--><!--z-index:147--><!--z-index:148--><!--z-index:149--><!--z-index:150--><!--z-index:151--><!--z-index:152--><!--z-index:153--><!--z-index:154--><!--z-index:155--><!--z-index:156--><!--z-index:157--><!--z-index:158--><!--z-index:159--><!--z-index:160--><!--z-index:161--><!--z-index:162--><!--z-index:163--><!--z-index:164--><!--z-index:165--><!--z-index:166--><!--z-index:167--><!--z-index:168--><!--z-index:169--><!--z-index:170--><!--z-index:171--><!--z-index:172--><!--z-index:173--><!--z-index:174--><!--z-index:175--><!--z-index:176--><!--z-index:177--><!--z-index:178--><!--z-index:179--><!--z-index:180--><!--z-index:181--><!--z-index:182--><!--z-index:183--><!--z-index:184--><!--z-index:185--><!--z-index:186--><!--z-index:187--><!--z-index:188--><!--z-index:189--><!--z-index:190--><!--z-index:191--><!--z-index:192--><!--z-index:193--><!--z-index:194--><!--z-index:195--><!--z-index:196--><!--z-index:197--><!--z-index:198--><!--z-index:199--><!--z-index:200--><!--z-index:201--><!--z-index:202--><!--z-index:203--><!--z-index:204--><!--z-index:205--><!--z-index:206--><!--z-index:207--><!--z-index:208--><!--z-index:209--><!--z-index:210--><!--z-index:211--><!--z-index:212--><!--z-index:213--><!--z-index:214--><!--z-index:215--><!--z-index:216--><!--z-index:217--><!--z-index:218--><!--z-index:219--><!--z-index:220--><!--z-index:221--><!--z-index:222--><!--z-index:223--><!--z-index:224--><!--z-index:225--><!--z-index:226--><!--z-index:227--><!--z-index:228--><!--z-index:229--><!--z-index:230--><!--z-index:231--><!--z-index:232--><!--z-index:233--><!--z-index:234--><!--z-index:235--><!--z-index:236--><!--z-index:237--><!--z-index:238--><!--z-index:239--><!--z-index:240--><!--z-index:241--><!--z-index:242--><!--z-index:243--><!--z-index:244--><!--z-index:245--><!--z-index:246--><!--z-index:247--><!--z-index:248--><!--z-index:249--><!--z-index:250--><!--z-index:251--><!--z-index:252--><!--z-index:253--><!--z-index:254--><!--z-index:255--><!--z-index:256--><!--z-index:257--><!--z-index:258--><!--z-index:259--><!--z-index:260--><!--z-index:261--><!--z-index:262--><!--z-index:263--><!--z-index:264--><!--z-index:265--><!--z-index:266--><!--z-index:267--><!--z-index:268--><!--z-index:269--><!--z-index:270--><!--z-index:271--><!--z-index:272--><!--z-index:273--><!--z-index:274--><!--z-index:275--><!--z-index:276--><!--z-index:277--><!--z-index:278--><!--z-index:279--><!--z-index:280--><!--z-index:281--><!--z-index:282--><!--z-index:283--><!--z-index:284--><!--z-index:285--><!--z-index:286--><!--z-index:287--><!--z-index:288--><!--z-index:289--><!--z-index:290--><!--z-index:291--><!--z-index:292--><!--z-index:293--><!--z-index:294--><!--z-index:295--><!--z-index:296--><!--z-index:297--><!--z-index:298--></g><g ></g><g ></g><g ></g></g></svg>