<svg xmlns="http://www.w3.org/2000/svg" xmlns:xlink="http://www.w3.org/1999/xlink" version="1.1" viewBox="0 0 2500 1000" style="background: #ffffff"><defs><style>@import url(https://fonts.googleapis.com/css?family=Open+Sans:400,700);</style></defs><g transform="translate(25,100)"><rect width="450" height="300" rx="20" ry="20" x="0" y="0" fill="#00d230" stroke-width="10" stroke="#005e2a"/><text x="225" y="132" text-anchor="middle" fill="#000000" font-size="30px" font-family="Open Sans"><tspan x="225" dy="40px">Application</tspan></text></g><g transform="translate(525,100)"><path id="keyDatabaseCylinderPath" d="M 0,22.5 a 225,22.5 0,0,0 450 0 a 225,22.5 0,0,0 -450 0 l 0,255 a 225,22.5 0,0,0 450 0 l 0,-255" fill="#00d230" stroke-width="2" stroke="#00bd2b"></path><text x="225" y="143.25" text-anchor="middle" fill="#000000" font-size="30px" font-family="Open Sans"><tspan x="225" dy="40px">Database</tspan></text></g><g transform="translate(1025,25)"><rect x="0" y="180" width="450" height="270" rx="90" fill="#dddddd" stroke-width="2" stroke="#c7c7c7"/><circle cx="225" cy="100" r="100" fill="#dddddd" stroke-width="2" stroke="#c7c7c7"/><line x1="90" y1="300" x2="90" y2="450" stroke-width="2" stroke="#c7c7c7"/><line x1="360" y1="300" x2="360" y2="450" stroke-width="2" stroke="#c7c7c7"/><text x="225" y="257" text-anchor="middle" fill="#000000" font-size="30px" font-family="Open Sans"><tspan x="225" dy="40px">External Contact</tspan></text></g><g transform="translate(1525,100)"><ellipse cx="225" cy="150" rx="225" ry="150" fill="#00d230" stroke-width="2" stroke="#00bd2b"/><text x="225" y="132" text-anchor="middle" fill="#000000" font-size="30px" font-family="Open Sans"><tspan x="225" dy="40px">Managed Service</tspan></text></g><g transform="translate(2025,100)"><rect width="450" height="300" rx="20" ry="20" x="0" y="0" fill="#ffffff" stroke-width="10" stroke="#00d230"/><text x="225" y="132" text-anchor="middle" fill="#000000" font-size="30px" font-family="Open Sans"><tspan x="225" dy="40px">Optional Application</tspan></text></g><g transform="translate(25,525)"><rect x="0" y="180" width="450" height="270" rx="90" fill="#ff9900" stroke-width="2" stroke="#e68a00"/><circle cx="225" cy="100" r="100" fill="#ff9900" stroke-width="2" stroke="#e68a00"/><line x1="90" y1="300" x2="90" y2="450" stroke-width="2" stroke="#e68a00"/><line x1="360" y1="300" x2="360" y2="450" stroke-width="2" stroke="#e68a00"/><text x="225" y="257" text-anchor="middle" fill="#000000" font-size="30px" font-family="Open Sans"><tspan x="225" dy="40px">Relay User</tspan></text></g><g transform="translate(525,670)"><path d="M390,0 L390,60 L450,30 L 390,0" style="fill:#505050" stroke-dasharray="" /><path d="M0,30 L390,30" style="stroke:#505050; stroke-width: 6; fill: none;" /><text x="225" y="77" text-anchor="middle" fill="#505050" font-size="30px" font-family="Open Sans"><tspan x="225" dy="40px">Relationship</tspan></text></g></svg>