<svg xmlns="http://www.w3.org/2000/svg" xmlns:xlink="http://www.w3.org/1999/xlink" version="1.1" viewBox="0 0 2995 2063" style="background: #ffffff"><defs><style>@import url(https://fonts.googleapis.com/css?family=Open+Sans:400,700);</style></defs><defs joint-selector="defs"></defs><g  joint-selector="layers" transform="matrix(1,0,0,1,0,0)"><g ></g><g ><!--z-index:-35--><!--z-index:-34--><!--z-index:-33--><!--z-index:-32--><!--z-index:-31--><!--z-index:-30--><!--z-index:-29--><!--z-index:-28--><!--z-index:-27--><!--z-index:-26--><!--z-index:-25--><!--z-index:-24--><!--z-index:-23--><!--z-index:-22--><!--z-index:-21--><!--z-index:-20--><!--z-index:-19--><!--z-index:-18--><!--z-index:-17--><!--z-index:-16--><!--z-index:-15--><!--z-index:-14--><!--z-index:-13--><!--z-index:-12--><!--z-index:-11--><!--z-index:-10--><!--z-index:-9--><!--z-index:-8--><!--z-index:-7--><!--z-index:-6--><!--z-index:-5--><!--z-index:-4--><!--z-index:-3--><!--z-index:-2--><!--z-index:-1--><!--z-index:0--><!--z-index:1--><!--z-index:2--><!--z-index:3--><!--z-index:4--><!--z-index:5--><!--z-index:6--><!--z-index:7--><!--z-index:8--><!--z-index:9--><!--z-index:10--><!--z-index:11--><!--z-index:12--><!--z-index:13--><!--z-index:14--><!--z-index:15--><!--z-index:16--><!--z-index:17--><!--z-index:18--><!--z-index:19--><!--z-index:20--><!--z-index:21--><!--z-index:22--><!--z-index:23--><!--z-index:24--><!--z-index:25--><!--z-index:26--><!--z-index:27--><g   id="j_169"  transform="translate(20,2026.6)"><g id="v-2415"><text  id="v-2416" font-size="22px" xml:space="preserve" y="0.8em" font-weight="normal" text-anchor="start" fill="#aaaaaa" pointer-events="none" display="block" font-family="Open Sans"><tspan  dy="0">Thursday, July 25, 2024 at 3:26 PM Central Daylight Time</tspan></text></g></g><!--z-index:28--><g   id="j_168"  transform="translate(20,1983.3999999999999)"><g id="v-2413"><text  id="v-2414" font-size="36px" xml:space="preserve" y="0.8em" font-weight="normal" text-anchor="start" fill="#000000" pointer-events="none" display="block" font-family="Open Sans"><tspan  dy="0">[System Context] Relay</tspan></text></g></g><!--z-index:29--><g   id="j_170"  transform="translate(1299,200)" style=""><g  id="v-2420" style="opacity: 1;"><rect  x="0" y="160" width="400" height="240" rx="70" id="v-2422" stroke="#e68a00" stroke-width="2" pointer-events="visiblePainted" fill="#ff9900" style="fill: rgb(255, 153, 0); stroke: rgb(230, 138, 0);"></rect><circle  cx="200" cy="88.88888888888889" r="88.88888888888889" id="v-2421" stroke="#e68a00" stroke-width="2" pointer-events="visiblePainted" fill="#ff9900" style="fill: rgb(255, 153, 0); stroke: rgb(230, 138, 0);"></circle><line  x1="80" y1="266.6666666666667" x2="80" y2="400" id="v-2428" stroke="#e68a00" stroke-width="2" style="stroke: rgb(230, 138, 0);"></line><line  x1="320" y1="266.6666666666667" x2="320" y2="400" id="v-2429" stroke="#e68a00" stroke-width="2" style="stroke: rgb(230, 138, 0);"></line><text  id="v-2423" font-size="34" xml:space="preserve" y="0.8em" font-weight="bold" text-anchor="middle" pointer-events="visible" font-family="Open Sans" fill="#000000" transform="matrix(1,0,0,1,200,232.5)" style="fill: rgb(0, 0, 0);"><tspan  dy="0">Relay User</tspan></text><text  id="v-2424" font-size="17" xml:space="preserve" y="0.8em" text-anchor="middle" font-family="Open Sans" fill="#000000" transform="matrix(1,0,0,1,200,273.29998779296875)" style="fill: rgb(0, 0, 0);"><tspan  dy="0">[Person]</tspan></text><text  id="v-2425" font-size="24" xml:space="preserve" y="0.8em" text-anchor="middle" font-family="Open Sans" fill="#000000" transform="matrix(1,0,0,1,200,303.70001220703125)" style="fill: rgb(0, 0, 0);"><tspan  dy="0">A user of Firefox Relay.</tspan></text><g  id="v-2426" font-weight="normal" text-anchor="middle" color="#000000" transform="matrix(1,0,0,1,197.5,368)" style="fill: rgb(0, 0, 0);" display="none"><g ></g><g ></g><g ></g><g ></g></g><image  id="v-2427"></image></g></g><!--z-index:30--><g   id="j_171"  transform="translate(2394,1250)" style=""><g  id="v-2433" style="opacity: 1;"><rect  x="0" y="160" width="400" height="240" rx="70" id="v-2435" stroke="#c7c7c7" stroke-width="2" pointer-events="visiblePainted" fill="#dddddd" style="fill: rgb(221, 221, 221); stroke: rgb(199, 199, 199);"></rect><circle  cx="200" cy="88.88888888888889" r="88.88888888888889" id="v-2434" stroke="#c7c7c7" stroke-width="2" pointer-events="visiblePainted" fill="#dddddd" style="fill: rgb(221, 221, 221); stroke: rgb(199, 199, 199);"></circle><line  x1="80" y1="266.6666666666667" x2="80" y2="400" id="v-2441" stroke="#c7c7c7" stroke-width="2" style="stroke: rgb(199, 199, 199);"></line><line  x1="320" y1="266.6666666666667" x2="320" y2="400" id="v-2442" stroke="#c7c7c7" stroke-width="2" style="stroke: rgb(199, 199, 199);"></line><text  id="v-2436" font-size="34" xml:space="preserve" y="0.8em" font-weight="bold" text-anchor="middle" pointer-events="visible" font-family="Open Sans" fill="#000000" transform="matrix(1,0,0,1,200,218.10000610351562)" style="fill: rgb(0, 0, 0);"><tspan  dy="0">Email Contact</tspan></text><text  id="v-2437" font-size="17" xml:space="preserve" y="0.8em" text-anchor="middle" font-family="Open Sans" fill="#000000" transform="matrix(1,0,0,1,200,258.8999938964844)" style="fill: rgb(0, 0, 0);"><tspan  dy="0">[Person]</tspan></text><text  id="v-2438" font-size="24" xml:space="preserve" y="0.8em" text-anchor="middle" font-family="Open Sans" fill="#000000" transform="matrix(1,0,0,1,200,289.29998779296875)" style="fill: rgb(0, 0, 0);"><tspan  dy="0">A person or business emailing</tspan><tspan dy="1.2em" x="0" >with a Relay User.</tspan></text><g  id="v-2439" font-weight="normal" text-anchor="middle" color="#000000" transform="matrix(1,0,0,1,197.5,368)" style="fill: rgb(0, 0, 0);" display="none"><g ></g><g ></g><g ></g><g ></g></g><image  id="v-2440"></image></g></g><!--z-index:31--><g   id="j_172"  transform="translate(2394,640)" style=""><g  id="v-2446" style="opacity: 1;"><rect  x="0" y="160" width="400" height="240" rx="70" id="v-2448" stroke="#c7c7c7" stroke-width="2" pointer-events="visiblePainted" fill="#dddddd" style="fill: rgb(221, 221, 221); stroke: rgb(199, 199, 199);"></rect><circle  cx="200" cy="88.88888888888889" r="88.88888888888889" id="v-2447" stroke="#c7c7c7" stroke-width="2" pointer-events="visiblePainted" fill="#dddddd" style="fill: rgb(221, 221, 221); stroke: rgb(199, 199, 199);"></circle><line  x1="80" y1="266.6666666666667" x2="80" y2="400" id="v-2454" stroke="#c7c7c7" stroke-width="2" style="stroke: rgb(199, 199, 199);"></line><line  x1="320" y1="266.6666666666667" x2="320" y2="400" id="v-2455" stroke="#c7c7c7" stroke-width="2" style="stroke: rgb(199, 199, 199);"></line><text  id="v-2449" font-size="34" xml:space="preserve" y="0.8em" font-weight="bold" text-anchor="middle" pointer-events="visible" font-family="Open Sans" fill="#000000" transform="matrix(1,0,0,1,200,218.10000610351562)" style="fill: rgb(0, 0, 0);"><tspan  dy="0">Phone Contact</tspan></text><text  id="v-2450" font-size="17" xml:space="preserve" y="0.8em" text-anchor="middle" font-family="Open Sans" fill="#000000" transform="matrix(1,0,0,1,200,258.8999938964844)" style="fill: rgb(0, 0, 0);"><tspan  dy="0">[Person]</tspan></text><text  id="v-2451" font-size="24" xml:space="preserve" y="0.8em" text-anchor="middle" font-family="Open Sans" fill="#000000" transform="matrix(1,0,0,1,200,289.29998779296875)" style="fill: rgb(0, 0, 0);"><tspan  dy="0">A person or business calling or</tspan><tspan dy="1.2em" x="0" >texting with a Relay User.</tspan></text><g  id="v-2452" font-weight="normal" text-anchor="middle" color="#000000" transform="matrix(1,0,0,1,197.5,368)" style="fill: rgb(0, 0, 0);" display="none"><g ></g><g ></g><g ></g><g ></g></g><image  id="v-2453"></image></g></g><!--z-index:32--><g   id="j_174"  transform="translate(749,829)" style=""><g id="v-2466"><rect  id="v-2467" width="1540" height="1034" rx="0" ry="0" fill="#ffffff" stroke="#444444" stroke-width="1" stroke-dasharray="5,5" pointer-events="none"></rect><text  id="v-2468" font-size="24px" xml:space="preserve" y="1019" font-weight="normal" fill="#444444" text-anchor="start" pointer-events="visible" font-family="Open Sans" transform="matrix(1,0,0,1,15,0)"><tspan  dy="0">Mozilla</tspan></text><text  id="v-2469" font-size="17px" xml:space="preserve" display="none" y="1019" font-weight="normal" fill="#444444" text-anchor="start" pointer-events="visible" font-family="Open Sans" transform="matrix(1,0,0,1,15,0)"><tspan style="fill-opacity: 0; stroke-opacity: 0;"  dy="0">-</tspan></text><image  id="v-2470" pointer-events="visible"></image></g></g><!--z-index:33--><g   id="j_173"  transform="translate(1654,855)" style=""><g  id="v-2459" style="opacity: 1;"><rect  id="v-2460" rx="1" ry="1" stroke="#005526" stroke-width="2" pointer-events="visiblePainted" fill="#005e2a" width="450" height="300" style="fill: rgb(0, 94, 42); stroke: rgb(0, 85, 38);"></rect><text  id="v-2461" font-size="34" xml:space="preserve" y="0.8em" font-weight="bold" text-anchor="middle" pointer-events="visible" font-family="Open Sans" fill="#ffffff" transform="matrix(1,0,0,1,225,73.69999694824219)" style="fill: rgb(255, 255, 255);"><tspan  dy="0">Firefox Relay</tspan></text><text  id="v-2462" font-size="17" xml:space="preserve" y="0.8em" text-anchor="middle" font-family="Open Sans" fill="#ffffff" transform="matrix(1,0,0,1,225,114.5)" style="fill: rgb(255, 255, 255);"><tspan  dy="0">[Software System]</tspan></text><text  id="v-2463" font-size="24" xml:space="preserve" y="0.8em" text-anchor="middle" font-family="Open Sans" fill="#ffffff" transform="matrix(1,0,0,1,225,144.89999389648438)" style="fill: rgb(255, 255, 255);"><tspan  dy="0">Manages email and phone masks.</tspan><tspan dy="1.2em" x="0" >Forwards messages between masks</tspan><tspan dy="1.2em" x="0" >and external services.</tspan></text><g  id="v-2464" color="#ffffff" transform="matrix(1,0,0,1,210,268)" style="fill: rgb(255, 255, 255);" display="none"><g  transform="translate(5 0)"><svg xmlns="http://www.w3.org/2000/svg" width="20" height="20" fill="currentColor" viewBox="0 0 16 16"><path fill-rule="evenodd" d="M6.5 12a5.5 5.5 0 1 0 0-11 5.5 5.5 0 0 0 0 11zM13 6.5a6.5 6.5 0 1 1-13 0 6.5 6.5 0 0 1 13 0z"></path><path d="M10.344 11.742c.03.04.062.078.098.115l3.85 3.85a1 1 0 0 0 1.415-1.414l-3.85-3.85a1.007 1.007 0 0 0-.115-.1 6.538 6.538 0 0 1-1.398 1.4z"></path><path fill-rule="evenodd" d="M6.5 3a.5.5 0 0 1 .5.5V6h2.5a.5.5 0 0 1 0 1H7v2.5a.5.5 0 0 1-1 0V7H3.5a.5.5 0 0 1 0-1H6V3.5a.5.5 0 0 1 .5-.5z"></path></svg></g><g ></g><g ></g><g ></g></g><image  id="v-2465"></image></g></g><!--z-index:34--><g   id="j_175"  transform="translate(924,849)" style=""><g  id="v-2477" style="opacity: 1;"><rect  id="v-2478" rx="1" ry="1" stroke="#c7c7c7" stroke-width="2" pointer-events="visiblePainted" fill="#dddddd" width="450" height="300" style="fill: rgb(221, 221, 221); stroke: rgb(199, 199, 199);"></rect><text  id="v-2479" font-size="34" xml:space="preserve" y="0.8em" font-weight="bold" text-anchor="middle" pointer-events="visible" font-family="Open Sans" fill="#000000" transform="matrix(1,0,0,1,225,67.69999694824219)" style="fill: rgb(0, 0, 0);"><tspan  dy="0">Accounts and</tspan><tspan dy="1.2em" x="0" >Subscriptions</tspan></text><text  id="v-2480" font-size="17" xml:space="preserve" y="0.8em" text-anchor="middle" font-family="Open Sans" fill="#000000" transform="matrix(1,0,0,1,225,149.3000030517578)" style="fill: rgb(0, 0, 0);"><tspan  dy="0">[Software System]</tspan></text><text  id="v-2481" font-size="24" xml:space="preserve" y="0.8em" text-anchor="middle" font-family="Open Sans" fill="#000000" transform="matrix(1,0,0,1,225,179.6999969482422)" style="fill: rgb(0, 0, 0);"><tspan  dy="0">Mozilla Accounts and the</tspan><tspan dy="1.2em" x="0" >Subscription Platform.</tspan></text><g  id="v-2482" color="#000000" transform="matrix(1,0,0,1,222.5,268)" style="fill: rgb(0, 0, 0);" display="none"><g ></g><g ></g><g ></g><g ></g></g><image  id="v-2483"></image></g></g><!--z-index:35--><g   id="j_176"  transform="translate(769,1489)" style=""><g  id="v-2487" style="opacity: 1;"><rect  id="v-2488" rx="1" ry="1" stroke="#c7c7c7" stroke-width="2" pointer-events="visiblePainted" fill="#dddddd" width="450" height="300" style="fill: rgb(221, 221, 221); stroke: rgb(199, 199, 199);"></rect><text  id="v-2489" font-size="34" xml:space="preserve" y="0.8em" font-weight="bold" text-anchor="middle" pointer-events="visible" font-family="Open Sans" fill="#000000" transform="matrix(1,0,0,1,225,102.5)" style="fill: rgb(0, 0, 0);"><tspan  dy="0">Data Platform</tspan></text><text  id="v-2490" font-size="17" xml:space="preserve" y="0.8em" text-anchor="middle" font-family="Open Sans" fill="#000000" transform="matrix(1,0,0,1,225,143.3000030517578)" style="fill: rgb(0, 0, 0);"><tspan  dy="0">[Software System]</tspan></text><text  id="v-2491" font-size="24" xml:space="preserve" y="0.8em" text-anchor="middle" font-family="Open Sans" fill="#000000" transform="matrix(1,0,0,1,225,173.6999969482422)" style="fill: rgb(0, 0, 0);"><tspan  dy="0">The Mozilla Telemetry Platform</tspan></text><g  id="v-2492" color="#000000" transform="matrix(1,0,0,1,222.5,268)" style="fill: rgb(0, 0, 0);" display="none"><g ></g><g ></g><g ></g><g ></g></g><image  id="v-2493"></image></g></g><!--z-index:36--><g   id="j_177"  transform="translate(1819,1489)" style=""><g  id="v-2500" style="opacity: 1;"><rect  id="v-2501" rx="1" ry="1" stroke="#c7c7c7" stroke-width="2" pointer-events="visiblePainted" fill="#dddddd" width="450" height="300" style="fill: rgb(221, 221, 221); stroke: rgb(199, 199, 199);"></rect><text  id="v-2502" font-size="34" xml:space="preserve" y="0.8em" font-weight="bold" text-anchor="middle" pointer-events="visible" font-family="Open Sans" fill="#000000" transform="matrix(1,0,0,1,225,88.0999984741211)" style="fill: rgb(0, 0, 0);"><tspan  dy="0">Metrics Platform</tspan></text><text  id="v-2503" font-size="17" xml:space="preserve" y="0.8em" text-anchor="middle" font-family="Open Sans" fill="#000000" transform="matrix(1,0,0,1,225,128.89999389648438)" style="fill: rgb(0, 0, 0);"><tspan  dy="0">[Software System]</tspan></text><text  id="v-2504" font-size="24" xml:space="preserve" y="0.8em" text-anchor="middle" font-family="Open Sans" fill="#000000" transform="matrix(1,0,0,1,225,159.3000030517578)" style="fill: rgb(0, 0, 0);"><tspan  dy="0">The Mozilla real-time metrics and</tspan><tspan dy="1.2em" x="0" >reporting platform</tspan></text><g  id="v-2505" color="#000000" transform="matrix(1,0,0,1,222.5,268)" style="fill: rgb(0, 0, 0);" display="none"><g ></g><g ></g><g ></g><g ></g></g><image  id="v-2506"></image></g></g><!--z-index:37--><g   id="j_178"  transform="translate(1294,1489)" style=""><g  id="v-2510" style="opacity: 1;"><rect  id="v-2511" rx="1" ry="1" stroke="#c7c7c7" stroke-width="2" pointer-events="visiblePainted" fill="#dddddd" width="450" height="300" style="fill: rgb(221, 221, 221); stroke: rgb(199, 199, 199);"></rect><text  id="v-2512" font-size="34" xml:space="preserve" y="0.8em" font-weight="bold" text-anchor="middle" pointer-events="visible" font-family="Open Sans" fill="#000000" transform="matrix(1,0,0,1,225,88.0999984741211)" style="fill: rgb(0, 0, 0);"><tspan  dy="0">Sentry</tspan></text><text  id="v-2513" font-size="17" xml:space="preserve" y="0.8em" text-anchor="middle" font-family="Open Sans" fill="#000000" transform="matrix(1,0,0,1,225,128.89999389648438)" style="fill: rgb(0, 0, 0);"><tspan  dy="0">[Software System]</tspan></text><text  id="v-2514" font-size="24" xml:space="preserve" y="0.8em" text-anchor="middle" font-family="Open Sans" fill="#000000" transform="matrix(1,0,0,1,225,159.3000030517578)" style="fill: rgb(0, 0, 0);"><tspan  dy="0">Collects and organizes tracebacks</tspan><tspan dy="1.2em" x="0" >and errors</tspan></text><g  id="v-2515" color="#000000" transform="matrix(1,0,0,1,222.5,268)" style="fill: rgb(0, 0, 0);" display="none"><g ></g><g ></g><g ></g><g ></g></g><image  id="v-2516"></image></g></g><!--z-index:38--><g   id="j_179"  transform="translate(199,1419)" style=""><g  id="v-2523" style="opacity: 1;"><rect  id="v-2524" rx="1" ry="1" stroke="#c7c7c7" stroke-width="2" pointer-events="visiblePainted" fill="#dddddd" width="450" height="300" style="fill: rgb(221, 221, 221); stroke: rgb(199, 199, 199);"></rect><text  id="v-2525" font-size="34" xml:space="preserve" y="0.8em" font-weight="bold" text-anchor="middle" pointer-events="visible" font-family="Open Sans" fill="#000000" transform="matrix(1,0,0,1,225,88.0999984741211)" style="fill: rgb(0, 0, 0);"><tspan  dy="0">Google Analytics</tspan></text><text  id="v-2526" font-size="17" xml:space="preserve" y="0.8em" text-anchor="middle" font-family="Open Sans" fill="#000000" transform="matrix(1,0,0,1,225,128.89999389648438)" style="fill: rgb(0, 0, 0);"><tspan  dy="0">[Software System]</tspan></text><text  id="v-2527" font-size="24" xml:space="preserve" y="0.8em" text-anchor="middle" font-family="Open Sans" fill="#000000" transform="matrix(1,0,0,1,225,159.3000030517578)" style="fill: rgb(0, 0, 0);"><tspan  dy="0">Collects and reports interaction</tspan><tspan dy="1.2em" x="0" >events</tspan></text><g  id="v-2528" color="#000000" transform="matrix(1,0,0,1,222.5,268)" style="fill: rgb(0, 0, 0);" display="none"><g ></g><g ></g><g ></g><g ></g></g><image  id="v-2529"></image></g></g><!--z-index:39--><g   id="j_180"  transform="translate(199,1055)" style=""><g  id="v-2533" style="opacity: 1;"><rect  id="v-2534" rx="1" ry="1" stroke="#c7c7c7" stroke-width="2" pointer-events="visiblePainted" fill="#dddddd" width="450" height="300" style="fill: rgb(221, 221, 221); stroke: rgb(199, 199, 199);"></rect><text  id="v-2535" font-size="34" xml:space="preserve" y="0.8em" font-weight="bold" text-anchor="middle" pointer-events="visible" font-family="Open Sans" fill="#000000" transform="matrix(1,0,0,1,225,88.0999984741211)" style="fill: rgb(0, 0, 0);"><tspan  dy="0">Stripe</tspan></text><text  id="v-2536" font-size="17" xml:space="preserve" y="0.8em" text-anchor="middle" font-family="Open Sans" fill="#000000" transform="matrix(1,0,0,1,225,128.89999389648438)" style="fill: rgb(0, 0, 0);"><tspan  dy="0">[Software System]</tspan></text><text  id="v-2537" font-size="24" xml:space="preserve" y="0.8em" text-anchor="middle" font-family="Open Sans" fill="#000000" transform="matrix(1,0,0,1,225,159.3000030517578)" style="fill: rgb(0, 0, 0);"><tspan  dy="0">Handles billing and payment</tspan><tspan dy="1.2em" x="0" >processing</tspan></text><g  id="v-2538" color="#000000" transform="matrix(1,0,0,1,222.5,268)" style="fill: rgb(0, 0, 0);" display="none"><g ></g><g ></g><g ></g><g ></g></g><image  id="v-2539"></image></g></g><!--z-index:40--><g   id="j_181" ><path  stroke="#707070" d="M 1854 855 L 1817 632 C 1815.6666666666665 625.3333333333333 1812.3333333333333 620 1807 616 L 1699 541" id="v-2556" stroke-width="2" stroke-dasharray="30 30" fill="none" style="opacity: 1;"></path><path  fill="black" stroke="black" d="M 0 0 0 0" transform="matrix(-0.16479702293872833,-0.9863275289535522,0.9863275289535522,-0.16479702293872833,1853.9300537109375,855)"></path><path  fill="#707070" stroke="#707070" d="M 20 0 L 0 10 L 20 20 z" id="v-2558" transform="matrix(0.8182697296142578,0.5748344659805298,-0.5748344659805298,0.8182697296142578,1704.7484130859375,532.3273315429688)" style="opacity: 1;"></path><path  d="M 1854 855 L 1817 632 C 1815.6666666666665 625.3333333333333 1812.3333333333333 620 1807 616 L 1699 541" id="v-2557" fill="none" style="cursor: default;"></path><g ><g id="v-2547"  label-idx="0" cursor="move" transform="matrix(1,0,0,1,1823.1580810546875,669.115234375)" style="cursor: default; opacity: 1;"><rect joint-selector="rect" id="v-2551" fill="#ffffff" rx="3" ry="3" pointer-events="none" width="181.7315673828125" height="34.860591888427734" transform="matrix(1,0,0,1,-90.9000015258789,-17.399999618530273)"></rect><text joint-selector="text" id="v-2550" font-size="24px" xml:space="preserve" y="0.8em" fill="#707070" text-anchor="middle" pointer-events="none" font-family="Open Sans" font-weight="normal" transform="matrix(1,0,0,1,0,-9.199999809265137)"><tspan  dy="0">Forwards email</tspan></text></g><g id="v-2548"  label-idx="1" cursor="move" transform="matrix(1,0,0,1,1823.1580810546875,695.5152587890625)" style="cursor: default; opacity: 1;"><rect joint-selector="rect" id="v-2553" fill="#ffffff" rx="3" ry="3" pointer-events="none" width="242.10833740234375" height="25.5" transform="matrix(1,0,0,1,-121.0999984741211,-12.699999809265137)"></rect><text joint-selector="text" id="v-2552" font-size="17px" xml:space="preserve" y="0.8em" fill="#707070" text-anchor="middle" pointer-events="none" font-family="Open Sans" font-weight="normal" transform="matrix(1,0,0,1,0,-7.199999809265137)"><tspan  dy="0">[Internet Mail System / SMTP]</tspan></text></g><g id="v-2549"  label-idx="2" cursor="move" transform="matrix(1,0,0,1,1813.1580810546875,703.915283203125)" style="cursor: default; opacity: 1;"><rect joint-selector="rect" id="v-2555" fill="#ffffff" rx="3" ry="3"  width="0" height="0" transform="matrix(1,0,0,1,0,0)" display="none"></rect><text joint-selector="text" id="v-2554" fill="#000000" font-size="14" text-anchor="middle" pointer-events="none"></text></g></g><g  display="none"><g  transform="translate(1815, 622)" id="v-2544"><circle  idx="0" r="10"></circle><path  idx="0" d="M16,5.333c-7.732,0-14,4.701-14,10.5c0,1.982,0.741,3.833,2.016,5.414L2,25.667l5.613-1.441c2.339,1.317,5.237,2.107,8.387,2.107c7.732,0,14-4.701,14-10.5C30,10.034,23.732,5.333,16,5.333z" transform="translate(5, -33)"></path><path  idx="0" transform="scale(.8) translate(9.5, -37)" d="M24.778,21.419 19.276,15.917 24.777,10.415 21.949,7.585 16.447,13.087 10.945,7.585 8.117,10.415 13.618,15.917 8.116,21.419 10.946,24.248 16.447,18.746 21.948,24.248z"><title>Remove vertex.</title></path></g></g><g  id="v-2560" display="none"><g  id="v-2545"><path  end="source" d="M 26 0 L 0 13 L 26 26 z"></path></g><g  id="v-2546"><path  end="target" d="M 26 0 L 0 13 L 26 26 z"></path></g></g><g  id="v-2559" display="none"><g  id="v-2543" transform="translate(1847.452737335259, 815.539470966561) "><g  event="remove"><circle r="11"></circle><path transform="scale(.8) translate(-16, -16)" d="M24.778,21.419 19.276,15.917 24.777,10.415 21.949,7.585 16.447,13.087 10.945,7.585 8.117,10.415 13.618,15.917 8.116,21.419 10.946,24.248 16.447,18.746 21.948,24.248z"></path><title>Remove link.</title></g><g  event="link:options"><circle r="11" transform="translate(25)"></circle><path fill="white" transform="scale(.55) translate(29, -16)" d="M31.229,17.736c0.064-0.571,0.104-1.148,0.104-1.736s-0.04-1.166-0.104-1.737l-4.377-1.557c-0.218-0.716-0.504-1.401-0.851-2.05l1.993-4.192c-0.725-0.91-1.549-1.734-2.458-2.459l-4.193,1.994c-0.647-0.347-1.334-0.632-2.049-0.849l-1.558-4.378C17.165,0.708,16.588,0.667,16,0.667s-1.166,0.041-1.737,0.105L12.707,5.15c-0.716,0.217-1.401,0.502-2.05,0.849L6.464,4.005C5.554,4.73,4.73,5.554,4.005,6.464l1.994,4.192c-0.347,0.648-0.632,1.334-0.849,2.05l-4.378,1.557C0.708,14.834,0.667,15.412,0.667,16s0.041,1.165,0.105,1.736l4.378,1.558c0.217,0.715,0.502,1.401,0.849,2.049l-1.994,4.193c0.725,0.909,1.549,1.733,2.459,2.458l4.192-1.993c0.648,0.347,1.334,0.633,2.05,0.851l1.557,4.377c0.571,0.064,1.148,0.104,1.737,0.104c0.588,0,1.165-0.04,1.736-0.104l1.558-4.377c0.715-0.218,1.399-0.504,2.049-0.851l4.193,1.993c0.909-0.725,1.733-1.549,2.458-2.458l-1.993-4.193c0.347-0.647,0.633-1.334,0.851-2.049L31.229,17.736zM16,20.871c-2.69,0-4.872-2.182-4.872-4.871c0-2.69,2.182-4.872,4.872-4.872c2.689,0,4.871,2.182,4.871,4.872C20.871,18.689,18.689,20.871,16,20.871z"></path><title>Link options.</title></g></g></g></g><!--z-index:41--><g   id="j_182" ><path  stroke="#707070" d="M 2015 1155 L 2163 1318 C 2167.6666666666665 1322.6666666666665 2173.333333333333 1326 2180 1328 L 2394 1391" id="v-2577" stroke-width="2" stroke-dasharray="30 30" fill="none" style="opacity: 1;"></path><path  fill="black" stroke="black" d="M 0 0 0 0" transform="matrix(0.6727789044380188,0.7398436069488525,-0.7398436069488525,0.6727789044380188,2015.4100341796875,1155)"></path><path  fill="#707070" stroke="#707070" d="M 20 0 L 0 10 L 20 20 z" id="v-2579" transform="matrix(-0.9591825604438782,-0.28278765082359314,0.28278765082359314,-0.9591825604438782,2391.172119140625,1400.6318359375)" style="opacity: 1;"></path><path  d="M 2015 1155 L 2163 1318 C 2167.6666666666665 1322.6666666666665 2173.333333333333 1326 2180 1328 L 2394 1391" id="v-2578" fill="none" style="cursor: default;"></path><g ><g id="v-2568"  label-idx="0" cursor="move" transform="matrix(1,0,0,1,2172.130615234375,1324.775146484375)" style="cursor: default; opacity: 1;"><rect joint-selector="rect" id="v-2572" fill="#ffffff" rx="3" ry="3" pointer-events="none" width="158.61569213867188" height="34.860591888427734" transform="matrix(1,0,0,1,-79.30000305175781,-17.399999618530273)"></rect><text joint-selector="text" id="v-2571" font-size="24px" xml:space="preserve" y="0.8em" fill="#707070" text-anchor="middle" pointer-events="none" font-family="Open Sans" font-weight="normal" transform="matrix(1,0,0,1,0,-9.199999809265137)"><tspan  dy="0">Sends replies</tspan></text></g><g id="v-2569"  label-idx="1" cursor="move" transform="matrix(1,0,0,1,2172.130615234375,1351.1751708984375)" style="cursor: default; opacity: 1;"><rect joint-selector="rect" id="v-2574" fill="#ffffff" rx="3" ry="3" pointer-events="none" width="242.10833740234375" height="25.5" transform="matrix(1,0,0,1,-121.0999984741211,-12.699999809265137)"></rect><text joint-selector="text" id="v-2573" font-size="17px" xml:space="preserve" y="0.8em" fill="#707070" text-anchor="middle" pointer-events="none" font-family="Open Sans" font-weight="normal" transform="matrix(1,0,0,1,0,-7.199999809265137)"><tspan  dy="0">[Internet Mail System / SMTP]</tspan></text></g><g id="v-2570"  label-idx="2" cursor="move" transform="matrix(1,0,0,1,2162.130615234375,1359.5750732421875)" style="cursor: default; opacity: 1;"><rect joint-selector="rect" id="v-2576" fill="#ffffff" rx="3" ry="3"  width="0" height="0" transform="matrix(1,0,0,1,0,0)" display="none"></rect><text joint-selector="text" id="v-2575" fill="#000000" font-size="14" text-anchor="middle" pointer-events="none"></text></g></g><g  display="none"><g  transform="translate(2170, 1325)" id="v-2565"><circle  idx="0" r="10"></circle><path  idx="0" d="M16,5.333c-7.732,0-14,4.701-14,10.5c0,1.982,0.741,3.833,2.016,5.414L2,25.667l5.613-1.441c2.339,1.317,5.237,2.107,8.387,2.107c7.732,0,14-4.701,14-10.5C30,10.034,23.732,5.333,16,5.333z" transform="translate(5, -33)"></path><path  idx="0" transform="scale(.8) translate(9.5, -37)" d="M24.778,21.419 19.276,15.917 24.777,10.415 21.949,7.585 16.447,13.087 10.945,7.585 8.117,10.415 13.618,15.917 8.116,21.419 10.946,24.248 16.447,18.746 21.948,24.248z"><title>Remove vertex.</title></path></g></g><g  id="v-2581" display="none"><g  id="v-2566"><path  end="source" d="M 26 0 L 0 13 L 26 26 z"></path></g><g  id="v-2567"><path  end="target" d="M 26 0 L 0 13 L 26 26 z"></path></g></g><g  id="v-2580" display="none"><g  id="v-2564" transform="translate(2041.8888208229268, 1184.6140391495746) "><g  event="remove"><circle r="11"></circle><path transform="scale(.8) translate(-16, -16)" d="M24.778,21.419 19.276,15.917 24.777,10.415 21.949,7.585 16.447,13.087 10.945,7.585 8.117,10.415 13.618,15.917 8.116,21.419 10.946,24.248 16.447,18.746 21.948,24.248z"></path><title>Remove link.</title></g><g  event="link:options"><circle r="11" transform="translate(25)"></circle><path fill="white" transform="scale(.55) translate(29, -16)" d="M31.229,17.736c0.064-0.571,0.104-1.148,0.104-1.736s-0.04-1.166-0.104-1.737l-4.377-1.557c-0.218-0.716-0.504-1.401-0.851-2.05l1.993-4.192c-0.725-0.91-1.549-1.734-2.458-2.459l-4.193,1.994c-0.647-0.347-1.334-0.632-2.049-0.849l-1.558-4.378C17.165,0.708,16.588,0.667,16,0.667s-1.166,0.041-1.737,0.105L12.707,5.15c-0.716,0.217-1.401,0.502-2.05,0.849L6.464,4.005C5.554,4.73,4.73,5.554,4.005,6.464l1.994,4.192c-0.347,0.648-0.632,1.334-0.849,2.05l-4.378,1.557C0.708,14.834,0.667,15.412,0.667,16s0.041,1.165,0.105,1.736l4.378,1.558c0.217,0.715,0.502,1.401,0.849,2.049l-1.994,4.193c0.725,0.909,1.549,1.733,2.459,2.458l4.192-1.993c0.648,0.347,1.334,0.633,2.05,0.851l1.557,4.377c0.571,0.064,1.148,0.104,1.737,0.104c0.588,0,1.165-0.04,1.736-0.104l1.558-4.377c0.715-0.218,1.399-0.504,2.049-0.851l4.193,1.993c0.909-0.725,1.733-1.549,2.458-2.458l-1.993-4.193c0.347-0.647,0.633-1.334,0.851-2.049L31.229,17.736zM16,20.871c-2.69,0-4.872-2.182-4.872-4.871c0-2.69,2.182-4.872,4.872-4.872c2.689,0,4.871,2.182,4.871,4.872C20.871,18.689,18.689,20.871,16,20.871z"></path><title>Link options.</title></g></g></g></g><!--z-index:42--><g   id="j_183" ><path  stroke="#707070" d="M 2394 886 L 2104 953" id="v-2597" stroke-width="2" stroke-dasharray="30 30" fill="none" style="opacity: 1;"></path><path  fill="black" stroke="black" d="M 0 0 0 0" transform="matrix(-0.9743860960006714,0.22488151490688324,-0.22488151490688324,-0.9743860960006714,2394,886.1500244140625)"></path><path  fill="#707070" stroke="#707070" d="M 20 0 L 0 10 L 20 20 z" id="v-2599" transform="matrix(0.9743860960006714,-0.22488151490688324,0.22488151490688324,0.9743860960006714,2101.751220703125,943.3361206054688)" style="opacity: 1;"></path><path  d="M 2394 886 L 2104 953" id="v-2598" fill="none" style="cursor: default;"></path><g ><g id="v-2588"  label-idx="0" cursor="move" transform="matrix(1,0,0,1,2249,919.5)" style="cursor: default; opacity: 1;"><rect joint-selector="rect" id="v-2592" fill="#ffffff" rx="3" ry="3" pointer-events="none" width="133.5907745361328" height="34.860591888427734" transform="matrix(1,0,0,1,-66.80000305175781,-17.399999618530273)"></rect><text joint-selector="text" id="v-2591" font-size="24px" xml:space="preserve" y="0.8em" fill="#707070" text-anchor="middle" pointer-events="none" font-family="Open Sans" font-weight="normal" transform="matrix(1,0,0,1,0,-9.199999809265137)"><tspan  dy="0">Texts, Calls</tspan></text></g><g id="v-2589"  label-idx="1" cursor="move" transform="matrix(1,0,0,1,2249,945.9000244140625)" style="cursor: default; opacity: 1;"><rect joint-selector="rect" id="v-2594" fill="#ffffff" rx="3" ry="3" pointer-events="none" width="61.306251525878906" height="25.5" transform="matrix(1,0,0,1,-30.700000762939453,-12.699999809265137)"></rect><text joint-selector="text" id="v-2593" font-size="17px" xml:space="preserve" y="0.8em" fill="#707070" text-anchor="middle" pointer-events="none" font-family="Open Sans" font-weight="normal" transform="matrix(1,0,0,1,0,-7.199999809265137)"><tspan  dy="0">[PSTN]</tspan></text></g><g id="v-2590"  label-idx="2" cursor="move" transform="matrix(1,0,0,1,2239,954.2999877929688)" style="cursor: default; opacity: 1;"><rect joint-selector="rect" id="v-2596" fill="#ffffff" rx="3" ry="3"  width="0" height="0" transform="matrix(1,0,0,1,0,0)" display="none"></rect><text joint-selector="text" id="v-2595" fill="#000000" font-size="14" text-anchor="middle" pointer-events="none"></text></g></g><g  display="none"></g><g  id="v-2601" display="none"><g  id="v-2586"><path  end="source" d="M 26 0 L 0 13 L 26 26 z"></path></g><g  id="v-2587"><path  end="target" d="M 26 0 L 0 13 L 26 26 z"></path></g></g><g  id="v-2600" display="none"><g  id="v-2585" transform="translate(2355.0266184244238, 895.0041950536678) "><g  event="remove"><circle r="11"></circle><path transform="scale(.8) translate(-16, -16)" d="M24.778,21.419 19.276,15.917 24.777,10.415 21.949,7.585 16.447,13.087 10.945,7.585 8.117,10.415 13.618,15.917 8.116,21.419 10.946,24.248 16.447,18.746 21.948,24.248z"></path><title>Remove link.</title></g><g  event="link:options"><circle r="11" transform="translate(25)"></circle><path fill="white" transform="scale(.55) translate(29, -16)" d="M31.229,17.736c0.064-0.571,0.104-1.148,0.104-1.736s-0.04-1.166-0.104-1.737l-4.377-1.557c-0.218-0.716-0.504-1.401-0.851-2.05l1.993-4.192c-0.725-0.91-1.549-1.734-2.458-2.459l-4.193,1.994c-0.647-0.347-1.334-0.632-2.049-0.849l-1.558-4.378C17.165,0.708,16.588,0.667,16,0.667s-1.166,0.041-1.737,0.105L12.707,5.15c-0.716,0.217-1.401,0.502-2.05,0.849L6.464,4.005C5.554,4.73,4.73,5.554,4.005,6.464l1.994,4.192c-0.347,0.648-0.632,1.334-0.849,2.05l-4.378,1.557C0.708,14.834,0.667,15.412,0.667,16s0.041,1.165,0.105,1.736l4.378,1.558c0.217,0.715,0.502,1.401,0.849,2.049l-1.994,4.193c0.725,0.909,1.549,1.733,2.459,2.458l4.192-1.993c0.648,0.347,1.334,0.633,2.05,0.851l1.557,4.377c0.571,0.064,1.148,0.104,1.737,0.104c0.588,0,1.165-0.04,1.736-0.104l1.558-4.377c0.715-0.218,1.399-0.504,2.049-0.851l4.193,1.993c0.909-0.725,1.733-1.549,2.458-2.458l-1.993-4.193c0.347-0.647,0.633-1.334,0.851-2.049L31.229,17.736zM16,20.871c-2.69,0-4.872-2.182-4.872-4.871c0-2.69,2.182-4.872,4.872-4.872c2.689,0,4.871,2.182,4.871,4.872C20.871,18.689,18.689,20.871,16,20.871z"></path><title>Link options.</title></g></g></g></g><!--z-index:43--><g   id="j_184" ><path  stroke="#707070" d="M 1918 1155 L 2005 1489" id="v-2617" stroke-width="2" stroke-dasharray="30 30" fill="none" style="opacity: 1;"></path><path  fill="black" stroke="black" d="M 0 0 0 0" transform="matrix(0.2518509030342102,0.9677660465240479,-0.9677660465240479,0.2518509030342102,1918.0400390625,1155)"></path><path  fill="#707070" stroke="#707070" d="M 20 0 L 0 10 L 20 20 z" id="v-2619" transform="matrix(-0.2518509030342102,-0.9677660465240479,0.9677660465240479,-0.2518509030342102,1995.2823486328125,1491.5185546875)" style="opacity: 1;"></path><path  d="M 1918 1155 L 2005 1489" id="v-2618" fill="none" style="cursor: default;"></path><g ><g id="v-2608"  label-idx="0" cursor="move" transform="matrix(1,0,0,1,1961.5,1322)" style="cursor: default; opacity: 1;"><rect joint-selector="rect" id="v-2612" fill="#ffffff" rx="3" ry="3" pointer-events="none" width="166.6253204345703" height="34.860591888427734" transform="matrix(1,0,0,1,-83.30000305175781,-17.399999618530273)"></rect><text joint-selector="text" id="v-2611" font-size="24px" xml:space="preserve" y="0.8em" fill="#707070" text-anchor="middle" pointer-events="none" font-family="Open Sans" font-weight="normal" transform="matrix(1,0,0,1,0,-9.199999809265137)"><tspan  dy="0">Sends metrics</tspan></text></g><g id="v-2609"  label-idx="1" cursor="move" transform="matrix(1,0,0,1,1961.5,1348.4000244140625)" style="cursor: default; opacity: 1;"><rect joint-selector="rect" id="v-2614" fill="#ffffff" rx="3" ry="3" pointer-events="none" width="83.72500610351562" height="25.5" transform="matrix(1,0,0,1,-41.900001525878906,-12.699999809265137)"></rect><text joint-selector="text" id="v-2613" font-size="17px" xml:space="preserve" y="0.8em" fill="#707070" text-anchor="middle" pointer-events="none" font-family="Open Sans" font-weight="normal" transform="matrix(1,0,0,1,0,-7.199999809265137)"><tspan  dy="0">[Telegraf]</tspan></text></g><g id="v-2610"  label-idx="2" cursor="move" transform="matrix(1,0,0,1,1951.5,1356.800048828125)" style="cursor: default; opacity: 1;"><rect joint-selector="rect" id="v-2616" fill="#ffffff" rx="3" ry="3"  width="0" height="0" transform="matrix(1,0,0,1,0,0)" display="none"></rect><text joint-selector="text" id="v-2615" fill="#000000" font-size="14" text-anchor="middle" pointer-events="none"></text></g></g><g  display="none"></g><g  id="v-2621" display="none"><g  id="v-2606"><path  end="source" d="M 26 0 L 0 13 L 26 26 z"></path></g><g  id="v-2607"><path  end="target" d="M 26 0 L 0 13 L 26 26 z"></path></g></g><g  id="v-2620" display="none"><g  id="v-2605" transform="translate(1928.0827218630632, 1193.7083804857825) "><g  event="remove"><circle r="11"></circle><path transform="scale(.8) translate(-16, -16)" d="M24.778,21.419 19.276,15.917 24.777,10.415 21.949,7.585 16.447,13.087 10.945,7.585 8.117,10.415 13.618,15.917 8.116,21.419 10.946,24.248 16.447,18.746 21.948,24.248z"></path><title>Remove link.</title></g><g  event="link:options"><circle r="11" transform="translate(25)"></circle><path fill="white" transform="scale(.55) translate(29, -16)" d="M31.229,17.736c0.064-0.571,0.104-1.148,0.104-1.736s-0.04-1.166-0.104-1.737l-4.377-1.557c-0.218-0.716-0.504-1.401-0.851-2.05l1.993-4.192c-0.725-0.91-1.549-1.734-2.458-2.459l-4.193,1.994c-0.647-0.347-1.334-0.632-2.049-0.849l-1.558-4.378C17.165,0.708,16.588,0.667,16,0.667s-1.166,0.041-1.737,0.105L12.707,5.15c-0.716,0.217-1.401,0.502-2.05,0.849L6.464,4.005C5.554,4.73,4.73,5.554,4.005,6.464l1.994,4.192c-0.347,0.648-0.632,1.334-0.849,2.05l-4.378,1.557C0.708,14.834,0.667,15.412,0.667,16s0.041,1.165,0.105,1.736l4.378,1.558c0.217,0.715,0.502,1.401,0.849,2.049l-1.994,4.193c0.725,0.909,1.549,1.733,2.459,2.458l4.192-1.993c0.648,0.347,1.334,0.633,2.05,0.851l1.557,4.377c0.571,0.064,1.148,0.104,1.737,0.104c0.588,0,1.165-0.04,1.736-0.104l1.558-4.377c0.715-0.218,1.399-0.504,2.049-0.851l4.193,1.993c0.909-0.725,1.733-1.549,2.458-2.458l-1.993-4.193c0.347-0.647,0.633-1.334,0.851-2.049L31.229,17.736zM16,20.871c-2.69,0-4.872-2.182-4.872-4.871c0-2.69,2.182-4.872,4.872-4.872c2.689,0,4.871,2.182,4.871,4.872C20.871,18.689,18.689,20.871,16,20.871z"></path><title>Link options.</title></g></g></g></g><!--z-index:44--><g   id="j_185" ><path  stroke="#707070" d="M 1670 1155 L 1203 1489" id="v-2637" stroke-width="2" stroke-dasharray="30 30" fill="none" style="opacity: 1;"></path><path  fill="black" stroke="black" d="M 0 0 0 0" transform="matrix(-0.8129315376281738,0.582359254360199,-0.582359254360199,-0.8129315376281738,1669.6199951171875,1155)"></path><path  fill="#707070" stroke="#707070" d="M 20 0 L 0 10 L 20 20 z" id="v-2639" transform="matrix(0.8129316568374634,-0.5823590755462646,0.5823590755462646,0.8129316568374634,1197.556396484375,1480.87060546875)" style="opacity: 1;"></path><path  d="M 1670 1155 L 1203 1489" id="v-2638" fill="none" style="cursor: default;"></path><g ><g id="v-2628"  label-idx="0" cursor="move" transform="matrix(1,0,0,1,1436.5,1322)" style="cursor: default; opacity: 1;"><rect joint-selector="rect" id="v-2632" fill="#ffffff" rx="3" ry="3" pointer-events="none" width="148.61402893066406" height="63.66059494018555" transform="matrix(1,0,0,1,-74.30000305175781,-31.799999237060547)"></rect><text joint-selector="text" id="v-2631" font-size="24px" xml:space="preserve" y="0.8em" fill="#707070" text-anchor="middle" pointer-events="none" font-family="Open Sans" font-weight="normal" transform="matrix(1,0,0,1,0,-23.600000381469727)"><tspan  dy="0">Sends Glean</tspan><tspan dy="1.2em" x="0" >events</tspan></text></g><g id="v-2629"  label-idx="1" cursor="move" transform="matrix(1,0,0,1,1436.5,1362.800048828125)" style="cursor: default; opacity: 1;"><rect joint-selector="rect" id="v-2634" fill="#ffffff" rx="3" ry="3" pointer-events="none" width="172.72708129882812" height="25.5" transform="matrix(1,0,0,1,-86.4000015258789,-12.699999809265137)"></rect><text joint-selector="text" id="v-2633" font-size="17px" xml:space="preserve" y="0.8em" fill="#707070" text-anchor="middle" pointer-events="none" font-family="Open Sans" font-weight="normal" transform="matrix(1,0,0,1,0,-7.199999809265137)"><tspan  dy="0">[JSON over GCP SNS]</tspan></text></g><g id="v-2630"  label-idx="2" cursor="move" transform="matrix(1,0,0,1,1426.5,1371.199951171875)" style="cursor: default; opacity: 1;"><rect joint-selector="rect" id="v-2636" fill="#ffffff" rx="3" ry="3"  width="0" height="0" transform="matrix(1,0,0,1,0,0)" display="none"></rect><text joint-selector="text" id="v-2635" fill="#000000" font-size="14" text-anchor="middle" pointer-events="none"></text></g></g><g  display="none"></g><g  id="v-2641" display="none"><g  id="v-2626"><path  end="source" d="M 26 0 L 0 13 L 26 26 z"></path></g><g  id="v-2627"><path  end="target" d="M 26 0 L 0 13 L 26 26 z"></path></g></g><g  id="v-2640" display="none"><g  id="v-2625" transform="translate(1637.4647891587324, 1178.2692942633475) "><g  event="remove"><circle r="11"></circle><path transform="scale(.8) translate(-16, -16)" d="M24.778,21.419 19.276,15.917 24.777,10.415 21.949,7.585 16.447,13.087 10.945,7.585 8.117,10.415 13.618,15.917 8.116,21.419 10.946,24.248 16.447,18.746 21.948,24.248z"></path><title>Remove link.</title></g><g  event="link:options"><circle r="11" transform="translate(25)"></circle><path fill="white" transform="scale(.55) translate(29, -16)" d="M31.229,17.736c0.064-0.571,0.104-1.148,0.104-1.736s-0.04-1.166-0.104-1.737l-4.377-1.557c-0.218-0.716-0.504-1.401-0.851-2.05l1.993-4.192c-0.725-0.91-1.549-1.734-2.458-2.459l-4.193,1.994c-0.647-0.347-1.334-0.632-2.049-0.849l-1.558-4.378C17.165,0.708,16.588,0.667,16,0.667s-1.166,0.041-1.737,0.105L12.707,5.15c-0.716,0.217-1.401,0.502-2.05,0.849L6.464,4.005C5.554,4.73,4.73,5.554,4.005,6.464l1.994,4.192c-0.347,0.648-0.632,1.334-0.849,2.05l-4.378,1.557C0.708,14.834,0.667,15.412,0.667,16s0.041,1.165,0.105,1.736l4.378,1.558c0.217,0.715,0.502,1.401,0.849,2.049l-1.994,4.193c0.725,0.909,1.549,1.733,2.459,2.458l4.192-1.993c0.648,0.347,1.334,0.633,2.05,0.851l1.557,4.377c0.571,0.064,1.148,0.104,1.737,0.104c0.588,0,1.165-0.04,1.736-0.104l1.558-4.377c0.715-0.218,1.399-0.504,2.049-0.851l4.193,1.993c0.909-0.725,1.733-1.549,2.458-2.458l-1.993-4.193c0.347-0.647,0.633-1.334,0.851-2.049L31.229,17.736zM16,20.871c-2.69,0-4.872-2.182-4.872-4.871c0-2.69,2.182-4.872,4.872-4.872c2.689,0,4.871,2.182,4.871,4.872C20.871,18.689,18.689,20.871,16,20.871z"></path><title>Link options.</title></g></g></g></g><!--z-index:45--><g   id="j_186" ><path  stroke="#707070" d="M 1382 600 L 1237 849" id="v-2657" stroke-width="2" stroke-dasharray="30 30" fill="none" style="opacity: 1;"></path><path  fill="black" stroke="black" d="M 0 0 0 0" transform="matrix(-0.5044918060302734,0.8634164929389954,-0.8634164929389954,-0.5044918060302734,1382.1400146484375,600)"></path><path  fill="#707070" stroke="#707070" d="M 20 0 L 0 10 L 20 20 z" id="v-2659" transform="matrix(0.5044920444488525,-0.8634163737297058,0.8634163737297058,0.5044920444488525,1228.015869140625,843.955078125)" style="opacity: 1;"></path><path  d="M 1382 600 L 1237 849" id="v-2658" fill="none" style="cursor: default;"></path><g ><g id="v-2648"  label-idx="0" cursor="move" transform="matrix(1,0,0,1,1309.5,724.5)" style="cursor: default; opacity: 1;"><rect joint-selector="rect" id="v-2652" fill="#ffffff" rx="3" ry="3" pointer-events="none" width="136.5373077392578" height="92.46059036254883" transform="matrix(1,0,0,1,-68.30000305175781,-46.20000076293945)"></rect><text joint-selector="text" id="v-2651" font-size="24px" xml:space="preserve" y="0.8em" fill="#707070" text-anchor="middle" pointer-events="none" font-family="Open Sans" font-weight="normal" transform="matrix(1,0,0,1,0,-38)"><tspan  dy="0">Registers,</tspan><tspan dy="1.2em" x="0" >manages</tspan><tspan dy="1.2em" x="0" >subcription</tspan></text></g><g id="v-2649"  label-idx="1" cursor="move" transform="matrix(1,0,0,1,1309.5,779.7000122070312)" style="cursor: default; opacity: 1;"><rect joint-selector="rect" id="v-2654" fill="#ffffff" rx="3" ry="3" pointer-events="none" width="70.40834045410156" height="25.5" transform="matrix(1,0,0,1,-35.20000076293945,-12.699999809265137)"></rect><text joint-selector="text" id="v-2653" font-size="17px" xml:space="preserve" y="0.8em" fill="#707070" text-anchor="middle" pointer-events="none" font-family="Open Sans" font-weight="normal" transform="matrix(1,0,0,1,0,-7.199999809265137)"><tspan  dy="0">[HTTPS]</tspan></text></g><g id="v-2650"  label-idx="2" cursor="move" transform="matrix(1,0,0,1,1299.5,788.0999755859375)" style="cursor: default; opacity: 1;"><rect joint-selector="rect" id="v-2656" fill="#ffffff" rx="3" ry="3"  width="0" height="0" transform="matrix(1,0,0,1,0,0)" display="none"></rect><text joint-selector="text" id="v-2655" fill="#000000" font-size="14" text-anchor="middle" pointer-events="none"></text></g></g><g  display="none"></g><g  id="v-2661" display="none"><g  id="v-2646"><path  end="source" d="M 26 0 L 0 13 L 26 26 z"></path></g><g  id="v-2647"><path  end="target" d="M 26 0 L 0 13 L 26 26 z"></path></g></g><g  id="v-2660" display="none"><g  id="v-2645" transform="translate(1361.8710585783851, 634.5662511309109) "><g  event="remove"><circle r="11"></circle><path transform="scale(.8) translate(-16, -16)" d="M24.778,21.419 19.276,15.917 24.777,10.415 21.949,7.585 16.447,13.087 10.945,7.585 8.117,10.415 13.618,15.917 8.116,21.419 10.946,24.248 16.447,18.746 21.948,24.248z"></path><title>Remove link.</title></g><g  event="link:options"><circle r="11" transform="translate(25)"></circle><path fill="white" transform="scale(.55) translate(29, -16)" d="M31.229,17.736c0.064-0.571,0.104-1.148,0.104-1.736s-0.04-1.166-0.104-1.737l-4.377-1.557c-0.218-0.716-0.504-1.401-0.851-2.05l1.993-4.192c-0.725-0.91-1.549-1.734-2.458-2.459l-4.193,1.994c-0.647-0.347-1.334-0.632-2.049-0.849l-1.558-4.378C17.165,0.708,16.588,0.667,16,0.667s-1.166,0.041-1.737,0.105L12.707,5.15c-0.716,0.217-1.401,0.502-2.05,0.849L6.464,4.005C5.554,4.73,4.73,5.554,4.005,6.464l1.994,4.192c-0.347,0.648-0.632,1.334-0.849,2.05l-4.378,1.557C0.708,14.834,0.667,15.412,0.667,16s0.041,1.165,0.105,1.736l4.378,1.558c0.217,0.715,0.502,1.401,0.849,2.049l-1.994,4.193c0.725,0.909,1.549,1.733,2.459,2.458l4.192-1.993c0.648,0.347,1.334,0.633,2.05,0.851l1.557,4.377c0.571,0.064,1.148,0.104,1.737,0.104c0.588,0,1.165-0.04,1.736-0.104l1.558-4.377c0.715-0.218,1.399-0.504,2.049-0.851l4.193,1.993c0.909-0.725,1.733-1.549,2.458-2.458l-1.993-4.193c0.347-0.647,0.633-1.334,0.851-2.049L31.229,17.736zM16,20.871c-2.69,0-4.872-2.182-4.872-4.871c0-2.69,2.182-4.872,4.872-4.872c2.689,0,4.871,2.182,4.871,4.872C20.871,18.689,18.689,20.871,16,20.871z"></path><title>Link options.</title></g></g></g></g><!--z-index:46--><g   id="j_187" ><path  stroke="#707070" d="M 1532 600 L 1560 771 C 1561.3333333333333 777.6666666666666 1564.6666666666665 783 1570 787 L 1667 855" id="v-2672" stroke-width="2" stroke-dasharray="30 30" fill="none" style="opacity: 1;"></path><path  fill="black" stroke="black" d="M 0 0 0 0" transform="matrix(0.16314364969730377,0.9866023063659668,-0.9866023063659668,0.16314364969730377,1532.0699462890625,600)"></path><path  fill="#707070" stroke="#707070" d="M 20 0 L 0 10 L 20 20 z" id="v-2674" transform="matrix(-0.8166738152503967,-0.5770995020866394,0.5770995020866394,-0.8166738152503967,1660.948974609375,863.166748046875)" style="opacity: 1;"></path><path  d="M 1532 600 L 1560 771 C 1561.3333333333333 777.6666666666666 1564.6666666666665 783 1570 787 L 1667 855" id="v-2673" fill="none" style="cursor: default;"></path><g ><g id="v-2666"  label-idx="0" cursor="move" transform="matrix(1,0,0,1,1557.1317138671875,753.4829711914062)" style="cursor: default; opacity: 1;"><rect joint-selector="rect" id="v-2669" fill="#ffffff" rx="3" ry="3" pointer-events="none" width="63.74508285522461" height="34.860591888427734" transform="matrix(1,0,0,1,-31.899999618530273,-17.399999618530273)"></rect><text joint-selector="text" id="v-2668" font-size="24px" xml:space="preserve" y="0.8em" fill="#707070" text-anchor="middle" pointer-events="none" font-family="Open Sans" font-weight="normal" transform="matrix(1,0,0,1,0,-9.199999809265137)"><tspan  dy="0">Uses</tspan></text></g><g id="v-2667"  label-idx="1" cursor="move" transform="matrix(1,0,0,1,1547.1317138671875,779.8829956054688)" style="cursor: default; opacity: 1;"><rect joint-selector="rect" id="v-2671" fill="#ffffff" rx="3" ry="3"  width="0" height="0" transform="matrix(1,0,0,1,0,0)" display="none"></rect><text joint-selector="text" id="v-2670" fill="#000000" font-size="14" text-anchor="middle" pointer-events="none"></text></g></g><g  display="none"><g  transform="translate(1562, 781)" id="v-2663"><circle  idx="0" r="10"></circle><path  idx="0" d="M16,5.333c-7.732,0-14,4.701-14,10.5c0,1.982,0.741,3.833,2.016,5.414L2,25.667l5.613-1.441c2.339,1.317,5.237,2.107,8.387,2.107c7.732,0,14-4.701,14-10.5C30,10.034,23.732,5.333,16,5.333z" transform="translate(5, -33)"></path><path  idx="0" transform="scale(.8) translate(9.5, -37)" d="M24.778,21.419 19.276,15.917 24.777,10.415 21.949,7.585 16.447,13.087 10.945,7.585 8.117,10.415 13.618,15.917 8.116,21.419 10.946,24.248 16.447,18.746 21.948,24.248z"><title>Remove vertex.</title></path></g></g><g  id="v-2676" display="none"><g  id="v-2664"><path  end="source" d="M 26 0 L 0 13 L 26 26 z"></path></g><g  id="v-2665"><path  end="target" d="M 26 0 L 0 13 L 26 26 z"></path></g></g><g  id="v-2675" display="none"><g  id="v-2662" transform="translate(1538.4636303964373, 639.4743142068137) "><g  event="remove"><circle r="11"></circle><path transform="scale(.8) translate(-16, -16)" d="M24.778,21.419 19.276,15.917 24.777,10.415 21.949,7.585 16.447,13.087 10.945,7.585 8.117,10.415 13.618,15.917 8.116,21.419 10.946,24.248 16.447,18.746 21.948,24.248z"></path><title>Remove link.</title></g><g  event="link:options"><circle r="11" transform="translate(25)"></circle><path fill="white" transform="scale(.55) translate(29, -16)" d="M31.229,17.736c0.064-0.571,0.104-1.148,0.104-1.736s-0.04-1.166-0.104-1.737l-4.377-1.557c-0.218-0.716-0.504-1.401-0.851-2.05l1.993-4.192c-0.725-0.91-1.549-1.734-2.458-2.459l-4.193,1.994c-0.647-0.347-1.334-0.632-2.049-0.849l-1.558-4.378C17.165,0.708,16.588,0.667,16,0.667s-1.166,0.041-1.737,0.105L12.707,5.15c-0.716,0.217-1.401,0.502-2.05,0.849L6.464,4.005C5.554,4.73,4.73,5.554,4.005,6.464l1.994,4.192c-0.347,0.648-0.632,1.334-0.849,2.05l-4.378,1.557C0.708,14.834,0.667,15.412,0.667,16s0.041,1.165,0.105,1.736l4.378,1.558c0.217,0.715,0.502,1.401,0.849,2.049l-1.994,4.193c0.725,0.909,1.549,1.733,2.459,2.458l4.192-1.993c0.648,0.347,1.334,0.633,2.05,0.851l1.557,4.377c0.571,0.064,1.148,0.104,1.737,0.104c0.588,0,1.165-0.04,1.736-0.104l1.558-4.377c0.715-0.218,1.399-0.504,2.049-0.851l4.193,1.993c0.909-0.725,1.733-1.549,2.458-2.458l-1.993-4.193c0.347-0.647,0.633-1.334,0.851-2.049L31.229,17.736zM16,20.871c-2.69,0-4.872-2.182-4.872-4.871c0-2.69,2.182-4.872,4.872-4.872c2.689,0,4.871,2.182,4.871,4.872C20.871,18.689,18.689,20.871,16,20.871z"></path><title>Link options.</title></g></g></g></g><!--z-index:47--><g   id="j_188" ><path  stroke="#707070" d="M 1654 1003 L 1374 1001" id="v-2692" stroke-width="2" stroke-dasharray="30 30" fill="none" style="opacity: 1;"></path><path  fill="black" stroke="black" d="M 0 0 0 0" transform="matrix(-0.9999662637710571,-0.008213895373046398,0.008213895373046398,-0.9999662637710571,1654,1003.1500244140625)"></path><path  fill="#707070" stroke="#707070" d="M 20 0 L 0 10 L 20 20 z" id="v-2694" transform="matrix(0.9999662637710571,0.008214008994400501,-0.008214008994400501,0.9999662637710571,1374.0821533203125,990.850341796875)" style="opacity: 1;"></path><path  d="M 1654 1003 L 1374 1001" id="v-2693" fill="none" style="cursor: default;"></path><g ><g id="v-2683"  label-idx="0" cursor="move" transform="matrix(1,0,0,1,1514,1002)" style="cursor: default; opacity: 1;"><rect joint-selector="rect" id="v-2687" fill="#ffffff" rx="3" ry="3" pointer-events="none" width="208.2920379638672" height="121.26059341430664" transform="matrix(1,0,0,1,-104.0999984741211,-60.599998474121094)"></rect><text joint-selector="text" id="v-2686" font-size="24px" xml:space="preserve" y="0.8em" fill="#707070" text-anchor="middle" pointer-events="none" font-family="Open Sans" font-weight="normal" transform="matrix(1,0,0,1,0,-52.400001525878906)"><tspan  dy="0">Requests flow</tspan><tspan dy="1.2em" x="0" >tracking, sends</tspan><tspan dy="1.2em" x="0" >users for login</tspan><tspan dy="1.2em" x="0" >and subscriptions</tspan></text></g><g id="v-2684"  label-idx="1" cursor="move" transform="matrix(1,0,0,1,1514,1071.5999755859375)" style="cursor: default; opacity: 1;"><rect joint-selector="rect" id="v-2689" fill="#ffffff" rx="3" ry="3" pointer-events="none" width="186.89373779296875" height="25.5" transform="matrix(1,0,0,1,-93.4000015258789,-12.699999809265137)"></rect><text joint-selector="text" id="v-2688" font-size="17px" xml:space="preserve" y="0.8em" fill="#707070" text-anchor="middle" pointer-events="none" font-family="Open Sans" font-weight="normal" transform="matrix(1,0,0,1,0,-7.199999809265137)"><tspan  dy="0">[HTTPS, OAuth 2, APIs]</tspan></text></g><g id="v-2685"  label-idx="2" cursor="move" transform="matrix(1,0,0,1,1504,1080)" style="cursor: default; opacity: 1;"><rect joint-selector="rect" id="v-2691" fill="#ffffff" rx="3" ry="3"  width="0" height="0" transform="matrix(1,0,0,1,0,0)" display="none"></rect><text joint-selector="text" id="v-2690" fill="#000000" font-size="14" text-anchor="middle" pointer-events="none"></text></g></g><g  display="none"></g><g  id="v-2696" display="none"><g  id="v-2681"><path  end="source" d="M 26 0 L 0 13 L 26 26 z"></path></g><g  id="v-2682"><path  end="target" d="M 26 0 L 0 13 L 26 26 z"></path></g></g><g  id="v-2695" display="none"><g  id="v-2680" transform="translate(1614.0010203691188, 1002.7142930026366) "><g  event="remove"><circle r="11"></circle><path transform="scale(.8) translate(-16, -16)" d="M24.778,21.419 19.276,15.917 24.777,10.415 21.949,7.585 16.447,13.087 10.945,7.585 8.117,10.415 13.618,15.917 8.116,21.419 10.946,24.248 16.447,18.746 21.948,24.248z"></path><title>Remove link.</title></g><g  event="link:options"><circle r="11" transform="translate(25)"></circle><path fill="white" transform="scale(.55) translate(29, -16)" d="M31.229,17.736c0.064-0.571,0.104-1.148,0.104-1.736s-0.04-1.166-0.104-1.737l-4.377-1.557c-0.218-0.716-0.504-1.401-0.851-2.05l1.993-4.192c-0.725-0.91-1.549-1.734-2.458-2.459l-4.193,1.994c-0.647-0.347-1.334-0.632-2.049-0.849l-1.558-4.378C17.165,0.708,16.588,0.667,16,0.667s-1.166,0.041-1.737,0.105L12.707,5.15c-0.716,0.217-1.401,0.502-2.05,0.849L6.464,4.005C5.554,4.73,4.73,5.554,4.005,6.464l1.994,4.192c-0.347,0.648-0.632,1.334-0.849,2.05l-4.378,1.557C0.708,14.834,0.667,15.412,0.667,16s0.041,1.165,0.105,1.736l4.378,1.558c0.217,0.715,0.502,1.401,0.849,2.049l-1.994,4.193c0.725,0.909,1.549,1.733,2.459,2.458l4.192-1.993c0.648,0.347,1.334,0.633,2.05,0.851l1.557,4.377c0.571,0.064,1.148,0.104,1.737,0.104c0.588,0,1.165-0.04,1.736-0.104l1.558-4.377c0.715-0.218,1.399-0.504,2.049-0.851l4.193,1.993c0.909-0.725,1.733-1.549,2.458-2.458l-1.993-4.193c0.347-0.647,0.633-1.334,0.851-2.049L31.229,17.736zM16,20.871c-2.69,0-4.872-2.182-4.872-4.871c0-2.69,2.182-4.872,4.872-4.872c2.689,0,4.871,2.182,4.871,4.872C20.871,18.689,18.689,20.871,16,20.871z"></path><title>Link options.</title></g></g></g></g><!--z-index:48--><g   id="j_189" ><path  stroke="#707070" d="M 1654 1116 L 1373 1255 C 1367 1257.6666666666665 1361 1260 1355 1262 L 649 1495" id="v-2713" stroke-width="2" stroke-dasharray="30 30" fill="none" style="opacity: 1;"></path><path  fill="black" stroke="black" d="M 0 0 0 0" transform="matrix(-0.8968508243560791,0.4423331022262573,-0.4423331022262573,-0.8968508243560791,1654,1115.969970703125)"></path><path  fill="#707070" stroke="#707070" d="M 20 0 L 0 10 L 20 20 z" id="v-2715" transform="matrix(0.9496879577636719,-0.31319770216941833,0.31319770216941833,0.9496879577636719,645.8680419921875,1485.3031005859375)" style="opacity: 1;"></path><path  d="M 1654 1116 L 1373 1255 C 1367 1257.6666666666665 1361 1260 1355 1262 L 649 1495" id="v-2714" fill="none" style="cursor: default;"></path><g ><g id="v-2704"  label-idx="0" cursor="move" transform="matrix(1,0,0,1,1160.0262451171875,1326.3468017578125)" style="cursor: default; opacity: 1;"><rect joint-selector="rect" id="v-2708" fill="#ffffff" rx="3" ry="3" pointer-events="none" width="142.51341247558594" height="92.46059036254883" transform="matrix(1,0,0,1,-71.30000305175781,-46.20000076293945)"></rect><text joint-selector="text" id="v-2707" font-size="24px" xml:space="preserve" y="0.8em" fill="#707070" text-anchor="middle" pointer-events="none" font-family="Open Sans" font-weight="normal" transform="matrix(1,0,0,1,0,-38)"><tspan  dy="0">Sends page</tspan><tspan dy="1.2em" x="0" >views,</tspan><tspan dy="1.2em" x="0" >interactions</tspan></text></g><g id="v-2705"  label-idx="1" cursor="move" transform="matrix(1,0,0,1,1160.0262451171875,1381.546875)" style="cursor: default; opacity: 1;"><rect joint-selector="rect" id="v-2710" fill="#ffffff" rx="3" ry="3" pointer-events="none" width="70.40834045410156" height="25.5" transform="matrix(1,0,0,1,-35.20000076293945,-12.699999809265137)"></rect><text joint-selector="text" id="v-2709" font-size="17px" xml:space="preserve" y="0.8em" fill="#707070" text-anchor="middle" pointer-events="none" font-family="Open Sans" font-weight="normal" transform="matrix(1,0,0,1,0,-7.199999809265137)"><tspan  dy="0">[HTTPS]</tspan></text></g><g id="v-2706"  label-idx="2" cursor="move" transform="matrix(1,0,0,1,1150.0262451171875,1389.9468994140625)" style="cursor: default; opacity: 1;"><rect joint-selector="rect" id="v-2712" fill="#ffffff" rx="3" ry="3"  width="0" height="0" transform="matrix(1,0,0,1,0,0)" display="none"></rect><text joint-selector="text" id="v-2711" fill="#000000" font-size="14" text-anchor="middle" pointer-events="none"></text></g></g><g  display="none"><g  transform="translate(1364, 1259)" id="v-2701"><circle  idx="0" r="10"></circle><path  idx="0" d="M16,5.333c-7.732,0-14,4.701-14,10.5c0,1.982,0.741,3.833,2.016,5.414L2,25.667l5.613-1.441c2.339,1.317,5.237,2.107,8.387,2.107c7.732,0,14-4.701,14-10.5C30,10.034,23.732,5.333,16,5.333z" transform="translate(5, -33)"></path><path  idx="0" transform="scale(.8) translate(9.5, -37)" d="M24.778,21.419 19.276,15.917 24.777,10.415 21.949,7.585 16.447,13.087 10.945,7.585 8.117,10.415 13.618,15.917 8.116,21.419 10.946,24.248 16.447,18.746 21.948,24.248z"><title>Remove vertex.</title></path></g></g><g  id="v-2717" display="none"><g  id="v-2702"><path  end="source" d="M 26 0 L 0 13 L 26 26 z"></path></g><g  id="v-2703"><path  end="target" d="M 26 0 L 0 13 L 26 26 z"></path></g></g><g  id="v-2716" display="none"><g  id="v-2700" transform="translate(1618.1466848625541, 1133.7352697654983) "><g  event="remove"><circle r="11"></circle><path transform="scale(.8) translate(-16, -16)" d="M24.778,21.419 19.276,15.917 24.777,10.415 21.949,7.585 16.447,13.087 10.945,7.585 8.117,10.415 13.618,15.917 8.116,21.419 10.946,24.248 16.447,18.746 21.948,24.248z"></path><title>Remove link.</title></g><g  event="link:options"><circle r="11" transform="translate(25)"></circle><path fill="white" transform="scale(.55) translate(29, -16)" d="M31.229,17.736c0.064-0.571,0.104-1.148,0.104-1.736s-0.04-1.166-0.104-1.737l-4.377-1.557c-0.218-0.716-0.504-1.401-0.851-2.05l1.993-4.192c-0.725-0.91-1.549-1.734-2.458-2.459l-4.193,1.994c-0.647-0.347-1.334-0.632-2.049-0.849l-1.558-4.378C17.165,0.708,16.588,0.667,16,0.667s-1.166,0.041-1.737,0.105L12.707,5.15c-0.716,0.217-1.401,0.502-2.05,0.849L6.464,4.005C5.554,4.73,4.73,5.554,4.005,6.464l1.994,4.192c-0.347,0.648-0.632,1.334-0.849,2.05l-4.378,1.557C0.708,14.834,0.667,15.412,0.667,16s0.041,1.165,0.105,1.736l4.378,1.558c0.217,0.715,0.502,1.401,0.849,2.049l-1.994,4.193c0.725,0.909,1.549,1.733,2.459,2.458l4.192-1.993c0.648,0.347,1.334,0.633,2.05,0.851l1.557,4.377c0.571,0.064,1.148,0.104,1.737,0.104c0.588,0,1.165-0.04,1.736-0.104l1.558-4.377c0.715-0.218,1.399-0.504,2.049-0.851l4.193,1.993c0.909-0.725,1.733-1.549,2.458-2.458l-1.993-4.193c0.347-0.647,0.633-1.334,0.851-2.049L31.229,17.736zM16,20.871c-2.69,0-4.872-2.182-4.872-4.871c0-2.69,2.182-4.872,4.872-4.872c2.689,0,4.871,2.182,4.871,4.872C20.871,18.689,18.689,20.871,16,20.871z"></path><title>Link options.</title></g></g></g></g><!--z-index:49--><g   id="j_190" ><path  stroke="#707070" d="M 1654 1078 L 1304 1192 C 1297.3333333333333 1194 1290.6666666666665 1195 1284 1195 L 649 1202" id="v-2734" stroke-width="2" stroke-dasharray="30 30" fill="none" style="opacity: 1;"></path><path  fill="black" stroke="black" d="M 0 0 0 0" transform="matrix(-0.9510961771011353,0.30889490246772766,-0.30889490246772766,-0.9510961771011353,1654,1078.0799560546875)"></path><path  fill="#707070" stroke="#707070" d="M 20 0 L 0 10 L 20 20 z" id="v-2736" transform="matrix(0.9999340176582336,-0.011487559415400028,0.011487559415400028,0.9999340176582336,648.8851318359375,1192.41064453125)" style="opacity: 1;"></path><path  d="M 1654 1078 L 1304 1192 C 1297.3333333333333 1194 1290.6666666666665 1195 1284 1195 L 649 1202" id="v-2735" fill="none" style="cursor: default;"></path><g ><g id="v-2725"  label-idx="0" cursor="move" transform="matrix(1,0,0,1,1160.682861328125,1196.359375)" style="cursor: default; opacity: 1;"><rect joint-selector="rect" id="v-2729" fill="#ffffff" rx="3" ry="3" pointer-events="none" width="209.3295440673828" height="63.66059494018555" transform="matrix(1,0,0,1,-104.69999694824219,-31.799999237060547)"></rect><text joint-selector="text" id="v-2728" font-size="24px" xml:space="preserve" y="0.8em" fill="#707070" text-anchor="middle" pointer-events="none" font-family="Open Sans" font-weight="normal" transform="matrix(1,0,0,1,0,-23.600000381469727)"><tspan  dy="0">Requests</tspan><tspan dy="1.2em" x="0" >purchase tracking</tspan></text></g><g id="v-2726"  label-idx="1" cursor="move" transform="matrix(1,0,0,1,1160.682861328125,1237.159423828125)" style="cursor: default; opacity: 1;"><rect joint-selector="rect" id="v-2731" fill="#ffffff" rx="3" ry="3" pointer-events="none" width="70.40834045410156" height="25.5" transform="matrix(1,0,0,1,-35.20000076293945,-12.699999809265137)"></rect><text joint-selector="text" id="v-2730" font-size="17px" xml:space="preserve" y="0.8em" fill="#707070" text-anchor="middle" pointer-events="none" font-family="Open Sans" font-weight="normal" transform="matrix(1,0,0,1,0,-7.199999809265137)"><tspan  dy="0">[HTTPS]</tspan></text></g><g id="v-2727"  label-idx="2" cursor="move" transform="matrix(1,0,0,1,1150.682861328125,1245.5594482421875)" style="cursor: default; opacity: 1;"><rect joint-selector="rect" id="v-2733" fill="#ffffff" rx="3" ry="3"  width="0" height="0" transform="matrix(1,0,0,1,0,0)" display="none"></rect><text joint-selector="text" id="v-2732" fill="#000000" font-size="14" text-anchor="middle" pointer-events="none"></text></g></g><g  display="none"><g  transform="translate(1294, 1195)" id="v-2722"><circle  idx="0" r="10"></circle><path  idx="0" d="M16,5.333c-7.732,0-14,4.701-14,10.5c0,1.982,0.741,3.833,2.016,5.414L2,25.667l5.613-1.441c2.339,1.317,5.237,2.107,8.387,2.107c7.732,0,14-4.701,14-10.5C30,10.034,23.732,5.333,16,5.333z" transform="translate(5, -33)"></path><path  idx="0" transform="scale(.8) translate(9.5, -37)" d="M24.778,21.419 19.276,15.917 24.777,10.415 21.949,7.585 16.447,13.087 10.945,7.585 8.117,10.415 13.618,15.917 8.116,21.419 10.946,24.248 16.447,18.746 21.948,24.248z"><title>Remove vertex.</title></path></g></g><g  id="v-2738" display="none"><g  id="v-2723"><path  end="source" d="M 26 0 L 0 13 L 26 26 z"></path></g><g  id="v-2724"><path  end="target" d="M 26 0 L 0 13 L 26 26 z"></path></g></g><g  id="v-2737" display="none"><g  id="v-2721" transform="translate(1615.9666308730234, 1090.388011658501) "><g  event="remove"><circle r="11"></circle><path transform="scale(.8) translate(-16, -16)" d="M24.778,21.419 19.276,15.917 24.777,10.415 21.949,7.585 16.447,13.087 10.945,7.585 8.117,10.415 13.618,15.917 8.116,21.419 10.946,24.248 16.447,18.746 21.948,24.248z"></path><title>Remove link.</title></g><g  event="link:options"><circle r="11" transform="translate(25)"></circle><path fill="white" transform="scale(.55) translate(29, -16)" d="M31.229,17.736c0.064-0.571,0.104-1.148,0.104-1.736s-0.04-1.166-0.104-1.737l-4.377-1.557c-0.218-0.716-0.504-1.401-0.851-2.05l1.993-4.192c-0.725-0.91-1.549-1.734-2.458-2.459l-4.193,1.994c-0.647-0.347-1.334-0.632-2.049-0.849l-1.558-4.378C17.165,0.708,16.588,0.667,16,0.667s-1.166,0.041-1.737,0.105L12.707,5.15c-0.716,0.217-1.401,0.502-2.05,0.849L6.464,4.005C5.554,4.73,4.73,5.554,4.005,6.464l1.994,4.192c-0.347,0.648-0.632,1.334-0.849,2.05l-4.378,1.557C0.708,14.834,0.667,15.412,0.667,16s0.041,1.165,0.105,1.736l4.378,1.558c0.217,0.715,0.502,1.401,0.849,2.049l-1.994,4.193c0.725,0.909,1.549,1.733,2.459,2.458l4.192-1.993c0.648,0.347,1.334,0.633,2.05,0.851l1.557,4.377c0.571,0.064,1.148,0.104,1.737,0.104c0.588,0,1.165-0.04,1.736-0.104l1.558-4.377c0.715-0.218,1.399-0.504,2.049-0.851l4.193,1.993c0.909-0.725,1.733-1.549,2.458-2.458l-1.993-4.193c0.347-0.647,0.633-1.334,0.851-2.049L31.229,17.736zM16,20.871c-2.69,0-4.872-2.182-4.872-4.871c0-2.69,2.182-4.872,4.872-4.872c2.689,0,4.871,2.182,4.871,4.872C20.871,18.689,18.689,20.871,16,20.871z"></path><title>Link options.</title></g></g></g></g><!--z-index:50--><g   id="j_191" ><path  stroke="#707070" d="M 924 1063 L 649 1141" id="v-2751" stroke-width="2" stroke-dasharray="30 30" fill="none" style="opacity: 1;"></path><path  fill="black" stroke="black" d="M 0 0 0 0" transform="matrix(-0.9619215726852417,0.273325651884079,-0.273325651884079,-0.9619215726852417,924,1062.9300537109375)"></path><path  fill="#707070" stroke="#707070" d="M 20 0 L 0 10 L 20 20 z" id="v-2753" transform="matrix(0.9619216322898865,-0.2733253836631775,0.2733253836631775,0.9619216322898865,646.2667236328125,1131.4508056640625)" style="opacity: 1;"></path><path  d="M 924 1063 L 649 1141" id="v-2752" fill="none" style="cursor: default;"></path><g ><g id="v-2742"  label-idx="0" cursor="move" transform="matrix(1,0,0,1,786.5,1102)" style="cursor: default; opacity: 1;"><rect joint-selector="rect" id="v-2746" fill="#ffffff" rx="3" ry="3" pointer-events="none" width="63.74508285522461" height="34.860591888427734" transform="matrix(1,0,0,1,-31.899999618530273,-17.399999618530273)"></rect><text joint-selector="text" id="v-2745" font-size="24px" xml:space="preserve" y="0.8em" fill="#707070" text-anchor="middle" pointer-events="none" font-family="Open Sans" font-weight="normal" transform="matrix(1,0,0,1,0,-9.199999809265137)"><tspan  dy="0">Uses</tspan></text></g><g id="v-2743"  label-idx="1" cursor="move" transform="matrix(1,0,0,1,786.5,1128.4000244140625)" style="cursor: default; opacity: 1;"><rect joint-selector="rect" id="v-2748" fill="#ffffff" rx="3" ry="3" pointer-events="none" width="155.97500610351562" height="25.5" transform="matrix(1,0,0,1,-78,-12.699999809265137)"></rect><text joint-selector="text" id="v-2747" font-size="17px" xml:space="preserve" y="0.8em" fill="#707070" text-anchor="middle" pointer-events="none" font-family="Open Sans" font-weight="normal" transform="matrix(1,0,0,1,0,-7.199999809265137)"><tspan  dy="0">[HTTPS, Stripe API]</tspan></text></g><g id="v-2744"  label-idx="2" cursor="move" transform="matrix(1,0,0,1,776.5,1136.800048828125)" style="cursor: default; opacity: 1;"><rect joint-selector="rect" id="v-2750" fill="#ffffff" rx="3" ry="3"  width="0" height="0" transform="matrix(1,0,0,1,0,0)" display="none"></rect><text joint-selector="text" id="v-2749" fill="#000000" font-size="14" text-anchor="middle" pointer-events="none"></text></g></g><g  display="none"></g><g  id="v-2755" display="none"><g  id="v-2740"><path  end="source" d="M 26 0 L 0 13 L 26 26 z"></path></g><g  id="v-2741"><path  end="target" d="M 26 0 L 0 13 L 26 26 z"></path></g></g><g  id="v-2754" display="none"><g  id="v-2739" transform="translate(885.5179909439603, 1073.9148971140767) "><g  event="remove"><circle r="11"></circle><path transform="scale(.8) translate(-16, -16)" d="M24.778,21.419 19.276,15.917 24.777,10.415 21.949,7.585 16.447,13.087 10.945,7.585 8.117,10.415 13.618,15.917 8.116,21.419 10.946,24.248 16.447,18.746 21.948,24.248z"></path><title>Remove link.</title></g><g  event="link:options"><circle r="11" transform="translate(25)"></circle><path fill="white" transform="scale(.55) translate(29, -16)" d="M31.229,17.736c0.064-0.571,0.104-1.148,0.104-1.736s-0.04-1.166-0.104-1.737l-4.377-1.557c-0.218-0.716-0.504-1.401-0.851-2.05l1.993-4.192c-0.725-0.91-1.549-1.734-2.458-2.459l-4.193,1.994c-0.647-0.347-1.334-0.632-2.049-0.849l-1.558-4.378C17.165,0.708,16.588,0.667,16,0.667s-1.166,0.041-1.737,0.105L12.707,5.15c-0.716,0.217-1.401,0.502-2.05,0.849L6.464,4.005C5.554,4.73,4.73,5.554,4.005,6.464l1.994,4.192c-0.347,0.648-0.632,1.334-0.849,2.05l-4.378,1.557C0.708,14.834,0.667,15.412,0.667,16s0.041,1.165,0.105,1.736l4.378,1.558c0.217,0.715,0.502,1.401,0.849,2.049l-1.994,4.193c0.725,0.909,1.549,1.733,2.459,2.458l4.192-1.993c0.648,0.347,1.334,0.633,2.05,0.851l1.557,4.377c0.571,0.064,1.148,0.104,1.737,0.104c0.588,0,1.165-0.04,1.736-0.104l1.558-4.377c0.715-0.218,1.399-0.504,2.049-0.851l4.193,1.993c0.909-0.725,1.733-1.549,2.458-2.458l-1.993-4.193c0.347-0.647,0.633-1.334,0.851-2.049L31.229,17.736zM16,20.871c-2.69,0-4.872-2.182-4.872-4.871c0-2.69,2.182-4.872,4.872-4.872c2.689,0,4.871,2.182,4.871,4.872C20.871,18.689,18.689,20.871,16,20.871z"></path><title>Link options.</title></g></g></g></g><!--z-index:51--><g   id="j_192" ><path  stroke="#707070" d="M 1794 1155 L 1604 1489" id="v-2771" stroke-width="2" stroke-dasharray="30 30" fill="none" style="opacity: 1;"></path><path  fill="black" stroke="black" d="M 0 0 0 0" transform="matrix(-0.4937874972820282,0.8695825934410095,-0.8695825934410095,-0.4937874972820282,1793.8299560546875,1155)"></path><path  fill="#707070" stroke="#707070" d="M 20 0 L 0 10 L 20 20 z" id="v-2773" transform="matrix(0.4937877357006073,-0.86958247423172,0.86958247423172,0.4937877357006073,1595.4742431640625,1484.0621337890625)" style="opacity: 1;"></path><path  d="M 1794 1155 L 1604 1489" id="v-2772" fill="none" style="cursor: default;"></path><g ><g id="v-2762"  label-idx="0" cursor="move" transform="matrix(1,0,0,1,1699,1322)" style="cursor: default; opacity: 1;"><rect joint-selector="rect" id="v-2766" fill="#ffffff" rx="3" ry="3" pointer-events="none" width="204.5154571533203" height="34.860591888427734" transform="matrix(1,0,0,1,-102.30000305175781,-17.399999618530273)"></rect><text joint-selector="text" id="v-2765" font-size="24px" xml:space="preserve" y="0.8em" fill="#707070" text-anchor="middle" pointer-events="none" font-family="Open Sans" font-weight="normal" transform="matrix(1,0,0,1,0,-9.199999809265137)"><tspan  dy="0">Sends exceptions</tspan></text></g><g id="v-2763"  label-idx="1" cursor="move" transform="matrix(1,0,0,1,1699,1348.4000244140625)" style="cursor: default; opacity: 1;"><rect joint-selector="rect" id="v-2768" fill="#ffffff" rx="3" ry="3" pointer-events="none" width="100.58332824707031" height="25.5" transform="matrix(1,0,0,1,-50.29999923706055,-12.699999809265137)"></rect><text joint-selector="text" id="v-2767" font-size="17px" xml:space="preserve" y="0.8em" fill="#707070" text-anchor="middle" pointer-events="none" font-family="Open Sans" font-weight="normal" transform="matrix(1,0,0,1,0,-7.199999809265137)"><tspan  dy="0">[HTTPS API]</tspan></text></g><g id="v-2764"  label-idx="2" cursor="move" transform="matrix(1,0,0,1,1689,1356.800048828125)" style="cursor: default; opacity: 1;"><rect joint-selector="rect" id="v-2770" fill="#ffffff" rx="3" ry="3"  width="0" height="0" transform="matrix(1,0,0,1,0,0)" display="none"></rect><text joint-selector="text" id="v-2769" fill="#000000" font-size="14" text-anchor="middle" pointer-events="none"></text></g></g><g  display="none"></g><g  id="v-2775" display="none"><g  id="v-2760"><path  end="source" d="M 26 0 L 0 13 L 26 26 z"></path></g><g  id="v-2761"><path  end="target" d="M 26 0 L 0 13 L 26 26 z"></path></g></g><g  id="v-2774" display="none"><g  id="v-2759" transform="translate(1774.2217417780703, 1189.7680960322343) "><g  event="remove"><circle r="11"></circle><path transform="scale(.8) translate(-16, -16)" d="M24.778,21.419 19.276,15.917 24.777,10.415 21.949,7.585 16.447,13.087 10.945,7.585 8.117,10.415 13.618,15.917 8.116,21.419 10.946,24.248 16.447,18.746 21.948,24.248z"></path><title>Remove link.</title></g><g  event="link:options"><circle r="11" transform="translate(25)"></circle><path fill="white" transform="scale(.55) translate(29, -16)" d="M31.229,17.736c0.064-0.571,0.104-1.148,0.104-1.736s-0.04-1.166-0.104-1.737l-4.377-1.557c-0.218-0.716-0.504-1.401-0.851-2.05l1.993-4.192c-0.725-0.91-1.549-1.734-2.458-2.459l-4.193,1.994c-0.647-0.347-1.334-0.632-2.049-0.849l-1.558-4.378C17.165,0.708,16.588,0.667,16,0.667s-1.166,0.041-1.737,0.105L12.707,5.15c-0.716,0.217-1.401,0.502-2.05,0.849L6.464,4.005C5.554,4.73,4.73,5.554,4.005,6.464l1.994,4.192c-0.347,0.648-0.632,1.334-0.849,2.05l-4.378,1.557C0.708,14.834,0.667,15.412,0.667,16s0.041,1.165,0.105,1.736l4.378,1.558c0.217,0.715,0.502,1.401,0.849,2.049l-1.994,4.193c0.725,0.909,1.549,1.733,2.459,2.458l4.192-1.993c0.648,0.347,1.334,0.633,2.05,0.851l1.557,4.377c0.571,0.064,1.148,0.104,1.737,0.104c0.588,0,1.165-0.04,1.736-0.104l1.558-4.377c0.715-0.218,1.399-0.504,2.049-0.851l4.193,1.993c0.909-0.725,1.733-1.549,2.458-2.458l-1.993-4.193c0.347-0.647,0.633-1.334,0.851-2.049L31.229,17.736zM16,20.871c-2.69,0-4.872-2.182-4.872-4.871c0-2.69,2.182-4.872,4.872-4.872c2.689,0,4.871,2.182,4.871,4.872C20.871,18.689,18.689,20.871,16,20.871z"></path><title>Link options.</title></g></g></g></g><!--z-index:52--><g   id="j_193" ><path  stroke="#707070" d="M 2435 1250 L 2321 1107 C 2317 1101.6666666666665 2311.6666666666665 1098.3333333333333 2305 1097 L 2104 1054" id="v-2789" stroke-width="2" stroke-dasharray="30 30" fill="none" style="opacity: 1;"></path><path  fill="black" stroke="black" d="M 0 0 0 0" transform="matrix(-0.6222580075263977,-0.7828121781349182,0.7828121781349182,-0.6222580075263977,2435.030029296875,1250)"></path><path  fill="#707070" stroke="#707070" d="M 20 0 L 0 10 L 20 20 z" id="v-2791" transform="matrix(0.9775399565696716,0.21075020730495453,-0.21075020730495453,0.9775399565696716,2106.107421875,1043.734619140625)" style="opacity: 1;"></path><path  d="M 2435 1250 L 2321 1107 C 2317 1101.6666666666665 2311.6666666666665 1098.3333333333333 2305 1097 L 2104 1054" id="v-2790" fill="none" style="cursor: default;"></path><g ><g id="v-2780"  label-idx="0" cursor="move" transform="matrix(1,0,0,1,2303.36083984375,1096.6492919921875)" style="cursor: default; opacity: 1;"><rect joint-selector="rect" id="v-2784" fill="#ffffff" rx="3" ry="3" pointer-events="none" width="144.75445556640625" height="34.860591888427734" transform="matrix(1,0,0,1,-72.4000015258789,-17.399999618530273)"></rect><text joint-selector="text" id="v-2783" font-size="24px" xml:space="preserve" y="0.8em" fill="#707070" text-anchor="middle" pointer-events="none" font-family="Open Sans" font-weight="normal" transform="matrix(1,0,0,1,0,-9.199999809265137)"><tspan  dy="0">Sends email</tspan></text></g><g id="v-2781"  label-idx="1" cursor="move" transform="matrix(1,0,0,1,2303.36083984375,1123.04931640625)" style="cursor: default; opacity: 1;"><rect joint-selector="rect" id="v-2786" fill="#ffffff" rx="3" ry="3" pointer-events="none" width="242.10833740234375" height="25.5" transform="matrix(1,0,0,1,-121.0999984741211,-12.699999809265137)"></rect><text joint-selector="text" id="v-2785" font-size="17px" xml:space="preserve" y="0.8em" fill="#707070" text-anchor="middle" pointer-events="none" font-family="Open Sans" font-weight="normal" transform="matrix(1,0,0,1,0,-7.199999809265137)"><tspan  dy="0">[Internet Mail System / SMTP]</tspan></text></g><g id="v-2782"  label-idx="2" cursor="move" transform="matrix(1,0,0,1,2293.36083984375,1131.4493408203125)" style="cursor: default; opacity: 1;"><rect joint-selector="rect" id="v-2788" fill="#ffffff" rx="3" ry="3"  width="0" height="0" transform="matrix(1,0,0,1,0,0)" display="none"></rect><text joint-selector="text" id="v-2787" fill="#000000" font-size="14" text-anchor="middle" pointer-events="none"></text></g></g><g  display="none"><g  transform="translate(2315, 1099)" id="v-2777"><circle  idx="0" r="10"></circle><path  idx="0" d="M16,5.333c-7.732,0-14,4.701-14,10.5c0,1.982,0.741,3.833,2.016,5.414L2,25.667l5.613-1.441c2.339,1.317,5.237,2.107,8.387,2.107c7.732,0,14-4.701,14-10.5C30,10.034,23.732,5.333,16,5.333z" transform="translate(5, -33)"></path><path  idx="0" transform="scale(.8) translate(9.5, -37)" d="M24.778,21.419 19.276,15.917 24.777,10.415 21.949,7.585 16.447,13.087 10.945,7.585 8.117,10.415 13.618,15.917 8.116,21.419 10.946,24.248 16.447,18.746 21.948,24.248z"><title>Remove vertex.</title></path></g></g><g  id="v-2793" display="none"><g  id="v-2778"><path  end="source" d="M 26 0 L 0 13 L 26 26 z"></path></g><g  id="v-2779"><path  end="target" d="M 26 0 L 0 13 L 26 26 z"></path></g></g><g  id="v-2792" display="none"><g  id="v-2776" transform="translate(2410.0655816087224, 1218.7226155267306) "><g  event="remove"><circle r="11"></circle><path transform="scale(.8) translate(-16, -16)" d="M24.778,21.419 19.276,15.917 24.777,10.415 21.949,7.585 16.447,13.087 10.945,7.585 8.117,10.415 13.618,15.917 8.116,21.419 10.946,24.248 16.447,18.746 21.948,24.248z"></path><title>Remove link.</title></g><g  event="link:options"><circle r="11" transform="translate(25)"></circle><path fill="white" transform="scale(.55) translate(29, -16)" d="M31.229,17.736c0.064-0.571,0.104-1.148,0.104-1.736s-0.04-1.166-0.104-1.737l-4.377-1.557c-0.218-0.716-0.504-1.401-0.851-2.05l1.993-4.192c-0.725-0.91-1.549-1.734-2.458-2.459l-4.193,1.994c-0.647-0.347-1.334-0.632-2.049-0.849l-1.558-4.378C17.165,0.708,16.588,0.667,16,0.667s-1.166,0.041-1.737,0.105L12.707,5.15c-0.716,0.217-1.401,0.502-2.05,0.849L6.464,4.005C5.554,4.73,4.73,5.554,4.005,6.464l1.994,4.192c-0.347,0.648-0.632,1.334-0.849,2.05l-4.378,1.557C0.708,14.834,0.667,15.412,0.667,16s0.041,1.165,0.105,1.736l4.378,1.558c0.217,0.715,0.502,1.401,0.849,2.049l-1.994,4.193c0.725,0.909,1.549,1.733,2.459,2.458l4.192-1.993c0.648,0.347,1.334,0.633,2.05,0.851l1.557,4.377c0.571,0.064,1.148,0.104,1.737,0.104c0.588,0,1.165-0.04,1.736-0.104l1.558-4.377c0.715-0.218,1.399-0.504,2.049-0.851l4.193,1.993c0.909-0.725,1.733-1.549,2.458-2.458l-1.993-4.193c0.347-0.647,0.633-1.334,0.851-2.049L31.229,17.736zM16,20.871c-2.69,0-4.872-2.182-4.872-4.871c0-2.69,2.182-4.872,4.872-4.872c2.689,0,4.871,2.182,4.871,4.872C20.871,18.689,18.689,20.871,16,20.871z"></path><title>Link options.</title></g></g></g></g><!--z-index:53--><!--z-index:54--><!--z-index:55--><!--z-index:56--><!--z-index:57--><!--z-index:58--><!--z-index:59--><!--z-index:60--><!--z-index:61--><!--z-index:62--><!--z-index:63--><!--z-index:64--><!--z-index:65--><!--z-index:66--><!--z-index:67--><!--z-index:68--><!--z-index:69--><!--z-index:70--><!--z-index:71--><!--z-index:72--><!--z-index:73--><!--z-index:74--><!--z-index:75--><!--z-index:76--><!--z-index:77--><!--z-index:78--><!--z-index:79--><!--z-index:80--><!--z-index:81--><!--z-index:82--><!--z-index:83--><!--z-index:84--><!--z-index:85--><!--z-index:86--><!--z-index:87--><!--z-index:88--><!--z-index:89--><!--z-index:90--><!--z-index:91--><!--z-index:92--><!--z-index:93--><!--z-index:94--><!--z-index:95--><!--z-index:96--><!--z-index:97--><!--z-index:98--><!--z-index:99--><!--z-index:100--><!--z-index:101--><!--z-index:102--><!--z-index:103--><!--z-index:104--><!--z-index:105--><!--z-index:106--><!--z-index:107--><!--z-index:108--><!--z-index:109--><!--z-index:110--><!--z-index:111--><!--z-index:112--><!--z-index:113--><!--z-index:114--><!--z-index:115--><!--z-index:116--><!--z-index:117--><!--z-index:118--><!--z-index:119--><!--z-index:120--><!--z-index:121--><!--z-index:122--><!--z-index:123--><!--z-index:124--><!--z-index:125--><!--z-index:126--><!--z-index:127--><!--z-index:128--><!--z-index:129--><!--z-index:130--><!--z-index:131--><!--z-index:132--><!--z-index:133--><!--z-index:134--><!--z-index:135--><!--z-index:136--><!--z-index:137--><!--z-index:138--><!--z-index:139--><!--z-index:140--><!--z-index:141--><!--z-index:142--><!--z-index:143--><!--z-index:144--><!--z-index:145--><!--z-index:146--><!--z-index:147--><!--z-index:148--><!--z-index:149--><!--z-index:150--><!--z-index:151--><!--z-index:152--><!--z-index:153--><!--z-index:154--><!--z-index:155--><!--z-index:156--><!--z-index:157--><!--z-index:158--><!--z-index:159--><!--z-index:160--><!--z-index:161--><!--z-index:162--><!--z-index:163--><!--z-index:164--><!--z-index:165--><!--z-index:166--><!--z-index:167--><!--z-index:168--><!--z-index:169--><!--z-index:170--><!--z-index:171--><!--z-index:172--><!--z-index:173--><!--z-index:174--><!--z-index:175--><!--z-index:176--><!--z-index:177--><!--z-index:178--><!--z-index:179--><!--z-index:180--><!--z-index:181--><!--z-index:182--><!--z-index:183--><!--z-index:184--><!--z-index:185--><!--z-index:186--><!--z-index:187--><!--z-index:188--><!--z-index:189--><!--z-index:190--><!--z-index:191--><!--z-index:192--><!--z-index:193--><!--z-index:194--><!--z-index:195--><!--z-index:196--><!--z-index:197--><!--z-index:198--><!--z-index:199--><!--z-index:200--><!--z-index:201--><!--z-index:202--><!--z-index:203--><!--z-index:204--><!--z-index:205--><!--z-index:206--><!--z-index:207--><!--z-index:208--><!--z-index:209--><!--z-index:210--><!--z-index:211--><!--z-index:212--><!--z-index:213--><!--z-index:214--><!--z-index:215--><!--z-index:216--><!--z-index:217--><!--z-index:218--><!--z-index:219--><!--z-index:220--><!--z-index:221--><!--z-index:222--><!--z-index:223--><!--z-index:224--><!--z-index:225--><!--z-index:226--><!--z-index:227--><!--z-index:228--><!--z-index:229--><!--z-index:230--><!--z-index:231--><!--z-index:232--><!--z-index:233--><!--z-index:234--><!--z-index:235--><!--z-index:236--><!--z-index:237--><!--z-index:238--><!--z-index:239--><!--z-index:240--><!--z-index:241--><!--z-index:242--><!--z-index:243--><!--z-index:244--><!--z-index:245--><!--z-index:246--><!--z-index:247--><!--z-index:248--><!--z-index:249--><!--z-index:250--><!--z-index:251--><!--z-index:252--><!--z-index:253--><!--z-index:254--><!--z-index:255--><!--z-index:256--><!--z-index:257--><!--z-index:258--><!--z-index:259--><!--z-index:260--><!--z-index:261--><!--z-index:262--><!--z-index:263--><!--z-index:264--><!--z-index:265--><!--z-index:266--><!--z-index:267--><!--z-index:268--><!--z-index:269--><!--z-index:270--><!--z-index:271--><!--z-index:272--><!--z-index:273--><!--z-index:274--><!--z-index:275--><!--z-index:276--><!--z-index:277--><!--z-index:278--><!--z-index:279--><!--z-index:280--><!--z-index:281--><!--z-index:282--><!--z-index:283--><!--z-index:284--><!--z-index:285--><!--z-index:286--><!--z-index:287--><!--z-index:288--><!--z-index:289--><!--z-index:290--><!--z-index:291--><!--z-index:292--><!--z-index:293--><!--z-index:294--><!--z-index:295--><!--z-index:296--><!--z-index:297--><!--z-index:298--></g><g ></g><g ></g><g ></g></g></svg>