<svg xmlns="http://www.w3.org/2000/svg" xmlns:xlink="http://www.w3.org/1999/xlink" version="1.1" viewBox="0 0 3600 2746" style="background: #ffffff"><defs><style>@import url(https://fonts.googleapis.com/css?family=Open+Sans:400,700);</style></defs><defs joint-selector="defs"></defs><g  joint-selector="layers" transform="matrix(1,0,0,1,0,0)"><g ></g><g ><!--z-index:0--><!--z-index:1--><!--z-index:2--><!--z-index:3--><!--z-index:4--><!--z-index:5--><!--z-index:6--><!--z-index:7--><!--z-index:8--><!--z-index:9--><!--z-index:10--><!--z-index:11--><!--z-index:12--><!--z-index:13--><!--z-index:14--><!--z-index:15--><!--z-index:16--><!--z-index:17--><!--z-index:18--><!--z-index:19--><!--z-index:20--><!--z-index:21--><!--z-index:22--><!--z-index:23--><!--z-index:24--><!--z-index:25--><!--z-index:26--><!--z-index:27--><!--z-index:28--><!--z-index:29--><!--z-index:30--><!--z-index:31--><!--z-index:32--><!--z-index:33--><g   id="j_1671"  transform="translate(20,2709.6)"><g id="v-28509"><text  id="v-28510" font-size="22px" xml:space="preserve" y="0.8em" font-weight="normal" text-anchor="start" fill="#aaaaaa" pointer-events="none" display="block" font-family="Open Sans"><tspan  dy="0">Tuesday, September 3, 2024 at 11:37 AM Central Daylight Time</tspan></text></g></g><!--z-index:34--><g   id="j_1670"  transform="translate(20,2683.2)"><g id="v-28507"><text  id="v-28508" font-size="22px" xml:space="preserve" y="0.8em" font-weight="normal" text-anchor="start" fill="#aaaaaa" pointer-events="none" display="block" font-family="Open Sans"><tspan  dy="0">ForwardEmailProcess</tspan></text></g></g><!--z-index:35--><g   id="j_1669"  transform="translate(20,2640)"><g id="v-28505"><text  id="v-28506" font-size="36px" xml:space="preserve" y="0.8em" font-weight="normal" text-anchor="start" fill="#000000" pointer-events="none" display="block" font-family="Open Sans"><tspan  dy="0">[Dynamic] Forwarding an Email to a Relay User</tspan></text></g></g><!--z-index:36--><g   id="j_1673"  transform="translate(199,680)" style=""><g id="v-28522"><rect  id="v-28523" width="2755" height="1981" rx="0" ry="0" fill="#ffffff" stroke="#005526" stroke-width="1" stroke-dasharray="20,20" pointer-events="none"></rect><text  id="v-28524" font-size="24px" xml:space="preserve" y="1942" font-weight="normal" fill="#005526" text-anchor="start" pointer-events="visible" font-family="Open Sans" transform="matrix(1,0,0,1,15,0)"><tspan  dy="0">Firefox Relay</tspan></text><text  id="v-28525" font-size="17px" xml:space="preserve" y="1966" font-weight="normal" fill="#005526" text-anchor="start" pointer-events="visible" font-family="Open Sans" transform="matrix(1,0,0,1,15,0)"><tspan  dy="0">[Software System]</tspan></text><image  id="v-28526" pointer-events="visible"></image></g></g><!--z-index:37--><g   id="j_1672"  transform="translate(219,719)" style=""><g  id="v-28514" style="opacity: 1;"><path  d="M 0,30 a 225,30 0,0,0 450 0 a 225,30 0,0,0 -450 0 l 0,240 a 225,30 0,0,0 450 0 l 0,-240" id="v-28515" stroke="#00bd2b" stroke-width="2" pointer-events="visiblePainted" fill="#00d230" style="fill: rgb(0, 210, 48); stroke: rgb(0, 189, 43);"></path><rect  id="v-28516" stroke-width="0" pointer-events="visiblePainted" fill="none" stroke="none" width="450" height="270" x="0" y="30"></rect><text  id="v-28517" font-size="34" xml:space="preserve" y="0.8em" font-weight="bold" text-anchor="middle" pointer-events="visible" font-family="Open Sans" fill="#000000" transform="matrix(1,0,0,1,225,110.5999984741211)" style="fill: rgb(0, 0, 0);"><tspan  dy="0">Database</tspan></text><text  id="v-28518" font-size="17" xml:space="preserve" y="0.8em" text-anchor="middle" font-family="Open Sans" fill="#000000" transform="matrix(1,0,0,1,225,151.39999389648438)" style="fill: rgb(0, 0, 0);"><tspan  dy="0">[Container: PostgreSQL]</tspan></text><text  id="v-28519" font-size="24" xml:space="preserve" y="0.8em" text-anchor="middle" font-family="Open Sans" fill="#000000" transform="matrix(1,0,0,1,225,181.8000030517578)" style="fill: rgb(0, 0, 0);"><tspan  dy="0">Stores Relay User profiles, masks,</tspan><tspan dy="1.2em" x="0" >abuse metrics, etc.</tspan></text><g  id="v-28520" font-weight="normal" text-anchor="middle" color="#000000" transform="matrix(1,0,0,1,222.5,268)" style="fill: rgb(0, 0, 0);" display="none"><g ></g><g ></g><g ></g><g ></g></g><image  id="v-28521"></image></g></g><!--z-index:38--><g   id="j_1674"  transform="translate(219,1824)" style=""><g  id="v-28530" style="opacity: 1;"><ellipse  id="v-28531" stroke="#00bd2b" stroke-width="2" pointer-events="visiblePainted" fill="#00d230" cx="225" cy="150" rx="225" ry="150" style="fill: rgb(0, 210, 48); stroke: rgb(0, 189, 43);"></ellipse><text  id="v-28532" font-size="34" xml:space="preserve" y="0.8em" font-weight="bold" text-anchor="middle" pointer-events="visible" font-family="Open Sans" fill="#000000" transform="matrix(1,0,0,1,225,102.5)" style="fill: rgb(0, 0, 0);"><tspan  dy="0">Log Aggregator</tspan></text><text  id="v-28533" font-size="17" xml:space="preserve" y="0.8em" text-anchor="middle" font-family="Open Sans" fill="#000000" transform="matrix(1,0,0,1,225,143.3000030517578)" style="fill: rgb(0, 0, 0);"><tspan  dy="0">[Container]</tspan></text><text  id="v-28534" font-size="24" xml:space="preserve" y="0.8em" text-anchor="middle" font-family="Open Sans" fill="#000000" transform="matrix(1,0,0,1,225,173.6999969482422)" style="fill: rgb(0, 0, 0);"><tspan  dy="0">Collects logs from other containers</tspan></text><g  id="v-28535" font-weight="normal" text-anchor="middle" color="#000000" transform="matrix(1,0,0,1,222.5,268)" style="fill: rgb(0, 0, 0);" display="none"><g ></g><g ></g><g ></g><g ></g></g><image  id="v-28536"></image></g></g><!--z-index:39--><g   id="j_1675"  transform="translate(219,1271)" style=""><g  id="v-28543" style="opacity: 1;"><rect  id="v-28544" rx="20" ry="20" stroke="#00d230" stroke-width="10" pointer-events="visiblePainted" fill="#ffffff" width="450" height="300" style="fill: rgb(255, 255, 255); stroke: rgb(0, 210, 48);"></rect><text  id="v-28545" font-size="34" xml:space="preserve" y="0.8em" font-weight="bold" text-anchor="middle" pointer-events="visible" font-family="Open Sans" fill="#000000" transform="matrix(1,0,0,1,225,88.0999984741211)" style="fill: rgb(0, 0, 0);"><tspan  dy="0">Metrics Aggregator</tspan></text><text  id="v-28546" font-size="17" xml:space="preserve" y="0.8em" text-anchor="middle" font-family="Open Sans" fill="#000000" transform="matrix(1,0,0,1,225,128.89999389648438)" style="fill: rgb(0, 0, 0);"><tspan  dy="0">[Container: telegraf]</tspan></text><text  id="v-28547" font-size="24" xml:space="preserve" y="0.8em" text-anchor="middle" font-family="Open Sans" fill="#000000" transform="matrix(1,0,0,1,225,159.3000030517578)" style="fill: rgb(0, 0, 0);"><tspan  dy="0">Collects metrics from other</tspan><tspan dy="1.2em" x="0" >containers</tspan></text><g  id="v-28548" color="#000000" transform="matrix(1,0,0,1,222.5,268)" style="fill: rgb(0, 0, 0);" display="none"><g ></g><g ></g><g ></g><g ></g></g><image  id="v-28549"></image></g></g><!--z-index:40--><g   id="j_1676"  transform="translate(1549,1789)" style=""><g  id="v-28556" style="opacity: 1;"><ellipse  id="v-28557" stroke="#00bd2b" stroke-width="2" pointer-events="visiblePainted" fill="#00d230" cx="225" cy="150" rx="225" ry="150" style="fill: rgb(0, 210, 48); stroke: rgb(0, 189, 43);"></ellipse><text  id="v-28558" font-size="34" xml:space="preserve" y="0.8em" font-weight="bold" text-anchor="middle" pointer-events="visible" font-family="Open Sans" fill="#000000" transform="matrix(1,0,0,1,225,102.5)" style="fill: rgb(0, 0, 0);"><tspan  dy="0">Email Encryption</tspan></text><text  id="v-28559" font-size="17" xml:space="preserve" y="0.8em" text-anchor="middle" font-family="Open Sans" fill="#000000" transform="matrix(1,0,0,1,225,143.3000030517578)" style="fill: rgb(0, 0, 0);"><tspan  dy="0">[Container: AWS KMS]</tspan></text><text  id="v-28560" font-size="24" xml:space="preserve" y="0.8em" text-anchor="middle" font-family="Open Sans" fill="#000000" transform="matrix(1,0,0,1,225,173.6999969482422)" style="fill: rgb(0, 0, 0);"><tspan  dy="0">Encrypts emails, notifications at rest</tspan></text><g  id="v-28561" font-weight="normal" text-anchor="middle" color="#000000" transform="matrix(1,0,0,1,222.5,268)" style="fill: rgb(0, 0, 0);" display="none"><g ></g><g ></g><g ></g><g ></g></g><image  id="v-28562"></image></g></g><!--z-index:41--><g   id="j_1677"  transform="translate(1544,1044)" style=""><g  id="v-28566" style="opacity: 1;"><path  d="M 0,30 a 225,30 0,0,0 450 0 a 225,30 0,0,0 -450 0 l 0,240 a 225,30 0,0,0 450 0 l 0,-240" id="v-28567" stroke="#00bd2b" stroke-width="2" pointer-events="visiblePainted" fill="#00d230" style="fill: rgb(0, 210, 48); stroke: rgb(0, 189, 43);"></path><rect  id="v-28568" stroke-width="0" pointer-events="visiblePainted" fill="none" stroke="none" width="450" height="270" x="0" y="30"></rect><text  id="v-28569" font-size="34" xml:space="preserve" y="0.8em" font-weight="bold" text-anchor="middle" pointer-events="visible" font-family="Open Sans" fill="#000000" transform="matrix(1,0,0,1,225,125)" style="fill: rgb(0, 0, 0);"><tspan  dy="0">Incoming Email Storage</tspan></text><text  id="v-28570" font-size="17" xml:space="preserve" y="0.8em" text-anchor="middle" font-family="Open Sans" fill="#000000" transform="matrix(1,0,0,1,225,165.8000030517578)" style="fill: rgb(0, 0, 0);"><tspan  dy="0">[Container: AWS S3]</tspan></text><text  id="v-28571" font-size="24" xml:space="preserve" y="0.8em" text-anchor="middle" font-family="Open Sans" fill="#000000" transform="matrix(1,0,0,1,225,196.1999969482422)" style="fill: rgb(0, 0, 0);"><tspan  dy="0">Stores incoming mail</tspan></text><g  id="v-28572" font-weight="normal" text-anchor="middle" color="#000000" transform="matrix(1,0,0,1,222.5,268)" style="fill: rgb(0, 0, 0);" display="none"><g ></g><g ></g><g ></g><g ></g></g><image  id="v-28573"></image></g></g><!--z-index:42--><g   id="j_1678"  transform="translate(1545,2270)" style=""><g  id="v-28580" style="opacity: 1;"><path  d="M 0,30 a 225,30 0,0,0 450 0 a 225,30 0,0,0 -450 0 l 0,240 a 225,30 0,0,0 450 0 l 0,-240" id="v-28581" stroke="#00bd2b" stroke-width="2" pointer-events="visiblePainted" fill="#00d230" style="fill: rgb(0, 210, 48); stroke: rgb(0, 189, 43);"></path><rect  id="v-28582" stroke-width="0" pointer-events="visiblePainted" fill="none" stroke="none" width="450" height="270" x="0" y="30"></rect><text  id="v-28583" font-size="34" xml:space="preserve" y="0.8em" font-weight="bold" text-anchor="middle" pointer-events="visible" font-family="Open Sans" fill="#000000" transform="matrix(1,0,0,1,225,110.5999984741211)" style="fill: rgb(0, 0, 0);"><tspan  dy="0">Email Notification Queue</tspan></text><text  id="v-28584" font-size="17" xml:space="preserve" y="0.8em" text-anchor="middle" font-family="Open Sans" fill="#000000" transform="matrix(1,0,0,1,225,151.39999389648438)" style="fill: rgb(0, 0, 0);"><tspan  dy="0">[Container: AWS SQS]</tspan></text><text  id="v-28585" font-size="24" xml:space="preserve" y="0.8em" text-anchor="middle" font-family="Open Sans" fill="#000000" transform="matrix(1,0,0,1,225,181.8000030517578)" style="fill: rgb(0, 0, 0);"><tspan  dy="0">Holds notifications for emails,</tspan><tspan dy="1.2em" x="0" >complaints, and bounces</tspan></text><g  id="v-28586" font-weight="normal" text-anchor="middle" color="#000000" transform="matrix(1,0,0,1,222.5,268)" style="fill: rgb(0, 0, 0);" display="none"><g ></g><g ></g><g ></g><g ></g></g><image  id="v-28587"></image></g></g><!--z-index:43--><g   id="j_1679"  transform="translate(1969,1359)" style=""><g  id="v-28591" style="opacity: 1;"><ellipse  id="v-28592" stroke="#00bd2b" stroke-width="2" pointer-events="visiblePainted" fill="#00d230" cx="225" cy="150" rx="225" ry="150" style="fill: rgb(0, 210, 48); stroke: rgb(0, 189, 43);"></ellipse><text  id="v-28593" font-size="34" xml:space="preserve" y="0.8em" font-weight="bold" text-anchor="middle" pointer-events="visible" font-family="Open Sans" fill="#000000" transform="matrix(1,0,0,1,225,88.0999984741211)" style="fill: rgb(0, 0, 0);"><tspan  dy="0">Email Pub/Sub</tspan></text><text  id="v-28594" font-size="17" xml:space="preserve" y="0.8em" text-anchor="middle" font-family="Open Sans" fill="#000000" transform="matrix(1,0,0,1,225,128.89999389648438)" style="fill: rgb(0, 0, 0);"><tspan  dy="0">[Container: AWS SNS]</tspan></text><text  id="v-28595" font-size="24" xml:space="preserve" y="0.8em" text-anchor="middle" font-family="Open Sans" fill="#000000" transform="matrix(1,0,0,1,225,159.3000030517578)" style="fill: rgb(0, 0, 0);"><tspan  dy="0">Published notifications to</tspan><tspan dy="1.2em" x="0" >subscribers</tspan></text><g  id="v-28596" font-weight="normal" text-anchor="middle" color="#000000" transform="matrix(1,0,0,1,222.5,268)" style="fill: rgb(0, 0, 0);" display="none"><g ></g><g ></g><g ></g><g ></g></g><image  id="v-28597"></image></g></g><!--z-index:44--><g   id="j_1680"  transform="translate(2484,700)" style=""><g  id="v-28601" style="opacity: 1;"><ellipse  id="v-28602" stroke="#00bd2b" stroke-width="2" pointer-events="visiblePainted" fill="#00d230" cx="225" cy="150" rx="225" ry="150" style="fill: rgb(0, 210, 48); stroke: rgb(0, 189, 43);"></ellipse><text  id="v-28603" font-size="34" xml:space="preserve" y="0.8em" font-weight="bold" text-anchor="middle" pointer-events="visible" font-family="Open Sans" fill="#000000" transform="matrix(1,0,0,1,225,88.0999984741211)" style="fill: rgb(0, 0, 0);"><tspan  dy="0">Email Sender</tspan></text><text  id="v-28604" font-size="17" xml:space="preserve" y="0.8em" text-anchor="middle" font-family="Open Sans" fill="#000000" transform="matrix(1,0,0,1,225,128.89999389648438)" style="fill: rgb(0, 0, 0);"><tspan  dy="0">[Container: Amazon SES]</tspan></text><text  id="v-28605" font-size="24" xml:space="preserve" y="0.8em" text-anchor="middle" font-family="Open Sans" fill="#000000" transform="matrix(1,0,0,1,225,159.3000030517578)" style="fill: rgb(0, 0, 0);"><tspan  dy="0">Sends emails from the Relay</tspan><tspan dy="1.2em" x="0" >domain</tspan></text><g  id="v-28606" font-weight="normal" text-anchor="middle" color="#000000" transform="matrix(1,0,0,1,222.5,268)" style="fill: rgb(0, 0, 0);" display="none"><g ></g><g ></g><g ></g><g ></g></g><image  id="v-28607"></image></g></g><!--z-index:45--><g   id="j_1681"  transform="translate(2484,1789)" style=""><g  id="v-28611" style="opacity: 1;"><ellipse  id="v-28612" stroke="#00bd2b" stroke-width="2" pointer-events="visiblePainted" fill="#00d230" cx="225" cy="150" rx="225" ry="150" style="fill: rgb(0, 210, 48); stroke: rgb(0, 189, 43);"></ellipse><text  id="v-28613" font-size="34" xml:space="preserve" y="0.8em" font-weight="bold" text-anchor="middle" pointer-events="visible" font-family="Open Sans" fill="#000000" transform="matrix(1,0,0,1,225,88.0999984741211)" style="fill: rgb(0, 0, 0);"><tspan  dy="0">Email Receiver</tspan></text><text  id="v-28614" font-size="17" xml:space="preserve" y="0.8em" text-anchor="middle" font-family="Open Sans" fill="#000000" transform="matrix(1,0,0,1,225,128.89999389648438)" style="fill: rgb(0, 0, 0);"><tspan  dy="0">[Container: Amazon SES]</tspan></text><text  id="v-28615" font-size="24" xml:space="preserve" y="0.8em" text-anchor="middle" font-family="Open Sans" fill="#000000" transform="matrix(1,0,0,1,225,159.3000030517578)" style="fill: rgb(0, 0, 0);"><tspan  dy="0">Routes incoming emails,</tspan><tspan dy="1.2em" x="0" >complaints, and bounces</tspan></text><g  id="v-28616" font-weight="normal" text-anchor="middle" color="#000000" transform="matrix(1,0,0,1,222.5,268)" style="fill: rgb(0, 0, 0);" display="none"><g ></g><g ></g><g ></g><g ></g></g><image  id="v-28617"></image></g></g><!--z-index:46--><g   id="j_1682"  transform="translate(949,700)" style=""><g  id="v-28624" style="opacity: 1;"><rect  id="v-28625" rx="20" ry="20" stroke="#00bd2b" stroke-width="2" pointer-events="visiblePainted" fill="#00d230" width="450" height="300" style="fill: rgb(0, 210, 48); stroke: rgb(0, 189, 43);"></rect><text  id="v-28626" font-size="34" xml:space="preserve" y="0.8em" font-weight="bold" text-anchor="middle" pointer-events="visible" font-family="Open Sans" fill="#000000" transform="matrix(1,0,0,1,225,73.69999694824219)" style="fill: rgb(0, 0, 0);"><tspan  dy="0">Email Processor</tspan></text><text  id="v-28627" font-size="17" xml:space="preserve" y="0.8em" text-anchor="middle" font-family="Open Sans" fill="#000000" transform="matrix(1,0,0,1,225,114.5)" style="fill: rgb(0, 0, 0);"><tspan  dy="0">[Container: Python - Django Command]</tspan></text><text  id="v-28628" font-size="24" xml:space="preserve" y="0.8em" text-anchor="middle" font-family="Open Sans" fill="#000000" transform="matrix(1,0,0,1,225,144.89999389648438)" style="fill: rgb(0, 0, 0);"><tspan  dy="0">Processes and forwards incoming</tspan><tspan dy="1.2em" x="0" >emails; Processes complaint and</tspan><tspan dy="1.2em" x="0" >bounce reports</tspan></text><g  id="v-28629" color="#000000" transform="matrix(1,0,0,1,222.5,268)" style="fill: rgb(0, 0, 0);" display="none"><g ></g><g ></g><g ></g><g ></g></g><image  id="v-28630"></image></g></g><!--z-index:47--><g   id="j_1683"  transform="translate(1699,199)" style=""><g  id="v-28634" style="opacity: 1;"><rect  x="0" y="160" width="400" height="240" rx="70" id="v-28636" stroke="#e68a00" stroke-width="2" pointer-events="visiblePainted" fill="#ff9900" style="fill: rgb(255, 153, 0); stroke: rgb(230, 138, 0);"></rect><circle  cx="200" cy="88.88888888888889" r="88.88888888888889" id="v-28635" stroke="#e68a00" stroke-width="2" pointer-events="visiblePainted" fill="#ff9900" style="fill: rgb(255, 153, 0); stroke: rgb(230, 138, 0);"></circle><line  x1="80" y1="266.6666666666667" x2="80" y2="400" id="v-28642" stroke="#e68a00" stroke-width="2" style="stroke: rgb(230, 138, 0);"></line><line  x1="320" y1="266.6666666666667" x2="320" y2="400" id="v-28643" stroke="#e68a00" stroke-width="2" style="stroke: rgb(230, 138, 0);"></line><text  id="v-28637" font-size="34" xml:space="preserve" y="0.8em" font-weight="bold" text-anchor="middle" pointer-events="visible" font-family="Open Sans" fill="#000000" transform="matrix(1,0,0,1,200,232.5)" style="fill: rgb(0, 0, 0);"><tspan  dy="0">Relay User</tspan></text><text  id="v-28638" font-size="17" xml:space="preserve" y="0.8em" text-anchor="middle" font-family="Open Sans" fill="#000000" transform="matrix(1,0,0,1,200,273.29998779296875)" style="fill: rgb(0, 0, 0);"><tspan  dy="0">[Person]</tspan></text><text  id="v-28639" font-size="24" xml:space="preserve" y="0.8em" text-anchor="middle" font-family="Open Sans" fill="#000000" transform="matrix(1,0,0,1,200,303.70001220703125)" style="fill: rgb(0, 0, 0);"><tspan  dy="0">A user of Firefox Relay.</tspan></text><g  id="v-28640" font-weight="normal" text-anchor="middle" color="#000000" transform="matrix(1,0,0,1,197.5,368)" style="fill: rgb(0, 0, 0);" display="none"><g ></g><g ></g><g ></g><g ></g></g><image  id="v-28641"></image></g></g><!--z-index:48--><g   id="j_1684"  transform="translate(2999,1014)" style=""><g  id="v-28647" style="opacity: 1;"><rect  x="0" y="160" width="400" height="240" rx="70" id="v-28649" stroke="#c7c7c7" stroke-width="2" pointer-events="visiblePainted" fill="#dddddd" style="fill: rgb(221, 221, 221); stroke: rgb(199, 199, 199);"></rect><circle  cx="200" cy="88.88888888888889" r="88.88888888888889" id="v-28648" stroke="#c7c7c7" stroke-width="2" pointer-events="visiblePainted" fill="#dddddd" style="fill: rgb(221, 221, 221); stroke: rgb(199, 199, 199);"></circle><line  x1="80" y1="266.6666666666667" x2="80" y2="400" id="v-28655" stroke="#c7c7c7" stroke-width="2" style="stroke: rgb(199, 199, 199);"></line><line  x1="320" y1="266.6666666666667" x2="320" y2="400" id="v-28656" stroke="#c7c7c7" stroke-width="2" style="stroke: rgb(199, 199, 199);"></line><text  id="v-28650" font-size="34" xml:space="preserve" y="0.8em" font-weight="bold" text-anchor="middle" pointer-events="visible" font-family="Open Sans" fill="#000000" transform="matrix(1,0,0,1,200,218.10000610351562)" style="fill: rgb(0, 0, 0);"><tspan  dy="0">Email Contact</tspan></text><text  id="v-28651" font-size="17" xml:space="preserve" y="0.8em" text-anchor="middle" font-family="Open Sans" fill="#000000" transform="matrix(1,0,0,1,200,258.8999938964844)" style="fill: rgb(0, 0, 0);"><tspan  dy="0">[Person]</tspan></text><text  id="v-28652" font-size="24" xml:space="preserve" y="0.8em" text-anchor="middle" font-family="Open Sans" fill="#000000" transform="matrix(1,0,0,1,200,289.29998779296875)" style="fill: rgb(0, 0, 0);"><tspan  dy="0">A person or business emailing</tspan><tspan dy="1.2em" x="0" >with a Relay User.</tspan></text><g  id="v-28653" font-weight="normal" text-anchor="middle" color="#000000" transform="matrix(1,0,0,1,197.5,368)" style="fill: rgb(0, 0, 0);" display="none"><g ></g><g ></g><g ></g><g ></g></g><image  id="v-28654"></image></g></g><!--z-index:49--><g   id="j_1685" ><path  stroke="#505050" d="M 3064 1414 L 2810 1789" id="v-28672" stroke-width="2" fill="none"></path><path  fill="black" stroke="black" d="M 0 0 0 0" transform="matrix(-0.5599660873413086,0.8285155296325684,-0.8285155296325684,-0.5599660873413086,3063.830078125,1414)"></path><path  fill="#505050" stroke="#505050" d="M 20 0 L 0 10 L 20 20 z" id="v-28674" transform="matrix(0.5599658489227295,-0.8285157084465027,0.8285157084465027,0.5599658489227295,2802.094970703125,1783.400390625)"></path><path  d="M 3064 1414 L 2810 1789" id="v-28673" fill="none" style="cursor: default;"></path><g ><g id="v-28663"  label-idx="0" cursor="move" transform="matrix(1,0,0,1,2937,1601.5)" style="cursor: default;"><rect joint-selector="rect" id="v-28667" fill="#ffffff" rx="3" ry="3" pointer-events="none" width="196.11666870117188" height="120.40000534057617" transform="matrix(1,0,0,1,-98.0999984741211,-60.20000076293945)"></rect><text joint-selector="text" id="v-28666" font-size="24px" xml:space="preserve" y="0.8em" fill="#505050" text-anchor="middle" pointer-events="none" font-family="Open Sans" font-weight="normal" transform="matrix(1,0,0,1,0,-53.400001525878906)"><tspan  dy="0">1: Sends email.</tspan><tspan dy="1.2em" x="0" >Email passes</tspan><tspan dy="1.2em" x="0" >DMARC, virus,</tspan><tspan dy="1.2em" x="0" >and spam checks</tspan></text></g><g id="v-28664"  label-idx="1" cursor="move" transform="matrix(1,0,0,1,2937,1671.0999755859375)" style="cursor: default;"><rect joint-selector="rect" id="v-28669" fill="#ffffff" rx="3" ry="3" pointer-events="none" width="231.61666870117188" height="24" transform="matrix(1,0,0,1,-115.80000305175781,-12)"></rect><text joint-selector="text" id="v-28668" font-size="17px" xml:space="preserve" y="0.8em" fill="#505050" text-anchor="middle" pointer-events="none" font-family="Open Sans" font-weight="normal" transform="matrix(1,0,0,1,0,-6.599999904632568)"><tspan  dy="0">[SMTP via user's email mask]</tspan></text></g><g id="v-28665"  label-idx="2" cursor="move" transform="matrix(1,0,0,1,2927,1679.5)" style="cursor: default;"><rect joint-selector="rect" id="v-28671" fill="#ffffff" rx="3" ry="3"  width="0" height="0" transform="matrix(1,0,0,1,0,0)" display="none"></rect><text joint-selector="text" id="v-28670" fill="#000000" font-size="14" text-anchor="middle" pointer-events="none"></text></g></g><g  display="none"></g><g  id="v-28676" display="none"><g  id="v-28661"><path  end="source" d="M 26 0 L 0 13 L 26 26 z"></path></g><g  id="v-28662"><path  end="target" d="M 26 0 L 0 13 L 26 26 z"></path></g></g><g  id="v-28675" display="none"><g  id="v-28660" transform="translate(3041.5680269857767, 1447.118070395015) "><g  event="remove"><circle r="11"></circle><path transform="scale(.8) translate(-16, -16)" d="M24.778,21.419 19.276,15.917 24.777,10.415 21.949,7.585 16.447,13.087 10.945,7.585 8.117,10.415 13.618,15.917 8.116,21.419 10.946,24.248 16.447,18.746 21.948,24.248z"></path><title>Remove link.</title></g><g  event="link:options"><circle r="11" transform="translate(25)"></circle><path fill="white" transform="scale(.55) translate(29, -16)" d="M31.229,17.736c0.064-0.571,0.104-1.148,0.104-1.736s-0.04-1.166-0.104-1.737l-4.377-1.557c-0.218-0.716-0.504-1.401-0.851-2.05l1.993-4.192c-0.725-0.91-1.549-1.734-2.458-2.459l-4.193,1.994c-0.647-0.347-1.334-0.632-2.049-0.849l-1.558-4.378C17.165,0.708,16.588,0.667,16,0.667s-1.166,0.041-1.737,0.105L12.707,5.15c-0.716,0.217-1.401,0.502-2.05,0.849L6.464,4.005C5.554,4.73,4.73,5.554,4.005,6.464l1.994,4.192c-0.347,0.648-0.632,1.334-0.849,2.05l-4.378,1.557C0.708,14.834,0.667,15.412,0.667,16s0.041,1.165,0.105,1.736l4.378,1.558c0.217,0.715,0.502,1.401,0.849,2.049l-1.994,4.193c0.725,0.909,1.549,1.733,2.459,2.458l4.192-1.993c0.648,0.347,1.334,0.633,2.05,0.851l1.557,4.377c0.571,0.064,1.148,0.104,1.737,0.104c0.588,0,1.165-0.04,1.736-0.104l1.558-4.377c0.715-0.218,1.399-0.504,2.049-0.851l4.193,1.993c0.909-0.725,1.733-1.549,2.458-2.458l-1.993-4.193c0.347-0.647,0.633-1.334,0.851-2.049L31.229,17.736zM16,20.871c-2.69,0-4.872-2.182-4.872-4.871c0-2.69,2.182-4.872,4.872-4.872c2.689,0,4.871,2.182,4.871,4.872C20.871,18.689,18.689,20.871,16,20.871z"></path><title>Link options.</title></g></g></g></g><!--z-index:50--><g   id="j_1686" ><path  stroke="#505050" d="M 2707 1789 L 2700 1370 C 2700 1363.3333333333333 2697.333333333333 1358.3333333333333 2692 1355 L 2448 1195 C 2442.6666666666665 1191.6666666666665 2436.6666666666665 1190 2430 1190 L 1994 1193" id="v-28694" stroke-width="2" fill="none"></path><path  fill="black" stroke="black" d="M 0 0 0 0" transform="matrix(-0.015545843169093132,-0.9998791813850403,0.9998791813850403,-0.015545843169093132,2706.669921875,1789)"></path><path  fill="#505050" stroke="#505050" d="M 20 0 L 0 10 L 20 20 z" id="v-28696" transform="matrix(0.9999822378158569,-0.005963847506791353,0.005963847506791353,0.9999822378158569,1993.9404296875,1182.66015625)"></path><path  d="M 2707 1789 L 2700 1370 C 2700 1363.3333333333333 2697.333333333333 1358.3333333333333 2692 1355 L 2448 1195 C 2442.6666666666665 1191.6666666666665 2436.6666666666665 1190 2430 1190 L 1994 1193" id="v-28695" fill="none" style="cursor: default;"></path><g ><g id="v-28685"  label-idx="0" cursor="move" transform="matrix(1,0,0,1,2562.451904296875,1270.0504150390625)" style="cursor: default;"><rect joint-selector="rect" id="v-28689" fill="#ffffff" rx="3" ry="3" pointer-events="none" width="184.3333282470703" height="62.79999923706055" transform="matrix(1,0,0,1,-92.19999694824219,-31.399999618530273)"></rect><text joint-selector="text" id="v-28688" font-size="24px" xml:space="preserve" y="0.8em" fill="#505050" text-anchor="middle" pointer-events="none" font-family="Open Sans" font-weight="normal" transform="matrix(1,0,0,1,0,-24.600000381469727)"><tspan  dy="0">2: Stores</tspan><tspan dy="1.2em" x="0" >encrypted email</tspan></text></g><g id="v-28686"  label-idx="1" cursor="move" transform="matrix(1,0,0,1,2562.451904296875,1310.8504638671875)" style="cursor: default;"><rect joint-selector="rect" id="v-28691" fill="#ffffff" rx="3" ry="3" pointer-events="none" width="34.16666793823242" height="24" transform="matrix(1,0,0,1,-17.100000381469727,-12)"></rect><text joint-selector="text" id="v-28690" font-size="17px" xml:space="preserve" y="0.8em" fill="#505050" text-anchor="middle" pointer-events="none" font-family="Open Sans" font-weight="normal" transform="matrix(1,0,0,1,0,-6.599999904632568)"><tspan  dy="0">[S3]</tspan></text></g><g id="v-28687"  label-idx="2" cursor="move" transform="matrix(1,0,0,1,2552.451904296875,1319.25048828125)" style="cursor: default;"><rect joint-selector="rect" id="v-28693" fill="#ffffff" rx="3" ry="3"  width="0" height="0" transform="matrix(1,0,0,1,0,0)" display="none"></rect><text joint-selector="text" id="v-28692" fill="#000000" font-size="14" text-anchor="middle" pointer-events="none"></text></g></g><g  display="none"><g  transform="translate(2700, 1360)" id="v-28681"><circle  idx="0" r="10"></circle><path  idx="0" d="M16,5.333c-7.732,0-14,4.701-14,10.5c0,1.982,0.741,3.833,2.016,5.414L2,25.667l5.613-1.441c2.339,1.317,5.237,2.107,8.387,2.107c7.732,0,14-4.701,14-10.5C30,10.034,23.732,5.333,16,5.333z" transform="translate(5, -33)"></path><path  idx="0" transform="scale(.8) translate(9.5, -37)" d="M24.778,21.419 19.276,15.917 24.777,10.415 21.949,7.585 16.447,13.087 10.945,7.585 8.117,10.415 13.618,15.917 8.116,21.419 10.946,24.248 16.447,18.746 21.948,24.248z"><title>Remove vertex.</title></path></g><g  transform="translate(2440, 1190)" id="v-28682"><circle  idx="1" r="10"></circle><path  idx="1" d="M16,5.333c-7.732,0-14,4.701-14,10.5c0,1.982,0.741,3.833,2.016,5.414L2,25.667l5.613-1.441c2.339,1.317,5.237,2.107,8.387,2.107c7.732,0,14-4.701,14-10.5C30,10.034,23.732,5.333,16,5.333z" transform="translate(5, -33)"></path><path  idx="1" transform="scale(.8) translate(9.5, -37)" d="M24.778,21.419 19.276,15.917 24.777,10.415 21.949,7.585 16.447,13.087 10.945,7.585 8.117,10.415 13.618,15.917 8.116,21.419 10.946,24.248 16.447,18.746 21.948,24.248z"><title>Remove vertex.</title></path></g></g><g  id="v-28698" display="none"><g  id="v-28683"><path  end="source" d="M 26 0 L 0 13 L 26 26 z"></path></g><g  id="v-28684"><path  end="target" d="M 26 0 L 0 13 L 26 26 z"></path></g></g><g  id="v-28697" display="none"><g  id="v-28680" transform="translate(2706.3318354810503, 1749.0055809371406) "><g  event="remove"><circle r="11"></circle><path transform="scale(.8) translate(-16, -16)" d="M24.778,21.419 19.276,15.917 24.777,10.415 21.949,7.585 16.447,13.087 10.945,7.585 8.117,10.415 13.618,15.917 8.116,21.419 10.946,24.248 16.447,18.746 21.948,24.248z"></path><title>Remove link.</title></g><g  event="link:options"><circle r="11" transform="translate(25)"></circle><path fill="white" transform="scale(.55) translate(29, -16)" d="M31.229,17.736c0.064-0.571,0.104-1.148,0.104-1.736s-0.04-1.166-0.104-1.737l-4.377-1.557c-0.218-0.716-0.504-1.401-0.851-2.05l1.993-4.192c-0.725-0.91-1.549-1.734-2.458-2.459l-4.193,1.994c-0.647-0.347-1.334-0.632-2.049-0.849l-1.558-4.378C17.165,0.708,16.588,0.667,16,0.667s-1.166,0.041-1.737,0.105L12.707,5.15c-0.716,0.217-1.401,0.502-2.05,0.849L6.464,4.005C5.554,4.73,4.73,5.554,4.005,6.464l1.994,4.192c-0.347,0.648-0.632,1.334-0.849,2.05l-4.378,1.557C0.708,14.834,0.667,15.412,0.667,16s0.041,1.165,0.105,1.736l4.378,1.558c0.217,0.715,0.502,1.401,0.849,2.049l-1.994,4.193c0.725,0.909,1.549,1.733,2.459,2.458l4.192-1.993c0.648,0.347,1.334,0.633,2.05,0.851l1.557,4.377c0.571,0.064,1.148,0.104,1.737,0.104c0.588,0,1.165-0.04,1.736-0.104l1.558-4.377c0.715-0.218,1.399-0.504,2.049-0.851l4.193,1.993c0.909-0.725,1.733-1.549,2.458-2.458l-1.993-4.193c0.347-0.647,0.633-1.334,0.851-2.049L31.229,17.736zM16,20.871c-2.69,0-4.872-2.182-4.872-4.871c0-2.69,2.182-4.872,4.872-4.872c2.689,0,4.871,2.182,4.871,4.872C20.871,18.689,18.689,20.871,16,20.871z"></path><title>Link options.</title></g></g></g></g><!--z-index:51--><g   id="j_1687" ><path  stroke="#505050" d="M 2484 1939 L 1999 1939" id="v-28714" stroke-width="2" fill="none"></path><path  fill="black" stroke="black" d="M 0 0 0 0" transform="matrix(-1,1.2246468525851679e-16,-1.2246468525851679e-16,-1,2484,1939)"></path><path  fill="#505050" stroke="#505050" d="M 20 0 L 0 10 L 20 20 z" id="v-28716" transform="matrix(1,0,0,1,1999,1929)"></path><path  d="M 2484 1939 L 1999 1939" id="v-28715" fill="none" style="cursor: default;"></path><g ><g id="v-28705"  label-idx="0" cursor="move" transform="matrix(1,0,0,1,2362.75,1939)" style="cursor: default;"><rect joint-selector="rect" id="v-28709" fill="#ffffff" rx="3" ry="3" pointer-events="none" width="193.6999969482422" height="62.79999923706055" transform="matrix(1,0,0,1,-96.80000305175781,-31.399999618530273)"></rect><text joint-selector="text" id="v-28708" font-size="24px" xml:space="preserve" y="0.8em" fill="#505050" text-anchor="middle" pointer-events="none" font-family="Open Sans" font-weight="normal" transform="matrix(1,0,0,1,0,-24.600000381469727)"><tspan  dy="0">2: Encrypts email</tspan><tspan dy="1.2em" x="0" >with key</tspan></text></g><g id="v-28706"  label-idx="1" cursor="move" transform="matrix(1,0,0,1,2362.75,1979.800048828125)" style="cursor: default;"><rect joint-selector="rect" id="v-28711" fill="#ffffff" rx="3" ry="3" pointer-events="none" width="50.150001525878906" height="24" transform="matrix(1,0,0,1,-25.100000381469727,-12)"></rect><text joint-selector="text" id="v-28710" font-size="17px" xml:space="preserve" y="0.8em" fill="#505050" text-anchor="middle" pointer-events="none" font-family="Open Sans" font-weight="normal" transform="matrix(1,0,0,1,0,-6.599999904632568)"><tspan  dy="0">[KMS]</tspan></text></g><g id="v-28707"  label-idx="2" cursor="move" transform="matrix(1,0,0,1,2352.75,1988.199951171875)" style="cursor: default;"><rect joint-selector="rect" id="v-28713" fill="#ffffff" rx="3" ry="3"  width="0" height="0" transform="matrix(1,0,0,1,0,0)" display="none"></rect><text joint-selector="text" id="v-28712" fill="#000000" font-size="14" text-anchor="middle" pointer-events="none"></text></g></g><g  display="none"></g><g  id="v-28718" display="none"><g  id="v-28703"><path  end="source" d="M 26 0 L 0 13 L 26 26 z"></path></g><g  id="v-28704"><path  end="target" d="M 26 0 L 0 13 L 26 26 z"></path></g></g><g  id="v-28717" display="none"><g  id="v-28702" transform="translate(2443.9999999999995, 1939) "><g  event="remove"><circle r="11"></circle><path transform="scale(.8) translate(-16, -16)" d="M24.778,21.419 19.276,15.917 24.777,10.415 21.949,7.585 16.447,13.087 10.945,7.585 8.117,10.415 13.618,15.917 8.116,21.419 10.946,24.248 16.447,18.746 21.948,24.248z"></path><title>Remove link.</title></g><g  event="link:options"><circle r="11" transform="translate(25)"></circle><path fill="white" transform="scale(.55) translate(29, -16)" d="M31.229,17.736c0.064-0.571,0.104-1.148,0.104-1.736s-0.04-1.166-0.104-1.737l-4.377-1.557c-0.218-0.716-0.504-1.401-0.851-2.05l1.993-4.192c-0.725-0.91-1.549-1.734-2.458-2.459l-4.193,1.994c-0.647-0.347-1.334-0.632-2.049-0.849l-1.558-4.378C17.165,0.708,16.588,0.667,16,0.667s-1.166,0.041-1.737,0.105L12.707,5.15c-0.716,0.217-1.401,0.502-2.05,0.849L6.464,4.005C5.554,4.73,4.73,5.554,4.005,6.464l1.994,4.192c-0.347,0.648-0.632,1.334-0.849,2.05l-4.378,1.557C0.708,14.834,0.667,15.412,0.667,16s0.041,1.165,0.105,1.736l4.378,1.558c0.217,0.715,0.502,1.401,0.849,2.049l-1.994,4.193c0.725,0.909,1.549,1.733,2.459,2.458l4.192-1.993c0.648,0.347,1.334,0.633,2.05,0.851l1.557,4.377c0.571,0.064,1.148,0.104,1.737,0.104c0.588,0,1.165-0.04,1.736-0.104l1.558-4.377c0.715-0.218,1.399-0.504,2.049-0.851l4.193,1.993c0.909-0.725,1.733-1.549,2.458-2.458l-1.993-4.193c0.347-0.647,0.633-1.334,0.851-2.049L31.229,17.736zM16,20.871c-2.69,0-4.872-2.182-4.872-4.871c0-2.69,2.182-4.872,4.872-4.872c2.689,0,4.871,2.182,4.871,4.872C20.871,18.689,18.689,20.871,16,20.871z"></path><title>Link options.</title></g></g></g></g><!--z-index:52--><g   id="j_1688" ><path  stroke="#505050" d="M 2529 1789 L 2374 1659" id="v-28734" stroke-width="2" fill="none"></path><path  fill="black" stroke="black" d="M 0 0 0 0" transform="matrix(-0.7676148414611816,-0.6409114599227905,0.6409114599227905,-0.7676148414611816,2529.35009765625,1789)"></path><path  fill="#505050" stroke="#505050" d="M 20 0 L 0 10 L 20 20 z" id="v-28736" transform="matrix(0.7676147818565369,0.6409115195274353,-0.6409115195274353,0.7676147818565369,2380.05908203125,1651.3238525390625)"></path><path  d="M 2529 1789 L 2374 1659" id="v-28735" fill="none" style="cursor: default;"></path><g ><g id="v-28725"  label-idx="0" cursor="move" transform="matrix(1,0,0,1,2451.5,1724)" style="cursor: default;"><rect joint-selector="rect" id="v-28729" fill="#ffffff" rx="3" ry="3" pointer-events="none" width="197.89999389648438" height="62.79999923706055" transform="matrix(1,0,0,1,-98.9000015258789,-31.399999618530273)"></rect><text joint-selector="text" id="v-28728" font-size="24px" xml:space="preserve" y="0.8em" fill="#505050" text-anchor="middle" pointer-events="none" font-family="Open Sans" font-weight="normal" transform="matrix(1,0,0,1,0,-24.600000381469727)"><tspan  dy="0">3: Publishes</tspan><tspan dy="1.2em" x="0" >email notification</tspan></text></g><g id="v-28726"  label-idx="1" cursor="move" transform="matrix(1,0,0,1,2451.5,1764.800048828125)" style="cursor: default;"><rect joint-selector="rect" id="v-28731" fill="#ffffff" rx="3" ry="3" pointer-events="none" width="46.56666564941406" height="24" transform="matrix(1,0,0,1,-23.299999237060547,-12)"></rect><text joint-selector="text" id="v-28730" font-size="17px" xml:space="preserve" y="0.8em" fill="#505050" text-anchor="middle" pointer-events="none" font-family="Open Sans" font-weight="normal" transform="matrix(1,0,0,1,0,-6.599999904632568)"><tspan  dy="0">[SNS]</tspan></text></g><g id="v-28727"  label-idx="2" cursor="move" transform="matrix(1,0,0,1,2441.5,1773.199951171875)" style="cursor: default;"><rect joint-selector="rect" id="v-28733" fill="#ffffff" rx="3" ry="3"  width="0" height="0" transform="matrix(1,0,0,1,0,0)" display="none"></rect><text joint-selector="text" id="v-28732" fill="#000000" font-size="14" text-anchor="middle" pointer-events="none"></text></g></g><g  display="none"></g><g  id="v-28738" display="none"><g  id="v-28723"><path  end="source" d="M 26 0 L 0 13 L 26 26 z"></path></g><g  id="v-28724"><path  end="target" d="M 26 0 L 0 13 L 26 26 z"></path></g></g><g  id="v-28737" display="none"><g  id="v-28722" transform="translate(2498.352338274968, 1763.2955095209413) "><g  event="remove"><circle r="11"></circle><path transform="scale(.8) translate(-16, -16)" d="M24.778,21.419 19.276,15.917 24.777,10.415 21.949,7.585 16.447,13.087 10.945,7.585 8.117,10.415 13.618,15.917 8.116,21.419 10.946,24.248 16.447,18.746 21.948,24.248z"></path><title>Remove link.</title></g><g  event="link:options"><circle r="11" transform="translate(25)"></circle><path fill="white" transform="scale(.55) translate(29, -16)" d="M31.229,17.736c0.064-0.571,0.104-1.148,0.104-1.736s-0.04-1.166-0.104-1.737l-4.377-1.557c-0.218-0.716-0.504-1.401-0.851-2.05l1.993-4.192c-0.725-0.91-1.549-1.734-2.458-2.459l-4.193,1.994c-0.647-0.347-1.334-0.632-2.049-0.849l-1.558-4.378C17.165,0.708,16.588,0.667,16,0.667s-1.166,0.041-1.737,0.105L12.707,5.15c-0.716,0.217-1.401,0.502-2.05,0.849L6.464,4.005C5.554,4.73,4.73,5.554,4.005,6.464l1.994,4.192c-0.347,0.648-0.632,1.334-0.849,2.05l-4.378,1.557C0.708,14.834,0.667,15.412,0.667,16s0.041,1.165,0.105,1.736l4.378,1.558c0.217,0.715,0.502,1.401,0.849,2.049l-1.994,4.193c0.725,0.909,1.549,1.733,2.459,2.458l4.192-1.993c0.648,0.347,1.334,0.633,2.05,0.851l1.557,4.377c0.571,0.064,1.148,0.104,1.737,0.104c0.588,0,1.165-0.04,1.736-0.104l1.558-4.377c0.715-0.218,1.399-0.504,2.049-0.851l4.193,1.993c0.909-0.725,1.733-1.549,2.458-2.458l-1.993-4.193c0.347-0.647,0.633-1.334,0.851-2.049L31.229,17.736zM16,20.871c-2.69,0-4.872-2.182-4.872-4.871c0-2.69,2.182-4.872,4.872-4.872c2.689,0,4.871,2.182,4.871,4.872C20.871,18.689,18.689,20.871,16,20.871z"></path><title>Link options.</title></g></g></g></g><!--z-index:53--><g   id="j_1689" ><path  stroke="#505050" d="M 2047 1659 L 1921 1789" id="v-28754" stroke-width="2" fill="none"></path><path  fill="black" stroke="black" d="M 0 0 0 0" transform="matrix(-0.6987485885620117,0.715367317199707,-0.715367317199707,-0.6987485885620117,2047.489990234375,1659)"></path><path  fill="#505050" stroke="#505050" d="M 20 0 L 0 10 L 20 20 z" id="v-28756" transform="matrix(0.6987485885620117,-0.715367317199707,0.715367317199707,0.6987485885620117,1913.3563232421875,1782.012451171875)"></path><path  d="M 2047 1659 L 1921 1789" id="v-28755" fill="none" style="cursor: default;"></path><g ><g id="v-28745"  label-idx="0" cursor="move" transform="matrix(1,0,0,1,1984,1724)" style="cursor: default;"><rect joint-selector="rect" id="v-28749" fill="#ffffff" rx="3" ry="3" pointer-events="none" width="130.5" height="62.79999923706055" transform="matrix(1,0,0,1,-65.19999694824219,-31.399999618530273)"></rect><text joint-selector="text" id="v-28748" font-size="24px" xml:space="preserve" y="0.8em" fill="#505050" text-anchor="middle" pointer-events="none" font-family="Open Sans" font-weight="normal" transform="matrix(1,0,0,1,0,-24.600000381469727)"><tspan  dy="0">4: Decrypts</tspan><tspan dy="1.2em" x="0" >notification</tspan></text></g><g id="v-28746"  label-idx="1" cursor="move" transform="matrix(1,0,0,1,1984,1764.800048828125)" style="cursor: default;"><rect joint-selector="rect" id="v-28751" fill="#ffffff" rx="3" ry="3" pointer-events="none" width="50.150001525878906" height="24" transform="matrix(1,0,0,1,-25.100000381469727,-12)"></rect><text joint-selector="text" id="v-28750" font-size="17px" xml:space="preserve" y="0.8em" fill="#505050" text-anchor="middle" pointer-events="none" font-family="Open Sans" font-weight="normal" transform="matrix(1,0,0,1,0,-6.599999904632568)"><tspan  dy="0">[KMS]</tspan></text></g><g id="v-28747"  label-idx="2" cursor="move" transform="matrix(1,0,0,1,1974,1773.199951171875)" style="cursor: default;"><rect joint-selector="rect" id="v-28753" fill="#ffffff" rx="3" ry="3"  width="0" height="0" transform="matrix(1,0,0,1,0,0)" display="none"></rect><text joint-selector="text" id="v-28752" fill="#000000" font-size="14" text-anchor="middle" pointer-events="none"></text></g></g><g  display="none"></g><g  id="v-28758" display="none"><g  id="v-28743"><path  end="source" d="M 26 0 L 0 13 L 26 26 z"></path></g><g  id="v-28744"><path  end="target" d="M 26 0 L 0 13 L 26 26 z"></path></g></g><g  id="v-28757" display="none"><g  id="v-28742" transform="translate(2019.1610685904457, 1687.7227070098577) "><g  event="remove"><circle r="11"></circle><path transform="scale(.8) translate(-16, -16)" d="M24.778,21.419 19.276,15.917 24.777,10.415 21.949,7.585 16.447,13.087 10.945,7.585 8.117,10.415 13.618,15.917 8.116,21.419 10.946,24.248 16.447,18.746 21.948,24.248z"></path><title>Remove link.</title></g><g  event="link:options"><circle r="11" transform="translate(25)"></circle><path fill="white" transform="scale(.55) translate(29, -16)" d="M31.229,17.736c0.064-0.571,0.104-1.148,0.104-1.736s-0.04-1.166-0.104-1.737l-4.377-1.557c-0.218-0.716-0.504-1.401-0.851-2.05l1.993-4.192c-0.725-0.91-1.549-1.734-2.458-2.459l-4.193,1.994c-0.647-0.347-1.334-0.632-2.049-0.849l-1.558-4.378C17.165,0.708,16.588,0.667,16,0.667s-1.166,0.041-1.737,0.105L12.707,5.15c-0.716,0.217-1.401,0.502-2.05,0.849L6.464,4.005C5.554,4.73,4.73,5.554,4.005,6.464l1.994,4.192c-0.347,0.648-0.632,1.334-0.849,2.05l-4.378,1.557C0.708,14.834,0.667,15.412,0.667,16s0.041,1.165,0.105,1.736l4.378,1.558c0.217,0.715,0.502,1.401,0.849,2.049l-1.994,4.193c0.725,0.909,1.549,1.733,2.459,2.458l4.192-1.993c0.648,0.347,1.334,0.633,2.05,0.851l1.557,4.377c0.571,0.064,1.148,0.104,1.737,0.104c0.588,0,1.165-0.04,1.736-0.104l1.558-4.377c0.715-0.218,1.399-0.504,2.049-0.851l4.193,1.993c0.909-0.725,1.733-1.549,2.458-2.458l-1.993-4.193c0.347-0.647,0.633-1.334,0.851-2.049L31.229,17.736zM16,20.871c-2.69,0-4.872-2.182-4.872-4.871c0-2.69,2.182-4.872,4.872-4.872c2.689,0,4.871,2.182,4.871,4.872C20.871,18.689,18.689,20.871,16,20.871z"></path><title>Link options.</title></g></g></g></g><!--z-index:54--><g   id="j_1690" ><path  stroke="#505050" d="M 2194 1659 L 2195 2300 C 2195 2306.6666666666665 2191.6666666666665 2311 2185 2313 L 1995 2362" id="v-28775" stroke-width="2" fill="none"></path><path  fill="black" stroke="black" d="M 0 0 0 0" transform="matrix(0.0012442285660654306,0.9999992251396179,-0.9999992251396179,0.0012442285660654306,2194.18994140625,1659)"></path><path  fill="#505050" stroke="#505050" d="M 20 0 L 0 10 L 20 20 z" id="v-28777" transform="matrix(0.9681048393249512,-0.25054553151130676,0.25054553151130676,0.9681048393249512,1992.4945068359375,2352.0791015625)"></path><path  d="M 2194 1659 L 2195 2300 C 2195 2306.6666666666665 2191.6666666666665 2311 2185 2313 L 1995 2362" id="v-28776" fill="none" style="cursor: default;"></path><g ><g id="v-28766"  label-idx="0" cursor="move" transform="matrix(1,0,0,1,2194.6669921875,2086.509521484375)" style="cursor: default;"><rect joint-selector="rect" id="v-28770" fill="#ffffff" rx="3" ry="3" pointer-events="none" width="153.63333129882812" height="62.79999923706055" transform="matrix(1,0,0,1,-76.80000305175781,-31.399999618530273)"></rect><text joint-selector="text" id="v-28769" font-size="24px" xml:space="preserve" y="0.8em" fill="#505050" text-anchor="middle" pointer-events="none" font-family="Open Sans" font-weight="normal" transform="matrix(1,0,0,1,0,-24.600000381469727)"><tspan  dy="0">4: Adds email</tspan><tspan dy="1.2em" x="0" >notification</tspan></text></g><g id="v-28767"  label-idx="1" cursor="move" transform="matrix(1,0,0,1,2194.6669921875,2127.3095703125)" style="cursor: default;"><rect joint-selector="rect" id="v-28772" fill="#ffffff" rx="3" ry="3" pointer-events="none" width="46.983333587646484" height="24" transform="matrix(1,0,0,1,-23.5,-12)"></rect><text joint-selector="text" id="v-28771" font-size="17px" xml:space="preserve" y="0.8em" fill="#505050" text-anchor="middle" pointer-events="none" font-family="Open Sans" font-weight="normal" transform="matrix(1,0,0,1,0,-6.599999904632568)"><tspan  dy="0">[SQS]</tspan></text></g><g id="v-28768"  label-idx="2" cursor="move" transform="matrix(1,0,0,1,2184.6669921875,2135.70947265625)" style="cursor: default;"><rect joint-selector="rect" id="v-28774" fill="#ffffff" rx="3" ry="3"  width="0" height="0" transform="matrix(1,0,0,1,0,0)" display="none"></rect><text joint-selector="text" id="v-28773" fill="#000000" font-size="14" text-anchor="middle" pointer-events="none"></text></g></g><g  display="none"><g  transform="translate(2195, 2310)" id="v-28763"><circle  idx="0" r="10"></circle><path  idx="0" d="M16,5.333c-7.732,0-14,4.701-14,10.5c0,1.982,0.741,3.833,2.016,5.414L2,25.667l5.613-1.441c2.339,1.317,5.237,2.107,8.387,2.107c7.732,0,14-4.701,14-10.5C30,10.034,23.732,5.333,16,5.333z" transform="translate(5, -33)"></path><path  idx="0" transform="scale(.8) translate(9.5, -37)" d="M24.778,21.419 19.276,15.917 24.777,10.415 21.949,7.585 16.447,13.087 10.945,7.585 8.117,10.415 13.618,15.917 8.116,21.419 10.946,24.248 16.447,18.746 21.948,24.248z"><title>Remove vertex.</title></path></g></g><g  id="v-28779" display="none"><g  id="v-28764"><path  end="source" d="M 26 0 L 0 13 L 26 26 z"></path></g><g  id="v-28765"><path  end="target" d="M 26 0 L 0 13 L 26 26 z"></path></g></g><g  id="v-28778" display="none"><g  id="v-28762" transform="translate(2194.0624024201625, 1698.9999513241949) "><g  event="remove"><circle r="11"></circle><path transform="scale(.8) translate(-16, -16)" d="M24.778,21.419 19.276,15.917 24.777,10.415 21.949,7.585 16.447,13.087 10.945,7.585 8.117,10.415 13.618,15.917 8.116,21.419 10.946,24.248 16.447,18.746 21.948,24.248z"></path><title>Remove link.</title></g><g  event="link:options"><circle r="11" transform="translate(25)"></circle><path fill="white" transform="scale(.55) translate(29, -16)" d="M31.229,17.736c0.064-0.571,0.104-1.148,0.104-1.736s-0.04-1.166-0.104-1.737l-4.377-1.557c-0.218-0.716-0.504-1.401-0.851-2.05l1.993-4.192c-0.725-0.91-1.549-1.734-2.458-2.459l-4.193,1.994c-0.647-0.347-1.334-0.632-2.049-0.849l-1.558-4.378C17.165,0.708,16.588,0.667,16,0.667s-1.166,0.041-1.737,0.105L12.707,5.15c-0.716,0.217-1.401,0.502-2.05,0.849L6.464,4.005C5.554,4.73,4.73,5.554,4.005,6.464l1.994,4.192c-0.347,0.648-0.632,1.334-0.849,2.05l-4.378,1.557C0.708,14.834,0.667,15.412,0.667,16s0.041,1.165,0.105,1.736l4.378,1.558c0.217,0.715,0.502,1.401,0.849,2.049l-1.994,4.193c0.725,0.909,1.549,1.733,2.459,2.458l4.192-1.993c0.648,0.347,1.334,0.633,2.05,0.851l1.557,4.377c0.571,0.064,1.148,0.104,1.737,0.104c0.588,0,1.165-0.04,1.736-0.104l1.558-4.377c0.715-0.218,1.399-0.504,2.049-0.851l4.193,1.993c0.909-0.725,1.733-1.549,2.458-2.458l-1.993-4.193c0.347-0.647,0.633-1.334,0.851-2.049L31.229,17.736zM16,20.871c-2.69,0-4.872-2.182-4.872-4.871c0-2.69,2.182-4.872,4.872-4.872c2.689,0,4.871,2.182,4.871,4.872C20.871,18.689,18.689,20.871,16,20.871z"></path><title>Link options.</title></g></g></g></g><!--z-index:55--><g   id="j_1691" ><path  stroke="#505050" d="M 1771 2270 L 1773 2089" id="v-28795" stroke-width="2" fill="none"></path><path  fill="black" stroke="black" d="M 0 0 0 0" transform="matrix(0.008287129923701286,-0.9999656677246094,0.9999656677246094,0.008287129923701286,1771.25,2270)"></path><path  fill="#505050" stroke="#505050" d="M 20 0 L 0 10 L 20 20 z" id="v-28797" transform="matrix(-0.008286996744573116,0.9999656677246094,-0.9999656677246094,-0.008286996744573116,1782.7496337890625,2089.0830078125)"></path><path  d="M 1771 2270 L 1773 2089" id="v-28796" fill="none" style="cursor: default;"></path><g ><g id="v-28786"  label-idx="0" cursor="move" transform="matrix(1,0,0,1,1772,2179.5)" style="cursor: default;"><rect joint-selector="rect" id="v-28790" fill="#ffffff" rx="3" ry="3" pointer-events="none" width="130.5" height="62.79999923706055" transform="matrix(1,0,0,1,-65.19999694824219,-31.399999618530273)"></rect><text joint-selector="text" id="v-28789" font-size="24px" xml:space="preserve" y="0.8em" fill="#505050" text-anchor="middle" pointer-events="none" font-family="Open Sans" font-weight="normal" transform="matrix(1,0,0,1,0,-24.600000381469727)"><tspan  dy="0">5: Decrypts</tspan><tspan dy="1.2em" x="0" >notification</tspan></text></g><g id="v-28787"  label-idx="1" cursor="move" transform="matrix(1,0,0,1,1772,2220.300048828125)" style="cursor: default;"><rect joint-selector="rect" id="v-28792" fill="#ffffff" rx="3" ry="3" pointer-events="none" width="50.150001525878906" height="24" transform="matrix(1,0,0,1,-25.100000381469727,-12)"></rect><text joint-selector="text" id="v-28791" font-size="17px" xml:space="preserve" y="0.8em" fill="#505050" text-anchor="middle" pointer-events="none" font-family="Open Sans" font-weight="normal" transform="matrix(1,0,0,1,0,-6.599999904632568)"><tspan  dy="0">[KMS]</tspan></text></g><g id="v-28788"  label-idx="2" cursor="move" transform="matrix(1,0,0,1,1762,2228.699951171875)" style="cursor: default;"><rect joint-selector="rect" id="v-28794" fill="#ffffff" rx="3" ry="3"  width="0" height="0" transform="matrix(1,0,0,1,0,0)" display="none"></rect><text joint-selector="text" id="v-28793" fill="#000000" font-size="14" text-anchor="middle" pointer-events="none"></text></g></g><g  display="none"></g><g  id="v-28799" display="none"><g  id="v-28784"><path  end="source" d="M 26 0 L 0 13 L 26 26 z"></path></g><g  id="v-28785"><path  end="target" d="M 26 0 L 0 13 L 26 26 z"></path></g></g><g  id="v-28798" display="none"><g  id="v-28783" transform="translate(1771.441961970118, 2230.002441704312) "><g  event="remove"><circle r="11"></circle><path transform="scale(.8) translate(-16, -16)" d="M24.778,21.419 19.276,15.917 24.777,10.415 21.949,7.585 16.447,13.087 10.945,7.585 8.117,10.415 13.618,15.917 8.116,21.419 10.946,24.248 16.447,18.746 21.948,24.248z"></path><title>Remove link.</title></g><g  event="link:options"><circle r="11" transform="translate(25)"></circle><path fill="white" transform="scale(.55) translate(29, -16)" d="M31.229,17.736c0.064-0.571,0.104-1.148,0.104-1.736s-0.04-1.166-0.104-1.737l-4.377-1.557c-0.218-0.716-0.504-1.401-0.851-2.05l1.993-4.192c-0.725-0.91-1.549-1.734-2.458-2.459l-4.193,1.994c-0.647-0.347-1.334-0.632-2.049-0.849l-1.558-4.378C17.165,0.708,16.588,0.667,16,0.667s-1.166,0.041-1.737,0.105L12.707,5.15c-0.716,0.217-1.401,0.502-2.05,0.849L6.464,4.005C5.554,4.73,4.73,5.554,4.005,6.464l1.994,4.192c-0.347,0.648-0.632,1.334-0.849,2.05l-4.378,1.557C0.708,14.834,0.667,15.412,0.667,16s0.041,1.165,0.105,1.736l4.378,1.558c0.217,0.715,0.502,1.401,0.849,2.049l-1.994,4.193c0.725,0.909,1.549,1.733,2.459,2.458l4.192-1.993c0.648,0.347,1.334,0.633,2.05,0.851l1.557,4.377c0.571,0.064,1.148,0.104,1.737,0.104c0.588,0,1.165-0.04,1.736-0.104l1.558-4.377c0.715-0.218,1.399-0.504,2.049-0.851l4.193,1.993c0.909-0.725,1.733-1.549,2.458-2.458l-1.993-4.193c0.347-0.647,0.633-1.334,0.851-2.049L31.229,17.736zM16,20.871c-2.69,0-4.872-2.182-4.872-4.871c0-2.69,2.182-4.872,4.872-4.872c2.689,0,4.871,2.182,4.871,4.872C20.871,18.689,18.689,20.871,16,20.871z"></path><title>Link options.</title></g></g></g></g><!--z-index:56--><g   id="j_1692" ><path  stroke="#505050" d="M 1200 1000 L 1368 1965 C 1369.3333333333333 1971.6666666666665 1372.3333333333333 1977.333333333333 1377 1982 L 1635 2270" id="v-28816" stroke-width="2" fill="none"></path><path  fill="black" stroke="black" d="M 0 0 0 0" transform="matrix(0.17164014279842377,0.985159695148468,-0.985159695148468,0.17164014279842377,1200.1300048828125,1000)"></path><path  fill="#505050" stroke="#505050" d="M 20 0 L 0 10 L 20 20 z" id="v-28818" transform="matrix(-0.6685049533843994,-0.7437076568603516,0.7437076568603516,-0.6685049533843994,1627.73291015625,2276.68505859375)"></path><path  d="M 1200 1000 L 1368 1965 C 1369.3333333333333 1971.6666666666665 1372.3333333333333 1977.333333333333 1377 1982 L 1635 2270" id="v-28817" fill="none" style="cursor: default;"></path><g ><g id="v-28807"  label-idx="0" cursor="move" transform="matrix(1,0,0,1,1318.8330078125,1682.582275390625)" style="cursor: default;"><rect joint-selector="rect" id="v-28811" fill="#ffffff" rx="3" ry="3" pointer-events="none" width="183.10000610351562" height="91.60000228881836" transform="matrix(1,0,0,1,-91.5999984741211,-45.79999923706055)"></rect><text joint-selector="text" id="v-28810" font-size="24px" xml:space="preserve" y="0.8em" fill="#505050" text-anchor="middle" pointer-events="none" font-family="Open Sans" font-weight="normal" transform="matrix(1,0,0,1,0,-39)"><tspan  dy="0">5: Pulls and</tspan><tspan dy="1.2em" x="0" >processes email</tspan><tspan dy="1.2em" x="0" >notification</tspan></text></g><g id="v-28808"  label-idx="1" cursor="move" transform="matrix(1,0,0,1,1318.8330078125,1737.7823486328125)" style="cursor: default;"><rect joint-selector="rect" id="v-28813" fill="#ffffff" rx="3" ry="3" pointer-events="none" width="77.13333129882812" height="24" transform="matrix(1,0,0,1,-38.599998474121094,-12)"></rect><text joint-selector="text" id="v-28812" font-size="17px" xml:space="preserve" y="0.8em" fill="#505050" text-anchor="middle" pointer-events="none" font-family="Open Sans" font-weight="normal" transform="matrix(1,0,0,1,0,-6.599999904632568)"><tspan  dy="0">[SQS API]</tspan></text></g><g id="v-28809"  label-idx="2" cursor="move" transform="matrix(1,0,0,1,1308.8330078125,1746.1822509765625)" style="cursor: default;"><rect joint-selector="rect" id="v-28815" fill="#ffffff" rx="3" ry="3"  width="0" height="0" transform="matrix(1,0,0,1,0,0)" display="none"></rect><text joint-selector="text" id="v-28814" fill="#000000" font-size="14" text-anchor="middle" pointer-events="none"></text></g></g><g  display="none"><g  transform="translate(1370, 1975)" id="v-28804"><circle  idx="0" r="10"></circle><path  idx="0" d="M16,5.333c-7.732,0-14,4.701-14,10.5c0,1.982,0.741,3.833,2.016,5.414L2,25.667l5.613-1.441c2.339,1.317,5.237,2.107,8.387,2.107c7.732,0,14-4.701,14-10.5C30,10.034,23.732,5.333,16,5.333z" transform="translate(5, -33)"></path><path  idx="0" transform="scale(.8) translate(9.5, -37)" d="M24.778,21.419 19.276,15.917 24.777,10.415 21.949,7.585 16.447,13.087 10.945,7.585 8.117,10.415 13.618,15.917 8.116,21.419 10.946,24.248 16.447,18.746 21.948,24.248z"><title>Remove vertex.</title></path></g></g><g  id="v-28820" display="none"><g  id="v-28805"><path  end="source" d="M 26 0 L 0 13 L 26 26 z"></path></g><g  id="v-28806"><path  end="target" d="M 26 0 L 0 13 L 26 26 z"></path></g></g><g  id="v-28819" display="none"><g  id="v-28803" transform="translate(1206.860540394546, 1039.407270718673) "><g  event="remove"><circle r="11"></circle><path transform="scale(.8) translate(-16, -16)" d="M24.778,21.419 19.276,15.917 24.777,10.415 21.949,7.585 16.447,13.087 10.945,7.585 8.117,10.415 13.618,15.917 8.116,21.419 10.946,24.248 16.447,18.746 21.948,24.248z"></path><title>Remove link.</title></g><g  event="link:options"><circle r="11" transform="translate(25)"></circle><path fill="white" transform="scale(.55) translate(29, -16)" d="M31.229,17.736c0.064-0.571,0.104-1.148,0.104-1.736s-0.04-1.166-0.104-1.737l-4.377-1.557c-0.218-0.716-0.504-1.401-0.851-2.05l1.993-4.192c-0.725-0.91-1.549-1.734-2.458-2.459l-4.193,1.994c-0.647-0.347-1.334-0.632-2.049-0.849l-1.558-4.378C17.165,0.708,16.588,0.667,16,0.667s-1.166,0.041-1.737,0.105L12.707,5.15c-0.716,0.217-1.401,0.502-2.05,0.849L6.464,4.005C5.554,4.73,4.73,5.554,4.005,6.464l1.994,4.192c-0.347,0.648-0.632,1.334-0.849,2.05l-4.378,1.557C0.708,14.834,0.667,15.412,0.667,16s0.041,1.165,0.105,1.736l4.378,1.558c0.217,0.715,0.502,1.401,0.849,2.049l-1.994,4.193c0.725,0.909,1.549,1.733,2.459,2.458l4.192-1.993c0.648,0.347,1.334,0.633,2.05,0.851l1.557,4.377c0.571,0.064,1.148,0.104,1.737,0.104c0.588,0,1.165-0.04,1.736-0.104l1.558-4.377c0.715-0.218,1.399-0.504,2.049-0.851l4.193,1.993c0.909-0.725,1.733-1.549,2.458-2.458l-1.993-4.193c0.347-0.647,0.633-1.334,0.851-2.049L31.229,17.736zM16,20.871c-2.69,0-4.872-2.182-4.872-4.871c0-2.69,2.182-4.872,4.872-4.872c2.689,0,4.871,2.182,4.871,4.872C20.871,18.689,18.689,20.871,16,20.871z"></path><title>Link options.</title></g></g></g></g><!--z-index:57--><g   id="j_1693" ><path  stroke="#505050" d="M 1770 1344 L 1773 1789" id="v-28836" stroke-width="2" fill="none"></path><path  fill="black" stroke="black" d="M 0 0 0 0" transform="matrix(0.006696468684822321,0.9999775886535645,-0.9999775886535645,0.006696468684822321,1770.010009765625,1344)"></path><path  fill="#505050" stroke="#505050" d="M 20 0 L 0 10 L 20 20 z" id="v-28838" transform="matrix(-0.006696735043078661,-0.9999775886535645,0.9999775886535645,-0.006696735043078661,1762.990234375,1789.0670166015625)"></path><path  d="M 1770 1344 L 1773 1789" id="v-28837" fill="none" style="cursor: default;"></path><g ><g id="v-28827"  label-idx="0" cursor="move" transform="matrix(1,0,0,1,1771.5,1566.5)" style="cursor: default;"><rect joint-selector="rect" id="v-28831" fill="#ffffff" rx="3" ry="3" pointer-events="none" width="196.5500030517578" height="62.79999923706055" transform="matrix(1,0,0,1,-98.30000305175781,-31.399999618530273)"></rect><text joint-selector="text" id="v-28830" font-size="24px" xml:space="preserve" y="0.8em" fill="#505050" text-anchor="middle" pointer-events="none" font-family="Open Sans" font-weight="normal" transform="matrix(1,0,0,1,0,-24.600000381469727)"><tspan  dy="0">6: Decrypts email</tspan><tspan dy="1.2em" x="0" >body</tspan></text></g><g id="v-28828"  label-idx="1" cursor="move" transform="matrix(1,0,0,1,1771.5,1607.300048828125)" style="cursor: default;"><rect joint-selector="rect" id="v-28833" fill="#ffffff" rx="3" ry="3" pointer-events="none" width="50.150001525878906" height="24" transform="matrix(1,0,0,1,-25.100000381469727,-12)"></rect><text joint-selector="text" id="v-28832" font-size="17px" xml:space="preserve" y="0.8em" fill="#505050" text-anchor="middle" pointer-events="none" font-family="Open Sans" font-weight="normal" transform="matrix(1,0,0,1,0,-6.599999904632568)"><tspan  dy="0">[KMS]</tspan></text></g><g id="v-28829"  label-idx="2" cursor="move" transform="matrix(1,0,0,1,1761.5,1615.699951171875)" style="cursor: default;"><rect joint-selector="rect" id="v-28835" fill="#ffffff" rx="3" ry="3"  width="0" height="0" transform="matrix(1,0,0,1,0,0)" display="none"></rect><text joint-selector="text" id="v-28834" fill="#000000" font-size="14" text-anchor="middle" pointer-events="none"></text></g></g><g  display="none"></g><g  id="v-28840" display="none"><g  id="v-28825"><path  end="source" d="M 26 0 L 0 13 L 26 26 z"></path></g><g  id="v-28826"><path  end="target" d="M 26 0 L 0 13 L 26 26 z"></path></g></g><g  id="v-28839" display="none"><g  id="v-28824" transform="translate(1770.2696567936282, 1383.9990910548436) "><g  event="remove"><circle r="11"></circle><path transform="scale(.8) translate(-16, -16)" d="M24.778,21.419 19.276,15.917 24.777,10.415 21.949,7.585 16.447,13.087 10.945,7.585 8.117,10.415 13.618,15.917 8.116,21.419 10.946,24.248 16.447,18.746 21.948,24.248z"></path><title>Remove link.</title></g><g  event="link:options"><circle r="11" transform="translate(25)"></circle><path fill="white" transform="scale(.55) translate(29, -16)" d="M31.229,17.736c0.064-0.571,0.104-1.148,0.104-1.736s-0.04-1.166-0.104-1.737l-4.377-1.557c-0.218-0.716-0.504-1.401-0.851-2.05l1.993-4.192c-0.725-0.91-1.549-1.734-2.458-2.459l-4.193,1.994c-0.647-0.347-1.334-0.632-2.049-0.849l-1.558-4.378C17.165,0.708,16.588,0.667,16,0.667s-1.166,0.041-1.737,0.105L12.707,5.15c-0.716,0.217-1.401,0.502-2.05,0.849L6.464,4.005C5.554,4.73,4.73,5.554,4.005,6.464l1.994,4.192c-0.347,0.648-0.632,1.334-0.849,2.05l-4.378,1.557C0.708,14.834,0.667,15.412,0.667,16s0.041,1.165,0.105,1.736l4.378,1.558c0.217,0.715,0.502,1.401,0.849,2.049l-1.994,4.193c0.725,0.909,1.549,1.733,2.459,2.458l4.192-1.993c0.648,0.347,1.334,0.633,2.05,0.851l1.557,4.377c0.571,0.064,1.148,0.104,1.737,0.104c0.588,0,1.165-0.04,1.736-0.104l1.558-4.377c0.715-0.218,1.399-0.504,2.049-0.851l4.193,1.993c0.909-0.725,1.733-1.549,2.458-2.458l-1.993-4.193c0.347-0.647,0.633-1.334,0.851-2.049L31.229,17.736zM16,20.871c-2.69,0-4.872-2.182-4.872-4.871c0-2.69,2.182-4.872,4.872-4.872c2.689,0,4.871,2.182,4.871,4.872C20.871,18.689,18.689,20.871,16,20.871z"></path><title>Link options.</title></g></g></g></g><!--z-index:58--><g   id="j_1694" ><path  stroke="#505050" d="M 1285 1000 L 1390 1143 C 1394 1148.3333333333333 1399.3333333333333 1151.3333333333333 1406 1152 L 1544 1168" id="v-28857" stroke-width="2" fill="none"></path><path  fill="black" stroke="black" d="M 0 0 0 0" transform="matrix(0.5935680270195007,0.804783821105957,-0.804783821105957,0.5935680270195007,1284.6300048828125,1000)"></path><path  fill="#505050" stroke="#505050" d="M 20 0 L 0 10 L 20 20 z" id="v-28859" transform="matrix(-0.9934218525886536,-0.1145121157169342,0.1145121157169342,-0.9934218525886536,1542.8548583984375,1177.9942626953125)"></path><path  d="M 1285 1000 L 1390 1143 C 1394 1148.3333333333333 1399.3333333333333 1151.3333333333333 1406 1152 L 1544 1168" id="v-28858" fill="none" style="cursor: default;"></path><g ><g id="v-28848"  label-idx="0" cursor="move" transform="matrix(1,0,0,1,1384.213134765625,1135.1187744140625)" style="cursor: default;"><rect joint-selector="rect" id="v-28852" fill="#ffffff" rx="3" ry="3" pointer-events="none" width="200.25" height="62.79999923706055" transform="matrix(1,0,0,1,-100.0999984741211,-31.399999618530273)"></rect><text joint-selector="text" id="v-28851" font-size="24px" xml:space="preserve" y="0.8em" fill="#505050" text-anchor="middle" pointer-events="none" font-family="Open Sans" font-weight="normal" transform="matrix(1,0,0,1,0,-24.600000381469727)"><tspan  dy="0">6: Requests email</tspan><tspan dy="1.2em" x="0" >body</tspan></text></g><g id="v-28849"  label-idx="1" cursor="move" transform="matrix(1,0,0,1,1384.213134765625,1175.9188232421875)" style="cursor: default;"><rect joint-selector="rect" id="v-28854" fill="#ffffff" rx="3" ry="3" pointer-events="none" width="64.31666564941406" height="24" transform="matrix(1,0,0,1,-32.20000076293945,-12)"></rect><text joint-selector="text" id="v-28853" font-size="17px" xml:space="preserve" y="0.8em" fill="#505050" text-anchor="middle" pointer-events="none" font-family="Open Sans" font-weight="normal" transform="matrix(1,0,0,1,0,-6.599999904632568)"><tspan  dy="0">[S3 API]</tspan></text></g><g id="v-28850"  label-idx="2" cursor="move" transform="matrix(1,0,0,1,1374.213134765625,1184.31884765625)" style="cursor: default;"><rect joint-selector="rect" id="v-28856" fill="#ffffff" rx="3" ry="3"  width="0" height="0" transform="matrix(1,0,0,1,0,0)" display="none"></rect><text joint-selector="text" id="v-28855" fill="#000000" font-size="14" text-anchor="middle" pointer-events="none"></text></g></g><g  display="none"><g  transform="translate(1396, 1151)" id="v-28845"><circle  idx="0" r="10"></circle><path  idx="0" d="M16,5.333c-7.732,0-14,4.701-14,10.5c0,1.982,0.741,3.833,2.016,5.414L2,25.667l5.613-1.441c2.339,1.317,5.237,2.107,8.387,2.107c7.732,0,14-4.701,14-10.5C30,10.034,23.732,5.333,16,5.333z" transform="translate(5, -33)"></path><path  idx="0" transform="scale(.8) translate(9.5, -37)" d="M24.778,21.419 19.276,15.917 24.777,10.415 21.949,7.585 16.447,13.087 10.945,7.585 8.117,10.415 13.618,15.917 8.116,21.419 10.946,24.248 16.447,18.746 21.948,24.248z"><title>Remove vertex.</title></path></g></g><g  id="v-28861" display="none"><g  id="v-28846"><path  end="source" d="M 26 0 L 0 13 L 26 26 z"></path></g><g  id="v-28847"><path  end="target" d="M 26 0 L 0 13 L 26 26 z"></path></g></g><g  id="v-28860" display="none"><g  id="v-28844" transform="translate(1308.674091409263, 1032.241857824044) "><g  event="remove"><circle r="11"></circle><path transform="scale(.8) translate(-16, -16)" d="M24.778,21.419 19.276,15.917 24.777,10.415 21.949,7.585 16.447,13.087 10.945,7.585 8.117,10.415 13.618,15.917 8.116,21.419 10.946,24.248 16.447,18.746 21.948,24.248z"></path><title>Remove link.</title></g><g  event="link:options"><circle r="11" transform="translate(25)"></circle><path fill="white" transform="scale(.55) translate(29, -16)" d="M31.229,17.736c0.064-0.571,0.104-1.148,0.104-1.736s-0.04-1.166-0.104-1.737l-4.377-1.557c-0.218-0.716-0.504-1.401-0.851-2.05l1.993-4.192c-0.725-0.91-1.549-1.734-2.458-2.459l-4.193,1.994c-0.647-0.347-1.334-0.632-2.049-0.849l-1.558-4.378C17.165,0.708,16.588,0.667,16,0.667s-1.166,0.041-1.737,0.105L12.707,5.15c-0.716,0.217-1.401,0.502-2.05,0.849L6.464,4.005C5.554,4.73,4.73,5.554,4.005,6.464l1.994,4.192c-0.347,0.648-0.632,1.334-0.849,2.05l-4.378,1.557C0.708,14.834,0.667,15.412,0.667,16s0.041,1.165,0.105,1.736l4.378,1.558c0.217,0.715,0.502,1.401,0.849,2.049l-1.994,4.193c0.725,0.909,1.549,1.733,2.459,2.458l4.192-1.993c0.648,0.347,1.334,0.633,2.05,0.851l1.557,4.377c0.571,0.064,1.148,0.104,1.737,0.104c0.588,0,1.165-0.04,1.736-0.104l1.558-4.377c0.715-0.218,1.399-0.504,2.049-0.851l4.193,1.993c0.909-0.725,1.733-1.549,2.458-2.458l-1.993-4.193c0.347-0.647,0.633-1.334,0.851-2.049L31.229,17.736zM16,20.871c-2.69,0-4.872-2.182-4.872-4.871c0-2.69,2.182-4.872,4.872-4.872c2.689,0,4.871,2.182,4.871,4.872C20.871,18.689,18.689,20.871,16,20.871z"></path><title>Link options.</title></g></g></g></g><!--z-index:59--><g   id="j_1695" ><path  stroke="#505050" d="M 949 856 L 669 863" id="v-28877" stroke-width="2" fill="none"></path><path  fill="black" stroke="black" d="M 0 0 0 0" transform="matrix(-0.9996621608734131,0.025991123169660568,-0.025991123169660568,-0.9996621608734131,949,855.8599853515625)"></path><path  fill="#505050" stroke="#505050" d="M 20 0 L 0 10 L 20 20 z" id="v-28879" transform="matrix(0.9996621608734131,-0.025991123169660568,0.025991123169660568,0.9996621608734131,668.7401123046875,853.1433715820312)"></path><path  d="M 949 856 L 669 863" id="v-28878" fill="none" style="cursor: default;"></path><g ><g id="v-28868"  label-idx="0" cursor="move" transform="matrix(1,0,0,1,809,859.5)" style="cursor: default;"><rect joint-selector="rect" id="v-28872" fill="#ffffff" rx="3" ry="3" pointer-events="none" width="181.06666564941406" height="91.60000228881836" transform="matrix(1,0,0,1,-90.5,-45.79999923706055)"></rect><text joint-selector="text" id="v-28871" font-size="24px" xml:space="preserve" y="0.8em" fill="#505050" text-anchor="middle" pointer-events="none" font-family="Open Sans" font-weight="normal" transform="matrix(1,0,0,1,0,-39)"><tspan  dy="0">7: Adds reply</tspan><tspan dy="1.2em" x="0" >record, updates</tspan><tspan dy="1.2em" x="0" >usage</tspan></text></g><g id="v-28869"  label-idx="1" cursor="move" transform="matrix(1,0,0,1,809,914.7000122070312)" style="cursor: default;"><rect joint-selector="rect" id="v-28874" fill="#ffffff" rx="3" ry="3" pointer-events="none" width="114.51667022705078" height="24" transform="matrix(1,0,0,1,-57.29999923706055,-12)"></rect><text joint-selector="text" id="v-28873" font-size="17px" xml:space="preserve" y="0.8em" fill="#505050" text-anchor="middle" pointer-events="none" font-family="Open Sans" font-weight="normal" transform="matrix(1,0,0,1,0,-6.599999904632568)"><tspan  dy="0">[Django ORM]</tspan></text></g><g id="v-28870"  label-idx="2" cursor="move" transform="matrix(1,0,0,1,799,923.0999755859375)" style="cursor: default;"><rect joint-selector="rect" id="v-28876" fill="#ffffff" rx="3" ry="3"  width="0" height="0" transform="matrix(1,0,0,1,0,0)" display="none"></rect><text joint-selector="text" id="v-28875" fill="#000000" font-size="14" text-anchor="middle" pointer-events="none"></text></g></g><g  display="none"></g><g  id="v-28881" display="none"><g  id="v-28866"><path  end="source" d="M 26 0 L 0 13 L 26 26 z"></path></g><g  id="v-28867"><path  end="target" d="M 26 0 L 0 13 L 26 26 z"></path></g></g><g  id="v-28880" display="none"><g  id="v-28865" transform="translate(909.0124941436752, 856.9996876464082) "><g  event="remove"><circle r="11"></circle><path transform="scale(.8) translate(-16, -16)" d="M24.778,21.419 19.276,15.917 24.777,10.415 21.949,7.585 16.447,13.087 10.945,7.585 8.117,10.415 13.618,15.917 8.116,21.419 10.946,24.248 16.447,18.746 21.948,24.248z"></path><title>Remove link.</title></g><g  event="link:options"><circle r="11" transform="translate(25)"></circle><path fill="white" transform="scale(.55) translate(29, -16)" d="M31.229,17.736c0.064-0.571,0.104-1.148,0.104-1.736s-0.04-1.166-0.104-1.737l-4.377-1.557c-0.218-0.716-0.504-1.401-0.851-2.05l1.993-4.192c-0.725-0.91-1.549-1.734-2.458-2.459l-4.193,1.994c-0.647-0.347-1.334-0.632-2.049-0.849l-1.558-4.378C17.165,0.708,16.588,0.667,16,0.667s-1.166,0.041-1.737,0.105L12.707,5.15c-0.716,0.217-1.401,0.502-2.05,0.849L6.464,4.005C5.554,4.73,4.73,5.554,4.005,6.464l1.994,4.192c-0.347,0.648-0.632,1.334-0.849,2.05l-4.378,1.557C0.708,14.834,0.667,15.412,0.667,16s0.041,1.165,0.105,1.736l4.378,1.558c0.217,0.715,0.502,1.401,0.849,2.049l-1.994,4.193c0.725,0.909,1.549,1.733,2.459,2.458l4.192-1.993c0.648,0.347,1.334,0.633,2.05,0.851l1.557,4.377c0.571,0.064,1.148,0.104,1.737,0.104c0.588,0,1.165-0.04,1.736-0.104l1.558-4.377c0.715-0.218,1.399-0.504,2.049-0.851l4.193,1.993c0.909-0.725,1.733-1.549,2.458-2.458l-1.993-4.193c0.347-0.647,0.633-1.334,0.851-2.049L31.229,17.736zM16,20.871c-2.69,0-4.872-2.182-4.872-4.871c0-2.69,2.182-4.872,4.872-4.872c2.689,0,4.871,2.182,4.871,4.872C20.871,18.689,18.689,20.871,16,20.871z"></path><title>Link options.</title></g></g></g></g><!--z-index:60--><g   id="j_1696" ><path  stroke="#505050" d="M 1399 850 L 2484 850" id="v-28897" stroke-width="2" fill="none"></path><path  fill="black" stroke="black" d="M 0 0 0 0" transform="matrix(1,0,0,1,1399,850)"></path><path  fill="#505050" stroke="#505050" d="M 20 0 L 0 10 L 20 20 z" id="v-28899" transform="matrix(-1,1.2246468525851679e-16,-1.2246468525851679e-16,-1,2484,860)"></path><path  d="M 1399 850 L 2484 850" id="v-28898" fill="none" style="cursor: default;"></path><g ><g id="v-28888"  label-idx="0" cursor="move" transform="matrix(1,0,0,1,1941.5,850)" style="cursor: default;"><rect joint-selector="rect" id="v-28892" fill="#ffffff" rx="3" ry="3" pointer-events="none" width="202.14999389648438" height="34" transform="matrix(1,0,0,1,-101.0999984741211,-17)"></rect><text joint-selector="text" id="v-28891" font-size="24px" xml:space="preserve" y="0.8em" fill="#505050" text-anchor="middle" pointer-events="none" font-family="Open Sans" font-weight="normal" transform="matrix(1,0,0,1,0,-10.199999809265137)"><tspan  dy="0">7: Forwards email</tspan></text></g><g id="v-28889"  label-idx="1" cursor="move" transform="matrix(1,0,0,1,1941.5,876.4000244140625)" style="cursor: default;"><rect joint-selector="rect" id="v-28894" fill="#ffffff" rx="3" ry="3" pointer-events="none" width="73.36666870117188" height="24" transform="matrix(1,0,0,1,-36.70000076293945,-12)"></rect><text joint-selector="text" id="v-28893" font-size="17px" xml:space="preserve" y="0.8em" fill="#505050" text-anchor="middle" pointer-events="none" font-family="Open Sans" font-weight="normal" transform="matrix(1,0,0,1,0,-6.599999904632568)"><tspan  dy="0">[SES API]</tspan></text></g><g id="v-28890"  label-idx="2" cursor="move" transform="matrix(1,0,0,1,1931.5,884.7999877929688)" style="cursor: default;"><rect joint-selector="rect" id="v-28896" fill="#ffffff" rx="3" ry="3"  width="0" height="0" transform="matrix(1,0,0,1,0,0)" display="none"></rect><text joint-selector="text" id="v-28895" fill="#000000" font-size="14" text-anchor="middle" pointer-events="none"></text></g></g><g  display="none"></g><g  id="v-28901" display="none"><g  id="v-28886"><path  end="source" d="M 26 0 L 0 13 L 26 26 z"></path></g><g  id="v-28887"><path  end="target" d="M 26 0 L 0 13 L 26 26 z"></path></g></g><g  id="v-28900" display="none"><g  id="v-28885" transform="translate(1439, 850.0000000000001) "><g  event="remove"><circle r="11"></circle><path transform="scale(.8) translate(-16, -16)" d="M24.778,21.419 19.276,15.917 24.777,10.415 21.949,7.585 16.447,13.087 10.945,7.585 8.117,10.415 13.618,15.917 8.116,21.419 10.946,24.248 16.447,18.746 21.948,24.248z"></path><title>Remove link.</title></g><g  event="link:options"><circle r="11" transform="translate(25)"></circle><path fill="white" transform="scale(.55) translate(29, -16)" d="M31.229,17.736c0.064-0.571,0.104-1.148,0.104-1.736s-0.04-1.166-0.104-1.737l-4.377-1.557c-0.218-0.716-0.504-1.401-0.851-2.05l1.993-4.192c-0.725-0.91-1.549-1.734-2.458-2.459l-4.193,1.994c-0.647-0.347-1.334-0.632-2.049-0.849l-1.558-4.378C17.165,0.708,16.588,0.667,16,0.667s-1.166,0.041-1.737,0.105L12.707,5.15c-0.716,0.217-1.401,0.502-2.05,0.849L6.464,4.005C5.554,4.73,4.73,5.554,4.005,6.464l1.994,4.192c-0.347,0.648-0.632,1.334-0.849,2.05l-4.378,1.557C0.708,14.834,0.667,15.412,0.667,16s0.041,1.165,0.105,1.736l4.378,1.558c0.217,0.715,0.502,1.401,0.849,2.049l-1.994,4.193c0.725,0.909,1.549,1.733,2.459,2.458l4.192-1.993c0.648,0.347,1.334,0.633,2.05,0.851l1.557,4.377c0.571,0.064,1.148,0.104,1.737,0.104c0.588,0,1.165-0.04,1.736-0.104l1.558-4.377c0.715-0.218,1.399-0.504,2.049-0.851l4.193,1.993c0.909-0.725,1.733-1.549,2.458-2.458l-1.993-4.193c0.347-0.647,0.633-1.334,0.851-2.049L31.229,17.736zM16,20.871c-2.69,0-4.872-2.182-4.872-4.871c0-2.69,2.182-4.872,4.872-4.872c2.689,0,4.871,2.182,4.871,4.872C20.871,18.689,18.689,20.871,16,20.871z"></path><title>Link options.</title></g></g></g></g><!--z-index:61--><g   id="j_1697" ><path  stroke="#505050" d="M 982 1000 L 636 1271" id="v-28917" stroke-width="2" fill="none"></path><path  fill="black" stroke="black" d="M 0 0 0 0" transform="matrix(-0.7876623868942261,0.6161071062088013,-0.6161071062088013,-0.7876623868942261,982.22998046875,1000)"></path><path  fill="#505050" stroke="#505050" d="M 20 0 L 0 10 L 20 20 z" id="v-28919" transform="matrix(0.7876623868942261,-0.6161071062088013,0.6161071062088013,0.7876623868942261,629.60888671875,1263.1234130859375)"></path><path  d="M 982 1000 L 636 1271" id="v-28918" fill="none" style="cursor: default;"></path><g ><g id="v-28908"  label-idx="0" cursor="move" transform="matrix(1,0,0,1,809,1135.5)" style="cursor: default;"><rect joint-selector="rect" id="v-28912" fill="#ffffff" rx="3" ry="3" pointer-events="none" width="202.9499969482422" height="62.79999923706055" transform="matrix(1,0,0,1,-101.5,-31.399999618530273)"></rect><text joint-selector="text" id="v-28911" font-size="24px" xml:space="preserve" y="0.8em" fill="#505050" text-anchor="middle" pointer-events="none" font-family="Open Sans" font-weight="normal" transform="matrix(1,0,0,1,0,-24.600000381469727)"><tspan  dy="0">7: Emits counters,</tspan><tspan dy="1.2em" x="0" >timers</tspan></text></g><g id="v-28909"  label-idx="1" cursor="move" transform="matrix(1,0,0,1,809,1176.300048828125)" style="cursor: default;"><rect joint-selector="rect" id="v-28914" fill="#ffffff" rx="3" ry="3" pointer-events="none" width="56.63333511352539" height="24" transform="matrix(1,0,0,1,-28.299999237060547,-12)"></rect><text joint-selector="text" id="v-28913" font-size="17px" xml:space="preserve" y="0.8em" fill="#505050" text-anchor="middle" pointer-events="none" font-family="Open Sans" font-weight="normal" transform="matrix(1,0,0,1,0,-6.599999904632568)"><tspan  dy="0">[HTTP]</tspan></text></g><g id="v-28910"  label-idx="2" cursor="move" transform="matrix(1,0,0,1,799,1184.699951171875)" style="cursor: default;"><rect joint-selector="rect" id="v-28916" fill="#ffffff" rx="3" ry="3"  width="0" height="0" transform="matrix(1,0,0,1,0,0)" display="none"></rect><text joint-selector="text" id="v-28915" fill="#000000" font-size="14" text-anchor="middle" pointer-events="none"></text></g></g><g  display="none"></g><g  id="v-28921" display="none"><g  id="v-28906"><path  end="source" d="M 26 0 L 0 13 L 26 26 z"></path></g><g  id="v-28907"><path  end="target" d="M 26 0 L 0 13 L 26 26 z"></path></g></g><g  id="v-28920" display="none"><g  id="v-28905" transform="translate(950.5094051574696, 1024.6645988506525) "><g  event="remove"><circle r="11"></circle><path transform="scale(.8) translate(-16, -16)" d="M24.778,21.419 19.276,15.917 24.777,10.415 21.949,7.585 16.447,13.087 10.945,7.585 8.117,10.415 13.618,15.917 8.116,21.419 10.946,24.248 16.447,18.746 21.948,24.248z"></path><title>Remove link.</title></g><g  event="link:options"><circle r="11" transform="translate(25)"></circle><path fill="white" transform="scale(.55) translate(29, -16)" d="M31.229,17.736c0.064-0.571,0.104-1.148,0.104-1.736s-0.04-1.166-0.104-1.737l-4.377-1.557c-0.218-0.716-0.504-1.401-0.851-2.05l1.993-4.192c-0.725-0.91-1.549-1.734-2.458-2.459l-4.193,1.994c-0.647-0.347-1.334-0.632-2.049-0.849l-1.558-4.378C17.165,0.708,16.588,0.667,16,0.667s-1.166,0.041-1.737,0.105L12.707,5.15c-0.716,0.217-1.401,0.502-2.05,0.849L6.464,4.005C5.554,4.73,4.73,5.554,4.005,6.464l1.994,4.192c-0.347,0.648-0.632,1.334-0.849,2.05l-4.378,1.557C0.708,14.834,0.667,15.412,0.667,16s0.041,1.165,0.105,1.736l4.378,1.558c0.217,0.715,0.502,1.401,0.849,2.049l-1.994,4.193c0.725,0.909,1.549,1.733,2.459,2.458l4.192-1.993c0.648,0.347,1.334,0.633,2.05,0.851l1.557,4.377c0.571,0.064,1.148,0.104,1.737,0.104c0.588,0,1.165-0.04,1.736-0.104l1.558-4.377c0.715-0.218,1.399-0.504,2.049-0.851l4.193,1.993c0.909-0.725,1.733-1.549,2.458-2.458l-1.993-4.193c0.347-0.647,0.633-1.334,0.851-2.049L31.229,17.736zM16,20.871c-2.69,0-4.872-2.182-4.872-4.871c0-2.69,2.182-4.872,4.872-4.872c2.689,0,4.871,2.182,4.871,4.872C20.871,18.689,18.689,20.871,16,20.871z"></path><title>Link options.</title></g></g></g></g><!--z-index:62--><g   id="j_1698" ><path  stroke="#505050" d="M 1077 1000 L 541 1824" id="v-28937" stroke-width="2" fill="none"></path><path  fill="black" stroke="black" d="M 0 0 0 0" transform="matrix(-0.5446735620498657,0.8386481404304504,-0.8386481404304504,-0.5446735620498657,1076.5799560546875,1000)"></path><path  fill="#505050" stroke="#505050" d="M 20 0 L 0 10 L 20 20 z" id="v-28939" transform="matrix(0.5446734428405762,-0.83864825963974,0.83864825963974,0.5446734428405762,533.0335693359375,1818.55322265625)"></path><path  d="M 1077 1000 L 541 1824" id="v-28938" fill="none" style="cursor: default;"></path><g ><g id="v-28928"  label-idx="0" cursor="move" transform="matrix(1,0,0,1,809,1412)" style="cursor: default;"><rect joint-selector="rect" id="v-28932" fill="#ffffff" rx="3" ry="3" pointer-events="none" width="150.73333740234375" height="120.40000534057617" transform="matrix(1,0,0,1,-75.4000015258789,-60.20000076293945)"></rect><text joint-selector="text" id="v-28931" font-size="24px" xml:space="preserve" y="0.8em" fill="#505050" text-anchor="middle" pointer-events="none" font-family="Open Sans" font-weight="normal" transform="matrix(1,0,0,1,0,-53.400001525878906)"><tspan  dy="0">7: Logs</tspan><tspan dy="1.2em" x="0" >processing</tspan><tspan dy="1.2em" x="0" >events, glean</tspan><tspan dy="1.2em" x="0" >metrics</tspan></text></g><g id="v-28929"  label-idx="1" cursor="move" transform="matrix(1,0,0,1,809,1481.5999755859375)" style="cursor: default;"><rect joint-selector="rect" id="v-28934" fill="#ffffff" rx="3" ry="3" pointer-events="none" width="129.51666259765625" height="24" transform="matrix(1,0,0,1,-64.80000305175781,-12)"></rect><text joint-selector="text" id="v-28933" font-size="17px" xml:space="preserve" y="0.8em" fill="#505050" text-anchor="middle" pointer-events="none" font-family="Open Sans" font-weight="normal" transform="matrix(1,0,0,1,0,-6.599999904632568)"><tspan  dy="0">[stdout / stderr]</tspan></text></g><g id="v-28930"  label-idx="2" cursor="move" transform="matrix(1,0,0,1,799,1490)" style="cursor: default;"><rect joint-selector="rect" id="v-28936" fill="#ffffff" rx="3" ry="3"  width="0" height="0" transform="matrix(1,0,0,1,0,0)" display="none"></rect><text joint-selector="text" id="v-28935" fill="#000000" font-size="14" text-anchor="middle" pointer-events="none"></text></g></g><g  display="none"></g><g  id="v-28941" display="none"><g  id="v-28926"><path  end="source" d="M 26 0 L 0 13 L 26 26 z"></path></g><g  id="v-28927"><path  end="target" d="M 26 0 L 0 13 L 26 26 z"></path></g></g><g  id="v-28940" display="none"><g  id="v-28925" transform="translate(1055.1890248216587, 1033.5303051249132) "><g  event="remove"><circle r="11"></circle><path transform="scale(.8) translate(-16, -16)" d="M24.778,21.419 19.276,15.917 24.777,10.415 21.949,7.585 16.447,13.087 10.945,7.585 8.117,10.415 13.618,15.917 8.116,21.419 10.946,24.248 16.447,18.746 21.948,24.248z"></path><title>Remove link.</title></g><g  event="link:options"><circle r="11" transform="translate(25)"></circle><path fill="white" transform="scale(.55) translate(29, -16)" d="M31.229,17.736c0.064-0.571,0.104-1.148,0.104-1.736s-0.04-1.166-0.104-1.737l-4.377-1.557c-0.218-0.716-0.504-1.401-0.851-2.05l1.993-4.192c-0.725-0.91-1.549-1.734-2.458-2.459l-4.193,1.994c-0.647-0.347-1.334-0.632-2.049-0.849l-1.558-4.378C17.165,0.708,16.588,0.667,16,0.667s-1.166,0.041-1.737,0.105L12.707,5.15c-0.716,0.217-1.401,0.502-2.05,0.849L6.464,4.005C5.554,4.73,4.73,5.554,4.005,6.464l1.994,4.192c-0.347,0.648-0.632,1.334-0.849,2.05l-4.378,1.557C0.708,14.834,0.667,15.412,0.667,16s0.041,1.165,0.105,1.736l4.378,1.558c0.217,0.715,0.502,1.401,0.849,2.049l-1.994,4.193c0.725,0.909,1.549,1.733,2.459,2.458l4.192-1.993c0.648,0.347,1.334,0.633,2.05,0.851l1.557,4.377c0.571,0.064,1.148,0.104,1.737,0.104c0.588,0,1.165-0.04,1.736-0.104l1.558-4.377c0.715-0.218,1.399-0.504,2.049-0.851l4.193,1.993c0.909-0.725,1.733-1.549,2.458-2.458l-1.993-4.193c0.347-0.647,0.633-1.334,0.851-2.049L31.229,17.736zM16,20.871c-2.69,0-4.872-2.182-4.872-4.871c0-2.69,2.182-4.872,4.872-4.872c2.689,0,4.871,2.182,4.871,4.872C20.871,18.689,18.689,20.871,16,20.871z"></path><title>Link options.</title></g></g></g></g><!--z-index:63--><g   id="j_1699" ><path  stroke="#505050" d="M 1399 875 L 1536 891 C 1542.6666666666665 891.6666666666666 1547.9999999999998 894.6666666666666 1552 900 L 1658 1044" id="v-28958" stroke-width="2" fill="none"></path><path  fill="black" stroke="black" d="M 0 0 0 0" transform="matrix(0.9936842918395996,0.11221196502447128,-0.11221196502447128,0.9936842918395996,1399,875.4000244140625)"></path><path  fill="#505050" stroke="#505050" d="M 20 0 L 0 10 L 20 20 z" id="v-28960" transform="matrix(-0.5940220355987549,-0.8044487833976746,0.8044487833976746,-0.5940220355987549,1650.195556640625,1049.9403076171875)"></path><path  d="M 1399 875 L 1536 891 C 1542.6666666666665 891.6666666666666 1547.9999999999998 894.6666666666666 1552 900 L 1658 1044" id="v-28959" fill="none" style="cursor: default;"></path><g ><g id="v-28949"  label-idx="0" cursor="move" transform="matrix(1,0,0,1,1558.505126953125,908.837158203125)" style="cursor: default;"><rect joint-selector="rect" id="v-28953" fill="#ffffff" rx="3" ry="3" pointer-events="none" width="203.93333435058594" height="62.79999923706055" transform="matrix(1,0,0,1,-102,-31.399999618530273)"></rect><text joint-selector="text" id="v-28952" font-size="24px" xml:space="preserve" y="0.8em" fill="#505050" text-anchor="middle" pointer-events="none" font-family="Open Sans" font-weight="normal" transform="matrix(1,0,0,1,0,-24.600000381469727)"><tspan  dy="0">8: Deletes original</tspan><tspan dy="1.2em" x="0" >email</tspan></text></g><g id="v-28950"  label-idx="1" cursor="move" transform="matrix(1,0,0,1,1558.505126953125,949.6371459960938)" style="cursor: default;"><rect joint-selector="rect" id="v-28955" fill="#ffffff" rx="3" ry="3" pointer-events="none" width="64.31666564941406" height="24" transform="matrix(1,0,0,1,-32.20000076293945,-12)"></rect><text joint-selector="text" id="v-28954" font-size="17px" xml:space="preserve" y="0.8em" fill="#505050" text-anchor="middle" pointer-events="none" font-family="Open Sans" font-weight="normal" transform="matrix(1,0,0,1,0,-6.599999904632568)"><tspan  dy="0">[S3 API]</tspan></text></g><g id="v-28951"  label-idx="2" cursor="move" transform="matrix(1,0,0,1,1548.505126953125,958.0371704101562)" style="cursor: default;"><rect joint-selector="rect" id="v-28957" fill="#ffffff" rx="3" ry="3"  width="0" height="0" transform="matrix(1,0,0,1,0,0)" display="none"></rect><text joint-selector="text" id="v-28956" fill="#000000" font-size="14" text-anchor="middle" pointer-events="none"></text></g></g><g  display="none"><g  transform="translate(1546, 892)" id="v-28946"><circle  idx="0" r="10"></circle><path  idx="0" d="M16,5.333c-7.732,0-14,4.701-14,10.5c0,1.982,0.741,3.833,2.016,5.414L2,25.667l5.613-1.441c2.339,1.317,5.237,2.107,8.387,2.107c7.732,0,14-4.701,14-10.5C30,10.034,23.732,5.333,16,5.333z" transform="translate(5, -33)"></path><path  idx="0" transform="scale(.8) translate(9.5, -37)" d="M24.778,21.419 19.276,15.917 24.777,10.415 21.949,7.585 16.447,13.087 10.945,7.585 8.117,10.415 13.618,15.917 8.116,21.419 10.946,24.248 16.447,18.746 21.948,24.248z"><title>Remove vertex.</title></path></g></g><g  id="v-28962" display="none"><g  id="v-28947"><path  end="source" d="M 26 0 L 0 13 L 26 26 z"></path></g><g  id="v-28948"><path  end="target" d="M 26 0 L 0 13 L 26 26 z"></path></g></g><g  id="v-28961" display="none"><g  id="v-28945" transform="translate(1438.729968960974, 879.6399963750043) "><g  event="remove"><circle r="11"></circle><path transform="scale(.8) translate(-16, -16)" d="M24.778,21.419 19.276,15.917 24.777,10.415 21.949,7.585 16.447,13.087 10.945,7.585 8.117,10.415 13.618,15.917 8.116,21.419 10.946,24.248 16.447,18.746 21.948,24.248z"></path><title>Remove link.</title></g><g  event="link:options"><circle r="11" transform="translate(25)"></circle><path fill="white" transform="scale(.55) translate(29, -16)" d="M31.229,17.736c0.064-0.571,0.104-1.148,0.104-1.736s-0.04-1.166-0.104-1.737l-4.377-1.557c-0.218-0.716-0.504-1.401-0.851-2.05l1.993-4.192c-0.725-0.91-1.549-1.734-2.458-2.459l-4.193,1.994c-0.647-0.347-1.334-0.632-2.049-0.849l-1.558-4.378C17.165,0.708,16.588,0.667,16,0.667s-1.166,0.041-1.737,0.105L12.707,5.15c-0.716,0.217-1.401,0.502-2.05,0.849L6.464,4.005C5.554,4.73,4.73,5.554,4.005,6.464l1.994,4.192c-0.347,0.648-0.632,1.334-0.849,2.05l-4.378,1.557C0.708,14.834,0.667,15.412,0.667,16s0.041,1.165,0.105,1.736l4.378,1.558c0.217,0.715,0.502,1.401,0.849,2.049l-1.994,4.193c0.725,0.909,1.549,1.733,2.459,2.458l4.192-1.993c0.648,0.347,1.334,0.633,2.05,0.851l1.557,4.377c0.571,0.064,1.148,0.104,1.737,0.104c0.588,0,1.165-0.04,1.736-0.104l1.558-4.377c0.715-0.218,1.399-0.504,2.049-0.851l4.193,1.993c0.909-0.725,1.733-1.549,2.458-2.458l-1.993-4.193c0.347-0.647,0.633-1.334,0.851-2.049L31.229,17.736zM16,20.871c-2.69,0-4.872-2.182-4.872-4.871c0-2.69,2.182-4.872,4.872-4.872c2.689,0,4.871,2.182,4.871,4.872C20.871,18.689,18.689,20.871,16,20.871z"></path><title>Link options.</title></g></g></g></g><!--z-index:64--><g   id="j_1700" ><path  stroke="#505050" d="M 2484 725 L 2099 510" id="v-28978" stroke-width="2" fill="none"></path><path  fill="black" stroke="black" d="M 0 0 0 0" transform="matrix(-0.8737030029296875,-0.48645973205566406,0.48645973205566406,-0.8737030029296875,2484,724.719970703125)"></path><path  fill="#505050" stroke="#505050" d="M 20 0 L 0 10 L 20 20 z" id="v-28980" transform="matrix(0.8737030029296875,0.4864597022533417,-0.4864597022533417,0.8737030029296875,2103.86474609375,501.62298583984375)"></path><path  d="M 2484 725 L 2099 510" id="v-28979" fill="none" style="cursor: default;"></path><g ><g id="v-28969"  label-idx="0" cursor="move" transform="matrix(1,0,0,1,2291.5,617.5)" style="cursor: default;"><rect joint-selector="rect" id="v-28973" fill="#ffffff" rx="3" ry="3" pointer-events="none" width="179.96665954589844" height="62.79999923706055" transform="matrix(1,0,0,1,-90,-31.399999618530273)"></rect><text joint-selector="text" id="v-28972" font-size="24px" xml:space="preserve" y="0.8em" fill="#505050" text-anchor="middle" pointer-events="none" font-family="Open Sans" font-weight="normal" transform="matrix(1,0,0,1,0,-24.600000381469727)"><tspan  dy="0">9: User receives</tspan><tspan dy="1.2em" x="0" >email</tspan></text></g><g id="v-28970"  label-idx="1" cursor="move" transform="matrix(1,0,0,1,2291.5,658.2999877929688)" style="cursor: default;"><rect joint-selector="rect" id="v-28975" fill="#ffffff" rx="3" ry="3" pointer-events="none" width="219.63333129882812" height="24" transform="matrix(1,0,0,1,-109.80000305175781,-12)"></rect><text joint-selector="text" id="v-28974" font-size="17px" xml:space="preserve" y="0.8em" fill="#505050" text-anchor="middle" pointer-events="none" font-family="Open Sans" font-weight="normal" transform="matrix(1,0,0,1,0,-6.599999904632568)"><tspan  dy="0">[SMTP via user's real email]</tspan></text></g><g id="v-28971"  label-idx="2" cursor="move" transform="matrix(1,0,0,1,2281.5,666.7000122070312)" style="cursor: default;"><rect joint-selector="rect" id="v-28977" fill="#ffffff" rx="3" ry="3"  width="0" height="0" transform="matrix(1,0,0,1,0,0)" display="none"></rect><text joint-selector="text" id="v-28976" fill="#000000" font-size="14" text-anchor="middle" pointer-events="none"></text></g></g><g  display="none"></g><g  id="v-28982" display="none"><g  id="v-28967"><path  end="source" d="M 26 0 L 0 13 L 26 26 z"></path></g><g  id="v-28968"><path  end="target" d="M 26 0 L 0 13 L 26 26 z"></path></g></g><g  id="v-28981" display="none"><g  id="v-28966" transform="translate(2449.076581596361, 705.4973118005653) "><g  event="remove"><circle r="11"></circle><path transform="scale(.8) translate(-16, -16)" d="M24.778,21.419 19.276,15.917 24.777,10.415 21.949,7.585 16.447,13.087 10.945,7.585 8.117,10.415 13.618,15.917 8.116,21.419 10.946,24.248 16.447,18.746 21.948,24.248z"></path><title>Remove link.</title></g><g  event="link:options"><circle r="11" transform="translate(25)"></circle><path fill="white" transform="scale(.55) translate(29, -16)" d="M31.229,17.736c0.064-0.571,0.104-1.148,0.104-1.736s-0.04-1.166-0.104-1.737l-4.377-1.557c-0.218-0.716-0.504-1.401-0.851-2.05l1.993-4.192c-0.725-0.91-1.549-1.734-2.458-2.459l-4.193,1.994c-0.647-0.347-1.334-0.632-2.049-0.849l-1.558-4.378C17.165,0.708,16.588,0.667,16,0.667s-1.166,0.041-1.737,0.105L12.707,5.15c-0.716,0.217-1.401,0.502-2.05,0.849L6.464,4.005C5.554,4.73,4.73,5.554,4.005,6.464l1.994,4.192c-0.347,0.648-0.632,1.334-0.849,2.05l-4.378,1.557C0.708,14.834,0.667,15.412,0.667,16s0.041,1.165,0.105,1.736l4.378,1.558c0.217,0.715,0.502,1.401,0.849,2.049l-1.994,4.193c0.725,0.909,1.549,1.733,2.459,2.458l4.192-1.993c0.648,0.347,1.334,0.633,2.05,0.851l1.557,4.377c0.571,0.064,1.148,0.104,1.737,0.104c0.588,0,1.165-0.04,1.736-0.104l1.558-4.377c0.715-0.218,1.399-0.504,2.049-0.851l4.193,1.993c0.909-0.725,1.733-1.549,2.458-2.458l-1.993-4.193c0.347-0.647,0.633-1.334,0.851-2.049L31.229,17.736zM16,20.871c-2.69,0-4.872-2.182-4.872-4.871c0-2.69,2.182-4.872,4.872-4.872c2.689,0,4.871,2.182,4.871,4.872C20.871,18.689,18.689,20.871,16,20.871z"></path><title>Link options.</title></g></g></g></g><!--z-index:65--><!--z-index:66--><!--z-index:67--><!--z-index:68--><!--z-index:69--><!--z-index:70--><!--z-index:71--><!--z-index:72--><!--z-index:73--><!--z-index:74--><!--z-index:75--><!--z-index:76--><!--z-index:77--><!--z-index:78--><!--z-index:79--><!--z-index:80--><!--z-index:81--><!--z-index:82--><!--z-index:83--><!--z-index:84--><!--z-index:85--><!--z-index:86--><!--z-index:87--><!--z-index:88--><!--z-index:89--><!--z-index:90--><!--z-index:91--><!--z-index:92--><!--z-index:93--><!--z-index:94--><!--z-index:95--><!--z-index:96--><!--z-index:97--><!--z-index:98--><!--z-index:99--><!--z-index:100--><!--z-index:101--><!--z-index:102--><!--z-index:103--><!--z-index:104--><!--z-index:105--><!--z-index:106--><!--z-index:107--><!--z-index:108--><!--z-index:109--><!--z-index:110--><!--z-index:111--><!--z-index:112--><!--z-index:113--><!--z-index:114--><!--z-index:115--><!--z-index:116--><!--z-index:117--><!--z-index:118--><!--z-index:119--><!--z-index:120--><!--z-index:121--><!--z-index:122--><!--z-index:123--><!--z-index:124--><!--z-index:125--><!--z-index:126--><!--z-index:127--><!--z-index:128--><!--z-index:129--><!--z-index:130--><!--z-index:131--><!--z-index:132--><!--z-index:133--><!--z-index:134--><!--z-index:135--><!--z-index:136--><!--z-index:137--><!--z-index:138--><!--z-index:139--><!--z-index:140--><!--z-index:141--><!--z-index:142--><!--z-index:143--><!--z-index:144--><!--z-index:145--><!--z-index:146--><!--z-index:147--><!--z-index:148--><!--z-index:149--><!--z-index:150--><!--z-index:151--><!--z-index:152--><!--z-index:153--><!--z-index:154--><!--z-index:155--><!--z-index:156--><!--z-index:157--><!--z-index:158--><!--z-index:159--><!--z-index:160--><!--z-index:161--><!--z-index:162--><!--z-index:163--><!--z-index:164--><!--z-index:165--><!--z-index:166--><!--z-index:167--><!--z-index:168--><!--z-index:169--><!--z-index:170--><!--z-index:171--><!--z-index:172--><!--z-index:173--><!--z-index:174--><!--z-index:175--><!--z-index:176--><!--z-index:177--><!--z-index:178--><!--z-index:179--><!--z-index:180--><!--z-index:181--><!--z-index:182--><!--z-index:183--><!--z-index:184--><!--z-index:185--><!--z-index:186--><!--z-index:187--><!--z-index:188--><!--z-index:189--><!--z-index:190--><!--z-index:191--><!--z-index:192--><!--z-index:193--><!--z-index:194--><!--z-index:195--><!--z-index:196--><!--z-index:197--><!--z-index:198--><!--z-index:199--><!--z-index:200--><!--z-index:201--><!--z-index:202--><!--z-index:203--><!--z-index:204--><!--z-index:205--><!--z-index:206--><!--z-index:207--><!--z-index:208--><!--z-index:209--><!--z-index:210--><!--z-index:211--><!--z-index:212--><!--z-index:213--><!--z-index:214--><!--z-index:215--><!--z-index:216--><!--z-index:217--><!--z-index:218--><!--z-index:219--><!--z-index:220--><!--z-index:221--><!--z-index:222--><!--z-index:223--><!--z-index:224--><!--z-index:225--><!--z-index:226--><!--z-index:227--><!--z-index:228--><!--z-index:229--><!--z-index:230--><!--z-index:231--><!--z-index:232--><!--z-index:233--><!--z-index:234--><!--z-index:235--><!--z-index:236--><!--z-index:237--><!--z-index:238--><!--z-index:239--><!--z-index:240--><!--z-index:241--><!--z-index:242--><!--z-index:243--><!--z-index:244--><!--z-index:245--><!--z-index:246--><!--z-index:247--><!--z-index:248--><!--z-index:249--><!--z-index:250--><!--z-index:251--><!--z-index:252--><!--z-index:253--><!--z-index:254--><!--z-index:255--><!--z-index:256--><!--z-index:257--><!--z-index:258--><!--z-index:259--><!--z-index:260--><!--z-index:261--><!--z-index:262--><!--z-index:263--><!--z-index:264--><!--z-index:265--><!--z-index:266--><!--z-index:267--><!--z-index:268--><!--z-index:269--><!--z-index:270--><!--z-index:271--><!--z-index:272--><!--z-index:273--><!--z-index:274--><!--z-index:275--><!--z-index:276--><!--z-index:277--><!--z-index:278--><!--z-index:279--><!--z-index:280--><!--z-index:281--><!--z-index:282--><!--z-index:283--><!--z-index:284--><!--z-index:285--></g><g ></g><g ></g><g ></g></g></svg>