<svg xmlns="http://www.w3.org/2000/svg" xmlns:xlink="http://www.w3.org/1999/xlink" version="1.1" viewBox="0 0 2500 1000" style="background: #ffffff"><defs><style>@import url(https://fonts.googleapis.com/css?family=Open+Sans:400,700);</style></defs><g transform="translate(25,100)"><rect width="450" height="300" rx="20" ry="20" x="0" y="0" fill="#00d230" stroke-width="2" stroke="#00bd2b"/><text x="225" y="132" text-anchor="middle" fill="#000000" font-size="30px" font-family="Open Sans"><tspan x="225" dy="40px">Application</tspan></text></g><g transform="translate(525,55.5)"><polygon points="112.5,0 337.5,0 450,194.5 337.5,389 112.5,389 0,194.5" fill="#00d230" stroke-width="2" stroke="#00bd2b"/><text x="225" y="176.5" text-anchor="middle" fill="#000000" font-size="30px" font-family="Open Sans"><tspan x="225" dy="40px">Container Collection</tspan></text></g><g transform="translate(1025,100)"><path id="keyDatabaseCylinderPath" d="M 0,22.5 a 225,22.5 0,0,0 450 0 a 225,22.5 0,0,0 -450 0 l 0,255 a 225,22.5 0,0,0 450 0 l 0,-255" fill="#00d230" stroke-width="2" stroke="#00bd2b"></path><text x="225" y="143.25" text-anchor="middle" fill="#000000" font-size="30px" font-family="Open Sans"><tspan x="225" dy="40px">Database</tspan></text></g><g transform="translate(1525,100)"><rect width="450" height="300" rx="3" ry="3" x="0" y="0" fill="#dddddd" stroke-width="2" stroke="#c7c7c7"/><text x="225" y="132" text-anchor="middle" fill="#000000" font-size="30px" font-family="Open Sans"><tspan x="225" dy="40px">Other Software System</tspan></text></g><g transform="translate(2025,100)"><rect width="450" height="300" rx="3" ry="3" x="0" y="0" fill="#00d230" stroke-width="2" stroke="#00bd2b"/><text x="225" y="132" text-anchor="middle" fill="#000000" font-size="30px" font-family="Open Sans"><tspan x="225" dy="40px">Task</tspan></text></g><g transform="translate(25,670)"><path d="M390,0 L390,60 L450,30 L 390,0" style="fill:#505050" stroke-dasharray="" /><path d="M0,30 L390,30" style="stroke:#505050; stroke-width: 6; fill: none;" /><text x="225" y="77" text-anchor="middle" fill="#505050" font-size="30px" font-family="Open Sans"><tspan x="225" dy="40px">Relationship</tspan></text></g></svg>