<svg xmlns="http://www.w3.org/2000/svg" xmlns:xlink="http://www.w3.org/1999/xlink" version="1.1" viewBox="0 0 2995 2063" style="background: #ffffff"><defs><style>@import url(https://fonts.googleapis.com/css?family=Open+Sans:400,700);</style></defs><defs joint-selector="defs"></defs><g  joint-selector="layers" transform="matrix(1,0,0,1,0,0)"><g ></g><g ><!--z-index:-33--><!--z-index:-32--><!--z-index:-31--><!--z-index:-30--><!--z-index:-29--><!--z-index:-28--><!--z-index:-27--><!--z-index:-26--><!--z-index:-25--><!--z-index:-24--><!--z-index:-23--><!--z-index:-22--><!--z-index:-21--><!--z-index:-20--><!--z-index:-19--><!--z-index:-18--><!--z-index:-17--><!--z-index:-16--><!--z-index:-15--><!--z-index:-14--><!--z-index:-13--><!--z-index:-12--><!--z-index:-11--><!--z-index:-10--><!--z-index:-9--><!--z-index:-8--><!--z-index:-7--><!--z-index:-6--><!--z-index:-5--><!--z-index:-4--><!--z-index:-3--><!--z-index:-2--><!--z-index:-1--><!--z-index:0--><!--z-index:1--><!--z-index:2--><!--z-index:3--><!--z-index:4--><!--z-index:5--><!--z-index:6--><!--z-index:7--><!--z-index:8--><!--z-index:9--><!--z-index:10--><!--z-index:11--><!--z-index:12--><!--z-index:13--><!--z-index:14--><!--z-index:15--><!--z-index:16--><!--z-index:17--><!--z-index:18--><!--z-index:19--><!--z-index:20--><!--z-index:21--><!--z-index:22--><!--z-index:23--><!--z-index:24--><!--z-index:25--><!--z-index:26--><!--z-index:27--><!--z-index:28--><g   id="j_1666"  transform="translate(20,2026.6)"><g id="v-24854"><text  id="v-24855" font-size="22px" xml:space="preserve" y="0.8em" font-weight="normal" text-anchor="start" fill="#aaaaaa" pointer-events="none" display="block" font-family="Open Sans"><tspan  dy="0" display="block">Friday, February 14, 2025 at 1:57 PM Central Standard Time</tspan></text></g></g><!--z-index:29--><g   id="j_1665"  transform="translate(20,1983.3999999999999)"><g id="v-24852"><text  id="v-24853" font-size="36px" xml:space="preserve" y="0.8em" font-weight="normal" text-anchor="start" fill="#000000" pointer-events="none" display="block" font-family="Open Sans"><tspan  dy="0" display="block">[System Context] Relay</tspan></text></g></g><!--z-index:30--><g   id="j_1667"  transform="translate(199,1419)" style=""><g  id="v-24862" style="opacity: 1;"><rect  id="v-24863" rx="1" ry="1" stroke="#c7c7c7" stroke-width="2" pointer-events="visiblePainted" fill="#dddddd" width="450" height="300" style="fill: rgb(221, 221, 221); stroke: rgb(199, 199, 199);"></rect><text  id="v-24864" font-size="34" xml:space="preserve" y="0.8em" font-weight="bold" text-anchor="middle" pointer-events="visible" font-family="Open Sans" fill="#000000" transform="matrix(1,0,0,1,225,88.0999984741211)" style="fill: rgb(0, 0, 0);"><tspan  dy="0">Google Analytics</tspan></text><text  id="v-24865" font-size="17" xml:space="preserve" y="0.8em" text-anchor="middle" font-family="Open Sans" fill="#000000" transform="matrix(1,0,0,1,225,128.89999389648438)" style="fill: rgb(0, 0, 0);"><tspan  dy="0">[Software System]</tspan></text><text  id="v-24866" font-size="24" xml:space="preserve" y="0.8em" text-anchor="middle" font-family="Open Sans" fill="#000000" transform="matrix(1,0,0,1,225,159.3000030517578)" style="fill: rgb(0, 0, 0);"><tspan  dy="0">Collects and reports interaction</tspan><tspan dy="1.2em" x="0" >events</tspan></text><g  id="v-24867" color="#000000" transform="matrix(1,0,0,1,222.5,268)" style="fill: rgb(0, 0, 0);" display="none"><g ></g><g ></g><g ></g><g ></g></g><image  id="v-24868"></image></g></g><!--z-index:31--><g   id="j_1668"  transform="translate(199,1055)" style=""><g  id="v-24872" style="opacity: 1;"><rect  id="v-24873" rx="1" ry="1" stroke="#c7c7c7" stroke-width="2" pointer-events="visiblePainted" fill="#dddddd" width="450" height="300" style="fill: rgb(221, 221, 221); stroke: rgb(199, 199, 199);"></rect><text  id="v-24874" font-size="34" xml:space="preserve" y="0.8em" font-weight="bold" text-anchor="middle" pointer-events="visible" font-family="Open Sans" fill="#000000" transform="matrix(1,0,0,1,225,88.0999984741211)" style="fill: rgb(0, 0, 0);"><tspan  dy="0">Stripe</tspan></text><text  id="v-24875" font-size="17" xml:space="preserve" y="0.8em" text-anchor="middle" font-family="Open Sans" fill="#000000" transform="matrix(1,0,0,1,225,128.89999389648438)" style="fill: rgb(0, 0, 0);"><tspan  dy="0">[Software System]</tspan></text><text  id="v-24876" font-size="24" xml:space="preserve" y="0.8em" text-anchor="middle" font-family="Open Sans" fill="#000000" transform="matrix(1,0,0,1,225,159.3000030517578)" style="fill: rgb(0, 0, 0);"><tspan  dy="0">Handles billing and payment</tspan><tspan dy="1.2em" x="0" >processing</tspan></text><g  id="v-24877" color="#000000" transform="matrix(1,0,0,1,222.5,268)" style="fill: rgb(0, 0, 0);" display="none"><g ></g><g ></g><g ></g><g ></g></g><image  id="v-24878"></image></g></g><!--z-index:32--><g   id="j_1670"  transform="translate(749,820)" style=""><g id="v-24892"><rect  id="v-24893" width="1540" height="1044" rx="0" ry="0" fill="#ffffff" stroke="#444444" stroke-width="1" stroke-dasharray="5,5" pointer-events="none"></rect><text  id="v-24894" font-size="24px" xml:space="preserve" y="1029" font-weight="normal" fill="#444444" text-anchor="start" pointer-events="visible" font-family="Open Sans" transform="matrix(1,0,0,1,15,0)"><tspan  dy="0">Mozilla</tspan></text><text  id="v-24895" font-size="17px" xml:space="preserve" display="none" y="1029" font-weight="normal" fill="#444444" text-anchor="start" pointer-events="visible" font-family="Open Sans" transform="matrix(1,0,0,1,15,0)"><tspan style="fill-opacity: 0; stroke-opacity: 0;"  dy="0">-</tspan></text><image  id="v-24896" pointer-events="visible"></image></g></g><!--z-index:33--><g   id="j_1669"  transform="translate(905,840)" style=""><g  id="v-24885" style="opacity: 1;"><rect  id="v-24886" rx="1" ry="1" stroke="#c7c7c7" stroke-width="2" pointer-events="visiblePainted" fill="#dddddd" width="450" height="300" style="fill: rgb(221, 221, 221); stroke: rgb(199, 199, 199);"></rect><text  id="v-24887" font-size="34" xml:space="preserve" y="0.8em" font-weight="bold" text-anchor="middle" pointer-events="visible" font-family="Open Sans" fill="#000000" transform="matrix(1,0,0,1,225,67.69999694824219)" style="fill: rgb(0, 0, 0);"><tspan  dy="0">Accounts and</tspan><tspan dy="1.2em" x="0" >Subscriptions</tspan></text><text  id="v-24888" font-size="17" xml:space="preserve" y="0.8em" text-anchor="middle" font-family="Open Sans" fill="#000000" transform="matrix(1,0,0,1,225,149.3000030517578)" style="fill: rgb(0, 0, 0);"><tspan  dy="0">[Software System]</tspan></text><text  id="v-24889" font-size="24" xml:space="preserve" y="0.8em" text-anchor="middle" font-family="Open Sans" fill="#000000" transform="matrix(1,0,0,1,225,179.6999969482422)" style="fill: rgb(0, 0, 0);"><tspan  dy="0">Mozilla Accounts and the</tspan><tspan dy="1.2em" x="0" >Subscription Platform.</tspan></text><g  id="v-24890" color="#000000" transform="matrix(1,0,0,1,222.5,268)" style="fill: rgb(0, 0, 0);" display="none"><g ></g><g ></g><g ></g><g ></g></g><image  id="v-24891"></image></g></g><!--z-index:34--><g   id="j_1671"  transform="translate(769,1489)" style=""><g  id="v-24900" style="opacity: 1;"><rect  id="v-24901" rx="1" ry="1" stroke="#c7c7c7" stroke-width="2" pointer-events="visiblePainted" fill="#dddddd" width="450" height="300" style="fill: rgb(221, 221, 221); stroke: rgb(199, 199, 199);"></rect><text  id="v-24902" font-size="34" xml:space="preserve" y="0.8em" font-weight="bold" text-anchor="middle" pointer-events="visible" font-family="Open Sans" fill="#000000" transform="matrix(1,0,0,1,225,102.5)" style="fill: rgb(0, 0, 0);"><tspan  dy="0">Data Platform</tspan></text><text  id="v-24903" font-size="17" xml:space="preserve" y="0.8em" text-anchor="middle" font-family="Open Sans" fill="#000000" transform="matrix(1,0,0,1,225,143.3000030517578)" style="fill: rgb(0, 0, 0);"><tspan  dy="0">[Software System]</tspan></text><text  id="v-24904" font-size="24" xml:space="preserve" y="0.8em" text-anchor="middle" font-family="Open Sans" fill="#000000" transform="matrix(1,0,0,1,225,173.6999969482422)" style="fill: rgb(0, 0, 0);"><tspan  dy="0">The Mozilla Telemetry Platform</tspan></text><g  id="v-24905" color="#000000" transform="matrix(1,0,0,1,222.5,268)" style="fill: rgb(0, 0, 0);" display="none"><g ></g><g ></g><g ></g><g ></g></g><image  id="v-24906"></image></g></g><!--z-index:35--><g   id="j_1672"  transform="translate(1819,1489)" style=""><g  id="v-24913" style="opacity: 1;"><rect  id="v-24914" rx="1" ry="1" stroke="#c7c7c7" stroke-width="2" pointer-events="visiblePainted" fill="#dddddd" width="450" height="300" style="fill: rgb(221, 221, 221); stroke: rgb(199, 199, 199);"></rect><text  id="v-24915" font-size="34" xml:space="preserve" y="0.8em" font-weight="bold" text-anchor="middle" pointer-events="visible" font-family="Open Sans" fill="#000000" transform="matrix(1,0,0,1,225,67.69999694824219)" style="fill: rgb(0, 0, 0);"><tspan  dy="0">Google Managed</tspan><tspan dy="1.2em" x="0" >Prometheus</tspan></text><text  id="v-24916" font-size="17" xml:space="preserve" y="0.8em" text-anchor="middle" font-family="Open Sans" fill="#000000" transform="matrix(1,0,0,1,225,149.3000030517578)" style="fill: rgb(0, 0, 0);"><tspan  dy="0">[Software System]</tspan></text><text  id="v-24917" font-size="24" xml:space="preserve" y="0.8em" text-anchor="middle" font-family="Open Sans" fill="#000000" transform="matrix(1,0,0,1,225,179.6999969482422)" style="fill: rgb(0, 0, 0);"><tspan  dy="0">Stores metrics for queries and</tspan><tspan dy="1.2em" x="0" >reports</tspan></text><g  id="v-24918" color="#000000" transform="matrix(1,0,0,1,222.5,268)" style="fill: rgb(0, 0, 0);" display="none"><g ></g><g ></g><g ></g><g ></g></g><image  id="v-24919"></image></g></g><!--z-index:36--><g   id="j_1673"  transform="translate(1295,1490)" style=""><g  id="v-24923" style="opacity: 1;"><rect  id="v-24924" rx="1" ry="1" stroke="#c7c7c7" stroke-width="2" pointer-events="visiblePainted" fill="#dddddd" width="450" height="300" style="fill: rgb(221, 221, 221); stroke: rgb(199, 199, 199);"></rect><text  id="v-24925" font-size="34" xml:space="preserve" y="0.8em" font-weight="bold" text-anchor="middle" pointer-events="visible" font-family="Open Sans" fill="#000000" transform="matrix(1,0,0,1,225,88.0999984741211)" style="fill: rgb(0, 0, 0);"><tspan  dy="0">Sentry</tspan></text><text  id="v-24926" font-size="17" xml:space="preserve" y="0.8em" text-anchor="middle" font-family="Open Sans" fill="#000000" transform="matrix(1,0,0,1,225,128.89999389648438)" style="fill: rgb(0, 0, 0);"><tspan  dy="0">[Software System]</tspan></text><text  id="v-24927" font-size="24" xml:space="preserve" y="0.8em" text-anchor="middle" font-family="Open Sans" fill="#000000" transform="matrix(1,0,0,1,225,159.3000030517578)" style="fill: rgb(0, 0, 0);"><tspan  dy="0">Collects and organizes tracebacks</tspan><tspan dy="1.2em" x="0" >and errors</tspan></text><g  id="v-24928" color="#000000" transform="matrix(1,0,0,1,222.5,268)" style="fill: rgb(0, 0, 0);" display="none"><g ></g><g ></g><g ></g><g ></g></g><image  id="v-24929"></image></g></g><!--z-index:37--><g   id="j_1674"  transform="translate(1654,855)" style=""><g  id="v-24933" style="opacity: 1;"><rect  id="v-24934" rx="1" ry="1" stroke="#005526" stroke-width="2" pointer-events="visiblePainted" fill="#005e2a" width="450" height="300" style="fill: rgb(0, 94, 42); stroke: rgb(0, 85, 38);"></rect><text  id="v-24935" font-size="34" xml:space="preserve" y="0.8em" font-weight="bold" text-anchor="middle" pointer-events="visible" font-family="Open Sans" fill="#ffffff" transform="matrix(1,0,0,1,225,73.69999694824219)" style="fill: rgb(255, 255, 255);"><tspan  dy="0">Firefox Relay</tspan></text><text  id="v-24936" font-size="17" xml:space="preserve" y="0.8em" text-anchor="middle" font-family="Open Sans" fill="#ffffff" transform="matrix(1,0,0,1,225,114.5)" style="fill: rgb(255, 255, 255);"><tspan  dy="0">[Software System]</tspan></text><text  id="v-24937" font-size="24" xml:space="preserve" y="0.8em" text-anchor="middle" font-family="Open Sans" fill="#ffffff" transform="matrix(1,0,0,1,225,144.89999389648438)" style="fill: rgb(255, 255, 255);"><tspan  dy="0">Manages email and phone masks.</tspan><tspan dy="1.2em" x="0" >Forwards messages between masks</tspan><tspan dy="1.2em" x="0" >and external services.</tspan></text><g  id="v-24938" color="#ffffff" transform="matrix(1,0,0,1,210,268)" style="fill: rgb(255, 255, 255);" display="none"><g  transform="translate(5 0)"><svg xmlns="http://www.w3.org/2000/svg" width="20" height="20" fill="currentColor" viewBox="0 0 16 16"><path fill-rule="evenodd" d="M6.5 12a5.5 5.5 0 1 0 0-11 5.5 5.5 0 0 0 0 11zM13 6.5a6.5 6.5 0 1 1-13 0 6.5 6.5 0 0 1 13 0z"></path><path d="M10.344 11.742c.03.04.062.078.098.115l3.85 3.85a1 1 0 0 0 1.415-1.414l-3.85-3.85a1.007 1.007 0 0 0-.115-.1 6.538 6.538 0 0 1-1.398 1.4z"></path><path fill-rule="evenodd" d="M6.5 3a.5.5 0 0 1 .5.5V6h2.5a.5.5 0 0 1 0 1H7v2.5a.5.5 0 0 1-1 0V7H3.5a.5.5 0 0 1 0-1H6V3.5a.5.5 0 0 1 .5-.5z"></path></svg></g><g ></g><g ></g><g ></g></g><image  id="v-24939"></image></g></g><!--z-index:38--><g   id="j_1675"  transform="translate(1299,200)" style=""><g  id="v-24943" style="opacity: 1;"><rect  x="0" y="160" width="400" height="240" rx="70" id="v-24945" stroke="#e68a00" stroke-width="2" pointer-events="visiblePainted" fill="#ff9900" style="fill: rgb(255, 153, 0); stroke: rgb(230, 138, 0);"></rect><circle  cx="200" cy="88.88888888888889" r="88.88888888888889" id="v-24944" stroke="#e68a00" stroke-width="2" pointer-events="visiblePainted" fill="#ff9900" style="fill: rgb(255, 153, 0); stroke: rgb(230, 138, 0);"></circle><line  x1="80" y1="266.6666666666667" x2="80" y2="400" id="v-24951" stroke="#e68a00" stroke-width="2" style="stroke: rgb(230, 138, 0);"></line><line  x1="320" y1="266.6666666666667" x2="320" y2="400" id="v-24952" stroke="#e68a00" stroke-width="2" style="stroke: rgb(230, 138, 0);"></line><text  id="v-24946" font-size="34" xml:space="preserve" y="0.8em" font-weight="bold" text-anchor="middle" pointer-events="visible" font-family="Open Sans" fill="#000000" transform="matrix(1,0,0,1,200,232.5)" style="fill: rgb(0, 0, 0);"><tspan  dy="0">Relay User</tspan></text><text  id="v-24947" font-size="17" xml:space="preserve" y="0.8em" text-anchor="middle" font-family="Open Sans" fill="#000000" transform="matrix(1,0,0,1,200,273.29998779296875)" style="fill: rgb(0, 0, 0);"><tspan  dy="0">[Person]</tspan></text><text  id="v-24948" font-size="24" xml:space="preserve" y="0.8em" text-anchor="middle" font-family="Open Sans" fill="#000000" transform="matrix(1,0,0,1,200,303.70001220703125)" style="fill: rgb(0, 0, 0);"><tspan  dy="0">A user of Firefox Relay.</tspan></text><g  id="v-24949" font-weight="normal" text-anchor="middle" color="#000000" transform="matrix(1,0,0,1,197.5,368)" style="fill: rgb(0, 0, 0);" display="none"><g ></g><g ></g><g ></g><g ></g></g><image  id="v-24950"></image></g></g><!--z-index:39--><g   id="j_1676"  transform="translate(2394,1250)" style=""><g  id="v-24956" style="opacity: 1;"><rect  x="0" y="160" width="400" height="240" rx="70" id="v-24958" stroke="#c7c7c7" stroke-width="2" pointer-events="visiblePainted" fill="#dddddd" style="fill: rgb(221, 221, 221); stroke: rgb(199, 199, 199);"></rect><circle  cx="200" cy="88.88888888888889" r="88.88888888888889" id="v-24957" stroke="#c7c7c7" stroke-width="2" pointer-events="visiblePainted" fill="#dddddd" style="fill: rgb(221, 221, 221); stroke: rgb(199, 199, 199);"></circle><line  x1="80" y1="266.6666666666667" x2="80" y2="400" id="v-24964" stroke="#c7c7c7" stroke-width="2" style="stroke: rgb(199, 199, 199);"></line><line  x1="320" y1="266.6666666666667" x2="320" y2="400" id="v-24965" stroke="#c7c7c7" stroke-width="2" style="stroke: rgb(199, 199, 199);"></line><text  id="v-24959" font-size="34" xml:space="preserve" y="0.8em" font-weight="bold" text-anchor="middle" pointer-events="visible" font-family="Open Sans" fill="#000000" transform="matrix(1,0,0,1,200,218.10000610351562)" style="fill: rgb(0, 0, 0);"><tspan  dy="0">Email Contact</tspan></text><text  id="v-24960" font-size="17" xml:space="preserve" y="0.8em" text-anchor="middle" font-family="Open Sans" fill="#000000" transform="matrix(1,0,0,1,200,258.8999938964844)" style="fill: rgb(0, 0, 0);"><tspan  dy="0">[Person]</tspan></text><text  id="v-24961" font-size="24" xml:space="preserve" y="0.8em" text-anchor="middle" font-family="Open Sans" fill="#000000" transform="matrix(1,0,0,1,200,289.29998779296875)" style="fill: rgb(0, 0, 0);"><tspan  dy="0">A person or business emailing</tspan><tspan dy="1.2em" x="0" >with a Relay User.</tspan></text><g  id="v-24962" font-weight="normal" text-anchor="middle" color="#000000" transform="matrix(1,0,0,1,197.5,368)" style="fill: rgb(0, 0, 0);" display="none"><g ></g><g ></g><g ></g><g ></g></g><image  id="v-24963"></image></g></g><!--z-index:40--><g   id="j_1677"  transform="translate(2394,640)" style=""><g  id="v-24969" style="opacity: 1;"><rect  x="0" y="160" width="400" height="240" rx="70" id="v-24971" stroke="#c7c7c7" stroke-width="2" pointer-events="visiblePainted" fill="#dddddd" style="fill: rgb(221, 221, 221); stroke: rgb(199, 199, 199);"></rect><circle  cx="200" cy="88.88888888888889" r="88.88888888888889" id="v-24970" stroke="#c7c7c7" stroke-width="2" pointer-events="visiblePainted" fill="#dddddd" style="fill: rgb(221, 221, 221); stroke: rgb(199, 199, 199);"></circle><line  x1="80" y1="266.6666666666667" x2="80" y2="400" id="v-24977" stroke="#c7c7c7" stroke-width="2" style="stroke: rgb(199, 199, 199);"></line><line  x1="320" y1="266.6666666666667" x2="320" y2="400" id="v-24978" stroke="#c7c7c7" stroke-width="2" style="stroke: rgb(199, 199, 199);"></line><text  id="v-24972" font-size="34" xml:space="preserve" y="0.8em" font-weight="bold" text-anchor="middle" pointer-events="visible" font-family="Open Sans" fill="#000000" transform="matrix(1,0,0,1,200,218.10000610351562)" style="fill: rgb(0, 0, 0);"><tspan  dy="0">Phone Contact</tspan></text><text  id="v-24973" font-size="17" xml:space="preserve" y="0.8em" text-anchor="middle" font-family="Open Sans" fill="#000000" transform="matrix(1,0,0,1,200,258.8999938964844)" style="fill: rgb(0, 0, 0);"><tspan  dy="0">[Person]</tspan></text><text  id="v-24974" font-size="24" xml:space="preserve" y="0.8em" text-anchor="middle" font-family="Open Sans" fill="#000000" transform="matrix(1,0,0,1,200,289.29998779296875)" style="fill: rgb(0, 0, 0);"><tspan  dy="0">A person or business calling or</tspan><tspan dy="1.2em" x="0" >texting with a Relay User.</tspan></text><g  id="v-24975" font-weight="normal" text-anchor="middle" color="#000000" transform="matrix(1,0,0,1,197.5,368)" style="fill: rgb(0, 0, 0);" display="none"><g ></g><g ></g><g ></g><g ></g></g><image  id="v-24976"></image></g></g><!--z-index:41--><g   id="j_1678" ><path  stroke="#505050" d="M 1654 1078 L 1304 1192 C 1297.3333333333333 1194 1290.6666666666665 1195 1284 1195 L 649 1202" id="v-24995" stroke-width="2" fill="none" style="opacity: 1;"></path><path  fill="black" stroke="black" d="M 0 0 0 0" transform="matrix(-0.9510961771011353,0.30889490246772766,-0.30889490246772766,-0.9510961771011353,1654,1078.0799560546875)"></path><path  fill="#505050" stroke="#505050" d="M 20 0 L 0 10 L 20 20 z" id="v-24997" transform="matrix(0.9999340176582336,-0.011487559415400028,0.011487559415400028,0.9999340176582336,648.8851318359375,1192.41064453125)" style="opacity: 1;"></path><path  d="M 1654 1078 L 1304 1192 C 1297.3333333333333 1194 1290.6666666666665 1195 1284 1195 L 649 1202" id="v-24996" fill="none" style="cursor: default;"></path><g ><g id="v-24986"  label-idx="0" cursor="move" transform="matrix(1,0,0,1,1160.682861328125,1196.359375)" style="cursor: default; opacity: 1;"><rect joint-selector="rect" id="v-24990" fill="#ffffff" rx="3" ry="3" pointer-events="none" width="210.21702575683594" height="64.22218322753906" transform="matrix(1,0,0,1,-105.0999984741211,-32.099998474121094)"></rect><text joint-selector="text" id="v-24989" font-size="24px" xml:space="preserve" y="0.8em" fill="#505050" text-anchor="middle" pointer-events="none" font-family="Open Sans" font-weight="normal" transform="matrix(1,0,0,1,0,-24.100000381469727)"><tspan  dy="0">Requests</tspan><tspan dy="1.2em" x="0" >purchase tracking</tspan></text></g><g id="v-24987"  label-idx="1" cursor="move" transform="matrix(1,0,0,1,1160.682861328125,1237.159423828125)" style="cursor: default; opacity: 1;"><rect joint-selector="rect" id="v-24992" fill="#ffffff" rx="3" ry="3" pointer-events="none" width="70.40834045410156" height="25.5" transform="matrix(1,0,0,1,-35.20000076293945,-12.699999809265137)"></rect><text joint-selector="text" id="v-24991" font-size="17px" xml:space="preserve" y="0.8em" fill="#505050" text-anchor="middle" pointer-events="none" font-family="Open Sans" font-weight="normal" transform="matrix(1,0,0,1,0,-7.199999809265137)"><tspan  dy="0">[HTTPS]</tspan></text></g><g id="v-24988"  label-idx="2" cursor="move" transform="matrix(1,0,0,1,1150.682861328125,1245.5594482421875)" style="cursor: default; opacity: 1;"><rect joint-selector="rect" id="v-24994" fill="#ffffff" rx="3" ry="3"  width="0" height="0" transform="matrix(1,0,0,1,0,0)" display="none"></rect><text joint-selector="text" id="v-24993" fill="#000000" font-size="14" text-anchor="middle" pointer-events="none"></text></g></g><g  display="none"><g  transform="translate(1294, 1195)" id="v-24983"><circle  idx="0" r="10"></circle><path  idx="0" d="M16,5.333c-7.732,0-14,4.701-14,10.5c0,1.982,0.741,3.833,2.016,5.414L2,25.667l5.613-1.441c2.339,1.317,5.237,2.107,8.387,2.107c7.732,0,14-4.701,14-10.5C30,10.034,23.732,5.333,16,5.333z" transform="translate(5, -33)"></path><path  idx="0" transform="scale(.8) translate(9.5, -37)" d="M24.778,21.419 19.276,15.917 24.777,10.415 21.949,7.585 16.447,13.087 10.945,7.585 8.117,10.415 13.618,15.917 8.116,21.419 10.946,24.248 16.447,18.746 21.948,24.248z"><title>Remove vertex.</title></path></g></g><g  id="v-24999" display="none"><g  id="v-24984"><path  end="source" d="M 26 0 L 0 13 L 26 26 z"></path></g><g  id="v-24985"><path  end="target" d="M 26 0 L 0 13 L 26 26 z"></path></g></g><g  id="v-24998" display="none"><g  id="v-24982" transform="translate(1615.9666308730234, 1090.388011658501) "><g  event="remove"><circle r="11"></circle><path transform="scale(.8) translate(-16, -16)" d="M24.778,21.419 19.276,15.917 24.777,10.415 21.949,7.585 16.447,13.087 10.945,7.585 8.117,10.415 13.618,15.917 8.116,21.419 10.946,24.248 16.447,18.746 21.948,24.248z"></path><title>Remove link.</title></g><g  event="link:options"><circle r="11" transform="translate(25)"></circle><path fill="white" transform="scale(.55) translate(29, -16)" d="M31.229,17.736c0.064-0.571,0.104-1.148,0.104-1.736s-0.04-1.166-0.104-1.737l-4.377-1.557c-0.218-0.716-0.504-1.401-0.851-2.05l1.993-4.192c-0.725-0.91-1.549-1.734-2.458-2.459l-4.193,1.994c-0.647-0.347-1.334-0.632-2.049-0.849l-1.558-4.378C17.165,0.708,16.588,0.667,16,0.667s-1.166,0.041-1.737,0.105L12.707,5.15c-0.716,0.217-1.401,0.502-2.05,0.849L6.464,4.005C5.554,4.73,4.73,5.554,4.005,6.464l1.994,4.192c-0.347,0.648-0.632,1.334-0.849,2.05l-4.378,1.557C0.708,14.834,0.667,15.412,0.667,16s0.041,1.165,0.105,1.736l4.378,1.558c0.217,0.715,0.502,1.401,0.849,2.049l-1.994,4.193c0.725,0.909,1.549,1.733,2.459,2.458l4.192-1.993c0.648,0.347,1.334,0.633,2.05,0.851l1.557,4.377c0.571,0.064,1.148,0.104,1.737,0.104c0.588,0,1.165-0.04,1.736-0.104l1.558-4.377c0.715-0.218,1.399-0.504,2.049-0.851l4.193,1.993c0.909-0.725,1.733-1.549,2.458-2.458l-1.993-4.193c0.347-0.647,0.633-1.334,0.851-2.049L31.229,17.736zM16,20.871c-2.69,0-4.872-2.182-4.872-4.871c0-2.69,2.182-4.872,4.872-4.872c2.689,0,4.871,2.182,4.871,4.872C20.871,18.689,18.689,20.871,16,20.871z"></path><title>Link options.</title></g></g></g></g><!--z-index:42--><g   id="j_1679" ><path  stroke="#505050" d="M 1374 600 L 1224 840" id="v-25015" stroke-width="2" fill="none" style="opacity: 1;"></path><path  fill="black" stroke="black" d="M 0 0 0 0" transform="matrix(-0.5302783250808716,0.8478236198425293,-0.8478236198425293,-0.5302783250808716,1373.9200439453125,600)"></path><path  fill="#505050" stroke="#505050" d="M 20 0 L 0 10 L 20 20 z" id="v-25017" transform="matrix(0.5302783250808716,-0.8478236198425293,0.8478236198425293,0.5302783250808716,1215.331787109375,834.697265625)" style="opacity: 1;"></path><path  d="M 1374 600 L 1224 840" id="v-25016" fill="none" style="cursor: default;"></path><g ><g id="v-25006"  label-idx="0" cursor="move" transform="matrix(1,0,0,1,1299,720)" style="cursor: default; opacity: 1;"><rect joint-selector="rect" id="v-25010" fill="#ffffff" rx="3" ry="3" pointer-events="none" width="148.90940856933594" height="93.02217864990234" transform="matrix(1,0,0,1,-74.5,-46.5)"></rect><text joint-selector="text" id="v-25009" font-size="24px" xml:space="preserve" y="0.8em" fill="#505050" text-anchor="middle" pointer-events="none" font-family="Open Sans" font-weight="normal" transform="matrix(1,0,0,1,0,-38.5)"><tspan  dy="0">Registers,</tspan><tspan dy="1.2em" x="0" >manages</tspan><tspan dy="1.2em" x="0" >subscription</tspan></text></g><g id="v-25007"  label-idx="1" cursor="move" transform="matrix(1,0,0,1,1299,775.2000122070312)" style="cursor: default; opacity: 1;"><rect joint-selector="rect" id="v-25012" fill="#ffffff" rx="3" ry="3" pointer-events="none" width="70.40834045410156" height="25.5" transform="matrix(1,0,0,1,-35.20000076293945,-12.699999809265137)"></rect><text joint-selector="text" id="v-25011" font-size="17px" xml:space="preserve" y="0.8em" fill="#505050" text-anchor="middle" pointer-events="none" font-family="Open Sans" font-weight="normal" transform="matrix(1,0,0,1,0,-7.199999809265137)"><tspan  dy="0">[HTTPS]</tspan></text></g><g id="v-25008"  label-idx="2" cursor="move" transform="matrix(1,0,0,1,1289,783.5999755859375)" style="cursor: default; opacity: 1;"><rect joint-selector="rect" id="v-25014" fill="#ffffff" rx="3" ry="3"  width="0" height="0" transform="matrix(1,0,0,1,0,0)" display="none"></rect><text joint-selector="text" id="v-25013" fill="#000000" font-size="14" text-anchor="middle" pointer-events="none"></text></g></g><g  display="none"></g><g  id="v-25019" display="none"><g  id="v-25004"><path  end="source" d="M 26 0 L 0 13 L 26 26 z"></path></g><g  id="v-25005"><path  end="target" d="M 26 0 L 0 13 L 26 26 z"></path></g></g><g  id="v-25018" display="none"><g  id="v-25003" transform="translate(1352.8000423998728, 633.9199321602035) "><g  event="remove"><circle r="11"></circle><path transform="scale(.8) translate(-16, -16)" d="M24.778,21.419 19.276,15.917 24.777,10.415 21.949,7.585 16.447,13.087 10.945,7.585 8.117,10.415 13.618,15.917 8.116,21.419 10.946,24.248 16.447,18.746 21.948,24.248z"></path><title>Remove link.</title></g><g  event="link:options"><circle r="11" transform="translate(25)"></circle><path fill="white" transform="scale(.55) translate(29, -16)" d="M31.229,17.736c0.064-0.571,0.104-1.148,0.104-1.736s-0.04-1.166-0.104-1.737l-4.377-1.557c-0.218-0.716-0.504-1.401-0.851-2.05l1.993-4.192c-0.725-0.91-1.549-1.734-2.458-2.459l-4.193,1.994c-0.647-0.347-1.334-0.632-2.049-0.849l-1.558-4.378C17.165,0.708,16.588,0.667,16,0.667s-1.166,0.041-1.737,0.105L12.707,5.15c-0.716,0.217-1.401,0.502-2.05,0.849L6.464,4.005C5.554,4.73,4.73,5.554,4.005,6.464l1.994,4.192c-0.347,0.648-0.632,1.334-0.849,2.05l-4.378,1.557C0.708,14.834,0.667,15.412,0.667,16s0.041,1.165,0.105,1.736l4.378,1.558c0.217,0.715,0.502,1.401,0.849,2.049l-1.994,4.193c0.725,0.909,1.549,1.733,2.459,2.458l4.192-1.993c0.648,0.347,1.334,0.633,2.05,0.851l1.557,4.377c0.571,0.064,1.148,0.104,1.737,0.104c0.588,0,1.165-0.04,1.736-0.104l1.558-4.377c0.715-0.218,1.399-0.504,2.049-0.851l4.193,1.993c0.909-0.725,1.733-1.549,2.458-2.458l-1.993-4.193c0.347-0.647,0.633-1.334,0.851-2.049L31.229,17.736zM16,20.871c-2.69,0-4.872-2.182-4.872-4.871c0-2.69,2.182-4.872,4.872-4.872c2.689,0,4.871,2.182,4.871,4.872C20.871,18.689,18.689,20.871,16,20.871z"></path><title>Link options.</title></g></g></g></g><!--z-index:43--><g   id="j_1680" ><path  stroke="#505050" d="M 1532 600 L 1560 771 C 1561.3333333333333 777.6666666666666 1564.6666666666665 783 1570 787 L 1667 855" id="v-25030" stroke-width="2" fill="none" style="opacity: 1;"></path><path  fill="black" stroke="black" d="M 0 0 0 0" transform="matrix(0.16314364969730377,0.9866023063659668,-0.9866023063659668,0.16314364969730377,1532.0699462890625,600)"></path><path  fill="#505050" stroke="#505050" d="M 20 0 L 0 10 L 20 20 z" id="v-25032" transform="matrix(-0.8166738152503967,-0.5770995020866394,0.5770995020866394,-0.8166738152503967,1660.948974609375,863.166748046875)" style="opacity: 1;"></path><path  d="M 1532 600 L 1560 771 C 1561.3333333333333 777.6666666666666 1564.6666666666665 783 1570 787 L 1667 855" id="v-25031" fill="none" style="cursor: default;"></path><g ><g id="v-25024"  label-idx="0" cursor="move" transform="matrix(1,0,0,1,1557.1317138671875,753.4829711914062)" style="cursor: default; opacity: 1;"><rect joint-selector="rect" id="v-25027" fill="#ffffff" rx="3" ry="3" pointer-events="none" width="64.7136001586914" height="35.42218017578125" transform="matrix(1,0,0,1,-32.400001525878906,-17.700000762939453)"></rect><text joint-selector="text" id="v-25026" font-size="24px" xml:space="preserve" y="0.8em" fill="#505050" text-anchor="middle" pointer-events="none" font-family="Open Sans" font-weight="normal" transform="matrix(1,0,0,1,0,-9.699999809265137)"><tspan  dy="0">Uses</tspan></text></g><g id="v-25025"  label-idx="1" cursor="move" transform="matrix(1,0,0,1,1547.1317138671875,779.8829956054688)" style="cursor: default; opacity: 1;"><rect joint-selector="rect" id="v-25029" fill="#ffffff" rx="3" ry="3"  width="0" height="0" transform="matrix(1,0,0,1,0,0)" display="none"></rect><text joint-selector="text" id="v-25028" fill="#000000" font-size="14" text-anchor="middle" pointer-events="none"></text></g></g><g  display="none"><g  transform="translate(1562, 781)" id="v-25021"><circle  idx="0" r="10"></circle><path  idx="0" d="M16,5.333c-7.732,0-14,4.701-14,10.5c0,1.982,0.741,3.833,2.016,5.414L2,25.667l5.613-1.441c2.339,1.317,5.237,2.107,8.387,2.107c7.732,0,14-4.701,14-10.5C30,10.034,23.732,5.333,16,5.333z" transform="translate(5, -33)"></path><path  idx="0" transform="scale(.8) translate(9.5, -37)" d="M24.778,21.419 19.276,15.917 24.777,10.415 21.949,7.585 16.447,13.087 10.945,7.585 8.117,10.415 13.618,15.917 8.116,21.419 10.946,24.248 16.447,18.746 21.948,24.248z"><title>Remove vertex.</title></path></g></g><g  id="v-25034" display="none"><g  id="v-25022"><path  end="source" d="M 26 0 L 0 13 L 26 26 z"></path></g><g  id="v-25023"><path  end="target" d="M 26 0 L 0 13 L 26 26 z"></path></g></g><g  id="v-25033" display="none"><g  id="v-25020" transform="translate(1538.4636303964373, 639.4743142068137) "><g  event="remove"><circle r="11"></circle><path transform="scale(.8) translate(-16, -16)" d="M24.778,21.419 19.276,15.917 24.777,10.415 21.949,7.585 16.447,13.087 10.945,7.585 8.117,10.415 13.618,15.917 8.116,21.419 10.946,24.248 16.447,18.746 21.948,24.248z"></path><title>Remove link.</title></g><g  event="link:options"><circle r="11" transform="translate(25)"></circle><path fill="white" transform="scale(.55) translate(29, -16)" d="M31.229,17.736c0.064-0.571,0.104-1.148,0.104-1.736s-0.04-1.166-0.104-1.737l-4.377-1.557c-0.218-0.716-0.504-1.401-0.851-2.05l1.993-4.192c-0.725-0.91-1.549-1.734-2.458-2.459l-4.193,1.994c-0.647-0.347-1.334-0.632-2.049-0.849l-1.558-4.378C17.165,0.708,16.588,0.667,16,0.667s-1.166,0.041-1.737,0.105L12.707,5.15c-0.716,0.217-1.401,0.502-2.05,0.849L6.464,4.005C5.554,4.73,4.73,5.554,4.005,6.464l1.994,4.192c-0.347,0.648-0.632,1.334-0.849,2.05l-4.378,1.557C0.708,14.834,0.667,15.412,0.667,16s0.041,1.165,0.105,1.736l4.378,1.558c0.217,0.715,0.502,1.401,0.849,2.049l-1.994,4.193c0.725,0.909,1.549,1.733,2.459,2.458l4.192-1.993c0.648,0.347,1.334,0.633,2.05,0.851l1.557,4.377c0.571,0.064,1.148,0.104,1.737,0.104c0.588,0,1.165-0.04,1.736-0.104l1.558-4.377c0.715-0.218,1.399-0.504,2.049-0.851l4.193,1.993c0.909-0.725,1.733-1.549,2.458-2.458l-1.993-4.193c0.347-0.647,0.633-1.334,0.851-2.049L31.229,17.736zM16,20.871c-2.69,0-4.872-2.182-4.872-4.871c0-2.69,2.182-4.872,4.872-4.872c2.689,0,4.871,2.182,4.871,4.872C20.871,18.689,18.689,20.871,16,20.871z"></path><title>Link options.</title></g></g></g></g><!--z-index:44--><g   id="j_1681" ><path  stroke="#505050" d="M 2394 1262 L 2282 1157 C 2277.333333333333 1152.3333333333333 2272 1149 2266 1147 L 2104 1087" id="v-25048" stroke-width="2" fill="none" style="opacity: 1;"></path><path  fill="black" stroke="black" d="M 0 0 0 0" transform="matrix(-0.7284749746322632,-0.6850724220275879,0.6850724220275879,-0.7284749746322632,2394,1261.9100341796875)"></path><path  fill="#505050" stroke="#505050" d="M 20 0 L 0 10 L 20 20 z" id="v-25050" transform="matrix(0.939035952091217,0.34381893277168274,-0.34381893277168274,0.939035952091217,2107.438232421875,1077.999755859375)" style="opacity: 1;"></path><path  d="M 2394 1262 L 2282 1157 C 2277.333333333333 1152.3333333333333 2272 1149 2266 1147 L 2104 1087" id="v-25049" fill="none" style="cursor: default;"></path><g ><g id="v-25039"  label-idx="0" cursor="move" transform="matrix(1,0,0,1,2265.909423828125,1146.9664306640625)" style="cursor: default; opacity: 1;"><rect joint-selector="rect" id="v-25043" fill="#ffffff" rx="3" ry="3" pointer-events="none" width="145.59425354003906" height="35.42218017578125" transform="matrix(1,0,0,1,-72.80000305175781,-17.700000762939453)"></rect><text joint-selector="text" id="v-25042" font-size="24px" xml:space="preserve" y="0.8em" fill="#505050" text-anchor="middle" pointer-events="none" font-family="Open Sans" font-weight="normal" transform="matrix(1,0,0,1,0,-9.699999809265137)"><tspan  dy="0">Sends email</tspan></text></g><g id="v-25040"  label-idx="1" cursor="move" transform="matrix(1,0,0,1,2265.909423828125,1173.366455078125)" style="cursor: default; opacity: 1;"><rect joint-selector="rect" id="v-25045" fill="#ffffff" rx="3" ry="3" pointer-events="none" width="236.1583251953125" height="25.5" transform="matrix(1,0,0,1,-118.0999984741211,-12.699999809265137)"></rect><text joint-selector="text" id="v-25044" font-size="17px" xml:space="preserve" y="0.8em" fill="#505050" text-anchor="middle" pointer-events="none" font-family="Open Sans" font-weight="normal" transform="matrix(1,0,0,1,0,-7.199999809265137)"><tspan  dy="0">[SMTP via user's email mask]</tspan></text></g><g id="v-25041"  label-idx="2" cursor="move" transform="matrix(1,0,0,1,2255.909423828125,1181.7664794921875)" style="cursor: default; opacity: 1;"><rect joint-selector="rect" id="v-25047" fill="#ffffff" rx="3" ry="3"  width="0" height="0" transform="matrix(1,0,0,1,0,0)" display="none"></rect><text joint-selector="text" id="v-25046" fill="#000000" font-size="14" text-anchor="middle" pointer-events="none"></text></g></g><g  display="none"><g  transform="translate(2275, 1150)" id="v-25036"><circle  idx="0" r="10"></circle><path  idx="0" d="M16,5.333c-7.732,0-14,4.701-14,10.5c0,1.982,0.741,3.833,2.016,5.414L2,25.667l5.613-1.441c2.339,1.317,5.237,2.107,8.387,2.107c7.732,0,14-4.701,14-10.5C30,10.034,23.732,5.333,16,5.333z" transform="translate(5, -33)"></path><path  idx="0" transform="scale(.8) translate(9.5, -37)" d="M24.778,21.419 19.276,15.917 24.777,10.415 21.949,7.585 16.447,13.087 10.945,7.585 8.117,10.415 13.618,15.917 8.116,21.419 10.946,24.248 16.447,18.746 21.948,24.248z"><title>Remove vertex.</title></path></g></g><g  id="v-25052" display="none"><g  id="v-25037"><path  end="source" d="M 26 0 L 0 13 L 26 26 z"></path></g><g  id="v-25038"><path  end="target" d="M 26 0 L 0 13 L 26 26 z"></path></g></g><g  id="v-25051" display="none"><g  id="v-25035" transform="translate(2364.8185118343968, 1234.6423548447467) "><g  event="remove"><circle r="11"></circle><path transform="scale(.8) translate(-16, -16)" d="M24.778,21.419 19.276,15.917 24.777,10.415 21.949,7.585 16.447,13.087 10.945,7.585 8.117,10.415 13.618,15.917 8.116,21.419 10.946,24.248 16.447,18.746 21.948,24.248z"></path><title>Remove link.</title></g><g  event="link:options"><circle r="11" transform="translate(25)"></circle><path fill="white" transform="scale(.55) translate(29, -16)" d="M31.229,17.736c0.064-0.571,0.104-1.148,0.104-1.736s-0.04-1.166-0.104-1.737l-4.377-1.557c-0.218-0.716-0.504-1.401-0.851-2.05l1.993-4.192c-0.725-0.91-1.549-1.734-2.458-2.459l-4.193,1.994c-0.647-0.347-1.334-0.632-2.049-0.849l-1.558-4.378C17.165,0.708,16.588,0.667,16,0.667s-1.166,0.041-1.737,0.105L12.707,5.15c-0.716,0.217-1.401,0.502-2.05,0.849L6.464,4.005C5.554,4.73,4.73,5.554,4.005,6.464l1.994,4.192c-0.347,0.648-0.632,1.334-0.849,2.05l-4.378,1.557C0.708,14.834,0.667,15.412,0.667,16s0.041,1.165,0.105,1.736l4.378,1.558c0.217,0.715,0.502,1.401,0.849,2.049l-1.994,4.193c0.725,0.909,1.549,1.733,2.459,2.458l4.192-1.993c0.648,0.347,1.334,0.633,2.05,0.851l1.557,4.377c0.571,0.064,1.148,0.104,1.737,0.104c0.588,0,1.165-0.04,1.736-0.104l1.558-4.377c0.715-0.218,1.399-0.504,2.049-0.851l4.193,1.993c0.909-0.725,1.733-1.549,2.458-2.458l-1.993-4.193c0.347-0.647,0.633-1.334,0.851-2.049L31.229,17.736zM16,20.871c-2.69,0-4.872-2.182-4.872-4.871c0-2.69,2.182-4.872,4.872-4.872c2.689,0,4.871,2.182,4.871,4.872C20.871,18.689,18.689,20.871,16,20.871z"></path><title>Link options.</title></g></g></g></g><!--z-index:45--><g   id="j_1682" ><path  stroke="#505050" d="M 2394 789 L 2270 757 C 2263.333333333333 755.6666666666666 2257.333333333333 756.6666666666666 2252 760 L 2104 857" id="v-25069" stroke-width="2" fill="none" style="opacity: 1;"></path><path  fill="black" stroke="black" d="M 0 0 0 0" transform="matrix(-0.9691128730773926,-0.2466176301240921,0.2466176301240921,-0.9691128730773926,2394,789.0999755859375)"></path><path  fill="#505050" stroke="#505050" d="M 20 0 L 0 10 L 20 20 z" id="v-25071" transform="matrix(0.8360849022865295,-0.5486000776290894,0.5486000776290894,0.8360849022865295,2098.513916015625,848.9991455078125)" style="opacity: 1;"></path><path  d="M 2394 789 L 2270 757 C 2263.333333333333 755.6666666666666 2257.333333333333 756.6666666666666 2252 760 L 2104 857" id="v-25070" fill="none" style="cursor: default;"></path><g ><g id="v-25060"  label-idx="0" cursor="move" transform="matrix(1,0,0,1,2239.3798828125,768.271240234375)" style="cursor: default; opacity: 1;"><rect joint-selector="rect" id="v-25064" fill="#ffffff" rx="3" ry="3" pointer-events="none" width="145.27635192871094" height="64.22218322753906" transform="matrix(1,0,0,1,-72.5999984741211,-32.099998474121094)"></rect><text joint-selector="text" id="v-25063" font-size="24px" xml:space="preserve" y="0.8em" fill="#505050" text-anchor="middle" pointer-events="none" font-family="Open Sans" font-weight="normal" transform="matrix(1,0,0,1,0,-24.100000381469727)"><tspan  dy="0">Sends texts,</tspan><tspan dy="1.2em" x="0" >starts calls</tspan></text></g><g id="v-25061"  label-idx="1" cursor="move" transform="matrix(1,0,0,1,2239.3798828125,809.0712280273438)" style="cursor: default; opacity: 1;"><rect joint-selector="rect" id="v-25066" fill="#ffffff" rx="3" ry="3" pointer-events="none" width="241.36459350585938" height="25.5" transform="matrix(1,0,0,1,-120.69999694824219,-12.699999809265137)"></rect><text joint-selector="text" id="v-25065" font-size="17px" xml:space="preserve" y="0.8em" fill="#505050" text-anchor="middle" pointer-events="none" font-family="Open Sans" font-weight="normal" transform="matrix(1,0,0,1,0,-7.199999809265137)"><tspan  dy="0">[PSTN via user's phone mask]</tspan></text></g><g id="v-25062"  label-idx="2" cursor="move" transform="matrix(1,0,0,1,2229.3798828125,817.4712524414062)" style="cursor: default; opacity: 1;"><rect joint-selector="rect" id="v-25068" fill="#ffffff" rx="3" ry="3"  width="0" height="0" transform="matrix(1,0,0,1,0,0)" display="none"></rect><text joint-selector="text" id="v-25067" fill="#000000" font-size="14" text-anchor="middle" pointer-events="none"></text></g></g><g  display="none"><g  transform="translate(2260, 755)" id="v-25057"><circle  idx="0" r="10"></circle><path  idx="0" d="M16,5.333c-7.732,0-14,4.701-14,10.5c0,1.982,0.741,3.833,2.016,5.414L2,25.667l5.613-1.441c2.339,1.317,5.237,2.107,8.387,2.107c7.732,0,14-4.701,14-10.5C30,10.034,23.732,5.333,16,5.333z" transform="translate(5, -33)"></path><path  idx="0" transform="scale(.8) translate(9.5, -37)" d="M24.778,21.419 19.276,15.917 24.777,10.415 21.949,7.585 16.447,13.087 10.945,7.585 8.117,10.415 13.618,15.917 8.116,21.419 10.946,24.248 16.447,18.746 21.948,24.248z"><title>Remove vertex.</title></path></g></g><g  id="v-25073" display="none"><g  id="v-25058"><path  end="source" d="M 26 0 L 0 13 L 26 26 z"></path></g><g  id="v-25059"><path  end="target" d="M 26 0 L 0 13 L 26 26 z"></path></g></g><g  id="v-25072" display="none"><g  id="v-25056" transform="translate(2355.268907051626, 779.0048792391292) "><g  event="remove"><circle r="11"></circle><path transform="scale(.8) translate(-16, -16)" d="M24.778,21.419 19.276,15.917 24.777,10.415 21.949,7.585 16.447,13.087 10.945,7.585 8.117,10.415 13.618,15.917 8.116,21.419 10.946,24.248 16.447,18.746 21.948,24.248z"></path><title>Remove link.</title></g><g  event="link:options"><circle r="11" transform="translate(25)"></circle><path fill="white" transform="scale(.55) translate(29, -16)" d="M31.229,17.736c0.064-0.571,0.104-1.148,0.104-1.736s-0.04-1.166-0.104-1.737l-4.377-1.557c-0.218-0.716-0.504-1.401-0.851-2.05l1.993-4.192c-0.725-0.91-1.549-1.734-2.458-2.459l-4.193,1.994c-0.647-0.347-1.334-0.632-2.049-0.849l-1.558-4.378C17.165,0.708,16.588,0.667,16,0.667s-1.166,0.041-1.737,0.105L12.707,5.15c-0.716,0.217-1.401,0.502-2.05,0.849L6.464,4.005C5.554,4.73,4.73,5.554,4.005,6.464l1.994,4.192c-0.347,0.648-0.632,1.334-0.849,2.05l-4.378,1.557C0.708,14.834,0.667,15.412,0.667,16s0.041,1.165,0.105,1.736l4.378,1.558c0.217,0.715,0.502,1.401,0.849,2.049l-1.994,4.193c0.725,0.909,1.549,1.733,2.459,2.458l4.192-1.993c0.648,0.347,1.334,0.633,2.05,0.851l1.557,4.377c0.571,0.064,1.148,0.104,1.737,0.104c0.588,0,1.165-0.04,1.736-0.104l1.558-4.377c0.715-0.218,1.399-0.504,2.049-0.851l4.193,1.993c0.909-0.725,1.733-1.549,2.458-2.458l-1.993-4.193c0.347-0.647,0.633-1.334,0.851-2.049L31.229,17.736zM16,20.871c-2.69,0-4.872-2.182-4.872-4.871c0-2.69,2.182-4.872,4.872-4.872c2.689,0,4.871,2.182,4.871,4.872C20.871,18.689,18.689,20.871,16,20.871z"></path><title>Link options.</title></g></g></g></g><!--z-index:46--><g   id="j_1683" ><path  stroke="#505050" d="M 1854 855 L 1817 632 C 1815.6666666666665 625.3333333333333 1812.3333333333333 620 1807 616 L 1699 541" id="v-25090" stroke-width="2" fill="none" style="opacity: 1;"></path><path  fill="black" stroke="black" d="M 0 0 0 0" transform="matrix(-0.16479702293872833,-0.9863275289535522,0.9863275289535522,-0.16479702293872833,1853.9300537109375,855)"></path><path  fill="#505050" stroke="#505050" d="M 20 0 L 0 10 L 20 20 z" id="v-25092" transform="matrix(0.8182697296142578,0.5748344659805298,-0.5748344659805298,0.8182697296142578,1704.7484130859375,532.3273315429688)" style="opacity: 1;"></path><path  d="M 1854 855 L 1817 632 C 1815.6666666666665 625.3333333333333 1812.3333333333333 620 1807 616 L 1699 541" id="v-25091" fill="none" style="cursor: default;"></path><g ><g id="v-25081"  label-idx="0" cursor="move" transform="matrix(1,0,0,1,1823.1580810546875,669.115234375)" style="cursor: default; opacity: 1;"><rect joint-selector="rect" id="v-25085" fill="#ffffff" rx="3" ry="3" pointer-events="none" width="182.60589599609375" height="35.42218017578125" transform="matrix(1,0,0,1,-91.30000305175781,-17.700000762939453)"></rect><text joint-selector="text" id="v-25084" font-size="24px" xml:space="preserve" y="0.8em" fill="#505050" text-anchor="middle" pointer-events="none" font-family="Open Sans" font-weight="normal" transform="matrix(1,0,0,1,0,-9.699999809265137)"><tspan  dy="0">Forwards email</tspan></text></g><g id="v-25082"  label-idx="1" cursor="move" transform="matrix(1,0,0,1,1823.1580810546875,695.5152587890625)" style="cursor: default; opacity: 1;"><rect joint-selector="rect" id="v-25087" fill="#ffffff" rx="3" ry="3" pointer-events="none" width="224.1875" height="25.5" transform="matrix(1,0,0,1,-112.0999984741211,-12.699999809265137)"></rect><text joint-selector="text" id="v-25086" font-size="17px" xml:space="preserve" y="0.8em" fill="#505050" text-anchor="middle" pointer-events="none" font-family="Open Sans" font-weight="normal" transform="matrix(1,0,0,1,0,-7.199999809265137)"><tspan  dy="0">[SMTP via user's real email]</tspan></text></g><g id="v-25083"  label-idx="2" cursor="move" transform="matrix(1,0,0,1,1813.1580810546875,703.915283203125)" style="cursor: default; opacity: 1;"><rect joint-selector="rect" id="v-25089" fill="#ffffff" rx="3" ry="3"  width="0" height="0" transform="matrix(1,0,0,1,0,0)" display="none"></rect><text joint-selector="text" id="v-25088" fill="#000000" font-size="14" text-anchor="middle" pointer-events="none"></text></g></g><g  display="none"><g  transform="translate(1815, 622)" id="v-25078"><circle  idx="0" r="10"></circle><path  idx="0" d="M16,5.333c-7.732,0-14,4.701-14,10.5c0,1.982,0.741,3.833,2.016,5.414L2,25.667l5.613-1.441c2.339,1.317,5.237,2.107,8.387,2.107c7.732,0,14-4.701,14-10.5C30,10.034,23.732,5.333,16,5.333z" transform="translate(5, -33)"></path><path  idx="0" transform="scale(.8) translate(9.5, -37)" d="M24.778,21.419 19.276,15.917 24.777,10.415 21.949,7.585 16.447,13.087 10.945,7.585 8.117,10.415 13.618,15.917 8.116,21.419 10.946,24.248 16.447,18.746 21.948,24.248z"><title>Remove vertex.</title></path></g></g><g  id="v-25094" display="none"><g  id="v-25079"><path  end="source" d="M 26 0 L 0 13 L 26 26 z"></path></g><g  id="v-25080"><path  end="target" d="M 26 0 L 0 13 L 26 26 z"></path></g></g><g  id="v-25093" display="none"><g  id="v-25077" transform="translate(1847.452737335259, 815.539470966561) "><g  event="remove"><circle r="11"></circle><path transform="scale(.8) translate(-16, -16)" d="M24.778,21.419 19.276,15.917 24.777,10.415 21.949,7.585 16.447,13.087 10.945,7.585 8.117,10.415 13.618,15.917 8.116,21.419 10.946,24.248 16.447,18.746 21.948,24.248z"></path><title>Remove link.</title></g><g  event="link:options"><circle r="11" transform="translate(25)"></circle><path fill="white" transform="scale(.55) translate(29, -16)" d="M31.229,17.736c0.064-0.571,0.104-1.148,0.104-1.736s-0.04-1.166-0.104-1.737l-4.377-1.557c-0.218-0.716-0.504-1.401-0.851-2.05l1.993-4.192c-0.725-0.91-1.549-1.734-2.458-2.459l-4.193,1.994c-0.647-0.347-1.334-0.632-2.049-0.849l-1.558-4.378C17.165,0.708,16.588,0.667,16,0.667s-1.166,0.041-1.737,0.105L12.707,5.15c-0.716,0.217-1.401,0.502-2.05,0.849L6.464,4.005C5.554,4.73,4.73,5.554,4.005,6.464l1.994,4.192c-0.347,0.648-0.632,1.334-0.849,2.05l-4.378,1.557C0.708,14.834,0.667,15.412,0.667,16s0.041,1.165,0.105,1.736l4.378,1.558c0.217,0.715,0.502,1.401,0.849,2.049l-1.994,4.193c0.725,0.909,1.549,1.733,2.459,2.458l4.192-1.993c0.648,0.347,1.334,0.633,2.05,0.851l1.557,4.377c0.571,0.064,1.148,0.104,1.737,0.104c0.588,0,1.165-0.04,1.736-0.104l1.558-4.377c0.715-0.218,1.399-0.504,2.049-0.851l4.193,1.993c0.909-0.725,1.733-1.549,2.458-2.458l-1.993-4.193c0.347-0.647,0.633-1.334,0.851-2.049L31.229,17.736zM16,20.871c-2.69,0-4.872-2.182-4.872-4.871c0-2.69,2.182-4.872,4.872-4.872c2.689,0,4.871,2.182,4.871,4.872C20.871,18.689,18.689,20.871,16,20.871z"></path><title>Link options.</title></g></g></g></g><!--z-index:47--><g   id="j_1684" ><path  stroke="#505050" d="M 2062 1155 L 2212 1279 C 2217.333333333333 1283 2223 1286.3333333333333 2229 1289 L 2394 1362" id="v-25111" stroke-width="2" fill="none" style="opacity: 1;"></path><path  fill="black" stroke="black" d="M 0 0 0 0" transform="matrix(0.772842526435852,0.6345978379249573,-0.6345978379249573,0.772842526435852,2061.679931640625,1155)"></path><path  fill="#505050" stroke="#505050" d="M 20 0 L 0 10 L 20 20 z" id="v-25113" transform="matrix(-0.9149269461631775,-0.4036194086074829,0.4036194086074829,-0.9149269461631775,2389.9638671875,1370.9091796875)" style="opacity: 1;"></path><path  d="M 2062 1155 L 2212 1279 C 2217.333333333333 1283 2223 1286.3333333333333 2229 1289 L 2394 1362" id="v-25112" fill="none" style="cursor: default;"></path><g ><g id="v-25102"  label-idx="0" cursor="move" transform="matrix(1,0,0,1,2214.269775390625,1280.64794921875)" style="cursor: default; opacity: 1;"><rect joint-selector="rect" id="v-25106" fill="#ffffff" rx="3" ry="3" pointer-events="none" width="159.44522094726562" height="35.42218017578125" transform="matrix(1,0,0,1,-79.69999694824219,-17.700000762939453)"></rect><text joint-selector="text" id="v-25105" font-size="24px" xml:space="preserve" y="0.8em" fill="#505050" text-anchor="middle" pointer-events="none" font-family="Open Sans" font-weight="normal" transform="matrix(1,0,0,1,0,-9.699999809265137)"><tspan  dy="0">Sends replies</tspan></text></g><g id="v-25103"  label-idx="1" cursor="move" transform="matrix(1,0,0,1,2214.269775390625,1307.0479736328125)" style="cursor: default; opacity: 1;"><rect joint-selector="rect" id="v-25108" fill="#ffffff" rx="3" ry="3" pointer-events="none" width="236.1583251953125" height="25.5" transform="matrix(1,0,0,1,-118.0999984741211,-12.699999809265137)"></rect><text joint-selector="text" id="v-25107" font-size="17px" xml:space="preserve" y="0.8em" fill="#505050" text-anchor="middle" pointer-events="none" font-family="Open Sans" font-weight="normal" transform="matrix(1,0,0,1,0,-7.199999809265137)"><tspan  dy="0">[SMTP via user's email mask]</tspan></text></g><g id="v-25104"  label-idx="2" cursor="move" transform="matrix(1,0,0,1,2204.269775390625,1315.447998046875)" style="cursor: default; opacity: 1;"><rect joint-selector="rect" id="v-25110" fill="#ffffff" rx="3" ry="3"  width="0" height="0" transform="matrix(1,0,0,1,0,0)" display="none"></rect><text joint-selector="text" id="v-25109" fill="#000000" font-size="14" text-anchor="middle" pointer-events="none"></text></g></g><g  display="none"><g  transform="translate(2220, 1285)" id="v-25099"><circle  idx="0" r="10"></circle><path  idx="0" d="M16,5.333c-7.732,0-14,4.701-14,10.5c0,1.982,0.741,3.833,2.016,5.414L2,25.667l5.613-1.441c2.339,1.317,5.237,2.107,8.387,2.107c7.732,0,14-4.701,14-10.5C30,10.034,23.732,5.333,16,5.333z" transform="translate(5, -33)"></path><path  idx="0" transform="scale(.8) translate(9.5, -37)" d="M24.778,21.419 19.276,15.917 24.777,10.415 21.949,7.585 16.447,13.087 10.945,7.585 8.117,10.415 13.618,15.917 8.116,21.419 10.946,24.248 16.447,18.746 21.948,24.248z"><title>Remove vertex.</title></path></g></g><g  id="v-25115" display="none"><g  id="v-25100"><path  end="source" d="M 26 0 L 0 13 L 26 26 z"></path></g><g  id="v-25101"><path  end="target" d="M 26 0 L 0 13 L 26 26 z"></path></g></g><g  id="v-25114" display="none"><g  id="v-25098" transform="translate(2092.8296927423653, 1180.485879333689) "><g  event="remove"><circle r="11"></circle><path transform="scale(.8) translate(-16, -16)" d="M24.778,21.419 19.276,15.917 24.777,10.415 21.949,7.585 16.447,13.087 10.945,7.585 8.117,10.415 13.618,15.917 8.116,21.419 10.946,24.248 16.447,18.746 21.948,24.248z"></path><title>Remove link.</title></g><g  event="link:options"><circle r="11" transform="translate(25)"></circle><path fill="white" transform="scale(.55) translate(29, -16)" d="M31.229,17.736c0.064-0.571,0.104-1.148,0.104-1.736s-0.04-1.166-0.104-1.737l-4.377-1.557c-0.218-0.716-0.504-1.401-0.851-2.05l1.993-4.192c-0.725-0.91-1.549-1.734-2.458-2.459l-4.193,1.994c-0.647-0.347-1.334-0.632-2.049-0.849l-1.558-4.378C17.165,0.708,16.588,0.667,16,0.667s-1.166,0.041-1.737,0.105L12.707,5.15c-0.716,0.217-1.401,0.502-2.05,0.849L6.464,4.005C5.554,4.73,4.73,5.554,4.005,6.464l1.994,4.192c-0.347,0.648-0.632,1.334-0.849,2.05l-4.378,1.557C0.708,14.834,0.667,15.412,0.667,16s0.041,1.165,0.105,1.736l4.378,1.558c0.217,0.715,0.502,1.401,0.849,2.049l-1.994,4.193c0.725,0.909,1.549,1.733,2.459,2.458l4.192-1.993c0.648,0.347,1.334,0.633,2.05,0.851l1.557,4.377c0.571,0.064,1.148,0.104,1.737,0.104c0.588,0,1.165-0.04,1.736-0.104l1.558-4.377c0.715-0.218,1.399-0.504,2.049-0.851l4.193,1.993c0.909-0.725,1.733-1.549,2.458-2.458l-1.993-4.193c0.347-0.647,0.633-1.334,0.851-2.049L31.229,17.736zM16,20.871c-2.69,0-4.872-2.182-4.872-4.871c0-2.69,2.182-4.872,4.872-4.872c2.689,0,4.871,2.182,4.871,4.872C20.871,18.689,18.689,20.871,16,20.871z"></path><title>Link options.</title></g></g></g></g><!--z-index:48--><g   id="j_1685" ><path  stroke="#505050" d="M 2104 996 L 2245 990 C 2251.6666666666665 990 2258 988.6666666666666 2264 986 L 2394 929" id="v-25132" stroke-width="2" fill="none" style="opacity: 1;"></path><path  fill="black" stroke="black" d="M 0 0 0 0" transform="matrix(0.9992062449455261,-0.039835672825574875,0.039835672825574875,0.9992062449455261,2104,996.02001953125)"></path><path  fill="#505050" stroke="#505050" d="M 20 0 L 0 10 L 20 20 z" id="v-25134" transform="matrix(-0.9144884943962097,0.40461185574531555,-0.40461185574531555,-0.9144884943962097,2398.046142578125,937.6448974609375)" style="opacity: 1;"></path><path  d="M 2104 996 L 2245 990 C 2251.6666666666665 990 2258 988.6666666666666 2264 986 L 2394 929" id="v-25133" fill="none" style="cursor: default;"></path><g ><g id="v-25123"  label-idx="0" cursor="move" transform="matrix(1,0,0,1,2255.12060546875,988.9203491210938)" style="cursor: default; opacity: 1;"><rect joint-selector="rect" id="v-25127" fill="#ffffff" rx="3" ry="3" pointer-events="none" width="201.27066040039062" height="35.42218017578125" transform="matrix(1,0,0,1,-100.5999984741211,-17.700000762939453)"></rect><text joint-selector="text" id="v-25126" font-size="24px" xml:space="preserve" y="0.8em" fill="#505050" text-anchor="middle" pointer-events="none" font-family="Open Sans" font-weight="normal" transform="matrix(1,0,0,1,0,-9.699999809265137)"><tspan  dy="0">Sends reply texts</tspan></text></g><g id="v-25124"  label-idx="1" cursor="move" transform="matrix(1,0,0,1,2255.12060546875,1015.3203735351562)" style="cursor: default; opacity: 1;"><rect joint-selector="rect" id="v-25129" fill="#ffffff" rx="3" ry="3" pointer-events="none" width="241.36459350585938" height="25.5" transform="matrix(1,0,0,1,-120.69999694824219,-12.699999809265137)"></rect><text joint-selector="text" id="v-25128" font-size="17px" xml:space="preserve" y="0.8em" fill="#505050" text-anchor="middle" pointer-events="none" font-family="Open Sans" font-weight="normal" transform="matrix(1,0,0,1,0,-7.199999809265137)"><tspan  dy="0">[PSTN via user's phone mask]</tspan></text></g><g id="v-25125"  label-idx="2" cursor="move" transform="matrix(1,0,0,1,2245.12060546875,1023.7203369140625)" style="cursor: default; opacity: 1;"><rect joint-selector="rect" id="v-25131" fill="#ffffff" rx="3" ry="3"  width="0" height="0" transform="matrix(1,0,0,1,0,0)" display="none"></rect><text joint-selector="text" id="v-25130" fill="#000000" font-size="14" text-anchor="middle" pointer-events="none"></text></g></g><g  display="none"><g  transform="translate(2255, 990)" id="v-25120"><circle  idx="0" r="10"></circle><path  idx="0" d="M16,5.333c-7.732,0-14,4.701-14,10.5c0,1.982,0.741,3.833,2.016,5.414L2,25.667l5.613-1.441c2.339,1.317,5.237,2.107,8.387,2.107c7.732,0,14-4.701,14-10.5C30,10.034,23.732,5.333,16,5.333z" transform="translate(5, -33)"></path><path  idx="0" transform="scale(.8) translate(9.5, -37)" d="M24.778,21.419 19.276,15.917 24.777,10.415 21.949,7.585 16.447,13.087 10.945,7.585 8.117,10.415 13.618,15.917 8.116,21.419 10.946,24.248 16.447,18.746 21.948,24.248z"><title>Remove vertex.</title></path></g></g><g  id="v-25136" display="none"><g  id="v-25121"><path  end="source" d="M 26 0 L 0 13 L 26 26 z"></path></g><g  id="v-25122"><path  end="target" d="M 26 0 L 0 13 L 26 26 z"></path></g></g><g  id="v-25135" display="none"><g  id="v-25119" transform="translate(2143.9638336273247, 994.2994113350074) "><g  event="remove"><circle r="11"></circle><path transform="scale(.8) translate(-16, -16)" d="M24.778,21.419 19.276,15.917 24.777,10.415 21.949,7.585 16.447,13.087 10.945,7.585 8.117,10.415 13.618,15.917 8.116,21.419 10.946,24.248 16.447,18.746 21.948,24.248z"></path><title>Remove link.</title></g><g  event="link:options"><circle r="11" transform="translate(25)"></circle><path fill="white" transform="scale(.55) translate(29, -16)" d="M31.229,17.736c0.064-0.571,0.104-1.148,0.104-1.736s-0.04-1.166-0.104-1.737l-4.377-1.557c-0.218-0.716-0.504-1.401-0.851-2.05l1.993-4.192c-0.725-0.91-1.549-1.734-2.458-2.459l-4.193,1.994c-0.647-0.347-1.334-0.632-2.049-0.849l-1.558-4.378C17.165,0.708,16.588,0.667,16,0.667s-1.166,0.041-1.737,0.105L12.707,5.15c-0.716,0.217-1.401,0.502-2.05,0.849L6.464,4.005C5.554,4.73,4.73,5.554,4.005,6.464l1.994,4.192c-0.347,0.648-0.632,1.334-0.849,2.05l-4.378,1.557C0.708,14.834,0.667,15.412,0.667,16s0.041,1.165,0.105,1.736l4.378,1.558c0.217,0.715,0.502,1.401,0.849,2.049l-1.994,4.193c0.725,0.909,1.549,1.733,2.459,2.458l4.192-1.993c0.648,0.347,1.334,0.633,2.05,0.851l1.557,4.377c0.571,0.064,1.148,0.104,1.737,0.104c0.588,0,1.165-0.04,1.736-0.104l1.558-4.377c0.715-0.218,1.399-0.504,2.049-0.851l4.193,1.993c0.909-0.725,1.733-1.549,2.458-2.458l-1.993-4.193c0.347-0.647,0.633-1.334,0.851-2.049L31.229,17.736zM16,20.871c-2.69,0-4.872-2.182-4.872-4.871c0-2.69,2.182-4.872,4.872-4.872c2.689,0,4.871,2.182,4.871,4.872C20.871,18.689,18.689,20.871,16,20.871z"></path><title>Link options.</title></g></g></g></g><!--z-index:49--><g   id="j_1686" ><path  stroke="#505050" d="M 1670 1155 L 1203 1489" id="v-25152" stroke-width="2" fill="none" style="opacity: 1;"></path><path  fill="black" stroke="black" d="M 0 0 0 0" transform="matrix(-0.8129315376281738,0.582359254360199,-0.582359254360199,-0.8129315376281738,1669.6199951171875,1155)"></path><path  fill="#505050" stroke="#505050" d="M 20 0 L 0 10 L 20 20 z" id="v-25154" transform="matrix(0.8129316568374634,-0.5823590755462646,0.5823590755462646,0.8129316568374634,1197.556396484375,1480.87060546875)" style="opacity: 1;"></path><path  d="M 1670 1155 L 1203 1489" id="v-25153" fill="none" style="cursor: default;"></path><g ><g id="v-25143"  label-idx="0" cursor="move" transform="matrix(1,0,0,1,1436.5,1322)" style="cursor: default; opacity: 1;"><rect joint-selector="rect" id="v-25147" fill="#ffffff" rx="3" ry="3" pointer-events="none" width="149.49977111816406" height="64.22218322753906" transform="matrix(1,0,0,1,-74.69999694824219,-32.099998474121094)"></rect><text joint-selector="text" id="v-25146" font-size="24px" xml:space="preserve" y="0.8em" fill="#505050" text-anchor="middle" pointer-events="none" font-family="Open Sans" font-weight="normal" transform="matrix(1,0,0,1,0,-24.100000381469727)"><tspan  dy="0">Sends Glean</tspan><tspan dy="1.2em" x="0" >events</tspan></text></g><g id="v-25144"  label-idx="1" cursor="move" transform="matrix(1,0,0,1,1436.5,1362.800048828125)" style="cursor: default; opacity: 1;"><rect joint-selector="rect" id="v-25149" fill="#ffffff" rx="3" ry="3" pointer-events="none" width="172.72708129882812" height="25.5" transform="matrix(1,0,0,1,-86.4000015258789,-12.699999809265137)"></rect><text joint-selector="text" id="v-25148" font-size="17px" xml:space="preserve" y="0.8em" fill="#505050" text-anchor="middle" pointer-events="none" font-family="Open Sans" font-weight="normal" transform="matrix(1,0,0,1,0,-7.199999809265137)"><tspan  dy="0">[JSON over GCP SNS]</tspan></text></g><g id="v-25145"  label-idx="2" cursor="move" transform="matrix(1,0,0,1,1426.5,1371.199951171875)" style="cursor: default; opacity: 1;"><rect joint-selector="rect" id="v-25151" fill="#ffffff" rx="3" ry="3"  width="0" height="0" transform="matrix(1,0,0,1,0,0)" display="none"></rect><text joint-selector="text" id="v-25150" fill="#000000" font-size="14" text-anchor="middle" pointer-events="none"></text></g></g><g  display="none"></g><g  id="v-25156" display="none"><g  id="v-25141"><path  end="source" d="M 26 0 L 0 13 L 26 26 z"></path></g><g  id="v-25142"><path  end="target" d="M 26 0 L 0 13 L 26 26 z"></path></g></g><g  id="v-25155" display="none"><g  id="v-25140" transform="translate(1637.4647891587324, 1178.2692942633475) "><g  event="remove"><circle r="11"></circle><path transform="scale(.8) translate(-16, -16)" d="M24.778,21.419 19.276,15.917 24.777,10.415 21.949,7.585 16.447,13.087 10.945,7.585 8.117,10.415 13.618,15.917 8.116,21.419 10.946,24.248 16.447,18.746 21.948,24.248z"></path><title>Remove link.</title></g><g  event="link:options"><circle r="11" transform="translate(25)"></circle><path fill="white" transform="scale(.55) translate(29, -16)" d="M31.229,17.736c0.064-0.571,0.104-1.148,0.104-1.736s-0.04-1.166-0.104-1.737l-4.377-1.557c-0.218-0.716-0.504-1.401-0.851-2.05l1.993-4.192c-0.725-0.91-1.549-1.734-2.458-2.459l-4.193,1.994c-0.647-0.347-1.334-0.632-2.049-0.849l-1.558-4.378C17.165,0.708,16.588,0.667,16,0.667s-1.166,0.041-1.737,0.105L12.707,5.15c-0.716,0.217-1.401,0.502-2.05,0.849L6.464,4.005C5.554,4.73,4.73,5.554,4.005,6.464l1.994,4.192c-0.347,0.648-0.632,1.334-0.849,2.05l-4.378,1.557C0.708,14.834,0.667,15.412,0.667,16s0.041,1.165,0.105,1.736l4.378,1.558c0.217,0.715,0.502,1.401,0.849,2.049l-1.994,4.193c0.725,0.909,1.549,1.733,2.459,2.458l4.192-1.993c0.648,0.347,1.334,0.633,2.05,0.851l1.557,4.377c0.571,0.064,1.148,0.104,1.737,0.104c0.588,0,1.165-0.04,1.736-0.104l1.558-4.377c0.715-0.218,1.399-0.504,2.049-0.851l4.193,1.993c0.909-0.725,1.733-1.549,2.458-2.458l-1.993-4.193c0.347-0.647,0.633-1.334,0.851-2.049L31.229,17.736zM16,20.871c-2.69,0-4.872-2.182-4.872-4.871c0-2.69,2.182-4.872,4.872-4.872c2.689,0,4.871,2.182,4.871,4.872C20.871,18.689,18.689,20.871,16,20.871z"></path><title>Link options.</title></g></g></g></g><!--z-index:50--><g   id="j_1687" ><path  stroke="#505050" d="M 1918 1155 L 2005 1489" id="v-25172" stroke-width="2" fill="none" style="opacity: 1;"></path><path  fill="black" stroke="black" d="M 0 0 0 0" transform="matrix(0.2518509030342102,0.9677660465240479,-0.9677660465240479,0.2518509030342102,1918.0400390625,1155)"></path><path  fill="#505050" stroke="#505050" d="M 20 0 L 0 10 L 20 20 z" id="v-25174" transform="matrix(-0.2518509030342102,-0.9677660465240479,0.9677660465240479,-0.2518509030342102,1995.2823486328125,1491.5185546875)" style="opacity: 1;"></path><path  d="M 1918 1155 L 2005 1489" id="v-25173" fill="none" style="cursor: default;"></path><g ><g id="v-25163"  label-idx="0" cursor="move" transform="matrix(1,0,0,1,1961.5,1322)" style="cursor: default; opacity: 1;"><rect joint-selector="rect" id="v-25167" fill="#ffffff" rx="3" ry="3" pointer-events="none" width="152.76950073242188" height="35.42218017578125" transform="matrix(1,0,0,1,-76.4000015258789,-17.700000762939453)"></rect><text joint-selector="text" id="v-25166" font-size="24px" xml:space="preserve" y="0.8em" fill="#505050" text-anchor="middle" pointer-events="none" font-family="Open Sans" font-weight="normal" transform="matrix(1,0,0,1,0,-9.699999809265137)"><tspan  dy="0">Pulls metrics</tspan></text></g><g id="v-25164"  label-idx="1" cursor="move" transform="matrix(1,0,0,1,1961.5,1348.4000244140625)" style="cursor: default; opacity: 1;"><rect joint-selector="rect" id="v-25169" fill="#ffffff" rx="3" ry="3" pointer-events="none" width="116.875" height="25.5" transform="matrix(1,0,0,1,-58.400001525878906,-12.699999809265137)"></rect><text joint-selector="text" id="v-25168" font-size="17px" xml:space="preserve" y="0.8em" fill="#505050" text-anchor="middle" pointer-events="none" font-family="Open Sans" font-weight="normal" transform="matrix(1,0,0,1,0,-7.199999809265137)"><tspan  dy="0">[Prometheus]</tspan></text></g><g id="v-25165"  label-idx="2" cursor="move" transform="matrix(1,0,0,1,1951.5,1356.800048828125)" style="cursor: default; opacity: 1;"><rect joint-selector="rect" id="v-25171" fill="#ffffff" rx="3" ry="3"  width="0" height="0" transform="matrix(1,0,0,1,0,0)" display="none"></rect><text joint-selector="text" id="v-25170" fill="#000000" font-size="14" text-anchor="middle" pointer-events="none"></text></g></g><g  display="none"></g><g  id="v-25176" display="none"><g  id="v-25161"><path  end="source" d="M 26 0 L 0 13 L 26 26 z"></path></g><g  id="v-25162"><path  end="target" d="M 26 0 L 0 13 L 26 26 z"></path></g></g><g  id="v-25175" display="none"><g  id="v-25160" transform="translate(1928.0827218630632, 1193.7083804857825) "><g  event="remove"><circle r="11"></circle><path transform="scale(.8) translate(-16, -16)" d="M24.778,21.419 19.276,15.917 24.777,10.415 21.949,7.585 16.447,13.087 10.945,7.585 8.117,10.415 13.618,15.917 8.116,21.419 10.946,24.248 16.447,18.746 21.948,24.248z"></path><title>Remove link.</title></g><g  event="link:options"><circle r="11" transform="translate(25)"></circle><path fill="white" transform="scale(.55) translate(29, -16)" d="M31.229,17.736c0.064-0.571,0.104-1.148,0.104-1.736s-0.04-1.166-0.104-1.737l-4.377-1.557c-0.218-0.716-0.504-1.401-0.851-2.05l1.993-4.192c-0.725-0.91-1.549-1.734-2.458-2.459l-4.193,1.994c-0.647-0.347-1.334-0.632-2.049-0.849l-1.558-4.378C17.165,0.708,16.588,0.667,16,0.667s-1.166,0.041-1.737,0.105L12.707,5.15c-0.716,0.217-1.401,0.502-2.05,0.849L6.464,4.005C5.554,4.73,4.73,5.554,4.005,6.464l1.994,4.192c-0.347,0.648-0.632,1.334-0.849,2.05l-4.378,1.557C0.708,14.834,0.667,15.412,0.667,16s0.041,1.165,0.105,1.736l4.378,1.558c0.217,0.715,0.502,1.401,0.849,2.049l-1.994,4.193c0.725,0.909,1.549,1.733,2.459,2.458l4.192-1.993c0.648,0.347,1.334,0.633,2.05,0.851l1.557,4.377c0.571,0.064,1.148,0.104,1.737,0.104c0.588,0,1.165-0.04,1.736-0.104l1.558-4.377c0.715-0.218,1.399-0.504,2.049-0.851l4.193,1.993c0.909-0.725,1.733-1.549,2.458-2.458l-1.993-4.193c0.347-0.647,0.633-1.334,0.851-2.049L31.229,17.736zM16,20.871c-2.69,0-4.872-2.182-4.872-4.871c0-2.69,2.182-4.872,4.872-4.872c2.689,0,4.871,2.182,4.871,4.872C20.871,18.689,18.689,20.871,16,20.871z"></path><title>Link options.</title></g></g></g></g><!--z-index:51--><g   id="j_1688" ><path  stroke="#505050" d="M 905 1059 L 649 1136" id="v-25189" stroke-width="2" fill="none" style="opacity: 1;"></path><path  fill="black" stroke="black" d="M 0 0 0 0" transform="matrix(-0.9566249847412109,0.291322261095047,-0.291322261095047,-0.9566249847412109,905,1058.52001953125)"></path><path  fill="#505050" stroke="#505050" d="M 20 0 L 0 10 L 20 20 z" id="v-25191" transform="matrix(0.9566249847412109,-0.291322261095047,0.291322261095047,0.9566249847412109,646.0867309570312,1126.9136962890625)" style="opacity: 1;"></path><path  d="M 905 1059 L 649 1136" id="v-25190" fill="none" style="cursor: default;"></path><g ><g id="v-25180"  label-idx="0" cursor="move" transform="matrix(1,0,0,1,777,1097.5)" style="cursor: default; opacity: 1;"><rect joint-selector="rect" id="v-25184" fill="#ffffff" rx="3" ry="3" pointer-events="none" width="64.7136001586914" height="35.42218017578125" transform="matrix(1,0,0,1,-32.400001525878906,-17.700000762939453)"></rect><text joint-selector="text" id="v-25183" font-size="24px" xml:space="preserve" y="0.8em" fill="#505050" text-anchor="middle" pointer-events="none" font-family="Open Sans" font-weight="normal" transform="matrix(1,0,0,1,0,-9.699999809265137)"><tspan  dy="0">Uses</tspan></text></g><g id="v-25181"  label-idx="1" cursor="move" transform="matrix(1,0,0,1,777,1123.9000244140625)" style="cursor: default; opacity: 1;"><rect joint-selector="rect" id="v-25186" fill="#ffffff" rx="3" ry="3" pointer-events="none" width="155.97500610351562" height="25.5" transform="matrix(1,0,0,1,-78,-12.699999809265137)"></rect><text joint-selector="text" id="v-25185" font-size="17px" xml:space="preserve" y="0.8em" fill="#505050" text-anchor="middle" pointer-events="none" font-family="Open Sans" font-weight="normal" transform="matrix(1,0,0,1,0,-7.199999809265137)"><tspan  dy="0">[HTTPS, Stripe API]</tspan></text></g><g id="v-25182"  label-idx="2" cursor="move" transform="matrix(1,0,0,1,767,1132.300048828125)" style="cursor: default; opacity: 1;"><rect joint-selector="rect" id="v-25188" fill="#ffffff" rx="3" ry="3"  width="0" height="0" transform="matrix(1,0,0,1,0,0)" display="none"></rect><text joint-selector="text" id="v-25187" fill="#000000" font-size="14" text-anchor="middle" pointer-events="none"></text></g></g><g  display="none"></g><g  id="v-25193" display="none"><g  id="v-25178"><path  end="source" d="M 26 0 L 0 13 L 26 26 z"></path></g><g  id="v-25179"><path  end="target" d="M 26 0 L 0 13 L 26 26 z"></path></g></g><g  id="v-25192" display="none"><g  id="v-25177" transform="translate(866.6951948396832, 1070.5213671771264) "><g  event="remove"><circle r="11"></circle><path transform="scale(.8) translate(-16, -16)" d="M24.778,21.419 19.276,15.917 24.777,10.415 21.949,7.585 16.447,13.087 10.945,7.585 8.117,10.415 13.618,15.917 8.116,21.419 10.946,24.248 16.447,18.746 21.948,24.248z"></path><title>Remove link.</title></g><g  event="link:options"><circle r="11" transform="translate(25)"></circle><path fill="white" transform="scale(.55) translate(29, -16)" d="M31.229,17.736c0.064-0.571,0.104-1.148,0.104-1.736s-0.04-1.166-0.104-1.737l-4.377-1.557c-0.218-0.716-0.504-1.401-0.851-2.05l1.993-4.192c-0.725-0.91-1.549-1.734-2.458-2.459l-4.193,1.994c-0.647-0.347-1.334-0.632-2.049-0.849l-1.558-4.378C17.165,0.708,16.588,0.667,16,0.667s-1.166,0.041-1.737,0.105L12.707,5.15c-0.716,0.217-1.401,0.502-2.05,0.849L6.464,4.005C5.554,4.73,4.73,5.554,4.005,6.464l1.994,4.192c-0.347,0.648-0.632,1.334-0.849,2.05l-4.378,1.557C0.708,14.834,0.667,15.412,0.667,16s0.041,1.165,0.105,1.736l4.378,1.558c0.217,0.715,0.502,1.401,0.849,2.049l-1.994,4.193c0.725,0.909,1.549,1.733,2.459,2.458l4.192-1.993c0.648,0.347,1.334,0.633,2.05,0.851l1.557,4.377c0.571,0.064,1.148,0.104,1.737,0.104c0.588,0,1.165-0.04,1.736-0.104l1.558-4.377c0.715-0.218,1.399-0.504,2.049-0.851l4.193,1.993c0.909-0.725,1.733-1.549,2.458-2.458l-1.993-4.193c0.347-0.647,0.633-1.334,0.851-2.049L31.229,17.736zM16,20.871c-2.69,0-4.872-2.182-4.872-4.871c0-2.69,2.182-4.872,4.872-4.872c2.689,0,4.871,2.182,4.871,4.872C20.871,18.689,18.689,20.871,16,20.871z"></path><title>Link options.</title></g></g></g></g><!--z-index:52--><g   id="j_1689" ><path  stroke="#505050" d="M 1794 1155 L 1605 1490" id="v-25203" stroke-width="2" fill="none" style="opacity: 1;"></path><path  fill="black" stroke="black" d="M 0 0 0 0" transform="matrix(-0.49215999245643616,0.8705047369003296,-0.8705047369003296,-0.49215999245643616,1794.199951171875,1155)"></path><path  fill="#505050" stroke="#505050" d="M 20 0 L 0 10 L 20 20 z" id="v-25205" transform="matrix(0.49216023087501526,-0.87050461769104,0.87050461769104,0.49216023087501526,1596.0948486328125,1485.078369140625)" style="opacity: 1;"></path><path  d="M 1794 1155 L 1605 1490" id="v-25204" fill="none" style="cursor: default;"></path><g ><g id="v-25197"  label-idx="0" cursor="move" transform="matrix(1,0,0,1,1699.5,1322.5)" style="cursor: default; opacity: 1;"><rect joint-selector="rect" id="v-25200" fill="#ffffff" rx="3" ry="3" pointer-events="none" width="0" height="0" transform="matrix(1,0,0,1,0,0)"></rect><text joint-selector="text" id="v-25199" font-size="24px" xml:space="preserve" display="none" y="0.8em" fill="#505050" text-anchor="middle" pointer-events="none" font-family="Open Sans" font-weight="normal"><tspan style="fill-opacity: 0; stroke-opacity: 0;"  dy="0">-</tspan></text></g><g id="v-25198"  label-idx="1" cursor="move" transform="matrix(1,0,0,1,1689.5,1334.5)" style="cursor: default; opacity: 1;"><rect joint-selector="rect" id="v-25202" fill="#ffffff" rx="3" ry="3"  width="0" height="0" transform="matrix(1,0,0,1,0,0)" display="none"></rect><text joint-selector="text" id="v-25201" fill="#000000" font-size="14" text-anchor="middle" pointer-events="none"></text></g></g><g  display="none"></g><g  id="v-25207" display="none"><g  id="v-25195"><path  end="source" d="M 26 0 L 0 13 L 26 26 z"></path></g><g  id="v-25196"><path  end="target" d="M 26 0 L 0 13 L 26 26 z"></path></g></g><g  id="v-25206" display="none"><g  id="v-25194" transform="translate(1774.3451297294757, 1189.8379975694481) "><g  event="remove"><circle r="11"></circle><path transform="scale(.8) translate(-16, -16)" d="M24.778,21.419 19.276,15.917 24.777,10.415 21.949,7.585 16.447,13.087 10.945,7.585 8.117,10.415 13.618,15.917 8.116,21.419 10.946,24.248 16.447,18.746 21.948,24.248z"></path><title>Remove link.</title></g><g  event="link:options"><circle r="11" transform="translate(25)"></circle><path fill="white" transform="scale(.55) translate(29, -16)" d="M31.229,17.736c0.064-0.571,0.104-1.148,0.104-1.736s-0.04-1.166-0.104-1.737l-4.377-1.557c-0.218-0.716-0.504-1.401-0.851-2.05l1.993-4.192c-0.725-0.91-1.549-1.734-2.458-2.459l-4.193,1.994c-0.647-0.347-1.334-0.632-2.049-0.849l-1.558-4.378C17.165,0.708,16.588,0.667,16,0.667s-1.166,0.041-1.737,0.105L12.707,5.15c-0.716,0.217-1.401,0.502-2.05,0.849L6.464,4.005C5.554,4.73,4.73,5.554,4.005,6.464l1.994,4.192c-0.347,0.648-0.632,1.334-0.849,2.05l-4.378,1.557C0.708,14.834,0.667,15.412,0.667,16s0.041,1.165,0.105,1.736l4.378,1.558c0.217,0.715,0.502,1.401,0.849,2.049l-1.994,4.193c0.725,0.909,1.549,1.733,2.459,2.458l4.192-1.993c0.648,0.347,1.334,0.633,2.05,0.851l1.557,4.377c0.571,0.064,1.148,0.104,1.737,0.104c0.588,0,1.165-0.04,1.736-0.104l1.558-4.377c0.715-0.218,1.399-0.504,2.049-0.851l4.193,1.993c0.909-0.725,1.733-1.549,2.458-2.458l-1.993-4.193c0.347-0.647,0.633-1.334,0.851-2.049L31.229,17.736zM16,20.871c-2.69,0-4.872-2.182-4.872-4.871c0-2.69,2.182-4.872,4.872-4.872c2.689,0,4.871,2.182,4.871,4.872C20.871,18.689,18.689,20.871,16,20.871z"></path><title>Link options.</title></g></g></g></g><!--z-index:53--><g   id="j_1690" ><path  stroke="#505050" d="M 1654 1000 L 1355 995" id="v-25223" stroke-width="2" fill="none" style="opacity: 1;"></path><path  fill="black" stroke="black" d="M 0 0 0 0" transform="matrix(-0.9998000860214233,-0.019996076822280884,0.019996076822280884,-0.9998000860214233,1654,1000.489990234375)"></path><path  fill="#505050" stroke="#505050" d="M 20 0 L 0 10 L 20 20 z" id="v-25225" transform="matrix(0.9998000860214233,0.019996000453829765,-0.019996000453829765,0.9998000860214233,1355.199951171875,984.5120239257812)" style="opacity: 1;"></path><path  d="M 1654 1000 L 1355 995" id="v-25224" fill="none" style="cursor: default;"></path><g ><g id="v-25214"  label-idx="0" cursor="move" transform="matrix(1,0,0,1,1504.5,997.5)" style="cursor: default; opacity: 1;"><rect joint-selector="rect" id="v-25218" fill="#ffffff" rx="3" ry="3" pointer-events="none" width="204.94911193847656" height="64.22218322753906" transform="matrix(1,0,0,1,-102.5,-32.099998474121094)"></rect><text joint-selector="text" id="v-25217" font-size="24px" xml:space="preserve" y="0.8em" fill="#505050" text-anchor="middle" pointer-events="none" font-family="Open Sans" font-weight="normal" transform="matrix(1,0,0,1,0,-24.100000381469727)"><tspan  dy="0">Reads</tspan><tspan dy="1.2em" x="0" >subscription data</tspan></text></g><g id="v-25215"  label-idx="1" cursor="move" transform="matrix(1,0,0,1,1504.5,1038.300048828125)" style="cursor: default; opacity: 1;"><rect joint-selector="rect" id="v-25220" fill="#ffffff" rx="3" ry="3" pointer-events="none" width="148.82083129882812" height="25.5" transform="matrix(1,0,0,1,-74.4000015258789,-12.699999809265137)"></rect><text joint-selector="text" id="v-25219" font-size="17px" xml:space="preserve" y="0.8em" fill="#505050" text-anchor="middle" pointer-events="none" font-family="Open Sans" font-weight="normal" transform="matrix(1,0,0,1,0,-7.199999809265137)"><tspan  dy="0">[Subscription API]</tspan></text></g><g id="v-25216"  label-idx="2" cursor="move" transform="matrix(1,0,0,1,1494.5,1046.699951171875)" style="cursor: default; opacity: 1;"><rect joint-selector="rect" id="v-25222" fill="#ffffff" rx="3" ry="3"  width="0" height="0" transform="matrix(1,0,0,1,0,0)" display="none"></rect><text joint-selector="text" id="v-25221" fill="#000000" font-size="14" text-anchor="middle" pointer-events="none"></text></g></g><g  display="none"></g><g  id="v-25227" display="none"><g  id="v-25212"><path  end="source" d="M 26 0 L 0 13 L 26 26 z"></path></g><g  id="v-25213"><path  end="target" d="M 26 0 L 0 13 L 26 26 z"></path></g></g><g  id="v-25226" display="none"><g  id="v-25211" transform="translate(1614.0055916059086, 999.3311971840453) "><g  event="remove"><circle r="11"></circle><path transform="scale(.8) translate(-16, -16)" d="M24.778,21.419 19.276,15.917 24.777,10.415 21.949,7.585 16.447,13.087 10.945,7.585 8.117,10.415 13.618,15.917 8.116,21.419 10.946,24.248 16.447,18.746 21.948,24.248z"></path><title>Remove link.</title></g><g  event="link:options"><circle r="11" transform="translate(25)"></circle><path fill="white" transform="scale(.55) translate(29, -16)" d="M31.229,17.736c0.064-0.571,0.104-1.148,0.104-1.736s-0.04-1.166-0.104-1.737l-4.377-1.557c-0.218-0.716-0.504-1.401-0.851-2.05l1.993-4.192c-0.725-0.91-1.549-1.734-2.458-2.459l-4.193,1.994c-0.647-0.347-1.334-0.632-2.049-0.849l-1.558-4.378C17.165,0.708,16.588,0.667,16,0.667s-1.166,0.041-1.737,0.105L12.707,5.15c-0.716,0.217-1.401,0.502-2.05,0.849L6.464,4.005C5.554,4.73,4.73,5.554,4.005,6.464l1.994,4.192c-0.347,0.648-0.632,1.334-0.849,2.05l-4.378,1.557C0.708,14.834,0.667,15.412,0.667,16s0.041,1.165,0.105,1.736l4.378,1.558c0.217,0.715,0.502,1.401,0.849,2.049l-1.994,4.193c0.725,0.909,1.549,1.733,2.459,2.458l4.192-1.993c0.648,0.347,1.334,0.633,2.05,0.851l1.557,4.377c0.571,0.064,1.148,0.104,1.737,0.104c0.588,0,1.165-0.04,1.736-0.104l1.558-4.377c0.715-0.218,1.399-0.504,2.049-0.851l4.193,1.993c0.909-0.725,1.733-1.549,2.458-2.458l-1.993-4.193c0.347-0.647,0.633-1.334,0.851-2.049L31.229,17.736zM16,20.871c-2.69,0-4.872-2.182-4.872-4.871c0-2.69,2.182-4.872,4.872-4.872c2.689,0,4.871,2.182,4.871,4.872C20.871,18.689,18.689,20.871,16,20.871z"></path><title>Link options.</title></g></g></g></g><!--z-index:54--><g   id="j_1691" ><path  stroke="#505050" d="M 1654 1092 L 649 1482" id="v-25243" stroke-width="2" fill="none" style="opacity: 1;"></path><path  fill="black" stroke="black" d="M 0 0 0 0" transform="matrix(-0.9324031472206116,0.3614199161529541,-0.3614199161529541,-0.9324031472206116,1654,1092.219970703125)"></path><path  fill="#505050" stroke="#505050" d="M 20 0 L 0 10 L 20 20 z" id="v-25245" transform="matrix(0.9324032664299011,-0.361419677734375,0.361419677734375,0.9324032664299011,645.3858032226562,1472.4559326171875)" style="opacity: 1;"></path><path  d="M 1654 1092 L 649 1482" id="v-25244" fill="none" style="cursor: default;"></path><g ><g id="v-25234"  label-idx="0" cursor="move" transform="matrix(1,0,0,1,1151.5,1287)" style="cursor: default; opacity: 1;"><rect joint-selector="rect" id="v-25238" fill="#ffffff" rx="3" ry="3" pointer-events="none" width="167.30169677734375" height="93.02217864990234" transform="matrix(1,0,0,1,-83.69999694824219,-46.5)"></rect><text joint-selector="text" id="v-25237" font-size="24px" xml:space="preserve" y="0.8em" fill="#505050" text-anchor="middle" pointer-events="none" font-family="Open Sans" font-weight="normal" transform="matrix(1,0,0,1,0,-38.5)"><tspan  dy="0">Forwards</tspan><tspan dy="1.2em" x="0" >extension's UI</tspan><tspan dy="1.2em" x="0" >events</tspan></text></g><g id="v-25235"  label-idx="1" cursor="move" transform="matrix(1,0,0,1,1151.5,1342.199951171875)" style="cursor: default; opacity: 1;"><rect joint-selector="rect" id="v-25240" fill="#ffffff" rx="3" ry="3" pointer-events="none" width="201.52084350585938" height="25.5" transform="matrix(1,0,0,1,-100.80000305175781,-12.699999809265137)"></rect><text joint-selector="text" id="v-25239" font-size="17px" xml:space="preserve" y="0.8em" fill="#505050" text-anchor="middle" pointer-events="none" font-family="Open Sans" font-weight="normal" transform="matrix(1,0,0,1,0,-7.199999809265137)"><tspan  dy="0">[Measurement Protocol]</tspan></text></g><g id="v-25236"  label-idx="2" cursor="move" transform="matrix(1,0,0,1,1141.5,1350.5999755859375)" style="cursor: default; opacity: 1;"><rect joint-selector="rect" id="v-25242" fill="#ffffff" rx="3" ry="3"  width="0" height="0" transform="matrix(1,0,0,1,0,0)" display="none"></rect><text joint-selector="text" id="v-25241" fill="#000000" font-size="14" text-anchor="middle" pointer-events="none"></text></g></g><g  display="none"></g><g  id="v-25247" display="none"><g  id="v-25232"><path  end="source" d="M 26 0 L 0 13 L 26 26 z"></path></g><g  id="v-25233"><path  end="target" d="M 26 0 L 0 13 L 26 26 z"></path></g></g><g  id="v-25246" display="none"><g  id="v-25231" transform="translate(1616.7093776792512, 1106.4709877662608) "><g  event="remove"><circle r="11"></circle><path transform="scale(.8) translate(-16, -16)" d="M24.778,21.419 19.276,15.917 24.777,10.415 21.949,7.585 16.447,13.087 10.945,7.585 8.117,10.415 13.618,15.917 8.116,21.419 10.946,24.248 16.447,18.746 21.948,24.248z"></path><title>Remove link.</title></g><g  event="link:options"><circle r="11" transform="translate(25)"></circle><path fill="white" transform="scale(.55) translate(29, -16)" d="M31.229,17.736c0.064-0.571,0.104-1.148,0.104-1.736s-0.04-1.166-0.104-1.737l-4.377-1.557c-0.218-0.716-0.504-1.401-0.851-2.05l1.993-4.192c-0.725-0.91-1.549-1.734-2.458-2.459l-4.193,1.994c-0.647-0.347-1.334-0.632-2.049-0.849l-1.558-4.378C17.165,0.708,16.588,0.667,16,0.667s-1.166,0.041-1.737,0.105L12.707,5.15c-0.716,0.217-1.401,0.502-2.05,0.849L6.464,4.005C5.554,4.73,4.73,5.554,4.005,6.464l1.994,4.192c-0.347,0.648-0.632,1.334-0.849,2.05l-4.378,1.557C0.708,14.834,0.667,15.412,0.667,16s0.041,1.165,0.105,1.736l4.378,1.558c0.217,0.715,0.502,1.401,0.849,2.049l-1.994,4.193c0.725,0.909,1.549,1.733,2.459,2.458l4.192-1.993c0.648,0.347,1.334,0.633,2.05,0.851l1.557,4.377c0.571,0.064,1.148,0.104,1.737,0.104c0.588,0,1.165-0.04,1.736-0.104l1.558-4.377c0.715-0.218,1.399-0.504,2.049-0.851l4.193,1.993c0.909-0.725,1.733-1.549,2.458-2.458l-1.993-4.193c0.347-0.647,0.633-1.334,0.851-2.049L31.229,17.736zM16,20.871c-2.69,0-4.872-2.182-4.872-4.871c0-2.69,2.182-4.872,4.872-4.872c2.689,0,4.871,2.182,4.871,4.872C20.871,18.689,18.689,20.871,16,20.871z"></path><title>Link options.</title></g></g></g></g><!--z-index:55--><!--z-index:56--><!--z-index:57--><!--z-index:58--><!--z-index:59--><!--z-index:60--><!--z-index:61--><!--z-index:62--><!--z-index:63--><!--z-index:64--><!--z-index:65--><!--z-index:66--><!--z-index:67--><!--z-index:68--><!--z-index:69--><!--z-index:70--><!--z-index:71--><!--z-index:72--><!--z-index:73--><!--z-index:74--><!--z-index:75--><!--z-index:76--><!--z-index:77--><!--z-index:78--><!--z-index:79--><!--z-index:80--><!--z-index:81--><!--z-index:82--><!--z-index:83--><!--z-index:84--><!--z-index:85--><!--z-index:86--><!--z-index:87--><!--z-index:88--><!--z-index:89--><!--z-index:90--><!--z-index:91--><!--z-index:92--><!--z-index:93--><!--z-index:94--><!--z-index:95--><!--z-index:96--><!--z-index:97--><!--z-index:98--><!--z-index:99--><!--z-index:100--><!--z-index:101--><!--z-index:102--><!--z-index:103--><!--z-index:104--><!--z-index:105--><!--z-index:106--><!--z-index:107--><!--z-index:108--><!--z-index:109--><!--z-index:110--><!--z-index:111--><!--z-index:112--><!--z-index:113--><!--z-index:114--><!--z-index:115--><!--z-index:116--><!--z-index:117--><!--z-index:118--><!--z-index:119--><!--z-index:120--><!--z-index:121--><!--z-index:122--><!--z-index:123--><!--z-index:124--><!--z-index:125--><!--z-index:126--><!--z-index:127--><!--z-index:128--><!--z-index:129--><!--z-index:130--><!--z-index:131--><!--z-index:132--><!--z-index:133--><!--z-index:134--><!--z-index:135--><!--z-index:136--><!--z-index:137--><!--z-index:138--><!--z-index:139--><!--z-index:140--><!--z-index:141--><!--z-index:142--><!--z-index:143--><!--z-index:144--><!--z-index:145--><!--z-index:146--><!--z-index:147--><!--z-index:148--><!--z-index:149--><!--z-index:150--><!--z-index:151--><!--z-index:152--><!--z-index:153--><!--z-index:154--><!--z-index:155--><!--z-index:156--><!--z-index:157--><!--z-index:158--><!--z-index:159--><!--z-index:160--><!--z-index:161--><!--z-index:162--><!--z-index:163--><!--z-index:164--><!--z-index:165--><!--z-index:166--><!--z-index:167--><!--z-index:168--><!--z-index:169--><!--z-index:170--><!--z-index:171--><!--z-index:172--><!--z-index:173--><!--z-index:174--><!--z-index:175--><!--z-index:176--><!--z-index:177--><!--z-index:178--><!--z-index:179--><!--z-index:180--><!--z-index:181--><!--z-index:182--><!--z-index:183--><!--z-index:184--><!--z-index:185--><!--z-index:186--><!--z-index:187--><!--z-index:188--><!--z-index:189--><!--z-index:190--><!--z-index:191--><!--z-index:192--><!--z-index:193--><!--z-index:194--><!--z-index:195--><!--z-index:196--><!--z-index:197--><!--z-index:198--><!--z-index:199--><!--z-index:200--><!--z-index:201--><!--z-index:202--><!--z-index:203--><!--z-index:204--><!--z-index:205--><!--z-index:206--><!--z-index:207--><!--z-index:208--><!--z-index:209--><!--z-index:210--><!--z-index:211--><!--z-index:212--><!--z-index:213--><!--z-index:214--><!--z-index:215--><!--z-index:216--><!--z-index:217--><!--z-index:218--><!--z-index:219--><!--z-index:220--><!--z-index:221--><!--z-index:222--><!--z-index:223--><!--z-index:224--><!--z-index:225--><!--z-index:226--><!--z-index:227--><!--z-index:228--><!--z-index:229--><!--z-index:230--><!--z-index:231--><!--z-index:232--><!--z-index:233--><!--z-index:234--><!--z-index:235--><!--z-index:236--><!--z-index:237--><!--z-index:238--><!--z-index:239--><!--z-index:240--><!--z-index:241--><!--z-index:242--><!--z-index:243--><!--z-index:244--><!--z-index:245--><!--z-index:246--><!--z-index:247--><!--z-index:248--><!--z-index:249--><!--z-index:250--><!--z-index:251--><!--z-index:252--><!--z-index:253--><!--z-index:254--><!--z-index:255--><!--z-index:256--><!--z-index:257--><!--z-index:258--><!--z-index:259--><!--z-index:260--><!--z-index:261--><!--z-index:262--><!--z-index:263--><!--z-index:264--><!--z-index:265--><!--z-index:266--><!--z-index:267--><!--z-index:268--><!--z-index:269--><!--z-index:270--><!--z-index:271--><!--z-index:272--><!--z-index:273--><!--z-index:274--><!--z-index:275--><!--z-index:276--><!--z-index:277--><!--z-index:278--><!--z-index:279--><!--z-index:280--><!--z-index:281--><!--z-index:282--><!--z-index:283--><!--z-index:284--><!--z-index:285--><!--z-index:286--><!--z-index:287--><!--z-index:288--><!--z-index:289--><!--z-index:290--><!--z-index:291--><!--z-index:292--></g><g ></g><g ></g><g ></g></g></svg>