<svg xmlns="http://www.w3.org/2000/svg" xmlns:xlink="http://www.w3.org/1999/xlink" version="1.1" viewBox="0 0 2995 2063" style="background: #ffffff"><defs><style>@import url(https://fonts.googleapis.com/css?family=Open+Sans:400,700);</style></defs><defs joint-selector="defs"></defs><g  joint-selector="layers" transform="matrix(1,0,0,1,0,0)"><g ></g><g ><!--z-index:1--><!--z-index:2--><!--z-index:3--><!--z-index:4--><!--z-index:5--><!--z-index:6--><!--z-index:7--><!--z-index:8--><!--z-index:9--><!--z-index:10--><!--z-index:11--><!--z-index:12--><!--z-index:13--><!--z-index:14--><!--z-index:15--><!--z-index:16--><!--z-index:17--><!--z-index:18--><!--z-index:19--><!--z-index:20--><!--z-index:21--><!--z-index:22--><!--z-index:23--><!--z-index:24--><!--z-index:25--><!--z-index:26--><!--z-index:27--><!--z-index:28--><g   id="j_398"  transform="translate(20,2026.6)"><g id="v-6265"><text  id="v-6266" font-size="22px" xml:space="preserve" y="0.8em" font-weight="normal" text-anchor="start" fill="#aaaaaa" pointer-events="none" display="block" font-family="Open Sans"><tspan  dy="0">Tuesday, September 3, 2024 at 1:17 PM Central Daylight Time</tspan></text></g></g><!--z-index:29--><g   id="j_397"  transform="translate(20,1983.3999999999999)"><g id="v-6263"><text  id="v-6264" font-size="36px" xml:space="preserve" y="0.8em" font-weight="normal" text-anchor="start" fill="#000000" pointer-events="none" display="block" font-family="Open Sans"><tspan  dy="0">[System Context] Relay</tspan></text></g></g><!--z-index:30--><g   id="j_399"  transform="translate(199,1419)" style=""><g  id="v-6273" style="opacity: 1;"><rect  id="v-6274" rx="1" ry="1" stroke="#c7c7c7" stroke-width="2" pointer-events="visiblePainted" fill="#dddddd" width="450" height="300" style="fill: rgb(221, 221, 221); stroke: rgb(199, 199, 199);"></rect><text  id="v-6275" font-size="34" xml:space="preserve" y="0.8em" font-weight="bold" text-anchor="middle" pointer-events="visible" font-family="Open Sans" fill="#000000" transform="matrix(1,0,0,1,225,88.0999984741211)" style="fill: rgb(0, 0, 0);"><tspan  dy="0">Google Analytics</tspan></text><text  id="v-6276" font-size="17" xml:space="preserve" y="0.8em" text-anchor="middle" font-family="Open Sans" fill="#000000" transform="matrix(1,0,0,1,225,128.89999389648438)" style="fill: rgb(0, 0, 0);"><tspan  dy="0">[Software System]</tspan></text><text  id="v-6277" font-size="24" xml:space="preserve" y="0.8em" text-anchor="middle" font-family="Open Sans" fill="#000000" transform="matrix(1,0,0,1,225,159.3000030517578)" style="fill: rgb(0, 0, 0);"><tspan  dy="0">Collects and reports interaction</tspan><tspan dy="1.2em" x="0" >events</tspan></text><g  id="v-6278" color="#000000" transform="matrix(1,0,0,1,222.5,268)" style="fill: rgb(0, 0, 0);" display="none"><g ></g><g ></g><g ></g><g ></g></g><image  id="v-6279"></image></g></g><!--z-index:31--><g   id="j_400"  transform="translate(199,1055)" style=""><g  id="v-6283" style="opacity: 1;"><rect  id="v-6284" rx="1" ry="1" stroke="#c7c7c7" stroke-width="2" pointer-events="visiblePainted" fill="#dddddd" width="450" height="300" style="fill: rgb(221, 221, 221); stroke: rgb(199, 199, 199);"></rect><text  id="v-6285" font-size="34" xml:space="preserve" y="0.8em" font-weight="bold" text-anchor="middle" pointer-events="visible" font-family="Open Sans" fill="#000000" transform="matrix(1,0,0,1,225,88.0999984741211)" style="fill: rgb(0, 0, 0);"><tspan  dy="0">Stripe</tspan></text><text  id="v-6286" font-size="17" xml:space="preserve" y="0.8em" text-anchor="middle" font-family="Open Sans" fill="#000000" transform="matrix(1,0,0,1,225,128.89999389648438)" style="fill: rgb(0, 0, 0);"><tspan  dy="0">[Software System]</tspan></text><text  id="v-6287" font-size="24" xml:space="preserve" y="0.8em" text-anchor="middle" font-family="Open Sans" fill="#000000" transform="matrix(1,0,0,1,225,159.3000030517578)" style="fill: rgb(0, 0, 0);"><tspan  dy="0">Handles billing and payment</tspan><tspan dy="1.2em" x="0" >processing</tspan></text><g  id="v-6288" color="#000000" transform="matrix(1,0,0,1,222.5,268)" style="fill: rgb(0, 0, 0);" display="none"><g ></g><g ></g><g ></g><g ></g></g><image  id="v-6289"></image></g></g><!--z-index:32--><g   id="j_402"  transform="translate(749,820)" style=""><g id="v-6303"><rect  id="v-6304" width="1540" height="1044" rx="0" ry="0" fill="#ffffff" stroke="#444444" stroke-width="1" stroke-dasharray="5,5" pointer-events="none"></rect><text  id="v-6305" font-size="24px" xml:space="preserve" y="1029" font-weight="normal" fill="#444444" text-anchor="start" pointer-events="visible" font-family="Open Sans" transform="matrix(1,0,0,1,15,0)"><tspan  dy="0">Mozilla</tspan></text><text  id="v-6306" font-size="17px" xml:space="preserve" display="none" y="1029" font-weight="normal" fill="#444444" text-anchor="start" pointer-events="visible" font-family="Open Sans" transform="matrix(1,0,0,1,15,0)"><tspan style="fill-opacity: 0; stroke-opacity: 0;"  dy="0">-</tspan></text><image  id="v-6307" pointer-events="visible"></image></g></g><!--z-index:33--><g   id="j_401"  transform="translate(905,840)" style=""><g  id="v-6296" style="opacity: 1;"><rect  id="v-6297" rx="1" ry="1" stroke="#c7c7c7" stroke-width="2" pointer-events="visiblePainted" fill="#dddddd" width="450" height="300" style="fill: rgb(221, 221, 221); stroke: rgb(199, 199, 199);"></rect><text  id="v-6298" font-size="34" xml:space="preserve" y="0.8em" font-weight="bold" text-anchor="middle" pointer-events="visible" font-family="Open Sans" fill="#000000" transform="matrix(1,0,0,1,225,67.69999694824219)" style="fill: rgb(0, 0, 0);"><tspan  dy="0">Accounts and</tspan><tspan dy="1.2em" x="0" >Subscriptions</tspan></text><text  id="v-6299" font-size="17" xml:space="preserve" y="0.8em" text-anchor="middle" font-family="Open Sans" fill="#000000" transform="matrix(1,0,0,1,225,149.3000030517578)" style="fill: rgb(0, 0, 0);"><tspan  dy="0">[Software System]</tspan></text><text  id="v-6300" font-size="24" xml:space="preserve" y="0.8em" text-anchor="middle" font-family="Open Sans" fill="#000000" transform="matrix(1,0,0,1,225,179.6999969482422)" style="fill: rgb(0, 0, 0);"><tspan  dy="0">Mozilla Accounts and the</tspan><tspan dy="1.2em" x="0" >Subscription Platform.</tspan></text><g  id="v-6301" color="#000000" transform="matrix(1,0,0,1,222.5,268)" style="fill: rgb(0, 0, 0);" display="none"><g ></g><g ></g><g ></g><g ></g></g><image  id="v-6302"></image></g></g><!--z-index:34--><g   id="j_403"  transform="translate(769,1489)" style=""><g  id="v-6311" style="opacity: 1;"><rect  id="v-6312" rx="1" ry="1" stroke="#c7c7c7" stroke-width="2" pointer-events="visiblePainted" fill="#dddddd" width="450" height="300" style="fill: rgb(221, 221, 221); stroke: rgb(199, 199, 199);"></rect><text  id="v-6313" font-size="34" xml:space="preserve" y="0.8em" font-weight="bold" text-anchor="middle" pointer-events="visible" font-family="Open Sans" fill="#000000" transform="matrix(1,0,0,1,225,102.5)" style="fill: rgb(0, 0, 0);"><tspan  dy="0">Data Platform</tspan></text><text  id="v-6314" font-size="17" xml:space="preserve" y="0.8em" text-anchor="middle" font-family="Open Sans" fill="#000000" transform="matrix(1,0,0,1,225,143.3000030517578)" style="fill: rgb(0, 0, 0);"><tspan  dy="0">[Software System]</tspan></text><text  id="v-6315" font-size="24" xml:space="preserve" y="0.8em" text-anchor="middle" font-family="Open Sans" fill="#000000" transform="matrix(1,0,0,1,225,173.6999969482422)" style="fill: rgb(0, 0, 0);"><tspan  dy="0">The Mozilla Telemetry Platform</tspan></text><g  id="v-6316" color="#000000" transform="matrix(1,0,0,1,222.5,268)" style="fill: rgb(0, 0, 0);" display="none"><g ></g><g ></g><g ></g><g ></g></g><image  id="v-6317"></image></g></g><!--z-index:35--><g   id="j_404"  transform="translate(1819,1489)" style=""><g  id="v-6324" style="opacity: 1;"><rect  id="v-6325" rx="1" ry="1" stroke="#c7c7c7" stroke-width="2" pointer-events="visiblePainted" fill="#dddddd" width="450" height="300" style="fill: rgb(221, 221, 221); stroke: rgb(199, 199, 199);"></rect><text  id="v-6326" font-size="34" xml:space="preserve" y="0.8em" font-weight="bold" text-anchor="middle" pointer-events="visible" font-family="Open Sans" fill="#000000" transform="matrix(1,0,0,1,225,67.69999694824219)" style="fill: rgb(0, 0, 0);"><tspan  dy="0">Operational Metrics</tspan><tspan dy="1.2em" x="0" >Platform</tspan></text><text  id="v-6327" font-size="17" xml:space="preserve" y="0.8em" text-anchor="middle" font-family="Open Sans" fill="#000000" transform="matrix(1,0,0,1,225,149.3000030517578)" style="fill: rgb(0, 0, 0);"><tspan  dy="0">[Software System]</tspan></text><text  id="v-6328" font-size="24" xml:space="preserve" y="0.8em" text-anchor="middle" font-family="Open Sans" fill="#000000" transform="matrix(1,0,0,1,225,179.6999969482422)" style="fill: rgb(0, 0, 0);"><tspan  dy="0">The Mozilla operational metrics and</tspan><tspan dy="1.2em" x="0" >reporting platform</tspan></text><g  id="v-6329" color="#000000" transform="matrix(1,0,0,1,222.5,268)" style="fill: rgb(0, 0, 0);" display="none"><g ></g><g ></g><g ></g><g ></g></g><image  id="v-6330"></image></g></g><!--z-index:36--><g   id="j_405"  transform="translate(1295,1490)" style=""><g  id="v-6334" style="opacity: 1;"><rect  id="v-6335" rx="1" ry="1" stroke="#c7c7c7" stroke-width="2" pointer-events="visiblePainted" fill="#dddddd" width="450" height="300" style="fill: rgb(221, 221, 221); stroke: rgb(199, 199, 199);"></rect><text  id="v-6336" font-size="34" xml:space="preserve" y="0.8em" font-weight="bold" text-anchor="middle" pointer-events="visible" font-family="Open Sans" fill="#000000" transform="matrix(1,0,0,1,225,88.0999984741211)" style="fill: rgb(0, 0, 0);"><tspan  dy="0">Sentry</tspan></text><text  id="v-6337" font-size="17" xml:space="preserve" y="0.8em" text-anchor="middle" font-family="Open Sans" fill="#000000" transform="matrix(1,0,0,1,225,128.89999389648438)" style="fill: rgb(0, 0, 0);"><tspan  dy="0">[Software System]</tspan></text><text  id="v-6338" font-size="24" xml:space="preserve" y="0.8em" text-anchor="middle" font-family="Open Sans" fill="#000000" transform="matrix(1,0,0,1,225,159.3000030517578)" style="fill: rgb(0, 0, 0);"><tspan  dy="0">Collects and organizes tracebacks</tspan><tspan dy="1.2em" x="0" >and errors</tspan></text><g  id="v-6339" color="#000000" transform="matrix(1,0,0,1,222.5,268)" style="fill: rgb(0, 0, 0);" display="none"><g ></g><g ></g><g ></g><g ></g></g><image  id="v-6340"></image></g></g><!--z-index:37--><g   id="j_406"  transform="translate(1654,855)" style=""><g  id="v-6344" style="opacity: 1;"><rect  id="v-6345" rx="1" ry="1" stroke="#005526" stroke-width="2" pointer-events="visiblePainted" fill="#005e2a" width="450" height="300" style="fill: rgb(0, 94, 42); stroke: rgb(0, 85, 38);"></rect><text  id="v-6346" font-size="34" xml:space="preserve" y="0.8em" font-weight="bold" text-anchor="middle" pointer-events="visible" font-family="Open Sans" fill="#ffffff" transform="matrix(1,0,0,1,225,73.69999694824219)" style="fill: rgb(255, 255, 255);"><tspan  dy="0">Firefox Relay</tspan></text><text  id="v-6347" font-size="17" xml:space="preserve" y="0.8em" text-anchor="middle" font-family="Open Sans" fill="#ffffff" transform="matrix(1,0,0,1,225,114.5)" style="fill: rgb(255, 255, 255);"><tspan  dy="0">[Software System]</tspan></text><text  id="v-6348" font-size="24" xml:space="preserve" y="0.8em" text-anchor="middle" font-family="Open Sans" fill="#ffffff" transform="matrix(1,0,0,1,225,144.89999389648438)" style="fill: rgb(255, 255, 255);"><tspan  dy="0">Manages email and phone masks.</tspan><tspan dy="1.2em" x="0" >Forwards messages between masks</tspan><tspan dy="1.2em" x="0" >and external services.</tspan></text><g  id="v-6349" color="#ffffff" transform="matrix(1,0,0,1,210,268)" style="fill: rgb(255, 255, 255);" display="none"><g  transform="translate(5 0)"><svg xmlns="http://www.w3.org/2000/svg" width="20" height="20" fill="currentColor" viewBox="0 0 16 16"><path fill-rule="evenodd" d="M6.5 12a5.5 5.5 0 1 0 0-11 5.5 5.5 0 0 0 0 11zM13 6.5a6.5 6.5 0 1 1-13 0 6.5 6.5 0 0 1 13 0z"></path><path d="M10.344 11.742c.03.04.062.078.098.115l3.85 3.85a1 1 0 0 0 1.415-1.414l-3.85-3.85a1.007 1.007 0 0 0-.115-.1 6.538 6.538 0 0 1-1.398 1.4z"></path><path fill-rule="evenodd" d="M6.5 3a.5.5 0 0 1 .5.5V6h2.5a.5.5 0 0 1 0 1H7v2.5a.5.5 0 0 1-1 0V7H3.5a.5.5 0 0 1 0-1H6V3.5a.5.5 0 0 1 .5-.5z"></path></svg></g><g ></g><g ></g><g ></g></g><image  id="v-6350"></image></g></g><!--z-index:38--><g   id="j_407"  transform="translate(1299,200)" style=""><g  id="v-6354" style="opacity: 1;"><rect  x="0" y="160" width="400" height="240" rx="70" id="v-6356" stroke="#e68a00" stroke-width="2" pointer-events="visiblePainted" fill="#ff9900" style="fill: rgb(255, 153, 0); stroke: rgb(230, 138, 0);"></rect><circle  cx="200" cy="88.88888888888889" r="88.88888888888889" id="v-6355" stroke="#e68a00" stroke-width="2" pointer-events="visiblePainted" fill="#ff9900" style="fill: rgb(255, 153, 0); stroke: rgb(230, 138, 0);"></circle><line  x1="80" y1="266.6666666666667" x2="80" y2="400" id="v-6362" stroke="#e68a00" stroke-width="2" style="stroke: rgb(230, 138, 0);"></line><line  x1="320" y1="266.6666666666667" x2="320" y2="400" id="v-6363" stroke="#e68a00" stroke-width="2" style="stroke: rgb(230, 138, 0);"></line><text  id="v-6357" font-size="34" xml:space="preserve" y="0.8em" font-weight="bold" text-anchor="middle" pointer-events="visible" font-family="Open Sans" fill="#000000" transform="matrix(1,0,0,1,200,232.5)" style="fill: rgb(0, 0, 0);"><tspan  dy="0">Relay User</tspan></text><text  id="v-6358" font-size="17" xml:space="preserve" y="0.8em" text-anchor="middle" font-family="Open Sans" fill="#000000" transform="matrix(1,0,0,1,200,273.29998779296875)" style="fill: rgb(0, 0, 0);"><tspan  dy="0">[Person]</tspan></text><text  id="v-6359" font-size="24" xml:space="preserve" y="0.8em" text-anchor="middle" font-family="Open Sans" fill="#000000" transform="matrix(1,0,0,1,200,303.70001220703125)" style="fill: rgb(0, 0, 0);"><tspan  dy="0">A user of Firefox Relay.</tspan></text><g  id="v-6360" font-weight="normal" text-anchor="middle" color="#000000" transform="matrix(1,0,0,1,197.5,368)" style="fill: rgb(0, 0, 0);" display="none"><g ></g><g ></g><g ></g><g ></g></g><image  id="v-6361"></image></g></g><!--z-index:39--><g   id="j_408"  transform="translate(2394,1250)" style=""><g  id="v-6367" style="opacity: 1;"><rect  x="0" y="160" width="400" height="240" rx="70" id="v-6369" stroke="#c7c7c7" stroke-width="2" pointer-events="visiblePainted" fill="#dddddd" style="fill: rgb(221, 221, 221); stroke: rgb(199, 199, 199);"></rect><circle  cx="200" cy="88.88888888888889" r="88.88888888888889" id="v-6368" stroke="#c7c7c7" stroke-width="2" pointer-events="visiblePainted" fill="#dddddd" style="fill: rgb(221, 221, 221); stroke: rgb(199, 199, 199);"></circle><line  x1="80" y1="266.6666666666667" x2="80" y2="400" id="v-6375" stroke="#c7c7c7" stroke-width="2" style="stroke: rgb(199, 199, 199);"></line><line  x1="320" y1="266.6666666666667" x2="320" y2="400" id="v-6376" stroke="#c7c7c7" stroke-width="2" style="stroke: rgb(199, 199, 199);"></line><text  id="v-6370" font-size="34" xml:space="preserve" y="0.8em" font-weight="bold" text-anchor="middle" pointer-events="visible" font-family="Open Sans" fill="#000000" transform="matrix(1,0,0,1,200,218.10000610351562)" style="fill: rgb(0, 0, 0);"><tspan  dy="0">Email Contact</tspan></text><text  id="v-6371" font-size="17" xml:space="preserve" y="0.8em" text-anchor="middle" font-family="Open Sans" fill="#000000" transform="matrix(1,0,0,1,200,258.8999938964844)" style="fill: rgb(0, 0, 0);"><tspan  dy="0">[Person]</tspan></text><text  id="v-6372" font-size="24" xml:space="preserve" y="0.8em" text-anchor="middle" font-family="Open Sans" fill="#000000" transform="matrix(1,0,0,1,200,289.29998779296875)" style="fill: rgb(0, 0, 0);"><tspan  dy="0">A person or business emailing</tspan><tspan dy="1.2em" x="0" >with a Relay User.</tspan></text><g  id="v-6373" font-weight="normal" text-anchor="middle" color="#000000" transform="matrix(1,0,0,1,197.5,368)" style="fill: rgb(0, 0, 0);" display="none"><g ></g><g ></g><g ></g><g ></g></g><image  id="v-6374"></image></g></g><!--z-index:40--><g   id="j_409"  transform="translate(2394,640)" style=""><g  id="v-6380" style="opacity: 1;"><rect  x="0" y="160" width="400" height="240" rx="70" id="v-6382" stroke="#c7c7c7" stroke-width="2" pointer-events="visiblePainted" fill="#dddddd" style="fill: rgb(221, 221, 221); stroke: rgb(199, 199, 199);"></rect><circle  cx="200" cy="88.88888888888889" r="88.88888888888889" id="v-6381" stroke="#c7c7c7" stroke-width="2" pointer-events="visiblePainted" fill="#dddddd" style="fill: rgb(221, 221, 221); stroke: rgb(199, 199, 199);"></circle><line  x1="80" y1="266.6666666666667" x2="80" y2="400" id="v-6388" stroke="#c7c7c7" stroke-width="2" style="stroke: rgb(199, 199, 199);"></line><line  x1="320" y1="266.6666666666667" x2="320" y2="400" id="v-6389" stroke="#c7c7c7" stroke-width="2" style="stroke: rgb(199, 199, 199);"></line><text  id="v-6383" font-size="34" xml:space="preserve" y="0.8em" font-weight="bold" text-anchor="middle" pointer-events="visible" font-family="Open Sans" fill="#000000" transform="matrix(1,0,0,1,200,218.10000610351562)" style="fill: rgb(0, 0, 0);"><tspan  dy="0">Phone Contact</tspan></text><text  id="v-6384" font-size="17" xml:space="preserve" y="0.8em" text-anchor="middle" font-family="Open Sans" fill="#000000" transform="matrix(1,0,0,1,200,258.8999938964844)" style="fill: rgb(0, 0, 0);"><tspan  dy="0">[Person]</tspan></text><text  id="v-6385" font-size="24" xml:space="preserve" y="0.8em" text-anchor="middle" font-family="Open Sans" fill="#000000" transform="matrix(1,0,0,1,200,289.29998779296875)" style="fill: rgb(0, 0, 0);"><tspan  dy="0">A person or business calling or</tspan><tspan dy="1.2em" x="0" >texting with a Relay User.</tspan></text><g  id="v-6386" font-weight="normal" text-anchor="middle" color="#000000" transform="matrix(1,0,0,1,197.5,368)" style="fill: rgb(0, 0, 0);" display="none"><g ></g><g ></g><g ></g><g ></g></g><image  id="v-6387"></image></g></g><!--z-index:41--><g   id="j_410" ><path  stroke="#505050" d="M 1654 1078 L 1304 1192 C 1297.3333333333333 1194 1290.6666666666665 1195 1284 1195 L 649 1202" id="v-6406" stroke-width="2" fill="none" style="opacity: 1;"></path><path  fill="black" stroke="black" d="M 0 0 0 0" transform="matrix(-0.9510961771011353,0.30889490246772766,-0.30889490246772766,-0.9510961771011353,1654,1078.0799560546875)"></path><path  fill="#505050" stroke="#505050" d="M 20 0 L 0 10 L 20 20 z" id="v-6408" transform="matrix(0.9999340176582336,-0.011487559415400028,0.011487559415400028,0.9999340176582336,648.8851318359375,1192.41064453125)" style="opacity: 1;"></path><path  d="M 1654 1078 L 1304 1192 C 1297.3333333333333 1194 1290.6666666666665 1195 1284 1195 L 649 1202" id="v-6407" fill="none" style="cursor: default;"></path><g ><g id="v-6397"  label-idx="0" cursor="move" transform="matrix(1,0,0,1,1160.682861328125,1196.359375)" style="cursor: default; opacity: 1;"><rect joint-selector="rect" id="v-6401" fill="#ffffff" rx="3" ry="3" pointer-events="none" width="203.5500030517578" height="62.79999923706055" transform="matrix(1,0,0,1,-101.80000305175781,-31.399999618530273)"></rect><text joint-selector="text" id="v-6400" font-size="24px" xml:space="preserve" y="0.8em" fill="#505050" text-anchor="middle" pointer-events="none" font-family="Open Sans" font-weight="normal" transform="matrix(1,0,0,1,0,-24.600000381469727)"><tspan  dy="0">Requests</tspan><tspan dy="1.2em" x="0" >purchase tracking</tspan></text></g><g id="v-6398"  label-idx="1" cursor="move" transform="matrix(1,0,0,1,1160.682861328125,1237.159423828125)" style="cursor: default; opacity: 1;"><rect joint-selector="rect" id="v-6403" fill="#ffffff" rx="3" ry="3" pointer-events="none" width="65.94999694824219" height="24" transform="matrix(1,0,0,1,-33,-12)"></rect><text joint-selector="text" id="v-6402" font-size="17px" xml:space="preserve" y="0.8em" fill="#505050" text-anchor="middle" pointer-events="none" font-family="Open Sans" font-weight="normal" transform="matrix(1,0,0,1,0,-6.599999904632568)"><tspan  dy="0">[HTTPS]</tspan></text></g><g id="v-6399"  label-idx="2" cursor="move" transform="matrix(1,0,0,1,1150.682861328125,1245.5594482421875)" style="cursor: default; opacity: 1;"><rect joint-selector="rect" id="v-6405" fill="#ffffff" rx="3" ry="3"  width="0" height="0" transform="matrix(1,0,0,1,0,0)" display="none"></rect><text joint-selector="text" id="v-6404" fill="#000000" font-size="14" text-anchor="middle" pointer-events="none"></text></g></g><g  display="none"><g  transform="translate(1294, 1195)" id="v-6394"><circle  idx="0" r="10"></circle><path  idx="0" d="M16,5.333c-7.732,0-14,4.701-14,10.5c0,1.982,0.741,3.833,2.016,5.414L2,25.667l5.613-1.441c2.339,1.317,5.237,2.107,8.387,2.107c7.732,0,14-4.701,14-10.5C30,10.034,23.732,5.333,16,5.333z" transform="translate(5, -33)"></path><path  idx="0" transform="scale(.8) translate(9.5, -37)" d="M24.778,21.419 19.276,15.917 24.777,10.415 21.949,7.585 16.447,13.087 10.945,7.585 8.117,10.415 13.618,15.917 8.116,21.419 10.946,24.248 16.447,18.746 21.948,24.248z"><title>Remove vertex.</title></path></g></g><g  id="v-6410" display="none"><g  id="v-6395"><path  end="source" d="M 26 0 L 0 13 L 26 26 z"></path></g><g  id="v-6396"><path  end="target" d="M 26 0 L 0 13 L 26 26 z"></path></g></g><g  id="v-6409" display="none"><g  id="v-6393" transform="translate(1615.9666308730234, 1090.388011658501) "><g  event="remove"><circle r="11"></circle><path transform="scale(.8) translate(-16, -16)" d="M24.778,21.419 19.276,15.917 24.777,10.415 21.949,7.585 16.447,13.087 10.945,7.585 8.117,10.415 13.618,15.917 8.116,21.419 10.946,24.248 16.447,18.746 21.948,24.248z"></path><title>Remove link.</title></g><g  event="link:options"><circle r="11" transform="translate(25)"></circle><path fill="white" transform="scale(.55) translate(29, -16)" d="M31.229,17.736c0.064-0.571,0.104-1.148,0.104-1.736s-0.04-1.166-0.104-1.737l-4.377-1.557c-0.218-0.716-0.504-1.401-0.851-2.05l1.993-4.192c-0.725-0.91-1.549-1.734-2.458-2.459l-4.193,1.994c-0.647-0.347-1.334-0.632-2.049-0.849l-1.558-4.378C17.165,0.708,16.588,0.667,16,0.667s-1.166,0.041-1.737,0.105L12.707,5.15c-0.716,0.217-1.401,0.502-2.05,0.849L6.464,4.005C5.554,4.73,4.73,5.554,4.005,6.464l1.994,4.192c-0.347,0.648-0.632,1.334-0.849,2.05l-4.378,1.557C0.708,14.834,0.667,15.412,0.667,16s0.041,1.165,0.105,1.736l4.378,1.558c0.217,0.715,0.502,1.401,0.849,2.049l-1.994,4.193c0.725,0.909,1.549,1.733,2.459,2.458l4.192-1.993c0.648,0.347,1.334,0.633,2.05,0.851l1.557,4.377c0.571,0.064,1.148,0.104,1.737,0.104c0.588,0,1.165-0.04,1.736-0.104l1.558-4.377c0.715-0.218,1.399-0.504,2.049-0.851l4.193,1.993c0.909-0.725,1.733-1.549,2.458-2.458l-1.993-4.193c0.347-0.647,0.633-1.334,0.851-2.049L31.229,17.736zM16,20.871c-2.69,0-4.872-2.182-4.872-4.871c0-2.69,2.182-4.872,4.872-4.872c2.689,0,4.871,2.182,4.871,4.872C20.871,18.689,18.689,20.871,16,20.871z"></path><title>Link options.</title></g></g></g></g><!--z-index:42--><g   id="j_411" ><path  stroke="#505050" d="M 1374 600 L 1224 840" id="v-6426" stroke-width="2" fill="none" style="opacity: 1;"></path><path  fill="black" stroke="black" d="M 0 0 0 0" transform="matrix(-0.5302783250808716,0.8478236198425293,-0.8478236198425293,-0.5302783250808716,1373.9200439453125,600)"></path><path  fill="#505050" stroke="#505050" d="M 20 0 L 0 10 L 20 20 z" id="v-6428" transform="matrix(0.5302783250808716,-0.8478236198425293,0.8478236198425293,0.5302783250808716,1215.331787109375,834.697265625)" style="opacity: 1;"></path><path  d="M 1374 600 L 1224 840" id="v-6427" fill="none" style="cursor: default;"></path><g ><g id="v-6417"  label-idx="0" cursor="move" transform="matrix(1,0,0,1,1299,720)" style="cursor: default; opacity: 1;"><rect joint-selector="rect" id="v-6421" fill="#ffffff" rx="3" ry="3" pointer-events="none" width="142.10000610351562" height="91.60000228881836" transform="matrix(1,0,0,1,-71.0999984741211,-45.79999923706055)"></rect><text joint-selector="text" id="v-6420" font-size="24px" xml:space="preserve" y="0.8em" fill="#505050" text-anchor="middle" pointer-events="none" font-family="Open Sans" font-weight="normal" transform="matrix(1,0,0,1,0,-39)"><tspan  dy="0">Registers,</tspan><tspan dy="1.2em" x="0" >manages</tspan><tspan dy="1.2em" x="0" >subscription</tspan></text></g><g id="v-6418"  label-idx="1" cursor="move" transform="matrix(1,0,0,1,1299,775.2000122070312)" style="cursor: default; opacity: 1;"><rect joint-selector="rect" id="v-6423" fill="#ffffff" rx="3" ry="3" pointer-events="none" width="65.94999694824219" height="24" transform="matrix(1,0,0,1,-33,-12)"></rect><text joint-selector="text" id="v-6422" font-size="17px" xml:space="preserve" y="0.8em" fill="#505050" text-anchor="middle" pointer-events="none" font-family="Open Sans" font-weight="normal" transform="matrix(1,0,0,1,0,-6.599999904632568)"><tspan  dy="0">[HTTPS]</tspan></text></g><g id="v-6419"  label-idx="2" cursor="move" transform="matrix(1,0,0,1,1289,783.5999755859375)" style="cursor: default; opacity: 1;"><rect joint-selector="rect" id="v-6425" fill="#ffffff" rx="3" ry="3"  width="0" height="0" transform="matrix(1,0,0,1,0,0)" display="none"></rect><text joint-selector="text" id="v-6424" fill="#000000" font-size="14" text-anchor="middle" pointer-events="none"></text></g></g><g  display="none"></g><g  id="v-6430" display="none"><g  id="v-6415"><path  end="source" d="M 26 0 L 0 13 L 26 26 z"></path></g><g  id="v-6416"><path  end="target" d="M 26 0 L 0 13 L 26 26 z"></path></g></g><g  id="v-6429" display="none"><g  id="v-6414" transform="translate(1352.8000423998728, 633.9199321602035) "><g  event="remove"><circle r="11"></circle><path transform="scale(.8) translate(-16, -16)" d="M24.778,21.419 19.276,15.917 24.777,10.415 21.949,7.585 16.447,13.087 10.945,7.585 8.117,10.415 13.618,15.917 8.116,21.419 10.946,24.248 16.447,18.746 21.948,24.248z"></path><title>Remove link.</title></g><g  event="link:options"><circle r="11" transform="translate(25)"></circle><path fill="white" transform="scale(.55) translate(29, -16)" d="M31.229,17.736c0.064-0.571,0.104-1.148,0.104-1.736s-0.04-1.166-0.104-1.737l-4.377-1.557c-0.218-0.716-0.504-1.401-0.851-2.05l1.993-4.192c-0.725-0.91-1.549-1.734-2.458-2.459l-4.193,1.994c-0.647-0.347-1.334-0.632-2.049-0.849l-1.558-4.378C17.165,0.708,16.588,0.667,16,0.667s-1.166,0.041-1.737,0.105L12.707,5.15c-0.716,0.217-1.401,0.502-2.05,0.849L6.464,4.005C5.554,4.73,4.73,5.554,4.005,6.464l1.994,4.192c-0.347,0.648-0.632,1.334-0.849,2.05l-4.378,1.557C0.708,14.834,0.667,15.412,0.667,16s0.041,1.165,0.105,1.736l4.378,1.558c0.217,0.715,0.502,1.401,0.849,2.049l-1.994,4.193c0.725,0.909,1.549,1.733,2.459,2.458l4.192-1.993c0.648,0.347,1.334,0.633,2.05,0.851l1.557,4.377c0.571,0.064,1.148,0.104,1.737,0.104c0.588,0,1.165-0.04,1.736-0.104l1.558-4.377c0.715-0.218,1.399-0.504,2.049-0.851l4.193,1.993c0.909-0.725,1.733-1.549,2.458-2.458l-1.993-4.193c0.347-0.647,0.633-1.334,0.851-2.049L31.229,17.736zM16,20.871c-2.69,0-4.872-2.182-4.872-4.871c0-2.69,2.182-4.872,4.872-4.872c2.689,0,4.871,2.182,4.871,4.872C20.871,18.689,18.689,20.871,16,20.871z"></path><title>Link options.</title></g></g></g></g><!--z-index:43--><g   id="j_412" ><path  stroke="#505050" d="M 1532 600 L 1560 771 C 1561.3333333333333 777.6666666666666 1564.6666666666665 783 1570 787 L 1667 855" id="v-6441" stroke-width="2" fill="none" style="opacity: 1;"></path><path  fill="black" stroke="black" d="M 0 0 0 0" transform="matrix(0.16314364969730377,0.9866023063659668,-0.9866023063659668,0.16314364969730377,1532.0699462890625,600)"></path><path  fill="#505050" stroke="#505050" d="M 20 0 L 0 10 L 20 20 z" id="v-6443" transform="matrix(-0.8166738152503967,-0.5770995020866394,0.5770995020866394,-0.8166738152503967,1660.948974609375,863.166748046875)" style="opacity: 1;"></path><path  d="M 1532 600 L 1560 771 C 1561.3333333333333 777.6666666666666 1564.6666666666665 783 1570 787 L 1667 855" id="v-6442" fill="none" style="cursor: default;"></path><g ><g id="v-6435"  label-idx="0" cursor="move" transform="matrix(1,0,0,1,1557.1317138671875,753.4829711914062)" style="cursor: default; opacity: 1;"><rect joint-selector="rect" id="v-6438" fill="#ffffff" rx="3" ry="3" pointer-events="none" width="57.849998474121094" height="34" transform="matrix(1,0,0,1,-28.899999618530273,-17)"></rect><text joint-selector="text" id="v-6437" font-size="24px" xml:space="preserve" y="0.8em" fill="#505050" text-anchor="middle" pointer-events="none" font-family="Open Sans" font-weight="normal" transform="matrix(1,0,0,1,0,-10.199999809265137)"><tspan  dy="0">Uses</tspan></text></g><g id="v-6436"  label-idx="1" cursor="move" transform="matrix(1,0,0,1,1547.1317138671875,779.8829956054688)" style="cursor: default; opacity: 1;"><rect joint-selector="rect" id="v-6440" fill="#ffffff" rx="3" ry="3"  width="0" height="0" transform="matrix(1,0,0,1,0,0)" display="none"></rect><text joint-selector="text" id="v-6439" fill="#000000" font-size="14" text-anchor="middle" pointer-events="none"></text></g></g><g  display="none"><g  transform="translate(1562, 781)" id="v-6432"><circle  idx="0" r="10"></circle><path  idx="0" d="M16,5.333c-7.732,0-14,4.701-14,10.5c0,1.982,0.741,3.833,2.016,5.414L2,25.667l5.613-1.441c2.339,1.317,5.237,2.107,8.387,2.107c7.732,0,14-4.701,14-10.5C30,10.034,23.732,5.333,16,5.333z" transform="translate(5, -33)"></path><path  idx="0" transform="scale(.8) translate(9.5, -37)" d="M24.778,21.419 19.276,15.917 24.777,10.415 21.949,7.585 16.447,13.087 10.945,7.585 8.117,10.415 13.618,15.917 8.116,21.419 10.946,24.248 16.447,18.746 21.948,24.248z"><title>Remove vertex.</title></path></g></g><g  id="v-6445" display="none"><g  id="v-6433"><path  end="source" d="M 26 0 L 0 13 L 26 26 z"></path></g><g  id="v-6434"><path  end="target" d="M 26 0 L 0 13 L 26 26 z"></path></g></g><g  id="v-6444" display="none"><g  id="v-6431" transform="translate(1538.4636303964373, 639.4743142068137) "><g  event="remove"><circle r="11"></circle><path transform="scale(.8) translate(-16, -16)" d="M24.778,21.419 19.276,15.917 24.777,10.415 21.949,7.585 16.447,13.087 10.945,7.585 8.117,10.415 13.618,15.917 8.116,21.419 10.946,24.248 16.447,18.746 21.948,24.248z"></path><title>Remove link.</title></g><g  event="link:options"><circle r="11" transform="translate(25)"></circle><path fill="white" transform="scale(.55) translate(29, -16)" d="M31.229,17.736c0.064-0.571,0.104-1.148,0.104-1.736s-0.04-1.166-0.104-1.737l-4.377-1.557c-0.218-0.716-0.504-1.401-0.851-2.05l1.993-4.192c-0.725-0.91-1.549-1.734-2.458-2.459l-4.193,1.994c-0.647-0.347-1.334-0.632-2.049-0.849l-1.558-4.378C17.165,0.708,16.588,0.667,16,0.667s-1.166,0.041-1.737,0.105L12.707,5.15c-0.716,0.217-1.401,0.502-2.05,0.849L6.464,4.005C5.554,4.73,4.73,5.554,4.005,6.464l1.994,4.192c-0.347,0.648-0.632,1.334-0.849,2.05l-4.378,1.557C0.708,14.834,0.667,15.412,0.667,16s0.041,1.165,0.105,1.736l4.378,1.558c0.217,0.715,0.502,1.401,0.849,2.049l-1.994,4.193c0.725,0.909,1.549,1.733,2.459,2.458l4.192-1.993c0.648,0.347,1.334,0.633,2.05,0.851l1.557,4.377c0.571,0.064,1.148,0.104,1.737,0.104c0.588,0,1.165-0.04,1.736-0.104l1.558-4.377c0.715-0.218,1.399-0.504,2.049-0.851l4.193,1.993c0.909-0.725,1.733-1.549,2.458-2.458l-1.993-4.193c0.347-0.647,0.633-1.334,0.851-2.049L31.229,17.736zM16,20.871c-2.69,0-4.872-2.182-4.872-4.871c0-2.69,2.182-4.872,4.872-4.872c2.689,0,4.871,2.182,4.871,4.872C20.871,18.689,18.689,20.871,16,20.871z"></path><title>Link options.</title></g></g></g></g><!--z-index:44--><g   id="j_413" ><path  stroke="#505050" d="M 2394 1262 L 2282 1157 C 2277.333333333333 1152.3333333333333 2272 1149 2266 1147 L 2104 1087" id="v-6459" stroke-width="2" fill="none" style="opacity: 1;"></path><path  fill="black" stroke="black" d="M 0 0 0 0" transform="matrix(-0.7284749746322632,-0.6850724220275879,0.6850724220275879,-0.7284749746322632,2394,1261.9100341796875)"></path><path  fill="#505050" stroke="#505050" d="M 20 0 L 0 10 L 20 20 z" id="v-6461" transform="matrix(0.939035952091217,0.34381893277168274,-0.34381893277168274,0.939035952091217,2107.438232421875,1077.999755859375)" style="opacity: 1;"></path><path  d="M 2394 1262 L 2282 1157 C 2277.333333333333 1152.3333333333333 2272 1149 2266 1147 L 2104 1087" id="v-6460" fill="none" style="cursor: default;"></path><g ><g id="v-6450"  label-idx="0" cursor="move" transform="matrix(1,0,0,1,2265.909423828125,1146.9664306640625)" style="cursor: default; opacity: 1;"><rect joint-selector="rect" id="v-6454" fill="#ffffff" rx="3" ry="3" pointer-events="none" width="138.88333129882812" height="34" transform="matrix(1,0,0,1,-69.4000015258789,-17)"></rect><text joint-selector="text" id="v-6453" font-size="24px" xml:space="preserve" y="0.8em" fill="#505050" text-anchor="middle" pointer-events="none" font-family="Open Sans" font-weight="normal" transform="matrix(1,0,0,1,0,-10.199999809265137)"><tspan  dy="0">Sends email</tspan></text></g><g id="v-6451"  label-idx="1" cursor="move" transform="matrix(1,0,0,1,2265.909423828125,1173.366455078125)" style="cursor: default; opacity: 1;"><rect joint-selector="rect" id="v-6456" fill="#ffffff" rx="3" ry="3" pointer-events="none" width="231.61666870117188" height="24" transform="matrix(1,0,0,1,-115.80000305175781,-12)"></rect><text joint-selector="text" id="v-6455" font-size="17px" xml:space="preserve" y="0.8em" fill="#505050" text-anchor="middle" pointer-events="none" font-family="Open Sans" font-weight="normal" transform="matrix(1,0,0,1,0,-6.599999904632568)"><tspan  dy="0">[SMTP via user's email mask]</tspan></text></g><g id="v-6452"  label-idx="2" cursor="move" transform="matrix(1,0,0,1,2255.909423828125,1181.7664794921875)" style="cursor: default; opacity: 1;"><rect joint-selector="rect" id="v-6458" fill="#ffffff" rx="3" ry="3"  width="0" height="0" transform="matrix(1,0,0,1,0,0)" display="none"></rect><text joint-selector="text" id="v-6457" fill="#000000" font-size="14" text-anchor="middle" pointer-events="none"></text></g></g><g  display="none"><g  transform="translate(2275, 1150)" id="v-6447"><circle  idx="0" r="10"></circle><path  idx="0" d="M16,5.333c-7.732,0-14,4.701-14,10.5c0,1.982,0.741,3.833,2.016,5.414L2,25.667l5.613-1.441c2.339,1.317,5.237,2.107,8.387,2.107c7.732,0,14-4.701,14-10.5C30,10.034,23.732,5.333,16,5.333z" transform="translate(5, -33)"></path><path  idx="0" transform="scale(.8) translate(9.5, -37)" d="M24.778,21.419 19.276,15.917 24.777,10.415 21.949,7.585 16.447,13.087 10.945,7.585 8.117,10.415 13.618,15.917 8.116,21.419 10.946,24.248 16.447,18.746 21.948,24.248z"><title>Remove vertex.</title></path></g></g><g  id="v-6463" display="none"><g  id="v-6448"><path  end="source" d="M 26 0 L 0 13 L 26 26 z"></path></g><g  id="v-6449"><path  end="target" d="M 26 0 L 0 13 L 26 26 z"></path></g></g><g  id="v-6462" display="none"><g  id="v-6446" transform="translate(2364.8185118343968, 1234.6423548447467) "><g  event="remove"><circle r="11"></circle><path transform="scale(.8) translate(-16, -16)" d="M24.778,21.419 19.276,15.917 24.777,10.415 21.949,7.585 16.447,13.087 10.945,7.585 8.117,10.415 13.618,15.917 8.116,21.419 10.946,24.248 16.447,18.746 21.948,24.248z"></path><title>Remove link.</title></g><g  event="link:options"><circle r="11" transform="translate(25)"></circle><path fill="white" transform="scale(.55) translate(29, -16)" d="M31.229,17.736c0.064-0.571,0.104-1.148,0.104-1.736s-0.04-1.166-0.104-1.737l-4.377-1.557c-0.218-0.716-0.504-1.401-0.851-2.05l1.993-4.192c-0.725-0.91-1.549-1.734-2.458-2.459l-4.193,1.994c-0.647-0.347-1.334-0.632-2.049-0.849l-1.558-4.378C17.165,0.708,16.588,0.667,16,0.667s-1.166,0.041-1.737,0.105L12.707,5.15c-0.716,0.217-1.401,0.502-2.05,0.849L6.464,4.005C5.554,4.73,4.73,5.554,4.005,6.464l1.994,4.192c-0.347,0.648-0.632,1.334-0.849,2.05l-4.378,1.557C0.708,14.834,0.667,15.412,0.667,16s0.041,1.165,0.105,1.736l4.378,1.558c0.217,0.715,0.502,1.401,0.849,2.049l-1.994,4.193c0.725,0.909,1.549,1.733,2.459,2.458l4.192-1.993c0.648,0.347,1.334,0.633,2.05,0.851l1.557,4.377c0.571,0.064,1.148,0.104,1.737,0.104c0.588,0,1.165-0.04,1.736-0.104l1.558-4.377c0.715-0.218,1.399-0.504,2.049-0.851l4.193,1.993c0.909-0.725,1.733-1.549,2.458-2.458l-1.993-4.193c0.347-0.647,0.633-1.334,0.851-2.049L31.229,17.736zM16,20.871c-2.69,0-4.872-2.182-4.872-4.871c0-2.69,2.182-4.872,4.872-4.872c2.689,0,4.871,2.182,4.871,4.872C20.871,18.689,18.689,20.871,16,20.871z"></path><title>Link options.</title></g></g></g></g><!--z-index:45--><g   id="j_414" ><path  stroke="#505050" d="M 2394 789 L 2270 757 C 2263.333333333333 755.6666666666666 2257.333333333333 756.6666666666666 2252 760 L 2104 857" id="v-6480" stroke-width="2" fill="none" style="opacity: 1;"></path><path  fill="black" stroke="black" d="M 0 0 0 0" transform="matrix(-0.9691128730773926,-0.2466176301240921,0.2466176301240921,-0.9691128730773926,2394,789.0999755859375)"></path><path  fill="#505050" stroke="#505050" d="M 20 0 L 0 10 L 20 20 z" id="v-6482" transform="matrix(0.8360849022865295,-0.5486000776290894,0.5486000776290894,0.8360849022865295,2098.513916015625,848.9991455078125)" style="opacity: 1;"></path><path  d="M 2394 789 L 2270 757 C 2263.333333333333 755.6666666666666 2257.333333333333 756.6666666666666 2252 760 L 2104 857" id="v-6481" fill="none" style="cursor: default;"></path><g ><g id="v-6471"  label-idx="0" cursor="move" transform="matrix(1,0,0,1,2239.3798828125,768.271240234375)" style="cursor: default; opacity: 1;"><rect joint-selector="rect" id="v-6475" fill="#ffffff" rx="3" ry="3" pointer-events="none" width="138.51666259765625" height="62.79999923706055" transform="matrix(1,0,0,1,-69.30000305175781,-31.399999618530273)"></rect><text joint-selector="text" id="v-6474" font-size="24px" xml:space="preserve" y="0.8em" fill="#505050" text-anchor="middle" pointer-events="none" font-family="Open Sans" font-weight="normal" transform="matrix(1,0,0,1,0,-24.600000381469727)"><tspan  dy="0">Sends texts,</tspan><tspan dy="1.2em" x="0" >starts calls</tspan></text></g><g id="v-6472"  label-idx="1" cursor="move" transform="matrix(1,0,0,1,2239.3798828125,809.0712280273438)" style="cursor: default; opacity: 1;"><rect joint-selector="rect" id="v-6477" fill="#ffffff" rx="3" ry="3" pointer-events="none" width="236.88333129882812" height="24" transform="matrix(1,0,0,1,-118.4000015258789,-12)"></rect><text joint-selector="text" id="v-6476" font-size="17px" xml:space="preserve" y="0.8em" fill="#505050" text-anchor="middle" pointer-events="none" font-family="Open Sans" font-weight="normal" transform="matrix(1,0,0,1,0,-6.599999904632568)"><tspan  dy="0">[PSTN via user's phone mask]</tspan></text></g><g id="v-6473"  label-idx="2" cursor="move" transform="matrix(1,0,0,1,2229.3798828125,817.4712524414062)" style="cursor: default; opacity: 1;"><rect joint-selector="rect" id="v-6479" fill="#ffffff" rx="3" ry="3"  width="0" height="0" transform="matrix(1,0,0,1,0,0)" display="none"></rect><text joint-selector="text" id="v-6478" fill="#000000" font-size="14" text-anchor="middle" pointer-events="none"></text></g></g><g  display="none"><g  transform="translate(2260, 755)" id="v-6468"><circle  idx="0" r="10"></circle><path  idx="0" d="M16,5.333c-7.732,0-14,4.701-14,10.5c0,1.982,0.741,3.833,2.016,5.414L2,25.667l5.613-1.441c2.339,1.317,5.237,2.107,8.387,2.107c7.732,0,14-4.701,14-10.5C30,10.034,23.732,5.333,16,5.333z" transform="translate(5, -33)"></path><path  idx="0" transform="scale(.8) translate(9.5, -37)" d="M24.778,21.419 19.276,15.917 24.777,10.415 21.949,7.585 16.447,13.087 10.945,7.585 8.117,10.415 13.618,15.917 8.116,21.419 10.946,24.248 16.447,18.746 21.948,24.248z"><title>Remove vertex.</title></path></g></g><g  id="v-6484" display="none"><g  id="v-6469"><path  end="source" d="M 26 0 L 0 13 L 26 26 z"></path></g><g  id="v-6470"><path  end="target" d="M 26 0 L 0 13 L 26 26 z"></path></g></g><g  id="v-6483" display="none"><g  id="v-6467" transform="translate(2355.268907051626, 779.0048792391292) "><g  event="remove"><circle r="11"></circle><path transform="scale(.8) translate(-16, -16)" d="M24.778,21.419 19.276,15.917 24.777,10.415 21.949,7.585 16.447,13.087 10.945,7.585 8.117,10.415 13.618,15.917 8.116,21.419 10.946,24.248 16.447,18.746 21.948,24.248z"></path><title>Remove link.</title></g><g  event="link:options"><circle r="11" transform="translate(25)"></circle><path fill="white" transform="scale(.55) translate(29, -16)" d="M31.229,17.736c0.064-0.571,0.104-1.148,0.104-1.736s-0.04-1.166-0.104-1.737l-4.377-1.557c-0.218-0.716-0.504-1.401-0.851-2.05l1.993-4.192c-0.725-0.91-1.549-1.734-2.458-2.459l-4.193,1.994c-0.647-0.347-1.334-0.632-2.049-0.849l-1.558-4.378C17.165,0.708,16.588,0.667,16,0.667s-1.166,0.041-1.737,0.105L12.707,5.15c-0.716,0.217-1.401,0.502-2.05,0.849L6.464,4.005C5.554,4.73,4.73,5.554,4.005,6.464l1.994,4.192c-0.347,0.648-0.632,1.334-0.849,2.05l-4.378,1.557C0.708,14.834,0.667,15.412,0.667,16s0.041,1.165,0.105,1.736l4.378,1.558c0.217,0.715,0.502,1.401,0.849,2.049l-1.994,4.193c0.725,0.909,1.549,1.733,2.459,2.458l4.192-1.993c0.648,0.347,1.334,0.633,2.05,0.851l1.557,4.377c0.571,0.064,1.148,0.104,1.737,0.104c0.588,0,1.165-0.04,1.736-0.104l1.558-4.377c0.715-0.218,1.399-0.504,2.049-0.851l4.193,1.993c0.909-0.725,1.733-1.549,2.458-2.458l-1.993-4.193c0.347-0.647,0.633-1.334,0.851-2.049L31.229,17.736zM16,20.871c-2.69,0-4.872-2.182-4.872-4.871c0-2.69,2.182-4.872,4.872-4.872c2.689,0,4.871,2.182,4.871,4.872C20.871,18.689,18.689,20.871,16,20.871z"></path><title>Link options.</title></g></g></g></g><!--z-index:46--><g   id="j_415" ><path  stroke="#505050" d="M 1854 855 L 1817 632 C 1815.6666666666665 625.3333333333333 1812.3333333333333 620 1807 616 L 1699 541" id="v-6501" stroke-width="2" fill="none" style="opacity: 1;"></path><path  fill="black" stroke="black" d="M 0 0 0 0" transform="matrix(-0.16479702293872833,-0.9863275289535522,0.9863275289535522,-0.16479702293872833,1853.9300537109375,855)"></path><path  fill="#505050" stroke="#505050" d="M 20 0 L 0 10 L 20 20 z" id="v-6503" transform="matrix(0.8182697296142578,0.5748344659805298,-0.5748344659805298,0.8182697296142578,1704.7484130859375,532.3273315429688)" style="opacity: 1;"></path><path  d="M 1854 855 L 1817 632 C 1815.6666666666665 625.3333333333333 1812.3333333333333 620 1807 616 L 1699 541" id="v-6502" fill="none" style="cursor: default;"></path><g ><g id="v-6492"  label-idx="0" cursor="move" transform="matrix(1,0,0,1,1823.1580810546875,669.115234375)" style="cursor: default; opacity: 1;"><rect joint-selector="rect" id="v-6496" fill="#ffffff" rx="3" ry="3" pointer-events="none" width="175.89999389648438" height="34" transform="matrix(1,0,0,1,-87.9000015258789,-17)"></rect><text joint-selector="text" id="v-6495" font-size="24px" xml:space="preserve" y="0.8em" fill="#505050" text-anchor="middle" pointer-events="none" font-family="Open Sans" font-weight="normal" transform="matrix(1,0,0,1,0,-10.199999809265137)"><tspan  dy="0">Forwards email</tspan></text></g><g id="v-6493"  label-idx="1" cursor="move" transform="matrix(1,0,0,1,1823.1580810546875,695.5152587890625)" style="cursor: default; opacity: 1;"><rect joint-selector="rect" id="v-6498" fill="#ffffff" rx="3" ry="3" pointer-events="none" width="219.63333129882812" height="24" transform="matrix(1,0,0,1,-109.80000305175781,-12)"></rect><text joint-selector="text" id="v-6497" font-size="17px" xml:space="preserve" y="0.8em" fill="#505050" text-anchor="middle" pointer-events="none" font-family="Open Sans" font-weight="normal" transform="matrix(1,0,0,1,0,-6.599999904632568)"><tspan  dy="0">[SMTP via user's real email]</tspan></text></g><g id="v-6494"  label-idx="2" cursor="move" transform="matrix(1,0,0,1,1813.1580810546875,703.915283203125)" style="cursor: default; opacity: 1;"><rect joint-selector="rect" id="v-6500" fill="#ffffff" rx="3" ry="3"  width="0" height="0" transform="matrix(1,0,0,1,0,0)" display="none"></rect><text joint-selector="text" id="v-6499" fill="#000000" font-size="14" text-anchor="middle" pointer-events="none"></text></g></g><g  display="none"><g  transform="translate(1815, 622)" id="v-6489"><circle  idx="0" r="10"></circle><path  idx="0" d="M16,5.333c-7.732,0-14,4.701-14,10.5c0,1.982,0.741,3.833,2.016,5.414L2,25.667l5.613-1.441c2.339,1.317,5.237,2.107,8.387,2.107c7.732,0,14-4.701,14-10.5C30,10.034,23.732,5.333,16,5.333z" transform="translate(5, -33)"></path><path  idx="0" transform="scale(.8) translate(9.5, -37)" d="M24.778,21.419 19.276,15.917 24.777,10.415 21.949,7.585 16.447,13.087 10.945,7.585 8.117,10.415 13.618,15.917 8.116,21.419 10.946,24.248 16.447,18.746 21.948,24.248z"><title>Remove vertex.</title></path></g></g><g  id="v-6505" display="none"><g  id="v-6490"><path  end="source" d="M 26 0 L 0 13 L 26 26 z"></path></g><g  id="v-6491"><path  end="target" d="M 26 0 L 0 13 L 26 26 z"></path></g></g><g  id="v-6504" display="none"><g  id="v-6488" transform="translate(1847.452737335259, 815.539470966561) "><g  event="remove"><circle r="11"></circle><path transform="scale(.8) translate(-16, -16)" d="M24.778,21.419 19.276,15.917 24.777,10.415 21.949,7.585 16.447,13.087 10.945,7.585 8.117,10.415 13.618,15.917 8.116,21.419 10.946,24.248 16.447,18.746 21.948,24.248z"></path><title>Remove link.</title></g><g  event="link:options"><circle r="11" transform="translate(25)"></circle><path fill="white" transform="scale(.55) translate(29, -16)" d="M31.229,17.736c0.064-0.571,0.104-1.148,0.104-1.736s-0.04-1.166-0.104-1.737l-4.377-1.557c-0.218-0.716-0.504-1.401-0.851-2.05l1.993-4.192c-0.725-0.91-1.549-1.734-2.458-2.459l-4.193,1.994c-0.647-0.347-1.334-0.632-2.049-0.849l-1.558-4.378C17.165,0.708,16.588,0.667,16,0.667s-1.166,0.041-1.737,0.105L12.707,5.15c-0.716,0.217-1.401,0.502-2.05,0.849L6.464,4.005C5.554,4.73,4.73,5.554,4.005,6.464l1.994,4.192c-0.347,0.648-0.632,1.334-0.849,2.05l-4.378,1.557C0.708,14.834,0.667,15.412,0.667,16s0.041,1.165,0.105,1.736l4.378,1.558c0.217,0.715,0.502,1.401,0.849,2.049l-1.994,4.193c0.725,0.909,1.549,1.733,2.459,2.458l4.192-1.993c0.648,0.347,1.334,0.633,2.05,0.851l1.557,4.377c0.571,0.064,1.148,0.104,1.737,0.104c0.588,0,1.165-0.04,1.736-0.104l1.558-4.377c0.715-0.218,1.399-0.504,2.049-0.851l4.193,1.993c0.909-0.725,1.733-1.549,2.458-2.458l-1.993-4.193c0.347-0.647,0.633-1.334,0.851-2.049L31.229,17.736zM16,20.871c-2.69,0-4.872-2.182-4.872-4.871c0-2.69,2.182-4.872,4.872-4.872c2.689,0,4.871,2.182,4.871,4.872C20.871,18.689,18.689,20.871,16,20.871z"></path><title>Link options.</title></g></g></g></g><!--z-index:47--><g   id="j_416" ><path  stroke="#505050" d="M 2062 1155 L 2212 1279 C 2217.333333333333 1283 2223 1286.3333333333333 2229 1289 L 2394 1362" id="v-6522" stroke-width="2" fill="none" style="opacity: 1;"></path><path  fill="black" stroke="black" d="M 0 0 0 0" transform="matrix(0.772842526435852,0.6345978379249573,-0.6345978379249573,0.772842526435852,2061.679931640625,1155)"></path><path  fill="#505050" stroke="#505050" d="M 20 0 L 0 10 L 20 20 z" id="v-6524" transform="matrix(-0.9149269461631775,-0.4036194086074829,0.4036194086074829,-0.9149269461631775,2389.9638671875,1370.9091796875)" style="opacity: 1;"></path><path  d="M 2062 1155 L 2212 1279 C 2217.333333333333 1283 2223 1286.3333333333333 2229 1289 L 2394 1362" id="v-6523" fill="none" style="cursor: default;"></path><g ><g id="v-6513"  label-idx="0" cursor="move" transform="matrix(1,0,0,1,2214.269775390625,1280.64794921875)" style="cursor: default; opacity: 1;"><rect joint-selector="rect" id="v-6517" fill="#ffffff" rx="3" ry="3" pointer-events="none" width="152.75" height="34" transform="matrix(1,0,0,1,-76.4000015258789,-17)"></rect><text joint-selector="text" id="v-6516" font-size="24px" xml:space="preserve" y="0.8em" fill="#505050" text-anchor="middle" pointer-events="none" font-family="Open Sans" font-weight="normal" transform="matrix(1,0,0,1,0,-10.199999809265137)"><tspan  dy="0">Sends replies</tspan></text></g><g id="v-6514"  label-idx="1" cursor="move" transform="matrix(1,0,0,1,2214.269775390625,1307.0479736328125)" style="cursor: default; opacity: 1;"><rect joint-selector="rect" id="v-6519" fill="#ffffff" rx="3" ry="3" pointer-events="none" width="231.61666870117188" height="24" transform="matrix(1,0,0,1,-115.80000305175781,-12)"></rect><text joint-selector="text" id="v-6518" font-size="17px" xml:space="preserve" y="0.8em" fill="#505050" text-anchor="middle" pointer-events="none" font-family="Open Sans" font-weight="normal" transform="matrix(1,0,0,1,0,-6.599999904632568)"><tspan  dy="0">[SMTP via user's email mask]</tspan></text></g><g id="v-6515"  label-idx="2" cursor="move" transform="matrix(1,0,0,1,2204.269775390625,1315.447998046875)" style="cursor: default; opacity: 1;"><rect joint-selector="rect" id="v-6521" fill="#ffffff" rx="3" ry="3"  width="0" height="0" transform="matrix(1,0,0,1,0,0)" display="none"></rect><text joint-selector="text" id="v-6520" fill="#000000" font-size="14" text-anchor="middle" pointer-events="none"></text></g></g><g  display="none"><g  transform="translate(2220, 1285)" id="v-6510"><circle  idx="0" r="10"></circle><path  idx="0" d="M16,5.333c-7.732,0-14,4.701-14,10.5c0,1.982,0.741,3.833,2.016,5.414L2,25.667l5.613-1.441c2.339,1.317,5.237,2.107,8.387,2.107c7.732,0,14-4.701,14-10.5C30,10.034,23.732,5.333,16,5.333z" transform="translate(5, -33)"></path><path  idx="0" transform="scale(.8) translate(9.5, -37)" d="M24.778,21.419 19.276,15.917 24.777,10.415 21.949,7.585 16.447,13.087 10.945,7.585 8.117,10.415 13.618,15.917 8.116,21.419 10.946,24.248 16.447,18.746 21.948,24.248z"><title>Remove vertex.</title></path></g></g><g  id="v-6526" display="none"><g  id="v-6511"><path  end="source" d="M 26 0 L 0 13 L 26 26 z"></path></g><g  id="v-6512"><path  end="target" d="M 26 0 L 0 13 L 26 26 z"></path></g></g><g  id="v-6525" display="none"><g  id="v-6509" transform="translate(2092.8296927423653, 1180.485879333689) "><g  event="remove"><circle r="11"></circle><path transform="scale(.8) translate(-16, -16)" d="M24.778,21.419 19.276,15.917 24.777,10.415 21.949,7.585 16.447,13.087 10.945,7.585 8.117,10.415 13.618,15.917 8.116,21.419 10.946,24.248 16.447,18.746 21.948,24.248z"></path><title>Remove link.</title></g><g  event="link:options"><circle r="11" transform="translate(25)"></circle><path fill="white" transform="scale(.55) translate(29, -16)" d="M31.229,17.736c0.064-0.571,0.104-1.148,0.104-1.736s-0.04-1.166-0.104-1.737l-4.377-1.557c-0.218-0.716-0.504-1.401-0.851-2.05l1.993-4.192c-0.725-0.91-1.549-1.734-2.458-2.459l-4.193,1.994c-0.647-0.347-1.334-0.632-2.049-0.849l-1.558-4.378C17.165,0.708,16.588,0.667,16,0.667s-1.166,0.041-1.737,0.105L12.707,5.15c-0.716,0.217-1.401,0.502-2.05,0.849L6.464,4.005C5.554,4.73,4.73,5.554,4.005,6.464l1.994,4.192c-0.347,0.648-0.632,1.334-0.849,2.05l-4.378,1.557C0.708,14.834,0.667,15.412,0.667,16s0.041,1.165,0.105,1.736l4.378,1.558c0.217,0.715,0.502,1.401,0.849,2.049l-1.994,4.193c0.725,0.909,1.549,1.733,2.459,2.458l4.192-1.993c0.648,0.347,1.334,0.633,2.05,0.851l1.557,4.377c0.571,0.064,1.148,0.104,1.737,0.104c0.588,0,1.165-0.04,1.736-0.104l1.558-4.377c0.715-0.218,1.399-0.504,2.049-0.851l4.193,1.993c0.909-0.725,1.733-1.549,2.458-2.458l-1.993-4.193c0.347-0.647,0.633-1.334,0.851-2.049L31.229,17.736zM16,20.871c-2.69,0-4.872-2.182-4.872-4.871c0-2.69,2.182-4.872,4.872-4.872c2.689,0,4.871,2.182,4.871,4.872C20.871,18.689,18.689,20.871,16,20.871z"></path><title>Link options.</title></g></g></g></g><!--z-index:48--><g   id="j_417" ><path  stroke="#505050" d="M 2104 996 L 2245 990 C 2251.6666666666665 990 2258 988.6666666666666 2264 986 L 2394 929" id="v-6543" stroke-width="2" fill="none" style="opacity: 1;"></path><path  fill="black" stroke="black" d="M 0 0 0 0" transform="matrix(0.9992062449455261,-0.039835672825574875,0.039835672825574875,0.9992062449455261,2104,996.02001953125)"></path><path  fill="#505050" stroke="#505050" d="M 20 0 L 0 10 L 20 20 z" id="v-6545" transform="matrix(-0.9144884943962097,0.40461185574531555,-0.40461185574531555,-0.9144884943962097,2398.046142578125,937.6448974609375)" style="opacity: 1;"></path><path  d="M 2104 996 L 2245 990 C 2251.6666666666665 990 2258 988.6666666666666 2264 986 L 2394 929" id="v-6544" fill="none" style="cursor: default;"></path><g ><g id="v-6534"  label-idx="0" cursor="move" transform="matrix(1,0,0,1,2255.12060546875,988.9203491210938)" style="cursor: default; opacity: 1;"><rect joint-selector="rect" id="v-6538" fill="#ffffff" rx="3" ry="3" pointer-events="none" width="194.60000610351562" height="34" transform="matrix(1,0,0,1,-97.30000305175781,-17)"></rect><text joint-selector="text" id="v-6537" font-size="24px" xml:space="preserve" y="0.8em" fill="#505050" text-anchor="middle" pointer-events="none" font-family="Open Sans" font-weight="normal" transform="matrix(1,0,0,1,0,-10.199999809265137)"><tspan  dy="0">Sends reply texts</tspan></text></g><g id="v-6535"  label-idx="1" cursor="move" transform="matrix(1,0,0,1,2255.12060546875,1015.3203735351562)" style="cursor: default; opacity: 1;"><rect joint-selector="rect" id="v-6540" fill="#ffffff" rx="3" ry="3" pointer-events="none" width="236.88333129882812" height="24" transform="matrix(1,0,0,1,-118.4000015258789,-12)"></rect><text joint-selector="text" id="v-6539" font-size="17px" xml:space="preserve" y="0.8em" fill="#505050" text-anchor="middle" pointer-events="none" font-family="Open Sans" font-weight="normal" transform="matrix(1,0,0,1,0,-6.599999904632568)"><tspan  dy="0">[PSTN via user's phone mask]</tspan></text></g><g id="v-6536"  label-idx="2" cursor="move" transform="matrix(1,0,0,1,2245.12060546875,1023.7203369140625)" style="cursor: default; opacity: 1;"><rect joint-selector="rect" id="v-6542" fill="#ffffff" rx="3" ry="3"  width="0" height="0" transform="matrix(1,0,0,1,0,0)" display="none"></rect><text joint-selector="text" id="v-6541" fill="#000000" font-size="14" text-anchor="middle" pointer-events="none"></text></g></g><g  display="none"><g  transform="translate(2255, 990)" id="v-6531"><circle  idx="0" r="10"></circle><path  idx="0" d="M16,5.333c-7.732,0-14,4.701-14,10.5c0,1.982,0.741,3.833,2.016,5.414L2,25.667l5.613-1.441c2.339,1.317,5.237,2.107,8.387,2.107c7.732,0,14-4.701,14-10.5C30,10.034,23.732,5.333,16,5.333z" transform="translate(5, -33)"></path><path  idx="0" transform="scale(.8) translate(9.5, -37)" d="M24.778,21.419 19.276,15.917 24.777,10.415 21.949,7.585 16.447,13.087 10.945,7.585 8.117,10.415 13.618,15.917 8.116,21.419 10.946,24.248 16.447,18.746 21.948,24.248z"><title>Remove vertex.</title></path></g></g><g  id="v-6547" display="none"><g  id="v-6532"><path  end="source" d="M 26 0 L 0 13 L 26 26 z"></path></g><g  id="v-6533"><path  end="target" d="M 26 0 L 0 13 L 26 26 z"></path></g></g><g  id="v-6546" display="none"><g  id="v-6530" transform="translate(2143.9638336273247, 994.2994113350074) "><g  event="remove"><circle r="11"></circle><path transform="scale(.8) translate(-16, -16)" d="M24.778,21.419 19.276,15.917 24.777,10.415 21.949,7.585 16.447,13.087 10.945,7.585 8.117,10.415 13.618,15.917 8.116,21.419 10.946,24.248 16.447,18.746 21.948,24.248z"></path><title>Remove link.</title></g><g  event="link:options"><circle r="11" transform="translate(25)"></circle><path fill="white" transform="scale(.55) translate(29, -16)" d="M31.229,17.736c0.064-0.571,0.104-1.148,0.104-1.736s-0.04-1.166-0.104-1.737l-4.377-1.557c-0.218-0.716-0.504-1.401-0.851-2.05l1.993-4.192c-0.725-0.91-1.549-1.734-2.458-2.459l-4.193,1.994c-0.647-0.347-1.334-0.632-2.049-0.849l-1.558-4.378C17.165,0.708,16.588,0.667,16,0.667s-1.166,0.041-1.737,0.105L12.707,5.15c-0.716,0.217-1.401,0.502-2.05,0.849L6.464,4.005C5.554,4.73,4.73,5.554,4.005,6.464l1.994,4.192c-0.347,0.648-0.632,1.334-0.849,2.05l-4.378,1.557C0.708,14.834,0.667,15.412,0.667,16s0.041,1.165,0.105,1.736l4.378,1.558c0.217,0.715,0.502,1.401,0.849,2.049l-1.994,4.193c0.725,0.909,1.549,1.733,2.459,2.458l4.192-1.993c0.648,0.347,1.334,0.633,2.05,0.851l1.557,4.377c0.571,0.064,1.148,0.104,1.737,0.104c0.588,0,1.165-0.04,1.736-0.104l1.558-4.377c0.715-0.218,1.399-0.504,2.049-0.851l4.193,1.993c0.909-0.725,1.733-1.549,2.458-2.458l-1.993-4.193c0.347-0.647,0.633-1.334,0.851-2.049L31.229,17.736zM16,20.871c-2.69,0-4.872-2.182-4.872-4.871c0-2.69,2.182-4.872,4.872-4.872c2.689,0,4.871,2.182,4.871,4.872C20.871,18.689,18.689,20.871,16,20.871z"></path><title>Link options.</title></g></g></g></g><!--z-index:49--><g   id="j_418" ><path  stroke="#505050" d="M 1670 1155 L 1203 1489" id="v-6563" stroke-width="2" fill="none" style="opacity: 1;"></path><path  fill="black" stroke="black" d="M 0 0 0 0" transform="matrix(-0.8129315376281738,0.582359254360199,-0.582359254360199,-0.8129315376281738,1669.6199951171875,1155)"></path><path  fill="#505050" stroke="#505050" d="M 20 0 L 0 10 L 20 20 z" id="v-6565" transform="matrix(0.8129316568374634,-0.5823590755462646,0.5823590755462646,0.8129316568374634,1197.556396484375,1480.87060546875)" style="opacity: 1;"></path><path  d="M 1670 1155 L 1203 1489" id="v-6564" fill="none" style="cursor: default;"></path><g ><g id="v-6554"  label-idx="0" cursor="move" transform="matrix(1,0,0,1,1436.5,1322)" style="cursor: default; opacity: 1;"><rect joint-selector="rect" id="v-6558" fill="#ffffff" rx="3" ry="3" pointer-events="none" width="142.76666259765625" height="62.79999923706055" transform="matrix(1,0,0,1,-71.4000015258789,-31.399999618530273)"></rect><text joint-selector="text" id="v-6557" font-size="24px" xml:space="preserve" y="0.8em" fill="#505050" text-anchor="middle" pointer-events="none" font-family="Open Sans" font-weight="normal" transform="matrix(1,0,0,1,0,-24.600000381469727)"><tspan  dy="0">Sends Glean</tspan><tspan dy="1.2em" x="0" >events</tspan></text></g><g id="v-6555"  label-idx="1" cursor="move" transform="matrix(1,0,0,1,1436.5,1362.800048828125)" style="cursor: default; opacity: 1;"><rect joint-selector="rect" id="v-6560" fill="#ffffff" rx="3" ry="3" pointer-events="none" width="168.25" height="24" transform="matrix(1,0,0,1,-84.0999984741211,-12)"></rect><text joint-selector="text" id="v-6559" font-size="17px" xml:space="preserve" y="0.8em" fill="#505050" text-anchor="middle" pointer-events="none" font-family="Open Sans" font-weight="normal" transform="matrix(1,0,0,1,0,-6.599999904632568)"><tspan  dy="0">[JSON over GCP SNS]</tspan></text></g><g id="v-6556"  label-idx="2" cursor="move" transform="matrix(1,0,0,1,1426.5,1371.199951171875)" style="cursor: default; opacity: 1;"><rect joint-selector="rect" id="v-6562" fill="#ffffff" rx="3" ry="3"  width="0" height="0" transform="matrix(1,0,0,1,0,0)" display="none"></rect><text joint-selector="text" id="v-6561" fill="#000000" font-size="14" text-anchor="middle" pointer-events="none"></text></g></g><g  display="none"></g><g  id="v-6567" display="none"><g  id="v-6552"><path  end="source" d="M 26 0 L 0 13 L 26 26 z"></path></g><g  id="v-6553"><path  end="target" d="M 26 0 L 0 13 L 26 26 z"></path></g></g><g  id="v-6566" display="none"><g  id="v-6551" transform="translate(1637.4647891587324, 1178.2692942633475) "><g  event="remove"><circle r="11"></circle><path transform="scale(.8) translate(-16, -16)" d="M24.778,21.419 19.276,15.917 24.777,10.415 21.949,7.585 16.447,13.087 10.945,7.585 8.117,10.415 13.618,15.917 8.116,21.419 10.946,24.248 16.447,18.746 21.948,24.248z"></path><title>Remove link.</title></g><g  event="link:options"><circle r="11" transform="translate(25)"></circle><path fill="white" transform="scale(.55) translate(29, -16)" d="M31.229,17.736c0.064-0.571,0.104-1.148,0.104-1.736s-0.04-1.166-0.104-1.737l-4.377-1.557c-0.218-0.716-0.504-1.401-0.851-2.05l1.993-4.192c-0.725-0.91-1.549-1.734-2.458-2.459l-4.193,1.994c-0.647-0.347-1.334-0.632-2.049-0.849l-1.558-4.378C17.165,0.708,16.588,0.667,16,0.667s-1.166,0.041-1.737,0.105L12.707,5.15c-0.716,0.217-1.401,0.502-2.05,0.849L6.464,4.005C5.554,4.73,4.73,5.554,4.005,6.464l1.994,4.192c-0.347,0.648-0.632,1.334-0.849,2.05l-4.378,1.557C0.708,14.834,0.667,15.412,0.667,16s0.041,1.165,0.105,1.736l4.378,1.558c0.217,0.715,0.502,1.401,0.849,2.049l-1.994,4.193c0.725,0.909,1.549,1.733,2.459,2.458l4.192-1.993c0.648,0.347,1.334,0.633,2.05,0.851l1.557,4.377c0.571,0.064,1.148,0.104,1.737,0.104c0.588,0,1.165-0.04,1.736-0.104l1.558-4.377c0.715-0.218,1.399-0.504,2.049-0.851l4.193,1.993c0.909-0.725,1.733-1.549,2.458-2.458l-1.993-4.193c0.347-0.647,0.633-1.334,0.851-2.049L31.229,17.736zM16,20.871c-2.69,0-4.872-2.182-4.872-4.871c0-2.69,2.182-4.872,4.872-4.872c2.689,0,4.871,2.182,4.871,4.872C20.871,18.689,18.689,20.871,16,20.871z"></path><title>Link options.</title></g></g></g></g><!--z-index:50--><g   id="j_419" ><path  stroke="#505050" d="M 1918 1155 L 2005 1489" id="v-6583" stroke-width="2" fill="none" style="opacity: 1;"></path><path  fill="black" stroke="black" d="M 0 0 0 0" transform="matrix(0.2518509030342102,0.9677660465240479,-0.9677660465240479,0.2518509030342102,1918.0400390625,1155)"></path><path  fill="#505050" stroke="#505050" d="M 20 0 L 0 10 L 20 20 z" id="v-6585" transform="matrix(-0.2518509030342102,-0.9677660465240479,0.9677660465240479,-0.2518509030342102,1995.2823486328125,1491.5185546875)" style="opacity: 1;"></path><path  d="M 1918 1155 L 2005 1489" id="v-6584" fill="none" style="cursor: default;"></path><g ><g id="v-6574"  label-idx="0" cursor="move" transform="matrix(1,0,0,1,1961.5,1322)" style="cursor: default; opacity: 1;"><rect joint-selector="rect" id="v-6578" fill="#ffffff" rx="3" ry="3" pointer-events="none" width="160.78334045410156" height="34" transform="matrix(1,0,0,1,-80.4000015258789,-17)"></rect><text joint-selector="text" id="v-6577" font-size="24px" xml:space="preserve" y="0.8em" fill="#505050" text-anchor="middle" pointer-events="none" font-family="Open Sans" font-weight="normal" transform="matrix(1,0,0,1,0,-10.199999809265137)"><tspan  dy="0">Sends metrics</tspan></text></g><g id="v-6575"  label-idx="1" cursor="move" transform="matrix(1,0,0,1,1961.5,1348.4000244140625)" style="cursor: default; opacity: 1;"><rect joint-selector="rect" id="v-6580" fill="#ffffff" rx="3" ry="3" pointer-events="none" width="79.23332977294922" height="24" transform="matrix(1,0,0,1,-39.599998474121094,-12)"></rect><text joint-selector="text" id="v-6579" font-size="17px" xml:space="preserve" y="0.8em" fill="#505050" text-anchor="middle" pointer-events="none" font-family="Open Sans" font-weight="normal" transform="matrix(1,0,0,1,0,-6.599999904632568)"><tspan  dy="0">[Telegraf]</tspan></text></g><g id="v-6576"  label-idx="2" cursor="move" transform="matrix(1,0,0,1,1951.5,1356.800048828125)" style="cursor: default; opacity: 1;"><rect joint-selector="rect" id="v-6582" fill="#ffffff" rx="3" ry="3"  width="0" height="0" transform="matrix(1,0,0,1,0,0)" display="none"></rect><text joint-selector="text" id="v-6581" fill="#000000" font-size="14" text-anchor="middle" pointer-events="none"></text></g></g><g  display="none"></g><g  id="v-6587" display="none"><g  id="v-6572"><path  end="source" d="M 26 0 L 0 13 L 26 26 z"></path></g><g  id="v-6573"><path  end="target" d="M 26 0 L 0 13 L 26 26 z"></path></g></g><g  id="v-6586" display="none"><g  id="v-6571" transform="translate(1928.0827218630632, 1193.7083804857825) "><g  event="remove"><circle r="11"></circle><path transform="scale(.8) translate(-16, -16)" d="M24.778,21.419 19.276,15.917 24.777,10.415 21.949,7.585 16.447,13.087 10.945,7.585 8.117,10.415 13.618,15.917 8.116,21.419 10.946,24.248 16.447,18.746 21.948,24.248z"></path><title>Remove link.</title></g><g  event="link:options"><circle r="11" transform="translate(25)"></circle><path fill="white" transform="scale(.55) translate(29, -16)" d="M31.229,17.736c0.064-0.571,0.104-1.148,0.104-1.736s-0.04-1.166-0.104-1.737l-4.377-1.557c-0.218-0.716-0.504-1.401-0.851-2.05l1.993-4.192c-0.725-0.91-1.549-1.734-2.458-2.459l-4.193,1.994c-0.647-0.347-1.334-0.632-2.049-0.849l-1.558-4.378C17.165,0.708,16.588,0.667,16,0.667s-1.166,0.041-1.737,0.105L12.707,5.15c-0.716,0.217-1.401,0.502-2.05,0.849L6.464,4.005C5.554,4.73,4.73,5.554,4.005,6.464l1.994,4.192c-0.347,0.648-0.632,1.334-0.849,2.05l-4.378,1.557C0.708,14.834,0.667,15.412,0.667,16s0.041,1.165,0.105,1.736l4.378,1.558c0.217,0.715,0.502,1.401,0.849,2.049l-1.994,4.193c0.725,0.909,1.549,1.733,2.459,2.458l4.192-1.993c0.648,0.347,1.334,0.633,2.05,0.851l1.557,4.377c0.571,0.064,1.148,0.104,1.737,0.104c0.588,0,1.165-0.04,1.736-0.104l1.558-4.377c0.715-0.218,1.399-0.504,2.049-0.851l4.193,1.993c0.909-0.725,1.733-1.549,2.458-2.458l-1.993-4.193c0.347-0.647,0.633-1.334,0.851-2.049L31.229,17.736zM16,20.871c-2.69,0-4.872-2.182-4.872-4.871c0-2.69,2.182-4.872,4.872-4.872c2.689,0,4.871,2.182,4.871,4.872C20.871,18.689,18.689,20.871,16,20.871z"></path><title>Link options.</title></g></g></g></g><!--z-index:51--><g   id="j_420" ><path  stroke="#505050" d="M 905 1059 L 649 1136" id="v-6600" stroke-width="2" fill="none" style="opacity: 1;"></path><path  fill="black" stroke="black" d="M 0 0 0 0" transform="matrix(-0.9566249847412109,0.291322261095047,-0.291322261095047,-0.9566249847412109,905,1058.52001953125)"></path><path  fill="#505050" stroke="#505050" d="M 20 0 L 0 10 L 20 20 z" id="v-6602" transform="matrix(0.9566249847412109,-0.291322261095047,0.291322261095047,0.9566249847412109,646.0867309570312,1126.9136962890625)" style="opacity: 1;"></path><path  d="M 905 1059 L 649 1136" id="v-6601" fill="none" style="cursor: default;"></path><g ><g id="v-6591"  label-idx="0" cursor="move" transform="matrix(1,0,0,1,777,1097.5)" style="cursor: default; opacity: 1;"><rect joint-selector="rect" id="v-6595" fill="#ffffff" rx="3" ry="3" pointer-events="none" width="57.849998474121094" height="34" transform="matrix(1,0,0,1,-28.899999618530273,-17)"></rect><text joint-selector="text" id="v-6594" font-size="24px" xml:space="preserve" y="0.8em" fill="#505050" text-anchor="middle" pointer-events="none" font-family="Open Sans" font-weight="normal" transform="matrix(1,0,0,1,0,-10.199999809265137)"><tspan  dy="0">Uses</tspan></text></g><g id="v-6592"  label-idx="1" cursor="move" transform="matrix(1,0,0,1,777,1123.9000244140625)" style="cursor: default; opacity: 1;"><rect joint-selector="rect" id="v-6597" fill="#ffffff" rx="3" ry="3" pointer-events="none" width="151.48333740234375" height="24" transform="matrix(1,0,0,1,-75.69999694824219,-12)"></rect><text joint-selector="text" id="v-6596" font-size="17px" xml:space="preserve" y="0.8em" fill="#505050" text-anchor="middle" pointer-events="none" font-family="Open Sans" font-weight="normal" transform="matrix(1,0,0,1,0,-6.599999904632568)"><tspan  dy="0">[HTTPS, Stripe API]</tspan></text></g><g id="v-6593"  label-idx="2" cursor="move" transform="matrix(1,0,0,1,767,1132.300048828125)" style="cursor: default; opacity: 1;"><rect joint-selector="rect" id="v-6599" fill="#ffffff" rx="3" ry="3"  width="0" height="0" transform="matrix(1,0,0,1,0,0)" display="none"></rect><text joint-selector="text" id="v-6598" fill="#000000" font-size="14" text-anchor="middle" pointer-events="none"></text></g></g><g  display="none"></g><g  id="v-6604" display="none"><g  id="v-6589"><path  end="source" d="M 26 0 L 0 13 L 26 26 z"></path></g><g  id="v-6590"><path  end="target" d="M 26 0 L 0 13 L 26 26 z"></path></g></g><g  id="v-6603" display="none"><g  id="v-6588" transform="translate(866.6951948396832, 1070.5213671771264) "><g  event="remove"><circle r="11"></circle><path transform="scale(.8) translate(-16, -16)" d="M24.778,21.419 19.276,15.917 24.777,10.415 21.949,7.585 16.447,13.087 10.945,7.585 8.117,10.415 13.618,15.917 8.116,21.419 10.946,24.248 16.447,18.746 21.948,24.248z"></path><title>Remove link.</title></g><g  event="link:options"><circle r="11" transform="translate(25)"></circle><path fill="white" transform="scale(.55) translate(29, -16)" d="M31.229,17.736c0.064-0.571,0.104-1.148,0.104-1.736s-0.04-1.166-0.104-1.737l-4.377-1.557c-0.218-0.716-0.504-1.401-0.851-2.05l1.993-4.192c-0.725-0.91-1.549-1.734-2.458-2.459l-4.193,1.994c-0.647-0.347-1.334-0.632-2.049-0.849l-1.558-4.378C17.165,0.708,16.588,0.667,16,0.667s-1.166,0.041-1.737,0.105L12.707,5.15c-0.716,0.217-1.401,0.502-2.05,0.849L6.464,4.005C5.554,4.73,4.73,5.554,4.005,6.464l1.994,4.192c-0.347,0.648-0.632,1.334-0.849,2.05l-4.378,1.557C0.708,14.834,0.667,15.412,0.667,16s0.041,1.165,0.105,1.736l4.378,1.558c0.217,0.715,0.502,1.401,0.849,2.049l-1.994,4.193c0.725,0.909,1.549,1.733,2.459,2.458l4.192-1.993c0.648,0.347,1.334,0.633,2.05,0.851l1.557,4.377c0.571,0.064,1.148,0.104,1.737,0.104c0.588,0,1.165-0.04,1.736-0.104l1.558-4.377c0.715-0.218,1.399-0.504,2.049-0.851l4.193,1.993c0.909-0.725,1.733-1.549,2.458-2.458l-1.993-4.193c0.347-0.647,0.633-1.334,0.851-2.049L31.229,17.736zM16,20.871c-2.69,0-4.872-2.182-4.872-4.871c0-2.69,2.182-4.872,4.872-4.872c2.689,0,4.871,2.182,4.871,4.872C20.871,18.689,18.689,20.871,16,20.871z"></path><title>Link options.</title></g></g></g></g><!--z-index:52--><g   id="j_421" ><path  stroke="#505050" d="M 1794 1155 L 1605 1490" id="v-6614" stroke-width="2" fill="none" style="opacity: 1;"></path><path  fill="black" stroke="black" d="M 0 0 0 0" transform="matrix(-0.49215999245643616,0.8705047369003296,-0.8705047369003296,-0.49215999245643616,1794.199951171875,1155)"></path><path  fill="#505050" stroke="#505050" d="M 20 0 L 0 10 L 20 20 z" id="v-6616" transform="matrix(0.49216023087501526,-0.87050461769104,0.87050461769104,0.49216023087501526,1596.0948486328125,1485.078369140625)" style="opacity: 1;"></path><path  d="M 1794 1155 L 1605 1490" id="v-6615" fill="none" style="cursor: default;"></path><g ><g id="v-6608"  label-idx="0" cursor="move" transform="matrix(1,0,0,1,1699.5,1322.5)" style="cursor: default; opacity: 1;"><rect joint-selector="rect" id="v-6611" fill="#ffffff" rx="3" ry="3" pointer-events="none" width="0" height="0" transform="matrix(1,0,0,1,0,0)"></rect><text joint-selector="text" id="v-6610" font-size="24px" xml:space="preserve" display="none" y="0.8em" fill="#505050" text-anchor="middle" pointer-events="none" font-family="Open Sans" font-weight="normal"><tspan style="fill-opacity: 0; stroke-opacity: 0;"  dy="0">-</tspan></text></g><g id="v-6609"  label-idx="1" cursor="move" transform="matrix(1,0,0,1,1689.5,1334.5)" style="cursor: default; opacity: 1;"><rect joint-selector="rect" id="v-6613" fill="#ffffff" rx="3" ry="3"  width="0" height="0" transform="matrix(1,0,0,1,0,0)" display="none"></rect><text joint-selector="text" id="v-6612" fill="#000000" font-size="14" text-anchor="middle" pointer-events="none"></text></g></g><g  display="none"></g><g  id="v-6618" display="none"><g  id="v-6606"><path  end="source" d="M 26 0 L 0 13 L 26 26 z"></path></g><g  id="v-6607"><path  end="target" d="M 26 0 L 0 13 L 26 26 z"></path></g></g><g  id="v-6617" display="none"><g  id="v-6605" transform="translate(1774.3451297294757, 1189.8379975694481) "><g  event="remove"><circle r="11"></circle><path transform="scale(.8) translate(-16, -16)" d="M24.778,21.419 19.276,15.917 24.777,10.415 21.949,7.585 16.447,13.087 10.945,7.585 8.117,10.415 13.618,15.917 8.116,21.419 10.946,24.248 16.447,18.746 21.948,24.248z"></path><title>Remove link.</title></g><g  event="link:options"><circle r="11" transform="translate(25)"></circle><path fill="white" transform="scale(.55) translate(29, -16)" d="M31.229,17.736c0.064-0.571,0.104-1.148,0.104-1.736s-0.04-1.166-0.104-1.737l-4.377-1.557c-0.218-0.716-0.504-1.401-0.851-2.05l1.993-4.192c-0.725-0.91-1.549-1.734-2.458-2.459l-4.193,1.994c-0.647-0.347-1.334-0.632-2.049-0.849l-1.558-4.378C17.165,0.708,16.588,0.667,16,0.667s-1.166,0.041-1.737,0.105L12.707,5.15c-0.716,0.217-1.401,0.502-2.05,0.849L6.464,4.005C5.554,4.73,4.73,5.554,4.005,6.464l1.994,4.192c-0.347,0.648-0.632,1.334-0.849,2.05l-4.378,1.557C0.708,14.834,0.667,15.412,0.667,16s0.041,1.165,0.105,1.736l4.378,1.558c0.217,0.715,0.502,1.401,0.849,2.049l-1.994,4.193c0.725,0.909,1.549,1.733,2.459,2.458l4.192-1.993c0.648,0.347,1.334,0.633,2.05,0.851l1.557,4.377c0.571,0.064,1.148,0.104,1.737,0.104c0.588,0,1.165-0.04,1.736-0.104l1.558-4.377c0.715-0.218,1.399-0.504,2.049-0.851l4.193,1.993c0.909-0.725,1.733-1.549,2.458-2.458l-1.993-4.193c0.347-0.647,0.633-1.334,0.851-2.049L31.229,17.736zM16,20.871c-2.69,0-4.872-2.182-4.872-4.871c0-2.69,2.182-4.872,4.872-4.872c2.689,0,4.871,2.182,4.871,4.872C20.871,18.689,18.689,20.871,16,20.871z"></path><title>Link options.</title></g></g></g></g><!--z-index:53--><g   id="j_422" ><path  stroke="#505050" d="M 1654 1000 L 1355 995" id="v-6634" stroke-width="2" fill="none" style="opacity: 1;"></path><path  fill="black" stroke="black" d="M 0 0 0 0" transform="matrix(-0.9998000860214233,-0.019996076822280884,0.019996076822280884,-0.9998000860214233,1654,1000.489990234375)"></path><path  fill="#505050" stroke="#505050" d="M 20 0 L 0 10 L 20 20 z" id="v-6636" transform="matrix(0.9998000860214233,0.019996000453829765,-0.019996000453829765,0.9998000860214233,1355.199951171875,984.5120239257812)" style="opacity: 1;"></path><path  d="M 1654 1000 L 1355 995" id="v-6635" fill="none" style="cursor: default;"></path><g ><g id="v-6625"  label-idx="0" cursor="move" transform="matrix(1,0,0,1,1504.5,997.5)" style="cursor: default; opacity: 1;"><rect joint-selector="rect" id="v-6629" fill="#ffffff" rx="3" ry="3" pointer-events="none" width="198.23333740234375" height="62.79999923706055" transform="matrix(1,0,0,1,-99.0999984741211,-31.399999618530273)"></rect><text joint-selector="text" id="v-6628" font-size="24px" xml:space="preserve" y="0.8em" fill="#505050" text-anchor="middle" pointer-events="none" font-family="Open Sans" font-weight="normal" transform="matrix(1,0,0,1,0,-24.600000381469727)"><tspan  dy="0">Reads</tspan><tspan dy="1.2em" x="0" >subscription data</tspan></text></g><g id="v-6626"  label-idx="1" cursor="move" transform="matrix(1,0,0,1,1504.5,1038.300048828125)" style="cursor: default; opacity: 1;"><rect joint-selector="rect" id="v-6631" fill="#ffffff" rx="3" ry="3" pointer-events="none" width="144.3333282470703" height="24" transform="matrix(1,0,0,1,-72.19999694824219,-12)"></rect><text joint-selector="text" id="v-6630" font-size="17px" xml:space="preserve" y="0.8em" fill="#505050" text-anchor="middle" pointer-events="none" font-family="Open Sans" font-weight="normal" transform="matrix(1,0,0,1,0,-6.599999904632568)"><tspan  dy="0">[Subscription API]</tspan></text></g><g id="v-6627"  label-idx="2" cursor="move" transform="matrix(1,0,0,1,1494.5,1046.699951171875)" style="cursor: default; opacity: 1;"><rect joint-selector="rect" id="v-6633" fill="#ffffff" rx="3" ry="3"  width="0" height="0" transform="matrix(1,0,0,1,0,0)" display="none"></rect><text joint-selector="text" id="v-6632" fill="#000000" font-size="14" text-anchor="middle" pointer-events="none"></text></g></g><g  display="none"></g><g  id="v-6638" display="none"><g  id="v-6623"><path  end="source" d="M 26 0 L 0 13 L 26 26 z"></path></g><g  id="v-6624"><path  end="target" d="M 26 0 L 0 13 L 26 26 z"></path></g></g><g  id="v-6637" display="none"><g  id="v-6622" transform="translate(1614.0055916059086, 999.3311971840453) "><g  event="remove"><circle r="11"></circle><path transform="scale(.8) translate(-16, -16)" d="M24.778,21.419 19.276,15.917 24.777,10.415 21.949,7.585 16.447,13.087 10.945,7.585 8.117,10.415 13.618,15.917 8.116,21.419 10.946,24.248 16.447,18.746 21.948,24.248z"></path><title>Remove link.</title></g><g  event="link:options"><circle r="11" transform="translate(25)"></circle><path fill="white" transform="scale(.55) translate(29, -16)" d="M31.229,17.736c0.064-0.571,0.104-1.148,0.104-1.736s-0.04-1.166-0.104-1.737l-4.377-1.557c-0.218-0.716-0.504-1.401-0.851-2.05l1.993-4.192c-0.725-0.91-1.549-1.734-2.458-2.459l-4.193,1.994c-0.647-0.347-1.334-0.632-2.049-0.849l-1.558-4.378C17.165,0.708,16.588,0.667,16,0.667s-1.166,0.041-1.737,0.105L12.707,5.15c-0.716,0.217-1.401,0.502-2.05,0.849L6.464,4.005C5.554,4.73,4.73,5.554,4.005,6.464l1.994,4.192c-0.347,0.648-0.632,1.334-0.849,2.05l-4.378,1.557C0.708,14.834,0.667,15.412,0.667,16s0.041,1.165,0.105,1.736l4.378,1.558c0.217,0.715,0.502,1.401,0.849,2.049l-1.994,4.193c0.725,0.909,1.549,1.733,2.459,2.458l4.192-1.993c0.648,0.347,1.334,0.633,2.05,0.851l1.557,4.377c0.571,0.064,1.148,0.104,1.737,0.104c0.588,0,1.165-0.04,1.736-0.104l1.558-4.377c0.715-0.218,1.399-0.504,2.049-0.851l4.193,1.993c0.909-0.725,1.733-1.549,2.458-2.458l-1.993-4.193c0.347-0.647,0.633-1.334,0.851-2.049L31.229,17.736zM16,20.871c-2.69,0-4.872-2.182-4.872-4.871c0-2.69,2.182-4.872,4.872-4.872c2.689,0,4.871,2.182,4.871,4.872C20.871,18.689,18.689,20.871,16,20.871z"></path><title>Link options.</title></g></g></g></g><!--z-index:54--><g   id="j_423" ><path  stroke="#505050" d="M 1654 1092 L 649 1482" id="v-6654" stroke-width="2" fill="none" style="opacity: 1;"></path><path  fill="black" stroke="black" d="M 0 0 0 0" transform="matrix(-0.9324031472206116,0.3614199161529541,-0.3614199161529541,-0.9324031472206116,1654,1092.219970703125)"></path><path  fill="#505050" stroke="#505050" d="M 20 0 L 0 10 L 20 20 z" id="v-6656" transform="matrix(0.9324032664299011,-0.361419677734375,0.361419677734375,0.9324032664299011,645.3858032226562,1472.4559326171875)" style="opacity: 1;"></path><path  d="M 1654 1092 L 649 1482" id="v-6655" fill="none" style="cursor: default;"></path><g ><g id="v-6645"  label-idx="0" cursor="move" transform="matrix(1,0,0,1,1151.5,1287)" style="cursor: default; opacity: 1;"><rect joint-selector="rect" id="v-6649" fill="#ffffff" rx="3" ry="3" pointer-events="none" width="160.5833282470703" height="91.60000228881836" transform="matrix(1,0,0,1,-80.30000305175781,-45.79999923706055)"></rect><text joint-selector="text" id="v-6648" font-size="24px" xml:space="preserve" y="0.8em" fill="#505050" text-anchor="middle" pointer-events="none" font-family="Open Sans" font-weight="normal" transform="matrix(1,0,0,1,0,-39)"><tspan  dy="0">Forwards</tspan><tspan dy="1.2em" x="0" >extension's UI</tspan><tspan dy="1.2em" x="0" >events</tspan></text></g><g id="v-6646"  label-idx="1" cursor="move" transform="matrix(1,0,0,1,1151.5,1342.199951171875)" style="cursor: default; opacity: 1;"><rect joint-selector="rect" id="v-6651" fill="#ffffff" rx="3" ry="3" pointer-events="none" width="197.03334045410156" height="24" transform="matrix(1,0,0,1,-98.5,-12)"></rect><text joint-selector="text" id="v-6650" font-size="17px" xml:space="preserve" y="0.8em" fill="#505050" text-anchor="middle" pointer-events="none" font-family="Open Sans" font-weight="normal" transform="matrix(1,0,0,1,0,-6.599999904632568)"><tspan  dy="0">[Measurement Protocol]</tspan></text></g><g id="v-6647"  label-idx="2" cursor="move" transform="matrix(1,0,0,1,1141.5,1350.5999755859375)" style="cursor: default; opacity: 1;"><rect joint-selector="rect" id="v-6653" fill="#ffffff" rx="3" ry="3"  width="0" height="0" transform="matrix(1,0,0,1,0,0)" display="none"></rect><text joint-selector="text" id="v-6652" fill="#000000" font-size="14" text-anchor="middle" pointer-events="none"></text></g></g><g  display="none"></g><g  id="v-6658" display="none"><g  id="v-6643"><path  end="source" d="M 26 0 L 0 13 L 26 26 z"></path></g><g  id="v-6644"><path  end="target" d="M 26 0 L 0 13 L 26 26 z"></path></g></g><g  id="v-6657" display="none"><g  id="v-6642" transform="translate(1616.7093776792512, 1106.4709877662608) "><g  event="remove"><circle r="11"></circle><path transform="scale(.8) translate(-16, -16)" d="M24.778,21.419 19.276,15.917 24.777,10.415 21.949,7.585 16.447,13.087 10.945,7.585 8.117,10.415 13.618,15.917 8.116,21.419 10.946,24.248 16.447,18.746 21.948,24.248z"></path><title>Remove link.</title></g><g  event="link:options"><circle r="11" transform="translate(25)"></circle><path fill="white" transform="scale(.55) translate(29, -16)" d="M31.229,17.736c0.064-0.571,0.104-1.148,0.104-1.736s-0.04-1.166-0.104-1.737l-4.377-1.557c-0.218-0.716-0.504-1.401-0.851-2.05l1.993-4.192c-0.725-0.91-1.549-1.734-2.458-2.459l-4.193,1.994c-0.647-0.347-1.334-0.632-2.049-0.849l-1.558-4.378C17.165,0.708,16.588,0.667,16,0.667s-1.166,0.041-1.737,0.105L12.707,5.15c-0.716,0.217-1.401,0.502-2.05,0.849L6.464,4.005C5.554,4.73,4.73,5.554,4.005,6.464l1.994,4.192c-0.347,0.648-0.632,1.334-0.849,2.05l-4.378,1.557C0.708,14.834,0.667,15.412,0.667,16s0.041,1.165,0.105,1.736l4.378,1.558c0.217,0.715,0.502,1.401,0.849,2.049l-1.994,4.193c0.725,0.909,1.549,1.733,2.459,2.458l4.192-1.993c0.648,0.347,1.334,0.633,2.05,0.851l1.557,4.377c0.571,0.064,1.148,0.104,1.737,0.104c0.588,0,1.165-0.04,1.736-0.104l1.558-4.377c0.715-0.218,1.399-0.504,2.049-0.851l4.193,1.993c0.909-0.725,1.733-1.549,2.458-2.458l-1.993-4.193c0.347-0.647,0.633-1.334,0.851-2.049L31.229,17.736zM16,20.871c-2.69,0-4.872-2.182-4.872-4.871c0-2.69,2.182-4.872,4.872-4.872c2.689,0,4.871,2.182,4.871,4.872C20.871,18.689,18.689,20.871,16,20.871z"></path><title>Link options.</title></g></g></g></g><!--z-index:55--><!--z-index:56--><!--z-index:57--><!--z-index:58--><!--z-index:59--><!--z-index:60--><!--z-index:61--><!--z-index:62--><!--z-index:63--><!--z-index:64--><!--z-index:65--><!--z-index:66--><!--z-index:67--><!--z-index:68--><!--z-index:69--><!--z-index:70--><!--z-index:71--><!--z-index:72--><!--z-index:73--><!--z-index:74--><!--z-index:75--><!--z-index:76--><!--z-index:77--><!--z-index:78--><!--z-index:79--><!--z-index:80--><!--z-index:81--><!--z-index:82--><!--z-index:83--><!--z-index:84--><!--z-index:85--><!--z-index:86--><!--z-index:87--><!--z-index:88--><!--z-index:89--><!--z-index:90--><!--z-index:91--><!--z-index:92--><!--z-index:93--><!--z-index:94--><!--z-index:95--><!--z-index:96--><!--z-index:97--><!--z-index:98--><!--z-index:99--><!--z-index:100--><!--z-index:101--><!--z-index:102--><!--z-index:103--><!--z-index:104--><!--z-index:105--><!--z-index:106--></g><g ></g><g ></g><g ></g></g></svg>