<svg width="47" height="50" viewBox="0 0 47 50" fill="none" xmlns="http://www.w3.org/2000/svg">
<rect width="46.875" height="50" rx="4" fill="#F770FF"/>
<mask id="mask0_755_163" style="mask-type:alpha" maskUnits="userSpaceOnUse" x="0" y="0" width="47" height="50">
<rect width="46.875" height="50" rx="4" fill="#F770FF"/>
</mask>
<g mask="url(#mask0_755_163)">
<g filter="url(#filter0_d_755_163)">
<path fill-rule="evenodd" clip-rule="evenodd" d="M-8.02688 34.0918C-8.1147 34.2717 -8.22921 34.4439 -8.37041 34.6028L-14.3457 40.578C-15.3727 41.605 -15.326 43.2389 -14.3457 44.2192L-12.1276 46.4372L-12.1277 46.4373L0.279392 58.8443L0.279444 58.8443L4.00022 62.5651C5.07389 63.5454 6.75443 63.5454 7.78143 62.5184L13.7567 56.5431C13.8536 56.4462 13.9379 56.3415 14.0097 56.2307L20.0336 50.2068C20.1228 50.1477 20.2093 50.0813 20.2921 50.0077L26.2674 44.0324C27.2943 43.0055 27.2477 41.3716 26.2674 40.3913L20.2454 34.3693C19.4985 33.6224 19.4985 32.4087 20.2454 31.5685C20.9043 30.9096 21.6665 30.9533 22.4738 30.9997C23.3823 31.0519 24.3477 31.1073 25.287 30.168C26.9209 28.5341 26.4074 25.9667 24.3534 23.9127C22.3461 21.9054 19.4985 21.3919 17.9113 22.979C17.1489 23.7415 17.1251 24.7242 17.1025 25.6541C17.0823 26.4892 17.0631 27.2818 16.5109 27.8339C15.764 28.5808 14.5503 28.5808 13.71 27.8339L7.92148 22.0454C6.98784 21.1118 5.40067 20.8317 4.18694 22.0454L-1.7883 28.0206C-1.95268 28.185 -2.13967 28.3132 -2.33982 28.4048L-8.02688 34.0918Z" fill="white"/>
</g>
<g filter="url(#filter1_d_755_163)">
<path fill-rule="evenodd" clip-rule="evenodd" d="M23.5358 2.13514C23.4479 2.31509 23.3334 2.48736 23.1921 2.64628L17.2169 8.62153C16.1899 9.64853 16.2366 11.2824 17.2169 12.2627L18.6408 13.6866L18.6407 13.6866L23.1827 18.2286C24.013 18.8553 25.1345 18.816 25.8398 18.1107C26.392 17.5585 26.4112 16.766 26.4315 15.9309C26.454 15.001 26.4778 14.0183 27.2403 13.2558C28.8275 11.6687 31.675 12.1822 33.6824 14.1895C35.7363 16.2435 36.2498 18.8109 34.616 20.4448C33.6767 21.3841 32.7112 21.3287 31.8027 21.2765C30.9955 21.2301 30.2333 21.1864 29.5744 21.8452C28.8911 22.614 28.8329 23.6952 29.3998 24.4457L31.2463 26.2922L31.2464 26.2922L35.5628 30.6086C36.6364 31.5889 38.317 31.5889 39.344 30.5619L45.3192 24.5866C45.416 24.4899 45.5002 24.3853 45.5718 24.2748L51.5967 18.2499C51.6858 18.1909 51.772 18.1247 51.8546 18.0512L57.8299 12.076C58.8569 11.049 58.8102 9.41511 57.8299 8.4348L51.808 2.41287C51.7441 2.34902 51.6857 2.28175 51.6328 2.2116L45.4171 -4.00408C45.3678 -4.04123 45.3196 -4.08072 45.2725 -4.12256L39.484 -9.91108C38.5504 -10.8447 36.9632 -11.1248 35.7495 -9.91108L29.7742 -3.93583C29.6098 -3.7714 29.4227 -3.64317 29.2225 -3.55163L23.5358 2.13514Z" fill="white"/>
</g>
<rect x="-16.25" y="42.3149" width="31.5625" height="31.25" rx="8" transform="rotate(-45 -16.25 42.3149)" fill="white"/>
<rect x="15.3125" y="10.3584" width="31.25" height="6.5625" rx="3.28125" transform="rotate(-45 15.3125 10.3584)" fill="white"/>
<rect x="32.7693" y="27.8154" width="31.25" height="6.5625" rx="3.28125" transform="rotate(-45 32.7693 27.8154)" fill="white"/>
<path d="M15.7596 35.6758L10.9195 32.953C10.7494 32.8608 10.559 32.8125 10.3656 32.8125C10.1721 32.8125 9.98169 32.8608 9.81168 32.953L4.95449 35.6758C4.77914 35.7745 4.63313 35.9178 4.53134 36.0912C4.42955 36.2646 4.37562 36.4619 4.37503 36.6628V42.0915C4.37346 42.2929 4.42649 42.491 4.5285 42.6647C4.63052 42.8385 4.77771 42.9815 4.95449 43.0785L9.79463 45.7843C9.96433 45.8862 10.159 45.9393 10.357 45.9375C10.5548 45.937 10.7488 45.8841 10.9195 45.7843L15.7596 43.0785C15.9349 42.9798 16.081 42.8365 16.1827 42.6631C16.2845 42.4897 16.3385 42.2924 16.3391 42.0915V36.6628C16.3441 36.4608 16.2925 36.2613 16.1901 36.0869C16.0877 35.9125 15.9386 35.7702 15.7596 35.6758V35.6758Z" fill="url(#paint0_linear_755_163)"/>
<path d="M6.9825 40.7971L6.69277 40.9673C6.64093 40.996 6.59533 41.0347 6.55862 41.0812C6.52191 41.1277 6.49484 41.181 6.47897 41.238C6.46311 41.295 6.45878 41.3546 6.46622 41.4133C6.47367 41.472 6.49275 41.5287 6.52234 41.58C6.5604 41.651 6.61684 41.7106 6.68577 41.7525C6.75471 41.7944 6.83363 41.8171 6.91433 41.8182C6.99103 41.8176 7.06665 41.8001 7.13588 41.7672L7.42561 41.597C7.47745 41.5683 7.52306 41.5296 7.55976 41.4831C7.59647 41.4366 7.62355 41.3833 7.63941 41.3263C7.65527 41.2693 7.65961 41.2097 7.65216 41.151C7.64471 41.0923 7.62564 41.0356 7.59604 40.9843C7.56972 40.9303 7.53252 40.8822 7.48677 40.8431C7.44101 40.8041 7.38768 40.7749 7.33011 40.7573C7.27253 40.7397 7.21195 40.7342 7.15214 40.7411C7.09234 40.7479 7.03459 40.767 6.9825 40.7971V40.7971ZM8.75495 39.7931L8.15845 40.1335C8.10661 40.1621 8.061 40.2008 8.0243 40.2473C7.98759 40.2938 7.96052 40.3471 7.94465 40.4041C7.92879 40.4611 7.92445 40.5207 7.9319 40.5795C7.93935 40.6382 7.95842 40.6948 7.98802 40.7461C8.02608 40.8172 8.08252 40.8767 8.15145 40.9186C8.22039 40.9605 8.29931 40.9832 8.38001 40.9843C8.45671 40.9837 8.53233 40.9663 8.60156 40.9333L9.19806 40.5929C9.2499 40.5642 9.29551 40.5255 9.33221 40.4791C9.36892 40.4326 9.39599 40.3793 9.41186 40.3223C9.42772 40.2653 9.43206 40.2056 9.42461 40.1469C9.41716 40.0882 9.39808 40.0316 9.36849 39.9803C9.34217 39.9262 9.30497 39.8782 9.25921 39.8391C9.21346 39.8 9.16013 39.7708 9.10256 39.7532C9.04498 39.7357 8.9844 39.7301 8.92459 39.737C8.86478 39.7439 8.80703 39.763 8.75495 39.7931V39.7931ZM11.158 38.9609C11.134 38.9127 11.1005 38.8697 11.0595 38.8346C11.0185 38.7995 10.9708 38.773 10.9194 38.7567V35.3345C10.9196 35.2741 10.9079 35.2142 10.8848 35.1584C10.8618 35.1025 10.8279 35.0518 10.7851 35.0091C10.7423 34.9664 10.6915 34.9325 10.6356 34.9095C10.5797 34.8865 10.5197 34.8748 10.4592 34.875C10.3996 34.8752 10.3407 34.8873 10.2859 34.9107C10.2311 34.9341 10.1816 34.9682 10.1403 35.0111C10.0989 35.0539 10.0666 35.1046 10.0453 35.1602C10.024 35.2158 10.0141 35.275 10.0161 35.3345V38.772C9.96465 38.7884 9.917 38.8148 9.87601 38.8499C9.83502 38.885 9.80152 38.928 9.77751 38.9763C9.74549 39.0361 9.72734 39.1023 9.72439 39.17C9.72144 39.2378 9.73377 39.3053 9.76047 39.3677C9.73377 39.43 9.72144 39.4976 9.72439 39.5653C9.72734 39.633 9.74549 39.6993 9.77751 39.7591C9.80152 39.8074 9.83502 39.8503 9.87601 39.8854C9.917 39.9205 9.96465 39.947 10.0161 39.9633V43.4008C10.0161 43.5227 10.0646 43.6396 10.1509 43.7257C10.2372 43.8119 10.3542 43.8603 10.4763 43.8603C10.5983 43.8603 10.7153 43.8119 10.8016 43.7257C10.8879 43.6396 10.9364 43.5227 10.9364 43.4008V39.9463C10.9879 39.93 11.0355 39.9035 11.0765 39.8684C11.1175 39.8333 11.151 39.7903 11.175 39.7421C11.207 39.6823 11.2252 39.616 11.2281 39.5483C11.2311 39.4805 11.2188 39.413 11.1921 39.3506C11.2315 39.2212 11.2193 39.0816 11.158 38.9609V38.9609ZM12.3186 37.785L11.7221 38.1254C11.6702 38.1541 11.6246 38.1928 11.5879 38.2392C11.5512 38.2857 11.5242 38.339 11.5083 38.396C11.4924 38.4531 11.4881 38.5127 11.4955 38.5714C11.503 38.6301 11.5221 38.6867 11.5517 38.738C11.5897 38.8091 11.6462 38.8686 11.7151 38.9105C11.784 38.9524 11.863 38.9751 11.9436 38.9763C12.0203 38.9756 12.096 38.9582 12.1652 38.9252L12.7617 38.5849C12.8135 38.5562 12.8591 38.5175 12.8959 38.471C12.9326 38.4245 12.9596 38.3712 12.9755 38.3142C12.9914 38.2572 12.9957 38.1976 12.9883 38.1389C12.9808 38.0801 12.9617 38.0235 12.9321 37.9722C12.9058 37.9182 12.8686 37.8701 12.8229 37.831C12.7771 37.792 12.7238 37.7627 12.6662 37.7452C12.6086 37.7276 12.548 37.7221 12.4882 37.7289C12.4284 37.7358 12.3707 37.7549 12.3186 37.785V37.785ZM13.7314 37.9552C13.8081 37.9545 13.8838 37.9371 13.953 37.9041L14.2427 37.734C14.2945 37.7051 14.34 37.6663 14.3768 37.6197C14.4135 37.5732 14.4406 37.5199 14.4566 37.4629C14.4726 37.4058 14.4772 37.3462 14.4701 37.2874C14.4629 37.2286 14.4442 37.1718 14.415 37.1203C14.3859 37.0687 14.3468 37.0234 14.3 36.987C14.2532 36.9506 14.1997 36.9237 14.1425 36.908C14.0853 36.8923 14.0256 36.888 13.9668 36.8954C13.9079 36.9028 13.8511 36.9218 13.7996 36.9512L13.5099 37.1213C13.458 37.15 13.4124 37.1887 13.3757 37.2352C13.339 37.2817 13.3119 37.335 13.2961 37.392C13.2802 37.449 13.2759 37.5086 13.2833 37.5673C13.2908 37.626 13.3099 37.6827 13.3394 37.734C13.3785 37.8029 13.4356 37.86 13.5047 37.899C13.5737 37.938 13.6521 37.9574 13.7314 37.9552ZM14.2427 40.9673L13.953 40.7971C13.8491 40.7392 13.7264 40.7246 13.6118 40.7567C13.4971 40.7888 13.3999 40.8649 13.3413 40.9684C13.2828 41.0719 13.2676 41.1943 13.2992 41.3089C13.3308 41.4235 13.4065 41.521 13.5099 41.58L13.7996 41.7501C13.8688 41.7831 13.9445 41.8005 14.0212 41.8012C14.1019 41.8001 14.1808 41.7774 14.2497 41.7355C14.3187 41.6936 14.3751 41.634 14.4131 41.5629C14.4436 41.5133 14.4635 41.4579 14.4714 41.4001C14.4793 41.3424 14.4751 41.2837 14.4591 41.2277C14.443 41.1717 14.4155 41.1197 14.3783 41.0748C14.341 41.03 14.2949 40.9934 14.2427 40.9673V40.9673ZM12.76 40.1335L12.1635 39.7931C12.112 39.7637 12.0552 39.7448 11.9964 39.7374C11.9375 39.73 11.8778 39.7342 11.8206 39.7499C11.7634 39.7657 11.7099 39.7925 11.6631 39.8289C11.6163 39.8654 11.5772 39.9106 11.5481 39.9622C11.5189 40.0138 11.5002 40.0706 11.493 40.1294C11.4859 40.1882 11.4905 40.2478 11.5065 40.3048C11.5225 40.3618 11.5496 40.4152 11.5864 40.4617C11.6231 40.5082 11.6686 40.547 11.7204 40.5759L12.3169 40.9163C12.3861 40.9492 12.4617 40.9667 12.5384 40.9673C12.6191 40.9662 12.6981 40.9435 12.767 40.9016C12.8359 40.8597 12.8924 40.8001 12.9304 40.7291C12.9614 40.6796 12.9817 40.6241 12.9899 40.5663C12.9981 40.5085 12.994 40.4496 12.9779 40.3934C12.9619 40.3373 12.9342 40.2851 12.8966 40.2403C12.8591 40.1955 12.8125 40.1591 12.76 40.1335V40.1335ZM8.15845 38.5678L8.75495 38.9082C8.82418 38.9412 8.8998 38.9586 8.9765 38.9592C9.0572 38.9581 9.13612 38.9354 9.20506 38.8935C9.27399 38.8516 9.33043 38.7921 9.36849 38.721C9.39808 38.6697 9.41716 38.6131 9.42461 38.5544C9.43206 38.4956 9.42772 38.436 9.41186 38.379C9.39599 38.322 9.36892 38.2687 9.33221 38.2222C9.29551 38.1757 9.2499 38.137 9.19806 38.1084L8.60156 37.768C8.55021 37.7384 8.49348 37.7194 8.43468 37.712C8.37588 37.7045 8.31618 37.7089 8.25907 37.7247C8.20197 37.7405 8.14859 37.7676 8.10205 37.8042C8.05551 37.8409 8.01675 37.8864 7.98802 37.9382C7.93093 38.0451 7.91678 38.1697 7.94844 38.2867C7.9801 38.4037 8.05519 38.5042 8.15845 38.5678V38.5678ZM7.42561 37.1213L7.13588 36.9512C7.08439 36.9218 7.02759 36.9028 6.96874 36.8954C6.90989 36.888 6.85016 36.8923 6.79297 36.908C6.73578 36.9237 6.68226 36.9506 6.63549 36.987C6.58873 37.0234 6.54963 37.0687 6.52044 37.1203C6.49125 37.1718 6.47256 37.2286 6.46543 37.2874C6.45829 37.3462 6.46286 37.4058 6.47888 37.4629C6.49489 37.5199 6.52203 37.5732 6.55874 37.6197C6.59544 37.6663 6.64099 37.7051 6.69277 37.734L6.9825 37.9041C7.05173 37.9371 7.12735 37.9545 7.20406 37.9552C7.28475 37.9541 7.36367 37.9314 7.43261 37.8895C7.50155 37.8476 7.55798 37.788 7.59604 37.717C7.62504 37.6669 7.64365 37.6116 7.65076 37.5542C7.65787 37.4968 7.65334 37.4386 7.63743 37.383C7.62153 37.3274 7.59458 37.2756 7.55818 37.2307C7.52179 37.1857 7.4767 37.1485 7.42561 37.1213V37.1213Z" fill="#20133A"/>
<path fill-rule="evenodd" clip-rule="evenodd" d="M38.1248 3.66406C37.5811 3.66406 37.1404 4.10478 37.1404 4.64844C37.1404 5.19209 37.5811 5.63281 38.1248 5.63281C38.6684 5.63281 39.1091 5.19209 39.1091 4.64844C39.1091 4.10478 38.6684 3.66406 38.1248 3.66406ZM35.8279 4.64844C35.8279 3.37991 36.8562 2.35156 38.1248 2.35156C39.3933 2.35156 40.4216 3.37991 40.4216 4.64844C40.4216 5.91697 39.3933 6.94531 38.1248 6.94531C37.7292 6.94531 37.357 6.84532 37.032 6.66923L36.044 7.65728C36.1186 7.7949 36.1795 7.94099 36.225 8.09375H40.0246C40.3069 7.14498 41.1858 6.45312 42.2263 6.45312C43.4948 6.45312 44.5232 7.48147 44.5232 8.75C44.5232 10.0185 43.4948 11.0469 42.2263 11.0469C41.8308 11.0469 41.4585 10.9469 41.1336 10.7708L40.1456 11.7588C40.3216 12.0838 40.4216 12.456 40.4216 12.8516C40.4216 14.1201 39.3933 15.1484 38.1248 15.1484C36.8562 15.1484 35.8279 14.1201 35.8279 12.8516C35.8279 11.583 36.8562 10.5547 38.1248 10.5547C38.5203 10.5547 38.8925 10.6547 39.2175 10.8308L40.2055 9.84272C40.1309 9.7051 40.07 9.559 40.0246 9.40625H36.225C35.9426 10.355 35.0637 11.0469 34.0232 11.0469C32.7547 11.0469 31.7263 10.0185 31.7263 8.75C31.7263 7.48147 32.7547 6.45312 34.0232 6.45312C34.4188 6.45312 34.791 6.55312 35.1159 6.7292L36.104 5.74115C35.9279 5.4162 35.8279 5.044 35.8279 4.64844ZM37.1404 12.8516C37.1404 12.3079 37.5811 11.8672 38.1248 11.8672C38.6684 11.8672 39.1091 12.3079 39.1091 12.8516C39.1091 13.3952 38.6684 13.8359 38.1248 13.8359C37.5811 13.8359 37.1404 13.3952 37.1404 12.8516ZM34.0232 7.76562C33.4795 7.76562 33.0388 8.20634 33.0388 8.75C33.0388 9.29365 33.4795 9.73437 34.0232 9.73437C34.5668 9.73437 35.0076 9.29365 35.0076 8.75C35.0076 8.20634 34.5668 7.76562 34.0232 7.76562ZM41.2419 8.75C41.2419 8.20634 41.6827 7.76562 42.2263 7.76562C42.77 7.76562 43.2107 8.20634 43.2107 8.75C43.2107 9.29365 42.77 9.73437 42.2263 9.73437C41.6827 9.73437 41.2419 9.29365 41.2419 8.75Z" fill="black"/>
</g>
<defs>
<filter id="filter0_d_755_163" x="-19.0984" y="21.2368" width="50.1187" height="50.0576" filterUnits="userSpaceOnUse" color-interpolation-filters="sRGB">
<feFlood flood-opacity="0" result="BackgroundImageFix"/>
<feColorMatrix in="SourceAlpha" type="matrix" values="0 0 0 0 0 0 0 0 0 0 0 0 0 0 0 0 0 0 127 0" result="hardAlpha"/>
<feOffset dy="4"/>
<feGaussianBlur stdDeviation="2"/>
<feComposite in2="hardAlpha" operator="out"/>
<feColorMatrix type="matrix" values="0 0 0 0 0 0 0 0 0 0 0 0 0 0 0 0 0 0 0.1 0"/>
<feBlend mode="normal" in2="BackgroundImageFix" result="effect1_dropShadow_755_163"/>
<feBlend mode="normal" in="SourceGraphic" in2="effect1_dropShadow_755_163" result="shape"/>
</filter>
<filter id="filter1_d_755_163" x="12.4641" y="-10.7197" width="50.1187" height="50.0576" filterUnits="userSpaceOnUse" color-interpolation-filters="sRGB">
<feFlood flood-opacity="0" result="BackgroundImageFix"/>
<feColorMatrix in="SourceAlpha" type="matrix" values="0 0 0 0 0 0 0 0 0 0 0 0 0 0 0 0 0 0 127 0" result="hardAlpha"/>
<feOffset dy="4"/>
<feGaussianBlur stdDeviation="2"/>
<feComposite in2="hardAlpha" operator="out"/>
<feColorMatrix type="matrix" values="0 0 0 0 0 0 0 0 0 0 0 0 0 0 0 0 0 0 0.1 0"/>
<feBlend mode="normal" in2="BackgroundImageFix" result="effect1_dropShadow_755_163"/>
<feBlend mode="normal" in="SourceGraphic" in2="effect1_dropShadow_755_163" result="shape"/>
</filter>
<linearGradient id="paint0_linear_755_163" x1="4.37503" y1="39.3755" x2="16.3408" y2="39.3755" gradientUnits="userSpaceOnUse">
<stop stop-color="#9059FF"/>
<stop offset="1" stop-color="#F770FF"/>
</linearGradient>
</defs>
</svg>
