<svg width="300" height="154" viewBox="0 0 300 154" fill="none" xmlns="http://www.w3.org/2000/svg">
<rect width="300" height="154" rx="8" fill="#F770FF"/>
<g filter="url(#filter0_d_755_118)">
<path fill-rule="evenodd" clip-rule="evenodd" d="M209.213 27C208.607 27.2082 207.959 27.3387 207.28 27.3786H180.239C175.591 27.3786 172 31.1812 172 35.6176V54.2082L172 54.2592V62.6171C172.461 65.9137 175.088 68.3624 178.279 68.3624C180.778 68.3624 182.615 66.6126 184.55 64.7688C186.706 62.7156 188.983 60.5459 192.433 60.5459C199.616 60.5459 204.898 68.1511 204.898 77.2352C204.898 86.5305 200.25 93.5019 192.856 93.5019C188.605 93.5019 186.546 91.1918 184.608 89.0181C182.887 87.0867 181.261 85.2629 178.279 85.2629C174.993 85.4562 172.415 87.7717 172 90.7531V118.642C172.211 123.289 176.014 127.092 180.662 127.092H207.702C208.139 127.092 208.565 127.046 208.976 126.959H236.249C236.583 127.026 236.927 127.071 237.278 127.092H264.319C268.967 127.092 272.558 123.289 272.558 118.853V91.6007C272.558 91.3114 272.578 91.0268 272.617 90.7479V62.6209C272.59 62.425 272.57 62.2262 272.558 62.0247V35.8289C272.558 31.6037 269.601 27.3786 264.108 27.3786H237.067C236.323 27.3786 235.61 27.2456 234.951 27H209.213Z" fill="white"/>
</g>
<rect x="172" y="27" width="100" height="21" rx="8" fill="white"/>
<rect x="172" y="106" width="100" height="21" rx="8" fill="white"/>
<path fill-rule="evenodd" clip-rule="evenodd" d="M235 59.7249C233.26 59.7249 231.85 61.1352 231.85 62.8749C231.85 64.6146 233.26 66.0249 235 66.0249C236.74 66.0249 238.15 64.6146 238.15 62.8749C238.15 61.1352 236.74 59.7249 235 59.7249ZM227.65 62.8749C227.65 58.8156 230.941 55.5249 235 55.5249C239.059 55.5249 242.35 58.8156 242.35 62.8749C242.35 66.9342 239.059 70.2249 235 70.2249C233.734 70.2249 232.543 69.9049 231.503 69.3415L228.342 72.5032C228.58 72.9436 228.775 73.4111 228.921 73.8999H241.079C241.983 70.8638 244.795 68.6499 248.125 68.6499C252.184 68.6499 255.475 71.9406 255.475 75.9999C255.475 80.0592 252.184 83.3499 248.125 83.3499C246.859 83.3499 245.668 83.0299 244.628 82.4664L241.467 85.6282C242.03 86.668 242.35 87.8591 242.35 89.1249C242.35 93.1842 239.059 96.4749 235 96.4749C230.941 96.4749 227.65 93.1842 227.65 89.1249C227.65 85.0656 230.941 81.7749 235 81.7749C236.266 81.7749 237.457 82.0949 238.497 82.6583L241.658 79.4966C241.42 79.0562 241.225 78.5887 241.079 78.0999H228.921C228.017 81.136 225.205 83.3499 221.875 83.3499C217.816 83.3499 214.525 80.0592 214.525 75.9999C214.525 71.9406 217.816 68.6499 221.875 68.6499C223.141 68.6499 224.332 68.9699 225.372 69.5333L228.533 66.3716C227.97 65.3317 227.65 64.1407 227.65 62.8749ZM231.85 89.1249C231.85 87.3852 233.26 85.9749 235 85.9749C236.74 85.9749 238.15 87.3852 238.15 89.1249C238.15 90.8646 236.74 92.2749 235 92.2749C233.26 92.2749 231.85 90.8646 231.85 89.1249ZM221.875 72.8499C220.135 72.8499 218.725 74.2602 218.725 75.9999C218.725 77.7396 220.135 79.1499 221.875 79.1499C223.615 79.1499 225.025 77.7396 225.025 75.9999C225.025 74.2602 223.615 72.8499 221.875 72.8499ZM244.975 75.9999C244.975 74.2602 246.385 72.8499 248.125 72.8499C249.865 72.8499 251.275 74.2602 251.275 75.9999C251.275 77.7396 249.865 79.1499 248.125 79.1499C246.385 79.1499 244.975 77.7396 244.975 75.9999Z" fill="black"/>
<g filter="url(#filter1_d_755_118)">
<path fill-rule="evenodd" clip-rule="evenodd" d="M64.2128 27C63.6072 27.2082 62.9587 27.3387 62.2799 27.3786H35.239C30.5914 27.3786 27 31.1812 27 35.6176V45.6561V54.2082V83.3617V101.804V118.642C27.2113 123.289 31.0139 127.092 35.6615 127.092H62.7024C63.139 127.092 63.5651 127.046 63.9765 126.958H91.2486C91.5826 127.026 91.9264 127.071 92.2784 127.092H119.319C123.967 127.092 127.558 123.289 127.558 118.853V91.6007C127.558 88.2206 130.305 85.4742 133.896 85.263C136.878 85.263 138.503 87.0867 140.225 89.0182C142.163 91.1919 144.222 93.502 148.473 93.502C155.867 93.502 160.514 86.5305 160.514 77.2352C160.514 68.1512 155.233 60.5459 148.05 60.5459C144.6 60.5459 142.322 62.7157 140.167 64.7688C138.232 66.6126 136.395 68.3624 133.896 68.3624C130.516 68.3624 127.77 65.6161 127.558 62.0247V35.8289C127.558 31.6037 124.601 27.3786 119.108 27.3786H92.0671C91.3235 27.3786 90.6104 27.2456 89.9506 27H64.2128Z" fill="white"/>
</g>
<rect x="27" y="27" width="101" height="100" rx="8" fill="white"/>
<path d="M96.4307 64.1626L80.9423 55.4496C80.3982 55.1545 79.7889 55 79.1698 55C78.5507 55 77.9414 55.1545 77.3974 55.4496L61.8544 64.1626C61.2933 64.4784 60.826 64.9371 60.5003 65.4919C60.1746 66.0468 60.002 66.6779 60.0001 67.3211V84.6927C59.9951 85.3372 60.1648 85.9711 60.4912 86.5272C60.8177 87.0832 61.2887 87.5407 61.8544 87.8512L77.3428 96.5097C77.8859 96.836 78.5088 97.0056 79.1425 96.9999C79.7753 96.9983 80.3963 96.8292 80.9423 96.5097L96.4307 87.8512C96.9918 87.5354 97.4591 87.0767 97.7848 86.5218C98.1105 85.967 98.2831 85.3358 98.285 84.6927V67.3211C98.301 66.6744 98.1359 66.0362 97.8083 65.4782C97.4807 64.9202 97.0036 64.4645 96.4307 64.1626V64.1626Z" fill="url(#paint0_linear_755_118)"/>
<path d="M68.3438 80.551L67.4167 81.0955C67.2508 81.1873 67.1048 81.3112 66.9874 81.4599C66.8699 81.6086 66.7833 81.7791 66.7325 81.9616C66.6818 82.1441 66.6679 82.3348 66.6917 82.5227C66.7155 82.7106 66.7766 82.8919 66.8713 83.056C66.9931 83.2834 67.1737 83.474 67.3943 83.6081C67.6149 83.7422 67.8674 83.8148 68.1257 83.8184C68.3711 83.8163 68.6131 83.7605 68.8346 83.655L69.7618 83.1104C69.9277 83.0186 70.0736 82.8948 70.1911 82.7461C70.3085 82.5974 70.3952 82.4268 70.4459 82.2443C70.4967 82.0619 70.5105 81.8711 70.4867 81.6832C70.4629 81.4953 70.4018 81.3141 70.3071 81.15C70.2229 80.977 70.1039 80.8232 69.9575 80.6982C69.811 80.5732 69.6404 80.4796 69.4562 80.4234C69.2719 80.3672 69.0781 80.3495 68.8867 80.3715C68.6953 80.3934 68.5105 80.4545 68.3438 80.551V80.551ZM74.0156 77.338L72.1068 78.4272C71.9409 78.519 71.795 78.6428 71.6776 78.7915C71.5601 78.9402 71.4735 79.1108 71.4227 79.2933C71.3719 79.4757 71.3581 79.6665 71.3819 79.8544C71.4057 80.0422 71.4668 80.2235 71.5615 80.3876C71.6833 80.615 71.8639 80.8056 72.0845 80.9397C72.305 81.0738 72.5576 81.1464 72.8158 81.15C73.0613 81.1479 73.3033 81.0921 73.5248 80.9866L75.4336 79.8975C75.5995 79.8057 75.7454 79.6818 75.8629 79.5331C75.9803 79.3844 76.067 79.2139 76.1177 79.0314C76.1685 78.8489 76.1824 78.6582 76.1586 78.4703C76.1347 78.2824 76.0737 78.1011 75.979 77.9371C75.8947 77.764 75.7757 77.6102 75.6293 77.4852C75.4829 77.3602 75.3122 77.2667 75.128 77.2105C74.9437 77.1543 74.7499 77.1366 74.5585 77.1585C74.3671 77.1805 74.1823 77.2416 74.0156 77.338V77.338ZM81.7053 74.6751C81.6285 74.5206 81.5213 74.3831 81.3901 74.2708C81.259 74.1586 81.1065 74.0738 80.9418 74.0216V63.0704C80.9425 62.8771 80.9049 62.6856 80.8312 62.5069C80.7575 62.3282 80.649 62.1658 80.5121 62.0292C80.3753 61.8925 80.2126 61.7842 80.0337 61.7106C79.8547 61.6369 79.6629 61.5994 79.4693 61.6001C79.2787 61.6007 79.09 61.6396 78.9147 61.7144C78.7394 61.7892 78.5809 61.8984 78.4486 62.0355C78.3164 62.1727 78.213 62.3349 78.1448 62.5127C78.0766 62.6905 78.0448 62.8802 78.0514 63.0704V74.0706C77.8867 74.1228 77.7342 74.2076 77.603 74.3198C77.4719 74.4321 77.3647 74.5696 77.2878 74.7241C77.1854 74.9155 77.1273 75.1274 77.1178 75.3442C77.1084 75.561 77.1479 75.7771 77.2333 75.9766C77.1479 76.1761 77.1084 76.3923 77.1178 76.6091C77.1273 76.8259 77.1854 77.0378 77.2878 77.2291C77.3647 77.3836 77.4719 77.5211 77.603 77.6334C77.7342 77.7457 77.8867 77.8304 78.0514 77.8826V88.8828C78.0514 89.2728 78.2065 89.6467 78.4826 89.9225C78.7588 90.1982 79.1333 90.3531 79.5239 90.3531C79.9144 90.3531 80.2889 90.1982 80.5651 89.9225C80.8412 89.6467 80.9964 89.2728 80.9964 88.8828V77.8281C81.161 77.776 81.3135 77.6912 81.4447 77.5789C81.5758 77.4667 81.683 77.3292 81.7599 77.1747C81.8623 76.9833 81.9204 76.7714 81.9299 76.5546C81.9393 76.3378 81.8998 76.1217 81.8144 75.9222C81.9406 75.508 81.9015 75.0612 81.7053 74.6751V74.6751ZM85.4193 70.9122L83.5105 72.0013C83.3446 72.0931 83.1987 72.217 83.0812 72.3656C82.9637 72.5143 82.8771 72.6849 82.8263 72.8674C82.7756 73.0499 82.7617 73.2406 82.7855 73.4285C82.8094 73.6164 82.8704 73.7976 82.9651 73.9617C83.0869 74.1891 83.2675 74.3798 83.4881 74.5139C83.7087 74.6479 83.9613 74.7205 84.2195 74.7241C84.4649 74.722 84.7069 74.6663 84.9285 74.5607L86.8372 73.4716C87.0031 73.3798 87.1491 73.256 87.2665 73.1073C87.384 72.9586 87.4706 72.788 87.5214 72.6055C87.5722 72.4231 87.586 72.2323 87.5622 72.0444C87.5384 71.8565 87.4773 71.6753 87.3826 71.5112C87.2984 71.3382 87.1794 71.1844 87.0329 71.0594C86.8865 70.9344 86.7159 70.8408 86.5316 70.7846C86.3474 70.7284 86.1535 70.7107 85.9622 70.7327C85.7708 70.7546 85.586 70.8157 85.4193 70.9122V70.9122ZM89.9404 71.4567C90.1858 71.4547 90.4278 71.3989 90.6494 71.2934L91.5765 70.7488C91.7422 70.6563 91.8879 70.5321 92.0054 70.3832C92.1229 70.2344 92.2097 70.0638 92.261 69.8813C92.3122 69.6988 92.3268 69.508 92.304 69.3199C92.2812 69.1317 92.2214 68.9499 92.128 68.7849C92.0346 68.6199 91.9094 68.475 91.7598 68.3584C91.6101 68.2419 91.4389 68.156 91.2559 68.1057C91.0729 68.0554 90.8817 68.0417 90.6934 68.0654C90.5051 68.0891 90.3233 68.1497 90.1585 68.2438L89.2314 68.7884C89.0655 68.8802 88.9196 69.004 88.8021 69.1527C88.6847 69.3014 88.598 69.472 88.5473 69.6545C88.4965 69.8369 88.4826 70.0277 88.5065 70.2156C88.5303 70.4034 88.5913 70.5847 88.686 70.7488C88.8109 70.9695 88.9937 71.1521 89.2147 71.2768C89.4357 71.4016 89.6866 71.4638 89.9404 71.4567ZM91.5765 81.0955L90.6494 80.551C90.3168 80.3654 89.9243 80.3189 89.5575 80.4216C89.1907 80.5243 88.8796 80.7678 88.6921 81.099C88.5047 81.4301 88.4562 81.8219 88.5572 82.1886C88.6583 82.5553 88.9007 82.8672 89.2314 83.056L90.1585 83.6005C90.3801 83.7061 90.6221 83.7618 90.8675 83.7639C91.1257 83.7603 91.3783 83.6877 91.5989 83.5536C91.8195 83.4196 92.0001 83.2289 92.1219 83.0015C92.2194 82.8426 92.2829 82.6652 92.3082 82.4806C92.3335 82.2959 92.32 82.108 92.2688 81.9288C92.2175 81.7496 92.1295 81.583 92.0103 81.4395C91.8911 81.2961 91.7434 81.179 91.5765 81.0955V81.0955ZM86.8318 78.4272L84.923 77.338C84.7582 77.244 84.5765 77.1834 84.3881 77.1597C84.1998 77.136 84.0087 77.1496 83.8257 77.1999C83.6427 77.2502 83.4714 77.3361 83.3218 77.4527C83.1721 77.5692 83.047 77.7142 82.9536 77.8792C82.8602 78.0442 82.8004 78.2259 82.7775 78.4141C82.7547 78.6022 82.7693 78.793 82.8206 78.9755C82.8718 79.158 82.9587 79.3286 83.0761 79.4775C83.1936 79.6263 83.3394 79.7506 83.505 79.843L85.4138 80.9322C85.6354 81.0377 85.8774 81.0934 86.1228 81.0955C86.381 81.0919 86.6336 81.0193 86.8542 80.8853C87.0748 80.7512 87.2554 80.5605 87.3772 80.3331C87.4764 80.1747 87.5412 79.9972 87.5674 79.8122C87.5936 79.6271 87.5806 79.4387 87.5292 79.259C87.4778 79.0793 87.3891 78.9124 87.269 78.7691C87.1488 78.6258 86.9999 78.5093 86.8318 78.4272V78.4272ZM72.1068 73.4172L74.0156 74.5063C74.2372 74.6118 74.4792 74.6676 74.7246 74.6697C74.9828 74.6661 75.2354 74.5935 75.456 74.4594C75.6766 74.3253 75.8572 74.1347 75.979 73.9073C76.0737 73.7432 76.1347 73.5619 76.1586 73.374C76.1824 73.1861 76.1685 72.9954 76.1177 72.8129C76.067 72.6305 75.9803 72.4599 75.8629 72.3112C75.7454 72.1625 75.5995 72.0386 75.4336 71.9468L73.5248 70.8577C73.3605 70.7631 73.1789 70.7022 72.9908 70.6784C72.8026 70.6546 72.6116 70.6684 72.4288 70.7191C72.2461 70.7698 72.0753 70.8563 71.9264 70.9736C71.7774 71.0909 71.6534 71.2366 71.5615 71.4023C71.3788 71.7444 71.3335 72.1432 71.4348 72.5175C71.5361 72.8918 71.7764 73.2135 72.1068 73.4172V73.4172ZM69.7618 68.7884L68.8346 68.2438C68.6699 68.1497 68.4881 68.0891 68.2998 68.0654C68.1115 68.0417 67.9203 68.0554 67.7373 68.1057C67.5543 68.156 67.383 68.2419 67.2334 68.3584C67.0837 68.475 66.9586 68.6199 66.8652 68.7849C66.7718 68.9499 66.712 69.1317 66.6892 69.3199C66.6663 69.508 66.681 69.6988 66.7322 69.8813C66.7835 70.0638 66.8703 70.2344 66.9878 70.3832C67.1052 70.5321 67.251 70.6563 67.4167 70.7488L68.3438 71.2934C68.5653 71.3989 68.8073 71.4547 69.0528 71.4567C69.311 71.4532 69.5636 71.3805 69.7842 71.2465C70.0047 71.1124 70.1853 70.9217 70.3071 70.6943C70.3999 70.5342 70.4595 70.3571 70.4822 70.1735C70.505 69.9899 70.4905 69.8036 70.4396 69.6258C70.3887 69.4479 70.3024 69.2821 70.186 69.1382C70.0695 68.9943 69.9253 68.8754 69.7618 68.7884V68.7884Z" fill="#20133A"/>
<defs>
<filter id="filter0_d_755_118" x="168" y="27" width="108.617" height="108.092" filterUnits="userSpaceOnUse" color-interpolation-filters="sRGB">
<feFlood flood-opacity="0" result="BackgroundImageFix"/>
<feColorMatrix in="SourceAlpha" type="matrix" values="0 0 0 0 0 0 0 0 0 0 0 0 0 0 0 0 0 0 127 0" result="hardAlpha"/>
<feOffset dy="4"/>
<feGaussianBlur stdDeviation="2"/>
<feComposite in2="hardAlpha" operator="out"/>
<feColorMatrix type="matrix" values="0 0 0 0 0 0 0 0 0 0 0 0 0 0 0 0 0 0 0.1 0"/>
<feBlend mode="normal" in2="BackgroundImageFix" result="effect1_dropShadow_755_118"/>
<feBlend mode="normal" in="SourceGraphic" in2="effect1_dropShadow_755_118" result="shape"/>
</filter>
<filter id="filter1_d_755_118" x="23" y="27" width="141.514" height="108.092" filterUnits="userSpaceOnUse" color-interpolation-filters="sRGB">
<feFlood flood-opacity="0" result="BackgroundImageFix"/>
<feColorMatrix in="SourceAlpha" type="matrix" values="0 0 0 0 0 0 0 0 0 0 0 0 0 0 0 0 0 0 127 0" result="hardAlpha"/>
<feOffset dy="4"/>
<feGaussianBlur stdDeviation="2"/>
<feComposite in2="hardAlpha" operator="out"/>
<feColorMatrix type="matrix" values="0 0 0 0 0 0 0 0 0 0 0 0 0 0 0 0 0 0 0.1 0"/>
<feBlend mode="normal" in2="BackgroundImageFix" result="effect1_dropShadow_755_118"/>
<feBlend mode="normal" in="SourceGraphic" in2="effect1_dropShadow_755_118" result="shape"/>
</filter>
<linearGradient id="paint0_linear_755_118" x1="60.0001" y1="76.0014" x2="98.2904" y2="76.0014" gradientUnits="userSpaceOnUse">
<stop stop-color="#9059FF"/>
<stop offset="1" stop-color="#F770FF"/>
</linearGradient>
</defs>
</svg>
