<?xml version="1.0" encoding="utf-8"?>
<!-- Generator: Adobe Illustrator 27.6.1, SVG Export Plug-In . SVG Version: 6.00 Build 0)  -->
<svg version="1.1" id="Layer_1" xmlns="http://www.w3.org/2000/svg" xmlns:xlink="http://www.w3.org/1999/xlink" x="0px" y="0px"
	 viewBox="0 0 50 50" style="enable-background:new 0 0 50 50;" xml:space="preserve">
<style type="text/css">
	.st0{fill:#E7DFFF;}
	.st1{fill:url(#SVGID_1_);}
	.st2{fill:#F770FF;filter:url(#Adobe_OpacityMaskFilter);}
	.st3{mask:url(#mask0_64_2687_00000039133451256762811770000018101591139032885638_);}
	.st4{fill:#FBB85E;}
	.st5{fill:#FFFFFF;}
	.st6{fill:#FF9200;}
	.st7{fill:#FF651D;}
	.st8{clip-path:url(#SVGID_00000142176221915184084420000001442273321029752488_);}
	.st9{fill:#C689FF;}
	.st10{fill:#AB71FF;}
	.st11{fill:#9059FF;}
	.st12{fill:#FF298A;}
	.st13{fill:none;stroke:#F770FF;stroke-width:0.6563;stroke-dasharray:1.31,1.31;}
	.st14{fill:#F5F7F9;}
	.st15{fill:#666666;}
</style>
<path class="st0" d="M3.6,0h42.7c2,0,3.6,1.7,3.6,3.7v42.6c0,2-1.6,3.7-3.6,3.7H3.6c-2,0-3.6-1.7-3.6-3.7V3.7C0,1.7,1.6,0,3.6,0z"/>
<radialGradient id="SVGID_1_" cx="5.6808" cy="26.6056" r="38.4791" gradientTransform="matrix(1.0033 0 0 1.0186 0 -0.3801)" gradientUnits="userSpaceOnUse">
	<stop  offset="0" style="stop-color:#9D62FC"/>
	<stop  offset="1" style="stop-color:#FD3296"/>
</radialGradient>
<path class="st1" d="M25,12.9c-2.7,0-5.3,0.8-7.6,2.3s-4,3.7-5,6.2s-1.3,5.3-0.8,8c0.5,2.7,1.8,5.2,3.7,7.1c1.9,1.9,4.3,3.3,7,3.8
	c2.6,0.5,5.4,0.3,7.9-0.8c2.5-1,4.6-2.8,6.1-5.1c1.5-2.3,2.3-5,2.3-7.7c0-3.7-1.4-7.2-4-9.8C32.1,14.3,28.6,12.9,25,12.9z
	 M33.8,21.5h-2.6c-0.4-1.5-1-2.9-1.8-4.1C31.2,18.2,32.8,19.7,33.8,21.5z M35.2,26.7c0,1.2-0.2,2.3-0.6,3.4h-3.1
	c0.2-1.1,0.3-2.3,0.3-3.4c0-1.1-0.1-2.3-0.3-3.4h3.1C35,24.4,35.2,25.6,35.2,26.7z M25,37.1c-1.8,0-3.5-2.1-4.4-5.1h8.8
	C28.5,35,26.8,37.1,25,37.1z M20.2,30.1c-0.4-2.2-0.4-4.5,0-6.8h9.6c0.2,1.1,0.3,2.3,0.3,3.4c0,1.1-0.1,2.3-0.3,3.4H20.2z
	 M14.8,26.7c0-1.2,0.2-2.3,0.6-3.4h3.1c-0.4,2.2-0.4,4.5,0,6.8h-3.1C15,29,14.8,27.9,14.8,26.7z M25,16.3c1.8,0,3.5,2.1,4.4,5.1
	h-8.8C21.5,18.4,23.2,16.3,25,16.3z M20.6,17.3c-0.8,1.3-1.4,2.7-1.8,4.1h-2.6C17.2,19.7,18.8,18.2,20.6,17.3z M16.2,32h2.6
	c0.4,1.5,1,2.9,1.8,4.1C18.8,35.2,17.2,33.8,16.2,32L16.2,32z M29.4,36.1c0.8-1.3,1.4-2.7,1.8-4.1h2.6
	C32.8,33.8,31.2,35.2,29.4,36.1L29.4,36.1z"/>
<defs>
	<filter id="Adobe_OpacityMaskFilter" filterUnits="userSpaceOnUse" x="7.2" y="8.6" width="18.9" height="16.4">
		<feColorMatrix  type="matrix" values="1 0 0 0 0  0 1 0 0 0  0 0 1 0 0  0 0 0 1 0"/>
	</filter>
</defs>
<mask maskUnits="userSpaceOnUse" x="7.2" y="8.6" width="18.9" height="16.4" id="mask0_64_2687_00000039133451256762811770000018101591139032885638_">
	<path class="st2" d="M5.5,7.1l17.7-3c0.9-0.2,1.8,0.5,2,1.5l2.9,18c0.2,1-0.5,1.9-1.4,2l-17.7,3c-0.9,0.2-1.8-0.5-2-1.5l-2.9-18
		C4,8.1,4.6,7.2,5.5,7.1z"/>
</mask>
<g class="st3">
	<path class="st4" d="M7.2,14.7l7.5-6c0.1-0.1,0.2-0.1,0.3-0.1c0.1,0,0.2,0,0.3,0l9,3.2l1.1,6.6c0,0.2,0,0.4-0.1,0.6
		c-0.1,0.2-0.3,0.3-0.5,0.3L9.1,22c-0.1,0-0.2,0-0.3,0c-0.1,0-0.2-0.1-0.3-0.1c-0.1-0.1-0.1-0.1-0.2-0.2c-0.1-0.1-0.1-0.2-0.1-0.3
		L7.2,14.7z"/>
	<path class="st5" d="M21.3,8.8l-12.1,2C8.4,11,7.9,11.7,8,12.5l1.7,10.3c0.1,0.8,0.9,1.3,1.6,1.2l12.1-2c0.8-0.1,1.3-0.9,1.2-1.7
		L23,10C22.8,9.2,22.1,8.7,21.3,8.8z"/>
	<path class="st6" d="M24.4,11.9l1.7,10.2L8.9,25L7.2,14.8l8.9,4.1l1.4-0.2L24.4,11.9z"/>
	<g>
		<path class="st7" d="M8.9,25l7.3-6c0.4-0.3,0.9-0.4,1.4-0.2l8.6,3.3L8.9,25z"/>
	</g>
</g>
<g>
	<defs>
		<polygon id="SVGID_00000121967545817728610530000007773002246907377553_" points="11.1,12.3 19.6,10.9 20.3,15.1 11.8,16.6 		"/>
	</defs>
	<clipPath id="SVGID_00000173845248190024984980000015124971459785782918_">
		<use xlink:href="#SVGID_00000121967545817728610530000007773002246907377553_"  style="overflow:visible;"/>
	</clipPath>
	<g style="clip-path:url(#SVGID_00000173845248190024984980000015124971459785782918_);">
		<path class="st9" d="M17.9,11.1c-1.4,0.2-1.7,0.9-2.4,1l1.6,3c0.4,0.2,0.8,0.4,1.3,0.3c1.1-0.2,1.7-1.4,1.4-3.1
			C19.7,11.2,19.3,10.9,17.9,11.1L17.9,11.1z M18,13.7c-0.6,0.1-1.2,0-1.3-0.2c0-0.2,0.2-0.9,1-1c0.9-0.1,1.3,0.4,1.3,0.5
			C19.1,13.2,18.6,13.6,18,13.7z"/>
		<path class="st10" d="M15.5,12.2l0.4,2.6c0.4-0.1,0.8,0.1,1.2,0.3L15.5,12.2C15.5,12.1,15.5,12.2,15.5,12.2L15.5,12.2z"/>
		<path class="st9" d="M12.9,12c-1.4,0.2-1.7,0.6-1.5,1.8c0.3,1.8,1.3,2.7,2.4,2.5c0.4-0.1,0.8-0.4,1.1-0.7l0.6-3.3
			C14.8,12.2,14.2,11.8,12.9,12z M13.5,14.5c-0.6,0.1-1.2-0.2-1.2-0.3c0-0.1,0.2-0.7,1.1-0.9c0.8-0.2,1.2,0.4,1.2,0.6
			C14.7,14.1,14.1,14.4,13.5,14.5z"/>
		<path class="st11" d="M15.5,12.2C15.4,12.2,15.4,12.2,15.5,12.2l-0.6,3.3c0.3-0.3,0.7-0.6,1.1-0.7L15.5,12.2L15.5,12.2z"/>
	</g>
</g>
<path class="st7" d="M29.4,37.9l-0.6,0.9l-0.9-0.6l-0.1,0.1l-1.7,2.5c0.1,0.1,0.2,0.1,0.3,0.1l5.2-1c0.1,0,0.2-0.1,0.3-0.2l-2.4-1.7
	L29.4,37.9z"/>
<path class="st6" d="M27.9,38.3l-2.5-1.5l0,0l0,0c-0.1,0.1-0.1,0.2-0.1,0.3l0.6,3.4c0,0.1,0.1,0.2,0.2,0.3l1.7-2.4L27.9,38.3z"/>
<path class="st6" d="M31.2,35.7L31.2,35.7C31.2,35.7,31.2,35.7,31.2,35.7L29.4,38l0.1,0.1l2.4,1.7c0.1-0.1,0.1-0.2,0.1-0.3l-0.7-3.5
	c0,0,0-0.1,0-0.1C31.3,35.7,31.2,35.7,31.2,35.7z"/>
<path class="st4" d="M27.9,38.4l0.9,0.6l0.7-0.9l1.7-2.4c0,0,0,0,0,0c-0.1-0.1-0.2-0.1-0.3-0.1l-5.2,1c-0.1,0-0.2,0.1-0.3,0.2l0,0
	L27.9,38.4z"/>
<ellipse class="st5" cx="31.4" cy="36" rx="1.4" ry="1.5"/>
<path class="st12" d="M31.2,35c-0.6,0.1-0.9,0.7-0.8,1.2c0.1,0.6,0.7,0.9,1.2,0.8c0.6-0.1,0.9-0.7,0.8-1.2
	C32.3,35.2,31.8,34.9,31.2,35z M30.6,36.2c-0.1-0.5,0.2-0.9,0.7-1c0.2,0,0.4,0,0.5,0.1l-0.9,1.4C30.7,36.5,30.6,36.4,30.6,36.2z
	 M31.6,36.8c-0.2,0-0.4,0-0.5-0.1l0.9-1.4c0.1,0.1,0.2,0.3,0.3,0.5C32.3,36.3,32,36.7,31.6,36.8z"/>
<path class="st11" d="M38.8,29.1l-1.4,1l-1-1.3l-0.2,0.1l-3.6,2.8c0.1,0.1,0.3,0.2,0.4,0.3l8.1,1.1c0.2,0,0.4,0,0.5-0.1l-2.7-3.7
	L38.8,29.1z"/>
<path class="st10" d="M36.5,28.9l-3-3.6l0,0l0,0c-0.1,0.1-0.2,0.3-0.3,0.4l-0.8,5.5c0,0.2,0,0.4,0.1,0.5l3.7-2.7L36.5,28.9z"/>
<path class="st10" d="M42.6,26.9c0-0.1-0.1-0.2-0.2-0.3l0,0c0,0,0,0,0,0l-3.8,2.6l0.1,0.2l2.8,3.7c0.1-0.1,0.2-0.3,0.3-0.4l0.7-5.5
	C42.6,27,42.6,27,42.6,26.9z"/>
<path class="st9" d="M36.4,28.9l1,1.3l1.4-1l3.7-2.6c0,0,0,0,0,0c-0.1-0.1-0.3-0.2-0.4-0.2L34,25.2c-0.2,0-0.4,0-0.5,0.1l0,0
	L36.4,28.9z"/>
<ellipse class="st5" cx="42.4" cy="27" rx="2.5" ry="2.6"/>
<path class="st11" d="M42.7,25.1c-1-0.1-1.9,0.6-2.1,1.6c-0.1,1,0.6,1.9,1.6,2.1c1,0.1,1.9-0.6,2.1-1.6
	C44.4,26.2,43.7,25.3,42.7,25.1z M41.9,27.8l-0.8-1l0.3-0.2l0.6,0.7l1.6-1.2l0.2,0.3L41.9,27.8z"/>
<path class="st13" d="M8.1,21.5c-2.1,1.1-7.2,5.1-2.3,7.8c4.9,2.7,23.2-18,34.4-11.3"/>
<g>
	<path class="st14" d="M40.9,16.9l1.3-0.2L41.8,20L40.9,16.9z"/>
	<path class="st15" d="M39.9,17.9l1.1-1l0.9,3.1L39.9,17.9z"/>
	<path class="st15" d="M40,17.1L39.6,18l2.3,2.1L40,17.1z"/>
	<path class="st14" d="M40.2,16.7L38,15.1l3.9,4.9L40.2,16.7z"/>
</g>
</svg>
