<svg width="67" height="66" viewBox="0 0 67 66" fill="none" xmlns="http://www.w3.org/2000/svg">
<rect width="67" height="66" rx="4.88" fill="#E7DFFF"/>
<path d="M33.5077 16.9805C29.891 16.9805 26.3556 18.0529 23.3485 20.0622C20.3414 22.0715 17.9976 24.9274 16.6136 28.2687C15.2296 31.61 14.8675 35.2867 15.573 38.8339C16.2786 42.381 18.0202 45.6392 20.5775 48.1966C23.1349 50.7539 26.3931 52.4955 29.9402 53.201C33.4874 53.9066 37.1641 53.5445 40.5054 52.1605C43.8467 50.7765 46.7026 48.4327 48.7119 45.4256C50.7212 42.4185 51.7936 38.8831 51.7936 35.2664C51.7882 30.4184 49.8599 25.7704 46.4318 22.3423C43.0037 18.9142 38.3557 16.9859 33.5077 16.9805ZM45.309 28.3132H41.7615C41.2741 26.3799 40.4618 24.5434 39.3592 22.8823C41.839 24.0597 43.9108 25.9508 45.309 28.3132ZM47.2221 35.2664C47.2189 36.7906 46.9601 38.3034 46.4564 39.7419H42.2941C42.5318 38.262 42.651 36.7654 42.6506 35.2664C42.651 33.7675 42.5318 32.2709 42.2941 30.7909H46.4564C46.9601 32.2295 47.2189 33.7423 47.2221 35.2664ZM33.5077 48.9809C31.0505 48.9809 28.8516 46.238 27.6401 42.2197H39.3775C38.1637 46.238 35.9648 48.9809 33.5077 48.9809ZM27.0481 39.7419C26.5169 36.7819 26.5169 33.751 27.0481 30.7909H39.9649C40.2302 32.268 40.364 33.7657 40.3649 35.2664C40.3648 36.7671 40.2317 38.2648 39.9672 39.7419H27.0481ZM19.7932 35.2664C19.7964 33.7423 20.0552 32.2295 20.5589 30.7909H24.7213C24.2456 33.7557 24.2456 36.7772 24.7213 39.7419H20.5589C20.0552 38.3034 19.7964 36.7906 19.7932 35.2664ZM33.5077 21.552C35.9648 21.552 38.1637 24.2949 39.3752 28.3132H27.6401C28.8516 24.2949 31.0505 21.552 33.5077 21.552ZM27.6561 22.8823C26.5535 24.5434 25.7412 26.3799 25.2538 28.3132H21.7063C23.1045 25.9508 25.1763 24.0597 27.6561 22.8823ZM21.7132 42.2197H25.2538C25.7412 44.153 26.5535 45.9894 27.6561 47.6506C25.1763 46.4732 23.1045 44.5821 21.7063 42.2197H21.7132ZM39.366 47.6506C40.4686 45.9894 41.281 44.153 41.7683 42.2197H45.3158C43.9158 44.5831 41.8416 46.4743 39.3592 47.6506H39.366Z" fill="url(#paint0_radial_64_2687)"/>
<mask id="mask0_64_2687" style="mask-type:alpha" maskUnits="userSpaceOnUse" x="5" y="5" width="33" height="33">
<rect x="5.13287" y="9.70233" width="28.6774" height="28.6774" rx="2.32795" transform="rotate(-9.43762 5.13287 9.70233)" fill="#F770FF"/>
</mask>
<g mask="url(#mask0_64_2687)">
<path d="M9.65974 19.445L19.7462 11.543C19.8726 11.4462 20.0199 11.3822 20.1759 11.3562C20.332 11.3303 20.4921 11.3432 20.643 11.3939L32.7437 15.6079L34.1892 24.3054C34.2335 24.572 34.1731 24.8448 34.0212 25.0638C33.8694 25.2828 33.6385 25.43 33.3794 25.4731L12.2492 28.9854C12.1209 29.0067 11.9896 29.0018 11.8626 28.971C11.7357 28.9402 11.6157 28.884 11.5095 28.8058C11.4033 28.7275 11.3129 28.6286 11.2435 28.5148C11.1741 28.401 11.1272 28.2745 11.1052 28.1425L9.65974 19.445Z" fill="#FBB85E"/>
<path d="M28.5696 11.644L12.3261 14.344C11.2871 14.5167 10.5848 15.4991 10.7575 16.5381L13.0099 30.0885C13.1826 31.1275 14.1649 31.8298 15.204 31.6571L31.4475 28.9571C32.4865 28.7843 33.1888 27.802 33.0161 26.7629L30.7637 13.2126C30.591 12.1736 29.6087 11.4712 28.5696 11.644Z" fill="white"/>
<path d="M32.7573 15.6923L34.9956 29.1579L11.9117 32.995L9.67334 19.5294L21.5652 24.9963L23.4579 24.6817L32.7573 15.6923Z" fill="#FF9200"/>
<g filter="url(#filter0_d_64_2687)">
<path d="M11.9118 32.9951L21.6325 25.0412C22.1611 24.6087 22.8807 24.4919 23.519 24.7349L34.9864 29.1016L11.9118 32.9951Z" fill="#FF651D"/>
</g>
</g>
<g clip-path="url(#clip0_64_2687)">
<path d="M23.9463 14.7123C22.1114 15.0173 21.6596 15.842 20.7938 16.0254L22.97 19.9725C23.5177 20.2423 24.0699 20.5114 24.6566 20.4138C26.1086 20.1725 26.9538 18.619 26.5777 16.2582C26.3457 14.793 25.831 14.399 23.9463 14.7123V14.7123ZM24.1785 18.1119C23.4355 18.2354 22.5159 18.1089 22.4756 17.8665C22.4305 17.5947 22.7181 16.7205 23.8062 16.5862C24.9607 16.4455 25.5452 17.049 25.5734 17.2189C25.6017 17.3888 24.9215 17.9884 24.1785 18.1119Z" fill="#C689FF"/>
<path d="M20.722 16.042L21.2996 19.5169C21.8681 19.4224 22.4147 19.6993 22.9699 19.9725L20.7914 16.0258C20.7665 16.0299 20.7446 16.0382 20.7197 16.0424L20.722 16.042Z" fill="#AB71FF"/>
<path d="M17.2413 15.8268C15.3566 16.1401 14.997 16.6794 15.2516 18.1408C15.6613 20.4937 16.9617 21.6929 18.4137 21.4515C18.9778 21.3577 19.4219 20.9068 19.8721 20.4642L20.6491 16.0495C19.7705 16.1559 19.0762 15.5218 17.2413 15.8268ZM18.1214 19.1187C17.3784 19.2422 16.5405 18.8927 16.5126 18.725C16.4847 18.5574 16.8422 17.795 17.9801 17.5546C19.0527 17.3274 19.6081 18.0638 19.6533 18.3356C19.6936 18.578 18.8644 18.9952 18.1214 19.1187Z" fill="#C689FF"/>
<path d="M20.7221 16.042C20.6972 16.0462 20.6742 16.0477 20.6489 16.0496L19.8693 20.4624C20.3029 20.0318 20.7421 19.6073 21.2971 19.5151L20.7198 16.0424L20.7221 16.042Z" fill="#9059FF"/>
</g>
<path d="M39.3912 49.9711L38.5222 51.1548L37.3256 50.4223L37.2271 50.5637L34.9953 53.7987C35.1239 53.8847 35.2831 53.917 35.4378 53.8887L42.4002 52.5507C42.5545 52.5198 42.6904 52.4307 42.7779 52.3031L39.546 50.0796L39.3912 49.9711Z" fill="#FF651D"/>
<path d="M37.3497 50.5308L33.9849 48.559L33.9892 48.5531L33.984 48.5541C33.8997 48.6758 33.8664 48.8212 33.8904 48.9618L34.7529 53.4501C34.7815 53.5934 34.8707 53.7184 35.0006 53.7972L37.2536 50.6711L37.3497 50.5308Z" fill="#FF9200"/>
<path d="M41.7495 47.0618L41.7451 47.0626C41.7451 47.0626 41.7451 47.0626 41.7503 47.066L39.3889 50.188L39.5416 50.29L42.8068 52.4725C42.8975 52.3475 42.9325 52.1946 42.9041 52.0476L42.0171 47.4322C42.006 47.3744 41.9851 47.3189 41.9552 47.2677C41.9062 47.1836 41.8355 47.1128 41.7495 47.0618Z" fill="#FF9200"/>
<path d="M37.3756 50.629L38.5732 51.3563L39.4455 50.179L41.7676 47.0457C41.7676 47.0457 41.7676 47.0457 41.7624 47.0423C41.64 46.9652 41.4907 46.9371 41.3458 46.964L34.3701 48.3045C34.2148 48.3357 34.0786 48.4267 33.9933 48.5562L33.989 48.5623L37.3756 50.629Z" fill="#FBB85E"/>
<circle cx="42.0868" cy="47.5276" r="1.94132" transform="rotate(-10.8781 42.0868 47.5276)" fill="white"/>
<path d="M41.8252 46.1659C41.0735 46.3103 40.5807 47.0376 40.7251 47.7893C40.8696 48.541 41.5969 49.0338 42.3486 48.8893C43.1002 48.7449 43.5931 48.0176 43.4486 47.2659C43.3042 46.5142 42.5769 46.0214 41.8252 46.1659ZM40.9975 47.737C40.8818 47.1351 41.2756 46.5539 41.8775 46.4382C42.1294 46.3898 42.3774 46.4311 42.589 46.5401L41.3558 48.36C41.1762 48.2039 41.0459 47.9889 40.9975 47.737ZM42.2962 48.617C42.0443 48.6654 41.7963 48.6241 41.5847 48.5151L42.8179 46.6952C42.9976 46.8513 43.1279 47.0663 43.1763 47.3182C43.2919 47.9201 42.8981 48.5013 42.2962 48.617Z" fill="#FF298A"/>
<path d="M51.9812 38.3669L50.1234 39.6945L48.7478 38.002L48.5335 38.1633L43.665 41.8633C43.8092 42.0559 44.0248 42.1841 44.2643 42.2195L55.0715 43.7221C55.3116 43.7535 55.5541 43.689 55.7453 43.5429L52.1522 38.6064L51.9812 38.3669Z" fill="#9059FF"/>
<path d="M48.8606 38.1508L44.8576 33.4441L44.867 33.4375L44.8587 33.4363C44.6712 33.5774 44.5474 33.7804 44.5114 34.0056L43.5052 41.2422C43.4746 41.4737 43.5436 41.7086 43.6968 41.8944L48.646 38.314L48.8606 38.1508Z" fill="#AB71FF"/>
<path d="M57.0614 35.5098C57.0307 35.3619 56.961 35.2227 56.8586 35.1047L56.8516 35.1037C56.8516 35.1037 56.8516 35.1037 56.8577 35.1112L51.7674 38.5003L51.9435 38.7265L55.7096 43.5646C55.9077 43.427 56.0369 43.2205 56.0685 42.9908L57.0709 35.7819C57.0833 35.6916 57.0801 35.5998 57.0614 35.5098Z" fill="#AB71FF"/>
<path d="M48.7394 38.1739L50.1228 39.8325L51.9783 38.5442L56.9169 35.1158C56.9169 35.1158 56.9169 35.1158 56.911 35.1083C56.7711 34.9347 56.5675 34.8195 56.343 34.7867L45.5151 33.2813C45.2734 33.2498 45.0298 33.3151 44.8413 33.4622L44.8321 33.4689L48.7394 38.1739Z" fill="#C689FF"/>
<circle cx="56.8503" cy="35.5961" r="3.41502" transform="rotate(7.91552 56.8503 35.5961)" fill="white"/>
<path d="M57.1863 33.18C55.8526 32.9946 54.6197 33.9265 54.4343 35.2602C54.2489 36.5938 55.1808 37.8267 56.5144 38.0121C57.8481 38.1976 59.081 37.2657 59.2664 35.932C59.4518 34.5984 58.5199 33.3655 57.1863 33.18ZM56.1992 36.7369L55.1591 35.3609L55.5471 35.0676L56.2942 36.0532L58.383 34.4744L58.6759 34.8648L56.1992 36.7369Z" fill="#9059FF"/>
<path d="M10.8431 28.3436C8.09189 29.7326 1.16538 35.0821 7.76823 38.7014C14.3711 42.3207 38.8512 14.8938 53.8962 23.7329" stroke="#F770FF" stroke-width="0.656325" stroke-dasharray="1.31 1.31"/>
<g filter="url(#filter1_d_64_2687)">
<path d="M54.8456 22.2792L56.5406 22.0609L56.0757 26.4341L54.8456 22.2792Z" fill="#F5F7F9"/>
<path d="M53.4352 23.5677L54.8455 22.2791L56.0756 26.434L53.4352 23.5677Z" fill="#666666"/>
<path d="M53.6033 22.5359L53.0177 23.747L56.1389 26.4796L53.6033 22.5359Z" fill="#666666"/>
<path d="M53.9225 22.0936L50.9525 19.9504L56.1389 26.4797L53.9225 22.0936Z" fill="#F5F7F9"/>
</g>
<defs>
<filter id="filter0_d_64_2687" x="9.58379" y="24.6101" width="27.7305" height="13.0409" filterUnits="userSpaceOnUse" color-interpolation-filters="sRGB">
<feFlood flood-opacity="0" result="BackgroundImageFix"/>
<feColorMatrix in="SourceAlpha" type="matrix" values="0 0 0 0 0 0 0 0 0 0 0 0 0 0 0 0 0 0 127 0" result="hardAlpha"/>
<feOffset dy="2.32795"/>
<feGaussianBlur stdDeviation="1.16398"/>
<feComposite in2="hardAlpha" operator="out"/>
<feColorMatrix type="matrix" values="0 0 0 0 0 0 0 0 0 0 0 0 0 0 0 0 0 0 0.12 0"/>
<feBlend mode="normal" in2="BackgroundImageFix" result="effect1_dropShadow_64_2687"/>
<feBlend mode="normal" in="SourceGraphic" in2="effect1_dropShadow_64_2687" result="shape"/>
</filter>
<filter id="filter1_d_64_2687" x="50.1117" y="19.9504" width="7.2696" height="8.2107" filterUnits="userSpaceOnUse" color-interpolation-filters="sRGB">
<feFlood flood-opacity="0" result="BackgroundImageFix"/>
<feColorMatrix in="SourceAlpha" type="matrix" values="0 0 0 0 0 0 0 0 0 0 0 0 0 0 0 0 0 0 127 0" result="hardAlpha"/>
<feOffset dy="0.840734"/>
<feGaussianBlur stdDeviation="0.420367"/>
<feComposite in2="hardAlpha" operator="out"/>
<feColorMatrix type="matrix" values="0 0 0 0 0 0 0 0 0 0 0 0 0 0 0 0 0 0 0.05 0"/>
<feBlend mode="normal" in2="BackgroundImageFix" result="effect1_dropShadow_64_2687"/>
<feBlend mode="normal" in="SourceGraphic" in2="effect1_dropShadow_64_2687" result="shape"/>
</filter>
<radialGradient id="paint0_radial_64_2687" cx="0" cy="0" r="1" gradientUnits="userSpaceOnUse" gradientTransform="translate(51.7936 16.9805) rotate(135) scale(51.7205)">
<stop stop-color="#9D62FC"/>
<stop offset="1" stop-color="#FD3296"/>
</radialGradient>
<clipPath id="clip0_64_2687">
<rect width="11.4817" height="5.74085" fill="white" transform="translate(14.9305 16.2109) rotate(-9.43762)"/>
</clipPath>
</defs>
</svg>
