<svg width="300" height="154" viewBox="0 0 300 154" fill="none" xmlns="http://www.w3.org/2000/svg">
<g clip-path="url(#clip0_3_977)">
<path d="M300 0H0V154H300V0Z" fill="#F5F7F9"/>
</g>
<g clip-path="url(#clip1_3_977)">
<path d="M83.9414 66.6652C82.874 64.096 80.7107 61.3223 79.0126 60.4462C80.3948 63.1564 81.1943 65.8749 81.5 67.9032C81.5 67.9032 81.5 67.9176 81.5051 67.9441C78.7273 61.0187 74.0163 58.2256 70.1691 52.1456C69.9739 51.8389 69.7796 51.5322 69.5895 51.204C69.4821 51.019 69.3952 50.8513 69.3196 50.6928C69.1601 50.3854 69.037 50.0605 68.9525 49.7247C68.9532 49.7087 68.9479 49.6931 68.9377 49.6808C68.9275 49.6685 68.9131 49.6605 68.8973 49.6582C68.8823 49.6541 68.8664 49.6541 68.8513 49.6582C68.8473 49.6601 68.8435 49.6625 68.8401 49.6654C68.8339 49.6654 68.8278 49.6725 68.8217 49.6746L68.8319 49.6613C62.6599 53.2763 60.5661 59.9636 60.3739 63.3098C57.9076 63.4784 55.5493 64.3866 53.6069 65.9158C53.4039 65.7441 53.1916 65.5837 52.971 65.4353C52.4112 63.4757 52.3876 61.4018 52.9025 59.4299C50.3783 60.5801 48.4154 62.3948 46.9882 64.0009H46.9769C46.0026 62.7669 46.0711 58.6969 46.1263 57.8473C46.1151 57.7942 45.4004 58.2184 45.3084 58.2828C44.4487 58.8962 43.645 59.5845 42.9069 60.3398C42.0669 61.1914 41.2995 62.1117 40.6127 63.091C39.0326 65.3304 37.9119 67.8607 37.3156 70.5358C37.3044 70.589 37.2941 70.6442 37.2829 70.6984C37.2369 70.9141 37.0702 71.9968 37.0406 72.2319V72.2861C36.8234 73.4048 36.688 74.5379 36.6357 75.6763V75.802C36.6357 89.3708 47.6363 100.371 61.2051 100.371C73.3579 100.371 83.4476 91.5484 85.4238 79.9589C85.4647 79.6451 85.4984 79.3281 85.5352 79.0112C86.0239 74.797 85.481 70.3682 83.9414 66.6652ZM55.622 85.8978C55.7365 85.952 55.8449 86.0123 55.9624 86.0655L55.9788 86.0757C55.8612 86.0184 55.7416 85.9591 55.623 85.8978H55.622ZM81.5071 67.9554V67.9319V67.9585V67.9554Z" fill="url(#paint0_linear_3_977)"/>
<path d="M83.9413 66.6652C82.874 64.096 80.7107 61.3223 79.0125 60.4462C80.3948 63.1564 81.1943 65.8749 81.4999 67.9033V67.9534C83.8187 74.2388 82.555 80.6306 80.7352 84.536C77.9196 90.5782 71.1036 96.7716 60.4332 96.47C48.9143 96.1429 38.7592 87.5847 36.8627 76.3848C36.5171 74.6171 36.8627 73.7205 37.0365 72.2861C36.8249 73.3913 36.7441 73.7113 36.6388 75.6763V75.802C36.6388 89.3708 47.6394 100.371 61.2081 100.371C73.3609 100.371 83.4506 91.5484 85.4268 79.9589C85.4677 79.6451 85.5015 79.3281 85.5383 79.0112C86.0239 74.797 85.481 70.3682 83.9413 66.6652Z" fill="url(#paint1_radial_3_977)"/>
<path d="M83.9413 66.6652C82.874 64.096 80.7107 61.3223 79.0125 60.4462C80.3948 63.1564 81.1943 65.8749 81.4999 67.9033V67.9534C83.8187 74.2388 82.555 80.6306 80.7352 84.536C77.9196 90.5782 71.1036 96.7716 60.4332 96.47C48.9143 96.1429 38.7592 87.5847 36.8627 76.3848C36.5171 74.6171 36.8627 73.7205 37.0365 72.2861C36.8249 73.3913 36.7441 73.7113 36.6388 75.6763V75.802C36.6388 89.3708 47.6394 100.371 61.2081 100.371C73.3609 100.371 83.4506 91.5484 85.4268 79.9589C85.4677 79.6451 85.5015 79.3281 85.5383 79.0112C86.0239 74.797 85.481 70.3682 83.9413 66.6652Z" fill="url(#paint2_radial_3_977)"/>
<path d="M72.0012 69.5523C72.0554 69.5901 72.1035 69.628 72.1546 69.6658C71.538 68.5709 70.7697 67.5686 69.8727 66.6887C62.2357 59.0517 67.8709 50.1285 68.8207 49.6746L68.8309 49.6613C62.6589 53.2764 60.5651 59.9636 60.3729 63.3098C60.6592 63.2904 60.9444 63.2658 61.2358 63.2658C65.8415 63.2658 69.8533 65.7992 72.0012 69.5523Z" fill="url(#paint3_radial_3_977)"/>
<path d="M61.2511 71.0777C61.2113 71.6911 59.052 73.7972 58.2965 73.7972C51.3097 73.7972 50.1759 78.0236 50.1759 78.0236C50.4826 81.5834 52.9629 84.5146 55.9635 86.0655C56.1005 86.136 56.2385 86.1994 56.3724 86.2628C56.6127 86.365 56.854 86.4673 57.0942 86.5582C58.1232 86.9212 59.2008 87.128 60.2911 87.1717C72.537 87.7462 74.9109 72.5294 66.0726 68.1108C68.3351 67.7172 70.6844 68.6281 71.9961 69.5492C69.8492 65.7962 65.8364 63.2628 61.2307 63.2628C60.9393 63.2628 60.6541 63.2873 60.3678 63.3067C57.9033 63.4775 55.5473 64.3867 53.6069 65.9158C53.9821 66.2337 54.4054 66.657 55.2959 67.5342C56.9664 69.1822 61.2419 70.8783 61.2511 71.0777Z" fill="url(#paint4_radial_3_977)"/>
<path d="M61.2511 71.0777C61.2113 71.6911 59.052 73.7972 58.2965 73.7972C51.3097 73.7972 50.1759 78.0236 50.1759 78.0236C50.4826 81.5834 52.9629 84.5146 55.9635 86.0655C56.1005 86.136 56.2385 86.1994 56.3724 86.2628C56.6127 86.365 56.854 86.4673 57.0942 86.5582C58.1232 86.9212 59.2008 87.128 60.2911 87.1717C72.537 87.7462 74.9109 72.5294 66.0726 68.1108C68.3351 67.7172 70.6844 68.6281 71.9961 69.5492C69.8492 65.7962 65.8364 63.2628 61.2307 63.2628C60.9393 63.2628 60.6541 63.2873 60.3678 63.3067C57.9033 63.4775 55.5473 64.3867 53.6069 65.9158C53.9821 66.2337 54.4054 66.657 55.2959 67.5342C56.9664 69.1822 61.2419 70.8783 61.2511 71.0777Z" fill="url(#paint5_radial_3_977)"/>
<path d="M52.465 65.0989C52.6643 65.2277 52.8279 65.3361 52.9761 65.4353C52.4164 63.4757 52.3927 61.4018 52.9076 59.4299C50.3834 60.5801 48.4205 62.3948 46.9933 64.0009C47.1088 63.9978 50.6728 63.9334 52.465 65.0989Z" fill="url(#paint6_radial_3_977)"/>
<path d="M36.8628 76.3847C38.7593 87.5847 48.9144 96.1429 60.4415 96.47C71.1118 96.7716 77.9238 90.5782 80.7435 84.536C82.5633 80.6296 83.8269 74.2388 81.5082 67.9533V67.9063C81.5082 67.9124 81.5082 67.9206 81.5133 67.9472C82.3844 73.6387 79.4901 79.1523 74.9651 82.8808C74.9604 82.8913 74.956 82.9018 74.9518 82.9125C66.134 90.0925 57.6964 87.2442 55.9881 86.0818C55.8695 86.0246 55.7499 85.9653 55.6313 85.9039C50.4898 83.4503 48.3664 78.7627 48.8213 74.7459C44.4814 74.7459 43.001 71.0838 43.001 71.0838C43.001 71.0838 46.8983 68.305 52.0346 70.7219C56.7916 72.9609 61.2594 71.0848 61.2594 71.0838C61.2502 70.8844 56.9746 69.1832 55.3072 67.5403C54.4167 66.6631 53.9934 66.2399 53.6182 65.9219C53.4152 65.7502 53.2029 65.5898 52.9823 65.4414C52.8361 65.3392 52.6756 65.2369 52.4712 65.105C50.679 63.9395 47.115 64.004 46.9974 64.007H46.9862C46.0119 62.773 46.0804 58.703 46.1356 57.8534C46.1243 57.8003 45.4097 58.2246 45.3177 58.289C44.458 58.9023 43.6543 59.5907 42.9162 60.346C42.0762 61.1976 41.3088 62.1178 40.622 63.0971C39.0418 65.3365 37.9212 67.8669 37.3249 70.542C37.3055 70.589 36.4313 74.4054 36.8628 76.3847Z" fill="url(#paint7_radial_3_977)"/>
<path d="M69.8727 66.6887C70.7698 67.5686 71.538 68.5709 72.1546 69.6658C72.2824 69.7618 72.4053 69.8641 72.5227 69.9725C78.0925 75.1007 75.1788 82.3604 74.9569 82.8818C79.4819 79.1533 82.3762 73.6397 81.5051 67.9482C78.7274 61.0187 74.0164 58.2256 70.1692 52.1456C69.9739 51.8389 69.7797 51.5322 69.5895 51.204C69.4822 51.019 69.3953 50.8513 69.3196 50.6928C69.1602 50.3854 69.037 50.0605 68.9526 49.7247C68.9533 49.7087 68.948 49.6931 68.9378 49.6808C68.9276 49.6685 68.9132 49.6605 68.8974 49.6582C68.8823 49.6541 68.8665 49.6541 68.8514 49.6582C68.8473 49.6601 68.8435 49.6625 68.8401 49.6654C68.834 49.6654 68.8279 49.6725 68.8217 49.6746C67.871 50.1285 62.2357 59.0517 69.8727 66.6887Z" fill="url(#paint8_radial_3_977)"/>
<path d="M72.5206 69.9674C72.4032 69.859 72.2803 69.7567 72.1525 69.6607C72.1025 69.6229 72.0503 69.585 71.9992 69.5472C70.6875 68.6271 68.3381 67.7151 66.0756 68.1087C74.9129 72.5274 72.54 87.7442 60.2942 87.1696C59.2039 87.1259 58.1263 86.9191 57.0973 86.5562C56.857 86.4662 56.6158 86.3671 56.3755 86.2607C56.2365 86.1974 56.0984 86.134 55.9666 86.0634L55.9829 86.0736C57.6913 87.2391 66.1288 90.0874 74.9467 82.9043C74.9467 82.9043 74.9518 82.891 74.9599 82.8726C75.1787 82.3604 78.0925 75.1007 72.5206 69.9674Z" fill="url(#paint9_radial_3_977)"/>
<path d="M50.1759 78.0236C50.1759 78.0236 51.3097 73.7972 58.2965 73.7972C59.052 73.7972 61.2112 71.6891 61.2511 71.0777C61.291 70.4663 56.7834 72.9547 52.0264 70.7158C46.89 68.2989 42.9928 71.0777 42.9928 71.0777C42.9928 71.0777 44.4732 74.7398 48.8131 74.7398C48.3581 78.7566 50.4816 83.4401 55.623 85.8978C55.7375 85.952 55.8459 86.0123 55.9635 86.0655C52.9628 84.5176 50.4857 81.5835 50.1759 78.0236Z" fill="url(#paint10_radial_3_977)"/>
<path d="M83.9414 66.6652C82.874 64.096 80.7107 61.3223 79.0126 60.4462C80.3948 63.1564 81.1943 65.8749 81.5 67.9032C81.5 67.9032 81.5 67.9176 81.5051 67.9441C78.7273 61.0187 74.0163 58.2256 70.1691 52.1456C69.9739 51.8389 69.7796 51.5322 69.5895 51.204C69.4821 51.019 69.3952 50.8513 69.3196 50.6928C69.1601 50.3854 69.037 50.0605 68.9525 49.7247C68.9532 49.7087 68.9479 49.6931 68.9377 49.6808C68.9275 49.6685 68.9131 49.6605 68.8973 49.6582C68.8823 49.6541 68.8664 49.6541 68.8513 49.6582C68.8473 49.6601 68.8435 49.6625 68.8401 49.6654C68.8339 49.6654 68.8278 49.6725 68.8217 49.6746L68.8319 49.6613C62.6599 53.2763 60.5661 59.9636 60.3739 63.3098C60.6602 63.2904 60.9454 63.2658 61.2368 63.2658C65.8425 63.2658 69.8543 65.7992 72.0022 69.5523C70.6905 68.6322 68.3412 67.7202 66.0787 68.1139C74.916 72.5325 72.5431 87.7493 60.2972 87.1747C59.2069 87.131 58.1294 86.9243 57.1003 86.5613C56.8601 86.4713 56.6188 86.3722 56.3785 86.2659C56.2395 86.2025 56.1015 86.1391 55.9696 86.0685L55.9859 86.0788C55.8674 86.0215 55.7477 85.9622 55.6291 85.9009C55.7436 85.9551 55.852 86.0154 55.9696 86.0685C52.9628 84.5176 50.4857 81.5834 50.1759 78.0236C50.1759 78.0236 51.3097 73.7972 58.2965 73.7972C59.052 73.7972 61.2112 71.689 61.2511 71.0777C61.2419 70.8783 56.9664 69.1771 55.2989 67.5342C54.4084 66.657 53.9852 66.2337 53.61 65.9158C53.407 65.7441 53.1947 65.5837 52.9741 65.4353C52.4143 63.4757 52.3906 61.4018 52.9056 59.4299C50.3814 60.5801 48.4184 62.3948 46.9912 64.0009H46.98C46.0057 62.7669 46.0742 58.6969 46.1294 57.8473C46.1181 57.7942 45.4035 58.2184 45.3115 58.2828C44.4518 58.8962 43.6481 59.5845 42.91 60.3398C42.07 61.1914 41.3026 62.1117 40.6158 63.091C39.0356 65.3304 37.915 67.8607 37.3187 70.5358C37.3074 70.589 37.2972 70.6442 37.286 70.6984C37.24 70.9141 37.0314 72.0121 37.0028 72.2473C37.0028 72.2657 37.0028 72.2299 37.0028 72.2473C36.8113 73.3818 36.6888 74.5269 36.6357 75.6763V75.802C36.6357 89.3708 47.6363 100.371 61.2051 100.371C73.3579 100.371 83.4476 91.5484 85.4238 79.9589C85.4647 79.6451 85.4984 79.3281 85.5352 79.0112C86.0239 74.797 85.481 70.3682 83.9414 66.6652ZM81.5041 67.9268V67.9533V67.9268Z" fill="url(#paint11_linear_3_977)"/>
</g>
<rect x="101.862" y="51.6552" width="162.138" height="48.3448" rx="16" fill="white" stroke="#5A2AC9" stroke-width="4"/>
<path d="M244.584 67.4694L233.854 61.3502C233.477 61.143 233.055 61.0345 232.626 61.0345C232.197 61.0345 231.775 61.143 231.398 61.3502L220.63 67.4694C220.241 67.6912 219.917 68.0133 219.691 68.403C219.466 68.7926 219.346 69.2359 219.345 69.6876V81.8877C219.341 82.3403 219.459 82.7855 219.685 83.176C219.911 83.5665 220.238 83.8878 220.63 84.1059L231.36 90.1868C231.736 90.4159 232.168 90.535 232.607 90.531C233.045 90.5299 233.475 90.4111 233.854 90.1868L244.584 84.1059C244.973 83.8841 245.296 83.5619 245.522 83.1723C245.748 82.7826 245.867 82.3393 245.869 81.8877V69.6876C245.88 69.2334 245.765 68.7852 245.538 68.3933C245.311 68.0014 244.981 67.6814 244.584 67.4694Z" fill="url(#paint12_linear_3_977)"/>
<path d="M225.126 78.9821L224.484 79.3645C224.369 79.429 224.268 79.516 224.186 79.6204C224.105 79.7248 224.045 79.8446 224.01 79.9728C223.975 80.1009 223.965 80.2349 223.982 80.3668C223.998 80.4988 224.04 80.6261 224.106 80.7413C224.19 80.901 224.315 81.0349 224.468 81.1291C224.621 81.2232 224.796 81.2742 224.975 81.2768C225.145 81.2753 225.313 81.2361 225.466 81.162L226.108 80.7796C226.223 80.7151 226.324 80.6281 226.406 80.5237C226.487 80.4193 226.547 80.2995 226.582 80.1713C226.618 80.0432 226.627 79.9092 226.611 79.7773C226.594 79.6453 226.552 79.518 226.486 79.4028C226.428 79.2813 226.345 79.1732 226.244 79.0854C226.143 78.9976 226.024 78.932 225.897 78.8925C225.769 78.853 225.635 78.8406 225.502 78.856C225.37 78.8714 225.242 78.9143 225.126 78.9821ZM229.056 76.7256L227.733 77.4905C227.618 77.555 227.517 77.642 227.436 77.7464C227.354 77.8508 227.294 77.9706 227.259 78.0988C227.224 78.2269 227.214 78.3609 227.231 78.4928C227.247 78.6248 227.29 78.7521 227.355 78.8673C227.44 79.027 227.565 79.1609 227.718 79.2551C227.87 79.3493 228.045 79.4002 228.224 79.4028C228.394 79.4013 228.562 79.3621 228.715 79.288L230.038 78.5231C230.153 78.4587 230.254 78.3717 230.335 78.2672C230.417 78.1628 230.477 78.043 230.512 77.9149C230.547 77.7867 230.557 77.6528 230.54 77.5208C230.524 77.3889 230.481 77.2616 230.416 77.1463C230.357 77.0248 230.275 76.9168 230.173 76.829C230.072 76.7412 229.954 76.6755 229.826 76.636C229.699 76.5966 229.564 76.5841 229.432 76.5996C229.299 76.615 229.171 76.6579 229.056 76.7256ZM234.383 74.8555C234.33 74.7469 234.255 74.6504 234.165 74.5715C234.074 74.4927 233.968 74.4332 233.854 74.3965V66.7055C233.854 66.5698 233.828 66.4352 233.777 66.3097C233.726 66.1842 233.651 66.0702 233.556 65.9742C233.461 65.8782 233.349 65.8022 233.225 65.7505C233.101 65.6987 232.968 65.6724 232.834 65.6729C232.702 65.6733 232.571 65.7006 232.45 65.7531C232.328 65.8057 232.218 65.8824 232.127 65.9787C232.035 66.075 231.963 66.189 231.916 66.3138C231.869 66.4387 231.847 66.5719 231.851 66.7055V74.4309C231.737 74.4676 231.632 74.5271 231.541 74.606C231.45 74.6848 231.376 74.7814 231.323 74.8899C231.252 75.0243 231.211 75.1731 231.205 75.3253C231.198 75.4776 231.226 75.6294 231.285 75.7695C231.226 75.9096 231.198 76.0614 231.205 76.2137C231.211 76.3659 231.252 76.5147 231.323 76.6491C231.376 76.7577 231.45 76.8542 231.541 76.9331C231.632 77.0119 231.737 77.0714 231.851 77.1081V84.8335C231.851 85.1074 231.959 85.37 232.15 85.5637C232.342 85.7573 232.601 85.8661 232.872 85.8661C233.142 85.8661 233.402 85.7573 233.593 85.5637C233.784 85.37 233.892 85.1074 233.892 84.8335V77.0698C234.006 77.0332 234.111 76.9737 234.202 76.8948C234.293 76.816 234.367 76.7194 234.421 76.6109C234.492 76.4765 234.532 76.3277 234.538 76.1754C234.545 76.0232 234.518 75.8714 234.459 75.7313C234.546 75.4404 234.519 75.1266 234.383 74.8555ZM236.956 72.2127L235.634 72.9776C235.519 73.0421 235.418 73.1291 235.336 73.2335C235.255 73.338 235.195 73.4577 235.16 73.5859C235.124 73.714 235.115 73.848 235.131 73.98C235.148 74.1119 235.19 74.2392 235.256 74.3545C235.34 74.5141 235.465 74.648 235.618 74.7422C235.771 74.8364 235.946 74.8874 236.125 74.8899C236.295 74.8884 236.462 74.8493 236.616 74.7751L237.938 74.0102C238.053 73.9458 238.154 73.8588 238.236 73.7544C238.317 73.6499 238.377 73.5301 238.412 73.402C238.447 73.2738 238.457 73.1399 238.441 73.0079C238.424 72.876 238.382 72.7487 238.316 72.6334C238.258 72.5119 238.175 72.4039 238.074 72.3161C237.972 72.2283 237.854 72.1626 237.727 72.1232C237.599 72.0837 237.465 72.0713 237.332 72.0867C237.199 72.1021 237.071 72.145 236.956 72.2127ZM240.088 72.5952C240.258 72.5937 240.426 72.5546 240.579 72.4805L241.222 72.098C241.336 72.0331 241.437 71.9458 241.519 71.8413C241.6 71.7367 241.66 71.6169 241.696 71.4888C241.731 71.3606 241.741 71.2266 241.726 71.0945C241.71 70.9623 241.668 70.8347 241.604 70.7188C241.539 70.6029 241.452 70.5011 241.349 70.4193C241.245 70.3374 241.126 70.2771 241 70.2418C240.873 70.2064 240.74 70.1968 240.61 70.2135C240.479 70.2301 240.353 70.2727 240.239 70.3388L239.597 70.7212C239.482 70.7857 239.381 70.8727 239.3 70.9771C239.218 71.0815 239.158 71.2013 239.123 71.3295C239.088 71.4576 239.078 71.5916 239.095 71.7235C239.111 71.8555 239.154 71.9828 239.219 72.098C239.306 72.253 239.432 72.3812 239.585 72.4688C239.739 72.5564 239.912 72.6001 240.088 72.5952ZM241.222 79.3645L240.579 78.9821C240.349 78.8518 240.077 78.8191 239.823 78.8912C239.569 78.9633 239.353 79.1344 239.223 79.3669C239.094 79.5995 239.06 79.8746 239.13 80.1322C239.2 80.3897 239.368 80.6088 239.597 80.7413L240.239 81.1238C240.393 81.1979 240.56 81.237 240.73 81.2385C240.909 81.236 241.084 81.185 241.237 81.0908C241.39 80.9967 241.515 80.8628 241.599 80.7031C241.667 80.5915 241.711 80.4669 241.729 80.3372C241.746 80.2075 241.737 80.0756 241.701 79.9497C241.666 79.8239 241.605 79.7069 241.522 79.6061C241.44 79.5054 241.337 79.4231 241.222 79.3645ZM237.935 77.4905L236.612 76.7256C236.498 76.6596 236.372 76.617 236.242 76.6004C236.111 76.5837 235.979 76.5933 235.852 76.6286C235.725 76.6639 235.606 76.7243 235.503 76.8061C235.399 76.888 235.312 76.9898 235.248 77.1057C235.183 77.2215 235.142 77.3492 235.126 77.4813C235.11 77.6135 235.12 77.7475 235.156 77.8756C235.191 78.0038 235.251 78.1236 235.333 78.2282C235.414 78.3327 235.515 78.42 235.63 78.4849L236.952 79.2498C237.106 79.3239 237.273 79.3631 237.443 79.3645C237.622 79.362 237.797 79.311 237.95 79.2168C238.103 79.1227 238.228 78.9888 238.312 78.8291C238.381 78.7178 238.426 78.5932 238.444 78.4632C238.462 78.3333 238.453 78.2009 238.418 78.0747C238.382 77.9485 238.321 77.8313 238.237 77.7307C238.154 77.63 238.051 77.5482 237.935 77.4905ZM227.733 73.972L229.056 74.7369C229.209 74.811 229.377 74.8502 229.547 74.8516C229.726 74.8491 229.901 74.7981 230.053 74.704C230.206 74.6098 230.331 74.4759 230.416 74.3162C230.481 74.201 230.524 74.0737 230.54 73.9417C230.557 73.8098 230.547 73.6758 230.512 73.5476C230.477 73.4195 230.417 73.2997 230.335 73.1953C230.254 73.0908 230.153 73.0039 230.038 72.9394L228.715 72.1745C228.602 72.1081 228.476 72.0653 228.346 72.0486C228.215 72.0318 228.083 72.0416 227.956 72.0772C227.83 72.1128 227.711 72.1735 227.608 72.2559C227.505 72.3383 227.419 72.4406 227.355 72.5569C227.229 72.7972 227.197 73.0773 227.268 73.3402C227.338 73.603 227.504 73.829 227.733 73.972ZM226.108 70.7212L225.466 70.3388C225.352 70.2727 225.226 70.2301 225.096 70.2135C224.965 70.1968 224.833 70.2064 224.706 70.2418C224.579 70.2771 224.46 70.3374 224.357 70.4193C224.253 70.5011 224.166 70.6029 224.102 70.7188C224.037 70.8347 223.996 70.9623 223.98 71.0945C223.964 71.2266 223.974 71.3606 224.01 71.4888C224.045 71.6169 224.105 71.7367 224.187 71.8413C224.268 71.9458 224.369 72.0331 224.484 72.098L225.126 72.4805C225.28 72.5546 225.447 72.5937 225.617 72.5952C225.796 72.5927 225.971 72.5417 226.124 72.4475C226.277 72.3534 226.402 72.2195 226.486 72.0598C226.551 71.9473 226.592 71.8229 226.608 71.694C226.623 71.5651 226.613 71.4342 226.578 71.3093C226.543 71.1844 226.483 71.0679 226.402 70.9669C226.322 70.8659 226.222 70.7823 226.108 70.7212Z" fill="#20133A"/>
<mask id="mask0_3_977" style="mask-type:alpha" maskUnits="userSpaceOnUse" x="120" y="65" width="80" height="22">
<path d="M198.606 78.2182C198.726 78.2688 198.834 78.3447 198.922 78.4408C199.011 78.5369 199.078 78.6509 199.118 78.775C199.158 78.8991 199.172 79.0305 199.157 79.1602C199.142 79.2899 199.1 79.4149 199.032 79.5268L197.041 82.9406C196.975 83.0537 196.884 83.1507 196.776 83.2246C196.668 83.2984 196.545 83.3471 196.415 83.3673C196.156 83.4103 195.89 83.3489 195.675 83.1966L191.55 79.8682L192.233 85.3871C192.254 85.6536 192.173 85.9181 192.006 86.1268C191.923 86.2259 191.818 86.3035 191.699 86.3531C191.58 86.4026 191.451 86.4226 191.323 86.4113H187.369C187.238 86.4146 187.109 86.3882 186.991 86.3339C186.873 86.2797 186.768 86.1991 186.686 86.0983C186.601 86.0017 186.537 85.8887 186.498 85.7663C186.459 85.644 186.446 85.5149 186.458 85.3871L187.141 79.8397L182.618 83.1966C182.521 83.2798 182.407 83.3387 182.283 83.3684C182.159 83.3981 182.03 83.3977 181.907 83.3673C181.774 83.3461 181.648 83.2938 181.539 83.2147C181.43 83.1356 181.342 83.0319 181.281 82.9121L179.375 79.4983C179.319 79.3829 179.29 79.2565 179.29 79.1285C179.29 79.0005 179.319 78.8741 179.375 78.7587C179.414 78.6403 179.477 78.5312 179.56 78.4382C179.643 78.3452 179.745 78.2703 179.858 78.2182L185.007 76.0845L179.858 73.8087C179.737 73.7703 179.627 73.6998 179.542 73.6047C179.457 73.5096 179.399 73.3934 179.375 73.2682C179.319 73.1479 179.29 73.0168 179.29 72.8841C179.29 72.7514 179.319 72.6204 179.375 72.5001L181.338 69.1716C181.394 69.0563 181.478 68.9568 181.582 68.8823C181.686 68.8077 181.808 68.7605 181.935 68.7449C182.172 68.6469 182.438 68.6469 182.675 68.7449L187.198 72.1018L186.515 66.6113C186.502 66.4835 186.516 66.3544 186.555 66.2321C186.594 66.1097 186.658 65.9967 186.743 65.9001C186.828 65.8023 186.933 65.7239 187.05 65.6699C187.168 65.6159 187.296 65.5877 187.425 65.5871H191.351C191.483 65.5811 191.613 65.6045 191.734 65.6556C191.855 65.7066 191.963 65.7841 192.051 65.8822C192.138 65.9804 192.202 66.0967 192.239 66.2229C192.275 66.349 192.283 66.4817 192.262 66.6113L191.55 72.3009L196.216 69.0294C196.318 68.9458 196.438 68.8869 196.566 68.8573C196.694 68.8276 196.828 68.8281 196.956 68.8587C197.079 68.8844 197.196 68.9357 197.299 69.0091C197.402 69.0826 197.489 69.1767 197.553 69.2854L199.488 72.6992C199.544 72.8195 199.573 72.9506 199.573 73.0833C199.573 73.2159 199.544 73.347 199.488 73.4673C199.438 73.5886 199.364 73.6987 199.271 73.7915C199.178 73.8843 199.068 73.9578 198.947 74.0078L193.826 76.2552L198.606 78.2182ZM169.247 78.2182C169.373 78.2624 169.486 78.3377 169.576 78.4371C169.665 78.5365 169.728 78.6569 169.759 78.7871C169.815 78.9025 169.843 79.0289 169.843 79.157C169.843 79.285 169.815 79.4114 169.759 79.5268L167.768 82.9406C167.702 83.0537 167.611 83.1507 167.503 83.2246C167.395 83.2984 167.271 83.3471 167.142 83.3673C167.018 83.3896 166.891 83.3859 166.768 83.3565C166.646 83.3271 166.531 83.2727 166.431 83.1966L162.078 79.8682L162.789 85.3871C162.8 85.6437 162.72 85.8958 162.562 86.0983C162.472 86.1982 162.363 86.2779 162.24 86.3318C162.117 86.3858 161.985 86.4129 161.851 86.4113H157.896C157.767 86.4107 157.639 86.3825 157.521 86.3285C157.403 86.2745 157.298 86.1961 157.213 86.0983C157.129 86.0017 157.065 85.8887 157.026 85.7663C156.987 85.644 156.973 85.5149 156.986 85.3871L157.669 79.8397L153.145 83.1966C153.044 83.2802 152.924 83.3391 152.796 83.3687C152.667 83.3983 152.534 83.3978 152.406 83.3673C152.277 83.3441 152.156 83.2908 152.052 83.2116C151.948 83.1325 151.865 83.0299 151.808 82.9121L149.874 79.4983C149.818 79.3829 149.789 79.2565 149.789 79.1285C149.789 79.0005 149.818 78.8741 149.874 78.7587C149.915 78.6367 149.982 78.5251 150.07 78.4317C150.158 78.3384 150.266 78.2655 150.386 78.2182L155.535 76.0845L150.386 73.8087C150.264 73.765 150.154 73.6934 150.065 73.5995C149.976 73.5056 149.911 73.3921 149.874 73.2682C149.818 73.1479 149.789 73.0168 149.789 72.8841C149.789 72.7514 149.818 72.6204 149.874 72.5001L151.837 69.1716C151.903 69.0585 151.993 68.9614 152.101 68.8876C152.21 68.8138 152.333 68.7651 152.463 68.7449C152.699 68.6469 152.965 68.6469 153.202 68.7449L157.64 72.2156L156.957 66.7251C156.942 66.5927 156.955 66.4588 156.994 66.3315C157.033 66.2042 157.098 66.0864 157.185 65.9854C157.27 65.8877 157.375 65.8092 157.493 65.7552C157.61 65.7013 157.738 65.6731 157.868 65.6725H161.794C161.928 65.6708 162.06 65.6979 162.183 65.7519C162.306 65.8059 162.415 65.8855 162.505 65.9854C162.592 66.0864 162.657 66.2042 162.696 66.3315C162.735 66.4588 162.747 66.5927 162.732 66.7251L162.078 72.3578L166.601 69.0294C166.698 68.9462 166.812 68.8873 166.936 68.8576C167.06 68.8279 167.189 68.8283 167.313 68.8587C167.443 68.8746 167.568 68.9217 167.677 68.996C167.786 69.0702 167.876 69.1695 167.938 69.2854L169.844 72.6992C169.9 72.8195 169.929 72.9506 169.929 73.0833C169.929 73.2159 169.9 73.347 169.844 73.4673C169.8 73.5876 169.732 73.6975 169.644 73.7905C169.556 73.8835 169.45 73.9574 169.332 74.0078L164.212 76.2552L169.247 78.2182ZM139.86 78.2182C140.092 78.3349 140.272 78.533 140.366 78.7745C140.461 79.016 140.463 79.2839 140.372 79.5268L138.352 82.9406C138.296 83.0559 138.212 83.1554 138.108 83.2299C138.003 83.3045 137.882 83.3517 137.755 83.3673C137.626 83.3902 137.495 83.3869 137.368 83.3575C137.24 83.3282 137.121 83.2735 137.015 83.1966L132.691 79.8682L133.374 85.3871C133.387 85.5149 133.373 85.644 133.334 85.7663C133.295 85.8887 133.231 86.0017 133.146 86.0983C133.064 86.1991 132.959 86.2797 132.841 86.3339C132.723 86.3882 132.594 86.4146 132.463 86.4113H128.424C128.294 86.4107 128.166 86.3825 128.049 86.3285C127.931 86.2745 127.826 86.1961 127.741 86.0983C127.655 86.0034 127.592 85.8897 127.557 85.7663C127.523 85.6428 127.518 85.513 127.542 85.3871L128.225 79.8397L123.701 83.1966C123.6 83.2802 123.48 83.3391 123.352 83.3687C123.223 83.3983 123.09 83.3978 122.962 83.3673C122.835 83.3401 122.715 83.2852 122.612 83.2065C122.509 83.1278 122.424 83.0273 122.364 82.9121L120.43 79.4983C120.345 79.259 120.345 78.998 120.43 78.7587C120.471 78.6367 120.538 78.5251 120.626 78.4317C120.714 78.3384 120.822 78.2655 120.942 78.2182L126.091 76.0845L120.942 73.8087C120.82 73.765 120.71 73.6934 120.621 73.5995C120.532 73.5056 120.467 73.3921 120.43 73.2682C120.374 73.1479 120.345 73.0168 120.345 72.8841C120.345 72.7514 120.374 72.6204 120.43 72.5001L122.393 69.1716C122.532 68.9567 122.752 68.8061 123.002 68.7527C123.253 68.6994 123.515 68.7477 123.73 68.8871L128.282 72.3578L127.57 66.8673C127.555 66.735 127.568 66.601 127.607 66.4737C127.646 66.3464 127.711 66.2286 127.798 66.1276C127.883 66.0299 127.988 65.9515 128.106 65.8975C128.223 65.8435 128.351 65.8153 128.481 65.8147H132.435C132.565 65.8153 132.692 65.8435 132.81 65.8975C132.928 65.9515 133.033 66.0299 133.118 66.1276C133.205 66.2286 133.27 66.3464 133.309 66.4737C133.348 66.601 133.36 66.735 133.345 66.8673L132.577 72.3578L137.101 69.0294C137.208 68.9453 137.332 68.8863 137.465 68.8568C137.598 68.8272 137.736 68.8279 137.869 68.8587C138.11 68.929 138.321 69.0795 138.466 69.2854L140.372 72.6992C140.428 72.8195 140.457 72.9506 140.457 73.0833C140.457 73.2159 140.428 73.347 140.372 73.4673C140.328 73.5876 140.26 73.6975 140.172 73.7905C140.084 73.8835 139.978 73.9574 139.86 74.0078L134.711 76.3121L139.86 78.2182Z" fill="white"/>
</mask>
<g mask="url(#mask0_3_977)">
<path d="M112.92 58.3044H206.856V93.8647H112.92V58.3044Z" fill="#F770FF"/>
</g>
<defs>
<linearGradient id="paint0_linear_3_977" x1="80.6892" y1="57.512" x2="39.9012" y2="96.8647" gradientUnits="userSpaceOnUse">
<stop offset="0.05" stop-color="#FFF44F"/>
<stop offset="0.11" stop-color="#FFE847"/>
<stop offset="0.22" stop-color="#FFC830"/>
<stop offset="0.37" stop-color="#FF980E"/>
<stop offset="0.4" stop-color="#FF8B16"/>
<stop offset="0.46" stop-color="#FF672A"/>
<stop offset="0.53" stop-color="#FF3647"/>
<stop offset="0.7" stop-color="#E31587"/>
</linearGradient>
<radialGradient id="paint1_radial_3_977" cx="0" cy="0" r="1" gradientUnits="userSpaceOnUse" gradientTransform="translate(78.804 55.2843) scale(51.2213)">
<stop offset="0.13" stop-color="#FFBD4F"/>
<stop offset="0.19" stop-color="#FFAC31"/>
<stop offset="0.25" stop-color="#FF9D17"/>
<stop offset="0.28" stop-color="#FF980E"/>
<stop offset="0.4" stop-color="#FF563B"/>
<stop offset="0.47" stop-color="#FF3750"/>
<stop offset="0.71" stop-color="#F5156C"/>
<stop offset="0.78" stop-color="#EB0878"/>
<stop offset="0.86" stop-color="#E50080"/>
</radialGradient>
<radialGradient id="paint2_radial_3_977" cx="0" cy="0" r="1" gradientUnits="userSpaceOnUse" gradientTransform="translate(60.0876 76.2242) scale(51.2213)">
<stop offset="0.3" stop-color="#960E18"/>
<stop offset="0.35" stop-color="#B11927" stop-opacity="0.74"/>
<stop offset="0.43" stop-color="#DB293D" stop-opacity="0.34"/>
<stop offset="0.5" stop-color="#F5334B" stop-opacity="0.09"/>
<stop offset="0.53" stop-color="#FF3750" stop-opacity="0"/>
</radialGradient>
<radialGradient id="paint3_radial_3_977" cx="0" cy="0" r="1" gradientUnits="userSpaceOnUse" gradientTransform="translate(66.2638 43.66) scale(37.1076 37.1076)">
<stop offset="0.13" stop-color="#FFF44F"/>
<stop offset="0.25" stop-color="#FFDC3E"/>
<stop offset="0.51" stop-color="#FF9D12"/>
<stop offset="0.53" stop-color="#FF980E"/>
</radialGradient>
<radialGradient id="paint4_radial_3_977" cx="0" cy="0" r="1" gradientUnits="userSpaceOnUse" gradientTransform="translate(54.4228 89.6039) scale(24.3884 24.3884)">
<stop offset="0.35" stop-color="#3A8EE6"/>
<stop offset="0.47" stop-color="#5C79F0"/>
<stop offset="0.67" stop-color="#9059FF"/>
<stop offset="1" stop-color="#C139E6"/>
</radialGradient>
<radialGradient id="paint5_radial_3_977" cx="0" cy="0" r="1" gradientUnits="userSpaceOnUse" gradientTransform="translate(60.8233 70.1368) rotate(-13.8972) scale(12.9211 15.1792)">
<stop offset="0.21" stop-color="#9059FF" stop-opacity="0"/>
<stop offset="0.28" stop-color="#8C4FF3" stop-opacity="0.06"/>
<stop offset="0.75" stop-color="#7716A8" stop-opacity="0.45"/>
<stop offset="0.97" stop-color="#6E008B" stop-opacity="0.6"/>
</radialGradient>
<radialGradient id="paint6_radial_3_977" cx="0" cy="0" r="1" gradientUnits="userSpaceOnUse" gradientTransform="translate(59.4405 53.1884) scale(17.5457)">
<stop stop-color="#FFE226"/>
<stop offset="0.12" stop-color="#FFDB27"/>
<stop offset="0.3" stop-color="#FFC82A"/>
<stop offset="0.5" stop-color="#FFA930"/>
<stop offset="0.73" stop-color="#FF7E37"/>
<stop offset="0.79" stop-color="#FF7139"/>
</radialGradient>
<radialGradient id="paint7_radial_3_977" cx="0" cy="0" r="1" gradientUnits="userSpaceOnUse" gradientTransform="translate(73.2322 42.06) scale(74.8582 74.8582)">
<stop offset="0.11" stop-color="#FFF44F"/>
<stop offset="0.46" stop-color="#FF980E"/>
<stop offset="0.62" stop-color="#FF5634"/>
<stop offset="0.72" stop-color="#FF3647"/>
<stop offset="0.9" stop-color="#E31587"/>
</radialGradient>
<radialGradient id="paint8_radial_3_977" cx="0" cy="0" r="1" gradientUnits="userSpaceOnUse" gradientTransform="translate(65.9963 50.2388) rotate(84.2321) scale(54.5642 35.8489)">
<stop stop-color="#FFF44F"/>
<stop offset="0.06" stop-color="#FFE847"/>
<stop offset="0.17" stop-color="#FFC830"/>
<stop offset="0.3" stop-color="#FF980E"/>
<stop offset="0.36" stop-color="#FF8B16"/>
<stop offset="0.45" stop-color="#FF672A"/>
<stop offset="0.57" stop-color="#FF3647"/>
<stop offset="0.74" stop-color="#E31587"/>
</radialGradient>
<radialGradient id="paint9_radial_3_977" cx="0" cy="0" r="1" gradientUnits="userSpaceOnUse" gradientTransform="translate(59.0275 59.6865) scale(46.7341)">
<stop offset="0.14" stop-color="#FFF44F"/>
<stop offset="0.48" stop-color="#FF980E"/>
<stop offset="0.59" stop-color="#FF5634"/>
<stop offset="0.66" stop-color="#FF3647"/>
<stop offset="0.9" stop-color="#E31587"/>
</radialGradient>
<radialGradient id="paint10_radial_3_977" cx="0" cy="0" r="1" gradientUnits="userSpaceOnUse" gradientTransform="translate(71.3643 62.4224) scale(51.1507 51.1507)">
<stop offset="0.09" stop-color="#FFF44F"/>
<stop offset="0.23" stop-color="#FFE141"/>
<stop offset="0.51" stop-color="#FFAF1E"/>
<stop offset="0.63" stop-color="#FF980E"/>
</radialGradient>
<linearGradient id="paint11_linear_3_977" x1="80.1985" y1="57.3014" x2="45.4935" y2="92.0074" gradientUnits="userSpaceOnUse">
<stop offset="0.17" stop-color="#FFF44F" stop-opacity="0.8"/>
<stop offset="0.27" stop-color="#FFF44F" stop-opacity="0.63"/>
<stop offset="0.49" stop-color="#FFF44F" stop-opacity="0.22"/>
<stop offset="0.6" stop-color="#FFF44F" stop-opacity="0"/>
</linearGradient>
<linearGradient id="paint12_linear_3_977" x1="219.345" y1="75.7838" x2="245.872" y2="75.7838" gradientUnits="userSpaceOnUse">
<stop stop-color="#9059FF"/>
<stop offset="1" stop-color="#F770FF"/>
</linearGradient>
<clipPath id="clip0_3_977">
<rect width="300" height="154" rx="8" fill="white"/>
</clipPath>
<clipPath id="clip1_3_977">
<rect width="52.3448" height="52.3448" fill="white" transform="translate(35 49.6552)"/>
</clipPath>
</defs>
</svg>
