<svg width="50" height="50" viewBox="0 0 50 50" fill="none" xmlns="http://www.w3.org/2000/svg">
<mask id="mask0_3_978" style="mask-type:alpha" maskUnits="userSpaceOnUse" x="0" y="0" width="50" height="50">
<rect width="50" height="50" rx="4" fill="white"/>
</mask>
<g mask="url(#mask0_3_978)">
<rect x="-2" y="-3" width="54" height="55" fill="#E7E7E7"/>
</g>
<path d="M40.1498 17.521H9.96953C8.60068 17.5236 7.28865 18.0685 6.32073 19.0364C5.35281 20.0043 4.80789 21.3164 4.8053 22.6852V27.3618C4.80772 28.7306 5.35261 30.0427 6.32058 31.0106C7.28856 31.9784 8.60069 32.5231 9.96953 32.5254H40.1498C41.5179 32.5207 42.8287 31.9752 43.7961 31.0079C44.7636 30.0406 45.3092 28.7299 45.3141 27.3618V22.6852C45.3092 21.317 44.7636 20.0063 43.7962 19.0389C42.8287 18.0714 41.518 17.5258 40.1498 17.521Z" fill="#7542E5"/>
<mask id="mask1_3_978" style="mask-type:alpha" maskUnits="userSpaceOnUse" x="4" y="17" width="42" height="16">
<path d="M40.1499 17.5208H9.96942C8.60058 17.5231 7.28848 18.068 6.32056 19.0359C5.35264 20.0038 4.80781 21.3159 4.80542 22.6848V27.3612C4.80781 28.7301 5.35264 30.0422 6.32056 31.0101C7.28848 31.978 8.60058 32.5229 9.96942 32.5252H40.1499C41.5181 32.5205 42.8288 31.9749 43.7962 31.0075C44.7636 30.0401 45.3092 28.7294 45.3139 27.3612V22.6848C45.3092 21.3166 44.7636 20.0059 43.7962 19.0385C42.8288 18.0711 41.5181 17.5255 40.1499 17.5208Z" fill="white"/>
</mask>
<g mask="url(#mask1_3_978)">
<path d="M2.44922 15.1644H47.6703V34.8815H2.44922V15.1644Z" fill="white"/>
</g>
<path d="M37.3693 25.7006C37.4075 25.7166 37.4418 25.7407 37.4698 25.7712C37.4979 25.8016 37.5191 25.8378 37.5319 25.8771C37.5448 25.9165 37.549 25.9581 37.5443 25.9993C37.5397 26.0404 37.5262 26.0801 37.5048 26.1156L36.8725 27.1988C36.8516 27.2347 36.8229 27.2655 36.7886 27.2889C36.7543 27.3123 36.7153 27.3278 36.6742 27.3343C36.5918 27.348 36.5073 27.3285 36.4393 27.28L35.1302 26.2242L35.3468 27.9751C35.3536 28.0597 35.3279 28.1437 35.2748 28.2101C35.2487 28.2415 35.2154 28.2662 35.1776 28.2819C35.1399 28.2976 35.0989 28.304 35.0582 28.3004H33.8035C33.7621 28.3014 33.721 28.2929 33.6833 28.2757C33.6457 28.2585 33.6125 28.2329 33.5862 28.2009C33.5595 28.1701 33.5393 28.1342 33.527 28.0954C33.5146 28.0566 33.5102 28.0156 33.5142 27.9751L33.7308 26.2151L32.2954 27.28C32.2649 27.3064 32.2284 27.3252 32.1891 27.3346C32.1498 27.3441 32.1089 27.344 32.0696 27.3343C32.0275 27.3275 31.9876 27.3109 31.9531 27.2857C31.9187 27.2606 31.8906 27.2277 31.8713 27.1897L31.2665 26.1064C31.2487 26.0699 31.2395 26.0298 31.2395 25.9892C31.2395 25.9486 31.2487 25.9086 31.2665 25.8721C31.2789 25.8345 31.2989 25.7999 31.3252 25.7704C31.3516 25.7409 31.3837 25.7171 31.4197 25.7006L33.054 25.0232L31.4197 24.3012C31.3811 24.289 31.3466 24.2666 31.3196 24.2364C31.2927 24.2063 31.2743 24.1694 31.2665 24.1297C31.2487 24.0915 31.2395 24.0498 31.2395 24.0077C31.2395 23.9655 31.2487 23.9238 31.2665 23.8856L31.889 22.8292C31.9069 22.7927 31.9337 22.7613 31.9668 22.7378C32 22.7142 32.0384 22.6993 32.0788 22.6943C32.116 22.6788 32.1559 22.6708 32.1963 22.6708C32.2366 22.6708 32.2765 22.6788 32.3138 22.6943L33.7491 23.7593L33.5325 22.0169C33.5283 21.9763 33.5326 21.9354 33.5449 21.8965C33.5573 21.8576 33.5776 21.8218 33.6045 21.7911C33.6315 21.7601 33.6647 21.7352 33.7021 21.718C33.7395 21.7008 33.78 21.6919 33.8211 21.6916H35.0674C35.109 21.6898 35.1505 21.6973 35.1888 21.7135C35.2272 21.7298 35.2615 21.7544 35.2891 21.7856C35.3168 21.8167 35.3371 21.8537 35.3487 21.8937C35.3603 21.9337 35.3628 21.9758 35.356 22.0169L35.1302 23.8228L36.6107 22.784C36.6431 22.7576 36.6812 22.739 36.7219 22.7297C36.7627 22.7204 36.8051 22.7206 36.8457 22.7303C36.9249 22.7467 36.9936 22.7958 37.0349 22.8658L37.6488 23.9491C37.6666 23.9872 37.6758 24.0288 37.6758 24.0708C37.6758 24.1129 37.6666 24.1544 37.6488 24.1926C37.633 24.2311 37.6097 24.2661 37.5803 24.2955C37.5508 24.325 37.5159 24.3483 37.4773 24.3641L35.8528 25.0775L37.3693 25.7006ZM28.0521 25.7006C28.0922 25.7145 28.1282 25.7383 28.1567 25.7697C28.1851 25.8012 28.2052 25.8393 28.2151 25.8806C28.2326 25.9173 28.2416 25.9574 28.2416 25.9981C28.2416 26.0387 28.2326 26.0789 28.2151 26.1156L27.5828 27.1988C27.5619 27.2347 27.5332 27.2655 27.4989 27.2889C27.4646 27.3123 27.4255 27.3278 27.3845 27.3343C27.3452 27.3415 27.3048 27.3403 27.2659 27.331C27.227 27.3216 27.1905 27.3042 27.1587 27.28L25.777 26.2242L26.0028 27.9751C26.0068 28.0566 25.9812 28.1368 25.9308 28.2009C25.9025 28.2327 25.8677 28.258 25.8287 28.2752C25.7897 28.2924 25.7476 28.3009 25.705 28.3004H24.4503C24.4092 28.3001 24.3686 28.2911 24.3312 28.274C24.2939 28.2568 24.2606 28.2319 24.2336 28.2009C24.2067 28.1702 24.1864 28.1344 24.1739 28.0955C24.1614 28.0567 24.157 28.0157 24.161 27.9751L24.3783 26.2151L22.9422 27.28C22.9101 27.3066 22.8722 27.3254 22.8315 27.3349C22.7908 27.3443 22.7485 27.3441 22.7079 27.3343C22.6671 27.327 22.6286 27.31 22.5956 27.2849C22.5626 27.2597 22.536 27.2271 22.5181 27.1897L21.9041 26.1064C21.8867 26.0698 21.8776 26.0298 21.8776 25.9892C21.8776 25.9487 21.8867 25.9087 21.9041 25.8721C21.917 25.8334 21.9382 25.7979 21.9663 25.7683C21.9943 25.7387 22.0285 25.7156 22.0665 25.7006L23.7008 25.0232L22.0665 24.3012C22.028 24.2871 21.9933 24.2643 21.9652 24.2345C21.937 24.2048 21.9161 24.1689 21.9041 24.1297C21.8863 24.0915 21.8771 24.0498 21.8771 24.0077C21.8771 23.9655 21.8863 23.9238 21.9041 23.8856L22.5273 22.8292C22.5481 22.7933 22.5768 22.7626 22.6111 22.7392C22.6454 22.7159 22.6845 22.7006 22.7256 22.6943C22.7628 22.6788 22.8027 22.6708 22.8431 22.6708C22.8834 22.6708 22.9233 22.6788 22.9606 22.6943L24.3691 23.7953L24.1524 22.0529C24.1476 22.011 24.1515 21.9685 24.1639 21.9282C24.1763 21.8879 24.1969 21.8506 24.2244 21.8186C24.2513 21.7875 24.2846 21.7625 24.322 21.7453C24.3593 21.7282 24.4 21.7192 24.4411 21.7191H25.6873C25.7297 21.7185 25.7718 21.727 25.8107 21.744C25.8495 21.7611 25.8842 21.7863 25.9125 21.818C25.9407 21.8496 25.9618 21.887 25.9744 21.9275C25.9869 21.9681 25.9906 22.0108 25.9851 22.0529L25.777 23.8404L27.213 22.784C27.2436 22.7578 27.2799 22.7392 27.3191 22.7299C27.3583 22.7205 27.3991 22.7207 27.4382 22.7303C27.4798 22.7354 27.5195 22.7503 27.5542 22.7739C27.5888 22.7974 27.6172 22.829 27.6372 22.8658L28.2419 23.9491C28.2597 23.9872 28.2689 24.0288 28.2689 24.0708C28.2689 24.1129 28.2597 24.1544 28.2419 24.1926C28.228 24.2307 28.2065 24.2656 28.1785 24.2951C28.1506 24.3246 28.117 24.3481 28.0796 24.3641L26.4544 25.0775L28.0521 25.7006ZM18.7264 25.7006C18.8789 25.7772 18.9489 25.9559 18.8887 26.1156L18.2479 27.1988C18.2303 27.2355 18.2036 27.2672 18.1704 27.2909C18.1372 27.3146 18.0986 27.3295 18.0581 27.3343C18.0174 27.3417 17.9757 27.3407 17.9354 27.3314C17.8951 27.322 17.8571 27.3045 17.8238 27.28L16.4513 26.2242L16.6679 27.9751C16.6722 28.0157 16.668 28.0567 16.6556 28.0956C16.6432 28.1344 16.6229 28.1703 16.5959 28.2009C16.5697 28.2329 16.5366 28.2584 16.4991 28.2757C16.4615 28.2929 16.4206 28.3014 16.3793 28.3004H15.097C15.056 28.3001 15.0154 28.291 14.9781 28.2739C14.9407 28.2567 14.9074 28.2319 14.8804 28.2009C14.853 28.1708 14.8331 28.1347 14.8221 28.0955C14.8112 28.0562 14.8097 28.015 14.8176 27.9751L15.0342 26.2151L13.5988 27.28C13.5666 27.3066 13.5285 27.3254 13.4878 27.3349C13.447 27.3443 13.4046 27.3441 13.3639 27.3343C13.3235 27.3257 13.2855 27.3083 13.2527 27.2833C13.2199 27.2583 13.193 27.2263 13.174 27.1897L12.5601 26.1064C12.5332 26.0306 12.5332 25.9479 12.5601 25.8721C12.573 25.8333 12.5943 25.7978 12.6224 25.7682C12.6506 25.7385 12.685 25.7154 12.7231 25.7006L14.3568 25.0232L12.7231 24.3012C12.6845 24.2872 12.6496 24.2645 12.6213 24.2347C12.593 24.205 12.5721 24.169 12.5601 24.1297C12.5423 24.0915 12.5331 24.0498 12.5331 24.0077C12.5331 23.9655 12.5423 23.9238 12.5601 23.8856L13.1832 22.8292C13.2276 22.7612 13.2972 22.7135 13.3767 22.6966C13.4561 22.6797 13.539 22.6949 13.6073 22.7389L15.0519 23.8404L14.8261 22.0981C14.8215 22.0561 14.8255 22.0137 14.838 21.9734C14.8505 21.933 14.8712 21.8957 14.8987 21.8638C14.9256 21.8326 14.9589 21.8076 14.9962 21.7905C15.0336 21.7733 15.0742 21.7644 15.1154 21.7643H16.3701C16.4532 21.7643 16.5324 21.8009 16.5868 21.8638C16.6143 21.8957 16.6349 21.933 16.6473 21.9734C16.6597 22.0137 16.6636 22.0562 16.6588 22.0981L16.4153 23.8404L17.8506 22.784C17.9194 22.7303 18.009 22.7101 18.0948 22.7303C18.1714 22.7526 18.2382 22.8004 18.2839 22.8658L18.8887 23.9491C18.9065 23.9872 18.9157 24.0288 18.9157 24.0708C18.9157 24.1129 18.9065 24.1544 18.8887 24.1926C18.8748 24.2307 18.8533 24.2656 18.8253 24.2951C18.7974 24.3246 18.7637 24.3481 18.7264 24.3641L17.092 25.0952L18.7264 25.7006Z" fill="#D9BFFF"/>
<path d="M40.1499 17.521V16.8259H9.9604C8.40949 16.8331 6.92429 17.4531 5.82848 18.5506C4.73266 19.6481 4.11505 21.1343 4.11023 22.6852L4.11023 27.3618C4.11282 28.9134 4.72973 30.4008 5.82605 31.4987C6.92237 32.5966 8.40886 33.2157 9.9604 33.2205H40.1499C41.7 33.2158 43.1853 32.598 44.2814 31.5019C45.3775 30.4058 45.9954 28.9204 46 27.3703V22.6852C45.9976 21.1335 45.3808 19.646 44.2845 18.5479C43.1881 17.4499 41.7015 16.8307 40.1499 16.8259V18.2161C41.3393 18.2162 42.4806 18.6857 43.3259 19.5225C44.1712 20.3593 44.6521 21.4958 44.6642 22.6852V27.3618C44.664 28.559 44.1883 29.707 43.3417 30.5535C42.4951 31.3999 41.347 31.8754 40.1499 31.8754H9.96957C8.78026 31.8635 7.6437 31.3828 6.80687 30.5376C5.97004 29.6924 5.50056 28.5512 5.50045 27.3618V22.6852C5.51252 21.4958 5.99343 20.3593 6.8387 19.5225C7.68397 18.6857 8.8253 18.2162 10.0147 18.2161H40.1407L40.1499 17.521Z" fill="#5A2AC9"/>
<mask id="mask2_3_978" style="mask-type:alpha" maskUnits="userSpaceOnUse" x="12" y="21" width="26" height="8">
<path d="M37.3692 25.7001C37.4074 25.7162 37.4416 25.7403 37.4697 25.7707C37.4977 25.8012 37.5189 25.8374 37.5318 25.8768C37.5446 25.9162 37.5488 25.9579 37.5441 25.999C37.5394 26.0402 37.526 26.0799 37.5046 26.1154L36.8726 27.1987C36.8517 27.2346 36.823 27.2654 36.7886 27.2889C36.7542 27.3123 36.7151 27.3278 36.674 27.3341C36.5917 27.3478 36.5073 27.3283 36.4393 27.28L35.1302 26.2237L35.3469 27.9751C35.3535 28.0597 35.3277 28.1436 35.2747 28.2099C35.2486 28.2413 35.2152 28.266 35.1775 28.2817C35.1397 28.2974 35.0987 28.3037 35.058 28.3001H33.8031C33.7618 28.3012 33.7208 28.2928 33.6833 28.2756C33.6457 28.2584 33.6126 28.2328 33.5864 28.2008C33.5596 28.1702 33.5393 28.1343 33.5269 28.0955C33.5145 28.0567 33.5102 28.0157 33.5142 27.9751L33.7309 26.2147L32.2954 27.28C32.2649 27.3064 32.2284 27.3251 32.1892 27.3345C32.1499 27.3439 32.109 27.3438 32.0697 27.3341C32.0276 27.3274 31.9876 27.3108 31.9531 27.2857C31.9186 27.2606 31.8905 27.2277 31.8711 27.1897L31.2663 26.1063C31.2486 26.0697 31.2395 26.0296 31.2395 25.989C31.2395 25.9484 31.2486 25.9082 31.2663 25.8716C31.2787 25.834 31.2988 25.7994 31.3252 25.7699C31.3516 25.7404 31.3838 25.7166 31.4197 25.7001L33.0538 25.023L31.4197 24.3007C31.3811 24.2886 31.3465 24.2662 31.3195 24.236C31.2925 24.2058 31.2741 24.169 31.2663 24.1292C31.2485 24.091 31.2393 24.0494 31.2393 24.0073C31.2393 23.9652 31.2485 23.9236 31.2663 23.8855L31.8892 22.8292C31.907 22.7926 31.9336 22.761 31.9668 22.7374C31.9999 22.7137 32.0384 22.6987 32.0788 22.6938C32.1539 22.6627 32.2383 22.6627 32.3135 22.6938L33.7489 23.7591L33.5323 22.0167C33.5282 21.9761 33.5326 21.9352 33.545 21.8963C33.5574 21.8575 33.5777 21.8217 33.6045 21.791C33.6315 21.76 33.6648 21.7351 33.7021 21.7179C33.7395 21.7008 33.7801 21.6919 33.8212 21.6917H35.067C35.1087 21.6898 35.1502 21.6972 35.1886 21.7134C35.227 21.7296 35.2613 21.7542 35.2889 21.7853C35.3166 21.8165 35.337 21.8534 35.3486 21.8934C35.3602 21.9334 35.3627 21.9756 35.3559 22.0167L35.1302 23.8223L36.6108 22.784C36.6431 22.7575 36.6811 22.7388 36.7218 22.7294C36.7625 22.72 36.8049 22.7202 36.8455 22.7299C36.8848 22.7381 36.922 22.7543 36.9546 22.7776C36.9872 22.8009 37.0147 22.8308 37.0351 22.8653L37.649 23.9487C37.6668 23.9868 37.676 24.0284 37.676 24.0705C37.676 24.1126 37.6668 24.1542 37.649 24.1924C37.6332 24.2309 37.6098 24.2659 37.5804 24.2953C37.5509 24.3247 37.516 24.3481 37.4775 24.3639L35.8525 25.0772L37.3692 25.7001ZM28.0523 25.7001C28.0924 25.7141 28.1283 25.738 28.1567 25.7696C28.1851 25.8011 28.2051 25.8393 28.2148 25.8806C28.2324 25.9173 28.2415 25.9574 28.2415 25.998C28.2415 26.0386 28.2324 26.0788 28.2148 26.1154L27.5828 27.1987C27.5619 27.2346 27.5332 27.2654 27.4988 27.2889C27.4645 27.3123 27.4253 27.3278 27.3842 27.3341C27.3449 27.3412 27.3045 27.3401 27.2657 27.3307C27.2268 27.3214 27.1904 27.3041 27.1585 27.28L25.7772 26.2237L26.0029 27.9751C26.0064 28.0566 25.9808 28.1366 25.9307 28.2008C25.9024 28.2325 25.8676 28.2578 25.8286 28.2749C25.7897 28.2921 25.7476 28.3007 25.705 28.3001H24.4501C24.409 28.3 24.3684 28.291 24.3311 28.2739C24.2937 28.2568 24.2604 28.2318 24.2335 28.2008C24.2066 28.1702 24.1864 28.1343 24.1739 28.0955C24.1615 28.0567 24.1572 28.0157 24.1612 27.9751L24.3779 26.2147L22.9425 27.28C22.9102 27.3065 22.8722 27.3252 22.8315 27.3346C22.7907 27.344 22.7484 27.3438 22.7077 27.3341C22.667 27.3268 22.6285 27.3099 22.5956 27.2848C22.5626 27.2596 22.5361 27.2271 22.5181 27.1897L21.9042 26.1063C21.8866 26.0697 21.8775 26.0296 21.8775 25.989C21.8775 25.9484 21.8866 25.9082 21.9042 25.8716C21.9172 25.8329 21.9384 25.7975 21.9665 25.7679C21.9946 25.7382 22.0288 25.7151 22.0667 25.7001L23.7008 25.023L22.0667 24.3007C22.0281 24.2869 21.9933 24.2642 21.965 24.2344C21.9368 24.2046 21.916 24.1685 21.9042 24.1292C21.8865 24.091 21.8773 24.0494 21.8773 24.0073C21.8773 23.9652 21.8865 23.9236 21.9042 23.8855L22.5272 22.8292C22.5481 22.7933 22.5768 22.7625 22.6112 22.7391C22.6456 22.7156 22.6847 22.7002 22.7258 22.6938C22.8009 22.6627 22.8854 22.6627 22.9605 22.6938L24.3689 23.7952L24.1522 22.0528C24.1474 22.0108 24.1514 21.9683 24.1638 21.9279C24.1763 21.8875 24.1969 21.8501 24.2244 21.8181C24.2514 21.787 24.2847 21.7621 24.3221 21.745C24.3594 21.7279 24.4 21.7189 24.4411 21.7187H25.687C25.7295 21.7182 25.7716 21.7268 25.8106 21.744C25.8495 21.7611 25.8843 21.7864 25.9127 21.8181C25.9402 21.8501 25.9608 21.8875 25.9733 21.9279C25.9857 21.9683 25.9897 22.0108 25.9849 22.0528L25.7772 23.8403L27.2127 22.784C27.2433 22.7576 27.2797 22.739 27.319 22.7295C27.3582 22.7201 27.3992 22.7202 27.4384 22.7299C27.4799 22.735 27.5196 22.7499 27.5542 22.7734C27.5887 22.797 27.6171 22.8285 27.637 22.8653L28.2419 23.9487C28.2596 23.9868 28.2689 24.0284 28.2689 24.0705C28.2689 24.1126 28.2596 24.1542 28.2419 24.1924C28.2279 24.2306 28.2063 24.2655 28.1784 24.295C28.1504 24.3245 28.1167 24.3479 28.0794 24.3639L26.4543 25.0772L28.0523 25.7001ZM18.7264 25.7001C18.7999 25.7371 18.8571 25.8 18.8871 25.8766C18.9171 25.9533 18.9177 26.0383 18.8889 26.1154L18.2479 27.1987C18.2301 27.2353 18.2035 27.2669 18.1703 27.2906C18.1372 27.3142 18.0987 27.3292 18.0583 27.3341C18.0176 27.3414 17.9758 27.3404 17.9354 27.3311C17.8951 27.3217 17.8571 27.3044 17.8236 27.28L16.4513 26.2237L16.668 27.9751C16.6721 28.0157 16.6677 28.0567 16.6553 28.0955C16.6429 28.1343 16.6226 28.1702 16.5958 28.2008C16.5696 28.2328 16.5365 28.2584 16.499 28.2756C16.4614 28.2928 16.4204 28.3012 16.3791 28.3001H15.0972C15.0561 28.3 15.0155 28.291 14.9781 28.2739C14.9407 28.2568 14.9075 28.2318 14.8805 28.2008C14.8531 28.1707 14.8332 28.1346 14.8222 28.0955C14.8112 28.0563 14.8096 28.0151 14.8173 27.9751L15.034 26.2147L13.5985 27.28C13.5662 27.3065 13.5282 27.3252 13.4875 27.3346C13.4468 27.344 13.4044 27.3438 13.3638 27.3341C13.3235 27.3255 13.2856 27.3081 13.2528 27.2831C13.2201 27.2581 13.1932 27.2263 13.1742 27.1897L12.5603 26.1063C12.5334 26.0304 12.5334 25.9476 12.5603 25.8716C12.5732 25.8329 12.5945 25.7975 12.6226 25.7679C12.6506 25.7382 12.6848 25.7151 12.7228 25.7001L14.3569 25.023L12.7228 24.3007C12.6842 24.2869 12.6493 24.2642 12.6211 24.2344C12.5929 24.2046 12.572 24.1685 12.5603 24.1292C12.5425 24.091 12.5333 24.0494 12.5333 24.0073C12.5333 23.9652 12.5425 23.9236 12.5603 23.8855L13.1832 22.8292C13.2276 22.761 13.2971 22.7132 13.3767 22.6963C13.4563 22.6793 13.5393 22.6947 13.6075 22.7389L15.052 23.8403L14.8263 22.0979C14.8215 22.0559 14.8255 22.0134 14.8379 21.973C14.8504 21.9326 14.871 21.8952 14.8985 21.8632C14.9255 21.8322 14.9588 21.8073 14.9962 21.7902C15.0335 21.773 15.0741 21.7641 15.1152 21.7639H16.3701C16.4112 21.7641 16.4518 21.773 16.4892 21.7902C16.5265 21.8073 16.5598 21.8322 16.5868 21.8632C16.6143 21.8952 16.635 21.9326 16.6474 21.973C16.6598 22.0134 16.6638 22.0559 16.659 22.0979L16.4152 23.8403L17.8507 22.784C17.8847 22.7574 17.9242 22.7386 17.9664 22.7293C18.0086 22.7199 18.0523 22.7201 18.0944 22.7299C18.1712 22.7522 18.238 22.8 18.284 22.8653L18.8889 23.9487C18.9067 23.9868 18.9159 24.0284 18.9159 24.0705C18.9159 24.1126 18.9067 24.1542 18.8889 24.1924C18.8749 24.2306 18.8533 24.2655 18.8254 24.295C18.7974 24.3245 18.7638 24.3479 18.7264 24.3639L17.0923 25.0952L18.7264 25.7001Z" fill="white"/>
</mask>
<g mask="url(#mask2_3_978)">
<path d="M10.1769 19.3805H39.9873V30.6655H10.1769V19.3805Z" fill="#F770FF"/>
</g>
</svg>
