<svg width="58" height="58" viewBox="0 0 58 58" fill="none" xmlns="http://www.w3.org/2000/svg">
<rect x="4.14285" y="4.14288" width="49.7143" height="49.7143" rx="1.06136" fill="#D9BFFF"/>
<path d="M8.12036 24.3725L27.8068 14.1989C28.0527 14.0717 28.3256 14.0054 28.6024 14.0054C28.8793 14.0054 29.1522 14.0717 29.3981 14.1989L49.0842 24.3725V39.6494C49.0842 40.1093 48.9016 40.5503 48.5765 40.8755C48.2514 41.2007 47.8104 41.3834 47.3507 41.3834H9.85389C9.62624 41.3834 9.40082 41.3385 9.1905 41.2514C8.98018 41.1642 8.78907 41.0365 8.6281 40.8755C8.46713 40.7145 8.33944 40.5233 8.25232 40.3129C8.1652 40.1026 8.12036 39.8771 8.12036 39.6494V24.3725Z" fill="#F68FFF"/>
<path d="M44.5647 16.0481H14.7254C13.2074 16.0481 11.9769 17.2786 11.9769 18.7966V44.0261C11.9769 45.5441 13.2074 46.7746 14.7254 46.7746H44.5647C46.0826 46.7746 47.3132 45.5441 47.3132 44.0261V18.7966C47.3132 17.2786 46.0826 16.0481 44.5647 16.0481Z" fill="white"/>
<path d="M35.2242 22.3226H23.3827C23.3463 22.3226 23.3168 22.3774 23.3168 22.445V22.8909C23.3168 22.9585 23.3463 23.0133 23.3827 23.0133H35.2242C35.2606 23.0133 35.2901 22.9585 35.2901 22.8909V22.445C35.2901 22.3774 35.2606 22.3226 35.2242 22.3226Z" fill="#ECECEC"/>
<path d="M35.2242 25.0858H23.3827C23.3463 25.0858 23.3168 25.1406 23.3168 25.2082V25.6541C23.3168 25.7217 23.3463 25.7765 23.3827 25.7765H35.2242C35.2606 25.7765 35.2901 25.7217 35.2901 25.6541V25.2082C35.2901 25.1406 35.2606 25.0858 35.2242 25.0858Z" fill="#ECECEC"/>
<path d="M38.2266 30.6118H20.3801C20.3488 30.6118 20.3234 30.6588 20.3234 30.7167V31.1977C20.3234 31.2556 20.3488 31.3026 20.3801 31.3026H38.2266C38.2579 31.3026 38.2833 31.2556 38.2833 31.1977V30.7167C38.2833 30.6588 38.2579 30.6118 38.2266 30.6118Z" fill="#ECECEC"/>
<path d="M38.2266 27.8489H20.3801C20.3488 27.8489 20.3234 27.8958 20.3234 27.9537V28.4348C20.3234 28.4927 20.3488 28.5396 20.3801 28.5396H38.2266C38.2579 28.5396 38.2833 28.4927 38.2833 28.4348V27.9537C38.2833 27.8958 38.2579 27.8489 38.2266 27.8489Z" fill="#ECECEC"/>
<path d="M38.2266 33.6051H20.3801C20.3488 33.6051 20.3234 33.6521 20.3234 33.71V34.191C20.3234 34.2489 20.3488 34.2959 20.3801 34.2959H38.2266C38.2579 34.2959 38.2833 34.2489 38.2833 34.191V33.71C38.2833 33.6521 38.2579 33.6051 38.2266 33.6051Z" fill="#ECECEC"/>
<path d="M49.084 24.3726V48.2381H8.12044V24.3726L27.0864 37.2104H30.4451L49.084 24.3726Z" fill="#F770FF"/>
<path d="M8.1199 48.2558L28.8593 36.3292L49.0714 48.1556L8.1199 48.2558Z" fill="#D74CF0"/>
<path d="M18.8045 18.0224C18.8041 17.9325 18.7728 17.8452 18.7154 17.7761C18.6581 17.707 18.5786 17.6606 18.4905 17.6445C17.7538 17.5138 15.6936 17.0229 14.9943 16.3223C14.2954 15.6212 13.8107 13.5402 13.6777 12.8014C13.6634 12.7132 13.6178 12.6324 13.5496 12.5746C13.4814 12.5169 13.395 12.4852 13.3059 12.4856V18.0224H18.8045Z" fill="#FFEA80"/>
<path d="M13.3063 12.4856C13.2168 12.486 13.1304 12.5182 13.0622 12.5768C12.994 12.6354 12.9488 12.7162 12.9345 12.8049C12.8151 13.5467 12.3546 15.6212 11.6588 16.3223C10.963 17.0229 8.87194 17.5138 8.12484 17.6445C8.0371 17.6606 7.95761 17.707 7.90027 17.7761C7.84294 17.8452 7.81123 17.9325 7.81123 18.0224H13.3094L13.3063 12.4856Z" fill="#FFD567"/>
<path d="M13.3059 18.0224V23.5592C13.3954 23.5588 13.4818 23.527 13.5505 23.4697C13.6191 23.4119 13.6651 23.3316 13.6812 23.243C13.8106 22.4911 14.2984 20.3853 14.9943 19.6847C15.6901 18.9841 17.7503 18.5171 18.4874 18.4003C18.5756 18.3855 18.6559 18.3399 18.7137 18.2713C18.7719 18.2031 18.8041 18.1158 18.8045 18.0259H13.3059V18.0224Z" fill="#FFD567"/>
<path d="M7.80769 18.0224C7.80813 18.1132 7.8407 18.2005 7.89978 18.2691C7.95842 18.3377 8.03964 18.3829 8.12825 18.3968C8.87188 18.5137 10.9594 18.9806 11.6553 19.6812C12.3511 20.3818 12.8115 22.4807 12.931 23.233C12.9453 23.322 12.9905 23.4033 13.0587 23.4623C13.1264 23.5214 13.2129 23.5544 13.3028 23.5557V18.0224H7.80769Z" fill="#FFA266"/>
<path d="M43.9598 21.2649C43.9611 21.2275 43.9485 21.191 43.9246 21.1624C43.9008 21.1337 43.8669 21.1155 43.8304 21.1103C43.5268 21.0551 42.6706 20.8492 42.384 20.5608C42.0973 20.2719 41.8927 19.4102 41.8384 19.1044C41.8319 19.0679 41.8128 19.0349 41.785 19.011C41.7568 18.9871 41.7216 18.9741 41.6846 18.9736V21.2649H43.9598Z" fill="#FFEA80"/>
<path d="M41.6846 18.9736C41.6477 18.9741 41.6125 18.9871 41.5843 19.011C41.5561 19.0349 41.5374 19.0679 41.5309 19.1044C41.4831 19.4136 41.2924 20.2719 41.0057 20.5608C40.7191 20.8492 39.8495 21.0551 39.5424 21.1068C39.5059 21.1133 39.4724 21.1328 39.4485 21.1615C39.4251 21.1906 39.4121 21.2271 39.4129 21.2649H41.6881L41.6846 18.9736Z" fill="#FFD567"/>
<path d="M41.6846 21.2649V23.5557C41.7216 23.5557 41.7568 23.5422 41.785 23.5183C41.8128 23.4945 41.8319 23.4615 41.8384 23.4254C41.8927 23.1127 42.0942 22.2405 42.384 21.9516C42.6737 21.6632 43.5233 21.4708 43.8269 21.4195C43.8638 21.4143 43.8977 21.3961 43.9225 21.3674C43.9468 21.3392 43.9603 21.3027 43.9598 21.2649H41.6846Z" fill="#FFD567"/>
<path d="M39.4165 21.2649C39.4152 21.3022 39.4278 21.3387 39.4517 21.367C39.4756 21.3956 39.509 21.4143 39.546 21.4195C39.8565 21.4708 40.7192 21.6632 41.0093 21.9516C41.299 22.2405 41.4867 23.1127 41.5345 23.4219C41.541 23.4584 41.5597 23.4919 41.5875 23.5162C41.6157 23.5409 41.6509 23.5548 41.6882 23.5557V21.2649H39.4165Z" fill="#FFA266"/>
<path d="M37.5404 10.8745C37.5409 10.825 37.5235 10.7768 37.4918 10.739C37.4596 10.7012 37.4153 10.676 37.3663 10.6686C36.9606 10.5965 35.8247 10.3251 35.4394 9.93717C35.0537 9.54886 34.7844 8.40518 34.7127 7.99297C34.7041 7.94476 34.6784 7.90119 34.6411 7.86979C34.6037 7.83843 34.5568 7.82123 34.5082 7.82123V10.8745H37.5404Z" fill="#FFEA80"/>
<path d="M34.5078 7.80768C34.4588 7.80781 34.4114 7.82549 34.3741 7.85754C34.3363 7.8896 34.3115 7.93399 34.3033 7.98285C34.2385 8.39172 33.9827 9.53886 33.6009 9.92327C33.2187 10.3081 32.0624 10.5831 31.6497 10.6552C31.6011 10.663 31.5572 10.6882 31.5251 10.726C31.4934 10.7638 31.476 10.8115 31.4756 10.8611H34.5113L34.5078 7.80768Z" fill="#FFD567"/>
<path d="M34.5082 10.875V13.932C34.5568 13.9312 34.6042 13.9129 34.6415 13.8812C34.6789 13.8491 34.7041 13.8052 34.7127 13.7565C34.7844 13.3409 35.0537 12.1803 35.4394 11.7919C35.8247 11.4041 36.9606 11.1495 37.3663 11.0844C37.4145 11.0757 37.4583 11.0505 37.4901 11.0127C37.5218 10.9753 37.5396 10.9276 37.5404 10.8785H34.5082V10.875Z" fill="#FFD567"/>
<path d="M31.4724 10.875C31.4729 10.9249 31.4911 10.9732 31.5233 11.011C31.5558 11.0487 31.601 11.0735 31.6501 11.0809C32.0627 11.146 33.2121 11.404 33.5978 11.7885C33.983 12.1733 34.2354 13.3339 34.3001 13.7496C34.3084 13.7991 34.3331 13.8439 34.3705 13.8764C34.4079 13.909 34.4556 13.9272 34.5051 13.9281V10.8715L31.4724 10.875Z" fill="#FFA266"/>
</svg>
