<svg width="300" height="154" viewBox="0 0 300 154" fill="none" xmlns="http://www.w3.org/2000/svg">
<rect width="300" height="154" rx="8" fill="#F770FF"/>
<mask id="mask0_714_32" style="mask-type:alpha" maskUnits="userSpaceOnUse" x="0" y="0" width="300" height="154">
<rect width="300" height="154" rx="8" fill="#F770FF"/>
</mask>
<g mask="url(#mask0_714_32)">
<path opacity="0.2" d="M391.732 132.995C375.379 132.995 361.973 127.488 351.04 116.351C338.477 103.551 330.947 85.1051 324.3 68.8246C316.09 48.7208 308.999 31.3552 295.118 29.2875C274.933 26.2832 257.793 37.6044 241.219 48.5468C227.129 57.8514 213.815 66.6443 199.224 66.6443C193.686 66.6443 189.155 64.5305 185.747 60.3593C179.862 53.1531 177.307 40.015 178.16 21.3238C178.794 7.45897 181.175 -4.46612 181.2 -4.58896C181.256 -4.86533 181.522 -5.04958 181.803 -4.98817C182.079 -4.93187 182.258 -4.66061 182.201 -4.38423C182.104 -3.91337 172.857 42.9528 186.544 59.7144C189.747 63.6349 194.013 65.6258 199.229 65.6258C213.514 65.6258 226.7 56.92 240.662 47.6972C257.399 36.6473 274.708 25.2187 295.271 28.2793C309.724 30.4288 316.918 48.0452 325.245 68.4407C331.856 84.6292 339.351 102.977 351.77 115.634C365.983 130.119 384.508 134.904 408.392 130.262C408.668 130.211 408.939 130.39 408.99 130.666C409.046 130.943 408.862 131.214 408.586 131.265C402.65 132.417 397.035 133 391.732 133V132.995Z" fill="#9059FF"/>
<path opacity="0.2" d="M288.732 120.995C272.379 120.995 258.973 115.488 248.04 104.351C235.477 91.5507 227.947 73.1051 221.3 56.8246C213.09 36.7208 205.999 19.3552 192.118 17.2875C171.933 14.2832 154.793 25.6044 138.219 36.5468C124.129 45.8514 110.815 54.6443 96.2243 54.6443C90.6863 54.6443 86.1547 52.5305 82.7471 48.3593C76.8616 41.1531 74.3072 28.015 75.1604 9.32381C75.7939 -4.54103 78.1746 -16.4661 78.2001 -16.589C78.2563 -16.8653 78.522 -17.0496 78.803 -16.9882C79.0789 -16.9319 79.2577 -16.6606 79.2015 -16.3842C79.1044 -15.9134 69.8573 30.9528 83.544 47.7144C86.7473 51.6349 91.0132 53.6258 96.2294 53.6258C110.514 53.6258 123.7 44.92 137.662 35.6972C154.399 24.6473 171.708 13.2187 192.271 16.2793C206.724 18.4288 213.918 36.0452 222.245 56.4407C228.856 72.6292 236.351 90.9774 248.77 103.634C262.983 118.119 281.508 122.904 305.392 118.262C305.668 118.211 305.939 118.39 305.99 118.666C306.046 118.943 305.862 119.214 305.586 119.265C299.65 120.417 294.035 121 288.732 121V120.995Z" fill="#9059FF"/>
<path opacity="0.2" d="M178.465 178.619C173.805 178.619 168.915 177.839 163.805 176.049C148.175 170.569 139.015 155.439 130.155 140.809C121.255 126.119 112.065 110.929 96.325 105.339C94.025 104.519 91.785 103.829 89.615 103.279C88.615 110.479 86.025 116.359 82.565 120.379C77.755 125.959 71.295 127.999 64.835 125.979C60.515 124.629 57.405 121.279 56.515 117.019C55.555 112.449 57.245 107.749 61.035 104.429C64.575 101.339 72.455 97.2887 87.915 100.789C88.725 91.5487 86.875 80.2287 80.915 67.9287C72.785 51.1487 58.605 38.0787 40.965 31.1287C23.145 24.0887 4.11501 24.3087 -12.595 31.7487C-13.095 31.9787 -13.695 31.7487 -13.915 31.2387C-14.135 30.7387 -13.915 30.1387 -13.405 29.9187C3.79501 22.2587 23.375 22.0287 41.705 29.2587C59.805 36.3987 74.375 49.8187 82.715 67.0487C88.895 79.8087 90.765 91.5987 89.855 101.249C92.085 101.819 94.465 102.549 96.995 103.449C113.395 109.279 122.785 124.779 131.865 139.769C140.945 154.759 149.515 168.909 164.465 174.159C190.605 183.329 210.245 165.289 224.585 152.119C231.505 145.759 236.505 141.169 240.615 141.169C252.765 141.169 264.545 161.699 265.045 162.579C265.315 163.059 265.145 163.669 264.665 163.939C264.185 164.209 263.575 164.039 263.305 163.559C263.185 163.359 251.605 143.169 240.615 143.169C237.285 143.169 232.025 147.999 225.935 153.589C214.655 163.949 198.675 178.619 178.455 178.619H178.465ZM76.785 101.479C70.695 101.479 65.745 102.969 62.355 105.929C59.115 108.759 57.665 112.749 58.475 116.599C59.235 120.199 61.775 122.919 65.435 124.069C71.185 125.869 76.725 124.099 81.055 119.079C84.335 115.279 86.765 109.689 87.685 102.819C83.765 101.929 80.105 101.489 76.775 101.489L76.785 101.479Z" fill="#9059FF"/>
<path opacity="0.2" d="M-5.82532 80.6974C-7.75532 88.2574 6.94468 90.1574 6.94468 83.7774C6.94468 77.3974 -4.09532 73.8974 -5.82532 80.6974Z" fill="#9059FF"/>
<path opacity="0.5" d="M56.0135 19.4C51.6324 23.3494 60.0877 30.7021 62.76 26.687C65.4322 22.6718 59.9503 15.8452 56.0135 19.4Z" fill="#FFD18D"/>
<path opacity="0.4" d="M70.6228 138.976C75.3072 142.56 80.9884 132.902 76.552 131.01C72.1157 129.118 66.4075 135.756 70.6228 138.976Z" fill="#9059FF"/>
<path opacity="0.5" d="M287.297 121.261C284.017 134.063 309 137.28 309 126.476C309 115.673 290.237 109.746 287.297 121.261Z" fill="#FFD18D"/>
<path opacity="0.3" d="M284.297 108.755C290.054 113.688 298.042 101.647 292.482 98.9088C286.923 96.1704 279.117 104.324 284.297 108.755Z" fill="#9059FF"/>
<path opacity="0.3" d="M259.858 128.496C262.128 134.441 272.844 128.759 269.84 124.512C266.836 120.265 257.812 123.152 259.858 128.496Z" fill="#9059FF"/>
<path opacity="0.3" d="M284.201 145.035C291.256 142.261 284.361 129.562 279.337 133.191C274.313 136.819 277.858 147.536 284.201 145.035Z" fill="#9059FF"/>
<path opacity="0.2" d="M273.014 113.686C270.651 118.884 281.035 122.142 281.852 117.546C282.669 112.95 275.135 109.01 273.014 113.686Z" fill="#9059FF"/>
<path opacity="0.2" d="M271.041 90.3366C267.129 92.0823 271.344 99.0759 274.089 96.8997C276.833 94.7234 274.558 88.7639 271.041 90.3366Z" fill="#9059FF"/>
<path opacity="0.5" d="M-35.6828 130.547C-36.1628 130.547 -36.6228 130.257 -36.8128 129.787C-44.2328 111.577 -41.6428 88.8372 -30.2228 71.8572C-18.6528 54.6472 0.547237 45.1672 23.8172 45.1672C37.3572 45.1672 47.8972 47.5572 55.8472 51.2872C57.8872 48.2072 60.6572 45.4272 64.2372 43.1672C75.6372 35.9672 86.2872 38.9872 97.5472 42.1972C110.047 45.7572 122.977 49.4272 139.587 40.9472C160.677 30.1772 161.217 8.29716 161.737 -12.8628C162.147 -29.3128 162.527 -44.8428 172.617 -54.0328C192.217 -71.8728 245.537 -49.9328 247.797 -48.9928C248.417 -48.7328 248.707 -48.0228 248.457 -47.4028C248.197 -46.7828 247.487 -46.4928 246.867 -46.7428C246.327 -46.9728 192.717 -69.0328 174.267 -52.2328C164.947 -43.7528 164.577 -28.7228 164.187 -12.8028C163.677 8.04716 163.087 31.6872 140.707 43.1172C123.247 52.0372 109.247 48.0472 96.8972 44.5372C85.7072 41.3572 76.0372 38.6072 65.5572 45.2272C62.3072 47.2772 59.8472 49.7172 58.0472 52.3672C69.2072 58.2972 74.6972 66.9772 75.9372 74.8972C77.0972 82.3472 74.2572 88.7072 69.0272 90.3872C63.6372 92.1072 57.8272 88.2471 54.2372 80.5471C50.4272 72.3671 50.0072 61.9472 54.6272 53.3772C47.0172 49.8572 36.8972 47.5972 23.8472 47.5972C1.40724 47.5972 -17.0628 56.6972 -28.1728 73.2072C-39.1728 89.5472 -41.6728 111.397 -34.5528 128.877C-34.3028 129.497 -34.6028 130.207 -35.2228 130.467C-35.3728 130.527 -35.5328 130.557 -35.6828 130.557V130.547ZM56.7672 54.4572C52.1372 63.0372 53.4772 73.2072 56.4272 79.5272C59.4672 86.0472 64.1172 89.3972 68.2672 88.0672C72.3272 86.7672 74.4872 81.5072 73.5172 75.2772C72.3772 67.9672 67.2372 59.9672 56.7772 54.4572H56.7672Z" fill="#FFC36B"/>
<g filter="url(#filter0_d_714_32)">
<path d="M204.507 67.4768H203.317V34.8712C203.317 29.8663 201.329 25.0663 197.79 21.5273C194.251 17.9882 189.451 16 184.446 16H115.367C112.889 16 110.435 16.4881 108.145 17.4365C105.856 18.3848 103.775 19.7749 102.023 21.5272C100.27 23.2796 98.8804 25.3599 97.932 27.6495C96.9836 29.939 96.4955 32.393 96.4955 34.8712V34.8712V213.748C96.4955 218.753 98.4837 223.553 102.023 227.092C105.562 230.631 110.362 232.619 115.367 232.619H184.446C189.451 232.619 194.251 230.631 197.79 227.092C201.329 223.553 203.317 218.753 203.317 213.748V90.686H204.507V67.4768Z" fill="white"/>
</g>
<path d="M199.299 35.0019V213.617C199.299 215.467 198.935 217.299 198.227 219.009C197.519 220.718 196.482 222.272 195.174 223.58C193.865 224.889 192.312 225.927 190.603 226.635C188.893 227.343 187.061 227.708 185.211 227.708H115.794C112.057 227.709 108.473 226.224 105.83 223.582C103.188 220.939 101.703 217.355 101.703 213.618V35.0019C101.702 33.1515 102.067 31.3191 102.775 29.6095C103.483 27.8999 104.521 26.3464 105.829 25.0379C107.138 23.7293 108.691 22.6913 110.4 21.9831C112.11 21.2748 113.942 20.9103 115.793 20.9102H124.218C123.804 21.9267 123.645 23.0297 123.757 24.1219C123.869 25.2141 124.248 26.2621 124.86 27.1734C125.472 28.0847 126.299 28.8315 127.268 29.3478C128.237 29.8642 129.318 30.1343 130.416 30.1344H169.993C171.09 30.1336 172.171 29.863 173.139 29.3464C174.108 28.8299 174.935 28.0832 175.547 27.1721C176.159 26.261 176.538 25.2134 176.65 24.1214C176.762 23.0295 176.604 21.9267 176.19 20.9102H185.207C187.058 20.9101 188.89 21.2745 190.6 21.9825C192.309 22.6906 193.863 23.7284 195.171 25.0368C196.48 26.3452 197.518 27.8986 198.226 29.6081C198.934 31.3177 199.299 33.15 199.299 35.0005V35.0005L199.299 35.0019Z" fill="#F2F2F2"/>
<path d="M186.969 87.6201H158.037C153.934 87.6201 150.607 90.9466 150.607 95.0499V100.83C150.607 104.933 153.934 108.26 158.037 108.26H186.969C191.072 108.26 194.399 104.933 194.399 100.83V95.0499C194.399 90.9466 191.072 87.6201 186.969 87.6201Z" fill="#CECECF"/>
<path d="M186.211 107.086C186.122 107.259 187.601 108.26 187.601 108.26L193.255 113.473C193.255 113.473 194.68 114.045 194.348 112.491L192.363 103.756C192.363 103.756 188.068 103.537 186.211 107.086V107.086Z" fill="#CECECF"/>
<path d="M165.434 96.5833C165.434 96.5833 166.36 96.1611 167.126 96.7301C167.872 97.2841 167.932 97.9399 167.884 98.3682C167.836 98.7964 167.408 99.4433 166.71 99.7637C165.949 100.114 165.213 100.198 164.602 99.3624C163.991 98.5299 164.147 97.8711 164.266 97.6075C164.431 97.2482 164.97 96.7331 165.431 96.5863L165.434 96.5833Z" fill="white"/>
<path d="M170.22 97.91C170.22 97.91 170.316 96.8978 171.19 96.5145C172.041 96.1431 172.642 96.4216 172.987 96.6762C173.331 96.9307 173.682 97.6255 173.61 98.3891C173.532 99.2217 173.238 99.9015 172.211 100.015C171.184 100.129 170.693 99.6679 170.522 99.4283C170.292 99.1079 170.115 98.3832 170.217 97.91H170.22Z" fill="white"/>
<path d="M176.401 97.1643C176.401 97.1643 176.952 96.3078 177.904 96.3737C178.83 96.4366 179.237 96.9577 179.426 97.341C179.617 97.7243 179.605 98.503 179.192 99.1498C178.74 99.8536 178.168 100.324 177.201 99.9524C176.236 99.581 176.012 98.9462 175.97 98.6557C175.913 98.2634 176.089 97.5387 176.398 97.1673L176.401 97.1643Z" fill="white"/>
<path d="M186.969 137H158.037C153.934 137 150.607 140.326 150.607 144.43V150.21C150.607 154.313 153.934 157.639 158.037 157.639H186.969C191.072 157.639 194.399 154.313 194.399 150.21V144.43C194.399 140.326 191.072 137 186.969 137Z" fill="#CECECF"/>
<path d="M186.211 156.466C186.122 156.639 187.601 157.639 187.601 157.639L193.255 162.853C193.255 162.853 194.68 163.425 194.348 161.871L192.363 153.135C192.363 153.135 188.068 152.917 186.211 156.466V156.466Z" fill="#CECECF"/>
<path d="M165.434 145.963C165.434 145.963 166.36 145.541 167.126 146.11C167.872 146.664 167.932 147.32 167.884 147.748C167.836 148.176 167.408 148.823 166.71 149.144C165.949 149.494 165.213 149.578 164.602 148.742C163.991 147.91 164.147 147.251 164.266 146.987C164.431 146.628 164.97 146.113 165.431 145.966L165.434 145.963Z" fill="white"/>
<path d="M170.22 147.29C170.22 147.29 170.316 146.278 171.19 145.894C172.041 145.523 172.642 145.802 172.987 146.056C173.331 146.311 173.682 147.005 173.61 147.769C173.532 148.602 173.238 149.281 172.211 149.395C171.184 149.509 170.693 149.048 170.522 148.808C170.292 148.488 170.115 147.763 170.217 147.29H170.22Z" fill="white"/>
<path d="M176.401 146.544C176.401 146.544 176.952 145.688 177.904 145.754C178.83 145.817 179.237 146.338 179.426 146.721C179.617 147.104 179.605 147.883 179.192 148.53C178.74 149.233 178.168 149.704 177.201 149.332C176.236 148.961 176.012 148.326 175.97 148.036C175.913 147.643 176.089 146.919 176.398 146.547L176.401 146.544Z" fill="white"/>
<path d="M186.969 34.459H158.037C153.934 34.459 150.608 37.7854 150.608 41.8888V47.6686C150.608 51.772 153.934 55.0984 158.037 55.0984H186.969C191.072 55.0984 194.399 51.772 194.399 47.6686V41.8888C194.399 37.7854 191.072 34.459 186.969 34.459Z" fill="#CECECF"/>
<path d="M186.212 53.9245C186.122 54.0982 187.601 55.0984 187.601 55.0984L193.255 60.3122C193.255 60.3122 194.681 60.8842 194.348 59.3299L192.363 50.5944C192.363 50.5944 188.068 50.3758 186.212 53.9245V53.9245Z" fill="#CECECF"/>
<path d="M165.434 43.4222C165.434 43.4222 166.36 43 167.126 43.5689C167.872 44.123 167.932 44.7788 167.884 45.207C167.836 45.6353 167.408 46.2821 166.71 46.6026C165.95 46.953 165.213 47.0368 164.602 46.2013C163.991 45.3688 164.147 44.7099 164.266 44.4464C164.431 44.087 164.97 43.5719 165.431 43.4252L165.434 43.4222Z" fill="white"/>
<path d="M170.22 44.7489C170.22 44.7489 170.316 43.7366 171.19 43.3533C172.041 42.982 172.643 43.2605 172.987 43.515C173.331 43.7696 173.682 44.4644 173.61 45.228C173.532 46.0605 173.239 46.7403 172.211 46.8541C171.184 46.9679 170.693 46.5068 170.522 46.2672C170.292 45.9467 170.115 45.222 170.217 44.7489H170.22Z" fill="white"/>
<path d="M176.401 44.0032C176.401 44.0032 176.952 43.1467 177.904 43.2126C178.83 43.2755 179.237 43.7966 179.426 44.1799C179.617 44.5632 179.605 45.3418 179.192 45.9887C178.74 46.6924 178.168 47.1626 177.201 46.7913C176.236 46.4199 176.012 45.785 175.97 45.4945C175.913 45.1022 176.09 44.3775 176.398 44.0062L176.401 44.0032Z" fill="white"/>
<path d="M114.475 58.8247H143.406C147.51 58.8247 150.836 62.1512 150.836 66.2545V72.0343C150.836 76.1377 147.51 79.4641 143.406 79.4641H114.475C110.371 79.4641 107.045 76.1377 107.045 72.0343V66.2545C107.045 62.1512 110.371 58.8247 114.475 58.8247Z" fill="#9E9E9E"/>
<path d="M115.232 78.2902C115.322 78.4639 113.843 79.4642 113.843 79.4642L108.189 84.6779C108.189 84.6779 106.763 85.2499 107.096 83.6957L109.081 74.9602C109.081 74.9602 113.375 74.7415 115.232 78.2902V78.2902Z" fill="#9E9E9E"/>
<path d="M136.009 67.7879C136.009 67.7879 135.084 67.3657 134.317 67.9347C133.572 68.4887 133.512 69.1445 133.56 69.5728C133.608 70.001 134.036 70.6479 134.734 70.9683C135.494 71.3187 136.231 71.4025 136.842 70.567C137.453 69.7345 137.297 69.0756 137.177 68.8121C137.013 68.4528 136.474 67.9377 136.012 67.7909L136.009 67.7879Z" fill="white"/>
<path d="M131.224 69.1146C131.224 69.1146 131.128 68.1024 130.254 67.719C129.403 67.3477 128.801 67.6262 128.457 67.8808C128.112 68.1353 127.762 68.8301 127.834 69.5937C127.912 70.4263 128.205 71.1061 129.232 71.2199C130.26 71.3337 130.751 70.8725 130.921 70.6329C131.152 70.3125 131.329 69.5877 131.227 69.1146H131.224Z" fill="white"/>
<path d="M125.043 68.3689C125.043 68.3689 124.492 67.5124 123.539 67.5783C122.614 67.6412 122.207 68.1623 122.018 68.5456C121.826 68.9289 121.838 69.7075 122.252 70.3544C122.704 71.0581 123.276 71.5283 124.243 71.157C125.207 70.7856 125.432 70.1508 125.474 69.8603C125.531 69.468 125.354 68.7433 125.046 68.3719L125.043 68.3689Z" fill="white"/>
<path d="M114.475 111H143.406C147.51 111 150.836 114.326 150.836 118.43V124.21C150.836 128.313 147.51 131.639 143.406 131.639H114.475C110.371 131.639 107.045 128.313 107.045 124.21V118.43C107.045 114.326 110.371 111 114.475 111Z" fill="#9E9E9E"/>
<path d="M115.232 130.466C115.322 130.639 113.843 131.639 113.843 131.639L108.189 136.853C108.189 136.853 106.763 137.425 107.096 135.871L109.081 127.135C109.081 127.135 113.375 126.917 115.232 130.466V130.466Z" fill="#9E9E9E"/>
<path d="M136.009 119.963C136.009 119.963 135.084 119.541 134.317 120.11C133.572 120.664 133.512 121.32 133.56 121.748C133.608 122.176 134.036 122.823 134.734 123.144C135.494 123.494 136.231 123.578 136.842 122.742C137.453 121.91 137.297 121.251 137.177 120.987C137.013 120.628 136.474 120.113 136.012 119.966L136.009 119.963Z" fill="white"/>
<path d="M131.224 121.29C131.224 121.29 131.128 120.278 130.254 119.894C129.403 119.523 128.801 119.802 128.457 120.056C128.112 120.311 127.762 121.005 127.834 121.769C127.912 122.602 128.205 123.281 129.232 123.395C130.26 123.509 130.751 123.048 130.921 122.808C131.152 122.488 131.329 121.763 131.227 121.29H131.224Z" fill="white"/>
<path d="M125.043 120.544C125.043 120.544 124.492 119.688 123.539 119.754C122.614 119.817 122.207 120.338 122.018 120.721C121.826 121.104 121.838 121.883 122.252 122.53C122.704 123.233 123.276 123.704 124.243 123.332C125.207 122.961 125.432 122.326 125.474 122.036C125.531 121.643 125.354 120.919 125.046 120.547L125.043 120.544Z" fill="white"/>
<path d="M98.3481 50.377H94.4926V71.1001H98.3481V50.377Z" fill="white"/>
<path d="M98.3481 73.5098H94.4926V85.5581H98.3481V73.5098Z" fill="white"/>
<path d="M131.602 25.7983C132.666 25.7983 133.529 24.9353 133.529 23.8706C133.529 22.8059 132.666 21.9429 131.602 21.9429C130.537 21.9429 129.674 22.8059 129.674 23.8706C129.674 24.9353 130.537 25.7983 131.602 25.7983Z" fill="white"/>
</g>
<path d="M178.875 65.5C178.875 62.5469 178.766 59.2656 178.766 55.5469C178.766 54.0156 177.672 52.7031 176.141 52.375L150.875 48H149.781L124.516 52.375C122.984 52.7031 121.781 54.0156 121.891 55.5469C121.891 59.2656 121.891 62.5469 121.781 65.5C121.672 70.75 121.672 74.5781 121.891 76.875C123.312 91.9687 126.484 98.9688 131.953 106.406C136.328 112.313 142.672 116.359 149.781 117.891C150 117.891 150.219 118 150.437 118C150.656 118 150.875 118 151.094 117.891C158.203 116.359 164.547 112.313 168.922 106.406C174.391 98.9688 177.562 92.0781 178.875 76.875C178.984 74.4687 178.984 70.75 178.875 65.5V65.5Z" fill="#7638E9"/>
<path d="M149.781 48.1094L124.516 52.4844C122.984 52.7031 121.891 54.0156 121.891 55.5469C121.891 59.2656 121.781 62.5469 121.781 65.5C121.672 70.75 121.672 74.5781 121.891 76.875C123.312 92.0781 126.484 98.9688 131.844 106.406C136.219 112.313 142.562 116.359 149.672 117.891C149.891 117.891 150.109 118 150.328 118V48C150.109 48 150 48 149.781 48.1094V48.1094Z" fill="#7638E9"/>
<path d="M149.891 52.9219L128.672 56.5313C127.359 56.75 126.484 57.8437 126.484 59.1562C126.484 62.3281 126.484 65.0625 126.375 67.4687C126.266 71.8437 126.266 75.125 126.484 76.9844C127.578 89.6719 130.312 95.5781 134.797 101.812C138.406 106.734 143.766 110.234 149.781 111.437H150.328V52.8125C150.219 52.8125 150 52.8125 149.891 52.9219Z" fill="#7638E9"/>
<path d="M174.281 67.4687C174.281 65.0625 174.172 62.2187 174.172 59.1562C174.172 57.8437 173.297 56.75 171.984 56.5313L150.766 52.9219H150.328V111.547H150.875C156.891 110.234 162.25 106.844 165.859 101.813C170.453 95.5781 173.078 89.7812 174.281 76.9844C174.391 75.125 174.391 71.9531 174.281 67.4687V67.4687Z" fill="#DABDFF"/>
<path d="M178.875 65.5C178.875 62.5469 178.766 59.2656 178.766 55.5469C178.766 54.0156 177.672 52.7031 176.141 52.375L150.875 48H149.781L124.516 52.375C122.984 52.7031 121.781 54.0156 121.891 55.5469C121.891 59.2656 121.891 62.5469 121.781 65.5C121.672 70.75 121.672 74.5781 121.891 76.875C123.312 91.9687 126.484 98.9688 131.953 106.406C136.328 112.313 142.672 116.359 149.781 117.891C150 117.891 150.219 118 150.437 118C150.656 118 150.875 118 151.094 117.891C158.203 116.359 164.547 112.313 168.922 106.406C174.391 98.9688 177.562 92.0781 178.875 76.875C178.984 74.4687 178.984 70.75 178.875 65.5V65.5Z" fill="#8F59FF"/>
<path d="M149.781 48.1094L124.516 52.4844C122.984 52.7031 121.891 54.0156 121.891 55.5469C121.891 59.2656 121.781 62.5469 121.781 65.5C121.672 70.75 121.672 74.5781 121.891 76.875C123.312 92.0781 126.484 98.9688 131.844 106.406C136.219 112.313 142.562 116.359 149.672 117.891C149.891 117.891 150.109 118 150.328 118V48C150.109 48 150 48 149.781 48.1094V48.1094Z" fill="#592ACA"/>
<path d="M149.891 52.9219L128.672 56.5313C127.359 56.75 126.484 57.8437 126.484 59.1562C126.484 62.3281 126.484 65.0625 126.375 67.4687C126.266 71.8437 126.266 75.125 126.484 76.9844C127.578 89.6719 130.312 95.5781 134.797 101.812C138.406 106.734 143.766 110.234 149.781 111.437H150.328V52.8125C150.219 52.8125 150 52.8125 149.891 52.9219Z" fill="#7542E4"/>
<path d="M174.281 67.4687C174.281 65.0625 174.172 62.2187 174.172 59.1562C174.172 57.8437 173.297 56.75 171.984 56.5313L150.766 52.9219H150.328V111.547H150.875C156.891 110.234 162.25 106.844 165.859 101.813C170.453 95.5781 173.078 89.7812 174.281 76.9844C174.391 75.125 174.391 71.9531 174.281 67.4687V67.4687Z" fill="#DABDFF"/>
<defs>
<filter id="filter0_d_714_32" x="72.4955" y="-8" width="156.012" height="264.619" filterUnits="userSpaceOnUse" color-interpolation-filters="sRGB">
<feFlood flood-opacity="0" result="BackgroundImageFix"/>
<feColorMatrix in="SourceAlpha" type="matrix" values="0 0 0 0 0 0 0 0 0 0 0 0 0 0 0 0 0 0 127 0" result="hardAlpha"/>
<feOffset/>
<feGaussianBlur stdDeviation="12"/>
<feComposite in2="hardAlpha" operator="out"/>
<feColorMatrix type="matrix" values="0 0 0 0 0 0 0 0 0 0 0 0 0 0 0 0 0 0 0.16 0"/>
<feBlend mode="normal" in2="BackgroundImageFix" result="effect1_dropShadow_714_32"/>
<feBlend mode="normal" in="SourceGraphic" in2="effect1_dropShadow_714_32" result="shape"/>
</filter>
</defs>
</svg>
