<svg width="50" height="50" viewBox="0 0 50 50" fill="none" xmlns="http://www.w3.org/2000/svg">
<mask id="mask0_714_111" style="mask-type:alpha" maskUnits="userSpaceOnUse" x="0" y="0" width="50" height="50">
<rect width="50" height="50" rx="4" fill="white"/>
</mask>
<g mask="url(#mask0_714_111)">
<rect x="-2" y="-3" width="54" height="55" fill="#F770FF"/>
<g filter="url(#filter0_d_714_111)">
<path d="M45 22.451H44.5734V10.7641C44.5734 8.97014 43.8607 7.24967 42.5922 5.98116C41.3237 4.71265 39.6032 4 37.8093 4H13.0489C12.1607 4 11.2811 4.17495 10.4604 4.51488C9.63979 4.8548 8.89412 5.35304 8.26602 5.98114C7.63791 6.60924 7.13967 7.3549 6.79974 8.17556C6.45981 8.99621 6.28485 9.87579 6.28485 10.7641V10.7641V74.8795C6.28485 76.6734 6.99749 78.3939 8.266 79.6624C9.53451 80.9309 11.255 81.6435 13.0489 81.6436H37.8093C39.6032 81.6436 41.3237 80.9309 42.5922 79.6624C43.8607 78.3939 44.5734 76.6734 44.5734 74.8795V30.77H45V22.451Z" fill="white"/>
</g>
<path d="M43.1331 10.8107V74.8322C43.1332 75.4954 43.0026 76.1522 42.7489 76.7649C42.4952 77.3777 42.1233 77.9345 41.6544 78.4035C41.1855 78.8726 40.6288 79.2446 40.0161 79.4985C39.4034 79.7524 38.7467 79.8831 38.0835 79.8832H13.2021C11.8626 79.8833 10.5779 79.3512 9.6307 78.4041C8.68347 77.4569 8.15128 76.1723 8.15121 74.8328V10.8107C8.15118 10.1475 8.28178 9.49069 8.53557 8.8779C8.78935 8.26511 9.16135 7.70831 9.63032 7.23928C10.0993 6.77025 10.6561 6.39819 11.2688 6.14434C11.8816 5.89048 12.5383 5.7598 13.2016 5.75977H16.2216C16.073 6.12413 16.0161 6.51947 16.0563 6.91096C16.0964 7.30245 16.2321 7.67807 16.4516 8.00472C16.6711 8.33137 16.9675 8.59903 17.3148 8.78411C17.6621 8.96919 18.0496 9.06601 18.4432 9.06604H32.6286C33.0221 9.06575 33.4094 8.96877 33.7566 8.78362C34.1037 8.59847 34.4001 8.33083 34.6195 8.00425C34.8389 7.67768 34.9747 7.30218 35.0149 6.9108C35.0552 6.51941 34.9986 6.12414 34.8502 5.75977H38.0822C38.7454 5.75973 39.4022 5.89034 40.015 6.14413C40.6278 6.39793 41.1846 6.76993 41.6536 7.23891C42.1226 7.70788 42.4947 8.26465 42.7485 8.87741C43.0024 9.49018 43.133 10.1469 43.1331 10.8102V10.8102L43.1331 10.8107Z" fill="#F2F2F2"/>
<path d="M38.7136 29H28.3435C26.8727 29 25.6804 30.1923 25.6804 31.6631V33.7348C25.6804 35.2056 26.8727 36.3979 28.3435 36.3979H38.7136C40.1844 36.3979 41.3767 35.2056 41.3767 33.7348V31.6631C41.3767 30.1923 40.1844 29 38.7136 29Z" fill="#CECECF"/>
<path d="M38.4421 35.9773C38.4099 36.0395 38.9402 36.398 38.9402 36.398L40.9667 38.2668C40.9667 38.2668 41.4777 38.4719 41.3585 37.9148L40.6469 34.7837C40.6469 34.7837 39.1076 34.7053 38.4421 35.9773V35.9773Z" fill="#CECECF"/>
<path d="M30.9949 32.2127C30.9949 32.2127 31.3266 32.0614 31.6014 32.2653C31.8687 32.4639 31.8901 32.699 31.873 32.8525C31.8558 33.006 31.7023 33.2378 31.4522 33.3527C31.1795 33.4783 30.9155 33.5083 30.6965 33.2088C30.4775 32.9104 30.5333 32.6743 30.5763 32.5798C30.6353 32.451 30.8285 32.2664 30.9938 32.2138L30.9949 32.2127Z" fill="white"/>
<path d="M32.71 32.6883C32.71 32.6883 32.7444 32.3254 33.0578 32.188C33.3627 32.0549 33.5784 32.1548 33.7019 32.246C33.8253 32.3373 33.9509 32.5863 33.9251 32.86C33.8972 33.1584 33.792 33.4021 33.4238 33.4429C33.0557 33.4836 32.8796 33.3183 32.8184 33.2325C32.7358 33.1176 32.6725 32.8579 32.709 32.6883H32.71Z" fill="white"/>
<path d="M34.9256 32.4209C34.9256 32.4209 35.1231 32.1139 35.4644 32.1375C35.7961 32.1601 35.9421 32.3468 36.0097 32.4842C36.0784 32.6216 36.0741 32.9007 35.926 33.1326C35.7639 33.3848 35.5589 33.5533 35.2122 33.4202C34.8665 33.2871 34.786 33.0596 34.771 32.9555C34.7506 32.8148 34.8139 32.5551 34.9245 32.422L34.9256 32.4209Z" fill="white"/>
<path d="M38.7137 10.6162H28.3436C26.8728 10.6162 25.6805 11.8085 25.6805 13.2793V15.351C25.6805 16.8218 26.8728 18.0141 28.3436 18.0141H38.7137C40.1845 18.0141 41.3768 16.8218 41.3768 15.351V13.2793C41.3768 11.8085 40.1845 10.6162 38.7137 10.6162Z" fill="#CECECF"/>
<path d="M38.4422 17.593C38.41 17.6553 38.9402 18.0138 38.9402 18.0138L40.9668 19.8826C40.9668 19.8826 41.4777 20.0876 41.3586 19.5305L40.6469 16.3994C40.6469 16.3994 39.1077 16.321 38.4422 17.593V17.593Z" fill="#CECECF"/>
<path d="M30.995 13.8289C30.995 13.8289 31.3267 13.6776 31.6014 13.8815C31.8687 14.0801 31.8902 14.3152 31.873 14.4687C31.8558 14.6222 31.7023 14.854 31.4522 14.9689C31.1796 15.0945 30.9155 15.1245 30.6966 14.825C30.4776 14.5266 30.5334 14.2905 30.5763 14.196C30.6354 14.0672 30.8286 13.8826 30.9939 13.83L30.995 13.8289Z" fill="white"/>
<path d="M32.7101 14.3045C32.7101 14.3045 32.7444 13.9417 33.0579 13.8043C33.3627 13.6712 33.5785 13.771 33.7019 13.8622C33.8254 13.9535 33.9509 14.2025 33.9252 14.4762C33.8973 14.7746 33.7921 15.0183 33.4239 15.0591C33.0557 15.0999 32.8797 14.9346 32.8185 14.8487C32.7359 14.7338 32.6725 14.4741 32.709 14.3045H32.7101Z" fill="white"/>
<path d="M34.9256 14.0371C34.9256 14.0371 35.1231 13.7301 35.4645 13.7537C35.7962 13.7763 35.9421 13.9631 36.0098 14.1004C36.0785 14.2378 36.0742 14.5169 35.926 14.7488C35.764 15.001 35.5589 15.1695 35.2122 15.0364C34.8666 14.9033 34.7861 14.6758 34.7711 14.5717C34.7507 14.431 34.814 14.1713 34.9246 14.0382L34.9256 14.0371Z" fill="white"/>
<path d="M12.7292 19.3496H23.0993C24.5701 19.3496 25.7625 20.5419 25.7625 22.0127V24.0844C25.7625 25.5552 24.5701 26.7475 23.0993 26.7475H12.7292C11.2585 26.7475 10.0661 25.5552 10.0661 24.0844V22.0127C10.0661 20.5419 11.2585 19.3496 12.7292 19.3496Z" fill="#CECECF"/>
<path d="M13.0007 26.3269C13.0329 26.3891 12.5026 26.7477 12.5026 26.7477L10.4761 28.6164C10.4761 28.6164 9.96513 28.8215 10.0843 28.2644L10.7959 25.1333C10.7959 25.1333 12.3352 25.0549 13.0007 26.3269V26.3269Z" fill="#CECECF"/>
<path d="M20.4479 22.5623C20.4479 22.5623 20.1162 22.411 19.8414 22.6149C19.5742 22.8135 19.5527 23.0486 19.5699 23.2021C19.587 23.3556 19.7405 23.5874 19.9906 23.7023C20.2633 23.8279 20.5273 23.8579 20.7463 23.5584C20.9653 23.26 20.9095 23.0239 20.8665 22.9294C20.8075 22.8006 20.6143 22.616 20.449 22.5634L20.4479 22.5623Z" fill="white"/>
<path d="M18.7325 23.0379C18.7325 23.0379 18.6982 22.6751 18.3848 22.5377C18.0799 22.4046 17.8642 22.5044 17.7407 22.5956C17.6173 22.6869 17.4917 22.9359 17.5175 23.2096C17.5454 23.508 17.6506 23.7517 18.0187 23.7925C18.3869 23.8333 18.5629 23.668 18.6241 23.5821C18.7068 23.4672 18.7701 23.2075 18.7336 23.0379H18.7325Z" fill="white"/>
<path d="M16.517 22.7705C16.517 22.7705 16.3195 22.4635 15.9781 22.4871C15.6465 22.5097 15.5005 22.6964 15.4329 22.8338C15.3642 22.9712 15.3685 23.2503 15.5166 23.4822C15.6787 23.7344 15.8837 23.9029 16.2304 23.7698C16.576 23.6367 16.6565 23.4092 16.6716 23.3051C16.692 23.1644 16.6286 22.9047 16.5181 22.7716L16.517 22.7705Z" fill="white"/>
<path d="M12.7292 38H23.0993C24.5701 38 25.7625 39.1923 25.7625 40.6631V42.7348C25.7625 44.2056 24.5701 45.3979 23.0993 45.3979H12.7292C11.2585 45.3979 10.0661 44.2056 10.0661 42.7348V40.6631C10.0661 39.1923 11.2585 38 12.7292 38Z" fill="#CECECF"/>
<path d="M13.0007 44.9773C13.0329 45.0395 12.5026 45.398 12.5026 45.398L10.4761 47.2668C10.4761 47.2668 9.96513 47.4719 10.0843 46.9148L10.7959 43.7837C10.7959 43.7837 12.3352 43.7053 13.0007 44.9773V44.9773Z" fill="#CECECF"/>
<path d="M20.4479 41.2127C20.4479 41.2127 20.1162 41.0614 19.8414 41.2653C19.5742 41.4639 19.5527 41.699 19.5699 41.8525C19.587 42.006 19.7405 42.2378 19.9906 42.3527C20.2633 42.4783 20.5273 42.5083 20.7463 42.2088C20.9653 41.9104 20.9095 41.6743 20.8665 41.5798C20.8075 41.451 20.6143 41.2664 20.449 41.2138L20.4479 41.2127Z" fill="white"/>
<path d="M18.7325 41.6883C18.7325 41.6883 18.6982 41.3254 18.3848 41.188C18.0799 41.0549 17.8642 41.1548 17.7407 41.246C17.6173 41.3373 17.4917 41.5863 17.5175 41.86C17.5454 42.1584 17.6506 42.4021 18.0187 42.4429C18.3869 42.4836 18.5629 42.3183 18.6241 42.2325C18.7068 42.1176 18.7701 41.8579 18.7336 41.6883H18.7325Z" fill="white"/>
<path d="M16.517 41.4209C16.517 41.4209 16.3195 41.1139 15.9781 41.1375C15.6465 41.1601 15.5005 41.3468 15.4329 41.4842C15.3642 41.6216 15.3685 41.9007 15.5166 42.1326C15.6787 42.3848 15.8837 42.5533 16.2304 42.4202C16.576 42.2871 16.6565 42.0596 16.6716 41.9555C16.692 41.8148 16.6286 41.5551 16.5181 41.422L16.517 41.4209Z" fill="white"/>
<path d="M6.94883 16.3218H5.56689V23.7497H6.94883V16.3218Z" fill="white"/>
<path d="M6.94883 24.6133H5.56689V28.9318H6.94883V24.6133Z" fill="white"/>
<path d="M18.868 7.51182C19.2496 7.51182 19.559 7.20246 19.559 6.82085C19.559 6.43924 19.2496 6.12988 18.868 6.12988C18.4864 6.12988 18.1771 6.43924 18.1771 6.82085C18.1771 7.20246 18.4864 7.51182 18.868 7.51182Z" fill="white"/>
</g>
<path d="M36.55 19.75C36.55 18.6109 36.5062 17.3453 36.5062 15.9109C36.5062 15.3203 36.0687 14.8141 35.4562 14.6875L25.35 13H24.9125L14.8062 14.6875C14.1937 14.8141 13.7125 15.3203 13.7562 15.9109C13.7562 17.3453 13.7562 18.6109 13.7125 19.75C13.6687 21.775 13.6687 23.2516 13.7562 24.1375C14.325 29.9594 15.5937 32.6594 17.7812 35.5281C19.5312 37.8063 22.0687 39.3672 24.9125 39.9578C25 39.9578 25.0875 40 25.175 40C25.2625 40 25.35 40 25.4375 39.9578C28.2812 39.3672 30.8187 37.8063 32.5687 35.5281C34.7562 32.6594 36.025 30.0016 36.55 24.1375C36.5937 23.2094 36.5937 21.775 36.55 19.75V19.75Z" fill="#7638E9"/>
<path d="M24.9125 13.0422L14.8062 14.7297C14.1937 14.8141 13.7562 15.3203 13.7562 15.9109C13.7562 17.3453 13.7125 18.6109 13.7125 19.75C13.6687 21.775 13.6687 23.2516 13.7562 24.1375C14.325 30.0016 15.5937 32.6594 17.7375 35.5281C19.4875 37.8063 22.025 39.3672 24.8687 39.9578C24.9562 39.9578 25.0437 40 25.1312 40V13C25.0437 13 25 13 24.9125 13.0422V13.0422Z" fill="#7638E9"/>
<path d="M24.9562 14.8986L16.4687 16.2908C15.9437 16.3752 15.5937 16.7971 15.5937 17.3033C15.5937 18.5268 15.5937 19.5814 15.55 20.5096C15.5062 22.1971 15.5062 23.4627 15.5937 24.1799C16.0312 29.0736 17.125 31.3518 18.9187 33.7564C20.3625 35.6549 22.5062 37.0049 24.9125 37.4689H25.1312V14.8564C25.0875 14.8564 25 14.8564 24.9562 14.8986Z" fill="#7638E9"/>
<path d="M34.7125 20.5094C34.7125 19.5812 34.6688 18.4844 34.6688 17.3031C34.6688 16.7969 34.3188 16.375 33.7938 16.2906L25.3063 14.8984H25.1313V37.5109H25.35C27.7563 37.0047 29.9 35.6969 31.3438 33.7563C33.1813 31.3516 34.2313 29.1156 34.7125 24.1797C34.7563 23.4625 34.7563 22.2391 34.7125 20.5094V20.5094Z" fill="#DABDFF"/>
<path d="M36.55 19.75C36.55 18.6109 36.5062 17.3453 36.5062 15.9109C36.5062 15.3203 36.0687 14.8141 35.4562 14.6875L25.35 13H24.9125L14.8062 14.6875C14.1937 14.8141 13.7125 15.3203 13.7562 15.9109C13.7562 17.3453 13.7562 18.6109 13.7125 19.75C13.6687 21.775 13.6687 23.2516 13.7562 24.1375C14.325 29.9594 15.5937 32.6594 17.7812 35.5281C19.5312 37.8063 22.0687 39.3672 24.9125 39.9578C25 39.9578 25.0875 40 25.175 40C25.2625 40 25.35 40 25.4375 39.9578C28.2812 39.3672 30.8187 37.8063 32.5687 35.5281C34.7562 32.6594 36.025 30.0016 36.55 24.1375C36.5937 23.2094 36.5937 21.775 36.55 19.75V19.75Z" fill="#8F59FF"/>
<path d="M24.9125 13.0422L14.8062 14.7297C14.1937 14.8141 13.7562 15.3203 13.7562 15.9109C13.7562 17.3453 13.7125 18.6109 13.7125 19.75C13.6687 21.775 13.6687 23.2516 13.7562 24.1375C14.325 30.0016 15.5937 32.6594 17.7375 35.5281C19.4875 37.8063 22.025 39.3672 24.8687 39.9578C24.9562 39.9578 25.0437 40 25.1312 40V13C25.0437 13 25 13 24.9125 13.0422V13.0422Z" fill="#592ACA"/>
<path d="M24.9562 14.8986L16.4687 16.2908C15.9437 16.3752 15.5937 16.7971 15.5937 17.3033C15.5937 18.5268 15.5937 19.5814 15.55 20.5096C15.5062 22.1971 15.5062 23.4627 15.5937 24.1799C16.0312 29.0736 17.125 31.3518 18.9187 33.7564C20.3625 35.6549 22.5062 37.0049 24.9125 37.4689H25.1312V14.8564C25.0875 14.8564 25 14.8564 24.9562 14.8986Z" fill="#7542E4"/>
<path d="M34.7125 20.5094C34.7125 19.5812 34.6688 18.4844 34.6688 17.3031C34.6688 16.7969 34.3188 16.375 33.7938 16.2906L25.3063 14.8984H25.1313V37.5109H25.35C27.7563 37.0047 29.9 35.6969 31.3438 33.7563C33.1813 31.3516 34.2313 29.1156 34.7125 24.1797C34.7563 23.4625 34.7563 22.2391 34.7125 20.5094V20.5094Z" fill="#DABDFF"/>
<defs>
<filter id="filter0_d_714_111" x="-17.7151" y="-20" width="86.7151" height="125.644" filterUnits="userSpaceOnUse" color-interpolation-filters="sRGB">
<feFlood flood-opacity="0" result="BackgroundImageFix"/>
<feColorMatrix in="SourceAlpha" type="matrix" values="0 0 0 0 0 0 0 0 0 0 0 0 0 0 0 0 0 0 127 0" result="hardAlpha"/>
<feOffset/>
<feGaussianBlur stdDeviation="12"/>
<feComposite in2="hardAlpha" operator="out"/>
<feColorMatrix type="matrix" values="0 0 0 0 0 0 0 0 0 0 0 0 0 0 0 0 0 0 0.16 0"/>
<feBlend mode="normal" in2="BackgroundImageFix" result="effect1_dropShadow_714_111"/>
<feBlend mode="normal" in="SourceGraphic" in2="effect1_dropShadow_714_111" result="shape"/>
</filter>
</defs>
</svg>
