<svg width="300" height="154" viewBox="0 0 300 154" fill="none" xmlns="http://www.w3.org/2000/svg">
<rect x="299.895" y="154" width="299.895" height="154" rx="8" transform="rotate(180 299.895 154)" fill="url(#paint0_linear_2_5393)"/>
<path d="M94.9563 28.637V26.7289H86.303V38.2276H88.3952V33.4574H94.337V31.5493H88.3952V28.637H94.9563Z" fill="black"/>
<path d="M97.0536 28.2688C97.6897 28.2688 98.2085 27.7164 98.2085 27.0971C98.2085 26.4779 97.6897 25.9423 97.0536 25.9423C96.4009 25.9423 95.882 26.4779 95.882 27.0971C95.882 27.7164 96.4009 28.2688 97.0536 28.2688ZM96.0159 38.2276H98.0579V29.5743H96.0159V38.2276Z" fill="black"/>
<path d="M101.709 31.248V29.5743H99.6675V38.2276H101.709V33.8591C101.709 32.2188 102.948 31.1141 104.806 31.1141V29.3734C103.383 29.3734 102.262 30.0932 101.709 31.248Z" fill="black"/>
<path d="M109.655 36.6208C108.417 36.6208 107.513 35.7839 107.262 34.5955H113.789C113.789 31.3987 112.233 29.3734 109.555 29.3734C107.094 29.3734 105.153 31.2815 105.153 33.8758C105.153 36.5371 107.195 38.4284 109.672 38.4284C110.927 38.4284 112.434 37.8928 113.187 37.0894L111.898 35.7504C111.413 36.2526 110.459 36.6208 109.655 36.6208ZM109.638 31.1811C110.86 31.1811 111.597 31.951 111.831 33.039H107.278C107.58 31.9008 108.5 31.1811 109.638 31.1811Z" fill="black"/>
<path d="M117.473 28.8546C117.473 28.2688 117.841 27.8503 118.327 27.8503C118.678 27.8503 118.996 27.9842 119.18 28.1683L119.766 26.8628C119.281 26.4444 118.578 26.1766 117.925 26.1766C116.485 26.1766 115.481 27.2143 115.481 28.6705V29.5743H114.226V31.2648H115.481V38.2276H117.473V31.2648H119.431V29.5743H117.473V28.8546Z" fill="black"/>
<path d="M124.544 38.4284C127.054 38.4284 129.18 36.353 129.18 33.8926C129.18 31.4322 127.054 29.3734 124.544 29.3734C122.033 29.3734 119.907 31.4322 119.907 33.8926C119.907 36.353 122.033 38.4284 124.544 38.4284ZM124.544 36.6877C123.104 36.6877 121.899 35.4157 121.899 33.8926C121.899 32.3862 123.104 31.1141 124.544 31.1141C125.966 31.1141 127.172 32.3862 127.172 33.8926C127.172 35.4157 125.966 36.6877 124.544 36.6877Z" fill="black"/>
<path d="M138.187 38.2276L134.94 33.7921L138.037 29.5743H135.81L133.835 32.269L131.86 29.5743H129.618L132.714 33.8089L129.467 38.2276H131.693L133.819 35.332L135.928 38.2276H138.187Z" fill="black"/>
<path d="M153.197 30.361C153.197 28.2354 151.406 26.729 149.046 26.729H144.326V38.2276H145.397V33.9763H148.728L151.724 38.2276H152.963L149.916 33.9094C151.841 33.5914 153.197 32.2189 153.197 30.361ZM145.397 27.75H148.862C150.787 27.75 152.126 28.7542 152.126 30.361C152.126 31.9511 150.787 32.9553 148.862 32.9553H145.397V27.75Z" fill="black"/>
<path d="M158.265 37.4745C156.491 37.4745 155.169 36.102 154.985 34.3111H162.299C162.299 31.3318 160.759 29.3735 158.198 29.3735C155.855 29.3735 153.93 31.3151 153.93 33.8759C153.93 36.4702 155.956 38.4285 158.265 38.4285C159.537 38.4285 161.061 37.8929 161.797 37.0895L161.144 36.3865C160.542 37.0393 159.353 37.4745 158.265 37.4745ZM158.232 30.3275C160.056 30.3275 161.128 31.6163 161.261 33.357H155.002C155.219 31.5661 156.541 30.3275 158.232 30.3275Z" fill="black"/>
<path d="M163.656 38.2276H164.694V26.5281H163.656V38.2276Z" fill="black"/>
<path d="M170.003 29.3735C169.149 29.3735 168.078 29.6078 166.94 30.2104L167.358 31.064C168.145 30.6288 169.049 30.2941 169.919 30.2941C171.861 30.2941 172.43 31.6833 172.43 32.9553V33.3068C171.509 33.0055 170.471 32.788 169.534 32.788C167.593 32.788 166.103 33.9596 166.103 35.6668C166.103 37.3406 167.442 38.4285 169.25 38.4285C170.421 38.4285 171.794 37.8762 172.43 36.8552V38.2276H173.467V32.9553C173.467 30.8631 172.279 29.3735 170.003 29.3735ZM169.417 37.4912C168.128 37.4912 167.124 36.7715 167.124 35.6166C167.124 34.4952 168.245 33.6918 169.685 33.6918C170.656 33.6918 171.61 33.8759 172.43 34.127V35.5162C172.095 36.8552 170.622 37.4912 169.417 37.4912Z" fill="black"/>
<path d="M176.475 41.2404C177.681 41.2237 178.517 40.6713 179.07 39.2988L183.053 29.5744H181.932L178.902 37.123L175.706 29.5744H174.567L178.367 38.3615L177.848 39.483C177.53 40.052 177.078 40.2864 176.442 40.2864C176.074 40.2864 175.689 40.2027 175.371 40.0353L175.103 40.9559C175.505 41.14 175.99 41.2404 176.475 41.2404Z" fill="black"/>
<path d="M189.596 38.2276H191.689V34.3612H194.601C197.061 34.3612 198.902 32.7879 198.902 30.5451C198.902 28.3022 197.061 26.7289 194.601 26.7289H189.596V38.2276ZM191.689 32.4364V28.6537H194.367C195.789 28.6537 196.777 29.3734 196.777 30.5451C196.777 31.7167 195.789 32.4364 194.367 32.4364H191.689Z" fill="black"/>
<path d="M201.876 31.248V29.5743H199.834V38.2276H201.876V33.8591C201.876 32.2188 203.114 31.1141 204.972 31.1141V29.3734C203.549 29.3734 202.428 30.0932 201.876 31.248Z" fill="black"/>
<path d="M209.821 36.6208C208.583 36.6208 207.679 35.7839 207.428 34.5955H213.955C213.955 31.3987 212.399 29.3734 209.721 29.3734C207.26 29.3734 205.319 31.2815 205.319 33.8758C205.319 36.5371 207.361 38.4284 209.838 38.4284C211.093 38.4284 212.6 37.8928 213.353 37.0894L212.064 35.7504C211.579 36.2526 210.625 36.6208 209.821 36.6208ZM209.805 31.1811C211.026 31.1811 211.763 31.951 211.997 33.039H207.445C207.746 31.9008 208.666 31.1811 209.805 31.1811Z" fill="black"/>
<path d="M225.02 29.3734C223.731 29.3734 222.644 30.0095 222.225 31.0137C221.69 29.9927 220.685 29.3734 219.463 29.3734C218.375 29.3734 217.488 29.909 217.053 30.7459V29.5743H215.011V38.2276H217.053V32.9218C217.053 31.8673 217.84 31.1141 218.945 31.1141C219.949 31.1141 220.635 31.9175 220.635 33.0557V38.2276H222.627V32.9218C222.627 31.8673 223.397 31.1141 224.518 31.1141C225.506 31.1141 226.192 31.9175 226.192 33.0557V38.2276H228.184V32.7209C228.184 30.7627 226.828 29.3734 225.02 29.3734Z" fill="black"/>
<path d="M230.733 28.2688C231.369 28.2688 231.888 27.7164 231.888 27.0971C231.888 26.4779 231.369 25.9423 230.733 25.9423C230.08 25.9423 229.561 26.4779 229.561 27.0971C229.561 27.7164 230.08 28.2688 230.733 28.2688ZM229.695 38.2276H231.737V29.5743H229.695V38.2276Z" fill="black"/>
<path d="M239.155 29.5743V35.0475C239.021 35.968 238.134 36.6877 237.062 36.6877C235.991 36.6877 235.238 35.8509 235.238 34.6792V29.5743H233.263V35.0809C233.263 37.0392 234.585 38.4284 236.477 38.4284C237.615 38.4284 238.619 37.8761 239.155 37.0727V38.2276H241.197V29.5743H239.155Z" fill="black"/>
<path d="M252.742 29.3734C251.453 29.3734 250.365 30.0095 249.947 31.0137C249.411 29.9927 248.407 29.3734 247.185 29.3734C246.097 29.3734 245.21 29.909 244.775 30.7459V29.5743H242.733V38.2276H244.775V32.9218C244.775 31.8673 245.561 31.1141 246.666 31.1141C247.67 31.1141 248.357 31.9175 248.357 33.0557V38.2276H250.348V32.9218C250.348 31.8673 251.118 31.1141 252.24 31.1141C253.227 31.1141 253.913 31.9175 253.913 33.0557V38.2276H255.905V32.7209C255.905 30.7627 254.549 29.3734 252.742 29.3734Z" fill="black"/>
<path d="M74.9162 24.3284L64.3634 18.3105C63.9927 18.1067 63.5776 18 63.1558 18C62.734 18 62.3188 18.1067 61.9481 18.3105L51.3582 24.3284C50.9759 24.5465 50.6575 24.8633 50.4356 25.2466C50.2137 25.6298 50.0961 26.0657 50.0948 26.5099V38.5081C50.0914 38.9533 50.207 39.3911 50.4294 39.7751C50.6518 40.1592 50.9727 40.4752 51.3582 40.6896L61.911 46.6699C62.281 46.8952 62.7054 47.0124 63.1372 47.0084C63.5683 47.0073 63.9914 46.8905 64.3634 46.6699L74.9162 40.6896C75.2985 40.4715 75.6169 40.1547 75.8388 39.7715C76.0607 39.3882 76.1783 38.9523 76.1796 38.5081V26.5099C76.1905 26.0633 76.078 25.6225 75.8548 25.237C75.6316 24.8516 75.3065 24.5369 74.9162 24.3284Z" fill="url(#paint1_linear_2_5393)"/>
<path d="M55.78 35.6507L55.1483 36.0268C55.0353 36.0902 54.9358 36.1757 54.8558 36.2784C54.7758 36.3811 54.7168 36.4989 54.6822 36.625C54.6476 36.751 54.6381 36.8827 54.6544 37.0125C54.6706 37.1423 54.7122 37.2675 54.7767 37.3808C54.8597 37.5379 54.9828 37.6696 55.1331 37.7622C55.2834 37.8548 55.4554 37.9049 55.6314 37.9074C55.7986 37.9059 55.9635 37.8674 56.1144 37.7945L56.7461 37.4184C56.8591 37.355 56.9586 37.2695 57.0386 37.1668C57.1186 37.0641 57.1776 36.9463 57.2122 36.8202C57.2468 36.6942 57.2563 36.5625 57.24 36.4327C57.2238 36.3029 57.1822 36.1777 57.1177 36.0644C57.0603 35.9449 56.9792 35.8387 56.8794 35.7523C56.7797 35.666 56.6634 35.6014 56.5379 35.5626C56.4123 35.5237 56.2803 35.5115 56.1499 35.5267C56.0195 35.5418 55.8936 35.584 55.78 35.6507ZM59.6444 33.4316L58.3439 34.1838C58.2308 34.2472 58.1314 34.3327 58.0514 34.4355C57.9714 34.5382 57.9123 34.656 57.8777 34.782C57.8432 34.908 57.8337 35.0398 57.8499 35.1695C57.8662 35.2993 57.9078 35.4245 57.9723 35.5378C58.0553 35.6949 58.1783 35.8266 58.3286 35.9192C58.4789 36.0118 58.651 36.0619 58.8269 36.0644C58.9942 36.063 59.159 36.0244 59.31 35.9516L60.6105 35.1993C60.7235 35.1359 60.823 35.0504 60.903 34.9477C60.983 34.845 61.0421 34.7272 61.0766 34.6011C61.1112 34.4751 61.1207 34.3434 61.1044 34.2136C61.0882 34.0838 61.0466 33.9586 60.9821 33.8453C60.9247 33.7258 60.8436 33.6196 60.7438 33.5332C60.6441 33.4469 60.5278 33.3823 60.4023 33.3435C60.2768 33.3046 60.1447 33.2924 60.0143 33.3076C59.8839 33.3227 59.758 33.3649 59.6444 33.4316ZM64.8837 31.5923C64.8313 31.4856 64.7583 31.3907 64.6689 31.3131C64.5795 31.2356 64.4756 31.177 64.3634 31.141V23.5772C64.3639 23.4437 64.3383 23.3115 64.2881 23.188C64.2378 23.0646 64.164 22.9524 64.0707 22.858C63.9774 22.7636 63.8666 22.6889 63.7447 22.638C63.6228 22.5871 63.4921 22.5612 63.3602 22.5617C63.2303 22.5621 63.1018 22.589 62.9823 22.6406C62.8628 22.6923 62.7549 22.7677 62.6647 22.8625C62.5746 22.9572 62.5042 23.0693 62.4577 23.192C62.4113 23.3148 62.3896 23.4458 62.3941 23.5772V31.1748C62.2819 31.2109 62.178 31.2694 62.0886 31.347C61.9993 31.4245 61.9262 31.5195 61.8739 31.6262C61.8041 31.7584 61.7645 31.9047 61.758 32.0544C61.7516 32.2042 61.7785 32.3535 61.8367 32.4913C61.7785 32.6291 61.7516 32.7783 61.758 32.9281C61.7645 33.0778 61.8041 33.2242 61.8739 33.3563C61.9262 33.4631 61.9993 33.558 62.0886 33.6356C62.178 33.7131 62.2819 33.7716 62.3941 33.8077V41.4053C62.3941 41.6746 62.4998 41.9329 62.6879 42.1234C62.8761 42.3138 63.1313 42.4208 63.3973 42.4208C63.6634 42.4208 63.9186 42.3138 64.1068 42.1234C64.2949 41.9329 64.4006 41.6746 64.4006 41.4053V33.7701C64.5128 33.734 64.6167 33.6755 64.7061 33.598C64.7954 33.5204 64.8685 33.4254 64.9208 33.3187C64.9906 33.1866 65.0302 33.0402 65.0366 32.8905C65.0431 32.7407 65.0162 32.5915 64.958 32.4537C65.0439 32.1676 65.0173 31.859 64.8837 31.5923ZM67.4141 28.9934L66.1136 29.7456C66.0005 29.809 65.9011 29.8945 65.8211 29.9972C65.7411 30.0999 65.682 30.2177 65.6474 30.3438C65.6129 30.4698 65.6034 30.6016 65.6196 30.7313C65.6359 30.8611 65.6775 30.9863 65.742 31.0996C65.825 31.2567 65.948 31.3884 66.0983 31.481C66.2486 31.5736 66.4207 31.6237 66.5966 31.6262C66.7639 31.6248 66.9287 31.5862 67.0797 31.5134L68.3802 30.7611C68.4932 30.6977 68.5927 30.6122 68.6727 30.5095C68.7527 30.4068 68.8118 30.289 68.8463 30.1629C68.8809 30.0369 68.8904 29.9051 68.8741 29.7754C68.8579 29.6456 68.8163 29.5204 68.7518 29.4071C68.6944 29.2876 68.6133 29.1814 68.5135 29.095C68.4138 29.0087 68.2975 28.9441 68.172 28.9053C68.0465 28.8664 67.9144 28.8542 67.784 28.8694C67.6536 28.8845 67.5277 28.9267 67.4141 28.9934ZM70.4945 29.3695C70.6617 29.368 70.8266 29.3295 70.9775 29.2566L71.6092 28.8805C71.7221 28.8167 71.8214 28.7309 71.9014 28.628C71.9815 28.5252 72.0406 28.4074 72.0756 28.2814C72.1105 28.1553 72.1204 28.0235 72.1049 27.8936C72.0893 27.7636 72.0486 27.6381 71.9849 27.5241C71.9213 27.4102 71.8361 27.31 71.7341 27.2295C71.6321 27.149 71.5154 27.0897 71.3908 27.055C71.2661 27.0202 71.1358 27.0108 71.0075 27.0272C70.8792 27.0435 70.7554 27.0854 70.6431 27.1504L70.0114 27.5265C69.8984 27.5899 69.799 27.6754 69.7189 27.7781C69.6389 27.8808 69.5799 27.9986 69.5453 28.1247C69.5107 28.2507 69.5013 28.3825 69.5175 28.5122C69.5337 28.642 69.5753 28.7672 69.6399 28.8805C69.7249 29.033 69.8495 29.1591 70 29.2452C70.1506 29.3314 70.3216 29.3743 70.4945 29.3695ZM71.6092 36.0268L70.9775 35.6507C70.751 35.5225 70.4835 35.4904 70.2336 35.5613C69.9837 35.6322 69.7717 35.8004 69.644 36.0291C69.5163 36.2579 69.4832 36.5285 69.5521 36.7817C69.621 37.035 69.7861 37.2504 70.0114 37.3808L70.6431 37.7569C70.7941 37.8298 70.9589 37.8683 71.1262 37.8698C71.3021 37.8673 71.4742 37.8171 71.6245 37.7245C71.7748 37.6319 71.8978 37.5003 71.9808 37.3432C72.0473 37.2335 72.0905 37.1109 72.1077 36.9834C72.125 36.8559 72.1158 36.7261 72.0809 36.6023C72.0459 36.4785 71.986 36.3635 71.9048 36.2644C71.8236 36.1653 71.7229 36.0844 71.6092 36.0268ZM68.3765 34.1838L67.076 33.4316C66.9637 33.3666 66.8398 33.3247 66.7115 33.3084C66.5832 33.292 66.453 33.3014 66.3283 33.3362C66.2036 33.3709 66.087 33.4302 65.985 33.5107C65.883 33.5912 65.7978 33.6913 65.7341 33.8053C65.6705 33.9193 65.6297 34.0448 65.6142 34.1748C65.5986 34.3047 65.6086 34.4365 65.6435 34.5625C65.6784 34.6886 65.7376 34.8064 65.8176 34.9092C65.8977 35.012 65.997 35.0979 66.1099 35.1617L67.4104 35.9139C67.5613 35.9868 67.7262 36.0253 67.8934 36.0268C68.0694 36.0243 68.2414 35.9742 68.3917 35.8816C68.542 35.789 68.6651 35.6573 68.7481 35.5002C68.8157 35.3908 68.8599 35.2682 68.8777 35.1404C68.8955 35.0126 68.8867 34.8824 68.8516 34.7583C68.8166 34.6342 68.7562 34.5189 68.6744 34.42C68.5925 34.321 68.491 34.2405 68.3765 34.1838ZM58.3439 30.7235L59.6444 31.4757C59.7953 31.5486 59.9602 31.5871 60.1275 31.5886C60.3034 31.5861 60.4755 31.536 60.6258 31.4434C60.7761 31.3507 60.8991 31.2191 60.9821 31.062C61.0466 30.9487 61.0882 30.8235 61.1044 30.6937C61.1207 30.5639 61.1112 30.4322 61.0766 30.3062C61.0421 30.1801 60.983 30.0623 60.903 29.9596C60.823 29.8569 60.7235 29.7714 60.6105 29.708L59.31 28.9557C59.198 28.8904 59.0743 28.8483 58.9461 28.8319C58.8179 28.8155 58.6878 28.825 58.5633 28.86C58.4388 28.895 58.3224 28.9548 58.2209 29.0358C58.1195 29.1168 58.0349 29.2174 57.9723 29.3319C57.8478 29.5682 57.817 29.8436 57.886 30.1021C57.955 30.3606 58.1188 30.5828 58.3439 30.7235ZM56.7461 27.5265L56.1144 27.1504C56.0021 27.0854 55.8783 27.0435 55.75 27.0272C55.6217 27.0108 55.4914 27.0202 55.3668 27.055C55.2421 27.0897 55.1254 27.149 55.0234 27.2295C54.9215 27.31 54.8362 27.4102 54.7726 27.5241C54.7089 27.6381 54.6682 27.7636 54.6526 27.8936C54.6371 28.0235 54.647 28.1553 54.682 28.2814C54.7169 28.4074 54.776 28.5252 54.8561 28.628C54.9361 28.7309 55.0354 28.8167 55.1483 28.8805L55.78 29.2566C55.9309 29.3295 56.0958 29.368 56.263 29.3695C56.439 29.367 56.6111 29.3169 56.7614 29.2242C56.9117 29.1316 57.0347 29 57.1177 28.8429C57.1809 28.7323 57.2215 28.61 57.237 28.4832C57.2525 28.3564 57.2426 28.2277 57.2079 28.1049C57.1732 27.982 57.1145 27.8675 57.0351 27.7681C56.9558 27.6687 56.8575 27.5866 56.7461 27.5265Z" fill="#20133A"/>
<path d="M218.97 60.061C218.971 59.9466 218.931 59.8355 218.858 59.7483C218.784 59.6612 218.682 59.6037 218.569 59.5865C217.635 59.4205 215.02 58.7958 214.133 57.9022C213.245 57.0087 212.625 54.3755 212.46 53.4266C212.44 53.3156 212.382 53.2153 212.295 53.143C212.209 53.0708 212.101 53.0313 211.989 53.0312V60.061H218.97Z" fill="#FFEA80"/>
<path d="M211.989 53C211.876 53.0003 211.766 53.041 211.68 53.1148C211.594 53.1886 211.536 53.2908 211.518 53.4033C211.369 54.3443 210.78 56.9854 209.9 57.871C209.021 58.7566 206.358 59.3892 205.408 59.5553C205.297 59.574 205.195 59.6319 205.122 59.7187C205.049 59.8056 205.008 59.9158 205.008 60.0297H211.997L211.989 53Z" fill="#FFD567"/>
<path d="M211.989 60.0615V67.0992C212.102 67.0973 212.21 67.0561 212.296 66.9825C212.382 66.909 212.44 66.8077 212.46 66.6959C212.625 65.7391 213.245 63.0664 214.133 62.1728C215.02 61.2793 217.635 60.6941 218.569 60.5439C218.68 60.5237 218.781 60.4654 218.854 60.3789C218.927 60.2924 218.968 60.183 218.97 60.0694H211.989V60.0615Z" fill="#FFD567"/>
<path d="M205 60.0614C205.001 60.1765 205.042 60.2876 205.117 60.3747C205.192 60.4617 205.295 60.5188 205.408 60.5358C206.359 60.6861 209.005 61.2791 209.892 62.1648C210.78 63.0504 211.361 65.7231 211.51 66.6799C211.528 66.7931 211.585 66.8963 211.672 66.9714C211.758 67.0466 211.867 67.0889 211.981 67.0911V60.0535L205 60.0614Z" fill="#FFA266"/>
<path d="M92.9698 130.061C92.9711 129.947 92.9313 129.836 92.8577 129.748C92.7841 129.661 92.6817 129.604 92.5694 129.587C91.6349 129.42 89.0199 128.796 88.1326 127.902C87.2452 127.009 86.6248 124.376 86.4599 123.427C86.4397 123.316 86.3815 123.215 86.2954 123.143C86.2093 123.071 86.1008 123.031 85.9888 123.031V130.061H92.9698Z" fill="#FFEA80"/>
<path d="M85.9889 123C85.8757 123 85.7663 123.041 85.68 123.115C85.5938 123.189 85.5363 123.291 85.5177 123.403C85.3685 124.344 84.7796 126.985 83.9001 127.871C83.0206 128.757 80.3585 129.389 79.4083 129.555C79.2966 129.574 79.1952 129.632 79.1218 129.719C79.0485 129.806 79.0081 129.916 79.0078 130.03H85.9967L85.9889 123Z" fill="#FFD567"/>
<path d="M85.9888 130.062V137.099C86.1015 137.097 86.2102 137.056 86.2961 136.983C86.382 136.909 86.4399 136.808 86.4599 136.696C86.6248 135.739 87.2452 133.066 88.1326 132.173C89.0199 131.279 91.6349 130.694 92.5694 130.544C92.6804 130.524 92.781 130.465 92.854 130.379C92.9271 130.292 92.968 130.183 92.9699 130.069H85.9888V130.062Z" fill="#FFD567"/>
<path d="M79 130.061C79.0006 130.177 79.0421 130.288 79.117 130.375C79.1919 130.462 79.2952 130.519 79.4083 130.536C80.3585 130.686 83.0049 131.279 83.8923 132.165C84.7796 133.05 85.3607 135.723 85.5099 136.68C85.5283 136.793 85.5855 136.896 85.6716 136.971C85.7576 137.047 85.8672 137.089 85.9811 137.091V130.053L79 130.061Z" fill="#FFA266"/>
<path d="M239.468 94.2743C239.471 94.1883 239.442 94.1044 239.386 94.0387C239.331 93.973 239.254 93.9301 239.169 93.9184C238.47 93.7919 236.499 93.3175 235.84 92.6532C235.18 91.989 234.709 90.0042 234.583 89.3005C234.569 89.2167 234.525 89.1407 234.461 89.0858C234.396 89.0309 234.314 89.0006 234.23 89V94.2743H239.468Z" fill="#FFEA80"/>
<path d="M234.23 89C234.145 89.0006 234.064 89.0309 233.999 89.0858C233.935 89.1407 233.891 89.2167 233.877 89.3005C233.767 90.0122 233.327 91.989 232.667 92.6532C232.008 93.3175 230.005 93.7919 229.298 93.9105C229.214 93.9256 229.137 93.9704 229.083 94.0371C229.028 94.1037 228.999 94.1878 229 94.2743H234.238L234.23 89Z" fill="#FFD567"/>
<path d="M234.23 94.2744V99.5486C234.314 99.5481 234.396 99.5177 234.461 99.4628C234.525 99.4079 234.569 99.3319 234.583 99.2481C234.709 98.5286 235.172 96.5201 235.84 95.8558C236.507 95.1916 238.463 94.7488 239.162 94.6302C239.247 94.6186 239.325 94.5761 239.381 94.5106C239.438 94.4451 239.469 94.3611 239.468 94.2744H234.23Z" fill="#FFD567"/>
<path d="M229.008 94.2744C229.005 94.3603 229.034 94.4443 229.089 94.51C229.144 94.5757 229.222 94.6185 229.306 94.6302C230.021 94.7488 232.008 95.1916 232.675 95.8558C233.343 96.5201 233.775 98.5286 233.885 99.2402C233.899 99.3248 233.942 99.4018 234.007 99.458C234.071 99.5142 234.153 99.5462 234.238 99.5486V94.2744H229.008Z" fill="#FFA266"/>
<path d="M77.4678 99.2743C77.4705 99.1883 77.4415 99.1044 77.3864 99.0387C77.3313 98.973 77.254 98.9301 77.1694 98.9184C76.4705 98.7919 74.4994 98.3175 73.8398 97.6532C73.1802 96.989 72.709 95.0042 72.5834 94.3005C72.5687 94.2167 72.5253 94.1407 72.4607 94.0858C72.3961 94.0309 72.3145 94.0006 72.23 94V99.2743H77.4678Z" fill="#FFEA80"/>
<path d="M72.23 94C72.1455 94.0006 72.0638 94.0309 71.9993 94.0858C71.9347 94.1407 71.8913 94.2167 71.8766 94.3005C71.7667 95.0122 71.3269 96.989 70.6673 97.6532C70.0076 98.3175 68.0052 98.7919 67.2984 98.9105C67.2139 98.9256 67.1374 98.9704 67.0827 99.0371C67.028 99.1037 66.9987 99.1878 67 99.2743H72.2378L72.23 94Z" fill="#FFD567"/>
<path d="M72.23 99.2744V104.549C72.3145 104.548 72.3961 104.518 72.4607 104.463C72.5253 104.408 72.5687 104.332 72.5834 104.248C72.709 103.529 73.1723 101.52 73.8398 100.856C74.5073 100.192 76.4626 99.7488 77.1615 99.6302C77.2468 99.6186 77.3251 99.5761 77.3815 99.5106C77.4378 99.4451 77.4685 99.3611 77.4678 99.2744H72.23Z" fill="#FFD567"/>
<path d="M67.008 99.2744C67.0053 99.3603 67.0342 99.4443 67.0893 99.51C67.1445 99.5757 67.2218 99.6185 67.3064 99.6302C68.021 99.7488 70.0077 100.192 70.6752 100.856C71.3427 101.52 71.7746 103.529 71.8846 104.24C71.899 104.325 71.9421 104.402 72.0066 104.458C72.071 104.514 72.1527 104.546 72.2379 104.549V99.2744H67.008Z" fill="#FFA266"/>
<path d="M229.317 129.739C229.317 129.532 229.245 129.331 229.113 129.172C228.981 129.013 228.797 128.906 228.595 128.869C226.899 128.569 222.148 127.438 220.546 125.825C218.944 124.212 217.813 119.42 217.515 117.72C217.48 117.522 217.38 117.343 217.23 117.212C217.079 117.081 216.889 117.006 216.69 117V129.747L229.317 129.739Z" fill="#FFEA80"/>
<path d="M216.69 117C216.484 117.001 216.285 117.075 216.128 117.21C215.972 117.345 215.868 117.531 215.834 117.735C215.559 119.443 214.491 124.22 212.897 125.833C211.303 127.446 206.481 128.569 204.722 128.861C204.519 128.897 204.335 129.004 204.203 129.163C204.071 129.322 203.999 129.523 204 129.731H216.69V117Z" fill="#FFD567"/>
<path d="M216.69 129.738V142.485C216.895 142.485 217.093 142.411 217.25 142.278C217.406 142.145 217.511 141.961 217.546 141.758C217.845 140.026 218.975 135.179 220.577 133.566C222.179 131.953 226.922 130.877 228.611 130.6C228.815 130.568 229.002 130.464 229.137 130.306C229.273 130.148 229.348 129.947 229.349 129.738H216.69Z" fill="#FFD567"/>
<path d="M204 129.738C203.999 129.946 204.073 130.147 204.207 130.306C204.341 130.464 204.526 130.568 204.73 130.6C206.45 130.877 211.256 131.953 212.858 133.566C214.46 135.179 215.52 140.01 215.795 141.742C215.828 141.947 215.932 142.134 216.089 142.27C216.245 142.406 216.444 142.482 216.651 142.485V129.738H204Z" fill="#FFA266"/>
<path d="M103.317 73.7468C103.317 73.5397 103.244 73.3392 103.112 73.1802C102.98 73.0213 102.797 72.914 102.595 72.877C100.899 72.5765 96.1556 71.4458 94.5458 69.8326C92.936 68.2195 91.8209 63.4276 91.5146 61.7275C91.4811 61.5236 91.3765 61.3384 91.2196 61.2051C91.0628 61.0718 90.8639 60.9991 90.6587 61V73.7468H103.317Z" fill="#FFEA80"/>
<path d="M90.6586 61C90.4526 61.001 90.2537 61.0754 90.097 61.21C89.9403 61.3446 89.836 61.5307 89.8026 61.7354C89.5278 63.4434 88.4677 68.2195 86.8657 69.8326C85.2638 71.4458 80.45 72.5765 78.7303 72.877C78.5278 72.914 78.3447 73.0213 78.2127 73.1802C78.0807 73.3392 78.0082 73.5396 78.0078 73.7468H90.6664L90.6586 61Z" fill="#FFD567"/>
<path d="M90.6587 73.7471V86.4939C90.8644 86.4935 91.0636 86.4205 91.2214 86.2876C91.3792 86.1547 91.4858 85.9703 91.5225 85.7664C91.8209 84.0347 92.9438 79.1874 94.5458 77.5743C96.1478 75.9612 100.891 74.8857 102.587 74.6169C102.79 74.5833 102.975 74.4783 103.109 74.3205C103.242 74.1627 103.316 73.9624 103.317 73.755H90.6587V73.7471Z" fill="#FFD567"/>
<path d="M78 73.7471C78.0013 73.9556 78.0763 74.1569 78.2115 74.3148C78.3468 74.4728 78.5335 74.577 78.7382 74.609C80.4501 74.8778 85.2559 75.9533 86.8579 77.5664C88.4599 79.1795 89.52 84.011 89.7948 85.7427C89.828 85.9481 89.932 86.1352 90.0885 86.2711C90.245 86.407 90.4441 86.4831 90.6508 86.486V73.7471H78Z" fill="#FFA266"/>
<g filter="url(#filter0_d_2_5393)">
<rect x="101" y="67" width="98.4173" height="60" fill="white"/>
<rect x="101" y="89.0144" width="98.4173" height="15.9712" fill="#003580"/>
<rect x="128.626" y="127" width="60" height="15.9712" transform="rotate(-90 128.626 127)" fill="#003580"/>
</g>
<defs>
<filter id="filter0_d_2_5393" x="89" y="59" width="122.417" height="84" filterUnits="userSpaceOnUse" color-interpolation-filters="sRGB">
<feFlood flood-opacity="0" result="BackgroundImageFix"/>
<feColorMatrix in="SourceAlpha" type="matrix" values="0 0 0 0 0 0 0 0 0 0 0 0 0 0 0 0 0 0 127 0" result="hardAlpha"/>
<feOffset dy="4"/>
<feGaussianBlur stdDeviation="6"/>
<feComposite in2="hardAlpha" operator="out"/>
<feColorMatrix type="matrix" values="0 0 0 0 0 0 0 0 0 0 0 0 0 0 0 0 0 0 0.1 0"/>
<feBlend mode="normal" in2="BackgroundImageFix" result="effect1_dropShadow_2_5393"/>
<feBlend mode="normal" in="SourceGraphic" in2="effect1_dropShadow_2_5393" result="shape"/>
</filter>
<linearGradient id="paint0_linear_2_5393" x1="449.842" y1="154" x2="449.842" y2="308" gradientUnits="userSpaceOnUse">
<stop offset="0.213542" stop-color="white"/>
<stop offset="1" stop-color="#ECECEC"/>
</linearGradient>
<linearGradient id="paint1_linear_2_5393" x1="50.0948" y1="32.5052" x2="76.1833" y2="32.5052" gradientUnits="userSpaceOnUse">
<stop stop-color="#9059FF"/>
<stop offset="1" stop-color="#F770FF"/>
</linearGradient>
</defs>
</svg>
