<svg width="400" height="200" viewBox="0 0 400 200" fill="none" xmlns="http://www.w3.org/2000/svg">
<g clip-path="url(#clip0_10162_43154)">
<rect width="400" height="200" fill="white"/>
<rect opacity="0.1" width="400" height="200" fill="url(#paint0_radial_10162_43154)"/>
<path d="M140.034 -154.627C179.376 -167.124 221.624 -167.124 260.966 -154.627L313.737 -137.865C396.417 -111.602 453 -34.7901 453 52.4849V98.0396C453 180.963 408.95 243.146 385.491 270.936C370.379 288.839 350.969 307.764 327.394 323.884C309.271 336.276 263.557 364.686 200.5 364.686C138.987 364.686 93.884 338.018 73.7461 324.385C49.2506 307.802 29.3814 288.253 14.1035 269.892C-10.3228 240.536 -52 178.976 -52 98.0396V52.4849C-52 -34.7906 4.5831 -111.602 87.2627 -137.865L140.034 -154.627ZM202.825 26.7662C201.407 26.3156 199.89 26.2869 198.459 26.6812L198.174 26.7662L145.403 43.5289C142.214 44.542 140.047 47.4964 140.047 50.8433V96.399C140.047 112.072 149.497 130.713 161.729 145.415C167.851 152.772 174.684 159.161 181.408 163.712C188.124 168.259 194.767 170.998 200.5 170.998C205.883 170.998 212.35 168.256 218.996 163.711C225.652 159.16 232.529 152.773 238.738 145.417C251.146 130.718 260.953 112.076 260.953 96.399V50.8433C260.953 47.4964 258.786 44.542 255.597 43.5289L202.825 26.7662ZM201.503 170.631C201.164 170.652 200.83 170.664 200.5 170.664C200.324 170.664 200.147 170.66 199.969 170.655L200.5 170.663C200.665 170.663 200.831 170.66 200.998 170.655L201.503 170.631ZM197.236 170.384C197.609 170.446 197.978 170.496 198.344 170.538L198.891 170.592C198.528 170.561 198.161 170.521 197.792 170.469L197.236 170.384ZM203.583 170.384C203.229 170.446 202.878 170.497 202.531 170.539L202.015 170.592C202.357 170.561 202.704 170.52 203.055 170.468L203.583 170.384ZM196.675 170.285C196.49 170.25 196.304 170.211 196.117 170.171L196.675 170.285ZM204.657 170.171L204.117 170.285C204.337 170.241 204.558 170.192 204.78 170.141C204.739 170.151 204.698 170.162 204.657 170.171ZM196.022 170.151C195.895 170.123 195.766 170.095 195.638 170.065C195.766 170.095 195.895 170.123 196.022 170.151ZM205.549 169.952C205.389 169.994 205.23 170.032 205.071 170.071C205.23 170.032 205.389 169.994 205.549 169.952ZM195.427 170.013C195.328 169.989 195.229 169.966 195.13 169.941C195.229 169.966 195.328 169.989 195.427 170.013ZM194.112 169.662C194.416 169.751 194.718 169.834 195.019 169.912C194.718 169.834 194.416 169.751 194.112 169.662ZM206.326 169.735C206.142 169.789 205.959 169.841 205.777 169.89C205.959 169.841 206.142 169.789 206.326 169.735ZM207.086 169.499C206.896 169.56 206.707 169.619 206.519 169.676C206.707 169.619 206.896 169.56 207.086 169.499ZM193.098 169.344C193.411 169.448 193.722 169.545 194.032 169.637C193.722 169.545 193.411 169.448 193.098 169.344ZM207.842 169.242C207.673 169.302 207.504 169.358 207.337 169.415C207.504 169.358 207.673 169.302 207.842 169.242ZM192.559 169.161C192.681 169.204 192.804 169.245 192.926 169.287C192.828 169.254 192.73 169.221 192.632 169.187L192.559 169.161ZM208.63 168.95C208.479 169.008 208.328 169.064 208.178 169.119C208.328 169.064 208.479 169.008 208.63 168.95ZM209.427 168.634C209.263 168.702 209.099 168.766 208.936 168.831C209.099 168.766 209.263 168.702 209.427 168.634ZM210.234 168.291C210.073 168.362 209.911 168.43 209.75 168.498C209.911 168.43 210.073 168.362 210.234 168.291ZM188.247 167.336C188.164 167.295 188.082 167.254 187.999 167.212C188.082 167.254 188.164 167.295 188.247 167.336ZM213.29 166.804L212.689 167.12C212.889 167.017 213.089 166.91 213.29 166.803L213.895 166.476C213.693 166.587 213.491 166.697 213.29 166.804ZM216.335 165.047L215.722 165.421C215.926 165.298 216.13 165.173 216.335 165.046L216.951 164.661C216.745 164.791 216.54 164.92 216.335 165.047ZM181.051 163.06C180.936 162.981 180.82 162.9 180.705 162.82C180.82 162.901 180.936 162.981 181.051 163.06ZM221.302 161.652C220.885 161.963 220.469 162.268 220.053 162.565L219.43 163.005C219.845 162.715 220.26 162.417 220.677 162.113L221.302 161.652ZM179.783 162.165C179.759 162.147 179.735 162.131 179.711 162.114L179.082 161.652C179.316 161.825 179.55 161.996 179.783 162.165ZM176.566 159.707C176.281 159.477 175.997 159.243 175.712 159.007C175.997 159.243 176.281 159.477 176.566 159.707ZM173.934 157.499C174.467 157.964 175.002 158.419 175.538 158.864C175.045 158.454 174.551 158.037 174.06 157.61L173.934 157.499ZM226.312 157.61L225.06 158.676C225.477 158.327 225.895 157.971 226.312 157.609L227.562 156.507C227.146 156.881 226.729 157.248 226.312 157.61ZM230.049 154.202L228.808 155.371C229.222 154.986 229.636 154.596 230.049 154.201L231.283 153.001C230.873 153.406 230.461 153.807 230.049 154.202ZM170.97 154.801C170.759 154.602 170.546 154.404 170.336 154.202L170.064 153.936C170.366 154.227 170.668 154.515 170.97 154.801ZM236.131 147.906L234.936 149.22C235.336 148.786 235.734 148.347 236.131 147.905L237.314 146.565C236.922 147.016 236.528 147.463 236.131 147.906ZM239.637 143.814L238.483 145.201C238.871 144.742 239.255 144.279 239.637 143.813L240.773 142.405C240.397 142.878 240.019 143.348 239.637 143.814ZM161.024 144.027C160.967 143.956 160.907 143.886 160.85 143.814L160.579 143.473C160.727 143.658 160.875 143.843 161.024 144.027ZM158.632 140.976C158.302 140.541 157.976 140.103 157.652 139.663L158.632 140.976ZM242.991 139.529L241.892 140.976C242.58 140.083 243.257 139.177 243.922 138.263C243.614 138.687 243.305 139.11 242.991 139.529ZM249.106 130.513C248.479 131.54 247.832 132.56 247.168 133.572C247.832 132.56 248.479 131.539 249.106 130.512V130.513ZM151.411 130.253C151.643 130.642 151.875 131.032 152.112 131.419C151.928 131.118 151.745 130.816 151.564 130.513L151.411 130.253ZM148.827 125.637C148.755 125.499 148.683 125.361 148.611 125.223C148.683 125.361 148.755 125.499 148.827 125.637ZM255.948 117.179C255.839 117.443 255.729 117.707 255.617 117.97L255.276 118.76C255.507 118.233 255.731 117.706 255.948 117.178V117.179ZM257.722 112.443L257.452 113.23C257.569 112.896 257.681 112.561 257.792 112.227C257.768 112.299 257.746 112.371 257.722 112.443ZM258.197 110.964C258.11 111.245 258.02 111.526 257.929 111.807C258.02 111.526 258.11 111.245 258.197 110.964ZM258.506 109.936C258.427 110.207 258.346 110.478 258.263 110.75C258.346 110.478 258.427 110.207 258.506 109.936ZM258.902 108.525C258.81 108.871 258.714 109.216 258.615 109.563C258.714 109.216 258.81 108.87 258.902 108.524V108.525ZM259.472 106.195C259.414 106.453 259.355 106.711 259.294 106.969L259.104 107.746C259.235 107.227 259.357 106.71 259.472 106.194V106.195ZM260.061 103.123C260.02 103.377 259.977 103.631 259.933 103.886L259.791 104.653C259.889 104.141 259.979 103.63 260.061 103.122V103.123ZM260.619 96.399C260.619 96.6421 260.617 96.8859 260.612 97.1304L260.591 97.8658C260.61 97.3737 260.619 96.8844 260.619 96.398V96.399ZM260.333 48.8111C260.38 48.9747 260.421 49.1405 260.457 49.3082C260.441 49.2355 260.425 49.1633 260.407 49.0914L260.333 48.8111ZM140.758 48.5191L140.677 48.7789C140.728 48.6048 140.785 48.4332 140.849 48.2642V48.2632C140.817 48.3479 140.786 48.4332 140.758 48.5191ZM141.593 46.8052C141.607 46.784 141.62 46.7619 141.634 46.7408L141.799 46.5074C141.727 46.6048 141.659 46.7044 141.593 46.8052ZM142.543 45.6422L142.344 45.8472C142.409 45.7775 142.474 45.7085 142.542 45.6412L142.749 45.4439C142.679 45.5085 142.61 45.575 142.543 45.6422ZM144.408 44.2935C144.06 44.4698 143.729 44.6725 143.417 44.898L143.187 45.0718C143.488 44.8347 143.81 44.6194 144.149 44.4302L144.408 44.2935ZM256.592 44.2935C256.766 44.3815 256.936 44.4761 257.101 44.5767L257.346 44.733C257.185 44.6261 257.019 44.5258 256.85 44.4312L256.592 44.2935ZM145.504 43.8463C145.313 43.9068 145.127 43.9748 144.944 44.0494L144.673 44.1666C144.851 44.0851 145.034 44.0097 145.221 43.942L145.504 43.8463Z" fill="#0060DF" fill-opacity="0.035"/>
<path d="M149.739 -124.068C182.766 -134.559 218.232 -134.559 251.259 -124.068L304.029 -107.306C373.443 -85.2565 420.935 -20.7724 420.936 52.4844V98.04C420.935 169.722 382.617 224.63 360.988 250.253C347.362 266.396 330.046 283.228 309.295 297.416C293.099 308.49 253.935 332.622 200.499 332.622C148.301 332.622 109.62 309.952 91.7197 297.834C70.1919 283.26 52.4996 265.908 38.75 249.384C16.3409 222.452 -19.9374 168.063 -19.9375 98.04V52.4844C-19.9373 -20.7728 27.5554 -85.2566 96.9688 -107.306L149.739 -124.068ZM202.824 26.7656C201.406 26.3151 199.889 26.2863 198.458 26.6807L198.173 26.7656L145.402 43.5283C142.213 44.5414 140.046 47.4958 140.046 50.8428V96.3984C140.046 112.072 149.496 130.712 161.729 145.414C167.85 152.771 174.683 159.16 181.407 163.712C188.123 168.259 194.766 170.997 200.499 170.997C205.882 170.997 212.349 168.255 218.995 163.711C225.651 159.16 232.528 152.772 238.737 145.416C251.145 130.717 260.952 112.075 260.952 96.3984V50.8428C260.952 47.4958 258.785 44.5414 255.596 43.5283L202.824 26.7656ZM201.174 170.646C200.947 170.656 200.722 170.663 200.499 170.663C200.26 170.663 200.02 170.656 199.778 170.646C200.02 170.656 200.26 170.662 200.499 170.662C200.722 170.662 200.947 170.656 201.174 170.646ZM198.89 170.592C199.135 170.613 199.378 170.628 199.62 170.64C199.199 170.619 198.773 170.587 198.343 170.538L198.89 170.592ZM202.53 170.538C202.123 170.587 201.721 170.619 201.324 170.64C201.552 170.628 201.782 170.613 202.014 170.592L202.53 170.538ZM196.674 170.284L197.235 170.384C197.049 170.353 196.862 170.321 196.674 170.285L196.108 170.171C196.298 170.211 196.486 170.249 196.674 170.284ZM204.116 170.285L203.582 170.384C203.759 170.353 203.937 170.32 204.116 170.284L204.656 170.171C204.475 170.211 204.295 170.25 204.116 170.285ZM206.568 169.662C206.294 169.746 206.022 169.826 205.751 169.899L205.709 169.909C205.993 169.832 206.28 169.75 206.568 169.662ZM194.845 169.864C194.664 169.816 194.482 169.765 194.3 169.713C194.482 169.765 194.664 169.816 194.845 169.864ZM207.432 169.383C207.177 169.469 206.923 169.553 206.671 169.631C206.923 169.553 207.177 169.469 207.432 169.383ZM194.004 169.628C193.809 169.57 193.613 169.508 193.417 169.445C193.613 169.508 193.809 169.57 194.004 169.628ZM193.104 169.345C192.937 169.289 192.77 169.232 192.602 169.173C192.77 169.232 192.937 169.289 193.104 169.345ZM208.419 169.03C208.341 169.059 208.264 169.089 208.187 169.117C208.264 169.089 208.341 169.059 208.419 169.03ZM192.198 169.03C192.146 169.011 192.092 168.994 192.039 168.975L191.443 168.748C191.696 168.846 191.948 168.939 192.198 169.03ZM208.923 168.836C208.839 168.869 208.756 168.902 208.672 168.935C208.756 168.902 208.839 168.869 208.923 168.836ZM209.729 168.509C209.55 168.585 209.37 168.657 209.191 168.729L209.729 168.509ZM212.688 167.119C212.289 167.325 211.891 167.524 211.495 167.714L210.903 167.991C211.297 167.81 211.692 167.62 212.09 167.422L212.688 167.119ZM188.556 167.485C188.511 167.464 188.466 167.444 188.422 167.423L187.81 167.119C188.059 167.245 188.308 167.366 188.556 167.485ZM213.894 166.477L213.289 166.804C213.521 166.68 213.755 166.553 213.988 166.424C213.957 166.441 213.925 166.459 213.894 166.477ZM186.563 166.467C186.463 166.412 186.362 166.356 186.261 166.301C186.362 166.356 186.463 166.412 186.563 166.467ZM215.982 165.262C215.328 165.661 214.677 166.04 214.03 166.399C214.677 166.04 215.328 165.661 215.982 165.262ZM185.884 166.092C185.799 166.044 185.714 165.996 185.629 165.947C185.714 165.996 185.799 166.044 185.884 166.092ZM185.21 165.707C185.117 165.653 185.024 165.599 184.932 165.545C185.024 165.599 185.117 165.653 185.21 165.707ZM216.717 164.808C216.575 164.897 216.432 164.984 216.29 165.071C216.432 164.984 216.575 164.897 216.717 164.808ZM217.685 164.183C218.057 163.939 218.432 163.691 218.807 163.435L218.729 163.488C218.381 163.726 218.032 163.955 217.685 164.183ZM182.788 164.223C182.7 164.166 182.612 164.108 182.523 164.051C182.612 164.108 182.7 164.166 182.788 164.223ZM181.628 163.458C181.617 163.451 181.606 163.443 181.595 163.436L180.967 163.005C181.187 163.158 181.408 163.309 181.628 163.458ZM222.753 160.54C222.268 160.919 221.785 161.291 221.301 161.652L220.676 162.113C221.367 161.608 222.059 161.082 222.753 160.54ZM178.676 161.348C178.625 161.31 178.574 161.272 178.523 161.233C178.574 161.272 178.625 161.31 178.676 161.348ZM223.942 159.594C223.72 159.774 223.497 159.951 223.275 160.127C223.497 159.951 223.72 159.774 223.942 159.594ZM176.568 159.707C176.479 159.635 176.39 159.564 176.301 159.492C176.39 159.564 176.479 159.635 176.568 159.707ZM226.312 157.609C225.607 158.22 224.899 158.812 224.193 159.389C224.481 159.154 224.771 158.917 225.059 158.676L226.312 157.609ZM175.394 158.745C175.366 158.722 175.338 158.7 175.311 158.677L175.146 158.536C175.228 158.606 175.311 158.676 175.394 158.745ZM228.807 155.371L227.561 156.507C227.977 156.134 228.392 155.755 228.807 155.37L230.048 154.201C229.635 154.596 229.221 154.987 228.807 155.371ZM233.727 150.509L232.509 151.769C232.916 151.353 233.322 150.933 233.727 150.508L234.935 149.22C234.534 149.654 234.131 150.084 233.727 150.509ZM238.274 145.444C237.955 145.82 237.636 146.195 237.313 146.565L237.122 146.782C237.508 146.34 237.893 145.894 238.274 145.444ZM161.969 145.178C161.901 145.096 161.833 145.014 161.766 144.933C161.833 145.014 161.901 145.096 161.969 145.178ZM239.667 143.773C239.503 143.974 239.337 144.174 239.172 144.374C239.337 144.174 239.503 143.974 239.667 143.773ZM160.852 143.814C160.752 143.691 160.654 143.568 160.555 143.444C160.654 143.568 160.752 143.691 160.852 143.814ZM240.425 142.838C240.257 143.047 240.089 143.254 239.92 143.462C240.089 143.254 240.257 143.047 240.425 142.838ZM241.133 141.945C240.957 142.169 240.781 142.392 240.604 142.613C240.781 142.392 240.957 142.169 241.133 141.945ZM159.808 142.501C159.752 142.43 159.695 142.359 159.64 142.287C159.695 142.359 159.752 142.43 159.808 142.501ZM241.89 140.977C241.688 141.238 241.484 141.499 241.28 141.759C241.484 141.499 241.688 141.238 241.89 140.977ZM158.723 141.096C158.692 141.056 158.661 141.017 158.631 140.977L158.51 140.813C158.581 140.908 158.651 141.002 158.723 141.096ZM242.99 139.528C242.645 139.991 242.294 140.449 241.942 140.906L242.99 139.528ZM153.848 134.168C153.718 133.969 153.586 133.772 153.458 133.572L153.229 133.208C153.434 133.529 153.64 133.849 153.848 134.168ZM148.783 125.554C149.246 126.436 149.724 127.315 150.217 128.19L149.783 127.412C149.442 126.794 149.109 126.175 148.783 125.554ZM250.485 128.191L250.033 128.967C250.236 128.622 250.436 128.277 250.634 127.931C250.584 128.017 250.535 128.105 250.485 128.191ZM251.367 126.633C251.177 126.975 250.984 127.317 250.789 127.658C250.984 127.316 251.177 126.975 251.367 126.632V126.633ZM147.348 122.708C147.777 123.596 148.223 124.483 148.685 125.366C148.223 124.483 147.777 123.597 147.348 122.709V122.708ZM252.956 123.648C252.889 123.78 252.821 123.912 252.753 124.044C252.821 123.912 252.889 123.78 252.956 123.648ZM142.691 110.87C142.848 111.393 143.011 111.918 143.182 112.442C143.011 111.918 142.848 111.394 142.691 110.871V110.87ZM258.227 110.871C258.146 111.133 258.064 111.394 257.979 111.656L257.721 112.442C257.897 111.918 258.065 111.393 258.227 110.87V110.871ZM259.79 104.653C259.741 104.909 259.69 105.166 259.637 105.423L259.471 106.194C259.585 105.679 259.692 105.165 259.79 104.652V104.653ZM260.407 49.0908L260.471 49.375C260.445 49.248 260.413 49.1227 260.381 48.998C260.389 49.0291 260.4 49.0596 260.407 49.0908ZM260.262 48.5879C260.29 48.6757 260.316 48.7645 260.341 48.8535C260.316 48.7645 260.29 48.6757 260.262 48.5879ZM141.592 46.8047C141.606 46.7834 141.619 46.7614 141.633 46.7402L141.798 46.5068C141.726 46.6042 141.658 46.7039 141.592 46.8047ZM258.655 45.8467L258.846 46.0605C258.784 45.9884 258.72 45.9174 258.655 45.8477L258.456 45.6416C258.524 45.7089 258.59 45.7769 258.655 45.8467ZM144.407 44.293C144.32 44.3371 144.234 44.3834 144.149 44.4307L143.897 44.5771C143.98 44.5267 144.064 44.477 144.148 44.4297L144.407 44.293ZM145.503 43.8457C145.312 43.9063 145.125 43.974 144.942 44.0488L144.672 44.166C144.85 44.0845 145.033 44.0091 145.22 43.9414L145.503 43.8457ZM207.963 169.198C207.859 169.236 207.754 169.272 207.65 169.309C207.754 169.272 207.859 169.236 207.963 169.198ZM217.408 164.364C217.225 164.483 217.042 164.6 216.859 164.716C217.042 164.6 217.225 164.483 217.408 164.364ZM239.03 144.546C238.818 144.801 238.604 145.055 238.39 145.309C238.604 145.055 238.818 144.801 239.03 144.546Z" fill="#0060DF" fill-opacity="0.035"/>
<path d="M159.448 -93.1471C186.158 -101.631 214.841 -101.631 241.552 -93.1471L294.323 -76.3844C350.47 -58.5497 388.873 -6.39347 388.873 52.847V98.4027C388.873 158.848 356.282 206.485 336.488 229.934C324.348 244.316 309.124 259.054 291.198 271.311C276.925 281.07 244.312 300.921 200.5 300.921C157.617 300.921 125.357 282.247 109.696 271.645C91.1358 259.08 75.6187 243.926 63.3975 229.239C43.0113 204.738 12.127 157.517 12.127 98.4027V52.847C12.1271 -6.39381 50.5308 -58.5498 106.677 -76.3844L159.448 -93.1471ZM202.825 26.766C201.407 26.3154 199.89 26.2867 198.459 26.681L198.174 26.766L145.403 43.5287C142.214 44.5417 140.047 47.4961 140.047 50.8431V96.3988C140.047 112.072 149.496 130.713 161.729 145.414C167.851 152.772 174.684 159.16 181.408 163.712C188.124 168.259 194.767 170.997 200.5 170.997C205.883 170.997 212.35 168.256 218.996 163.711C225.652 159.16 232.529 152.773 238.738 145.416C251.146 130.717 260.953 112.076 260.953 96.3988V50.8431C260.953 47.4961 258.786 44.5418 255.597 43.5287L202.825 26.766ZM201.155 170.648C201.077 170.651 200.998 170.655 200.92 170.657C200.998 170.654 201.077 170.651 201.155 170.648ZM198.344 170.538C198.71 170.58 199.073 170.61 199.433 170.631L199.969 170.656C199.613 170.645 199.253 170.624 198.891 170.593L198.344 170.538ZM201.581 170.625C201.502 170.631 201.423 170.635 201.345 170.639C201.423 170.635 201.502 170.631 201.581 170.625ZM202.531 170.538C202.293 170.567 202.057 170.589 201.822 170.608C201.886 170.603 201.95 170.598 202.015 170.592L202.531 170.538ZM196.675 170.285C196.863 170.321 197.05 170.353 197.236 170.384L197.792 170.469C197.423 170.418 197.05 170.357 196.675 170.285ZM204.657 170.171C204.296 170.252 203.937 170.324 203.583 170.385L203.055 170.469C203.405 170.418 203.759 170.356 204.117 170.285L204.657 170.171ZM206.867 169.572L206.308 169.743C206.517 169.681 206.727 169.616 206.938 169.548C206.914 169.556 206.891 169.564 206.867 169.572ZM194.252 169.702C194.104 169.66 193.955 169.617 193.807 169.572L193.76 169.556C193.924 169.606 194.088 169.655 194.252 169.702ZM207.668 169.304C207.528 169.353 207.389 169.399 207.25 169.445C207.389 169.399 207.528 169.353 207.668 169.304ZM208.374 169.048C208.222 169.105 208.07 169.159 207.919 169.213C208.07 169.159 208.222 169.105 208.374 169.048ZM192.04 168.974L192.632 169.187C192.435 169.118 192.238 169.048 192.04 168.975L191.444 168.748C191.643 168.826 191.842 168.901 192.04 168.974ZM209.074 168.777C208.944 168.829 208.813 168.879 208.683 168.929C208.813 168.879 208.944 168.829 209.074 168.777ZM211.496 167.714L210.904 167.992C211.101 167.901 211.298 167.808 211.496 167.713L212.091 167.423C211.892 167.522 211.694 167.619 211.496 167.714ZM188.504 167.459C188.465 167.44 188.426 167.422 188.387 167.403C188.426 167.422 188.465 167.44 188.504 167.459ZM187.487 166.952C187.432 166.924 187.377 166.895 187.321 166.867C187.377 166.895 187.432 166.924 187.487 166.952ZM213.895 166.477L213.29 166.804C213.558 166.661 213.826 166.514 214.095 166.364C214.028 166.401 213.962 166.44 213.895 166.477ZM215.038 165.826C214.818 165.954 214.598 166.08 214.379 166.203C214.598 166.08 214.818 165.954 215.038 165.826ZM218.188 163.855C217.774 164.131 217.362 164.4 216.951 164.661L216.335 165.047C216.745 164.793 217.156 164.532 217.568 164.263L218.188 163.855ZM182.961 164.334C182.924 164.311 182.886 164.288 182.849 164.264L182.223 163.855C182.469 164.017 182.715 164.177 182.961 164.334ZM222.754 160.54C222.269 160.919 221.786 161.292 221.302 161.653L220.677 162.114C221.368 161.608 222.06 161.083 222.754 160.54ZM223.943 159.594C223.716 159.778 223.487 159.959 223.26 160.14C223.487 159.959 223.716 159.778 223.943 159.594ZM226.312 157.61C225.605 158.223 224.894 158.817 224.186 159.396C224.476 159.158 224.769 158.92 225.06 158.676L226.312 157.61ZM174.606 158.08L175.625 158.938C175.103 158.505 174.584 158.061 174.063 157.61C174.245 157.767 174.425 157.925 174.606 158.08ZM228.808 155.371L227.562 156.507C227.978 156.134 228.393 155.755 228.808 155.37L230.049 154.202C229.636 154.597 229.222 154.987 228.808 155.371ZM170.336 154.202C169.942 153.822 169.549 153.437 169.158 153.048L170.336 154.202ZM232.51 151.77L232.349 151.931C232.547 151.73 232.745 151.526 232.942 151.323C232.798 151.472 232.655 151.622 232.51 151.77ZM168.039 151.918C167.991 151.869 167.944 151.819 167.896 151.77C167.943 151.819 167.991 151.869 168.039 151.918ZM233.898 150.326C233.667 150.57 233.435 150.814 233.202 151.055C233.435 150.814 233.667 150.57 233.898 150.326ZM166.988 150.826C166.903 150.735 166.817 150.645 166.731 150.554C166.817 150.645 166.903 150.735 166.988 150.826ZM234.743 149.425C234.528 149.658 234.311 149.889 234.095 150.118C234.311 149.889 234.528 149.658 234.743 149.425ZM235.545 148.553C235.379 148.736 235.212 148.918 235.045 149.1C235.212 148.918 235.379 148.736 235.545 148.553ZM236.415 147.584C236.282 147.734 236.149 147.883 236.016 148.032C236.149 147.883 236.282 147.734 236.415 147.584ZM237.303 146.575C237.154 146.746 237.005 146.917 236.855 147.087C237.005 146.917 237.154 146.746 237.303 146.575ZM161.897 145.093C162.249 145.517 162.604 145.937 162.96 146.354C162.634 145.972 162.309 145.589 161.986 145.202L161.897 145.093ZM238.299 145.416C238.123 145.624 237.946 145.831 237.769 146.037C237.946 145.831 238.123 145.624 238.299 145.416ZM239.637 143.814C239.292 144.235 238.942 144.652 238.593 145.068L239.637 143.814ZM158.632 140.976L159.731 142.406C159.362 141.933 158.995 141.456 158.632 140.977L157.552 139.529C157.908 140.014 158.269 140.496 158.632 140.976ZM241.892 140.977L240.773 142.406C241.149 141.933 241.522 141.456 241.892 140.976L242.991 139.529C242.628 140.014 242.261 140.497 241.892 140.977ZM153.849 134.168C153.719 133.969 153.587 133.772 153.459 133.573L153.229 133.208C153.435 133.529 153.641 133.849 153.849 134.168ZM151.564 130.513C151.287 130.048 151.015 129.582 150.745 129.115L151.564 130.513ZM250.486 128.192L250.034 128.967C250.237 128.623 250.437 128.277 250.635 127.931C250.585 128.018 250.536 128.105 250.486 128.192ZM150.539 128.757C150.467 128.631 150.396 128.504 150.324 128.377C150.396 128.504 150.467 128.631 150.539 128.757ZM150.001 127.802C149.929 127.673 149.857 127.543 149.785 127.413C149.857 127.543 149.929 127.673 150.001 127.802ZM251.368 126.633C251.188 126.959 251.004 127.283 250.819 127.608C251.004 127.283 251.187 126.958 251.368 126.632V126.633ZM148.89 125.755C148.792 125.571 148.696 125.385 148.6 125.201C148.696 125.385 148.792 125.571 148.89 125.755ZM148.444 124.903C148.364 124.747 148.285 124.591 148.206 124.436C148.285 124.591 148.364 124.747 148.444 124.903ZM147.938 123.906C147.87 123.769 147.802 123.633 147.734 123.496C147.802 123.633 147.87 123.769 147.938 123.906ZM259.791 104.654C259.742 104.91 259.691 105.166 259.638 105.423L259.472 106.195C259.586 105.679 259.693 105.165 259.791 104.653V104.654ZM140.593 49.0912L140.528 49.3753C140.545 49.2928 140.563 49.2108 140.583 49.1292L140.593 49.0912ZM260.408 49.0921L260.472 49.3753C260.45 49.2691 260.426 49.1637 260.399 49.0589C260.402 49.07 260.405 49.081 260.408 49.0921ZM260.314 48.7523C260.328 48.7967 260.34 48.8414 260.353 48.8861C260.34 48.8414 260.328 48.7967 260.314 48.7523ZM260.206 48.4193C260.227 48.4798 260.248 48.5407 260.268 48.6019C260.248 48.5407 260.227 48.4799 260.206 48.4193ZM260.068 48.056C260.101 48.1342 260.132 48.2129 260.161 48.2923C260.132 48.2129 260.101 48.1342 260.068 48.056ZM258.656 45.847L258.847 46.0609C258.785 45.9887 258.721 45.9178 258.656 45.848L258.457 45.6419C258.525 45.7092 258.591 45.7773 258.656 45.847ZM142.577 45.6087C142.626 45.5608 142.676 45.5147 142.727 45.4681C142.676 45.5147 142.626 45.5608 142.577 45.6087ZM142.871 45.3353C142.924 45.2884 142.98 45.244 143.034 45.1986C142.98 45.2439 142.924 45.2885 142.871 45.3353ZM143.171 45.0853C143.226 45.0415 143.283 44.9996 143.34 44.9574C143.283 44.9996 143.226 45.0415 143.171 45.0853ZM143.483 44.8509C143.551 44.8034 143.62 44.7586 143.688 44.7132C143.62 44.7586 143.551 44.8034 143.483 44.8509ZM143.806 44.6361C143.873 44.5935 143.942 44.5525 144.011 44.5121C143.942 44.5525 143.873 44.5935 143.806 44.6361ZM144.168 44.4212C144.224 44.3901 144.282 44.3611 144.339 44.3314C144.282 44.3611 144.224 44.3901 144.168 44.4212ZM144.521 44.2386C144.583 44.2086 144.646 44.18 144.709 44.1517C144.646 44.18 144.583 44.2086 144.521 44.2386ZM144.889 44.0726C144.907 44.065 144.925 44.0567 144.943 44.0492L145.221 43.9427C145.109 43.9834 144.998 44.0269 144.889 44.0726Z" fill="#0060DF" fill-opacity="0.035"/>
<path d="M169.153 -62.5891C189.548 -69.0675 211.45 -69.0675 231.845 -62.5891L284.615 -45.8264C327.492 -32.2067 356.809 7.62025 356.809 52.8464V98.4021C356.809 147.615 329.94 187.981 311.986 209.251C301.332 221.872 288.2 234.517 273.1 244.843C260.747 253.289 234.684 268.857 200.499 268.857C166.929 268.857 141.091 254.179 127.67 245.093C112.077 234.536 98.7367 221.58 88.044 208.729C69.6874 186.668 44.1897 146.614 44.1895 98.4021V52.8464C44.1895 7.62004 73.5061 -32.2068 116.383 -45.8264L169.153 -62.5891ZM202.824 26.7654C201.406 26.3148 199.889 26.2861 198.458 26.6804L198.173 26.7654L145.402 43.5281C142.213 44.5411 140.046 47.4956 140.046 50.8425V96.3982C140.046 112.071 149.496 130.712 161.729 145.414C167.85 152.771 174.684 159.16 181.407 163.712C188.124 168.258 194.766 170.997 200.499 170.997C205.882 170.997 212.349 168.255 218.995 163.711C225.651 159.16 232.528 152.772 238.737 145.416C251.145 130.717 260.952 112.075 260.952 96.3982V50.8425C260.952 47.4957 258.785 44.5411 255.596 43.5281L202.824 26.7654ZM197.235 170.385C197.608 170.446 197.977 170.497 198.343 170.538L198.89 170.593C198.527 170.561 198.16 170.521 197.791 170.469L197.235 170.385ZM202.53 170.539L202.014 170.593C202.185 170.577 202.357 170.558 202.53 170.538L203.054 170.468C202.878 170.494 202.704 170.518 202.53 170.539ZM195.539 170.042L196.108 170.171C195.919 170.13 195.73 170.088 195.539 170.043L194.965 169.899C195.157 169.949 195.348 169.996 195.539 170.042ZM205.201 170.043L204.656 170.171C204.837 170.13 205.019 170.087 205.201 170.042L205.751 169.899C205.567 169.949 205.384 169.997 205.201 170.043ZM207.431 169.385L207.416 169.389C207.461 169.374 207.506 169.359 207.551 169.343C207.511 169.357 207.471 169.372 207.431 169.385ZM208.13 169.137C208.05 169.167 207.97 169.197 207.891 169.225C207.97 169.197 208.05 169.167 208.13 169.137ZM208.556 168.979C208.507 168.998 208.459 169.016 208.41 169.034C208.459 169.016 208.507 168.998 208.556 168.979ZM209.776 168.488C209.48 168.613 209.186 168.734 208.893 168.849C209.186 168.734 209.48 168.613 209.776 168.488ZM211.495 167.714C210.96 167.97 210.428 168.21 209.901 168.435C210.234 168.293 210.568 168.145 210.903 167.991L211.495 167.714ZM189.978 168.139C189.865 168.09 189.751 168.043 189.639 167.992L189.031 167.714C189.347 167.861 189.664 168.002 189.978 168.139ZM186.579 166.476C186.991 166.699 187.401 166.913 187.81 167.119L188.422 167.423C188.015 167.225 187.606 167.019 187.195 166.804L186.579 166.476ZM213.894 166.476C213.49 166.699 213.088 166.914 212.689 167.12L212.09 167.423C212.488 167.225 212.887 167.018 213.289 166.803L213.894 166.476ZM218.187 163.855L217.567 164.263C217.807 164.107 218.047 163.947 218.287 163.786C218.253 163.809 218.22 163.833 218.187 163.855ZM182.646 164.132C182.371 163.953 182.096 163.77 181.82 163.586C182.096 163.771 182.371 163.953 182.646 164.132ZM219.065 163.256C218.925 163.352 218.786 163.449 218.646 163.544C218.785 163.449 218.925 163.352 219.065 163.256ZM181.586 163.427C181.381 163.289 181.176 163.149 180.971 163.007C181.176 163.149 181.381 163.289 181.586 163.427ZM219.847 162.709C219.65 162.848 219.453 162.986 219.257 163.123C219.453 162.986 219.65 162.848 219.847 162.709ZM180.74 162.845C180.513 162.687 180.287 162.527 180.06 162.364C180.287 162.527 180.514 162.687 180.74 162.845ZM179.922 162.265C179.852 162.215 179.78 162.165 179.71 162.114L179.081 161.652C179.361 161.86 179.642 162.064 179.922 162.265ZM226.312 157.61L226.116 157.775C226.248 157.661 226.381 157.548 226.513 157.433C226.445 157.492 226.379 157.552 226.312 157.61ZM227.329 156.713C227.147 156.875 226.965 157.037 226.782 157.197C226.965 157.037 227.147 156.875 227.329 156.713ZM228.062 156.052C227.887 156.211 227.713 156.369 227.538 156.525C227.713 156.369 227.887 156.211 228.062 156.052ZM228.892 155.29C228.708 155.461 228.524 155.631 228.34 155.8C228.524 155.631 228.708 155.461 228.892 155.29ZM229.671 154.557C229.469 154.749 229.268 154.94 229.065 155.129C229.268 154.94 229.469 154.749 229.671 154.557ZM230.42 153.841C230.226 154.028 230.032 154.215 229.837 154.4C230.032 154.215 230.226 154.028 230.42 153.841ZM170.187 154.053C169.958 153.833 169.731 153.611 169.503 153.387C169.731 153.611 169.958 153.833 170.187 154.053ZM231.148 153.131C230.996 153.28 230.845 153.428 230.693 153.576C230.845 153.428 230.996 153.28 231.148 153.131ZM169.391 153.277C169.297 153.185 169.202 153.094 169.108 153.001L168.889 152.778C169.056 152.945 169.223 153.112 169.391 153.277ZM232.509 151.769C232.133 152.153 231.754 152.531 231.375 152.906L232.509 151.769ZM239.636 143.814L238.482 145.201C238.87 144.742 239.254 144.279 239.636 143.813L240.773 142.405C240.396 142.878 240.018 143.348 239.636 143.814ZM161.023 144.027C160.966 143.956 160.906 143.886 160.849 143.814L160.578 143.473C160.726 143.658 160.874 143.843 161.023 144.027ZM158.631 140.976C158.301 140.541 157.975 140.103 157.651 139.663L158.631 140.976ZM153.458 133.572C153.153 133.097 152.853 132.62 152.556 132.141L153.458 133.572ZM152.29 131.71C152.176 131.524 152.061 131.339 151.948 131.153C152.061 131.339 152.176 131.524 152.29 131.71ZM151.162 129.833C151.267 130.012 151.373 130.191 151.48 130.37C151.373 130.191 151.267 130.012 151.162 129.833ZM150.71 129.056C150.693 129.027 150.675 128.997 150.658 128.968L150.217 128.191C150.38 128.48 150.544 128.768 150.71 129.056ZM148.939 125.85L149.357 126.633C149.216 126.372 149.076 126.112 148.939 125.851L148.528 125.067C148.664 125.328 148.801 125.589 148.939 125.85ZM256.58 115.598L256.269 116.388C256.416 116.02 256.559 115.652 256.699 115.284C256.659 115.389 256.621 115.494 256.58 115.598ZM257.171 114.019C257.038 114.386 256.9 114.753 256.761 115.121C256.9 114.753 257.038 114.386 257.171 114.018V114.019ZM258.689 109.305C258.615 109.566 258.54 109.827 258.463 110.088L258.227 110.871C258.388 110.348 258.542 109.826 258.689 109.304V109.305ZM259.471 106.195C259.413 106.453 259.354 106.711 259.293 106.969L259.104 107.746C259.234 107.227 259.356 106.71 259.471 106.194V106.195ZM260.277 101.603C260.245 101.855 260.211 102.108 260.175 102.361L260.06 103.122C260.141 102.613 260.213 102.107 260.277 101.602V101.603ZM260.59 97.866C260.58 98.112 260.569 98.3588 260.555 98.6062L260.506 99.3493C260.543 98.852 260.571 98.3571 260.59 97.865V97.866ZM260.332 48.8113C260.379 48.9749 260.42 49.1407 260.456 49.3083C260.441 49.2357 260.424 49.1634 260.406 49.0915L260.332 48.8113ZM141.798 46.5076C141.686 46.6609 141.579 46.8185 141.479 46.9802C141.529 46.8995 141.58 46.8196 141.633 46.741L141.798 46.5076ZM258.249 45.4431L258.456 45.6413C258.375 45.5605 258.291 45.4821 258.206 45.405C258.22 45.4179 258.235 45.4301 258.249 45.4431ZM142.612 45.574C142.661 45.5268 142.711 45.4811 142.761 45.4353C142.711 45.4811 142.661 45.5268 142.612 45.574ZM142.93 45.2839C142.987 45.2347 143.045 45.1869 143.104 45.1394C143.045 45.1869 142.987 45.2348 142.93 45.2839ZM143.292 44.9919C143.365 44.9366 143.438 44.8815 143.514 44.8288C143.438 44.8815 143.365 44.9366 143.292 44.9919ZM143.546 44.8054C143.657 44.7283 143.772 44.6548 143.888 44.5837C143.772 44.6548 143.657 44.7284 143.546 44.8054ZM257.1 44.5769L257.121 44.5906C257.1 44.5775 257.078 44.5653 257.057 44.5525C257.071 44.561 257.086 44.5683 257.1 44.5769ZM143.903 44.574C144.021 44.502 144.142 44.4334 144.265 44.3679C144.142 44.4334 144.021 44.5021 143.903 44.574ZM256.689 44.3445C256.718 44.3601 256.748 44.3763 256.777 44.3923C256.748 44.3763 256.718 44.3601 256.689 44.3445ZM145.503 43.8464C145.079 43.9812 144.673 44.1517 144.29 44.3542C144.674 44.1515 145.079 43.9802 145.503 43.8454L198.274 27.0837L145.503 43.8464ZM256.276 44.1452C256.312 44.1614 256.348 44.1774 256.384 44.1941C256.348 44.1775 256.312 44.1613 256.276 44.1452ZM255.836 43.9646C255.88 43.9808 255.923 43.9974 255.966 44.0144C255.923 43.9974 255.88 43.9808 255.836 43.9646ZM255.494 43.8454C255.512 43.851 255.529 43.8574 255.546 43.863C255.529 43.8575 255.512 43.8518 255.495 43.8464L202.724 27.0837L255.494 43.8454ZM220.624 162.149C220.393 162.318 220.162 162.484 219.932 162.648C220.162 162.484 220.393 162.318 220.624 162.149Z" fill="#0060DF" fill-opacity="0.035"/>
<path d="M178.861 -32.0308C192.94 -36.5029 208.06 -36.5029 222.139 -32.0308L274.909 -15.2681C304.514 -5.86407 324.746 21.6321 324.746 52.8462V98.4018C324.746 136.389 303.593 169.487 287.485 188.569C278.318 199.429 267.279 209.981 255.003 218.374C244.566 225.511 225.056 236.793 200.5 236.793C176.243 236.793 156.826 226.111 145.646 218.541C133.019 209.994 121.856 199.234 112.692 188.221C96.3733 168.609 76.254 135.719 76.254 98.4018V52.8462C76.254 21.632 96.4858 -5.86411 126.091 -15.2681L178.861 -32.0308ZM202.825 26.7661C201.407 26.3155 199.89 26.2868 198.459 26.6811L198.174 26.7661L145.403 43.5288C142.214 44.5419 140.047 47.4963 140.047 50.8432V96.3989C140.047 112.072 149.497 130.713 161.73 145.415C167.851 152.772 174.684 159.16 181.408 163.712C188.124 168.259 194.767 170.998 200.5 170.998C205.883 170.997 212.35 168.256 218.996 163.711C225.652 159.16 232.529 152.773 238.738 145.416C251.146 130.718 260.953 112.076 260.953 96.3989V50.8432C260.953 47.4963 258.786 44.5419 255.597 43.5288L202.825 26.7661ZM201.746 170.614C201.324 170.646 200.909 170.664 200.5 170.664C200.065 170.664 199.624 170.646 199.178 170.614C199.624 170.646 200.065 170.663 200.5 170.663C200.909 170.663 201.324 170.646 201.746 170.614ZM203.004 170.474C202.588 170.534 202.178 170.58 201.773 170.612C202.178 170.581 202.588 170.534 203.004 170.474ZM199.139 170.611C198.924 170.595 198.708 170.576 198.49 170.553C198.708 170.576 198.924 170.595 199.139 170.611ZM198.465 170.551C198.26 170.529 198.054 170.503 197.848 170.475C198.054 170.503 198.26 170.529 198.465 170.551ZM197.741 170.46C197.574 170.437 197.405 170.412 197.236 170.384L197.741 170.46ZM203.583 170.384C203.422 170.412 203.261 170.437 203.101 170.46L203.583 170.384ZM204.657 170.171L204.117 170.285C204.356 170.237 204.595 170.183 204.837 170.127C204.777 170.141 204.717 170.158 204.657 170.171ZM195.965 170.136C195.815 170.103 195.665 170.069 195.515 170.033C195.665 170.069 195.815 170.103 195.965 170.136ZM205.66 169.921C205.477 169.97 205.295 170.016 205.114 170.06C205.295 170.016 205.478 169.97 205.66 169.921ZM195.139 169.941C194.959 169.895 194.779 169.847 194.599 169.797C194.779 169.847 194.959 169.895 195.139 169.941ZM206.499 169.682C206.31 169.739 206.121 169.794 205.933 169.846C206.121 169.794 206.31 169.739 206.499 169.682ZM194.275 169.708C194.103 169.658 193.93 169.606 193.756 169.552C193.93 169.606 194.103 169.658 194.275 169.708ZM207.32 169.42C207.14 169.481 206.961 169.537 206.782 169.593C206.961 169.537 207.14 169.481 207.32 169.42ZM193.387 169.437C193.332 169.419 193.276 169.404 193.221 169.386L192.632 169.187C192.884 169.275 193.136 169.357 193.387 169.437ZM209.15 168.749L208.573 168.974C208.819 168.881 209.064 168.781 209.312 168.68C209.257 168.702 209.204 168.727 209.15 168.749ZM210.234 168.291C210.043 168.374 209.852 168.455 209.662 168.535C209.852 168.455 210.043 168.374 210.234 168.291ZM187.811 167.12C188.219 167.326 188.627 167.524 189.032 167.713C188.83 167.619 188.626 167.522 188.423 167.423L187.811 167.12ZM212.091 167.423L211.496 167.713C211.694 167.619 211.892 167.521 212.091 167.422L212.69 167.12C212.489 167.223 212.29 167.324 212.091 167.423ZM214.501 166.137L213.895 166.476C214.096 166.365 214.298 166.251 214.501 166.136L215.11 165.785C214.907 165.904 214.704 166.022 214.501 166.137ZM185.923 166.114C185.614 165.941 185.305 165.762 184.995 165.581C185.305 165.762 185.614 165.941 185.923 166.114ZM216.335 165.047L215.722 165.421C215.926 165.298 216.13 165.173 216.335 165.046L216.951 164.661C216.745 164.791 216.54 164.92 216.335 165.047ZM221.302 161.652C220.468 162.274 219.636 162.87 218.808 163.436L218.188 163.855C219.014 163.303 219.844 162.721 220.677 162.113L221.302 161.652ZM176.566 159.707C176.272 159.469 175.978 159.228 175.684 158.985C175.978 159.228 176.272 159.469 176.566 159.707ZM173.934 157.499C174.467 157.963 175.002 158.419 175.538 158.864C175.045 158.454 174.551 158.037 174.06 157.61L173.934 157.499ZM226.313 157.61L225.06 158.676C225.478 158.326 225.895 157.971 226.313 157.609L227.562 156.507C227.146 156.88 226.73 157.248 226.313 157.61ZM236.131 147.906L234.936 149.22C235.336 148.786 235.734 148.347 236.131 147.905L237.315 146.565C236.922 147.016 236.528 147.463 236.131 147.906ZM242.458 140.229C241.904 140.962 241.343 141.689 240.773 142.406L240.645 142.565C241.258 141.795 241.862 141.016 242.458 140.229ZM243.448 138.907C243.158 139.3 242.865 139.69 242.571 140.08C242.865 139.69 243.158 139.3 243.448 138.907ZM153.849 134.168C153.584 133.762 153.323 133.353 153.064 132.944C153.323 133.353 153.584 133.762 153.849 134.168ZM151.489 130.385C151.972 131.196 152.469 132.002 152.975 132.803C152.495 132.044 152.023 131.281 151.565 130.513L151.489 130.385ZM148.94 125.85L149.357 126.632C149.022 126.013 148.696 125.391 148.376 124.768C148.562 125.129 148.749 125.49 148.94 125.85ZM253.036 123.497C252.903 123.759 252.768 124.021 252.632 124.283L252.219 125.067C252.497 124.544 252.769 124.02 253.036 123.496V123.497ZM148.287 124.596C148.1 124.23 147.915 123.864 147.733 123.497V123.496C147.915 123.863 148.1 124.23 148.287 124.596ZM255.948 117.179C255.84 117.443 255.729 117.707 255.617 117.97L255.276 118.76C255.507 118.233 255.731 117.705 255.948 117.178V117.179ZM142.692 110.871C142.849 111.394 143.012 111.918 143.183 112.443C143.012 111.918 142.849 111.394 142.692 110.872V110.871ZM258.228 110.872C258.147 111.133 258.065 111.395 257.981 111.657L257.722 112.443C257.898 111.918 258.066 111.394 258.228 110.871V110.872ZM142.246 109.304L142.464 110.087C142.393 109.84 142.324 109.592 142.257 109.345L142.246 109.304ZM258.902 108.525C258.833 108.785 258.763 109.045 258.69 109.305L258.464 110.087C258.618 109.565 258.764 109.044 258.902 108.524V108.525ZM260.556 98.6059C260.542 98.8533 260.526 99.1014 260.507 99.3501L260.444 100.097C260.491 99.5973 260.528 99.0998 260.556 98.605V98.6059ZM260.619 96.3989C260.619 96.642 260.617 96.8858 260.612 97.1304L260.591 97.8657C260.61 97.3737 260.619 96.8843 260.619 96.3979V96.3989ZM140.731 48.6089C140.685 48.7518 140.642 48.8962 140.606 49.0425L140.677 48.7798C140.694 48.7224 140.712 48.6657 140.731 48.6089ZM260.408 49.0913L260.412 49.1118C260.403 49.0755 260.393 49.0395 260.384 49.0034C260.392 49.0328 260.401 49.0617 260.408 49.0913ZM260.285 48.6626C260.297 48.7012 260.31 48.7399 260.321 48.7788C260.31 48.7399 260.297 48.7013 260.285 48.6626ZM141.635 46.7407L141.48 46.9809C141.53 46.9 141.581 46.8196 141.634 46.7407L141.799 46.5073C141.743 46.584 141.688 46.6618 141.635 46.7407ZM142.543 45.6421L142.344 45.8471C142.408 45.7775 142.475 45.7092 142.542 45.6421L142.749 45.4438C142.679 45.5084 142.611 45.5749 142.543 45.6421ZM258.457 45.6411L258.656 45.8471C258.558 45.7415 258.455 45.6404 258.351 45.5405C258.386 45.5743 258.423 45.6067 258.457 45.6411ZM144.408 44.2934C144.06 44.4697 143.729 44.6724 143.417 44.8979L143.187 45.0718C143.488 44.8347 143.81 44.6193 144.149 44.4302L144.408 44.2934ZM256.864 44.4399C256.972 44.5005 257.078 44.5631 257.182 44.6284C257.078 44.5631 256.972 44.5002 256.864 44.4399ZM145.504 43.8462C145.314 43.9067 145.127 43.9747 144.944 44.0493L144.673 44.1665C144.851 44.085 145.034 44.0096 145.221 43.9419L145.504 43.8462Z" fill="#0060DF" fill-opacity="0.035"/>
<path d="M188.567 -1.47159C196.331 -3.93753 204.668 -3.93753 212.431 -1.47159L265.201 15.2911C281.532 20.4784 292.682 35.6408 292.682 52.8458V98.4015C292.682 125.17 277.237 151 262.983 167.886C255.302 176.985 246.355 185.444 236.904 191.906C228.377 197.737 215.422 204.73 200.499 204.73C185.553 204.73 172.557 198.041 163.619 191.99C153.96 185.451 144.973 176.888 137.338 167.712C123.066 150.56 108.316 124.834 108.316 98.4015V52.8458C108.317 35.6407 119.467 20.4784 135.797 15.2911L188.567 -1.47159ZM202.824 26.7657C201.406 26.3152 199.889 26.2864 198.458 26.6808L198.173 26.7657L145.402 43.5284C142.213 44.5415 140.046 47.4959 140.046 50.8429V96.3985C140.046 112.072 149.496 130.712 161.729 145.414C167.85 152.771 174.683 159.16 181.407 163.712C188.124 168.259 194.766 170.997 200.499 170.997C205.882 170.997 212.349 168.255 218.995 163.711C225.651 159.16 232.528 152.772 238.737 145.416C251.145 130.717 260.952 112.075 260.952 96.3985V50.8429C260.952 47.4959 258.785 44.5415 255.596 43.5284L202.824 26.7657ZM201.174 170.647C200.947 170.656 200.722 170.663 200.499 170.663C200.26 170.663 200.02 170.656 199.778 170.647C200.02 170.656 200.26 170.662 200.499 170.662C200.722 170.662 200.947 170.656 201.174 170.647ZM198.89 170.592C199.135 170.613 199.378 170.628 199.62 170.64C199.199 170.619 198.773 170.587 198.343 170.538L198.89 170.592ZM202.53 170.538C202.123 170.587 201.721 170.619 201.324 170.64C201.552 170.628 201.782 170.613 202.014 170.592L202.53 170.538ZM204.116 170.285L203.582 170.384C203.797 170.347 204.012 170.305 204.23 170.261C204.192 170.269 204.154 170.278 204.116 170.285ZM196.665 170.282C196.533 170.257 196.401 170.23 196.269 170.202C196.401 170.23 196.533 170.257 196.665 170.282ZM204.885 170.117C204.703 170.16 204.523 170.199 204.343 170.236C204.523 170.199 204.703 170.16 204.885 170.117ZM195.374 170.001C195.229 169.966 195.084 169.928 194.938 169.89C195.084 169.928 195.229 169.966 195.374 170.001ZM205.584 169.942C205.423 169.985 205.262 170.025 205.103 170.064C205.262 170.025 205.423 169.985 205.584 169.942ZM206.261 169.754C206.083 169.806 205.906 169.855 205.731 169.902C205.906 169.855 206.083 169.806 206.261 169.754ZM191.443 168.748C192.551 169.18 193.643 169.542 194.715 169.832C193.836 169.595 192.943 169.308 192.039 168.975L191.443 168.748ZM206.971 169.536C206.807 169.589 206.643 169.638 206.48 169.688C206.643 169.638 206.807 169.589 206.971 169.536ZM207.657 169.306C207.508 169.358 207.36 169.407 207.212 169.456C207.36 169.407 207.508 169.357 207.657 169.306ZM208.361 169.052C208.224 169.103 208.085 169.152 207.948 169.201C208.085 169.152 208.224 169.103 208.361 169.052ZM209.073 168.776C208.954 168.824 208.835 168.87 208.716 168.916C208.835 168.87 208.954 168.824 209.073 168.776ZM212.689 167.119C212.289 167.326 211.891 167.524 211.495 167.714L210.903 167.991C211.297 167.81 211.692 167.62 212.09 167.422L212.689 167.119ZM188.556 167.485C188.511 167.464 188.466 167.444 188.422 167.423L187.81 167.119C188.059 167.245 188.308 167.366 188.556 167.485ZM216.334 165.047C215.515 165.554 214.701 166.032 213.894 166.477L213.289 166.804C214.093 166.375 214.904 165.913 215.721 165.421L216.334 165.047ZM186.564 166.467C186.463 166.412 186.362 166.357 186.261 166.301C186.362 166.356 186.463 166.412 186.564 166.467ZM185.861 166.079C185.784 166.036 185.707 165.991 185.629 165.947C185.707 165.991 185.784 166.036 185.861 166.079ZM185.21 165.707C185.117 165.653 185.024 165.6 184.932 165.545C185.024 165.6 185.117 165.653 185.21 165.707ZM217.567 164.264L216.95 164.66C217.226 164.485 217.502 164.305 217.778 164.123C217.708 164.17 217.638 164.218 217.567 164.264ZM182.788 164.223C182.7 164.166 182.612 164.108 182.523 164.051C182.612 164.108 182.7 164.166 182.788 164.223ZM218.696 163.508C218.493 163.646 218.29 163.782 218.088 163.917C218.29 163.782 218.493 163.646 218.696 163.508ZM181.628 163.458C181.617 163.451 181.606 163.443 181.595 163.436L180.967 163.005C181.187 163.158 181.408 163.309 181.628 163.458ZM222.753 160.54C222.268 160.919 221.785 161.291 221.301 161.652L220.676 162.113C221.367 161.608 222.059 161.082 222.753 160.54ZM178.519 161.229C178.454 161.18 178.389 161.131 178.324 161.082C178.389 161.131 178.454 161.18 178.519 161.229ZM177.397 160.365C177.367 160.342 177.337 160.318 177.308 160.295C177.337 160.318 177.367 160.342 177.397 160.365ZM223.942 159.594C223.715 159.778 223.486 159.959 223.259 160.14C223.486 159.959 223.715 159.778 223.942 159.594ZM176.477 159.633C176.396 159.567 176.315 159.502 176.233 159.436C176.315 159.502 176.396 159.567 176.477 159.633ZM226.312 157.609C225.64 158.192 224.965 158.757 224.292 159.308C224.547 159.099 224.804 158.889 225.059 158.676L226.312 157.609ZM175.379 158.733C175.356 158.714 175.333 158.696 175.311 158.677L175.167 158.554C175.238 158.613 175.308 158.673 175.379 158.733ZM228.807 155.371L227.561 156.507C227.977 156.134 228.392 155.755 228.807 155.37L230.048 154.201C229.635 154.597 229.221 154.987 228.807 155.371ZM233.727 150.509L232.509 151.769C232.916 151.353 233.322 150.933 233.727 150.508L234.935 149.22C234.534 149.654 234.131 150.084 233.727 150.509ZM238.289 145.427C237.965 145.809 237.641 146.189 237.314 146.566L237.122 146.782C237.514 146.334 237.903 145.883 238.289 145.427ZM161.969 145.178C161.901 145.096 161.833 145.014 161.766 144.933C161.833 145.014 161.901 145.096 161.969 145.178ZM239.667 143.774C239.503 143.974 239.337 144.175 239.172 144.374C239.337 144.175 239.503 143.974 239.667 143.774ZM160.852 143.815C160.752 143.692 160.654 143.568 160.555 143.444C160.654 143.568 160.752 143.692 160.852 143.815ZM240.425 142.838C240.27 143.031 240.115 143.223 239.959 143.415C240.115 143.223 240.27 143.031 240.425 142.838ZM241.133 141.945C240.957 142.169 240.782 142.392 240.605 142.613C240.782 142.392 240.957 142.169 241.133 141.945ZM159.808 142.501C159.752 142.43 159.695 142.359 159.64 142.287C159.695 142.359 159.752 142.43 159.808 142.501ZM241.89 140.977C241.688 141.239 241.484 141.499 241.28 141.759C241.484 141.499 241.688 141.239 241.89 140.977ZM158.723 141.096C158.692 141.056 158.661 141.017 158.631 140.977L158.51 140.814C158.581 140.908 158.651 141.002 158.723 141.096ZM242.99 139.528C242.645 139.991 242.294 140.449 241.942 140.906L242.99 139.528ZM153.848 134.168C153.718 133.969 153.586 133.772 153.458 133.572L153.229 133.208C153.434 133.529 153.64 133.849 153.848 134.168ZM148.783 125.554C149.246 126.436 149.724 127.315 150.217 128.191L149.783 127.412C149.442 126.794 149.109 126.175 148.783 125.554ZM251.367 126.633C251.223 126.893 251.078 127.153 250.931 127.413L250.485 128.191C250.785 127.672 251.078 127.153 251.367 126.632V126.633ZM252.218 125.067L251.797 125.851C251.979 125.515 252.158 125.178 252.336 124.842C252.296 124.917 252.258 124.992 252.218 125.067ZM147.348 122.708C147.774 123.591 148.218 124.471 148.676 125.349C148.218 124.471 147.774 123.591 147.348 122.709V122.708ZM253.035 123.496C252.861 123.838 252.684 124.18 252.505 124.522C252.684 124.18 252.861 123.838 253.035 123.495V123.496ZM255.616 117.97C255.504 118.233 255.391 118.497 255.275 118.761L254.925 119.551C255.162 119.024 255.392 118.496 255.616 117.969V117.97ZM142.691 110.87C142.848 111.393 143.011 111.918 143.182 112.442C143.011 111.918 142.848 111.394 142.691 110.871V110.87ZM258.227 110.871C258.146 111.133 258.064 111.394 257.98 111.656L257.721 112.442C257.897 111.918 258.065 111.393 258.227 110.87V110.871ZM259.79 104.653C259.741 104.909 259.69 105.166 259.637 105.423L259.471 106.194C259.585 105.679 259.692 105.165 259.79 104.652V104.653ZM260.618 96.3985C260.618 96.6416 260.616 96.8854 260.611 97.13L260.59 97.8653C260.609 97.3734 260.618 96.8838 260.618 96.3976V96.3985ZM260.407 49.0909L260.471 49.3751C260.445 49.2481 260.413 49.1228 260.381 48.9981C260.389 49.0292 260.4 49.0597 260.407 49.0909ZM260.262 48.588C260.29 48.6758 260.316 48.7645 260.341 48.8536C260.316 48.7645 260.29 48.6758 260.262 48.588ZM141.592 46.8048C141.606 46.7835 141.619 46.7614 141.633 46.7403L141.798 46.5069C141.727 46.6043 141.658 46.704 141.592 46.8048ZM258.846 46.0597L259.027 46.2804C258.968 46.206 258.908 46.1327 258.846 46.0606L258.655 45.8468C258.72 45.9165 258.784 45.9875 258.846 46.0597ZM142.542 45.6417L142.343 45.8468C142.408 45.7772 142.474 45.7088 142.541 45.6417L142.748 45.4435C142.678 45.5081 142.61 45.5745 142.542 45.6417ZM144.407 44.2931C144.32 44.3371 144.234 44.3835 144.149 44.4308L143.898 44.5772C143.98 44.5268 144.064 44.4771 144.148 44.4298L144.407 44.2931ZM145.503 43.8458C145.312 43.9064 145.125 43.9741 144.942 44.0489L144.672 44.1661C144.85 44.0845 145.033 44.0092 145.22 43.9415L145.503 43.8458ZM195.993 170.145C195.799 170.102 195.603 170.056 195.407 170.009C195.603 170.057 195.799 170.102 195.993 170.145ZM239.004 144.576C238.797 144.825 238.59 145.073 238.381 145.319C238.59 145.073 238.797 144.825 239.004 144.576Z" fill="#0060DF" fill-opacity="0.035"/>
<path d="M197.949 25.984C199.348 25.5984 200.832 25.6262 202.22 26.067L255.269 42.9176L255.559 43.0162C258.52 44.0899 260.509 46.9003 260.509 50.0719V95.8639C260.509 111.554 250.687 130.245 238.232 145.001C232.001 152.382 225.103 158.787 218.431 163.349C211.764 167.908 205.302 170.64 199.945 170.64C194.234 170.64 187.594 167.91 180.859 163.35C174.119 158.788 167.266 152.381 161.124 145C148.845 130.243 139.38 111.553 139.38 95.8639V50.0719C139.38 46.7979 141.5 43.9087 144.62 42.9176L197.669 26.067L197.949 25.984Z" stroke="black" stroke-opacity="0.08" stroke-width="0.333995" stroke-linecap="round" stroke-linejoin="round"/>
<path d="M200.834 149.287V48.7422C200.834 46.9317 202.597 45.6453 204.321 46.1976L241.728 58.1797C242.835 58.534 243.585 59.5626 243.585 60.7243V97.1839C243.585 118.301 216.156 147.502 203.444 151.499C202.036 151.942 200.834 150.763 200.834 149.287Z" fill="#0060DF" fill-opacity="0.16"/>
<path d="M201.001 48.7418C201.001 47.0978 202.552 45.915 204.118 46.3131L204.271 46.3571L241.678 58.3385C242.715 58.6708 243.418 59.6353 243.418 60.7242V97.1842C243.418 107.683 236.592 120.223 228.151 130.656C223.934 135.868 219.322 140.545 214.972 144.168C210.89 147.566 207.052 150.027 203.995 151.136L203.394 151.339C202.749 151.542 202.157 151.375 201.722 150.988C201.283 150.598 201.001 149.98 201.001 149.287V48.7418Z" stroke="black" stroke-opacity="0.04" stroke-width="0.333995" stroke-linecap="round" stroke-linejoin="round"/>
</g>
<defs>
<radialGradient id="paint0_radial_10162_43154" cx="0" cy="0" r="1" gradientUnits="userSpaceOnUse" gradientTransform="translate(400) rotate(-26.5651) scale(447.214 357.771)">
<stop stop-color="#B833E1"/>
<stop offset="0.371" stop-color="#9059FF"/>
<stop offset="0.614" stop-color="#5B6DF8"/>
<stop offset="1" stop-color="#0090ED"/>
</radialGradient>
<clipPath id="clip0_10162_43154">
<rect width="400" height="200" fill="white"/>
</clipPath>
</defs>
</svg>
