<svg width="64" height="64" viewBox="0 0 64 64" fill="none" xmlns="http://www.w3.org/2000/svg">
<g clip-path="url(#clip0_10162_43155)">
<rect width="64" height="64" fill="white"/>
<rect opacity="0.1" width="64" height="64" fill="url(#paint0_radial_10162_43155)"/>
<path d="M16.3379 -31.6407C26.2407 -34.7862 36.8746 -34.7863 46.7773 -31.6407L60.0605 -27.422C80.8722 -20.8112 95.1152 -1.47619 95.1152 20.4921V31.9589C95.1152 52.8315 84.0269 68.4832 78.1221 75.4784C74.318 79.9849 69.4324 84.7489 63.498 88.8065C58.9363 91.9256 47.4298 99.077 31.5576 99.077C16.0743 99.077 4.72141 92.3642 -0.347656 88.9325C-6.5135 84.7583 -11.5147 79.8374 -15.3604 75.2157C-21.5087 67.8265 -31.9999 52.3317 -32 31.9589V20.4921C-32 -1.47632 -17.7569 -20.8113 3.05469 -27.422L16.3379 -31.6407ZM32.1426 14.0175C31.7619 13.8966 31.3524 13.8966 30.9717 14.0175L17.6895 18.2372C16.8868 18.4922 16.341 19.2357 16.3408 20.078V31.5448C16.3408 35.4899 18.7197 40.1821 21.7988 43.8827C23.3397 45.7345 25.0595 47.3434 26.752 48.4892C28.4425 49.6336 30.1146 50.3222 31.5576 50.3222C32.9125 50.3221 34.54 49.632 36.2129 48.4882C37.8882 47.3426 39.6196 45.7352 41.1826 43.8837C44.3057 40.1838 46.7744 35.4908 46.7744 31.5448V20.078C46.7742 19.2357 46.2284 18.4922 45.4258 18.2372L32.1426 14.0175ZM32.8799 50.0468C32.6945 50.0971 32.5124 50.138 32.334 50.1688C32.4229 50.1535 32.5128 50.1354 32.6035 50.1151L32.8799 50.0468ZM33.7354 49.7567L33.4453 49.8671C33.541 49.8326 33.6373 49.7957 33.7344 49.7567L34.0283 49.6327C33.93 49.6761 33.8324 49.7177 33.7354 49.7567ZM46.3564 34.2059C46.2947 34.4663 46.2259 34.7283 46.1484 34.9911L46.0264 35.3856C46.1112 35.122 46.1882 34.8591 46.2578 34.5975L46.3564 34.2059ZM30.998 14.0985L17.9668 18.2372L30.998 14.0976L31.1357 14.0604C31.0895 14.0713 31.0436 14.0841 30.998 14.0985ZM32.1172 14.0976L45.1484 18.2372L32.1172 14.0985L31.9795 14.0604C32.0257 14.0713 32.0717 14.0831 32.1172 14.0976Z" fill="#0060DF" fill-opacity="0.035"/>
<path d="M18.7808 -23.9478C27.0939 -26.5884 36.0214 -26.5884 44.3345 -23.9478L57.6177 -19.729C75.0901 -14.1789 87.0444 2.05294 87.0444 20.4927V31.9595C87.0444 50.0028 77.3998 63.8244 71.9556 70.2739C68.5257 74.3372 64.1668 78.5737 58.9438 82.145C54.8671 84.9325 45.0085 91.0063 31.5581 91.0063C18.4197 91.0063 8.68307 85.3008 4.17725 82.2505C-1.2416 78.582 -5.69578 74.2136 -9.15674 70.0542C-14.7974 63.275 -23.9292 49.5847 -23.9292 31.9595V20.4927C-23.9292 2.05296 -11.9745 -14.1788 5.49756 -19.729L18.7808 -23.9478ZM32.1431 14.0181C31.7624 13.8972 31.3529 13.8972 30.9722 14.0181L17.6899 18.2378C16.8873 18.4927 16.3415 19.2363 16.3413 20.0786V31.5454C16.3413 35.4905 18.7202 40.1827 21.7993 43.8833C23.3402 45.7351 25.06 47.344 26.7524 48.4897C28.4429 49.6341 30.1151 50.3227 31.5581 50.3227C32.913 50.3227 34.5405 49.6326 36.2134 48.4888C37.8887 47.3432 39.6201 45.7358 41.1831 43.8843C44.3062 40.1843 46.7749 35.4914 46.7749 31.5454V20.0786C46.7747 19.2363 46.2289 18.4927 45.4263 18.2378L32.1431 14.0181ZM32.8804 50.0474C32.695 50.0977 32.5128 50.1386 32.3345 50.1694C32.4234 50.154 32.5133 50.136 32.604 50.1157L32.8804 50.0474ZM33.7358 49.7573L33.4458 49.8677C33.5415 49.8332 33.6378 49.7963 33.7349 49.7573L34.0288 49.6333C33.9305 49.6767 33.8329 49.7183 33.7358 49.7573ZM46.3569 34.2065C46.2952 34.4668 46.2263 34.7289 46.1489 34.9917L46.0269 35.3862C46.1117 35.1226 46.1887 34.8597 46.2583 34.5981L46.3569 34.2065ZM30.9985 14.0991L17.9673 18.2378L30.9985 14.0981L31.1362 14.061C31.09 14.0719 31.0441 14.0847 30.9985 14.0991ZM32.1177 14.0981L45.1489 18.2378L32.1177 14.0991L31.98 14.061C32.0262 14.0718 32.0722 14.0837 32.1177 14.0981Z" fill="#0060DF" fill-opacity="0.035"/>
<path d="M21.2256 -16.1646C27.9488 -18.3001 35.1684 -18.3001 41.8916 -16.1646L55.1748 -11.9458C69.3075 -7.45662 78.9744 5.67198 78.9746 20.5835V32.0513C78.9744 47.2656 70.7715 59.2561 65.7891 65.1587C62.7332 68.7788 58.9006 72.4886 54.3887 75.5737C50.796 78.0302 42.5865 83.0268 31.5586 83.0268C20.7642 83.0268 12.6443 78.3264 8.70215 75.6577C4.03024 72.4949 0.124098 68.6809 -2.95215 64.9839C-8.08356 58.8169 -15.8572 46.9308 -15.8574 32.0513V20.5835C-15.8573 5.67191 -6.19021 -7.45664 7.94238 -11.9458L21.2256 -16.1646ZM32.1436 14.019C31.7628 13.8982 31.3534 13.8981 30.9727 14.019L17.6904 18.2388C16.8877 18.4938 16.3418 19.2371 16.3418 20.0796V31.5464C16.342 35.4915 18.7207 40.1837 21.7998 43.8843C23.3407 45.7361 25.0605 47.345 26.7529 48.4907C28.4434 49.635 30.1156 50.3237 31.5586 50.3237C32.9134 50.3237 34.541 49.6335 36.2139 48.4897C37.8892 47.3442 39.6206 45.7368 41.1836 43.8852C44.3067 40.1854 46.7752 35.4924 46.7754 31.5464V20.0796C46.7754 19.2372 46.2294 18.4938 45.4268 18.2388L32.1436 14.019ZM32.8809 50.0473C32.6955 50.0977 32.5133 50.1385 32.335 50.1694C32.4239 50.154 32.5137 50.136 32.6045 50.1157L32.8809 50.0473ZM33.7363 49.7573L33.4463 49.8677C33.578 49.8202 33.7105 49.7673 33.8447 49.7114C33.8083 49.7266 33.7726 49.7428 33.7363 49.7573ZM45.0752 37.772L44.8818 38.1684C44.9474 38.0364 45.0116 37.9043 45.0742 37.772L45.2578 37.3735C45.1982 37.5063 45.1379 37.6394 45.0752 37.772ZM46.0273 35.3862L45.8945 35.7827C45.9538 35.6128 46.0075 35.4423 46.0605 35.2729C46.0488 35.3104 46.0394 35.3487 46.0273 35.3862ZM46.2295 34.6977C46.2012 34.8015 46.1704 34.9051 46.1396 35.0093C46.1704 34.9051 46.2011 34.8015 46.2295 34.6977Z" fill="#0060DF" fill-opacity="0.035"/>
<path d="M23.6675 -8.47402C28.8009 -10.1045 34.3134 -10.1045 39.4468 -8.47402L52.73 -4.25429C63.5226 -0.826044 70.9018 9.19869 70.9019 20.5826V32.0494C70.9019 44.4371 64.1389 54.598 59.6196 59.9518C56.9379 63.1288 53.6325 66.3118 49.8315 68.9108C46.7222 71.0368 40.1619 74.9556 31.5571 74.9557C23.1074 74.9557 16.6035 71.2613 13.2251 68.9742C9.30011 66.3171 5.94197 63.0555 3.25049 59.8209C-1.37013 54.2678 -7.78857 44.185 -7.78857 32.0494V20.5826C-7.78849 9.19863 -0.4083 -0.826059 10.3843 -4.25429L23.6675 -8.47402ZM32.1421 14.0182C31.7613 13.8973 31.352 13.8972 30.9712 14.0182L17.689 18.2379C16.8862 18.4929 16.3404 19.2363 16.3403 20.0787V31.5455C16.3404 35.4907 18.7192 40.1828 21.7983 43.8834C23.3392 45.7352 25.059 47.3441 26.7515 48.4898C28.4419 49.6342 30.1141 50.3229 31.5571 50.3229C32.912 50.3228 34.5395 49.6327 36.2124 48.4889C37.8877 47.3434 39.6191 45.736 41.1821 43.8844C44.3053 40.1845 46.7738 35.4916 46.7739 31.5455V20.0787C46.7739 19.2363 46.228 18.4929 45.4253 18.2379L32.1421 14.0182ZM32.604 50.1148L32.3335 50.1686C32.4224 50.1532 32.5123 50.1351 32.603 50.1148L32.8794 50.0465C32.7868 50.0717 32.6949 50.0945 32.604 50.1148ZM33.7349 49.7565L33.4448 49.8668C33.5765 49.8194 33.709 49.7665 33.8433 49.7106C33.8069 49.7257 33.7711 49.7419 33.7349 49.7565ZM45.0737 37.7711L44.8804 38.1676C44.991 37.9449 45.0957 37.721 45.1978 37.4977C45.1563 37.5885 45.1167 37.6804 45.0737 37.7711Z" fill="#0060DF" fill-opacity="0.035"/>
<path d="M26.1113 -0.780922C29.655 -1.90651 33.4602 -1.90654 37.0039 -0.780922L50.2871 3.43783C57.7391 5.80494 62.832 12.7264 62.832 20.5833V32.0501C62.832 41.6121 57.5077 49.9432 53.4531 54.7464C51.1455 57.4802 48.3663 60.1356 45.2764 62.2484C42.6492 64.0447 37.7386 66.8851 31.5576 66.8851C25.4519 66.8851 20.5643 64.1966 17.75 62.2913C14.5718 60.1398 11.7618 57.4307 9.45508 54.6585C5.34735 49.7218 0.283203 41.4433 0.283203 32.0501V20.5833C0.283203 12.7263 5.37613 5.80493 12.8281 3.43783L26.1113 -0.780922ZM32.1426 14.0179C31.7618 13.8971 31.3524 13.897 30.9717 14.0179L17.6895 18.2376C16.8868 18.4926 16.341 19.2361 16.3408 20.0785V31.5452C16.3408 35.4904 18.7197 40.1825 21.7988 43.8831C23.3397 45.735 25.0595 47.3438 26.752 48.4896C28.4425 49.634 30.1146 50.3226 31.5576 50.3226C32.9125 50.3226 34.54 49.6325 36.2129 48.4886C37.8882 47.3431 39.6196 45.7357 41.1826 43.8841C44.3058 40.1842 46.7744 35.4913 46.7744 31.5452V20.0785C46.7743 19.2361 46.2284 18.4926 45.4258 18.2376L32.1426 14.0179ZM46.2275 34.7054C46.2134 34.7572 46.1984 34.8088 46.1836 34.8607C46.1983 34.8088 46.2134 34.7572 46.2275 34.7054ZM31.8398 14.0335C31.9334 14.048 32.0262 14.0691 32.1172 14.098C32.0717 14.0836 32.0257 14.0717 31.9795 14.0609L31.8398 14.0335Z" fill="#0060DF" fill-opacity="0.035"/>
<path d="M28.5552 6.91066C30.5091 6.29005 32.6071 6.29002 34.561 6.91066L47.8442 11.1294C51.9548 12.4351 54.7612 16.2518 54.7612 20.5825V32.0493C54.7612 38.7873 50.8743 45.2893 47.2866 49.5396C45.3532 51.83 43.1011 53.9598 40.7222 55.5864C38.5758 57.0541 35.3143 58.814 31.5581 58.814C27.796 58.814 24.5247 57.13 22.2749 55.6069C19.8435 53.9609 17.5815 51.8053 15.6597 49.4956C12.0673 45.1782 8.354 38.7027 8.354 32.0493V20.5825C8.35405 16.2518 11.1614 12.4351 15.272 11.1294L28.5552 6.91066ZM32.1431 14.0181C31.7623 13.8972 31.3529 13.8971 30.9722 14.0181L17.6899 18.2378C16.8872 18.4928 16.3413 19.2362 16.3413 20.0786V31.5454C16.3415 35.4906 18.7202 40.1828 21.7993 43.8833C23.3402 45.7351 25.06 47.344 26.7524 48.4898C28.4429 49.6341 30.1151 50.3228 31.5581 50.3228C32.913 50.3227 34.5405 49.6326 36.2134 48.4888C37.8887 47.3433 39.6201 45.7358 41.1831 43.8843C44.3062 40.1844 46.7747 35.4914 46.7749 31.5454V20.0786C46.7749 19.2362 46.229 18.4928 45.4263 18.2378L32.1431 14.0181ZM32.8804 50.0464C32.695 50.0968 32.5128 50.1376 32.3345 50.1685C32.4234 50.1531 32.5133 50.1351 32.604 50.1148L32.8804 50.0464ZM33.7358 49.7564L33.4458 49.8667C33.5775 49.8193 33.71 49.7664 33.8442 49.7105C33.8078 49.7256 33.7721 49.7418 33.7358 49.7564ZM45.0747 37.771L44.8813 38.1675C44.992 37.9448 45.0967 37.7209 45.1987 37.4976C45.1572 37.5884 45.1176 37.6803 45.0747 37.771ZM46.228 34.7036C46.2195 34.7346 46.2104 34.7654 46.2017 34.7964C46.2104 34.7654 46.2195 34.7346 46.228 34.7036Z" fill="#0060DF" fill-opacity="0.035"/>
<path d="M31.0771 13.8164C31.4449 13.7301 31.8304 13.7444 32.1924 13.8594L45.4756 18.0791L45.6357 18.1367C46.4188 18.4569 46.9394 19.2204 46.9395 20.0781V31.5449C46.9395 35.5489 44.4414 40.2789 41.3086 43.9902C39.7378 45.8511 37.9957 47.4704 36.3057 48.626C34.623 49.7764 32.9614 50.4883 31.5566 50.4883C30.0654 50.4883 28.3604 49.7783 26.6582 48.626C24.9504 47.4698 23.2188 45.8507 21.6699 43.9893C18.58 40.2758 16.1738 35.5464 16.1738 31.5449V20.0781C16.1739 19.1632 16.7663 18.356 17.6377 18.0791L30.9209 13.8594L31.0771 13.8164Z" stroke="black" stroke-opacity="0.08" stroke-width="0.5" stroke-linecap="round" stroke-linejoin="round"/>
<path d="M31.6416 44.8584V19.55C31.6416 19.0942 32.0853 18.7704 32.5193 18.9094L41.9352 21.9255C42.2137 22.0147 42.4026 22.2736 42.4026 22.566V31.7433C42.4026 37.0587 35.4982 44.4091 32.2986 45.4152C31.9443 45.5266 31.6416 45.2298 31.6416 44.8584Z" fill="#0060DF" fill-opacity="0.16"/>
<path d="M32.4434 19.1478L41.8594 22.1635C42.0341 22.2196 42.1523 22.3823 42.1523 22.5658V31.7435C42.1523 34.3118 40.4739 37.4213 38.3564 40.0385C37.303 41.3405 36.1509 42.5073 35.0674 43.4095C34.1146 44.2029 33.2286 44.7793 32.5176 45.0697L32.2236 45.1771C32.1356 45.2048 32.0614 45.1832 32.0029 45.1312C31.94 45.0752 31.8917 44.9778 31.8916 44.8588V19.5502C31.8916 19.2997 32.1049 19.1128 32.3408 19.1283L32.4434 19.1478Z" stroke="black" stroke-opacity="0.08" stroke-width="0.5" stroke-linecap="round" stroke-linejoin="round"/>
</g>
<defs>
<radialGradient id="paint0_radial_10162_43155" cx="0" cy="0" r="1" gradientUnits="userSpaceOnUse" gradientTransform="translate(64) rotate(-45) scale(90.5097)">
<stop stop-color="#B833E1"/>
<stop offset="0.371" stop-color="#9059FF"/>
<stop offset="0.614" stop-color="#5B6DF8"/>
<stop offset="1" stop-color="#0090ED"/>
</radialGradient>
<clipPath id="clip0_10162_43155">
<rect width="64" height="64" fill="white"/>
</clipPath>
</defs>
</svg>
