<svg width="50" height="51" viewBox="0 0 50 51" fill="none" xmlns="http://www.w3.org/2000/svg">
<rect width="50" height="50" rx="4" fill="#F5F7F9"/>
<path d="M8.528 44H14.756V42.404H11.264L12.764 41.24C14.204 40.196 14.684 39.344 14.684 38.24C14.684 36.692 13.412 35.612 11.66 35.612C10.328 35.612 9.284 36.188 8.468 37.22L9.596 38.312C10.196 37.628 10.808 37.22 11.612 37.22C12.284 37.22 12.86 37.628 12.86 38.312C12.86 38.888 12.548 39.428 11.564 40.208L8.528 42.56V44ZM18.9599 44.156C20.9279 44.156 22.2359 43.04 22.2359 41.288C22.2359 39.608 20.9759 38.672 19.5119 38.672C18.8399 38.672 18.3119 38.888 17.9039 39.176L17.9519 37.352H21.7799V35.756H16.3199L16.1999 40.208L17.3879 40.688C17.8319 40.352 18.3599 40.148 18.9839 40.148C19.8839 40.148 20.4719 40.628 20.4719 41.348C20.4719 42.056 19.8959 42.608 18.9719 42.608C18.1799 42.608 17.4239 42.224 16.8119 41.636L15.7679 42.884C16.5359 43.652 17.5799 44.156 18.9599 44.156ZM23.6419 44H25.4059V38.864L27.9619 43.52L30.5059 38.864V44H32.2819V35.756H30.5059L27.9619 40.412L25.4059 35.756H23.6419V44ZM34.0482 44H38.3802C39.9522 44 41.0802 43.088 41.0802 41.768C41.0802 40.856 40.5282 40.088 39.5682 39.656C40.3002 39.272 40.7202 38.66 40.7202 37.82C40.7202 36.62 39.7002 35.756 38.2242 35.756H34.0482V44ZM35.8122 39.08V37.268H37.7802C38.4402 37.268 38.9082 37.652 38.9082 38.168C38.9082 38.696 38.4402 39.08 37.7802 39.08H35.8122ZM35.8122 42.488V40.472H38.0562C38.7642 40.472 39.2682 40.892 39.2682 41.48C39.2682 42.068 38.7642 42.488 38.0562 42.488H35.8122Z" fill="black"/>
<path d="M29.3167 16.7533L25.1301 20.9112L21.3952 17.2265L21.0941 16.9325L20.6138 17.4559L9.71722 28.9403C9.92504 29.1647 10.1767 29.3441 10.4566 29.4674C10.7365 29.5907 11.0387 29.6553 11.3445 29.6571H38.9157C39.2215 29.6548 39.5236 29.5901 39.8034 29.4668C40.0832 29.3435 40.3349 29.1643 40.543 28.9403L29.7898 17.3197L29.3167 16.7533Z" fill="#7542E5"/>
<path d="M21.1869 17.4127L9.6667 6.71692C9.25203 7.14456 9.01395 7.71289 9 8.30839V27.3272C9.00547 27.6303 9.07174 27.9293 9.19488 28.2064C9.31802 28.4834 9.49552 28.733 9.71688 28.9402L20.7425 17.9361L21.1869 17.4127ZM40.5427 6.65957L29.0726 17.2694L29.5887 17.7712L40.5427 28.9402C40.7628 28.7335 40.9396 28.4851 41.0627 28.2094C41.1858 27.9337 41.2527 27.6362 41.2595 27.3343V8.38725C41.2474 8.13965 41.1891 7.8965 41.0875 7.67037C40.9944 7.2906 40.807 6.94046 40.5427 6.6524V6.65957Z" fill="#9059FF"/>
<path d="M21.1156 17.8142L21.4095 18.1081L25.1588 21.7714L29.3525 17.635L40.543 6.65243C40.3444 6.44792 40.1072 6.28493 39.845 6.17294C39.5829 6.06095 39.3011 6.00218 39.016 6.00007H11.3374C11.0319 5.99764 10.7294 6.06032 10.4501 6.18393C10.1707 6.30754 9.92087 6.48924 9.71722 6.71695L21.1156 17.8142Z" fill="#C689FF"/>
<g clip-path="url(#clip0_71_948)">
<path d="M39.9632 15.235L39.897 15.2682L39.6153 14.9865L39.6981 14.9367L39.9632 15.235Z" fill="#FCEE21"/>
<path d="M41.6038 22.4105L41.4215 22.1951L41.8192 22.1122L42.0015 22.3442L41.6038 22.4105Z" fill="#ED1E79"/>
<path d="M45.4315 9.7498L45.5144 9.55094L47.42 9.26923L47.3372 9.46809L45.4315 9.7498Z" fill="#39B54A"/>
<path d="M35.0418 16.8259L35.456 16.9916L35.0749 17.7705L34.6606 17.5882L35.0418 16.8259Z" fill="#FBB03B"/>
<path d="M19.0346 21.6979L19.1671 21.6317L19.3991 23.2557L19.2666 23.3385L19.0346 21.6979Z" fill="#39B54A"/>
<path d="M36.7154 19.2951L36.8646 17.3065L36.9971 17.2733L36.8314 19.2619L36.7154 19.2951Z" fill="#FBB03B"/>
<path d="M25.9611 8.17552L26.1268 7.91037L26.2428 8.68923L26.0937 8.95438L25.9611 8.17552Z" fill="#00FFFF"/>
<path d="M25.1988 16.3453L24.4034 16.0802L24.5526 15.8647L25.348 16.1299L25.1988 16.3453Z" fill="#ED1E79"/>
<path d="M43.0122 9.31894L43.8408 9.46808L43.7579 10.3298L42.9128 10.1972L43.0122 9.31894Z" fill="#00FFFF"/>
<path d="M23.9229 25.4928L25.1823 26.7026L24.4863 27.034L23.2104 25.8077L23.9229 25.4928Z" fill="#00FFFF"/>
<path d="M37.1131 18.6488L36.848 19.6099L36.5994 19.3448L36.8646 18.3836L37.1131 18.6488Z" fill="#FCEE21"/>
<path d="M23.4755 9.91553L23.3098 10.7275L22.7298 10.5121L22.8955 9.7001L23.4755 9.91553Z" fill="#FBB03B"/>
<path d="M18.7363 13.5116L18.3552 12.8653L18.8523 12.5836L19.2334 13.2464L18.7363 13.5116Z" fill="#ED1C24"/>
<path d="M26.9719 8.22523L26.8393 8.30809L26.6405 7.99323L26.7565 7.91037L26.9719 8.22523Z" fill="#FBB03B"/>
<path d="M41.7695 20.2562L41.6369 20.9854L41.1729 20.7865L41.3055 20.0739L41.7695 20.2562Z" fill="#FBB03B"/>
<path d="M26.4085 9.89896L25.9942 10.2138L25.2486 10.4127L25.6628 10.0978L26.4085 9.89896Z" fill="#00FFFF"/>
<path d="M17.7918 1.38114L17.5598 1.62972L17.2947 1.09943" fill="#00FFFF"/>
<path d="M37.5439 21.8637L37.7428 21.6151L37.9913 21.5488L37.7759 21.7974L37.5439 21.8637Z" fill="#00FFFF"/>
<path d="M39.8804 9.36867L39.3004 9.05381L39.5159 8.90466L40.1124 9.21952L39.8804 9.36867Z" fill="#ED1C24"/>
<path d="M10.4013 11.871L10.1362 13.1138L9.67218 13.031L9.93731 11.7881L10.4013 11.871Z" fill="#00FFFF"/>
<path d="M31.4128 22.7254L30.982 22.8414L30.2363 21.3002L30.6506 21.1842L31.4128 22.7254Z" fill="#FBB03B"/>
<path d="M33.4013 10.8104L32.9373 10.3961L33.0202 9.60068L33.4841 10.015L33.4013 10.8104Z" fill="#00FFFF"/>
<path d="M25.5137 24.1174L25.4142 25.2111L24.2709 24.4488L24.3537 23.3551L25.5137 24.1174Z" fill="#39B54A"/>
<path d="M35.3732 7.59549L35.6715 6.70062L37.1794 7.19777L36.8811 8.09264L35.3732 7.59549Z" fill="#39B54A"/>
<path d="M32.0425 24.4985L31.6282 23.5208L32.6888 23.6534L33.103 24.6145L32.0425 24.4985Z" fill="#FBB03B"/>
<path d="M47.304 26.7191L47.2212 26.57L47.9172 25.8574L48 25.99L47.304 26.7191Z" fill="#ED1C24"/>
<path d="M28.8941 4.41375L28.3804 4.74518L28.7118 4.08232L29.2255 3.75089L28.8941 4.41375Z" fill="#00FFFF"/>
<path d="M5.19814 6.05433L4.85016 5.93833L4.86673 5.78918L5.21471 5.90519L5.19814 6.05433Z" fill="#ED1C24"/>
<path d="M9.50648 22.1951L8.90994 21.9465L8.86023 20.8694L9.45677 21.1179L9.50648 22.1951Z" fill="#ED1C24"/>
<path d="M34.8264 10.3961L34.9921 10.6447L35.1081 11.5396L34.9258 11.291L34.8264 10.3961Z" fill="#FBB03B"/>
<path d="M11.8098 9.20296L11.4452 9.05381L11.3955 7.87723L11.7601 8.02637L11.8098 9.20296Z" fill="#FBB03B"/>
<path d="M44.023 7.87723V7.7778L44.7521 8.25838V8.35781L44.023 7.87723Z" fill="#ED1C24"/>
<path d="M18.4546 19.1459L18.4215 19.3448L18.2392 19.3116L18.2723 19.1128L18.4546 19.1459Z" fill="#ED1C24"/>
<path d="M37.7097 20.0076L37.1297 20.2728L36.5663 19.1293L37.1463 18.8642L37.7097 20.0076Z" fill="#39B54A"/>
<path d="M31.4957 3.40288L31.2637 3.25374L31.3797 2.88916L31.6117 3.05488L31.4957 3.40288Z" fill="#FBB03B"/>
<path d="M7.93228 14.2076L7.76657 14.3402L6.63977 14.2904L6.80548 14.1413L7.93228 14.2076Z" fill="#39B54A"/>
<path d="M10.7161 18.8642L10.0533 18.5659L10.1196 18.251L10.7824 18.5328L10.7161 18.8642Z" fill="#FBB03B"/>
<path d="M35.8372 8.17551L35.9863 8.30808L35.8372 8.62294L35.688 8.4738L35.8372 8.17551Z" fill="#39B54A"/>
<path d="M17.7255 16.3287L18.4877 15.9145L18.67 16.1133L17.9078 16.5276L17.7255 16.3287Z" fill="#FBB03B"/>
<path d="M40.1455 8.50693L40.1952 8.67264H40.1124L40.0627 8.50693H40.1455Z" fill="#39B54A"/>
<path d="M18.6535 4.28119L19.2997 5.25891L18.9683 5.50749L18.3221 4.52976L18.6535 4.28119Z" fill="#39B54A"/>
<path d="M46.7075 4.11546L46.3264 3.63489L46.5583 2.8063L46.9229 3.28688L46.7075 4.11546Z" fill="#FCEE21"/>
<path d="M2.79539 5.82234L3.14337 6.25321L2.34798 5.77263L2 5.35834L2.79539 5.82234Z" fill="#ED1C24"/>
<path d="M37.3782 7.01551L36.9308 7.24751L36.6326 6.26978L37.0634 6.05435L37.3782 7.01551Z" fill="#FBB03B"/>
<path d="M9.14193 14.4727L9.04251 14.3402L9.32421 14.0584L9.42364 14.191L9.14193 14.4727Z" fill="#ED1C24"/>
<path d="M17.7752 12.0201L17.8249 13.6938L16.7147 13.727L16.665 12.0698L17.7752 12.0201Z" fill="#ED1C24"/>
<path d="M8.23056 14.1247L8.84367 13.7104L9.02595 13.9921L8.41284 14.4064L8.23056 14.1247Z" fill="#ED1E79"/>
<path d="M22.3155 4.21489L22.2327 4.18175L22.2658 3.75089L22.3653 3.8006L22.3155 4.21489Z" fill="#FCEE21"/>
<path d="M18.4712 1.61316L18.8855 1.79545L18.6369 2.49145L18.2226 2.30917L18.4712 1.61316Z" fill="#FBB03B"/>
<path d="M22.4978 19.8916L22.2824 20.1733L22.1664 20.1236L22.3653 19.8419L22.4978 19.8916Z" fill="#FCEE21"/>
<path d="M22.4647 10.6115L23.3429 10.015L23.8566 10.6778L22.9618 11.2744L22.4647 10.6115Z" fill="#39B54A"/>
<path d="M37.9748 18.9802L38.0742 19.1625L37.4942 19.4608L37.3782 19.2785L37.9748 18.9802Z" fill="#FBB03B"/>
<path d="M27.5353 19.6928L27.6513 19.4608L27.8004 19.4276L27.701 19.6431L27.5353 19.6928Z" fill="#39B54A"/>
<path d="M31.7277 5.04347L30.5677 5.47434L30.8991 4.99376L32.0756 4.5629L31.7277 5.04347Z" fill="#FBB03B"/>
<path d="M12.5555 10.5453L12.5058 11.8378L12.1909 11.8213L12.2406 10.5453H12.5555Z" fill="#FCEE21"/>
<path d="M33.8653 13.8596L34.0641 13.6938L35.1246 14.2241L34.9258 14.3899L33.8653 13.8596Z" fill="#00FFFF"/>
<path d="M15.5547 11.4733L15.4553 11.2081L16.085 10.9595L16.1844 11.2247L15.5547 11.4733Z" fill="#00FFFF"/>
<path d="M33.683 10.6778L33.6664 12.2853L32.5893 12.3681L32.6225 10.7773L33.683 10.6778Z" fill="#FBB03B"/>
<path d="M17.6924 25.2277L17.6592 24.9128L18.4049 25.062L18.438 25.3603L17.6924 25.2277Z" fill="#39B54A"/>
<path d="M30.0706 5.44119L31.214 4.62918L31.8602 6.23663L30.7169 7.04864L30.0706 5.44119Z" fill="#ED1C24"/>
<path d="M7.94885 17.6379L7.70029 17.2567L8.72766 17.439L8.97622 17.8202L7.94885 17.6379Z" fill="#39B54A"/>
<path d="M40.8415 10.015L41.6203 8.73895L41.7363 9.16981L40.9575 10.4458L40.8415 10.015Z" fill="#ED1C24"/>
<path d="M47.5857 17.4556L47.7017 17.2236L47.9503 17.323L47.8343 17.5716L47.5857 17.4556Z" fill="#FCEE21"/>
<path d="M35.2572 19.0299L35.3069 19.8585L34.2298 20.0242L34.1967 19.1956L35.2572 19.0299Z" fill="#FBB03B"/>
<path d="M29.4906 6.6675L29.2089 6.35264L29.3912 6.20349L29.6729 6.53492L29.4906 6.6675Z" fill="#39B54A"/>
<path d="M39.8141 12.3184L39.7976 12.5339L39.1679 12.567L39.1844 12.3516L39.8141 12.3184Z" fill="#39B54A"/>
<path d="M25.2154 16.0139L23.9726 15.0527L24.2709 14.9533L25.5137 15.931L25.2154 16.0139Z" fill="#00FFFF"/>
<path d="M24.9834 12.7824L24.2709 12.6498L24.304 12.4676L25.0166 12.6001L24.9834 12.7824Z" fill="#FBB03B"/>
<path d="M30.1866 6.76692L29.7723 5.68976L29.9546 5.6069L30.3689 6.68406L30.1866 6.76692Z" fill="#ED1C24"/>
<path d="M30.7003 4.81148L29.5403 4.64576L30.2694 4.41376L31.4294 4.57947L30.7003 4.81148Z" fill="#ED1C24"/>
<path d="M13.6823 20.5545L13.8977 20.7699L13.9143 22.0957L13.6989 21.8802L13.6823 20.5545Z" fill="#ED1E79"/>
<path d="M6.93805 12.5338L7.5843 11.8378L7.60087 11.9704L6.95462 12.6664L6.93805 12.5338Z" fill="#FBB03B"/>
<path d="M47.9006 7.7115L47.2378 7.81093L47.188 7.56235L47.8674 7.46292L47.9006 7.7115Z" fill="#FBB03B"/>
<path d="M40.477 20.1402L40.7089 20.2065L40.6592 20.4385L40.4272 20.3722L40.477 20.1402Z" fill="#FBB03B"/>
<path d="M25.7291 12.335L26.3422 12.1195L26.3588 12.5007L25.7622 12.7161L25.7291 12.335Z" fill="#FBB03B"/>
<path d="M26.6239 7.57893L26.8559 7.2475H27.1045L26.8725 7.56236L26.6239 7.57893Z" fill="#ED1C24"/>
<path d="M7.33573 1.39771L8.28026 1.96114L7.51801 3.23715L6.57349 2.67372L7.33573 1.39771Z" fill="#FBB03B"/>
<path d="M40.8083 12.4344L40.9575 12.4013L41.322 13.1139L41.1729 13.147L40.8083 12.4344Z" fill="#39B54A"/>
<path d="M23.9229 11.2412L23.9892 11.3241L23.2104 11.5892L23.1441 11.4898L23.9229 11.2412Z" fill="#FBB03B"/>
<path d="M16.8307 8.30809L17.0461 7.28065L17.1787 7.09836L16.9798 8.1258L16.8307 8.30809Z" fill="#FBB03B"/>
<path d="M41.3718 25.6585L41.438 25.5591L41.6535 25.4597L41.5706 25.5591L41.3718 25.6585Z" fill="#00FFFF"/>
<path d="M19.2334 3.30345L20.0951 3.00516L20.3602 3.58516L19.482 3.88345L19.2334 3.30345Z" fill="#FBB03B"/>
<path d="M42.5483 8.70579L42.5317 8.32465L43.9402 9.61723V9.99838L42.5483 8.70579Z" fill="#00FFFF"/>
<path d="M10.8653 27.498L12.1743 25.9568L12.8372 26.5369L11.5447 28.078L10.8653 27.498Z" fill="#ED1C24"/>
<path d="M26.2759 8.8881L27.005 8.6561L27.0216 9.28582L26.2759 9.53439V8.8881Z" fill="#39B54A"/>
<path d="M11.5447 9.4018L10.9315 8.1755L12.3401 7.46292L12.9532 8.68922L11.5447 9.4018Z" fill="#39B54A"/>
<path d="M34.8761 17.6545L34.0807 18.5991H34.0144L34.8098 17.6545H34.8761Z" fill="#FBB03B"/>
<path d="M39.2341 15.7819L39.317 14.9036L40.4106 14.7379L40.3444 15.6161L39.2341 15.7819Z" fill="#FCEE21"/>
<path d="M24.188 23.1894L23.6743 22.51L23.7738 22.4271L24.2875 23.1065L24.188 23.1894Z" fill="#ED1C24"/>
<path d="M33.7327 16.3122L34.0144 15.9807L34.2795 16.163L33.9813 16.4945L33.7327 16.3122Z" fill="#39B54A"/>
<path d="M18.4712 11.523L18.9683 12.0367L18.5706 12.4178L18.0735 11.9041L18.4712 11.523Z" fill="#FBB03B"/>
<path d="M16.781 11.8213L16.4496 10.8104L16.8141 10.6778L17.1455 11.6887L16.781 11.8213Z" fill="#FCEE21"/>
<path d="M18.8523 3.2869L19.6808 3.81719L18.7694 4.48005L17.9409 3.93319L18.8523 3.2869Z" fill="#FBB03B"/>
<path d="M4.80043 23.09L4.33646 22.2945L4.66787 21.9962L5.13185 22.7751L4.80043 23.09Z" fill="#FBB03B"/>
<path d="M5.76153 2.42516L5.71182 2.1103L5.91067 1.97772L5.96038 2.30915L5.76153 2.42516Z" fill="#ED1C24"/>
<path d="M12.7046 20.4385L12.6383 20.0242L14.3782 19.6431L14.4611 20.0739L12.7046 20.4385Z" fill="#39B54A"/>
<path d="M6.01009 3.22061L5.81125 3.4029L5.72839 2.59089L5.94381 2.4086L6.01009 3.22061Z" fill="#ED1C24"/>
<path d="M32.1254 23.438V23.4048H32.1751V23.438H32.1254Z" fill="#FCEE21"/>
<path d="M7.84941 15.2185L7.518 15.4505L7.45172 15.235L7.78313 15.003L7.84941 15.2185Z" fill="#FBB03B"/>
<path d="M42.6974 9.86582L42.4157 10.9927L42.1837 10.9098L42.4654 9.78296L42.6974 9.86582Z" fill="#FCEE21"/>
<path d="M30.8328 11.2247L29.2255 10.9927L29.8386 10.7441L31.446 10.9761L30.8328 11.2247Z" fill="#FBB03B"/>
<path d="M39.665 24.4985L39.2507 24.7471L39.0353 22.6922L39.4496 22.4437L39.665 24.4985Z" fill="#FBB03B"/>
<path d="M43.2442 12.0864V12.3847L42.6642 12.5504V12.2521L43.2442 12.0864Z" fill="#ED1C24"/>
<path d="M37.8257 25.5923L38.0411 25.5094L38.0742 25.6254L37.8754 25.6917L37.8257 25.5923Z" fill="#39B54A"/>
<path d="M18.3055 13.843L17.5598 15.1522L16.0353 14.7213L16.7976 13.4121L18.3055 13.843Z" fill="#00FFFF"/>
<path d="M40.593 17.1242L40.7089 15.4007L41.2558 15.7156L41.1564 17.439L40.593 17.1242Z" fill="#ED1C24"/>
<path d="M9.85448 22.7585L9.48992 22.858L9.27451 21.6648L9.63906 21.5654L9.85448 22.7585Z" fill="#ED1C24"/>
<path d="M21.7687 11.8213L22.6304 11.0755L22.8624 11.2412L22.0007 11.987L21.7687 11.8213Z" fill="#FBB03B"/>
<path d="M36.9971 19.9414L36.7651 20.0574L36.1852 19.9248L36.4171 19.7922L36.9971 19.9414Z" fill="#ED1E79"/>
<path d="M25.5303 5.98806L27.1045 5.39148L27.3199 5.93834L25.7291 6.53492L25.5303 5.98806Z" fill="#FCEE21"/>
<path d="M7.53459 20.8362L6.93805 22.1288L5.71182 21.5654L6.30836 20.2894L7.53459 20.8362Z" fill="#FBB03B"/>
<path d="M23.0944 13.0807L23.3264 13.1138L23.2104 13.4618L22.9784 13.4287L23.0944 13.0807Z" fill="#39B54A"/>
<path d="M15.9524 16.9419L15.7536 16.859L15.969 16.8425L16.1679 16.9088L15.9524 16.9419Z" fill="#ED1E79"/>
<path d="M4.22045 2.59087L3.88904 3.02173L2.92795 2.4583L3.25936 2.02744L4.22045 2.59087Z" fill="#00FFFF"/>
<path d="M34.2961 10.2635L33.2853 10.1144L32.639 9.51782L33.6498 9.66697L34.2961 10.2635Z" fill="#ED1C24"/>
<path d="M15.1736 25.294L14.8588 25.3437L14.9251 25.2608L15.2399 25.2111L15.1736 25.294Z" fill="#39B54A"/>
<path d="M2.7291 3.60174L3.19307 2.9223L3.77304 3.45259L3.2925 4.13203L2.7291 3.60174Z" fill="#39B54A"/>
<path d="M11.6938 17.4556L11.0973 17.2402L11.6772 15.7487L12.2572 15.9641L11.6938 17.4556Z" fill="#FCEE21"/>
<path d="M17.2615 13.2961L17.6261 13.5613L17.5598 14.0584L17.1953 13.7933L17.2615 13.2961Z" fill="#FCEE21"/>
<path d="M9.50649 25.6089L10.2522 25.874L9.98704 26.0231L9.24136 25.758L9.50649 25.6089Z" fill="#00FFFF"/>
<path d="M20.0951 23.4048L19.7637 23.3385L19.7471 23.206L20.0785 23.2722L20.0951 23.4048Z" fill="#39B54A"/>
<path d="M38.7205 2.65717L38.6873 3.65146L37.7759 3.63489L37.8091 2.64059L38.7205 2.65717Z" fill="#FCEE21"/>
<path d="M41.6866 19.3116L41.8026 20.1071L41.4712 19.9413L41.3552 19.1625L41.6866 19.3116Z" fill="#00FFFF"/>
<path d="M14.8588 18.7482L15.0245 19.1459L14.9914 19.5271L14.8091 19.1293L14.8588 18.7482Z" fill="#FCEE21"/>
<path d="M31.446 20.2562L31.5288 20.4716L31.1311 20.2728L31.0648 20.0573L31.446 20.2562Z" fill="#39B54A"/>
<path d="M7.88257 1.61316L8.21398 2.16002L8.16427 2.50803L7.83286 1.97773L7.88257 1.61316Z" fill="#ED1C24"/>
<path d="M20.8408 16.395L20.5259 15.9642L20.7745 15.9145L21.0893 16.3287L20.8408 16.395Z" fill="#ED1C24"/>
<path d="M32.4071 18.1848L32.1585 17.7208L32.3408 17.6213L32.5893 18.0688L32.4071 18.1848Z" fill="#ED1E79"/>
<path d="M21.8682 15.5333L22.0007 15.7487L21.6196 15.8979L21.487 15.6824L21.8682 15.5333Z" fill="#39B54A"/>
<path d="M8.8768 12.8321L8.92651 12.6333L9.05908 13.031L9.00937 13.2298L8.8768 12.8321Z" fill="#00FFFF"/>
<path d="M17.0295 17.5219L18.7529 17.7208L18.6037 18.9802L16.8804 18.7814L17.0295 17.5219Z" fill="#ED1C24"/>
</g>
<defs>
<clipPath id="clip0_71_948">
<rect width="46" height="27.078" fill="white" transform="translate(2 1)"/>
</clipPath>
</defs>
</svg>
