<svg width="300" height="154" viewBox="0 0 300 154" fill="none" xmlns="http://www.w3.org/2000/svg">
<rect width="299.895" height="154" rx="8" fill="white"/>
<path fill-rule="evenodd" clip-rule="evenodd" d="M280.572 154C281.513 147.667 282 141.187 282 134.593C282 62.2434 223.349 3.59265 151 3.59265C78.6507 3.59265 20 62.2434 20 134.593C20 141.187 20.4872 147.667 21.4277 154H280.572Z" fill="#C689FF"/>
<path d="M52.5709 48.173L49.1471 51.3395L45.8604 48.3423L45.4714 48.7244L36.5479 57.4541C36.9025 57.7997 37.3775 57.9953 37.8735 58H60.4208C60.9168 57.9953 61.3917 57.7997 61.7464 57.4541L52.9817 48.6043L52.5709 48.173Z" fill="#FF651D"/>
<path d="M45.8603 48.7189L36.5478 40.5298C36.2131 40.8468 36.0164 41.2819 36 41.7418V56.2257C36.002 56.4569 36.0516 56.6853 36.1458 56.8966C36.2401 57.1079 36.3769 57.2976 36.5478 57.454L45.4769 49.0738L45.8603 48.7189ZM61.6806 40.5298L52.4338 48.8445L52.8502 49.254L61.7464 58C61.9194 57.8371 62.0572 57.6408 62.1514 57.423C62.2456 57.2052 62.2942 56.9705 62.2942 56.7334V41.84C62.2935 41.6542 62.262 41.4697 62.201 41.2941C62.0853 40.9978 61.897 40.735 61.6532 40.5298H61.6806Z" fill="#FF9200"/>
<path d="M45.8604 49.0137L49.1471 51.9946L52.5763 48.8499L61.7464 40.4916C61.4059 40.1787 60.9606 40.0035 60.4974 40.0002H37.8899C37.3899 39.9928 36.9073 40.1832 36.5479 40.5298L45.8604 49.0137Z" fill="#FBB85E"/>
<g opacity="0.6" filter="url(#filter0_f_226_3573)">
<path d="M230.533 56.2084L228.77 57.8389L227.077 56.2956L226.877 56.4924L222.282 60.9874C222.465 61.1653 222.709 61.266 222.965 61.2685H234.575C234.83 61.266 235.075 61.1653 235.257 60.9874L230.744 56.4305L230.533 56.2084Z" fill="#FF651D"/>
<path d="M227.077 56.4895L222.282 52.2728C222.11 52.436 222.008 52.6601 222 52.8969V60.3548C222.001 60.4739 222.027 60.5915 222.075 60.7003C222.124 60.8091 222.194 60.9068 222.282 60.9873L226.88 56.6723L227.077 56.4895ZM235.223 52.2728L230.462 56.5542L230.676 56.765L235.257 61.2685C235.346 61.1846 235.417 61.0835 235.466 60.9714C235.514 60.8592 235.539 60.7384 235.539 60.6163V52.9475C235.539 52.8518 235.523 52.7568 235.491 52.6664C235.432 52.5138 235.335 52.3785 235.209 52.2728H235.223Z" fill="#FF9200"/>
<path d="M227.077 56.6413L228.77 58.1762L230.536 56.557L235.257 52.2531C235.082 52.092 234.853 52.0018 234.614 52.0001H222.973C222.716 51.9963 222.467 52.0943 222.282 52.2728L227.077 56.6413Z" fill="#FBB85E"/>
</g>
<path d="M276.951 43.1542L274.5 45.5874L272.153 43.2678L271.868 43.566L265.475 50.3166C265.596 50.4462 265.744 50.5496 265.907 50.6204C266.07 50.6913 266.246 50.728 266.425 50.7285H282.575C282.757 50.7164 282.934 50.6683 283.097 50.5871C283.261 50.5058 283.406 50.3929 283.525 50.2551L277.245 43.4761L276.951 43.1542Z" fill="#FFBD4F"/>
<path d="M272.125 43.8596L265.58 37.3693C265.362 37.5616 265.184 37.7949 265.057 38.0557C265.019 38.1736 265 38.2966 265 38.4203V49.7817C265.005 50.1378 265.15 50.4776 265.404 50.7285L271.826 44.1625L272.125 43.8596ZM283.525 37.3693L276.875 43.5235L277.174 43.8217L283.525 50.2551C283.803 50.0145 283.973 49.6741 284 49.3083V38.4203C283.998 38.2828 283.973 38.1466 283.924 38.0179C283.839 37.7756 283.703 37.5543 283.525 37.3693Z" fill="#FFD567"/>
<path d="M272.158 44.1009L274.533 46.4679L276.998 43.9873L283.525 37.3882C283.408 37.2679 283.269 37.1716 283.114 37.105C282.96 37.0384 282.795 37.0027 282.627 37H266.425C266.245 37.0002 266.067 37.0388 265.903 37.1131C265.739 37.1874 265.593 37.2957 265.475 37.4308L272.158 44.1009Z" fill="#FFEA80"/>
<path d="M35.4842 122.684L29.9999 127.868L24.7176 122.958L24.0876 123.586L9.80762 137.89C10.3698 138.455 11.1333 138.777 11.9318 138.784H48.068C48.8666 138.777 49.63 138.455 50.1922 137.89L36.1545 123.401L35.4842 122.684Z" fill="#0266A8"/>
<path d="M25.1538 123.393L9.88038 109.805C9.33513 110.339 9.01946 111.064 9 111.825V135.934C9.00551 136.32 9.09084 136.701 9.25065 137.053C9.41046 137.405 9.64134 137.72 9.92885 137.979L24.5238 124.029L25.1538 123.393ZM50.8465 111.037C50.6728 110.561 50.381 110.138 49.9985 109.805L34.8462 123.216L35.5246 123.876L50.0873 137.979C50.372 137.72 50.6001 137.406 50.7571 137.055C50.9142 136.705 50.9969 136.326 51 135.942V111.922C50.9968 111.621 50.945 111.322 50.8465 111.037Z" fill="#0390ED"/>
<path d="M24.7661 123.53L30.0645 128.359L35.5569 123.304L50.1922 109.805C49.6478 109.293 48.9294 109.006 48.1811 109H11.9642C11.5625 108.999 11.1647 109.078 10.7943 109.233C10.4239 109.388 10.0884 109.615 9.80762 109.902L24.7661 123.53Z" fill="#62BEFB"/>
<g opacity="0.6" filter="url(#filter1_f_226_3573)">
<path d="M94.8284 29.5615L93.0003 31.2894L91.2395 29.6527L91.0295 29.862L86.2695 34.63C86.4569 34.8185 86.7114 34.9255 86.9776 34.9279H99.023C99.2892 34.9255 99.5437 34.8185 99.7311 34.63L95.0518 29.8003L94.8284 29.5615Z" fill="#0266A8"/>
<path d="M91.3846 29.7976L86.2935 25.2683C86.1117 25.4464 86.0065 25.6879 86 25.9418V33.978C86.0018 34.1067 86.0303 34.2337 86.0835 34.3509C86.1368 34.4682 86.2138 34.5732 86.3096 34.6595L91.1746 30.0095L91.3846 29.7976ZM99.9488 25.6788C99.8909 25.5204 99.7937 25.3792 99.6662 25.2683L94.6154 29.7385L94.8415 29.9586L99.6958 34.6595C99.7907 34.5734 99.8667 34.4686 99.919 34.3518C99.9714 34.235 99.999 34.1086 100 33.9807V25.974C99.999 25.8735 99.9817 25.7739 99.9488 25.6788Z" fill="#0390ED"/>
<path d="M91.2557 29.8432L93.0218 31.4531L94.8526 29.7681L99.7311 25.2683C99.5496 25.0978 99.3101 25.0019 99.0607 25H86.9884C86.8545 24.9997 86.7219 25.0261 86.5984 25.0777C86.4749 25.1293 86.3631 25.2051 86.2695 25.3005L91.2557 29.8432Z" fill="#62BEFB"/>
</g>
<path d="M218.204 19.4166L215.658 21.8579L213.208 19.5479L212.916 19.8395L206.293 26.58C206.421 26.7113 206.575 26.8161 206.744 26.8881C206.913 26.9602 207.095 26.9982 207.279 27H224.037C224.221 26.9982 224.403 26.9602 224.572 26.8881C224.741 26.8161 224.894 26.7113 225.023 26.58L218.514 19.7491L218.204 19.4166Z" fill="#E31587"/>
<path d="M213.316 19.7637L206.398 13.2916C206.149 13.5512 206.007 13.8948 206 14.2541V25.7342C206.001 25.9161 206.039 26.096 206.111 26.2633C206.183 26.4305 206.287 26.5818 206.418 26.7083L213.024 20.0641L213.316 19.7637ZM225.245 13.875C225.169 13.6507 225.036 13.4499 224.859 13.2916L217.999 19.6791L218.292 19.9941L224.885 26.7025C225.016 26.5767 225.121 26.4259 225.192 26.259C225.264 26.0921 225.3 25.9126 225.301 25.7312V14.3008C225.306 14.1568 225.287 14.0129 225.245 13.875Z" fill="#FF298A"/>
<path d="M213.232 19.7988L215.687 22.0417L218.236 19.6763L225.023 13.3821C224.77 13.1384 224.432 13.0015 224.081 13H207.291C207.105 12.9999 206.921 13.037 206.749 13.1091C206.578 13.1813 206.423 13.287 206.293 13.42L213.232 19.7988Z" fill="#FF9AA2"/>
<rect x="139.367" y="75.4771" width="22.1735" height="16.2606" fill="#E9D6B8"/>
<rect x="114.26" y="47.3906" width="14.7823" height="16.2606" transform="rotate(46.7767 114.26 47.3906)" fill="#E9D6B8"/>
<rect width="14.7823" height="16.2606" transform="matrix(-0.684843 0.728691 0.728691 0.684843 187.924 47.3906)" fill="#E9D6B8"/>
<path d="M110 102C110 96.4772 114.477 92 120 92H181C186.523 92 191 96.4772 191 102V154H110V102Z" fill="white"/>
<circle cx="150.454" cy="90.9985" r="11.0867" fill="#E9D6B8"/>
<path d="M218.452 98.3896L174.844 91.7376V123.52L226.582 120.563C260.877 113.468 253.19 98.3896 245.06 91.7376L194.061 53.3035L183.713 64.3903L218.452 98.3896Z" fill="white"/>
<path d="M82.7427 99.1287L126.351 92.4767V124.259L74.6125 121.302C40.3175 114.207 48.0043 99.1287 56.1346 92.4767L107.134 54.0427L117.481 65.1294L82.7427 99.1287Z" fill="white"/>
<circle cx="121.889" cy="46.6515" r="14.0432" fill="#E9D6B8"/>
<path d="M131.546 70.0952C131.584 71.7023 132.26 73.2286 133.423 74.3389C134.587 75.4492 136.144 76.0528 137.753 76.0168L165.023 75.3928C165.825 75.3942 166.619 75.2327 167.357 74.918C168.095 74.6034 168.761 74.1422 169.315 73.5624C169.869 72.9826 170.299 72.2964 170.58 71.5453C170.86 70.7942 170.985 69.9938 170.946 69.193L170.036 28.8176C169.997 27.2105 169.322 25.684 168.158 24.5737C166.994 23.4634 165.437 22.86 163.829 22.896L136.53 23.5128C135.727 23.5114 134.933 23.6729 134.195 23.9875C133.457 24.3022 132.791 24.7634 132.237 25.3432C131.683 25.923 131.253 26.6092 130.973 27.3602C130.692 28.1113 130.568 28.9116 130.606 29.7124L131.546 70.0952Z" fill="#E9D6B8"/>
<path d="M130.779 38.0223C128.918 36.2204 127.382 34.1111 126.239 31.7872C126.166 30.3059 126.465 28.83 127.11 27.4945C127.755 26.1591 128.724 25.0066 129.93 24.1421C132.926 22.3017 135.502 25.5417 135.502 25.5417C135.502 25.5417 130.73 28.37 130.507 29.3815C130.283 30.3931 130.779 38.0223 130.779 38.0223Z" fill="#292960"/>
<path d="M173.245 46.9209C173.245 46.9209 177.159 31.339 176.136 26.7807C175.113 22.2223 174.707 19.1001 169.005 18.705C160.66 18.1341 160.615 19.8923 156.524 17.4612C152.432 15.0302 145.004 9.10696 142.484 8.56539C141.2 8.16893 139.838 8.08927 138.516 8.33327C137.195 8.57727 135.952 9.13753 134.894 9.96632C133.837 10.7951 132.996 11.8678 132.444 13.0923C131.892 14.3168 131.646 15.6567 131.725 16.9976C131.809 18.4454 131.526 19.8909 130.904 21.2006C130.281 22.5104 129.339 23.6423 128.163 24.4922C128.5 25.2174 130.051 25.8512 132.7 27.0962C140.374 30.7017 144.941 31.3609 150.724 29.7323C156.507 28.1038 167.29 24.5585 168.608 28.7943C169.925 33.0301 169.762 46.1987 170.3 47.2184C170.838 48.2382 172.224 47.7017 173.245 46.9209Z" fill="#292960"/>
<path d="M164.93 59.2311C164.934 59.4973 164.99 59.7601 165.097 60.0043C165.203 60.2486 165.356 60.4695 165.549 60.654C165.741 60.8385 165.968 60.983 166.216 61.0792C166.465 61.1754 166.73 61.2214 166.996 61.2145L172.893 61.0787C173.158 61.0713 173.418 61.0119 173.66 60.9037C173.901 60.7956 174.119 60.6408 174.301 60.4484C174.482 60.2561 174.624 60.0297 174.718 59.7824C174.812 59.5352 174.856 59.2718 174.848 59.0074L174.506 48.2137C174.485 47.6747 174.254 47.1651 173.863 46.7934C173.472 46.4216 172.951 46.217 172.411 46.223L166.515 46.3587C166.25 46.3661 165.989 46.4257 165.748 46.5338C165.506 46.642 165.288 46.7967 165.107 46.9891C164.925 47.1815 164.783 47.4078 164.689 47.6551C164.595 47.9023 164.551 48.1657 164.559 48.4301L164.93 59.2311Z" fill="#E9D6B8"/>
<path d="M129.74 60.0309C129.755 60.5662 129.98 61.0739 130.367 61.4449C130.753 61.8159 131.27 62.0204 131.806 62.0143L137.703 61.8787C138.238 61.8634 138.746 61.6386 139.117 61.2525C139.489 60.8663 139.693 60.3499 139.687 59.8144L139.352 48.9921C139.344 48.7277 139.285 48.4672 139.176 48.2258C139.068 47.9843 138.913 47.7667 138.721 47.5851C138.528 47.4035 138.301 47.2617 138.054 47.1677C137.806 47.0737 137.543 47.0294 137.278 47.0373L131.382 47.1731C131.117 47.1805 130.856 47.2399 130.615 47.3481C130.373 47.4562 130.156 47.611 129.974 47.8033C129.792 47.9957 129.65 48.2221 129.557 48.4694C129.463 48.7166 129.418 48.98 129.426 49.2444L129.74 60.0309Z" fill="#E9D6B8"/>
<path fill-rule="evenodd" clip-rule="evenodd" d="M149.768 62.2304L149.768 62.2304L149.768 62.2925C146.939 62.406 143.025 62.6901 141.28 63.6155C139.083 64.7808 133.784 68.1625 132.546 70.1155L132.546 60.4293C129.838 64.2499 129.319 67.9286 128.708 72.2613C128.658 72.617 128.607 72.9771 128.555 73.3421C128.667 77.2103 130.842 89.453 149.379 89.1155C149.837 89.1062 150.288 89.0946 150.731 89.0806C151.175 89.0946 151.625 89.1062 152.082 89.1154C170.619 89.4529 172.794 77.2102 172.906 73.342C172.854 72.9771 172.803 72.617 172.753 72.2613C172.141 67.9286 171.623 64.2498 168.915 60.4293L168.915 70.1154C167.676 68.1625 162.377 64.7807 160.18 63.6154C158.436 62.69 154.522 62.406 151.693 62.2925L151.693 62.2305L151.693 62.2305L151.64 62.2319C151.367 62.2395 151.062 62.2479 150.731 62.2583C150.4 62.2479 150.094 62.2394 149.821 62.2319L149.768 62.2304Z" fill="#292960"/>
<path fill-rule="evenodd" clip-rule="evenodd" d="M154.406 68.6846L145.108 68.4905C144.813 68.4825 144.523 68.5276 144.254 68.6237C143.985 68.7197 143.742 68.8645 143.54 69.0497C143.338 69.2349 143.181 69.4569 143.077 69.7027C142.973 69.9485 142.926 70.2132 142.936 70.4816L142.981 71.5414L142.936 72.6012C142.926 72.8696 142.973 73.1343 143.077 73.3801C143.181 73.6259 143.338 73.8478 143.54 74.033C143.742 74.2182 143.985 74.3631 144.254 74.4591C144.523 74.5551 144.813 74.6003 145.108 74.5923L154.406 74.3982C154.7 74.3934 154.994 74.3355 155.27 74.2276C155.546 74.1198 155.798 73.9642 156.013 73.77C156.227 73.5757 156.4 73.3467 156.52 73.096C156.64 72.8454 156.706 72.5781 156.713 72.3098L156.725 71.9153L156.748 71.9157L156.736 71.5414L156.748 71.1671L156.725 71.1675L156.713 70.773C156.706 70.5047 156.64 70.2374 156.52 69.9867C156.4 69.7361 156.227 69.507 156.013 69.3128C155.798 69.1185 155.546 68.963 155.27 68.8551C154.994 68.7473 154.7 68.6893 154.406 68.6846Z" fill="#E9D6B8"/>
<circle cx="177.043" cy="46.6515" r="14.0432" fill="#E9D6B8"/>
<path fill-rule="evenodd" clip-rule="evenodd" d="M144.932 42.7355C146.61 40.8173 151.118 38.1317 155.722 42.7355V47.0515C151.118 42.4478 146.61 45.1334 144.932 47.0516V47.0516H144.932V42.7355Z" fill="#999999"/>
<path fill-rule="evenodd" clip-rule="evenodd" d="M144.932 44.1742C146.61 42.2559 151.118 39.5704 155.722 44.1742V48.4902C151.118 43.8865 146.61 46.572 144.932 48.4903V48.4903H144.932V44.1742Z" fill="#666666"/>
<path d="M144.863 39.3514L134.86 34.4388V63.2125L144.863 56.8963C150.198 49.5976 147.086 42.1586 144.863 39.3514Z" fill="#666666"/>
<path d="M156.509 39.3514L166.512 34.4388V63.2125L156.509 56.8963C151.174 49.5976 154.286 42.1586 156.509 39.3514Z" fill="#666666"/>
<circle cx="129.106" cy="48.8256" r="15.8255" fill="#333333"/>
<circle cx="129.106" cy="48.8257" r="12.5513" transform="rotate(180 129.106 48.8257)" fill="url(#paint0_linear_226_3573)"/>
<circle cx="172.266" cy="48.8256" r="15.8255" fill="#333333"/>
<circle cx="172.266" cy="48.8257" r="12.5513" transform="rotate(180 172.266 48.8257)" fill="url(#paint1_linear_226_3573)"/>
<path d="M259.407 122.833L254.315 127.716L249.416 123.096L248.831 123.679L235.585 137.16C235.842 137.423 236.149 137.632 236.487 137.776C236.826 137.921 237.189 137.997 237.557 138H271.072C271.441 137.997 271.804 137.921 272.143 137.776C272.481 137.632 272.788 137.423 273.045 137.16L260.028 123.498L259.407 122.833Z" fill="#E31587"/>
<path d="M249.633 123.528L235.796 110.583C235.297 111.102 235.013 111.79 235 112.508V135.468C235.002 135.832 235.078 136.192 235.222 136.527C235.365 136.861 235.574 137.164 235.837 137.417L249.048 124.128L249.633 123.528ZM273.49 111.75C273.337 111.302 273.071 110.9 272.718 110.583L258.998 123.358L259.583 123.988L272.77 137.405C273.033 137.153 273.241 136.852 273.384 136.518C273.527 136.184 273.601 135.825 273.601 135.463V112.602C273.611 112.314 273.574 112.026 273.49 111.75Z" fill="#FF298A"/>
<path d="M249.463 123.598L254.374 128.083L259.472 123.353L273.045 110.764C272.539 110.277 271.864 110.003 271.16 110H237.581C237.209 110 236.84 110.074 236.497 110.218C236.155 110.363 235.844 110.574 235.585 110.84L249.463 123.598Z" fill="#FF9AA2"/>
<defs>
<filter id="filter0_f_226_3573" x="220" y="50" width="17.5391" height="13.2685" filterUnits="userSpaceOnUse" color-interpolation-filters="sRGB">
<feFlood flood-opacity="0" result="BackgroundImageFix"/>
<feBlend mode="normal" in="SourceGraphic" in2="BackgroundImageFix" result="shape"/>
<feGaussianBlur stdDeviation="1" result="effect1_foregroundBlur_226_3573"/>
</filter>
<filter id="filter1_f_226_3573" x="84" y="23" width="18" height="13.9279" filterUnits="userSpaceOnUse" color-interpolation-filters="sRGB">
<feFlood flood-opacity="0" result="BackgroundImageFix"/>
<feBlend mode="normal" in="SourceGraphic" in2="BackgroundImageFix" result="shape"/>
<feGaussianBlur stdDeviation="1" result="effect1_foregroundBlur_226_3573"/>
</filter>
<linearGradient id="paint0_linear_226_3573" x1="129.106" y1="36.2744" x2="129.106" y2="61.377" gradientUnits="userSpaceOnUse">
<stop offset="0.484375" stop-color="#F7E2FF"/>
<stop offset="1" stop-color="#AB71FF"/>
</linearGradient>
<linearGradient id="paint1_linear_226_3573" x1="172.266" y1="36.2744" x2="172.266" y2="61.377" gradientUnits="userSpaceOnUse">
<stop offset="0.484375" stop-color="#F7E2FF"/>
<stop offset="1" stop-color="#AB71FF"/>
</linearGradient>
</defs>
</svg>
