<svg width="50" height="50" viewBox="0 0 50 50" fill="none" xmlns="http://www.w3.org/2000/svg">
<mask id="mask0_1_274" style="mask-type:alpha" maskUnits="userSpaceOnUse" x="0" y="0" width="50" height="50">
<rect width="50" height="50" rx="4" fill="#F770FF"/>
</mask>
<g mask="url(#mask0_1_274)">
<rect width="50" height="50" fill="#F770FF"/>
<rect x="12.4577" y="15.286" width="5.10219" height="5.61241" transform="rotate(46.7767 12.4577 15.286)" fill="#E9D6B8"/>
<rect width="5.10219" height="5.61241" transform="matrix(-0.684843 0.728691 0.728691 0.684843 37.8834 15.286)" fill="#E9D6B8"/>
<path d="M11.0815 36.5955C11.0815 33.2817 13.7678 30.5955 17.0815 30.5955H34.0554C36.8168 30.5955 39.0554 32.834 39.0554 35.5955V56.5423H11.0815V36.5955Z" fill="white"/>
<circle cx="24.9499" cy="30.3374" r="3.82664" fill="#E9D6B8"/>
<path d="M48.4201 32.8885L33.3687 30.5925V41.5622L51.2263 40.5418C63.0634 38.0928 60.4103 32.8885 57.6041 30.5925L40.0015 17.3268L36.43 21.1535L48.4201 32.8885Z" fill="white"/>
<path d="M1.57922 33.1437L16.6307 30.8477V41.8174L-1.22699 40.7969C-13.0641 38.3479 -10.4109 33.1437 -7.60473 30.8477L9.99783 17.582L13.5694 21.4086L1.57922 33.1437Z" fill="white"/>
<circle cx="15.0912" cy="15.0309" r="4.84708" fill="#E9D6B8"/>
<path d="M18.4256 23.1226C18.4389 23.6773 18.672 24.2041 19.0737 24.5873C19.4754 24.9705 20.0128 25.1788 20.5679 25.1664L29.9804 24.951C30.2573 24.9515 30.5315 24.8958 30.7861 24.7872C31.0408 24.6786 31.2707 24.5194 31.4619 24.3193C31.6531 24.1192 31.8016 23.8823 31.8984 23.6231C31.9951 23.3638 32.0382 23.0876 32.0249 22.8112L31.7105 8.87537C31.6972 8.32068 31.4641 7.79382 31.0624 7.41059C30.6607 7.02736 30.1233 6.81911 29.5682 6.83152L20.1458 7.04442C19.8688 7.04393 19.5947 7.09967 19.34 7.20827C19.0853 7.31687 18.8554 7.47606 18.6642 7.67617C18.473 7.87629 18.3245 8.11313 18.2277 8.37238C18.131 8.63162 18.0879 8.90782 18.1013 9.18423L18.4256 23.1226Z" fill="#E9D6B8"/>
<path d="M18.1599 12.0525C17.5175 11.4305 16.9873 10.7025 16.5928 9.90038C16.5676 9.38912 16.6711 8.87971 16.8936 8.41876C17.1162 7.95781 17.4508 7.56002 17.8669 7.26164C18.9012 6.62643 19.79 7.74472 19.79 7.74472C19.79 7.74472 18.1432 8.72092 18.066 9.07007C17.9888 9.41922 18.1599 12.0525 18.1599 12.0525Z" fill="#292960"/>
<path d="M32.8166 15.1239C32.8166 15.1239 34.1675 9.74573 33.8145 8.17239C33.4615 6.59905 33.3211 5.52138 31.3531 5.38501C28.4728 5.18799 28.4574 5.79482 27.0452 4.95573C25.633 4.11664 23.0693 2.07222 22.1994 1.88529C21.756 1.74845 21.2862 1.72096 20.8299 1.80518C20.3737 1.88939 19.9448 2.08277 19.5798 2.36883C19.2148 2.65489 18.9246 3.02514 18.7341 3.44778C18.5436 3.87043 18.4584 4.3329 18.4859 4.79571C18.5147 5.29542 18.4172 5.79434 18.2024 6.2464C17.9875 6.69847 17.6622 7.08916 17.2565 7.3825C17.3727 7.63283 17.908 7.85156 18.8223 8.28129C21.471 9.52576 23.0474 9.75326 25.0434 9.19117C27.0394 8.62907 30.7612 7.4054 31.216 8.86741C31.6708 10.3294 31.6146 14.8746 31.8001 15.2266C31.9857 15.5786 32.4643 15.3934 32.8166 15.1239Z" fill="#292960"/>
<path d="M29.946 19.3728C29.9473 19.4647 29.9669 19.5554 30.0036 19.6397C30.0402 19.724 30.0933 19.8003 30.1596 19.8639C30.226 19.9276 30.3043 19.9775 30.3901 20.0107C30.4759 20.0439 30.5674 20.0598 30.6593 20.0574L32.6945 20.0105C32.7858 20.008 32.8758 19.9875 32.9592 19.9501C33.0426 19.9128 33.1177 19.8594 33.1804 19.793C33.2431 19.7266 33.2921 19.6485 33.3245 19.5631C33.3569 19.4778 33.3722 19.3869 33.3694 19.2956L33.2514 15.5701C33.2441 15.3841 33.1644 15.2082 33.0294 15.0799C32.8943 14.9516 32.7145 14.8809 32.5282 14.883L30.493 14.9298C30.4016 14.9324 30.3117 14.953 30.2284 14.9903C30.145 15.0276 30.0698 15.081 30.0071 15.1474C29.9444 15.2138 29.8954 15.292 29.863 15.3773C29.8305 15.4626 29.8153 15.5536 29.8181 15.6448L29.946 19.3728Z" fill="#E9D6B8"/>
<path d="M17.8018 19.6489C17.8071 19.8336 17.8849 20.0089 18.0183 20.1369C18.1517 20.265 18.3301 20.3355 18.515 20.3334L20.5503 20.2866C20.7351 20.2814 20.9105 20.2038 21.0386 20.0705C21.1667 19.9372 21.2373 19.759 21.2351 19.5741L21.1195 15.8388C21.1169 15.7475 21.0963 15.6576 21.0589 15.5743C21.0215 15.4909 20.9681 15.4158 20.9016 15.3531C20.8351 15.2905 20.7569 15.2415 20.6715 15.2091C20.5861 15.1766 20.495 15.1613 20.4037 15.1641L18.3685 15.2109C18.2772 15.2135 18.1873 15.234 18.1039 15.2713C18.0205 15.3086 17.9454 15.3621 17.8827 15.4285C17.82 15.4949 17.771 15.573 17.7386 15.6583C17.7062 15.7437 17.6909 15.8346 17.6937 15.9258L17.8018 19.6489Z" fill="#E9D6B8"/>
<path fill-rule="evenodd" clip-rule="evenodd" d="M24.7161 20.408L24.7154 20.408L24.7154 20.4295C23.7392 20.4687 22.3892 20.5668 21.7874 20.8861C21.0291 21.2883 19.2001 22.4555 18.7725 23.1296L18.7725 19.7864C17.8381 21.1051 17.659 22.3748 17.448 23.8702L17.448 23.8703C17.4307 23.993 17.4132 24.1173 17.395 24.2433C17.4337 25.5784 18.1844 29.804 24.5826 29.6875C24.7404 29.6844 24.8959 29.6803 25.0489 29.6755C25.2018 29.6803 25.357 29.6843 25.5147 29.6875C31.9129 29.804 32.6635 25.5784 32.7023 24.2433C32.6841 24.1173 32.6665 23.993 32.6492 23.8702C32.4383 22.3748 32.2592 21.105 31.3248 19.7864L31.3248 23.1296C30.8972 22.4555 29.0682 21.2883 28.3099 20.8861C27.708 20.5668 26.3581 20.4687 25.3819 20.4295L25.3819 20.408L25.3812 20.408L25.3629 20.4086C25.2687 20.4112 25.1632 20.4141 25.0489 20.4177C24.9344 20.4141 24.8287 20.4111 24.7344 20.4085L24.7344 20.4085L24.7161 20.408Z" fill="#292960"/>
<path fill-rule="evenodd" clip-rule="evenodd" d="M26.3163 22.6357L23.107 22.5687C23.0053 22.5659 22.9052 22.5815 22.8123 22.6147C22.7194 22.6478 22.6356 22.6978 22.5659 22.7617C22.4962 22.8257 22.4419 22.9023 22.4061 22.9871C22.3703 23.0719 22.3538 23.1633 22.3575 23.2559L22.3731 23.6217L22.3575 23.9875C22.3538 24.0802 22.3703 24.1715 22.4061 24.2564C22.4419 24.3412 22.4962 24.4178 22.5659 24.4817C22.6356 24.5457 22.7194 24.5957 22.8123 24.6288C22.9052 24.6619 23.0053 24.6775 23.107 24.6748L26.3163 24.6078C26.4179 24.6061 26.5193 24.5861 26.6145 24.5489C26.7097 24.5117 26.7969 24.458 26.8709 24.3909C26.945 24.3239 27.0045 24.2448 27.046 24.1583C27.0875 24.0718 27.1101 23.9796 27.1125 23.887L27.1167 23.7508L27.1246 23.7509L27.1206 23.6217L27.1246 23.4925L27.1167 23.4927L27.1125 23.3565C27.1101 23.2639 27.0875 23.1717 27.046 23.0852C27.0045 22.9986 26.945 22.9196 26.8709 22.8525C26.7969 22.7855 26.7097 22.7318 26.6145 22.6946C26.5193 22.6573 26.4179 22.6373 26.3163 22.6357Z" fill="#E9D6B8"/>
<circle cx="34.1283" cy="15.0309" r="4.84708" fill="#E9D6B8"/>
<path fill-rule="evenodd" clip-rule="evenodd" d="M23.0444 13.6793C23.6237 13.0172 25.1796 12.0902 26.7686 13.6793V15.169H26.7686C25.1796 13.58 23.6237 14.5069 23.0444 15.169H23.0444V13.6793Z" fill="#999999"/>
<path fill-rule="evenodd" clip-rule="evenodd" d="M23.0444 14.1758C23.6237 13.5138 25.1796 12.5868 26.7686 14.1758V15.6656H26.7686C25.1796 14.0766 23.6237 15.0035 23.0444 15.6656H23.0444V14.1758Z" fill="#666666"/>
<path d="M23.0217 12.5112L19.5693 10.8156V20.747L23.0217 18.5669C24.863 16.0478 23.7889 13.4801 23.0217 12.5112Z" fill="#666666"/>
<path d="M27.0402 12.5112L30.4927 10.8156V20.747L27.0402 18.5669C25.1989 16.0478 26.273 13.4801 27.0402 12.5112Z" fill="#666666"/>
<circle cx="17.5824" cy="15.7813" r="5.46226" fill="#333333"/>
<circle cx="17.5825" cy="15.7813" r="4.33214" transform="rotate(180 17.5825 15.7813)" fill="url(#paint0_linear_1_274)"/>
<circle cx="32.4787" cy="15.7813" r="5.46226" fill="#333333"/>
<circle cx="32.4788" cy="15.7813" r="4.33214" transform="rotate(180 32.4788 15.7813)" fill="url(#paint1_linear_1_274)"/>
</g>
<defs>
<linearGradient id="paint0_linear_1_274" x1="17.5825" y1="11.4491" x2="17.5825" y2="20.1134" gradientUnits="userSpaceOnUse">
<stop offset="0.484375" stop-color="#F7E2FF"/>
<stop offset="1" stop-color="#AB71FF"/>
</linearGradient>
<linearGradient id="paint1_linear_1_274" x1="32.4788" y1="11.4491" x2="32.4788" y2="20.1134" gradientUnits="userSpaceOnUse">
<stop offset="0.484375" stop-color="#F7E2FF"/>
<stop offset="1" stop-color="#AB71FF"/>
</linearGradient>
</defs>
</svg>
