<svg width="171" height="160" viewBox="0 0 171 160" fill="none" xmlns="http://www.w3.org/2000/svg">
<path d="M37.5826 105.22C38.068 104.992 38.4418 104.581 38.6222 104.076C38.8027 103.572 38.775 103.015 38.5452 102.529C33.3637 91.8523 31.9736 79.753 34.6041 68.2263C37.2347 56.6995 43.7288 46.4336 53.0157 39.1214C53.2326 38.96 53.4147 38.7568 53.5512 38.5236C53.6877 38.2904 53.7759 38.0321 53.8106 37.7638C53.8453 37.4955 53.8258 37.2227 53.7532 36.9615C53.6806 36.7002 53.5564 36.4559 53.3879 36.2427C53.2194 36.0296 53.0101 35.852 52.7722 35.7205C52.5343 35.589 52.2727 35.5061 52.0028 35.4769C51.733 35.4476 51.4602 35.4726 51.2008 35.5502C50.9413 35.6278 50.7003 35.7566 50.492 35.9289C40.4789 43.8064 33.4744 54.8686 30.6335 67.2915C27.7926 79.7145 29.2849 92.7565 34.8644 104.267C34.981 104.507 35.1439 104.723 35.3436 104.901C35.5434 105.079 35.7761 105.216 36.0286 105.305C36.281 105.393 36.5482 105.431 36.8149 105.417C37.0815 105.402 37.3424 105.336 37.5826 105.22V105.22Z" fill="#CB9EFF"/>
<path d="M56.7446 31.6758C56.2929 31.9531 55.9691 32.3966 55.8426 32.9112C55.7161 33.4258 55.797 33.9705 56.068 34.4285C56.339 34.8865 56.7784 35.2213 57.2921 35.3612C57.8058 35.501 58.3529 35.4348 58.8159 35.1766C67.9696 29.8102 78.5643 27.3728 89.1802 28.1911C89.7042 28.2092 90.2138 28.0246 90.6026 27.6758C90.9914 27.327 91.2292 26.8411 91.2664 26.3196C91.3036 25.798 91.1373 25.2811 90.8023 24.8769C90.4672 24.4727 89.9893 24.2124 89.4684 24.1504C78.028 23.2688 66.6104 25.8944 56.7446 31.6758V31.6758Z" fill="#CB9EFF"/>
<path d="M26.5585 87.5021C26.8293 87.1047 26.949 86.6233 26.8961 86.1441C25.42 73.2198 28.3221 60.1989 35.1393 49.1591C35.4207 48.7012 35.5076 48.1495 35.381 47.6253C35.2543 47.1012 34.9245 46.6475 34.464 46.3642C34.0034 46.0808 33.45 45.991 32.9254 46.1144C32.4008 46.2378 31.948 46.5644 31.6666 47.0223C24.3776 58.8261 21.2751 72.7483 22.8544 86.567C22.9 86.9799 23.0714 87.3695 23.3454 87.6834C23.6194 87.9973 23.9829 88.2203 24.3868 88.3222C24.7906 88.4242 25.2154 88.4002 25.6038 88.2535C25.9921 88.1069 26.3253 87.8446 26.5585 87.5021V87.5021Z" fill="#CB9EFF"/>
<path d="M36.3685 43.6527C36.5781 43.8188 36.8183 43.9423 37.0752 44.0161C37.3322 44.0899 37.6009 44.1125 37.866 44.0828C38.1311 44.053 38.3875 43.9713 38.6204 43.8425C38.8534 43.7136 39.0583 43.5401 39.2236 43.3319C46.9517 33.5856 57.6214 26.5852 69.6667 23.358C69.924 23.2883 70.1647 23.1686 70.3751 23.0058C70.5855 22.843 70.7614 22.6403 70.8929 22.4091C71.0244 22.178 71.1089 21.9231 71.1414 21.6588C71.174 21.3946 71.154 21.1263 71.0827 20.8692C71.0113 20.6121 70.89 20.3712 70.7257 20.1603C70.5613 19.9495 70.3571 19.7727 70.1247 19.6402C69.8924 19.5077 69.6364 19.4221 69.3714 19.3881C69.1064 19.3541 68.8375 19.3725 68.5802 19.4422C55.7036 22.8939 44.2974 30.3778 36.0347 40.7965C35.8683 41.0046 35.7449 41.2437 35.6716 41.5001C35.5983 41.7564 35.5765 42.025 35.6075 42.2904C35.6386 42.5557 35.7217 42.8127 35.8523 43.0465C35.9829 43.2802 36.1583 43.4862 36.3685 43.6527V43.6527Z" fill="#CB9EFF"/>
<path d="M20.186 72.168C21.3941 61.7037 25.1175 51.6993 31.0399 43.0046C36.9622 34.3099 44.9085 27.1818 54.2036 22.226C54.6785 21.9734 55.0322 21.5425 55.1871 21.0279C55.342 20.5133 55.2853 19.9573 55.0295 19.4821C54.7737 19.0069 54.3398 18.6515 53.8232 18.494C53.3066 18.3366 52.7496 18.39 52.2748 18.6425C42.4029 23.9066 33.9636 31.4773 27.6737 40.7117C21.3837 49.9461 17.4289 60.5714 16.1452 71.6852C16.084 72.2195 16.2383 72.7573 16.5739 73.1804C16.9096 73.6035 17.3992 73.8772 17.9351 73.9412C18.4709 74.0052 19.0091 73.8543 19.4312 73.5218C19.8534 73.1893 20.1249 72.7023 20.186 72.168V72.168Z" fill="#CB9EFF"/>
<path d="M127.686 130.693C114.729 135.935 100.556 137.509 86.7197 135.241C86.1871 135.154 85.6428 135.281 85.2065 135.595C84.7703 135.908 84.4778 136.383 84.3933 136.914C84.3089 137.445 84.4395 137.989 84.7564 138.426C85.0733 138.863 85.5505 139.157 86.0831 139.245C100.657 141.63 115.585 139.972 129.233 134.453C129.722 134.245 130.109 133.853 130.31 133.361C130.511 132.87 130.51 132.318 130.307 131.825C130.104 131.332 129.716 130.937 129.226 130.726C128.736 130.514 128.183 130.502 127.686 130.693V130.693Z" fill="#CB9EFF"/>
<path d="M145.081 76.0893C144.898 76.6542 144.695 77.23 144.482 77.7955C142.035 84.3197 138.214 90.2379 133.275 95.1523C132.894 95.531 132.681 96.046 132.681 96.5841C132.682 97.1222 132.896 97.6393 133.278 98.0216C133.66 98.4039 134.177 98.6202 134.716 98.6227C135.256 98.6253 135.773 98.414 136.154 98.0353C141.503 92.7106 145.641 86.2992 148.292 79.2316C148.522 78.6167 148.73 77.9865 148.944 77.3817C149.113 76.8715 149.072 76.3142 148.829 75.8322C148.586 75.3503 148.162 74.9833 147.65 74.8119C147.137 74.6405 146.579 74.6788 146.097 74.9184C145.616 75.1579 145.25 75.5791 145.081 76.0893Z" fill="#CB9EFF"/>
<path d="M130.765 102.563C131.035 102.168 131.155 101.69 131.105 101.214C131.055 100.737 130.837 100.293 130.491 99.9591C130.145 99.6254 129.692 99.4242 129.213 99.3909C128.734 99.3577 128.259 99.4946 127.874 99.7775C120.79 104.973 112.422 108.158 103.652 108.996C103.115 109.049 102.622 109.313 102.282 109.729C101.942 110.146 101.782 110.682 101.839 111.218C101.895 111.754 102.162 112.247 102.582 112.589C103.001 112.931 103.539 113.093 104.076 113.04C113.572 112.136 122.634 108.69 130.304 103.065C130.485 102.925 130.641 102.756 130.765 102.563V102.563Z" fill="#CB9EFF"/>
<path d="M98.2362 112.328C98.4466 112.017 98.5672 111.655 98.5848 111.279C98.5979 111.013 98.5581 110.746 98.4677 110.494C98.3774 110.243 98.2382 110.011 98.0582 109.813C97.8783 109.614 97.661 109.453 97.4189 109.338C97.1768 109.223 96.9147 109.157 96.6475 109.143C88.0404 108.732 79.6842 106.048 72.4337 101.365C71.98 101.072 71.4291 100.97 70.9022 101.081C70.3753 101.193 69.9155 101.509 69.6241 101.96C69.3326 102.411 69.2334 102.96 69.3481 103.487C69.4628 104.013 69.7822 104.473 70.2359 104.767C78.0944 109.841 87.1504 112.75 96.4785 113.196C96.822 113.212 97.1634 113.14 97.4708 112.989C97.7782 112.837 98.0416 112.609 98.2362 112.328V112.328Z" fill="#CB9EFF"/>
<path d="M99.8802 61.319C99.6787 61.6148 99.3673 61.818 99.0143 61.8838C98.6614 61.9496 98.296 61.8727 97.9984 61.67C94.3035 59.1398 89.9376 57.7728 85.4681 57.7466C80.9985 57.7204 76.632 59.0361 72.936 61.5229C72.7145 61.6707 72.5247 61.8607 72.3772 62.0821C72.2298 62.3034 72.1276 62.5519 72.0766 62.8132C72.0256 63.0745 72.0268 63.3435 72.08 63.605C72.1332 63.8664 72.2375 64.1151 72.3868 64.3369C72.5361 64.5587 72.7276 64.7492 72.9503 64.8976C73.173 65.046 73.4226 65.1493 73.6848 65.2016C73.9469 65.254 74.2166 65.2544 74.4783 65.2027C74.7401 65.1511 74.9888 65.0485 75.2102 64.9008C78.234 62.8645 81.807 61.7865 85.4647 61.807C89.1224 61.8276 92.6954 62.9457 95.7193 65.016C96.9097 65.8269 98.3715 66.1345 99.7831 65.8712C101.195 65.6078 102.441 64.7952 103.247 63.612C104.053 62.4287 104.353 60.9719 104.081 59.5619C103.809 58.1518 102.987 56.9042 101.797 56.0933C95.8796 52.0714 88.7001 50.3496 81.6221 51.2551C74.5442 52.1605 68.0606 55.6301 63.4029 61.0048C58.7452 66.3795 56.2377 73.2851 56.3567 80.4099C56.4757 87.5348 59.2129 94.3826 64.0484 99.6529C64.4173 100.037 64.9212 100.262 65.4523 100.28C65.9834 100.299 66.4995 100.109 66.89 99.7516C67.2805 99.3943 67.5143 98.8978 67.5415 98.3685C67.5687 97.8392 67.387 97.3191 67.0354 96.9197C62.875 92.3846 60.52 86.4923 60.4179 80.3617C60.3158 74.2311 62.4736 68.2893 66.4814 63.6648C70.4893 59.0402 76.0682 56.0549 82.1584 55.276C88.2487 54.497 94.4262 55.9786 99.5178 59.4393C99.8154 59.642 100.021 59.954 100.089 60.3065C100.157 60.659 100.082 61.0232 99.8802 61.319Z" fill="#CB9EFF"/>
<path d="M114 99.678C107.664 102.102 100.826 102.955 94.0697 102.163C87.3137 101.371 80.8415 98.9579 75.2074 95.1304C71.1941 92.3903 68.4251 88.1798 67.5079 83.4226C66.5907 78.6654 67.6001 73.7501 70.3148 69.755L70.5199 69.4539C70.8311 69.0163 70.9546 68.4722 70.8632 67.9415C70.7718 67.4108 70.4731 66.9368 70.0328 66.6239C69.5924 66.3109 69.0465 66.1846 68.5151 66.2728C67.9836 66.361 67.5103 66.6564 67.1991 67.094L66.9484 67.462C63.6302 72.3448 62.3962 78.3525 63.5173 84.167C64.6384 89.9814 68.0229 95.1276 72.9283 98.4765C79.1073 102.676 86.2059 105.324 93.6161 106.194C101.026 107.064 108.527 106.13 115.477 103.472C115.98 103.28 116.384 102.897 116.602 102.406C116.819 101.914 116.831 101.356 116.636 100.854C116.441 100.351 116.054 99.945 115.561 99.7253C115.067 99.5056 114.508 99.4899 114.005 99.6818L114 99.678Z" fill="#CB9EFF"/>
<path d="M140.373 66.4746C139.52 72.7036 137.271 78.653 133.791 83.8808C130.312 89.1086 125.693 93.4805 120.277 96.6718C119.824 96.9493 119.5 97.3936 119.374 97.9091C119.247 98.4245 119.329 98.97 119.601 99.4281C119.874 99.8863 120.315 100.221 120.83 100.359C121.344 100.498 121.892 100.429 122.355 100.169C128.164 96.7645 133.136 92.11 136.91 86.5421C140.891 80.714 143.457 74.0363 144.407 67.0341C144.479 66.5013 144.336 65.9606 144.009 65.5308C143.682 65.1011 143.198 64.8176 142.664 64.7426C142.129 64.6677 141.588 64.8075 141.159 65.1312C140.73 65.455 140.449 65.9362 140.377 66.469L140.373 66.4746Z" fill="#CB9EFF"/>
<path d="M147.515 87.4145C146.144 89.9001 144.587 92.2778 142.855 94.5271C138.915 99.6506 134.094 104.034 128.615 107.475C128.38 107.611 128.176 107.794 128.014 108.012C127.852 108.23 127.736 108.478 127.672 108.742C127.608 109.006 127.599 109.28 127.643 109.549C127.688 109.817 127.786 110.074 127.932 110.304C128.079 110.535 128.269 110.734 128.494 110.889C128.718 111.045 128.971 111.154 129.238 111.211C129.505 111.267 129.78 111.27 130.047 111.218C130.314 111.166 130.568 111.061 130.793 110.909C136.676 107.217 141.853 102.512 146.083 97.0114C146.789 96.096 147.478 95.1448 148.131 94.1856C149.187 92.6353 150.179 91.0166 151.079 89.3809C151.218 89.1475 151.308 88.8884 151.344 88.619C151.38 88.3496 151.362 88.0754 151.29 87.8127C151.218 87.55 151.093 87.3041 150.924 87.0898C150.755 86.8755 150.545 86.697 150.306 86.5651C150.066 86.4331 149.803 86.3504 149.532 86.3218C149.261 86.2931 148.987 86.3192 148.726 86.3985C148.466 86.4777 148.225 86.6085 148.017 86.7831C147.809 86.9576 147.638 87.1723 147.515 87.4145V87.4145Z" fill="#CB9EFF"/>
<path d="M124.185 114.49C124.657 114.255 125.017 113.844 125.189 113.347C125.361 112.849 125.331 112.303 125.106 111.824C124.882 111.345 124.479 110.972 123.985 110.783C123.49 110.594 122.942 110.604 122.457 110.811C112.611 115.382 101.624 116.97 90.8493 115.378C90.5849 115.339 90.3157 115.352 90.0571 115.417C89.7985 115.481 89.5554 115.596 89.3419 115.755C89.1283 115.914 88.9484 116.113 88.8124 116.342C88.6765 116.57 88.5871 116.824 88.5494 117.087C88.5118 117.351 88.5265 117.619 88.5929 117.878C88.6592 118.136 88.7759 118.379 88.9362 118.593C89.0965 118.807 89.2972 118.988 89.5271 119.125C89.7569 119.262 90.0112 119.352 90.2756 119.391C101.835 121.099 113.623 119.395 124.185 114.49V114.49Z" fill="#CB9EFF"/>
<path d="M85.0799 117.004C85.2045 116.822 85.2974 116.621 85.3547 116.408C85.4985 115.89 85.4301 115.336 85.1646 114.866C84.899 114.397 84.4581 114.051 83.9387 113.904C78.1202 112.268 72.6041 109.694 67.6094 106.284C61.2723 101.961 56.6976 95.5119 54.7251 88.1194C54.663 87.8546 54.5483 87.6047 54.3877 87.3844C54.2272 87.1642 54.0242 86.9781 53.7907 86.8372C53.5572 86.6963 53.298 86.6035 53.0284 86.5642C52.7588 86.525 52.4844 86.5401 52.2214 86.6088C51.9585 86.6774 51.7123 86.7981 51.4975 86.9637C51.2827 87.1293 51.1036 87.3365 50.971 87.5729C50.8384 87.8094 50.7549 88.0702 50.7254 88.3401C50.6959 88.6099 50.7211 88.8832 50.7994 89.1438C53.0236 97.4812 58.183 104.755 65.3303 109.63C70.6908 113.291 76.6113 116.053 82.8565 117.808C83.2661 117.924 83.701 117.908 84.0998 117.764C84.4986 117.619 84.8413 117.354 85.0799 117.004Z" fill="#CB9EFF"/>
<path d="M51.7293 83.457C51.996 83.446 52.2576 83.3827 52.4992 83.2706C52.7407 83.1586 52.9576 83 53.1372 82.8039C53.3169 82.6079 53.4559 82.3783 53.5463 82.1281C53.6367 81.878 53.6767 81.6122 53.6641 81.346C53.3256 74.5042 55.2319 67.7514 59.0938 62.1118C61.9381 57.958 65.7328 54.5421 70.1666 52.1445C74.6004 49.7468 79.5469 48.4357 84.5999 48.3189C84.872 48.321 85.1415 48.2686 85.3923 48.1648C85.6432 48.061 85.8703 47.9079 86.0602 47.7145C86.2502 47.5212 86.399 47.2915 86.498 47.0391C86.597 46.7868 86.6441 46.5169 86.6364 46.2454C86.6288 45.974 86.5666 45.7065 86.4536 45.4589C86.3406 45.2112 86.179 44.9885 85.9785 44.8039C85.7779 44.6192 85.5425 44.4764 85.2861 44.3839C85.0298 44.2914 84.7577 44.2512 84.486 44.2655C78.7883 44.3965 73.2107 45.8746 68.2114 48.5784C63.212 51.2822 58.9336 55.1345 55.7275 59.8188C51.3713 66.1801 49.221 73.7971 49.6026 81.5146C49.6152 81.7807 49.6802 82.0421 49.7938 82.2838C49.9075 82.5255 50.0677 82.7427 50.2652 82.9231C50.4626 83.1035 50.6936 83.2435 50.9448 83.3351C51.196 83.4267 51.4626 83.4682 51.7293 83.457V83.457Z" fill="#CB9EFF"/>
<path d="M108.201 56.3376C108.418 56.1834 108.602 55.9879 108.743 55.7622C108.884 55.5365 108.979 55.285 109.022 55.0222C109.066 54.7593 109.057 54.4902 108.995 54.2303C108.934 53.9704 108.823 53.7248 108.667 53.5075C107.83 52.3415 106.794 51.3316 105.606 50.5246C101.571 47.7661 97.0159 45.8611 92.2229 44.9276C91.7059 44.8531 91.1811 44.9797 90.7573 45.2812C90.3334 45.5827 90.0429 46.036 89.946 46.5471C89.8491 47.0583 89.9532 47.5882 90.2367 48.027C90.5203 48.4658 90.9615 48.78 91.469 48.9044C95.712 49.7322 99.7441 51.4199 103.316 53.863C104.106 54.4004 104.795 55.0729 105.351 55.8493C105.506 56.069 105.703 56.2561 105.931 56.3998C106.158 56.5434 106.412 56.6407 106.677 56.6861C106.942 56.7315 107.213 56.7241 107.475 56.6643C107.736 56.6044 107.983 56.4934 108.201 56.3376Z" fill="#CB9EFF"/>
<path d="M133.906 58.58C133.953 59.3306 133.98 60.0875 133.977 60.8328C133.979 67.8324 131.873 74.6591 127.932 80.4277C123.872 86.3551 118.086 90.8925 111.349 93.4319C104.613 95.9713 97.2481 96.3915 90.2414 94.6362C86.2289 93.6138 82.4249 91.8934 79.0047 89.5541C76.475 87.831 74.7294 85.1797 74.1516 82.1834C73.5739 79.1872 74.2115 76.0913 75.9241 73.577C77.6368 71.0626 80.2842 69.3357 83.2839 68.7762C86.2836 68.2166 89.39 68.8703 91.9197 70.5934C93.6759 71.7888 95.7115 72.5084 97.8257 72.6813C99.94 72.8542 102.06 72.4744 103.976 71.5793C105.892 70.6842 107.539 69.3047 108.753 67.5771C109.967 65.8494 110.707 63.8332 110.899 61.7274C110.948 61.1919 110.781 60.658 110.435 60.2432C110.09 59.8283 109.594 59.5665 109.057 59.5152C108.52 59.464 107.986 59.6276 107.572 59.97C107.158 60.3124 106.899 60.8056 106.85 61.341C106.721 62.744 106.227 64.0871 105.418 65.2379C104.609 66.3887 103.512 67.3076 102.235 67.904C100.958 68.5003 99.546 68.7536 98.1373 68.6388C96.7286 68.524 95.3721 68.0451 94.2016 67.2493C90.7791 64.9181 86.5764 64.0337 82.5179 64.7907C78.4594 65.5478 74.8777 67.8841 72.5606 71.2859C70.2435 74.6877 69.3809 78.8762 70.1625 82.93C70.9441 86.9838 73.3059 90.5708 76.7284 92.902C78.3822 94.0319 80.1179 95.0368 81.921 95.9083C87.9049 98.7693 94.5077 100.08 101.116 99.7173C107.725 99.355 114.126 97.332 119.724 93.8361C125.322 90.3403 129.936 85.4848 133.138 79.7205C136.339 73.9562 138.025 67.47 138.038 60.864C138.034 60.0446 138.011 59.1921 137.957 58.3598C137.924 57.8225 137.677 57.3195 137.273 56.9613C136.868 56.6031 136.339 56.4191 135.8 56.4498C135.262 56.4804 134.759 56.7233 134.403 57.1249C134.046 57.5265 133.864 58.0539 133.898 58.5912L133.906 58.58Z" fill="#CB9EFF"/>
<path d="M124.319 57.6978C123.607 51.6483 120.768 46.035 116.308 41.8566C115.913 41.4881 115.389 41.2903 114.85 41.3068C114.311 41.3233 113.802 41.5528 113.435 41.9447C113.068 42.3366 112.872 42.8588 112.892 43.3966C112.912 43.9343 113.144 44.4435 113.539 44.812C117.532 48.5487 119.973 53.6426 120.376 59.0765C120.779 64.5105 119.114 69.8845 115.712 74.1255C112.311 78.3665 107.425 81.1624 102.029 81.9548C96.6329 82.7472 91.1243 81.4779 86.6033 78.4002C86.1569 78.0961 85.6087 77.9808 85.0793 78.0795C84.55 78.1783 84.0828 78.483 83.7805 78.9267C83.4783 79.3704 83.3658 79.9168 83.4677 80.4455C83.5697 80.9743 83.8778 81.4422 84.3242 81.7462C88.4081 84.5248 93.1991 86.0795 98.1278 86.2257C103.056 86.3718 107.916 85.1031 112.128 82.5704C116.34 80.0378 119.728 76.3476 121.889 71.9385C124.05 67.5293 124.893 62.5867 124.319 57.6978V57.6978Z" fill="#CB9EFF"/>
<path d="M74.369 31.9422C66.0191 33.8073 58.3105 37.8081 51.9989 43.5524C45.6873 49.2967 40.9893 56.5874 38.3656 64.7098C38.2008 65.2211 38.2468 65.778 38.4933 66.2579C38.7398 66.7377 39.1668 67.1013 39.6802 67.2686C40.1936 67.4359 40.7515 67.3932 41.2311 67.1499C41.7106 66.9067 42.0726 66.4827 42.2374 65.9714C43.5557 61.8861 45.4528 58.0128 47.8711 54.4686C61.0919 35.0589 87.4798 29.0756 107.944 40.8511C108.39 41.1074 108.915 41.1864 109.415 41.0724C109.914 40.9585 110.351 40.6599 110.638 40.2367C110.67 40.1959 110.699 40.1531 110.725 40.1085C110.858 39.8779 110.943 39.6233 110.977 39.3592C111.011 39.095 110.992 38.8266 110.922 38.5691C110.852 38.3116 110.731 38.0702 110.568 37.8586C110.404 37.647 110.201 37.4694 109.969 37.3359C99.1821 31.1296 86.4675 29.2032 74.369 31.9422V31.9422Z" fill="#CB9EFF"/>
<path d="M57.5176 118.207C57.5495 118.166 57.5787 118.123 57.605 118.079C57.8939 117.657 58.0118 117.141 57.9349 116.635C57.858 116.128 57.592 115.668 57.1904 115.347C50.9162 110.314 46.0788 103.722 43.1691 96.2397C40.2593 88.7576 39.3808 80.6517 40.6227 72.7448C40.6738 72.4775 40.6703 72.2025 40.6126 71.936C40.5548 71.6695 40.4439 71.417 40.2865 71.1937C40.1291 70.9703 39.9284 70.7806 39.6963 70.6359C39.4643 70.4912 39.2057 70.3944 38.936 70.3514C38.6662 70.3083 38.3909 70.3199 38.1263 70.3853C37.8617 70.4508 37.6134 70.5688 37.3961 70.7323C37.1788 70.8959 36.9969 71.1016 36.8614 71.3372C36.7259 71.5729 36.6396 71.8336 36.6074 72.1039C35.2562 80.7186 36.2144 89.5495 39.385 97.7009C42.5556 105.852 47.8257 113.034 54.6607 118.518C54.8698 118.685 55.1096 118.809 55.3664 118.884C55.6231 118.959 55.8919 118.982 56.1572 118.954C56.4225 118.925 56.6792 118.844 56.9126 118.716C57.1461 118.588 57.3516 118.415 57.5176 118.207V118.207Z" fill="#CB9EFF"/>
<path d="M101.799 132.662C102.007 132.356 102.127 131.997 102.146 131.626C102.164 131.255 102.079 130.885 101.901 130.558C101.723 130.23 101.459 129.957 101.137 129.769C100.815 129.58 100.448 129.483 100.076 129.488C87.0925 129.686 74.2978 126.212 63.1718 119.467C62.7093 119.187 62.1551 119.101 61.6312 119.227C61.1073 119.354 60.6565 119.684 60.3781 120.144C60.0997 120.604 60.0164 121.156 60.1466 121.68C60.2767 122.203 60.6097 122.655 61.0723 122.935C72.8547 130.074 86.4029 133.75 100.15 133.539C100.476 133.536 100.796 133.455 101.083 133.302C101.37 133.149 101.615 132.93 101.799 132.662V132.662Z" fill="#CB9EFF"/>
<path d="M141.189 115.23C131.316 122.81 119.557 127.573 107.158 129.016C106.879 129.029 106.606 129.1 106.356 129.223C106.106 129.346 105.885 129.519 105.706 129.732C105.526 129.945 105.393 130.192 105.314 130.459C105.236 130.726 105.213 131.006 105.248 131.283C105.282 131.56 105.374 131.827 105.516 132.067C105.659 132.308 105.849 132.516 106.076 132.681C106.302 132.845 106.56 132.961 106.833 133.022C107.106 133.082 107.388 133.086 107.662 133.034C120.791 131.506 133.242 126.462 143.696 118.436C144.103 118.101 144.362 117.62 144.419 117.095C144.475 116.57 144.324 116.043 143.997 115.626C143.671 115.208 143.195 114.934 142.671 114.86C142.146 114.786 141.615 114.919 141.189 115.23V115.23Z" fill="#CB9EFF"/>
<path d="M127.312 49.8909C127.057 49.967 126.819 50.0926 126.613 50.2606C126.407 50.4285 126.236 50.6356 126.11 50.87C125.984 51.1043 125.906 51.3613 125.88 51.6263C125.854 51.8913 125.881 52.1591 125.959 52.4143C126.907 55.5125 127.319 58.7463 127.179 61.9767C127.018 65.8876 126.038 69.7169 124.302 73.2184C124.069 73.6783 124.022 74.2105 124.169 74.7063C124.316 75.2021 124.647 75.6243 125.095 75.8867C125.542 76.1492 126.071 76.2321 126.576 76.1186C127.08 76.0051 127.521 75.7037 127.808 75.2759C127.861 75.1985 127.908 75.1173 127.949 75.033C129.935 71.0274 131.057 66.6469 131.242 62.1729C131.401 58.4839 130.93 54.7914 129.851 51.2527C129.773 50.9974 129.645 50.7597 129.476 50.5531C129.306 50.3465 129.097 50.175 128.861 50.0486C128.626 49.9221 128.367 49.8431 128.102 49.816C127.836 49.789 127.568 49.8144 127.312 49.8909Z" fill="#CB9EFF"/>
<path d="M81.5356 77.3985C82.2408 76.3632 83.3309 75.6521 84.5661 75.4217C85.8013 75.1913 87.0804 75.4605 88.122 76.17C91.044 78.1646 94.4636 79.3044 97.9921 79.46C98.5221 79.4701 99.034 79.2733 99.4186 78.9116C99.8031 78.5498 100.03 78.0516 100.051 77.5233C100.072 76.9949 99.8848 76.4782 99.53 76.0833C99.1752 75.6883 98.6807 75.4464 98.1517 75.4091C95.381 75.285 92.6962 74.3895 90.4011 72.824C88.4667 71.5063 86.0912 71.0065 83.7973 71.4344C81.5034 71.8622 79.4789 73.1828 78.1693 75.1055C76.8596 77.0283 76.372 79.3957 76.8138 81.687C77.2556 83.9782 78.5906 86.0057 80.525 87.3233C87.1918 91.8533 95.2892 93.7703 103.257 92.7048C111.224 91.6394 118.498 87.6668 123.676 81.5528L123.794 81.3799C123.954 81.1679 124.072 80.926 124.139 80.6683C124.206 80.4105 124.221 80.1417 124.184 79.8774C124.147 79.6131 124.058 79.3584 123.922 79.1279C123.787 78.8973 123.607 78.6954 123.393 78.5337C123.18 78.3719 122.937 78.2536 122.678 78.1853C122.419 78.117 122.15 78.1002 121.885 78.1358C121.621 78.1714 121.366 78.2587 121.136 78.3927C120.905 78.5267 120.704 78.7048 120.543 78.9169C116.031 84.288 109.668 87.7811 102.693 88.7164C95.7176 89.6518 88.6282 87.9625 82.8041 83.9773C81.7625 83.2678 81.0437 82.1761 80.8058 80.9424C80.5679 79.7086 80.8304 78.4338 81.5356 77.3985V77.3985Z" fill="#CB9EFF"/>
<path d="M104.443 74.3301C104.196 74.4299 103.971 74.5773 103.782 74.764C103.592 74.9508 103.442 75.1731 103.339 75.4183C103.236 75.6635 103.182 75.9269 103.181 76.1933C103.181 76.4597 103.232 76.724 103.334 76.971C103.435 77.218 103.584 77.443 103.772 77.6331C103.961 77.8231 104.184 77.9745 104.431 78.0786C104.677 78.1828 104.941 78.2376 105.208 78.2399C105.475 78.2423 105.74 78.1921 105.987 78.0924C109.156 76.8062 111.911 74.6855 113.961 71.9556C116.01 69.2256 117.277 65.9884 117.627 62.588C117.976 59.1877 117.395 55.7512 115.945 52.6438C114.496 49.5364 112.231 46.8741 109.393 44.9401C103.974 41.2268 97.7729 38.8131 91.2767 37.8886C84.7806 36.9642 78.1666 37.554 71.9543 39.612C71.6953 39.6899 71.4548 39.8188 71.247 39.991C71.0391 40.1633 70.8681 40.3755 70.7441 40.6152C70.62 40.8548 70.5453 41.117 70.5244 41.3865C70.5036 41.6559 70.5369 41.9271 70.6225 42.184C70.7082 42.441 70.8443 42.6786 71.023 42.8829C71.2017 43.0871 71.4193 43.2539 71.663 43.3734C71.9067 43.4929 72.1716 43.5627 72.4422 43.5787C72.7128 43.5947 72.9835 43.5565 73.2385 43.4665C78.8594 41.6046 84.8438 41.0708 90.7216 41.9071C96.5994 42.7433 102.211 44.9268 107.114 48.2861C109.343 49.8056 111.121 51.8968 112.26 54.3376C113.399 56.7783 113.855 59.4775 113.581 62.1484C113.307 64.8194 112.313 67.3623 110.704 69.5071C109.095 71.652 106.931 73.3186 104.443 74.3301V74.3301Z" fill="#CB9EFF"/>
<path d="M66.8729 46.1977C67.1096 46.0725 67.3187 45.9018 67.4884 45.6952C67.6581 45.4886 67.7848 45.2503 67.8614 44.994C67.938 44.7377 67.9629 44.4686 67.9346 44.2021C67.9063 43.9356 67.8254 43.677 67.6966 43.4413C67.5678 43.2056 67.3937 42.9974 67.1842 42.8288C66.9747 42.6602 66.734 42.5344 66.4761 42.4588C66.2182 42.3832 65.9481 42.3592 65.6814 42.3882C65.4147 42.4173 65.1567 42.4988 64.9224 42.628C59.1057 45.7563 54.1176 50.2124 50.3624 55.6351L50.351 55.6519C50.2002 55.8708 50.0943 56.1175 50.0394 56.3778C49.9844 56.6381 49.9814 56.907 50.0306 57.1691C50.1299 57.6983 50.4356 58.1677 50.8805 58.474C51.3254 58.7803 51.873 58.8984 52.4029 58.8023C52.9328 58.7062 53.4015 58.4038 53.7059 57.9616C57.101 53.0566 61.6121 49.0262 66.8729 46.1977V46.1977Z" fill="#CB9EFF"/>
<path d="M46.5591 62.3176C43.4431 69.201 42.223 76.7979 43.0242 84.329C43.8253 91.8601 46.6188 99.0543 51.1181 105.174C51.4378 105.608 51.9169 105.9 52.4499 105.983C52.9829 106.067 53.5262 105.936 53.9602 105.619C54.147 105.485 54.3088 105.319 54.4382 105.129C54.6733 104.783 54.7947 104.372 54.7859 103.953C54.7772 103.534 54.6386 103.127 54.3892 102.789C50.3201 97.2528 47.7941 90.7446 47.0702 83.9318C46.3463 77.1191 47.4506 70.2471 50.2699 64.0206C50.3865 63.7781 50.4534 63.5146 50.4667 63.2455C50.4799 62.9763 50.4393 62.7069 50.3471 62.453C50.2549 62.1992 50.1129 61.9659 49.9296 61.7668C49.7463 61.5678 49.5253 61.407 49.2795 61.2938C49.0337 61.1806 48.768 61.1173 48.498 61.1077C48.2279 61.098 47.959 61.1421 47.7068 61.2375C47.4547 61.3328 47.2244 61.4774 47.0294 61.6629C46.8345 61.8484 46.6787 62.071 46.5713 62.3178L46.5591 62.3176Z" fill="#CB9EFF"/>
<path d="M148.955 97.7144C148.24 98.6803 147.486 99.6363 146.72 100.556C136.865 112.432 122.895 120.177 107.554 122.269C92.2131 124.36 76.6102 120.648 63.8111 111.861C62.0846 110.686 60.4547 109.375 58.9369 107.941C58.7446 107.747 58.5157 107.595 58.2636 107.491C58.0115 107.388 57.7415 107.336 57.4695 107.338C57.1975 107.34 56.9291 107.397 56.6801 107.505C56.4311 107.613 56.2067 107.77 56.0201 107.967C55.8335 108.163 55.6885 108.395 55.5938 108.649C55.499 108.903 55.4564 109.173 55.4685 109.445C55.4806 109.716 55.5471 109.982 55.6641 110.228C55.7811 110.474 55.9462 110.694 56.1496 110.875C57.8245 112.461 59.6245 113.909 61.532 115.207C75.1924 124.488 91.7926 128.395 108.112 126.169C124.431 123.943 139.305 115.743 149.849 103.161C150.667 102.183 151.467 101.165 152.229 100.136L152.275 100.07C152.586 99.6317 152.709 99.0876 152.617 98.5569C152.525 98.0263 152.226 97.5526 151.785 97.24C151.345 96.9274 150.799 96.8016 150.267 96.8902C149.736 96.9788 149.263 97.2746 148.952 97.7125L148.955 97.7144Z" fill="#CB9EFF"/>
<g filter="url(#filter0_d_394_7667)">
<rect x="56.5773" y="43.4171" width="53.878" height="93.9999" rx="4" fill="white"/>
<rect x="60.0161" y="51.4413" width="47" height="71.0731" rx="4" fill="#E7E7E7"/>
<circle cx="83.5148" cy="129.965" r="4.01219" fill="#C4C4C4"/>
<rect x="76.0646" y="46.8562" width="14.9024" height="2.29268" rx="1.14634" fill="#C4C4C4"/>
</g>
<path d="M42.7601 103.477C42.7598 103.276 42.6157 103.104 42.4176 103.068C41.6135 102.927 39.3611 102.396 38.6016 101.638C37.8422 100.881 37.3061 98.6303 37.1646 97.8318C37.1311 97.641 36.9678 97.4998 36.7737 97.4939V103.48L42.7601 103.477Z" fill="#FFEA80"/>
<path d="M36.7737 97.4939C36.5731 97.4949 36.4024 97.641 36.3699 97.8397C36.2402 98.6428 35.7364 100.889 34.9844 101.647C34.2324 102.406 31.9579 102.934 31.1281 103.071C30.9302 103.106 30.7861 103.279 30.7872 103.48H36.7737V97.4939Z" fill="#FFD567"/>
<path d="M36.7737 103.48V109.467C36.9736 109.466 37.1443 109.322 37.1785 109.125C37.3196 108.312 37.8544 106.035 38.612 105.278C39.3695 104.52 41.6126 104.015 42.411 103.885C42.611 103.854 42.7589 103.683 42.7601 103.48L36.7737 103.48Z" fill="#FFD567"/>
<path d="M30.7872 103.48C30.7866 103.682 30.9334 103.854 31.1328 103.885C31.9466 104.015 34.2208 104.52 34.9789 105.278C35.7369 106.035 36.2386 108.304 36.3686 109.118C36.4011 109.317 36.5718 109.464 36.7737 109.467V103.48L30.7872 103.48Z" fill="#FFA266"/>
<path d="M159.923 82.9579C159.923 83.1014 159.82 83.2241 159.679 83.2497C159.104 83.3505 157.496 83.7299 156.953 84.271C156.411 84.8121 156.028 86.4196 155.927 86.9899C155.903 87.1263 155.786 87.2271 155.647 87.2313V82.9553L159.923 82.9579Z" fill="#FFEA80"/>
<path d="M155.647 87.2313C155.504 87.2306 155.382 87.1263 155.359 86.9843C155.266 86.4106 154.907 84.8065 154.369 84.2647C153.832 83.7229 152.208 83.3457 151.615 83.2474C151.474 83.2228 151.371 83.0993 151.371 82.9553H155.647V87.2313Z" fill="#FFD567"/>
<path d="M155.647 82.9553V78.6793C155.79 78.6798 155.912 78.7826 155.937 78.9233C156.037 79.5043 156.419 81.1303 156.961 81.6715C157.502 82.2126 159.104 82.5733 159.674 82.6662C159.817 82.6883 159.923 82.8108 159.923 82.9553L155.647 82.9553Z" fill="#FFD567"/>
<path d="M151.371 82.9553C151.371 82.8113 151.476 82.6884 151.618 82.6662C152.199 82.5733 153.824 82.2126 154.365 81.6715C154.907 81.1303 155.265 79.5096 155.358 78.9286C155.381 78.7864 155.503 78.6813 155.647 78.6793V82.9553L151.371 82.9553Z" fill="#FFA266"/>
<path d="M129.991 118.877C129.991 119.02 129.888 119.143 129.746 119.168C129.172 119.269 127.563 119.648 127.021 120.19C126.478 120.731 126.095 122.338 125.994 122.909C125.97 123.045 125.854 123.146 125.715 123.15V118.874L129.991 118.877Z" fill="#FFEA80"/>
<path d="M125.715 123.15C125.572 123.149 125.45 123.045 125.427 122.903C125.334 122.329 124.974 120.725 124.437 120.183C123.9 119.641 122.275 119.264 121.683 119.166C121.541 119.141 121.438 119.018 121.439 118.874H125.715V123.15Z" fill="#FFD567"/>
<path d="M125.715 118.874V114.598C125.858 114.598 125.98 114.701 126.004 114.842C126.105 115.423 126.487 117.049 127.028 117.59C127.569 118.131 129.171 118.492 129.742 118.585C129.885 118.607 129.99 118.729 129.991 118.874L125.715 118.874Z" fill="#FFD567"/>
<path d="M121.439 118.874C121.439 118.73 121.544 118.607 121.686 118.585C122.267 118.492 123.892 118.131 124.433 117.59C124.975 117.049 125.333 115.428 125.426 114.847C125.449 114.705 125.571 114.6 125.715 114.598V118.874L121.439 118.874Z" fill="#FFA266"/>
<path d="M80.6551 96.6264C80.2393 96.6263 79.8406 96.4611 79.5466 96.167L74.843 91.4634C74.5574 91.1677 74.3993 90.7716 74.4029 90.3605C74.4065 89.9494 74.5714 89.5562 74.8621 89.2655C75.1528 88.9748 75.546 88.8099 75.9571 88.8063C76.3682 88.8028 76.7642 88.9608 77.0599 89.2464L80.4418 92.6283L90.3446 78.4813C90.5846 78.145 90.9477 77.9169 91.3549 77.8468C91.7622 77.7767 92.1807 77.8702 92.5193 78.107C92.858 78.3438 93.0895 78.7048 93.1634 79.1113C93.2374 79.5179 93.1479 79.9372 92.9143 80.2781L81.9392 95.9569C81.8086 96.1457 81.6381 96.3036 81.4398 96.4192C81.2414 96.5349 81.0201 96.6056 80.7915 96.6264C80.746 96.6287 80.7005 96.6287 80.6551 96.6264V96.6264Z" fill="#00A49A"/>
<path d="M64.9959 23.9481C64.9957 24.0629 64.9133 24.1611 64.8002 24.1815C64.3407 24.2622 63.0536 24.5656 62.6196 24.9986C62.1856 25.4315 61.8793 26.7175 61.7984 27.1737C61.7793 27.2828 61.686 27.3634 61.5751 27.3668V23.946L64.9959 23.9481Z" fill="#FFEA80"/>
<path d="M61.5751 27.3668C61.4605 27.3663 61.363 27.2828 61.3444 27.1692C61.2703 26.7103 60.9824 25.4269 60.5527 24.9935C60.123 24.56 58.8232 24.2583 58.3491 24.1797C58.236 24.16 58.1536 24.0612 58.1543 23.946H61.5751V27.3668Z" fill="#FFD567"/>
<path d="M61.5751 23.946V20.5252C61.6893 20.5256 61.7868 20.6079 61.8064 20.7205C61.887 21.1852 62.1926 22.486 62.6255 22.9189C63.0584 23.3519 64.3402 23.6405 64.7964 23.7147C64.9107 23.7324 64.9952 23.8304 64.9959 23.946L61.5751 23.946Z" fill="#FFD567"/>
<path d="M58.1543 23.946C58.154 23.8308 58.2378 23.7325 58.3518 23.7147C58.8168 23.6405 60.1163 23.3519 60.5495 22.9189C60.9827 22.486 61.2693 21.1894 61.3437 20.7247C61.3622 20.6109 61.4598 20.5268 61.5751 20.5252V23.946L58.1543 23.946Z" fill="#FFA266"/>
<path d="M31.6429 55.5903C31.6427 55.6764 31.581 55.75 31.4961 55.7654C31.1515 55.8259 30.1862 56.0535 29.8607 56.3782C29.5352 56.7028 29.3054 57.6673 29.2448 58.0095C29.2305 58.0913 29.1605 58.1518 29.0773 58.1544V55.5887L31.6429 55.5903Z" fill="#FFEA80"/>
<path d="M29.0772 58.1544C28.9912 58.1539 28.9181 58.0913 28.9042 58.0062C28.8486 57.662 28.6327 56.6994 28.3104 56.3744C27.9881 56.0493 27.0133 55.823 26.6577 55.764C26.5729 55.7492 26.5111 55.6751 26.5116 55.5887H29.0772V58.1544Z" fill="#FFD567"/>
<path d="M29.0773 55.5887V53.0231C29.163 53.0234 29.2361 53.0851 29.2508 53.1696C29.3112 53.5181 29.5404 54.4937 29.8651 54.8184C30.1898 55.1431 31.1511 55.3596 31.4933 55.4153C31.579 55.4285 31.6423 55.502 31.6429 55.5887L29.0773 55.5887Z" fill="#FFD567"/>
<path d="M26.5116 55.5887C26.5113 55.5023 26.5743 55.4286 26.6597 55.4153C27.0085 55.3596 27.9831 55.1431 28.308 54.8184C28.6329 54.4937 28.8479 53.5213 28.9036 53.1727C28.9175 53.0874 28.9907 53.0243 29.0772 53.0231V55.5887L26.5116 55.5887Z" fill="#FFA266"/>
<path d="M132.557 33.3476C132.557 33.0321 132.33 32.762 132.019 32.7057C130.755 32.4839 127.216 31.6494 126.022 30.4589C124.829 29.2684 123.986 25.7319 123.764 24.4772C123.712 24.1773 123.455 23.9555 123.15 23.9462V33.3534L132.557 33.3476Z" fill="#FFEA80"/>
<path d="M123.15 23.9462C122.835 23.9477 122.567 24.1773 122.515 24.4896C122.312 25.7517 121.52 29.2808 120.338 30.4728C119.157 31.6648 115.582 32.4945 114.278 32.7107C113.967 32.7649 113.741 33.0367 113.743 33.3534H123.15V23.9462Z" fill="#FFD567"/>
<path d="M123.15 33.3534V42.7607C123.464 42.7596 123.732 42.5333 123.786 42.2238C124.008 40.9457 124.848 37.3684 126.039 36.1779C127.229 34.9874 130.754 34.1937 132.009 33.9895C132.323 33.9408 132.555 33.6713 132.557 33.3534L123.15 33.3534Z" fill="#FFD567"/>
<path d="M113.743 33.3534C113.742 33.6703 113.972 33.9405 114.286 33.9895C115.565 34.1937 119.138 34.9874 120.33 36.1779C121.521 37.3684 122.309 40.9341 122.513 42.2121C122.564 42.525 122.833 42.7563 123.15 42.7607V33.3534L113.743 33.3534Z" fill="#FFA266"/>
<path d="M124.005 80.3913C124.005 80.4773 123.943 80.551 123.858 80.5664C123.514 80.6268 122.548 80.8544 122.223 81.1791C121.897 81.5038 121.668 82.4683 121.607 82.8105C121.593 82.8923 121.523 82.9528 121.439 82.9553V80.3897L124.005 80.3913Z" fill="#FFEA80"/>
<path d="M121.439 82.9553C121.353 82.9549 121.28 82.8923 121.266 82.8071C121.211 82.4629 120.995 81.5004 120.673 81.1753C120.35 80.8502 119.375 80.624 119.02 80.565C118.935 80.5502 118.873 80.4761 118.874 80.3897H121.439V82.9553Z" fill="#FFD567"/>
<path d="M121.439 80.3897V77.8241C121.525 77.8244 121.598 77.8861 121.613 77.9705C121.673 78.3191 121.903 79.2947 122.227 79.6194C122.552 79.9441 123.513 80.1605 123.855 80.2162C123.941 80.2295 124.005 80.303 124.005 80.3897H121.439Z" fill="#FFD567"/>
<path d="M118.874 80.3897C118.874 80.3033 118.936 80.2296 119.022 80.2162C119.371 80.1605 120.345 79.9441 120.67 79.6194C120.995 79.2947 121.21 78.3223 121.266 77.9737C121.28 77.8884 121.353 77.8253 121.439 77.8241V80.3897H118.874Z" fill="#FFA266"/>
<path d="M66.7063 48.7497C66.7061 48.8931 66.6031 49.0159 66.4617 49.0415C65.8873 49.1423 64.2785 49.5216 63.736 50.0627C63.1935 50.6039 62.8106 52.2114 62.7095 52.7817C62.6856 52.918 62.569 53.0188 62.4303 53.0231V48.747L66.7063 48.7497Z" fill="#FFEA80"/>
<path d="M62.4303 53.0231C62.287 53.0224 62.1651 52.918 62.1419 52.7761C62.0493 52.2024 61.6894 50.5982 61.1523 50.0564C60.6151 49.5146 58.9905 49.1375 58.3977 49.0392C58.2564 49.0145 58.1535 48.891 58.1543 48.747H62.4303V53.0231Z" fill="#FFD567"/>
<path d="M62.4303 48.7471V44.471C62.5731 44.4715 62.695 44.5744 62.7194 44.7151C62.8202 45.296 63.2022 46.9221 63.7433 47.4632C64.2845 48.0043 65.8867 48.3651 66.457 48.4579C66.5998 48.4801 66.7054 48.6026 66.7063 48.7471L62.4303 48.7471Z" fill="#FFD567"/>
<path d="M58.1543 48.7471C58.1539 48.603 58.2587 48.4802 58.4011 48.4579C58.9824 48.3651 60.6068 48.0043 61.1483 47.4632C61.6898 46.9221 62.0481 45.3013 62.141 44.7204C62.1642 44.5781 62.2861 44.473 62.4303 44.471V48.7471L58.1543 48.7471Z" fill="#FFA266"/>
<defs>
<filter id="filter0_d_394_7667" x="50.5773" y="39.4171" width="65.8781" height="106" filterUnits="userSpaceOnUse" color-interpolation-filters="sRGB">
<feFlood flood-opacity="0" result="BackgroundImageFix"/>
<feColorMatrix in="SourceAlpha" type="matrix" values="0 0 0 0 0 0 0 0 0 0 0 0 0 0 0 0 0 0 127 0" result="hardAlpha"/>
<feOffset dy="2"/>
<feGaussianBlur stdDeviation="3"/>
<feComposite in2="hardAlpha" operator="out"/>
<feColorMatrix type="matrix" values="0 0 0 0 0 0 0 0 0 0 0 0 0 0 0 0 0 0 0.1 0"/>
<feBlend mode="normal" in2="BackgroundImageFix" result="effect1_dropShadow_394_7667"/>
<feBlend mode="normal" in="SourceGraphic" in2="effect1_dropShadow_394_7667" result="shape"/>
</filter>
</defs>
</svg>
