<svg width="104" height="91" viewBox="0 0 54 91" fill="none" xmlns="http://www.w3.org/2000/svg">
<circle opacity="0.4" cx="27" cy="51" r="27" fill="#ECECEC"/>
<rect x="26.0635" y="63.097" width="1.88349" height="5.17961" fill="#9A5BFF"/>
<rect x="25.1211" y="68.7476" width="3.76699" height="11.7718" fill="#EF6FFF"/>
<path fill-rule="evenodd" clip-rule="evenodd" d="M25.1201 80.5193C25.1201 80.5193 25.1201 80.5193 25.1201 80.5193C25.1201 85.9805 29.5473 90.4076 35.0085 90.4076C40.4696 90.4076 44.8968 85.9805 44.8968 80.5193C44.8968 80.5193 44.8968 80.5193 44.8968 80.5193L41.1301 80.5193C41.1301 83.9 38.3895 86.6406 35.0088 86.6406C31.628 86.6406 28.8874 83.9 28.8874 80.5193C28.8874 80.5193 28.8874 80.5193 28.8874 80.5193H25.1201Z" fill="#EF6FFF"/>
<path d="M19 62.6262L23.1764 52.7181H30.6012L35.0097 62.6262L31.2973 61.5045L26.8888 62.6262L23.1764 61.5045L19 62.6262Z" fill="#EF6FFF"/>
<path d="M30.6012 48.2315H23.1764L26.8888 0L30.6012 48.2315Z" fill="#EF6FFF"/>
<rect x="21.3545" y="48.9708" width="11.301" height="2.82524" fill="#9A5BFF"/>
</svg>
