<svg width="56" height="44" viewBox="0 0 56 44" fill="none" xmlns="http://www.w3.org/2000/svg">
<path d="M18.166 18.0539C10.2717 13.4787 2.76602 16.1476 0 18.0539C2.39224 12.0359 11.3257 0 27.9219 0C44.518 0 53.4515 12.0359 55.8438 18.0539C48.1288 13.4787 40.2942 16.1476 37.3413 18.0539C29.3572 13.5685 21.2311 16.185 18.166 18.0539Z" fill="#EF6FFF"/>
<path d="M37.3413 18.0539C29.1553 13.6806 22.8757 16.1476 18.166 18.0539C18.166 7.17657 24.6325 1.52313 27.8097 0C34.7173 3.47718 37.0423 13.4474 37.3413 18.0539Z" fill="#9A5BFF"/>
<rect x="27.1367" y="15.9235" width="0.897088" height="16.5961" fill="#CCCCCC"/>
<rect x="26.6885" y="32.7438" width="1.79418" height="5.6068" fill="#EF6FFF"/>
<path fill-rule="evenodd" clip-rule="evenodd" d="M26.6885 38.3506C26.6885 40.9517 28.7971 43.0602 31.3982 43.0602C33.9993 43.0602 36.1079 40.9517 36.1079 38.3506H34.3138C34.3137 39.9607 33.0084 41.266 31.3983 41.266C29.7881 41.266 28.4828 39.9607 28.4827 38.3506H26.6885Z" fill="#EF6FFF"/>
</svg>
