<svg width="104" height="87" viewBox="0 0 54 87" fill="none" xmlns="http://www.w3.org/2000/svg">
<circle opacity="0.4" cx="27" cy="48" r="27" fill="#ECECEC"/>
<rect x="26.1631" y="60.1957" width="1.78261" height="4.90217" fill="#C4C4C4"/>
<rect x="25.2715" y="65.5435" width="3.56522" height="11.1413" fill="#EF6FFF"/>
<path fill-rule="evenodd" clip-rule="evenodd" d="M25.2715 76.6849C25.2716 81.8535 29.4616 86.0435 34.6302 86.0435C39.7988 86.0435 43.9888 81.8535 43.9889 76.6849H40.4233C40.4232 79.8845 37.8294 82.4783 34.6298 82.4783C31.4302 82.4783 28.8364 79.8845 28.8363 76.6849H25.2715Z" fill="#EF6FFF"/>
<path d="M44.4541 59.75L48 55.7986L27.3892 0.478258L7 55.7986L10.5459 59.75L14.5351 55.7986L19.1892 59.75L23.1784 55.7986L27.3892 59.75L31.8216 55.7986L35.8108 59.75L40.4649 55.7986L44.4541 59.75Z" fill="#EF6FFF"/>
<path d="M35.8248 59.75L40.4248 55.6064L27.5009 0.478257L31.8819 55.6064L35.8248 59.75Z" fill="#9A5BFF"/>
<path d="M19.1752 59.75L14.5752 55.6064L27.4991 0.478255L23.1181 55.6064L19.1752 59.75Z" fill="#9A5BFF"/>
</svg>
