<svg width="21" height="44" viewBox="0 0 21 44" fill="none" xmlns="http://www.w3.org/2000/svg">
<rect x="9.81543" y="30.5869" width="0.913044" height="2.51087" fill="#C4C4C4"/>
<rect x="9.35889" y="33.3262" width="1.82609" height="5.70652" fill="#EF6FFF"/>
<path fill-rule="evenodd" clip-rule="evenodd" d="M9.35889 39.0326C9.35893 41.6799 11.505 43.826 14.1524 43.826C16.7997 43.826 18.9458 41.6799 18.9458 39.0326H17.1197C17.1197 40.6714 15.7912 42 14.1523 42C12.5135 42 11.1849 40.6714 11.1849 39.0326H9.35889Z" fill="#EF6FFF"/>
<path d="M19.1838 30.3586L21 28.3347L10.4432 -5.45692e-05L1.68784e-06 28.3347L1.81622 30.3586L3.85946 28.3347L6.24325 30.3586L8.28649 28.3347L10.4432 30.3586L12.7135 28.3347L14.7568 30.3586L17.1405 28.3347L19.1838 30.3586Z" fill="#EF6FFF"/>
<path d="M14.7635 30.3586L17.1196 28.2363L10.5001 -5.29393e-05L12.744 28.2363L14.7635 30.3586Z" fill="#9A5BFF"/>
<path d="M6.23649 30.3586L3.88037 28.2363L10.4999 -5.38722e-05L8.25602 28.2363L6.23649 30.3586Z" fill="#9A5BFF"/>
</svg>
