<svg width="84" height="72" xmlns="http://www.w3.org/2000/svg" xmlns:xlink="http://www.w3.org/1999/xlink"><defs><linearGradient x1="82.7%" y1="13.056%" x2="9.113%" y2="92.127%" id="b"><stop stop-color="#FFA436" offset="0%"/><stop stop-color="#FF7139" offset="100%"/></linearGradient><linearGradient x1="112.862%" y1="45.53%" x2="-15.393%" y2="45.53%" id="f"><stop stop-color="#F06EFF" offset="0%"/><stop stop-color="#945AFF" offset="100%"/></linearGradient><linearGradient x1="0%" y1="50%" x2="100%" y2="50%" id="g"><stop stop-color="#F06EFF" offset="0%"/><stop stop-color="#945AFF" offset="100%"/></linearGradient><linearGradient x1="100%" y1="50%" x2="0%" y2="50%" id="h"><stop stop-color="#0BE1F7" offset="0%"/><stop stop-color="#52FEBE" offset="100%"/></linearGradient><linearGradient x1="100%" y1="50.55%" x2="18.593%" y2="44.331%" id="k"><stop stop-color="#6173FF" offset="0%"/><stop stop-color="#F10366" offset="48.148%"/><stop stop-color="#FF9100" offset="100%"/></linearGradient><path id="e" d="M114 .622V25H22V.622z"/><path d="M2.25 3h7.5a.75.75 0 100-1.5h-7.5a.75.75 0 000 1.5zm7.5 2.25h-7.5a.75.75 0 000 1.5h7.5a.75.75 0 100-1.5zm0 3.75h-7.5a.75.75 0 000 1.5h7.5a.75.75 0 100-1.5z" id="i"/><filter x="-22.8%" y="-65.6%" width="130.4%" height="214.9%" filterUnits="objectBoundingBox" id="d"><feOffset dx="-7" dy="-2" in="SourceAlpha" result="shadowOffsetOuter1"/><feGaussianBlur stdDeviation="3.5" in="shadowOffsetOuter1" result="shadowBlurOuter1"/><feColorMatrix values="0 0 0 0 0.528985507 0 0 0 0 0.00258041711 0 0 0 0 0.00258041711 0 0 0 0.450065559 0" in="shadowBlurOuter1"/></filter><rect id="a" x="0" y="0" width="72" height="72" rx="36"/></defs><g fill="none" fill-rule="evenodd"><mask id="c" fill="#fff"><use xlink:href="#a"/></mask><use fill="url(#b)" xlink:href="#a"/><g mask="url(#c)"><g transform="translate(-37 19)"><use fill="#000" filter="url(#d)" xlink:href="#e"/><use fill="#F7F7F8" xlink:href="#e"/></g><path fill="#F7F7F8" d="M-15 44h92v44h-92z"/><path fill="#ECECEF" d="M84.641 19.622V44H-36.497V19.622z"/><path d="M28 23.5h-58c-.414 0-.79.168-1.06.44A1.49 1.49 0 00-31.5 25v13c0 .414.168.79.44 1.06.27.272.646.44 1.06.44h58c.414 0 .79-.168 1.06-.44.272-.27.44-.646.44-1.06V25c0-.414-.168-.79-.44-1.06A1.495 1.495 0 0028 23.5z" stroke="#CDCDCD" fill="#FFF" opacity=".587"/><path fill-opacity=".2" fill="#A6A6A6" d="M-23 28h43v7h-43z"/><path stroke="#979797" opacity=".247" stroke-linecap="square" d="M-21.5 43.5H78"/></g><g mask="url(#c)"><path d="M47.977 34.864h3.841c0-.653-.529-1.182-1.182-1.182h-3.84c0 .653.529 1.182 1.181 1.182z" fill="#087C8D"/><path d="M50.133 28.509l-4.187-2.381a.972.972 0 00-.963 0l-4.187 2.38c-.31.178-.501.512-.5.874v4.76c0 .362.192.695.503.873l4.184 2.38c.3.17.664.17.963 0l4.187-2.38a1 1 0 00.503-.873v-4.76a.998.998 0 00-.503-.873z" fill="#000" fill-rule="nonzero"/><g fill-rule="nonzero"><path d="M3.841 0c.214 0 .39.153.41.35l.002.037v3.192a.366.366 0 01.09.67l-.09.052v3.817c0 .214-.185.387-.412.387a.403.403 0 01-.41-.35l-.002-.037V4.652a.366.366 0 01-.09-.67l.09-.053V.387c0-.214.185-.387.412-.387zM.699 5.394a.368.368 0 01.502.134.365.365 0 01-.134.5l-.378.233a.368.368 0 01-.502-.134.365.365 0 01.134-.5zm1.63-.955a.368.368 0 01.502.134.365.365 0 01-.134.5l-.637.365a.368.368 0 01-.502-.134.365.365 0 01.135-.5zm3.293-1.92a.368.368 0 01.502.133.365.365 0 01-.135.5l-.636.365a.368.368 0 01-.502-.133.365.365 0 01.134-.5zm1.371-.824a.368.368 0 01.502.134.365.365 0 01-.134.5l-.368.235a.368.368 0 01-.502-.134.365.365 0 01.135-.5z" fill="url(#f)" transform="translate(41.773 27.773)"/><path d="M6.993 1.695l-.427.275a.365.365 0 00-.134.5.368.368 0 00.502.133l.427-.274a.365.365 0 00.134-.5.368.368 0 00-.502-.134zm-1.371.823l-.637.366a.365.365 0 00-.134.5.368.368 0 00.502.133l.636-.365a.365.365 0 00.135-.5.368.368 0 00-.502-.134zM3.976 3.616l-.637.365a.365.365 0 00-.135.5.368.368 0 00.502.134l.637-.366a.365.365 0 00.135-.5.368.368 0 00-.502-.133zm-1.647.823l-.636.365a.365.365 0 00-.135.5.368.368 0 00.502.134l.637-.366a.365.365 0 00.134-.5.368.368 0 00-.502-.133zm-1.57.926l-.438.262a.365.365 0 00-.134.5.368.368 0 00.502.134l.437-.262a.365.365 0 00.134-.5.368.368 0 00-.502-.134z" fill="url(#g)" transform="matrix(-1 0 0 1 49.455 27.773)"/></g><path d="M6.5 8.864h5.318a2.955 2.955 0 01-2.954 2.954H6.023a1 1 0 01-1-1v-.477c0-.816.661-1.477 1.477-1.477z" fill="url(#h)" transform="translate(40 26)"/><path d="M46.755 37.04a.57.57 0 00.244-.047.345.345 0 00.15-.127.335.335 0 00.05-.183.32.32 0 00-.04-.164.296.296 0 00-.243-.149v-.013a.34.34 0 00.12-.05.258.258 0 00.113-.227.31.31 0 00-.048-.171.316.316 0 00-.143-.117.586.586 0 00-.237-.042h-.516v1.29h.55zm-.076-.75h-.202v-.32h.207c.06 0 .107.015.14.043.033.029.05.066.05.113a.149.149 0 01-.026.087.166.166 0 01-.069.057.24.24 0 01-.1.02zm.02.526h-.222v-.342h.229c.043 0 .081.008.113.023a.176.176 0 01.073.064.173.173 0 01.026.095.145.145 0 01-.052.117c-.035.029-.09.043-.167.043zm1.548.223v-.224h-.598v-.308h.551v-.225h-.551v-.307h.596v-.225h-.869v1.29h.871zm.83 0v-1.064h.394v-.225h-1.058v.225h.394v1.064h.27zm.633 0l.096-.294h.465l.096.294h.292l-.444-1.289h-.352l-.445 1.29h.292zm.492-.506h-.327l.159-.488h.01l.158.488z" fill="#190026" fill-rule="nonzero"/></g><g opacity=".527" mask="url(#c)"><g transform="translate(62 26)"><path d="M0 0h12v12H0z"/><mask id="j" fill="#fff"><use xlink:href="#i"/></mask><g mask="url(#j)"><path fill="#737373" d="M0 0h12v12H0z"/></g></g></g><path d="M31.905 41.643c.314-.219.7-.44 1.155-.674.453-.233.97-.476 1.524-.72a42.304 42.304 0 013.512-1.354 21.55 21.55 0 012.113-.603c.356-.078.677-.132.978-.152.16-.01.316-.012.483.007.177.024.375.059.616.212.13.086.22.187.283.277.114.168.156.304.189.424.03.12.045.23.055.34.019.218.015.442.001.693-.03.5-.108 1.103-.22 1.779a54.787 54.787 0 01-.96 4.453 37.325 37.325 0 01-.76 2.61c-.14.411-.272.756-.41 1.04a2.468 2.468 0 01-.26.437 1.26 1.26 0 01-.263.254.957.957 0 01-1.123 0 1.025 1.025 0 01-.245-.248 1.203 1.203 0 01-.165-.348l-.115-.374a17.828 17.828 0 00-.575-1.59 7.454 7.454 0 00-.74-1.375c-.459-.65-.982-1.115-1.78-1.565-.795-.447-1.87-.857-3.32-1.31a1.243 1.243 0 01-.285-.129 1.08 1.08 0 01-.317-.297 1.025 1.025 0 01-.13-.917c.079-.228.182-.351.277-.46.064-.071.129-.132.196-.19.09-.077.185-.148.286-.22z" fill="#FF9100"/><path d="M37.774 44c-4.792 4.135-13.778 14.503-7.778 18.514C35.996 66.526 66.374 44 83 56.497" stroke="url(#k)" stroke-width="2" stroke-linecap="round"/></g></svg>