<?xml version="1.0" encoding="utf-8"?>
<!-- Generator: Adobe Illustrator 27.9.0, SVG Export Plug-In . SVG Version: 6.00 Build 0)  -->
<svg version="1.1" id="Layer_1" xmlns="http://www.w3.org/2000/svg" xmlns:xlink="http://www.w3.org/1999/xlink" x="0px" y="0px"
	 viewBox="0 0 217.4 40.7" style="enable-background:new 0 0 217.4 40.7;" xml:space="preserve">
<style type="text/css">
	.st0{opacity:0.5;}
	.st1{fill:#E7E7E7;}
	.st2{fill:#ECECEC;}
	.st3{fill:#EEE6F4;}
	.st4{fill:#FFFFFF;stroke:#0A84FF;stroke-width:1.0494;}
	.st5{fill:none;stroke:#0A84FF;stroke-width:3.1954;stroke-opacity:0.29;}
	.st6{fill-rule:evenodd;clip-rule:evenodd;fill:#815BDF;}
	.st7{fill:none;stroke:url(#SVGID_1_);stroke-width:2.5031;stroke-linecap:round;}
	.st8{fill:#FFFFFF;}
	.st9{fill:none;stroke:#E7E7E7;stroke-width:0.3594;}
	.st10{clip-path:url(#SVGID_00000004529442633515593580000008765056868311507609_);}
	.st11{fill:url(#SVGID_00000146501710973867607590000017833298608777539763_);}
	.st12{fill:#20133A;}
	.st13{fill:none;stroke:#999999;stroke-width:0.3594;}
	.st14{fill:none;stroke:#E7E7E7;stroke-width:0.3594;stroke-linecap:round;}
	.st15{fill:url(#SVGID_00000027605073279463539520000006747266492107356346_);}
	.st16{fill:#9E9E9E;}
	.st17{fill:url(#SVGID_00000054946725685150323950000005280320053140894351_);}
	.st18{fill:#E76DFF;}
	.st19{fill:#E31587;}
	.st20{fill:#ECB60D;}
	.st21{fill:#C4D1E1;}
	.st22{fill:#E4EEF3;}
	.st23{fill:#E9D6B8;}
	.st24{fill:#4E99FF;}
	.st25{fill:#292960;}
	.st26{fill:#B6C2C9;}
	.st27{fill:#D8E5ED;}
	.st28{fill:#879BA6;}
	.st29{fill:#B0BFDE;}
	.st30{fill:#4D6AB5;}
	.st31{fill:#333372;}
</style>
<g class="st0">
	<path class="st1" d="M601,338.2c0.6-0.8,0.9-1.8,0.8-2.8c-0.1-1-0.6-1.9-1.4-2.6c-17.5-14-29.8-33.4-34.7-55.2
		c-4.9-21.8-2.2-44.6,7.7-64.6c0.2-0.5,0.4-0.9,0.4-1.5c0-0.5,0-1-0.2-1.5c-0.2-0.5-0.4-0.9-0.8-1.3c-0.3-0.4-0.7-0.7-1.2-0.9
		c-0.5-0.2-1-0.4-1.5-0.4c-0.5,0-1,0-1.5,0.2c-0.5,0.2-0.9,0.4-1.3,0.8c-0.4,0.3-0.7,0.8-0.9,1.2c-10.6,21.6-13.6,46.1-8.3,69.6
		c5.3,23.5,18.5,44.5,37.3,59.5c0.4,0.3,0.8,0.5,1.3,0.7c0.5,0.1,1,0.2,1.5,0.1c0.5-0.1,1-0.2,1.4-0.5
		C600.3,338.9,600.6,338.6,601,338.2z"/>
	<path class="st1" d="M573.7,197.3c-0.5,0.8-0.7,1.9-0.5,2.8c0.2,1,0.8,1.8,1.6,2.4c0.8,0.6,1.9,0.8,2.8,0.6c1-0.2,1.9-0.7,2.4-1.6
		c11.2-16.6,27.3-29.4,46.1-36.6c0.9-0.4,1.6-1.1,2-2c0.4-0.9,0.4-1.9,0-2.9c-0.4-0.9-1.1-1.7-2-2.1c-0.9-0.4-1.9-0.5-2.9-0.2
		C603.1,165.6,585.8,179.4,573.7,197.3z"/>
	<path class="st1" d="M567.7,317c0.1-0.9-0.1-1.8-0.5-2.6c-13-20.8-18.7-45.4-16.1-69.7c0.1-1-0.2-2-0.8-2.8
		c-0.6-0.8-1.6-1.3-2.6-1.4c-1-0.1-2,0.2-2.8,0.8c-0.8,0.6-1.3,1.6-1.4,2.6c-2.8,26.1,3.3,52.3,17.2,74.6c0.4,0.7,1,1.2,1.7,1.5
		c0.7,0.3,1.5,0.4,2.3,0.2c0.8-0.2,1.5-0.5,2-1.1S567.6,317.7,567.7,317z"/>
	<path class="st1" d="M548.7,234.3c0.5,0.1,1,0.1,1.5,0c0.5-0.1,1-0.3,1.4-0.5c0.4-0.3,0.8-0.6,1.1-1c0.3-0.4,0.5-0.9,0.6-1.4
		c5.2-22.9,17.7-43.5,35.6-58.8c0.4-0.3,0.7-0.7,0.9-1.2c0.2-0.4,0.4-0.9,0.4-1.4s0-1-0.2-1.5c-0.2-0.5-0.4-0.9-0.7-1.3
		s-0.7-0.7-1.2-0.9c-0.5-0.2-0.9-0.4-1.4-0.4c-0.5,0-1,0-1.5,0.2c-0.5,0.2-0.9,0.4-1.3,0.7c-19.1,16.4-32.5,38.4-38.1,62.9
		c-0.1,0.5-0.1,1,0,1.5c0.1,0.5,0.3,1,0.5,1.4c0.3,0.4,0.6,0.8,1,1.1C547.8,233.9,548.2,234.2,548.7,234.3z"/>
	<path class="st1" d="M544.4,296c-6.5-18.8-8.3-38.9-5.3-58.5s10.7-38.3,22.5-54.3c0.6-0.8,0.9-1.8,0.7-2.8c-0.2-1-0.7-1.9-1.5-2.5
		c-0.8-0.6-1.9-0.9-2.9-0.7c-1,0.2-1.9,0.7-2.5,1.5c-12.5,17-20.7,36.8-23.9,57.6c-3.2,20.9-1.3,42.2,5.6,62.2c0.3,1,1,1.8,1.9,2.2
		c0.9,0.4,2,0.5,2.9,0.2c1-0.3,1.8-1,2.2-1.9C544.6,298,544.7,297,544.4,296z"/>
	<path class="st1" d="M775.3,308.2c-17.8,19.5-40.7,33.7-66.1,41.1c-1,0.3-1.8,0.9-2.3,1.8c-0.5,0.9-0.6,1.9-0.3,2.9
		c0.3,1,1,1.8,1.8,2.3c0.9,0.5,2,0.6,2.9,0.3c26.8-7.8,50.9-22.8,69.6-43.3c0.7-0.8,1-1.7,0.9-2.7c-0.1-1-0.5-1.9-1.3-2.6
		c-0.7-0.7-1.7-1-2.7-1C776.9,307,776,307.4,775.3,308.2z"/>
	<path class="st1" d="M760.4,201c0.1,1.1,0.3,2.3,0.4,3.4c1.1,13.1-0.5,26.3-5,38.7c-0.3,1-0.3,2,0.2,2.9c0.4,0.9,1.2,1.6,2.2,2
		c1,0.3,2,0.3,2.9-0.1c0.9-0.4,1.6-1.2,2-2.2c4.8-13.4,6.6-27.7,5.4-41.9c-0.1-1.2-0.3-2.5-0.4-3.7c-0.1-1-0.7-1.9-1.5-2.5
		c-0.8-0.6-1.8-0.9-2.8-0.8c-1,0.1-1.9,0.6-2.6,1.4C760.6,198.9,760.3,199.9,760.4,201z"/>
	<path class="st1" d="M757.6,257.7c0.1-0.9,0-1.8-0.5-2.6c-0.5-0.8-1.2-1.4-2.1-1.6c-0.9-0.3-1.8-0.3-2.6,0.1c-0.8,0.3-1.5,1-2,1.8
		c-7.8,14.6-19.5,26.9-33.8,35.4c-0.9,0.5-1.5,1.4-1.7,2.4s-0.1,2,0.5,2.9c0.5,0.9,1.4,1.5,2.4,1.7c1,0.2,2,0.1,2.9-0.5
		c15.4-9.3,28.1-22.5,36.6-38.4C757.4,258.6,757.6,258.2,757.6,257.7z"/>
	<path class="st1" d="M710.1,300.9c0.1-0.7,0-1.4-0.3-2.1c-0.2-0.5-0.5-0.9-0.8-1.2c-0.4-0.4-0.8-0.6-1.3-0.8
		c-0.5-0.2-1-0.3-1.5-0.3c-0.5,0-1,0.1-1.5,0.3c-15,6.3-31.4,8.6-47.6,6.5c-1-0.1-2,0.1-2.8,0.8c-0.8,0.6-1.3,1.5-1.5,2.5
		c-0.1,1,0.1,2,0.8,2.8c0.6,0.8,1.5,1.3,2.6,1.5c17.5,2.2,35.3-0.2,51.6-7c0.6-0.3,1.1-0.7,1.5-1.2
		C709.8,302.1,710,301.5,710.1,300.9z"/>
	<path class="st1" d="M671.4,212.6c-0.1,0.7-0.5,1.3-1,1.7c-0.5,0.4-1.2,0.6-1.9,0.5c-8.4-1.3-16.9-0.1-24.6,3.5
		c-7.6,3.6-14,9.4-18.3,16.6c-0.3,0.4-0.4,0.9-0.5,1.4s0,1,0.1,1.5c0.1,0.5,0.3,0.9,0.7,1.3c0.3,0.4,0.7,0.7,1.1,1s0.9,0.4,1.4,0.5
		c0.5,0.1,1,0,1.5-0.1c0.5-0.1,1-0.3,1.4-0.6c0.4-0.3,0.7-0.7,1-1.1c3.5-5.9,8.7-10.7,15-13.6s13.2-4,20.1-2.9
		c2.7,0.4,5.4-0.3,7.6-1.9c2.2-1.6,3.7-4,4.1-6.7c0.4-2.7-0.3-5.4-1.9-7.6c-1.6-2.2-4-3.6-6.7-4c-13.4-2-27,0.9-38.3,8.2
		c-11.3,7.3-19.5,18.5-23.1,31.5c-3.6,13-2.2,26.8,3.8,38.8s16.3,21.5,28.8,26.5c0.9,0.4,2,0.3,2.9-0.1c0.9-0.4,1.6-1.1,2-2.1
		c0.4-0.9,0.4-2,0-2.9c-0.4-0.9-1.1-1.7-2-2.1c-10.8-4.3-19.6-12.5-24.8-22.8c-5.2-10.4-6.3-22.2-3.3-33.4
		c3.1-11.1,10.1-20.8,19.9-27.1c9.7-6.3,21.5-8.8,33-7.1c0.7,0.1,1.3,0.5,1.7,1C671.3,211.3,671.5,211.9,671.4,212.6z"/>
	<path class="st1" d="M726.7,266.5c-8.8,9.3-19.8,16.3-31.9,20.5c-12.2,4.2-25.2,5.3-37.9,3.4c-9.1-1.4-17.2-6.3-22.7-13.7
		c-5.4-7.4-7.7-16.6-6.4-25.6l0.1-0.7c0.2-1-0.1-2-0.6-2.9c-0.6-0.8-1.5-1.4-2.5-1.6c-1-0.2-2,0.1-2.9,0.6c-0.8,0.6-1.4,1.5-1.6,2.5
		l-0.1,0.8c-1.7,11,1.1,22.3,7.8,31.3c6.6,9,16.6,15,27.7,16.7c14,2.1,28.2,0.8,41.5-3.7c13.3-4.6,25.4-12.3,35-22.5
		c0.7-0.7,1.1-1.7,1-2.7c0-1-0.5-2-1.2-2.7c-0.7-0.7-1.7-1.1-2.8-1C728.4,265.3,727.4,265.7,726.7,266.5L726.7,266.5z"/>
	<path class="st1" d="M744.6,188.4c3.6,11.3,4.6,23.3,3,35c-1.7,11.7-6,23-12.6,32.8c-0.5,0.8-0.7,1.9-0.5,2.8
		c0.2,1,0.8,1.8,1.6,2.4c0.8,0.6,1.9,0.8,2.9,0.6c1-0.2,1.9-0.7,2.4-1.6c7.1-10.5,11.8-22.5,13.7-35.1c2-13.2,1-26.6-3.1-39.3
		c-0.3-1-1-1.8-1.9-2.2c-0.9-0.5-2-0.6-2.9-0.2c-1,0.3-1.8,1-2.2,1.9C744.4,186.4,744.3,187.4,744.6,188.4L744.6,188.4z"/>
	<path class="st1" d="M773.8,218.3c-0.3,5.4-1,10.7-2.1,15.9c-2.5,11.9-7.2,23.3-13.7,33.7c-0.3,0.4-0.5,0.9-0.6,1.4
		c-0.1,0.5-0.1,1,0,1.5c0.1,0.5,0.3,1,0.6,1.4c0.3,0.4,0.7,0.8,1.1,1.1c0.4,0.3,0.9,0.5,1.4,0.5c0.5,0.1,1,0.1,1.5-0.1
		c0.5-0.1,1-0.3,1.4-0.6c0.4-0.3,0.8-0.7,1-1.1c7-11.1,12-23.3,14.7-36.1c0.5-2.1,0.9-4.3,1.2-6.5c0.5-3.5,0.9-7.1,1.1-10.6
		c0-0.5,0-1-0.2-1.5c-0.2-0.5-0.4-0.9-0.8-1.3c-0.3-0.4-0.7-0.7-1.2-0.9s-1-0.4-1.5-0.4c-0.5,0-1,0-1.5,0.2
		c-0.5,0.2-0.9,0.4-1.3,0.8c-0.4,0.3-0.7,0.8-0.9,1.2C773.9,217.3,773.8,217.8,773.8,218.3z"/>
	<path class="st1" d="M756.1,283.4c0.6-0.8,0.9-1.8,0.8-2.8c-0.1-1-0.6-1.9-1.4-2.5c-0.8-0.6-1.8-0.9-2.8-0.9
		c-1,0.1-1.9,0.5-2.6,1.3c-13.1,15.8-30.5,27.5-50.1,33.5c-0.5,0.1-0.9,0.4-1.3,0.7c-0.4,0.3-0.7,0.7-0.9,1.2
		c-0.2,0.4-0.4,0.9-0.4,1.4c0,0.5,0,1,0.2,1.5c0.2,0.5,0.4,0.9,0.7,1.3c0.3,0.4,0.7,0.7,1.2,0.9c0.4,0.2,0.9,0.4,1.4,0.4
		c0.5,0,1,0,1.5-0.2C723.4,312.9,742.1,300.4,756.1,283.4z"/>
	<path class="st1" d="M691.5,319.6c0.1-0.4,0.1-0.8,0-1.2c-0.2-1-0.7-1.9-1.6-2.5c-0.8-0.6-1.9-0.8-2.9-0.6c-11.2,2-22.7,2.1-34,0.3
		c-14.3-2.2-27.4-9.5-36.8-20.5c-0.3-0.4-0.7-0.7-1.2-1c-0.5-0.2-0.9-0.4-1.5-0.4c-0.5-0.1-1,0-1.5,0.2c-0.5,0.2-0.9,0.4-1.3,0.7
		c-0.4,0.3-0.7,0.7-0.9,1.2c-0.2,0.5-0.4,1-0.4,1.5c0,0.5,0,1,0.2,1.5c0.2,0.5,0.4,0.9,0.8,1.3c10.6,12.4,25.3,20.6,41.5,23.1
		c12.1,1.9,24.5,1.8,36.5-0.3c0.8-0.1,1.5-0.5,2.1-1.1C691,321.1,691.4,320.3,691.5,319.6z"/>
	<path class="st1" d="M607.3,289.6c0.4-0.2,0.8-0.6,1.2-0.9c0.3-0.4,0.6-0.8,0.7-1.3c0.1-0.5,0.2-1,0.1-1.5s-0.2-1-0.4-1.4
		c-6.2-11.4-8.4-24.4-6.4-37.2c1.5-9.4,5.1-18.3,10.7-26c5.6-7.7,13-14,21.5-18.3c0.5-0.2,0.9-0.5,1.2-0.9c0.3-0.4,0.6-0.8,0.8-1.3
		c0.2-0.5,0.2-1,0.2-1.5s-0.2-1-0.4-1.5c-0.2-0.5-0.6-0.9-1-1.2c-0.4-0.3-0.9-0.6-1.3-0.7s-1-0.2-1.5-0.2c-0.5,0.1-1,0.2-1.5,0.5
		c-9.6,4.9-17.9,11.9-24.2,20.6c-6.3,8.7-10.5,18.7-12.1,29.3c-2.2,14.4,0.3,29.1,7.2,42c0.2,0.4,0.6,0.8,1,1.2
		c0.4,0.3,0.8,0.6,1.3,0.7c0.5,0.1,1,0.2,1.5,0.1C606.4,290,606.9,289.8,607.3,289.6z"/>
	<path class="st1" d="M681.5,197.3c0.2-0.4,0.4-0.9,0.5-1.4c0.1-0.5,0-1-0.1-1.5c-0.1-0.5-0.4-0.9-0.7-1.3c-0.3-0.4-0.7-0.7-1.1-1
		c-2.4-1.3-5-2.2-7.6-2.6c-9.1-1.4-18.4-0.9-27.4,1.4c-0.9,0.3-1.7,0.9-2.2,1.8c-0.5,0.9-0.6,1.9-0.4,2.8c0.3,0.9,0.9,1.8,1.7,2.3
		c0.8,0.5,1.8,0.7,2.8,0.5c7.9-2,16.2-2.5,24.2-1.2c1.8,0.3,3.5,0.9,5.1,1.7c0.4,0.2,0.9,0.4,1.4,0.5c0.5,0.1,1,0,1.5-0.1
		c0.5-0.1,0.9-0.4,1.3-0.7C680.9,198.2,681.2,197.8,681.5,197.3z"/>
	<path class="st1" d="M727.1,180.2c0.7,1.2,1.4,2.5,2,3.8c5.7,11.9,7.7,25.3,5.7,38.3c-2.1,13.4-8.3,25.9-17.7,35.7
		c-9.4,9.8-21.6,16.5-35,19.3c-7.7,1.5-15.6,1.7-23.3,0.5c-5.7-0.9-10.9-4-14.3-8.6c-3.4-4.6-4.9-10.4-4-16.1
		c0.9-5.7,4-10.8,8.6-14.2c4.7-3.4,10.5-4.8,16.2-3.9c4,0.6,8,0.2,11.8-1.3c3.7-1.4,7-3.8,9.6-6.9c2.5-3.1,4.2-6.8,4.9-10.7
		c0.7-3.9,0.3-8-1.1-11.7c-0.4-1-1.1-1.7-2-2.2c-0.9-0.4-2-0.5-2.9-0.1c-1,0.4-1.7,1.1-2.2,2c-0.4,0.9-0.5,2-0.1,2.9
		c0.9,2.5,1.2,5.2,0.7,7.8c-0.4,2.6-1.6,5.1-3.3,7.1c-1.7,2.1-3.9,3.6-6.4,4.6c-2.5,1-5.2,1.2-7.8,0.8c-7.7-1.2-15.6,0.7-21.9,5.3
		c-6.3,4.6-10.5,11.5-11.7,19.2c-1.2,7.7,0.8,15.5,5.4,21.8c4.6,6.3,11.6,10.5,19.3,11.6c3.7,0.6,7.5,0.9,11.3,0.9
		c12.5,0,24.8-3.2,35.8-9.2c11-6,20.2-14.7,26.9-25.2c6.7-10.5,10.6-22.6,11.4-35c0.8-12.4-1.7-24.9-7-36.1
		c-0.7-1.4-1.4-2.8-2.2-4.2c-0.5-0.9-1.3-1.5-2.3-1.8c-1-0.3-2-0.2-2.9,0.3c-0.9,0.5-1.6,1.3-1.8,2.3
		C726.5,178.3,726.6,179.4,727.1,180.2L727.1,180.2z"/>
	<path class="st1" d="M710.1,186.5c-6.1-9.7-15.6-17-26.6-20.5c-1-0.3-2-0.2-2.9,0.3c-0.9,0.5-1.6,1.3-1.9,2.2c-0.3,1-0.2,2,0.3,2.9
		c0.5,0.9,1.3,1.6,2.3,1.9c9.8,3.1,18.2,9.8,23.3,18.7c5.1,8.9,6.7,19.4,4.3,29.4c-2.3,10-8.4,18.7-16.9,24.5
		c-8.6,5.7-19,8.1-29.2,6.5c-1-0.2-2,0.1-2.9,0.7c-0.8,0.6-1.4,1.5-1.5,2.5c-0.2,1,0.1,2,0.7,2.8c0.6,0.8,1.5,1.4,2.5,1.5
		c9.2,1.4,18.7,0.1,27.2-3.6s15.8-9.9,20.9-17.6c5.1-7.7,7.9-16.8,8-26.1C717.6,203.5,715,194.4,710.1,186.5z"/>
	<path class="st1" d="M603.9,183.4c-12.7,10-22.6,23.1-28.7,38c-6.1,14.9-8.1,31.2-6,47.2c0.1,1,0.7,1.9,1.5,2.5
		c0.8,0.6,1.8,0.9,2.8,0.8c1-0.1,1.9-0.7,2.5-1.5c0.6-0.8,0.9-1.8,0.8-2.8c-1.1-8-1-16.2,0.2-24.2c6.7-43.8,46.8-75.5,91.3-72.2
		c1,0.1,1.9-0.2,2.7-0.8c0.8-0.6,1.3-1.5,1.4-2.4c0-0.1,0-0.2,0-0.3c0-0.5,0-1-0.2-1.5c-0.2-0.5-0.4-0.9-0.7-1.3
		c-0.3-0.4-0.7-0.7-1.2-0.9c-0.5-0.2-0.9-0.4-1.4-0.4C645.6,161.7,622.3,168.8,603.9,183.4z"/>
	<path class="st1" d="M645.5,344.1c0-0.1,0-0.2,0-0.3c0.1-1-0.1-1.9-0.6-2.7c-0.5-0.8-1.4-1.4-2.3-1.6
		c-14.8-3.5-28.4-10.8-39.5-21.1c-11.1-10.4-19.2-23.5-23.5-38c-0.1-0.5-0.4-1-0.7-1.4c-0.3-0.4-0.7-0.7-1.2-1
		c-0.5-0.3-0.9-0.4-1.5-0.5c-0.5-0.1-1,0-1.5,0.1c-0.5,0.1-1,0.4-1.4,0.7s-0.7,0.7-1,1.2s-0.4,1-0.4,1.5s0,1,0.2,1.5
		c4.7,15.8,13.5,30,25.6,41.3c12,11.3,26.9,19.2,43,23c0.5,0.1,1,0.1,1.5,0c0.5-0.1,1-0.3,1.4-0.5c0.4-0.3,0.8-0.6,1.1-1
		C645.2,345,645.4,344.5,645.5,344.1z"/>
	<path class="st1" d="M732.8,332.6c0.1-0.7,0-1.4-0.3-2c-0.3-0.6-0.7-1.2-1.3-1.6c-0.6-0.4-1.2-0.7-1.9-0.7c-0.7-0.1-1.4,0.1-2,0.4
		c-22,10.9-46.6,15.4-71.1,13c-1-0.1-2,0.2-2.8,0.8c-0.8,0.6-1.3,1.6-1.4,2.6c-0.1,1,0.2,2,0.9,2.8c0.6,0.8,1.6,1.3,2.6,1.4
		c25.9,2.6,52-2.2,75.2-13.8c0.6-0.3,1-0.7,1.4-1.2C732.4,333.8,732.7,333.2,732.8,332.6z"/>
	<path class="st1" d="M785.7,270.8c-10.7,21-26.8,38.7-46.8,51.2c-0.5,0.2-0.9,0.6-1.2,1c-0.3,0.4-0.6,0.9-0.7,1.4
		c-0.1,0.5-0.2,1-0.1,1.6c0.1,0.5,0.3,1,0.6,1.5c0.3,0.4,0.7,0.8,1.1,1.1c0.4,0.3,0.9,0.5,1.5,0.6c0.5,0.1,1.1,0.1,1.6,0
		c0.5-0.1,1-0.3,1.4-0.7c21.1-13.3,38.2-32,49.5-54.2c0.4-0.9,0.5-1.9,0.1-2.9c-0.3-0.9-1-1.7-1.9-2.2c-0.9-0.4-1.9-0.5-2.9-0.2
		C787,269.3,786.2,269.9,785.7,270.8z"/>
	<path class="st1" d="M708.8,170.8c-0.4,0.3-0.7,0.7-0.9,1.2c-0.2,0.5-0.3,0.9-0.4,1.4c0,0.5,0.1,1,0.2,1.5s0.4,0.9,0.8,1.3
		c4.1,4.5,7.5,9.7,9.9,15.3c2.9,6.8,4.4,14.1,4.3,21.5c0,1,0.3,1.9,1,2.6c0.7,0.7,1.6,1.2,2.5,1.3c1,0.1,1.9-0.2,2.7-0.8
		c0.8-0.6,1.3-1.5,1.4-2.4c0-0.2,0-0.4,0-0.5c0.1-8.4-1.5-16.8-4.9-24.6c-2.7-6.4-6.5-12.3-11.3-17.5c-0.3-0.4-0.8-0.7-1.2-0.9
		c-0.5-0.2-1-0.3-1.5-0.4c-0.5,0-1,0.1-1.5,0.2S709.2,170.5,708.8,170.8z"/>
	<path class="st1" d="M653.2,255c0.4-2.3,1.6-4.4,3.6-5.8c1.9-1.4,4.3-2,6.7-1.6c6.6,1,13.4,0.2,19.5-2.4c0.9-0.4,1.6-1.2,2-2.1
		c0.4-0.9,0.3-2-0.1-2.9c-0.4-0.9-1.1-1.6-2.1-2c-0.9-0.4-2-0.4-2.9,0c-4.8,2-10.1,2.7-15.3,1.9c-4.4-0.7-8.8,0.4-12.4,3
		c-3.6,2.6-5.9,6.5-6.6,10.8c-0.7,4.3,0.4,8.8,3.1,12.3c2.6,3.5,6.5,5.9,10.9,6.6c15.1,2.3,30.4-1,43.1-9.4
		c12.7-8.3,21.9-21,25.7-35.6l0.1-0.4c0.1-0.5,0.1-1,0-1.5c-0.1-0.5-0.3-1-0.6-1.4c-0.3-0.4-0.6-0.8-1.1-1.1
		c-0.4-0.3-0.9-0.5-1.4-0.6c-0.5-0.1-1-0.1-1.5,0c-0.5,0.1-1,0.3-1.4,0.6c-0.4,0.3-0.8,0.6-1.1,1c-0.3,0.4-0.5,0.9-0.6,1.4
		c-3.3,12.8-11.3,24-22.4,31.2c-11.1,7.3-24.6,10.2-37.8,8.1c-2.4-0.4-4.5-1.6-5.9-3.5C653.4,259.7,652.8,257.3,653.2,255z"/>
	<path class="st1" d="M689.7,231.1c-0.3,0.4-0.6,0.8-0.8,1.3c-0.2,0.5-0.2,1-0.2,1.5c0,0.5,0.1,1,0.4,1.4c0.2,0.5,0.5,0.9,0.9,1.2
		c0.4,0.3,0.8,0.6,1.3,0.8c0.5,0.2,1,0.2,1.5,0.2c0.5,0,1-0.1,1.5-0.4c0.5-0.2,0.9-0.5,1.2-0.9c4.4-4.8,7.3-10.6,8.6-17
		c1.3-6.3,0.8-12.9-1.4-18.9c-2.2-6.1-6-11.5-11-15.6c-5-4.1-11-6.8-17.4-7.8c-12.3-1.9-24.8-1-36.6,2.7
		c-11.8,3.7-22.6,10.1-31.5,18.7c-0.4,0.3-0.7,0.8-0.9,1.2c-0.2,0.5-0.3,1-0.3,1.5c0,0.5,0.1,1,0.3,1.5c0.2,0.5,0.5,0.9,0.8,1.3
		c0.4,0.4,0.8,0.7,1.3,0.9c0.5,0.2,1,0.3,1.5,0.3c0.5,0,1-0.1,1.5-0.3c0.5-0.2,0.9-0.5,1.3-0.8c8.1-7.8,17.8-13.5,28.5-16.9
		c10.7-3.4,22-4.2,33.1-2.5c5,0.8,9.8,2.9,13.7,6.1c3.9,3.2,6.9,7.5,8.6,12.2c1.7,4.8,2.1,9.9,1.1,14.9
		C695.5,222.7,693.1,227.3,689.7,231.1z"/>
	<path class="st1" d="M602.8,213.7c0.3-0.4,0.5-0.9,0.6-1.4c0.1-0.5,0.1-1,0.1-1.5c-0.1-0.5-0.3-1-0.5-1.4c-0.3-0.4-0.6-0.8-1-1.1
		c-0.4-0.3-0.9-0.5-1.4-0.6c-0.5-0.1-1-0.1-1.5-0.1c-0.5,0.1-1,0.3-1.4,0.5c-0.4,0.3-0.8,0.6-1.1,1c-7.4,10.1-12.2,21.7-14.2,34l0,0
		c-0.1,0.5-0.1,1,0.1,1.5c0.1,0.5,0.3,0.9,0.6,1.4c0.6,0.8,1.5,1.4,2.5,1.5c1,0.2,2-0.1,2.9-0.7c0.8-0.6,1.4-1.5,1.5-2.5
		C591.7,233.4,596.1,222.9,602.8,213.7z"/>
	<path class="st1" d="M581.3,257.8c0.3,14.3,4.4,28.2,11.9,40.4c7.5,12.2,18.1,22.2,30.8,28.9c0.9,0.5,2,0.6,2.9,0.3s1.8-1,2.3-1.9
		c0.2-0.4,0.4-0.8,0.4-1.2c0.1-0.8,0-1.6-0.4-2.3c-0.4-0.7-0.9-1.3-1.6-1.7c-11.4-6.1-21.1-15.1-27.8-26.2
		c-6.8-11-10.5-23.6-10.8-36.5c0-0.5-0.1-1-0.3-1.5c-0.2-0.5-0.5-0.9-0.9-1.3c-0.4-0.4-0.8-0.6-1.3-0.8c-0.5-0.2-1-0.3-1.5-0.3
		c-0.5,0-1,0.1-1.5,0.3c-0.5,0.2-0.9,0.5-1.2,0.9c-0.4,0.4-0.6,0.8-0.8,1.3C581.4,256.7,581.3,257.2,581.3,257.8L581.3,257.8z"/>
	<path class="st1" d="M784.7,234.6c-0.4,2.2-0.9,4.5-1.5,6.7c-7.1,28.3-24.6,52.8-49.1,68.9s-54.1,22.5-83,17.9
		c-3.9-0.6-7.7-1.5-11.5-2.7c-0.5-0.2-1-0.2-1.5-0.2c-0.5,0-1,0.2-1.5,0.4c-0.5,0.2-0.9,0.5-1.2,0.9c-0.3,0.4-0.6,0.8-0.7,1.3
		c-0.2,0.5-0.2,1-0.2,1.5c0,0.5,0.2,1,0.4,1.5c0.2,0.5,0.6,0.9,1,1.2c0.4,0.3,0.9,0.6,1.4,0.7c4.1,1.3,8.4,2.3,12.7,3
		c30.8,4.7,62.3-2.2,88.3-19.3s44.7-43.2,52.4-73.2c0.6-2.3,1.1-4.7,1.6-7.1l0-0.2c0.2-1-0.1-2-0.7-2.9s-1.5-1.4-2.5-1.6
		c-1-0.2-2,0.1-2.9,0.6C785.4,232.7,784.8,233.6,784.7,234.6L784.7,234.6z"/>
</g>
<ellipse class="st2" cx="641.5" cy="367.1" rx="147.4" ry="5.1"/>
<path class="st3" d="M454.7,302.3c23.8,0,43.2-19.3,43.2-43.2c0-23.8-19.3-43.2-43.2-43.2s-43.2,19.3-43.2,43.2
	C411.5,283,430.8,302.3,454.7,302.3z"/>
<path class="st4" d="M574.9,193H450.1c-1.1,0-1.9,0.8-1.9,1.8v18.4c0,1,0.9,1.8,1.9,1.8h124.7c1.1,0,1.9-0.8,1.9-1.8v-18.4
	C576.8,193.8,575.9,193,574.9,193z"/>
<path class="st5" d="M576.7,191.2H448.3c-1.1,0-1.9,0.9-1.9,1.9V215c0,1.1,0.9,1.9,1.9,1.9h128.4c1.1,0,1.9-0.9,1.9-1.9v-21.8
	C578.6,192.1,577.8,191.2,576.7,191.2z"/>
<g>
	<path class="st6" d="M217,6.1c0-0.2,0-0.5-0.1-0.7c0-0.3-0.1-0.6-0.2-0.9c-0.1-0.6-0.3-1.3-0.5-1.9c-0.1-0.4-0.2-0.7-0.4-1.1
		c-0.1-0.2-0.1-0.3-0.2-0.5c0-0.1-0.1-0.1-0.2-0.2c-0.1-0.1-0.2-0.2-0.3-0.2c-0.1,0-0.1,0-0.2,0c-0.1,0-0.2,0-0.2,0.1
		c-0.1,0-0.1,0-0.2,0.1c-0.1,0.1-0.2,0.1-0.3,0.2c-0.2,0.2-0.4,0.4-0.7,0.6c-0.5,0.5-1.1,1.1-1.6,1.8c-0.3,0.4-0.6,0.8-0.9,1.1
		c-0.1,0.2-0.2,0.3-0.3,0.5c0,0.1-0.1,0.2-0.1,0.2c0,0.1,0,0.1,0,0.2c0,0.1,0,0.1,0,0.2c0,0.1,0.1,0.2,0.2,0.2c0,0,0.1,0.1,0.2,0.1
		c0.1,0,0.1,0,0.2,0c0.1,0,0.1,0,0.2,0l0.1-0.1c0.3-0.1,0.6-0.2,0.9-0.3c0.3-0.1,0.5-0.1,0.8-0.1c0.4,0,0.8,0.1,1.2,0.3
		c0.6,0.3,1.1,0.6,1.6,1c0,0,0.1,0.1,0.1,0.1c0.1,0,0.1,0,0.2,0c0.1,0,0.2,0,0.3-0.1c0.1,0,0.1-0.1,0.2-0.2c0.1-0.1,0.1-0.2,0.1-0.3
		c0,0,0-0.1,0-0.1C217,6.2,217.1,6.1,217,6.1L217,6.1z"/>
	
		<linearGradient id="SVGID_1_" gradientUnits="userSpaceOnUse" x1="100.5287" y1="494.6264" x2="112.6247" y2="561.4544" gradientTransform="matrix(1 0 0 -1 0 540.754)">
		<stop  offset="0" style="stop-color:#FF9100"/>
		<stop  offset="0.52" style="stop-color:#F10366"/>
		<stop  offset="1" style="stop-color:#6173FF"/>
	</linearGradient>
	<path class="st7" d="M1.5,5.7c17.7,16.4,40.2,29,95.1,31.8c89.9,4.5,116-25,117.5-31.8"/>
</g>
<g>
	<path class="st8" d="M443.6,222.5c0-1.6,1.3-2.9,2.9-2.9h131.7c1.6,0,2.9,1.3,2.9,2.9v56.7c0,1.6-1.3,2.9-2.9,2.9H446.5
		c-1.6,0-2.9-1.3-2.9-2.9V222.5z"/>
	<path class="st9" d="M443.8,222.5c0-1.5,1.2-2.7,2.7-2.7h131.7c1.5,0,2.7,1.2,2.7,2.7v56.7c0,1.5-1.2,2.7-2.7,2.7H446.5
		c-1.5,0-2.7-1.2-2.7-2.7V222.5z"/>
</g>
<g>
	<defs>
		<rect id="SVGID_00000180347344517564094830000014415948043297952429_" x="450.8" y="244.8" width="10.3" height="10.3"/>
	</defs>
	<clipPath id="SVGID_00000093866136889288700230000015903534553064695192_">
		<use xlink:href="#SVGID_00000180347344517564094830000014415948043297952429_"  style="overflow:visible;"/>
	</clipPath>
	<g style="clip-path:url(#SVGID_00000093866136889288700230000015903534553064695192_);">
		
			<linearGradient id="SVGID_00000054264582530634475300000009060803534944971421_" gradientUnits="userSpaceOnUse" x1="450.8324" y1="290.929" x2="460.2286" y2="290.929" gradientTransform="matrix(1 0 0 -1 0 540.754)">
			<stop  offset="0" style="stop-color:#9059FF"/>
			<stop  offset="1" style="stop-color:#F770FF"/>
		</linearGradient>
		<path style="fill:url(#SVGID_00000054264582530634475300000009060803534944971421_);" d="M459.8,247l-3.8-2.1
			c-0.1-0.1-0.3-0.1-0.4-0.1c-0.2,0-0.3,0-0.4,0.1l-3.8,2.1c-0.1,0.1-0.3,0.2-0.3,0.3c-0.1,0.1-0.1,0.3-0.1,0.4v4.1
			c0,0.2,0,0.3,0.1,0.4c0.1,0.1,0.2,0.2,0.3,0.3l3.8,2.1c0.1,0.1,0.3,0.1,0.4,0.1c0.2,0,0.3,0,0.4-0.1l3.8-2.1
			c0.1-0.1,0.3-0.2,0.3-0.3c0.1-0.1,0.1-0.3,0.1-0.4v-4.1c0-0.2,0-0.3-0.1-0.4C460,247.2,459.9,247.1,459.8,247z"/>
		<path class="st12" d="M452.9,250.9l-0.2,0.1c0,0-0.1,0.1-0.1,0.1c0,0,0,0.1-0.1,0.1c0,0,0,0.1,0,0.1c0,0,0,0.1,0,0.1
			c0,0.1,0.1,0.1,0.1,0.1c0.1,0,0.1,0,0.2,0.1c0.1,0,0.1,0,0.2,0l0.2-0.1c0,0,0.1-0.1,0.1-0.1c0,0,0-0.1,0.1-0.1c0,0,0-0.1,0-0.1
			s0-0.1,0-0.1c0,0,0-0.1-0.1-0.1c0,0-0.1-0.1-0.1-0.1c0,0-0.1,0-0.1,0C453,250.9,452.9,250.9,452.9,250.9z M454.3,250.1l-0.5,0.3
			c0,0-0.1,0.1-0.1,0.1c0,0,0,0.1-0.1,0.1c0,0,0,0.1,0,0.1c0,0,0,0.1,0,0.1c0,0.1,0.1,0.1,0.1,0.1s0.1,0,0.2,0.1c0.1,0,0.1,0,0.2,0
			l0.5-0.3c0,0,0.1-0.1,0.1-0.1c0,0,0-0.1,0.1-0.1c0,0,0-0.1,0-0.1c0,0,0-0.1,0-0.1c0,0,0-0.1-0.1-0.1c0,0-0.1-0.1-0.1-0.1
			c0,0-0.1,0-0.1,0C454.4,250.1,454.3,250.1,454.3,250.1z M456.2,249.5C456.1,249.5,456.1,249.4,456.2,249.5
			c-0.1-0.1-0.1-0.1-0.2-0.2v-2.6c0,0,0-0.1,0-0.1c0,0,0-0.1-0.1-0.1c0,0-0.1-0.1-0.1-0.1c0,0-0.1,0-0.1,0c0,0-0.1,0-0.1,0
			c0,0-0.1,0-0.1,0.1c0,0-0.1,0.1-0.1,0.1c0,0,0,0.1,0,0.1v2.6c0,0-0.1,0-0.1,0.1c0,0-0.1,0.1-0.1,0.1c0,0,0,0.1,0,0.1
			c0,0.1,0,0.1,0,0.2c0,0,0,0.1,0,0.2c0,0.1,0,0.1,0,0.1c0,0,0,0.1,0.1,0.1c0,0,0.1,0,0.1,0.1v2.6c0,0.1,0,0.2,0.1,0.2
			c0.1,0.1,0.2,0.1,0.3,0.1c0.1,0,0.2,0,0.3-0.1c0.1-0.1,0.1-0.2,0.1-0.2v-2.6c0,0,0.1,0,0.1-0.1c0,0,0.1-0.1,0.1-0.1
			c0,0,0-0.1,0-0.1c0-0.1,0-0.1,0-0.2C456.2,249.7,456.2,249.6,456.2,249.5z M457.1,248.6l-0.5,0.3c0,0-0.1,0.1-0.1,0.1
			c0,0-0.1,0.1-0.1,0.1c0,0,0,0.1,0,0.1c0,0,0,0.1,0,0.1c0,0.1,0.1,0.1,0.1,0.1c0.1,0,0.1,0,0.2,0.1c0.1,0,0.1,0,0.2,0l0.5-0.3
			c0,0,0.1-0.1,0.1-0.1c0,0,0-0.1,0.1-0.1c0,0,0-0.1,0-0.1c0,0,0-0.1,0-0.1c0,0,0-0.1-0.1-0.1s-0.1-0.1-0.1-0.1c0,0-0.1,0-0.1,0
			C457.2,248.6,457.1,248.6,457.1,248.6z M458.2,248.7c0.1,0,0.1,0,0.2,0l0.2-0.1c0,0,0.1-0.1,0.1-0.1c0,0,0-0.1,0.1-0.1
			c0,0,0-0.1,0-0.1c0,0,0-0.1,0-0.1c0,0-0.1-0.1-0.1-0.1c0,0-0.1,0-0.1-0.1c0,0-0.1,0-0.1,0c0,0-0.1,0-0.1,0l-0.2,0.1
			c0,0-0.1,0.1-0.1,0.1c0,0,0,0.1-0.1,0.1c0,0,0,0.1,0,0.1s0,0.1,0,0.1c0,0.1,0.1,0.1,0.1,0.1C458.1,248.7,458.1,248.7,458.2,248.7z
			 M458.6,251l-0.2-0.1c-0.1,0-0.2-0.1-0.3,0c-0.1,0-0.2,0.1-0.2,0.2c0,0.1-0.1,0.2,0,0.3c0,0.1,0.1,0.2,0.2,0.2l0.2,0.1
			c0.1,0,0.1,0,0.2,0c0.1,0,0.1,0,0.2-0.1c0.1,0,0.1-0.1,0.1-0.1c0,0,0-0.1,0-0.1c0,0,0-0.1,0-0.1c0,0,0-0.1-0.1-0.1
			C458.7,251.1,458.6,251.1,458.6,251z M457.4,250.4l-0.5-0.3c0,0-0.1,0-0.1,0c0,0-0.1,0-0.1,0c0,0-0.1,0-0.1,0.1
			c0,0-0.1,0.1-0.1,0.1c0,0,0,0.1,0,0.1c0,0,0,0.1,0,0.1c0,0,0,0.1,0.1,0.1c0,0,0.1,0.1,0.1,0.1l0.5,0.3c0.1,0,0.1,0,0.2,0
			c0.1,0,0.1,0,0.2-0.1c0.1,0,0.1-0.1,0.1-0.1c0,0,0-0.1,0-0.1c0,0,0-0.1,0-0.1s0-0.1-0.1-0.1C457.5,250.5,457.5,250.4,457.4,250.4z
			 M453.8,249.2l0.5,0.3c0.1,0,0.1,0,0.2,0c0.1,0,0.1,0,0.2-0.1c0.1,0,0.1-0.1,0.1-0.1c0,0,0-0.1,0-0.1c0,0,0-0.1,0-0.1
			c0,0,0-0.1-0.1-0.1c0,0-0.1-0.1-0.1-0.1l-0.5-0.3c0,0-0.1,0-0.1,0c0,0-0.1,0-0.1,0c0,0-0.1,0-0.1,0.1c0,0-0.1,0.1-0.1,0.1
			c0,0.1-0.1,0.2,0,0.3C453.7,249.1,453.7,249.2,453.8,249.2z M453.2,248.1L453,248c0,0-0.1,0-0.1,0c0,0-0.1,0-0.1,0
			c0,0-0.1,0-0.1,0.1c0,0-0.1,0.1-0.1,0.1c0,0,0,0.1,0,0.1c0,0,0,0.1,0,0.1c0,0,0,0.1,0.1,0.1c0,0,0.1,0.1,0.1,0.1l0.2,0.1
			c0.1,0,0.1,0,0.2,0c0.1,0,0.1,0,0.2-0.1c0.1,0,0.1-0.1,0.1-0.1c0,0,0-0.1,0-0.1c0,0,0-0.1,0-0.1c0,0,0-0.1-0.1-0.1
			C453.3,248.2,453.3,248.1,453.2,248.1z"/>
	</g>
</g>
<circle class="st13" cx="452.3" cy="228.3" r="1.3"/>
<line class="st13" x1="456.6" y1="228.1" x2="453.3" y2="228.1"/>
<line class="st13" x1="455.7" y1="228.3" x2="455.7" y2="229.4"/>
<line class="st14" x1="445.2" y1="237.5" x2="579.6" y2="237.5"/>
<linearGradient id="SVGID_00000141415884671770142540000003977826604456973453_" gradientUnits="userSpaceOnUse" x1="512.3749" y1="277.956" x2="512.3749" y2="259.9874" gradientTransform="matrix(1 0 0 -1 0 540.754)">
	<stop  offset="0" style="stop-color:#ECECEC;stop-opacity:0.9"/>
	<stop  offset="1" style="stop-color:#CCCCCC;stop-opacity:0.6"/>
</linearGradient>
<path style="fill:url(#SVGID_00000141415884671770142540000003977826604456973453_);" d="M447.9,262.8h129c1.6,0,2.9,1.3,2.9,2.9
	v12.2c0,1.6-1.3,2.9-2.9,2.9h-129c-1.6,0-2.9-1.3-2.9-2.9v-12.2C445,264.1,446.3,262.8,447.9,262.8z"/>
<path class="st16" d="M474.4,268.5h48.9c0.7,0,1.3,0.6,1.3,1.3l0,0c0,0.7-0.6,1.3-1.3,1.3h-48.9c-0.7,0-1.3-0.6-1.3-1.3l0,0
	C473,269.1,473.6,268.5,474.4,268.5z"/>
<path class="st1" d="M468.4,227h87.2c1,0,1.8,0.8,1.8,1.8l0,0c0,1-0.8,1.8-1.8,1.8h-87.2c-1,0-1.8-0.8-1.8-1.8l0,0
	C466.6,227.8,467.4,227,468.4,227z"/>
<path class="st1" d="M468.4,244.5h79c1,0,1.8,0.8,1.8,1.8l0,0c0,1-0.8,1.8-1.8,1.8h-79c-1,0-1.8-0.8-1.8-1.8l0,0
	C466.6,245.3,467.4,244.5,468.4,244.5z"/>
<path class="st1" d="M468,251.8h88.2c0.8,0,1.4,0.6,1.4,1.4v0c0,0.8-0.6,1.4-1.4,1.4H468c-0.8,0-1.4-0.6-1.4-1.4v0
	C466.6,252.4,467.2,251.8,468,251.8z"/>
<linearGradient id="SVGID_00000018944057076815256480000008631636864778889346_" gradientUnits="userSpaceOnUse" x1="451.6771" y1="279.1887" x2="458.6771" y2="302.0325" gradientTransform="matrix(1 0 0 -1 0 540.754)">
	<stop  offset="0" style="stop-color:#FF9100"/>
	<stop  offset="0.52" style="stop-color:#F10366"/>
	<stop  offset="1" style="stop-color:#6173FF"/>
</linearGradient>
<path style="fill:url(#SVGID_00000018944057076815256480000008631636864778889346_);" d="M460.6,255.9c-0.1,0.1-0.2,0.2-0.2,0.3
	c0,0.1,0,0.3,0.1,0.4l0,0l3.5,4.3c0.1,0.1,0.2,0.2,0.4,0.2c0.1,0,0.3,0,0.4-0.1c0.1-0.1,0.2-0.2,0.2-0.3c0-0.1,0-0.3-0.1-0.4l0,0
	l-3.5-4.4c-0.1-0.1-0.2-0.2-0.4-0.2C460.9,255.8,460.7,255.8,460.6,255.9z M464.2,251.2c0,0.1,0,0.3,0,0.4c0.1,0.1,0.1,0.2,0.3,0.3
	l0.1,0l5.3,1.8c0.1,0,0.3,0,0.4,0c0.1-0.1,0.2-0.2,0.3-0.3c0-0.1,0-0.3,0-0.4c-0.1-0.1-0.1-0.2-0.3-0.3l-0.1,0l-5.3-1.8
	c-0.1,0-0.3,0-0.4,0C464.4,250.9,464.3,251,464.2,251.2z M455.3,258c-0.1,0-0.3,0.1-0.4,0.2c-0.1,0.1-0.1,0.3-0.1,0.4l0.6,5.6l0,0.1
	c0,0.1,0.1,0.3,0.2,0.3c0.1,0.1,0.2,0.1,0.4,0.1c0.1,0,0.3-0.1,0.4-0.2c0.1-0.1,0.1-0.3,0.1-0.4l-0.6-5.6l0-0.1
	c0-0.1-0.1-0.3-0.2-0.3C455.6,258,455.4,258,455.3,258z M439.8,246.8c0,0.1,0,0.3,0,0.4c0.1,0.1,0.1,0.2,0.3,0.3l0,0l5.3,1.8
	c0.1,0,0.1,0,0.2,0c0.1,0,0.1,0,0.2-0.1c0.1,0,0.1-0.1,0.2-0.1s0.1-0.1,0.1-0.2c0-0.1,0-0.3,0-0.4c-0.1-0.1-0.2-0.2-0.3-0.3l0,0
	l-5.3-1.8c-0.1,0-0.1,0-0.2,0c-0.1,0-0.1,0-0.2,0.1c-0.1,0-0.1,0.1-0.2,0.1S439.9,246.8,439.8,246.8z M453.5,234.9
	c-0.1,0-0.3,0.1-0.4,0.2c-0.1,0.1-0.1,0.3-0.1,0.4l0.6,5.6l0,0.1c0,0.1,0.1,0.3,0.2,0.3c0.1,0.1,0.2,0.1,0.4,0.1
	c0.1,0,0.3-0.1,0.4-0.2c0.1-0.1,0.1-0.3,0.1-0.4l-0.6-5.6l0-0.1c0-0.1-0.1-0.3-0.2-0.3C453.7,234.9,453.6,234.9,453.5,234.9
	L453.5,234.9z M445.2,239.1c-0.1,0.1-0.2,0.2-0.2,0.3c0,0.1,0,0.3,0.1,0.4l0,0l3.5,4.4c0.1,0.1,0.2,0.2,0.4,0.2c0.1,0,0.3,0,0.4-0.1
	s0.2-0.2,0.2-0.4c0-0.1,0-0.3-0.1-0.4l0,0l-3.5-4.4c-0.1-0.1-0.2-0.2-0.4-0.2C445.5,238.9,445.4,239,445.2,239.1L445.2,239.1z"/>
<path class="st18" d="M737.7,207.8c9.1,2.3,25.7,10.4,29.2,24.2c5.2,20.8-5.2,51.3,11.4,81.2c5.3,9.5-91.6,22.3-91.6,22.3L668,230.5
	c0,0,23.4-22.8,28.1-24.4C705.9,202.9,719.6,203.3,737.7,207.8z"/>
<path class="st19" d="M667.7,230.5c-3.4,8.4-11.9,58.3-2.3,70.1c1.1,1.4-4.9,3.5-3.9,9.7c0.2,1,2,6,2,6l7.8,2l23.4-13.3l-4.6-5.4
	h-2.1c-0.6-0.5-1-1.2-1.2-1.9c-0.3-0.7-0.3-1.5-0.2-2.3c0.5-2.3-5.4-6-14.3-44.8C669.7,239.3,668.5,228.7,667.7,230.5z"/>
<path class="st20" d="M676.8,298.3l6.8-1.5l2.8-0.4c0.1,1.3,0.6,2.4,1.6,3.3l-5.4,0.2l-6.3,1.4l-7.6,4.3L676.8,298.3z"/>
<path class="st21" d="M686.7,304.7c-3.5,0.1-6.9,1-9.9,2.7c-3.4,2.1-6.6,6.8-3.5,9.3c2.6,1.9,5.3,3.5,8.1,4.9
	C681.4,321.6,693.6,322,686.7,304.7z"/>
<path class="st22" d="M673.3,317l3.3-0.7c0,0,11.2-1,12.8-0.1c1.6,0.9,6.8,4.4,6.8,4.4l1,1c-1,0.4-2,0.6-3.1,0.5
	c-1-0.1-2-0.6-2.8-1.3c-3.4-2.3-3.7-0.5-3.7-0.5l0.6,3v3.8l0.5,1.6c0,0,0.5,0.9,0.1,1.2c-0.3,0.3-0.6,0.5-1,0.5
	c-0.4,0.1-0.8,0.1-1.1-0.1l-3.4-6l-0.9,6.5c-0.2,0.3-0.4,0.5-0.6,0.7c-0.3,0.2-0.6,0.3-0.9,0.4c-1,0.2-1,0-1,0l-0.8-1.7
	c-0.1,0.4-0.3,0.8-0.7,1.1c-0.6,0.4-1.3,0.6-2,0.6l0.3-6.8l-1.4,3.5c-0.4,0.6-0.9,0.9-1.6,1.1l-1.4,0.4L673.3,317z"/>
<path class="st23" d="M731.5,290.2c0,0-8.1,20.5-27.7,26.2c-3.4,0.9-5.5,4.6-3.8,5.8c2.1,1.5,5,1.8,9.9,1.8
	c10.2,0,24.2-3.2,33.8-12.5c14.3-13.7,18.8-20.1,17.3-27C759.5,277.5,731.5,290.2,731.5,290.2z"/>
<path class="st19" d="M764.1,225.1c4.2,6.8,6.6,17.8,6.5,33.4c0,12.1-10.5,31.9-12.1,38.1c-0.3,1-0.9,5.4-0.9,5.4l-11.6,11.4
	l-23.3-15.8l7.1-10.9l2.1,0.2c0.6-2.7,1-5.5,1-8.3c-0.4-2.3,6.4-33.6,9.8-53.6C744.7,213.5,760,218.3,764.1,225.1z"/>
<path class="st24" d="M743.3,286.5l-6.8-2.1l-2.8-0.7c-0.2,1.2-0.8,2.4-1.8,3.2l5.3,0.6l6.2,1.9l7.2,4.9L743.3,286.5z"/>
<path class="st23" d="M705.2,316.3l-11.8-3.3c0,0-3.4,4.6-2.7,5.6c0.6,1.1,0,7.8,0,7.8l5.8,4.9l4.6-1.6c0,0,0.3-2-1.3-2.3
	c-1.6-0.3,1.1-1.4,1.9-1.8C702.4,325.2,709.4,321.7,705.2,316.3z"/>
<path class="st22" d="M708.2,185.3l-6.7,2.4c-3.8,1.3-5.8,5.4-4.4,9.2l6,17.1c1.3,3.8,5.4,5.8,9.2,4.4l6.7-2.4
	c3.8-1.3,5.8-5.4,4.4-9.2l-6-17.1C716.1,186,712,184,708.2,185.3z"/>
<path class="st23" d="M694.1,221.8c0.3,1.2,1.1,2.2,2.2,2.8c1.1,0.6,2.4,0.8,3.6,0.4l20.3-5.6c0.6-0.1,1.2-0.4,1.7-0.8
	c0.5-0.4,0.9-0.8,1.2-1.4c0.3-0.5,0.5-1.1,0.6-1.7c0.1-0.6,0-1.2-0.2-1.8l-8.3-30c-0.3-1.2-1.1-2.2-2.2-2.8
	c-1.1-0.6-2.4-0.8-3.5-0.4l-20.3,5.6c-0.6,0.1-1.2,0.4-1.7,0.8c-0.5,0.4-0.9,0.8-1.2,1.4c-0.3,0.5-0.5,1.1-0.6,1.7
	c-0.1,0.6,0,1.2,0.2,1.8L694.1,221.8z"/>
<path class="st25" d="M687.5,198c-1.7-1-3.3-2.3-4.6-3.8c-0.3-1.1-0.4-2.3-0.2-3.4c0.2-1.1,0.7-2.2,1.5-3c1.9-1.9,4.4,0,4.4,0
	s-3,3-3,3.8S687.5,198,687.5,198z"/>
<path class="st25" d="M720.9,196.7c0,0,0-12.4-1.6-15.6c-1.6-3.2-2.5-5.5-6.8-4.7c-6.3,1.1-6,2.5-9.6,1.4c-3.5-1-10.2-4.1-12.2-4
	c-1-0.1-2.1,0.1-3,0.6s-1.8,1.1-2.4,1.9c-0.6,0.8-1.1,1.8-1.2,2.8c-0.2,1-0.1,2.1,0.2,3.1c0.3,1.1,0.4,2.2,0.2,3.3
	c-0.2,1.1-0.7,2.1-1.4,3c0.4,0.5,1.7,0.7,3.9,1.1c6.4,1.3,10,0.9,14-1.4c4-2.3,11.4-7,13.2-4.1c1.8,2.9,4.1,12.8,4.7,13.5
	C719.3,198.1,720.3,197.4,720.9,196.7z"/>
<path class="st23" d="M717,207.4c0.1,0.2,0.1,0.4,0.3,0.5c0.1,0.2,0.3,0.3,0.5,0.4c0.2,0.1,0.4,0.2,0.6,0.2c0.2,0,0.4,0,0.6,0
	l4.4-1.2c0.2-0.1,0.4-0.1,0.5-0.3c0.2-0.1,0.3-0.3,0.4-0.5c0.1-0.2,0.2-0.4,0.2-0.6c0-0.2,0-0.4,0-0.6l-2.3-8
	c-0.1-0.4-0.4-0.7-0.7-0.9c-0.4-0.2-0.8-0.3-1.2-0.2l-4.4,1.2c-0.2,0.1-0.4,0.1-0.5,0.3c-0.2,0.1-0.3,0.3-0.4,0.5
	c-0.1,0.2-0.2,0.4-0.2,0.6c0,0.2,0,0.4,0,0.6L717,207.4z"/>
<path class="st23" d="M690.8,214.6c0.1,0.4,0.4,0.7,0.7,0.9c0.4,0.2,0.8,0.3,1.2,0.2l4.4-1.2c0.4-0.1,0.7-0.4,0.9-0.7
	c0.2-0.4,0.3-0.8,0.2-1.2l-2.3-8c-0.1-0.2-0.1-0.4-0.3-0.5c-0.1-0.2-0.3-0.3-0.5-0.4c-0.2-0.1-0.4-0.2-0.6-0.2c-0.2,0-0.4,0-0.6,0
	l-4.4,1.2c-0.2,0.1-0.4,0.1-0.5,0.3c-0.2,0.1-0.3,0.3-0.4,0.5c-0.1,0.2-0.2,0.4-0.2,0.6c0,0.2,0,0.4,0,0.6L690.8,214.6z"/>
<path class="st25" d="M719.7,199.8l4.4,15.8c1,3.6,1.7,11.8-18.4,17.3c-11.9,3.3-13.9-5.6-14.7-8.5c-0.5-3.7-0.1-7.5,1-11l1.3,4.9
	c0.4-1.7,1.3-3.2,2.5-4.4c1.2-1.2,2.7-2.1,4.4-2.6c9.1-2.5,12.7,2.3,16.7,1.1C719.8,211.4,720.8,205.7,719.7,199.8z"/>
<path class="st23" d="M705.9,218l-6.3,1.7c-0.2,0.1-0.4,0.1-0.6,0s-0.4-0.1-0.6-0.2c-0.2-0.1-0.3-0.2-0.5-0.4
	c-0.1-0.2-0.2-0.3-0.3-0.5l-0.2-0.8l9.2-2.6l0.3,0.9c0.1,0.2,0.1,0.4,0,0.6c0,0.2-0.1,0.4-0.2,0.6c-0.1,0.2-0.2,0.3-0.4,0.5
	C706.3,217.9,706.1,217.9,705.9,218z"/>
<path class="st25" d="M607.1,337.9c2.9,8,53.5,37.3,70.4,35.6l51.1,2.4c43.4-5.3,64-72.8,64-72.8c-1.7-16.9-44.5,7.6-59.8,15.2
	c-24.2,12-39.5,12.7-39.5,12.7c-16.2,1.6-34.9-10.8-55.3-11.2C615.6,319.3,602.5,325.3,607.1,337.9z"/>
<path class="st26" d="M718.2,329.8v-2.1l-88-1.6v2.1l0.2,0.4c0.6,0.8,1.4,1.5,2.4,1.9c1,0.4,2,0.5,3,0.4l76.6,1.4
	c1,0.2,2.1,0.1,3-0.3c1-0.4,1.8-1,2.5-1.8L718.2,329.8z"/>
<path class="st27" d="M697,329.7l0.2,0.3c0.3,0.5,0.8,0.8,1.3,1.1l13.4,0.2c1,0.2,1.9,0.1,2.8-0.2c0.9-0.3,1.8-0.8,2.4-1.5l0.2-0.3
	v-1L697,328L697,329.7z"/>
<path class="st28" d="M685.1,329l-44-0.8l0-1.5l44,0.8L685.1,329z"/>
<path class="st29" d="M696.5,327.1l-10.6-43.3c-0.2-0.6-0.5-1.1-1-1.5c-0.5-0.4-1-0.6-1.6-0.6l-61.6-1.1c-0.3,0-0.5,0-0.7,0.1
	c-0.2,0.1-0.4,0.3-0.6,0.5c-0.2,0.2-0.3,0.4-0.3,0.7c0,0.2,0,0.5,0.1,0.7l10.6,43.3L696.5,327.1z"/>
<path class="st23" d="M736.4,387.1c-6.1,1-10.7-6-10.7-6l-15.7-12.4l3.3-8.4l30.6,13.7C743.9,374.1,742.4,386.1,736.4,387.1z"/>
<path class="st30" d="M725.6,380.6c0.2,1.4,0.6,2.7,1.2,4c1.2,3.2,2.6,4.3,4.1,4.8c5.9,1.7,10.1,0.9,24.2,3.6
	c14.1,2.7,18.3,0.7,22.5-5.8c4.2-6.5-0.2-11.6-7.1-12.1c-10-0.8-15.5,0.4-20.7-0.4c-5.2-0.8-5.8-2-9-4s-5.8,9.1-2.9,11.6
	C740.8,384.7,727.7,384.8,725.6,380.6z"/>
<path class="st8" d="M728.6,386.9c5.9,1.7,10.1,0.8,24.2,3.6c14.1,2.7,18.3,0.7,22.5-5.8c0.9-1.1,1.4-2.4,1.5-3.8
	c0.2-1.4-0.1-2.8-0.7-4c3.1,2.1,4.2,5.9,1.4,10.3c-4.1,6.5-8.4,8.5-22.5,5.8c-14.1-2.7-18.3-1.8-24.2-3.6c-0.7-0.2-1.4-0.6-1.9-1.1
	c-0.6-0.5-1-1.1-1.3-1.8C727.9,386.7,728.3,386.8,728.6,386.9z"/>
<path class="st23" d="M725.7,380.8c0-0.1,0-0.1,0-0.2l0.1,0.2L725.7,380.8z"/>
<path class="st8" d="M756.1,385.7c0.5,0.2,0.8-0.7,1-1.9c0.3-2.5,0.8-4.9,1.6-7.3c0.4-1.2,0.4-2.3,0-2.4c-0.4-0.1-1.3,0.7-1.7,1.9
	c-0.8,2.3-1.3,4.7-1.6,7.2C755.4,384.4,755.7,385.5,756.1,385.7z"/>
<path class="st8" d="M751.8,384.9c0.5,0,0.9-0.7,1-1.8c0.3-2.3,0.8-4.6,1.6-6.8c0.4-1.1,0.4-2.1-0.1-2.2c-0.5-0.1-1.3,0.8-1.7,1.9
	c-0.8,2.2-1.3,4.5-1.5,6.8C750.8,383.9,751.3,384.8,751.8,384.9z"/>
<path class="st8" d="M747.2,384.7c0.5,0,1-0.8,1.2-2c0.4-2.4,1-4.8,1.9-7c0.4-1.2,0.5-2.1,0-2.3c-0.5-0.1-1.4,0.9-1.8,2
	c-0.9,2.3-1.5,4.6-1.8,7C746.3,383.7,746.7,384.7,747.2,384.7z"/>
<path class="st31" d="M735.3,367c0,0-108.1-44.4-114.3-44.4c-20.9-0.2-16.1,20.9-5.5,30.8c12.5,11.7,107.3,33.2,107.3,33.2
	L735.3,367z"/>
<path class="st23" d="M692.4,374.7l29.5-28l-12.6-12.4l-32.2,33.8L692.4,374.7z"/>
<path class="st31" d="M686.3,352.7c0,0,75.1-68.8,80.1-70.8c17.1-6.8,27.7,11.9,27.2,18.5c-0.8,8.5-77,77.3-77,77.3L686.3,352.7z"/>
<path class="st30" d="M641.8,376.9c-1.8,1.6-2.1,6.4-2.1,6.4s25.1,9.5,33.8,9.6c3.5-0.2,7-0.9,10.4-2c0.7-0.2,2.3-1.9,2.8-2.1
	c1.2-0.3,1.5,0.8,2.5,0.5c1.6-0.4,3.1-1,4.6-1.7c5.3-11.2,3.5-16.8,3.5-16.8s-11.4,3.3-9.5,0.7c4.2-5.5-7.8-11.1-10.5-8.2
	C666.6,375,646.9,372.2,641.8,376.9z"/>
<path class="st8" d="M640.4,379.2c7.7,3.1,23.9,9.4,27.1,9.6c13.2,0.9,22.4-3.7,28.5-6.5c-0.6,1.8-1.3,3.6-2.1,5.3
	c-1.5,0.7-3,1.3-4.6,1.7c-1,0.3-1.3-0.8-2.5-0.5c-0.6,0.2-2.2,1.9-2.8,2.1c-3.4,1.1-6.8,1.7-10.4,2c-8.8-0.2-33.8-9.6-33.8-9.6
	C639.9,381.9,640.1,380.5,640.4,379.2z"/>
<path class="st8" d="M658.1,371.9c-0.2,0.4,0.8,1,2.1,1.3c2.9,0.6,5.7,1.4,8.5,2.6c1.4,0.6,2.6,0.7,2.8,0.2c0.2-0.5-0.8-1.4-2.1-1.9
	c-2.7-1.1-5.5-1.9-8.4-2.5C659.7,371.2,658.4,371.4,658.1,371.9z"/>
<path class="st8" d="M663.7,369.9c-0.2,0.5,0.8,1.1,2.1,1.5c2.8,0.8,5.6,1.9,8.2,3.2c1.3,0.7,2.5,0.9,2.7,0.4c0.2-0.5-0.7-1.5-2-2.1
	c-2.6-1.3-5.3-2.3-8.1-3.1C665.2,369.3,663.9,369.5,663.7,369.9z"/>
<path class="st8" d="M669.1,368.1c-0.2,0.5,0.8,1.2,2.1,1.7c2.7,1,5.4,2.3,7.9,3.8c1.3,0.8,2.4,1,2.6,0.5c0.2-0.5-0.7-1.6-1.9-2.3
	c-2.5-1.5-5.1-2.7-7.8-3.7C670.6,367.6,669.4,367.7,669.1,368.1z"/>
</svg>
