<svg width="151" height="62" viewBox="0 0 151 62" fill="none" xmlns="http://www.w3.org/2000/svg">
<line x1="2.24345" y1="32.9279" x2="53.3653" y2="32.9279" stroke="#0060DF" stroke-width="3.28084" stroke-linecap="round"/>
<line x1="23.3025" y1="46.968" x2="53.3653" y2="46.968" stroke="#0060DF" stroke-width="3.28084" stroke-linecap="round"/>
<path d="M118.399 28.2207L107.089 38.9115L96.1955 28.7851L94.8962 30.08L65.4468 59.5793C66.6062 60.7451 68.1806 61.4073 69.8275 61.422H144.351C145.998 61.4073 147.572 60.7451 148.731 59.5793L119.782 29.6982L118.399 28.2207Z" fill="#9A5BFF"/>
<path d="M97.0946 29.6823L65.5964 1.6604C64.4719 2.76211 63.8209 4.25614 63.7808 5.82715V55.546C63.7921 56.3423 63.9681 57.1277 64.2977 57.8532C64.6273 58.5787 65.1034 59.2287 65.6963 59.7626L95.7954 30.9937L97.0946 29.6823ZM150.08 4.20029C149.722 3.22001 149.12 2.3462 148.331 1.6604L117.083 29.317L118.482 30.6783L148.515 59.7626C149.102 59.2296 149.572 58.5813 149.896 57.8586C150.22 57.1358 150.39 56.3542 150.397 55.5626V6.02637C150.39 5.4047 150.283 4.78812 150.08 4.20029Z" fill="#9A5BFF"/>
<path d="M96.2954 29.9642L107.222 39.9245L118.549 29.4993L148.731 1.66008C147.609 0.604804 146.127 0.0117751 144.584 1.99781e-05H69.8942C69.0658 -0.00207991 68.2454 0.16138 67.4815 0.480731C66.7176 0.800081 66.0257 1.26884 65.4468 1.85929L96.2954 29.9642Z" fill="#EF6FFF"/>
<line x1="39.6404" y1="19.3596" x2="53.3596" y2="19.3596" stroke="#0060DF" stroke-width="3.28084" stroke-linecap="round"/>
</svg>
