<svg width="79" height="75" viewBox="0 0 79 75" fill="none" xmlns="http://www.w3.org/2000/svg">
<line x1="33.1372" y1="16.118" x2="46.8305" y2="16.118" stroke="#0060DF" stroke-width="0.878797" stroke-linecap="round"/>
<line x1="2.58246" y1="26.4595" x2="16.2758" y2="26.4595" stroke="#0060DF" stroke-width="0.878797" stroke-linecap="round"/>
<line x1="8.22309" y1="30.22" x2="16.2756" y2="30.22" stroke="#0060DF" stroke-width="0.878797" stroke-linecap="round"/>
<line x1="9.16303" y1="52.3133" x2="24.7367" y2="52.3133" stroke="#0060DF" stroke-width="0.878797" stroke-linecap="round"/>
<line x1="14.8041" y1="56.0738" x2="24.737" y2="56.0738" stroke="#0060DF" stroke-width="0.878797" stroke-linecap="round"/>
<line x1="19.9746" y1="48.5525" x2="24.7366" y2="48.5525" stroke="#0060DF" stroke-width="0.878797" stroke-linecap="round"/>
<line x1="45.8286" y1="32.5704" x2="55.7614" y2="32.5704" stroke="#0060DF" stroke-width="0.878797" stroke-linecap="round"/>
<line x1="50.9995" y1="35.3907" x2="55.7615" y2="35.3907" stroke="#0060DF" stroke-width="0.878797" stroke-linecap="round"/>
<path d="M35.4929 27.8772L32.3018 30.7408L29.2283 28.0284L28.8617 28.3752L20.5527 36.2768C20.8799 36.5891 21.3241 36.7665 21.7887 36.7704H42.8149C43.2796 36.7665 43.7238 36.5891 44.0509 36.2768L35.8829 28.2729L35.4929 27.8772Z" fill="#9A5BFF"/>
<path d="M29.4818 28.2688L20.5948 20.7629C20.2775 21.058 20.0938 21.4582 20.0825 21.879V35.1966C20.0857 35.4099 20.1354 35.6203 20.2284 35.8146C20.3214 36.0089 20.4557 36.183 20.623 36.326L29.1152 28.6201L29.4818 28.2688ZM44.4313 21.4433C44.3302 21.1807 44.1604 20.9466 43.9378 20.7629L35.1213 28.171L35.5161 28.5356L43.9895 36.326C44.1552 36.1833 44.2879 36.0096 44.3793 35.816C44.4707 35.6224 44.5188 35.4131 44.5206 35.201V21.9324C44.5188 21.7659 44.4886 21.6007 44.4313 21.4433Z" fill="#9A5BFF"/>
<path d="M29.2565 28.3442L32.3394 31.0122L35.5352 28.2197L44.0509 20.7628C43.7341 20.4801 43.3161 20.3213 42.8807 20.3181H21.8075C21.5738 20.3176 21.3424 20.3613 21.1268 20.4469C20.9113 20.5324 20.7161 20.658 20.5527 20.8161L29.2565 28.3442Z" fill="#EF6FFF"/>
<path d="M61.4028 15.4138L59.3058 17.2956L57.286 15.5132L57.0451 15.7411L51.585 20.9336C51.7999 21.1388 52.0918 21.2553 52.3972 21.2579H66.2144C66.5197 21.2553 66.8116 21.1388 67.0266 20.9336L61.6591 15.6739L61.4028 15.4138Z" fill="#9A5BFF"/>
<path d="M57.453 15.6709L51.613 10.7385C51.4045 10.9324 51.2838 11.1954 51.2764 11.472V20.2235C51.2785 20.3637 51.3111 20.5019 51.3722 20.6296C51.4333 20.7573 51.5216 20.8717 51.6315 20.9657L57.2121 15.9018L57.453 15.6709ZM67.277 11.1856C67.2106 11.013 67.099 10.8592 66.9527 10.7385L61.159 15.6067L61.4184 15.8463L66.9867 20.9657C67.0956 20.8719 67.1828 20.7578 67.2428 20.6306C67.3029 20.5033 67.3345 20.3657 67.3357 20.2264V11.507C67.3345 11.3976 67.3147 11.2891 67.277 11.1856Z" fill="#9A5BFF"/>
<path d="M57.3045 15.7206L59.3305 17.4738L61.4306 15.6388L67.0266 10.7385C66.8184 10.5527 66.5437 10.4484 66.2576 10.4463H52.4095C52.256 10.4459 52.1039 10.4747 51.9622 10.5309C51.8206 10.5871 51.6923 10.6696 51.585 10.7736L57.3045 15.7206Z" fill="#EF6FFF"/>
<path d="M70.81 34.2168L68.713 36.0986L66.6932 34.3161L66.4524 34.5441L60.9922 39.7365C61.2071 39.9418 61.4991 40.0583 61.8044 40.0609H75.6216C75.927 40.0583 76.2189 39.9418 76.4338 39.7365L71.0663 34.4769L70.81 34.2168Z" fill="#9A5BFF"/>
<path d="M66.8603 34.4739L61.0202 29.5415C60.8117 29.7354 60.691 29.9984 60.6836 30.2749V39.0265C60.6857 39.1666 60.7183 39.3049 60.7794 39.4326C60.8405 39.5603 60.9288 39.6747 61.0388 39.7687L66.6194 34.7048L66.8603 34.4739ZM76.6842 29.9886C76.6178 29.816 76.5062 29.6622 76.36 29.5415L70.5663 34.4096L70.8257 34.6492L76.3939 39.7687C76.5028 39.6749 76.59 39.5608 76.6501 39.4335C76.7101 39.3063 76.7417 39.1687 76.7429 39.0294V30.31C76.7417 30.2006 76.7219 30.092 76.6842 29.9886Z" fill="#9A5BFF"/>
<path d="M66.7118 34.5236L68.7377 36.2768L70.8378 34.4418L76.4338 29.5415C76.2257 29.3557 75.951 29.2513 75.6648 29.2493H61.8168C61.6632 29.2489 61.5111 29.2777 61.3694 29.3339C61.2278 29.3901 61.0995 29.4726 60.9922 29.5765L66.7118 34.5236Z" fill="#EF6FFF"/>
<path d="M49.4594 52.562L45.1743 56.4074L41.047 52.765L40.5547 53.2308L29.397 63.8415C29.8362 64.2608 30.4328 64.499 31.0567 64.5043H59.2919C59.9158 64.499 60.5124 64.2608 60.9516 63.8415L49.9832 53.0934L49.4594 52.562Z" fill="#9A5BFF"/>
<path d="M41.388 53.0873L29.454 43.0081C29.028 43.4043 28.7813 43.9417 28.7661 44.5068V62.3904C28.7704 62.6768 28.8371 62.9593 28.962 63.2203C29.0868 63.4812 29.2672 63.715 29.4919 63.9071L40.8957 53.5591L41.388 53.0873ZM61.4631 43.9216C61.3273 43.569 61.0993 43.2547 60.8004 43.0081L48.9611 52.956L49.4912 53.4456L60.8698 63.9071C61.0923 63.7153 61.2705 63.4822 61.3932 63.2222C61.5159 62.9622 61.5805 62.6811 61.583 62.3964V44.5785C61.5805 44.3549 61.54 44.1331 61.4631 43.9216Z" fill="#9A5BFF"/>
<path d="M41.0848 53.1891L45.2248 56.7717L49.5162 53.0219L60.9516 43.0083C60.5263 42.6287 59.9649 42.4154 59.3802 42.4111H31.082C30.7681 42.4104 30.4573 42.4692 30.1679 42.584C29.8785 42.6989 29.6163 42.8675 29.397 43.0799L41.0848 53.1891Z" fill="#EF6FFF"/>
</svg>
