<svg width="106" height="138" viewBox="0 0 106 138" fill="none" xmlns="http://www.w3.org/2000/svg">
<path d="M97.609 19.8508C105.984 96.6482 36.041 77.8441 10.3486 111.67" stroke="url(#paint0_linear_725_4206)" stroke-width="2.85425" stroke-linecap="round"/>
<path fill-rule="evenodd" clip-rule="evenodd" d="M14.3753 114.496C14.0982 114.677 13.8056 114.841 13.4991 114.988C13.1475 115.16 12.747 115.337 12.3197 115.517C11.46 115.877 10.4787 116.232 9.56789 116.516C9.02254 116.695 8.46206 116.845 7.88906 116.967C7.63175 117.026 7.36639 117.066 7.09577 117.086C6.96323 117.094 6.82883 117.094 6.69376 117.085C6.51017 117.072 6.32752 117.022 6.16002 116.941C6.04928 116.885 5.95016 116.811 5.86846 116.725C5.78677 116.639 5.72413 116.542 5.6842 116.44C5.64474 116.363 5.61626 116.282 5.59942 116.201C5.55899 116.041 5.5317 115.879 5.51774 115.718C5.48321 115.358 5.48019 114.928 5.48869 114.444C5.51061 113.475 5.61462 112.304 5.75398 111.245C5.84525 110.54 5.95419 109.89 6.07092 109.374C6.12367 109.118 6.19534 108.868 6.28551 108.623C6.32785 108.512 6.38269 108.406 6.44934 108.307C6.50233 108.239 6.56568 108.178 6.638 108.126C6.71201 108.077 6.79533 108.039 6.8853 108.013C7.01627 107.981 7.15949 107.982 7.29945 108.015C7.39435 108.034 7.48649 108.068 7.57155 108.114C7.65823 108.162 7.73689 108.222 7.80458 108.289C7.87603 108.366 7.93489 108.45 7.9792 108.538L8.08466 108.74C8.31392 109.181 8.54319 109.621 8.78138 109.938C9.00382 110.281 9.26506 110.608 9.56087 110.913C10.0199 111.378 10.5896 111.757 11.223 112.018C12.1683 112.397 13.1445 112.699 14.1369 112.917C14.2231 112.939 14.3072 112.969 14.3874 113.007C14.4989 113.06 14.5993 113.131 14.6827 113.215C14.7863 113.316 14.8583 113.435 14.8907 113.561C14.9197 113.665 14.9245 113.77 14.9049 113.871C14.8771 113.994 14.8159 114.107 14.726 114.201C14.6857 114.251 14.6393 114.297 14.5875 114.338C14.522 114.396 14.4518 114.45 14.3776 114.5L14.3753 114.496Z" fill="#815BDF"/>
<defs>
<linearGradient id="paint0_linear_725_4206" x1="122.787" y1="-6.44278" x2="92.2059" y2="-22.7264" gradientUnits="userSpaceOnUse">
<stop stop-color="#FF9100"/>
<stop offset="0.52" stop-color="#F10366"/>
<stop offset="1" stop-color="#6173FF"/>
</linearGradient>
</defs>
</svg>
