<svg width="91" height="69" viewBox="0 0 91 69" fill="none" xmlns="http://www.w3.org/2000/svg">
<path d="M89 44.0002C50 61.0002 41.6061 30.3626 7.37256 30.0081" stroke="url(#paint0_linear_725_5076)" stroke-width="2.85425" stroke-linecap="round"/>
<path fill-rule="evenodd" clip-rule="evenodd" d="M7.48142 33.9708C7.23102 33.8787 6.98402 33.7684 6.74192 33.6407C6.46108 33.4963 6.15414 33.3223 5.83252 33.1322C5.18599 32.7494 4.48441 32.2855 3.86274 31.8329C3.48531 31.5658 3.11847 31.2756 2.76394 30.9637C2.60217 30.8256 2.44899 30.6729 2.30601 30.5075C2.23662 30.4259 2.17203 30.339 2.11281 30.2474C2.03333 30.1221 1.97748 29.9802 1.9496 29.8327C1.93273 29.734 1.93245 29.6347 1.94879 29.5405C1.96513 29.4463 1.99775 29.3591 2.04475 29.2841C2.07595 29.2213 2.11418 29.1643 2.15858 29.1143C2.24303 29.011 2.33435 28.9157 2.43185 28.8292C2.64809 28.6338 2.92474 28.4251 3.24187 28.1979C3.87941 27.746 4.68655 27.2505 5.43862 26.8314C5.93891 26.5512 6.41166 26.3091 6.8011 26.1369C6.99201 26.048 7.1888 25.9737 7.39035 25.9144C7.4823 25.8885 7.57711 25.8731 7.67357 25.8684C7.74286 25.8701 7.81271 25.8818 7.88158 25.9032C7.94839 25.9279 8.0129 25.9636 8.07305 26.0092C8.15666 26.0786 8.22514 26.1715 8.27109 26.2779C8.30416 26.3487 8.32687 26.4243 8.33816 26.5013C8.3483 26.5808 8.34774 26.6603 8.3365 26.7366C8.32143 26.8196 8.29556 26.8979 8.25975 26.969L8.17941 27.1346C8.00476 27.4947 7.83011 27.8548 7.7401 28.1609C7.62497 28.4698 7.53912 28.796 7.48395 29.1341C7.40357 29.6548 7.43252 30.2054 7.5684 30.7405C7.77745 31.5344 8.05191 32.3107 8.38761 33.0578C8.41512 33.124 8.43609 33.1928 8.45005 33.2629C8.46912 33.3608 8.47157 33.4598 8.45723 33.5542C8.44229 33.6694 8.39958 33.7735 8.33394 33.8547C8.28055 33.9235 8.21467 33.9773 8.14019 34.013C8.04696 34.0544 7.94447 34.0692 7.84034 34.0563C7.78878 34.0541 7.73694 34.0461 7.68553 34.0323C7.61647 34.0178 7.54773 33.9984 7.47967 33.9744L7.48142 33.9708Z" fill="#815BDF"/>
<defs>
<linearGradient id="paint0_linear_725_5076" x1="137.836" y1="45.9466" x2="133.664" y2="18.3359" gradientUnits="userSpaceOnUse">
<stop stop-color="#FF9100"/>
<stop offset="0.52" stop-color="#F10366"/>
<stop offset="1" stop-color="#6173FF"/>
</linearGradient>
</defs>
</svg>
