<svg width="351" height="209" viewBox="0 0 351 209" fill="none" xmlns="http://www.w3.org/2000/svg">
<rect x="62.7711" width="288.229" height="29.333" fill="white"/>
<path d="M62.7711 4.00488H225.061C226.53 4.00488 227.721 5.19602 227.721 6.66537V25.2888H62.7711V4.00488Z" fill="#F0F0F4"/>
<g opacity="0.5">
<g clip-path="url(#clip0_725_5245)">
<path d="M205.551 11.5491H203.597C203.327 11.5491 203.109 11.7678 203.109 12.0376V13.9918C203.109 14.2616 203.327 14.4803 203.597 14.4803H205.551C205.821 14.4803 206.04 14.2616 206.04 13.9918V12.0376C206.04 11.7678 205.821 11.5491 205.551 11.5491Z" fill="#18191A"/>
<path d="M205.551 15.4575H203.597C203.327 15.4575 203.109 15.6762 203.109 15.9461V17.9002C203.109 18.17 203.327 18.3888 203.597 18.3888H205.551C205.821 18.3888 206.04 18.17 206.04 17.9002V15.9461C206.04 15.6762 205.821 15.4575 205.551 15.4575Z" fill="#18191A"/>
<path d="M209.46 15.4575H207.506C207.236 15.4575 207.017 15.6762 207.017 15.9461V17.9002C207.017 18.17 207.236 18.3888 207.506 18.3888H209.46C209.73 18.3888 209.948 18.17 209.948 17.9002V15.9461C209.948 15.6762 209.73 15.4575 209.46 15.4575Z" fill="#18191A"/>
<path d="M209.909 11.852C209.86 11.7326 209.765 11.6377 209.645 11.5882C209.587 11.5631 209.524 11.5498 209.46 11.5491H207.506C207.376 11.5491 207.252 11.6005 207.16 11.6922C207.069 11.7838 207.017 11.908 207.017 12.0376C207.017 12.1672 207.069 12.2914 207.16 12.3831C207.252 12.4747 207.376 12.5262 207.506 12.5262H208.282L207.159 13.6449C207.113 13.6903 207.077 13.7444 207.052 13.8039C207.027 13.8634 207.014 13.9273 207.014 13.9918C207.014 14.0563 207.027 14.1201 207.052 14.1797C207.077 14.2392 207.113 14.2932 207.159 14.3386C207.204 14.3844 207.258 14.4208 207.318 14.4456C207.377 14.4704 207.441 14.4832 207.506 14.4832C207.57 14.4832 207.634 14.4704 207.693 14.4456C207.753 14.4208 207.807 14.3844 207.852 14.3386L208.971 13.215V13.9918C208.971 14.1213 209.023 14.2456 209.114 14.3372C209.206 14.4288 209.33 14.4803 209.46 14.4803C209.589 14.4803 209.714 14.4288 209.805 14.3372C209.897 14.2456 209.948 14.1213 209.948 13.9918V12.0376C209.948 11.9738 209.934 11.9107 209.909 11.852Z" fill="#18191A"/>
</g>
<g clip-path="url(#clip1_725_5245)">
<path d="M216.39 18.6326C216.226 18.6326 216.062 18.5817 215.922 18.4796C215.793 18.3864 215.695 18.2563 215.641 18.1064C215.586 17.9565 215.579 17.7937 215.619 17.6394L216.039 15.9905L214.73 14.903C214.607 14.8018 214.517 14.6657 214.473 14.5127C214.429 14.3597 214.432 14.1969 214.481 14.0456C214.53 13.8939 214.624 13.7604 214.75 13.6626C214.875 13.5648 215.028 13.5073 215.187 13.4975L216.885 13.3876L217.514 11.8062C217.635 11.5018 217.926 11.3049 218.253 11.3049C218.581 11.3049 218.871 11.5018 218.993 11.8062L219.622 13.3876L221.32 13.4975C221.479 13.5072 221.632 13.5647 221.758 13.6625C221.883 13.7603 221.977 13.8939 222.026 14.0456C222.075 14.1971 222.078 14.3601 222.034 14.5133C221.99 14.6665 221.9 14.8026 221.777 14.904L220.468 15.991L220.888 17.6398C220.928 17.7942 220.92 17.957 220.866 18.1069C220.812 18.2568 220.714 18.3869 220.584 18.4801C220.456 18.5745 220.302 18.6277 220.142 18.6328C219.983 18.638 219.826 18.5948 219.691 18.509L218.253 17.5998L216.815 18.509C216.688 18.5896 216.54 18.6324 216.39 18.6326ZM218.253 11.9156C218.216 11.9146 218.18 11.9254 218.149 11.9463C218.118 11.9673 218.094 11.9974 218.082 12.0324L217.381 13.7926L217.117 13.9846L215.226 14.1072C215.189 14.1087 215.153 14.1218 215.123 14.1447C215.094 14.1675 215.072 14.199 215.062 14.2347C215.05 14.2698 215.049 14.3078 215.059 14.3435C215.069 14.3791 215.091 14.4106 215.12 14.4335L216.578 15.6446L216.678 15.9549L216.21 17.7908C216.2 17.8266 216.202 17.8647 216.214 17.8997C216.227 17.9346 216.251 17.9647 216.281 17.9857C216.312 18.0087 216.394 18.0536 216.489 17.9926L218.091 16.9808H218.417L220.019 17.9926C220.05 18.0134 220.086 18.0239 220.124 18.0227C220.161 18.0215 220.197 18.0085 220.227 17.9857C220.257 17.9644 220.28 17.9342 220.293 17.8992C220.305 17.8641 220.307 17.8261 220.297 17.7903L219.829 15.9544L219.929 15.6442L221.387 14.4335C221.416 14.4106 221.438 14.379 221.448 14.3433C221.459 14.3075 221.458 14.2694 221.445 14.2342C221.434 14.1986 221.413 14.1671 221.383 14.1443C221.354 14.1214 221.318 14.1083 221.281 14.1067L219.391 13.9841L219.126 13.7921L218.425 12.0319C218.412 11.9971 218.389 11.9672 218.358 11.9463C218.327 11.9255 218.291 11.9148 218.253 11.9156Z" fill="#5B5B66"/>
</g>
</g>
<path d="M169.288 208.778C206.043 208.778 235.838 178.983 235.838 142.228C235.838 105.474 206.043 75.6782 169.288 75.6782C132.534 75.6782 102.738 105.474 102.738 142.228C102.738 178.983 132.534 208.778 169.288 208.778Z" fill="#EEE6F4"/>
<path d="M258.062 47.7488H5.64139C4.58925 47.7488 3.73633 48.6017 3.73633 49.6538V92.3463C3.73633 93.3984 4.58925 94.2514 5.64139 94.2514H258.062C259.114 94.2514 259.967 93.3984 259.967 92.3463V49.6538C259.967 48.6017 259.114 47.7488 258.062 47.7488Z" fill="white" stroke="#0A84FF" stroke-width="1.07928"/>
<path d="M260.136 45.6831H3.90506C2.85293 45.6831 2 46.536 2 47.5882V94.0908C2 95.1429 2.85293 95.9958 3.90506 95.9958H260.136C261.188 95.9958 262.041 95.1429 262.041 94.0908V47.5882C262.041 46.536 261.188 45.6831 260.136 45.6831Z" stroke="#0A84FF" stroke-opacity="0.3" stroke-width="3.23784"/>
<path d="M29.781 71.165C29.781 68.7807 31.7138 66.8479 34.0981 66.8479H157.136C159.52 66.8479 161.453 68.7807 161.453 71.165C161.453 73.5493 159.52 75.4821 157.136 75.4821H34.0981C31.7138 75.4821 29.781 73.5493 29.781 71.165Z" fill="#E7E7E7"/>
<path d="M261.495 25.177H161.479C159.375 25.177 157.669 26.8829 157.669 28.9871V175.125C157.669 177.229 159.375 178.935 161.479 178.935H261.495C263.599 178.935 265.305 177.229 265.305 175.125V28.9871C265.305 26.8829 263.599 25.177 261.495 25.177Z" fill="white" stroke="#979797" stroke-width="1.07928"/>
<path d="M158.146 137.65H264.829V164.225H158.146V137.65Z" fill="#45A1FF"/>
<path d="M177.816 147.281L172.358 144.21C172.166 144.106 171.952 144.052 171.733 144.052C171.515 144.052 171.3 144.106 171.109 144.21L165.631 147.281C165.433 147.392 165.269 147.554 165.154 147.75C165.039 147.945 164.978 148.168 164.978 148.394V154.516C164.976 154.743 165.036 154.967 165.151 155.163C165.266 155.359 165.432 155.52 165.631 155.629L171.089 158.681C171.281 158.796 171.5 158.856 171.724 158.854C171.947 158.853 172.166 158.793 172.358 158.681L177.816 155.629C178.014 155.518 178.179 155.356 178.294 155.161C178.408 154.965 178.469 154.743 178.47 154.516V148.394C178.475 148.166 178.417 147.941 178.302 147.745C178.186 147.548 178.018 147.387 177.816 147.281Z" fill="url(#paint0_linear_725_5245)"/>
<path d="M167.918 153.059L167.591 153.251C167.533 153.283 167.481 153.327 167.44 153.379C167.399 153.432 167.368 153.492 167.35 153.556C167.332 153.62 167.327 153.688 167.336 153.754C167.344 153.82 167.366 153.884 167.399 153.942C167.442 154.022 167.506 154.089 167.583 154.136C167.661 154.184 167.75 154.209 167.841 154.21C167.928 154.21 168.013 154.19 168.091 154.153L168.418 153.961C168.476 153.929 168.528 153.885 168.569 153.833C168.611 153.78 168.641 153.72 168.659 153.656C168.677 153.591 168.682 153.524 168.673 153.458C168.665 153.392 168.643 153.328 168.61 153.27C168.58 153.209 168.538 153.155 168.487 153.111C168.435 153.067 168.375 153.034 168.31 153.014C168.245 152.994 168.177 152.988 168.109 152.996C168.042 153.003 167.977 153.025 167.918 153.059ZM169.917 151.927L169.244 152.311C169.186 152.343 169.134 152.387 169.093 152.439C169.052 152.491 169.021 152.551 169.003 152.616C168.985 152.68 168.98 152.747 168.989 152.814C168.997 152.88 169.019 152.944 169.052 153.001C169.095 153.082 169.159 153.149 169.236 153.196C169.314 153.243 169.403 153.269 169.494 153.27C169.581 153.269 169.666 153.25 169.744 153.213L170.417 152.829C170.475 152.796 170.527 152.753 170.568 152.7C170.609 152.648 170.64 152.588 170.658 152.523C170.676 152.459 170.681 152.392 170.672 152.326C170.664 152.26 170.642 152.196 170.609 152.138C170.579 152.077 170.537 152.023 170.486 151.979C170.434 151.935 170.374 151.902 170.309 151.882C170.244 151.862 170.176 151.856 170.108 151.863C170.041 151.871 169.976 151.893 169.917 151.927ZM172.627 150.988C172.6 150.934 172.562 150.885 172.516 150.846C172.47 150.806 172.416 150.776 172.358 150.758V146.899C172.358 146.83 172.345 146.763 172.319 146.7C172.293 146.637 172.255 146.58 172.206 146.532C172.158 146.483 172.101 146.445 172.038 146.419C171.975 146.393 171.907 146.38 171.839 146.38C171.772 146.381 171.705 146.394 171.643 146.421C171.582 146.447 171.526 146.485 171.479 146.534C171.433 146.582 171.396 146.639 171.372 146.702C171.348 146.765 171.337 146.831 171.339 146.899V150.775C171.281 150.794 171.227 150.823 171.181 150.863C171.135 150.903 171.097 150.951 171.07 151.006C171.034 151.073 171.014 151.148 171.01 151.224C171.007 151.3 171.021 151.377 171.051 151.447C171.021 151.517 171.007 151.593 171.01 151.67C171.014 151.746 171.034 151.821 171.07 151.888C171.097 151.943 171.135 151.991 171.181 152.031C171.227 152.07 171.281 152.1 171.339 152.119V155.995C171.339 156.133 171.394 156.265 171.491 156.362C171.589 156.459 171.721 156.513 171.858 156.513C171.996 156.513 172.128 156.459 172.225 156.362C172.322 156.265 172.377 156.133 172.377 155.995V152.099C172.435 152.081 172.489 152.051 172.535 152.012C172.581 151.972 172.619 151.924 172.646 151.869C172.682 151.802 172.703 151.727 172.706 151.651C172.709 151.574 172.696 151.498 172.665 151.428C172.71 151.282 172.696 151.124 172.627 150.988ZM173.936 149.662L173.263 150.046C173.205 150.078 173.153 150.122 173.112 150.174C173.07 150.227 173.04 150.287 173.022 150.351C173.004 150.415 172.999 150.483 173.008 150.549C173.016 150.615 173.038 150.679 173.071 150.737C173.114 150.817 173.177 150.884 173.255 150.931C173.333 150.979 173.422 151.004 173.513 151.006C173.599 151.005 173.685 150.985 173.763 150.948L174.436 150.564C174.494 150.532 174.545 150.488 174.587 150.436C174.628 150.383 174.659 150.323 174.677 150.259C174.695 150.195 174.699 150.127 174.691 150.061C174.683 149.995 174.661 149.931 174.628 149.873C174.598 149.812 174.556 149.758 174.504 149.714C174.453 149.67 174.393 149.637 174.328 149.617C174.263 149.597 174.195 149.591 174.127 149.599C174.06 149.607 173.995 149.628 173.936 149.662ZM175.529 149.854C175.616 149.853 175.701 149.834 175.779 149.796L176.106 149.605C176.164 149.572 176.215 149.528 176.257 149.476C176.298 149.423 176.329 149.363 176.347 149.299C176.365 149.235 176.37 149.167 176.362 149.101C176.354 149.035 176.333 148.971 176.3 148.912C176.267 148.854 176.223 148.803 176.17 148.762C176.118 148.721 176.057 148.691 175.993 148.673C175.928 148.655 175.861 148.651 175.795 148.659C175.728 148.667 175.664 148.689 175.606 148.722L175.279 148.914C175.221 148.946 175.169 148.99 175.128 149.042C175.087 149.094 175.056 149.155 175.038 149.219C175.02 149.283 175.015 149.35 175.024 149.417C175.032 149.483 175.054 149.547 175.087 149.605C175.131 149.682 175.195 149.747 175.273 149.791C175.351 149.835 175.44 149.857 175.529 149.854ZM176.106 153.251L175.779 153.059C175.662 152.994 175.523 152.977 175.394 153.013C175.265 153.05 175.155 153.135 175.089 153.252C175.023 153.369 175.006 153.507 175.042 153.636C175.077 153.765 175.163 153.875 175.279 153.942L175.606 154.134C175.684 154.171 175.769 154.191 175.856 154.191C175.947 154.19 176.036 154.164 176.114 154.117C176.191 154.07 176.255 154.003 176.298 153.923C176.332 153.867 176.355 153.804 176.364 153.739C176.372 153.674 176.368 153.608 176.35 153.545C176.332 153.481 176.301 153.423 176.259 153.372C176.217 153.322 176.165 153.28 176.106 153.251ZM174.434 152.311L173.761 151.927C173.703 151.894 173.639 151.872 173.572 151.864C173.506 151.855 173.439 151.86 173.374 151.878C173.31 151.896 173.249 151.926 173.197 151.967C173.144 152.008 173.1 152.059 173.067 152.117C173.034 152.176 173.013 152.24 173.005 152.306C172.997 152.372 173.002 152.439 173.02 152.504C173.038 152.568 173.069 152.628 173.11 152.681C173.151 152.733 173.203 152.777 173.261 152.81L173.934 153.193C174.012 153.231 174.097 153.25 174.184 153.251C174.275 153.25 174.364 153.224 174.442 153.177C174.519 153.13 174.583 153.062 174.626 152.982C174.661 152.926 174.684 152.864 174.693 152.799C174.702 152.733 174.697 152.667 174.679 152.604C174.661 152.54 174.63 152.482 174.588 152.431C174.545 152.381 174.493 152.339 174.434 152.311ZM169.244 150.545L169.917 150.929C169.995 150.966 170.08 150.986 170.167 150.986C170.258 150.985 170.347 150.959 170.425 150.912C170.502 150.865 170.566 150.798 170.609 150.718C170.642 150.66 170.664 150.596 170.672 150.53C170.681 150.464 170.676 150.396 170.658 150.332C170.64 150.268 170.609 150.208 170.568 150.155C170.527 150.103 170.475 150.059 170.417 150.027L169.744 149.643C169.686 149.61 169.622 149.588 169.556 149.58C169.489 149.571 169.422 149.576 169.358 149.594C169.293 149.612 169.233 149.642 169.181 149.684C169.128 149.725 169.084 149.776 169.052 149.835C168.988 149.955 168.972 150.096 169.007 150.228C169.043 150.36 169.128 150.473 169.244 150.545ZM168.418 148.914L168.091 148.722C168.033 148.689 167.969 148.667 167.903 148.659C167.836 148.651 167.769 148.655 167.704 148.673C167.64 148.691 167.58 148.721 167.527 148.762C167.474 148.803 167.43 148.854 167.397 148.912C167.364 148.971 167.343 149.035 167.335 149.101C167.327 149.167 167.332 149.235 167.35 149.299C167.368 149.363 167.399 149.423 167.44 149.476C167.482 149.528 167.533 149.572 167.591 149.605L167.918 149.796C167.996 149.834 168.081 149.853 168.168 149.854C168.259 149.853 168.348 149.827 168.426 149.78C168.503 149.733 168.567 149.665 168.61 149.585C168.643 149.529 168.664 149.466 168.672 149.402C168.68 149.337 168.675 149.271 168.657 149.209C168.639 149.146 168.608 149.088 168.567 149.037C168.526 148.986 168.475 148.944 168.418 148.914Z" fill="#20133A"/>
<path d="M174.339 47.0038C174.339 44.6444 176.252 42.7317 178.611 42.7317H248.175C250.534 42.7317 252.447 44.6444 252.447 47.0038C252.447 49.3632 250.534 51.2759 248.175 51.2759H178.611C176.252 51.2759 174.339 49.3632 174.339 47.0038ZM174.339 70.7314C174.339 68.3719 176.252 66.4592 178.611 66.4592H248.175C250.534 66.4592 252.447 68.3719 252.447 70.7314C252.447 73.0908 250.534 75.0035 248.175 75.0035H178.611C176.252 75.0035 174.339 73.0908 174.339 70.7314ZM174.339 94.4589C174.339 92.0995 176.252 90.1868 178.611 90.1868H248.175C250.534 90.1868 252.447 92.0995 252.447 94.4589C252.447 96.8183 250.534 98.731 248.175 98.731H178.611C176.252 98.731 174.339 96.8183 174.339 94.4589ZM174.339 118.186C174.339 115.827 176.252 113.914 178.611 113.914H248.175C250.534 113.914 252.447 115.827 252.447 118.186C252.447 120.546 250.534 122.459 248.175 122.459H178.611C176.252 122.459 174.339 120.546 174.339 118.186Z" fill="#D8D8D8"/>
<path d="M185.731 151.453C185.731 149.069 187.663 147.136 190.048 147.136H248.329C250.713 147.136 252.646 149.069 252.646 151.453C252.646 153.837 250.713 155.77 248.329 155.77H190.048C187.663 155.77 185.731 153.837 185.731 151.453Z" fill="white"/>
<path fill-rule="evenodd" clip-rule="evenodd" d="M215.44 168.466L217.212 167.513L218.745 166.723L216.307 162.151H220.431L209.592 151.32V166.523L212.754 163.465L215.44 168.466Z" fill="white"/>
<path fill-rule="evenodd" clip-rule="evenodd" d="M215.707 167.064L217.393 166.178L214.745 161.235H218.174L210.535 153.605V164.226L212.945 161.902L215.707 167.064Z" fill="black"/>
<g opacity="0.5">
<g clip-path="url(#clip2_725_5245)">
<path d="M278.305 11.6374L278.783 12.1157V14.3463C278.783 14.857 278.689 15.32 278.486 15.7798C278.308 16.2134 278.053 16.5992 277.707 16.9595C277.388 17.2917 277.004 17.5519 276.566 17.7323C276.112 17.9243 275.625 18.0253 275.133 18.0295C274.639 18.0338 274.15 17.9325 273.699 17.7323C273.265 17.5525 272.868 17.292 272.531 16.9646C272.199 16.6273 271.933 16.2311 271.747 15.7963C271.555 15.3424 271.455 14.8554 271.45 14.3628V12.1157L271.928 11.6374H278.305ZM278.305 10.8403H271.928C271.59 10.8403 271.266 10.9747 271.027 11.2139C270.787 11.453 270.653 11.7774 270.653 12.1157V14.3628C270.653 14.9635 270.783 15.5476 271.01 16.0999C271.254 16.6515 271.562 17.1227 271.968 17.5283C272.38 17.9294 272.865 18.2488 273.396 18.4695C273.948 18.7131 274.516 18.8266 275.133 18.8266C275.73 18.8224 276.32 18.701 276.87 18.4695C277.403 18.2528 277.884 17.9264 278.283 17.5117C278.684 17.0993 279.003 16.6146 279.224 16.0833C279.464 15.536 279.586 14.944 279.581 14.3463V12.1157C279.581 11.7774 279.446 11.453 279.207 11.2139C278.968 10.9747 278.643 10.8403 278.305 10.8403Z" fill="#5B5B66"/>
<path d="M274.9 15.9418L272.682 13.7246C272.61 13.6491 272.571 13.5486 272.572 13.4445C272.574 13.3405 272.616 13.241 272.689 13.1675C272.763 13.0939 272.862 13.0519 272.966 13.0506C273.071 13.0492 273.171 13.0886 273.246 13.1602L275.117 15.0312L276.987 13.1602C277.063 13.0886 277.163 13.0492 277.267 13.0506C277.371 13.0519 277.471 13.0939 277.544 13.1675C277.618 13.241 277.66 13.3405 277.661 13.4445C277.662 13.5486 277.623 13.6491 277.551 13.7246L275.334 15.9418H274.9Z" fill="#5B5B66"/>
</g>
<g clip-path="url(#clip3_725_5245)">
<path d="M295.682 9.96349C295.682 9.85779 295.64 9.75641 295.565 9.68167C295.49 9.60693 295.389 9.56494 295.283 9.56494C295.178 9.56494 295.076 9.60693 295.001 9.68167C294.927 9.75641 294.885 9.85779 294.885 9.96349V15.2709L292.775 13.1608C292.7 13.0891 292.599 13.0498 292.495 13.0511C292.391 13.0525 292.292 13.0944 292.218 13.168C292.145 13.2416 292.103 13.341 292.101 13.4451C292.1 13.5492 292.139 13.6497 292.211 13.7251L295.066 16.5794H295.501L298.356 13.7251C298.427 13.6497 298.467 13.5492 298.465 13.4451C298.464 13.341 298.422 13.2416 298.348 13.168C298.275 13.0944 298.175 13.0525 298.071 13.0511C297.967 13.0498 297.867 13.0891 297.791 13.1608L295.682 15.2702V9.96349Z" fill="#5B5B66"/>
<path d="M298.232 19.13C298.571 19.13 298.895 18.9957 299.134 18.7565C299.373 18.5173 299.508 18.1929 299.508 17.8547V16.9779C299.508 16.8722 299.466 16.7708 299.391 16.6961C299.316 16.6213 299.215 16.5793 299.109 16.5793C299.004 16.5793 298.902 16.6213 298.827 16.6961C298.753 16.7708 298.711 16.8722 298.711 16.9779V17.9503L298.328 18.333H292.238L291.856 17.9503V16.9779C291.856 16.8722 291.814 16.7708 291.739 16.6961C291.664 16.6213 291.563 16.5793 291.457 16.5793C291.352 16.5793 291.25 16.6213 291.175 16.6961C291.101 16.7708 291.059 16.8722 291.059 16.9779V17.8547C291.059 18.1929 291.193 18.5173 291.432 18.7565C291.671 18.9957 291.996 19.13 292.334 19.13H298.232Z" fill="#5B5B66"/>
</g>
<g clip-path="url(#clip4_725_5245)">
<path d="M314.653 10.2026H312.102C311.75 10.2026 311.464 10.4881 311.464 10.8403V13.391C311.464 13.7432 311.75 14.0287 312.102 14.0287H314.653C315.005 14.0287 315.29 13.7432 315.29 13.391V10.8403C315.29 10.4881 315.005 10.2026 314.653 10.2026Z" fill="#18191A"/>
<path fill-rule="evenodd" clip-rule="evenodd" d="M320.232 11.478H319.116V10.3621C319.116 10.3198 319.1 10.2792 319.07 10.2493C319.04 10.2194 318.999 10.2026 318.957 10.2026H318C317.958 10.2026 317.918 10.2194 317.888 10.2493C317.858 10.2792 317.841 10.3198 317.841 10.3621V11.478H316.725C316.683 11.478 316.642 11.4948 316.612 11.5247C316.582 11.5546 316.566 11.5951 316.566 11.6374V12.5939C316.566 12.6362 316.582 12.6767 316.612 12.7066C316.642 12.7365 316.683 12.7533 316.725 12.7533H317.841V13.8693C317.841 13.9115 317.858 13.9521 317.888 13.982C317.918 14.0119 317.958 14.0287 318 14.0287H318.957C318.999 14.0287 319.04 14.0119 319.07 13.982C319.1 13.9521 319.116 13.9115 319.116 13.8693V12.7533H320.232C320.275 12.7533 320.315 12.7365 320.345 12.7066C320.375 12.6767 320.392 12.6362 320.392 12.5939V11.6374C320.392 11.5951 320.375 11.5546 320.345 11.5247C320.315 11.4948 320.275 11.478 320.232 11.478Z" fill="#18191A"/>
<path d="M314.653 15.304H312.102C311.75 15.304 311.464 15.5895 311.464 15.9416V18.4923C311.464 18.8445 311.75 19.13 312.102 19.13H314.653C315.005 19.13 315.29 18.8445 315.29 18.4923V15.9416C315.29 15.5895 315.005 15.304 314.653 15.304Z" fill="#18191A"/>
<path d="M319.754 15.304H317.203C316.851 15.304 316.566 15.5895 316.566 15.9416V18.4923C316.566 18.8445 316.851 19.13 317.203 19.13H319.754C320.106 19.13 320.392 18.8445 320.392 18.4923V15.9416C320.392 15.5895 320.106 15.304 319.754 15.304Z" fill="#18191A"/>
</g>
<path d="M339.761 12.2751H332.906C332.8 12.2751 332.699 12.2331 332.624 12.1584C332.549 12.0836 332.507 11.9823 332.507 11.8766C332.507 11.7709 332.549 11.6695 332.624 11.5948C332.699 11.52 332.8 11.478 332.906 11.478H339.761C339.867 11.478 339.968 11.52 340.043 11.5948C340.118 11.6695 340.16 11.7709 340.16 11.8766C340.16 11.9823 340.118 12.0836 340.043 12.1584C339.968 12.2331 339.867 12.2751 339.761 12.2751Z" fill="#5B5B66"/>
<path d="M339.761 14.8257H332.906C332.8 14.8257 332.699 14.7837 332.624 14.7089C332.549 14.6342 332.507 14.5328 332.507 14.4271C332.507 14.3214 332.549 14.22 332.624 14.1453C332.699 14.0706 332.8 14.0286 332.906 14.0286H339.761C339.867 14.0286 339.968 14.0706 340.043 14.1453C340.118 14.22 340.16 14.3214 340.16 14.4271C340.16 14.5328 340.118 14.6342 340.043 14.7089C339.968 14.7837 339.867 14.8257 339.761 14.8257Z" fill="#5B5B66"/>
<path d="M339.761 17.3764H332.906C332.8 17.3764 332.699 17.3344 332.624 17.2597C332.549 17.185 332.507 17.0836 332.507 16.9779C332.507 16.8722 332.549 16.7708 332.624 16.6961C332.699 16.6213 332.8 16.5793 332.906 16.5793H339.761C339.867 16.5793 339.968 16.6213 340.043 16.6961C340.118 16.7708 340.16 16.8722 340.16 16.9779C340.16 17.0836 340.118 17.185 340.043 17.2597C339.968 17.3344 339.867 17.3764 339.761 17.3764Z" fill="#5B5B66"/>
</g>
<rect x="244.509" y="3.18823" width="21.0433" height="21.6809" rx="3.82605" fill="#CECECF"/>
<path d="M259.989 10.4701L255.498 7.94359C255.34 7.85804 255.164 7.81323 254.984 7.81323C254.805 7.81323 254.628 7.85804 254.47 7.94359L249.963 10.4701C249.8 10.5617 249.665 10.6947 249.571 10.8555C249.476 11.0164 249.426 11.1994 249.426 11.3859V16.4231C249.424 16.61 249.473 16.7938 249.568 16.9551C249.663 17.1163 249.799 17.2489 249.963 17.339L254.454 19.8497C254.612 19.9443 254.792 19.9935 254.976 19.9918C255.16 19.9913 255.34 19.9423 255.498 19.8497L259.989 17.339C260.152 17.2474 260.287 17.1144 260.382 16.9535C260.476 16.7926 260.526 16.6096 260.527 16.4231V11.3859C260.531 11.1984 260.484 11.0134 260.389 10.8516C260.294 10.6897 260.155 10.5576 259.989 10.4701Z" fill="url(#paint1_linear_725_5245)"/>
<path d="M251.845 15.2241L251.576 15.382C251.528 15.4086 251.486 15.4446 251.452 15.4877C251.418 15.5308 251.393 15.5803 251.378 15.6332C251.363 15.6861 251.359 15.7414 251.366 15.7959C251.373 15.8503 251.391 15.9029 251.418 15.9505C251.453 16.0164 251.506 16.0717 251.57 16.1106C251.634 16.1495 251.707 16.1705 251.782 16.1716C251.853 16.171 251.923 16.1548 251.987 16.1242L252.256 15.9663C252.304 15.9397 252.347 15.9037 252.381 15.8606C252.415 15.8175 252.44 15.7681 252.455 15.7151C252.469 15.6622 252.473 15.6069 252.466 15.5524C252.46 15.498 252.442 15.4454 252.414 15.3978C252.39 15.3477 252.355 15.3031 252.313 15.2668C252.271 15.2306 252.221 15.2034 252.168 15.1871C252.114 15.1708 252.058 15.1657 252.003 15.1721C251.947 15.1784 251.893 15.1962 251.845 15.2241ZM253.49 14.2925L252.936 14.6083C252.888 14.6349 252.846 14.6708 252.812 14.7139C252.778 14.7571 252.753 14.8065 252.738 14.8594C252.723 14.9123 252.719 14.9676 252.726 15.0221C252.733 15.0766 252.751 15.1292 252.778 15.1767C252.813 15.2427 252.866 15.298 252.93 15.3368C252.994 15.3757 253.067 15.3968 253.142 15.3978C253.213 15.3972 253.283 15.381 253.347 15.3504L253.901 15.0346C253.949 15.008 253.991 14.9721 254.025 14.929C254.059 14.8859 254.085 14.8364 254.099 14.7835C254.114 14.7306 254.118 14.6753 254.111 14.6208C254.104 14.5663 254.087 14.5138 254.059 14.4662C254.035 14.416 254 14.3714 253.958 14.3352C253.915 14.2989 253.866 14.2718 253.812 14.2555C253.759 14.2392 253.703 14.2341 253.647 14.2404C253.592 14.2468 253.538 14.2645 253.49 14.2925ZM255.72 13.5203C255.697 13.4755 255.666 13.4356 255.628 13.4031C255.59 13.3705 255.546 13.346 255.498 13.3308V10.1554C255.498 10.0993 255.487 10.0438 255.466 9.99195C255.445 9.94013 255.413 9.89305 255.374 9.85342C255.334 9.81378 255.287 9.78239 255.235 9.76104C255.183 9.73968 255.127 9.7288 255.071 9.72901C255.016 9.72919 254.961 9.74045 254.91 9.76214C254.859 9.78383 254.814 9.8155 254.775 9.85527C254.737 9.89503 254.707 9.94209 254.687 9.99364C254.667 10.0452 254.658 10.1002 254.66 10.1554V13.345C254.612 13.3602 254.568 13.3847 254.53 13.4173C254.492 13.4499 254.461 13.4897 254.439 13.5345C254.409 13.59 254.392 13.6515 254.389 13.7143C254.387 13.7772 254.398 13.8399 254.423 13.8977C254.398 13.9556 254.387 14.0182 254.389 14.0811C254.392 14.144 254.409 14.2054 254.439 14.2609C254.461 14.3057 254.492 14.3456 254.53 14.3781C254.568 14.4107 254.612 14.4353 254.66 14.4504V17.6401C254.66 17.7532 254.705 17.8616 254.785 17.9415C254.865 18.0215 254.974 18.0664 255.087 18.0664C255.2 18.0664 255.309 18.0215 255.389 17.9415C255.469 17.8616 255.514 17.7532 255.514 17.6401V14.4346C255.562 14.4195 255.606 14.3949 255.644 14.3623C255.682 14.3298 255.713 14.2899 255.735 14.2451C255.765 14.1896 255.782 14.1282 255.785 14.0653C255.787 14.0024 255.776 13.9398 255.751 13.8819C255.788 13.7618 255.776 13.6323 255.72 13.5203ZM256.796 12.4292L256.243 12.745C256.195 12.7716 256.153 12.8075 256.118 12.8507C256.084 12.8938 256.059 12.9432 256.045 12.9961C256.03 13.0491 256.026 13.1044 256.033 13.1588C256.04 13.2133 256.057 13.2659 256.085 13.3135C256.12 13.3794 256.173 13.4347 256.236 13.4736C256.3 13.5124 256.374 13.5335 256.449 13.5345C256.52 13.5339 256.59 13.5178 256.654 13.4872L257.208 13.1713C257.256 13.1447 257.298 13.1088 257.332 13.0657C257.366 13.0226 257.391 12.9731 257.406 12.9202C257.421 12.8673 257.425 12.812 257.418 12.7575C257.411 12.703 257.393 12.6505 257.366 12.6029C257.341 12.5527 257.307 12.5081 257.264 12.4719C257.222 12.4356 257.172 12.4085 257.119 12.3922C257.066 12.3759 257.009 12.3708 256.954 12.3771C256.898 12.3835 256.845 12.4012 256.796 12.4292ZM258.107 12.5871C258.179 12.5865 258.249 12.5703 258.313 12.5397L258.582 12.3818C258.63 12.355 258.672 12.319 258.706 12.2758C258.74 12.2327 258.765 12.1832 258.78 12.1303C258.795 12.0774 258.799 12.022 258.793 11.9675C258.786 11.9129 258.769 11.8602 258.742 11.8124C258.715 11.7645 258.678 11.7225 258.635 11.6887C258.592 11.6549 258.542 11.63 258.489 11.6154C258.436 11.6008 258.38 11.5969 258.326 11.6037C258.271 11.6106 258.218 11.6282 258.171 11.6555L257.902 11.8134C257.854 11.84 257.811 11.8759 257.777 11.919C257.743 11.9621 257.718 12.0116 257.703 12.0645C257.689 12.1174 257.685 12.1727 257.692 12.2272C257.699 12.2817 257.716 12.3342 257.744 12.3818C257.78 12.4458 257.833 12.4988 257.897 12.5349C257.961 12.5711 258.034 12.5891 258.107 12.5871ZM258.582 15.382L258.313 15.2241C258.217 15.1703 258.103 15.1568 257.996 15.1866C257.89 15.2164 257.8 15.287 257.745 15.383C257.691 15.479 257.677 15.5926 257.706 15.699C257.736 15.8053 257.806 15.8958 257.902 15.9505L258.171 16.1084C258.235 16.139 258.305 16.1552 258.376 16.1558C258.451 16.1547 258.524 16.1337 258.588 16.0948C258.652 16.0559 258.705 16.0006 258.74 15.9347C258.768 15.8886 258.787 15.8372 258.794 15.7836C258.801 15.7301 258.797 15.6756 258.783 15.6237C258.768 15.5717 258.742 15.5234 258.708 15.4818C258.673 15.4402 258.63 15.4062 258.582 15.382ZM257.206 14.6083L256.653 14.2925C256.605 14.2652 256.552 14.2476 256.497 14.2408C256.443 14.2339 256.387 14.2378 256.334 14.2524C256.281 14.267 256.232 14.2919 256.188 14.3257C256.145 14.3595 256.109 14.4015 256.081 14.4494C256.054 14.4972 256.037 14.5499 256.03 14.6045C256.024 14.6591 256.028 14.7144 256.043 14.7673C256.058 14.8202 256.083 14.8697 256.117 14.9128C256.151 14.956 256.193 14.992 256.241 15.0188L256.795 15.3347C256.859 15.3653 256.929 15.3814 257 15.382C257.075 15.381 257.149 15.3599 257.213 15.3211C257.276 15.2822 257.329 15.2269 257.364 15.161C257.393 15.115 257.412 15.0636 257.419 15.0099C257.427 14.9562 257.423 14.9016 257.408 14.8495C257.393 14.7974 257.368 14.749 257.333 14.7074C257.298 14.6659 257.255 14.6321 257.206 14.6083ZM252.936 13.1556L253.49 13.4714C253.554 13.502 253.624 13.5181 253.695 13.5187C253.77 13.5177 253.843 13.4966 253.907 13.4578C253.971 13.4189 254.024 13.3636 254.059 13.2977C254.087 13.2501 254.104 13.1975 254.111 13.1431C254.118 13.0886 254.114 13.0333 254.099 12.9803C254.085 12.9274 254.059 12.878 254.025 12.8349C253.991 12.7917 253.949 12.7558 253.901 12.7292L253.347 12.4134C253.3 12.386 253.247 12.3683 253.193 12.3614C253.138 12.3545 253.083 12.3585 253.03 12.3732C252.977 12.3879 252.927 12.413 252.884 12.447C252.841 12.481 252.805 12.5233 252.778 12.5713C252.725 12.6705 252.712 12.7861 252.741 12.8947C252.771 13.0032 252.84 13.0965 252.936 13.1556ZM252.256 11.8134L251.987 11.6555C251.94 11.6282 251.887 11.6106 251.832 11.6037C251.778 11.5969 251.722 11.6008 251.669 11.6154C251.616 11.63 251.567 11.6549 251.523 11.6887C251.48 11.7225 251.443 11.7645 251.416 11.8124C251.389 11.8602 251.372 11.9129 251.365 11.9675C251.359 12.022 251.363 12.0774 251.378 12.1303C251.393 12.1832 251.418 12.2327 251.452 12.2758C251.486 12.319 251.528 12.355 251.576 12.3818L251.845 12.5397C251.909 12.5703 251.98 12.5865 252.051 12.5871C252.126 12.5861 252.199 12.565 252.263 12.5261C252.327 12.4872 252.379 12.432 252.414 12.366C252.441 12.3196 252.459 12.2682 252.465 12.215C252.472 12.1618 252.468 12.1078 252.453 12.0562C252.438 12.0046 252.413 11.9565 252.379 11.9148C252.346 11.8731 252.304 11.8386 252.256 11.8134Z" fill="#20133A"/>
<defs>
<linearGradient id="paint0_linear_725_5245" x1="164.978" y1="151.453" x2="178.472" y2="151.453" gradientUnits="userSpaceOnUse">
<stop stop-color="#9059FF"/>
<stop offset="1" stop-color="#F770FF"/>
</linearGradient>
<linearGradient id="paint1_linear_725_5245" x1="249.426" y1="13.9029" x2="260.528" y2="13.9029" gradientUnits="userSpaceOnUse">
<stop stop-color="#9059FF"/>
<stop offset="1" stop-color="#F770FF"/>
</linearGradient>
<clipPath id="clip0_725_5245">
<rect width="7.81666" height="7.81666" fill="white" transform="translate(202.62 11.0605)"/>
</clipPath>
<clipPath id="clip1_725_5245">
<rect width="7.81666" height="7.81666" fill="white" transform="translate(214.345 11.0605)"/>
</clipPath>
<clipPath id="clip2_725_5245">
<rect width="10.2028" height="10.2028" fill="white" transform="translate(270.015 9.56494)"/>
</clipPath>
<clipPath id="clip3_725_5245">
<rect width="10.2028" height="10.2028" fill="white" transform="translate(290.421 9.56494)"/>
</clipPath>
<clipPath id="clip4_725_5245">
<rect width="10.2028" height="10.2028" fill="white" transform="translate(310.827 9.56494)"/>
</clipPath>
</defs>
</svg>
