<?xml version="1.0" encoding="utf-8"?>
<!-- Generator: Adobe Illustrator 27.9.0, SVG Export Plug-In . SVG Version: 6.00 Build 0)  -->
<svg version="1.1" id="Layer_1" xmlns="http://www.w3.org/2000/svg" xmlns:xlink="http://www.w3.org/1999/xlink" x="0px" y="0px"
	 viewBox="0 0 395 250" style="enable-background:new 0 0 395 250;" xml:space="preserve">
<style type="text/css">
	.st0{opacity:0.5;}
	.st1{fill:#E7E7E7;}
	.st2{fill:#ECECEC;}
	.st3{fill:#EEE6F4;}
	.st4{fill:#FFFFFF;stroke:#0A84FF;stroke-width:1.0494;}
	.st5{fill:none;stroke:#0A84FF;stroke-width:3.1954;stroke-opacity:0.29;}
	.st6{fill-rule:evenodd;clip-rule:evenodd;fill:#815BDF;}
	.st7{fill:none;stroke:url(#SVGID_1_);stroke-width:2.5031;stroke-linecap:round;}
	.st8{fill:#FFFFFF;}
	.st9{fill:none;stroke:#E7E7E7;stroke-width:0.3594;}
	.st10{clip-path:url(#SVGID_00000161613312378337561190000005264710792893454739_);}
	.st11{fill:url(#SVGID_00000139262069253092119750000001238302584027967108_);}
	.st12{fill:#20133A;}
	.st13{fill:none;stroke:#999999;stroke-width:0.3594;}
	.st14{fill:none;stroke:#E7E7E7;stroke-width:0.3594;stroke-linecap:round;}
	.st15{fill:url(#SVGID_00000149376737939368330950000002266299512660934027_);}
	.st16{fill:#9E9E9E;}
	.st17{fill:url(#SVGID_00000101821780534376881100000017291684492077625233_);}
	.st18{fill:#E76DFF;}
	.st19{fill:#E31587;}
	.st20{fill:#ECB60D;}
	.st21{fill:#C4D1E1;}
	.st22{fill:#E4EEF3;}
	.st23{fill:#E9D6B8;}
	.st24{fill:#4E99FF;}
	.st25{fill:#292960;}
	.st26{fill:#B6C2C9;}
	.st27{fill:#D8E5ED;}
	.st28{fill:#879BA6;}
	.st29{fill:#B0BFDE;}
	.st30{fill:#4D6AB5;}
	.st31{fill:#333372;}
</style>
<g class="st0">
	<path class="st1" d="M189.5,193.8c0.6-0.8,0.9-1.8,0.8-2.8c-0.1-1-0.6-1.9-1.4-2.6c-17.5-14-29.8-33.4-34.7-55.2
		c-4.9-21.8-2.2-44.6,7.7-64.6c0.2-0.5,0.4-0.9,0.4-1.5c0-0.5,0-1-0.2-1.5c-0.2-0.5-0.4-0.9-0.8-1.3c-0.3-0.4-0.7-0.7-1.2-0.9
		c-0.5-0.2-1-0.4-1.5-0.4c-0.5,0-1,0-1.5,0.2c-0.5,0.2-0.9,0.4-1.3,0.8c-0.4,0.3-0.7,0.8-0.9,1.2c-10.6,21.6-13.6,46.1-8.3,69.6
		c5.3,23.5,18.5,44.5,37.3,59.5c0.4,0.3,0.8,0.5,1.3,0.7c0.5,0.1,1,0.2,1.5,0.1c0.5-0.1,1-0.2,1.4-0.4
		C188.7,194.5,189.1,194.2,189.5,193.8z"/>
	<path class="st1" d="M162.2,52.9c-0.5,0.8-0.7,1.9-0.5,2.8c0.2,1,0.8,1.8,1.6,2.4c0.8,0.6,1.9,0.8,2.8,0.6c1-0.2,1.9-0.7,2.4-1.6
		c11.2-16.6,27.3-29.4,46.1-36.6c0.9-0.4,1.6-1.1,2-2c0.4-0.9,0.4-1.9,0-2.9c-0.4-0.9-1.1-1.7-2-2.1c-0.9-0.4-1.9-0.5-2.9-0.2
		C191.6,21.2,174.3,35,162.2,52.9z"/>
	<path class="st1" d="M156.2,172.6c0.1-0.9-0.1-1.8-0.5-2.6c-13-20.8-18.7-45.4-16.1-69.7c0.1-1-0.2-2-0.8-2.8
		c-0.6-0.8-1.6-1.3-2.6-1.4c-1-0.1-2,0.2-2.8,0.8c-0.8,0.6-1.3,1.6-1.4,2.6c-2.8,26.1,3.3,52.3,17.2,74.6c0.4,0.7,1,1.2,1.7,1.5
		c0.7,0.3,1.5,0.4,2.3,0.2c0.8-0.2,1.5-0.5,2-1.1C155.8,174.1,156.1,173.4,156.2,172.6z"/>
	<path class="st1" d="M137.2,89.9c0.5,0.1,1,0.1,1.5,0c0.5-0.1,1-0.3,1.4-0.5s0.8-0.6,1.1-1c0.3-0.4,0.5-0.9,0.6-1.4
		c5.2-22.9,17.7-43.5,35.6-58.8c0.4-0.3,0.7-0.7,0.9-1.2c0.2-0.4,0.4-0.9,0.4-1.4c0-0.5,0-1-0.2-1.5s-0.4-0.9-0.7-1.3
		c-0.3-0.4-0.7-0.7-1.2-0.9c-0.5-0.2-0.9-0.4-1.4-0.4s-1,0-1.5,0.2c-0.5,0.2-0.9,0.4-1.3,0.7c-19.1,16.4-32.5,38.4-38.1,62.9
		c-0.1,0.5-0.1,1,0,1.5c0.1,0.5,0.3,1,0.5,1.4c0.3,0.4,0.6,0.8,1,1.1S136.7,89.8,137.2,89.9z"/>
	<path class="st1" d="M132.9,151.7c-6.5-18.8-8.3-38.9-5.3-58.5c3-19.6,10.7-38.3,22.5-54.3c0.6-0.8,0.9-1.8,0.7-2.8
		c-0.2-1-0.7-1.9-1.5-2.5c-0.8-0.6-1.9-0.9-2.9-0.7c-1,0.2-1.9,0.7-2.5,1.5c-12.5,17-20.7,36.8-23.9,57.6
		c-3.2,20.9-1.3,42.2,5.6,62.2c0.3,1,1,1.8,1.9,2.2c0.9,0.4,2,0.5,2.9,0.2c1-0.3,1.8-1,2.2-1.9C133.1,153.7,133.2,152.6,132.9,151.7
		z"/>
	<path class="st1" d="M363.8,163.8c-17.8,19.5-40.7,33.7-66.1,41.1c-1,0.3-1.8,0.9-2.3,1.8c-0.5,0.9-0.6,1.9-0.3,2.9
		c0.3,1,1,1.8,1.9,2.3c0.9,0.5,2,0.6,2.9,0.3c26.8-7.8,50.9-22.8,69.6-43.3c0.7-0.8,1-1.7,0.9-2.7c-0.1-1-0.5-1.9-1.3-2.6
		c-0.7-0.7-1.7-1-2.7-1C365.4,162.6,364.5,163.1,363.8,163.8z"/>
	<path class="st1" d="M348.9,56.6c0.1,1.1,0.3,2.3,0.4,3.4c1.1,13.1-0.5,26.3-5,38.7c-0.3,1-0.3,2,0.2,2.9c0.4,0.9,1.2,1.6,2.2,2
		c1,0.3,2,0.3,2.9-0.1c0.9-0.4,1.6-1.2,2-2.2c4.8-13.4,6.6-27.7,5.4-41.9c-0.1-1.2-0.3-2.5-0.4-3.7c-0.1-1-0.7-1.9-1.5-2.5
		c-0.8-0.6-1.8-0.9-2.8-0.8c-1,0.1-1.9,0.6-2.6,1.4C349.1,54.6,348.8,55.6,348.9,56.6z"/>
	<path class="st1" d="M346.1,113.3c0.1-0.9,0-1.8-0.5-2.6c-0.5-0.8-1.2-1.4-2.1-1.6c-0.9-0.3-1.8-0.3-2.6,0.1c-0.8,0.3-1.5,1-2,1.8
		c-7.8,14.6-19.5,26.9-33.8,35.4c-0.9,0.5-1.5,1.4-1.7,2.4s-0.1,2,0.5,2.9c0.5,0.9,1.4,1.5,2.4,1.7c1,0.2,2,0.1,2.9-0.4
		c15.4-9.3,28.1-22.5,36.6-38.4C345.9,114.2,346,113.8,346.1,113.3z"/>
	<path class="st1" d="M298.6,156.5c0.1-0.7,0-1.4-0.3-2.1c-0.2-0.5-0.5-0.9-0.8-1.2s-0.8-0.6-1.3-0.8c-0.5-0.2-1-0.3-1.5-0.3
		c-0.5,0-1,0.1-1.5,0.3c-15,6.3-31.4,8.6-47.6,6.5c-1-0.1-2,0.1-2.8,0.8c-0.8,0.6-1.3,1.5-1.5,2.5c-0.1,1,0.1,2,0.8,2.8
		c0.6,0.8,1.5,1.3,2.6,1.5c17.5,2.2,35.3-0.2,51.6-7c0.6-0.3,1.1-0.7,1.5-1.2C298.3,157.7,298.5,157.1,298.6,156.5z"/>
	<path class="st1" d="M259.9,68.2c-0.1,0.7-0.5,1.3-1,1.7c-0.5,0.4-1.2,0.6-1.9,0.5c-8.4-1.3-16.9-0.1-24.6,3.5
		c-7.6,3.6-14,9.4-18.3,16.6c-0.3,0.4-0.4,0.9-0.5,1.4c-0.1,0.5,0,1,0.1,1.5c0.1,0.5,0.3,0.9,0.7,1.3c0.3,0.4,0.7,0.7,1.1,1
		c0.4,0.3,0.9,0.4,1.4,0.5c0.5,0.1,1,0,1.5-0.1c0.5-0.1,1-0.3,1.4-0.6c0.4-0.3,0.7-0.7,1-1.1c3.5-5.9,8.7-10.7,15-13.6
		s13.2-4,20.1-2.9c2.7,0.4,5.4-0.3,7.6-1.9c2.2-1.6,3.7-4,4.1-6.7c0.4-2.7-0.3-5.4-1.9-7.6c-1.6-2.2-4-3.6-6.7-4
		c-13.4-2-27,0.9-38.3,8.2c-11.3,7.3-19.5,18.5-23.1,31.5c-3.6,13-2.2,26.8,3.8,38.8c6,12,16.3,21.5,28.8,26.5
		c0.9,0.4,2,0.3,2.9-0.1c0.9-0.4,1.6-1.1,2-2.1c0.4-0.9,0.4-2,0-2.9s-1.1-1.7-2-2.1c-10.8-4.3-19.6-12.5-24.8-22.8
		c-5.2-10.4-6.3-22.2-3.3-33.4c3.1-11.1,10.1-20.8,19.9-27.1c9.7-6.3,21.5-8.8,33-7.1c0.7,0.1,1.3,0.5,1.7,1
		C259.8,66.9,260,67.6,259.9,68.2z"/>
	<path class="st1" d="M315.2,122.1c-8.8,9.3-19.8,16.3-31.9,20.5c-12.2,4.2-25.2,5.3-37.9,3.4c-9.1-1.4-17.2-6.3-22.7-13.7
		c-5.4-7.4-7.7-16.6-6.4-25.6l0.1-0.7c0.2-1-0.1-2-0.6-2.9c-0.6-0.8-1.5-1.4-2.5-1.6c-1-0.2-2,0.1-2.9,0.6c-0.8,0.6-1.4,1.5-1.6,2.5
		l-0.1,0.8c-1.7,11,1.1,22.3,7.8,31.3c6.6,9,16.6,15,27.7,16.7c14,2.1,28.2,0.8,41.5-3.7c13.3-4.6,25.4-12.3,35-22.5
		c0.7-0.7,1.1-1.7,1-2.7c0-1-0.5-2-1.2-2.7c-0.7-0.7-1.7-1.1-2.8-1C316.9,120.9,315.9,121.4,315.2,122.1L315.2,122.1z"/>
	<path class="st1" d="M333.1,44c3.6,11.3,4.6,23.3,3,35c-1.7,11.7-6,23-12.6,32.8c-0.5,0.8-0.7,1.9-0.5,2.8c0.2,1,0.8,1.8,1.6,2.4
		c0.8,0.6,1.9,0.8,2.9,0.6c1-0.2,1.9-0.7,2.4-1.6c7.1-10.5,11.8-22.5,13.7-35.1c2-13.2,1-26.6-3.1-39.3c-0.3-1-1-1.8-1.9-2.2
		c-0.9-0.5-2-0.6-2.9-0.2c-1,0.3-1.8,1-2.2,1.9C332.8,42,332.8,43.1,333.1,44L333.1,44z"/>
	<path class="st1" d="M362.3,73.9c-0.3,5.4-1,10.7-2.1,15.9c-2.5,11.9-7.2,23.3-13.7,33.7c-0.3,0.4-0.5,0.9-0.6,1.4
		c-0.1,0.5-0.1,1,0,1.5c0.1,0.5,0.3,1,0.6,1.4c0.3,0.4,0.7,0.8,1.1,1.1c0.4,0.3,0.9,0.5,1.4,0.5c0.5,0.1,1,0.1,1.5-0.1
		s1-0.3,1.4-0.6s0.8-0.7,1-1.1c7-11.1,12-23.3,14.7-36.1c0.5-2.1,0.9-4.3,1.2-6.5c0.5-3.5,0.9-7.1,1.1-10.6c0-0.5,0-1-0.2-1.5
		c-0.2-0.5-0.4-0.9-0.8-1.3c-0.3-0.4-0.7-0.7-1.2-0.9c-0.5-0.2-1-0.4-1.5-0.4c-0.5,0-1,0-1.5,0.2c-0.5,0.2-0.9,0.4-1.3,0.8
		s-0.7,0.8-0.9,1.2C362.4,72.9,362.3,73.4,362.3,73.9z"/>
	<path class="st1" d="M344.6,139c0.6-0.8,0.9-1.8,0.8-2.8c-0.1-1-0.6-1.9-1.4-2.5c-0.8-0.6-1.8-0.9-2.8-0.9c-1,0.1-1.9,0.5-2.6,1.3
		c-13.1,15.8-30.5,27.5-50.1,33.5c-0.5,0.1-0.9,0.4-1.3,0.7s-0.7,0.7-0.9,1.2c-0.2,0.4-0.4,0.9-0.4,1.4c0,0.5,0,1,0.2,1.5
		s0.4,0.9,0.7,1.3c0.3,0.4,0.7,0.7,1.2,0.9c0.4,0.2,0.9,0.4,1.4,0.4c0.5,0,1,0,1.5-0.2C311.9,168.5,330.6,156,344.6,139z"/>
	<path class="st1" d="M280,175.2c0.1-0.4,0.1-0.8,0-1.2c-0.2-1-0.7-1.9-1.6-2.5c-0.8-0.6-1.9-0.8-2.9-0.6c-11.2,2-22.7,2.1-34,0.3
		c-14.3-2.2-27.4-9.5-36.8-20.5c-0.3-0.4-0.7-0.7-1.2-1c-0.5-0.2-0.9-0.4-1.5-0.4s-1,0-1.5,0.2c-0.5,0.2-0.9,0.4-1.3,0.7
		c-0.4,0.3-0.7,0.7-0.9,1.2c-0.2,0.5-0.4,1-0.4,1.5c0,0.5,0,1,0.2,1.5c0.2,0.5,0.4,0.9,0.8,1.3c10.6,12.4,25.3,20.6,41.5,23.1
		c12.1,1.9,24.5,1.8,36.5-0.3c0.8-0.1,1.5-0.5,2.1-1.1S279.9,176,280,175.2z"/>
	<path class="st1" d="M195.8,145.2c0.4-0.2,0.8-0.6,1.2-0.9c0.3-0.4,0.6-0.8,0.7-1.3c0.1-0.5,0.2-1,0.1-1.5c-0.1-0.5-0.2-1-0.4-1.4
		c-6.2-11.4-8.4-24.4-6.4-37.2c1.5-9.4,5.1-18.3,10.7-26c5.6-7.7,13-14,21.5-18.3c0.5-0.2,0.9-0.5,1.2-0.9c0.3-0.4,0.6-0.8,0.8-1.3
		c0.2-0.5,0.2-1,0.2-1.5s-0.2-1-0.4-1.5c-0.2-0.5-0.6-0.9-1-1.2c-0.4-0.3-0.9-0.6-1.3-0.7s-1-0.2-1.5-0.2c-0.5,0.1-1,0.2-1.5,0.5
		c-9.6,4.9-17.9,11.9-24.2,20.6c-6.3,8.7-10.5,18.7-12.1,29.3c-2.2,14.4,0.3,29.1,7.2,42c0.2,0.4,0.6,0.8,1,1.2
		c0.4,0.3,0.8,0.6,1.3,0.7c0.5,0.1,1,0.2,1.5,0.1C194.9,145.6,195.4,145.4,195.8,145.2z"/>
	<path class="st1" d="M270,53c0.2-0.4,0.4-0.9,0.5-1.4c0.1-0.5,0-1-0.1-1.5c-0.1-0.5-0.4-0.9-0.7-1.3c-0.3-0.4-0.7-0.7-1.1-1
		c-2.4-1.3-5-2.2-7.6-2.6c-9.1-1.4-18.4-0.9-27.4,1.4c-0.9,0.3-1.7,0.9-2.2,1.8c-0.5,0.9-0.6,1.9-0.4,2.8c0.3,0.9,0.9,1.8,1.7,2.3
		c0.8,0.5,1.8,0.7,2.8,0.5c7.9-2,16.2-2.5,24.2-1.2c1.8,0.3,3.5,0.9,5.1,1.7c0.4,0.2,0.9,0.4,1.4,0.5c0.5,0.1,1,0,1.5-0.1
		c0.5-0.1,0.9-0.4,1.3-0.7C269.4,53.8,269.7,53.4,270,53z"/>
	<path class="st1" d="M315.6,35.8c0.7,1.2,1.4,2.5,2,3.8c5.7,11.9,7.7,25.3,5.7,38.3c-2.1,13.4-8.3,25.9-17.7,35.7
		c-9.4,9.8-21.6,16.5-35,19.3c-7.7,1.5-15.6,1.7-23.3,0.5c-5.7-0.9-10.9-4-14.3-8.6c-3.4-4.6-4.9-10.4-4-16.1
		c0.9-5.7,4-10.8,8.6-14.2c4.7-3.4,10.5-4.8,16.2-3.9c4,0.6,8,0.2,11.8-1.3s7-3.8,9.6-6.9c2.5-3.1,4.2-6.8,4.9-10.7
		c0.7-3.9,0.3-8-1.1-11.7c-0.4-1-1.1-1.7-2-2.2c-0.9-0.4-2-0.5-2.9-0.1c-1,0.4-1.7,1.1-2.2,2c-0.4,0.9-0.5,2-0.1,2.9
		c0.9,2.5,1.2,5.2,0.7,7.8c-0.4,2.6-1.6,5.1-3.3,7.1c-1.7,2.1-3.9,3.6-6.4,4.6c-2.5,1-5.2,1.2-7.8,0.8c-7.7-1.2-15.6,0.7-21.9,5.3
		c-6.3,4.6-10.5,11.5-11.7,19.2c-1.2,7.7,0.8,15.5,5.4,21.8c4.6,6.3,11.6,10.5,19.3,11.6c3.7,0.6,7.5,0.9,11.3,0.9
		c12.5,0,24.9-3.2,35.8-9.2c11-6,20.2-14.7,26.9-25.2c6.7-10.5,10.6-22.6,11.4-35c0.8-12.4-1.7-24.9-7-36.1
		c-0.7-1.4-1.4-2.8-2.2-4.2c-0.5-0.9-1.3-1.5-2.3-1.8c-1-0.3-2-0.2-2.9,0.3s-1.6,1.3-1.8,2.3C315,33.9,315.1,35,315.6,35.8
		L315.6,35.8z"/>
	<path class="st1" d="M298.5,42.2c-6.1-9.7-15.6-17-26.6-20.5c-1-0.3-2-0.2-2.9,0.3c-0.9,0.5-1.6,1.3-1.9,2.2c-0.3,1-0.2,2,0.3,2.9
		c0.5,0.9,1.3,1.6,2.3,1.9c9.8,3.1,18.2,9.8,23.3,18.7c5.1,8.9,6.7,19.4,4.3,29.4c-2.3,10-8.4,18.7-16.9,24.5
		c-8.6,5.7-19,8.1-29.2,6.5c-1-0.2-2,0.1-2.9,0.7c-0.8,0.6-1.4,1.5-1.5,2.5c-0.2,1,0.1,2,0.7,2.8c0.6,0.8,1.5,1.4,2.5,1.5
		c9.2,1.4,18.7,0.2,27.2-3.6c8.5-3.8,15.8-9.9,20.9-17.6c5.1-7.7,7.9-16.8,8-26.1C306.1,59.1,303.5,50,298.5,42.2z"/>
	<path class="st1" d="M192.4,39c-12.7,10-22.6,23.1-28.7,38c-6.1,14.9-8.1,31.2-6,47.2c0.1,1,0.7,1.9,1.5,2.5
		c0.8,0.6,1.8,0.9,2.8,0.8c1-0.1,1.9-0.7,2.5-1.5c0.6-0.8,0.9-1.8,0.8-2.8c-1.1-8-1-16.2,0.2-24.2c6.7-43.8,46.8-75.5,91.3-72.2
		c1,0.1,1.9-0.2,2.7-0.8c0.8-0.6,1.3-1.5,1.4-2.4c0-0.1,0-0.2,0-0.3c0-0.5,0-1-0.2-1.5c-0.2-0.5-0.4-0.9-0.7-1.3
		c-0.3-0.4-0.7-0.7-1.2-0.9c-0.5-0.2-0.9-0.4-1.4-0.4C234.1,17.4,210.8,24.4,192.4,39z"/>
	<path class="st1" d="M234,199.7c0-0.1,0-0.2,0-0.3c0.1-1-0.1-1.9-0.6-2.7c-0.5-0.8-1.4-1.4-2.3-1.6c-14.8-3.5-28.4-10.8-39.5-21.1
		c-11.1-10.4-19.2-23.5-23.5-38c-0.1-0.5-0.4-1-0.7-1.4c-0.3-0.4-0.7-0.7-1.2-1c-0.5-0.3-0.9-0.4-1.5-0.5c-0.5-0.1-1,0-1.5,0.1
		c-0.5,0.1-1,0.4-1.4,0.7c-0.4,0.3-0.7,0.7-1,1.2c-0.2,0.5-0.4,1-0.4,1.5s0,1,0.2,1.5c4.7,15.8,13.5,30,25.6,41.3
		c12,11.3,26.9,19.2,43,23c0.5,0.1,1,0.1,1.5,0c0.5-0.1,1-0.3,1.4-0.5c0.4-0.3,0.8-0.6,1.1-1C233.7,200.6,233.9,200.2,234,199.7z"/>
	<path class="st1" d="M321.3,188.2c0.1-0.7,0-1.4-0.3-2c-0.3-0.6-0.7-1.2-1.3-1.6c-0.6-0.4-1.2-0.7-1.9-0.7c-0.7-0.1-1.4,0.1-2,0.4
		c-22,10.9-46.6,15.4-71.1,13c-1-0.1-2,0.2-2.8,0.8c-0.8,0.6-1.3,1.6-1.4,2.6c-0.1,1,0.2,2,0.9,2.8c0.6,0.8,1.6,1.3,2.6,1.4
		c25.9,2.6,52-2.2,75.2-13.8c0.6-0.3,1-0.7,1.4-1.2C320.9,189.4,321.2,188.8,321.3,188.2z"/>
	<path class="st1" d="M374.2,126.4c-10.7,21-26.8,38.7-46.8,51.2c-0.5,0.2-0.9,0.6-1.2,1c-0.3,0.4-0.6,0.9-0.7,1.4
		c-0.1,0.5-0.2,1-0.1,1.6c0.1,0.5,0.3,1,0.6,1.5c0.3,0.4,0.7,0.8,1.1,1.1c0.4,0.3,0.9,0.5,1.5,0.6c0.5,0.1,1.1,0.1,1.6,0
		c0.5-0.1,1-0.3,1.4-0.7c21.1-13.3,38.2-32,49.5-54.2c0.4-0.9,0.5-1.9,0.1-2.9c-0.3-0.9-1-1.7-1.9-2.2c-0.9-0.4-1.9-0.5-2.9-0.2
		C375.5,124.9,374.7,125.6,374.2,126.4z"/>
	<path class="st1" d="M297.3,26.4c-0.4,0.3-0.7,0.7-0.9,1.2c-0.2,0.5-0.3,0.9-0.4,1.4c0,0.5,0.1,1,0.2,1.5c0.2,0.5,0.4,0.9,0.8,1.3
		c4.1,4.5,7.5,9.7,9.9,15.3c2.9,6.8,4.4,14.1,4.3,21.5c0,1,0.3,1.9,1,2.6c0.7,0.7,1.6,1.2,2.5,1.3c1,0.1,1.9-0.2,2.7-0.8
		c0.8-0.6,1.3-1.5,1.4-2.4c0-0.2,0-0.4,0-0.5c0.1-8.4-1.5-16.8-4.9-24.6c-2.7-6.4-6.5-12.3-11.3-17.5c-0.3-0.4-0.8-0.7-1.2-0.9
		c-0.5-0.2-1-0.3-1.5-0.4c-0.5,0-1,0.1-1.5,0.2C298.1,25.8,297.7,26.1,297.3,26.4z"/>
	<path class="st1" d="M241.7,110.6c0.4-2.3,1.6-4.4,3.6-5.8c1.9-1.4,4.3-2,6.7-1.6c6.6,1,13.4,0.2,19.5-2.4c0.9-0.4,1.6-1.2,2-2.1
		c0.4-0.9,0.3-2-0.1-2.9c-0.4-0.9-1.1-1.6-2.1-2c-0.9-0.4-2-0.4-2.9,0c-4.8,2-10.1,2.7-15.3,1.9c-4.4-0.7-8.8,0.4-12.4,3
		c-3.6,2.6-5.9,6.5-6.6,10.8c-0.7,4.3,0.4,8.8,3.1,12.3c2.6,3.5,6.5,5.9,10.9,6.6c15.1,2.3,30.4-1,43.1-9.4s21.9-21,25.7-35.6
		l0.1-0.4c0.1-0.5,0.1-1,0-1.5c-0.1-0.5-0.3-1-0.6-1.4c-0.3-0.4-0.6-0.8-1.1-1.1c-0.4-0.3-0.9-0.5-1.4-0.6c-0.5-0.1-1-0.1-1.5,0
		c-0.5,0.1-1,0.3-1.4,0.6s-0.8,0.6-1.1,1c-0.3,0.4-0.5,0.9-0.6,1.4c-3.3,12.8-11.3,24-22.4,31.2c-11.1,7.3-24.6,10.2-37.8,8.1
		c-2.4-0.4-4.5-1.6-5.9-3.5C241.9,115.3,241.3,112.9,241.7,110.6z"/>
	<path class="st1" d="M278.2,86.7c-0.3,0.4-0.6,0.8-0.8,1.3c-0.2,0.5-0.2,1-0.2,1.5c0,0.5,0.1,1,0.4,1.4s0.5,0.9,0.9,1.2
		c0.4,0.3,0.8,0.6,1.3,0.8c0.5,0.2,1,0.2,1.5,0.2c0.5,0,1-0.1,1.5-0.4s0.9-0.5,1.2-0.9c4.4-4.8,7.3-10.6,8.6-17
		c1.3-6.3,0.8-12.9-1.4-18.9c-2.2-6.1-6-11.5-11-15.6s-11-6.8-17.4-7.8c-12.3-1.9-24.8-1-36.6,2.7C214.3,39,203.5,45.4,194.6,54
		c-0.4,0.3-0.7,0.8-0.9,1.2c-0.2,0.5-0.3,1-0.3,1.5c0,0.5,0.1,1,0.3,1.5c0.2,0.5,0.5,0.9,0.8,1.3c0.4,0.4,0.8,0.7,1.3,0.9
		c0.5,0.2,1,0.3,1.5,0.3c0.5,0,1-0.1,1.5-0.3c0.5-0.2,0.9-0.5,1.3-0.8c8.1-7.8,17.8-13.5,28.5-16.9c10.7-3.4,22-4.2,33.1-2.5
		c5,0.8,9.8,2.9,13.7,6.1c3.9,3.2,6.9,7.5,8.6,12.2c1.7,4.8,2.1,9.9,1.1,14.9C284,78.3,281.6,82.9,278.2,86.7z"/>
	<path class="st1" d="M191.3,69.4c0.3-0.4,0.5-0.9,0.6-1.4c0.1-0.5,0.1-1,0.1-1.5c-0.1-0.5-0.3-1-0.5-1.4c-0.3-0.4-0.6-0.8-1-1.1
		c-0.4-0.3-0.9-0.5-1.4-0.6c-0.5-0.1-1-0.1-1.5-0.1c-0.5,0.1-1,0.3-1.4,0.5c-0.4,0.3-0.8,0.6-1.1,1c-7.4,10.1-12.2,21.7-14.2,34l0,0
		c-0.1,0.5-0.1,1,0.1,1.5c0.1,0.5,0.3,0.9,0.6,1.4c0.6,0.8,1.5,1.4,2.5,1.5c1,0.2,2-0.1,2.9-0.7c0.8-0.6,1.4-1.5,1.5-2.5
		C180.2,89,184.6,78.5,191.3,69.4z"/>
	<path class="st1" d="M169.8,113.4c0.3,14.3,4.4,28.2,11.9,40.4c7.5,12.2,18.1,22.2,30.8,28.9c0.9,0.5,2,0.6,2.9,0.3
		c1-0.3,1.8-1,2.3-1.9c0.2-0.4,0.4-0.8,0.4-1.2c0.1-0.8,0-1.6-0.4-2.3c-0.4-0.7-0.9-1.3-1.6-1.7c-11.4-6.1-21.1-15.1-27.8-26.2
		c-6.8-11-10.5-23.6-10.8-36.5c0-0.5-0.1-1-0.3-1.5c-0.2-0.5-0.5-0.9-0.9-1.3c-0.4-0.4-0.8-0.6-1.3-0.8c-0.5-0.2-1-0.3-1.5-0.3
		c-0.5,0-1,0.1-1.5,0.3c-0.5,0.2-0.9,0.5-1.2,0.9c-0.4,0.4-0.6,0.8-0.8,1.3C169.9,112.4,169.8,112.9,169.8,113.4L169.8,113.4z"/>
	<path class="st1" d="M373.1,90.3c-0.4,2.2-0.9,4.5-1.5,6.7c-7.1,28.3-24.6,52.8-49.1,68.9c-24.4,16.1-54.1,22.5-83,17.9
		c-3.9-0.6-7.7-1.5-11.5-2.7c-0.5-0.2-1-0.2-1.5-0.2c-0.5,0-1,0.2-1.5,0.4c-0.5,0.2-0.9,0.5-1.2,0.9c-0.3,0.4-0.6,0.8-0.7,1.3
		s-0.2,1-0.2,1.5c0,0.5,0.2,1,0.4,1.5c0.2,0.5,0.6,0.9,1,1.2c0.4,0.3,0.9,0.6,1.4,0.7c4.1,1.3,8.4,2.3,12.7,3
		c30.8,4.7,62.3-2.2,88.3-19.3c26-17.1,44.7-43.2,52.4-73.2c0.6-2.3,1.1-4.7,1.6-7.1l0-0.2c0.2-1-0.1-2-0.6-2.9
		c-0.6-0.8-1.5-1.4-2.5-1.6c-1-0.2-2,0.1-2.9,0.6C373.9,88.4,373.3,89.3,373.1,90.3L373.1,90.3z"/>
</g>
<ellipse class="st2" cx="230" cy="222.7" rx="147.4" ry="5.1"/>
<path class="st3" d="M43.2,157.9c23.8,0,43.2-19.3,43.2-43.2c0-23.8-19.3-43.2-43.2-43.2S0,90.9,0,114.8
	C0,138.6,19.3,157.9,43.2,157.9z"/>
<path class="st4" d="M163.4,48.7H38.6c-1.1,0-1.9,0.8-1.9,1.8v18.4c0,1,0.9,1.8,1.9,1.8h124.7c1.1,0,1.9-0.8,1.9-1.8V50.5
	C165.3,49.5,164.4,48.7,163.4,48.7z"/>
<path class="st5" d="M165.2,46.8H36.8c-1.1,0-1.9,0.9-1.9,1.9v21.8c0,1.1,0.9,1.9,1.9,1.9h128.4c1.1,0,1.9-0.9,1.9-1.9V48.8
	C167.1,47.7,166.3,46.8,165.2,46.8z"/>
<g>
	<path class="st6" d="M-186.9-131.1c0-0.2,0-0.5-0.1-0.7c0-0.3-0.1-0.6-0.2-0.9c-0.1-0.6-0.3-1.3-0.5-1.9c-0.1-0.4-0.2-0.7-0.4-1.1
		c-0.1-0.2-0.1-0.3-0.2-0.5c0-0.1-0.1-0.1-0.2-0.2c-0.1-0.1-0.2-0.2-0.3-0.2c-0.1,0-0.1,0-0.2,0c-0.1,0-0.2,0-0.2,0.1
		c-0.1,0-0.1,0-0.2,0.1c-0.1,0.1-0.2,0.1-0.3,0.2c-0.2,0.2-0.4,0.4-0.7,0.6c-0.5,0.5-1.1,1.1-1.6,1.8c-0.3,0.4-0.6,0.8-0.9,1.1
		c-0.1,0.2-0.2,0.3-0.3,0.5c0,0.1-0.1,0.2-0.1,0.2c0,0.1,0,0.1,0,0.2c0,0.1,0,0.1,0,0.2c0,0.1,0.1,0.2,0.2,0.2c0,0,0.1,0.1,0.2,0.1
		c0.1,0,0.1,0,0.2,0c0.1,0,0.1,0,0.2,0l0.1-0.1c0.3-0.1,0.6-0.2,0.9-0.3c0.3-0.1,0.5-0.1,0.8-0.1c0.4,0,0.8,0.1,1.2,0.3
		c0.6,0.3,1.1,0.6,1.6,1c0,0,0.1,0.1,0.1,0.1c0.1,0,0.1,0,0.2,0c0.1,0,0.2,0,0.3-0.1c0.1,0,0.1-0.1,0.2-0.2c0.1-0.1,0.1-0.2,0.1-0.3
		c0,0,0-0.1,0-0.1C-186.9-130.9-186.9-131-186.9-131.1L-186.9-131.1z"/>
	
		<linearGradient id="SVGID_1_" gradientUnits="userSpaceOnUse" x1="-303.4658" y1="342.9874" x2="-291.3698" y2="409.8154" gradientTransform="matrix(1 0 0 -1 0 252)">
		<stop  offset="0" style="stop-color:#FF9100"/>
		<stop  offset="0.52" style="stop-color:#F10366"/>
		<stop  offset="1" style="stop-color:#6173FF"/>
	</linearGradient>
	<path class="st7" d="M-402.5-131.4c17.7,16.4,40.2,29,95.1,31.8c89.9,4.5,116-25,117.5-31.8"/>
</g>
<g>
	<path class="st8" d="M32.1,78.2c0-1.6,1.3-2.9,2.9-2.9h131.7c1.6,0,2.9,1.3,2.9,2.9v56.7c0,1.6-1.3,2.9-2.9,2.9H35
		c-1.6,0-2.9-1.3-2.9-2.9V78.2z"/>
	<path class="st9" d="M32.3,78.2c0-1.5,1.2-2.7,2.7-2.7h131.7c1.5,0,2.7,1.2,2.7,2.7v56.7c0,1.5-1.2,2.7-2.7,2.7H35
		c-1.5,0-2.7-1.2-2.7-2.7V78.2z"/>
</g>
<g>
	<defs>
		<rect id="SVGID_00000121997746066602874670000015826403958330845614_" x="39.3" y="100.5" width="10.3" height="10.3"/>
	</defs>
	<clipPath id="SVGID_00000075855795644359403220000004826286460218327447_">
		<use xlink:href="#SVGID_00000121997746066602874670000015826403958330845614_"  style="overflow:visible;"/>
	</clipPath>
	<g style="clip-path:url(#SVGID_00000075855795644359403220000004826286460218327447_);">
		
			<linearGradient id="SVGID_00000119103129327759142350000007745477233190465720_" gradientUnits="userSpaceOnUse" x1="39.326" y1="146.552" x2="48.7222" y2="146.552" gradientTransform="matrix(1 0 0 -1 0 252)">
			<stop  offset="0" style="stop-color:#9059FF"/>
			<stop  offset="1" style="stop-color:#F770FF"/>
		</linearGradient>
		<path style="fill:url(#SVGID_00000119103129327759142350000007745477233190465720_);" d="M48.3,102.6l-3.8-2.1
			c-0.1-0.1-0.3-0.1-0.4-0.1c-0.2,0-0.3,0-0.4,0.1l-3.8,2.1c-0.1,0.1-0.3,0.2-0.3,0.3c-0.1,0.1-0.1,0.3-0.1,0.4v4.1
			c0,0.2,0,0.3,0.1,0.4c0.1,0.1,0.2,0.2,0.3,0.3l3.8,2.1c0.1,0.1,0.3,0.1,0.4,0.1c0.2,0,0.3,0,0.4-0.1l3.8-2.1
			c0.1-0.1,0.3-0.2,0.3-0.3c0.1-0.1,0.1-0.3,0.1-0.4v-4.1c0-0.2,0-0.3-0.1-0.4C48.5,102.8,48.4,102.7,48.3,102.6z"/>
		<path class="st12" d="M41.4,106.5l-0.2,0.1c0,0-0.1,0.1-0.1,0.1c0,0-0.1,0.1-0.1,0.1c0,0,0,0.1,0,0.1c0,0,0,0.1,0,0.1
			c0,0.1,0.1,0.1,0.1,0.1c0.1,0,0.1,0,0.2,0c0.1,0,0.1,0,0.2,0l0.2-0.1c0,0,0.1-0.1,0.1-0.1c0,0,0.1-0.1,0.1-0.1c0,0,0-0.1,0-0.1
			c0,0,0-0.1,0-0.1c0,0-0.1-0.1-0.1-0.1c0,0-0.1-0.1-0.1-0.1c0,0-0.1,0-0.1,0C41.5,106.5,41.4,106.5,41.4,106.5z M42.8,105.8
			l-0.5,0.3c0,0-0.1,0.1-0.1,0.1c0,0-0.1,0.1-0.1,0.1c0,0,0,0.1,0,0.1c0,0,0,0.1,0,0.1c0,0.1,0.1,0.1,0.1,0.1c0.1,0,0.1,0,0.2,0.1
			c0.1,0,0.1,0,0.2,0l0.5-0.3c0,0,0.1-0.1,0.1-0.1c0,0,0.1-0.1,0.1-0.1c0,0,0-0.1,0-0.1c0,0,0-0.1,0-0.1c0,0-0.1-0.1-0.1-0.1
			s-0.1-0.1-0.1-0.1c0,0-0.1,0-0.1,0C42.9,105.7,42.8,105.7,42.8,105.8z M44.7,105.1C44.6,105.1,44.6,105.1,44.7,105.1
			c-0.1-0.1-0.1-0.1-0.2-0.2v-2.6c0,0,0-0.1,0-0.1c0,0,0-0.1-0.1-0.1c0,0-0.1-0.1-0.1-0.1c0,0-0.1,0-0.1,0c0,0-0.1,0-0.1,0
			c0,0-0.1,0-0.1,0.1c0,0-0.1,0.1-0.1,0.1c0,0,0,0.1,0,0.1v2.6c0,0-0.1,0-0.1,0.1c0,0-0.1,0.1-0.1,0.1c0,0,0,0.1,0,0.1
			c0,0.1,0,0.1,0,0.2c0,0,0,0.1,0,0.2c0,0.1,0,0.1,0,0.1c0,0,0,0.1,0.1,0.1c0,0,0.1,0,0.1,0.1v2.6c0,0.1,0,0.2,0.1,0.2
			c0.1,0.1,0.2,0.1,0.3,0.1c0.1,0,0.2,0,0.3-0.1c0.1-0.1,0.1-0.2,0.1-0.2v-2.6c0,0,0.1,0,0.1-0.1c0,0,0.1-0.1,0.1-0.1
			c0,0,0-0.1,0-0.1c0-0.1,0-0.1,0-0.2C44.7,105.3,44.7,105.2,44.7,105.1z M45.6,104.2l-0.5,0.3c0,0-0.1,0.1-0.1,0.1
			c0,0-0.1,0.1-0.1,0.1c0,0,0,0.1,0,0.1c0,0,0,0.1,0,0.1c0,0.1,0.1,0.1,0.1,0.1c0.1,0,0.1,0,0.2,0.1c0.1,0,0.1,0,0.2,0l0.5-0.3
			c0,0,0.1-0.1,0.1-0.1c0,0,0-0.1,0.1-0.1c0,0,0-0.1,0-0.1c0,0,0-0.1,0-0.1c0,0-0.1-0.1-0.1-0.1c0,0-0.1-0.1-0.1-0.1
			c0,0-0.1,0-0.1,0C45.7,104.2,45.6,104.2,45.6,104.2z M46.7,104.4c0.1,0,0.1,0,0.2,0l0.2-0.1c0,0,0.1-0.1,0.1-0.1
			c0,0,0.1-0.1,0.1-0.1c0,0,0-0.1,0-0.1c0,0,0-0.1,0-0.1c0,0-0.1-0.1-0.1-0.1c0,0-0.1,0-0.1-0.1c0,0-0.1,0-0.1,0c0,0-0.1,0-0.1,0
			l-0.2,0.1c0,0-0.1,0.1-0.1,0.1c0,0-0.1,0.1-0.1,0.1c0,0,0,0.1,0,0.1c0,0,0,0.1,0,0.1c0,0.1,0.1,0.1,0.1,0.1
			C46.6,104.4,46.6,104.4,46.7,104.4z M47.1,106.7l-0.2-0.1c-0.1,0-0.2-0.1-0.3,0c-0.1,0-0.2,0.1-0.2,0.2c0,0.1-0.1,0.2,0,0.3
			c0,0.1,0.1,0.2,0.2,0.2l0.2,0.1c0.1,0,0.1,0,0.2,0c0.1,0,0.1,0,0.2,0s0.1-0.1,0.1-0.1c0,0,0-0.1,0-0.1c0,0,0-0.1,0-0.1
			c0,0,0-0.1-0.1-0.1C47.2,106.7,47.1,106.7,47.1,106.7z M45.9,106l-0.5-0.3c0,0-0.1,0-0.1,0c0,0-0.1,0-0.1,0s-0.1,0-0.1,0.1
			c0,0-0.1,0.1-0.1,0.1c0,0,0,0.1,0,0.1s0,0.1,0,0.1c0,0,0,0.1,0.1,0.1c0,0,0.1,0.1,0.1,0.1l0.5,0.3c0.1,0,0.1,0,0.2,0
			c0.1,0,0.1,0,0.2-0.1c0.1,0,0.1-0.1,0.1-0.1c0,0,0-0.1,0-0.1c0,0,0-0.1,0-0.1s0-0.1-0.1-0.1C46,106.1,46,106,45.9,106z
			 M42.3,104.8l0.5,0.3c0.1,0,0.1,0,0.2,0c0.1,0,0.1,0,0.2-0.1s0.1-0.1,0.1-0.1c0,0,0-0.1,0-0.1c0,0,0-0.1,0-0.1c0,0,0-0.1-0.1-0.1
			c0,0-0.1-0.1-0.1-0.1l-0.5-0.3c0,0-0.1,0-0.1,0c0,0-0.1,0-0.1,0c0,0-0.1,0-0.1,0.1c0,0-0.1,0.1-0.1,0.1c0,0.1-0.1,0.2,0,0.3
			C42.2,104.7,42.2,104.8,42.3,104.8z M41.7,103.7l-0.2-0.1c0,0-0.1,0-0.1,0c0,0-0.1,0-0.1,0c0,0-0.1,0-0.1,0.1c0,0-0.1,0.1-0.1,0.1
			c0,0,0,0.1,0,0.1c0,0,0,0.1,0,0.1c0,0,0,0.1,0.1,0.1c0,0,0.1,0.1,0.1,0.1l0.2,0.1c0.1,0,0.1,0,0.2,0c0.1,0,0.1,0,0.2-0.1
			c0.1,0,0.1-0.1,0.1-0.1c0,0,0-0.1,0-0.1c0,0,0-0.1,0-0.1c0,0,0-0.1-0.1-0.1C41.8,103.8,41.8,103.8,41.7,103.7z"/>
	</g>
</g>
<circle class="st13" cx="40.8" cy="83.9" r="1.3"/>
<line class="st13" x1="45.1" y1="83.7" x2="41.8" y2="83.7"/>
<line class="st13" x1="44.2" y1="83.9" x2="44.2" y2="85"/>
<line class="st14" x1="33.7" y1="93.1" x2="168.1" y2="93.1"/>
<linearGradient id="SVGID_00000137848159039595766120000008750055766895004606_" gradientUnits="userSpaceOnUse" x1="100.8685" y1="133.579" x2="100.8685" y2="115.6104" gradientTransform="matrix(1 0 0 -1 0 252)">
	<stop  offset="0" style="stop-color:#ECECEC;stop-opacity:0.9"/>
	<stop  offset="1" style="stop-color:#CCCCCC;stop-opacity:0.6"/>
</linearGradient>
<path style="fill:url(#SVGID_00000137848159039595766120000008750055766895004606_);" d="M36.4,118.4h129c1.6,0,2.9,1.3,2.9,2.9
	v12.2c0,1.6-1.3,2.9-2.9,2.9h-129c-1.6,0-2.9-1.3-2.9-2.9v-12.2C33.5,119.7,34.8,118.4,36.4,118.4z"/>
<path class="st16" d="M62.9,124.1h48.9c0.7,0,1.3,0.6,1.3,1.3v0c0,0.7-0.6,1.3-1.3,1.3H62.9c-0.7,0-1.3-0.6-1.3-1.3v0
	C61.5,124.7,62.1,124.1,62.9,124.1z"/>
<path class="st1" d="M56.9,82.6h87.2c1,0,1.8,0.8,1.8,1.8v0c0,1-0.8,1.8-1.8,1.8H56.9c-1,0-1.8-0.8-1.8-1.8v0
	C55.1,83.5,55.9,82.6,56.9,82.6z"/>
<path class="st1" d="M56.9,100.1h79c1,0,1.8,0.8,1.8,1.8v0c0,1-0.8,1.8-1.8,1.8h-79c-1,0-1.8-0.8-1.8-1.8v0
	C55.1,100.9,55.9,100.1,56.9,100.1z"/>
<path class="st1" d="M56.5,107.4h88.2c0.8,0,1.4,0.6,1.4,1.4v0c0,0.8-0.6,1.4-1.4,1.4H56.5c-0.8,0-1.4-0.6-1.4-1.4v0
	C55.1,108.1,55.7,107.4,56.5,107.4z"/>
<linearGradient id="SVGID_00000038372821263499301490000009493681941071132604_" gradientUnits="userSpaceOnUse" x1="40.1707" y1="134.8117" x2="47.1707" y2="157.6555" gradientTransform="matrix(1 0 0 -1 0 252)">
	<stop  offset="0" style="stop-color:#FF9100"/>
	<stop  offset="0.52" style="stop-color:#F10366"/>
	<stop  offset="1" style="stop-color:#6173FF"/>
</linearGradient>
<path style="fill:url(#SVGID_00000038372821263499301490000009493681941071132604_);" d="M49.1,111.6c-0.1,0.1-0.2,0.2-0.2,0.3
	c0,0.1,0,0.3,0.1,0.4l0,0l3.5,4.3c0.1,0.1,0.2,0.2,0.4,0.2c0.1,0,0.3,0,0.4-0.1c0.1-0.1,0.2-0.2,0.2-0.3c0-0.1,0-0.3-0.1-0.4l0,0
	l-3.5-4.4c-0.1-0.1-0.2-0.2-0.4-0.2C49.4,111.4,49.2,111.5,49.1,111.6z M52.7,106.8c0,0.1,0,0.3,0,0.4c0.1,0.1,0.1,0.2,0.3,0.3
	l0.1,0l5.3,1.8c0.1,0,0.3,0,0.4,0c0.1-0.1,0.2-0.2,0.3-0.3c0-0.1,0-0.3,0-0.4c-0.1-0.1-0.1-0.2-0.3-0.3l-0.1,0l-5.3-1.8
	c-0.1,0-0.3,0-0.4,0C52.9,106.5,52.8,106.7,52.7,106.8z M43.8,113.6c-0.1,0-0.3,0.1-0.4,0.2c-0.1,0.1-0.1,0.3-0.1,0.4l0.6,5.6l0,0.1
	c0,0.1,0.1,0.3,0.2,0.3c0.1,0.1,0.2,0.1,0.4,0.1c0.1,0,0.3-0.1,0.4-0.2c0.1-0.1,0.1-0.3,0.1-0.4l-0.6-5.6l0-0.1
	c0-0.1-0.1-0.3-0.2-0.3C44.1,113.6,43.9,113.6,43.8,113.6z M28.3,102.5c0,0.1,0,0.3,0,0.4c0.1,0.1,0.2,0.2,0.3,0.3l0,0l5.3,1.8
	c0.1,0,0.1,0,0.2,0c0.1,0,0.1,0,0.2-0.1c0.1,0,0.1-0.1,0.2-0.1c0-0.1,0.1-0.1,0.1-0.2c0-0.1,0-0.3,0-0.4c-0.1-0.1-0.2-0.2-0.3-0.3
	l0,0l-5.3-1.8c-0.1,0-0.1,0-0.2,0c-0.1,0-0.1,0-0.2,0.1c-0.1,0-0.1,0.1-0.2,0.1C28.4,102.3,28.3,102.4,28.3,102.5z M41.9,90.5
	c-0.1,0-0.3,0.1-0.4,0.2c-0.1,0.1-0.1,0.3-0.1,0.4l0.6,5.6l0,0.1c0,0.1,0.1,0.3,0.2,0.3c0.1,0.1,0.2,0.1,0.4,0.1
	c0.1,0,0.3-0.1,0.4-0.2c0.1-0.1,0.1-0.3,0.1-0.4L42.6,91l0-0.1c0-0.1-0.1-0.3-0.2-0.3C42.2,90.5,42.1,90.5,41.9,90.5L41.9,90.5z
	 M33.7,94.7c-0.1,0.1-0.2,0.2-0.2,0.3c0,0.1,0,0.3,0.1,0.4l0,0l3.5,4.4c0.1,0.1,0.2,0.2,0.4,0.2c0.1,0,0.3,0,0.4-0.1
	s0.2-0.2,0.2-0.3c0-0.1,0-0.3-0.1-0.4l0,0l-3.5-4.4c-0.1-0.1-0.2-0.2-0.4-0.2C34,94.5,33.9,94.6,33.7,94.7L33.7,94.7z"/>
<path class="st18" d="M326.2,63.4c9.1,2.3,25.7,10.4,29.2,24.2c5.2,20.8-5.2,51.3,11.4,81.2c5.3,9.5-91.6,22.3-91.6,22.3L256.5,86.1
	c0,0,23.4-22.8,28.1-24.4C294.4,58.6,308.1,58.9,326.2,63.4z"/>
<path class="st19" d="M256.2,86.1c-3.4,8.4-11.9,58.3-2.3,70.1c1.1,1.4-4.9,3.5-3.9,9.7c0.2,1,2,6,2,6l7.8,2l23.4-13.3l-4.6-5.4
	h-2.1c-0.6-0.5-1-1.2-1.2-1.9c-0.3-0.7-0.3-1.5-0.2-2.3c0.5-2.3-5.4-6-14.3-44.8C258.1,94.9,257,84.3,256.2,86.1z"/>
<path class="st20" d="M265.3,153.9l6.8-1.5l2.8-0.4c0.1,1.3,0.6,2.4,1.6,3.3l-5.4,0.2l-6.3,1.4l-7.6,4.3L265.3,153.9z"/>
<path class="st21" d="M275.2,160.4c-3.5,0.1-6.9,1-9.9,2.7c-3.4,2.1-6.6,6.8-3.5,9.3c2.6,1.9,5.3,3.5,8.1,4.9
	C269.9,177.3,282.1,177.6,275.2,160.4z"/>
<path class="st22" d="M261.8,172.6l3.3-0.7c0,0,11.2-1,12.8-0.1c1.6,0.9,6.8,4.4,6.8,4.4l1,1c-1,0.4-2,0.6-3.1,0.5
	c-1-0.1-2-0.6-2.8-1.3c-3.4-2.3-3.7-0.5-3.7-0.5l0.6,3v3.8l0.5,1.6c0,0,0.5,0.9,0.1,1.2c-0.3,0.3-0.6,0.5-1,0.5
	c-0.4,0.1-0.8,0.1-1.1-0.1l-3.4-6l-0.9,6.5c-0.2,0.3-0.4,0.5-0.6,0.7c-0.3,0.2-0.6,0.3-0.9,0.4c-1,0.2-1,0-1,0l-0.8-1.7
	c-0.1,0.4-0.3,0.8-0.7,1.1c-0.6,0.4-1.3,0.6-2,0.6l0.3-6.8l-1.4,3.5c-0.4,0.6-0.9,0.9-1.6,1.1l-1.4,0.4L261.8,172.6z"/>
<path class="st23" d="M320,145.9c0,0-8.1,20.5-27.7,26.2c-3.4,0.9-5.5,4.6-3.8,5.8c2.1,1.5,5,1.8,9.9,1.8c10.2,0,24.2-3.2,33.8-12.5
	c14.3-13.7,18.8-20.1,17.3-27C348,133.2,320,145.9,320,145.9z"/>
<path class="st19" d="M352.6,80.7c4.2,6.8,6.6,17.8,6.5,33.4c0,12.1-10.5,31.9-12.1,38.1c-0.3,1-0.9,5.4-0.9,5.4L334.5,169
	l-23.3-15.8l7.1-10.9l2.1,0.2c0.6-2.7,1-5.5,1-8.3c-0.4-2.3,6.4-33.6,9.8-53.6C333.2,69.1,348.5,74,352.6,80.7z"/>
<path class="st24" d="M331.8,142.2l-6.8-2.1l-2.8-0.7c-0.2,1.2-0.8,2.4-1.8,3.2l5.3,0.6l6.2,1.9l7.2,4.9L331.8,142.2z"/>
<path class="st23" d="M293.7,172l-11.8-3.3c0,0-3.4,4.6-2.7,5.6c0.6,1.1,0,7.8,0,7.8l5.8,4.9l4.6-1.6c0,0,0.3-2-1.3-2.3
	c-1.6-0.3,1.1-1.4,1.9-1.8C290.9,180.8,297.9,177.3,293.7,172z"/>
<path class="st22" d="M296.7,40.9l-6.7,2.4c-3.8,1.3-5.8,5.4-4.4,9.2l6,17.1c1.3,3.8,5.4,5.8,9.2,4.4l6.7-2.4
	c3.8-1.3,5.8-5.4,4.4-9.2l-6-17.1C304.6,41.6,300.5,39.6,296.7,40.9z"/>
<path class="st23" d="M282.6,77.4c0.3,1.2,1.1,2.2,2.2,2.8c1.1,0.6,2.4,0.8,3.6,0.4l20.3-5.6c0.6-0.1,1.2-0.4,1.7-0.8
	c0.5-0.4,0.9-0.8,1.2-1.4c0.3-0.5,0.5-1.1,0.6-1.7c0.1-0.6,0-1.2-0.2-1.8l-8.3-30c-0.3-1.2-1.1-2.2-2.2-2.8
	c-1.1-0.6-2.4-0.8-3.5-0.4l-20.3,5.6c-0.6,0.1-1.2,0.4-1.7,0.8c-0.5,0.4-0.9,0.8-1.2,1.4s-0.5,1.1-0.6,1.7c-0.1,0.6,0,1.2,0.2,1.8
	L282.6,77.4z"/>
<path class="st25" d="M276,53.6c-1.7-1-3.3-2.3-4.6-3.8c-0.3-1.1-0.4-2.3-0.2-3.4c0.2-1.1,0.7-2.2,1.5-3c1.9-1.9,4.4,0,4.4,0
	s-3,3-3,3.8C274.2,48,276,53.6,276,53.6z"/>
<path class="st25" d="M309.4,52.3c0,0,0-12.4-1.6-15.6c-1.6-3.2-2.5-5.5-6.8-4.7c-6.3,1.1-6,2.5-9.6,1.4c-3.5-1-10.2-4.1-12.2-4
	c-1-0.1-2.1,0.1-3,0.6c-0.9,0.4-1.8,1.1-2.4,1.9c-0.6,0.8-1.1,1.8-1.2,2.8c-0.2,1-0.1,2.1,0.2,3.1c0.3,1.1,0.4,2.2,0.2,3.3
	c-0.2,1.1-0.7,2.1-1.4,3c0.4,0.5,1.7,0.7,3.9,1.1c6.4,1.3,10,0.9,14-1.4c4-2.3,11.4-7,13.2-4.1c1.8,2.9,4.1,12.8,4.7,13.5
	C307.8,53.7,308.8,53.1,309.4,52.3z"/>
<path class="st23" d="M305.5,63c0.1,0.2,0.1,0.4,0.3,0.5c0.1,0.2,0.3,0.3,0.5,0.4c0.2,0.1,0.4,0.2,0.6,0.2c0.2,0,0.4,0,0.6,0
	l4.4-1.2c0.2-0.1,0.4-0.1,0.5-0.3c0.2-0.1,0.3-0.3,0.4-0.5c0.1-0.2,0.2-0.4,0.2-0.6c0-0.2,0-0.4,0-0.6l-2.3-8
	c-0.1-0.4-0.4-0.7-0.7-0.9c-0.4-0.2-0.8-0.3-1.2-0.2l-4.4,1.2c-0.2,0.1-0.4,0.1-0.5,0.3c-0.2,0.1-0.3,0.3-0.4,0.5
	c-0.1,0.2-0.2,0.4-0.2,0.6c0,0.2,0,0.4,0,0.6L305.5,63z"/>
<path class="st23" d="M279.3,70.2c0.1,0.4,0.4,0.7,0.7,0.9c0.4,0.2,0.8,0.3,1.2,0.2l4.4-1.2c0.4-0.1,0.7-0.4,0.9-0.7
	c0.2-0.4,0.3-0.8,0.2-1.2l-2.3-8c-0.1-0.2-0.1-0.4-0.3-0.5c-0.1-0.2-0.3-0.3-0.5-0.4c-0.2-0.1-0.4-0.2-0.6-0.2c-0.2,0-0.4,0-0.6,0
	l-4.4,1.2c-0.2,0.1-0.4,0.1-0.5,0.3c-0.2,0.1-0.3,0.3-0.4,0.5c-0.1,0.2-0.2,0.4-0.2,0.6c0,0.2,0,0.4,0,0.6L279.3,70.2z"/>
<path class="st25" d="M308.1,55.4l4.4,15.8c1,3.6,1.7,11.8-18.4,17.3c-11.9,3.3-13.9-5.6-14.7-8.5c-0.5-3.7-0.1-7.5,1-11l1.3,4.9
	c0.4-1.7,1.3-3.2,2.5-4.4c1.2-1.2,2.7-2.1,4.4-2.6c9.1-2.5,12.7,2.3,16.7,1.1C308.3,67,309.3,61.3,308.1,55.4z"/>
<path class="st23" d="M294.4,73.6l-6.3,1.7c-0.2,0.1-0.4,0.1-0.6,0c-0.2,0-0.4-0.1-0.6-0.2c-0.2-0.1-0.3-0.2-0.5-0.4
	c-0.1-0.2-0.2-0.3-0.3-0.5l-0.2-0.8l9.2-2.6l0.3,0.9c0.1,0.2,0.1,0.4,0,0.6c0,0.2-0.1,0.4-0.2,0.6c-0.1,0.2-0.2,0.3-0.4,0.5
	C294.8,73.5,294.6,73.6,294.4,73.6z"/>
<path class="st25" d="M195.6,193.5c2.9,8,53.5,37.3,70.4,35.6l51.1,2.4c43.4-5.3,64-72.8,64-72.8c-1.7-16.9-44.5,7.6-59.8,15.2
	c-24.2,12-39.5,12.7-39.5,12.7c-16.2,1.6-34.9-10.8-55.3-11.2C204.1,174.9,191,180.9,195.6,193.5z"/>
<path class="st26" d="M306.7,185.4v-2.1l-88-1.6v2.1l0.2,0.4c0.6,0.8,1.4,1.5,2.4,1.9c1,0.4,2,0.5,3,0.4l76.6,1.4
	c1,0.2,2.1,0.1,3-0.3c1-0.4,1.8-1,2.5-1.8L306.7,185.4z"/>
<path class="st27" d="M285.5,185.4l0.2,0.3c0.3,0.5,0.8,0.8,1.3,1.1l13.4,0.2c1,0.2,1.9,0.1,2.8-0.2c0.9-0.3,1.8-0.8,2.4-1.5
	l0.2-0.3v-1l-20.4-0.4L285.5,185.4z"/>
<path class="st28" d="M273.6,184.6l-44-0.8l0-1.5l44,0.8L273.6,184.6z"/>
<path class="st29" d="M285,182.7l-10.6-43.3c-0.2-0.6-0.5-1.1-1-1.5c-0.5-0.4-1-0.6-1.6-0.6l-61.6-1.1c-0.3,0-0.5,0-0.7,0.1
	c-0.2,0.1-0.4,0.3-0.6,0.5c-0.2,0.2-0.3,0.4-0.3,0.7c0,0.2,0,0.5,0.1,0.7l10.6,43.3L285,182.7z"/>
<path class="st23" d="M324.8,242.8c-6.1,1-10.7-6-10.7-6l-15.7-12.4l3.3-8.4l30.6,13.7C332.4,229.7,330.9,241.7,324.8,242.8z"/>
<path class="st30" d="M314.1,236.3c0.2,1.4,0.6,2.7,1.2,4c1.2,3.2,2.6,4.3,4.1,4.8c5.9,1.7,10.1,0.9,24.2,3.6
	c14.1,2.7,18.3,0.7,22.5-5.8c4.2-6.5-0.2-11.6-7.1-12.1c-10-0.8-15.5,0.4-20.7-0.4c-5.2-0.8-5.8-2-9-4s-5.8,9.1-2.9,11.6
	C329.3,240.3,316.2,240.4,314.1,236.3z"/>
<path class="st8" d="M317.1,242.6c5.9,1.7,10.1,0.8,24.2,3.6c14.1,2.7,18.3,0.7,22.5-5.8c0.9-1.1,1.4-2.4,1.5-3.8
	c0.2-1.4-0.1-2.8-0.7-4c3.1,2.1,4.2,5.9,1.4,10.3c-4.1,6.5-8.4,8.6-22.5,5.8c-14.1-2.7-18.3-1.8-24.2-3.6c-0.7-0.2-1.4-0.6-1.9-1.1
	c-0.6-0.5-1-1.1-1.3-1.8C316.4,242.3,316.8,242.4,317.1,242.6z"/>
<path class="st23" d="M314.2,236.5c0-0.1,0-0.1,0-0.2l0.1,0.2L314.2,236.5z"/>
<path class="st8" d="M344.6,241.3c0.5,0.2,0.8-0.7,1-1.9c0.3-2.5,0.8-4.9,1.6-7.3c0.4-1.2,0.4-2.3,0-2.4c-0.4-0.1-1.3,0.7-1.7,1.9
	c-0.8,2.3-1.3,4.7-1.6,7.2C343.9,240.1,344.2,241.2,344.6,241.3z"/>
<path class="st8" d="M340.3,240.5c0.5,0,0.9-0.7,1-1.8c0.3-2.3,0.8-4.6,1.6-6.8c0.4-1.1,0.4-2.1-0.1-2.2c-0.5-0.1-1.3,0.8-1.7,1.9
	c-0.8,2.2-1.3,4.5-1.5,6.8C339.3,239.5,339.8,240.5,340.3,240.5z"/>
<path class="st8" d="M335.7,240.3c0.5,0,1-0.8,1.2-2c0.4-2.4,1-4.8,1.9-7c0.4-1.2,0.5-2.1,0-2.3c-0.5-0.1-1.4,0.9-1.8,2
	c-0.9,2.3-1.5,4.6-1.8,7C334.8,239.3,335.2,240.3,335.7,240.3z"/>
<path class="st31" d="M323.8,222.6c0,0-108.1-44.4-114.3-44.4c-20.9-0.2-16.1,20.9-5.5,30.8c12.5,11.7,107.3,33.2,107.3,33.2
	L323.8,222.6z"/>
<path class="st23" d="M280.9,230.3l29.5-28l-12.6-12.4l-32.2,33.8L280.9,230.3z"/>
<path class="st31" d="M274.8,208.3c0,0,75.1-68.8,80.1-70.8c17.1-6.8,27.7,11.9,27.2,18.5c-0.8,8.5-77,77.3-77,77.3L274.8,208.3z"/>
<path class="st30" d="M230.3,232.5c-1.8,1.6-2.1,6.4-2.1,6.4s25.1,9.5,33.8,9.6c3.5-0.2,7-0.9,10.4-2c0.7-0.2,2.3-1.9,2.8-2.1
	c1.2-0.3,1.5,0.8,2.5,0.5c1.6-0.4,3.1-1,4.6-1.7c5.3-11.2,3.5-16.8,3.5-16.8s-11.4,3.3-9.5,0.7c4.2-5.5-7.8-11.1-10.5-8.2
	C255.1,230.6,235.4,227.8,230.3,232.5z"/>
<path class="st8" d="M228.9,234.8c7.7,3.1,23.9,9.4,27.1,9.6c13.2,0.9,22.4-3.7,28.5-6.5c-0.6,1.8-1.3,3.6-2.1,5.3
	c-1.5,0.7-3,1.3-4.6,1.7c-1,0.3-1.3-0.8-2.5-0.5c-0.6,0.2-2.2,1.9-2.8,2.1c-3.4,1.1-6.8,1.7-10.4,2c-8.8-0.2-33.8-9.6-33.8-9.6
	C228.3,237.5,228.5,236.1,228.9,234.8z"/>
<path class="st8" d="M246.6,227.5c-0.2,0.4,0.8,1,2.1,1.3c2.9,0.6,5.7,1.4,8.5,2.6c1.4,0.6,2.6,0.7,2.8,0.2c0.2-0.5-0.8-1.4-2.1-1.9
	c-2.7-1.1-5.5-1.9-8.4-2.5C248.2,226.9,246.8,227.1,246.6,227.5z"/>
<path class="st8" d="M252.2,225.5c-0.2,0.5,0.8,1.1,2.1,1.5c2.8,0.8,5.6,1.9,8.2,3.2c1.3,0.7,2.5,0.9,2.7,0.4c0.2-0.5-0.7-1.5-2-2.1
	c-2.6-1.3-5.3-2.3-8.1-3.1C253.7,225,252.4,225.1,252.2,225.5z"/>
<path class="st8" d="M257.6,223.7c-0.2,0.5,0.8,1.2,2.1,1.7c2.7,1,5.4,2.3,7.9,3.8c1.3,0.8,2.4,1,2.6,0.5c0.2-0.5-0.7-1.6-1.9-2.3
	c-2.5-1.5-5.1-2.7-7.8-3.7C259.1,223.3,257.8,223.3,257.6,223.7z"/>
</svg>
