<svg width="209" height="122" viewBox="0 0 209 122" fill="none" xmlns="http://www.w3.org/2000/svg">
<path d="M172.144 63.9022L171.845 64.0524L170.571 62.7789L170.945 62.5537L172.144 63.9022Z" fill="#FCEE21"/>
<path d="M179.56 96.3393L178.736 95.3654L180.533 94.9907L181.358 96.0397L179.56 96.3393Z" fill="#ED1E79"/>
<path d="M196.864 39.1049L197.238 38.2061L205.853 36.9326L205.478 37.8314L196.864 39.1049Z" fill="#39B54A"/>
<path d="M149.895 71.0938L151.768 71.8431L150.045 75.3639L148.172 74.5402L149.895 71.0938Z" fill="#FBB03B"/>
<path d="M77.533 93.1177L78.1322 92.8181L79.1811 100.16L78.5819 100.535L77.533 93.1177Z" fill="#39B54A"/>
<path d="M157.461 82.2557L158.135 73.2663L158.735 73.1162L157.985 82.1063L157.461 82.2557Z" fill="#FBB03B"/>
<path d="M108.845 31.9882L109.594 30.7898L110.118 34.3106L109.444 35.509L108.845 31.9882Z" fill="#00FFFF"/>
<path d="M105.4 68.9211L101.804 67.7227L102.478 66.7488L106.073 67.9472L105.4 68.9211Z" fill="#ED1E79"/>
<path d="M185.927 37.1575L189.673 37.8317L189.299 41.7272L185.478 41.128L185.927 37.1575Z" fill="#00FFFF"/>
<path d="M99.6306 110.274L105.324 115.742L102.178 117.24L96.4094 111.697L99.6306 110.274Z" fill="#00FFFF"/>
<path d="M159.259 79.3339L158.061 83.6791L156.937 82.4807L158.136 78.1355L159.259 79.3339Z" fill="#FCEE21"/>
<path d="M97.6082 39.8542L96.8588 43.5252L94.2368 42.5513L94.9862 38.8804L97.6082 39.8542Z" fill="#FBB03B"/>
<path d="M76.1844 56.1111L74.4612 53.1895L76.7085 51.916L78.4317 54.9127L76.1844 56.1111Z" fill="#ED1C24"/>
<path d="M113.415 32.2127L112.815 32.5874L111.917 31.1645L112.441 30.7898L113.415 32.2127Z" fill="#FBB03B"/>
<path d="M180.309 86.6011L179.71 89.8974L177.612 88.9986L178.212 85.7773L180.309 86.6011Z" fill="#FBB03B"/>
<path d="M110.868 39.7793L108.995 41.2029L105.624 42.1017L107.496 40.6781L110.868 39.7793Z" fill="#00FFFF"/>
<path d="M71.9136 1.27354L70.8653 2.39721L69.6663 0" fill="#00FFFF"/>
<path d="M161.207 93.8672L162.106 92.7432L163.229 92.4436L162.256 93.5676L161.207 93.8672Z" fill="#00FFFF"/>
<path d="M171.769 37.3829L169.147 35.9599L170.121 35.2856L172.818 36.7093L171.769 37.3829Z" fill="#ED1C24"/>
<path d="M38.5048 48.694L37.3062 54.3127L35.2087 53.938L36.4073 48.3193L38.5048 48.694Z" fill="#00FFFF"/>
<path d="M133.49 97.7636L131.542 98.2877L128.171 91.3212L130.044 90.7964L133.49 97.7636Z" fill="#FBB03B"/>
<path d="M142.479 43.9001L140.382 42.0268L140.757 38.4309L142.854 40.3043L142.479 43.9001Z" fill="#00FFFF"/>
<path d="M106.823 104.057L106.373 109.001L101.204 105.555L101.579 100.61L106.823 104.057Z" fill="#39B54A"/>
<path d="M151.393 29.3659L152.742 25.3203L159.558 27.5677L158.21 31.6133L151.393 29.3659Z" fill="#39B54A"/>
<path d="M136.337 105.779L134.464 101.359L139.258 101.958L141.131 106.304L136.337 105.779Z" fill="#FBB03B"/>
<path d="M205.329 115.818L204.954 115.144L208.1 111.923L208.475 112.522L205.329 115.818Z" fill="#ED1C24"/>
<path d="M122.104 14.9827L119.781 16.481L121.279 13.4844L123.602 11.9861L122.104 14.9827Z" fill="#00FFFF"/>
<path d="M14.983 22.3986L13.4099 21.8745L13.4848 21.2002L15.0579 21.7243L14.983 22.3986Z" fill="#ED1C24"/>
<path d="M34.4591 95.3657L31.7623 94.2423L31.5376 89.3723L34.2344 90.4963L34.4591 95.3657Z" fill="#ED1C24"/>
<path d="M148.921 42.0269L149.67 43.1509L150.194 47.1958L149.37 46.0725L148.921 42.0269Z" fill="#FBB03B"/>
<path d="M44.8722 36.6335L43.2242 35.9592L42.9995 30.6401L44.6475 31.3144L44.8722 36.6335Z" fill="#FBB03B"/>
<path d="M190.496 30.6404V30.1907L193.792 32.3636V32.8127L190.496 30.6404Z" fill="#ED1C24"/>
<path d="M74.9104 81.5811L74.7603 82.4806L73.9365 82.3304L74.086 81.4316L74.9104 81.5811Z" fill="#ED1C24"/>
<path d="M161.956 85.4768L159.335 86.6759L156.788 81.5063L159.409 80.3079L161.956 85.4768Z" fill="#39B54A"/>
<path d="M133.865 10.4129L132.816 9.73872L133.34 8.09058L134.389 8.83972L133.865 10.4129Z" fill="#FBB03B"/>
<path d="M27.3425 59.2574L26.5934 59.8566L21.4995 59.632L22.2486 58.9578L27.3425 59.2574Z" fill="#39B54A"/>
<path d="M39.927 80.3076L36.9307 78.9591L37.2303 77.5361L40.2267 78.8096L39.927 80.3076Z" fill="#FBB03B"/>
<path d="M153.49 31.9885L154.165 32.5877L153.49 34.0113L152.817 33.3371L153.49 31.9885Z" fill="#39B54A"/>
<path d="M71.6143 68.8461L75.06 66.9734L75.8844 67.8722L72.4387 69.7455L71.6143 68.8461Z" fill="#FBB03B"/>
<path d="M172.968 33.4868L173.192 34.2362H172.818L172.593 33.4868H172.968Z" fill="#39B54A"/>
<path d="M75.8093 14.384L78.7309 18.804L77.2322 19.9277L74.3113 15.5078L75.8093 14.384Z" fill="#39B54A"/>
<path d="M202.632 13.6343L200.909 11.4617L201.958 7.71606L203.606 9.88854L202.632 13.6343Z" fill="#FCEE21"/>
<path d="M4.12082 21.3508L5.6939 23.2985L2.09825 21.1262L0.525146 19.2534L4.12082 21.3508Z" fill="#ED1C24"/>
<path d="M160.458 26.7439L158.435 27.7928L157.087 23.3725L159.035 22.3987L160.458 26.7439Z" fill="#FBB03B"/>
<path d="M32.8115 60.4559L32.3621 59.8567L33.6355 58.5833L34.085 59.1825L32.8115 60.4559Z" fill="#ED1C24"/>
<path d="M71.8393 49.3691L72.0638 56.9356L67.045 57.085L66.8198 49.5937L71.8393 49.3691Z" fill="#ED1C24"/>
<path d="M28.6912 58.8826L31.4628 57.0093L32.2868 58.2834L29.5152 60.1561L28.6912 58.8826Z" fill="#ED1E79"/>
<path d="M92.3644 14.0837L91.9897 13.9339L92.1399 11.9861L92.5889 12.2109L92.3644 14.0837Z" fill="#FCEE21"/>
<path d="M74.9853 2.32227L76.858 3.14633L75.7347 6.29275L73.8613 5.46868L74.9853 2.32227Z" fill="#FBB03B"/>
<path d="M93.1879 84.953L92.2141 86.2265L91.6899 86.002L92.5887 84.7285L93.1879 84.953Z" fill="#FCEE21"/>
<path d="M93.0386 43.0011L97.0084 40.3047L99.3309 43.3007L95.2859 45.9978L93.0386 43.0011Z" fill="#39B54A"/>
<path d="M163.155 80.8323L163.604 81.656L160.982 83.0046L160.458 82.1808L163.155 80.8323Z" fill="#FBB03B"/>
<path d="M115.961 84.0541L116.485 83.0051L117.16 82.855L116.71 83.8295L115.961 84.0541Z" fill="#39B54A"/>
<path d="M134.914 17.8292L129.67 19.777L131.168 17.6045L136.487 15.6567L134.914 17.8292Z" fill="#FBB03B"/>
<path d="M48.2427 42.7009L48.018 48.5441L46.5947 48.4698L46.8195 42.7009H48.2427Z" fill="#FCEE21"/>
<path d="M144.577 57.684L145.476 56.9353L150.27 59.3321L149.371 60.0815L144.577 57.684Z" fill="#00FFFF"/>
<path d="M61.8013 46.8961L61.3518 45.6977L64.1981 44.5737L64.6478 45.7728L61.8013 46.8961Z" fill="#00FFFF"/>
<path d="M143.753 43.3003L143.678 50.5671L138.809 50.9418L138.959 43.75L143.753 43.3003Z" fill="#FBB03B"/>
<path d="M71.4642 109.076L71.3147 107.653L74.6854 108.327L74.8355 109.675L71.4642 109.076Z" fill="#39B54A"/>
<path d="M127.422 19.6281L132.591 15.9573L135.512 23.2242L130.344 26.8945L127.422 19.6281Z" fill="#ED1C24"/>
<path d="M27.4176 74.7648L26.2939 73.0422L30.9384 73.866L32.062 75.5892L27.4176 74.7648Z" fill="#39B54A"/>
<path d="M176.114 40.3042L179.635 34.5354L180.159 36.4831L176.638 42.252L176.114 40.3042Z" fill="#ED1C24"/>
<path d="M206.602 73.9405L207.126 72.8916L208.25 73.3407L207.726 74.4647L206.602 73.9405Z" fill="#FCEE21"/>
<path d="M150.869 81.0569L151.094 84.8029L146.224 85.5516L146.075 81.8062L150.869 81.0569Z" fill="#FBB03B"/>
<path d="M124.8 25.1719L123.527 23.7482L124.351 23.074L125.624 24.5727L124.8 25.1719Z" fill="#39B54A"/>
<path d="M171.469 50.7175L171.394 51.6914L168.547 51.8409L168.622 50.867L171.469 50.7175Z" fill="#39B54A"/>
<path d="M105.474 67.4226L99.856 63.0774L101.204 62.6277L106.823 67.048L105.474 67.4226Z" fill="#00FFFF"/>
<path d="M104.425 52.8138L101.204 52.2146L101.354 51.3909L104.575 51.9901L104.425 52.8138Z" fill="#FBB03B"/>
<path d="M127.947 25.6207L126.074 20.7513L126.898 20.377L128.77 25.2467L127.947 25.6207Z" fill="#ED1C24"/>
<path d="M130.269 16.7814L125.026 16.0322L128.321 14.9834L133.566 15.7326L130.269 16.7814Z" fill="#ED1C24"/>
<path d="M53.3364 87.9497L54.3102 88.9236L54.3852 94.9169L53.4113 93.9431L53.3364 87.9497Z" fill="#ED1E79"/>
<path d="M22.8481 51.691L25.7696 48.5442L25.8446 49.1441L22.9231 52.2902L22.8481 51.691Z" fill="#FBB03B"/>
<path d="M208.026 29.8907L205.029 30.3404L204.804 29.2164L207.876 28.7673L208.026 29.8907Z" fill="#FBB03B"/>
<path d="M174.466 86.0769L175.514 86.3765L175.29 87.4254L174.241 87.1252L174.466 86.0769Z" fill="#FBB03B"/>
<path d="M107.795 50.7925L110.568 49.8186L110.642 51.5418L107.946 52.5157L107.795 50.7925Z" fill="#FBB03B"/>
<path d="M111.841 29.2915L112.89 27.7935H114.014L112.965 29.2164L111.841 29.2915Z" fill="#ED1C24"/>
<path d="M24.6461 1.34839L28.9159 3.89553L25.4701 9.66389L21.2002 7.11681L24.6461 1.34839Z" fill="#FBB03B"/>
<path d="M175.964 51.2412L176.638 51.0911L178.286 54.3129L177.612 54.4624L175.964 51.2412Z" fill="#39B54A"/>
<path d="M99.6309 45.8481L99.9305 46.2221L96.4097 47.4212L96.1101 46.9715L99.6309 45.8481Z" fill="#FBB03B"/>
<path d="M67.5691 32.5877L68.543 27.9429L69.1422 27.1191L68.2434 31.7633L67.5691 32.5877Z" fill="#FBB03B"/>
<path d="M178.51 111.023L178.81 110.574L179.784 110.124L179.409 110.574L178.51 111.023Z" fill="#00FFFF"/>
<path d="M78.4316 9.96347L82.3271 8.61499L83.5255 11.237L79.5557 12.5855L78.4316 9.96347Z" fill="#FBB03B"/>
<path d="M183.829 34.3858L183.755 32.6626L190.122 38.5058V40.229L183.829 34.3858Z" fill="#00FFFF"/>
<path d="M40.6018 119.339L46.5197 112.371L49.5161 114.993L43.6731 121.961L40.6018 119.339Z" fill="#ED1C24"/>
<path d="M110.268 35.2098L113.564 34.1609L113.639 37.0081L110.268 38.1314V35.2098Z" fill="#39B54A"/>
<path d="M43.6733 37.5322L40.9016 31.9885L47.269 28.7673L50.0406 34.311L43.6733 37.5322Z" fill="#39B54A"/>
<path d="M149.146 74.8394L145.551 79.1095H145.251L148.847 74.8394H149.146Z" fill="#FBB03B"/>
<path d="M168.848 66.3747L169.223 62.4041L174.167 61.6548L173.867 65.6253L168.848 66.3747Z" fill="#FCEE21"/>
<path d="M100.829 99.8615L98.5068 96.7897L98.9559 96.415L101.278 99.4868L100.829 99.8615Z" fill="#ED1C24"/>
<path d="M143.978 68.7719L145.251 67.2732L146.449 68.0976L145.102 69.5956L143.978 68.7719Z" fill="#39B54A"/>
<path d="M74.9855 47.1216L77.2329 49.444L75.4346 51.1665L73.1873 48.8441L74.9855 47.1216Z" fill="#FBB03B"/>
<path d="M67.3444 48.4699L65.8464 43.9002L67.4946 43.3003L68.9926 47.87L67.3444 48.4699Z" fill="#FCEE21"/>
<path d="M76.7089 9.88843L80.4542 12.2857L76.3342 15.2823L72.5889 12.8101L76.7089 9.88843Z" fill="#FBB03B"/>
<path d="M13.1854 99.4117L11.0879 95.8158L12.5861 94.4673L14.6836 97.9881L13.1854 99.4117Z" fill="#FBB03B"/>
<path d="M17.5297 5.99313L17.3049 4.56979L18.2039 3.97046L18.4286 5.46873L17.5297 5.99313Z" fill="#ED1C24"/>
<path d="M48.9168 87.4245L48.6172 85.5518L56.4827 83.8286L56.8572 85.7763L48.9168 87.4245Z" fill="#39B54A"/>
<path d="M18.6531 9.58879L17.7542 10.4129L17.3796 6.74204L18.3534 5.91797L18.6531 9.58879Z" fill="#ED1C24"/>
<path d="M136.711 100.985V100.835H136.936V100.985H136.711Z" fill="#FCEE21"/>
<path d="M26.9682 63.8271L25.4701 64.8754L25.1704 63.9015L26.6686 62.8533L26.9682 63.8271Z" fill="#FBB03B"/>
<path d="M184.503 39.6296L183.23 44.7234L182.182 44.3488L183.455 39.2549L184.503 39.6296Z" fill="#FCEE21"/>
<path d="M130.868 45.7728L123.602 44.7239L126.374 43.5999L133.64 44.6488L130.868 45.7728Z" fill="#FBB03B"/>
<path d="M170.796 105.779L168.923 106.903L167.949 97.6131L169.822 96.4897L170.796 105.779Z" fill="#FBB03B"/>
<path d="M186.975 49.6677V51.0163L184.353 51.7656V50.4171L186.975 49.6677Z" fill="#ED1C24"/>
<path d="M162.48 110.724L163.454 110.35L163.604 110.874L162.705 111.173L162.48 110.724Z" fill="#39B54A"/>
<path d="M74.2362 57.6094L70.8655 63.527L63.9736 61.5792L67.4198 55.6616L74.2362 57.6094Z" fill="#00FFFF"/>
<path d="M174.991 72.4421L175.515 64.6511L177.987 66.0747L177.538 73.8657L174.991 72.4421Z" fill="#ED1C24"/>
<path d="M36.0327 97.9137L34.3847 98.3628L33.4109 92.9693L35.0589 92.5195L36.0327 97.9137Z" fill="#ED1C24"/>
<path d="M89.8926 48.4705L93.7874 45.0991L94.8363 45.8485L90.9408 49.2191L89.8926 48.4705Z" fill="#FBB03B"/>
<path d="M158.734 85.1775L157.686 85.7023L155.064 85.1031L156.113 84.5039L158.734 85.1775Z" fill="#ED1E79"/>
<path d="M106.897 22.1003L114.014 19.4033L114.988 21.8757L107.796 24.5721L106.897 22.1003Z" fill="#FCEE21"/>
<path d="M25.545 89.2231L22.8483 95.0663L17.3049 92.5194L20.0017 86.7512L25.545 89.2231Z" fill="#FBB03B"/>
<path d="M95.8855 54.1626L96.9344 54.3127L96.4096 55.8858L95.3613 55.7357L95.8855 54.1626Z" fill="#39B54A"/>
<path d="M63.5993 71.6182L62.7004 71.2435L63.6742 71.1685L64.5734 71.4681L63.5993 71.6182Z" fill="#ED1E79"/>
<path d="M10.5632 6.74215L9.06503 8.68995L4.72021 6.14288L6.21842 4.19507L10.5632 6.74215Z" fill="#00FFFF"/>
<path d="M146.525 41.4268L141.956 40.7525L139.034 38.0554L143.603 38.7297L146.525 41.4268Z" fill="#ED1C24"/>
<path d="M60.0785 109.376L58.6553 109.6L58.9549 109.226L60.3782 109.001L60.0785 109.376Z" fill="#39B54A"/>
<path d="M3.82104 11.312L5.91852 8.24048L8.54039 10.6377L6.36799 13.7092L3.82104 11.312Z" fill="#39B54A"/>
<path d="M44.3471 73.9409L41.6504 72.9671L44.2722 66.2244L46.8941 67.1982L44.3471 73.9409Z" fill="#FCEE21"/>
<path d="M69.5171 55.1365L71.1653 56.3349L70.8657 58.5829L69.2175 57.3838L69.5171 55.1365Z" fill="#FCEE21"/>
<path d="M34.4595 110.799L37.8305 111.997L36.6319 112.672L33.261 111.473L34.4595 110.799Z" fill="#00FFFF"/>
<path d="M82.3272 100.835L80.8292 100.536L80.7542 99.9358L82.2522 100.235L82.3272 100.835Z" fill="#39B54A"/>
<path d="M166.526 7.04173L166.376 11.5365L162.256 11.4617L162.406 6.9668L166.526 7.04173Z" fill="#FCEE21"/>
<path d="M179.934 82.3305L180.459 85.9264L178.961 85.1771L178.436 81.6562L179.934 82.3305Z" fill="#00FFFF"/>
<path d="M58.6554 79.7844L59.4045 81.582L59.2547 83.3052L58.4307 81.507L58.6554 79.7844Z" fill="#FCEE21"/>
<path d="M133.64 86.6012L134.014 87.5751L132.216 86.6763L131.917 85.7024L133.64 86.6012Z" fill="#39B54A"/>
<path d="M27.1185 2.32227L28.6167 4.79447L28.3919 6.36768L26.8938 3.9704L27.1185 2.32227Z" fill="#ED1C24"/>
<path d="M85.6976 69.1457L84.2747 67.1979L85.398 66.9734L86.8216 68.8461L85.6976 69.1457Z" fill="#ED1C24"/>
<path d="M137.984 77.2374L136.861 75.1395L137.685 74.6904L138.809 76.7126L137.984 77.2374Z" fill="#ED1E79"/>
<path d="M90.3417 65.2505L90.9409 66.2244L89.2183 66.8986L88.6191 65.9248L90.3417 65.2505Z" fill="#39B54A"/>
<path d="M31.6123 53.0397L31.837 52.1409L32.4363 53.9391L32.2116 54.8379L31.6123 53.0397Z" fill="#00FFFF"/>
<path d="M68.4687 74.24L76.259 75.1388L75.5847 80.8326L67.7944 79.9331L68.4687 74.24Z" fill="#ED1C24"/>
<path d="M117.218 58.2502L104.735 70.6483L93.5986 59.6618L92.7014 58.7851L91.2692 60.3452L58.7786 94.5891C59.3985 95.258 60.1489 95.7929 60.9834 96.1603C61.818 96.5278 62.7186 96.721 63.6304 96.7261H145.84C146.752 96.7193 147.653 96.5261 148.487 96.1586C149.322 95.7911 150.072 95.2571 150.692 94.5891L118.63 59.9391L117.218 58.2502Z" fill="#7542E5"/>
<path d="M92.9781 60.2163L58.6278 28.3249C57.3914 29.5999 56.6813 31.2939 56.6401 33.0703V89.7783C56.6564 90.6824 56.8539 91.5745 57.2214 92.4004C57.588 93.2264 58.1178 93.9708 58.7772 94.5881L91.6525 61.7772L92.9781 60.2163ZM150.692 28.154L116.491 59.7896L118.03 61.2852L150.692 94.5881C151.348 93.9725 151.875 93.2316 152.242 92.409C152.609 91.5874 152.809 90.7004 152.829 89.7998V33.3047C152.793 32.5672 152.619 31.8417 152.316 31.1677C152.039 30.0352 151.48 28.9912 150.692 28.1326V28.154Z" fill="#9059FF"/>
<path d="M92.7658 61.414L93.6415 62.2898L104.821 73.2127L117.326 60.8791L150.692 28.1326C150.101 27.523 149.393 27.0366 148.612 26.7027C147.83 26.3688 146.99 26.1936 146.14 26.1872H63.609C62.6989 26.18 61.7965 26.3669 60.9637 26.7354C60.1308 27.104 59.3856 27.6458 58.7786 28.3249L92.7658 61.414Z" fill="#C689FF"/>
</svg>
