<svg width="79" height="75" viewBox="0 0 79 75" fill="none" xmlns="http://www.w3.org/2000/svg">
<circle cx="34.8708" cy="40.9958" r="30.5851" fill="#985BFF"/>
<path d="M68.9472 19.4078C68.947 19.4883 68.8862 19.5572 68.8026 19.5715C68.4632 19.6281 67.5125 19.8409 67.192 20.1444C66.8714 20.448 66.6451 21.3498 66.5854 21.6698C66.5713 21.7462 66.5024 21.8028 66.4204 21.8052V19.4063L68.9472 19.4078Z" fill="#FFEA80"/>
<path d="M66.4203 21.8052C66.3357 21.8048 66.2636 21.7462 66.2499 21.6666C66.1952 21.3448 65.9825 20.4448 65.6651 20.1409C65.3477 19.8369 64.3877 19.6254 64.0374 19.5702C63.9539 19.5564 63.8931 19.4871 63.8936 19.4063H66.4203V21.8052Z" fill="#FFD567"/>
<path d="M66.4204 19.4062V17.0074C66.5048 17.0077 66.5768 17.0654 66.5913 17.1443C66.6508 17.4702 66.8765 18.3824 67.1963 18.686C67.5161 18.9896 68.4628 19.192 68.7998 19.244C68.8842 19.2565 68.9467 19.3252 68.9472 19.4062L66.4204 19.4062Z" fill="#FFD567"/>
<path d="M63.8936 19.4062C63.8933 19.3254 63.9553 19.2565 64.0394 19.244C64.3829 19.192 65.3428 18.9896 65.6628 18.686C65.9827 18.3824 66.1945 17.4732 66.2494 17.1473C66.2631 17.0675 66.3351 17.0085 66.4203 17.0074V19.4062L63.8936 19.4062Z" fill="#FFA266"/>
<path d="M41.7841 5.61462C41.7839 5.69507 41.7231 5.76394 41.6395 5.77831C41.3001 5.83486 40.3494 6.04766 40.0289 6.35123C39.7083 6.65481 39.482 7.5566 39.4223 7.87654C39.4082 7.95303 39.3393 8.00959 39.2573 8.01196V5.61313L41.7841 5.61462Z" fill="#FFEA80"/>
<path d="M39.2572 8.01196C39.1726 8.01158 39.1005 7.95302 39.0868 7.8734C39.0321 7.55157 38.8194 6.65163 38.502 6.34768C38.1846 6.04373 37.2246 5.83215 36.8743 5.77702C36.7908 5.7632 36.73 5.6939 36.7305 5.61313H39.2572V8.01196Z" fill="#FFD567"/>
<path d="M39.2573 5.61304V3.2142C39.3417 3.21446 39.4137 3.27218 39.4282 3.35111C39.4877 3.677 39.7135 4.58922 40.0332 4.89279C40.353 5.19637 41.2997 5.39875 41.6368 5.45083C41.7211 5.46325 41.7836 5.53197 41.7841 5.61304L39.2573 5.61304Z" fill="#FFD567"/>
<path d="M36.7305 5.61304C36.7302 5.53222 36.7922 5.46332 36.8763 5.45083C37.2198 5.39875 38.1797 5.19637 38.4997 4.89279C38.8196 4.58922 39.0314 3.67998 39.0863 3.35408C39.1 3.27429 39.172 3.21532 39.2572 3.2142V5.61304L36.7305 5.61304Z" fill="#FFA266"/>
<g clip-path="url(#clip0_725_4220)">
<path d="M23.053 32.5918L45.0352 53.8686C45.2861 54.1113 45.471 54.4126 45.5727 54.7448C45.6745 55.0769 45.6897 55.429 45.6172 55.7685C45.5446 56.1081 45.3865 56.4239 45.1575 56.687C44.9285 56.9501 44.6361 57.1518 44.3073 57.2735L8.89968 70.2538C8.52391 70.39 8.11642 70.4166 7.72578 70.3304C7.33514 70.2441 6.97784 70.0486 6.69651 69.7672C6.41519 69.4858 6.22171 69.1304 6.13913 68.7433C6.05655 68.3562 6.08836 67.9539 6.23077 67.5842L19.6562 33.3111C19.7792 32.9923 19.981 32.709 20.2431 32.4869C20.5052 32.2648 20.8193 32.1111 21.1569 32.0396C21.4945 31.9681 21.8448 31.9811 22.1759 32.0776C22.5071 32.174 22.8086 32.3508 23.053 32.5918Z" fill="#ECECEC"/>
<path d="M17.2456 39.4495L40.6835 49.6483L34.1164 43.302L18.4264 36.4602L17.2456 39.4495Z" fill="#FFA266"/>
<path d="M13.8652 48.1136L39.1957 59.1436L43.5468 57.5451L15.0299 45.1243L13.8652 48.1136Z" fill="#FFA266"/>
<path d="M10.4844 56.6979L26.6596 63.7476L31.0107 62.149L11.6652 53.7246L10.4844 56.6979Z" fill="#FFA266"/>
<path d="M15.0137 68.0158L19.381 66.4173L8.54358 61.6855L7.36279 64.6749L15.0137 68.0158Z" fill="#FFA266"/>
<ellipse cx="43.2665" cy="42.7951" rx="2.39884" ry="2.39884" fill="#FFEA80"/>
</g>
<path d="M39.8892 38.2972L52.8389 27.8022" stroke="#FFEA80" stroke-width="1.04108" stroke-linecap="round"/>
<path d="M29.7817 31.1008L32.9402 24.2041" stroke="#FFEA80" stroke-width="1.04108" stroke-linecap="round"/>
<path d="M48.0445 50.1311L74.4857 46.2567" stroke="#FFEA80" stroke-width="1.04108" stroke-linecap="round"/>
<circle cx="34.8709" cy="29.6014" r="1.79913" fill="#FFEA80"/>
<circle cx="57.0599" cy="36.1981" r="4.27713" stroke="#FFD567" stroke-width="1.04108"/>
<path d="M31.6775 14.6031C31.677 14.3014 31.4489 14.0431 31.1354 13.9892C29.8626 13.7772 26.2975 12.9792 25.0954 11.8408C23.8933 10.7024 23.0448 7.32064 22.8209 6.12086C22.7679 5.83404 22.5095 5.62192 22.2021 5.61304V14.6087L31.6775 14.6031Z" fill="#FFEA80"/>
<path d="M22.202 5.61304C21.8844 5.61448 21.6143 5.83408 21.5628 6.13266C21.3576 7.33953 20.5602 10.7143 19.3699 11.8541C18.1796 12.9939 14.5794 13.7873 13.266 13.9941C12.9528 14.0459 12.7247 14.3058 12.7266 14.6087H22.202V5.61304Z" fill="#FFD567"/>
<path d="M22.2021 14.6086V23.6043C22.5186 23.6033 22.7887 23.3869 22.8429 23.0909C23.0662 21.8688 23.9127 18.448 25.1118 17.3096C26.3109 16.1712 29.8612 15.4122 31.125 15.2169C31.4415 15.1704 31.6756 14.9127 31.6775 14.6086L22.2021 14.6086Z" fill="#FFD567"/>
<path d="M12.7266 14.6086C12.7256 14.9117 12.958 15.1701 13.2736 15.2169C14.5617 15.4122 18.1612 16.1712 19.3611 17.3096C20.561 18.448 21.355 21.8576 21.5609 23.0797C21.6122 23.379 21.8825 23.6001 22.202 23.6043V14.6086L12.7266 14.6086Z" fill="#FFA266"/>
<path d="M49.3642 20.6031C49.364 20.4623 49.2575 20.3418 49.1112 20.3166C48.5173 20.2177 46.8536 19.8453 46.2926 19.314C45.7316 18.7827 45.3356 17.2046 45.2311 16.6447C45.2064 16.5108 45.0858 16.4119 44.9424 16.4077V20.6057L49.3642 20.6031Z" fill="#FFEA80"/>
<path d="M44.9424 16.4077C44.7942 16.4084 44.6681 16.5109 44.6441 16.6502C44.5483 17.2134 44.1762 18.7883 43.6207 19.3202C43.0653 19.8521 41.3852 20.2224 40.7723 20.3189C40.6261 20.3431 40.5197 20.4643 40.5205 20.6057H44.9424V16.4077Z" fill="#FFD567"/>
<path d="M44.9424 20.6057V24.8037C45.0901 24.8032 45.2161 24.7022 45.2414 24.5641C45.3456 23.9938 45.7406 22.3974 46.3002 21.8661C46.8598 21.3349 48.5166 20.9807 49.1064 20.8896C49.2541 20.8678 49.3633 20.7476 49.3642 20.6057L44.9424 20.6057Z" fill="#FFD567"/>
<path d="M40.5205 20.6057C40.5201 20.7471 40.6285 20.8677 40.7758 20.8896C41.3769 20.9807 43.0567 21.3349 43.6166 21.8661C44.1766 22.3974 44.5471 23.9886 44.6432 24.5589C44.6671 24.6985 44.7933 24.8017 44.9424 24.8037V20.6057L40.5205 20.6057Z" fill="#FFA266"/>
<defs>
<clipPath id="clip0_725_4220">
<rect width="39.5808" height="38.3814" fill="white" transform="translate(6.08496 32.0002)"/>
</clipPath>
</defs>
</svg>
