<svg width="136" height="102" viewBox="0 0 136 102" fill="none" xmlns="http://www.w3.org/2000/svg">
<path d="M132.895 56.6899C76.2569 109.227 49.6221 41.8752 7.14709 41.4353" stroke="url(#paint0_linear_725_5272)" stroke-width="2.5" stroke-linecap="round"/>
<path fill-rule="evenodd" clip-rule="evenodd" d="M7.18234 45.2275C6.96079 45.146 6.74223 45.0484 6.52801 44.9354C6.27951 44.8076 6.00793 44.6536 5.72335 44.4854C5.15128 44.1468 4.53049 43.7362 3.98042 43.3358C3.64646 43.0995 3.32187 42.8427 3.00817 42.5667C2.86503 42.4445 2.72949 42.3094 2.60298 42.163C2.54158 42.0909 2.48443 42.0139 2.43202 41.9329C2.3617 41.822 2.31228 41.6964 2.28762 41.5659C2.27269 41.4786 2.27244 41.3907 2.2869 41.3074C2.30135 41.224 2.33022 41.1469 2.37181 41.0805C2.39941 41.0249 2.43324 40.9745 2.47253 40.9303C2.54725 40.8388 2.62805 40.7545 2.71432 40.678C2.90566 40.5051 3.15045 40.3204 3.43105 40.1194C3.99517 39.7196 4.70935 39.2811 5.37481 38.9103C5.81748 38.6623 6.23579 38.4482 6.58038 38.2958C6.7493 38.2171 6.92342 38.1513 7.10176 38.0989C7.18312 38.076 7.26702 38.0624 7.35236 38.0582C7.41367 38.0597 7.47548 38.07 7.53642 38.089C7.59553 38.1108 7.65262 38.1424 7.70584 38.1828C7.77982 38.2442 7.84042 38.3264 7.88107 38.4206C7.91033 38.4832 7.93043 38.5501 7.94041 38.6183C7.94939 38.6886 7.94889 38.7589 7.93895 38.8264C7.92562 38.8998 7.90273 38.9691 7.87104 39.0321L7.79995 39.1786C7.64541 39.4972 7.49087 39.8158 7.41123 40.0867C7.30936 40.36 7.2334 40.6486 7.18459 40.9478C7.11346 41.4086 7.13907 41.8958 7.25931 42.3692C7.44428 43.0716 7.68713 43.7586 7.98417 44.4196C8.00851 44.4781 8.02706 44.5391 8.03942 44.6011C8.0563 44.6877 8.05846 44.7754 8.04577 44.8588C8.03255 44.9607 7.99476 45.0529 7.93668 45.1248C7.88944 45.1856 7.83115 45.2332 7.76525 45.2648C7.68276 45.3014 7.59206 45.3145 7.49992 45.3031C7.45431 45.3012 7.40844 45.2941 7.36295 45.2819C7.30184 45.269 7.24102 45.2519 7.1808 45.2307L7.18234 45.2275Z" fill="#815BDF"/>
<defs>
<linearGradient id="paint0_linear_725_5272" x1="169.018" y1="61.2109" x2="163.842" y2="26.9532" gradientUnits="userSpaceOnUse">
<stop stop-color="#FF9100"/>
<stop offset="0.52" stop-color="#F10366"/>
<stop offset="1" stop-color="#6173FF"/>
</linearGradient>
</defs>
</svg>
