<svg width="515" height="271" viewBox="0 0 515 271" fill="none" xmlns="http://www.w3.org/2000/svg">
<path d="M489.533 102.627L391.8 9.33819C390.868 8.30634 389.863 7.3432 388.791 6.45627L387.83 5.54897C383.092 1.94917 377.304 0 371.351 0C365.399 0 359.611 1.94917 354.873 5.54897H354.783L353.804 6.45627C352.741 7.35241 351.736 8.31497 350.795 9.33819L252.92 102.627C250.845 104.705 249.68 107.52 249.679 110.455V220.858C249.679 225.251 251.426 229.463 254.535 232.569C257.643 235.675 261.86 237.42 266.256 237.42H476.179C480.576 237.42 484.792 235.675 487.901 232.569C491.009 229.463 492.756 225.251 492.756 220.858V110.455C492.762 107.522 491.603 104.707 489.533 102.627Z" fill="#F3AA06"/>
<path d="M426.467 132.514C426.467 143.422 423.23 154.084 417.165 163.153C411.1 172.222 402.479 179.291 392.394 183.465C382.308 187.639 371.21 188.731 360.503 186.603C349.796 184.475 339.961 179.223 332.242 171.51C324.522 163.797 319.265 153.971 317.136 143.273C315.006 132.576 316.099 121.487 320.277 111.41C324.454 101.333 331.529 92.7201 340.606 86.6603C349.683 80.6006 360.354 77.3662 371.271 77.3662C385.91 77.3662 399.949 83.1765 410.301 93.5188C420.652 103.861 426.467 117.888 426.467 132.514V132.514Z" stroke="#2094F1" stroke-width="0.2" stroke-miterlimit="10"/>
<path d="M476.18 204.296V77.3129L415.41 16.6677H282.797C278.401 16.6677 274.185 18.4126 271.076 21.5186C267.967 24.6247 266.221 28.8374 266.221 33.23V204.367L476.18 204.296Z" fill="white"/>
<path d="M476.179 237.42H266.22C261.824 237.42 257.608 235.675 254.499 232.569C251.39 229.463 249.644 225.25 249.644 220.858V110.437L476.179 237.42Z" fill="#FFBF0D"/>
<path d="M266.221 237.42H476.18C480.576 237.42 484.792 235.675 487.901 232.569C491.01 229.463 492.756 225.25 492.756 220.858V110.437L266.221 237.42Z" fill="#FECE40"/>
<path d="M415.41 16.6677V60.8218C415.41 65.2144 417.157 69.427 420.265 72.533C423.374 75.6391 427.59 77.3841 431.987 77.3841H476.179L415.41 16.6677Z" fill="#CCCCCC"/>
<path d="M439.75 88.3601H305.339V99.4075H439.75V88.3601Z" fill="#ECECEC"/>
<path d="M391.124 110.437H305.339V121.484H391.124V110.437Z" fill="#ECECEC"/>
<path d="M357.259 66.283H305.339V77.3304H357.259V66.283Z" fill="#ECECEC"/>
<path d="M470.588 124.633C477.711 126.412 490.637 132.728 493.361 143.544C497.456 159.768 489.266 183.589 502.264 206.875C506.395 214.311 430.758 224.291 430.758 224.291L416.158 142.316C416.158 142.316 434.391 124.527 438.112 123.317C445.786 120.826 456.487 121.093 470.588 124.633Z" fill="#E76DFF"/>
<path d="M415.98 142.352C413.362 148.899 406.721 187.876 414.199 197.073C415.036 198.141 410.353 199.777 411.19 204.634C411.333 205.452 412.757 209.313 412.757 209.313L418.811 210.878L437.061 200.489L433.5 196.237H431.844C431.408 195.825 431.079 195.314 430.883 194.747C430.688 194.18 430.633 193.575 430.722 192.982C431.15 191.203 426.52 188.303 419.541 158.043C417.475 149.183 416.567 140.911 415.98 142.352Z" fill="#E31587"/>
<path d="M423.049 195.223L428.39 194.031L430.562 193.693C430.637 194.672 431.068 195.589 431.773 196.272L427.589 196.397L422.675 197.464L416.746 200.827L423.049 195.223Z" fill="#ECB60D"/>
<path d="M430.776 200.258C428.056 200.309 425.392 201.043 423.031 202.392C420.342 204.065 417.849 207.729 420.324 209.65C422.318 211.102 424.44 212.371 426.663 213.44C426.663 213.44 436.171 213.707 430.776 200.258Z" fill="#C4D1E1"/>
<path d="M420.289 209.793L422.835 209.242C422.835 209.242 431.595 208.459 432.841 209.135C434.088 209.811 438.183 212.533 438.183 212.533L439.002 213.298C438.26 213.647 437.431 213.773 436.619 213.659C435.806 213.545 435.044 213.197 434.426 212.657C431.773 210.878 431.56 212.23 431.56 212.23L432.005 214.579V217.549L432.396 218.813C432.396 218.813 432.77 219.489 432.485 219.738C432.271 219.947 432.003 220.092 431.71 220.158C431.418 220.224 431.113 220.208 430.829 220.111L428.159 215.468L427.429 220.52C427.304 220.743 427.133 220.935 426.927 221.086C426.721 221.236 426.486 221.341 426.236 221.392C425.452 221.552 425.452 221.392 425.452 221.392L424.847 220.093C424.773 220.441 424.585 220.754 424.313 220.983C423.848 221.301 423.291 221.457 422.728 221.428L422.977 216.091L421.891 218.795C421.614 219.225 421.18 219.532 420.68 219.649L419.559 219.933L420.289 209.793Z" fill="#E4EEF3"/>
<path d="M465.728 188.943C465.728 188.943 459.371 204.954 444.077 209.366C441.442 210.095 439.803 212.924 441.085 213.866C442.724 215.041 444.967 215.307 448.795 215.29C456.79 215.29 467.669 212.799 475.182 205.523C486.328 194.849 489.836 189.85 488.714 184.442C487.593 179.034 465.728 188.943 465.728 188.943Z" fill="#E9D6B8"/>
<path d="M491.189 138.118C494.43 143.455 496.299 151.976 496.281 164.18C496.281 173.626 488.091 189.086 486.845 193.871C486.631 194.672 486.132 198.069 486.132 198.069L477.087 206.964L458.926 194.672L464.446 186.204L466.101 186.382C466.604 184.26 466.861 182.087 466.867 179.906C466.582 178.127 471.888 153.702 474.506 138.065C476.019 129.045 487.948 132.852 491.189 138.118Z" fill="#E31587"/>
<path d="M474.951 186.061L469.609 184.425L467.455 183.891C467.303 184.859 466.803 185.738 466.048 186.364L470.197 186.844L475.004 188.32L480.631 192.181L474.951 186.061Z" fill="#4E99FF"/>
<path d="M445.216 209.312L435.975 206.768C435.975 206.768 433.358 210.326 433.838 211.162C434.319 211.999 433.838 217.229 433.838 217.229L438.325 221.018L441.886 219.808C441.886 219.808 442.154 218.225 440.907 218.029C439.661 217.834 441.744 216.962 442.385 216.588C443.026 216.215 448.51 213.511 445.216 209.312Z" fill="#E9D6B8"/>
<path d="M447.572 107.061L442.313 108.903C439.371 109.932 437.822 113.15 438.853 116.089L443.527 129.42C444.558 132.359 447.779 133.907 450.721 132.877L455.98 131.036C458.922 130.006 460.471 126.788 459.44 123.849L454.765 110.519C453.735 107.579 450.514 106.031 447.572 107.061Z" fill="#E4EEF3"/>
<path d="M436.527 135.556C436.785 136.488 437.402 137.279 438.244 137.756C439.085 138.233 440.081 138.357 441.014 138.1L456.825 133.742C457.293 133.625 457.733 133.415 458.117 133.123C458.501 132.832 458.822 132.465 459.06 132.046C459.298 131.627 459.448 131.163 459.502 130.684C459.555 130.205 459.511 129.72 459.371 129.259L452.926 105.848C452.668 104.916 452.05 104.125 451.209 103.648C450.368 103.171 449.371 103.047 448.439 103.304L432.61 107.662C432.142 107.779 431.702 107.989 431.318 108.281C430.934 108.573 430.613 108.939 430.375 109.358C430.137 109.778 429.986 110.241 429.933 110.72C429.879 111.199 429.924 111.684 430.064 112.145L436.527 135.556Z" fill="#E9D6B8"/>
<path d="M431.381 116.966C430.032 116.188 428.827 115.183 427.82 113.995C427.561 113.142 427.519 112.237 427.7 111.364C427.88 110.491 428.277 109.677 428.853 108.996C430.331 107.484 432.307 108.996 432.307 108.996C432.307 108.996 429.939 111.344 429.957 111.967C429.975 112.59 431.381 116.966 431.381 116.966Z" fill="#292960"/>
<path d="M457.448 115.934C457.448 115.934 457.448 106.275 456.184 103.766C454.92 101.258 454.226 99.4967 450.843 100.102C445.893 100.991 446.124 102.023 443.382 101.205C440.64 100.386 435.441 98.0201 433.892 98.0735C433.085 98.0305 432.28 98.1834 431.544 98.5193C430.809 98.8552 430.167 99.364 429.671 100.002C429.176 100.64 428.843 101.389 428.701 102.184C428.558 102.979 428.611 103.796 428.853 104.567C429.114 105.399 429.161 106.283 428.99 107.138C428.819 107.993 428.435 108.791 427.874 109.459C428.177 109.832 429.174 109.975 430.901 110.313C435.904 111.291 438.664 111.007 441.798 109.21C444.931 107.413 450.7 103.766 452.089 106.043C453.478 108.32 455.312 116.023 455.775 116.539C456.238 117.055 456.968 116.539 457.448 115.934Z" fill="#292960"/>
<path d="M454.403 124.331C454.445 124.486 454.516 124.63 454.614 124.757C454.712 124.884 454.834 124.991 454.973 125.07C455.112 125.149 455.265 125.2 455.424 125.22C455.583 125.24 455.745 125.228 455.899 125.185L459.318 124.242C459.471 124.199 459.614 124.126 459.739 124.027C459.864 123.929 459.968 123.807 460.046 123.668C460.124 123.529 460.173 123.377 460.192 123.219C460.211 123.061 460.198 122.901 460.154 122.748L458.374 116.503C458.283 116.192 458.073 115.929 457.791 115.769C457.508 115.61 457.174 115.567 456.86 115.649L453.442 116.592C453.289 116.635 453.145 116.708 453.02 116.807C452.895 116.905 452.791 117.027 452.713 117.166C452.636 117.305 452.586 117.458 452.567 117.616C452.549 117.774 452.562 117.934 452.605 118.087L454.403 124.331Z" fill="#E9D6B8"/>
<path d="M433.999 129.952C434.086 130.262 434.292 130.525 434.572 130.685C434.851 130.845 435.183 130.888 435.494 130.806L438.913 129.863C439.223 129.776 439.486 129.57 439.646 129.291C439.806 129.011 439.85 128.68 439.768 128.369L437.987 122.107C437.944 121.954 437.871 121.811 437.772 121.686C437.674 121.561 437.552 121.457 437.413 121.379C437.274 121.301 437.121 121.252 436.963 121.233C436.805 121.215 436.645 121.228 436.491 121.271L433.073 122.214C432.92 122.257 432.776 122.33 432.651 122.428C432.526 122.527 432.422 122.649 432.344 122.788C432.267 122.926 432.217 123.079 432.198 123.237C432.18 123.395 432.193 123.555 432.236 123.708L433.999 129.952Z" fill="#E9D6B8"/>
<path d="M456.487 118.407L459.888 130.7C460.653 133.475 461.223 139.879 445.501 144.22C436.207 146.764 434.658 139.844 434.034 137.602C433.68 134.709 433.947 131.774 434.818 128.992L435.851 132.799C436.189 131.503 436.86 130.318 437.796 129.361C438.733 128.403 439.904 127.706 441.192 127.338C448.314 125.381 451.092 129.117 454.226 128.174C456.612 127.444 457.359 122.997 456.487 118.407Z" fill="#292960"/>
<path d="M445.786 132.585L440.907 133.92C440.753 133.963 440.591 133.975 440.432 133.955C440.273 133.935 440.12 133.884 439.981 133.805C439.842 133.725 439.72 133.619 439.622 133.492C439.524 133.365 439.453 133.22 439.411 133.066L439.233 132.407L446.444 130.397L446.64 131.091C446.683 131.245 446.695 131.406 446.676 131.565C446.656 131.724 446.605 131.878 446.525 132.017C446.446 132.156 446.34 132.277 446.213 132.375C446.086 132.473 445.941 132.544 445.786 132.585Z" fill="#E9D6B8"/>
<path d="M368.654 226.124C370.915 232.35 410.389 255.246 423.618 253.876L463.484 255.779C497.314 251.652 513.446 199.012 513.446 199.012C512.092 185.795 478.69 204.954 466.778 210.896C447.923 220.289 435.993 220.769 435.993 220.769C423.387 222.05 408.769 212.337 392.833 211.999C375.295 211.625 365.093 216.322 368.654 226.124Z" fill="#292960"/>
<path d="M455.347 219.791V218.118L386.708 216.873V218.527L386.886 218.848C387.37 219.494 388.018 220 388.763 220.313C389.508 220.625 390.323 220.734 391.124 220.627L450.86 221.694C451.656 221.836 452.476 221.763 453.234 221.481C453.991 221.2 454.66 220.72 455.169 220.093L455.347 219.791Z" fill="#B6C2C9"/>
<path d="M438.806 219.773L438.966 220.022C439.226 220.38 439.56 220.677 439.946 220.893L450.397 221.071C451.14 221.2 451.902 221.149 452.621 220.924C453.339 220.698 453.993 220.303 454.528 219.773L454.688 219.524V218.705L438.788 218.421L438.806 219.773Z" fill="#D8E5ED"/>
<path d="M429.53 219.168L395.237 218.545L395.272 217.371L429.565 218.012L429.53 219.168Z" fill="#879BA6"/>
<path d="M438.45 217.691L430.171 183.891C430.046 183.444 429.786 183.046 429.425 182.753C429.065 182.459 428.622 182.285 428.159 182.254L380.085 181.383C379.887 181.369 379.69 181.404 379.509 181.485C379.329 181.566 379.172 181.691 379.052 181.848C378.932 182.005 378.852 182.189 378.821 182.384C378.79 182.58 378.808 182.779 378.874 182.966L387.153 216.766L438.45 217.691Z" fill="#B0BFDE"/>
<path d="M469.52 264.549C464.766 265.368 461.152 259.853 461.152 259.853L448.884 250.211L451.483 243.682L475.378 254.356C475.378 254.356 474.274 263.749 469.52 264.549Z" fill="#E9D6B8"/>
<path d="M461.134 259.48C461.296 260.547 461.601 261.589 462.042 262.575C462.95 265.083 464.072 265.955 465.265 266.311C469.841 267.663 473.134 266.987 484.156 269.104C495.177 271.221 498.4 269.62 501.712 264.55C505.024 259.48 501.587 255.495 496.21 255.086C488.429 254.498 484.103 255.388 480.061 254.765C476.019 254.143 475.538 253.182 473.063 251.652C470.588 250.122 468.576 258.768 470.784 260.707C472.992 262.646 462.79 262.717 461.134 259.48Z" fill="#4D6AB5"/>
<path d="M463.502 264.39C468.078 265.724 471.372 265.048 482.393 267.165C493.415 269.282 496.637 267.699 499.949 262.611C500.614 261.762 501.031 260.746 501.154 259.676C501.276 258.605 501.1 257.521 500.644 256.544C503.065 258.217 503.884 261.116 501.712 264.55C498.489 269.62 495.177 271.221 484.156 269.104C473.135 266.987 469.912 267.663 465.265 266.311C464.703 266.134 464.185 265.841 463.743 265.452C463.302 265.063 462.947 264.586 462.701 264.052C462.958 264.187 463.226 264.3 463.502 264.39Z" fill="white"/>
<path d="M461.241 259.64C461.237 259.586 461.237 259.533 461.241 259.479L461.348 259.657L461.241 259.64Z" fill="#E9D6B8"/>
<path d="M484.957 263.447C485.313 263.571 485.616 262.913 485.723 261.988C485.94 260.055 486.37 258.152 487.005 256.313C487.325 255.37 487.325 254.534 487.005 254.445C486.684 254.356 485.99 255.014 485.687 255.922C485.087 257.742 484.682 259.62 484.476 261.525C484.387 262.451 484.601 263.304 484.957 263.447Z" fill="white"/>
<path d="M481.539 262.824C481.913 262.824 482.251 262.255 482.358 261.383C482.575 259.564 482.993 257.774 483.604 256.046C483.924 255.157 483.907 254.409 483.497 254.356C483.088 254.303 482.447 254.961 482.144 255.833C481.546 257.56 481.151 259.351 480.969 261.17C480.826 261.988 481.165 262.753 481.539 262.824Z" fill="white"/>
<path d="M477.96 262.664C478.351 262.664 478.725 262.024 478.868 261.116C479.169 259.236 479.67 257.393 480.363 255.619C480.702 254.712 480.719 253.947 480.363 253.84C480.007 253.734 479.277 254.534 478.939 255.424C478.268 257.181 477.79 259.007 477.515 260.867C477.265 261.864 477.568 262.629 477.96 262.664Z" fill="white"/>
<path d="M468.683 248.806C468.683 248.806 384.358 214.133 379.533 214.133C363.259 213.973 366.98 230.447 375.242 238.185C384.981 247.329 458.926 264.051 458.926 264.051L468.683 248.806Z" fill="#333372"/>
<path d="M435.227 254.819L458.249 233.009L448.439 223.295L423.298 249.695L435.227 254.819Z" fill="#E9D6B8"/>
<path d="M430.473 237.669C430.473 237.669 489.052 184.015 493.005 182.414C506.377 177.077 514.656 191.736 514.193 196.842C513.588 203.46 454.118 257.185 454.118 257.185L430.473 237.669Z" fill="#333372"/>
<path d="M395.753 256.527C394.382 257.79 394.151 261.508 394.151 261.508C394.151 261.508 413.736 268.89 420.556 269.015C423.302 268.833 426.017 268.319 428.639 267.485C429.156 267.36 430.42 266.008 430.847 265.866C431.791 265.599 431.987 266.506 432.806 266.24C434.027 265.893 435.218 265.447 436.367 264.905C440.498 256.135 439.091 251.812 439.091 251.812C439.091 251.812 430.188 254.392 431.648 252.381C434.942 248.094 425.541 243.682 423.44 245.977C415.125 255.05 399.724 252.862 395.753 256.527Z" fill="#4D6AB5"/>
<path d="M394.667 258.341C400.667 260.725 413.291 265.652 415.82 265.83C426.093 266.56 433.287 262.913 438.094 260.76C437.621 262.175 437.062 263.559 436.42 264.905C435.272 265.447 434.081 265.893 432.859 266.239C432.04 266.506 431.844 265.599 430.901 265.866C430.402 266.008 429.209 267.36 428.693 267.485C426.07 268.319 423.356 268.833 420.609 269.015C413.754 268.89 394.204 261.507 394.204 261.507C394.224 260.437 394.38 259.373 394.667 258.341Z" fill="white"/>
<path d="M408.484 252.648C408.306 252.986 409.072 253.396 410.158 253.627C412.417 254.084 414.628 254.751 416.763 255.619C417.832 256.064 418.811 256.153 418.953 255.779C419.096 255.406 418.366 254.712 417.315 254.285C415.201 253.445 413.014 252.801 410.781 252.364C409.695 252.15 408.662 252.31 408.484 252.648Z" fill="white"/>
<path d="M412.864 251.101C412.704 251.457 413.451 251.937 414.52 252.257C416.718 252.895 418.852 253.734 420.894 254.766C421.927 255.282 422.87 255.442 422.995 255.05C423.12 254.659 422.425 253.876 421.41 253.378C419.381 252.377 417.266 251.562 415.09 250.941C414.021 250.656 413.024 250.763 412.864 251.101Z" fill="white"/>
<path d="M417.084 249.713C416.941 250.069 417.671 250.638 418.704 251.03C420.838 251.837 422.894 252.838 424.847 254.018C425.844 254.605 426.734 254.819 426.859 254.41C426.983 254.001 426.325 253.147 425.345 252.631C423.4 251.485 421.356 250.515 419.238 249.731C418.205 249.34 417.244 249.375 417.084 249.713Z" fill="white"/>
<path d="M203.157 76.1202C203.153 77.2636 202.695 78.3586 201.884 79.1654C201.073 79.9723 199.975 80.4253 198.831 80.4253H55.7125C54.5711 80.4206 53.478 79.9655 52.6709 79.1591C51.8639 78.3528 51.4083 77.2606 51.4037 76.1202V40.9499L45.4568 34.2076L51.4037 26.3979V20.6696C51.4083 19.5276 51.8633 18.4334 52.6698 17.6242C53.4764 16.815 54.5695 16.356 55.7125 16.3467H198.831C199.977 16.3514 201.075 16.8084 201.885 17.618C202.695 18.4277 203.153 19.5245 203.157 20.6696V76.1202Z" fill="#ECECEC"/>
<path d="M95.1156 26.4868H62.5854V31.6636H95.1156V26.4868Z" fill="white"/>
<path d="M139.005 26.4868H99.5491V31.6636H139.005V26.4868Z" fill="white"/>
<path d="M158.965 26.4868H144.187V31.6636H158.965V26.4868Z" fill="white"/>
<path d="M114.345 39.0288H62.5854V44.2056H114.345V39.0288Z" fill="white"/>
<path d="M126.435 39.0288H118.031V44.2056H126.435V39.0288Z" fill="white"/>
<path d="M192.243 39.0288H131.616V44.2056H192.243V39.0288Z" fill="white"/>
<path d="M75.8859 51.5881H62.5854V56.7649H75.8859V51.5881Z" fill="white"/>
<path d="M132.827 51.5881H80.3372V56.7649H132.827V51.5881Z" fill="white"/>
<path d="M167.832 51.5881H136.512V56.7649H167.832V51.5881Z" fill="white"/>
<path d="M127.646 64.1479H62.5854V69.3248H127.646V64.1479Z" fill="white"/>
<path d="M146.412 64.1479H132.827V69.3248H146.412V64.1479Z" fill="white"/>
<path d="M187.061 64.1479H152.306V69.3248H187.061V64.1479Z" fill="white"/>
<path d="M69.1199 122.871C69.1199 124.018 69.5757 125.117 70.3871 125.928C71.1985 126.739 72.299 127.194 73.4465 127.194H215.692C216.84 127.194 217.94 126.739 218.752 125.928C219.563 125.117 220.019 124.018 220.019 122.871V116.147L225.948 109.404L220.019 101.595V95.9376C220.019 94.7911 219.563 93.6916 218.752 92.8809C217.94 92.0702 216.84 91.6147 215.692 91.6147H73.4465C72.299 91.6147 71.1985 92.0702 70.3871 92.8809C69.5757 93.6916 69.1199 94.7911 69.1199 95.9376V122.871Z" fill="#ECECEC"/>
<path d="M191.549 106.754H182.343V111.931H191.549V106.754Z" fill="white"/>
<path d="M178.657 106.754H149.083V111.931H178.657V106.754Z" fill="white"/>
<path d="M143.902 106.754H83.2751V111.931H143.902V106.754Z" fill="white"/>
<path d="M256.181 88.6975C252.226 88.6975 248.36 89.8692 245.072 92.0644C241.784 94.2595 239.221 97.3796 237.708 101.03C236.194 104.681 235.798 108.697 236.57 112.573C237.342 116.448 239.246 120.008 242.042 122.802C244.839 125.596 248.401 127.498 252.28 128.269C256.159 129.04 260.179 128.645 263.833 127.132C267.487 125.62 270.609 123.06 272.806 119.774C275.004 116.489 276.176 112.627 276.176 108.675C276.176 103.377 274.07 98.2955 270.32 94.5489C266.57 90.8023 261.484 88.6975 256.181 88.6975Z" fill="#E76DFF"/>
<path d="M263.499 109.796C261.906 109.037 260.197 108.55 258.442 108.355C258.442 107.946 258.549 107.519 258.62 107.11C258.795 107.014 258.948 106.882 259.067 106.722C259.187 106.563 259.271 106.38 259.315 106.185C259.315 105.811 259.315 105.42 259.44 105.047C259.496 105.103 259.573 105.135 259.653 105.135C259.695 105.14 259.738 105.137 259.779 105.125C259.82 105.114 259.858 105.094 259.891 105.068C259.924 105.041 259.951 105.008 259.972 104.971C259.992 104.934 260.005 104.893 260.009 104.851L260.205 103.072C260.211 102.983 260.182 102.895 260.126 102.826C260.07 102.757 259.991 102.711 259.902 102.698C259.838 102.68 259.771 102.68 259.707 102.698C259.707 102.36 259.707 102.022 259.831 101.684C259.926 101.248 259.917 100.796 259.806 100.363C259.695 99.9307 259.484 99.5302 259.19 99.1937C258.427 98.5993 257.487 98.2766 256.519 98.2766C255.552 98.2766 254.612 98.5993 253.849 99.1937C253.553 99.5288 253.342 99.9298 253.234 100.363C253.125 100.797 253.122 101.25 253.226 101.684L253.332 102.698C253.268 102.68 253.2 102.68 253.136 102.698C253.048 102.711 252.968 102.757 252.912 102.826C252.856 102.895 252.828 102.983 252.834 103.072L253.03 104.851C253.034 104.893 253.047 104.934 253.067 104.971C253.088 105.008 253.115 105.041 253.148 105.068C253.181 105.094 253.219 105.114 253.26 105.125C253.301 105.137 253.344 105.14 253.386 105.135C253.466 105.135 253.543 105.103 253.599 105.047C253.599 105.42 253.599 105.811 253.742 106.185C253.782 106.381 253.865 106.566 253.985 106.726C254.105 106.885 254.259 107.017 254.436 107.11L254.596 108.355C252.843 108.554 251.134 109.041 249.54 109.796C249.287 109.959 249.079 110.183 248.935 110.447C248.792 110.711 248.718 111.008 248.721 111.308C248.721 111.931 248.845 112.554 248.917 113.176C248.95 113.455 249.066 113.718 249.25 113.931C249.434 114.143 249.678 114.296 249.949 114.368C254.326 115.062 258.784 115.062 263.161 114.368C263.432 114.292 263.676 114.139 263.863 113.928C264.049 113.716 264.17 113.455 264.211 113.176C264.211 112.554 264.336 111.931 264.389 111.308C264.384 111.001 264.3 110.7 264.144 110.435C263.988 110.17 263.766 109.95 263.499 109.796Z" fill="#D4ECFF"/>
<path d="M20.0308 13.5896C16.0718 13.5861 12.2008 14.7558 8.90735 16.9508C5.61388 19.1458 3.04595 22.2675 1.52848 25.9209C0.0110102 29.5743 -0.387794 33.5954 0.382401 37.4753C1.1526 41.3553 3.05718 44.9198 5.85534 47.718C8.65351 50.5162 12.2195 52.4224 16.1021 53.1954C19.9848 53.9684 24.0096 53.5734 27.6676 52.0605C31.3255 50.5476 34.4521 47.9848 36.652 44.6961C38.8518 41.4074 40.026 37.5408 40.026 33.5852C40.0283 30.9602 39.5129 28.3605 38.5091 25.9346C37.5053 23.5087 36.0328 21.3043 34.1758 19.4473C32.3189 17.5903 30.1139 16.1171 27.6868 15.112C25.2597 14.1069 22.6581 13.5896 20.0308 13.5896Z" fill="#ECECEC"/>
<path d="M27.4022 34.6883C25.81 33.9431 24.109 33.4567 22.3633 33.2473L22.5236 32.002C22.6979 31.9096 22.8501 31.7807 22.9699 31.6241C23.0898 31.4675 23.1743 31.287 23.2179 31.0948C23.2179 30.7034 23.307 30.312 23.3604 29.9384C23.4151 29.9907 23.4826 30.0275 23.5562 30.0452C23.6007 30.0501 23.6458 30.0461 23.6887 30.0335C23.7317 30.021 23.7716 30.0001 23.8064 29.972C23.8412 29.9439 23.87 29.909 23.8913 29.8697C23.9125 29.8304 23.9258 29.7872 23.9302 29.7428L24.126 27.9638C24.1311 27.877 24.1024 27.7915 24.046 27.7252C23.9897 27.659 23.9099 27.617 23.8234 27.608C23.7924 27.5948 23.7591 27.588 23.7254 27.588C23.6918 27.588 23.6585 27.5948 23.6275 27.608L23.7344 26.5939C23.8374 26.1593 23.8345 25.7062 23.7261 25.2729C23.6177 24.8395 23.4068 24.4385 23.1111 24.1035C22.3479 23.5091 21.408 23.1863 20.4403 23.1863C19.4727 23.1863 18.5328 23.5091 17.7696 24.1035C17.4758 24.4399 17.2649 24.8403 17.1536 25.2727C17.0423 25.7052 17.0338 26.1576 17.1286 26.5939C17.1286 26.932 17.1286 27.27 17.2533 27.608C17.2223 27.5948 17.189 27.588 17.1553 27.588C17.1217 27.588 17.0884 27.5948 17.0574 27.608C16.9708 27.617 16.891 27.659 16.8346 27.7252C16.7783 27.7915 16.7497 27.877 16.7548 27.9638L16.9506 29.7428C16.9596 29.8293 17.0016 29.9089 17.068 29.9652C17.1343 30.0216 17.2198 30.0502 17.3067 30.0452C17.387 30.0316 17.4614 29.9944 17.5204 29.9384C17.5204 30.312 17.6093 30.7034 17.6627 31.0948C17.7021 31.2863 17.7832 31.4668 17.9001 31.6236C18.017 31.7804 18.1669 31.9095 18.3393 32.002C18.3393 32.4111 18.464 32.8381 18.5175 33.2473C16.7666 33.459 15.06 33.9453 13.4607 34.6883C13.2074 34.8506 12.9995 35.0745 12.8563 35.339C12.7131 35.6034 12.6392 35.8998 12.6417 36.2004C12.6417 36.8231 12.7664 37.4635 12.8376 38.0862C12.8741 38.362 12.9916 38.6208 13.1755 38.8298C13.3593 39.0388 13.6011 39.1887 13.8702 39.2602C18.2467 39.9542 22.7053 39.9542 27.0817 39.2602C27.3509 39.1887 27.5927 39.0388 27.7765 38.8298C27.9603 38.6208 28.0779 38.362 28.1144 38.0862C28.1144 37.4635 28.2391 36.8231 28.3103 36.2004C28.3035 35.8913 28.2162 35.5892 28.057 35.324C27.8977 35.0588 27.6721 34.8397 27.4022 34.6883Z" fill="white"/>
</svg>
