<svg width="232" height="137" viewBox="0 0 232 137" fill="none" xmlns="http://www.w3.org/2000/svg">
<path d="M128.921 52.04L79.3631 4.73518C78.8904 4.21195 78.3804 3.72356 77.8372 3.27382L77.3497 2.81375C74.9472 0.988376 72.012 0 68.9938 0C65.9755 0 63.0403 0.988376 60.6378 2.81375H60.5926L60.0961 3.27382C59.5571 3.72823 59.0474 4.21632 58.5702 4.73518L8.94008 52.04C7.88796 53.0934 7.29701 54.5208 7.29688 56.0091V111.992C7.29688 114.219 8.18247 116.355 9.75882 117.93C11.3352 119.505 13.4732 120.39 15.7025 120.39H122.15C124.379 120.39 126.517 119.505 128.093 117.93C129.67 116.355 130.555 114.219 130.555 111.992V56.0091C130.558 54.5219 129.971 53.0943 128.921 52.04Z" fill="#F3AA06"/>
<path d="M96.9401 67.1948C96.9401 72.7256 95.2986 78.1322 92.2232 82.7309C89.1478 87.3296 84.7766 90.9139 79.6623 93.0304C74.5481 95.147 68.9205 95.7008 63.4912 94.6218C58.062 93.5428 53.0749 90.8794 49.1606 86.9685C45.2463 83.0576 42.5806 78.0749 41.5007 72.6503C40.4207 67.2258 40.975 61.6031 43.0934 56.4933C45.2118 51.3835 48.7992 47.016 53.4019 43.9433C58.0046 40.8705 63.4159 39.2305 68.9515 39.2305C76.3746 39.2305 83.4936 42.1767 88.7425 47.421C93.9914 52.6654 96.9401 59.7782 96.9401 67.1948V67.1948Z" stroke="#2094F1" stroke-width="0.2" stroke-miterlimit="10"/>
<path d="M122.151 103.595V39.2049L91.3361 8.45312H24.0912C21.8619 8.45313 19.7239 9.33792 18.1475 10.9129C16.5711 12.4879 15.6855 14.6241 15.6855 16.8514V103.631L122.151 103.595Z" fill="#F5F7F9"/>
<path d="M122.15 120.39H15.6849C13.4556 120.39 11.3176 119.505 9.74125 117.93C8.16489 116.355 7.2793 114.219 7.2793 111.992V56L122.15 120.39Z" fill="#FFBF0D"/>
<path d="M15.6855 120.39H122.151C124.38 120.39 126.518 119.505 128.094 117.93C129.671 116.355 130.556 114.219 130.556 111.992V56L15.6855 120.39Z" fill="#FECE40"/>
<path d="M91.3359 8.45312V30.8426C91.3359 33.07 92.2215 35.2061 93.7979 36.7811C95.3742 38.3561 97.5122 39.2409 99.7416 39.2409H122.151L91.3359 8.45312Z" fill="#CCCCCC"/>
<path d="M103.678 44.8066H35.5215V50.4085H103.678V44.8066Z" fill="white"/>
<path d="M79.0212 56H35.5215V61.6019H79.0212V56Z" fill="white"/>
<path d="M61.8488 33.6113H35.5215V39.2132H61.8488V33.6113Z" fill="white"/>
<path d="M119.313 63.1976C122.925 64.0997 129.479 67.3021 130.861 72.7867C132.937 81.0136 128.784 93.0924 135.375 104.901C137.47 108.671 99.1163 113.732 99.1163 113.732L91.7129 72.1642C91.7129 72.1642 100.958 63.1435 102.845 62.5301C106.736 61.2672 112.163 61.4025 119.313 63.1976Z" fill="#E76DFF"/>
<path d="M91.624 72.1829C90.2968 75.5025 86.9291 95.2669 90.7211 99.9307C91.1455 100.472 88.7709 101.302 89.1953 103.764C89.2675 104.179 89.9898 106.137 89.9898 106.137L93.0595 106.931L102.314 101.663L100.508 99.5067H99.6684C99.4474 99.2978 99.2803 99.0385 99.1812 98.751C99.0822 98.4636 99.0542 98.1565 99.0996 97.8559C99.3163 96.9538 96.9689 95.4834 93.4297 80.1392C92.3824 75.6468 91.9219 71.4522 91.624 72.1829Z" fill="#E31587"/>
<path d="M95.2078 98.9926L97.9164 98.3882L99.0179 98.2168C99.0559 98.7131 99.2743 99.1783 99.6318 99.5248L97.5101 99.588L95.0183 100.129L92.0117 101.834L95.2078 98.9926Z" fill="#ECB60D"/>
<path d="M99.1276 101.547C97.7483 101.573 96.3977 101.945 95.2001 102.629C93.8368 103.477 92.5728 105.336 93.8278 106.31C94.8389 107.046 95.9147 107.689 97.042 108.231C97.042 108.231 101.863 108.367 99.1276 101.547Z" fill="#C4D1E1"/>
<path d="M93.8096 106.381L95.1007 106.102C95.1007 106.102 99.5427 105.705 100.175 106.048C100.807 106.39 102.883 107.771 102.883 107.771L103.299 108.159C102.922 108.336 102.502 108.399 102.09 108.342C101.678 108.284 101.292 108.107 100.978 107.834C99.633 106.932 99.5247 107.617 99.5247 107.617L99.7504 108.808V110.314L99.949 110.955C99.949 110.955 100.139 111.298 99.9942 111.424C99.8854 111.53 99.7494 111.604 99.6011 111.637C99.4529 111.671 99.2983 111.663 99.1545 111.613L97.8002 109.259L97.4301 111.821C97.3668 111.934 97.2801 112.031 97.1757 112.108C97.0713 112.184 96.9518 112.237 96.8252 112.263C96.4279 112.344 96.4279 112.263 96.4279 112.263L96.1209 111.604C96.0832 111.781 95.988 111.939 95.8501 112.055C95.6143 112.217 95.3319 112.296 95.0465 112.281L95.1729 109.575L94.6222 110.946C94.4815 111.164 94.2613 111.32 94.0082 111.379L93.4395 111.523L93.8096 106.381Z" fill="#E4EEF3"/>
<path d="M116.85 95.8082C116.85 95.8082 113.627 103.927 105.871 106.164C104.535 106.534 103.705 107.968 104.355 108.446C105.185 109.042 106.323 109.177 108.264 109.168C112.318 109.168 117.834 107.905 121.644 104.215C127.296 98.803 129.075 96.2682 128.506 93.5259C127.937 90.7836 116.85 95.8082 116.85 95.8082Z" fill="#E9D6B8"/>
<path d="M129.76 70.0376C131.403 72.7439 132.351 77.0648 132.342 83.253C132.342 88.043 128.189 95.882 127.557 98.3086C127.449 98.7145 127.196 100.437 127.196 100.437L122.61 104.948L113.4 98.7146L116.199 94.4207L117.039 94.5109C117.294 93.4349 117.424 92.3331 117.427 91.2273C117.283 90.3253 119.973 77.9398 121.3 70.0105C122.068 65.437 128.117 67.3675 129.76 70.0376Z" fill="#E31587"/>
<path d="M121.526 94.3466L118.817 93.5167L117.725 93.2461C117.648 93.7369 117.394 94.1828 117.012 94.5L119.115 94.7435L121.553 95.4922L124.406 97.4497L121.526 94.3466Z" fill="#4E99FF"/>
<path d="M106.448 106.136L101.762 104.846C101.762 104.846 100.435 106.65 100.678 107.074C100.922 107.498 100.678 110.15 100.678 110.15L102.954 112.071L104.759 111.458C104.759 111.458 104.895 110.655 104.263 110.556C103.631 110.457 104.687 110.015 105.012 109.825C105.337 109.636 108.118 108.265 106.448 106.136Z" fill="#E9D6B8"/>
<path d="M107.643 54.2887L104.976 55.2224C103.485 55.7446 102.699 57.3762 103.222 58.8667L105.592 65.6262C106.115 67.1166 107.748 67.9015 109.24 67.3793L111.907 66.4456C113.399 65.9234 114.184 64.2918 113.661 62.8013L111.291 56.0418C110.768 54.5513 109.135 53.7665 107.643 54.2887Z" fill="#E4EEF3"/>
<path d="M102.042 68.7393C102.173 69.2117 102.486 69.6128 102.913 69.8547C103.339 70.0966 103.845 70.1594 104.318 70.0293L112.335 67.8192C112.572 67.76 112.795 67.6533 112.99 67.5054C113.185 67.3576 113.348 67.1717 113.468 66.9591C113.589 66.7465 113.665 66.5117 113.692 66.2688C113.719 66.0258 113.697 65.7799 113.626 65.5459L110.358 53.6747C110.227 53.2023 109.914 52.8011 109.487 52.5592C109.061 52.3174 108.555 52.2546 108.082 52.3847L100.056 54.5948C99.8187 54.654 99.5958 54.7607 99.401 54.9086C99.2062 55.0564 99.0435 55.2423 98.9227 55.4549C98.802 55.6675 98.7258 55.9023 98.6986 56.1452C98.6715 56.3882 98.6941 56.6341 98.765 56.868L102.042 68.7393Z" fill="#E9D6B8"/>
<path d="M99.4349 59.3127C98.7505 58.9181 98.1395 58.4083 97.6288 57.8059C97.4972 57.3732 97.4762 56.9145 97.5677 56.4716C97.6592 56.0287 97.8602 55.6158 98.1526 55.2705C98.9021 54.5036 99.9045 55.2705 99.9045 55.2705C99.9045 55.2705 98.7034 56.4615 98.7125 56.7773C98.7215 57.0931 99.4349 59.3127 99.4349 59.3127Z" fill="#292960"/>
<path d="M112.651 58.787C112.651 58.787 112.651 53.8887 112.01 52.6168C111.369 51.3449 111.017 50.4518 109.301 50.7585C106.791 51.2096 106.909 51.7328 105.518 51.3178C104.128 50.9029 101.491 49.7031 100.706 49.7302C100.297 49.7083 99.8882 49.7859 99.5155 49.9562C99.1428 50.1266 98.8169 50.3845 98.5658 50.7082C98.3146 51.0318 98.1457 51.4114 98.0734 51.8145C98.0012 52.2176 98.0278 52.6321 98.1509 53.0227C98.2831 53.4446 98.307 53.893 98.2202 54.3265C98.1334 54.7601 97.9388 55.1648 97.6543 55.5034C97.8078 55.6928 98.3134 55.765 99.1892 55.9364C101.726 56.4326 103.126 56.2883 104.715 55.3772C106.304 54.4661 109.229 52.6168 109.933 53.7714C110.637 54.9261 111.567 58.8321 111.802 59.0937C112.037 59.3553 112.407 59.0937 112.651 58.787Z" fill="#292960"/>
<path d="M111.107 63.046C111.128 63.1244 111.164 63.1979 111.214 63.2623C111.263 63.3266 111.325 63.3805 111.396 63.4208C111.466 63.4611 111.544 63.4869 111.625 63.4969C111.705 63.5069 111.787 63.5008 111.865 63.479L113.599 63.0008C113.677 62.979 113.749 62.9421 113.813 62.8922C113.876 62.8422 113.929 62.7803 113.968 62.7099C114.008 62.6395 114.033 62.5621 114.042 62.482C114.052 62.4019 114.045 62.3207 114.023 62.2431L113.12 59.0768C113.074 58.919 112.968 58.7855 112.825 58.7047C112.681 58.6238 112.512 58.602 112.353 58.6439L110.619 59.1219C110.542 59.1438 110.469 59.1808 110.406 59.2307C110.342 59.2806 110.289 59.3425 110.25 59.4129C110.211 59.4833 110.185 59.5608 110.176 59.6409C110.167 59.721 110.173 59.8021 110.195 59.8797L111.107 63.046Z" fill="#E9D6B8"/>
<path d="M100.759 65.8941C100.803 66.0512 100.908 66.1847 101.049 66.2657C101.191 66.3466 101.359 66.3687 101.517 66.3271L103.251 65.849C103.408 65.8047 103.542 65.7005 103.623 65.5588C103.704 65.417 103.726 65.2491 103.684 65.0913L102.781 61.916C102.759 61.8384 102.722 61.7658 102.672 61.7024C102.622 61.6391 102.561 61.5862 102.49 61.5468C102.42 61.5075 102.342 61.4824 102.262 61.4729C102.182 61.4635 102.101 61.47 102.023 61.492L100.289 61.9701C100.212 61.992 100.139 62.0289 100.076 62.0788C100.012 62.1287 99.9594 62.1907 99.9199 62.261C99.8805 62.3314 99.8554 62.4089 99.846 62.489C99.8366 62.5691 99.843 62.6502 99.8651 62.7278L100.759 65.8941Z" fill="#E9D6B8"/>
<path d="M112.163 60.041L113.888 66.2743C114.276 67.6816 114.565 70.9291 106.593 73.1301C101.88 74.4201 101.094 70.911 100.778 69.7744C100.598 68.3074 100.734 66.8189 101.176 65.4084L101.699 67.3388C101.871 66.6818 102.211 66.0808 102.686 65.5952C103.161 65.1095 103.754 64.756 104.408 64.5694C108.019 63.5772 109.428 65.4715 111.017 64.9934C112.227 64.6235 112.606 62.3684 112.163 60.041Z" fill="#292960"/>
<path d="M106.739 67.2289L104.265 67.9056C104.187 67.9275 104.105 67.9336 104.024 67.9236C103.943 67.9136 103.866 67.8877 103.795 67.8474C103.725 67.8071 103.663 67.7533 103.613 67.6889C103.563 67.6246 103.527 67.551 103.506 67.4725L103.416 67.1387L107.073 66.1191L107.173 66.471C107.195 66.5492 107.201 66.631 107.191 66.7116C107.181 66.7922 107.155 66.87 107.114 66.9405C107.074 67.011 107.02 67.0728 106.956 67.1223C106.891 67.1718 106.818 67.208 106.739 67.2289Z" fill="#E9D6B8"/>
<path d="M67.6273 114.663C68.774 117.82 88.7903 129.43 95.4986 128.735L115.714 129.701C132.868 127.608 141.048 100.915 141.048 100.915C140.362 94.2131 123.424 103.928 117.384 106.941C107.823 111.704 101.773 111.948 101.773 111.948C95.3812 112.597 87.9688 107.672 79.8882 107.501C70.995 107.311 65.8216 109.693 67.6273 114.663Z" fill="#292960"/>
<path d="M111.586 111.452V110.604L76.7812 109.973V110.812L76.8715 110.974C77.1169 111.302 77.4455 111.558 77.8233 111.717C78.201 111.875 78.6142 111.93 79.0203 111.876L109.311 112.417C109.715 112.489 110.13 112.452 110.515 112.309C110.899 112.167 111.238 111.924 111.496 111.605L111.586 111.452Z" fill="#B6C2C9"/>
<path d="M103.198 111.439L103.28 111.566C103.411 111.747 103.581 111.898 103.776 112.008L109.076 112.098C109.452 112.163 109.839 112.138 110.203 112.023C110.568 111.908 110.9 111.708 111.171 111.439L111.252 111.313V110.898L103.189 110.754L103.198 111.439Z" fill="#D8E5ED"/>
<path d="M98.4945 111.134L81.1055 110.818L81.1235 110.223L98.5126 110.547L98.4945 111.134Z" fill="#879BA6"/>
<path d="M103.019 110.386L98.8208 93.2461C98.7577 93.0192 98.6257 92.8175 98.4429 92.6689C98.2602 92.5202 98.0357 92.4319 97.8006 92.4162L73.4234 91.9742C73.3234 91.9671 73.2231 91.9849 73.1317 92.0261C73.0403 92.0672 72.9605 92.1304 72.8996 92.2101C72.8387 92.2897 72.7986 92.3832 72.7829 92.4822C72.7672 92.5811 72.7763 92.6824 72.8095 92.777L77.0078 109.916L103.019 110.386Z" fill="#B0BFDE"/>
<path d="M118.773 134.146C116.362 134.561 114.529 131.764 114.529 131.764L108.309 126.875L109.627 123.564L121.743 128.977C121.743 128.977 121.183 133.74 118.773 134.146Z" fill="#E9D6B8"/>
<path d="M114.521 131.576C114.604 132.118 114.759 132.646 114.982 133.146C115.442 134.418 116.011 134.86 116.616 135.04C118.936 135.726 120.607 135.383 126.195 136.456C131.784 137.53 133.418 136.718 135.098 134.147C136.777 131.576 135.034 129.556 132.308 129.348C128.362 129.05 126.168 129.501 124.119 129.186C122.069 128.87 121.826 128.383 120.571 127.607C119.316 126.831 118.295 131.215 119.415 132.199C120.535 133.182 115.361 133.218 114.521 131.576Z" fill="#4D6AB5"/>
<path d="M115.723 134.066C118.043 134.743 119.713 134.4 125.302 135.473C130.891 136.547 132.525 135.744 134.204 133.164C134.542 132.734 134.753 132.219 134.815 131.676C134.877 131.133 134.788 130.583 134.556 130.088C135.784 130.936 136.2 132.406 135.098 134.147C133.464 136.718 131.785 137.53 126.196 136.457C120.607 135.383 118.973 135.726 116.617 135.04C116.332 134.95 116.069 134.802 115.845 134.605C115.621 134.408 115.441 134.166 115.316 133.895C115.447 133.963 115.583 134.02 115.723 134.066Z" fill="white"/>
<path d="M114.576 131.657C114.574 131.63 114.574 131.603 114.576 131.576L114.63 131.666L114.576 131.657Z" fill="#E9D6B8"/>
<path d="M126.6 133.587C126.78 133.65 126.934 133.317 126.988 132.847C127.098 131.867 127.316 130.902 127.638 129.969C127.801 129.491 127.801 129.067 127.638 129.022C127.476 128.977 127.124 129.31 126.97 129.771C126.666 130.694 126.46 131.646 126.356 132.613C126.311 133.082 126.419 133.515 126.6 133.587Z" fill="white"/>
<path d="M124.866 133.273C125.056 133.273 125.228 132.984 125.282 132.542C125.392 131.619 125.604 130.712 125.914 129.835C126.076 129.384 126.067 129.005 125.86 128.978C125.652 128.951 125.327 129.285 125.173 129.727C124.87 130.603 124.67 131.511 124.577 132.434C124.505 132.849 124.677 133.237 124.866 133.273Z" fill="white"/>
<path d="M123.053 133.191C123.252 133.191 123.441 132.866 123.514 132.406C123.666 131.452 123.92 130.518 124.272 129.618C124.444 129.158 124.453 128.77 124.272 128.716C124.092 128.662 123.721 129.068 123.55 129.519C123.209 130.41 122.967 131.336 122.827 132.28C122.701 132.785 122.854 133.173 123.053 133.191Z" fill="white"/>
<path d="M118.349 126.164C118.349 126.164 75.5895 108.583 73.1428 108.583C64.8906 108.501 66.7776 116.855 70.9669 120.779C75.9055 125.415 113.401 133.895 113.401 133.895L118.349 126.164Z" fill="#333372"/>
<path d="M101.385 129.213L113.059 118.154L108.084 113.229L95.3359 126.615L101.385 129.213Z" fill="#E9D6B8"/>
<path d="M98.9727 120.516C98.9727 120.516 128.677 93.3099 130.681 92.498C137.462 89.7918 141.66 97.2249 141.425 99.8139C141.118 103.17 110.963 130.412 110.963 130.412L98.9727 120.516Z" fill="#333372"/>
<path d="M81.3672 130.08C80.672 130.721 80.5547 132.606 80.5547 132.606C80.5547 132.606 90.4861 136.35 93.9441 136.413C95.3368 136.321 96.7131 136.06 98.0431 135.637C98.3049 135.574 98.9459 134.888 99.1626 134.816C99.6411 134.681 99.7405 135.141 100.156 135.005C100.775 134.83 101.379 134.604 101.961 134.329C104.056 129.882 103.343 127.69 103.343 127.69C103.343 127.69 98.8285 128.998 99.5689 127.978C101.239 125.804 96.4721 123.567 95.4067 124.731C91.1904 129.331 83.3806 128.222 81.3672 130.08Z" fill="#4D6AB5"/>
<path d="M80.8168 130.998C83.8594 132.207 90.2607 134.706 91.5428 134.796C96.7522 135.166 100.4 133.316 102.838 132.225C102.598 132.942 102.314 133.644 101.989 134.327C101.407 134.601 100.803 134.828 100.183 135.003C99.7678 135.139 99.6685 134.679 99.19 134.814C98.9372 134.886 98.3322 135.572 98.0704 135.635C96.7405 136.058 95.3641 136.318 93.9714 136.41C90.4954 136.347 80.582 132.604 80.582 132.604C80.5921 132.061 80.671 131.521 80.8168 130.998Z" fill="white"/>
<path d="M87.8216 128.113C87.7314 128.285 88.1196 128.492 88.6703 128.609C89.8159 128.841 90.9373 129.179 92.02 129.62C92.5617 129.845 93.0582 129.89 93.1305 129.701C93.2027 129.511 92.8325 129.16 92.2998 128.943C91.2278 128.517 90.1185 128.191 88.9863 127.969C88.4356 127.861 87.9119 127.942 87.8216 128.113Z" fill="white"/>
<path d="M90.0422 127.328C89.961 127.509 90.3402 127.752 90.8819 127.915C91.9963 128.238 93.0784 128.664 94.1141 129.187C94.6378 129.448 95.1163 129.529 95.1795 129.331C95.2427 129.133 94.8906 128.736 94.3759 128.483C93.3469 127.976 92.2742 127.562 91.1708 127.247C90.6291 127.103 90.1235 127.157 90.0422 127.328Z" fill="white"/>
<path d="M92.1828 126.624C92.1106 126.805 92.4808 127.094 93.0044 127.292C94.0866 127.702 95.1292 128.209 96.1193 128.807C96.6249 129.105 97.0763 129.213 97.1395 129.006C97.2027 128.798 96.8687 128.365 96.3721 128.104C95.3855 127.523 94.3491 127.031 93.2753 126.633C92.7516 126.435 92.2641 126.453 92.1828 126.624Z" fill="white"/>
<path d="M220.419 38.5988C220.417 39.1786 220.185 39.7338 219.774 40.143C219.362 40.5521 218.806 40.7818 218.225 40.7818H145.654C145.075 40.7794 144.52 40.5486 144.111 40.1398C143.702 39.7309 143.471 39.177 143.469 38.5988V20.7648L140.453 17.3459L143.469 13.3858V10.4811C143.471 9.90201 143.702 9.3472 144.111 8.93688C144.52 8.52656 145.074 8.2938 145.654 8.28906H218.225C218.806 8.29144 219.363 8.52317 219.774 8.93374C220.185 9.34431 220.417 9.90046 220.419 10.4811V38.5988Z" fill="#ECECEC"/>
<path d="M165.632 13.4316H149.137V16.0567H165.632V13.4316Z" fill="white"/>
<path d="M187.888 13.4316H167.881V16.0567H187.888V13.4316Z" fill="white"/>
<path d="M198.009 13.4316H190.516V16.0567H198.009V13.4316Z" fill="white"/>
<path d="M175.383 19.791H149.137V22.4161H175.383V19.791Z" fill="white"/>
<path d="M181.516 19.791H177.254V22.4166H181.516V19.791Z" fill="white"/>
<path d="M214.883 19.791H184.141V22.4161H214.883V19.791Z" fill="white"/>
<path d="M155.881 26.1602H149.137V28.7852H155.881V26.1602Z" fill="white"/>
<path d="M184.755 26.1602H158.139V28.7852H184.755V26.1602Z" fill="white"/>
<path d="M202.504 26.1602H186.623V28.7852H202.504V26.1602Z" fill="white"/>
<path d="M182.127 32.5293H149.137V35.1543H182.127V32.5293Z" fill="white"/>
<path d="M191.643 32.5293H184.754V35.1543H191.643V32.5293Z" fill="white"/>
<path d="M212.257 32.5293H194.633V35.1543H212.257V32.5293Z" fill="white"/>
<path d="M152.451 62.3065C152.451 62.8878 152.682 63.4454 153.094 63.8565C153.505 64.2676 154.063 64.4985 154.645 64.4985H226.774C227.356 64.4985 227.914 64.2676 228.326 63.8565C228.737 63.4454 228.968 62.8878 228.968 62.3065V58.8967L231.975 55.4778L228.968 51.5177V48.6491C228.968 48.0677 228.737 47.5102 228.326 47.0991C227.914 46.688 227.356 46.457 226.774 46.457H154.645C154.063 46.457 153.505 46.688 153.094 47.0991C152.682 47.5102 152.451 48.0677 152.451 48.6491V62.3065Z" fill="#ECECEC"/>
<path d="M214.531 54.1328H209.863V56.7579H214.531V54.1328Z" fill="white"/>
<path d="M207.995 54.1328H192.998V56.7579H207.995V54.1328Z" fill="white"/>
<path d="M190.371 54.1328H159.629V56.7579H190.371V54.1328Z" fill="white"/>
<path d="M10.5942 44.9766C8.58887 44.9766 6.62856 45.5707 4.96119 46.6838C3.29382 47.7969 1.99427 49.3791 1.22687 51.2301C0.459462 53.0812 0.258686 55.1181 0.649906 57.0832C1.04113 59.0482 2.0068 60.8533 3.42478 62.27C4.84276 63.6868 6.64937 64.6516 8.61616 65.0425C10.583 65.4334 12.6216 65.2328 14.4743 64.466C16.327 63.6993 17.9105 62.4009 19.0246 60.7349C20.1387 59.069 20.7333 57.1104 20.7333 55.1068C20.7333 52.4201 19.6651 49.8435 17.7636 47.9437C15.8622 46.0439 13.2833 44.9766 10.5942 44.9766Z" fill="#E76DFF"/>
<path d="M14.3043 55.6754C13.4964 55.2905 12.6297 55.0436 11.7402 54.9447C11.7402 54.7372 11.7944 54.5207 11.8305 54.3132C11.9191 54.2645 11.9964 54.1975 12.0571 54.1166C12.1178 54.0357 12.1606 53.9428 12.1826 53.8442C12.1826 53.6547 12.1826 53.4563 12.2458 53.2669C12.2745 53.2956 12.3135 53.3119 12.3541 53.312C12.3755 53.3145 12.3972 53.3127 12.4179 53.3068C12.4385 53.3009 12.4578 53.2909 12.4746 53.2775C12.4914 53.2641 12.5053 53.2474 12.5157 53.2285C12.526 53.2097 12.5325 53.189 12.5347 53.1676L12.634 52.2655C12.6368 52.2205 12.6225 52.1761 12.5941 52.141C12.5657 52.106 12.5252 52.0828 12.4806 52.0761C12.4481 52.0668 12.4137 52.0668 12.3812 52.0761C12.3812 51.9047 12.3812 51.7333 12.4444 51.5619C12.4925 51.3407 12.4882 51.1113 12.4317 50.892C12.3753 50.6727 12.2683 50.4696 12.1194 50.299C11.7324 49.9976 11.2558 49.834 10.7651 49.834C10.2744 49.834 9.79782 49.9976 9.41082 50.299C9.2609 50.4689 9.15396 50.6723 9.09897 50.892C9.04399 51.1118 9.04259 51.3415 9.09484 51.5619L9.14901 52.0761C9.11655 52.0668 9.08211 52.0668 9.04965 52.0761C9.00499 52.0828 8.96449 52.106 8.93608 52.141C8.90767 52.1761 8.89342 52.2205 8.89618 52.2655L8.99548 53.1676C8.99773 53.189 9.00423 53.2097 9.01455 53.2285C9.02487 53.2474 9.03881 53.2641 9.0556 53.2775C9.0724 53.2909 9.09168 53.3009 9.11236 53.3068C9.13304 53.3127 9.1547 53.3145 9.17607 53.312C9.21673 53.3119 9.2557 53.2956 9.2844 53.2669C9.2844 53.4563 9.28442 53.6547 9.35665 53.8442C9.37697 53.9435 9.41909 54.0371 9.47998 54.1182C9.54086 54.1993 9.61902 54.2659 9.70878 54.3132L9.79 54.9447C8.90086 55.0455 8.03452 55.2924 7.22591 55.6754C7.09747 55.7577 6.99199 55.8712 6.91936 56.0053C6.84673 56.1394 6.80931 56.2897 6.81058 56.4421C6.81058 56.7579 6.87377 57.0736 6.90988 57.3893C6.92668 57.5308 6.9856 57.6641 7.07895 57.7718C7.17229 57.8795 7.29579 57.9568 7.43355 57.9937C9.65274 58.3456 11.9136 58.3456 14.1328 57.9937C14.2705 57.9552 14.3941 57.8776 14.4886 57.7703C14.5832 57.663 14.6446 57.5307 14.6655 57.3893C14.6655 57.0736 14.7286 56.7579 14.7557 56.4421C14.7532 56.2862 14.7103 56.1337 14.6312 55.9993C14.5521 55.8649 14.4394 55.7533 14.3043 55.6754Z" fill="#D4ECFF"/>
<path d="M127.559 6.89063C125.552 6.88884 123.589 7.48198 121.919 8.59501C120.249 9.70805 118.947 11.291 118.177 13.1435C117.408 14.9961 117.206 17.0351 117.596 19.0025C117.987 20.9699 118.953 22.7774 120.371 24.1963C121.79 25.6152 123.599 26.5818 125.567 26.9738C127.536 27.3657 129.577 27.1655 131.432 26.3983C133.287 25.6312 134.872 24.3316 135.988 22.664C137.103 20.9964 137.699 19.0357 137.699 17.0299C137.7 15.6988 137.438 14.3806 136.929 13.1505C136.42 11.9204 135.674 10.8026 134.732 9.86091C133.79 8.91927 132.672 8.17226 131.442 7.6626C130.211 7.15294 128.892 6.89063 127.559 6.89063Z" fill="#ECECEC"/>
<path d="M131.297 17.5882C130.49 17.2104 129.627 16.9637 128.742 16.8576L128.823 16.2261C128.912 16.1792 128.989 16.1139 129.05 16.0345C129.111 15.9551 129.153 15.8636 129.176 15.7661C129.176 15.5676 129.221 15.3691 129.248 15.1797C129.275 15.2062 129.31 15.2249 129.347 15.2338C129.37 15.2363 129.392 15.2343 129.414 15.2279C129.436 15.2216 129.456 15.211 129.474 15.1967C129.492 15.1825 129.506 15.1648 129.517 15.1449C129.528 15.1249 129.534 15.1031 129.537 15.0805L129.636 14.1784C129.639 14.1344 129.624 14.0911 129.595 14.0575C129.567 14.0239 129.526 14.0026 129.483 13.998C129.467 13.9913 129.45 13.9879 129.433 13.9879C129.416 13.9879 129.399 13.9913 129.383 13.998L129.437 13.4838C129.49 13.2634 129.488 13.0337 129.433 12.8139C129.378 12.5942 129.271 12.3909 129.121 12.2209C128.734 11.9196 128.258 11.7559 127.767 11.7559C127.276 11.7559 126.8 11.9196 126.413 12.2209C126.264 12.3916 126.157 12.5946 126.1 12.8139C126.044 13.0331 126.04 13.2626 126.088 13.4838C126.088 13.6552 126.088 13.8266 126.151 13.998C126.135 13.9913 126.118 13.9879 126.101 13.9879C126.084 13.9879 126.067 13.9913 126.052 13.998C126.008 14.0026 125.967 14.0239 125.939 14.0575C125.91 14.0911 125.896 14.1344 125.898 14.1784L125.997 15.0805C126.002 15.1244 126.023 15.1648 126.057 15.1933C126.091 15.2219 126.134 15.2364 126.178 15.2338C126.219 15.227 126.256 15.2081 126.286 15.1797C126.286 15.3691 126.332 15.5676 126.359 15.7661C126.379 15.8632 126.42 15.9547 126.479 16.0342C126.538 16.1137 126.614 16.1792 126.702 16.2261C126.702 16.4336 126.765 16.6501 126.792 16.8576C125.904 16.9649 125.039 17.2115 124.228 17.5882C124.099 17.6706 123.994 17.7841 123.921 17.9182C123.849 18.0523 123.811 18.2026 123.813 18.355C123.813 18.6708 123.876 18.9955 123.912 19.3112C123.93 19.4511 123.99 19.5823 124.083 19.6883C124.176 19.7943 124.299 19.8703 124.436 19.9066C126.655 20.2585 128.916 20.2585 131.135 19.9066C131.271 19.8703 131.394 19.7943 131.487 19.6883C131.58 19.5823 131.64 19.4511 131.658 19.3112C131.658 18.9955 131.722 18.6708 131.758 18.355C131.754 18.1983 131.71 18.0451 131.629 17.9106C131.549 17.7761 131.434 17.665 131.297 17.5882Z" fill="white"/>
</svg>
