<svg width="248" height="165" viewBox="0 0 248 165" fill="none" xmlns="http://www.w3.org/2000/svg">
<path d="M117.84 137.68C155.859 137.68 186.68 106.859 186.68 68.8399C186.68 30.8207 155.859 0 117.84 0C79.8207 0 49 30.8207 49 68.8399C49 106.859 79.8207 137.68 117.84 137.68Z" fill="#EEE6F4"/>
<path d="M239.41 42.7646H5.53051C4.55565 42.7646 3.76538 43.5549 3.76538 44.5298V84.0862C3.76538 85.0611 4.55565 85.8513 5.53051 85.8513H239.41C240.384 85.8513 241.175 85.0611 241.175 84.0862V44.5298C241.175 43.5549 240.384 42.7646 239.41 42.7646Z" fill="white" stroke="#0A84FF"/>
<path d="M241.174 41H3.76512C2.79027 41 2 41.7903 2 42.7651V85.8518C2 86.8267 2.79027 87.6169 3.76512 87.6169H241.174C242.149 87.6169 242.939 86.8267 242.939 85.8518V42.7651C242.939 41.7903 242.149 41 241.174 41Z" stroke="#0A84FF" stroke-opacity="0.3" stroke-width="3"/>
<path d="M21.5667 68.7004L21.6991 67.9414H17.8511L18.3277 65.532H22.158L22.2992 64.7642H18.416L18.8219 62.3989H22.6699L22.8023 61.6399H18.16L16.9244 68.7004H21.5667ZM23.7113 68.7004L24.2056 65.9557C24.4086 64.8171 24.9911 64.0758 26.059 64.0758C27.1269 64.0758 27.5593 64.773 27.3652 65.8409L26.8621 68.7004H27.6829L28.1948 65.8409C28.4595 64.3406 27.7093 63.3697 26.2796 63.3697C25.9363 63.3655 25.597 63.4434 25.29 63.5969C24.9829 63.7505 24.717 63.9752 24.5145 64.2523L24.6557 63.4668H23.8614L22.9788 68.6916L23.7113 68.7004ZM31.4691 68.7004L31.5926 67.9767C30.5159 67.9767 30.3129 67.7561 30.5159 66.6882L30.966 64.1817H32.2987L32.4222 63.4757H31.0896L31.3896 61.79L30.5071 62.2312L30.2864 63.4757H29.298L29.1744 64.1817H30.1364L29.6951 66.6882C29.4215 68.2327 29.8451 68.7004 31.3455 68.7004H31.4691ZM35.2464 68.8063C35.6856 68.8225 36.1227 68.7387 36.5247 68.5614C36.9268 68.384 37.2834 68.1177 37.5676 67.7826L36.941 67.306C36.7455 67.5536 36.4959 67.7531 36.2114 67.8893C35.9268 68.0254 35.6148 68.0946 35.2994 68.0915C35.0544 68.1213 34.8058 68.0973 34.571 68.0211C34.3362 67.9448 34.121 67.8182 33.9402 67.6501C33.7595 67.482 33.6177 67.2764 33.5247 67.0477C33.4317 66.8191 33.3898 66.5729 33.4019 66.3263H37.9471V66.1145C38.0236 65.7695 38.0195 65.4115 37.935 65.0684C37.8504 64.7253 37.6878 64.4063 37.4597 64.1364C37.2316 63.8664 36.9443 63.6528 36.6201 63.5122C36.2959 63.3716 35.9436 63.3077 35.5906 63.3256C34.8937 63.3082 34.2134 63.5406 33.6728 63.9808C33.1322 64.4211 32.7669 65.0401 32.6429 65.7262C32.526 66.1099 32.5072 66.5168 32.5881 66.9096C32.669 67.3025 32.847 67.6688 33.106 67.9752C33.3649 68.2815 33.6965 68.5181 34.0704 68.6633C34.4443 68.8085 34.8486 68.8576 35.2464 68.8063ZM37.2498 65.6732H33.4901C33.5981 65.2036 33.8656 64.786 34.247 64.4915C34.6284 64.197 35.1001 64.0438 35.5818 64.0582C35.8021 64.0342 36.0251 64.059 36.2347 64.1309C36.4444 64.2029 36.6356 64.3201 36.7948 64.4743C36.9541 64.6284 37.0774 64.8158 37.156 65.023C37.2347 65.2302 37.2667 65.4522 37.2498 65.6732ZM39.4916 68.7004L39.9593 66.0527C39.9754 65.5697 40.1823 65.1127 40.5347 64.7819C40.887 64.4511 41.3561 64.2733 41.8392 64.2876H42.3334L42.4923 63.4757H41.9186C41.5637 63.4563 41.2113 63.5445 40.9074 63.7287C40.6034 63.913 40.3622 64.1847 40.2153 64.5083L40.3918 63.4757H39.6151L38.7326 68.7004H39.4916ZM48.0259 68.7004L48.5202 65.8762L51.9445 61.6399H50.9825L48.2289 65.0819L46.6756 61.6399H45.7931L47.6641 65.7703L47.1522 68.7004H48.0259ZM53.4272 68.8063C54.1092 68.833 54.7774 68.6102 55.307 68.1797C55.8366 67.7492 56.1911 67.1405 56.3044 66.4675C56.3986 66.0948 56.4052 65.7054 56.3236 65.3297C56.2421 64.954 56.0746 64.6023 55.8343 64.3022C55.5941 64.0021 55.2876 63.7618 54.9388 63.6C54.5901 63.4382 54.2087 63.3594 53.8244 63.3697C53.1382 63.3543 52.4689 63.584 51.9368 64.0174C51.4046 64.4509 51.0444 65.0599 50.9207 65.735C50.8268 66.1085 50.8215 66.4988 50.9052 66.8747C50.9889 67.2506 51.1593 67.6017 51.4028 67.9001C51.6463 68.1984 51.9561 68.4357 52.3076 68.5931C52.6591 68.7504 53.0425 68.8235 53.4272 68.8063ZM53.4272 68.0738C53.1502 68.0838 52.8748 68.0284 52.6232 67.9121C52.3716 67.7958 52.151 67.6219 51.9791 67.4045C51.8072 67.187 51.6889 66.9322 51.6339 66.6605C51.5788 66.3889 51.5885 66.1081 51.6621 65.8409C51.7274 65.3435 51.9745 64.8879 52.3559 64.5619C52.7372 64.236 53.2258 64.0628 53.7273 64.0758C54.0092 64.0636 54.2899 64.1192 54.546 64.2378C54.802 64.3565 55.0258 64.5348 55.1987 64.7578C55.3716 64.9809 55.4885 65.2421 55.5396 65.5196C55.5907 65.7971 55.5745 66.0828 55.4924 66.3528C55.4175 66.8406 55.1673 67.2844 54.7889 67.6012C54.4104 67.918 53.9294 68.086 53.436 68.0738H53.4272ZM59.1815 68.8063C59.5266 68.8224 59.8701 68.7496 60.1791 68.5951C60.4881 68.4406 60.7524 68.2095 60.9466 67.9238L60.8054 68.7181H61.5733L62.4558 63.4933H61.6615L61.1496 66.3616C60.9466 67.4737 60.2671 68.1268 59.3845 68.1268C58.5019 68.1268 57.9901 67.4119 58.1754 66.3616L58.6785 63.5021H57.8665L57.3634 66.3793C57.1605 67.8443 57.8312 68.8063 59.1903 68.8063H59.1815ZM63.815 68.7004L64.2827 66.0527C64.4769 65.0025 65.0153 64.2876 66.1626 64.2876H66.6568L66.8157 63.4757H66.242C65.8871 63.4628 65.5362 63.5535 65.2321 63.7369C64.9281 63.9203 64.684 64.1884 64.5299 64.5083L64.7152 63.4757H63.9385L63.056 68.7004H63.815ZM74.1586 68.7004L74.2998 67.9414H70.4518L70.8843 65.532H74.7146L74.847 64.7642H71.0167L71.4227 62.3989H75.2706L75.403 61.6399H70.7607L69.5252 68.7004H74.1586ZM76.3032 68.7004L76.8063 65.8851C77.0005 64.8348 77.583 64.0758 78.5714 64.0758C79.5599 64.0758 79.9129 64.7377 79.7276 65.788L79.2069 68.7004H80.0188L80.5219 65.8409C80.716 64.7907 81.2191 64.0758 82.1899 64.0758C83.1607 64.0758 83.5844 64.8436 83.4079 65.8851L82.9048 68.7004H83.7167L84.2286 65.8321C84.4846 64.4112 83.7521 63.3697 82.3753 63.3697C81.986 63.3609 81.6013 63.454 81.2591 63.6398C80.917 63.8256 80.6294 64.0976 80.4248 64.4288C80.3019 64.0989 80.0757 63.8176 79.7799 63.6267C79.4841 63.4358 79.1345 63.3457 78.7832 63.3697C78.4448 63.3571 78.1088 63.4317 77.8074 63.5862C77.5061 63.7407 77.2495 63.9701 77.0622 64.2523L77.2123 63.4404H76.4268L75.5001 68.6651L76.3032 68.7004ZM88.1825 63.4051C87.5051 63.4123 86.8518 63.6577 86.3371 64.0982C85.8223 64.5387 85.479 65.1463 85.3671 65.8144C85.275 66.1754 85.2672 66.5526 85.3443 66.9171C85.4214 67.2815 85.5813 67.6233 85.8117 67.916C86.0421 68.2087 86.3368 68.4444 86.6729 68.6049C87.009 68.7654 87.3776 68.8464 87.7501 68.8416C88.1124 68.8465 88.4705 68.763 88.7934 68.5985C89.1163 68.4339 89.3943 68.1933 89.6034 67.8973L89.4622 68.7799H90.2565L91.1832 63.5551H90.3713L90.1683 64.6583L90.1153 64.5259C89.9301 64.1802 89.6495 63.8949 89.3069 63.704C88.9642 63.5131 88.574 63.4247 88.1825 63.4492V63.4051ZM87.9089 68.1003C87.6367 68.1083 87.3664 68.0532 87.1191 67.9393C86.8717 67.8255 86.6541 67.6559 86.4832 67.444C86.3122 67.232 86.1926 66.9834 86.1338 66.7175C86.0749 66.4517 86.0783 66.1758 86.1438 65.9115C86.2262 65.4234 86.4771 64.9795 86.8528 64.6571C87.2284 64.3346 87.7051 64.1539 88.2002 64.1464C88.4667 64.1404 88.7312 64.195 88.9737 64.3058C89.2162 64.4167 89.4304 64.5811 89.6002 64.7866C89.7701 64.9921 89.8912 65.2335 89.9544 65.4925C90.0176 65.7515 90.0213 66.0215 89.9653 66.2822C89.8836 66.7707 89.6347 67.2156 89.2612 67.5408C88.8877 67.866 88.4128 68.0513 87.9177 68.065L87.9089 68.1003ZM93.2043 62.5401C93.3612 62.5408 93.5134 62.4863 93.6343 62.3864C93.7552 62.2864 93.8373 62.1472 93.8662 61.993C93.8849 61.9068 93.8839 61.8176 93.8631 61.732C93.8423 61.6463 93.8024 61.5665 93.7463 61.4986C93.6903 61.4306 93.6195 61.3762 93.5394 61.3396C93.4592 61.3029 93.3718 61.2849 93.2837 61.2869C93.1299 61.2903 92.9819 61.3466 92.8645 61.4462C92.7472 61.5459 92.6678 61.6828 92.6395 61.8341C92.6225 61.9205 92.626 62.0096 92.6497 62.0943C92.6733 62.1791 92.7164 62.2572 92.7756 62.3223C92.8347 62.3875 92.9083 62.4379 92.9904 62.4696C93.0725 62.5013 93.1608 62.5134 93.2484 62.5048L93.2043 62.5401ZM92.4453 68.7181L93.372 63.4933H92.56L91.6775 68.7181H92.4453ZM94.6782 68.7181L96.0197 61.1016H95.2165L93.875 68.7181H94.6782ZM98.9674 68.7181L99.9824 66.953H103.354L103.733 68.7181H104.554L103.01 61.6576H102.18L98.0937 68.7181H98.9674ZM103.195 66.1851H100.415L102.445 62.6549L103.195 66.1851ZM107.775 68.8328C108.134 68.8371 108.488 68.7598 108.813 68.6069C109.137 68.454 109.422 68.2295 109.646 67.9502L109.505 68.771H110.282L111.632 61.1545H110.82L110.211 64.6848C110.042 64.3019 109.759 63.9805 109.4 63.7642C109.042 63.5478 108.626 63.4471 108.208 63.4757C107.534 63.4794 106.883 63.7217 106.371 64.1595C105.859 64.5973 105.519 65.2024 105.41 65.8674C105.336 66.2241 105.343 66.5928 105.431 66.9465C105.518 67.3002 105.683 67.6299 105.914 67.9116C106.145 68.1933 106.436 68.4198 106.765 68.5746C107.095 68.7294 107.455 68.8086 107.82 68.8063L107.775 68.8328ZM107.952 68.0915C107.679 68.0998 107.407 68.0447 107.159 67.9303C106.911 67.816 106.693 67.6456 106.522 67.4325C106.351 67.2195 106.231 66.9696 106.173 66.7026C106.115 66.4356 106.12 66.1588 106.187 65.8939C106.263 65.4012 106.513 64.9522 106.892 64.6283C107.271 64.3044 107.753 64.1271 108.252 64.1288C108.519 64.1283 108.782 64.1882 109.022 64.304C109.262 64.4198 109.473 64.5885 109.638 64.7974C109.804 65.0063 109.92 65.25 109.978 65.5102C110.036 65.7705 110.034 66.0404 109.973 66.2999C109.892 66.7744 109.652 67.2073 109.293 67.528C108.934 67.8486 108.477 68.0379 107.996 68.065L107.952 68.0915ZM114.368 68.8328C114.727 68.8371 115.081 68.7598 115.405 68.6069C115.729 68.454 116.015 68.2295 116.239 67.9502L116.098 68.771H116.875L118.225 61.1545H117.413L116.804 64.6848C116.635 64.3019 116.351 63.9805 115.993 63.7642C115.635 63.5478 115.218 63.4471 114.801 63.4757C114.127 63.4794 113.476 63.7217 112.964 64.1595C112.452 64.5973 112.111 65.2024 112.003 65.8674C111.912 66.2278 111.904 66.6042 111.98 66.9681C112.056 67.332 112.214 67.6737 112.442 67.9673C112.67 68.2609 112.962 68.4986 113.296 68.6623C113.63 68.8261 113.996 68.9115 114.368 68.9122V68.8328ZM114.545 68.0915C114.272 68.0998 114 68.0447 113.752 67.9303C113.504 67.816 113.286 67.6456 113.114 67.4325C112.943 67.2195 112.824 66.9696 112.766 66.7026C112.708 66.4356 112.712 66.1588 112.78 65.8939C112.859 65.4012 113.112 64.9531 113.492 64.6296C113.872 64.3062 114.355 64.1286 114.854 64.1288C115.119 64.1296 115.382 64.1905 115.621 64.3069C115.86 64.4232 116.069 64.5921 116.234 64.8008C116.399 65.0096 116.514 65.2528 116.571 65.5124C116.629 65.7719 116.627 66.0411 116.566 66.2999C116.488 66.7757 116.249 67.2105 115.889 67.5317C115.529 67.8529 115.07 68.0411 114.589 68.065L114.545 68.0915ZM119.116 68.7269L119.584 66.0792C119.778 65.029 120.317 64.3141 121.464 64.3141H121.958L122.117 63.5021H121.587C121.233 63.4892 120.882 63.58 120.578 63.7634C120.274 63.9468 120.029 64.2148 119.875 64.5347L120.061 63.5021H119.284L118.401 68.7269H119.116ZM124.968 68.8328C125.407 68.8483 125.844 68.7642 126.246 68.5869C126.648 68.4096 127.004 68.1437 127.289 67.809L126.653 67.3325C126.461 67.5809 126.213 67.7812 125.93 67.9175C125.646 68.0538 125.335 68.1224 125.021 68.1179C124.775 68.1494 124.526 68.1265 124.291 68.0508C124.055 67.9752 123.839 67.8486 123.658 67.6802C123.477 67.5117 123.335 67.3055 123.243 67.0761C123.15 66.8467 123.109 66.5998 123.123 66.3528H127.668V66.141C127.747 65.7966 127.744 65.4387 127.661 65.0955C127.577 64.7523 127.415 64.433 127.188 64.1628C126.961 63.8926 126.674 63.6788 126.35 63.5381C126.026 63.3975 125.673 63.3338 125.321 63.3521C124.624 63.3347 123.944 63.567 123.403 64.0073C122.862 64.4475 122.497 65.0666 122.373 65.7527C122.267 66.1297 122.255 66.5269 122.338 66.9096C122.421 67.2923 122.597 67.6489 122.849 67.9482C123.101 68.2476 123.423 68.4807 123.786 68.6272C124.149 68.7737 124.543 68.8291 124.932 68.7887L124.968 68.8328ZM126.971 65.6997H123.211C123.316 65.23 123.581 64.8116 123.962 64.5167C124.342 64.2218 124.813 64.069 125.294 64.0846C125.516 64.0543 125.742 64.0735 125.955 64.1407C126.169 64.2079 126.365 64.3214 126.529 64.4732C126.694 64.6251 126.823 64.8114 126.907 65.0188C126.991 65.2263 127.028 65.4498 127.015 65.6732L126.971 65.6997ZM130.501 68.8328C130.955 68.893 131.416 68.7854 131.796 68.5303C132.176 68.2752 132.45 67.89 132.567 67.4472C132.752 66.3528 131.825 65.9821 130.96 65.6821C130.095 65.382 129.575 65.2584 129.672 64.7024C129.769 64.1464 130.131 64.0228 130.766 64.0228C131.082 64.0029 131.397 64.0648 131.681 64.2024C131.966 64.34 132.21 64.5487 132.39 64.8083L133.07 64.3582C132.802 64.0275 132.461 63.7642 132.073 63.5894C131.685 63.4147 131.262 63.3334 130.837 63.3521C129.778 63.3521 129.072 63.8287 128.886 64.6142C128.683 65.6997 129.584 66.0351 130.466 66.3087C131.207 66.5381 131.878 66.7411 131.781 67.3148C131.684 67.8885 131.278 68.1003 130.563 68.1003C130.218 68.1163 129.875 68.0436 129.566 67.8891C129.257 67.7346 128.992 67.5034 128.798 67.2177L128.092 67.6855C128.367 68.0603 128.729 68.3618 129.148 68.5634C129.566 68.765 130.028 68.8606 130.493 68.8416L130.501 68.8328ZM135.647 68.8328C136.101 68.893 136.561 68.7854 136.941 68.5303C137.321 68.2752 137.595 67.89 137.712 67.4472C137.897 66.3528 136.971 65.9821 136.106 65.6821C135.241 65.382 134.72 65.2584 134.817 64.7024C134.914 64.1464 135.276 64.0228 135.911 64.0228C136.227 64.0029 136.542 64.0648 136.827 64.2024C137.111 64.34 137.355 64.5487 137.535 64.8083L138.215 64.3582C137.947 64.0275 137.606 63.7642 137.218 63.5894C136.83 63.4147 136.407 63.3334 135.982 63.3521C134.923 63.3521 134.217 63.8287 134.032 64.6142C133.829 65.6997 134.729 66.0351 135.611 66.3087C136.353 66.5381 137.024 66.7411 136.926 67.3148C136.829 67.8885 136.423 68.1003 135.708 68.1003C135.363 68.1163 135.02 68.0436 134.711 67.8891C134.402 67.7346 134.138 67.5034 133.943 67.2177L133.237 67.6855C133.512 68.0603 133.875 68.3618 134.293 68.5634C134.712 68.765 135.174 68.8606 135.638 68.8416L135.647 68.8328Z" fill="#C1C1C5"/>
<path fill-rule="evenodd" clip-rule="evenodd" d="M131.591 140.993C131.921 140.893 132.258 140.814 132.599 140.756C132.992 140.685 133.431 140.625 133.895 140.57C134.827 140.459 135.866 140.388 136.809 140.368C137.377 140.348 137.946 140.36 138.513 140.403C138.769 140.419 139.024 140.456 139.274 140.514C139.396 140.544 139.516 140.582 139.632 140.63C139.789 140.696 139.929 140.798 140.04 140.927C140.113 141.015 140.167 141.117 140.2 141.226C140.233 141.335 140.244 141.449 140.232 141.563C140.231 141.651 140.219 141.739 140.196 141.825C140.158 141.996 140.107 142.165 140.045 142.329C139.909 142.697 139.712 143.126 139.481 143.604C139.012 144.562 138.376 145.697 137.761 146.71C137.353 147.385 136.955 148.001 136.612 148.479C136.446 148.719 136.266 148.948 136.073 149.165C135.984 149.263 135.886 149.352 135.78 149.432C135.702 149.484 135.617 149.527 135.528 149.558C135.44 149.585 135.348 149.599 135.256 149.599C135.124 149.593 134.997 149.551 134.888 149.478C134.812 149.431 134.746 149.371 134.691 149.301C134.637 149.228 134.594 149.146 134.565 149.059C134.537 148.963 134.523 148.862 134.525 148.762V148.53C134.525 148.026 134.525 147.522 134.459 147.138C134.42 146.733 134.339 146.332 134.217 145.944C134.024 145.348 133.693 144.808 133.249 144.366C132.584 143.716 131.854 143.135 131.072 142.631C131.005 142.585 130.944 142.531 130.89 142.47C130.815 142.385 130.759 142.285 130.724 142.178C130.678 142.048 130.669 141.909 130.698 141.774C130.721 141.663 130.765 141.556 130.83 141.462C130.912 141.347 131.018 141.252 131.142 141.185C131.201 141.147 131.264 141.115 131.329 141.089C131.414 141.05 131.501 141.016 131.591 140.988V140.993Z" fill="#FC7415"/>
<path d="M137.544 143.515C97.5964 162.067 54.3868 155.675 40.0491 144.085C28.3279 134.592 23.0547 121.741 24.1385 109.128C25.772 90.041 41.9144 71.4938 72.0316 65.9482C113.616 58.2921 131.238 45.976 124.895 29" stroke="url(#paint0_linear)" stroke-width="3" stroke-linecap="round"/>
<path d="M243.199 22H150.53C148.581 22 147 23.5805 147 25.5302V160.933C147 162.883 148.581 164.463 150.53 164.463H243.199C245.149 164.463 246.73 162.883 246.73 160.933V25.5302C246.73 23.5805 245.149 22 243.199 22Z" fill="white" stroke="#979797"/>
<path d="M147.441 126.211H246.288V150.834H147.441V126.211Z" fill="#45A1FF"/>
<path d="M162.445 38.2656H234.815V46.1822H162.445V38.2656ZM162.445 60.2502H234.815V68.1668H162.445V60.2502ZM162.445 82.2349H234.815V90.1515H162.445V82.2349ZM162.445 104.22H234.815V112.136H162.445V104.22Z" fill="#D8D8D8"/>
<path d="M180.979 135.002H234.815V142.919H180.979V135.002Z" fill="white"/>
<path fill-rule="evenodd" clip-rule="evenodd" d="M200.527 154.763L202.169 153.881L203.59 153.148L201.33 148.912H205.152L195.108 138.877V152.963L198.038 150.13L200.527 154.763Z" fill="white"/>
<path fill-rule="evenodd" clip-rule="evenodd" d="M200.774 153.465L202.337 152.644L199.883 148.063H203.06L195.982 140.994V150.835L198.215 148.681L200.774 153.465Z" fill="black"/>
<path d="M169.903 134.613L164.757 131.727C164.575 131.627 164.37 131.575 164.162 131.575C163.954 131.575 163.749 131.627 163.566 131.727L158.421 134.613C158.233 134.719 158.077 134.873 157.969 135.059C157.86 135.245 157.803 135.457 157.803 135.672V141.444C157.8 141.66 157.856 141.873 157.965 142.059C158.074 142.246 158.231 142.399 158.421 142.503L163.566 145.389C163.747 145.493 163.953 145.547 164.162 145.547C164.371 145.547 164.576 145.493 164.757 145.389L169.903 142.503C170.091 142.398 170.247 142.244 170.356 142.058C170.464 141.872 170.521 141.66 170.521 141.444V135.716C170.526 135.494 170.472 135.274 170.363 135.08C170.255 134.885 170.096 134.724 169.903 134.613Z" fill="#20123A"/>
<path d="M160.565 140.132L160.247 140.308C160.192 140.338 160.143 140.38 160.104 140.429C160.064 140.478 160.035 140.535 160.018 140.596C160 140.657 159.996 140.72 160.003 140.783C160.011 140.846 160.031 140.906 160.062 140.961C160.104 141.036 160.166 141.099 160.24 141.142C160.314 141.186 160.399 141.208 160.485 141.208C160.569 141.209 160.651 141.188 160.724 141.147L161.033 140.97C161.15 140.908 161.237 140.802 161.276 140.675C161.315 140.549 161.302 140.412 161.24 140.295C161.178 140.178 161.072 140.09 160.945 140.051C160.819 140.012 160.682 140.025 160.565 140.087V140.132Z" fill="url(#paint1_linear)"/>
<path d="M162.445 139.008L161.819 139.37C161.731 139.423 161.663 139.504 161.625 139.6C161.587 139.695 161.581 139.801 161.608 139.9C161.635 139.999 161.693 140.087 161.774 140.151C161.855 140.214 161.954 140.25 162.057 140.252C162.138 140.254 162.217 140.232 162.286 140.19L162.922 139.837C163.039 139.774 163.126 139.667 163.164 139.54C163.202 139.412 163.188 139.275 163.125 139.158C163.062 139.041 162.955 138.954 162.827 138.916C162.7 138.877 162.562 138.892 162.445 138.955V139.008Z" fill="url(#paint2_linear)"/>
<path d="M165.004 138.126C164.948 138.026 164.857 137.951 164.748 137.915V134.261C164.748 134.134 164.698 134.011 164.609 133.921C164.52 133.83 164.399 133.778 164.272 133.775C164.143 133.775 164.02 133.827 163.929 133.918C163.838 134.009 163.786 134.132 163.786 134.261V137.915C163.678 137.951 163.586 138.026 163.53 138.126C163.495 138.402 163.495 138.681 163.53 138.956C163.586 139.056 163.678 139.132 163.786 139.168V142.822C163.786 142.95 163.838 143.074 163.929 143.165C164.02 143.256 164.143 143.307 164.272 143.307C164.399 143.305 164.52 143.253 164.609 143.162C164.698 143.071 164.748 142.949 164.748 142.822V139.168C164.873 139.028 164.961 138.86 165.006 138.679C165.05 138.497 165.05 138.308 165.004 138.126Z" fill="url(#paint3_linear)"/>
<path d="M166.24 136.875L165.614 137.228C165.557 137.258 165.507 137.3 165.467 137.35C165.427 137.4 165.397 137.458 165.38 137.519C165.363 137.581 165.358 137.646 165.366 137.71C165.375 137.773 165.396 137.835 165.428 137.89C165.472 137.963 165.535 138.023 165.609 138.065C165.683 138.106 165.767 138.128 165.852 138.128C165.933 138.13 166.012 138.108 166.081 138.066L166.717 137.713C166.78 137.687 166.836 137.647 166.883 137.597C166.929 137.546 166.965 137.487 166.987 137.422C167.009 137.357 167.017 137.289 167.01 137.22C167.004 137.152 166.983 137.086 166.949 137.027C166.915 136.967 166.869 136.916 166.814 136.875C166.759 136.835 166.696 136.806 166.629 136.792C166.562 136.778 166.492 136.778 166.426 136.792C166.359 136.806 166.295 136.835 166.24 136.875Z" fill="url(#paint4_linear)"/>
<path d="M167.74 137.061C167.824 137.062 167.906 137.041 167.978 136.999L168.296 136.823C168.407 136.758 168.488 136.652 168.521 136.528C168.554 136.404 168.537 136.272 168.473 136.161C168.441 136.106 168.4 136.058 168.35 136.02C168.3 135.981 168.243 135.953 168.183 135.936C168.122 135.92 168.059 135.916 167.996 135.924C167.934 135.932 167.874 135.953 167.819 135.984L167.502 136.161C167.447 136.192 167.399 136.233 167.361 136.283C167.322 136.333 167.294 136.39 167.277 136.45C167.261 136.511 167.257 136.575 167.265 136.637C167.273 136.699 167.294 136.759 167.325 136.814C167.365 136.889 167.425 136.951 167.498 136.995C167.571 137.039 167.655 137.061 167.74 137.061Z" fill="url(#paint5_linear)"/>
<path d="M168.297 140.263L167.979 140.087C167.924 140.055 167.864 140.035 167.802 140.027C167.74 140.018 167.676 140.023 167.616 140.039C167.555 140.055 167.498 140.084 167.448 140.122C167.399 140.161 167.357 140.209 167.326 140.263C167.262 140.374 167.244 140.507 167.277 140.631C167.31 140.755 167.391 140.861 167.502 140.925L167.82 141.102C167.892 141.144 167.975 141.165 168.058 141.163C168.143 141.164 168.227 141.141 168.3 141.098C168.373 141.054 168.433 140.991 168.473 140.916C168.505 140.862 168.525 140.802 168.533 140.739C168.542 140.677 168.537 140.614 168.521 140.553C168.504 140.492 168.476 140.435 168.438 140.386C168.399 140.336 168.351 140.294 168.297 140.263Z" fill="url(#paint6_linear)"/>
<path d="M166.717 139.371L166.081 139.009C165.97 138.949 165.839 138.934 165.717 138.969C165.595 139.003 165.491 139.084 165.428 139.194C165.397 139.25 165.377 139.311 165.369 139.375C165.362 139.438 165.366 139.502 165.384 139.564C165.401 139.625 165.43 139.683 165.47 139.733C165.509 139.783 165.558 139.825 165.614 139.856L166.24 140.209C166.313 140.251 166.395 140.272 166.479 140.271C166.581 140.269 166.681 140.233 166.762 140.17C166.843 140.106 166.901 140.018 166.928 139.919C166.954 139.82 166.948 139.714 166.91 139.619C166.872 139.523 166.805 139.442 166.717 139.389V139.371Z" fill="url(#paint7_linear)"/>
<path d="M161.827 137.712L162.454 138.065C162.527 138.106 162.609 138.127 162.692 138.126C162.795 138.124 162.894 138.088 162.975 138.025C163.056 137.962 163.115 137.874 163.141 137.774C163.168 137.675 163.162 137.57 163.124 137.474C163.086 137.378 163.018 137.298 162.931 137.244L162.295 136.891C162.24 136.86 162.18 136.841 162.117 136.833C162.054 136.826 161.991 136.831 161.93 136.848C161.87 136.866 161.813 136.895 161.764 136.934C161.714 136.973 161.673 137.021 161.642 137.076C161.611 137.131 161.592 137.192 161.585 137.254C161.577 137.317 161.582 137.381 161.6 137.441C161.617 137.502 161.646 137.558 161.685 137.608C161.724 137.657 161.772 137.699 161.827 137.729V137.712Z" fill="url(#paint8_linear)"/>
<path d="M161.033 136.159L160.724 135.982C160.669 135.942 160.606 135.914 160.539 135.899C160.472 135.885 160.403 135.885 160.336 135.899C160.269 135.914 160.206 135.942 160.151 135.983C160.096 136.023 160.049 136.075 160.016 136.134C159.982 136.194 159.961 136.26 159.954 136.328C159.948 136.396 159.956 136.465 159.978 136.53C160 136.594 160.035 136.654 160.082 136.704C160.128 136.754 160.185 136.794 160.248 136.821L160.565 136.997C160.634 137.039 160.714 137.061 160.795 137.059C160.881 137.059 160.966 137.036 161.04 136.993C161.115 136.95 161.176 136.887 161.219 136.812C161.25 136.757 161.27 136.696 161.277 136.634C161.285 136.571 161.28 136.507 161.263 136.447C161.245 136.386 161.216 136.329 161.177 136.28C161.137 136.23 161.089 136.189 161.033 136.159Z" fill="url(#paint9_linear)"/>
<defs>
<linearGradient id="paint0_linear" x1="79.4247" y1="150.06" x2="95.7849" y2="27.1765" gradientUnits="userSpaceOnUse">
<stop stop-color="#FF9100"/>
<stop offset="0.52" stop-color="#F10366"/>
<stop offset="1" stop-color="#6173FF"/>
</linearGradient>
<linearGradient id="paint1_linear" x1="159.815" y1="140.591" x2="168.808" y2="140.591" gradientUnits="userSpaceOnUse">
<stop stop-color="#9059FF"/>
<stop offset="1" stop-color="#F770FF"/>
</linearGradient>
<linearGradient id="paint2_linear" x1="599.861" y1="465.296" x2="616.1" y2="465.296" gradientUnits="userSpaceOnUse">
<stop stop-color="#9059FF"/>
<stop offset="1" stop-color="#F770FF"/>
</linearGradient>
<linearGradient id="paint3_linear" x1="585.566" y1="2413.75" x2="601.204" y2="2413.75" gradientUnits="userSpaceOnUse">
<stop stop-color="#9059FF"/>
<stop offset="1" stop-color="#F770FF"/>
</linearGradient>
<linearGradient id="paint4_linear" x1="619.145" y1="457.358" x2="635.959" y2="457.358" gradientUnits="userSpaceOnUse">
<stop stop-color="#9059FF"/>
<stop offset="1" stop-color="#F770FF"/>
</linearGradient>
<linearGradient id="paint5_linear" x1="518.294" y1="406.198" x2="531.3" y2="406.198" gradientUnits="userSpaceOnUse">
<stop stop-color="#9059FF"/>
<stop offset="1" stop-color="#F770FF"/>
</linearGradient>
<linearGradient id="paint6_linear" x1="159.815" y1="140.59" x2="168.809" y2="140.59" gradientUnits="userSpaceOnUse">
<stop stop-color="#9059FF"/>
<stop offset="1" stop-color="#F770FF"/>
</linearGradient>
<linearGradient id="paint7_linear" x1="599.448" y1="456.536" x2="615.531" y2="456.536" gradientUnits="userSpaceOnUse">
<stop stop-color="#9059FF"/>
<stop offset="1" stop-color="#F770FF"/>
</linearGradient>
<linearGradient id="paint8_linear" x1="595.16" y1="445.367" x2="611.225" y2="445.367" gradientUnits="userSpaceOnUse">
<stop stop-color="#9059FF"/>
<stop offset="1" stop-color="#F770FF"/>
</linearGradient>
<linearGradient id="paint9_linear" x1="525.287" y1="413.149" x2="538.824" y2="413.149" gradientUnits="userSpaceOnUse">
<stop stop-color="#9059FF"/>
<stop offset="1" stop-color="#F770FF"/>
</linearGradient>
</defs>
</svg>
