<svg width="85" height="171" viewBox="0 0 85 171" fill="none" xmlns="http://www.w3.org/2000/svg">
<g clip-path="url(#clip0_933_521)">
<path d="M85.3001 40.6526H84.3602V14.9031C84.3602 10.9506 82.79 7.15993 79.9952 4.36504C77.2003 1.57016 73.4096 1.05267e-05 69.4571 0H14.9032C12.9461 -5.64659e-06 11.0081 0.38547 9.19998 1.13442C7.39185 1.88336 5.74895 2.98112 4.36506 4.36499C2.98117 5.74887 1.8834 7.39178 1.13445 9.19991C0.38549 11.008 5.21228e-06 12.946 0 14.9031V14.9031V156.167C-1.75445e-06 160.12 1.57014 163.91 4.36502 166.705C7.1599 169.5 10.9506 171.07 14.9031 171.07H69.457C73.4095 171.07 77.2002 169.5 79.9951 166.705C82.79 163.91 84.3601 160.12 84.3602 156.167V58.9816H85.3001V40.6526Z" fill="black"/>
<path d="M81.1863 15.0066V156.064C81.1865 157.525 80.8989 158.972 80.3399 160.322C79.7808 161.672 78.9614 162.899 77.9283 163.932C76.8952 164.966 75.6686 165.785 74.3187 166.345C72.9687 166.904 71.5218 167.192 70.0606 167.192H15.2402C12.2888 167.192 9.45833 166.02 7.37132 163.933C5.2843 161.847 4.11175 159.016 4.1116 156.065V15.0066C4.11152 13.5453 4.39927 12.0982 4.95843 10.748C5.51759 9.3979 6.3372 8.1711 7.37048 7.13771C8.40375 6.10432 9.63046 5.28456 10.9805 4.72524C12.3306 4.16593 13.7777 3.87801 15.239 3.87793H21.893C21.5654 4.68073 21.4402 5.55177 21.5286 6.41433C21.6169 7.27689 21.9161 8.10448 22.3997 8.82418C22.8832 9.54388 23.5364 10.1336 24.3016 10.5414C25.0668 10.9492 25.9205 11.1625 26.7876 11.1626H58.0421C58.909 11.1619 59.7624 10.9482 60.5273 10.5403C61.2922 10.1324 61.9451 9.54269 62.4285 8.82316C62.912 8.10363 63.2112 7.2763 63.2998 6.41397C63.3884 5.55164 63.2637 4.68075 62.9367 3.87793H70.0577C71.5191 3.87786 72.9661 4.16563 74.3163 4.7248C75.6664 5.28397 76.8932 6.1036 77.9266 7.13689C78.96 8.17017 79.7797 9.39688 80.339 10.747C80.8983 12.0971 81.1862 13.5441 81.1863 15.0055V15.0055L81.1863 15.0066Z" fill="#F2F2F2"/>
<path d="M71.4486 56.5605H48.6004C45.3599 56.5605 42.7329 59.1875 42.7329 62.4281V66.9925C42.7329 70.2331 45.3599 72.8601 48.6004 72.8601H71.4486C74.6892 72.8601 77.3162 70.2331 77.3162 66.9925V62.4281C77.3162 59.1875 74.6892 56.5605 71.4486 56.5605Z" fill="#CECECF"/>
<path d="M70.8515 71.9327C70.7806 72.0699 71.9489 72.8598 71.9489 72.8598L76.414 76.9773C76.414 76.9773 77.5397 77.429 77.2772 76.2015L75.7092 69.3029C75.7092 69.3029 72.3178 69.1302 70.8515 71.9327V71.9327Z" fill="#CECECF"/>
<path d="M54.4417 63.6386C54.4417 63.6386 55.1725 63.3051 55.7779 63.7544C56.3668 64.192 56.4141 64.7099 56.3763 65.0481C56.3384 65.3863 56.0002 65.8971 55.4492 66.1502C54.8485 66.4269 54.2667 66.4931 53.7843 65.8333C53.3018 65.1758 53.4248 64.6555 53.5194 64.4474C53.6494 64.1636 54.0751 63.7568 54.4394 63.6409L54.4417 63.6386Z" fill="black"/>
<path d="M58.2217 64.6866C58.2217 64.6866 58.2974 63.8872 58.988 63.5845C59.6596 63.2913 60.135 63.5112 60.407 63.7122C60.679 63.9133 60.9557 64.4619 60.8989 65.065C60.8374 65.7225 60.6056 66.2593 59.7944 66.3492C58.9833 66.4391 58.5954 66.0749 58.4606 65.8857C58.2785 65.6326 58.139 65.0603 58.2194 64.6866H58.2217Z" fill="black"/>
<path d="M63.1029 64.0979C63.1029 64.0979 63.5381 63.4215 64.2901 63.4736C65.0209 63.5232 65.3425 63.9347 65.4915 64.2375C65.6429 64.5402 65.6334 65.1551 65.3071 65.6659C64.95 66.2217 64.4982 66.593 63.7344 66.2997C62.9728 66.0065 62.7955 65.5051 62.7623 65.2757C62.7174 64.9659 62.8569 64.3935 63.1005 64.1003L63.1029 64.0979Z" fill="black"/>
<path d="M71.4486 95.5566H48.6004C45.3599 95.5566 42.7329 98.1836 42.7329 101.424V105.989C42.7329 109.229 45.3599 111.856 48.6004 111.856H71.4486C74.6892 111.856 77.3162 109.229 77.3162 105.989V101.424C77.3162 98.1836 74.6892 95.5566 71.4486 95.5566Z" fill="#CECECF"/>
<path d="M70.8515 110.929C70.7806 111.066 71.9489 111.856 71.9489 111.856L76.414 115.973C76.414 115.973 77.5397 116.425 77.2772 115.198L75.7092 108.299C75.7092 108.299 72.3178 108.126 70.8515 110.929V110.929Z" fill="#CECECF"/>
<path d="M54.4417 102.635C54.4417 102.635 55.1725 102.301 55.7779 102.751C56.3668 103.188 56.4141 103.706 56.3763 104.044C56.3384 104.382 56.0002 104.893 55.4492 105.146C54.8485 105.423 54.2667 105.489 53.7843 104.829C53.3018 104.172 53.4248 103.652 53.5194 103.443C53.6494 103.16 54.0751 102.753 54.4394 102.637L54.4417 102.635Z" fill="black"/>
<path d="M58.2217 103.683C58.2217 103.683 58.2974 102.883 58.988 102.581C59.6596 102.287 60.135 102.507 60.407 102.708C60.679 102.909 60.9557 103.458 60.8989 104.061C60.8374 104.719 60.6056 105.255 59.7944 105.345C58.9833 105.435 58.5954 105.071 58.4606 104.882C58.2785 104.629 58.139 104.056 58.2194 103.683H58.2217Z" fill="black"/>
<path d="M63.1029 103.094C63.1029 103.094 63.5381 102.418 64.2901 102.47C65.0209 102.519 65.3425 102.931 65.4915 103.234C65.6429 103.536 65.6334 104.151 65.3071 104.662C64.95 105.218 64.4982 105.589 63.7344 105.296C62.9728 105.003 62.7955 104.501 62.7623 104.272C62.7174 103.962 62.8569 103.39 63.1005 103.096L63.1029 103.094Z" fill="black"/>
<path d="M71.4486 14.5771H48.6004C45.3599 14.5771 42.7329 17.2041 42.7329 20.4447V25.0091C42.7329 28.2497 45.3599 30.8767 48.6004 30.8767H71.4486C74.6892 30.8767 77.3162 28.2497 77.3162 25.0091V20.4447C77.3162 17.2041 74.6892 14.5771 71.4486 14.5771Z" fill="#CECECF"/>
<path d="M70.8515 29.9493C70.7806 30.0865 71.9489 30.8764 71.9489 30.8764L76.414 34.9939C76.414 34.9939 77.5397 35.4456 77.2772 34.2181L75.7092 27.3195C75.7092 27.3195 72.3178 27.1468 70.8515 29.9493V29.9493Z" fill="#CECECF"/>
<path d="M54.4417 21.6552C54.4417 21.6552 55.1725 21.3217 55.7779 21.771C56.3668 22.2086 56.4141 22.7265 56.3763 23.0647C56.3384 23.4029 56.0002 23.9137 55.4492 24.1668C54.8485 24.4435 54.2667 24.5097 53.7843 23.8499C53.3018 23.1924 53.4248 22.6721 53.5194 22.464C53.6494 22.1802 54.0751 21.7734 54.4394 21.6575L54.4417 21.6552Z" fill="black"/>
<path d="M58.2217 22.7032C58.2217 22.7032 58.2974 21.9038 58.988 21.6011C59.6596 21.3079 60.135 21.5278 60.407 21.7288C60.679 21.9299 60.9557 22.4785 60.8989 23.0816C60.8374 23.7391 60.6056 24.2759 59.7944 24.3658C58.9833 24.4557 58.5954 24.0915 58.4606 23.9023C58.2785 23.6492 58.139 23.0769 58.2194 22.7032H58.2217Z" fill="black"/>
<path d="M63.1029 22.1145C63.1029 22.1145 63.5381 21.4381 64.2901 21.4902C65.0209 21.5398 65.3425 21.9513 65.4915 22.2541C65.6429 22.5568 65.6334 23.1717 65.3071 23.6825C64.95 24.2383 64.4982 24.6096 63.7344 24.3163C62.9728 24.0231 62.7955 23.5217 62.7623 23.2923C62.7174 22.9825 62.8569 22.4101 63.1005 22.1169L63.1029 22.1145Z" fill="black"/>
<path d="M14.1971 33.8193H37.0453C40.2859 33.8193 42.9129 36.4463 42.9129 39.6869V44.2513C42.9129 47.4919 40.2859 50.1189 37.0453 50.1189H14.1971C10.9566 50.1189 8.32957 47.4919 8.32957 44.2513V39.6869C8.32957 36.4463 10.9566 33.8193 14.1971 33.8193Z" fill="#9E9E9E"/>
<path d="M14.7953 49.1915C14.8663 49.3287 13.698 50.1186 13.698 50.1186L9.23286 54.2361C9.23286 54.2361 8.10713 54.6878 8.36964 53.4603L9.93764 46.5616C9.93764 46.5616 13.329 46.389 14.7953 49.1915V49.1915Z" fill="#9E9E9E"/>
<path d="M31.204 40.8974C31.204 40.8974 30.4733 40.5639 29.8678 41.0132C29.2789 41.4508 29.2316 41.9687 29.2695 42.3069C29.3073 42.6451 29.6455 43.1559 30.1965 43.409C30.7973 43.6857 31.379 43.7519 31.8615 43.0921C32.344 42.4346 32.221 41.9143 32.1264 41.7062C31.9963 41.4224 31.5706 41.0156 31.2064 40.8997L31.204 40.8974Z" fill="black"/>
<path d="M27.424 41.9454C27.424 41.9454 27.3483 41.146 26.6578 40.8433C25.9861 40.55 25.5107 40.77 25.2388 40.971C24.9668 41.172 24.6901 41.7207 24.7468 42.3238C24.8083 42.9813 25.0401 43.5181 25.8513 43.608C26.6625 43.6979 27.0503 43.3337 27.1851 43.1445C27.3673 42.8914 27.5068 42.3191 27.4264 41.9454H27.424Z" fill="black"/>
<path d="M22.544 41.3567C22.544 41.3567 22.1088 40.6803 21.3567 40.7323C20.626 40.782 20.3043 41.1935 20.1553 41.4962C20.004 41.799 20.0134 42.4139 20.3398 42.9247C20.6969 43.4805 21.1486 43.8518 21.9125 43.5585C22.674 43.2653 22.8514 42.7639 22.8845 42.5345C22.9295 42.2247 22.7899 41.6523 22.5463 41.3591L22.544 41.3567Z" fill="black"/>
<path d="M14.1971 119H37.0453C40.2859 119 42.9129 121.627 42.9129 124.868V129.432C42.9129 132.673 40.2859 135.3 37.0453 135.3H14.1971C10.9566 135.3 8.32957 132.673 8.32957 129.432V124.868C8.32957 121.627 10.9566 119 14.1971 119Z" fill="#9E9E9E"/>
<path d="M14.7953 134.372C14.8663 134.509 13.698 135.299 13.698 135.299L9.23286 139.417C9.23286 139.417 8.10713 139.868 8.36964 138.641L9.93764 131.742C9.93764 131.742 13.329 131.57 14.7953 134.372V134.372Z" fill="#9E9E9E"/>
<path d="M31.204 126.078C31.204 126.078 30.4733 125.745 29.8678 126.194C29.2789 126.631 29.2316 127.149 29.2695 127.488C29.3073 127.826 29.6455 128.337 30.1965 128.59C30.7973 128.866 31.379 128.933 31.8615 128.273C32.344 127.615 32.221 127.095 32.1264 126.887C31.9963 126.603 31.5706 126.196 31.2064 126.08L31.204 126.078Z" fill="black"/>
<path d="M27.424 127.126C27.424 127.126 27.3483 126.327 26.6578 126.024C25.9861 125.731 25.5107 125.951 25.2388 126.152C24.9668 126.353 24.6901 126.901 24.7468 127.504C24.8083 128.162 25.0401 128.699 25.8513 128.789C26.6625 128.879 27.0503 128.514 27.1851 128.325C27.3673 128.072 27.5068 127.5 27.4264 127.126H27.424Z" fill="black"/>
<path d="M22.544 126.537C22.544 126.537 22.1088 125.861 21.3567 125.913C20.626 125.963 20.3043 126.374 20.1553 126.677C20.004 126.98 20.0134 127.595 20.3398 128.105C20.6969 128.661 21.1486 129.032 21.9125 128.739C22.674 128.446 22.8514 127.945 22.8845 127.715C22.9295 127.405 22.7899 126.833 22.5463 126.54L22.544 126.537Z" fill="black"/>
<path d="M14.1971 75.0244H37.0453C40.2859 75.0244 42.9129 77.6514 42.9129 80.892V85.4564C42.9129 88.697 40.2859 91.3239 37.0453 91.3239H14.1971C10.9566 91.3239 8.32957 88.697 8.32957 85.4564V80.892C8.32957 77.6514 10.9566 75.0244 14.1971 75.0244Z" fill="#9E9E9E"/>
<path d="M14.7953 90.3966C14.8663 90.5338 13.698 91.3237 13.698 91.3237L9.23286 95.4411C9.23286 95.4411 8.10713 95.8928 8.36964 94.6654L9.93764 87.7667C9.93764 87.7667 13.329 87.5941 14.7953 90.3966V90.3966Z" fill="#9E9E9E"/>
<path d="M31.204 82.1024C31.204 82.1024 30.4733 81.769 29.8678 82.2183C29.2789 82.6558 29.2316 83.1738 29.2695 83.512C29.3073 83.8502 29.6455 84.361 30.1965 84.6141C30.7973 84.8908 31.379 84.957 31.8615 84.2971C32.344 83.6397 32.221 83.1194 32.1264 82.9113C31.9963 82.6275 31.5706 82.2207 31.2064 82.1048L31.204 82.1024Z" fill="black"/>
<path d="M27.424 83.1505C27.424 83.1505 27.3483 82.3511 26.6578 82.0484C25.9861 81.7551 25.5107 81.9751 25.2388 82.1761C24.9668 82.3771 24.6901 82.9258 24.7468 83.5289C24.8083 84.1864 25.0401 84.7232 25.8513 84.8131C26.6625 84.9029 27.0503 84.5387 27.1851 84.3495C27.3673 84.0965 27.5068 83.5241 27.4264 83.1505H27.424Z" fill="black"/>
<path d="M22.544 82.5618C22.544 82.5618 22.1088 81.8854 21.3567 81.9374C20.626 81.9871 20.3043 82.3986 20.1553 82.7013C20.004 83.004 20.0134 83.6189 20.3398 84.1298C20.6969 84.6855 21.1486 85.0568 21.9125 84.7636C22.674 84.4703 22.8514 83.9689 22.8845 83.7395C22.9295 83.4297 22.7899 82.8574 22.5463 82.5641L22.544 82.5618Z" fill="black"/>
<path d="M27.724 7.73814C28.5648 7.73814 29.2464 7.05654 29.2464 6.21575C29.2464 5.37496 28.5648 4.69336 27.724 4.69336C26.8832 4.69336 26.2016 5.37496 26.2016 6.21575C26.2016 7.05654 26.8832 7.73814 27.724 7.73814Z" fill="black"/>
<g clip-path="url(#clip1_933_521)">
<path d="M64.0995 30.7083C64.0995 28.3951 64.0138 25.8247 64.0138 22.9117C64.0138 21.7122 63.157 20.6841 61.9575 20.4271L42.1661 17H41.3093L21.5179 20.4271C20.3185 20.6841 19.376 21.7122 19.4617 22.9117C19.4617 25.8247 19.4617 28.3951 19.376 30.7083C19.2903 34.8208 19.2903 37.8195 19.4617 39.6187C20.5755 51.4422 23.0601 56.9255 27.344 62.7516C30.7711 67.3781 35.7403 70.5482 41.3093 71.7477C41.4807 71.7477 41.6521 71.8333 41.8234 71.8333C41.9948 71.8333 42.1661 71.8333 42.3375 71.7477C47.9065 70.5482 52.8757 67.3781 56.3028 62.7516C60.5867 56.9255 63.0713 51.5279 64.0995 39.6187C64.1851 37.7339 64.1851 34.8208 64.0995 30.7083V30.7083Z" fill="#7638E9"/>
<path d="M41.3093 17.0857L21.5179 20.5128C20.3185 20.6841 19.4617 21.7122 19.4617 22.9117C19.4617 25.8247 19.376 28.3951 19.376 30.7083C19.2903 34.8208 19.2903 37.8195 19.4617 39.6187C20.5755 51.5279 23.0601 56.9255 27.2583 62.7516C30.6854 67.3781 35.6547 70.5482 41.2237 71.7477C41.395 71.7477 41.5664 71.8333 41.7377 71.8333V17C41.5664 17 41.4807 17 41.3093 17.0857V17.0857Z" fill="#7638E9"/>
<path d="M41.395 20.8552L24.7736 23.6826C23.7455 23.8539 23.0601 24.7107 23.0601 25.7388C23.0601 28.2234 23.0601 30.3654 22.9744 32.2503C22.8887 35.6773 22.8887 38.2477 23.0601 39.7042C23.9168 49.6427 26.0588 54.2693 29.5715 59.1529C32.3989 63.0083 36.5971 65.75 41.3093 66.6924H41.7377V20.7695C41.652 20.7695 41.4806 20.7695 41.395 20.8552Z" fill="#7638E9"/>
<path d="M60.5011 32.2505C60.5011 30.3656 60.4154 28.138 60.4154 25.7391C60.4154 24.7109 59.73 23.8542 58.7019 23.6828L42.0805 20.8555H41.7378V66.7784H42.1662C46.8784 65.7503 51.0766 63.0943 53.9039 59.1531C57.5024 54.2695 59.5586 49.7286 60.5011 39.7044C60.5868 38.2479 60.5868 35.7633 60.5011 32.2505V32.2505Z" fill="#DABDFF"/>
<path d="M64.0995 30.7083C64.0995 28.3951 64.0138 25.8247 64.0138 22.9117C64.0138 21.7122 63.157 20.6841 61.9575 20.4271L42.1661 17H41.3093L21.5179 20.4271C20.3185 20.6841 19.376 21.7122 19.4617 22.9117C19.4617 25.8247 19.4617 28.3951 19.376 30.7083C19.2903 34.8208 19.2903 37.8195 19.4617 39.6187C20.5755 51.4422 23.0601 56.9255 27.344 62.7516C30.7711 67.3781 35.7403 70.5482 41.3093 71.7477C41.4807 71.7477 41.6521 71.8333 41.8234 71.8333C41.9948 71.8333 42.1661 71.8333 42.3375 71.7477C47.9065 70.5482 52.8757 67.3781 56.3028 62.7516C60.5867 56.9255 63.0713 51.5279 64.0995 39.6187C64.1851 37.7339 64.1851 34.8208 64.0995 30.7083V30.7083Z" fill="#8F59FF"/>
<path d="M41.3093 17.0857L21.5179 20.5128C20.3185 20.6841 19.4617 21.7122 19.4617 22.9117C19.4617 25.8247 19.376 28.3951 19.376 30.7083C19.2903 34.8208 19.2903 37.8195 19.4617 39.6187C20.5755 51.5279 23.0601 56.9255 27.2583 62.7516C30.6854 67.3781 35.6547 70.5482 41.2237 71.7477C41.395 71.7477 41.5664 71.8333 41.7377 71.8333V17C41.5664 17 41.4807 17 41.3093 17.0857V17.0857Z" fill="#592ACA"/>
<path d="M41.395 20.8552L24.7736 23.6826C23.7455 23.8539 23.0601 24.7107 23.0601 25.7388C23.0601 28.2234 23.0601 30.3654 22.9744 32.2503C22.8887 35.6773 22.8887 38.2477 23.0601 39.7042C23.9168 49.6427 26.0588 54.2693 29.5715 59.1529C32.3989 63.0083 36.5971 65.75 41.3093 66.6924H41.7377V20.7695C41.652 20.7695 41.4806 20.7695 41.395 20.8552Z" fill="#7542E4"/>
<path d="M60.5011 32.2505C60.5011 30.3656 60.4154 28.138 60.4154 25.7391C60.4154 24.7109 59.73 23.8542 58.7019 23.6828L42.0805 20.8555H41.7378V66.7784H42.1662C46.8784 65.7503 51.0766 63.0943 53.9039 59.1531C57.5024 54.2695 59.5586 49.7286 60.5011 39.7044C60.5868 38.2479 60.5868 35.7633 60.5011 32.2505V32.2505Z" fill="#DABDFF"/>
</g>
</g>
<defs>
<clipPath id="clip0_933_521">
<rect width="85" height="171" fill="white"/>
</clipPath>
<clipPath id="clip1_933_521">
<rect width="54.8333" height="54.8333" fill="white" transform="translate(14.0641 17)"/>
</clipPath>
</defs>
</svg>
