<svg width="87" height="102" viewBox="0 0 87 102" fill="none" xmlns="http://www.w3.org/2000/svg">
<g clip-path="url(#clip0_932_478)">
<path d="M86.8821 40.6526H85.9422V14.9031C85.9422 10.9506 84.3721 7.15993 81.5772 4.36504C78.7823 1.57016 74.9917 1.05267e-05 71.0391 0H16.4852C14.5281 -5.64659e-06 12.5901 0.38547 10.782 1.13442C8.97388 1.88336 7.33098 2.98112 5.94709 4.36499C4.5632 5.74887 3.46544 7.39178 2.71648 9.19991C1.96752 11.008 1.58204 12.946 1.58203 14.9031V14.9031V156.167C1.58203 160.12 3.15217 163.91 5.94705 166.705C8.74193 169.5 12.5326 171.07 16.4852 171.07H71.039C74.9916 171.07 78.7822 169.5 81.5771 166.705C84.372 163.91 85.9422 160.12 85.9422 156.167V58.9816H86.8821V40.6526Z" fill="black"/>
<path d="M82.7683 15.0066V156.064C82.7685 157.525 82.4809 158.972 81.9219 160.322C81.3629 161.672 80.5434 162.899 79.5103 163.932C78.4772 164.966 77.2506 165.785 75.9007 166.345C74.5508 166.904 73.1039 167.192 71.6426 167.192H16.8222C13.8709 167.192 11.0404 166.02 8.95335 163.933C6.86634 161.847 5.69378 159.016 5.69363 156.065V15.0066C5.69355 13.5453 5.9813 12.0982 6.54046 10.748C7.09962 9.3979 7.91923 8.1711 8.95251 7.13771C9.98579 6.10432 11.2125 5.28456 12.5626 4.72524C13.9127 4.16593 15.3597 3.87801 16.821 3.87793H23.475C23.1474 4.68073 23.0223 5.55177 23.1106 6.41433C23.199 7.27689 23.4981 8.10448 23.9817 8.82418C24.4653 9.54388 25.1184 10.1336 25.8836 10.5414C26.6488 10.9492 27.5026 11.1625 28.3696 11.1626H59.6241C60.491 11.1619 61.3444 10.9482 62.1093 10.5403C62.8742 10.1324 63.5271 9.54269 64.0106 8.82316C64.494 8.10363 64.7932 7.2763 64.8818 6.41397C64.9705 5.55164 64.8458 4.68075 64.5188 3.87793H71.6397C73.1011 3.87786 74.5481 4.16563 75.8983 4.7248C77.2484 5.28397 78.4752 6.1036 79.5086 7.13689C80.542 8.17017 81.3617 9.39688 81.921 10.747C82.4803 12.0971 82.7682 13.5441 82.7683 15.0055V15.0055L82.7683 15.0066Z" fill="#F2F2F2"/>
<path d="M73.0307 56.5605H50.1825C46.9419 56.5605 44.3149 59.1875 44.3149 62.4281V66.9925C44.3149 70.2331 46.9419 72.8601 50.1825 72.8601H73.0307C76.2712 72.8601 78.8982 70.2331 78.8982 66.9925V62.4281C78.8982 59.1875 76.2712 56.5605 73.0307 56.5605Z" fill="#CECECF"/>
<path d="M72.4336 71.9327C72.3626 72.0699 73.5309 72.8598 73.5309 72.8598L77.996 76.9773C77.996 76.9773 79.1218 77.429 78.8592 76.2015L77.2912 69.3029C77.2912 69.3029 73.8999 69.1302 72.4336 71.9327V71.9327Z" fill="#CECECF"/>
<path d="M56.0237 63.6386C56.0237 63.6386 56.7545 63.3051 57.36 63.7544C57.9489 64.192 57.9962 64.7099 57.9583 65.0481C57.9205 65.3863 57.5823 65.8971 57.0312 66.1502C56.4305 66.4269 55.8487 66.4931 55.3663 65.8333C54.8838 65.1758 55.0068 64.6555 55.1014 64.4474C55.2315 64.1636 55.6572 63.7568 56.0214 63.6409L56.0237 63.6386Z" fill="black"/>
<path d="M59.8038 64.6866C59.8038 64.6866 59.8795 63.8872 60.57 63.5845C61.2417 63.2913 61.7171 63.5112 61.989 63.7122C62.261 63.9133 62.5377 64.4619 62.4809 65.065C62.4195 65.7225 62.1877 66.2593 61.3765 66.3492C60.5653 66.4391 60.1774 66.0749 60.0426 65.8857C59.8605 65.6326 59.721 65.0603 59.8014 64.6866H59.8038Z" fill="black"/>
<path d="M64.6849 64.0979C64.6849 64.0979 65.1201 63.4215 65.8722 63.4736C66.603 63.5232 66.9246 63.9347 67.0736 64.2375C67.2249 64.5402 67.2155 65.1551 66.8891 65.6659C66.532 66.2217 66.0803 66.593 65.3164 66.2997C64.5549 66.0065 64.3775 65.5051 64.3444 65.2757C64.2995 64.9659 64.439 64.3935 64.6826 64.1003L64.6849 64.0979Z" fill="black"/>
<path d="M73.0307 95.5566H50.1825C46.9419 95.5566 44.3149 98.1836 44.3149 101.424V105.989C44.3149 109.229 46.9419 111.856 50.1825 111.856H73.0307C76.2712 111.856 78.8982 109.229 78.8982 105.989V101.424C78.8982 98.1836 76.2712 95.5566 73.0307 95.5566Z" fill="#CECECF"/>
<path d="M73.0307 14.5771H50.1825C46.9419 14.5771 44.3149 17.2041 44.3149 20.4447V25.0091C44.3149 28.2497 46.9419 30.8767 50.1825 30.8767H73.0307C76.2712 30.8767 78.8982 28.2497 78.8982 25.0091V20.4447C78.8982 17.2041 76.2712 14.5771 73.0307 14.5771Z" fill="#CECECF"/>
<path d="M72.4336 29.9493C72.3626 30.0865 73.5309 30.8764 73.5309 30.8764L77.996 34.9939C77.996 34.9939 79.1218 35.4456 78.8592 34.2181L77.2912 27.3195C77.2912 27.3195 73.8999 27.1468 72.4336 29.9493V29.9493Z" fill="#CECECF"/>
<path d="M56.0237 21.6552C56.0237 21.6552 56.7545 21.3217 57.36 21.771C57.9489 22.2086 57.9962 22.7265 57.9583 23.0647C57.9205 23.4029 57.5823 23.9137 57.0312 24.1668C56.4305 24.4435 55.8487 24.5097 55.3663 23.8499C54.8838 23.1924 55.0068 22.6721 55.1014 22.464C55.2315 22.1802 55.6572 21.7734 56.0214 21.6575L56.0237 21.6552Z" fill="black"/>
<path d="M59.8038 22.7032C59.8038 22.7032 59.8795 21.9038 60.57 21.6011C61.2417 21.3079 61.7171 21.5278 61.989 21.7288C62.261 21.9299 62.5377 22.4785 62.4809 23.0816C62.4195 23.7391 62.1877 24.2759 61.3765 24.3658C60.5653 24.4557 60.1774 24.0915 60.0426 23.9023C59.8605 23.6492 59.721 23.0769 59.8014 22.7032H59.8038Z" fill="black"/>
<path d="M64.6849 22.1145C64.6849 22.1145 65.1201 21.4381 65.8722 21.4902C66.603 21.5398 66.9246 21.9513 67.0736 22.2541C67.2249 22.5568 67.2155 23.1717 66.8891 23.6825C66.532 24.2383 66.0803 24.6096 65.3164 24.3163C64.5549 24.0231 64.3775 23.5217 64.3444 23.2923C64.2995 22.9825 64.439 22.4101 64.6826 22.1169L64.6849 22.1145Z" fill="black"/>
<path d="M15.7792 33.8193H38.6274C41.8679 33.8193 44.4949 36.4463 44.4949 39.6869V44.2513C44.4949 47.4919 41.8679 50.1189 38.6274 50.1189H15.7792C12.5386 50.1189 9.9116 47.4919 9.9116 44.2513V39.6869C9.9116 36.4463 12.5386 33.8193 15.7792 33.8193Z" fill="#9E9E9E"/>
<path d="M16.3774 49.1915C16.4483 49.3287 15.28 50.1186 15.28 50.1186L10.8149 54.2361C10.8149 54.2361 9.68916 54.6878 9.95168 53.4603L11.5197 46.5616C11.5197 46.5616 14.9111 46.389 16.3774 49.1915V49.1915Z" fill="#9E9E9E"/>
<path d="M32.7861 40.8974C32.7861 40.8974 32.0553 40.5639 31.4498 41.0132C30.861 41.4508 30.8137 41.9687 30.8515 42.3069C30.8893 42.6451 31.2275 43.1559 31.7786 43.409C32.3793 43.6857 32.9611 43.7519 33.4435 43.0921C33.926 42.4346 33.803 41.9143 33.7084 41.7062C33.5783 41.4224 33.1526 41.0156 32.7884 40.8997L32.7861 40.8974Z" fill="black"/>
<path d="M29.006 41.9454C29.006 41.9454 28.9304 41.146 28.2398 40.8433C27.5681 40.55 27.0928 40.77 26.8208 40.971C26.5488 41.172 26.2721 41.7207 26.3289 42.3238C26.3904 42.9813 26.6221 43.5181 27.4333 43.608C28.2445 43.6979 28.6324 43.3337 28.7672 43.1445C28.9493 42.8914 29.0888 42.3191 29.0084 41.9454H29.006Z" fill="black"/>
<path d="M24.126 41.3567C24.126 41.3567 23.6908 40.6803 22.9388 40.7323C22.208 40.782 21.8863 41.1935 21.7374 41.4962C21.586 41.799 21.5955 42.4139 21.9218 42.9247C22.2789 43.4805 22.7306 43.8518 23.4945 43.5585C24.2561 43.2653 24.4334 42.7639 24.4666 42.5345C24.5115 42.2247 24.372 41.6523 24.1284 41.3591L24.126 41.3567Z" fill="black"/>
<path d="M15.7792 75.0244H38.6274C41.8679 75.0244 44.4949 77.6514 44.4949 80.892V85.4564C44.4949 88.697 41.8679 91.3239 38.6274 91.3239H15.7792C12.5386 91.3239 9.9116 88.697 9.9116 85.4564V80.892C9.9116 77.6514 12.5386 75.0244 15.7792 75.0244Z" fill="#9E9E9E"/>
<path d="M16.3774 90.3966C16.4483 90.5338 15.28 91.3237 15.28 91.3237L10.8149 95.4411C10.8149 95.4411 9.68916 95.8928 9.95168 94.6654L11.5197 87.7667C11.5197 87.7667 14.9111 87.5941 16.3774 90.3966V90.3966Z" fill="#9E9E9E"/>
<path d="M32.7861 82.1024C32.7861 82.1024 32.0553 81.769 31.4498 82.2183C30.861 82.6558 30.8137 83.1738 30.8515 83.512C30.8893 83.8502 31.2275 84.361 31.7786 84.6141C32.3793 84.8908 32.9611 84.957 33.4435 84.2971C33.926 83.6397 33.803 83.1194 33.7084 82.9113C33.5783 82.6275 33.1526 82.2207 32.7884 82.1048L32.7861 82.1024Z" fill="black"/>
<path d="M29.006 83.1505C29.006 83.1505 28.9304 82.3511 28.2398 82.0484C27.5681 81.7551 27.0928 81.9751 26.8208 82.1761C26.5488 82.3771 26.2721 82.9258 26.3289 83.5289C26.3904 84.1864 26.6221 84.7232 27.4333 84.8131C28.2445 84.9029 28.6324 84.5387 28.7672 84.3495C28.9493 84.0965 29.0888 83.5241 29.0084 83.1505H29.006Z" fill="black"/>
<path d="M24.126 82.5618C24.126 82.5618 23.6908 81.8854 22.9388 81.9374C22.208 81.9871 21.8863 82.3986 21.7374 82.7013C21.586 83.004 21.5955 83.6189 21.9218 84.1298C22.2789 84.6855 22.7306 85.0568 23.4945 84.7636C24.2561 84.4703 24.4334 83.9689 24.4666 83.7395C24.5115 83.4297 24.372 82.8574 24.1284 82.5641L24.126 82.5618Z" fill="black"/>
<path d="M3.0446 27.1484H-0.000183105V43.5141H3.0446V27.1484Z" fill="black"/>
<path d="M3.0446 45.417H-0.000183105V54.9319H3.0446V45.417Z" fill="black"/>
<path d="M29.306 7.73814C30.1468 7.73814 30.8284 7.05654 30.8284 6.21575C30.8284 5.37496 30.1468 4.69336 29.306 4.69336C28.4652 4.69336 27.7836 5.37496 27.7836 6.21575C27.7836 7.05654 28.4652 7.73814 29.306 7.73814Z" fill="black"/>
<g clip-path="url(#clip1_932_478)">
<path d="M65.6815 30.7083C65.6815 28.3951 65.5958 25.8247 65.5958 22.9117C65.5958 21.7122 64.739 20.6841 63.5396 20.4271L43.7481 17H42.8914L23.1 20.4271C21.9005 20.6841 20.958 21.7122 21.0437 22.9117C21.0437 25.8247 21.0437 28.3951 20.958 30.7083C20.8724 34.8208 20.8724 37.8195 21.0437 39.6187C22.1575 51.4422 24.6422 56.9255 28.926 62.7516C32.3531 67.3781 37.3224 70.5482 42.8914 71.7477C43.0627 71.7477 43.2341 71.8333 43.4054 71.8333C43.5768 71.8333 43.7481 71.8333 43.9195 71.7477C49.4885 70.5482 54.4578 67.3781 57.8849 62.7516C62.1687 56.9255 64.6534 51.5279 65.6815 39.6187C65.7672 37.7339 65.7672 34.8208 65.6815 30.7083V30.7083Z" fill="#7638E9"/>
<path d="M42.8914 17.0857L23.1 20.5128C21.9005 20.6841 21.0437 21.7122 21.0437 22.9117C21.0437 25.8247 20.958 28.3951 20.958 30.7083C20.8724 34.8208 20.8724 37.8195 21.0437 39.6187C22.1575 51.5279 24.6422 56.9255 28.8403 62.7516C32.2674 67.3781 37.2367 70.5482 42.8057 71.7477C42.9771 71.7477 43.1484 71.8333 43.3198 71.8333V17C43.1484 17 43.0627 17 42.8914 17.0857V17.0857Z" fill="#7638E9"/>
<path d="M42.977 20.8552L26.3556 23.6826C25.3275 23.8539 24.6421 24.7107 24.6421 25.7388C24.6421 28.2234 24.6421 30.3654 24.5564 32.2503C24.4708 35.6773 24.4708 38.2477 24.6421 39.7042C25.4989 49.6427 27.6408 54.2693 31.1536 59.1529C33.9809 63.0083 38.1791 65.75 42.8913 66.6924H43.3197V20.7695C43.234 20.7695 43.0627 20.7695 42.977 20.8552Z" fill="#7638E9"/>
<path d="M62.0831 32.2505C62.0831 30.3656 61.9974 28.138 61.9974 25.7391C61.9974 24.7109 61.312 23.8542 60.2839 23.6828L43.6625 20.8555H43.3198V66.7784H43.7482C48.4604 65.7503 52.6586 63.0943 55.486 59.1531C59.0844 54.2695 61.1407 49.7286 62.0831 39.7044C62.1688 38.2479 62.1688 35.7633 62.0831 32.2505V32.2505Z" fill="#DABDFF"/>
<path d="M65.6815 30.7083C65.6815 28.3951 65.5958 25.8247 65.5958 22.9117C65.5958 21.7122 64.739 20.6841 63.5396 20.4271L43.7481 17H42.8914L23.1 20.4271C21.9005 20.6841 20.958 21.7122 21.0437 22.9117C21.0437 25.8247 21.0437 28.3951 20.958 30.7083C20.8724 34.8208 20.8724 37.8195 21.0437 39.6187C22.1575 51.4422 24.6422 56.9255 28.926 62.7516C32.3531 67.3781 37.3224 70.5482 42.8914 71.7477C43.0627 71.7477 43.2341 71.8333 43.4054 71.8333C43.5768 71.8333 43.7481 71.8333 43.9195 71.7477C49.4885 70.5482 54.4578 67.3781 57.8849 62.7516C62.1687 56.9255 64.6534 51.5279 65.6815 39.6187C65.7672 37.7339 65.7672 34.8208 65.6815 30.7083V30.7083Z" fill="#8F59FF"/>
<path d="M42.8914 17.0857L23.1 20.5128C21.9005 20.6841 21.0437 21.7122 21.0437 22.9117C21.0437 25.8247 20.958 28.3951 20.958 30.7083C20.8724 34.8208 20.8724 37.8195 21.0437 39.6187C22.1575 51.5279 24.6422 56.9255 28.8403 62.7516C32.2674 67.3781 37.2367 70.5482 42.8057 71.7477C42.9771 71.7477 43.1484 71.8333 43.3198 71.8333V17C43.1484 17 43.0627 17 42.8914 17.0857V17.0857Z" fill="#592ACA"/>
<path d="M42.977 20.8552L26.3556 23.6826C25.3275 23.8539 24.6421 24.7107 24.6421 25.7388C24.6421 28.2234 24.6421 30.3654 24.5564 32.2503C24.4708 35.6773 24.4708 38.2477 24.6421 39.7042C25.4989 49.6427 27.6408 54.2693 31.1536 59.1529C33.9809 63.0083 38.1791 65.75 42.8913 66.6924H43.3197V20.7695C43.234 20.7695 43.0627 20.7695 42.977 20.8552Z" fill="#7542E4"/>
<path d="M62.0831 32.2505C62.0831 30.3656 61.9974 28.138 61.9974 25.7391C61.9974 24.7109 61.312 23.8542 60.2839 23.6828L43.6625 20.8555H43.3198V66.7784H43.7482C48.4604 65.7503 52.6586 63.0943 55.486 59.1531C59.0844 54.2695 61.1407 49.7286 62.0831 39.7044C62.1688 38.2479 62.1688 35.7633 62.0831 32.2505V32.2505Z" fill="#DABDFF"/>
</g>
</g>
<defs>
<clipPath id="clip0_932_478">
<rect width="87" height="102" fill="white"/>
</clipPath>
<clipPath id="clip1_932_478">
<rect width="54.8333" height="54.8333" fill="white" transform="translate(15.6461 17)"/>
</clipPath>
</defs>
</svg>
