<svg width="39" height="44" viewBox="0 0 39 44" fill="none" xmlns="http://www.w3.org/2000/svg">
<path d="M38.3001 7.5201C38.2642 6.93652 38.0056 6.38902 37.5775 5.99075C37.1494 5.59247 36.5848 5.37387 36.0001 5.3801C35.5901 5.3801 35.1701 5.3801 34.7701 5.3801C29.6245 5.34797 24.6319 3.62639 20.5601 0.480095C20.1772 0.165322 19.6957 -0.00461092 19.2001 9.51869e-05C18.7015 -0.00441077 18.2169 0.165363 17.8301 0.480095C13.7642 3.63374 8.77553 5.36571 3.63011 5.4101C3.24011 5.4101 2.84011 5.4101 2.46011 5.4101H2.38011C1.80577 5.4154 1.254 5.63448 0.832455 6.0246C0.410906 6.41471 0.149812 6.94789 0.100108 7.5201C-0.319892 14.6201 -0.219893 38.2301 18.5601 43.9101C18.7681 43.9701 18.9836 44.0004 19.2001 44.0001C19.4133 44.0004 19.6255 43.9701 19.8301 43.9101C38.6101 38.2301 38.7201 14.6201 38.3001 7.5201Z" fill="#ECECEC"/>
</svg>
