<svg width="113" height="44" viewBox="0 0 113 44" fill="none" xmlns="http://www.w3.org/2000/svg">
<g clip-path="url(#clip0_748_1327)">
<path fill-rule="evenodd" clip-rule="evenodd" d="M85.0512 -7.62939e-05C84.7849 0.0914723 84.4998 0.148846 84.2013 0.166401H72.3143C70.2712 0.166401 68.6924 1.83802 68.6924 3.78825V11.9606L68.6927 11.9972V15.6571C68.8953 17.1062 70.0499 18.1826 71.4529 18.1826C72.5514 18.1826 73.3588 17.4134 74.2096 16.6029C75.1571 15.7003 76.1583 14.7465 77.6751 14.7465C80.8326 14.7465 83.1543 18.0898 83.1543 22.0831C83.1543 26.1693 81.1112 29.2339 77.8608 29.2339C75.9921 29.2339 75.0869 28.2184 74.2352 27.2628C73.4783 26.4138 72.7637 25.6121 71.4529 25.6121C70.0081 25.697 68.8743 26.7154 68.6924 28.0265V40.2853C68.7853 42.3284 70.4569 44 72.5 44H84.3871C84.5793 44 84.7669 43.9798 84.948 43.9412H96.935C97.0821 43.971 97.2335 43.9909 97.3886 44H109.276C111.319 44 112.897 42.3284 112.897 40.3781V28.3982C112.897 28.2707 112.906 28.1453 112.924 28.0224V15.6597C112.911 15.5733 112.903 15.4856 112.897 15.3967V3.88111C112.897 2.02376 111.597 0.166401 109.183 0.166401H97.2957C96.9687 0.166401 96.6552 0.10794 96.3651 -7.62939e-05H85.0512Z" fill="white"/>
<rect x="68.6924" width="43.9596" height="9.23152" rx="4.61576" fill="white"/>
<rect x="68.6924" y="34.728" width="43.9596" height="9.23152" rx="4.61576" fill="white"/>
<path fill-rule="evenodd" clip-rule="evenodd" d="M96.3869 14.3859C95.6221 14.3859 95.0022 15.0058 95.0022 15.7706C95.0022 16.5353 95.6221 17.1553 96.3869 17.1553C97.1517 17.1553 97.7716 16.5353 97.7716 15.7706C97.7716 15.0058 97.1517 14.3859 96.3869 14.3859ZM93.1559 15.7706C93.1559 13.9861 94.6025 12.5396 96.3869 12.5396C98.1714 12.5396 99.6179 13.9861 99.6179 15.7706C99.6179 17.555 98.1714 19.0016 96.3869 19.0016C95.8305 19.0016 95.3069 18.861 94.8498 18.6133L93.4599 20.0031C93.5648 20.1967 93.6505 20.4022 93.7144 20.6171H99.0594C99.4566 19.2825 100.693 18.3093 102.157 18.3093C103.941 18.3093 105.388 19.7558 105.388 21.5403C105.388 23.3247 103.941 24.7713 102.157 24.7713C101.6 24.7713 101.077 24.6307 100.619 24.383L99.2296 25.7728C99.4773 26.23 99.6179 26.7535 99.6179 27.31C99.6179 29.0944 98.1714 30.541 96.3869 30.541C94.6025 30.541 93.1559 29.0944 93.1559 27.31C93.1559 25.5255 94.6025 24.079 96.3869 24.079C96.9433 24.079 97.4669 24.2196 97.924 24.4673L99.3139 23.0774C99.209 22.8838 99.1233 22.6783 99.0594 22.4634H93.7144C93.3172 23.7981 92.0809 24.7713 90.6172 24.7713C88.8328 24.7713 87.3862 23.3247 87.3862 21.5403C87.3862 19.7558 88.8328 18.3093 90.6172 18.3093C91.1736 18.3093 91.6972 18.4499 92.1543 18.6976L93.5442 17.3077C93.2965 16.8506 93.1559 16.327 93.1559 15.7706ZM95.0022 27.31C95.0022 26.5452 95.6221 25.9253 96.3869 25.9253C97.1517 25.9253 97.7716 26.5452 97.7716 27.31C97.7716 28.0748 97.1517 28.6947 96.3869 28.6947C95.6221 28.6947 95.0022 28.0748 95.0022 27.31ZM90.6172 20.1556C89.8524 20.1556 89.2325 20.7755 89.2325 21.5403C89.2325 22.3051 89.8524 22.925 90.6172 22.925C91.382 22.925 92.0019 22.3051 92.0019 21.5403C92.0019 20.7755 91.382 20.1556 90.6172 20.1556ZM100.772 21.5403C100.772 20.7755 101.392 20.1556 102.157 20.1556C102.921 20.1556 103.541 20.7755 103.541 21.5403C103.541 22.3051 102.921 22.925 102.157 22.925C101.392 22.925 100.772 22.3051 100.772 21.5403Z" fill="black"/>
<path fill-rule="evenodd" clip-rule="evenodd" d="M16.3589 -0.0001297C16.0926 0.09145 15.8074 0.148843 15.5089 0.166401H3.62184C1.57875 0.166401 0 1.83802 0 3.78825V8.20113V11.9606V24.7764V32.8836V40.2853C0.0928678 42.3284 1.76449 44 3.80758 44H15.6947C15.8867 44 16.0741 43.9798 16.2551 43.9413H28.2431C28.39 43.971 28.5413 43.9909 28.6961 44H40.5832C42.6263 44 44.2051 42.3284 44.2051 40.3781V28.3982C44.2051 26.9123 45.4123 25.705 46.9911 25.6122C48.3019 25.6122 49.0165 26.4139 49.7733 27.2629C50.6251 28.2185 51.5303 29.234 53.399 29.234C56.6494 29.234 58.6924 26.1694 58.6924 22.0832C58.6924 18.0899 56.3708 14.7466 53.2132 14.7466C51.6965 14.7466 50.6952 15.7005 49.7478 16.603C48.897 17.4135 48.0896 18.1827 46.9911 18.1827C45.5052 18.1827 44.2979 16.9755 44.2051 15.3967V3.88111C44.2051 2.02376 42.9049 0.166401 40.4904 0.166401H28.6033C28.2763 0.166401 27.9627 0.10792 27.6726 -0.0001297H16.3589Z" fill="white"/>
<rect width="44.3992" height="43.9596" rx="8" fill="white"/>
<path d="M30.5214 16.3364L23.7127 12.5062C23.4736 12.3765 23.2057 12.3086 22.9336 12.3086C22.6614 12.3086 22.3936 12.3765 22.1544 12.5062L15.3218 16.3364C15.0751 16.4753 14.8697 16.6769 14.7265 16.9208C14.5833 17.1647 14.5075 17.4422 14.5066 17.7249V25.3614C14.5044 25.6447 14.579 25.9234 14.7225 26.1678C14.866 26.4123 15.0731 26.6134 15.3218 26.7498L22.1304 30.5561C22.3692 30.6995 22.643 30.7741 22.9216 30.7716C23.1997 30.7709 23.4727 30.6965 23.7127 30.5561L30.5214 26.7498C30.7681 26.611 30.9735 26.4094 31.1166 26.1655C31.2598 25.9216 31.3357 25.6441 31.3365 25.3614V17.7249C31.3436 17.4406 31.271 17.1601 31.127 16.9148C30.983 16.6695 30.7732 16.4692 30.5214 16.3364V16.3364Z" fill="url(#paint0_linear_748_1327)"/>
<path d="M18.1746 23.5407L17.767 23.7801C17.6941 23.8204 17.63 23.8749 17.5783 23.9403C17.5267 24.0056 17.4886 24.0806 17.4663 24.1608C17.444 24.241 17.4379 24.3249 17.4483 24.4075C17.4588 24.4901 17.4857 24.5698 17.5273 24.6419C17.5808 24.7418 17.6602 24.8257 17.7572 24.8846C17.8542 24.9435 17.9652 24.9755 18.0787 24.977C18.1866 24.9761 18.293 24.9516 18.3904 24.9052L18.7979 24.6658C18.8709 24.6255 18.935 24.571 18.9866 24.5057C19.0383 24.4403 19.0764 24.3653 19.0987 24.2851C19.121 24.2049 19.1271 24.121 19.1166 24.0384C19.1061 23.9558 19.0793 23.8762 19.0377 23.804C19.0006 23.728 18.9483 23.6604 18.884 23.6054C18.8196 23.5504 18.7446 23.5093 18.6636 23.4846C18.5826 23.4599 18.4974 23.4521 18.4132 23.4618C18.3291 23.4714 18.2479 23.4983 18.1746 23.5407V23.5407ZM20.6679 22.1283L19.8288 22.6071C19.7559 22.6474 19.6917 22.7019 19.6401 22.7672C19.5885 22.8326 19.5504 22.9076 19.5281 22.9878C19.5057 23.068 19.4996 23.1519 19.5101 23.2345C19.5206 23.3171 19.5474 23.3967 19.5891 23.4689C19.6426 23.5688 19.722 23.6526 19.819 23.7116C19.9159 23.7705 20.027 23.8024 20.1405 23.804C20.2484 23.8031 20.3548 23.7786 20.4521 23.7322L21.2912 23.2534C21.3642 23.2131 21.4283 23.1586 21.48 23.0933C21.5316 23.0279 21.5697 22.9529 21.592 22.8727C21.6143 22.7925 21.6204 22.7086 21.6099 22.626C21.5995 22.5434 21.5726 22.4638 21.531 22.3916C21.494 22.3156 21.4416 22.248 21.3773 22.193C21.3129 22.1381 21.2379 22.0969 21.1569 22.0722C21.0759 22.0475 20.9907 22.0397 20.9066 22.0494C20.8224 22.059 20.7412 22.0859 20.6679 22.1283V22.1283ZM24.0483 20.9577C24.0145 20.8898 23.9674 20.8293 23.9097 20.78C23.8521 20.7306 23.785 20.6934 23.7126 20.6704V15.8563C23.713 15.7713 23.6964 15.6872 23.664 15.6086C23.6316 15.53 23.5839 15.4587 23.5238 15.3986C23.4636 15.3385 23.3921 15.2909 23.3134 15.2585C23.2347 15.2262 23.1504 15.2096 23.0653 15.21C22.9815 15.2102 22.8986 15.2273 22.8215 15.2602C22.7444 15.2931 22.6748 15.3411 22.6166 15.4014C22.5585 15.4617 22.5131 15.533 22.4831 15.6111C22.4531 15.6893 22.4391 15.7727 22.442 15.8563V20.692C22.3696 20.7149 22.3026 20.7522 22.2449 20.8015C22.1873 20.8509 22.1401 20.9113 22.1064 20.9792C22.0613 21.0634 22.0358 21.1565 22.0316 21.2518C22.0275 21.3471 22.0448 21.4421 22.0824 21.5298C22.0448 21.6175 22.0275 21.7125 22.0316 21.8078C22.0358 21.9031 22.0613 21.9963 22.1064 22.0804C22.1401 22.1483 22.1873 22.2088 22.2449 22.2581C22.3026 22.3075 22.3696 22.3447 22.442 22.3677V27.2033C22.442 27.3748 22.5102 27.5392 22.6316 27.6604C22.753 27.7816 22.9176 27.8497 23.0893 27.8497C23.261 27.8497 23.4256 27.7816 23.547 27.6604C23.6684 27.5392 23.7366 27.3748 23.7366 27.2033V22.3437C23.809 22.3208 23.876 22.2836 23.9337 22.2342C23.9914 22.1848 24.0385 22.1244 24.0722 22.0565C24.1173 21.9724 24.1428 21.8792 24.147 21.7839C24.1511 21.6886 24.1338 21.5936 24.0962 21.5059C24.1517 21.3238 24.1345 21.1274 24.0483 20.9577V20.9577ZM25.6809 19.3035L24.8418 19.7823C24.7689 19.8226 24.7047 19.8771 24.6531 19.9425C24.6015 20.0078 24.5634 20.0828 24.5411 20.163C24.5188 20.2432 24.5127 20.3271 24.5231 20.4097C24.5336 20.4923 24.5604 20.572 24.6021 20.6441C24.6556 20.744 24.735 20.8279 24.832 20.8868C24.929 20.9457 25.04 20.9777 25.1535 20.9792C25.2614 20.9783 25.3678 20.9538 25.4651 20.9074L26.3042 20.4286C26.3772 20.3883 26.4413 20.3338 26.493 20.2685C26.5446 20.2031 26.5827 20.1281 26.605 20.0479C26.6273 19.9677 26.6334 19.8838 26.6229 19.8012C26.6125 19.7187 26.5856 19.639 26.544 19.5668C26.507 19.4908 26.4546 19.4232 26.3903 19.3682C26.3259 19.3133 26.2509 19.2721 26.1699 19.2474C26.0889 19.2227 26.0037 19.215 25.9196 19.2246C25.8354 19.2342 25.7542 19.2611 25.6809 19.3035V19.3035ZM27.6684 19.5429C27.7763 19.542 27.8827 19.5175 27.98 19.4711L28.3876 19.2317C28.4604 19.1911 28.5245 19.1364 28.5762 19.071C28.6278 19.0056 28.666 18.9306 28.6885 18.8503C28.711 18.7701 28.7174 18.6862 28.7074 18.6035C28.6974 18.5208 28.6711 18.4409 28.63 18.3684C28.589 18.2959 28.534 18.2321 28.4682 18.1809C28.4024 18.1297 28.3271 18.0919 28.2467 18.0698C28.1662 18.0477 28.0822 18.0417 27.9994 18.0521C27.9166 18.0625 27.8367 18.0892 27.7643 18.1305L27.3567 18.3699C27.2838 18.4103 27.2196 18.4647 27.168 18.5301C27.1164 18.5954 27.0783 18.6704 27.056 18.7506C27.0336 18.8308 27.0275 18.9147 27.038 18.9973C27.0485 19.0799 27.0753 19.1596 27.117 19.2317C27.1719 19.3287 27.2522 19.409 27.3494 19.4638C27.4465 19.5186 27.5568 19.546 27.6684 19.5429ZM28.3876 23.7801L27.98 23.5407C27.8339 23.4591 27.6613 23.4387 27.5 23.4838C27.3388 23.529 27.202 23.636 27.1196 23.7816C27.0372 23.9272 27.0159 24.0994 27.0604 24.2606C27.1048 24.4218 27.2113 24.5589 27.3567 24.6419L27.7643 24.8813C27.8617 24.9277 27.968 24.9522 28.0759 24.9531C28.1895 24.9515 28.3005 24.9196 28.3974 24.8607C28.4944 24.8017 28.5738 24.7179 28.6273 24.6179C28.6702 24.5481 28.6981 24.4701 28.7092 24.3889C28.7204 24.3078 28.7145 24.2252 28.6919 24.1464C28.6694 24.0676 28.6307 23.9944 28.5783 23.9313C28.5259 23.8683 28.461 23.8168 28.3876 23.7801V23.7801ZM26.3018 22.6071L25.4628 22.1283C25.3903 22.087 25.3104 22.0603 25.2276 22.0499C25.1448 22.0395 25.0608 22.0455 24.9804 22.0676C24.8999 22.0897 24.8246 22.1274 24.7589 22.1787C24.6931 22.2299 24.6381 22.2936 24.597 22.3662C24.5559 22.4387 24.5296 22.5186 24.5196 22.6013C24.5096 22.684 24.516 22.7679 24.5385 22.8481C24.5611 22.9284 24.5992 23.0033 24.6509 23.0688C24.7025 23.1342 24.7666 23.1888 24.8394 23.2295L25.6785 23.7083C25.7759 23.7547 25.8823 23.7792 25.9902 23.7801C26.1037 23.7785 26.2147 23.7466 26.3117 23.6876C26.4087 23.6287 26.4881 23.5449 26.5416 23.4449C26.5852 23.3753 26.6137 23.2973 26.6252 23.2159C26.6367 23.1346 26.631 23.0517 26.6084 22.9727C26.5858 22.8938 26.5468 22.8204 26.494 22.7574C26.4412 22.6944 26.3757 22.6432 26.3018 22.6071V22.6071ZM19.8288 20.4047L20.6679 20.8835C20.7653 20.9299 20.8717 20.9544 20.9796 20.9553C21.0931 20.9537 21.2041 20.9218 21.3011 20.8629C21.3981 20.8039 21.4774 20.7201 21.531 20.6202C21.5726 20.548 21.5995 20.4683 21.6099 20.3857C21.6204 20.3031 21.6143 20.2193 21.592 20.1391C21.5697 20.0589 21.5316 19.9839 21.48 19.9185C21.4283 19.8532 21.3642 19.7987 21.2912 19.7584L20.4521 19.2796C20.3799 19.238 20.3001 19.2112 20.2174 19.2007C20.1347 19.1903 20.0507 19.1964 19.9704 19.2187C19.89 19.2409 19.8149 19.279 19.7495 19.3305C19.684 19.3821 19.6295 19.4461 19.5891 19.519C19.5088 19.6694 19.4888 19.8447 19.5334 20.0092C19.5779 20.1738 19.6836 20.3152 19.8288 20.4047V20.4047ZM18.7979 18.3699L18.3904 18.1305C18.3179 18.0892 18.238 18.0625 18.1552 18.0521C18.0725 18.0417 17.9884 18.0477 17.908 18.0698C17.8275 18.0919 17.7523 18.1297 17.6865 18.1809C17.6207 18.2321 17.5657 18.2959 17.5246 18.3684C17.4836 18.4409 17.4573 18.5208 17.4472 18.6035C17.4372 18.6862 17.4436 18.7701 17.4661 18.8503C17.4887 18.9306 17.5269 19.0056 17.5785 19.071C17.6301 19.1364 17.6942 19.1911 17.767 19.2317L18.1746 19.4711C18.272 19.5175 18.3784 19.542 18.4863 19.5429C18.5998 19.5413 18.7108 19.5094 18.8078 19.4505C18.9047 19.3915 18.9841 19.3077 19.0377 19.2078C19.0785 19.1374 19.1046 19.0595 19.1146 18.9788C19.1246 18.8981 19.1183 18.8162 19.0959 18.738C19.0735 18.6598 19.0356 18.5869 18.9844 18.5237C18.9332 18.4604 18.8698 18.4081 18.7979 18.3699V18.3699Z" fill="#20133A"/>
</g>
<defs>
<linearGradient id="paint0_linear_748_1327" x1="14.5066" y1="21.5408" x2="31.3389" y2="21.5408" gradientUnits="userSpaceOnUse">
<stop stop-color="#9059FF"/>
<stop offset="1" stop-color="#F770FF"/>
</linearGradient>
<clipPath id="clip0_748_1327">
<rect width="112.924" height="44.0001" fill="white"/>
</clipPath>
</defs>
</svg>
