<svg width="116" height="44" viewBox="0 0 116 44" fill="none" xmlns="http://www.w3.org/2000/svg">
<path fill-rule="evenodd" clip-rule="evenodd" d="M87.3587 0C87.0925 0.0915486 86.8073 0.148923 86.5089 0.166477H74.6218C72.5788 0.166477 71 1.8381 71 3.78832V11.9607L71.0002 11.9973V15.6572C71.2028 17.1063 72.3575 18.1827 73.7605 18.1827C74.859 18.1827 75.6664 17.4135 76.5172 16.603C77.4646 15.7004 78.4658 14.7466 79.9826 14.7466C83.1401 14.7466 85.4618 18.0898 85.4618 22.0832C85.4618 26.1693 83.4187 29.234 80.1684 29.234C78.2997 29.234 77.3945 28.2185 76.5427 27.2629C75.7859 26.4139 75.0713 25.6121 73.7605 25.6121C72.3156 25.6971 71.1819 26.7155 71 28.0266V40.2854C71.0929 42.3284 72.7645 44.0001 74.8076 44.0001H86.6947C86.8869 44.0001 87.0745 43.9799 87.2556 43.9412H99.2425C99.3896 43.9711 99.5411 43.9909 99.6961 44.0001H111.583C113.626 44.0001 115.205 42.3284 115.205 40.3782V28.3983C115.205 28.2708 115.214 28.1454 115.231 28.0225V15.6598C115.219 15.5734 115.21 15.4857 115.205 15.3968V3.88119C115.205 2.02383 113.905 0.166477 111.49 0.166477H99.6033C99.2763 0.166477 98.9628 0.108016 98.6727 0H87.3587Z" fill="#ECECED"/>
<rect x="71" width="43.9596" height="9.23152" rx="4.61576" fill="#ECECED"/>
<rect x="71" y="34.728" width="43.9596" height="9.23152" rx="4.61576" fill="#ECECED"/>
<path fill-rule="evenodd" clip-rule="evenodd" d="M98.6946 14.3859C97.9298 14.3859 97.3098 15.0058 97.3098 15.7706C97.3098 16.5353 97.9298 17.1553 98.6946 17.1553C99.4593 17.1553 100.079 16.5353 100.079 15.7706C100.079 15.0058 99.4593 14.3859 98.6946 14.3859ZM95.4635 15.7706C95.4635 13.9861 96.9101 12.5396 98.6946 12.5396C100.479 12.5396 101.926 13.9861 101.926 15.7706C101.926 17.555 100.479 19.0016 98.6946 19.0016C98.1381 19.0016 97.6145 18.861 97.1574 18.6133L95.7675 20.0031C95.8724 20.1967 95.9581 20.4022 96.0221 20.6171H101.367C101.764 19.2825 103.001 18.3093 104.464 18.3093C106.249 18.3093 107.695 19.7558 107.695 21.5403C107.695 23.3247 106.249 24.7713 104.464 24.7713C103.908 24.7713 103.384 24.6307 102.927 24.383L101.537 25.7728C101.785 26.23 101.926 26.7535 101.926 27.31C101.926 29.0944 100.479 30.541 98.6946 30.541C96.9101 30.541 95.4635 29.0944 95.4635 27.31C95.4635 25.5255 96.9101 24.079 98.6946 24.079C99.251 24.079 99.7746 24.2196 100.232 24.4673L101.622 23.0774C101.517 22.8838 101.431 22.6783 101.367 22.4634H96.0221C95.6249 23.7981 94.3885 24.7713 92.9249 24.7713C91.1404 24.7713 89.6938 23.3247 89.6938 21.5403C89.6938 19.7558 91.1404 18.3093 92.9249 18.3093C93.4813 18.3093 94.0049 18.4499 94.462 18.6976L95.8519 17.3077C95.6042 16.8506 95.4635 16.327 95.4635 15.7706ZM97.3098 27.31C97.3098 26.5452 97.9298 25.9253 98.6946 25.9253C99.4593 25.9253 100.079 26.5452 100.079 27.31C100.079 28.0748 99.4593 28.6947 98.6946 28.6947C97.9298 28.6947 97.3098 28.0748 97.3098 27.31ZM92.9249 20.1556C92.1601 20.1556 91.5401 20.7755 91.5401 21.5403C91.5401 22.3051 92.1601 22.925 92.9249 22.925C93.6896 22.925 94.3096 22.3051 94.3096 21.5403C94.3096 20.7755 93.6896 20.1556 92.9249 20.1556ZM103.08 21.5403C103.08 20.7755 103.699 20.1556 104.464 20.1556C105.229 20.1556 105.849 20.7755 105.849 21.5403C105.849 22.3051 105.229 22.925 104.464 22.925C103.699 22.925 103.08 22.3051 103.08 21.5403Z" fill="black"/>
<path fill-rule="evenodd" clip-rule="evenodd" d="M16.3589 0C16.0926 0.0915797 15.8074 0.148973 15.5089 0.166531H3.62184C1.57875 0.166531 0 1.83815 0 3.78838V8.20126V11.9607V24.7765V32.8837V40.2854C0.0928678 42.3285 1.76449 44.0001 3.80758 44.0001H15.6947C15.8867 44.0001 16.0741 43.9799 16.2551 43.9414H28.2431C28.39 43.9712 28.5413 43.991 28.6961 44.0001H40.5832C42.6263 44.0001 44.2051 42.3285 44.2051 40.3783V28.3983C44.2051 26.9124 45.4123 25.7052 46.9911 25.6123C48.3019 25.6123 49.0165 26.414 49.7733 27.2631C50.6251 28.2186 51.5303 29.2341 53.399 29.2341C56.6494 29.2341 58.6924 26.1695 58.6924 22.0833C58.6924 18.09 56.3708 14.7468 53.2132 14.7468C51.6965 14.7468 50.6952 15.7006 49.7478 16.6031C48.897 17.4137 48.0896 18.1829 46.9911 18.1829C45.5052 18.1829 44.2979 16.9756 44.2051 15.3968V3.88124C44.2051 2.02389 42.9049 0.166531 40.4904 0.166531H28.6033C28.2763 0.166531 27.9627 0.10805 27.6726 0H16.3589Z" fill="#ECECED"/>
<rect width="44.3992" height="43.9596" rx="8" fill="#ECECED"/>
<path d="M30.5214 16.3364L23.7127 12.5062C23.4736 12.3765 23.2057 12.3086 22.9336 12.3086C22.6614 12.3086 22.3936 12.3765 22.1544 12.5062L15.3218 16.3364C15.0751 16.4753 14.8697 16.6769 14.7265 16.9208C14.5833 17.1647 14.5075 17.4422 14.5066 17.7249V25.3614C14.5044 25.6447 14.579 25.9234 14.7225 26.1678C14.866 26.4123 15.0731 26.6134 15.3218 26.7498L22.1304 30.5561C22.3692 30.6995 22.643 30.7741 22.9216 30.7716C23.1997 30.7709 23.4727 30.6965 23.7127 30.5561L30.5214 26.7498C30.7681 26.611 30.9735 26.4094 31.1167 26.1655C31.2598 25.9216 31.3357 25.6441 31.3365 25.3614V17.7249C31.3436 17.4406 31.271 17.1601 31.127 16.9148C30.983 16.6695 30.7733 16.4692 30.5214 16.3364V16.3364Z" fill="url(#paint0_linear_912_1698)"/>
<path d="M18.1746 23.5407L17.767 23.7801C17.6941 23.8204 17.63 23.8749 17.5783 23.9403C17.5267 24.0056 17.4886 24.0806 17.4663 24.1608C17.444 24.241 17.4379 24.3249 17.4484 24.4075C17.4588 24.4901 17.4857 24.5698 17.5273 24.6419C17.5808 24.7418 17.6602 24.8257 17.7572 24.8846C17.8542 24.9435 17.9652 24.9755 18.0787 24.977C18.1866 24.9761 18.293 24.9516 18.3904 24.9052L18.7979 24.6658C18.8709 24.6255 18.935 24.571 18.9866 24.5057C19.0383 24.4403 19.0764 24.3653 19.0987 24.2851C19.121 24.2049 19.1271 24.121 19.1166 24.0384C19.1061 23.9558 19.0793 23.8762 19.0377 23.804C19.0007 23.728 18.9483 23.6604 18.884 23.6054C18.8196 23.5504 18.7446 23.5093 18.6636 23.4846C18.5826 23.4599 18.4974 23.4521 18.4132 23.4618C18.3291 23.4714 18.2479 23.4983 18.1746 23.5407V23.5407ZM20.6679 22.1283L19.8288 22.6071C19.7559 22.6474 19.6917 22.7019 19.6401 22.7672C19.5885 22.8326 19.5504 22.9076 19.5281 22.9878C19.5058 23.068 19.4997 23.1519 19.5101 23.2345C19.5206 23.3171 19.5474 23.3967 19.5891 23.4689C19.6426 23.5688 19.722 23.6526 19.819 23.7116C19.916 23.7705 20.027 23.8024 20.1405 23.804C20.2484 23.8031 20.3548 23.7786 20.4522 23.7322L21.2913 23.2534C21.3642 23.2131 21.4283 23.1586 21.48 23.0933C21.5316 23.0279 21.5697 22.9529 21.592 22.8727C21.6143 22.7925 21.6204 22.7086 21.6099 22.626C21.5995 22.5434 21.5726 22.4638 21.531 22.3916C21.494 22.3156 21.4416 22.248 21.3773 22.193C21.3129 22.1381 21.2379 22.0969 21.1569 22.0722C21.0759 22.0475 20.9907 22.0397 20.9066 22.0494C20.8224 22.059 20.7412 22.0859 20.6679 22.1283V22.1283ZM24.0483 20.9577C24.0145 20.8898 23.9674 20.8293 23.9097 20.78C23.8521 20.7306 23.785 20.6934 23.7126 20.6704V15.8563C23.713 15.7713 23.6964 15.6872 23.664 15.6086C23.6316 15.53 23.5839 15.4587 23.5238 15.3986C23.4636 15.3385 23.3921 15.2909 23.3134 15.2585C23.2348 15.2262 23.1504 15.2096 23.0653 15.21C22.9815 15.2102 22.8986 15.2273 22.8215 15.2602C22.7445 15.2931 22.6748 15.3411 22.6166 15.4014C22.5585 15.4617 22.5131 15.533 22.4831 15.6111C22.4531 15.6893 22.4391 15.7727 22.442 15.8563V20.692C22.3696 20.7149 22.3026 20.7522 22.2449 20.8015C22.1873 20.8509 22.1401 20.9113 22.1064 20.9792C22.0613 21.0634 22.0358 21.1565 22.0316 21.2518C22.0275 21.3471 22.0448 21.4421 22.0824 21.5298C22.0448 21.6175 22.0275 21.7125 22.0316 21.8078C22.0358 21.9031 22.0613 21.9963 22.1064 22.0804C22.1401 22.1483 22.1873 22.2088 22.2449 22.2581C22.3026 22.3075 22.3696 22.3447 22.442 22.3677V27.2033C22.442 27.3748 22.5102 27.5392 22.6316 27.6604C22.753 27.7816 22.9176 27.8497 23.0893 27.8497C23.261 27.8497 23.4256 27.7816 23.547 27.6604C23.6684 27.5392 23.7366 27.3748 23.7366 27.2033V22.3437C23.809 22.3208 23.876 22.2836 23.9337 22.2342C23.9914 22.1848 24.0385 22.1244 24.0723 22.0565C24.1173 21.9724 24.1428 21.8792 24.147 21.7839C24.1511 21.6886 24.1338 21.5936 24.0962 21.5059C24.1517 21.3238 24.1345 21.1274 24.0483 20.9577V20.9577ZM25.6809 19.3035L24.8418 19.7823C24.7689 19.8226 24.7048 19.8771 24.6531 19.9425C24.6015 20.0078 24.5634 20.0828 24.5411 20.163C24.5188 20.2432 24.5127 20.3271 24.5231 20.4097C24.5336 20.4923 24.5605 20.572 24.6021 20.6441C24.6556 20.744 24.735 20.8279 24.832 20.8868C24.929 20.9457 25.04 20.9777 25.1535 20.9792C25.2614 20.9783 25.3678 20.9538 25.4652 20.9074L26.3043 20.4286C26.3772 20.3883 26.4413 20.3338 26.493 20.2685C26.5446 20.2031 26.5827 20.1281 26.605 20.0479C26.6273 19.9677 26.6334 19.8838 26.6229 19.8012C26.6125 19.7187 26.5856 19.639 26.544 19.5668C26.507 19.4908 26.4546 19.4232 26.3903 19.3682C26.3259 19.3133 26.2509 19.2721 26.1699 19.2474C26.0889 19.2227 26.0037 19.215 25.9196 19.2246C25.8354 19.2342 25.7542 19.2611 25.6809 19.3035V19.3035ZM27.6684 19.5429C27.7763 19.542 27.8827 19.5175 27.9801 19.4711L28.3876 19.2317C28.4604 19.1911 28.5245 19.1364 28.5762 19.071C28.6278 19.0056 28.666 18.9306 28.6885 18.8503C28.711 18.7701 28.7175 18.6862 28.7074 18.6035C28.6974 18.5208 28.6711 18.4409 28.63 18.3684C28.589 18.2959 28.534 18.2321 28.4682 18.1809C28.4024 18.1297 28.3271 18.0919 28.2467 18.0698C28.1662 18.0477 28.0822 18.0417 27.9994 18.0521C27.9166 18.0625 27.8367 18.0892 27.7643 18.1305L27.3567 18.3699C27.2838 18.4103 27.2196 18.4647 27.168 18.5301C27.1164 18.5954 27.0783 18.6704 27.056 18.7506C27.0337 18.8308 27.0276 18.9147 27.038 18.9973C27.0485 19.0799 27.0753 19.1596 27.117 19.2317C27.1719 19.3287 27.2522 19.409 27.3494 19.4638C27.4465 19.5186 27.5568 19.546 27.6684 19.5429ZM28.3876 23.7801L27.9801 23.5407C27.8339 23.4591 27.6613 23.4387 27.5001 23.4838C27.3388 23.529 27.202 23.636 27.1196 23.7816C27.0372 23.9272 27.0159 24.0994 27.0604 24.2606C27.1048 24.4218 27.2113 24.5589 27.3567 24.6419L27.7643 24.8813C27.8617 24.9277 27.9681 24.9522 28.0759 24.9531C28.1895 24.9515 28.3005 24.9196 28.3975 24.8607C28.4944 24.8017 28.5738 24.7179 28.6274 24.6179C28.6703 24.5481 28.6981 24.4701 28.7093 24.3889C28.7204 24.3078 28.7145 24.2252 28.6919 24.1464C28.6694 24.0676 28.6307 23.9944 28.5783 23.9313C28.5259 23.8683 28.461 23.8168 28.3876 23.7801V23.7801ZM26.3019 22.6071L25.4628 22.1283C25.3903 22.087 25.3104 22.0603 25.2276 22.0499C25.1449 22.0395 25.0608 22.0455 24.9804 22.0676C24.8999 22.0897 24.8247 22.1274 24.7589 22.1787C24.6931 22.2299 24.6381 22.2936 24.597 22.3662C24.556 22.4387 24.5297 22.5186 24.5196 22.6013C24.5096 22.684 24.516 22.7679 24.5385 22.8481C24.5611 22.9284 24.5992 23.0033 24.6509 23.0688C24.7025 23.1342 24.7666 23.1888 24.8394 23.2295L25.6785 23.7083C25.7759 23.7547 25.8823 23.7792 25.9902 23.7801C26.1037 23.7785 26.2147 23.7466 26.3117 23.6876C26.4087 23.6287 26.4881 23.5449 26.5416 23.4449C26.5852 23.3753 26.6137 23.2973 26.6252 23.2159C26.6368 23.1346 26.631 23.0517 26.6084 22.9727C26.5858 22.8938 26.5469 22.8204 26.494 22.7574C26.4412 22.6944 26.3758 22.6432 26.3019 22.6071V22.6071ZM19.8288 20.4047L20.6679 20.8835C20.7653 20.9299 20.8717 20.9544 20.9796 20.9553C21.0931 20.9537 21.2041 20.9218 21.3011 20.8629C21.3981 20.8039 21.4775 20.7201 21.531 20.6202C21.5726 20.548 21.5995 20.4683 21.6099 20.3857C21.6204 20.3031 21.6143 20.2193 21.592 20.1391C21.5697 20.0589 21.5316 19.9839 21.48 19.9185C21.4283 19.8532 21.3642 19.7987 21.2913 19.7584L20.4522 19.2796C20.3799 19.238 20.3001 19.2112 20.2174 19.2007C20.1347 19.1903 20.0507 19.1964 19.9704 19.2187C19.89 19.2409 19.815 19.279 19.7495 19.3305C19.684 19.3821 19.6295 19.4461 19.5891 19.519C19.5088 19.6694 19.4889 19.8447 19.5334 20.0092C19.5779 20.1738 19.6836 20.3152 19.8288 20.4047V20.4047ZM18.7979 18.3699L18.3904 18.1305C18.3179 18.0892 18.238 18.0625 18.1552 18.0521C18.0725 18.0417 17.9884 18.0477 17.908 18.0698C17.8275 18.0919 17.7523 18.1297 17.6865 18.1809C17.6207 18.2321 17.5657 18.2959 17.5246 18.3684C17.4836 18.4409 17.4573 18.5208 17.4472 18.6035C17.4372 18.6862 17.4436 18.7701 17.4662 18.8503C17.4887 18.9306 17.5269 19.0056 17.5785 19.071C17.6301 19.1364 17.6942 19.1911 17.767 19.2317L18.1746 19.4711C18.272 19.5175 18.3784 19.542 18.4863 19.5429C18.5998 19.5413 18.7108 19.5094 18.8078 19.4505C18.9048 19.3915 18.9841 19.3077 19.0377 19.2078C19.0785 19.1374 19.1046 19.0595 19.1146 18.9788C19.1247 18.8981 19.1183 18.8162 19.0959 18.738C19.0735 18.6598 19.0356 18.5869 18.9844 18.5237C18.9332 18.4604 18.8698 18.4081 18.7979 18.3699V18.3699Z" fill="#20133A"/>
<defs>
<linearGradient id="paint0_linear_912_1698" x1="14.5066" y1="21.5408" x2="31.3389" y2="21.5408" gradientUnits="userSpaceOnUse">
<stop stop-color="#9059FF"/>
<stop offset="1" stop-color="#F770FF"/>
</linearGradient>
</defs>
</svg>
