<svg width="48" height="48" viewBox="0 0 48 48" fill="none" xmlns="http://www.w3.org/2000/svg">
<path d="M19.9754 35.9844C19.445 35.9843 18.9364 35.7735 18.5614 35.3984L12.5614 29.3984C12.1971 29.0212 11.9955 28.516 12.0001 27.9916C12.0046 27.4672 12.215 26.9656 12.5858 26.5948C12.9566 26.2239 13.4582 26.0136 13.9826 26.009C14.507 26.0045 15.0122 26.2061 15.3894 26.5704L19.7034 30.8844L32.3354 12.8384C32.6416 12.4093 33.1048 12.1184 33.6243 12.029C34.1438 11.9396 34.6776 12.0589 35.1096 12.3609C35.5416 12.663 35.8369 13.1234 35.9312 13.642C36.0256 14.1606 35.9114 14.6955 35.6134 15.1304L21.6134 35.1304C21.4468 35.3712 21.2293 35.5726 20.9764 35.7201C20.7234 35.8677 20.4411 35.9579 20.1494 35.9844C20.0915 35.9873 20.0334 35.9873 19.9754 35.9844Z" fill="#9059FF"/>
</svg>
