<svg width="338" height="274" viewBox="0 0 338 274" fill="none" xmlns="http://www.w3.org/2000/svg">
<path d="M220.167 71.3237H298.35C298.393 71.3237 298.435 71.3146 298.474 71.2969C298.512 71.2792 298.547 71.2534 298.575 71.2212C298.602 71.1873 298.621 71.1485 298.632 71.1069C298.644 71.0654 298.646 71.0221 298.641 70.9794L287.352 0.245947C287.34 0.176479 287.304 0.113499 287.25 0.068397C287.196 0.0232949 287.127 -0.000955402 287.057 2.88235e-05H231.46C231.389 -0.000955402 231.321 0.0232949 231.267 0.068397C231.213 0.113499 231.177 0.176479 231.165 0.245947L219.872 70.9794C219.866 71.0221 219.869 71.0654 219.88 71.1069C219.892 71.1485 219.911 71.1873 219.937 71.2212C219.966 71.2539 220.001 71.2801 220.041 71.2978C220.08 71.3154 220.123 71.3243 220.167 71.3237ZM297.994 70.7294H220.515L231.71 0.590227H286.807L297.994 70.7294Z" fill="#CCCCCC"/>
<path d="M254.766 198.573H263.29C263.368 198.573 263.443 198.541 263.499 198.486C263.554 198.431 263.585 198.356 263.585 198.277V71.1924C263.585 71.1142 263.554 71.0391 263.499 70.9838C263.443 70.9284 263.368 70.8973 263.29 70.8973H254.754C254.675 70.8973 254.6 70.9283 254.544 70.9835C254.488 71.0387 254.456 71.1138 254.455 71.1924V198.277C254.455 198.317 254.464 198.357 254.48 198.394C254.496 198.43 254.519 198.463 254.548 198.491C254.577 198.518 254.611 198.54 254.649 198.554C254.686 198.568 254.726 198.574 254.766 198.573ZM263.007 197.982H255.061V71.4916H263.007V197.982Z" fill="#CCCCCC"/>
<path d="M278.761 101.854C278.839 101.854 278.914 101.823 278.969 101.768C279.025 101.712 279.056 101.637 279.056 101.559V71.3442C279.056 71.2659 279.025 71.1908 278.969 71.1355C278.914 71.0802 278.839 71.0491 278.761 71.0491C278.683 71.0491 278.608 71.0802 278.552 71.1355C278.497 71.1908 278.466 71.2659 278.466 71.3442V101.559C278.466 101.637 278.497 101.712 278.552 101.768C278.608 101.823 278.683 101.854 278.761 101.854Z" fill="#CCCCCC"/>
<path d="M278.664 106.793C279.211 106.793 279.746 106.631 280.2 106.326C280.655 106.022 281.009 105.59 281.219 105.084C281.428 104.578 281.482 104.022 281.375 103.485C281.268 102.948 281.005 102.455 280.617 102.069C280.23 101.682 279.737 101.419 279.201 101.312C278.664 101.206 278.108 101.262 277.603 101.472C277.098 101.682 276.666 102.037 276.363 102.492C276.06 102.948 275.898 103.483 275.899 104.03C275.899 104.394 275.97 104.753 276.109 105.089C276.248 105.424 276.452 105.729 276.709 105.985C276.966 106.242 277.271 106.445 277.606 106.584C277.941 106.722 278.301 106.793 278.664 106.793ZM278.664 101.875C279.093 101.875 279.513 102.002 279.87 102.241C280.227 102.479 280.505 102.819 280.67 103.216C280.834 103.612 280.877 104.049 280.793 104.471C280.709 104.892 280.503 105.279 280.199 105.583C279.895 105.887 279.508 106.094 279.087 106.177C278.666 106.261 278.23 106.218 277.833 106.054C277.436 105.889 277.097 105.611 276.859 105.254C276.62 104.896 276.493 104.476 276.493 104.047C276.491 103.76 276.545 103.476 276.653 103.21C276.762 102.945 276.921 102.704 277.123 102.5C277.325 102.297 277.565 102.135 277.829 102.025C278.094 101.915 278.377 101.858 278.664 101.858V101.875Z" fill="#999999"/>
<path d="M254.683 71.1473H263.367V74.9017H254.683V71.1473Z" fill="#ECECEC"/>
<path d="M139.714 93.4068H185.054C185.131 93.4068 185.205 93.3762 185.26 93.3216C185.314 93.267 185.345 93.193 185.345 93.1158V38.9201C185.345 38.843 185.314 38.769 185.26 38.7144C185.205 38.6598 185.131 38.6292 185.054 38.6292H139.714C139.637 38.6292 139.563 38.6598 139.508 38.7144C139.454 38.769 139.423 38.843 139.423 38.9201V93.1199C139.424 93.1964 139.455 93.2694 139.509 93.3231C139.564 93.3767 139.637 93.4068 139.714 93.4068ZM184.771 92.8248H139.996V39.2071H184.775L184.771 92.8248Z" fill="#CCCCCC"/>
<path d="M150.425 50.8964H174.358V81.1481H150.425V50.8964Z" fill="#ECECEC"/>
<path d="M141.433 115.281H36.4777C33.1621 115.281 29.9823 116.599 27.6378 118.945C25.2934 121.291 23.9762 124.472 23.9762 127.79V208.856H153.935V127.794C153.935 126.151 153.612 124.524 152.984 123.006C152.356 121.488 151.435 120.108 150.274 118.946C149.114 117.784 147.735 116.862 146.218 116.234C144.701 115.605 143.075 115.281 141.433 115.281Z" fill="#CADBE5"/>
<path d="M271.187 115.281H166.232C162.916 115.281 159.736 116.599 157.392 118.945C155.047 121.291 153.73 124.472 153.73 127.79V208.856H283.688V127.794C283.689 126.151 283.366 124.524 282.738 123.006C282.11 121.488 281.189 120.108 280.028 118.946C278.867 117.784 277.489 116.862 275.972 116.234C274.455 115.605 272.829 115.281 271.187 115.281Z" fill="#CADBE5"/>
<path d="M254.394 202.036H294.704V174.272C294.7 171.389 293.554 168.625 291.516 166.587C289.477 164.549 286.714 163.404 283.833 163.403H265.269C262.385 163.403 259.618 164.549 257.579 166.59C255.539 168.631 254.394 171.398 254.394 174.284V202.036Z" fill="#B2C7D1"/>
<path d="M274.315 201.766C260.954 199.408 252.033 186.66 254.389 173.292C256.745 159.923 269.485 150.997 282.846 153.354C296.206 155.711 305.127 168.459 302.772 181.828C300.416 195.196 287.675 204.123 274.315 201.766Z" fill="#B2C7D1"/>
<path d="M294.868 199.31H13.3321V218.643C13.3321 223.044 15.079 227.264 18.1886 230.375C21.2982 233.487 25.5156 235.235 29.9132 235.235H278.287C282.685 235.235 286.902 233.487 290.012 230.375C293.121 227.264 294.868 223.044 294.868 218.643V199.31Z" fill="#B2C7D1"/>
<path d="M42.5115 163.39H23.9518C21.0675 163.39 18.3014 164.537 16.2619 166.578C14.2224 168.618 13.0766 171.386 13.0766 174.272V202.036H53.3867V174.272C53.3867 171.386 52.2409 168.618 50.2014 166.578C48.1619 164.537 45.3958 163.39 42.5115 163.39Z" fill="#B2C7D1"/>
<path d="M5.19066 182.741C2.3237 169.473 10.7491 156.392 24.0094 153.523C37.2696 150.654 50.3433 159.085 53.2103 172.353C56.0772 185.621 47.6518 198.703 34.3916 201.571C21.1313 204.44 8.05763 196.01 5.19066 182.741Z" fill="#B2C7D1"/>
<path d="M42.1313 247.797H267.624C271.132 247.797 274.497 246.403 276.978 243.921C279.459 241.439 280.853 238.073 280.854 234.562H28.9048C28.9048 238.072 30.2983 241.439 32.7788 243.92C35.2592 246.402 38.6234 247.797 42.1313 247.797Z" fill="#292960"/>
<path d="M270.125 271.745H272.603C276.818 271.745 278.526 268.327 276.421 264.105L268.27 247.797H250.525L258.676 264.105C260.782 268.327 265.91 271.745 270.125 271.745Z" fill="#292960"/>
<path d="M40.4185 271.745H37.9608C33.7459 271.745 32.0378 268.327 34.1432 264.105L42.2945 247.797H60.0186L51.8672 264.105C49.7618 268.327 44.6334 271.745 40.4185 271.745Z" fill="#292960"/>
<path d="M213.853 186.498C215.217 186.498 223.745 187.937 223.745 187.937C223.745 187.937 224.028 194.945 222.107 196.88L214.136 196.105L213.853 186.498Z" fill="#E29C40"/>
<path d="M223.123 193.306C223.709 190.125 220.256 186.65 218.167 184.912C217.722 184.538 217.385 184.052 217.19 183.505C216.995 182.958 216.949 182.368 217.057 181.797C217.253 180.711 220.035 179.805 220.743 178.965L224.43 172.489C225.713 170.156 227.777 168.351 230.258 167.391C232.097 166.705 234.087 166.529 236.018 166.882L238.418 167.325L232.487 199.622L221.657 197.63C221.597 197.622 221.541 197.598 221.494 197.561C221.447 197.524 221.41 197.475 221.387 197.42C221.364 197.364 221.356 197.304 221.364 197.244C221.372 197.185 221.395 197.129 221.431 197.081C222.294 195.979 222.874 194.683 223.123 193.306Z" fill="#405C9B"/>
<path d="M231.469 199.399L238.115 167.2L239.92 167.573L233.274 199.772L231.469 199.399Z" fill="#3D3D7F"/>
<path d="M76.6291 181.473C77.1764 176.927 79.5061 172.784 83.1057 169.957C86.7052 167.129 91.28 165.848 95.8236 166.395L152.154 173.186C152.512 173.147 152.871 173.127 153.231 173.124H153.641H153.719H153.833L154.059 173.149L154.513 173.202C154.669 173.202 154.829 173.239 154.923 173.256L156.152 173.461L158.38 173.891L162.669 174.772L171.127 176.608L187.921 180.33L218.663 187.297L219.236 196.724L185.849 193.65L168.768 192.154L160.264 191.466L156.066 191.162L154.042 191.043H153.719C152.953 191.113 152.182 191.081 151.425 190.949L96.7453 200.544C95.0768 200.83 93.3761 200.875 91.6947 200.679C89.4449 200.409 87.2704 199.697 85.2955 198.585C83.3206 197.474 81.584 195.983 80.1849 194.2C78.7858 192.416 77.7517 190.374 77.1415 188.19C76.5314 186.007 76.3573 183.724 76.6291 181.473Z" fill="#292960"/>
<path d="M213.599 185.256L219.207 186.511L219.403 197.671L214.074 198.638L213.599 185.256Z" fill="#3D3D7F"/>
<path d="M91.4892 124.015C91.1877 123.602 90.9348 123.155 90.7355 122.683C90.6823 122.564 90.6372 122.445 90.5922 122.327L90.5635 122.245C90.5635 122.245 90.588 122.245 90.6044 122.269L90.8133 122.732L91.268 123.872L92.1896 126.306L94.0206 131.298L97.6334 141.381L104.781 161.624C105.127 162.605 105.825 163.421 106.74 163.915C107.655 164.408 108.72 164.543 109.729 164.294C110.738 164.044 111.618 163.428 112.197 162.564C112.776 161.701 113.014 160.653 112.863 159.624L109.75 138.311L108.136 127.655L107.284 122.294L106.821 119.56L106.555 118.126L106.379 117.306L106.211 116.695L106.166 116.544V116.503L106.129 116.396C106.071 116.253 106.014 116.109 105.953 115.986C105.707 115.414 105.409 114.865 105.064 114.347C103.783 112.545 101.839 111.326 99.6604 110.958C97.4815 110.591 95.2458 111.104 93.4451 112.386C91.6445 113.667 90.4264 115.612 90.0588 117.792C89.6912 119.972 90.2043 122.209 91.4851 124.011L91.4892 124.015Z" fill="#EBBB7B"/>
<path d="M191.112 172.1C192.685 172.973 201.68 180.006 201.68 180.006C201.68 180.006 197.584 188.318 194.151 189.351L185.406 183.441L191.112 172.1Z" fill="#F2CA95"/>
<path d="M144.082 85.1378L147.527 85.669C147.752 85.7038 147.907 85.9152 147.873 86.1412L144.04 111.025C144.006 111.251 143.794 111.406 143.568 111.371L140.123 110.84C139.898 110.805 139.743 110.594 139.777 110.368L143.61 85.4839C143.644 85.258 143.856 85.103 144.082 85.1378Z" fill="#333966"/>
<path d="M41.4345 110.461C41.5017 105.486 43.0604 100.646 45.9086 96.5674C48.7569 92.489 52.7635 89.3604 57.4095 87.5868C57.3236 86.8688 57.2853 86.1459 57.2948 85.4228C57.3311 82.8369 57.9849 80.2972 59.2016 78.0156C60.4184 75.734 62.1628 73.7766 64.2893 72.3067C66.4159 70.8368 68.8629 69.8971 71.4262 69.566C73.9895 69.2349 76.5948 69.5219 79.0247 70.4031C81.4546 71.2844 83.6387 72.7343 85.3947 74.6319C87.1507 76.5294 88.4276 78.8197 89.1191 81.3116C89.8106 83.8034 89.8965 86.4246 89.3697 88.9565C88.8429 91.4883 87.7186 93.8574 86.0906 95.866C88.4689 99.026 90.0581 102.709 90.7257 106.608C91.3933 110.507 91.1201 114.509 89.9287 118.281C92.3424 120.583 94.1504 123.445 95.192 126.615C96.2337 129.784 96.4767 133.161 95.8995 136.447C95.3223 139.733 93.9428 142.825 91.8835 145.449C89.8242 148.073 87.149 150.147 84.0956 151.487C81.0422 152.827 77.7052 153.392 74.3813 153.13C71.0574 152.869 67.8494 151.79 65.0425 149.99C62.2357 148.189 59.9169 145.722 58.2923 142.809C56.6676 139.896 55.7875 136.626 55.73 133.29C51.405 131.264 47.7558 128.033 45.2202 123.984C42.6846 119.934 41.3701 115.239 41.4345 110.461Z" fill="#B10FC1"/>
<path d="M57.0347 115.026C53.5187 104.407 59.2718 92.9462 69.8845 89.4281C80.4972 85.91 91.9508 91.6665 95.4668 102.286C98.9827 112.905 93.2297 124.365 82.617 127.883C72.0043 131.401 60.5507 125.645 57.0347 115.026Z" fill="#B10FC1"/>
<path d="M99.5418 59.9574L90.3304 59.8319C87.4801 59.793 84.731 60.8888 82.6881 62.878C80.6451 64.8673 79.4756 67.5871 79.4368 70.4392L79.0744 97.0775L99.033 97.3494C101.883 97.3883 104.632 96.2925 106.675 94.3033C108.718 92.314 109.888 89.5942 109.927 86.7421L110.143 70.8575C110.182 68.0054 109.086 65.2547 107.098 63.2106C105.11 61.1664 102.392 59.9962 99.5418 59.9574Z" fill="#F2CA95"/>
<path d="M83.9947 95.5522L96.917 96.6925L96.2182 104.621L83.2958 103.481L83.9947 95.5522Z" fill="#F2CA95"/>
<path d="M100.799 57.4375C107.107 57.5236 112.203 60.7943 112.375 70.9137L88.859 70.594C89.3055 60.4828 94.4871 57.3392 100.799 57.4375Z" fill="#B10FC1"/>
<path d="M85.4508 60.7945H85.5614C87.2412 59.8111 89.1575 59.3052 91.1035 59.3313L100.316 59.4584C102.247 59.4806 104.137 60.0239 105.786 61.0309C107.434 62.0379 108.781 63.4713 109.684 65.18C107.529 65.3029 105.433 65.5024 103.396 65.7784C101.629 66.0306 100.005 66.8906 98.8032 68.2107C97.6012 69.5309 96.8962 71.2287 96.8094 73.0124V73.1517C96.6461 75.3953 95.8298 77.542 94.4615 79.3269C93.0931 81.1118 91.2325 82.4568 89.1091 83.196C86.9857 83.9352 84.6925 84.0362 82.5125 83.4866C80.3324 82.937 78.3608 81.7608 76.841 80.1031C75.3211 78.4455 74.3195 76.3789 73.9597 74.1584C73.5999 71.9378 73.8977 69.6604 74.8163 67.6072C75.7349 65.554 77.2341 63.8148 79.129 62.6042C81.0238 61.3935 83.2315 60.7644 85.4795 60.7945H85.4508Z" fill="#B10FC1"/>
<path d="M72.8107 106.211L85.0787 103.657L85.2139 78.4634L73.1876 78.2994L72.8107 106.211Z" fill="#B10FC1"/>
<path d="M88.5169 87.4544C85.8104 87.3134 83.7306 85.0038 83.8715 82.2957C84.0124 79.5875 86.3207 77.5065 89.0272 77.6474C91.7337 77.7884 93.8135 80.0981 93.6726 82.8062C93.5317 85.5143 91.2234 87.5954 88.5169 87.4544Z" fill="#F2CA95"/>
<path d="M79.7826 158.525L99.4769 159.542L107.788 128.265C108.493 126.079 108.688 123.761 108.36 121.488C108.031 119.214 107.187 117.046 105.891 115.15L96.114 103.813L85.763 102.899L80.6592 108.662C78.8022 111.667 77.4581 114.961 76.6819 118.408C75.3699 124.108 75.4134 130.037 76.8088 135.717L79.7826 158.525Z" fill="#F2CA95"/>
<path d="M105.027 196.282L150.973 157.755C152.73 156.283 153.903 154.23 154.28 151.969C154.657 149.707 154.214 147.385 153.03 145.422C151.846 143.458 150 141.983 147.825 141.262C145.649 140.542 143.288 140.623 141.167 141.492L85.7133 164.21C81.1082 166.139 77.4517 169.811 75.5403 174.425C73.629 179.04 73.6178 184.223 75.5093 188.846C77.4008 193.469 81.0415 197.156 85.6383 199.105C90.235 201.054 95.4151 201.105 100.05 199.249C101.847 198.514 103.525 197.513 105.027 196.282Z" fill="#333372"/>
<path d="M74.0199 179.498L107.928 170.805L99.9976 153.361L79.6357 154.964L74.0199 179.498Z" fill="#333372"/>
<path d="M130.243 145.185C130.231 145.296 130.199 145.404 130.149 145.504C130.149 145.504 130.149 145.537 130.129 145.537V145.488L130.153 145.389L130.211 145.193C130.288 144.922 130.35 144.68 130.44 144.373L130.972 142.647L132.078 139.147L134.352 132.118L138.972 118.06C139.18 117.449 139.149 116.782 138.886 116.192C138.624 115.602 138.148 115.134 137.555 114.88C136.962 114.626 136.294 114.606 135.687 114.823C135.079 115.04 134.576 115.479 134.278 116.052L127.315 129.134L123.849 135.692L122.129 139.008L121.269 140.701C121.125 140.971 120.974 141.303 120.826 141.611L120.716 141.84L120.658 141.959L120.634 142.016L120.576 142.156C120.429 142.566 120.302 142.951 120.191 143.352C120.051 144.021 120.046 144.711 120.176 145.381C120.307 146.052 120.57 146.689 120.951 147.256C121.332 147.823 121.823 148.308 122.395 148.682C122.966 149.056 123.606 149.311 124.278 149.433C124.95 149.555 125.639 149.541 126.306 149.392C126.972 149.242 127.601 148.961 128.157 148.564C128.713 148.167 129.183 147.663 129.541 147.081C129.899 146.499 130.136 145.852 130.239 145.176L130.243 145.185Z" fill="#F2CA95"/>
<path d="M132.672 120.81L139.271 118.019L143.273 115.236C143.538 115.121 143.768 114.939 143.94 114.706C144.112 114.474 144.22 114.2 144.252 113.912L146.14 99.5672C146.153 99.4688 146.138 99.3686 146.098 99.2779C146.058 99.1872 145.993 99.1095 145.911 99.0535C145.829 98.9974 145.733 98.9652 145.634 98.9603C145.535 98.9555 145.436 98.9783 145.349 99.0262L144.53 99.477C144.433 99.5306 144.355 99.6139 144.309 99.7148L141.225 106.113L135.777 107.838L132.672 120.81Z" fill="#F2CA95"/>
<path d="M96.9326 97.1898C96.9326 97.1898 93.3649 96.3332 91.198 94.661C92.6122 97.1249 94.4303 99.3334 96.5763 101.194L96.9326 97.1898Z" fill="#7C481A"/>
<path d="M80.1923 108.674L85.1691 103.428C85.1691 103.428 87.9299 109.65 101.771 110.395L105.891 115.17C107.187 117.067 108.031 119.235 108.36 121.508C108.688 123.781 108.493 126.1 107.788 128.286L102.434 157.345L74.7608 174.928C74.7608 174.928 69.3989 120.457 80.1923 108.674Z" fill="#E31587"/>
<path d="M86.2745 132.266C85.7664 132.198 85.2675 132.073 84.7876 131.893L84.4354 131.749L84.3534 131.712C84.3534 131.712 84.3534 131.712 84.3985 131.712L84.8777 131.884L86.0329 132.343L88.4291 133.356L93.2994 135.454L103.089 139.795L122.661 148.59H122.681C123.628 149.015 124.7 149.073 125.687 148.751C126.674 148.429 127.507 147.751 128.022 146.85C128.538 145.948 128.7 144.886 128.476 143.872C128.253 142.857 127.661 141.962 126.814 141.36L109.274 128.925L100.447 122.736L95.9824 119.65L93.6845 118.097L92.4556 117.302L91.7429 116.867L91.1858 116.568L91.0465 116.494L91.0097 116.474L90.9073 116.429L90.4772 116.256C89.8929 116.039 89.2895 115.877 88.6749 115.773C86.5014 115.486 84.3024 116.067 82.5546 117.391C80.8067 118.716 79.651 120.676 79.3379 122.847C79.0247 125.018 79.5794 127.225 80.8818 128.99C82.1841 130.754 84.1291 131.934 86.295 132.274L86.2745 132.266Z" fill="#F2CA95"/>
<path d="M83.9277 132.569L83.8376 132.528C83.8376 132.528 83.8622 132.528 83.8909 132.528L84.4234 132.716L85.1074 132.995H85.0828C84.8193 132.93 84.5594 132.851 84.3046 132.757L83.9277 132.569Z" fill="#DB681C"/>
<path d="M85.9756 133.163C85.6997 133.126 85.4262 133.072 85.1564 133.003H85.1318C85.4021 133.04 85.6848 133.098 85.9756 133.163Z" fill="#DB681C"/>
<path d="M85.1078 132.975L84.4238 132.696L83.8913 132.508C83.8626 132.508 83.8544 132.508 83.8381 132.508L83.9282 132.549L84.3378 132.708C84.5926 132.802 84.8525 132.881 85.116 132.946C82.8122 132.372 80.8164 130.935 79.5402 128.932C78.264 126.928 77.8048 124.511 78.257 122.179C78.7093 119.847 80.0387 117.777 81.9711 116.397C83.9035 115.017 86.2915 114.431 88.6428 114.761C89.3258 114.878 89.9964 115.059 90.6458 115.302C90.8097 115.359 90.9694 115.425 91.1251 115.49L91.2357 115.539H91.2562H91.2971L91.4528 115.621L92.0754 115.953L92.8659 116.437L94.2259 117.322L96.7818 119.048L101.75 122.482L102.394 122.933L94.4102 136.905L93.8121 136.639L88.3848 134.335L85.7182 133.208L85.1611 132.983C85.4309 133.052 85.7045 133.105 85.9803 133.143C85.6854 133.098 85.4028 133.04 85.1078 132.975Z" fill="#E31587"/>
<path d="M135.719 107.99L140.225 102.174C140.278 102.107 140.346 102.053 140.424 102.017C140.502 101.982 140.588 101.966 140.673 101.97C140.759 101.974 140.842 101.998 140.917 102.041C140.991 102.083 141.054 102.143 141.101 102.215L141.261 102.461C141.307 102.531 141.335 102.611 141.344 102.694C141.354 102.777 141.343 102.862 141.314 102.94L139.999 106.485L135.719 107.99Z" fill="#F2CA95"/>
<path d="M75.434 68.5893C74.5805 64.5475 80.9223 59.784 89.5988 57.9497C98.2752 56.1155 106.001 57.9051 106.854 61.9469C107.708 65.9887 101.366 70.7522 92.6894 72.5865C84.0129 74.4207 76.2874 72.6311 75.434 68.5893Z" fill="#B10FC1"/>
<path d="M134.868 153.193C134.841 150.14 136.028 147.201 138.166 145.023C140.305 142.845 143.22 141.606 146.271 141.578C147.587 141.597 148.893 141.818 150.142 142.234C150.441 142.332 150.781 142.463 151.027 142.566L151.142 142.619L151.367 142.734L151.817 142.967L152.043 143.086C152.116 143.127 152.198 143.168 152.223 143.189L153.181 143.787L153.972 144.32L154.709 144.832C155.68 145.512 156.585 146.172 157.499 146.836L162.848 150.787L173.359 158.739C179.137 163.146 184.898 167.563 190.641 171.989L184.374 182.769C177.746 179.678 171.112 176.602 164.47 173.539L152.592 168.128L146.693 165.509C145.751 165.1 144.805 164.69 143.904 164.317C144.136 164.369 144.373 164.414 144.616 164.452L144.956 164.497C145.087 164.497 145.223 164.53 145.366 164.538C145.509 164.546 145.661 164.563 145.808 164.571C146.03 164.571 146.247 164.571 146.468 164.571C146.251 164.571 146.03 164.571 145.808 164.571C145.661 164.571 145.513 164.571 145.366 164.538C145.218 164.505 145.1 164.513 144.956 164.497L144.616 164.452C144.367 164.411 144.117 164.362 143.875 164.304H143.822L143.134 164.026L142.495 163.78C142.306 163.71 142.171 163.677 142.007 163.624C141.974 163.624 142.007 163.624 142.007 163.624L142.048 163.653L142.13 163.714L142.171 163.743C142.384 163.833 142.691 163.952 142.957 164.042C143.252 164.142 143.551 164.227 143.854 164.296H143.883C141.349 163.734 139.079 162.332 137.443 160.316C135.806 158.3 134.898 155.79 134.868 153.193Z" fill="#333372"/>
<path d="M145.812 164.587C146.033 164.587 146.255 164.587 146.472 164.587C146.25 164.603 146.033 164.595 145.812 164.587Z" fill="#333372"/>
<path d="M144.628 164.468C144.388 164.43 144.15 164.385 143.915 164.333H143.887C144.128 164.378 144.378 164.427 144.628 164.468Z" fill="#333372"/>
<path d="M144.969 164.513C145.104 164.513 145.236 164.546 145.379 164.554C145.236 164.546 145.1 164.53 144.969 164.513Z" fill="#333372"/>
<path d="M190.297 170.137L194.717 174.916L187.725 185.445L182.138 182.916L190.297 170.137Z" fill="#3D3D7F"/>
<path d="M193.803 187.675C197.117 187.609 199.898 183.412 201.213 180.969C201.496 180.445 201.914 180.005 202.424 179.696C202.934 179.387 203.517 179.219 204.113 179.211C205.239 179.186 206.718 181.793 207.718 182.351L214.955 184.703C217.561 185.511 219.798 187.214 221.272 189.511C222.338 191.22 222.924 193.185 222.967 195.2L223.017 197.704L189.367 198.376L189.141 187.08C189.138 187.019 189.15 186.959 189.177 186.904C189.204 186.85 189.245 186.803 189.295 186.769C189.345 186.734 189.404 186.714 189.464 186.709C189.525 186.704 189.586 186.715 189.641 186.74C190.931 187.389 192.36 187.71 193.803 187.675Z" fill="#4D6AB5"/>
<path d="M189.394 197.304L223.093 197.369L223.089 199.259L189.39 199.194L189.394 197.304Z" fill="#3D3D7F"/>
<path d="M269.232 170.706C268.687 186.859 281.815 207.237 281.815 207.237C281.815 207.237 296.291 187.793 296.836 171.641C297.381 155.488 291.531 145.59 283.908 145.332C276.286 145.074 269.777 154.55 269.232 170.706Z" fill="#B10FC1"/>
<path d="M251.888 189.654C255.537 199.13 268.133 207.688 268.133 207.688C268.133 207.688 271.729 192.888 268.08 183.416C264.43 173.944 258.618 169.657 254.153 171.383C249.688 173.108 248.238 180.182 251.888 189.654Z" fill="#B10FC1"/>
<path d="M297.215 181.588C292.095 195.113 300.164 217.246 300.164 217.246C300.164 217.246 320.858 206.02 325.97 192.49C331.082 178.961 327.719 168.407 319.777 165.399C311.834 162.39 302.335 168.059 297.215 181.588Z" fill="#B10FC1"/>
<path d="M282.755 262.203C282.83 262.205 282.902 262.179 282.96 262.132C283.018 262.085 283.057 262.018 283.071 261.945L289.121 232.148C289.482 230.383 290.299 228.744 291.49 227.392C292.68 226.04 294.203 225.024 295.908 224.443L301.642 222.5C301.717 222.468 301.777 222.408 301.809 222.334C301.842 222.26 301.846 222.175 301.819 222.098C301.793 222.021 301.739 221.957 301.667 221.919C301.596 221.88 301.512 221.869 301.434 221.89L295.699 223.832C293.887 224.451 292.268 225.533 291.002 226.971C289.737 228.409 288.869 230.152 288.486 232.029L282.436 261.826C282.42 261.91 282.438 261.997 282.485 262.069C282.532 262.14 282.606 262.19 282.69 262.207L282.755 262.203Z" fill="#292960"/>
<path d="M285.342 261.556C285.41 261.556 285.476 261.535 285.531 261.496C285.586 261.457 285.627 261.402 285.65 261.338L308.301 195.286C308.328 195.205 308.321 195.116 308.284 195.04C308.246 194.963 308.181 194.905 308.101 194.876C308.02 194.849 307.932 194.856 307.855 194.893C307.779 194.931 307.72 194.996 307.691 195.077L285.039 261.133C285.025 261.181 285.023 261.232 285.031 261.281C285.04 261.329 285.06 261.376 285.09 261.415C285.12 261.455 285.159 261.488 285.203 261.51C285.248 261.532 285.297 261.543 285.347 261.543L285.342 261.556Z" fill="#292960"/>
<path d="M281.462 260.26C281.547 260.259 281.628 260.226 281.688 260.166C281.748 260.106 281.783 260.026 281.785 259.941L282.433 182.231C282.433 182.146 282.399 182.063 282.338 182.003C282.277 181.942 282.195 181.908 282.109 181.908C282.023 181.908 281.941 181.942 281.88 182.003C281.82 182.063 281.785 182.146 281.785 182.231L281.138 259.945C281.138 259.987 281.146 260.029 281.161 260.068C281.177 260.108 281.201 260.143 281.23 260.174C281.26 260.204 281.295 260.228 281.335 260.244C281.374 260.26 281.415 260.269 281.458 260.269L281.462 260.26Z" fill="#292960"/>
<path d="M281.399 259.613C281.479 259.613 281.556 259.584 281.615 259.53C281.674 259.476 281.711 259.402 281.718 259.322L284.913 225.792C285.146 223.461 284.54 221.124 283.204 219.2C281.868 217.277 279.89 215.894 277.626 215.299C277.584 215.286 277.54 215.282 277.496 215.286C277.453 215.291 277.41 215.304 277.372 215.326C277.334 215.347 277.3 215.376 277.273 215.411C277.247 215.446 277.227 215.486 277.217 215.529C277.204 215.571 277.2 215.615 277.205 215.658C277.21 215.702 277.223 215.744 277.245 215.782C277.266 215.82 277.295 215.854 277.33 215.881C277.364 215.907 277.404 215.927 277.446 215.939C279.558 216.495 281.404 217.786 282.651 219.58C283.899 221.375 284.467 223.555 284.254 225.73L281.063 259.273C281.055 259.358 281.081 259.443 281.135 259.509C281.19 259.575 281.268 259.617 281.354 259.625L281.399 259.613Z" fill="#292960"/>
<path d="M284.963 260.871C284.995 260.877 285.028 260.877 285.061 260.871C285.102 260.858 285.139 260.837 285.172 260.81C285.205 260.782 285.231 260.748 285.251 260.71C285.27 260.672 285.282 260.63 285.285 260.588C285.288 260.545 285.283 260.502 285.27 260.461L264.834 194.929C264.822 194.888 264.801 194.85 264.773 194.817C264.746 194.784 264.712 194.756 264.674 194.736C264.636 194.717 264.594 194.705 264.551 194.701C264.509 194.698 264.465 194.703 264.425 194.716C264.383 194.728 264.345 194.749 264.312 194.777C264.279 194.804 264.252 194.838 264.232 194.876C264.212 194.914 264.2 194.956 264.197 194.999C264.193 195.042 264.198 195.085 264.212 195.126L284.655 260.629C284.673 260.698 284.712 260.759 284.768 260.803C284.823 260.847 284.892 260.871 284.963 260.871Z" fill="#292960"/>
<path d="M243.976 194.314L279.735 216.037C279.735 216.037 260.684 221.488 251.353 215.815C242.022 210.143 239.806 201.2 243.976 194.314Z" fill="#B10FC1"/>
<path d="M259.456 254.072C259.456 247.457 262.323 241.452 266.964 237.054C267.687 236.374 268.642 235.996 269.635 235.997H302.346C303.338 235.996 304.292 236.374 305.013 237.054C309.662 241.432 312.525 247.436 312.525 254.072C312.525 261.56 308.859 268.261 303.104 272.741C302.42 273.272 301.578 273.56 300.712 273.56H271.298C270.432 273.559 269.591 273.271 268.906 272.741C263.122 268.241 259.456 261.539 259.456 254.072Z" fill="#E76DFF"/>
<path d="M337.237 209.643L298.516 223.058C298.516 223.058 315.63 232.214 325.735 228.709C335.84 225.205 339.813 217.082 337.237 209.643Z" fill="#B10FC1"/>
<path opacity="0.4" d="M263.315 241.366H308.667C309.652 242.852 310.464 244.446 311.088 246.116H260.894C261.518 244.446 262.33 242.852 263.315 241.366ZM260.521 247.194H311.461C311.775 248.183 312.022 249.192 312.198 250.215H259.768C259.95 249.195 260.202 248.188 260.521 247.202V247.194Z" fill="white"/>
<path d="M75.5177 26.2925H131.258C131.335 26.2925 131.409 26.2619 131.464 26.2073C131.518 26.1527 131.549 26.0787 131.549 26.0015V0.479595C131.549 0.402417 131.518 0.328401 131.464 0.273828C131.409 0.219254 131.335 0.188599 131.258 0.188599H75.5177C75.4413 0.189676 75.3684 0.220809 75.3147 0.275266C75.261 0.329723 75.231 0.403122 75.231 0.479595V26.0015C75.231 26.078 75.261 26.1514 75.3147 26.2059C75.3684 26.2603 75.4413 26.2914 75.5177 26.2925ZM130.984 25.7105H75.8085V0.778797H130.984V25.7105Z" fill="#CCCCCC"/>
<path d="M83.0277 7.14795H123.76V19.3331H83.0277V7.14795Z" fill="#ECECEC"/>
</svg>
