<svg width="467" height="275" viewBox="0 0 467 275" fill="none" xmlns="http://www.w3.org/2000/svg">
<path d="M445.647 268.375L419.532 268.224L85.4657 266.288C63.6695 251.335 40.606 209.753 43.9129 168.879C47.4484 125.281 80.9641 108.505 96.3508 96.8488C113.4 83.9379 135.133 80.7781 151.386 66.2518C166.149 53.0461 176.837 35.6564 193.477 24.4926C216.606 8.97649 244.602 0.766084 272.439 1.39005C305.195 2.12669 351.53 11.15 372.124 39.0692C388.399 61.1404 387.043 91.6681 398.95 116.384C406.395 131.862 433.626 131.798 449.063 154.628C490.692 216.157 445.725 261.785 445.647 268.375Z" fill="white"/>
<path d="M242.573 50.1426L242.408 49.9896C242.408 49.9896 242.746 49.6238 243.388 49.0374L243.541 49.2043C242.907 49.7789 242.577 50.1426 242.573 50.1426Z" fill="#21193E"/>
<path d="M331.054 74.5424L330.828 74.5305C330.842 74.2403 330.85 73.948 330.85 73.6598C330.849 73.0622 330.818 72.465 330.756 71.8707L330.981 71.8468C331.044 72.4477 331.076 73.0516 331.076 73.6558C331.08 73.952 331.068 74.2482 331.054 74.5424ZM330.285 69.2605C330.062 68.4019 329.78 67.5596 329.441 66.7399L329.651 66.6544C329.993 67.484 330.278 68.3362 330.504 69.2049L330.285 69.2605ZM328.28 64.3444C327.846 63.57 327.372 62.8182 326.861 62.0921L327.046 61.9609C327.561 62.6943 328.04 63.4534 328.479 64.2351L328.28 64.3444ZM325.235 59.971C324.683 59.311 324.08 58.6451 323.447 57.9831L323.608 57.8261C324.245 58.4841 324.852 59.154 325.408 59.814L325.235 59.971ZM321.529 56.1364C320.891 55.5539 320.211 54.9675 319.507 54.389L319.651 54.214C320.358 54.7945 321.042 55.3849 321.68 55.9674L321.529 56.1364ZM317.403 52.743C316.711 52.2261 315.98 51.7033 315.233 51.1864L315.36 50.9996C316.111 51.5184 316.844 52.0432 317.546 52.5621L317.403 52.743ZM312.995 49.7194C312.265 49.2522 311.5 48.7791 310.721 48.3139L310.836 48.1151C311.617 48.5823 312.385 49.0554 313.118 49.5246L312.995 49.7194ZM245.574 47.475L245.435 47.2981C246.122 46.7574 246.85 46.2206 247.597 45.7078L247.726 45.8946C246.987 46.4055 246.264 46.9383 245.578 47.475H245.574ZM308.408 46.9741C307.629 46.5367 306.838 46.1073 306.057 45.6998L306.162 45.501C306.945 45.9105 307.736 46.3399 308.517 46.7793L308.408 46.9741ZM303.67 44.4932C302.875 44.0956 302.05 43.7218 301.247 43.362L301.341 43.1632C302.136 43.523 302.962 43.9047 303.769 44.2983L303.67 44.4932ZM249.968 44.4415L249.851 44.2427C250.61 43.7815 251.395 43.3362 252.184 42.9147L252.291 43.1135C251.508 43.537 250.727 43.9803 249.972 44.4415H249.968ZM298.789 42.3104C297.96 41.9725 297.121 41.6484 296.297 41.3443L296.376 41.1336C297.201 41.4357 298.043 41.7618 298.874 42.1017L298.789 42.3104ZM254.682 41.9287L254.587 41.7299C255.394 41.3562 256.224 40.9984 257.053 40.6704L257.137 40.8692C256.316 41.1972 255.489 41.557 254.686 41.9287H254.682ZM293.773 40.4696C292.92 40.1933 292.059 39.9329 291.215 39.6923L291.276 39.4757C292.125 39.7142 292.988 39.9766 293.842 40.2549L293.773 40.4696ZM259.645 39.9567L259.573 39.742C260.416 39.4598 261.28 39.1954 262.139 38.9588L262.199 39.1775C261.348 39.4081 260.487 39.6744 259.649 39.9567H259.645ZM288.629 39.0204C287.759 38.8216 286.88 38.6228 286.018 38.4559L286.059 38.2332C286.928 38.4002 287.808 38.591 288.681 38.7998L288.629 39.0204ZM264.792 38.5413L264.744 38.3207C265.613 38.1318 266.501 37.9648 267.382 37.8237L267.418 38.0483C266.545 38.1875 265.661 38.3545 264.796 38.5413H264.792ZM283.382 38.0165C282.5 37.8853 281.608 37.776 280.729 37.6905L280.751 37.4639C281.633 37.5514 282.54 37.6627 283.414 37.7919L283.382 38.0165ZM270.067 37.7044L270.043 37.4798C270.927 37.3864 271.832 37.3148 272.718 37.2691L272.73 37.4957C271.855 37.5335 270.949 37.603 270.067 37.6965V37.7044ZM278.07 37.4917C277.188 37.448 276.297 37.4241 275.423 37.4241L275.399 37.1975H275.425C276.301 37.1975 277.196 37.2214 278.082 37.2651L278.07 37.4917Z" fill="#666666"/>
<path d="M92.5612 11.7761C91.1919 15.3166 91.6549 19.348 90.375 22.9183C89.1349 26.3554 86.4002 29.0351 83.4569 31.2079C81.2707 32.8181 78.8521 34.3349 77.6457 36.7582C74.9846 42.0977 79.5258 48.8586 77.2085 54.3572C76.1492 56.8739 73.7345 58.824 73.4046 61.5355C73.1522 63.6129 74.2651 65.6962 75.9028 66.9983C77.5404 68.3004 79.6311 68.9127 81.708 69.1671C83.4755 69.3838 85.264 69.3637 87.0263 69.1075C89.0137 68.8292 90.9216 68.2328 92.8812 67.871C96.9854 67.1079 101.21 67.2942 105.231 68.4157C108.292 69.2725 111.273 70.6779 114.452 70.7077C116.527 70.7256 118.564 70.1511 120.514 69.4414C122.645 68.6662 124.749 67.7 126.431 66.1793C128.845 63.9926 130.181 60.8537 130.968 57.6929C131.755 54.5321 132.061 51.2699 132.816 48.1032C133.793 44.0235 135.5 40.1543 137.854 36.6826C138.848 35.2215 139.973 33.7962 140.486 32.1104C140.808 30.9421 140.909 29.7238 140.784 28.5183C140.551 25.9356 139.697 23.4476 138.294 21.2668C136.891 19.086 134.982 17.277 132.729 15.9944C131.608 15.3722 130.401 14.8772 129.404 14.0721C128.406 13.267 127.627 12.128 126.874 11.0445C125.473 9.0288 124.004 7.0621 122.466 5.14442C121.671 4.15047 120.844 3.15651 119.775 2.48062C118.519 1.68545 117.016 1.35944 115.54 1.14872C107.769 0.0295271 95.7152 3.62566 92.5612 11.7761Z" fill="#B10FC1"/>
<path d="M132.759 245.27C132.759 245.27 131.169 260.893 134.365 262.664C140.14 265.875 150.791 268.934 149.898 271.692C149.006 274.449 123.478 274.554 122.768 272.041C122.059 269.529 124.92 261.838 121.89 246.869L132.759 245.27Z" fill="#F2CA95"/>
<path d="M123.025 266.427C122.752 269.224 122.516 271.145 122.768 272.039C123.478 274.552 149.002 274.445 149.898 271.689C150.56 269.644 144.93 267.34 139.564 265.046C138.302 267.173 135.611 270.485 123.025 266.427Z" fill="#4D6AB5"/>
<path d="M84.8759 244.823C84.8759 244.823 80.6566 259.947 83.4966 262.237C88.64 266.382 98.6149 271.212 97.2674 273.767C95.9199 276.321 70.7454 272.089 70.4751 269.491C70.2049 266.893 74.3307 259.804 73.8935 244.537L84.8759 244.823Z" fill="#F2CA95"/>
<path d="M71.6818 264.016C70.9365 266.726 70.378 268.577 70.4754 269.501C70.7457 272.099 95.9142 276.339 97.2676 273.777C98.2613 271.875 93.104 268.644 88.2229 265.472C86.6151 267.35 83.3935 270.155 71.6818 264.016Z" fill="#4D6AB5"/>
<path d="M142.519 66.1873C142.519 66.1873 147.885 73.3716 152.35 73.3716C156.816 73.3716 169.925 59.0586 169.925 59.0586L175.589 60.1341C175.589 60.1341 162.852 87.9052 151.233 88.1278C139.615 88.3505 130.898 75.3893 131.123 74.7134C131.347 74.0375 138.719 66.1873 138.719 66.1873H142.519Z" fill="#F2CA95"/>
<path d="M129.782 106.786C129.782 106.786 136.712 115.187 139.844 125.021C142.976 134.856 134.677 251.373 134.677 251.373H120.812C120.812 251.373 113.459 147.604 113.459 146.688C113.459 143.064 86.1759 251.373 86.1759 251.373H72.3435C72.3435 251.373 79.8301 124.554 97.202 106.786L113.459 107.792L129.782 106.786Z" fill="#333372"/>
<path d="M129.781 102.425V106.784C129.781 106.784 121.514 114.829 97.2138 106.784L97.1621 102.425L118.501 101.083L129.781 102.425Z" fill="#21193E"/>
<path d="M121.52 49.8604C121.52 49.8604 130.131 49.5404 134.502 52.558C137.628 54.7149 144.53 66.8889 144.53 66.8889L136.606 73.6259C136.606 73.6259 138.496 80.9812 131.119 84.6568L129.782 102.425C129.782 102.425 115.927 110.474 97.1624 102.425C97.1624 102.425 93.5851 69.1233 90.2363 72.0276C88.2921 73.694 86.4967 75.5265 84.8703 77.5043L72.3496 65.0998C72.3496 65.0998 85.9912 51.4289 90.5046 49.2859C101.095 44.2585 109.659 49.0871 109.659 49.0871L121.52 49.8604Z" fill="#E31587"/>
<path d="M83.6977 76.3456C83.6977 76.3456 76.4337 84.826 77.2724 87.1737C78.1111 89.5214 90.9339 108.842 92.649 112.51C94.3641 116.177 93.8633 118.352 93.8633 118.352L87.3267 121.533C87.3267 121.533 86.9869 116.364 85.5639 114.839C84.1409 113.315 62.5239 91.0243 63.0267 83.9831C63.5295 76.9419 73.4507 66.1833 73.4507 66.1833L83.6977 76.3456Z" fill="#F2CA95"/>
<path d="M125.3 22.5963C125.3 22.5963 126.248 20.7376 127.232 21.3379C129.744 22.8666 127.52 25.5324 126.04 26.2202L125.3 22.5963Z" fill="#F2CA95"/>
<path d="M108.383 3.27786C101.376 4.54416 96.3454 10.9711 96.7787 18.0799C96.9127 20.3245 97.5789 22.5051 98.7224 24.4412C101.226 29.1267 103.283 32.8958 105.611 35.5476C107.985 38.2102 109.263 41.6735 109.188 45.2407L109.087 48.8488C117.752 52.0115 121.136 49.8427 121.136 49.8427L119.944 39.3068C128.688 37.2354 125.638 21.0041 125.083 16.1675H125.071C125.057 15.9866 125.044 15.8037 125.022 15.6208C124.801 13.6906 124.187 11.8263 123.216 10.1434C122.246 8.4606 120.94 6.9951 119.38 5.83783C117.82 4.68055 116.039 3.85617 114.147 3.41581C112.256 2.97545 110.294 2.9285 108.383 3.27786Z" fill="#F2CA95"/>
<path d="M108.9 17.6583C106.757 20.8688 104.452 24.0415 102.985 27.5979C102.822 27.9955 101.687 30.9256 102.143 31.196C99.6583 29.719 97.8995 27.2937 96.3791 24.8347C93.7279 20.5825 93.7339 15.1118 95.8743 10.6529C97.9889 6.24572 102.081 3.61174 106.805 2.67742C111.877 1.68347 117.658 2.75495 121.275 6.67114C124.672 10.3468 125.383 15.404 126.264 20.1233C125.27 14.8255 117.642 11.6628 113.125 10.2693C113.256 10.309 110.452 15.239 110.301 15.4915C109.846 16.227 109.377 16.9447 108.9 17.6583Z" fill="#B10FC1"/>
<path d="M103.472 27.9001C103.188 27.4732 102.757 27.1645 102.262 27.0314C101.244 26.7491 99.4796 26.5165 98.4342 27.8265C96.9019 29.7548 100.907 33.9453 104.088 31.2716C104.088 31.2776 104.959 30.1822 103.472 27.9001Z" fill="#F2CA95"/>
<path d="M90.2699 108.701C90.2699 108.701 95.944 116.666 95.3736 118.527C94.8032 120.388 92.3646 125.586 92.1758 126.502C91.987 127.419 92.1023 132.351 91.5995 133.116C91.0967 133.882 89.8903 127.826 89.8903 127.826C89.8903 127.826 90.1964 133.138 89.2702 133.47C88.3441 133.802 87.5233 128.137 87.5233 128.137C87.5233 128.137 88.0043 133.504 87.098 133.54C86.1917 133.575 85.6551 128.359 85.6551 128.359C85.6551 128.359 85.9692 132.534 85.2577 132.546C84.5462 132.558 82.9404 125.721 84.3474 123.32C87.6724 117.644 86.6966 114.609 86.6966 114.609L90.2699 108.701Z" fill="#F2CA95"/>
<path d="M93.9208 114.44C93.9208 114.44 96.7409 119.173 96.7747 120.976C96.8085 122.779 97.3292 126.441 96.5561 126.431C95.783 126.421 94.7296 121.352 94.1712 121.137C93.6127 120.923 93.6028 118.632 93.6028 118.632L93.9208 114.44Z" fill="#F2CA95"/>
<path d="M136.606 73.8586C136.551 73.8587 136.497 73.8387 136.454 73.8022C136.412 73.7657 136.384 73.7152 136.376 73.6598C136.376 73.6181 135.831 69.4176 132.584 66.3622C132.561 66.3416 132.543 66.3166 132.53 66.2888C132.518 66.261 132.511 66.2309 132.51 66.2003C132.509 66.1697 132.514 66.1393 132.525 66.1107C132.536 66.0822 132.553 66.0562 132.574 66.0342C132.618 65.9909 132.677 65.9666 132.738 65.9666C132.799 65.9666 132.858 65.9909 132.902 66.0342C136.281 69.2149 136.817 73.4352 136.837 73.6141C136.844 73.6747 136.828 73.7357 136.791 73.784C136.753 73.8323 136.699 73.8641 136.638 73.8725L136.606 73.8586Z" fill="#21193E"/>
<path d="M118.314 112.166C117.503 112.166 116.71 111.926 116.035 111.475C115.361 111.025 114.835 110.384 114.524 109.635C114.214 108.885 114.132 108.061 114.291 107.265C114.449 106.469 114.839 105.738 115.413 105.165C115.986 104.591 116.717 104.2 117.513 104.042C118.308 103.884 119.133 103.965 119.882 104.276C120.631 104.587 121.271 105.113 121.722 105.787C122.172 106.462 122.412 107.255 122.412 108.066C122.41 109.153 121.978 110.195 121.21 110.963C120.442 111.732 119.4 112.164 118.314 112.166ZM118.314 105.828C117.871 105.828 117.438 105.959 117.07 106.204C116.702 106.45 116.415 106.799 116.245 107.208C116.075 107.617 116.031 108.068 116.117 108.502C116.203 108.936 116.416 109.335 116.729 109.649C117.042 109.962 117.44 110.175 117.875 110.262C118.309 110.348 118.759 110.304 119.168 110.135C119.577 109.965 119.926 109.678 120.172 109.31C120.418 108.942 120.55 108.509 120.55 108.066C120.549 107.473 120.314 106.905 119.894 106.485C119.475 106.065 118.907 105.829 118.314 105.828Z" fill="#BDD1F9"/>
<path d="M169.464 60.0009C169.464 60.0009 173.157 52.1506 174.83 51.7948C176.504 51.4389 181.587 51.0553 182.382 50.8008C183.177 50.5464 186.937 48.3179 187.748 48.3736C188.559 48.4292 184.409 51.9936 184.409 51.9936C184.409 51.9936 188.384 49.451 189.042 50.0216C189.7 50.5921 185.677 53.6893 185.677 53.6893C185.677 53.6893 189.62 50.9837 190.038 51.6715C190.455 52.3594 186.659 55.0391 186.659 55.0391C186.659 55.0391 189.754 52.9816 190.072 53.5342C190.389 54.0868 185.801 58.2933 183.336 58.2456C177.505 58.1402 175.585 60.2136 175.585 60.2136L169.464 60.0009Z" fill="#F2CA95"/>
<path d="M223.621 67.2548L240.554 54.1306L258.051 56.2815L223.621 67.2548Z" fill="#ECECEC"/>
<path d="M235.859 53.0093L223.621 67.2547L225.231 50.5642L235.859 53.0093Z" fill="#ECECEC"/>
<path d="M247.436 59.6648L248.273 62.3485L223.621 67.2546L247.436 59.6648Z" fill="#999999"/>
<path d="M235.859 53.0093L237.004 56.8817L223.621 67.2547L235.859 53.0093Z" fill="#999999"/>
<path d="M0 153.566L16.5273 157.246L24.0496 168.978L0 153.566Z" fill="white"/>
<path d="M14.84 153.822L0 153.566L10.9625 146.121L14.84 153.822Z" fill="white"/>
<path d="M16.6346 164.227L15.4263 166.09L0 153.566L16.6346 164.227Z" fill="#999999"/>
<path d="M14.84 153.822L13.0612 156.474L0 153.566L14.84 153.822Z" fill="#999999"/>
<path d="M75.5156 168.791C75.1082 168.791 74.7007 168.791 74.3013 168.777V168.61C74.9611 168.624 75.6388 168.626 76.3145 168.61V168.779L75.5156 168.791ZM78.3377 168.724V168.557C78.9955 168.527 79.6713 168.485 80.349 168.433L80.3609 168.6C79.6732 168.652 78.9975 168.694 78.3377 168.724ZM72.2841 168.698C71.6083 168.656 70.9306 168.602 70.2708 168.537L70.2887 168.37C70.9465 168.435 71.6203 168.489 72.294 168.529L72.2841 168.698ZM82.3642 168.42L82.3463 168.253C83.0002 168.183 83.6739 168.103 84.3476 168.016L84.3695 168.183C83.6938 168.27 83.02 168.35 82.3642 168.424V168.42ZM68.2675 168.29C67.5938 168.193 66.924 168.08 66.2801 167.954L66.3119 167.789C66.9578 167.915 67.6256 168.028 68.2993 168.125L68.2675 168.29ZM86.3688 167.893L86.343 167.728C86.9968 167.624 87.6646 167.513 88.3304 167.396L88.3582 167.561C87.6924 167.684 87.0266 167.795 86.3688 167.897V167.893ZM64.3086 167.513C63.6508 167.35 62.9969 167.167 62.3629 166.972L62.4106 166.811C63.0426 167.01 63.6945 167.187 64.3503 167.35L64.3086 167.513ZM90.3436 167.185L90.3118 167.02C90.9597 166.889 91.6235 166.75 92.2833 166.603L92.3191 166.768C91.6553 166.917 91.0015 167.058 90.3416 167.189L90.3436 167.185ZM60.4451 166.322C59.8111 166.084 59.1831 165.827 58.5749 165.555L58.6445 165.402C59.2407 165.672 59.8747 165.929 60.5047 166.163L60.4451 166.322ZM94.2866 166.322L94.2469 166.159C94.8928 166.004 95.5506 165.839 96.2025 165.67L96.2442 165.833C95.5904 165.996 94.9306 166.161 94.2847 166.316L94.2866 166.322ZM98.1959 165.308L98.1502 165.147C98.7941 164.969 99.4479 164.782 100.092 164.591L100.14 164.752C99.4936 164.937 98.8378 165.124 98.1939 165.303L98.1959 165.308ZM56.7584 164.682C56.1622 164.368 55.566 164.03 55.0036 163.688L55.093 163.543C55.6574 163.893 56.2437 164.229 56.8359 164.537L56.7584 164.682ZM102.071 164.167L102.02 164.006C102.652 163.808 103.3 163.609 103.941 163.394L103.993 163.553C103.353 163.758 102.705 163.965 102.073 164.161L102.071 164.167ZM105.905 162.915L105.851 162.756C106.481 162.541 107.119 162.319 107.749 162.094L107.807 162.253C107.177 162.472 106.537 162.694 105.907 162.909L105.905 162.915ZM53.3182 162.559C52.7737 162.162 52.2351 161.75 51.7283 161.323L51.8356 161.193C52.3484 161.619 52.883 162.032 53.4256 162.422L53.3182 162.559ZM109.705 161.565L109.645 161.406C110.267 161.178 110.901 160.939 111.533 160.697L111.593 160.854C110.963 161.09 110.329 161.329 109.707 161.559L109.705 161.565ZM113.481 160.12L113.419 159.965C114.047 159.714 114.671 159.463 115.29 159.212L115.353 159.367C114.73 159.616 114.105 159.865 113.477 160.114L113.481 160.12ZM50.2179 159.977C49.7349 159.516 49.2599 159.029 48.8068 158.532L48.932 158.416C49.3812 158.913 49.8542 159.396 50.3331 159.856L50.2179 159.977ZM33.1262 159.691H32.5677V159.522C33.2355 159.534 33.9072 159.522 34.577 159.494V159.663C34.104 159.677 33.6111 159.677 33.1282 159.677L33.1262 159.691ZM30.5425 159.589C29.8748 159.538 29.1991 159.462 28.5353 159.369L28.5591 159.202C29.2189 159.295 29.8907 159.369 30.5565 159.422L30.5425 159.589ZM36.5942 159.508L36.5763 159.341C37.2381 159.271 37.9079 159.18 38.5637 159.07L38.5915 159.235C37.9377 159.341 37.2679 159.432 36.6041 159.502L36.5942 159.508ZM26.5439 159.025C25.89 158.889 25.2282 158.734 24.5783 158.56L24.6221 158.397C25.268 158.569 25.9278 158.726 26.5777 158.86L26.5439 159.025ZM40.577 158.846L40.5412 158.683C41.1891 158.536 41.8429 158.367 42.4869 158.182L42.5346 158.345C41.8966 158.524 41.2388 158.693 40.5869 158.84L40.577 158.846ZM117.203 158.593L117.138 158.438C117.762 158.173 118.381 157.908 118.994 157.643L119.06 157.798C118.454 158.062 117.839 158.325 117.213 158.587L117.203 158.593ZM22.6426 157.979C22.0106 157.78 21.3726 157.538 20.7446 157.289L20.8062 157.132C21.4323 157.381 22.0682 157.611 22.6963 157.82L22.6426 157.979ZM44.4564 157.737L44.4007 157.577C45.0268 157.361 45.6588 157.122 46.2788 156.87L46.3424 157.025C45.7283 157.273 45.0924 157.512 44.4663 157.731L44.4564 157.737ZM47.4832 156.993C47.0559 156.462 46.6386 155.926 46.2431 155.403L46.3782 155.301C46.7757 155.826 47.1871 156.361 47.6124 156.892L47.4832 156.993ZM120.91 156.993L120.84 156.838C121.46 156.564 122.074 156.288 122.681 156.011L122.75 156.164C122.151 156.434 121.541 156.707 120.92 156.983L120.91 156.993ZM48.1907 156.222L48.1212 156.069C48.7174 155.788 49.3255 155.486 49.9098 155.174L49.9893 155.321C49.411 155.627 48.8048 155.929 48.2007 156.212L48.1907 156.222ZM124.589 155.303L124.517 155.15C125.135 154.862 125.741 154.576 126.342 154.287L126.415 154.439C125.818 154.729 125.209 155.017 124.589 155.303ZM51.7641 154.323L51.6786 154.178C52.249 153.84 52.8234 153.482 53.3818 153.115L53.4752 153.256C52.9168 153.627 52.3404 153.987 51.7681 154.327L51.7641 154.323ZM45.0685 153.751C44.681 153.188 44.3053 152.622 43.9556 152.065L44.0987 151.976C44.4464 152.53 44.8201 153.095 45.2076 153.655L45.0685 153.751ZM128.232 153.552L128.158 153.401C128.77 153.1 129.373 152.802 129.967 152.506L130.042 152.655C129.454 152.963 128.852 153.266 128.236 153.564L128.232 153.552ZM55.1407 152.123L55.0413 151.987C55.5819 151.59 56.1225 151.192 56.6471 150.773L56.7505 150.904C56.2218 151.316 55.6832 151.725 55.1407 152.123ZM131.855 151.763L131.777 151.614C132.389 151.3 132.985 150.991 133.566 150.687L133.645 150.836C133.059 151.129 132.459 151.443 131.849 151.757L131.855 151.763ZM42.9221 150.334C42.5862 149.737 42.2663 149.141 41.9721 148.544L42.1232 148.471C42.4153 149.057 42.7333 149.654 43.0692 150.246L42.9221 150.334ZM135.43 149.886L135.35 149.737C135.961 149.411 136.555 149.093 137.127 148.781L137.209 148.928C136.635 149.242 136.042 149.562 135.43 149.888V149.886ZM58.3185 149.61L58.2092 149.483C58.714 149.045 59.2169 148.592 59.7038 148.133L59.819 148.256C59.3202 148.717 58.8154 149.173 58.3086 149.612L58.3185 149.61ZM138.989 147.956L138.908 147.809C139.524 147.467 140.111 147.136 140.669 146.815L140.752 146.962C140.188 147.284 139.597 147.616 138.979 147.958L138.989 147.956ZM61.2599 146.839L61.1387 146.721C61.6057 146.242 62.0688 145.747 62.514 145.25L62.6392 145.362C62.1841 145.863 61.719 146.358 61.25 146.841L61.2599 146.839ZM41.1175 146.719C40.8492 146.093 40.6008 145.459 40.3822 144.837L40.5412 144.781C40.7578 145.4 41.0043 146.03 41.2706 146.654L41.1175 146.719ZM142.497 145.96L142.414 145.815C143.047 145.448 143.629 145.107 144.159 144.793L144.244 144.938C143.715 145.254 143.133 145.594 142.497 145.96ZM145.979 143.897L145.894 143.752C147.001 143.08 147.613 142.686 147.619 142.682L147.71 142.823C147.71 142.823 147.09 143.227 145.979 143.903V143.897ZM63.9429 143.821L63.8117 143.716C64.239 143.193 64.6544 142.66 65.0499 142.125L65.185 142.225C64.7876 142.768 64.3702 143.304 63.9429 143.827V143.821ZM39.784 142.901C39.6051 142.243 39.4541 141.579 39.3328 140.931L39.4978 140.899C39.6171 141.543 39.7681 142.203 39.947 142.857L39.784 142.901ZM66.3576 140.593L66.2185 140.499C66.5961 139.939 66.9598 139.366 67.3016 138.802L67.4447 138.887C67.0989 139.448 66.7332 140.022 66.3576 140.593ZM39.0526 138.941C38.989 138.275 38.9572 137.609 38.9572 136.953V136.915H39.1301V136.953C39.1301 137.599 39.1619 138.261 39.2255 138.921L39.0526 138.941ZM68.4424 137.13L68.2933 137.05C68.6133 136.454 68.9134 135.844 69.1857 135.245L69.3387 135.317C69.0605 135.907 68.7584 136.518 68.4384 137.122L68.4424 137.13ZM39.2275 134.919L39.0606 134.901C39.1319 134.233 39.2394 133.57 39.3825 132.913L39.5455 132.949C39.4059 133.597 39.2997 134.252 39.2275 134.911V134.919ZM70.1158 133.436L69.9588 133.377C70.2013 132.737 70.4179 132.094 70.6007 131.472L70.7617 131.518C70.5769 132.152 70.3602 132.798 70.1158 133.436ZM40.0801 130.993L39.9211 130.939C40.1373 130.301 40.388 129.674 40.6724 129.063L40.8254 129.132C40.5432 129.741 40.2944 130.364 40.0801 130.999V130.993ZM71.2446 129.554L71.0797 129.52C71.2101 128.863 71.303 128.2 71.3579 127.532L71.5269 127.546C71.4697 128.222 71.3755 128.894 71.2446 129.56V129.554ZM41.7694 127.367L41.6263 127.28C41.977 126.703 42.3571 126.144 42.7651 125.606L42.8983 125.707C42.4937 126.242 42.1169 126.797 41.7694 127.371V127.367ZM71.3818 125.534C71.3457 124.868 71.2506 124.206 71.0976 123.556L71.2605 123.517C71.4157 124.176 71.5121 124.848 71.5487 125.524L71.3818 125.534ZM44.1801 124.171L44.0569 124.055C44.51 123.568 44.997 123.091 45.5018 122.638L45.6131 122.763C45.1202 123.216 44.6372 123.695 44.1881 124.175L44.1801 124.171ZM70.4298 121.678C70.3602 121.537 70.2867 121.397 70.2112 121.262C69.9612 120.819 69.6676 120.402 69.3347 120.018L69.4619 119.909C69.803 120.301 70.1033 120.727 70.3583 121.181C70.4358 121.318 70.5093 121.461 70.5808 121.604L70.4298 121.678ZM47.1771 121.493L47.0758 121.36C47.6124 120.962 48.1748 120.576 48.7492 120.221L48.8366 120.364C48.2722 120.714 47.7078 121.111 47.1771 121.497V121.493ZM50.5875 119.376L50.51 119.225C51.1063 118.921 51.7263 118.628 52.3484 118.378L52.412 118.533C51.7939 118.791 51.1798 119.076 50.5875 119.38V119.376ZM67.8581 118.694C67.309 118.317 66.7214 117.999 66.1052 117.746L66.1688 117.591C66.7976 117.848 67.3972 118.172 67.9575 118.557L67.8581 118.694ZM54.298 117.843L54.2483 117.684C54.8923 117.485 55.5501 117.298 56.2 117.149L56.2377 117.314C55.5918 117.463 54.94 117.642 54.298 117.847V117.843ZM64.1973 117.143C63.5427 116.996 62.8786 116.895 62.2099 116.841L62.2238 116.672C62.8979 116.729 63.5672 116.832 64.2271 116.98L64.1973 117.143ZM58.2092 116.96L58.1874 116.793C58.8566 116.704 59.5298 116.648 60.2046 116.626V116.793C59.5607 116.815 58.8869 116.871 58.2092 116.96Z" fill="#666666"/>
<path d="M152.325 128.184L267.881 68.4675C269.324 67.7209 270.926 67.3313 272.551 67.3313C274.176 67.3313 275.778 67.7209 277.222 68.4675L392.775 128.184V217.857C392.775 220.556 391.703 223.145 389.795 225.054C387.887 226.963 385.299 228.035 382.6 228.035H162.5C161.164 228.035 159.841 227.772 158.606 227.26C157.372 226.749 156.25 225.999 155.305 225.054C154.36 224.109 153.611 222.987 153.1 221.752C152.588 220.517 152.325 219.194 152.325 217.857V128.184Z" fill="#F8A008"/>
<path d="M368.379 79.3213H188.961C181.229 79.3213 174.961 85.5893 174.961 93.3213V245.681C174.961 253.413 181.229 259.681 188.961 259.681H368.379C376.111 259.681 382.379 253.413 382.379 245.681V93.3213C382.379 85.5893 376.111 79.3213 368.379 79.3213Z" fill="#EBF6FF"/>
<path d="M311.786 104.777H242.163C241.949 104.777 241.776 104.95 241.776 105.164V106.576C241.776 106.79 241.949 106.963 242.163 106.963H311.786C312 106.963 312.174 106.79 312.174 106.576V105.164C312.174 104.95 312 104.777 311.786 104.777Z" fill="white"/>
<path d="M311.786 120.815H242.163C241.949 120.815 241.776 120.988 241.776 121.203V122.614C241.776 122.828 241.949 123.002 242.163 123.002H311.786C312 123.002 312.174 122.828 312.174 122.614V121.203C312.174 120.988 312 120.815 311.786 120.815Z" fill="white"/>
<path d="M221.761 187.951H309.891C310.006 187.951 310.118 187.997 310.2 188.079C310.282 188.161 310.328 188.272 310.328 188.388V189.702C310.328 189.759 310.316 189.816 310.295 189.869C310.273 189.922 310.241 189.97 310.2 190.01C310.16 190.051 310.112 190.083 310.059 190.104C310.006 190.126 309.95 190.138 309.892 190.138H221.761C221.704 190.138 221.647 190.126 221.594 190.104C221.542 190.083 221.494 190.051 221.453 190.01C221.413 189.97 221.381 189.922 221.359 189.869C221.337 189.816 221.326 189.759 221.326 189.702V188.388C221.326 188.273 221.371 188.162 221.453 188.08C221.535 187.998 221.645 187.951 221.761 187.951Z" fill="white"/>
<path d="M309.892 205.447H221.761C221.521 205.447 221.326 205.641 221.326 205.882V207.198C221.326 207.438 221.521 207.633 221.761 207.633H309.892C310.133 207.633 310.328 207.438 310.328 207.198V205.882C310.328 205.641 310.133 205.447 309.892 205.447Z" fill="#B6CBEF"/>
<path d="M343.833 196.698H221.761C221.521 196.698 221.326 196.892 221.326 197.133V198.449C221.326 198.689 221.521 198.884 221.761 198.884H343.833C344.074 198.884 344.269 198.689 344.269 198.449V197.133C344.269 196.892 344.074 196.698 343.833 196.698Z" fill="white"/>
<path d="M311.786 164.557H242.163C241.949 164.557 241.776 164.731 241.776 164.945V166.356C241.776 166.57 241.949 166.744 242.163 166.744H311.786C312 166.744 312.174 166.57 312.174 166.356V164.945C312.174 164.731 312 164.557 311.786 164.557Z" fill="white"/>
<path d="M329.212 131.75H224.738C224.555 131.75 224.406 131.899 224.406 132.082V133.605C224.406 133.789 224.555 133.937 224.738 133.937H329.212C329.395 133.937 329.544 133.789 329.544 133.605V132.082C329.544 131.899 329.395 131.75 329.212 131.75Z" fill="white"/>
<path d="M329.212 144.145H224.738C224.555 144.145 224.406 144.294 224.406 144.477V146C224.406 146.183 224.555 146.332 224.738 146.332H329.212C329.395 146.332 329.544 146.183 329.544 146V144.477C329.544 144.294 329.395 144.145 329.212 144.145Z" fill="white"/>
<path d="M329.212 154.351H224.738C224.555 154.351 224.406 154.5 224.406 154.683V156.206C224.406 156.389 224.555 156.538 224.738 156.538H329.212C329.395 156.538 329.544 156.389 329.544 156.206V154.683C329.544 154.5 329.395 154.351 329.212 154.351Z" fill="white"/>
<path d="M392.773 128.184V268.27H152.325V128.184L263.652 203.54H283.367L392.773 128.184Z" fill="#FF9200"/>
<path d="M152.322 268.375L274.059 198.368L392.7 267.787L152.322 268.375Z" fill="#FF651D"/>
<path d="M320.461 236.273L347.474 223.519L370.647 231.731L320.461 236.273Z" fill="white"/>
<path d="M341.423 220.572L320.461 236.273L327.688 214.038L341.423 220.572Z" fill="white"/>
<path d="M355.175 233.13L355.503 237.036L320.461 236.273L355.175 233.13Z" fill="#999999"/>
<path d="M341.423 220.573L341.81 226.192L320.461 236.273L341.423 220.573Z" fill="#999999"/>
<path d="M359.379 215.595L359.337 215.372C359.685 215.308 360.045 215.233 360.406 215.149L360.458 215.368C360.096 215.454 359.729 215.537 359.379 215.595ZM363.073 214.601L363 214.386C363.821 214.102 364.667 213.764 365.514 213.392L365.605 213.591C364.753 213.975 363.9 214.315 363.077 214.603L363.073 214.601ZM368.052 212.388L367.945 212.189C368.72 211.772 369.509 211.317 370.29 210.832L370.409 211.03C369.624 211.514 368.841 211.973 368.046 212.39L368.052 212.388ZM372.683 209.524L372.553 209.339C373.281 208.828 374.014 208.287 374.739 207.725L374.879 207.903C374.149 208.47 373.412 209.015 372.683 209.526V209.524ZM376.979 206.178L376.83 206.007C377.508 205.425 378.188 204.814 378.847 204.194L379.002 204.359C378.341 204.983 377.659 205.598 376.989 206.18L376.979 206.178ZM380.954 202.451L380.793 202.292C381.415 201.654 382.039 200.988 382.645 200.304L382.814 200.455C382.196 201.143 381.57 201.82 380.944 202.453L380.954 202.451ZM384.591 198.401L384.418 198.258C384.991 197.564 385.559 196.849 386.106 196.133L386.286 196.272C385.734 196.992 385.157 197.708 384.581 198.403L384.591 198.401ZM387.894 194.076L387.709 193.946C388.228 193.211 388.739 192.455 389.23 191.698L389.418 191.821C388.914 192.583 388.405 193.342 387.884 194.078L387.894 194.076ZM390.855 189.503L390.657 189.388C391.118 188.611 391.571 187.818 392 187.03L392.199 187.14C391.764 187.939 391.311 188.734 390.845 189.513L390.855 189.503ZM374.505 184.81H374.173V184.585C375.061 184.585 375.962 184.569 376.88 184.518L376.894 184.744C376.083 184.798 375.28 184.82 374.495 184.82L374.505 184.81ZM393.465 184.728L393.266 184.627C393.664 183.82 394.061 182.997 394.431 182.178L394.629 182.271C394.25 183.102 393.858 183.929 393.455 184.738L393.465 184.728ZM371.452 184.693C370.536 184.621 369.626 184.514 368.745 184.377L368.781 184.152C369.656 184.289 370.56 184.394 371.47 184.466L371.452 184.693ZM379.601 184.508L379.575 184.283C380.455 184.182 381.364 184.053 382.258 183.899L382.296 184.122C381.387 184.287 380.481 184.416 379.597 184.526L379.601 184.508ZM366.066 183.846C365.176 183.629 364.296 183.373 363.449 183.086L363.523 182.872C364.363 183.156 365.236 183.41 366.12 183.625L366.066 183.846ZM384.967 183.597L384.917 183.375C385.785 183.176 386.672 182.963 387.55 182.727L387.608 182.945C386.728 183.194 385.835 183.412 384.963 183.607L384.967 183.597ZM390.219 182.176L390.152 181.961C391 181.691 391.865 181.397 392.72 181.087L392.795 181.299C391.935 181.621 391.068 181.916 390.215 182.186L390.219 182.176ZM360.913 182.088C360.084 181.717 359.266 181.293 358.484 180.852L358.596 180.653C359.373 181.099 360.186 181.51 361.005 181.88L360.913 182.088ZM395.337 180.325L395.252 180.114C396.076 179.781 396.915 179.423 397.748 179.051L397.839 179.25C397.002 179.641 396.16 179.999 395.333 180.335L395.337 180.325ZM395.705 179.773L395.494 179.687C395.834 178.854 396.164 178.003 396.474 177.156L396.686 177.236C396.372 178.095 396.041 178.948 395.701 179.783L395.705 179.773ZM356.189 179.375C355.454 178.85 354.736 178.28 354.053 177.681L354.202 177.51C354.879 178.107 355.593 178.669 356.32 179.19L356.189 179.375ZM400.31 178.099L400.21 177.9C401.017 177.502 401.83 177.093 402.629 176.669L402.734 176.868C401.925 177.304 401.11 177.719 400.302 178.115L400.31 178.099ZM352.093 175.791C351.463 175.129 350.863 174.437 350.304 173.733L350.481 173.592C351.034 174.29 351.63 174.984 352.254 175.636L352.093 175.791ZM405.119 175.552L405.006 175.353C405.783 174.91 406.57 174.447 407.343 173.974L407.462 174.173C406.677 174.658 405.89 175.125 405.111 175.568L405.119 175.552ZM397.579 174.658L397.364 174.588C397.642 173.733 397.907 172.861 398.159 172.004L398.376 172.065C398.117 172.942 397.857 173.817 397.571 174.674L397.579 174.658ZM409.764 172.715L409.638 172.517C410.39 172.026 411.149 171.523 411.892 171L412.021 171.187C411.268 171.729 410.509 172.24 409.756 172.731L409.764 172.715ZM348.72 171.523C348.229 170.757 347.772 169.962 347.363 169.157L347.562 169.056C347.959 169.851 348.42 170.646 348.907 171.399L348.72 171.523ZM414.233 169.622L414.1 169.439C414.824 168.907 415.551 168.354 416.262 167.799L416.402 167.976C415.682 168.541 414.949 169.095 414.225 169.63L414.233 169.622ZM399.069 169.424L398.851 169.37C399.065 168.495 399.266 167.605 399.447 166.724L399.668 166.77C399.479 167.672 399.276 168.565 399.061 169.441L399.069 169.424ZM346.252 166.658C345.928 165.815 345.64 164.943 345.399 164.074L345.618 164.012C345.856 164.882 346.139 165.74 346.465 166.581L346.252 166.658ZM418.528 166.261L418.383 166.086C419.077 165.513 419.774 164.921 420.456 164.325L420.605 164.493C419.917 165.108 419.214 165.702 418.526 166.277L418.528 166.261ZM400.174 164.1L399.95 164.06C400.101 163.175 400.236 162.271 400.347 161.378L400.572 161.408C400.453 162.321 400.315 163.225 400.166 164.116L400.174 164.1ZM422.632 162.673L422.479 162.506C423.141 161.891 423.803 161.263 424.445 160.633L424.604 160.794C423.948 161.442 423.284 162.072 422.62 162.688L422.632 162.673ZM344.793 161.424C344.64 160.542 344.527 159.635 344.455 158.719L344.68 158.701C344.752 159.607 344.865 160.51 345.016 161.384L344.793 161.424ZM426.5 158.88L426.337 158.723C426.961 158.076 427.585 157.411 428.189 156.735L428.358 156.886C427.756 157.564 427.132 158.232 426.506 158.882L426.5 158.88ZM400.876 158.723L400.649 158.701C400.737 157.804 400.808 156.894 400.864 155.997L401.089 156.011C401.037 156.912 400.967 157.824 400.882 158.723H400.876ZM344.594 155.997H344.368C344.368 155.105 344.422 154.188 344.501 153.276L344.728 153.296C344.644 154.2 344.594 155.105 344.594 155.997ZM430.16 154.862L429.989 154.715C430.586 154.027 431.16 153.323 431.722 152.626L431.899 152.767C431.333 153.467 430.749 154.172 430.158 154.862H430.16ZM401.216 153.294H400.989C401.007 152.612 401.017 151.916 401.017 151.226C401.017 151.011 401.017 150.797 401.017 150.582H401.236C401.236 150.797 401.236 151.013 401.236 151.228C401.236 151.912 401.236 152.61 401.214 153.294H401.216ZM433.571 150.62L433.39 150.483C433.934 149.759 434.473 149.02 434.98 148.296L435.165 148.427C434.654 149.153 434.115 149.892 433.569 150.62H433.571ZM345.069 150.608L344.845 150.57C344.992 149.688 345.173 148.781 345.383 147.9L345.604 147.952C345.389 148.837 345.213 149.737 345.067 150.608H345.069ZM400.945 147.863C400.908 146.966 400.856 146.056 400.786 145.155L401.013 145.137C401.081 146.042 401.134 146.954 401.172 147.853L400.945 147.863ZM436.699 146.167L436.5 146.042C436.997 145.282 437.482 144.509 437.945 143.744L438.144 143.861C437.681 144.628 437.194 145.404 436.697 146.159L436.699 146.167ZM346.312 145.336L346.095 145.27C346.357 144.416 346.651 143.549 346.971 142.686L347.182 142.766C346.864 143.622 346.57 144.487 346.31 145.336H346.312ZM400.54 142.452C400.445 141.565 400.341 140.662 400.204 139.76L400.429 139.728C400.556 140.629 400.669 141.537 400.765 142.428L400.54 142.452ZM439.507 141.505L439.308 141.396C439.748 140.601 440.173 139.792 440.574 138.995L440.773 139.098C440.374 139.897 439.946 140.706 439.505 141.505H439.507ZM348.2 140.261L348.001 140.169C348.361 139.35 348.75 138.521 349.16 137.708L349.358 137.81C348.943 138.619 348.555 139.444 348.198 140.261H348.2ZM399.787 137.08C399.634 136.194 399.465 135.291 399.284 134.414L399.507 134.369C399.687 135.253 399.856 136.158 400.009 137.042L399.787 137.08ZM441.948 136.643L441.749 136.549C442.123 135.72 442.478 134.882 442.808 134.053L443.019 134.138C442.679 134.965 442.321 135.808 441.946 136.641L441.948 136.643ZM350.632 135.424L350.433 135.313C350.879 134.532 351.354 133.746 351.841 132.979L352.039 133.1C351.55 133.86 351.075 134.643 350.632 135.424ZM398.702 131.765C398.576 131.234 398.443 130.704 398.304 130.174C398.215 129.823 398.123 129.477 398.028 129.136L398.247 129.075C398.342 129.417 398.435 129.765 398.525 130.119C398.66 130.653 398.789 131.184 398.922 131.709L398.702 131.765ZM443.961 131.59L443.748 131.514C444.044 130.655 444.321 129.787 444.571 128.93L444.788 128.993C444.537 129.858 444.259 130.721 443.965 131.586L443.961 131.59ZM353.55 130.852L353.365 130.721C353.888 129.983 354.436 129.248 354.995 128.534L355.173 128.673C354.617 129.375 354.07 130.109 353.55 130.852ZM356.899 126.58L356.728 126.433C357.324 125.745 357.94 125.067 358.562 124.419L358.725 124.576C358.109 125.214 357.493 125.882 356.899 126.572V126.58ZM397.227 126.554C396.919 125.68 396.583 124.833 396.233 124.039L396.432 123.946C396.788 124.741 397.126 125.598 397.436 126.479L397.227 126.554ZM445.479 126.367L445.261 126.316C445.459 125.433 445.658 124.538 445.807 123.662L446.03 123.702C445.875 124.574 445.69 125.473 445.479 126.359V126.367ZM360.651 122.666L360.494 122.503C361.162 121.877 361.845 121.266 362.529 120.692L362.674 120.865C361.996 121.427 361.315 122.034 360.651 122.658V122.666ZM395.013 121.624C394.569 120.84 394.08 120.084 393.546 119.358L393.727 119.223C394.267 119.956 394.762 120.72 395.21 121.513L395.013 121.624ZM446.425 121.008L446.201 120.982C446.306 120.084 446.384 119.177 446.433 118.284L446.658 118.296C446.61 119.185 446.531 120.097 446.425 121V121.008ZM364.8 119.177L364.665 118.996C365.403 118.444 366.154 117.921 366.899 117.436L367.022 117.634C366.281 118.1 365.534 118.62 364.8 119.169V119.177ZM391.795 117.306C391.165 116.666 390.48 116.08 389.75 115.555L389.884 115.37C390.623 115.904 391.316 116.498 391.956 117.147L391.795 117.306ZM369.338 116.229L369.228 116.03C370.037 115.583 370.858 115.171 371.665 114.808L371.758 115.006C370.963 115.37 370.149 115.778 369.344 116.221L369.338 116.229ZM446.487 115.579C446.487 114.672 446.435 113.762 446.366 112.871L446.592 112.855C446.662 113.75 446.704 114.664 446.712 115.577L446.487 115.579ZM387.425 114.187C386.611 113.807 385.762 113.505 384.891 113.285L384.949 113.064C385.833 113.29 386.694 113.597 387.521 113.983L387.425 114.187ZM374.272 114.016L374.201 113.802C375.061 113.509 375.937 113.263 376.824 113.066L376.874 113.289C375.996 113.483 375.13 113.725 374.278 114.014L374.272 114.016ZM379.539 112.881L379.521 112.655C380.429 112.577 381.341 112.57 382.25 112.633L382.234 112.859C381.339 112.796 380.44 112.803 379.545 112.879L379.539 112.881ZM446.068 110.178C445.934 109.285 445.769 108.389 445.575 107.514L445.795 107.464C445.994 108.347 446.159 109.253 446.292 110.144L446.068 110.178ZM444.893 104.892C444.637 104.033 444.345 103.168 444.027 102.326L444.239 102.246C444.559 103.095 444.851 103.964 445.11 104.83L444.893 104.892ZM442.981 99.8287C442.606 99.0137 442.186 98.1986 441.765 97.4074L441.964 97.2981C442.399 98.0933 442.81 98.9143 443.186 99.7333L442.981 99.8287ZM440.398 95.0577C439.923 94.2844 439.432 93.5171 438.933 92.7776L439.132 92.6523C439.63 93.3919 440.125 94.1632 440.6 94.9404L440.398 95.0577ZM437.369 90.565C436.828 89.8375 436.268 89.1198 435.703 88.43L435.878 88.2849C436.445 88.9787 437.007 89.7003 437.55 90.4299L437.369 90.565ZM433.934 86.3765C433.328 85.7086 432.698 85.0486 432.064 84.4164L432.223 84.2554C432.861 84.8915 433.493 85.5535 434.101 86.2254L433.934 86.3765ZM430.095 82.5577C429.423 81.9614 428.727 81.365 428.028 80.8064L428.169 80.6295C428.873 81.194 429.572 81.7844 430.246 82.3888L430.095 82.5577ZM425.879 79.1664C425.15 78.6435 424.395 78.1326 423.634 77.6516L423.757 77.4528C424.518 77.9398 425.277 78.4467 426.011 78.9775L425.879 79.1664ZM355.617 76.5821L355.525 76.3833C355.525 76.3833 356.447 75.9857 358.061 75.3714L358.141 75.5821C356.519 76.1845 355.619 76.5821 355.611 76.5821H355.617ZM421.308 76.264C420.525 75.8247 419.719 75.3993 418.912 75.0017L419.011 74.8029C419.822 75.2005 420.633 75.6279 421.42 76.0712L421.308 76.264ZM360.692 74.6737L360.619 74.461C361.464 74.1727 362.334 73.8865 363.203 73.6161L363.27 73.8308C362.404 74.0952 361.535 74.3795 360.692 74.6657V74.6737ZM416.447 73.8785C415.624 73.5267 414.778 73.1887 413.929 72.8846L414.007 72.6719C414.859 72.9859 415.71 73.3259 416.535 73.6797L416.447 73.8785ZM365.876 73.0575L365.814 72.8408C366.683 72.5943 367.565 72.3538 368.441 72.1291L368.497 72.3478C367.625 72.5625 366.742 72.805 365.876 73.0476V73.0575ZM411.363 72.0039C410.511 71.7355 409.634 71.4851 408.758 71.2565L408.816 71.0378C409.694 71.2664 410.574 71.5189 411.431 71.7872L411.363 72.0039ZM371.134 71.7057L371.085 71.4851C371.967 71.2863 372.861 71.0875 373.744 70.9086L373.789 71.1292C372.909 71.2982 372.021 71.493 371.134 71.6958V71.7057ZM406.113 70.6342C405.238 70.4474 404.342 70.2784 403.448 70.1293L403.485 69.9067C404.382 70.0558 405.274 70.2267 406.158 70.4116L406.113 70.6342ZM376.449 70.6342L376.409 70.4096C377.305 70.2526 378.21 70.1055 379.094 69.9762L379.128 70.1989C378.251 70.3102 377.351 70.4553 376.457 70.6183L376.449 70.6342ZM381.815 69.8391L381.787 69.6125C382.691 69.5051 383.601 69.4137 384.494 69.3322L384.514 69.5568C383.635 69.6244 382.727 69.7138 381.827 69.8232L381.815 69.8391ZM400.761 69.7496C399.874 69.6403 398.972 69.5508 398.062 69.4693L398.082 69.2447C398.988 69.3202 399.898 69.4137 400.788 69.525L400.761 69.7496ZM387.22 69.352L387.206 69.1254C388.117 69.0737 389.033 69.036 389.925 69.0141V69.2387C389.053 69.2507 388.141 69.2884 387.232 69.3401L387.22 69.352ZM395.355 69.2904C394.465 69.2507 393.552 69.2268 392.644 69.2169V68.9902C393.556 68.9902 394.47 69.024 395.365 69.0638L395.355 69.2904Z" fill="#666666"/>
<path d="M352.794 28.3635L347.97 32.936L343.325 28.6075L342.772 29.1584L330.218 41.7781C330.711 42.2758 331.384 42.559 332.089 42.5651H363.851C364.556 42.5594 365.229 42.2762 365.722 41.7781L353.383 28.9853L352.794 28.3635Z" fill="#0266A8"/>
<path d="M343.71 28.9913L330.281 17.0255L330.306 17.0024H330.281C329.797 17.4844 329.522 18.1194 329.508 18.7831V40.0515C329.513 40.7312 329.806 41.3808 330.322 41.8552L343.156 29.5478L343.71 28.9913Z" fill="#0390ED"/>
<path d="M366.296 18.0892C366.148 17.675 365.891 17.3015 365.549 17.0024H365.528C365.528 17.0024 365.528 17.0024 365.549 17.0216L352.231 28.8338L352.829 29.4154L365.627 41.8552C366.143 41.379 366.433 40.7317 366.432 40.0567V18.8697C366.432 18.6045 366.386 18.341 366.296 18.0892Z" fill="#0390ED"/>
<path d="M343.37 29.1063L348.024 33.3341L352.857 28.8757L365.722 17.011C365.722 17.011 365.722 17.011 365.702 16.9917C365.229 16.5473 364.596 16.2967 363.936 16.2922H332.112C331.403 16.2983 330.727 16.5845 330.242 17.084L330.218 17.107L343.37 29.1063Z" fill="#62BEFB"/>
<circle cx="365.722" cy="18.4225" r="9.94109" fill="white"/>
<path d="M365.722 11.3218C361.802 11.3218 358.621 14.5029 358.621 18.4226C358.621 22.3422 361.802 25.5233 365.722 25.5233C369.642 25.5233 372.823 22.3422 372.823 18.4226C372.823 14.5029 369.642 11.3218 365.722 11.3218ZM364.302 21.9729L360.752 18.4226L361.753 17.4213L364.302 19.9634L369.691 14.5739L370.693 15.5822L364.302 21.9729Z" fill="#0266A8"/>
<path d="M237.27 19.55L234.247 22.3532L231.336 19.6996L230.99 20.0373L223.123 27.7737C223.432 28.0789 223.853 28.2525 224.295 28.2562H244.199C244.641 28.2527 245.063 28.0791 245.372 27.7737L237.639 19.9312L237.27 19.55Z" fill="#FF651D"/>
<path d="M231.345 20.0116L223.113 12.7925L223.128 12.7786H223.113C222.816 13.0693 222.647 13.4525 222.639 13.8529V26.6843C222.642 27.0944 222.821 27.4863 223.138 27.7725L231.006 20.3473L231.345 20.0116Z" fill="#FF9200"/>
<path d="M245.314 12.7786H245.301C245.301 12.7786 245.301 12.7786 245.314 12.7905L237.149 20.1468L237.516 20.509L245.362 28.2562C245.678 27.9597 245.856 27.5565 245.855 27.1362V13.9415C245.855 13.7763 245.827 13.6122 245.772 13.4553C245.681 13.1974 245.524 12.9648 245.314 12.7786Z" fill="#FF9200"/>
<path d="M231.364 20.296L234.281 22.9358L237.31 20.152L245.372 12.7437C245.372 12.7437 245.372 12.7437 245.359 12.7317C245.063 12.4542 244.666 12.2977 244.252 12.2949H224.31C223.865 12.2987 223.441 12.4774 223.138 12.7893L223.123 12.8037L231.364 20.296Z" fill="#FBB85E"/>
<circle cx="245.997" cy="14.2415" r="5.4502" fill="white"/>
<path d="M245.997 10.3486C243.848 10.3486 242.104 12.0927 242.104 14.2416C242.104 16.3906 243.848 18.1346 245.997 18.1346C248.146 18.1346 249.89 16.3906 249.89 14.2416C249.89 12.0927 248.146 10.3486 245.997 10.3486ZM242.882 14.2416C242.882 12.5209 244.276 11.1272 245.997 11.1272C246.717 11.1272 247.379 11.3725 247.904 11.7851L243.54 16.1492C243.128 15.6236 242.882 14.9618 242.882 14.2416ZM245.997 17.356C245.277 17.356 244.615 17.1108 244.089 16.6981L248.453 12.3341C248.866 12.8596 249.111 13.5214 249.111 14.2416C249.111 15.9623 247.717 17.356 245.997 17.356Z" fill="#FF298A"/>
<path d="M190.027 48.953L185.982 49.1348L185.785 45.2715L185.303 45.3059L174.433 46.1306C174.436 46.3391 174.481 46.5448 174.566 46.735C174.652 46.9252 174.775 47.096 174.929 47.2367L188.906 59.9618C189.073 60.0947 189.265 60.193 189.471 60.251C189.676 60.3089 189.891 60.3253 190.103 60.2993L190.028 49.4645L190.027 48.953Z" fill="#FFBD4F"/>
<path d="M185.293 45.7629L184.76 34.9693C184.419 34.9646 184.081 35.0273 183.765 35.1537C183.639 35.2263 183.525 35.318 183.427 35.4253L174.445 45.2917C174.168 45.6051 174.025 46.0144 174.046 46.432L184.795 45.7902L185.293 45.7629ZM200.291 49.1091L189.67 49.2137L189.693 49.7084L190.103 60.2992C190.534 60.3091 190.951 60.148 191.263 59.8513L199.871 50.396C199.978 50.2752 200.064 50.1367 200.123 49.9867C200.242 49.7097 200.299 49.4103 200.291 49.1091Z" fill="#FFD567"/>
<path d="M185.131 45.9988L185.315 49.9256L189.41 49.7139L200.276 49.1257C200.27 48.9292 200.225 48.7359 200.145 48.5567C200.064 48.3774 199.949 48.2159 199.806 48.0812L185.783 35.3149C185.627 35.1733 185.443 35.0666 185.242 35.002C185.042 34.9375 184.83 34.9165 184.62 34.9405L185.131 45.9988Z" fill="#FFEA80"/>
<path d="M185.131 45.9988L185.315 49.9256L189.41 49.7139L200.276 49.1257C200.27 48.9292 200.225 48.7359 200.145 48.5567C200.064 48.3774 199.949 48.2159 199.806 48.0812L185.783 35.3149C185.627 35.1733 185.443 35.0666 185.242 35.002C185.042 34.9375 184.83 34.9165 184.62 34.9405L185.131 45.9988Z" fill="#FFEA80"/>
<path d="M172.737 54.2935C172.737 54.2935 175.172 50.0573 176.551 49.2462C177.93 48.4351 180.526 46.4452 180.862 47.0476C181.198 47.6499 177.73 50.6656 177.805 51.1884C177.881 51.7112 176.114 52.7171 176.114 52.7171L172.737 54.2935Z" fill="#F2CA95"/>
<path d="M332.655 7.73164C332.655 7.67862 332.636 7.62723 332.602 7.58704C332.567 7.54684 332.519 7.52059 332.467 7.51317C332.03 7.43452 330.793 7.14396 330.378 6.72888C329.963 6.31379 329.668 5.08382 329.592 4.64689C329.584 4.5948 329.557 4.54731 329.517 4.51319C329.477 4.47907 329.426 4.4606 329.373 4.4612V7.73164H332.655Z" fill="#FFEA80"/>
<path d="M329.377 4.4546C329.324 4.45415 329.272 4.47322 329.232 4.50824C329.192 4.54325 329.166 4.59177 329.159 4.64466C329.087 5.0816 328.811 6.31375 328.401 6.72883C327.99 7.14392 326.742 7.43229 326.288 7.50876C326.236 7.51666 326.188 7.54312 326.154 7.58326C326.12 7.62341 326.102 7.67454 326.102 7.72722H329.379V4.4546H329.377ZM329.377 7.73159V11.0086C329.43 11.0091 329.482 10.9903 329.522 10.9558C329.562 10.9212 329.588 10.8732 329.596 10.8207C329.674 10.3838 329.967 9.12978 330.382 8.71469C330.797 8.2996 332.023 8.02434 332.462 7.95224C332.515 7.94531 332.563 7.91927 332.598 7.87902C332.633 7.83878 332.652 7.78712 332.652 7.73378L329.377 7.73159Z" fill="#FFD567"/>
<path d="M326.101 7.73169C326.1 7.78503 326.119 7.83669 326.154 7.87694C326.189 7.91718 326.238 7.94322 326.291 7.95016C326.728 8.02225 327.98 8.2997 328.395 8.7126C328.81 9.1255 329.085 10.3708 329.157 10.8164C329.164 10.8693 329.19 10.9178 329.23 10.9529C329.271 10.9879 329.322 11.0069 329.376 11.0065V7.73169H326.101Z" fill="#FFA266"/>
<path d="M319.258 26.292C319.261 26.2547 319.25 26.2174 319.229 26.1868C319.207 26.1561 319.176 26.1338 319.14 26.1238C318.827 26.067 317.962 25.8638 317.672 25.5689C317.381 25.274 317.174 24.4067 317.117 24.1008C317.11 24.0643 317.091 24.0313 317.063 24.0074C317.034 23.9835 316.999 23.9701 316.962 23.9697V26.2789L319.258 26.292Z" fill="#FFEA80"/>
<path d="M316.949 23.9829C316.911 23.9839 316.875 23.998 316.847 24.0227C316.819 24.0475 316.8 24.0813 316.794 24.1184C316.744 24.4264 316.551 25.2915 316.261 25.5821C315.97 25.8726 315.077 26.0802 314.775 26.137C314.738 26.1432 314.705 26.1622 314.681 26.1906C314.657 26.2189 314.644 26.2549 314.644 26.2921H316.951L316.949 23.9829ZM316.949 26.2921V28.6013C316.986 28.6009 317.022 28.5875 317.05 28.5636C317.078 28.5397 317.097 28.5067 317.104 28.4702C317.159 28.1556 317.364 27.2796 317.659 26.9846C317.954 26.6897 318.815 26.4996 319.123 26.4516C319.16 26.4446 319.194 26.4249 319.219 26.3959C319.243 26.3668 319.257 26.3302 319.258 26.2921H316.949Z" fill="#FFD567"/>
<path d="M314.639 26.292C314.638 26.3299 314.651 26.3669 314.675 26.3962C314.699 26.4256 314.733 26.4452 314.771 26.4515C315.085 26.4995 315.961 26.694 316.256 26.9845C316.551 27.2751 316.741 28.1555 316.789 28.4657C316.795 28.503 316.814 28.5371 316.842 28.5618C316.87 28.5866 316.907 28.6006 316.944 28.6012V26.292H314.639Z" fill="#FFA266"/>
</svg>
