<svg data-name="f5937b76-f2c7-44a1-945f-4a5acbf74aa3" xmlns="http://www.w3.org/2000/svg" viewBox="0 0 306.8 47.9"><path d="M23.01 2.85V9.4h-16v8.25h16v6.45h-16v14.45h-7V2.85zm5.42-1.3a4.51 4.51 0 016.24 0 4.32 4.32 0 011.2 3.15 4.15 4.15 0 01-4 4.31h-.36a4.17 4.17 0 01-3.1-1.22 4.28 4.28 0 01-1.2-3.09 4.3 4.3 0 011.22-3.15zm6.58 10.59v26.41h-6.92V12.14zm12 0v4.06a6.83 6.83 0 012.86-3.45 8.58 8.58 0 014.43-1.1 9.82 9.82 0 012.47.29 9.09 9.09 0 012 .74l-2.45 6.65a4.79 4.79 0 00-1.49-.68 7.48 7.48 0 00-2-.27 5.87 5.87 0 00-4.16 1.44q-1.61 1.47-1.61 4.83v13.9h-6.7V12.14zm20.4 25.9a13.08 13.08 0 01-4.4-2.91 12.85 12.85 0 01-2.84-4.35 14.59 14.59 0 01-1-5.38 13.93 13.93 0 011-5.41 13.3 13.3 0 013-4.34 13.7 13.7 0 014.41-3 13.88 13.88 0 015.48-1 14.27 14.27 0 015.48 1 13.07 13.07 0 014.3 2.81 12.71 12.71 0 012.84 4.28 14 14 0 011 5.43v2.48h-21a7.31 7.31 0 002.67 4.09 8 8 0 004.91 1.49 7.75 7.75 0 004-1 7.58 7.58 0 002.59-2.57l5.51 3.33a15.58 15.58 0 01-4.9 4.45 14.42 14.42 0 01-7.31 1.7 15.45 15.45 0 01-5.74-1.1zm1.18-19.39a7.73 7.73 0 00-2.69 3.72h14.11a6.65 6.65 0 00-2.5-3.72 7.44 7.44 0 00-4.5-1.3 7.27 7.27 0 00-4.42 1.3zm24.42-6.51v-.93a21.63 21.63 0 01.56-5.38 7.29 7.29 0 011.86-3.45A7.26 7.26 0 0198.9.55a22.39 22.39 0 015.4-.56h1.76v6.16h-1.13a17.35 17.35 0 00-2.79.17 3.16 3.16 0 00-1.59.69 2.42 2.42 0 00-.71 1.42 17.76 17.76 0 00-.14 2.42v1.27h6.36v6.06H99.7v20.37h-6.69V18.2h-4.37v-6.06zm23 25.85a13.78 13.78 0 01-4.43-3 13.6 13.6 0 01-4-9.71 13.65 13.65 0 011-5.36 13.14 13.14 0 013-4.3 13.27 13.27 0 0110-4 14 14 0 015.51 1 13.6 13.6 0 018.48 12.67 13.39 13.39 0 01-1.07 5.33 14.41 14.41 0 01-2.96 4.37 13.68 13.68 0 01-4.43 3 14.79 14.79 0 01-11.1 0zm8.41-5.92a7.58 7.58 0 002.3-1.57 7.35 7.35 0 001.54-2.32 7.76 7.76 0 000-5.8 7.26 7.26 0 00-1.54-2.35 7.37 7.37 0 00-2.3-1.56 7.1 7.1 0 00-5.68 0 7.45 7.45 0 00-2.29 1.56 7.13 7.13 0 00-1.55 2.35 7.76 7.76 0 000 5.8 7.26 7.26 0 001.55 2.32 7.66 7.66 0 002.29 1.57 7.27 7.27 0 005.71.03zm11.91-19.93h8l5.52 7.85 5.58-7.83h7.92l-9.34 12.89 10.08 13.5h-8.17l-6.07-8.26-5.91 8.26h-8.12l9.86-13.56zm57.2-9.29a13.35 13.35 0 015 .88 11.66 11.66 0 013.91 2.42 11 11 0 012.57 3.67 11.91 11.91 0 01.41 7.92 11.21 11.21 0 01-1.44 3 10.93 10.93 0 01-2.33 2.47 10.62 10.62 0 01-3.16 1.7l7.78 13.64h-4.6l-7-12.57h-11.23v12.57h-4.06V2.85zm-10.09 19.41h9.78a9.47 9.47 0 003.64-.66 8.14 8.14 0 002.69-1.76 7.29 7.29 0 001.67-2.54 8.36 8.36 0 00.56-3 7.93 7.93 0 00-.59-3.08 7.05 7.05 0 00-1.75-2.46 7.73 7.73 0 00-2.69-1.59 10.71 10.71 0 00-3.51-.52h-9.8zm34.67 15.78a13.09 13.09 0 01-4.4-2.89 12.4 12.4 0 01-2.81-4.33 14.59 14.59 0 01-1-5.38 14.09 14.09 0 011-5.45 13.45 13.45 0 013-4.34 13.24 13.24 0 014.35-3 13.84 13.84 0 015.5-1.08 14.09 14.09 0 015.36 1 12.56 12.56 0 014.25 2.79 13 13 0 012.82 4.29 13.84 13.84 0 011 5.4v1.81h-23.35a9.48 9.48 0 006.16 8 11.37 11.37 0 003.84.63 9.36 9.36 0 008.85-5.09l3.43 2a15.42 15.42 0 01-5 4.94 14 14 0 01-7.29 1.76 15.09 15.09 0 01-5.71-1.06zm2.06-22.26a9.11 9.11 0 00-2.91 1.72 9.49 9.49 0 00-2.13 2.59 10.52 10.52 0 00-1.2 3.25h19.13a8.88 8.88 0 00-9.35-8.17 10.14 10.14 0 00-3.54.61zM247.24-.01v38.56h-4V-.01zm11.06 38.49a8.31 8.31 0 01-2.94-1.69 7.08 7.08 0 01-1.76-2.47 7.54 7.54 0 01-.59-3 7.23 7.23 0 013.21-6.33c2.13-1.48 5.06-2.23 8.78-2.23h8.36v-1a6.41 6.41 0 00-1.92-4.9c-1.29-1.22-3.23-1.83-5.8-1.83a9.26 9.26 0 00-8.41 4.45l-3.47-2.2a14.89 14.89 0 014.89-4.14 14.75 14.75 0 017-1.54 15.73 15.73 0 015 .73 10 10 0 013.62 2.08 8.93 8.93 0 012.25 3.24 10.89 10.89 0 01.75 4.11v16.79h-3.91v-4.64a11.88 11.88 0 01-4.65 3.81 14.61 14.61 0 01-6.27 1.37 12.59 12.59 0 01-4.14-.61zm7.8-3.3a12.58 12.58 0 002.83-1.13 11.61 11.61 0 002.5-1.86 10.4 10.4 0 001.93-2.54v-3.66h-8.17c-2.77 0-4.81.43-6.11 1.27a4.51 4.51 0 00-1.15 6.27 4.93 4.93 0 00.63.73 6.7 6.7 0 004.58 1.3 11.83 11.83 0 003-.37zm15.58 12.08a8.59 8.59 0 01-2.84-1.71l2.6-3.28a6.85 6.85 0 001.66 1.32 4.48 4.48 0 002.16.49 6.3 6.3 0 001.83-.24 4.45 4.45 0 001.52-.85 7.24 7.24 0 001.34-1.72 27.19 27.19 0 001.37-2.69l.59-1.27-11.07-25.17h4.36l8.81 20.45 8.39-20.45h4.36l-12 27.59a33.32 33.32 0 01-1.93 3.76 10.86 10.86 0 01-2.08 2.55 7.34 7.34 0 01-2.47 1.42 10.57 10.57 0 01-6.64-.2z" fill="#000000"/></svg>
