<?xml version="1.0" encoding="utf-8"?>
<!-- Generator: Adobe Illustrator 28.0.0, SVG Export Plug-In . SVG Version: 6.00 Build 0)  -->
<svg version="1.1" id="Layer_1" xmlns="http://www.w3.org/2000/svg" xmlns:xlink="http://www.w3.org/1999/xlink" x="0px" y="0px"
	 viewBox="0 0 983.6 235.2" style="enable-background:new 0 0 983.6 235.2;" xml:space="preserve">
<style type="text/css">
	.st0{fill:#FFFFFF;}
</style>
<g>
	<path class="st0" d="M54.6,88.2l18.7,92H80l18.7-92h54.6v144.9h-29.8V113.6h-6.7l-26,119.5H62.6l-26-119.5h-6.7v119.5H0V88.2H54.6z
		 M225.7,118.9c34.4,0,54.4,20.6,54.4,58.2c0,37.6-19.9,58.2-54.4,58.2s-54.4-20.6-54.4-58.2C171.4,139.4,191.3,118.9,225.7,118.9z
		 M225.7,212.1c15.5,0,22.9-8.4,22.9-26.9v-16.4c0-18.5-7.3-26.9-22.9-26.9s-22.9,8.4-22.9,26.9v16.4
		C202.9,203.7,210.2,212.1,225.7,212.1z M292.3,211.5l56.9-68.9h-56.1V121h91.6v21.6l-56.9,68.9h57.7v21.6h-93.2V211.5z M401.1,121
		h42v112.1h-29.8v-90.5h-12.2V121z M413.3,88.2h29.8v21.6h-29.8V88.2z M462.8,88.2h42v144.9H475V109.8h-12.2V88.2z M524.6,88.2h42
		v144.9h-29.8V109.8h-12.2V88.2z M630.6,118.9c16.6,0,27.5,8.2,30.7,22.5h6.7V121h35.5v21.6h-12.2v68.9h12.2v21.6h-17
		c-12,0-18.5-6.5-18.5-18.5v-1.9h-6.7c-3.2,14.3-14.1,22.5-30.7,22.5c-26.2,0-44.7-22.3-44.7-58.2
		C585.9,141.1,604.4,118.9,630.6,118.9z M639.4,212.1c15.1,0,22-8.4,22-26.9v-16.4c0-18.5-6.9-26.9-22-26.9c-15.1,0-22,8.4-22,26.9
		v16.4C617.4,203.7,624.3,212.1,639.4,212.1z"/>
	<path class="st0" d="M814.4,233.1h-29.8V0h29.8V233.1z M838.7,118.9h118v-6.7l-76.9-27.9V60.7l76.9-27.9V26h-91.1V0h118v47.5
		l-62.6,21.6v6.7l62.6,21.6v47.5H838.7V118.9z M838.7,26h26.9v26.9h-26.9V26z"/>
</g>
</svg>
