<svg width="16" height="16" viewBox="0 0 700 700" xmlns="http://www.w3.org/2000/svg">
  <g transform="translate(0,700) scale(0.1,-0.1)" fill="#7542e5">
    <path d="M3349 6296 c-2 -2 -28 -7 -57 -11 -140 -17 -309 -81 -483 -181 -63
-36 -134 -77 -159 -91 -25 -15 -99 -57 -165 -96 -66 -38 -133 -77 -150 -87
-40 -23 -266 -154 -445 -258 -208 -121 -289 -183 -365 -282 -122 -160 -176
-324 -170 -520 3 -129 6 -145 40 -247 40 -121 104 -222 198 -316 54 -54 167
-135 210 -150 16 -6 16 -4 3 21 -61 118 -77 339 -37 497 58 224 210 412 417
513 122 60 196 76 349 77 199 0 297 -31 534 -169 58 -34 113 -65 121 -69 8 -4
29 -15 45 -26 32 -19 779 -452 883 -510 102 -58 858 -496 1117 -646 55 -32
119 -68 142 -81 23 -13 92 -53 153 -89 61 -36 113 -65 115 -65 2 0 40 -22 84
-50 45 -27 81 -46 82 -42 6 37 2 1365 -4 1422 -12 124 -57 238 -132 337 -63
85 -122 134 -255 212 -150 88 -950 551 -1015 587 -27 15 -67 38 -87 51 -21 12
-42 23 -47 23 -5 0 -11 3 -13 8 -9 21 -255 143 -353 176 -143 47 -248 63 -406
64 -81 1 -148 0 -150 -2z"/>
    <path d="M3075 4142 c-55 -6 -137 -33 -179 -60 -93 -59 -172 -168 -195 -271
-10 -45 -8 -143 3 -196 9 -44 51 -125 87 -168 26 -32 167 -137 183 -137 3 0
40 -20 82 -45 41 -25 78 -45 80 -45 3 0 17 -9 32 -19 73 -51 534 -308 582
-324 72 -25 188 -26 261 -2 222 74 346 322 270 539 -46 131 -104 185 -333 315
-58 32 -84 47 -354 204 -138 80 -269 154 -291 166 -63 32 -161 51 -228 43z"/>
    <path d="M1183 2843 l3 -738 26 -76 c54 -154 143 -277 259 -356 33 -23 683
-401 987 -574 67 -39 101 -59 262 -151 260 -150 309 -172 473 -213 138 -34
306 -48 422 -34 118 15 131 17 195 34 139 36 252 83 380 160 30 18 71 41 90
52 19 10 67 37 105 60 39 23 239 139 445 259 206 119 406 237 444 262 345 227
467 669 287 1042 -52 108 -128 202 -224 278 -59 46 -146 102 -160 102 -4 0 2
-24 12 -52 119 -326 26 -677 -237 -891 -96 -79 -229 -145 -328 -163 -123 -23
-255 -22 -344 1 -3 1 -21 5 -40 9 -63 15 -188 75 -348 168 -86 50 -170 99
-187 108 -38 22 -752 434 -835 483 -19 11 -55 31 -80 45 -25 13 -49 27 -55 32
-5 4 -30 19 -55 32 -68 38 -780 449 -810 467 -8 6 -64 38 -125 73 -60 34 -181
104 -269 155 -87 51 -160 93 -162 93 -1 0 -30 16 -63 35 -32 19 -62 35 -65 35
-3 0 -4 -332 -3 -737z"/>
  </g>
</svg>
