<svg width="16" height="16" viewBox="0 0 16 16" fill="none" xmlns="http://www.w3.org/2000/svg">
<path fill-rule="evenodd" clip-rule="evenodd" d="M8.47884 9.67516C9.05528 10.008 9.79237 9.81046 10.1252 9.23402C10.458 8.65758 10.2605 7.9205 9.68404 7.58769L7.50819 6.33147C6.93176 5.99866 6.19467 6.19616 5.86186 6.7726C5.52906 7.34904 5.72656 8.08612 6.303 8.41893L8.47884 9.67516Z" fill="black"/>
<path d="M4.20898 2.02478C5.20629 2.02478 6.05397 2.65526 6.38184 3.53845C6.05351 3.35351 5.67478 3.24652 5.27051 3.24646C4.02223 3.24646 3.00977 4.25324 3.00977 5.49451C3.00984 5.83302 3.0878 6.15291 3.22266 6.4408C2.43572 6.0697 1.88965 5.27185 1.88965 4.34412C1.8899 3.06329 2.92816 2.02503 4.20898 2.02478Z" fill="#7542E4"/>
<path d="M9.81485 0.523705C8.68248 -0.130062 7.28713 -0.129096 6.15567 0.526237L3.00977 2.34832C3.44504 2.12624 3.89428 2.08436 4.54066 2.45746L14.5779 8.25251V4.39901C14.5779 3.70261 14.2063 3.05911 13.6032 2.71091L9.81485 0.523705Z" fill="#AB71FF"/>
<path d="M11.7793 13.9818C10.7839 13.9818 9.93759 13.3536 9.6084 12.473C9.93292 12.655 10.3066 12.7601 10.7051 12.7601C11.9463 12.7601 12.9531 11.7534 12.9531 10.5121C12.9531 10.1675 12.8731 9.84203 12.7344 9.55017C13.5384 9.91453 14.0986 10.7223 14.0986 11.6625C14.0984 12.9433 13.0601 13.9816 11.7793 13.9818Z" fill="#E22850"/>
<path d="M6.17317 15.4827C7.30553 16.1365 8.70089 16.1355 9.83235 15.4802L12.9782 13.6581C12.543 13.8802 12.0937 13.9221 11.4473 13.549L1.41016 7.75391L1.41016 11.6074C1.41016 12.3038 1.78168 12.9473 2.38478 13.2955L6.17317 15.4827Z" fill="#FF4F5E"/>
</svg>
