<svg width="16" height="16" viewBox="0 0 16 16" fill="none" xmlns="http://www.w3.org/2000/svg">
  <path d="M8 1.5C4.5 1.5 1.5 4.5 1.5 8C1.5 11.5 4.5 14.5 8 14.5C11.5 14.5 14.5 11.5 14.5 8C14.5 4.5 11.5 1.5 8 1.5Z" fill="#7542E5"/>
  <path d="M6.5 5.5C6.5 5.22 6.72 5 7 5H9C9.83 5 10.5 5.67 10.5 6.5C10.5 7.05 10.22 7.54 9.79 7.82C10.22 8.1 10.5 8.59 10.5 9.14C10.5 10.17 9.67 11 8.64 11H7C6.72 11 6.5 10.78 6.5 10.5V5.5ZM7.5 7.25H8.5C8.91 7.25 9.25 6.91 9.25 6.5C9.25 6.09 8.91 5.75 8.5 5.75H7.5V7.25ZM7.5 8V10.25H8.64C9.26 10.25 9.75 9.76 9.75 9.14C9.75 8.52 9.26 8 8.64 8H7.5Z" fill="white"/>
</svg>
