<svg width="73" height="32" viewBox="0 0 73 32" fill="none" xmlns="http://www.w3.org/2000/svg">
<path d="M27.3812 6.98103L15.7401 0.342528C15.3312 0.117745 14.8733 0 14.408 0C13.9426 0 13.4847 0.117745 13.0758 0.342528L1.39373 6.98103C0.972005 7.22164 0.620838 7.57112 0.376019 7.99385C0.131199 8.41659 0.00148001 8.89747 8.17694e-05 9.38749V22.623C-0.00370121 23.1141 0.123843 23.597 0.369195 24.0207C0.614547 24.4443 0.968566 24.7929 1.39373 25.0295L13.0348 31.6265C13.443 31.875 13.9112 32.0043 14.3875 31.9999C14.863 31.9987 15.3298 31.8698 15.7401 31.6265L27.3812 25.0295C27.8029 24.7889 28.1541 24.4394 28.3989 24.0166C28.6437 23.5939 28.7734 23.113 28.7748 22.623V9.38749C28.7869 8.89482 28.6628 8.40853 28.4166 7.98337C28.1704 7.55821 27.8118 7.21107 27.3812 6.98103Z" fill="url(#paint0_linear_145_1805)"/>
<path d="M6.27223 19.4706L5.5754 19.8855C5.45072 19.9555 5.34103 20.0498 5.25275 20.1631C5.16447 20.2764 5.09935 20.4064 5.0612 20.5454C5.02304 20.6844 5.01262 20.8298 5.03053 20.9729C5.04843 21.1161 5.09432 21.2542 5.16551 21.3792C5.25704 21.5524 5.39277 21.6977 5.55857 21.7999C5.72437 21.902 5.91419 21.9573 6.10827 21.9601C6.29274 21.9585 6.47463 21.916 6.64114 21.8356L7.33796 21.4207C7.46265 21.3507 7.57233 21.2564 7.66061 21.1431C7.7489 21.0298 7.81401 20.8998 7.85217 20.7608C7.89032 20.6218 7.90075 20.4764 7.88284 20.3333C7.86493 20.1901 7.81904 20.052 7.74786 19.927C7.68456 19.7952 7.59509 19.678 7.48504 19.5828C7.375 19.4875 7.24674 19.4163 7.10827 19.3734C6.96979 19.3306 6.82409 19.3171 6.68024 19.3339C6.5364 19.3506 6.3975 19.3971 6.27223 19.4706ZM10.5352 17.0227L9.10052 17.8525C8.97583 17.9224 8.86615 18.0168 8.77786 18.1301C8.68958 18.2434 8.62446 18.3733 8.58631 18.5124C8.54816 18.6514 8.53773 18.7967 8.55564 18.9399C8.57355 19.083 8.61943 19.2211 8.69062 19.3461C8.78216 19.5194 8.91789 19.6647 9.08369 19.7668C9.24949 19.869 9.4393 19.9243 9.63338 19.927C9.81786 19.9254 9.99974 19.8829 10.1662 19.8025L11.6009 18.9727C11.7256 18.9028 11.8353 18.8084 11.9235 18.6951C12.0118 18.5818 12.0769 18.4519 12.1151 18.3129C12.1532 18.1738 12.1637 18.0285 12.1458 17.8853C12.1279 17.7422 12.082 17.6041 12.0108 17.4791C11.9475 17.3473 11.858 17.2301 11.748 17.1348C11.6379 17.0396 11.5097 16.9683 11.3712 16.9255C11.2327 16.8827 11.087 16.8692 10.9432 16.8859C10.7993 16.9026 10.6604 16.9492 10.5352 17.0227ZM16.3147 14.9938C16.257 14.876 16.1764 14.7713 16.0778 14.6858C15.9792 14.6002 15.8646 14.5356 15.7408 14.4959V6.15212C15.7414 6.00485 15.7131 5.85893 15.6577 5.72277C15.6023 5.58661 15.5208 5.46289 15.4179 5.35876C15.315 5.25462 15.1928 5.17213 15.0583 5.11602C14.9238 5.05992 14.7796 5.03132 14.6341 5.03187C14.4908 5.03234 14.3491 5.06195 14.2173 5.11893C14.0855 5.17592 13.9664 5.25913 13.867 5.36362C13.7676 5.46811 13.6899 5.59175 13.6386 5.7272C13.5873 5.86264 13.5635 6.00714 13.5684 6.15212V14.5332C13.4446 14.573 13.33 14.6376 13.2314 14.7231C13.1328 14.8086 13.0523 14.9134 12.9945 15.0311C12.9175 15.1769 12.8739 15.3384 12.8668 15.5035C12.8597 15.6687 12.8893 15.8334 12.9535 15.9854C12.8893 16.1374 12.8597 16.3021 12.8668 16.4673C12.8739 16.6324 12.9175 16.7939 12.9945 16.9397C13.0523 17.0574 13.1328 17.1622 13.2314 17.2477C13.33 17.3332 13.4446 17.3978 13.5684 17.4376V25.8187C13.5684 26.1158 13.685 26.4007 13.8925 26.6108C14.1001 26.8209 14.3816 26.9389 14.6751 26.9389C14.9686 26.9389 15.2501 26.8209 15.4577 26.6108C15.6652 26.4007 15.7818 26.1158 15.7818 25.8187V17.3961C15.9056 17.3563 16.0202 17.2918 16.1188 17.2062C16.2174 17.1207 16.298 17.0159 16.3557 16.8982C16.4327 16.7524 16.4764 16.5909 16.4835 16.4258C16.4906 16.2606 16.4609 16.0959 16.3967 15.9439C16.4915 15.6284 16.4621 15.2879 16.3147 14.9938ZM19.1061 12.1268L17.6715 12.9566C17.5468 13.0265 17.4371 13.1209 17.3488 13.2342C17.2605 13.3475 17.1954 13.4774 17.1573 13.6165C17.1191 13.7555 17.1087 13.9008 17.1266 14.044C17.1445 14.1871 17.1904 14.3252 17.2616 14.4502C17.3531 14.6235 17.4888 14.7688 17.6546 14.8709C17.8204 14.9731 18.0102 15.0284 18.2043 15.0311C18.3888 15.0295 18.5707 14.987 18.7372 14.9066L20.1718 14.0768C20.2965 14.0069 20.4062 13.9125 20.4945 13.7992C20.5828 13.6859 20.6479 13.556 20.686 13.417C20.7242 13.2779 20.7346 13.1326 20.7167 12.9894C20.6988 12.8463 20.6529 12.7082 20.5817 12.5832C20.5184 12.4514 20.429 12.3342 20.3189 12.2389C20.2089 12.1437 20.0806 12.0724 19.9421 12.0296C19.8037 11.9868 19.658 11.9733 19.5141 11.99C19.3703 12.0067 19.2314 12.0533 19.1061 12.1268ZM22.5041 12.5417C22.6886 12.5401 22.8705 12.4976 23.037 12.4172L23.7338 12.0023C23.8584 11.9319 23.9679 11.8372 24.0562 11.7238C24.1445 11.6103 24.2098 11.4804 24.2483 11.3413C24.2868 11.2023 24.2978 11.0569 24.2806 10.9136C24.2635 10.7702 24.2185 10.6317 24.1483 10.506C24.0781 10.3803 23.9841 10.2699 23.8716 10.1811C23.7591 10.0922 23.6304 10.0268 23.4929 9.9885C23.3553 9.95019 23.2116 9.93976 23.0701 9.95782C22.9286 9.97588 22.792 10.0221 22.6681 10.0937L21.9713 10.5086C21.8466 10.5786 21.7369 10.6729 21.6486 10.7862C21.5603 10.8995 21.4952 11.0295 21.4571 11.1685C21.4189 11.3075 21.4085 11.4529 21.4264 11.596C21.4443 11.7392 21.4902 11.8773 21.5614 12.0023C21.6552 12.1705 21.7926 12.3096 21.9587 12.4046C22.1248 12.4996 22.3134 12.547 22.5041 12.5417ZM23.7338 19.8855L23.037 19.4706C22.7871 19.3292 22.492 19.2938 22.2163 19.372C21.9407 19.4503 21.7068 19.6358 21.5659 19.8881C21.4251 20.1404 21.3886 20.4389 21.4646 20.7183C21.5405 20.9978 21.7227 21.2354 21.9713 21.3792L22.6681 21.7941C22.8346 21.8745 23.0165 21.917 23.201 21.9186C23.3951 21.9158 23.5849 21.8605 23.7507 21.7584C23.9165 21.6562 24.0522 21.5109 24.1437 21.3377C24.2171 21.2166 24.2648 21.0815 24.2838 20.9408C24.3028 20.8001 24.2927 20.6569 24.2541 20.5204C24.2156 20.3839 24.1495 20.2569 24.0599 20.1476C23.9703 20.0383 23.8593 19.9491 23.7338 19.8855ZM20.1677 17.8525L18.7331 17.0227C18.6092 16.951 18.4726 16.9048 18.3311 16.8868C18.1896 16.8687 18.0459 16.8791 17.9083 16.9174C17.7708 16.9557 17.6421 17.0212 17.5296 17.11C17.4171 17.1988 17.3231 17.3092 17.2529 17.435C17.1827 17.5607 17.1377 17.6992 17.1206 17.8425C17.1034 17.9859 17.1144 18.1312 17.1529 18.2703C17.1914 18.4093 17.2567 18.5393 17.345 18.6527C17.4333 18.7661 17.5428 18.8608 17.6674 18.9312L19.102 19.7611C19.2685 19.8415 19.4504 19.8839 19.6349 19.8855C19.829 19.8828 20.0188 19.8275 20.1846 19.7253C20.3504 19.6232 20.4861 19.4779 20.5776 19.3047C20.6522 19.1839 20.701 19.0487 20.7206 18.9077C20.7403 18.7668 20.7305 18.6232 20.6919 18.4863C20.6532 18.3493 20.5866 18.2222 20.4963 18.113C20.406 18.0038 20.2941 17.9151 20.1677 17.8525ZM9.10052 14.0353L10.5352 14.8652C10.7017 14.9456 10.8835 14.988 11.068 14.9896C11.2621 14.9869 11.4519 14.9316 11.6177 14.8294C11.7835 14.7273 11.9192 14.582 12.0108 14.4088C12.082 14.2837 12.1279 14.1456 12.1458 14.0025C12.1637 13.8593 12.1532 13.714 12.1151 13.575C12.0769 13.4359 12.0118 13.306 11.9235 13.1927C11.8353 13.0794 11.7256 12.985 11.6009 12.9151L10.1662 12.0853C10.0427 12.0132 9.9063 11.9668 9.76488 11.9486C9.62345 11.9305 9.47988 11.9411 9.34253 11.9797C9.20518 12.0183 9.0768 12.0842 8.96487 12.1736C8.85295 12.263 8.75972 12.374 8.69062 12.5002C8.55331 12.7609 8.51926 13.0647 8.59541 13.3499C8.67156 13.6351 8.85217 13.8802 9.10052 14.0353ZM7.33796 10.5086L6.64114 10.0937C6.51729 10.0221 6.38067 9.97588 6.23913 9.95782C6.0976 9.93976 5.95393 9.95019 5.81639 9.9885C5.67884 10.0268 5.55013 10.0922 5.43765 10.1811C5.32516 10.2699 5.23112 10.3803 5.16093 10.506C5.09073 10.6317 5.04576 10.7702 5.02861 10.9136C5.01146 11.0569 5.02245 11.2023 5.06097 11.3413C5.09948 11.4804 5.16475 11.6103 5.25304 11.7238C5.34132 11.8372 5.45087 11.9319 5.5754 12.0023L6.27223 12.4172C6.43873 12.4976 6.62062 12.5401 6.80509 12.5417C6.99918 12.5389 7.18899 12.4836 7.35479 12.3815C7.52059 12.2793 7.65632 12.1341 7.74786 11.9608C7.8176 11.8388 7.86236 11.7039 7.87946 11.564C7.89657 11.4241 7.88567 11.2822 7.84742 11.1467C7.80916 11.0111 7.74434 10.8848 7.65681 10.7752C7.56929 10.6656 7.46085 10.5749 7.33796 10.5086Z" fill="#20133A"/>
<path fill-rule="evenodd" clip-rule="evenodd" d="M56.9999 3.60002C55.6744 3.60002 54.5999 4.67454 54.5999 6.00002C54.5999 7.32551 55.6744 8.40003 56.9999 8.40003C58.3254 8.40003 59.3999 7.32551 59.3999 6.00002C59.3999 4.67454 58.3254 3.60002 56.9999 3.60002ZM51.3999 6.00002C51.3999 2.90723 53.9071 0.400024 56.9999 0.400024C60.0927 0.400024 62.5999 2.90723 62.5999 6.00002C62.5999 9.09282 60.0927 11.6 56.9999 11.6C56.0355 11.6 55.128 11.3562 54.3357 10.9269L51.9268 13.3359C52.1086 13.6714 52.2572 14.0276 52.368 14.4H61.6318C62.3202 12.0868 64.4631 10.4 66.9999 10.4C70.0927 10.4 72.5999 12.9072 72.5999 16C72.5999 19.0928 70.0927 21.6 66.9999 21.6C66.0355 21.6 65.128 21.3562 64.3357 20.9269L61.9268 23.3359C62.3561 24.1281 62.5999 25.0356 62.5999 26C62.5999 29.0928 60.0927 31.6 56.9999 31.6C53.9071 31.6 51.3999 29.0928 51.3999 26C51.3999 22.9072 53.9071 20.4 56.9999 20.4C57.9643 20.4 58.8718 20.6438 59.6641 21.0731L62.073 18.6642C61.8912 18.3286 61.7426 17.9724 61.6318 17.6H52.368C51.6796 19.9132 49.5367 21.6 46.9999 21.6C43.9071 21.6 41.3999 19.0928 41.3999 16C41.3999 12.9072 43.9071 10.4 46.9999 10.4C47.9643 10.4 48.8718 10.6438 49.6641 11.0731L52.073 8.66417C51.6437 7.87191 51.3999 6.96444 51.3999 6.00002ZM54.5999 26C54.5999 24.6745 55.6744 23.6 56.9999 23.6C58.3254 23.6 59.3999 24.6745 59.3999 26C59.3999 27.3255 58.3254 28.4 56.9999 28.4C55.6744 28.4 54.5999 27.3255 54.5999 26ZM46.9999 13.6C45.6744 13.6 44.5999 14.6745 44.5999 16C44.5999 17.3255 45.6744 18.4 46.9999 18.4C48.3254 18.4 49.3999 17.3255 49.3999 16C49.3999 14.6745 48.3254 13.6 46.9999 13.6ZM64.5999 16C64.5999 14.6745 65.6744 13.6 66.9999 13.6C68.3254 13.6 69.3999 14.6745 69.3999 16C69.3999 17.3255 68.3254 18.4 66.9999 18.4C65.6744 18.4 64.5999 17.3255 64.5999 16Z" fill="black"/>
<defs>
<linearGradient id="paint0_linear_145_1805" x1="8.17694e-05" y1="16.0011" x2="28.7789" y2="16.0011" gradientUnits="userSpaceOnUse">
<stop stop-color="#9059FF"/>
<stop offset="1" stop-color="#F770FF"/>
</linearGradient>
</defs>
</svg>
