<svg width="498" height="575" viewBox="0 0 498 575" fill="none" xmlns="http://www.w3.org/2000/svg">
<path d="M47.3047 161.089L43.1747 165.003L39.1981 161.298L38.7245 161.769L27.9771 172.573C28.3991 172.999 28.9754 173.242 29.5786 173.247H56.7708C57.3741 173.242 57.9505 173 58.3724 172.573L47.809 161.621L47.3047 161.089Z" fill="#0266A8"/>
<path d="M39.5273 161.626L28.031 151.382L28.0519 151.362H28.031C27.6167 151.775 27.3806 152.319 27.3691 152.887V171.095C27.373 171.677 27.624 172.233 28.0659 172.639L39.0535 162.103L39.5273 161.626Z" fill="#0390ED"/>
<path d="M58.8638 152.293C58.7372 151.938 58.5174 151.618 58.224 151.362H58.2064C58.2064 151.362 58.2064 151.362 58.224 151.379L46.8223 161.491L47.3347 161.989L58.2912 172.639C58.7331 172.231 58.9811 171.677 58.9804 171.099V152.961C58.9801 152.734 58.9407 152.508 58.8638 152.293Z" fill="#0390ED"/>
<path d="M39.2366 161.725L43.2208 165.344L47.3586 161.527L58.3724 151.37C58.3724 151.37 58.3724 151.37 58.3553 151.353C57.9504 150.973 57.4084 150.758 56.8429 150.754H29.5987C28.9912 150.76 28.4125 151.005 27.9975 151.432L27.9771 151.452L39.2366 161.725Z" fill="#62BEFB"/>
<circle cx="58.3725" cy="152.578" r="8.51069" fill="white"/>
<path d="M58.373 146.499C55.0174 146.499 52.2939 149.222 52.2939 152.578C52.2939 155.934 55.0174 158.657 58.373 158.657C61.7287 158.657 64.4521 155.934 64.4521 152.578C64.4521 149.222 61.7287 146.499 58.373 146.499ZM57.1572 155.618L54.1177 152.578L54.9748 151.721L57.1572 153.897L61.7712 149.283L62.6284 150.146L57.1572 155.618Z" fill="#0266A8"/>
<path d="M45.5699 398.403L38.7035 404.77L32.092 398.743L31.3046 399.51L13.436 417.082C14.1377 417.775 15.0959 418.169 16.0988 418.178H61.3083C62.3113 418.17 63.2696 417.776 63.971 417.082L46.4084 399.269L45.5699 398.403Z" fill="#FF651D"/>
<path d="M32.1124 399.452L13.4144 383.055L13.4484 383.023H13.4144C12.7405 383.684 12.3566 384.554 12.3379 385.463V414.608C12.3442 415.539 12.7523 416.429 13.4711 417.079L31.3419 400.214L32.1124 399.452Z" fill="#FF9200"/>
<path d="M63.8398 383.023H63.8111C63.8111 383.023 63.8111 383.023 63.8398 383.05L45.2954 399.759L46.1289 400.582L63.949 418.178C64.6677 417.504 65.0712 416.589 65.07 415.634V385.665C65.0695 385.289 65.0054 384.917 64.8803 384.56C64.6745 383.975 64.3169 383.446 63.8398 383.023Z" fill="#FF9200"/>
<path d="M32.156 400.098L38.7801 406.093L45.6597 399.771L63.971 382.944C63.971 382.944 63.971 382.944 63.9426 382.917C63.2694 382.286 62.3682 381.931 61.4281 381.925H16.1322C15.1222 381.933 14.16 382.339 13.4701 383.047L13.436 383.08L32.156 400.098Z" fill="#FBB85E"/>
<circle cx="65.3914" cy="386.346" r="12.3792" fill="white"/>
<path d="M65.3911 377.503C60.5102 377.503 56.5488 381.465 56.5488 386.346C56.5488 391.227 60.5102 395.188 65.3911 395.188C70.272 395.188 74.2334 391.227 74.2334 386.346C74.2334 381.465 70.272 377.503 65.3911 377.503ZM58.3173 386.346C58.3173 382.437 61.4828 379.272 65.3911 379.272C67.0269 379.272 68.5301 379.829 69.7238 380.766L59.8116 390.678C58.8743 389.485 58.3173 387.982 58.3173 386.346ZM65.3911 393.42C63.7553 393.42 62.2521 392.862 61.0584 391.925L70.9706 382.013C71.9079 383.207 72.4649 384.71 72.4649 386.346C72.4649 390.254 69.2994 393.42 65.3911 393.42Z" fill="#FF298A"/>
<path d="M394.252 199.591L389.334 204.151L384.599 199.834L384.035 200.384L371.237 212.969C371.739 213.465 372.426 213.748 373.144 213.754H405.524C406.242 213.748 406.928 213.466 407.431 212.969L394.852 200.211L394.252 199.591Z" fill="#FF651D"/>
<path d="M384.613 200.342L371.221 188.598L371.246 188.575H371.221C370.739 189.048 370.464 189.671 370.45 190.323V211.197C370.455 211.864 370.747 212.501 371.262 212.967L384.061 200.888L384.613 200.342Z" fill="#FF9200"/>
<path d="M407.337 188.575H407.317C407.317 188.575 407.317 188.575 407.337 188.595L394.056 200.562L394.653 201.151L407.416 213.754C407.93 213.271 408.219 212.615 408.219 211.932V190.467C408.218 190.198 408.172 189.931 408.083 189.676C407.935 189.257 407.679 188.878 407.337 188.575Z" fill="#FF9200"/>
<path d="M384.644 200.804L389.388 205.099L394.315 200.57L407.43 188.519C407.43 188.519 407.43 188.519 407.41 188.499C406.928 188.048 406.282 187.793 405.609 187.789H373.167C372.444 187.795 371.755 188.085 371.261 188.593L371.236 188.616L384.644 200.804Z" fill="#FBB85E"/>
<circle cx="408.448" cy="190.955" r="8.86618" fill="white"/>
<path d="M408.448 184.622C404.952 184.622 402.115 187.459 402.115 190.955C402.115 194.451 404.952 197.288 408.448 197.288C411.944 197.288 414.781 194.451 414.781 190.955C414.781 187.459 411.944 184.622 408.448 184.622ZM403.381 190.955C403.381 188.156 405.649 185.889 408.448 185.889C409.619 185.889 410.696 186.288 411.551 186.959L404.452 194.058C403.78 193.203 403.381 192.127 403.381 190.955ZM408.448 196.021C407.276 196.021 406.2 195.622 405.345 194.951L412.444 187.852C413.115 188.707 413.514 189.783 413.514 190.955C413.514 193.754 411.247 196.021 408.448 196.021Z" fill="#FF298A"/>
<path d="M44.2973 351.973C44.3241 351.703 44.1508 351.453 43.8884 351.384C42.8059 351.191 39.7991 350.482 38.7888 349.459C37.7785 348.437 37.0569 345.43 36.8645 344.36C36.818 344.097 36.5903 343.905 36.3232 343.903V351.925L44.2973 351.973Z" fill="#FFEA80"/>
<path d="M36.2753 343.951C36.0062 343.958 35.7798 344.154 35.7341 344.42C35.5657 345.49 34.8922 348.497 33.8819 349.507C32.8716 350.518 29.8046 351.239 28.7222 351.432C28.4592 351.478 28.2669 351.706 28.2651 351.973H36.2873L36.2753 343.951Z" fill="#FFD567"/>
<path d="M36.2769 351.973V359.995C36.5439 359.994 36.7716 359.801 36.8181 359.538C37.0105 358.444 37.7201 355.401 38.7424 354.379C39.7648 353.356 42.7596 352.695 43.83 352.526C44.0996 352.48 44.2972 352.247 44.299 351.973H36.2769Z" fill="#FFD567"/>
<path d="M28.254 351.973C28.2498 352.245 28.4435 352.479 28.711 352.526C29.8055 352.695 32.8484 353.368 33.8707 354.379C34.893 355.389 35.5545 358.444 35.7229 359.526C35.7641 359.794 35.9932 359.993 36.2641 359.995V351.973H28.254Z" fill="#FFA266"/>
<path d="M478.324 120.669C478.343 120.475 478.219 120.296 478.031 120.246C477.256 120.109 475.102 119.6 474.378 118.868C473.655 118.136 473.138 115.982 473 115.215C472.967 115.027 472.804 114.889 472.612 114.888V120.634L478.324 120.669Z" fill="#FFEA80"/>
<path d="M472.578 114.922C472.385 114.928 472.223 115.068 472.19 115.258C472.069 116.025 471.587 118.179 470.863 118.903C470.14 119.626 467.943 120.143 467.167 120.281C466.979 120.314 466.841 120.478 466.84 120.669H472.586L472.578 114.922Z" fill="#FFD567"/>
<path d="M472.578 120.668V126.415C472.769 126.414 472.932 126.276 472.965 126.088C473.103 125.304 473.611 123.124 474.344 122.392C475.076 121.659 477.221 121.185 477.988 121.065C478.181 121.031 478.323 120.864 478.324 120.668H472.578Z" fill="#FFD567"/>
<path d="M466.831 120.668C466.828 120.863 466.967 121.031 467.158 121.065C467.942 121.185 470.122 121.668 470.854 122.392C471.587 123.115 472.061 125.304 472.181 126.079C472.211 126.271 472.375 126.413 472.569 126.415V120.668H466.831Z" fill="#FFA266"/>
<path d="M450.913 178.883C450.932 178.69 450.808 178.511 450.62 178.461C449.845 178.323 447.691 177.815 446.967 177.083C446.244 176.351 445.727 174.197 445.589 173.43C445.556 173.242 445.392 173.104 445.201 173.103V178.849L450.913 178.883Z" fill="#FFEA80"/>
<path d="M445.166 173.137C444.973 173.142 444.811 173.283 444.778 173.473C444.658 174.239 444.175 176.393 443.452 177.117C442.728 177.841 440.531 178.358 439.756 178.495C439.567 178.529 439.429 178.692 439.428 178.883H445.175L445.166 173.137Z" fill="#FFD567"/>
<path d="M445.167 178.883V184.63C445.358 184.629 445.521 184.491 445.554 184.302C445.692 183.518 446.2 181.339 446.933 180.606C447.665 179.874 449.81 179.4 450.577 179.28C450.77 179.246 450.912 179.079 450.913 178.883H445.167Z" fill="#FFD567"/>
<path d="M439.42 178.883C439.417 179.078 439.556 179.246 439.747 179.28C440.531 179.4 442.711 179.883 443.443 180.606C444.176 181.33 444.65 183.518 444.77 184.294C444.8 184.486 444.964 184.628 445.158 184.63V178.883H439.42Z" fill="#FFA266"/>
<g filter="url(#filter0_d_420_2078)">
<rect x="24.7163" y="488.032" width="144.129" height="58.359" rx="12" fill="white"/>
</g>
<rect x="36.2109" y="498.643" width="37.1376" height="37.1376" rx="6" fill="#0390ED"/>
<path d="M86.0909 515.196C88.0589 515.196 89.1869 514.152 89.1869 512.676C89.1869 511.176 88.0349 510.624 86.3189 510.24C85.0109 509.94 84.3989 509.7 84.3989 509.028C84.3989 508.452 84.9629 507.948 85.7909 507.948C86.6069 507.948 87.4349 508.296 88.1549 508.92L88.9709 507.816C88.1429 507.108 87.1589 506.664 85.8509 506.664C84.1109 506.664 82.8869 507.72 82.8869 509.16C82.8869 510.708 84.0749 511.2 85.7789 511.596C87.0989 511.908 87.6869 512.136 87.6869 512.82C87.6869 513.408 87.1589 513.912 86.1389 513.912C85.0589 513.912 84.1829 513.48 83.4269 512.796L82.5629 513.864C83.4749 514.716 84.6749 515.196 86.0909 515.196ZM93.5066 515.208C95.3066 515.208 96.8306 513.72 96.8306 511.956C96.8306 510.192 95.3066 508.716 93.5066 508.716C91.7066 508.716 90.1826 510.192 90.1826 511.956C90.1826 513.72 91.7066 515.208 93.5066 515.208ZM93.5066 513.96C92.4746 513.96 91.6106 513.048 91.6106 511.956C91.6106 510.876 92.4746 509.964 93.5066 509.964C94.5266 509.964 95.3906 510.876 95.3906 511.956C95.3906 513.048 94.5266 513.96 93.5066 513.96ZM97.8484 515.064H103.092V513.78H99.7564L103.056 509.928L103.068 508.86H97.9204V510.144H101.136L97.8484 513.996V515.064ZM105.161 507.924C105.617 507.924 105.989 507.528 105.989 507.084C105.989 506.64 105.617 506.256 105.161 506.256C104.693 506.256 104.321 506.64 104.321 507.084C104.321 507.528 104.693 507.924 105.161 507.924ZM104.417 515.064H105.881V508.86H104.417V515.064ZM110.199 508.716C109.419 508.716 108.603 508.932 107.727 509.364L108.231 510.384C108.759 510.12 109.323 509.916 109.911 509.916C111.039 509.916 111.435 510.612 111.435 511.332V511.5C110.871 511.284 110.259 511.164 109.695 511.164C108.303 511.164 107.163 512.004 107.163 513.228C107.163 514.428 108.159 515.208 109.479 515.208C110.199 515.208 110.979 514.896 111.435 514.32V515.064H112.863V511.332C112.863 509.76 111.843 508.716 110.199 508.716ZM109.803 514.14C109.107 514.14 108.591 513.768 108.591 513.18C108.591 512.592 109.179 512.184 109.911 512.184C110.463 512.184 110.979 512.268 111.435 512.424V513.12C111.267 513.78 110.511 514.14 109.803 514.14ZM114.448 515.064H115.912V506.676H114.448V515.064ZM120.422 513.912C119.534 513.912 118.886 513.312 118.706 512.46H123.386C123.386 510.168 122.27 508.716 120.35 508.716C118.586 508.716 117.194 510.084 117.194 511.944C117.194 513.852 118.658 515.208 120.434 515.208C121.334 515.208 122.414 514.824 122.954 514.248L122.03 513.288C121.682 513.648 120.998 513.912 120.422 513.912ZM120.41 510.012C121.286 510.012 121.814 510.564 121.982 511.344H118.718C118.934 510.528 119.594 510.012 120.41 510.012ZM83.1389 531.064H84.6389V528.712L85.7549 527.512L88.4789 531.064H90.3269L86.7869 526.456L90.0869 522.82H88.2509L84.6389 526.852V522.82H83.1389V531.064ZM94.2215 531.208C96.0215 531.208 97.5455 529.72 97.5455 527.956C97.5455 526.192 96.0215 524.716 94.2215 524.716C92.4215 524.716 90.8975 526.192 90.8975 527.956C90.8975 529.72 92.4215 531.208 94.2215 531.208ZM94.2215 529.96C93.1895 529.96 92.3255 529.048 92.3255 527.956C92.3255 526.876 93.1895 525.964 94.2215 525.964C95.2415 525.964 96.1055 526.876 96.1055 527.956C96.1055 529.048 95.2415 529.96 94.2215 529.96ZM102.199 524.716C101.383 524.716 100.663 525.112 100.279 525.688V524.86H98.8152V531.064H100.279V527.14C100.375 526.48 101.011 525.964 101.779 525.964C102.547 525.964 103.087 526.564 103.087 527.404V531.064H104.503V527.116C104.503 525.712 103.555 524.716 102.199 524.716ZM109.189 529.732C109.057 529.864 108.829 529.96 108.577 529.96C108.229 529.96 107.965 529.66 107.965 529.24V526.072H109.369V524.86H107.965V523.156H106.537V524.86H105.637V526.072H106.537V529.42C106.537 530.464 107.257 531.208 108.289 531.208C108.757 531.208 109.261 531.016 109.609 530.716L109.189 529.732ZM113.445 524.716C112.665 524.716 111.849 524.932 110.973 525.364L111.477 526.384C112.005 526.12 112.569 525.916 113.157 525.916C114.285 525.916 114.681 526.612 114.681 527.332V527.5C114.117 527.284 113.505 527.164 112.941 527.164C111.549 527.164 110.409 528.004 110.409 529.228C110.409 530.428 111.405 531.208 112.725 531.208C113.445 531.208 114.225 530.896 114.681 530.32V531.064H116.109V527.332C116.109 525.76 115.089 524.716 113.445 524.716ZM113.049 530.14C112.353 530.14 111.837 529.768 111.837 529.18C111.837 528.592 112.425 528.184 113.157 528.184C113.709 528.184 114.225 528.268 114.681 528.424V529.12C114.513 529.78 113.757 530.14 113.049 530.14ZM123.55 524.86H121.822L119.134 527.8V522.676H117.67V531.064H119.134V529.516L120.01 528.592L121.762 531.064H123.466L120.994 527.632L123.55 524.86ZM127.528 529.732C127.396 529.864 127.168 529.96 126.916 529.96C126.568 529.96 126.304 529.66 126.304 529.24V526.072H127.708V524.86H126.304V523.156H124.876V524.86H123.976V526.072H124.876V529.42C124.876 530.464 125.596 531.208 126.628 531.208C127.096 531.208 127.6 531.016 127.948 530.716L127.528 529.732ZM131.977 529.912C131.089 529.912 130.441 529.312 130.261 528.46H134.941C134.941 526.168 133.825 524.716 131.905 524.716C130.141 524.716 128.749 526.084 128.749 527.944C128.749 529.852 130.213 531.208 131.989 531.208C132.889 531.208 133.969 530.824 134.509 530.248L133.585 529.288C133.237 529.648 132.553 529.912 131.977 529.912ZM131.965 526.012C132.841 526.012 133.369 526.564 133.537 527.344H130.273C130.489 526.528 131.149 526.012 131.965 526.012Z" fill="#999999"/>
<g clip-path="url(#clip0_420_2078)">
<path d="M58.7588 509.253C57.2202 509.253 55.7436 509.969 54.7798 511.101C53.816 509.969 52.3393 509.253 50.8008 509.253C48.0773 509.253 45.9375 511.393 45.9375 514.116C45.9375 517.459 48.9439 520.182 53.4976 524.32L54.7798 525.479L56.0619 524.312C60.6157 520.182 63.6221 517.459 63.6221 514.116C63.6221 511.393 61.4822 509.253 58.7588 509.253ZM54.8682 523.003L54.7798 523.091L54.6914 523.003C50.4824 519.192 47.706 516.672 47.706 514.116C47.706 512.348 49.0323 511.022 50.8008 511.022C52.1625 511.022 53.4888 511.897 53.9574 513.108H55.611C56.0708 511.897 57.3971 511.022 58.7588 511.022C60.5273 511.022 61.8536 512.348 61.8536 514.116C61.8536 516.672 59.0771 519.192 54.8682 523.003Z" fill="white"/>
</g>
<g filter="url(#filter1_d_420_2078)">
<rect x="320" y="20" width="154" height="59" rx="12" fill="white"/>
</g>
<rect x="331" y="30.8857" width="37.1376" height="37.1376" rx="6" fill="#FBB85E"/>
<path d="M345.148 54.76C344.175 54.76 343.388 55.5558 343.388 56.5284C343.388 57.5011 344.175 58.2969 345.148 58.2969C346.12 58.2969 346.916 57.5011 346.916 56.5284C346.916 55.5558 346.12 54.76 345.148 54.76ZM339.842 40.6123V42.3808H341.611L344.794 49.0921L343.6 51.2584C343.459 51.506 343.379 51.7978 343.379 52.1073C343.379 53.0799 344.175 53.8757 345.148 53.8757H355.758V52.1073H345.519C345.395 52.1073 345.298 52.01 345.298 51.8862L345.324 51.7801L346.12 50.3388H352.708C353.371 50.3388 353.955 49.9763 354.255 49.4281L357.421 43.6894C357.491 43.5656 357.527 43.4153 357.527 43.265C357.527 42.7787 357.129 42.3808 356.643 42.3808H343.565L342.734 40.6123H339.842ZM353.99 54.76C353.017 54.76 352.23 55.5558 352.23 56.5284C352.23 57.5011 353.017 58.2969 353.99 58.2969C354.963 58.2969 355.758 57.5011 355.758 56.5284C355.758 55.5558 354.963 54.76 353.99 54.76Z" fill="white"/>
<path d="M377.12 47H378.87V40.238L383.952 47H385.688V37.382H383.952V44.144L378.87 37.382H377.12V47ZM392.652 39.762V44.34C392.54 45.11 391.798 45.712 390.902 45.712C390.006 45.712 389.376 45.012 389.376 44.032V39.762H387.724V44.368C387.724 46.006 388.83 47.168 390.412 47.168C391.364 47.168 392.204 46.706 392.652 46.034V47H394.36V39.762H392.652ZM399.855 45.446C399.701 45.6 399.435 45.712 399.141 45.712C398.735 45.712 398.427 45.362 398.427 44.872V41.176H400.065V39.762H398.427V37.774H396.761V39.762H395.711V41.176H396.761V45.082C396.761 46.3 397.601 47.168 398.805 47.168C399.351 47.168 399.939 46.944 400.345 46.594L399.855 45.446ZM401.376 47H407.494V45.502H403.602L407.452 41.008L407.466 39.762H401.46V41.26H405.212L401.376 45.754V47ZM412.414 45.656C411.378 45.656 410.622 44.956 410.412 43.962H415.872C415.872 41.288 414.57 39.594 412.33 39.594C410.272 39.594 408.648 41.19 408.648 43.36C408.648 45.586 410.356 47.168 412.428 47.168C413.478 47.168 414.738 46.72 415.368 46.048L414.29 44.928C413.884 45.348 413.086 45.656 412.414 45.656ZM412.4 41.106C413.422 41.106 414.038 41.75 414.234 42.66H410.426C410.678 41.708 411.448 41.106 412.4 41.106ZM381.684 63.168C383.098 63.168 384.386 62.566 385.31 61.6L384.078 60.452C383.476 61.138 382.622 61.572 381.684 61.572C379.906 61.572 378.408 60.032 378.408 58.184C378.408 56.35 379.906 54.81 381.684 54.81C382.608 54.81 383.476 55.244 384.064 55.93L385.31 54.768C384.386 53.816 383.098 53.214 381.684 53.214C378.94 53.214 376.63 55.482 376.63 58.184C376.63 60.886 378.94 63.168 381.684 63.168ZM390.104 63.168C392.204 63.168 393.982 61.432 393.982 59.374C393.982 57.316 392.204 55.594 390.104 55.594C388.004 55.594 386.226 57.316 386.226 59.374C386.226 61.432 388.004 63.168 390.104 63.168ZM390.104 61.712C388.9 61.712 387.892 60.648 387.892 59.374C387.892 58.114 388.9 57.05 390.104 57.05C391.294 57.05 392.302 58.114 392.302 59.374C392.302 60.648 391.294 61.712 390.104 61.712ZM400.363 55.762V60.34C400.251 61.11 399.509 61.712 398.613 61.712C397.717 61.712 397.087 61.012 397.087 60.032V55.762H395.435V60.368C395.435 62.006 396.541 63.168 398.123 63.168C399.075 63.168 399.915 62.706 400.363 62.034V63H402.071V55.762H400.363ZM408.224 55.594C407.146 55.594 406.278 56.084 405.704 56.91V55.762H403.996V65.408H405.704V61.852C406.278 62.678 407.146 63.168 408.224 63.168C410.142 63.168 411.542 61.6 411.542 59.374C411.542 57.162 410.142 55.594 408.224 55.594ZM407.762 61.712C406.558 61.712 405.718 60.732 405.718 59.374C405.718 58.016 406.558 57.05 407.762 57.05C408.98 57.05 409.848 58.016 409.848 59.374C409.848 60.732 408.98 61.712 407.762 61.712ZM416.586 63.168C418.686 63.168 420.464 61.432 420.464 59.374C420.464 57.316 418.686 55.594 416.586 55.594C414.486 55.594 412.708 57.316 412.708 59.374C412.708 61.432 414.486 63.168 416.586 63.168ZM416.586 61.712C415.382 61.712 414.374 60.648 414.374 59.374C414.374 58.114 415.382 57.05 416.586 57.05C417.776 57.05 418.784 58.114 418.784 59.374C418.784 60.648 417.776 61.712 416.586 61.712ZM425.894 55.594C424.942 55.594 424.102 56.056 423.654 56.728V55.762H421.946V63H423.654V58.422C423.766 57.652 424.508 57.05 425.404 57.05C426.3 57.05 426.93 57.75 426.93 58.73V63H428.582V58.394C428.582 56.756 427.476 55.594 425.894 55.594ZM433.11 63.168C434.804 63.168 435.952 62.272 435.952 60.886C435.952 59.374 434.636 58.954 433.418 58.618C432.312 58.296 431.934 58.156 431.934 57.694C431.934 57.288 432.396 57.05 432.998 57.05C433.628 57.05 434.37 57.274 435.056 57.708L435.77 56.462C434.986 55.944 433.992 55.594 432.998 55.594C431.388 55.594 430.268 56.518 430.268 57.876C430.282 59.164 431.276 59.612 432.844 60.018C433.67 60.242 434.3 60.424 434.3 60.984C434.3 61.432 433.824 61.726 433.138 61.726C432.228 61.726 431.416 61.39 430.716 60.886L429.946 62.076C430.814 62.776 432.004 63.168 433.11 63.168Z" fill="#999999"/>
<g filter="url(#filter2_d_420_2078)">
<rect x="275" y="424" width="170" height="59" rx="12" fill="white"/>
</g>
<path d="M331.612 449H338.26V447.632H333.664L338.2 441.896V440.756H331.696V442.124H336.16L331.612 447.86V449ZM343.844 442.796V446.72C343.748 447.38 343.112 447.896 342.344 447.896C341.576 447.896 341.036 447.296 341.036 446.456V442.796H339.62V446.744C339.62 448.148 340.568 449.144 341.924 449.144C342.74 449.144 343.46 448.748 343.844 448.172V449H345.308V442.796H343.844ZM351.541 442.796V443.72C351.097 443.06 350.293 442.652 349.417 442.652C347.809 442.652 346.621 443.864 346.621 445.592C346.621 447.32 347.809 448.544 349.417 448.544C350.305 448.544 351.049 448.148 351.541 447.488V448.292C351.541 449.228 350.773 449.816 349.549 449.816C348.817 449.816 348.073 449.564 347.641 449.168L347.101 450.236C347.713 450.716 348.697 451.064 349.765 451.064C351.661 451.064 353.005 449.936 353.005 448.34V442.796H351.541ZM349.837 447.296C348.853 447.296 348.145 446.588 348.145 445.592C348.145 444.608 348.853 443.9 349.837 443.9C350.833 443.9 351.541 444.608 351.541 445.592C351.541 446.588 350.833 447.296 349.837 447.296ZM357.344 442.652C356.564 442.652 355.748 442.868 354.872 443.3L355.376 444.32C355.904 444.056 356.468 443.852 357.056 443.852C358.184 443.852 358.58 444.548 358.58 445.268V445.436C358.016 445.22 357.404 445.1 356.84 445.1C355.448 445.1 354.308 445.94 354.308 447.164C354.308 448.364 355.304 449.144 356.624 449.144C357.344 449.144 358.124 448.832 358.58 448.256V449H360.008V445.268C360.008 443.696 358.988 442.652 357.344 442.652ZM356.948 448.076C356.252 448.076 355.736 447.704 355.736 447.116C355.736 446.528 356.324 446.12 357.056 446.12C357.608 446.12 358.124 446.204 358.58 446.36V447.056C358.412 447.716 357.656 448.076 356.948 448.076ZM364.977 442.652C364.161 442.652 363.441 443.048 363.057 443.624V442.796H361.593V449H363.057V445.076C363.153 444.416 363.789 443.9 364.557 443.9C365.325 443.9 365.865 444.5 365.865 445.34V449H367.281V445.052C367.281 443.648 366.333 442.652 364.977 442.652ZM373.49 442.796V443.72C373.046 443.06 372.242 442.652 371.366 442.652C369.758 442.652 368.57 443.864 368.57 445.592C368.57 447.32 369.758 448.544 371.366 448.544C372.254 448.544 372.998 448.148 373.49 447.488V448.292C373.49 449.228 372.722 449.816 371.498 449.816C370.766 449.816 370.022 449.564 369.59 449.168L369.05 450.236C369.662 450.716 370.646 451.064 371.714 451.064C373.61 451.064 374.954 449.936 374.954 448.34V442.796H373.49ZM371.786 447.296C370.802 447.296 370.094 446.588 370.094 445.592C370.094 444.608 370.802 443.9 371.786 443.9C372.782 443.9 373.49 444.608 373.49 445.592C373.49 446.588 372.782 447.296 371.786 447.296ZM379.74 449H384.984V447.716H381.648L384.948 443.864L384.96 442.796H379.812V444.08H383.028L379.74 447.932V449ZM390.508 442.796V446.72C390.412 447.38 389.776 447.896 389.008 447.896C388.24 447.896 387.7 447.296 387.7 446.456V442.796H386.284V446.744C386.284 448.148 387.232 449.144 388.588 449.144C389.404 449.144 390.124 448.748 390.508 448.172V449H391.972V442.796H390.508ZM336.52 456.612V459.756C336.028 459.06 335.284 458.652 334.372 458.652C332.728 458.652 331.528 459.996 331.528 461.892C331.528 463.8 332.728 465.144 334.372 465.144C335.284 465.144 336.028 464.736 336.52 464.04V465H337.984V456.612H336.52ZM334.768 463.896C333.724 463.896 332.98 463.056 332.98 461.892C332.98 460.728 333.724 459.9 334.768 459.9C335.8 459.9 336.52 460.728 336.52 461.892C336.52 463.056 335.8 463.896 334.768 463.896ZM340.376 457.86C340.832 457.86 341.204 457.464 341.204 457.02C341.204 456.576 340.832 456.192 340.376 456.192C339.908 456.192 339.536 456.576 339.536 457.02C339.536 457.464 339.908 457.86 340.376 457.86ZM339.632 465H341.096V458.796H339.632V465ZM347.334 458.796V459.72C346.89 459.06 346.086 458.652 345.21 458.652C343.602 458.652 342.414 459.864 342.414 461.592C342.414 463.32 343.602 464.544 345.21 464.544C346.098 464.544 346.842 464.148 347.334 463.488V464.292C347.334 465.228 346.566 465.816 345.342 465.816C344.61 465.816 343.866 465.564 343.434 465.168L342.894 466.236C343.506 466.716 344.49 467.064 345.558 467.064C347.454 467.064 348.798 465.936 348.798 464.34V458.796H347.334ZM345.63 463.296C344.646 463.296 343.938 462.588 343.938 461.592C343.938 460.608 344.646 459.9 345.63 459.9C346.626 459.9 347.334 460.608 347.334 461.592C347.334 462.588 346.626 463.296 345.63 463.296ZM351.181 457.86C351.637 457.86 352.009 457.464 352.009 457.02C352.009 456.576 351.637 456.192 351.181 456.192C350.713 456.192 350.341 456.576 350.341 457.02C350.341 457.464 350.713 457.86 351.181 457.86ZM350.437 465H351.901V458.796H350.437V465ZM356.615 463.668C356.483 463.8 356.255 463.896 356.003 463.896C355.655 463.896 355.391 463.596 355.391 463.176V460.008H356.795V458.796H355.391V457.092H353.963V458.796H353.063V460.008H353.963V463.356C353.963 464.4 354.683 465.144 355.715 465.144C356.183 465.144 356.687 464.952 357.035 464.652L356.615 463.668ZM360.871 458.652C360.091 458.652 359.275 458.868 358.399 459.3L358.903 460.32C359.431 460.056 359.995 459.852 360.583 459.852C361.711 459.852 362.107 460.548 362.107 461.268V461.436C361.543 461.22 360.931 461.1 360.367 461.1C358.975 461.1 357.835 461.94 357.835 463.164C357.835 464.364 358.831 465.144 360.151 465.144C360.871 465.144 361.651 464.832 362.107 464.256V465H363.535V461.268C363.535 459.696 362.515 458.652 360.871 458.652ZM360.475 464.076C359.779 464.076 359.263 463.704 359.263 463.116C359.263 462.528 359.851 462.12 360.583 462.12C361.135 462.12 361.651 462.204 362.107 462.36V463.056C361.939 463.716 361.183 464.076 360.475 464.076ZM365.12 465H366.584V456.612H365.12V465ZM371.094 463.848C370.206 463.848 369.558 463.248 369.378 462.396H374.058C374.058 460.104 372.942 458.652 371.022 458.652C369.258 458.652 367.866 460.02 367.866 461.88C367.866 463.788 369.33 465.144 371.106 465.144C372.006 465.144 373.086 464.76 373.626 464.184L372.702 463.224C372.354 463.584 371.67 463.848 371.094 463.848ZM371.082 459.948C371.958 459.948 372.486 460.5 372.654 461.28H369.39C369.606 460.464 370.266 459.948 371.082 459.948ZM378.711 458.652C377.895 458.652 377.175 459.048 376.791 459.624V458.796H375.327V465H376.791V461.076C376.887 460.416 377.523 459.9 378.291 459.9C379.059 459.9 379.599 460.5 379.599 461.34V465H381.015V461.052C381.015 459.648 380.067 458.652 378.711 458.652ZM386.075 465H387.563V456.756H386.075V465ZM392.622 458.652C391.806 458.652 391.086 459.048 390.702 459.624V458.796H389.238V465H390.702V461.076C390.798 460.416 391.434 459.9 392.202 459.9C392.97 459.9 393.51 460.5 393.51 461.34V465H394.926V461.052C394.926 459.648 393.978 458.652 392.622 458.652ZM399.899 458.652C399.071 458.652 398.339 459.048 397.967 459.648V456.612H396.503V465H397.967V461.244C397.967 460.5 398.651 459.9 399.479 459.9C400.247 459.9 400.787 460.5 400.787 461.34V465H402.203V461.052C402.203 459.648 401.255 458.652 399.899 458.652ZM406.492 458.652C405.712 458.652 404.896 458.868 404.02 459.3L404.524 460.32C405.052 460.056 405.616 459.852 406.204 459.852C407.332 459.852 407.728 460.548 407.728 461.268V461.436C407.164 461.22 406.552 461.1 405.988 461.1C404.596 461.1 403.456 461.94 403.456 463.164C403.456 464.364 404.452 465.144 405.772 465.144C406.492 465.144 407.272 464.832 407.728 464.256V465H409.156V461.268C409.156 459.696 408.136 458.652 406.492 458.652ZM406.096 464.076C405.4 464.076 404.884 463.704 404.884 463.116C404.884 462.528 405.472 462.12 406.204 462.12C406.756 462.12 407.272 462.204 407.728 462.36V463.056C407.56 463.716 406.804 464.076 406.096 464.076ZM410.742 465H412.206V456.612H410.742V465ZM416.92 463.668C416.788 463.8 416.56 463.896 416.308 463.896C415.96 463.896 415.696 463.596 415.696 463.176V460.008H417.1V458.796H415.696V457.092H414.268V458.796H413.368V460.008H414.268V463.356C414.268 464.4 414.988 465.144 416.02 465.144C416.488 465.144 416.992 464.952 417.34 464.652L416.92 463.668ZM421.368 463.848C420.48 463.848 419.832 463.248 419.652 462.396H424.332C424.332 460.104 423.216 458.652 421.296 458.652C419.532 458.652 418.14 460.02 418.14 461.88C418.14 463.788 419.604 465.144 421.38 465.144C422.28 465.144 423.36 464.76 423.9 464.184L422.976 463.224C422.628 463.584 421.944 463.848 421.368 463.848ZM421.356 459.948C422.232 459.948 422.76 460.5 422.928 461.28H419.664C419.88 460.464 420.54 459.948 421.356 459.948ZM428.985 458.652C428.169 458.652 427.449 459.048 427.065 459.624V458.796H425.601V465H427.065V461.076C427.161 460.416 427.797 459.9 428.565 459.9C429.333 459.9 429.873 460.5 429.873 461.34V465H431.289V461.052C431.289 459.648 430.341 458.652 428.985 458.652Z" fill="#999999"/>
<circle cx="303.664" cy="453.105" r="21.6636" fill="#0266A8"/>
<path d="M300.569 456.2H307.642V457.968H300.569V456.2ZM300.569 452.663H307.642V454.431H300.569V452.663ZM305.874 443.82H298.8C297.828 443.82 297.032 444.616 297.032 445.589V459.736C297.032 460.709 297.819 461.505 298.791 461.505H309.411C310.384 461.505 311.179 460.709 311.179 459.736V449.126L305.874 443.82ZM309.411 459.736H298.8V445.589H304.99V450.01H309.411V459.736Z" fill="white"/>
<path d="M281.7 356.5H282.3V357.1H281.7V356.5ZM281.7 357.7H282.3V359.5H281.7V357.7ZM282 355C280.344 355 279 356.344 279 358C279 359.656 280.344 361 282 361C283.656 361 285 359.656 285 358C285 356.344 283.656 355 282 355ZM282 360.4C280.677 360.4 279.6 359.323 279.6 358C279.6 356.677 280.677 355.6 282 355.6C283.323 355.6 284.4 356.677 284.4 358C284.4 359.323 283.323 360.4 282 360.4Z" fill="#999999"/>
<defs>
<filter id="filter0_d_420_2078" x="0.716309" y="468.032" width="192.129" height="106.359" filterUnits="userSpaceOnUse" color-interpolation-filters="sRGB">
<feFlood flood-opacity="0" result="BackgroundImageFix"/>
<feColorMatrix in="SourceAlpha" type="matrix" values="0 0 0 0 0 0 0 0 0 0 0 0 0 0 0 0 0 0 127 0" result="hardAlpha"/>
<feOffset dy="4"/>
<feGaussianBlur stdDeviation="12"/>
<feComposite in2="hardAlpha" operator="out"/>
<feColorMatrix type="matrix" values="0 0 0 0 0 0 0 0 0 0 0 0 0 0 0 0 0 0 0.12 0"/>
<feBlend mode="normal" in2="BackgroundImageFix" result="effect1_dropShadow_420_2078"/>
<feBlend mode="normal" in="SourceGraphic" in2="effect1_dropShadow_420_2078" result="shape"/>
</filter>
<filter id="filter1_d_420_2078" x="296" y="0" width="202" height="107" filterUnits="userSpaceOnUse" color-interpolation-filters="sRGB">
<feFlood flood-opacity="0" result="BackgroundImageFix"/>
<feColorMatrix in="SourceAlpha" type="matrix" values="0 0 0 0 0 0 0 0 0 0 0 0 0 0 0 0 0 0 127 0" result="hardAlpha"/>
<feOffset dy="4"/>
<feGaussianBlur stdDeviation="12"/>
<feComposite in2="hardAlpha" operator="out"/>
<feColorMatrix type="matrix" values="0 0 0 0 0 0 0 0 0 0 0 0 0 0 0 0 0 0 0.12 0"/>
<feBlend mode="normal" in2="BackgroundImageFix" result="effect1_dropShadow_420_2078"/>
<feBlend mode="normal" in="SourceGraphic" in2="effect1_dropShadow_420_2078" result="shape"/>
</filter>
<filter id="filter2_d_420_2078" x="251" y="404" width="218" height="107" filterUnits="userSpaceOnUse" color-interpolation-filters="sRGB">
<feFlood flood-opacity="0" result="BackgroundImageFix"/>
<feColorMatrix in="SourceAlpha" type="matrix" values="0 0 0 0 0 0 0 0 0 0 0 0 0 0 0 0 0 0 127 0" result="hardAlpha"/>
<feOffset dy="4"/>
<feGaussianBlur stdDeviation="12"/>
<feComposite in2="hardAlpha" operator="out"/>
<feColorMatrix type="matrix" values="0 0 0 0 0 0 0 0 0 0 0 0 0 0 0 0 0 0 0.12 0"/>
<feBlend mode="normal" in2="BackgroundImageFix" result="effect1_dropShadow_420_2078"/>
<feBlend mode="normal" in="SourceGraphic" in2="effect1_dropShadow_420_2078" result="shape"/>
</filter>
<clipPath id="clip0_420_2078">
<rect width="21.2215" height="21.2215" fill="white" transform="translate(44.1689 506.601)"/>
</clipPath>
</defs>
</svg>
