<svg width="509" height="575" viewBox="0 0 509 575" fill="none" xmlns="http://www.w3.org/2000/svg">
<path d="M434.816 311.061L428.809 316.754L423.025 311.364L422.336 312.05L406.703 327.765C407.317 328.385 408.155 328.737 409.033 328.745H448.585C449.462 328.738 450.301 328.385 450.915 327.765L435.55 311.835L434.816 311.061Z" fill="#0266A8"/>
<path d="M423.504 311.841L406.782 296.941L406.813 296.912H406.782C406.179 297.512 405.836 298.303 405.819 299.13V325.614C405.825 326.46 406.19 327.269 406.833 327.86L422.815 312.534L423.504 311.841Z" fill="#0390ED"/>
<path d="M451.629 298.265C451.445 297.75 451.125 297.285 450.699 296.912H450.673C450.673 296.912 450.673 296.912 450.699 296.936L434.114 311.645L434.86 312.369L450.796 327.86C451.439 327.267 451.8 326.461 451.799 325.621V299.237C451.798 298.907 451.741 298.579 451.629 298.265Z" fill="#0390ED"/>
<path d="M423.081 311.985L428.876 317.25L434.895 311.698L450.915 296.923C450.915 296.923 450.915 296.923 450.89 296.899C450.301 296.346 449.512 296.034 448.69 296.028H409.062C408.178 296.036 407.336 296.392 406.733 297.014L406.703 297.043L423.081 311.985Z" fill="#62BEFB"/>
<circle cx="450.914" cy="298.681" r="12.3792" fill="white"/>
<path d="M450.915 289.839C446.034 289.839 442.072 293.8 442.072 298.681C442.072 303.562 446.034 307.523 450.915 307.523C455.795 307.523 459.757 303.562 459.757 298.681C459.757 293.8 455.795 289.839 450.915 289.839ZM449.146 303.102L444.725 298.681L445.972 297.434L449.146 300.6L455.857 293.889L457.104 295.144L449.146 303.102Z" fill="#0266A8"/>
<path d="M489.417 160.077L485.288 163.992L481.311 160.286L480.837 160.758L470.09 171.562C470.512 171.988 471.088 172.23 471.691 172.235H498.884C499.487 172.23 500.063 171.988 500.485 171.562L489.922 160.609L489.417 160.077Z" fill="#0266A8"/>
<path d="M481.641 160.614L470.144 150.37L470.165 150.351H470.144C469.73 150.763 469.494 151.307 469.482 151.875V170.083C469.486 170.665 469.737 171.221 470.179 171.627L481.167 161.091L481.641 160.614Z" fill="#0390ED"/>
<path d="M500.977 151.282C500.851 150.927 500.631 150.608 500.337 150.352H500.32C500.32 150.352 500.32 150.352 500.337 150.368L488.936 160.481L489.448 160.978L500.404 171.628C500.846 171.221 501.094 170.666 501.094 170.089V151.95C501.093 151.723 501.054 151.498 500.977 151.282Z" fill="#0390ED"/>
<path d="M481.349 160.713L485.334 164.333L489.471 160.516L500.485 150.358C500.485 150.358 500.485 150.358 500.468 150.342C500.063 149.962 499.521 149.747 498.956 149.743H471.712C471.104 149.748 470.525 149.993 470.11 150.421L470.09 150.441L481.349 160.713Z" fill="#62BEFB"/>
<circle cx="500.485" cy="151.567" r="8.51069" fill="white"/>
<path d="M500.485 145.488C497.13 145.488 494.406 148.212 494.406 151.567C494.406 154.923 497.13 157.646 500.485 157.646C503.841 157.646 506.564 154.923 506.564 151.567C506.564 148.212 503.841 145.488 500.485 145.488ZM499.27 154.607L496.23 151.567L497.087 150.71L499.27 152.887L503.884 148.272L504.741 149.136L499.27 154.607Z" fill="#0266A8"/>
<path d="M47.3042 160.962L43.1742 164.877L39.1976 161.171L38.724 161.642L27.9766 172.446C28.3986 172.872 28.9749 173.115 29.5781 173.12H56.7703C57.3736 173.115 57.9501 172.873 58.3719 172.446L47.8085 161.494L47.3042 160.962Z" fill="#0266A8"/>
<path d="M39.5273 161.499L28.031 151.255L28.0519 151.235H28.031C27.6167 151.648 27.3806 152.192 27.3691 152.76V170.968C27.373 171.55 27.624 172.106 28.0659 172.512L39.0535 161.976L39.5273 161.499Z" fill="#0390ED"/>
<path d="M58.8638 152.166C58.7372 151.811 58.5174 151.491 58.224 151.235H58.2064C58.2064 151.235 58.2064 151.235 58.224 151.252L46.8223 161.364L47.3347 161.862L58.2912 172.512C58.7331 172.104 58.9811 171.55 58.9804 170.972V152.834C58.9801 152.607 58.9407 152.381 58.8638 152.166Z" fill="#0390ED"/>
<path d="M39.2361 161.598L43.2203 165.218L47.3582 161.401L58.3719 151.243C58.3719 151.243 58.3719 151.243 58.3548 151.227C57.9499 150.846 57.4079 150.632 56.8424 150.628H29.5982C28.9907 150.633 28.412 150.878 27.997 151.306L27.9766 151.326L39.2361 161.598Z" fill="#62BEFB"/>
<circle cx="58.372" cy="152.452" r="8.51069" fill="white"/>
<path d="M58.372 146.373C55.0164 146.373 52.293 149.096 52.293 152.452C52.293 155.808 55.0164 158.531 58.372 158.531C61.7277 158.531 64.4511 155.808 64.4511 152.452C64.4511 149.096 61.7277 146.373 58.372 146.373ZM57.1562 155.492L54.1167 152.452L54.9738 151.595L57.1562 153.771L61.7702 149.157L62.6274 150.02L57.1562 155.492Z" fill="#0266A8"/>
<path d="M45.5704 398.276L38.704 404.643L32.0925 398.616L31.305 399.383L13.4365 416.955C14.1382 417.648 15.0964 418.042 16.0992 418.051H61.3088C62.3118 418.043 63.2701 417.649 63.9715 416.955L46.4089 399.142L45.5704 398.276Z" fill="#FF651D"/>
<path d="M32.1124 399.325L13.4144 382.928L13.4484 382.896H13.4144C12.7405 383.557 12.3566 384.427 12.3379 385.337V414.481C12.3442 415.412 12.7523 416.303 13.4711 416.953L31.3419 400.088L32.1124 399.325Z" fill="#FF9200"/>
<path d="M63.8393 382.896H63.8106C63.8106 382.896 63.8106 382.896 63.8393 382.924L45.2949 399.632L46.1284 400.455L63.9485 418.051C64.6672 417.378 65.0707 416.462 65.0695 415.507V385.538C65.069 385.163 65.0049 384.79 64.8798 384.434C64.674 383.848 64.3164 383.32 63.8393 382.896Z" fill="#FF9200"/>
<path d="M32.1565 399.971L38.7806 405.967L45.6602 399.644L63.9715 382.817C63.9715 382.817 63.9715 382.817 63.9431 382.79C63.2699 382.16 62.3687 381.804 61.4286 381.798H16.1327C15.1227 381.806 14.1605 382.212 13.4706 382.921L13.4365 382.953L32.1565 399.971Z" fill="#FBB85E"/>
<circle cx="65.3909" cy="386.219" r="12.3792" fill="white"/>
<path d="M65.3911 377.377C60.5102 377.377 56.5488 381.338 56.5488 386.219C56.5488 391.1 60.5102 395.062 65.3911 395.062C70.272 395.062 74.2334 391.1 74.2334 386.219C74.2334 381.338 70.272 377.377 65.3911 377.377ZM58.3173 386.219C58.3173 382.311 61.4828 379.145 65.3911 379.145C67.0269 379.145 68.5301 379.702 69.7238 380.64L59.8116 390.552C58.8743 389.358 58.3173 387.855 58.3173 386.219ZM65.3911 393.293C63.7553 393.293 62.2521 392.736 61.0584 391.799L70.9706 381.887C71.9079 383.08 72.4649 384.583 72.4649 386.219C72.4649 390.128 69.2994 393.293 65.3911 393.293Z" fill="#FF298A"/>
<path d="M394.252 199.466L389.334 204.026L384.599 199.709L384.035 200.259L371.237 212.844C371.74 213.34 372.426 213.623 373.144 213.629H405.524C406.243 213.623 406.929 213.341 407.431 212.844L394.853 200.086L394.252 199.466Z" fill="#FF651D"/>
<path d="M384.613 200.217L371.221 188.473L371.246 188.45H371.221C370.739 188.923 370.464 189.546 370.45 190.198V211.072C370.455 211.739 370.747 212.376 371.262 212.842L384.061 200.763L384.613 200.217Z" fill="#FF9200"/>
<path d="M407.337 188.45H407.317C407.317 188.45 407.317 188.45 407.337 188.47L394.056 200.437L394.653 201.026L407.416 213.629C407.93 213.146 408.219 212.49 408.219 211.807V190.342C408.218 190.073 408.172 189.806 408.083 189.551C407.935 189.132 407.679 188.753 407.337 188.45Z" fill="#FF9200"/>
<path d="M384.644 200.679L389.388 204.973L394.315 200.445L407.43 188.393C407.43 188.393 407.43 188.393 407.41 188.374C406.928 187.922 406.282 187.668 405.609 187.663H373.167C372.444 187.669 371.755 187.96 371.261 188.467L371.236 188.491L384.644 200.679Z" fill="#FBB85E"/>
<circle cx="408.448" cy="190.829" r="8.86618" fill="white"/>
<path d="M408.447 184.496C404.951 184.496 402.114 187.333 402.114 190.829C402.114 194.325 404.951 197.162 408.447 197.162C411.943 197.162 414.78 194.325 414.78 190.829C414.78 187.333 411.943 184.496 408.447 184.496ZM403.381 190.829C403.381 188.03 405.648 185.763 408.447 185.763C409.619 185.763 410.695 186.162 411.55 186.833L404.451 193.932C403.78 193.077 403.381 192.001 403.381 190.829ZM408.447 195.895C407.276 195.895 406.199 195.496 405.344 194.825L412.443 187.726C413.115 188.581 413.514 189.657 413.514 190.829C413.514 193.628 411.246 195.895 408.447 195.895Z" fill="#FF298A"/>
<path d="M44.2973 351.847C44.3241 351.576 44.1508 351.327 43.8884 351.257C42.8059 351.065 39.7991 350.355 38.7888 349.333C37.7785 348.311 37.0569 345.304 36.8645 344.233C36.818 343.97 36.5903 343.778 36.3232 343.776V351.799L44.2973 351.847Z" fill="#FFEA80"/>
<path d="M36.2758 343.824C36.0067 343.832 35.7803 344.028 35.7346 344.293C35.5662 345.364 34.8927 348.371 33.8824 349.381C32.8721 350.391 29.8051 351.113 28.7227 351.305C28.4596 351.352 28.2674 351.579 28.2656 351.846H36.2878L36.2758 343.824Z" fill="#FFD567"/>
<path d="M36.2764 351.847V359.869C36.5434 359.867 36.7712 359.675 36.8176 359.412C37.01 358.317 37.7196 355.274 38.742 354.252C39.7643 353.23 42.7591 352.568 43.8295 352.4C44.0992 352.353 44.2967 352.12 44.2986 351.847H36.2764Z" fill="#FFD567"/>
<path d="M28.254 351.847C28.2498 352.118 28.4435 352.353 28.711 352.4C29.8055 352.568 32.8484 353.242 33.8707 354.252C34.893 355.262 35.5545 358.317 35.7229 359.4C35.7641 359.668 35.9932 359.866 36.2641 359.869V351.847H28.254Z" fill="#FFA266"/>
<path d="M478.324 120.543C478.343 120.349 478.219 120.17 478.031 120.12C477.256 119.983 475.102 119.474 474.378 118.742C473.655 118.01 473.138 115.856 473 115.089C472.967 114.901 472.804 114.763 472.612 114.762V120.508L478.324 120.543Z" fill="#FFEA80"/>
<path d="M472.578 114.796C472.385 114.801 472.223 114.942 472.19 115.132C472.069 115.899 471.587 118.053 470.863 118.776C470.14 119.5 467.943 120.017 467.167 120.155C466.979 120.188 466.841 120.351 466.84 120.542H472.586L472.578 114.796Z" fill="#FFD567"/>
<path d="M472.578 120.543V126.289C472.769 126.288 472.933 126.15 472.966 125.962C473.104 125.178 473.612 122.998 474.344 122.266C475.077 121.534 477.222 121.06 477.989 120.939C478.182 120.906 478.323 120.739 478.325 120.543H472.578Z" fill="#FFD567"/>
<path d="M466.831 120.543C466.828 120.738 466.967 120.905 467.158 120.939C467.942 121.06 470.122 121.542 470.854 122.266C471.587 122.99 472.061 125.178 472.181 125.953C472.211 126.145 472.375 126.287 472.569 126.289V120.543H466.831Z" fill="#FFA266"/>
<path d="M450.913 178.757C450.932 178.564 450.808 178.385 450.62 178.335C449.845 178.197 447.691 177.689 446.967 176.957C446.244 176.225 445.727 174.071 445.589 173.304C445.556 173.116 445.392 172.978 445.201 172.977V178.723L450.913 178.757Z" fill="#FFEA80"/>
<path d="M445.166 173.011C444.973 173.016 444.811 173.157 444.778 173.347C444.657 174.114 444.175 176.267 443.451 176.991C442.727 177.715 440.531 178.232 439.755 178.37C439.567 178.403 439.429 178.566 439.428 178.757H445.174L445.166 173.011Z" fill="#FFD567"/>
<path d="M445.167 178.758V184.504C445.358 184.503 445.521 184.365 445.555 184.177C445.693 183.393 446.201 181.213 446.933 180.481C447.665 179.749 449.811 179.275 450.577 179.154C450.771 179.121 450.912 178.954 450.913 178.758H445.167Z" fill="#FFD567"/>
<path d="M439.42 178.758C439.417 178.952 439.556 179.12 439.747 179.154C440.531 179.275 442.711 179.757 443.443 180.481C444.176 181.205 444.65 183.393 444.77 184.168C444.8 184.36 444.964 184.502 445.158 184.504V178.758H439.42Z" fill="#FFA266"/>
<g filter="url(#filter0_d)">
<rect x="329.775" y="20.1494" width="144.129" height="58.359" rx="12" fill="white"/>
</g>
<rect x="341.27" y="30.7598" width="37.1376" height="37.1376" rx="6" fill="#FBB85E"/>
<path d="M355.418 54.634C354.445 54.634 353.658 55.4298 353.658 56.4024C353.658 57.3751 354.445 58.1709 355.418 58.1709C356.39 58.1709 357.186 57.3751 357.186 56.4024C357.186 55.4298 356.39 54.634 355.418 54.634ZM350.112 40.4863V42.2548H351.881L355.064 48.9661L353.87 51.1324C353.729 51.38 353.649 51.6718 353.649 51.9813C353.649 52.9539 354.445 53.7497 355.418 53.7497H366.028V51.9813H355.789C355.665 51.9813 355.568 51.884 355.568 51.7602L355.595 51.6541L356.39 50.2128H362.978C363.641 50.2128 364.225 49.8503 364.525 49.3021L367.691 43.5634C367.761 43.4396 367.797 43.2893 367.797 43.139C367.797 42.6527 367.399 42.2548 366.913 42.2548H353.835L353.004 40.4863H350.112ZM364.26 54.634C363.287 54.634 362.5 55.4298 362.5 56.4024C362.5 57.3751 363.287 58.1709 364.26 58.1709C365.233 58.1709 366.028 57.3751 366.028 56.4024C366.028 55.4298 365.233 54.634 364.26 54.634Z" fill="white"/>
<path d="M392.934 47.3496C395.664 47.3496 397.974 45.0676 397.974 42.3656C397.974 39.6636 395.664 37.3956 392.934 37.3956C390.19 37.3956 387.88 39.6636 387.88 42.3656C387.88 45.0676 390.19 47.3496 392.934 47.3496ZM392.934 45.7536C391.156 45.7536 389.658 44.2136 389.658 42.3656C389.658 40.5316 391.156 38.9916 392.934 38.9916C394.698 38.9916 396.182 40.5316 396.182 42.3656C396.182 44.2136 394.698 45.7536 392.934 45.7536ZM403.792 39.7756C402.714 39.7756 401.846 40.2656 401.272 41.0916V39.9436H399.564V49.5896H401.272V46.0336C401.846 46.8596 402.714 47.3496 403.792 47.3496C405.71 47.3496 407.11 45.7816 407.11 43.5556C407.11 41.3436 405.71 39.7756 403.792 39.7756ZM403.33 45.8936C402.126 45.8936 401.286 44.9136 401.286 43.5556C401.286 42.1976 402.126 41.2316 403.33 41.2316C404.548 41.2316 405.416 42.1976 405.416 43.5556C405.416 44.9136 404.548 45.8936 403.33 45.8936ZM412.267 45.6276C412.113 45.7816 411.847 45.8936 411.553 45.8936C411.147 45.8936 410.839 45.5436 410.839 45.0536V41.3576H412.477V39.9436H410.839V37.9556H409.173V39.9436H408.123V41.3576H409.173V45.2636C409.173 46.4816 410.013 47.3496 411.217 47.3496C411.763 47.3496 412.351 47.1256 412.757 46.7756L412.267 45.6276ZM413.831 44.0876H417.597V42.5896H413.831V44.0876ZM420.091 38.8516C420.623 38.8516 421.057 38.3896 421.057 37.8716C421.057 37.3536 420.623 36.9056 420.091 36.9056C419.545 36.9056 419.111 37.3536 419.111 37.8716C419.111 38.3896 419.545 38.8516 420.091 38.8516ZM419.223 47.1816H420.931V39.9436H419.223V47.1816ZM426.767 39.7756C425.815 39.7756 424.975 40.2376 424.527 40.9096V39.9436H422.819V47.1816H424.527V42.6036C424.639 41.8336 425.381 41.2316 426.277 41.2316C427.173 41.2316 427.803 41.9316 427.803 42.9116V47.1816H429.455V42.5756C429.455 40.9376 428.349 39.7756 426.767 39.7756ZM437.458 39.3416C437.458 38.8516 437.766 38.5016 438.172 38.5016C438.466 38.5016 438.732 38.6136 438.886 38.7676L439.376 37.6756C438.97 37.3256 438.382 37.1016 437.836 37.1016C436.632 37.1016 435.792 37.9696 435.792 39.1876V39.9436H434.742V41.3576H435.792V47.1816H437.458V41.3576H439.096V39.9436H437.458V39.3416ZM443.956 47.3496C446.056 47.3496 447.834 45.6136 447.834 43.5556C447.834 41.4976 446.056 39.7756 443.956 39.7756C441.856 39.7756 440.078 41.4976 440.078 43.5556C440.078 45.6136 441.856 47.3496 443.956 47.3496ZM443.956 45.8936C442.752 45.8936 441.744 44.8296 441.744 43.5556C441.744 42.2956 442.752 41.2316 443.956 41.2316C445.146 41.2316 446.154 42.2956 446.154 43.5556C446.154 44.8296 445.146 45.8936 443.956 45.8936ZM451.065 41.3436V39.9436H449.357V47.1816H451.065V43.5276C451.065 42.1556 452.101 41.2316 453.655 41.2316V39.7756C452.465 39.7756 451.527 40.3776 451.065 41.3436ZM391.674 63.3496C392.822 63.3496 393.788 62.8736 394.488 62.1316L393.34 61.1376C392.934 61.5996 392.318 61.8936 391.688 61.8936C390.498 61.8936 389.504 60.8296 389.504 59.5556C389.504 58.2956 390.498 57.2316 391.688 57.2316C392.304 57.2316 392.906 57.5256 393.298 57.9596L394.446 56.9516C393.76 56.2376 392.794 55.7756 391.702 55.7756C389.588 55.7756 387.81 57.4976 387.81 59.5556C387.81 61.6136 389.588 63.3496 391.674 63.3496ZM399.18 63.3496C401.28 63.3496 403.058 61.6136 403.058 59.5556C403.058 57.4976 401.28 55.7756 399.18 55.7756C397.08 55.7756 395.302 57.4976 395.302 59.5556C395.302 61.6136 397.08 63.3496 399.18 63.3496ZM399.18 61.8936C397.976 61.8936 396.968 60.8296 396.968 59.5556C396.968 58.2956 397.976 57.2316 399.18 57.2316C400.37 57.2316 401.378 58.2956 401.378 59.5556C401.378 60.8296 400.37 61.8936 399.18 61.8936ZM409.44 55.9436V60.5216C409.328 61.2916 408.586 61.8936 407.69 61.8936C406.794 61.8936 406.164 61.1936 406.164 60.2136V55.9436H404.512V60.5496C404.512 62.1876 405.618 63.3496 407.2 63.3496C408.152 63.3496 408.992 62.8876 409.44 62.2156V63.1816H411.148V55.9436H409.44ZM417.3 55.7756C416.222 55.7756 415.354 56.2656 414.78 57.0916V55.9436H413.072V65.5896H414.78V62.0336C415.354 62.8596 416.222 63.3496 417.3 63.3496C419.218 63.3496 420.618 61.7816 420.618 59.5556C420.618 57.3436 419.218 55.7756 417.3 55.7756ZM416.838 61.8936C415.634 61.8936 414.794 60.9136 414.794 59.5556C414.794 58.1976 415.634 57.2316 416.838 57.2316C418.056 57.2316 418.924 58.1976 418.924 59.5556C418.924 60.9136 418.056 61.8936 416.838 61.8936ZM425.663 63.3496C427.763 63.3496 429.541 61.6136 429.541 59.5556C429.541 57.4976 427.763 55.7756 425.663 55.7756C423.563 55.7756 421.785 57.4976 421.785 59.5556C421.785 61.6136 423.563 63.3496 425.663 63.3496ZM425.663 61.8936C424.459 61.8936 423.451 60.8296 423.451 59.5556C423.451 58.2956 424.459 57.2316 425.663 57.2316C426.853 57.2316 427.861 58.2956 427.861 59.5556C427.861 60.8296 426.853 61.8936 425.663 61.8936ZM434.97 55.7756C434.018 55.7756 433.178 56.2376 432.73 56.9096V55.9436H431.022V63.1816H432.73V58.6036C432.842 57.8336 433.584 57.2316 434.48 57.2316C435.376 57.2316 436.006 57.9316 436.006 58.9116V63.1816H437.658V58.5756C437.658 56.9376 436.552 55.7756 434.97 55.7756ZM442.186 63.3496C443.88 63.3496 445.028 62.4536 445.028 61.0676C445.028 59.5556 443.712 59.1356 442.494 58.7996C441.388 58.4776 441.01 58.3376 441.01 57.8756C441.01 57.4696 441.472 57.2316 442.074 57.2316C442.704 57.2316 443.446 57.4556 444.132 57.8896L444.846 56.6436C444.062 56.1256 443.068 55.7756 442.074 55.7756C440.464 55.7756 439.344 56.6996 439.344 58.0576C439.358 59.3456 440.352 59.7936 441.92 60.1996C442.746 60.4236 443.376 60.6056 443.376 61.1656C443.376 61.6136 442.9 61.9076 442.214 61.9076C441.304 61.9076 440.492 61.5716 439.792 61.0676L439.022 62.2576C439.89 62.9576 441.08 63.3496 442.186 63.3496Z" fill="#999999"/>
<g filter="url(#filter1_d)">
<rect x="24.7168" y="487.905" width="144.129" height="58.359" rx="12" fill="white"/>
</g>
<rect x="36.2109" y="498.516" width="37.1376" height="37.1376" rx="6" fill="#0390ED"/>
<path d="M86.0914 515.07C88.0594 515.07 89.1874 514.025 89.1874 512.549C89.1874 511.049 88.0354 510.497 86.3194 510.113C85.0114 509.813 84.3994 509.573 84.3994 508.901C84.3994 508.326 84.9634 507.821 85.7914 507.821C86.6074 507.821 87.4354 508.169 88.1554 508.793L88.9714 507.689C88.1434 506.981 87.1594 506.537 85.8514 506.537C84.1114 506.537 82.8874 507.593 82.8874 509.033C82.8874 510.581 84.0754 511.073 85.7794 511.469C87.0994 511.781 87.6874 512.009 87.6874 512.693C87.6874 513.281 87.1594 513.785 86.1394 513.785C85.0594 513.785 84.1834 513.354 83.4274 512.669L82.5634 513.737C83.4754 514.589 84.6754 515.07 86.0914 515.07ZM93.5071 515.082C95.3071 515.082 96.8311 513.593 96.8311 511.829C96.8311 510.065 95.3071 508.589 93.5071 508.589C91.7071 508.589 90.1831 510.065 90.1831 511.829C90.1831 513.593 91.7071 515.082 93.5071 515.082ZM93.5071 513.833C92.4751 513.833 91.6111 512.921 91.6111 511.829C91.6111 510.749 92.4751 509.837 93.5071 509.837C94.5271 509.837 95.3911 510.749 95.3911 511.829C95.3911 512.921 94.5271 513.833 93.5071 513.833ZM101.089 515.082C102.073 515.082 102.901 514.673 103.501 514.037L102.517 513.185C102.169 513.581 101.641 513.833 101.101 513.833C100.081 513.833 99.2289 512.921 99.2289 511.829C99.2289 510.749 100.081 509.837 101.101 509.837C101.629 509.837 102.145 510.089 102.481 510.461L103.465 509.597C102.877 508.985 102.049 508.589 101.113 508.589C99.3009 508.589 97.7769 510.065 97.7769 511.829C97.7769 513.593 99.3009 515.082 101.089 515.082ZM105.396 507.797C105.852 507.797 106.224 507.401 106.224 506.957C106.224 506.513 105.852 506.129 105.396 506.129C104.928 506.129 104.556 506.513 104.556 506.957C104.556 507.401 104.928 507.797 105.396 507.797ZM104.652 514.938H106.116V508.733H104.652V514.938ZM110.434 508.589C109.654 508.589 108.838 508.805 107.962 509.237L108.466 510.257C108.994 509.993 109.558 509.789 110.146 509.789C111.274 509.789 111.67 510.485 111.67 511.205V511.373C111.106 511.157 110.494 511.037 109.93 511.037C108.538 511.037 107.398 511.877 107.398 513.101C107.398 514.301 108.394 515.082 109.714 515.082C110.434 515.082 111.214 514.769 111.67 514.193V514.938H113.098V511.205C113.098 509.633 112.078 508.589 110.434 508.589ZM110.038 514.013C109.342 514.013 108.826 513.641 108.826 513.053C108.826 512.465 109.414 512.057 110.146 512.057C110.698 512.057 111.214 512.141 111.67 512.297V512.993C111.502 513.653 110.746 514.013 110.038 514.013ZM114.683 514.938H116.147V506.549H114.683V514.938ZM87.0634 531.082C88.2754 531.082 89.3794 530.565 90.1714 529.737L89.1154 528.753C88.5994 529.341 87.8674 529.713 87.0634 529.713C85.5394 529.713 84.2554 528.393 84.2554 526.809C84.2554 525.237 85.5394 523.917 87.0634 523.917C87.8554 523.917 88.5994 524.289 89.1034 524.878L90.1714 523.882C89.3794 523.065 88.2754 522.549 87.0634 522.549C84.7114 522.549 82.7314 524.493 82.7314 526.809C82.7314 529.125 84.7114 531.082 87.0634 531.082ZM94.2806 531.082C96.0806 531.082 97.6046 529.593 97.6046 527.829C97.6046 526.065 96.0806 524.589 94.2806 524.589C92.4806 524.589 90.9566 526.065 90.9566 527.829C90.9566 529.593 92.4806 531.082 94.2806 531.082ZM94.2806 529.833C93.2486 529.833 92.3846 528.921 92.3846 527.829C92.3846 526.749 93.2486 525.837 94.2806 525.837C95.3006 525.837 96.1646 526.749 96.1646 527.829C96.1646 528.921 95.3006 529.833 94.2806 529.833ZM102.258 524.589C101.442 524.589 100.722 524.985 100.338 525.561V524.733H98.8743V530.938H100.338V527.013C100.434 526.353 101.07 525.837 101.838 525.837C102.606 525.837 103.146 526.437 103.146 527.277V530.938H104.562V526.989C104.562 525.585 103.614 524.589 102.258 524.589ZM109.536 524.589C108.72 524.589 108 524.985 107.616 525.561V524.733H106.152V530.938H107.616V527.013C107.712 526.353 108.348 525.837 109.116 525.837C109.884 525.837 110.424 526.437 110.424 527.277V530.938H111.84V526.989C111.84 525.585 110.892 524.589 109.536 524.589ZM116.321 529.785C115.433 529.785 114.785 529.185 114.605 528.333H119.285C119.285 526.041 118.169 524.589 116.249 524.589C114.485 524.589 113.093 525.957 113.093 527.817C113.093 529.725 114.557 531.082 116.333 531.082C117.233 531.082 118.313 530.697 118.853 530.121L117.929 529.161C117.581 529.521 116.897 529.785 116.321 529.785ZM116.309 525.885C117.185 525.885 117.713 526.437 117.881 527.217H114.617C114.833 526.401 115.493 525.885 116.309 525.885ZM123.542 531.082C124.526 531.082 125.354 530.673 125.954 530.037L124.97 529.185C124.622 529.581 124.094 529.833 123.554 529.833C122.534 529.833 121.682 528.921 121.682 527.829C121.682 526.749 122.534 525.837 123.554 525.837C124.082 525.837 124.598 526.089 124.934 526.461L125.918 525.597C125.33 524.985 124.502 524.589 123.566 524.589C121.754 524.589 120.23 526.065 120.23 527.829C120.23 529.593 121.754 531.082 123.542 531.082ZM130.201 529.605C130.069 529.737 129.841 529.833 129.589 529.833C129.241 529.833 128.977 529.533 128.977 529.113V525.945H130.381V524.733H128.977V523.029H127.549V524.733H126.649V525.945H127.549V529.293C127.549 530.337 128.269 531.082 129.301 531.082C129.769 531.082 130.273 530.889 130.621 530.589L130.201 529.605ZM132.501 523.797C132.957 523.797 133.329 523.401 133.329 522.957C133.329 522.513 132.957 522.129 132.501 522.129C132.033 522.129 131.661 522.513 131.661 522.957C131.661 523.401 132.033 523.797 132.501 523.797ZM131.757 530.938H133.221V524.733H131.757V530.938ZM137.839 531.082C139.639 531.082 141.163 529.593 141.163 527.829C141.163 526.065 139.639 524.589 137.839 524.589C136.039 524.589 134.515 526.065 134.515 527.829C134.515 529.593 136.039 531.082 137.839 531.082ZM137.839 529.833C136.807 529.833 135.943 528.921 135.943 527.829C135.943 526.749 136.807 525.837 137.839 525.837C138.859 525.837 139.723 526.749 139.723 527.829C139.723 528.921 138.859 529.833 137.839 529.833ZM145.817 524.589C145.001 524.589 144.281 524.985 143.897 525.561V524.733H142.433V530.938H143.897V527.013C143.993 526.353 144.629 525.837 145.397 525.837C146.165 525.837 146.705 526.437 146.705 527.277V530.938H148.121V526.989C148.121 525.585 147.173 524.589 145.817 524.589ZM152.002 531.082C153.454 531.082 154.438 530.313 154.438 529.125C154.438 527.829 153.31 527.469 152.266 527.181C151.318 526.905 150.994 526.785 150.994 526.389C150.994 526.041 151.39 525.837 151.906 525.837C152.446 525.837 153.082 526.029 153.67 526.401L154.282 525.333C153.61 524.889 152.758 524.589 151.906 524.589C150.526 524.589 149.566 525.381 149.566 526.545C149.578 527.649 150.43 528.033 151.774 528.381C152.482 528.573 153.022 528.729 153.022 529.209C153.022 529.593 152.614 529.845 152.026 529.845C151.246 529.845 150.55 529.557 149.95 529.125L149.29 530.146C150.034 530.745 151.054 531.082 152.002 531.082Z" fill="#999999"/>
<path d="M58.7598 509.126C57.2212 509.126 55.7446 509.842 54.7808 510.974C53.8169 509.842 52.3403 509.126 50.8017 509.126C48.0783 509.126 45.9385 511.266 45.9385 513.989C45.9385 517.332 48.9449 520.055 53.4986 524.193L54.7808 525.352L56.0629 524.184C60.6167 520.055 63.623 517.332 63.623 513.989C63.623 511.266 61.4832 509.126 58.7598 509.126ZM54.8692 522.876L54.7808 522.964L54.6923 522.876C50.4834 519.065 47.7069 516.545 47.7069 513.989C47.7069 512.221 49.0333 510.894 50.8017 510.894C52.1634 510.894 53.4898 511.77 53.9584 512.981H55.6119C56.0717 511.77 57.3981 510.894 58.7598 510.894C60.5282 510.894 61.8546 512.221 61.8546 513.989C61.8546 516.545 59.0781 519.065 54.8692 522.876Z" fill="white"/>
<g filter="url(#filter2_d)">
<rect x="285.563" y="424.241" width="159.161" height="58.359" rx="12" fill="white"/>
</g>
<path d="M351.166 449.273H352.822L349.378 441.029H347.71L344.266 449.273H345.934L346.558 447.785H350.542L351.166 449.273ZM347.098 446.489L348.55 443.021L350.002 446.489H347.098ZM356.854 449.417C357.838 449.417 358.666 449.009 359.266 448.373L358.282 447.521C357.934 447.917 357.406 448.169 356.866 448.169C355.846 448.169 354.994 447.257 354.994 446.165C354.994 445.085 355.846 444.173 356.866 444.173C357.394 444.173 357.91 444.425 358.246 444.797L359.23 443.933C358.642 443.321 357.814 442.925 356.878 442.925C355.066 442.925 353.542 444.401 353.542 446.165C353.542 447.929 355.066 449.417 356.854 449.417ZM363.404 449.417C364.388 449.417 365.216 449.009 365.816 448.373L364.832 447.521C364.484 447.917 363.956 448.169 363.416 448.169C362.396 448.169 361.544 447.257 361.544 446.165C361.544 445.085 362.396 444.173 363.416 444.173C363.944 444.173 364.46 444.425 364.796 444.797L365.78 443.933C365.192 443.321 364.364 442.925 363.428 442.925C361.616 442.925 360.092 444.401 360.092 446.165C360.092 447.929 361.616 449.417 363.404 449.417ZM369.859 448.121C368.971 448.121 368.323 447.521 368.143 446.669H372.823C372.823 444.377 371.707 442.925 369.787 442.925C368.023 442.925 366.631 444.293 366.631 446.153C366.631 448.061 368.095 449.417 369.871 449.417C370.771 449.417 371.851 449.033 372.391 448.457L371.467 447.497C371.119 447.857 370.435 448.121 369.859 448.121ZM369.847 444.221C370.723 444.221 371.251 444.773 371.419 445.553H368.155C368.371 444.737 369.031 444.221 369.847 444.221ZM376.384 449.417C377.836 449.417 378.82 448.649 378.82 447.461C378.82 446.165 377.692 445.805 376.648 445.517C375.7 445.241 375.376 445.121 375.376 444.725C375.376 444.377 375.772 444.173 376.288 444.173C376.828 444.173 377.464 444.365 378.052 444.737L378.664 443.669C377.992 443.225 377.14 442.925 376.288 442.925C374.908 442.925 373.948 443.717 373.948 444.881C373.96 445.985 374.812 446.369 376.156 446.717C376.864 446.909 377.404 447.065 377.404 447.545C377.404 447.929 376.996 448.181 376.408 448.181C375.628 448.181 374.932 447.893 374.332 447.461L373.672 448.481C374.416 449.081 375.436 449.417 376.384 449.417ZM382.384 449.417C383.836 449.417 384.82 448.649 384.82 447.461C384.82 446.165 383.692 445.805 382.648 445.517C381.7 445.241 381.376 445.121 381.376 444.725C381.376 444.377 381.772 444.173 382.288 444.173C382.828 444.173 383.464 444.365 384.052 444.737L384.664 443.669C383.992 443.225 383.14 442.925 382.288 442.925C380.908 442.925 379.948 443.717 379.948 444.881C379.96 445.985 380.812 446.369 382.156 446.717C382.864 446.909 383.404 447.065 383.404 447.545C383.404 447.929 382.996 448.181 382.408 448.181C381.628 448.181 380.932 447.893 380.332 447.461L379.672 448.481C380.416 449.081 381.436 449.417 382.384 449.417ZM392.587 447.941C392.455 448.073 392.227 448.169 391.975 448.169C391.627 448.169 391.363 447.869 391.363 447.449V444.281H392.767V443.069H391.363V441.365H389.935V443.069H389.035V444.281H389.935V447.629C389.935 448.673 390.655 449.417 391.687 449.417C392.155 449.417 392.659 449.225 393.007 448.925L392.587 447.941ZM397.143 449.417C398.943 449.417 400.467 447.929 400.467 446.165C400.467 444.401 398.943 442.925 397.143 442.925C395.343 442.925 393.819 444.401 393.819 446.165C393.819 447.929 395.343 449.417 397.143 449.417ZM397.143 448.169C396.111 448.169 395.247 447.257 395.247 446.165C395.247 445.085 396.111 444.173 397.143 444.173C398.163 444.173 399.027 445.085 399.027 446.165C399.027 447.257 398.163 448.169 397.143 448.169ZM344.998 465.273H347.902C350.626 465.273 352.546 463.557 352.546 461.145C352.546 458.733 350.626 457.029 347.902 457.029H344.998V465.273ZM346.498 463.917V458.385H348.058C349.798 458.385 351.022 459.525 351.022 461.145C351.022 462.765 349.798 463.917 348.058 463.917H346.498ZM354.715 458.133C355.171 458.133 355.543 457.737 355.543 457.293C355.543 456.849 355.171 456.465 354.715 456.465C354.247 456.465 353.875 456.849 353.875 457.293C353.875 457.737 354.247 458.133 354.715 458.133ZM353.971 465.273H355.435V459.069H353.971V465.273ZM361.673 459.069V459.993C361.229 459.333 360.425 458.925 359.549 458.925C357.941 458.925 356.753 460.137 356.753 461.865C356.753 463.593 357.941 464.817 359.549 464.817C360.437 464.817 361.181 464.421 361.673 463.761V464.565C361.673 465.501 360.905 466.089 359.681 466.089C358.949 466.089 358.205 465.837 357.773 465.441L357.233 466.509C357.845 466.989 358.829 467.337 359.897 467.337C361.793 467.337 363.137 466.209 363.137 464.613V459.069H361.673ZM359.969 463.569C358.985 463.569 358.277 462.861 358.277 461.865C358.277 460.881 358.985 460.173 359.969 460.173C360.965 460.173 361.673 460.881 361.673 461.865C361.673 462.861 360.965 463.569 359.969 463.569ZM365.52 458.133C365.976 458.133 366.348 457.737 366.348 457.293C366.348 456.849 365.976 456.465 365.52 456.465C365.052 456.465 364.68 456.849 364.68 457.293C364.68 457.737 365.052 458.133 365.52 458.133ZM364.776 465.273H366.24V459.069H364.776V465.273ZM370.954 463.941C370.822 464.073 370.594 464.169 370.342 464.169C369.994 464.169 369.73 463.869 369.73 463.449V460.281H371.134V459.069H369.73V457.365H368.302V459.069H367.402V460.281H368.302V463.629C368.302 464.673 369.022 465.417 370.054 465.417C370.522 465.417 371.026 465.225 371.374 464.925L370.954 463.941ZM375.21 458.925C374.43 458.925 373.614 459.141 372.738 459.573L373.242 460.593C373.77 460.329 374.334 460.125 374.922 460.125C376.05 460.125 376.446 460.821 376.446 461.541V461.709C375.882 461.493 375.27 461.373 374.706 461.373C373.314 461.373 372.174 462.213 372.174 463.437C372.174 464.637 373.17 465.417 374.49 465.417C375.21 465.417 375.99 465.105 376.446 464.529V465.273H377.874V461.541C377.874 459.969 376.854 458.925 375.21 458.925ZM374.814 464.349C374.118 464.349 373.602 463.977 373.602 463.389C373.602 462.801 374.19 462.393 374.922 462.393C375.474 462.393 375.99 462.477 376.446 462.633V463.329C376.278 463.989 375.522 464.349 374.814 464.349ZM379.459 465.273H380.923V456.885H379.459V465.273ZM390.008 465.417C391.22 465.417 392.324 464.901 393.116 464.073L392.06 463.089C391.544 463.677 390.812 464.049 390.008 464.049C388.484 464.049 387.2 462.729 387.2 461.145C387.2 459.573 388.484 458.253 390.008 458.253C390.8 458.253 391.544 458.625 392.048 459.213L393.116 458.217C392.324 457.401 391.22 456.885 390.008 456.885C387.656 456.885 385.676 458.829 385.676 461.145C385.676 463.461 387.656 465.417 390.008 465.417ZM397.225 465.417C399.025 465.417 400.549 463.929 400.549 462.165C400.549 460.401 399.025 458.925 397.225 458.925C395.425 458.925 393.901 460.401 393.901 462.165C393.901 463.929 395.425 465.417 397.225 465.417ZM397.225 464.169C396.193 464.169 395.329 463.257 395.329 462.165C395.329 461.085 396.193 460.173 397.225 460.173C398.245 460.173 399.109 461.085 399.109 462.165C399.109 463.257 398.245 464.169 397.225 464.169ZM405.203 458.925C404.387 458.925 403.667 459.321 403.283 459.897V459.069H401.819V465.273H403.283V461.349C403.379 460.689 404.015 460.173 404.783 460.173C405.551 460.173 406.091 460.773 406.091 461.613V465.273H407.507V461.325C407.507 459.921 406.559 458.925 405.203 458.925ZM412.192 463.941C412.06 464.073 411.832 464.169 411.58 464.169C411.232 464.169 410.968 463.869 410.968 463.449V460.281H412.372V459.069H410.968V457.365H409.54V459.069H408.64V460.281H409.54V463.629C409.54 464.673 410.26 465.417 411.292 465.417C411.76 465.417 412.264 465.225 412.612 464.925L412.192 463.941ZM416.64 464.121C415.752 464.121 415.104 463.521 414.924 462.669H419.604C419.604 460.377 418.488 458.925 416.568 458.925C414.804 458.925 413.412 460.293 413.412 462.153C413.412 464.061 414.876 465.417 416.652 465.417C417.552 465.417 418.632 465.033 419.172 464.457L418.248 463.497C417.9 463.857 417.216 464.121 416.64 464.121ZM416.628 460.221C417.504 460.221 418.032 460.773 418.2 461.553H414.936C415.152 460.737 415.812 460.221 416.628 460.221ZM424.257 458.925C423.441 458.925 422.721 459.321 422.337 459.897V459.069H420.873V465.273H422.337V461.349C422.433 460.689 423.069 460.173 423.837 460.173C424.605 460.173 425.145 460.773 425.145 461.613V465.273H426.561V461.325C426.561 459.921 425.613 458.925 424.257 458.925ZM431.247 463.941C431.115 464.073 430.887 464.169 430.635 464.169C430.287 464.169 430.023 463.869 430.023 463.449V460.281H431.427V459.069H430.023V457.365H428.595V459.069H427.695V460.281H428.595V463.629C428.595 464.673 429.315 465.417 430.347 465.417C430.815 465.417 431.319 465.225 431.667 464.925L431.247 463.941Z" fill="#999999"/>
<circle cx="316.07" cy="452.979" r="21.6636" fill="#0266A8"/>
<path d="M312.974 456.074H320.048V457.842H312.974V456.074ZM312.974 452.537H320.048V454.305H312.974V452.537ZM318.28 443.694H311.206C310.233 443.694 309.438 444.49 309.438 445.463V459.61C309.438 460.583 310.224 461.379 311.197 461.379H321.817C322.789 461.379 323.585 460.583 323.585 459.61V449L318.28 443.694ZM321.817 459.61H311.206V445.463H317.396V449.884H321.817V459.61Z" fill="white"/>
<defs>
<filter id="filter0_d" x="305.775" y="0.149414" width="192.129" height="106.359" filterUnits="userSpaceOnUse" color-interpolation-filters="sRGB">
<feFlood flood-opacity="0" result="BackgroundImageFix"/>
<feColorMatrix in="SourceAlpha" type="matrix" values="0 0 0 0 0 0 0 0 0 0 0 0 0 0 0 0 0 0 127 0" result="hardAlpha"/>
<feOffset dy="4"/>
<feGaussianBlur stdDeviation="12"/>
<feComposite in2="hardAlpha" operator="out"/>
<feColorMatrix type="matrix" values="0 0 0 0 0 0 0 0 0 0 0 0 0 0 0 0 0 0 0.12 0"/>
<feBlend mode="normal" in2="BackgroundImageFix" result="effect1_dropShadow"/>
<feBlend mode="normal" in="SourceGraphic" in2="effect1_dropShadow" result="shape"/>
</filter>
<filter id="filter1_d" x="0.716797" y="467.905" width="192.129" height="106.359" filterUnits="userSpaceOnUse" color-interpolation-filters="sRGB">
<feFlood flood-opacity="0" result="BackgroundImageFix"/>
<feColorMatrix in="SourceAlpha" type="matrix" values="0 0 0 0 0 0 0 0 0 0 0 0 0 0 0 0 0 0 127 0" result="hardAlpha"/>
<feOffset dy="4"/>
<feGaussianBlur stdDeviation="12"/>
<feComposite in2="hardAlpha" operator="out"/>
<feColorMatrix type="matrix" values="0 0 0 0 0 0 0 0 0 0 0 0 0 0 0 0 0 0 0.12 0"/>
<feBlend mode="normal" in2="BackgroundImageFix" result="effect1_dropShadow"/>
<feBlend mode="normal" in="SourceGraphic" in2="effect1_dropShadow" result="shape"/>
</filter>
<filter id="filter2_d" x="261.563" y="404.241" width="207.161" height="106.359" filterUnits="userSpaceOnUse" color-interpolation-filters="sRGB">
<feFlood flood-opacity="0" result="BackgroundImageFix"/>
<feColorMatrix in="SourceAlpha" type="matrix" values="0 0 0 0 0 0 0 0 0 0 0 0 0 0 0 0 0 0 127 0" result="hardAlpha"/>
<feOffset dy="4"/>
<feGaussianBlur stdDeviation="12"/>
<feComposite in2="hardAlpha" operator="out"/>
<feColorMatrix type="matrix" values="0 0 0 0 0 0 0 0 0 0 0 0 0 0 0 0 0 0 0.12 0"/>
<feBlend mode="normal" in2="BackgroundImageFix" result="effect1_dropShadow"/>
<feBlend mode="normal" in="SourceGraphic" in2="effect1_dropShadow" result="shape"/>
</filter>
</defs>
</svg>
