<svg width="509" height="575" viewBox="0 0 509 575" fill="none" xmlns="http://www.w3.org/2000/svg">
<path d="M434.817 311.186L428.809 316.88L423.025 311.49L422.336 312.176L406.704 327.891C407.318 328.51 408.156 328.863 409.033 328.871H448.585C449.463 328.864 450.301 328.511 450.915 327.891L435.55 311.96L434.817 311.186Z" fill="#0266A8"/>
<path d="M423.504 311.968L406.782 297.067L406.813 297.039H406.782C406.179 297.639 405.836 298.43 405.819 299.256V325.74C405.825 326.587 406.19 327.396 406.833 327.987L422.815 312.661L423.504 311.968Z" fill="#0390ED"/>
<path d="M451.63 298.392C451.446 297.876 451.126 297.411 450.699 297.039H450.673C450.673 297.039 450.673 297.039 450.699 297.062L434.115 311.772L434.86 312.496L450.797 327.987C451.44 327.394 451.8 326.588 451.799 325.747V299.364C451.799 299.034 451.742 298.705 451.63 298.392Z" fill="#0390ED"/>
<path d="M423.08 312.111L428.875 317.376L434.894 311.824L450.914 297.049C450.914 297.049 450.914 297.049 450.889 297.025C450.3 296.472 449.512 296.16 448.689 296.154H409.061C408.178 296.162 407.336 296.518 406.732 297.14L406.703 297.169L423.08 312.111Z" fill="#62BEFB"/>
<circle cx="450.915" cy="298.807" r="12.3792" fill="white"/>
<path d="M450.915 289.965C446.034 289.965 442.072 293.926 442.072 298.807C442.072 303.688 446.034 307.649 450.915 307.649C455.795 307.649 459.757 303.688 459.757 298.807C459.757 293.926 455.795 289.965 450.915 289.965ZM449.146 303.228L444.725 298.807L445.972 297.56L449.146 300.726L455.857 294.015L457.104 295.27L449.146 303.228Z" fill="#0266A8"/>
<path d="M489.417 160.204L485.288 164.119L481.311 160.413L480.837 160.885L470.09 171.688C470.512 172.115 471.088 172.357 471.691 172.362H498.884C499.487 172.357 500.063 172.115 500.485 171.688L489.922 160.736L489.417 160.204Z" fill="#0266A8"/>
<path d="M481.641 160.741L470.144 150.497L470.165 150.478H470.144C469.73 150.89 469.494 151.434 469.482 152.002V170.21C469.486 170.792 469.737 171.348 470.179 171.754L481.167 161.218L481.641 160.741Z" fill="#0390ED"/>
<path d="M500.977 151.408C500.85 151.053 500.63 150.734 500.337 150.478H500.319C500.319 150.478 500.319 150.478 500.337 150.494L488.935 160.607L489.448 161.104L500.404 171.754C500.846 171.347 501.094 170.792 501.093 170.215V152.076C501.093 151.849 501.054 151.623 500.977 151.408Z" fill="#0390ED"/>
<path d="M481.349 160.84L485.334 164.459L489.471 160.642L500.485 150.485C500.485 150.485 500.485 150.485 500.468 150.468C500.063 150.088 499.521 149.873 498.956 149.87H471.712C471.104 149.875 470.525 150.12 470.11 150.547L470.09 150.567L481.349 160.84Z" fill="#62BEFB"/>
<circle cx="500.486" cy="151.693" r="8.51069" fill="white"/>
<path d="M500.486 145.614C497.13 145.614 494.407 148.338 494.407 151.693C494.407 155.049 497.13 157.772 500.486 157.772C503.841 157.772 506.565 155.049 506.565 151.693C506.565 148.338 503.841 145.614 500.486 145.614ZM499.27 154.733L496.23 151.693L497.088 150.836L499.27 153.012L503.884 148.398L504.741 149.262L499.27 154.733Z" fill="#0266A8"/>
<path d="M47.3047 161.088L43.1747 165.003L39.1981 161.297L38.7245 161.769L27.9771 172.573C28.3991 172.999 28.9754 173.241 29.5786 173.247H56.7708C57.3741 173.242 57.9505 172.999 58.3724 172.573L47.809 161.621L47.3047 161.088Z" fill="#0266A8"/>
<path d="M39.5273 161.626L28.031 151.382L28.0519 151.362H28.031C27.6167 151.774 27.3806 152.318 27.3691 152.886V171.094C27.373 171.676 27.624 172.232 28.0659 172.639L39.0535 162.102L39.5273 161.626Z" fill="#0390ED"/>
<path d="M58.8638 152.292C58.7372 151.938 58.5174 151.618 58.224 151.362H58.2064C58.2064 151.362 58.2064 151.362 58.224 151.378L46.8223 161.491L47.3347 161.989L58.2912 172.639C58.7331 172.231 58.9811 171.677 58.9804 171.099V152.96C58.9801 152.733 58.9407 152.508 58.8638 152.292Z" fill="#0390ED"/>
<path d="M39.2366 161.724L43.2208 165.344L47.3586 161.527L58.3724 151.369C58.3724 151.369 58.3724 151.369 58.3553 151.353C57.9504 150.972 57.4084 150.758 56.8429 150.754H29.5987C28.9912 150.759 28.4125 151.004 27.9975 151.432L27.9771 151.451L39.2366 161.724Z" fill="#62BEFB"/>
<circle cx="58.3725" cy="152.578" r="8.51069" fill="white"/>
<path d="M58.373 146.499C55.0174 146.499 52.2939 149.222 52.2939 152.578C52.2939 155.933 55.0174 158.657 58.373 158.657C61.7287 158.657 64.4521 155.933 64.4521 152.578C64.4521 149.222 61.7287 146.499 58.373 146.499ZM57.1572 155.617L54.1177 152.578L54.9748 151.72L57.1572 153.897L61.7712 149.283L62.6284 150.146L57.1572 155.617Z" fill="#0266A8"/>
<path d="M45.5699 398.403L38.7035 404.77L32.092 398.743L31.3046 399.51L13.436 417.082C14.1377 417.775 15.0959 418.169 16.0988 418.177H61.3083C62.3113 418.169 63.2696 417.775 63.971 417.082L46.4084 399.269L45.5699 398.403Z" fill="#FF651D"/>
<path d="M32.1124 399.451L13.4144 383.054L13.4484 383.023H13.4144C12.7405 383.683 12.3566 384.553 12.3379 385.463V414.607C12.3442 415.539 12.7523 416.429 13.4711 417.079L31.3419 400.214L32.1124 399.451Z" fill="#FF9200"/>
<path d="M63.8398 383.023H63.8111C63.8111 383.023 63.8111 383.023 63.8398 383.05L45.2954 399.758L46.1289 400.581L63.949 418.177C64.6677 417.504 65.0712 416.588 65.07 415.634V385.664C65.0695 385.289 65.0054 384.916 64.8803 384.56C64.6745 383.974 64.3169 383.446 63.8398 383.023Z" fill="#FF9200"/>
<path d="M32.156 400.097L38.7801 406.093L45.6597 399.77L63.971 382.943C63.971 382.943 63.971 382.943 63.9426 382.916C63.2694 382.286 62.3682 381.93 61.4281 381.924H16.1322C15.1222 381.933 14.16 382.338 13.4701 383.047L13.436 383.08L32.156 400.097Z" fill="#FBB85E"/>
<circle cx="65.3914" cy="386.345" r="12.3792" fill="white"/>
<path d="M65.3911 377.503C60.5102 377.503 56.5488 381.464 56.5488 386.345C56.5488 391.226 60.5102 395.187 65.3911 395.187C70.272 395.187 74.2334 391.226 74.2334 386.345C74.2334 381.464 70.272 377.503 65.3911 377.503ZM58.3173 386.345C58.3173 382.437 61.4828 379.271 65.3911 379.271C67.0269 379.271 68.5301 379.828 69.7238 380.766L59.8116 390.678C58.8743 389.484 58.3173 387.981 58.3173 386.345ZM65.3911 393.419C63.7553 393.419 62.2521 392.862 61.0584 391.925L70.9706 382.012C71.9079 383.206 72.4649 384.709 72.4649 386.345C72.4649 390.253 69.2994 393.419 65.3911 393.419Z" fill="#FF298A"/>
<path d="M394.252 199.59L389.334 204.15L384.599 199.834L384.035 200.383L371.237 212.968C371.739 213.465 372.426 213.747 373.144 213.753H405.524C406.242 213.748 406.928 213.465 407.431 212.968L394.852 200.21L394.252 199.59Z" fill="#FF651D"/>
<path d="M384.613 200.341L371.221 188.597L371.246 188.575H371.221C370.739 189.048 370.464 189.671 370.45 190.322V211.196C370.455 211.863 370.747 212.501 371.262 212.966L384.061 200.887L384.613 200.341Z" fill="#FF9200"/>
<path d="M407.337 188.575H407.317C407.317 188.575 407.317 188.575 407.337 188.594L394.056 200.561L394.653 201.15L407.416 213.753C407.93 213.271 408.219 212.615 408.219 211.931V190.466C408.218 190.198 408.172 189.931 408.083 189.676C407.935 189.256 407.679 188.878 407.337 188.575Z" fill="#FF9200"/>
<path d="M384.644 200.804L389.388 205.098L394.315 200.57L407.43 188.518C407.43 188.518 407.43 188.518 407.41 188.499C406.928 188.047 406.282 187.793 405.609 187.788H373.167C372.444 187.794 371.755 188.085 371.261 188.592L371.236 188.616L384.644 200.804Z" fill="#FBB85E"/>
<circle cx="408.448" cy="190.955" r="8.86618" fill="white"/>
<path d="M408.448 184.622C404.952 184.622 402.115 187.459 402.115 190.955C402.115 194.45 404.952 197.288 408.448 197.288C411.944 197.288 414.781 194.45 414.781 190.955C414.781 187.459 411.944 184.622 408.448 184.622ZM403.381 190.955C403.381 188.155 405.649 185.888 408.448 185.888C409.619 185.888 410.696 186.287 411.551 186.958L404.452 194.058C403.78 193.203 403.381 192.126 403.381 190.955ZM408.448 196.021C407.276 196.021 406.2 195.622 405.345 194.951L412.444 187.851C413.115 188.706 413.514 189.783 413.514 190.955C413.514 193.754 411.247 196.021 408.448 196.021Z" fill="#FF298A"/>
<path d="M44.2973 351.973C44.3241 351.702 44.1508 351.453 43.8884 351.383C42.8059 351.191 39.7991 350.481 38.7888 349.459C37.7785 348.437 37.0569 345.43 36.8645 344.359C36.818 344.096 36.5903 343.904 36.3232 343.902V351.925L44.2973 351.973Z" fill="#FFEA80"/>
<path d="M36.2753 343.95C36.0062 343.958 35.7798 344.154 35.7341 344.419C35.5657 345.49 34.8922 348.497 33.8819 349.507C32.8716 350.517 29.8046 351.239 28.7222 351.431C28.4592 351.478 28.2669 351.705 28.2651 351.972H36.2873L36.2753 343.95Z" fill="#FFD567"/>
<path d="M36.2769 351.973V359.995C36.5439 359.993 36.7716 359.801 36.8181 359.538C37.0105 358.443 37.7201 355.4 38.7424 354.378C39.7648 353.356 42.7596 352.694 43.83 352.526C44.0996 352.479 44.2972 352.246 44.299 351.973H36.2769Z" fill="#FFD567"/>
<path d="M28.254 351.973C28.2498 352.244 28.4435 352.479 28.711 352.526C29.8055 352.694 32.8484 353.368 33.8707 354.378C34.893 355.388 35.5545 358.443 35.7229 359.526C35.7641 359.794 35.9932 359.992 36.2641 359.995V351.973H28.254Z" fill="#FFA266"/>
<path d="M478.324 120.668C478.343 120.475 478.219 120.296 478.031 120.246C477.256 120.108 475.102 119.6 474.378 118.868C473.655 118.135 473.138 115.981 473 115.215C472.967 115.026 472.804 114.888 472.612 114.887V120.634L478.324 120.668Z" fill="#FFEA80"/>
<path d="M472.578 114.922C472.385 114.927 472.223 115.068 472.19 115.258C472.069 116.025 471.587 118.178 470.863 118.902C470.14 119.626 467.943 120.143 467.167 120.281C466.979 120.314 466.841 120.477 466.84 120.668H472.586L472.578 114.922Z" fill="#FFD567"/>
<path d="M472.578 120.668V126.414C472.769 126.413 472.932 126.275 472.965 126.087C473.103 125.303 473.611 123.123 474.344 122.391C475.076 121.659 477.221 121.185 477.988 121.064C478.181 121.031 478.323 120.864 478.324 120.668H472.578Z" fill="#FFD567"/>
<path d="M466.831 120.668C466.828 120.863 466.967 121.03 467.158 121.064C467.942 121.185 470.122 121.667 470.854 122.391C471.587 123.115 472.061 125.303 472.181 126.078C472.211 126.27 472.375 126.412 472.569 126.414V120.668H466.831Z" fill="#FFA266"/>
<path d="M450.913 178.883C450.932 178.689 450.808 178.511 450.62 178.461C449.845 178.323 447.691 177.815 446.967 177.082C446.244 176.35 445.727 174.196 445.589 173.429C445.556 173.241 445.392 173.103 445.201 173.102V178.849L450.913 178.883Z" fill="#FFEA80"/>
<path d="M445.166 173.136C444.973 173.142 444.811 173.282 444.778 173.472C444.658 174.239 444.175 176.393 443.452 177.117C442.728 177.84 440.531 178.357 439.756 178.495C439.567 178.528 439.429 178.691 439.428 178.883H445.175L445.166 173.136Z" fill="#FFD567"/>
<path d="M445.167 178.883V184.629C445.358 184.628 445.521 184.49 445.554 184.302C445.692 183.518 446.2 181.338 446.933 180.606C447.665 179.874 449.81 179.4 450.577 179.279C450.77 179.246 450.912 179.079 450.913 178.883H445.167Z" fill="#FFD567"/>
<path d="M439.42 178.883C439.417 179.077 439.556 179.245 439.747 179.279C440.531 179.4 442.711 179.882 443.443 180.606C444.176 181.33 444.65 183.518 444.77 184.293C444.8 184.485 444.964 184.627 445.158 184.629V178.883H439.42Z" fill="#FFA266"/>
<g filter="url(#filter0_d_420_2077)">
<rect x="329.775" y="20.2749" width="144.129" height="58.359" rx="12" fill="white"/>
</g>
<rect x="341.27" y="30.8857" width="37.1376" height="37.1376" rx="6" fill="#FBB85E"/>
<path d="M355.417 54.76C354.445 54.76 353.658 55.5558 353.658 56.5284C353.658 57.5011 354.445 58.2969 355.417 58.2969C356.39 58.2969 357.186 57.5011 357.186 56.5284C357.186 55.5558 356.39 54.76 355.417 54.76ZM350.112 40.6123V42.3808H351.88L355.063 49.0921L353.87 51.2584C353.728 51.506 353.649 51.7978 353.649 52.1073C353.649 53.0799 354.445 53.8757 355.417 53.8757H366.028V52.1073H355.789C355.665 52.1073 355.568 52.01 355.568 51.8862L355.594 51.7801L356.39 50.3388H362.977C363.641 50.3388 364.224 49.9763 364.525 49.4281L367.69 43.6894C367.761 43.5656 367.796 43.4153 367.796 43.265C367.796 42.7787 367.398 42.3808 366.912 42.3808H353.834L353.003 40.6123H350.112ZM364.259 54.76C363.287 54.76 362.5 55.5558 362.5 56.5284C362.5 57.5011 363.287 58.2969 364.259 58.2969C365.232 58.2969 366.028 57.5011 366.028 56.5284C366.028 55.5558 365.232 54.76 364.259 54.76Z" fill="white"/>
<path d="M388.244 47.3066H389.994V44.0726H392.43C394.488 44.0726 396.028 42.7566 396.028 40.8806C396.028 39.0046 394.488 37.6886 392.43 37.6886H388.244V47.3066ZM389.994 42.4626V39.2986H392.234C393.424 39.2986 394.25 39.9006 394.25 40.8806C394.25 41.8606 393.424 42.4626 392.234 42.4626H389.994ZM399.098 41.4686V40.0686H397.39V47.3066H399.098V43.6526C399.098 42.2806 400.134 41.3566 401.688 41.3566V39.9006C400.498 39.9006 399.56 40.5026 399.098 41.4686ZM406.275 47.4746C408.375 47.4746 410.153 45.7386 410.153 43.6806C410.153 41.6226 408.375 39.9006 406.275 39.9006C404.175 39.9006 402.397 41.6226 402.397 43.6806C402.397 45.7386 404.175 47.4746 406.275 47.4746ZM406.275 46.0186C405.071 46.0186 404.063 44.9546 404.063 43.6806C404.063 42.4206 405.071 41.3566 406.275 41.3566C407.465 41.3566 408.473 42.4206 408.473 43.6806C408.473 44.9546 407.465 46.0186 406.275 46.0186ZM413.819 39.4666C413.819 38.9766 414.127 38.6266 414.533 38.6266C414.827 38.6266 415.093 38.7386 415.247 38.8926L415.737 37.8006C415.331 37.4506 414.743 37.2266 414.197 37.2266C412.993 37.2266 412.153 38.0946 412.153 39.3126V40.0686H411.103V41.4826H412.153V47.3066H413.819V41.4826H415.457V40.0686H413.819V39.4666ZM417.684 38.9766C418.216 38.9766 418.65 38.5146 418.65 37.9966C418.65 37.4786 418.216 37.0306 417.684 37.0306C417.138 37.0306 416.704 37.4786 416.704 37.9966C416.704 38.5146 417.138 38.9766 417.684 38.9766ZM416.816 47.3066H418.524V40.0686H416.816V47.3066ZM424.024 45.7526C423.87 45.9066 423.604 46.0186 423.31 46.0186C422.904 46.0186 422.596 45.6686 422.596 45.1786V41.4826H424.234V40.0686H422.596V38.0806H420.93V40.0686H419.88V41.4826H420.93V45.3886C420.93 46.6066 421.77 47.4746 422.974 47.4746C423.52 47.4746 424.108 47.2506 424.514 46.9006L424.024 45.7526ZM429.214 45.9626C428.178 45.9626 427.422 45.2626 427.212 44.2686H432.672C432.672 41.5946 431.37 39.9006 429.13 39.9006C427.072 39.9006 425.448 41.4966 425.448 43.6666C425.448 45.8926 427.156 47.4746 429.228 47.4746C430.278 47.4746 431.538 47.0266 432.168 46.3546L431.09 45.2346C430.684 45.6546 429.886 45.9626 429.214 45.9626ZM429.2 41.4126C430.222 41.4126 430.838 42.0566 431.034 42.9666H427.226C427.478 42.0146 428.248 41.4126 429.2 41.4126ZM433.858 47.3066H439.976V45.8086H436.084L439.934 41.3146L439.948 40.0686H433.942V41.5666H437.694L433.858 46.0606V47.3066ZM393.69 53.5206V57.1886C393.116 56.3766 392.248 55.9006 391.184 55.9006C389.266 55.9006 387.866 57.4686 387.866 59.6806C387.866 61.9066 389.266 63.4746 391.184 63.4746C392.248 63.4746 393.116 62.9986 393.69 62.1866V63.3066H395.398V53.5206H393.69ZM391.646 62.0186C390.428 62.0186 389.56 61.0386 389.56 59.6806C389.56 58.3226 390.428 57.3566 391.646 57.3566C392.85 57.3566 393.69 58.3226 393.69 59.6806C393.69 61.0386 392.85 62.0186 391.646 62.0186ZM400.694 61.9626C399.658 61.9626 398.902 61.2626 398.692 60.2686H404.152C404.152 57.5946 402.85 55.9006 400.61 55.9006C398.552 55.9006 396.928 57.4966 396.928 59.6666C396.928 61.8926 398.636 63.4746 400.708 63.4746C401.758 63.4746 403.018 63.0266 403.648 62.3546L402.57 61.2346C402.164 61.6546 401.366 61.9626 400.694 61.9626ZM400.68 57.4126C401.702 57.4126 402.318 58.0566 402.514 58.9666H398.706C398.958 58.0146 399.728 57.4126 400.68 57.4126ZM413.868 55.9006C412.79 55.9006 411.922 56.3906 411.348 57.2166V53.5206H409.64V63.3066H411.348V62.1586C411.922 62.9846 412.79 63.4746 413.868 63.4746C415.786 63.4746 417.186 61.9066 417.186 59.6806C417.186 57.4686 415.786 55.9006 413.868 55.9006ZM413.406 62.0186C412.202 62.0186 411.362 61.0386 411.362 59.6806C411.362 58.3226 412.202 57.3566 413.406 57.3566C414.624 57.3566 415.492 58.3226 415.492 59.6806C415.492 61.0386 414.624 62.0186 413.406 62.0186ZM422.23 63.4746C424.33 63.4746 426.108 61.7386 426.108 59.6806C426.108 57.6226 424.33 55.9006 422.23 55.9006C420.13 55.9006 418.352 57.6226 418.352 59.6806C418.352 61.7386 420.13 63.4746 422.23 63.4746ZM422.23 62.0186C421.026 62.0186 420.018 60.9546 420.018 59.6806C420.018 58.4206 421.026 57.3566 422.23 57.3566C423.42 57.3566 424.428 58.4206 424.428 59.6806C424.428 60.9546 423.42 62.0186 422.23 62.0186ZM431.538 55.9006C430.586 55.9006 429.746 56.3626 429.298 57.0346V56.0686H427.59V63.3066H429.298V58.7286C429.41 57.9586 430.152 57.3566 431.048 57.3566C431.944 57.3566 432.574 58.0566 432.574 59.0366V63.3066H434.226V58.7006C434.226 57.0626 433.12 55.9006 431.538 55.9006ZM438.754 63.4746C440.448 63.4746 441.596 62.5786 441.596 61.1926C441.596 59.6806 440.28 59.2606 439.062 58.9246C437.956 58.6026 437.578 58.4626 437.578 58.0006C437.578 57.5946 438.04 57.3566 438.642 57.3566C439.272 57.3566 440.014 57.5806 440.7 58.0146L441.414 56.7686C440.63 56.2506 439.636 55.9006 438.642 55.9006C437.032 55.9006 435.912 56.8246 435.912 58.1826C435.926 59.4706 436.92 59.9186 438.488 60.3246C439.314 60.5486 439.944 60.7306 439.944 61.2906C439.944 61.7386 439.468 62.0326 438.782 62.0326C437.872 62.0326 437.06 61.6966 436.36 61.1926L435.59 62.3826C436.458 63.0826 437.648 63.4746 438.754 63.4746Z" fill="#999999"/>
<g filter="url(#filter1_d_420_2077)">
<rect x="24.7163" y="488.031" width="144.129" height="58.359" rx="12" fill="white"/>
</g>
<rect x="36.2109" y="498.642" width="37.1376" height="37.1376" rx="6" fill="#0390ED"/>
<path d="M87.0629 515.207C88.2749 515.207 89.3789 514.691 90.1709 513.863L89.1149 512.879C88.5989 513.467 87.8669 513.839 87.0629 513.839C85.5389 513.839 84.2549 512.519 84.2549 510.935C84.2549 509.363 85.5389 508.043 87.0629 508.043C87.8549 508.043 88.5989 508.415 89.1029 509.003L90.1709 508.007C89.3789 507.191 88.2749 506.675 87.0629 506.675C84.7109 506.675 82.7309 508.619 82.7309 510.935C82.7309 513.251 84.7109 515.207 87.0629 515.207ZM94.2801 515.207C96.0801 515.207 97.6041 513.719 97.6041 511.955C97.6041 510.191 96.0801 508.715 94.2801 508.715C92.4801 508.715 90.9561 510.191 90.9561 511.955C90.9561 513.719 92.4801 515.207 94.2801 515.207ZM94.2801 513.959C93.2481 513.959 92.3841 513.047 92.3841 511.955C92.3841 510.875 93.2481 509.963 94.2801 509.963C95.3001 509.963 96.1641 510.875 96.1641 511.955C96.1641 513.047 95.3001 513.959 94.2801 513.959ZM102.258 508.715C101.442 508.715 100.722 509.111 100.338 509.687V508.859H98.8738V515.063H100.338V511.139C100.434 510.479 101.07 509.963 101.838 509.963C102.606 509.963 103.146 510.563 103.146 511.403V515.063H104.562V511.115C104.562 509.711 103.614 508.715 102.258 508.715ZM109.535 508.715C108.719 508.715 107.999 509.111 107.615 509.687V508.859H106.151V515.063H107.615V511.139C107.711 510.479 108.347 509.963 109.115 509.963C109.883 509.963 110.423 510.563 110.423 511.403V515.063H111.839V511.115C111.839 509.711 110.891 508.715 109.535 508.715ZM116.321 513.911C115.433 513.911 114.785 513.311 114.605 512.459H119.285C119.285 510.167 118.169 508.715 116.249 508.715C114.485 508.715 113.093 510.083 113.093 511.943C113.093 513.851 114.557 515.207 116.333 515.207C117.233 515.207 118.313 514.823 118.853 514.247L117.929 513.287C117.581 513.647 116.897 513.911 116.321 513.911ZM116.309 510.011C117.185 510.011 117.713 510.563 117.881 511.343H114.617C114.833 510.527 115.493 510.011 116.309 510.011ZM126.242 515.063L123.914 511.883L126.134 508.859H124.538L123.122 510.791L121.706 508.859H120.098L122.318 511.895L119.99 515.063H121.586L123.11 512.987L124.622 515.063H126.242ZM128.024 507.923C128.48 507.923 128.852 507.527 128.852 507.083C128.852 506.639 128.48 506.255 128.024 506.255C127.556 506.255 127.184 506.639 127.184 507.083C127.184 507.527 127.556 507.923 128.024 507.923ZM127.28 515.063H128.744V508.859H127.28V515.063ZM133.362 515.207C135.162 515.207 136.686 513.719 136.686 511.955C136.686 510.191 135.162 508.715 133.362 508.715C131.562 508.715 130.038 510.191 130.038 511.955C130.038 513.719 131.562 515.207 133.362 515.207ZM133.362 513.959C132.33 513.959 131.466 513.047 131.466 511.955C131.466 510.875 132.33 509.963 133.362 509.963C134.382 509.963 135.246 510.875 135.246 511.955C135.246 513.047 134.382 513.959 133.362 513.959ZM141.34 508.715C140.524 508.715 139.804 509.111 139.42 509.687V508.859H137.956V515.063H139.42V511.139C139.516 510.479 140.152 509.963 140.92 509.963C141.688 509.963 142.228 510.563 142.228 511.403V515.063H143.644V511.115C143.644 509.711 142.696 508.715 141.34 508.715ZM147.525 515.207C148.977 515.207 149.961 514.439 149.961 513.251C149.961 511.955 148.833 511.595 147.789 511.307C146.841 511.031 146.517 510.911 146.517 510.515C146.517 510.167 146.913 509.963 147.429 509.963C147.969 509.963 148.605 510.155 149.193 510.527L149.805 509.459C149.133 509.015 148.281 508.715 147.429 508.715C146.049 508.715 145.089 509.507 145.089 510.671C145.101 511.775 145.953 512.159 147.297 512.507C148.005 512.699 148.545 512.855 148.545 513.335C148.545 513.719 148.137 513.971 147.549 513.971C146.769 513.971 146.073 513.683 145.473 513.251L144.813 514.271C145.557 514.871 146.577 515.207 147.525 515.207ZM85.2869 531.207C86.7389 531.207 87.7229 530.439 87.7229 529.251C87.7229 527.955 86.5949 527.595 85.5509 527.307C84.6029 527.031 84.2789 526.911 84.2789 526.515C84.2789 526.167 84.6749 525.963 85.1909 525.963C85.7309 525.963 86.3669 526.155 86.9549 526.527L87.5669 525.459C86.8949 525.015 86.0429 524.715 85.1909 524.715C83.8109 524.715 82.8509 525.507 82.8509 526.671C82.8629 527.775 83.7149 528.159 85.0589 528.507C85.7669 528.699 86.3069 528.855 86.3069 529.335C86.3069 529.719 85.8989 529.971 85.3109 529.971C84.5309 529.971 83.8349 529.683 83.2349 529.251L82.5749 530.271C83.3189 530.871 84.3389 531.207 85.2869 531.207ZM91.9949 531.207C93.7949 531.207 95.3189 529.719 95.3189 527.955C95.3189 526.191 93.7949 524.715 91.9949 524.715C90.1949 524.715 88.6709 526.191 88.6709 527.955C88.6709 529.719 90.1949 531.207 91.9949 531.207ZM91.9949 529.959C90.9629 529.959 90.0989 529.047 90.0989 527.955C90.0989 526.875 90.9629 525.963 91.9949 525.963C93.0149 525.963 93.8789 526.875 93.8789 527.955C93.8789 529.047 93.0149 529.959 91.9949 529.959ZM99.5767 531.207C100.561 531.207 101.389 530.799 101.989 530.163L101.005 529.311C100.657 529.707 100.129 529.959 99.5887 529.959C98.5687 529.959 97.7167 529.047 97.7167 527.955C97.7167 526.875 98.5687 525.963 99.5887 525.963C100.117 525.963 100.633 526.215 100.969 526.587L101.953 525.723C101.365 525.111 100.537 524.715 99.6007 524.715C97.7887 524.715 96.2647 526.191 96.2647 527.955C96.2647 529.719 97.7887 531.207 99.5767 531.207ZM103.883 523.923C104.339 523.923 104.711 523.527 104.711 523.083C104.711 522.639 104.339 522.255 103.883 522.255C103.415 522.255 103.043 522.639 103.043 523.083C103.043 523.527 103.415 523.923 103.883 523.923ZM103.139 531.063H104.603V524.859H103.139V531.063ZM108.921 524.715C108.141 524.715 107.325 524.931 106.449 525.363L106.953 526.383C107.481 526.119 108.045 525.915 108.633 525.915C109.761 525.915 110.157 526.611 110.157 527.331V527.499C109.593 527.283 108.981 527.163 108.417 527.163C107.025 527.163 105.885 528.003 105.885 529.227C105.885 530.427 106.881 531.207 108.201 531.207C108.921 531.207 109.701 530.895 110.157 530.319V531.063H111.585V527.331C111.585 525.759 110.565 524.715 108.921 524.715ZM108.525 530.139C107.829 530.139 107.313 529.767 107.313 529.179C107.313 528.591 107.901 528.183 108.633 528.183C109.185 528.183 109.701 528.267 110.157 528.423V529.119C109.989 529.779 109.233 530.139 108.525 530.139ZM113.171 531.063H114.635V522.675H113.171V531.063ZM119.145 529.911C118.257 529.911 117.609 529.311 117.429 528.459H122.109C122.109 526.167 120.993 524.715 119.073 524.715C117.309 524.715 115.917 526.083 115.917 527.943C115.917 529.851 117.381 531.207 119.157 531.207C120.057 531.207 121.137 530.823 121.677 530.247L120.753 529.287C120.405 529.647 119.721 529.911 119.145 529.911ZM119.133 526.011C120.009 526.011 120.537 526.563 120.705 527.343H117.441C117.657 526.527 118.317 526.011 119.133 526.011ZM125.67 531.207C127.122 531.207 128.106 530.439 128.106 529.251C128.106 527.955 126.978 527.595 125.934 527.307C124.986 527.031 124.662 526.911 124.662 526.515C124.662 526.167 125.058 525.963 125.574 525.963C126.114 525.963 126.75 526.155 127.338 526.527L127.95 525.459C127.278 525.015 126.426 524.715 125.574 524.715C124.194 524.715 123.234 525.507 123.234 526.671C123.246 527.775 124.098 528.159 125.442 528.507C126.15 528.699 126.69 528.855 126.69 529.335C126.69 529.719 126.282 529.971 125.694 529.971C124.914 529.971 124.218 529.683 123.618 529.251L122.958 530.271C123.702 530.871 124.722 531.207 125.67 531.207Z" fill="#999999"/>
<g clip-path="url(#clip0_420_2077)">
<path d="M58.7588 509.253C57.2202 509.253 55.7436 509.969 54.7798 511.101C53.816 509.969 52.3393 509.253 50.8008 509.253C48.0773 509.253 45.9375 511.393 45.9375 514.116C45.9375 517.459 48.9439 520.182 53.4976 524.32L54.7798 525.479L56.0619 524.311C60.6157 520.182 63.6221 517.459 63.6221 514.116C63.6221 511.393 61.4822 509.253 58.7588 509.253ZM54.8682 523.003L54.7798 523.091L54.6914 523.003C50.4824 519.192 47.706 516.672 47.706 514.116C47.706 512.348 49.0323 511.021 50.8008 511.021C52.1625 511.021 53.4888 511.897 53.9574 513.108H55.611C56.0708 511.897 57.3971 511.021 58.7588 511.021C60.5273 511.021 61.8536 512.348 61.8536 514.116C61.8536 516.672 59.0771 519.192 54.8682 523.003Z" fill="white"/>
</g>
<g filter="url(#filter2_d_420_2077)">
<rect x="272" y="424" width="173" height="59" rx="12" fill="white"/>
</g>
<path d="M336.128 449H337.784L334.34 440.756H332.672L329.228 449H330.896L331.52 447.512H335.504L336.128 449ZM332.06 446.216L333.512 442.748L334.964 446.216H332.06ZM341.815 449.144C342.799 449.144 343.627 448.736 344.227 448.1L343.243 447.248C342.895 447.644 342.367 447.896 341.827 447.896C340.807 447.896 339.955 446.984 339.955 445.892C339.955 444.812 340.807 443.9 341.827 443.9C342.355 443.9 342.871 444.152 343.207 444.524L344.191 443.66C343.603 443.048 342.775 442.652 341.839 442.652C340.027 442.652 338.503 444.128 338.503 445.892C338.503 447.656 340.027 449.144 341.815 449.144ZM348.366 449.144C349.35 449.144 350.178 448.736 350.778 448.1L349.794 447.248C349.446 447.644 348.918 447.896 348.378 447.896C347.358 447.896 346.506 446.984 346.506 445.892C346.506 444.812 347.358 443.9 348.378 443.9C348.906 443.9 349.422 444.152 349.758 444.524L350.742 443.66C350.154 443.048 349.326 442.652 348.39 442.652C346.578 442.652 345.054 444.128 345.054 445.892C345.054 447.656 346.578 449.144 348.366 449.144ZM355.769 442.1L354.365 440.276L352.997 440.54L354.749 442.1H355.769ZM354.821 447.848C353.933 447.848 353.285 447.248 353.105 446.396H357.785C357.785 444.104 356.669 442.652 354.749 442.652C352.985 442.652 351.593 444.02 351.593 445.88C351.593 447.788 353.057 449.144 354.833 449.144C355.733 449.144 356.813 448.76 357.353 448.184L356.429 447.224C356.081 447.584 355.397 447.848 354.821 447.848ZM354.809 443.948C355.685 443.948 356.213 444.5 356.381 445.28H353.117C353.333 444.464 353.993 443.948 354.809 443.948ZM361.346 449.144C362.798 449.144 363.782 448.376 363.782 447.188C363.782 445.892 362.654 445.532 361.61 445.244C360.662 444.968 360.338 444.848 360.338 444.452C360.338 444.104 360.734 443.9 361.25 443.9C361.79 443.9 362.426 444.092 363.014 444.464L363.626 443.396C362.954 442.952 362.102 442.652 361.25 442.652C359.87 442.652 358.91 443.444 358.91 444.608C358.922 445.712 359.774 446.096 361.118 446.444C361.826 446.636 362.366 446.792 362.366 447.272C362.366 447.656 361.958 447.908 361.37 447.908C360.59 447.908 359.894 447.62 359.294 447.188L358.634 448.208C359.378 448.808 360.398 449.144 361.346 449.144ZM371.152 442.652C370.372 442.652 369.556 442.868 368.68 443.3L369.184 444.32C369.712 444.056 370.276 443.852 370.864 443.852C371.992 443.852 372.388 444.548 372.388 445.268V445.436C371.824 445.22 371.212 445.1 370.648 445.1C369.256 445.1 368.116 445.94 368.116 447.164C368.116 448.364 369.112 449.144 370.432 449.144C371.152 449.144 371.932 448.832 372.388 448.256V449H373.816V445.268C373.816 443.696 372.796 442.652 371.152 442.652ZM370.756 448.076C370.06 448.076 369.544 447.704 369.544 447.116C369.544 446.528 370.132 446.12 370.864 446.12C371.416 446.12 371.932 446.204 372.388 446.36V447.056C372.22 447.716 371.464 448.076 370.756 448.076ZM379.602 442.796V446.72C379.506 447.38 378.87 447.896 378.102 447.896C377.334 447.896 376.794 447.296 376.794 446.456V442.796H375.378V446.744C375.378 448.148 376.326 449.144 377.682 449.144C378.498 449.144 379.218 448.748 379.602 448.172V449H381.066V442.796H379.602ZM389.065 449.144C390.049 449.144 390.877 448.736 391.477 448.1L390.493 447.248C390.145 447.644 389.617 447.896 389.077 447.896C388.057 447.896 387.205 446.984 387.205 445.892C387.205 444.812 388.057 443.9 389.077 443.9C389.605 443.9 390.121 444.152 390.457 444.524L391.441 443.66C390.853 443.048 390.025 442.652 389.089 442.652C387.277 442.652 385.753 444.128 385.753 445.892C385.753 447.656 387.277 449.144 389.065 449.144ZM395.499 449.144C397.299 449.144 398.823 447.656 398.823 445.892C398.823 444.128 397.299 442.652 395.499 442.652C393.699 442.652 392.175 444.128 392.175 445.892C392.175 447.656 393.699 449.144 395.499 449.144ZM395.499 447.896C394.467 447.896 393.603 446.984 393.603 445.892C393.603 444.812 394.467 443.9 395.499 443.9C396.519 443.9 397.383 444.812 397.383 445.892C397.383 446.984 396.519 447.896 395.499 447.896ZM403.477 442.652C402.661 442.652 401.941 443.048 401.557 443.624V442.796H400.093V449H401.557V445.076C401.653 444.416 402.289 443.9 403.057 443.9C403.825 443.9 404.365 444.5 404.365 445.34V449H405.781V445.052C405.781 443.648 404.833 442.652 403.477 442.652ZM410.466 447.668C410.334 447.8 410.106 447.896 409.854 447.896C409.506 447.896 409.242 447.596 409.242 447.176V444.008H410.646V442.796H409.242V441.092H407.814V442.796H406.914V444.008H407.814V447.356C407.814 448.4 408.534 449.144 409.566 449.144C410.034 449.144 410.538 448.952 410.886 448.652L410.466 447.668ZM414.915 447.848C414.027 447.848 413.379 447.248 413.199 446.396H417.879C417.879 444.104 416.763 442.652 414.843 442.652C413.079 442.652 411.687 444.02 411.687 445.88C411.687 447.788 413.151 449.144 414.927 449.144C415.827 449.144 416.907 448.76 417.447 448.184L416.523 447.224C416.175 447.584 415.491 447.848 414.915 447.848ZM414.903 443.948C415.779 443.948 416.307 444.5 416.475 445.28H413.211C413.427 444.464 414.087 443.948 414.903 443.948ZM422.532 442.652C421.716 442.652 420.996 443.048 420.612 443.624V442.796H419.148V449H420.612V445.076C420.708 444.416 421.344 443.9 422.112 443.9C422.88 443.9 423.42 444.5 423.42 445.34V449H424.836V445.052C424.836 443.648 423.888 442.652 422.532 442.652ZM430.625 442.796V446.72C430.529 447.38 429.893 447.896 429.125 447.896C428.357 447.896 427.817 447.296 427.817 446.456V442.796H426.401V446.744C426.401 448.148 427.349 449.144 428.705 449.144C429.521 449.144 430.241 448.748 430.625 448.172V449H432.089V442.796H430.625ZM333.188 458.652C332.372 458.652 331.652 459.048 331.268 459.624V458.796H329.804V465H331.268V461.076C331.364 460.416 332 459.9 332.768 459.9C333.536 459.9 334.076 460.5 334.076 461.34V465H335.492V461.052C335.492 459.648 334.544 458.652 333.188 458.652ZM341.281 458.796V462.72C341.185 463.38 340.549 463.896 339.781 463.896C339.013 463.896 338.473 463.296 338.473 462.456V458.796H337.057V462.744C337.057 464.148 338.005 465.144 339.361 465.144C340.177 465.144 340.897 464.748 341.281 464.172V465H342.745V458.796H341.281ZM351.523 458.652C350.599 458.652 349.819 459.108 349.519 459.828C349.135 459.096 348.415 458.652 347.539 458.652C346.759 458.652 346.123 459.036 345.811 459.636V458.796H344.347V465H345.811V461.196C345.811 460.44 346.375 459.9 347.167 459.9C347.887 459.9 348.379 460.476 348.379 461.292V465H349.807V461.196C349.807 460.44 350.359 459.9 351.163 459.9C351.871 459.9 352.363 460.476 352.363 461.292V465H353.791V461.052C353.791 459.648 352.819 458.652 351.523 458.652ZM359.814 456.54L358.446 456.276L357.042 458.1H358.062L359.814 456.54ZM358.266 463.848C357.378 463.848 356.73 463.248 356.55 462.396H361.23C361.23 460.104 360.114 458.652 358.194 458.652C356.43 458.652 355.038 460.02 355.038 461.88C355.038 463.788 356.502 465.144 358.278 465.144C359.178 465.144 360.258 464.76 360.798 464.184L359.874 463.224C359.526 463.584 358.842 463.848 358.266 463.848ZM358.254 459.948C359.13 459.948 359.658 460.5 359.826 461.28H356.562C356.778 460.464 357.438 459.948 358.254 459.948ZM363.999 459.996V458.796H362.535V465H363.999V461.868C363.999 460.692 364.887 459.9 366.219 459.9V458.652C365.199 458.652 364.395 459.168 363.999 459.996ZM368.048 457.86C368.504 457.86 368.876 457.464 368.876 457.02C368.876 456.576 368.504 456.192 368.048 456.192C367.58 456.192 367.208 456.576 367.208 457.02C367.208 457.464 367.58 457.86 368.048 457.86ZM367.304 465H368.768V458.796H367.304V465ZM375.102 458.796V459.756C374.61 459.06 373.866 458.652 372.954 458.652C371.31 458.652 370.11 459.996 370.11 461.892C370.11 463.8 371.31 465.144 372.954 465.144C373.866 465.144 374.61 464.736 375.102 464.04V467.064H376.566V458.796H375.102ZM373.35 463.896C372.306 463.896 371.562 463.056 371.562 461.892C371.562 460.728 372.306 459.9 373.35 459.9C374.382 459.9 375.102 460.728 375.102 461.892C375.102 463.056 374.382 463.896 373.35 463.896ZM382.414 458.796V462.72C382.318 463.38 381.682 463.896 380.914 463.896C380.146 463.896 379.606 463.296 379.606 462.456V458.796H378.19V462.744C378.19 464.148 379.138 465.144 380.494 465.144C381.31 465.144 382.03 464.748 382.414 464.172V465H383.878V458.796H382.414ZM388.384 463.848C387.496 463.848 386.848 463.248 386.668 462.396H391.348C391.348 460.104 390.232 458.652 388.312 458.652C386.548 458.652 385.156 460.02 385.156 461.88C385.156 463.788 386.62 465.144 388.396 465.144C389.296 465.144 390.376 464.76 390.916 464.184L389.992 463.224C389.644 463.584 388.96 463.848 388.384 463.848ZM388.372 459.948C389.248 459.948 389.776 460.5 389.944 461.28H386.68C386.896 460.464 387.556 459.948 388.372 459.948Z" fill="#999999"/>
<circle cx="300.664" cy="453.104" r="21.6636" fill="#0266A8"/>
<path d="M297.569 456.199H304.642V457.968H297.569V456.199ZM297.569 452.662H304.642V454.431H297.569V452.662ZM302.874 443.82H295.8C294.828 443.82 294.032 444.616 294.032 445.589V459.736C294.032 460.709 294.819 461.505 295.791 461.505H306.411C307.384 461.505 308.179 460.709 308.179 459.736V449.125L302.874 443.82ZM306.411 459.736H295.8V445.589H301.99V450.01H306.411V459.736Z" fill="white"/>
<defs>
<filter id="filter0_d_420_2077" x="305.775" y="0.274902" width="192.129" height="106.359" filterUnits="userSpaceOnUse" color-interpolation-filters="sRGB">
<feFlood flood-opacity="0" result="BackgroundImageFix"/>
<feColorMatrix in="SourceAlpha" type="matrix" values="0 0 0 0 0 0 0 0 0 0 0 0 0 0 0 0 0 0 127 0" result="hardAlpha"/>
<feOffset dy="4"/>
<feGaussianBlur stdDeviation="12"/>
<feComposite in2="hardAlpha" operator="out"/>
<feColorMatrix type="matrix" values="0 0 0 0 0 0 0 0 0 0 0 0 0 0 0 0 0 0 0.12 0"/>
<feBlend mode="normal" in2="BackgroundImageFix" result="effect1_dropShadow_420_2077"/>
<feBlend mode="normal" in="SourceGraphic" in2="effect1_dropShadow_420_2077" result="shape"/>
</filter>
<filter id="filter1_d_420_2077" x="0.716309" y="468.031" width="192.129" height="106.359" filterUnits="userSpaceOnUse" color-interpolation-filters="sRGB">
<feFlood flood-opacity="0" result="BackgroundImageFix"/>
<feColorMatrix in="SourceAlpha" type="matrix" values="0 0 0 0 0 0 0 0 0 0 0 0 0 0 0 0 0 0 127 0" result="hardAlpha"/>
<feOffset dy="4"/>
<feGaussianBlur stdDeviation="12"/>
<feComposite in2="hardAlpha" operator="out"/>
<feColorMatrix type="matrix" values="0 0 0 0 0 0 0 0 0 0 0 0 0 0 0 0 0 0 0.12 0"/>
<feBlend mode="normal" in2="BackgroundImageFix" result="effect1_dropShadow_420_2077"/>
<feBlend mode="normal" in="SourceGraphic" in2="effect1_dropShadow_420_2077" result="shape"/>
</filter>
<filter id="filter2_d_420_2077" x="248" y="404" width="221" height="107" filterUnits="userSpaceOnUse" color-interpolation-filters="sRGB">
<feFlood flood-opacity="0" result="BackgroundImageFix"/>
<feColorMatrix in="SourceAlpha" type="matrix" values="0 0 0 0 0 0 0 0 0 0 0 0 0 0 0 0 0 0 127 0" result="hardAlpha"/>
<feOffset dy="4"/>
<feGaussianBlur stdDeviation="12"/>
<feComposite in2="hardAlpha" operator="out"/>
<feColorMatrix type="matrix" values="0 0 0 0 0 0 0 0 0 0 0 0 0 0 0 0 0 0 0.12 0"/>
<feBlend mode="normal" in2="BackgroundImageFix" result="effect1_dropShadow_420_2077"/>
<feBlend mode="normal" in="SourceGraphic" in2="effect1_dropShadow_420_2077" result="shape"/>
</filter>
<clipPath id="clip0_420_2077">
<rect width="21.2215" height="21.2215" fill="white" transform="translate(44.1689 506.6)"/>
</clipPath>
</defs>
</svg>
