<svg width="503" height="410" viewBox="0 0 503 410" fill="none" xmlns="http://www.w3.org/2000/svg">
<path d="M171.792 383.926C147.429 383.277 122.665 376.111 100.013 364.707C75.0426 352.122 47.4182 326.532 40.196 294.661C36.8434 279.234 36.3439 263.323 38.7219 247.713C41.2921 230.173 50.3753 213.91 62.6885 203.967C71.8442 196.58 83.6357 198.408 93.0021 191.843C102.542 185.159 103.48 171.759 95.5063 162.058C88.1151 153.061 76.8161 147.285 73.9726 134.017C70.5121 117.748 83.1871 105.302 92.7799 96.7932C103.181 87.6494 116.176 82.7983 128.66 78.1463C146.046 71.6625 164.37 65.3717 182.505 61.7151C198.537 58.4909 214.788 56.3268 230.705 52.5426C239.658 50.4096 251.335 46.9656 260.628 50.0892C266.351 52.0394 270.536 58.9443 267.708 65.5404C265.851 69.8521 259.787 73.1423 256.15 75.2974C268.97 76.0903 282.23 71.1536 294.834 69.4265C309.587 67.4351 324.394 66.016 339.349 65.2128C353.508 64.4482 368.506 63.8551 382.9 66.5654C405.698 70.8725 419.281 92.1162 422.138 117.984C423.264 128.176 425.354 139.963 423.37 149.95C422.322 155.003 415.489 166.477 417.252 171.399C418.959 176.146 431.778 176.376 435.935 177.46C445.672 180.002 457.454 180.925 465.864 188.431C476.094 197.584 483.463 219.21 484.372 233.47C485.6 252.939 477.757 274.878 469.935 290.83C462.113 306.782 451.177 315.66 437.478 324.19C417.519 336.633 393.035 338.542 370.357 342.84C342.237 348.175 314.44 355.997 286.36 361.324C268.705 364.673 251.364 368.74 234.116 373.006C222.201 375.957 210.773 379.496 198.68 381.784C189.819 383.459 180.805 384.177 171.792 383.926V383.926Z" fill="#F0F9FC"/>
<path d="M117.539 266.767C117.539 267.314 117.377 267.849 117.073 268.304C116.768 268.759 116.336 269.114 115.83 269.323C115.323 269.533 114.767 269.587 114.229 269.481C113.692 269.374 113.198 269.11 112.811 268.723C112.424 268.336 112.16 267.843 112.053 267.307C111.946 266.77 112.001 266.214 112.211 265.708C112.42 265.202 112.775 264.77 113.231 264.466C113.686 264.162 114.222 264 114.77 264C115.134 263.999 115.495 264.069 115.831 264.208C116.168 264.346 116.474 264.55 116.731 264.807C116.989 265.065 117.193 265.37 117.331 265.706C117.47 266.043 117.541 266.403 117.539 266.767V266.767Z" fill="#EF6FFF"/>
<path d="M171.266 318.626C171.266 319.937 170.877 321.218 170.148 322.308C169.42 323.397 168.384 324.247 167.172 324.748C165.959 325.25 164.626 325.381 163.339 325.125C162.052 324.87 160.87 324.239 159.943 323.312C159.015 322.385 158.383 321.204 158.127 319.919C157.871 318.634 158.003 317.301 158.505 316.091C159.007 314.88 159.857 313.845 160.948 313.117C162.039 312.389 163.321 312 164.633 312C166.392 312.003 168.077 312.702 169.321 313.944C170.564 315.186 171.264 316.87 171.266 318.626V318.626Z" fill="#62BEFB"/>
<path d="M177.491 234.656C132.891 222.627 99.6847 245.513 88.6563 258.459C92.4693 225.896 120.385 155.333 201.542 133.586C282.7 111.84 342.157 158.992 361.741 185.286C318.019 173.022 283.204 196.339 271.261 209.53C226.34 198.058 190.031 221.501 177.491 234.656Z" fill="#EF6FFF"/>
<path d="M264.499 204.501C222.251 194.659 189.999 212.5 171.999 229C158.841 179.892 183.498 144.721 196 134C231.392 141.343 257.577 184.065 264.499 204.501Z" fill="#9A5BFF"/>
<rect x="213.796" y="211.615" width="7.4055" height="82.0207" rx="1" transform="rotate(-15 213.796 211.615)" fill="#CCCCCC" stroke="#4F5A79" stroke-width="2"/>
<rect x="234.61" y="293.161" width="9.4055" height="28.3854" transform="rotate(-15 234.61 293.161)" fill="#EF6FFF"/>
<path fill-rule="evenodd" clip-rule="evenodd" d="M241.958 320.581C245.367 333.3 258.441 340.847 271.16 337.439C283.879 334.031 291.428 320.958 288.021 308.239L278.295 310.845C278.325 310.949 278.355 311.054 278.383 311.16C280.4 318.686 275.934 326.422 268.407 328.439C260.881 330.456 253.145 325.989 251.128 318.463C251.1 318.357 251.073 318.251 251.047 318.146L241.958 320.581Z" fill="#EF6FFF"/>
<path d="M172.465 232.821C127.865 220.792 94.6584 243.678 83.6299 256.624C87.4429 224.061 115.358 153.498 196.516 131.751C277.674 110.005 337.131 157.157 356.715 183.451C312.993 171.187 278.177 194.504 266.235 207.696C221.314 196.223 185.005 219.666 172.465 232.821Z" stroke="#4F5A79" stroke-width="2"/>
<path d="M427.596 234H243.784V372.959H427.596V234Z" fill="white"/>
<path d="M349.059 363.923V368.334H320.318V363.923H226V370.356C226.008 372.155 226.728 373.877 228.004 375.148C229.279 376.418 231.006 377.132 232.807 377.135H436.569C438.378 377.135 440.112 376.418 441.39 375.14C442.669 373.863 443.387 372.131 443.387 370.325V363.893L349.059 363.923Z" fill="white"/>
<path d="M428.618 363.066C428.347 363.066 428.087 362.959 427.895 362.767C427.704 362.576 427.596 362.316 427.596 362.045V234.042H245.839V362.045C245.839 362.316 245.731 362.576 245.539 362.767C245.348 362.959 245.088 363.066 244.817 363.066C244.546 363.066 244.286 362.959 244.094 362.767C243.902 362.576 243.795 362.316 243.795 362.045V233.021C243.795 232.75 243.902 232.491 244.094 232.299C244.286 232.108 244.546 232 244.817 232H428.618C428.889 232 429.149 232.108 429.341 232.299C429.533 232.491 429.64 232.75 429.64 233.021V362.045C429.64 362.316 429.533 362.576 429.341 362.767C429.149 362.959 428.889 363.066 428.618 363.066Z" fill="#4F5A79"/>
<path d="M420.462 357.348H252.973C252.702 357.348 252.442 357.241 252.25 357.049C252.059 356.858 251.951 356.598 251.951 356.327V238.749C251.951 238.478 252.059 238.218 252.25 238.027C252.442 237.835 252.702 237.728 252.973 237.728H420.462C420.733 237.728 420.993 237.835 421.185 238.027C421.376 238.218 421.484 238.478 421.484 238.749V356.327C421.484 356.598 421.376 356.858 421.185 357.049C420.993 357.241 420.733 357.348 420.462 357.348ZM253.995 355.306H419.44V239.77H253.995V355.306Z" fill="#4F5A79"/>
<path d="M437.602 377.177H233.839C231.761 377.174 229.768 376.348 228.299 374.88C226.829 373.412 226.002 371.422 226 369.346V362.914C226 362.643 226.107 362.383 226.299 362.192C226.491 362 226.751 361.893 227.022 361.893H321.34C321.611 361.893 321.871 362 322.062 362.192C322.254 362.383 322.362 362.643 322.362 362.914V366.303H349.059V362.914C349.059 362.643 349.166 362.383 349.358 362.192C349.55 362 349.81 361.893 350.081 361.893H444.388C444.66 361.893 444.92 362 445.111 362.192C445.303 362.383 445.411 362.643 445.411 362.914V369.346C445.408 371.417 444.585 373.402 443.122 374.87C441.659 376.337 439.675 377.166 437.602 377.177V377.177ZM228.075 363.904V369.315C228.071 370.075 228.216 370.829 228.504 371.533C228.791 372.237 229.215 372.877 229.75 373.418C230.286 373.958 230.922 374.388 231.624 374.683C232.325 374.977 233.078 375.131 233.839 375.135H437.602C439.138 375.132 440.61 374.521 441.697 373.436C442.783 372.351 443.394 370.88 443.397 369.346V363.935H351.113V367.324C351.113 367.595 351.005 367.855 350.814 368.046C350.622 368.238 350.362 368.345 350.091 368.345H321.35C321.079 368.345 320.819 368.238 320.627 368.046C320.436 367.855 320.328 367.595 320.328 367.324V363.935L228.075 363.904Z" fill="#4F5A79"/>
<path d="M419.214 239.831H254.066V253.298H419.214V239.831Z" fill="#D2F0FF"/>
<path d="M419.214 253.298H254.066V354.918H419.214V253.298Z" fill="white"/>
<path d="M72.5303 165.231C71.2092 164.457 70.0527 163.169 68.7582 162.274C67.9836 161.744 64.2486 159.809 63.5695 161.383C63.299 162.019 64.4343 163.424 64.8269 163.837C65.7766 164.823 67.0286 165.098 68.1375 165.798C67.2727 166.095 65.7447 166.291 65.9569 167.435C66.1692 168.58 68.6096 169.555 69.6707 169.211C66.9013 169.804 67.9995 171.681 70.0845 172.317C72.0634 172.915 74.2068 172.142 76.0849 172.158L72.5303 165.231Z" fill="white"/>
<path d="M98.5887 146.129L72.0466 161.075L81.5974 178L108.139 163.054L98.5887 146.129Z" fill="#EF6FFF"/>
<path d="M98.0755 148.987C97.7306 147.338 98.4893 139.786 101.259 139.537C103.312 139.352 101.789 145.748 101.259 146.888C101.789 145.913 102.956 144.323 104.246 144.874C105.991 145.621 104.442 147.884 103.811 148.971C104.872 148.361 105.896 147.667 106.925 148.441C108.118 149.336 107.779 150.863 107.137 152.045C106.076 153.99 103.757 155.553 101.832 156.639L98.0755 148.987Z" fill="white"/>
<path d="M90.9348 166.826C90.9022 166.858 90.8646 166.885 90.8234 166.905C90.7007 166.974 90.5556 166.991 90.4202 166.953L69.9999 161.261C69.8651 161.223 69.7506 161.134 69.6816 161.012L69.3049 160.344C69.2701 160.284 69.2475 160.217 69.2385 160.148C69.2296 160.078 69.2343 160.008 69.2526 159.941C69.2894 159.804 69.3788 159.688 69.5012 159.618C69.6236 159.548 69.769 159.529 69.9053 159.566C70.0416 159.603 70.1577 159.692 70.2281 159.814L70.4986 160.297L90.1974 165.787L95.6937 146.109L95.4232 145.627C95.3883 145.566 95.3658 145.5 95.3568 145.43C95.3478 145.361 95.3525 145.291 95.3708 145.223C95.389 145.156 95.4204 145.093 95.463 145.037C95.5057 144.982 95.5588 144.936 95.6195 144.901C95.6801 144.866 95.7469 144.843 95.8163 144.834C95.8856 144.826 95.956 144.83 96.0235 144.848C96.091 144.867 96.1543 144.898 96.2096 144.941C96.265 144.983 96.3115 145.036 96.3463 145.097L96.723 145.77C96.7579 145.83 96.7806 145.897 96.7897 145.966C96.7988 146.035 96.7941 146.105 96.776 146.173L91.0781 166.571C91.0529 166.667 91.0036 166.755 90.9348 166.826V166.826Z" fill="#4F5A79"/>
<path d="M105.917 162.385C105.884 162.417 105.847 162.444 105.805 162.464L79.2786 177.41C79.1561 177.478 79.0114 177.496 78.8761 177.458C78.7409 177.42 78.6261 177.33 78.557 177.208L69.0074 160.286C68.9725 160.225 68.9501 160.158 68.9414 160.089C68.9326 160.019 68.9378 159.948 68.9566 159.881C68.9753 159.813 69.0073 159.75 69.0506 159.695C69.0939 159.64 69.1478 159.594 69.209 159.56L95.7357 144.615C95.8582 144.546 96.0029 144.529 96.1382 144.566C96.2734 144.604 96.3882 144.694 96.4573 144.816L106.007 161.743C106.042 161.804 106.064 161.87 106.074 161.94C106.083 162.009 106.078 162.079 106.06 162.146C106.032 162.236 105.983 162.318 105.917 162.385V162.385ZM79.199 176.228L104.824 161.802L95.8047 145.802L70.1799 160.228L79.199 176.228Z" fill="#4F5A79"/>
<path d="M106.256 154.123C105.29 154.973 104.221 155.697 103.073 156.28L102.909 156.37C102.848 156.404 102.781 156.427 102.712 156.436C102.642 156.445 102.572 156.44 102.504 156.422C102.437 156.404 102.374 156.372 102.318 156.33C102.263 156.287 102.217 156.234 102.182 156.174C102.147 156.113 102.124 156.046 102.115 155.977C102.106 155.908 102.111 155.837 102.129 155.77C102.148 155.702 102.179 155.639 102.222 155.584C102.264 155.529 102.317 155.482 102.378 155.447L102.542 155.357C104.33 154.35 105.726 153.555 106.707 151.796C107.121 151.033 107.667 149.639 106.643 148.865C105.996 148.378 105.338 148.717 104.32 149.31L104.113 149.427C104.012 149.486 103.894 149.511 103.778 149.496C103.662 149.482 103.554 149.43 103.471 149.347C103.388 149.265 103.335 149.157 103.319 149.041C103.304 148.925 103.327 148.807 103.386 148.706L103.566 148.404C104.001 147.673 104.734 146.449 104.521 145.786C104.484 145.687 104.424 145.597 104.347 145.523C104.27 145.45 104.177 145.395 104.076 145.362C103.174 144.975 102.171 146.353 101.768 147.132C101.707 147.259 101.599 147.357 101.466 147.405C101.333 147.452 101.187 147.444 101.06 147.384C100.932 147.323 100.834 147.215 100.787 147.082C100.74 146.95 100.747 146.804 100.808 146.676C101.29 145.558 102.235 141.128 101.529 140.158C101.508 140.122 101.477 140.093 101.438 140.077C101.4 140.061 101.357 140.058 101.317 140.068C101.098 140.107 100.89 140.192 100.707 140.318C100.524 140.444 100.37 140.608 100.256 140.799C98.8128 142.744 98.3406 147.588 98.6112 148.881C98.6252 148.949 98.6255 149.02 98.6123 149.088C98.599 149.156 98.5724 149.221 98.534 149.279C98.4956 149.337 98.4461 149.387 98.3883 149.426C98.3306 149.465 98.2657 149.493 98.1974 149.506C97.9109 149.565 97.513 148.738 97.4971 148.505C97.3697 146.528 97.9162 142.145 99.4017 140.168C99.6044 139.855 99.8723 139.589 100.187 139.389C100.502 139.189 100.857 139.059 101.227 139.008C101.451 138.983 101.678 139.019 101.883 139.112C102.089 139.205 102.265 139.352 102.394 139.538C103.115 140.529 102.85 142.845 102.463 144.673C102.746 144.45 103.083 144.306 103.44 144.256C103.797 144.206 104.161 144.251 104.495 144.387C104.738 144.476 104.96 144.616 105.143 144.8C105.326 144.983 105.467 145.204 105.556 145.447C105.712 146.219 105.58 147.023 105.185 147.705C105.535 147.568 105.914 147.524 106.286 147.578C106.658 147.632 107.01 147.781 107.307 148.012C108.506 148.913 108.638 150.513 107.662 152.294C107.293 152.974 106.818 153.591 106.256 154.123V154.123Z" fill="#4F5A79"/>
<path d="M76.4349 172.54C76.3866 172.589 76.3287 172.627 76.2648 172.653C76.2008 172.678 76.1323 172.69 76.0635 172.688C75.3882 172.701 74.7145 172.762 74.0475 172.868C72.6946 173.054 71.2993 173.239 69.9146 172.82C68.4344 172.37 67.4317 171.379 67.4689 170.414C67.4844 170.109 67.5979 169.818 67.7925 169.582C67.4394 169.471 67.0996 169.322 66.7792 169.137C66.4573 168.98 66.1717 168.757 65.9406 168.483C65.7096 168.209 65.538 167.891 65.4369 167.547C65.2406 166.487 65.9993 165.984 66.7632 165.692L66.6571 165.645C65.8357 165.314 65.0849 164.83 64.4448 164.219C64.2591 164.023 62.6198 162.269 63.0813 161.193C63.1699 160.986 63.305 160.802 63.4761 160.656C63.6473 160.51 63.8499 160.405 64.0681 160.35C65.6916 159.884 68.5936 161.532 69.0605 161.85C69.6479 162.276 70.2128 162.733 70.7529 163.217C71.2304 163.631 71.6919 164.028 72.1641 164.373C72.371 164.526 72.5142 165.851 72.2596 165.703C71.4757 165.209 70.7387 164.645 70.0579 164.018C69.551 163.558 69.0197 163.127 68.4663 162.724C67.7129 162.194 65.352 161.087 64.3705 161.368C64.3036 161.38 64.2409 161.408 64.188 161.451C64.1351 161.493 64.0939 161.549 64.0681 161.611C64.0098 161.871 64.5987 162.836 65.2194 163.488C65.7722 164 66.4165 164.405 67.1187 164.68C67.5698 164.881 68.0076 165.111 68.4291 165.369C68.5173 165.424 68.5873 165.503 68.6307 165.597C68.6741 165.692 68.6888 165.796 68.6732 165.899C68.6615 165.998 68.6219 166.092 68.559 166.17C68.4961 166.248 68.4125 166.306 68.3177 166.339C68.1692 166.392 67.9941 166.44 67.7872 166.493C66.689 166.805 66.3972 167.022 66.4661 167.372C66.6156 167.766 66.9151 168.084 67.2991 168.257C67.9027 168.623 68.5989 168.807 69.3045 168.787L69.5273 168.734C69.6576 168.711 69.792 168.737 69.9041 168.807C70.0162 168.878 70.0979 168.987 70.1331 169.115C70.1683 169.242 70.1546 169.378 70.0945 169.496C70.0344 169.614 69.9324 169.705 69.8085 169.752C69.7147 169.783 69.6191 169.808 69.522 169.826C68.9066 169.99 68.5246 170.245 68.514 170.499C68.514 170.844 69.0817 171.506 70.2117 171.851C71.3418 172.195 72.6469 172.031 73.8883 171.851C74.6046 171.738 75.3279 171.674 76.0529 171.66C76.1585 171.66 76.2615 171.692 76.3489 171.751C76.4362 171.811 76.5039 171.895 76.5432 171.992C76.5825 172.09 76.5917 172.198 76.5696 172.301C76.5474 172.404 76.495 172.498 76.419 172.571L76.4349 172.54Z" fill="#4F5A79"/>
<path d="M124.565 110.581C123.235 108.935 122.368 106.704 121.132 104.913C120.389 103.849 116.504 99.5224 114.856 101.226C114.196 101.916 114.978 104.288 115.283 105.014C116.03 106.753 117.514 107.721 118.607 109.168C117.343 109.129 115.271 108.636 114.986 110.22C114.701 111.805 117.381 114.258 118.922 114.331C115.05 113.746 115.553 116.709 117.939 118.55C120.206 120.292 123.356 120.338 125.777 121.277L124.565 110.581Z" fill="white"/>
<path d="M167.601 98.611L125.971 104.97L130.052 131.526L171.682 125.167L167.601 98.611Z" fill="#EF6FFF"/>
<path d="M165.541 102.056C165.901 99.7558 170.573 90.3594 174.276 91.3906C177.022 92.1541 171.927 99.6829 170.684 100.897C171.846 99.8954 174.133 98.4095 175.531 99.7524C177.423 101.572 174.314 103.741 172.966 104.838C174.636 104.568 176.3 104.171 177.253 105.674C178.359 107.416 177.174 109.224 175.766 110.439C173.443 112.436 169.681 113.325 166.659 113.789L165.541 102.056Z" fill="white"/>
<path d="M147.588 121.638C147.53 121.664 147.468 121.68 147.405 121.686C147.213 121.715 147.017 121.666 146.86 121.551L123.232 104.21C123.076 104.095 122.972 103.924 122.942 103.733L122.781 102.685C122.766 102.59 122.77 102.492 122.792 102.398C122.814 102.304 122.855 102.216 122.911 102.137C123.025 101.979 123.198 101.873 123.39 101.842C123.583 101.811 123.78 101.857 123.938 101.972C124.097 102.086 124.203 102.258 124.234 102.451L124.349 103.207L147.142 119.934L163.866 97.1706L163.752 96.4146C163.737 96.3193 163.74 96.2219 163.762 96.1279C163.785 96.0339 163.825 95.9453 163.882 95.867C163.938 95.7887 164.01 95.7223 164.092 95.6716C164.174 95.6209 164.265 95.5869 164.361 95.5715C164.456 95.5562 164.554 95.5597 164.648 95.582C164.742 95.6042 164.831 95.6448 164.909 95.7013C164.987 95.7578 165.054 95.8292 165.105 95.9114C165.155 95.9936 165.19 96.085 165.205 96.1803L165.363 97.2349C165.379 97.33 165.376 97.4273 165.354 97.5211C165.332 97.6149 165.291 97.7035 165.235 97.7817L147.897 121.379C147.818 121.49 147.711 121.579 147.588 121.638V121.638Z" fill="#4F5A79"/>
<path d="M169.134 123.216C169.076 123.242 169.015 123.258 168.952 123.264L127.341 129.63C127.149 129.659 126.954 129.61 126.797 129.496C126.641 129.381 126.536 129.208 126.506 129.017L122.426 102.465C122.41 102.369 122.414 102.271 122.437 102.177C122.459 102.083 122.501 101.994 122.558 101.916C122.615 101.838 122.687 101.772 122.77 101.722C122.853 101.672 122.945 101.639 123.041 101.624L164.651 95.2589C164.843 95.23 165.039 95.2783 165.196 95.3932C165.352 95.5081 165.457 95.6803 165.486 95.872L169.564 122.431C169.58 122.526 169.577 122.623 169.555 122.717C169.533 122.811 169.493 122.899 169.436 122.978C169.357 123.08 169.253 123.162 169.134 123.216V123.216ZM127.816 128.062L168.006 121.928L164.161 96.828L123.97 102.962L127.816 128.062Z" fill="#4F5A79"/>
<path d="M173.611 112.697C171.947 113.324 170.209 113.739 168.44 113.931L168.184 113.967C168.088 113.982 167.991 113.979 167.897 113.956C167.803 113.934 167.714 113.894 167.636 113.837C167.557 113.781 167.491 113.709 167.44 113.627C167.389 113.545 167.355 113.453 167.34 113.358C167.324 113.263 167.328 113.165 167.35 113.071C167.372 112.977 167.413 112.889 167.469 112.81C167.526 112.732 167.597 112.666 167.679 112.615C167.761 112.564 167.853 112.53 167.948 112.515L168.205 112.479C171.009 112.05 173.202 111.704 175.332 109.908C176.24 109.123 177.628 107.588 176.681 106.087C176.083 105.14 175.066 105.257 173.459 105.527L173.134 105.576C172.975 105.604 172.811 105.578 172.668 105.503C172.524 105.427 172.41 105.307 172.343 105.16C172.276 105.013 172.259 104.847 172.296 104.69C172.333 104.532 172.421 104.391 172.546 104.289L172.927 103.987C173.847 103.253 175.392 102.028 175.442 101.067C175.441 100.92 175.408 100.775 175.344 100.642C175.28 100.51 175.188 100.393 175.072 100.301C174.095 99.3601 172.125 100.652 171.223 101.463C171.082 101.598 170.894 101.671 170.699 101.667C170.504 101.664 170.319 101.583 170.184 101.442C170.049 101.302 169.975 101.114 169.979 100.919C169.982 100.724 170.063 100.539 170.204 100.404C171.374 99.1937 174.761 93.9251 174.322 92.326C174.313 92.2693 174.286 92.217 174.244 92.1773C174.203 92.1375 174.149 92.1124 174.092 92.1058C173.79 92.0492 173.479 92.0581 173.181 92.1318C172.882 92.2055 172.603 92.3424 172.362 92.5331C169.545 94.3434 166.568 100.377 166.286 102.182C166.27 102.277 166.236 102.368 166.186 102.45C166.135 102.532 166.069 102.603 165.991 102.659C165.913 102.716 165.825 102.756 165.731 102.778C165.637 102.8 165.54 102.804 165.445 102.788C165.046 102.724 164.935 101.46 165.029 101.151C165.83 98.532 168.679 93.1307 171.566 91.3001C171.981 90.994 172.457 90.7811 172.963 90.6759C173.468 90.5708 173.99 90.5759 174.493 90.6909C174.796 90.7682 175.071 90.9258 175.291 91.1468C175.512 91.3679 175.668 91.6443 175.744 91.9467C176.193 93.581 174.718 96.4466 173.323 98.622C173.798 98.4719 174.305 98.4504 174.791 98.5599C175.277 98.6693 175.726 98.9057 176.091 99.2449C176.363 99.4786 176.58 99.7688 176.727 100.095C176.875 100.422 176.949 100.776 176.945 101.134C176.77 102.21 176.207 103.184 175.362 103.873C175.881 103.867 176.394 103.996 176.848 104.247C177.303 104.499 177.685 104.864 177.956 105.307C179.066 107.058 178.456 109.193 176.323 111.019C175.514 111.718 174.598 112.284 173.611 112.697V112.697Z" fill="#4F5A79"/>
<path d="M126.044 121.942C125.958 121.981 125.864 122.003 125.769 122.005C125.674 122.006 125.58 121.989 125.492 121.952C124.612 121.64 123.711 121.388 122.796 121.2C120.956 120.779 119.061 120.337 117.475 119.119C115.78 117.813 114.968 116.041 115.487 114.812C115.656 114.425 115.946 114.103 116.312 113.894C115.91 113.578 115.543 113.219 115.22 112.823C114.88 112.462 114.62 112.034 114.455 111.567C114.289 111.1 114.223 110.604 114.261 110.11C114.525 108.644 115.752 108.363 116.882 108.36L116.768 108.246C115.868 107.417 115.133 106.425 114.604 105.321C114.46 104.977 113.197 101.907 114.319 100.741C114.535 100.517 114.799 100.346 115.092 100.24C115.385 100.135 115.698 100.098 116.007 100.134C118.335 100.324 121.283 103.874 121.731 104.513C122.283 105.351 122.79 106.218 123.252 107.109C123.667 107.876 124.07 108.616 124.512 109.292C124.705 109.592 124.242 111.376 123.986 111.059C123.213 110.038 122.535 108.948 121.962 107.804C121.531 106.962 121.054 106.144 120.535 105.354C119.82 104.3 117.308 101.714 115.901 101.597C115.809 101.58 115.714 101.586 115.625 101.616C115.535 101.645 115.455 101.696 115.391 101.765C115.189 102.072 115.479 103.608 115.963 104.754C116.428 105.687 117.063 106.525 117.837 107.224C118.322 107.705 118.775 108.217 119.195 108.756C119.282 108.87 119.334 109.007 119.344 109.15C119.354 109.293 119.322 109.435 119.251 109.56C119.188 109.683 119.091 109.785 118.971 109.855C118.852 109.925 118.715 109.96 118.577 109.956C118.359 109.952 118.109 109.928 117.816 109.895C116.242 109.763 115.759 109.901 115.677 110.387C115.678 110.969 115.91 111.527 116.322 111.939C116.924 112.707 117.734 113.285 118.656 113.604L118.971 113.645C119.151 113.678 119.312 113.777 119.422 113.923C119.533 114.069 119.585 114.251 119.568 114.433C119.551 114.615 119.467 114.784 119.332 114.907C119.196 115.03 119.02 115.098 118.837 115.098C118.7 115.092 118.565 115.078 118.43 115.054C117.554 114.966 116.936 115.108 116.798 115.432C116.629 115.877 117.04 117.012 118.333 118.009C119.626 119.007 121.394 119.432 123.088 119.806C124.069 120.01 125.036 120.281 125.98 120.617C126.117 120.669 126.234 120.761 126.318 120.88C126.402 121 126.449 121.141 126.452 121.287C126.455 121.433 126.414 121.576 126.335 121.699C126.256 121.821 126.142 121.917 126.008 121.975L126.044 121.942Z" fill="#4F5A79"/>
<path d="M331.78 100.231C333.101 99.457 334.257 98.1692 335.552 97.2735C336.326 96.7436 340.061 94.8091 340.741 96.3832C341.011 97.0191 339.876 98.4236 339.483 98.837C338.533 99.8227 337.281 100.098 336.173 100.798C337.037 101.095 338.565 101.291 338.353 102.435C338.141 103.58 335.7 104.555 334.639 104.211C337.409 104.804 336.311 106.681 334.226 107.317C332.247 107.915 330.103 107.142 328.225 107.158L331.78 100.231Z" fill="white"/>
<path d="M305.721 81.1292L332.263 96.0752L322.713 113L296.171 98.0542L305.721 81.1292Z" fill="#EF6FFF"/>
<path d="M306.235 83.9866C306.579 82.3384 305.821 74.7862 303.051 74.5372C300.998 74.3517 302.521 80.7485 303.051 81.8879C302.521 80.9127 301.354 79.3228 300.064 79.874C298.319 80.6213 299.868 82.8843 300.5 83.9707C299.438 83.3612 298.415 82.667 297.385 83.4407C296.192 84.3364 296.531 85.8627 297.173 87.0445C298.234 88.9896 300.553 90.553 302.478 91.6394L306.235 83.9866Z" fill="white"/>
<path d="M313.375 101.826C313.408 101.858 313.445 101.885 313.487 101.905C313.609 101.974 313.754 101.991 313.89 101.953L334.31 96.2611C334.445 96.2233 334.559 96.1338 334.628 96.012L335.005 95.3442C335.04 95.2837 335.063 95.2169 335.072 95.1476C335.081 95.0784 335.076 95.008 335.057 94.9406C335.021 94.8044 334.931 94.6885 334.809 94.6182C334.686 94.5479 334.541 94.5291 334.405 94.5659C334.268 94.6026 334.152 94.692 334.082 94.8143L333.811 95.2966L314.113 100.787L308.616 81.1091L308.887 80.6269C308.922 80.5663 308.944 80.4995 308.953 80.4302C308.962 80.361 308.958 80.2906 308.939 80.2232C308.921 80.1558 308.89 80.0926 308.847 80.0373C308.804 79.982 308.751 79.9356 308.691 79.9008C308.63 79.866 308.563 79.8435 308.494 79.8345C308.424 79.8255 308.354 79.8303 308.287 79.8485C308.219 79.8667 308.156 79.898 308.1 79.9406C308.045 79.9832 307.999 80.0363 307.964 80.0969L307.587 80.77C307.552 80.8303 307.53 80.897 307.52 80.9661C307.511 81.0352 307.516 81.1054 307.534 81.1727L313.232 101.571C313.257 101.667 313.306 101.755 313.375 101.826V101.826Z" fill="#4F5A79"/>
<path d="M298.393 97.3847C298.426 97.4171 298.464 97.4439 298.505 97.4642L325.031 112.41C325.154 112.478 325.299 112.496 325.434 112.458C325.569 112.42 325.684 112.33 325.753 112.208L335.303 95.286C335.338 95.2252 335.36 95.1581 335.369 95.0886C335.377 95.0191 335.372 94.9485 335.353 94.881C335.335 94.8134 335.303 94.7503 335.259 94.6952C335.216 94.6401 335.162 94.5942 335.101 94.56L308.574 79.6147C308.452 79.546 308.307 79.5287 308.172 79.5664C308.037 79.6042 307.922 79.694 307.853 79.8161L298.303 96.7435C298.268 96.8038 298.246 96.8705 298.236 96.9396C298.227 97.0087 298.232 97.0789 298.25 97.1462C298.278 97.2362 298.327 97.3181 298.393 97.3847V97.3847ZM325.111 111.228L299.486 96.8018L308.505 80.8018L334.13 95.2277L325.111 111.228Z" fill="#4F5A79"/>
<path d="M298.054 89.1226C299.02 89.9725 300.089 90.6973 301.237 91.2796L301.402 91.3696C301.462 91.4044 301.529 91.427 301.598 91.436C301.668 91.4449 301.738 91.4402 301.806 91.422C301.873 91.4038 301.936 91.3724 301.992 91.3298C302.047 91.2872 302.094 91.2341 302.128 91.1736C302.163 91.113 302.186 91.0462 302.195 90.9769C302.204 90.9077 302.199 90.8373 302.181 90.7699C302.163 90.7025 302.131 90.6393 302.088 90.584C302.046 90.5287 301.993 90.4823 301.932 90.4475L301.768 90.3574C299.98 89.3504 298.584 88.5555 297.603 86.796C297.189 86.0328 296.643 84.639 297.667 83.8652C298.314 83.3776 298.972 83.7168 299.99 84.3104L300.197 84.427C300.298 84.4863 300.416 84.5106 300.532 84.4963C300.648 84.4819 300.756 84.4296 300.839 84.3475C300.922 84.2649 300.976 84.1573 300.991 84.0413C301.006 83.9253 300.983 83.8075 300.924 83.7062L300.744 83.4041C300.309 82.6728 299.576 81.4485 299.789 80.786C299.826 80.6865 299.886 80.5968 299.963 80.5234C300.04 80.45 300.133 80.3949 300.234 80.3621C301.136 79.9752 302.139 81.3531 302.542 82.1322C302.603 82.2594 302.711 82.3574 302.844 82.4046C302.977 82.4518 303.123 82.4444 303.25 82.3839C303.378 82.3235 303.476 82.215 303.523 82.0823C303.57 81.9496 303.563 81.8036 303.502 81.6764C303.02 80.5582 302.075 76.1276 302.781 75.1577C302.802 75.1217 302.834 75.0933 302.872 75.0771C302.91 75.0608 302.953 75.0575 302.993 75.0676C303.212 75.1066 303.42 75.1921 303.603 75.3182C303.786 75.4444 303.94 75.6084 304.054 75.799C305.497 77.744 305.969 82.588 305.699 83.8811C305.685 83.9493 305.685 84.0196 305.698 84.0879C305.711 84.1563 305.738 84.2213 305.776 84.2794C305.814 84.3375 305.864 84.3874 305.922 84.4264C305.98 84.4654 306.044 84.4926 306.113 84.5065C306.399 84.5648 306.797 83.738 306.813 83.5048C306.94 81.528 306.394 77.1451 304.908 75.1683C304.706 74.8551 304.438 74.5892 304.123 74.3889C303.808 74.1886 303.453 74.0586 303.083 74.0077C302.859 73.9827 302.632 74.0188 302.427 74.1121C302.221 74.2054 302.045 74.3524 301.916 74.5377C301.195 75.5287 301.46 77.8447 301.847 79.6731C301.564 79.4501 301.227 79.3061 300.87 79.2558C300.513 79.2055 300.149 79.2508 299.815 79.3869C299.572 79.4756 299.351 79.6164 299.167 79.7995C298.984 79.9826 298.843 80.2036 298.754 80.4469C298.598 81.2195 298.73 82.0225 299.126 82.7046C298.775 82.5678 298.396 82.5242 298.024 82.5781C297.652 82.632 297.3 82.7815 297.003 83.0119C295.804 83.9129 295.672 85.5134 296.648 87.2941C297.017 87.9738 297.492 88.5909 298.054 89.1226V89.1226Z" fill="#4F5A79"/>
<path d="M327.875 107.54C327.923 107.589 327.981 107.627 328.045 107.653C328.109 107.678 328.178 107.69 328.247 107.688C328.922 107.701 329.596 107.762 330.263 107.868C331.615 108.054 333.011 108.239 334.395 107.82C335.876 107.37 336.878 106.379 336.841 105.414C336.826 105.109 336.712 104.818 336.518 104.582C336.871 104.471 337.21 104.322 337.531 104.137C337.853 103.98 338.138 103.757 338.369 103.483C338.601 103.209 338.772 102.891 338.873 102.547C339.069 101.487 338.311 100.984 337.547 100.692L337.653 100.645C338.474 100.314 339.225 99.8302 339.865 99.2189C340.051 99.0228 341.69 97.2686 341.229 96.1928C341.14 95.986 341.005 95.8024 340.834 95.6562C340.663 95.5101 340.46 95.4053 340.242 95.3501C338.619 94.8837 335.716 96.5319 335.25 96.8499C334.662 97.2761 334.097 97.7325 333.557 98.2173C333.08 98.6307 332.618 99.0281 332.146 99.3726C331.939 99.5263 331.796 100.851 332.05 100.703C332.834 100.209 333.571 99.6453 334.252 99.0175C334.759 98.5582 335.29 98.1265 335.844 97.7244C336.597 97.1944 338.958 96.0868 339.94 96.3676C340.006 96.3795 340.069 96.4081 340.122 96.4508C340.175 96.4934 340.216 96.5487 340.242 96.6114C340.3 96.8711 339.711 97.8357 339.091 98.4875C338.538 99.0003 337.894 99.4047 337.191 99.68C336.74 99.8813 336.302 100.111 335.881 100.369C335.793 100.424 335.723 100.503 335.679 100.597C335.636 100.692 335.621 100.796 335.637 100.899C335.649 100.998 335.688 101.092 335.751 101.17C335.814 101.248 335.898 101.306 335.992 101.339C336.141 101.392 336.316 101.44 336.523 101.493C337.621 101.805 337.913 102.022 337.844 102.372C337.694 102.766 337.395 103.084 337.011 103.257C336.407 103.623 335.711 103.807 335.006 103.787L334.783 103.734C334.652 103.711 334.518 103.737 334.406 103.807C334.294 103.878 334.212 103.987 334.177 104.115C334.142 104.242 334.155 104.378 334.216 104.496C334.276 104.614 334.378 104.705 334.502 104.752C334.595 104.783 334.691 104.808 334.788 104.826C335.403 104.99 335.785 105.245 335.796 105.499C335.796 105.844 335.228 106.506 334.098 106.851C332.968 107.195 331.663 107.031 330.422 106.851C329.705 106.738 328.982 106.674 328.257 106.66C328.152 106.66 328.049 106.692 327.961 106.751C327.874 106.811 327.806 106.895 327.767 106.992C327.728 107.09 327.718 107.198 327.741 107.301C327.763 107.404 327.815 107.498 327.891 107.571L327.875 107.54Z" fill="#4F5A79"/>
<path d="M149.882 33.3468C150.276 31.8675 150.192 30.1386 150.482 28.5914C150.66 27.6699 151.953 23.6675 153.543 24.3085C154.183 24.5701 154.364 26.367 154.376 26.9369C154.395 28.3056 153.699 29.3823 153.403 30.6595C154.226 30.2621 155.45 29.3265 156.104 30.2894C156.759 31.2523 155.71 33.6622 154.714 34.1638C157.1 32.6374 157.639 34.7434 156.605 36.6621C155.62 38.4799 153.552 39.4378 152.228 40.7703L149.882 33.3468Z" fill="white"/>
<path d="M117.924 38.1035L147.302 30.0537L152.421 48.8013L123.043 56.8511L117.924 38.1035Z" fill="#EF6FFF"/>
<path d="M120.299 39.7732C119.385 38.3592 113.533 33.5256 111.389 35.2968C109.8 36.6093 115.382 40.0844 116.561 40.521C115.497 40.2012 113.549 39.8923 113.021 41.191C112.306 42.95 114.999 43.4685 116.212 43.7965C115.029 44.1098 113.813 44.3367 113.626 45.6107C113.408 47.087 114.723 47.9328 116.01 48.3212C118.133 48.9571 120.88 48.4372 123.013 47.8546L120.299 39.7732Z" fill="white"/>
<path d="M137.924 47.428C137.97 47.4281 138.016 47.4207 138.059 47.4061C138.195 47.3686 138.31 47.2788 138.379 47.1564L148.888 28.7457C148.957 28.6239 148.975 28.4798 148.939 28.3447L148.737 27.6051C148.719 27.5376 148.688 27.4742 148.646 27.4187C148.603 27.3631 148.55 27.3165 148.49 27.2814C148.368 27.2105 148.223 27.191 148.086 27.2272C147.95 27.2634 147.834 27.3523 147.762 27.4743C147.691 27.5963 147.672 27.7415 147.708 27.8779L147.855 28.411L137.717 46.171L119.968 36.0524L119.821 35.5193C119.803 35.4517 119.772 35.3884 119.73 35.3328C119.687 35.2773 119.635 35.2306 119.574 35.1955C119.514 35.1604 119.447 35.1376 119.378 35.1283C119.309 35.119 119.238 35.1234 119.171 35.1413C119.103 35.1593 119.04 35.1903 118.984 35.2327C118.928 35.2751 118.882 35.328 118.847 35.3884C118.811 35.4488 118.789 35.5156 118.779 35.5848C118.77 35.6541 118.774 35.7245 118.792 35.792L118.998 36.5354C119.015 36.6028 119.046 36.6661 119.088 36.7217C119.13 36.7772 119.183 36.8238 119.243 36.8589L137.643 47.348C137.728 47.3983 137.825 47.4258 137.924 47.428V47.428Z" fill="#4F5A79"/>
<path d="M124.152 54.8112C124.198 54.8113 124.243 54.8039 124.287 54.7894L153.653 46.7498C153.789 46.7125 153.904 46.623 153.973 46.501C154.043 46.379 154.061 46.2345 154.025 46.0991L148.907 27.3544C148.889 27.2867 148.858 27.2232 148.815 27.1676C148.772 27.1121 148.719 27.0656 148.658 27.0308C148.597 26.996 148.53 26.9736 148.461 26.9649C148.391 26.9562 148.32 26.9614 148.253 26.9802L118.886 35.0198C118.751 35.0571 118.636 35.1466 118.566 35.2686C118.497 35.3906 118.478 35.5351 118.515 35.6705L123.636 54.419C123.654 54.4864 123.685 54.5497 123.727 54.6052C123.769 54.6608 123.822 54.7074 123.882 54.7425C123.965 54.7871 124.058 54.8106 124.152 54.8112V54.8112ZM152.879 45.8539L124.518 53.6281L119.672 35.912L148.033 28.1378L152.879 45.8539Z" fill="#4F5A79"/>
<path d="M118.098 49.178C119.382 49.1026 120.652 48.8653 121.878 48.4717L122.058 48.42C122.126 48.4021 122.189 48.3711 122.245 48.3287C122.3 48.2863 122.347 48.2334 122.382 48.1729C122.417 48.1125 122.44 48.0458 122.449 47.9765C122.459 47.9073 122.454 47.8369 122.437 47.7693C122.419 47.7018 122.388 47.6384 122.345 47.5829C122.303 47.5274 122.25 47.4807 122.19 47.4456C122.129 47.4105 122.063 47.3877 121.994 47.3784C121.924 47.3691 121.854 47.3735 121.786 47.3914L121.606 47.4431C119.627 47.9852 118.076 48.4018 116.141 47.8418C115.31 47.5905 113.941 46.9843 114.124 45.7141C114.241 44.9122 114.947 44.6905 116.089 44.3957L116.318 44.333C116.431 44.3043 116.532 44.2388 116.604 44.147C116.677 44.0551 116.717 43.9419 116.718 43.8249C116.719 43.7079 116.681 43.5938 116.611 43.5006C116.54 43.4073 116.44 43.3402 116.327 43.3095L115.987 43.2217C115.163 43.0079 113.782 42.6529 113.466 42.0328C113.423 41.9355 113.402 41.8298 113.406 41.7234C113.409 41.6169 113.436 41.5126 113.485 41.418C113.854 40.5085 115.536 40.7824 116.37 41.0525C116.503 41.1003 116.649 41.0935 116.776 41.0337C116.904 40.9738 117.003 40.8657 117.051 40.7331C117.099 40.6006 117.092 40.4545 117.032 40.3269C116.973 40.1994 116.865 40.1008 116.732 40.053C115.602 39.5979 111.814 37.1134 111.633 35.9277C111.623 35.8875 111.626 35.8449 111.641 35.8064C111.657 35.7679 111.685 35.7356 111.721 35.7144C111.904 35.5881 112.112 35.5025 112.331 35.4634C112.55 35.4243 112.774 35.4326 112.989 35.4877C115.383 35.8549 119.127 38.9654 119.844 40.0747C119.882 40.133 119.931 40.1832 119.989 40.2225C120.046 40.2617 120.111 40.2893 120.179 40.3035C120.247 40.3177 120.318 40.3184 120.386 40.3055C120.455 40.2925 120.52 40.2662 120.578 40.2281C120.823 40.068 120.524 39.2005 120.371 39.0235C119.071 37.529 115.599 34.7985 113.153 34.4386C112.788 34.3586 112.411 34.3581 112.046 34.4373C111.681 34.5166 111.338 34.6736 111.039 34.8976C110.862 35.0377 110.726 35.2229 110.646 35.4338C110.566 35.6446 110.544 35.8732 110.583 36.0954C110.767 37.3073 112.585 38.7667 114.146 39.7937C113.788 39.8343 113.447 39.9692 113.158 40.1846C112.869 40.4 112.642 40.6882 112.501 41.0198C112.39 41.2541 112.332 41.5098 112.331 41.7689C112.329 42.028 112.384 42.2842 112.492 42.5195C112.925 43.1786 113.584 43.6564 114.345 43.8628C114 44.0119 113.699 44.248 113.473 44.548C113.246 44.848 113.101 45.2016 113.053 45.5742C112.834 47.058 113.866 48.2888 115.812 48.8676C116.553 49.091 117.324 49.1957 118.098 49.178V49.178Z" fill="#4F5A79"/>
<path d="M152.248 41.2884C152.317 41.2893 152.385 41.2759 152.448 41.2491C152.512 41.2223 152.569 41.1826 152.616 41.1327C153.106 40.6672 153.627 40.236 154.176 39.8425C155.268 39.0226 156.39 38.1728 157.08 36.9011C157.815 35.5397 157.83 34.1299 157.125 33.4706C156.9 33.2648 156.614 33.1373 156.31 33.1069C156.483 32.7797 156.619 32.4346 156.717 32.0776C156.835 31.7392 156.881 31.3801 156.853 31.023C156.824 30.6659 156.722 30.3186 156.552 30.0034C155.946 29.112 155.053 29.2879 154.305 29.6182L154.347 29.5096C154.698 28.6969 154.891 27.8248 154.916 26.9401C154.91 26.6701 154.841 24.2701 153.756 23.8302C153.548 23.7455 153.323 23.71 153.098 23.7266C152.874 23.7431 152.656 23.8112 152.462 23.9255C150.98 24.7361 150.077 27.949 149.969 28.5035C149.851 29.2196 149.771 29.9414 149.728 30.6658C149.68 31.2955 149.631 31.9027 149.538 32.4797C149.499 32.7345 150.329 33.7769 150.406 33.4923C150.616 32.5902 150.743 31.6708 150.785 30.7457C150.822 30.0626 150.896 29.3821 151.007 28.7069C151.169 27.8003 152.068 25.3522 152.963 24.8614C153.019 24.8228 153.084 24.7989 153.151 24.792C153.219 24.7851 153.287 24.7954 153.349 24.8219C153.574 24.9654 153.834 26.0652 153.851 26.9652C153.819 27.7185 153.646 28.4592 153.34 29.1488C153.161 29.6093 153.012 30.0808 152.893 30.5603C152.869 30.6613 152.875 30.767 152.911 30.8645C152.946 30.9619 153.01 31.0468 153.093 31.1087C153.171 31.1711 153.265 31.2101 153.365 31.2211C153.464 31.2322 153.565 31.2149 153.655 31.1712C153.798 31.1044 153.956 31.0151 154.14 30.9072C155.141 30.3569 155.501 30.306 155.698 30.6032C155.868 30.988 155.879 31.4249 155.728 31.8181C155.557 32.5025 155.191 33.1231 154.676 33.6056L154.48 33.7247C154.371 33.7996 154.294 33.9126 154.264 34.0415C154.234 34.1704 154.253 34.3058 154.318 34.4212C154.382 34.5366 154.488 34.6236 154.613 34.6652C154.739 34.7067 154.876 34.6997 154.996 34.6456C155.085 34.6017 155.17 34.552 155.252 34.4968C155.805 34.1807 156.256 34.0927 156.442 34.2661C156.684 34.5109 156.747 35.3811 156.186 36.4209C155.625 37.4607 154.582 38.262 153.573 39.0073C152.985 39.4309 152.426 39.8944 151.901 40.3945C151.826 40.4691 151.775 40.5642 151.755 40.6678C151.734 40.7713 151.745 40.8786 151.786 40.9758C151.827 41.073 151.896 41.1558 151.984 41.2135C152.073 41.2712 152.176 41.3013 152.282 41.2999L152.248 41.2884Z" fill="#4F5A79"/>
<path d="M277.038 116.273L233.012 111.677L229.822 142.373L273.848 146.969L277.038 116.273Z" fill="white"/>
<path d="M279.264 121.373C279.264 121.373 281.366 122.073 286.734 119.278C294.63 115.159 297.799 113.234 298.318 115.205C298.837 117.175 291.341 123.272 291.341 123.272C291.341 123.272 296.56 120.937 297.276 122.458C297.992 123.978 290.43 128.295 290.43 128.295C290.43 128.295 296.085 126.643 296.52 128.302C296.955 129.961 290.492 134.706 278.677 133.955L279.264 121.373Z" fill="white"/>
<path d="M234.818 116.736C234.818 116.736 231.142 115.076 228.502 113.757C225.215 112.265 219.761 109.869 218.309 111.201C216.374 113.032 225.399 118.981 225.399 118.981C225.399 118.981 218.391 116.542 217.763 118.421C217.135 120.3 226.082 124.623 226.082 124.623C226.082 124.623 220.301 122.739 219.331 123.918C218.36 125.096 223.949 130.8 233.23 129.851L234.818 116.736Z" fill="white"/>
<path d="M276.557 110.67L264.204 109.381L263.226 118.793L275.579 120.083L276.557 110.67Z" fill="#62BEFB"/>
<path d="M278.456 134.592C278.368 134.574 278.284 134.538 278.209 134.487C278.134 134.437 278.07 134.372 278.021 134.296C277.92 134.144 277.885 133.958 277.922 133.779C277.959 133.601 278.065 133.444 278.217 133.344C278.37 133.244 278.556 133.209 278.735 133.246C288.087 133.84 293.652 130.92 295.292 129.287C295.573 129.069 295.777 128.767 295.874 128.425C295.628 128.041 293.226 128.202 290.632 128.923C290.471 128.972 290.298 128.96 290.146 128.889C289.993 128.818 289.872 128.694 289.806 128.539C289.74 128.385 289.734 128.211 289.788 128.052C289.842 127.894 289.953 127.76 290.1 127.678C293.474 125.747 296.479 123.452 296.643 122.687C296.346 122.385 294.173 122.737 291.626 123.872C291.472 123.933 291.301 123.936 291.145 123.88C290.989 123.825 290.859 123.714 290.779 123.57C290.693 123.43 290.661 123.264 290.688 123.102C290.715 122.941 290.8 122.794 290.926 122.69C294.741 119.586 297.895 116.145 297.675 115.322C297.623 115.123 297.561 115.093 297.536 115.084C296.767 114.723 293.488 116.45 289.357 118.617L287.06 119.82C281.601 122.669 279.306 122.045 279.062 121.958C278.89 121.903 278.746 121.782 278.663 121.622C278.58 121.461 278.564 121.274 278.619 121.102C278.674 120.93 278.794 120.787 278.955 120.704C279.116 120.621 279.303 120.605 279.475 120.66C279.545 120.685 281.559 121.144 286.429 118.612L288.716 117.413C294.194 114.534 296.719 113.238 298.077 113.832C298.308 113.938 298.51 114.096 298.668 114.294C298.826 114.493 298.935 114.725 298.986 114.973C299.388 116.483 296.858 119.229 294.518 121.407C296.011 121.073 297.44 121.085 297.927 122.112C298.502 123.336 296.514 125.156 293.985 126.869C294.84 126.735 295.717 126.842 296.515 127.18C296.687 127.272 296.838 127.399 296.959 127.553C297.079 127.707 297.167 127.884 297.216 128.073C297.261 128.4 297.227 128.732 297.117 129.042C297.006 129.353 296.821 129.632 296.579 129.855C294.714 132.08 288.402 135.188 278.646 134.566C278.585 134.584 278.521 134.592 278.456 134.592V134.592Z" fill="#4F5A79"/>
<path d="M224.923 129.551C221.58 128.357 219.483 126.408 218.846 125.212C218.334 124.256 218.611 123.683 218.823 123.433C219.283 122.875 220.284 122.748 221.446 122.838C218.877 121.277 216.684 119.496 217.135 118.154C217.201 117.96 217.307 117.783 217.446 117.632C217.584 117.481 217.752 117.361 217.94 117.278C218.81 116.866 220.411 116.983 221.933 117.259C219.841 115.622 217.498 113.47 217.384 111.948C217.354 111.713 217.38 111.475 217.459 111.252C217.539 111.029 217.67 110.828 217.842 110.666C219.35 109.239 223.306 110.601 228.771 113.124C231.392 114.458 235.049 116.089 235.087 116.103C235.169 116.14 235.243 116.193 235.304 116.259C235.365 116.324 235.413 116.401 235.444 116.485C235.476 116.569 235.49 116.659 235.487 116.749C235.484 116.838 235.463 116.926 235.426 117.008C235.389 117.09 235.336 117.163 235.27 117.224C235.204 117.285 235.127 117.333 235.043 117.364C234.959 117.396 234.87 117.41 234.78 117.407C234.69 117.404 234.602 117.383 234.52 117.346C234.52 117.346 230.785 115.65 228.179 114.358C221.333 111.241 219.292 111.184 218.755 111.715C218.739 111.76 218.687 111.784 218.691 111.894C218.815 113.268 222.892 116.539 225.762 118.431C225.901 118.522 226.003 118.661 226.047 118.822C226.091 118.983 226.074 119.155 226 119.304C225.925 119.453 225.798 119.57 225.642 119.632C225.487 119.694 225.314 119.696 225.157 119.639C223.001 118.869 219.507 118.055 218.508 118.543C218.465 118.564 218.41 118.595 218.399 118.627C218.406 119.417 222.128 121.94 226.369 124.003C226.52 124.077 226.639 124.204 226.702 124.36C226.765 124.516 226.768 124.69 226.711 124.848C226.65 125.018 226.524 125.157 226.361 125.235C226.198 125.312 226.01 125.321 225.84 125.26C223.246 124.42 220.448 123.97 219.872 124.306C220.073 124.832 220.404 125.299 220.835 125.662C222.885 127.638 227.334 129.747 233.102 129.155C233.192 129.145 233.282 129.153 233.368 129.179C233.455 129.204 233.535 129.246 233.605 129.303C233.675 129.359 233.733 129.429 233.776 129.508C233.819 129.587 233.845 129.674 233.855 129.763C233.873 129.942 233.819 130.121 233.705 130.261C233.592 130.4 233.428 130.489 233.248 130.508C230.437 130.812 227.592 130.485 224.923 129.551V129.551Z" fill="#4F5A79"/>
<path d="M232.607 140.528C232.459 140.479 232.331 140.38 232.246 140.249C232.161 140.117 232.125 139.96 232.142 139.805L235.329 109.106C235.349 108.928 235.44 108.764 235.58 108.652C235.721 108.54 235.9 108.487 236.079 108.507L280.108 113.095C280.286 113.115 280.449 113.205 280.562 113.344C280.619 113.414 280.663 113.494 280.689 113.58C280.715 113.666 280.724 113.757 280.715 113.847L277.528 144.546C277.519 144.635 277.492 144.721 277.449 144.8C277.406 144.879 277.348 144.949 277.278 145.005C277.208 145.061 277.128 145.103 277.042 145.128C276.956 145.154 276.865 145.161 276.776 145.152L232.762 140.561L232.607 140.528ZM236.633 109.933L233.588 139.281L276.256 143.73L279.307 114.385L236.633 109.933Z" fill="#4F5A79"/>
<path d="M75.388 73.0798L45.6201 84.9619L53.9145 105.712L83.6824 93.8301L75.388 73.0798Z" fill="white"/>
<path d="M78.5329 75.5993C78.5329 75.5993 80.1156 75.3403 82.6153 71.7407C86.2894 66.4417 87.6724 64.1402 88.6687 65.2285C89.665 66.3169 86.9139 72.7494 86.9139 72.7494C86.9139 72.7494 89.4724 69.495 90.4434 70.2285C91.4143 70.962 88.0215 76.2759 88.0215 76.2759C88.0215 76.2759 91.0896 73.3126 91.9271 74.2293C92.7645 75.146 90.2202 80.3646 82.3944 83.8626L78.5329 75.5993Z" fill="white"/>
<path d="M48.4817 87.5969C48.4817 87.5969 45.5664 87.771 43.43 87.8148C40.8204 87.9655 36.518 88.2665 36.0355 89.6091C35.4122 91.4346 43.2003 92.2078 43.2003 92.2078C43.2003 92.2078 37.887 93.0053 38.1175 94.4212C38.348 95.837 45.5388 95.5947 45.5388 95.5947C45.5388 95.5947 41.1988 96.334 40.9734 97.4162C40.748 98.4985 46.2513 100.272 51.881 96.5379L48.4817 87.5969Z" fill="white"/>
<path d="M73.1934 69.6504L64.8408 72.9844L67.3841 79.3469L75.7367 76.0129L73.1934 69.6504Z" fill="#62BEFB"/>
<path d="M82.4671 84.3449C82.4043 84.3629 82.3384 84.3685 82.2734 84.3611C82.2084 84.3538 82.1455 84.3337 82.0883 84.302C81.9727 84.2381 81.8873 84.131 81.8508 84.0041C81.8143 83.8773 81.8298 83.7411 81.8938 83.6257C81.9578 83.5102 82.0651 83.4248 82.1921 83.3883C88.3871 80.6192 90.9707 76.8733 91.4716 75.2742C91.5782 75.0399 91.6074 74.7777 91.555 74.5257C91.2677 74.3624 89.7825 75.2746 88.3623 76.6107C88.2758 76.6962 88.1607 76.7467 88.0391 76.7526C87.9175 76.7584 87.7981 76.7192 87.7038 76.6424C87.6095 76.5656 87.5469 76.4567 87.5281 76.3366C87.5093 76.2165 87.5356 76.0936 87.602 75.9917C89.1142 73.6172 90.2672 71.1343 90.1151 70.5884C89.8229 70.4954 88.5484 71.4524 87.2981 73.0382C87.2201 73.1291 87.1116 73.1885 86.9929 73.2053C86.8743 73.2221 86.7535 73.1952 86.6533 73.1296C86.5514 73.0687 86.475 72.9731 86.4379 72.8604C86.4009 72.7477 86.4058 72.6254 86.4518 72.516C87.8515 69.2416 88.7139 65.9735 88.2959 65.5201C88.1956 65.4098 88.146 65.4119 88.1265 65.4147C87.5125 65.4419 85.9921 67.6533 84.074 70.4338L83.0072 71.9787C80.467 75.6437 78.7858 76.0163 78.6001 76.0426C78.4712 76.0654 78.3385 76.0362 78.2312 75.9614C78.1239 75.8865 78.0507 75.7721 78.0279 75.6433C78.005 75.5145 78.0342 75.3819 78.1092 75.2747C78.1842 75.1675 78.2988 75.0944 78.4277 75.0715C78.4814 75.0639 79.9269 74.6799 82.1952 71.4168L83.2577 69.8775C85.7993 66.1874 86.9814 64.5067 88.0517 64.4297C88.2351 64.4198 88.4182 64.4531 88.5862 64.527C88.7542 64.601 88.9025 64.7134 89.0189 64.8552C89.7846 65.6875 89.0883 68.2998 88.3215 70.4841C89.1667 69.767 90.0862 69.2933 90.7441 69.7874C91.5255 70.3786 90.8638 72.2145 89.8195 74.1643C90.3229 73.7903 90.9208 73.5642 91.5458 73.5116C91.6874 73.513 91.8271 73.5436 91.9562 73.6016C92.0854 73.6595 92.2011 73.7435 92.2961 73.8483C92.4353 74.0421 92.5255 74.2667 92.559 74.503C92.5925 74.7392 92.5682 74.98 92.4883 75.2049C92.0419 77.2591 89.0427 81.3774 82.5803 84.2641C82.5466 84.2963 82.5085 84.3234 82.4671 84.3449V84.3449Z" fill="#4F5A79"/>
<path d="M46.4552 99.1428C43.9102 99.5034 41.9099 98.9605 41.0992 98.4084C40.4488 97.9679 40.4334 97.5072 40.4853 97.2758C40.5921 96.763 41.1905 96.3447 41.9654 96.0109C39.7936 95.8756 37.7883 95.4728 37.6249 94.4606C37.6023 94.3141 37.6102 94.1645 37.6482 94.0212C37.6862 93.8779 37.7535 93.744 37.8458 93.6279C38.2652 93.0707 39.3305 92.6062 40.3991 92.2706C38.5067 91.9265 36.2803 91.336 35.6941 90.3986C35.5959 90.2583 35.5322 90.0968 35.5081 89.9272C35.4841 89.7577 35.5005 89.5848 35.5558 89.4227C36.0419 87.9999 39.0363 87.5409 43.3896 87.3173C45.5183 87.2895 48.412 87.1036 48.4413 87.0994C48.5062 87.0958 48.5712 87.1049 48.6326 87.1264C48.6939 87.1478 48.7504 87.1812 48.7989 87.2244C48.8474 87.2677 48.8868 87.3201 48.915 87.3786C48.9432 87.4372 48.9596 87.5007 48.9632 87.5655C48.9668 87.6304 48.9577 87.6953 48.9362 87.7566C48.9147 87.8179 48.8813 87.8744 48.838 87.9228C48.7946 87.9713 48.7421 88.0107 48.6835 88.0389C48.625 88.0671 48.5614 88.0835 48.4965 88.0871C48.4965 88.0871 45.531 88.2584 43.4253 88.3078C37.9877 88.6153 36.6598 89.2663 36.4945 89.7875C36.4993 89.8216 36.4742 89.8551 36.5138 89.9241C37.0563 90.7632 40.7713 91.4862 43.2478 91.7327C43.3681 91.744 43.48 91.7991 43.5623 91.8875C43.6447 91.9758 43.6916 92.0913 43.6944 92.2119C43.6968 92.333 43.6546 92.4507 43.5758 92.5427C43.4969 92.6347 43.3869 92.6944 43.2667 92.7106C41.6254 92.9431 39.1122 93.5978 38.6362 94.2476C38.6152 94.2755 38.5907 94.3138 38.5942 94.3382C38.865 94.8424 42.1004 95.2053 45.5137 95.1C45.6356 95.0963 45.7546 95.1378 45.8476 95.2165C45.9407 95.2953 46.0012 95.4057 46.0176 95.5264C46.0359 95.6558 46.002 95.7872 45.9234 95.8917C45.8448 95.9962 45.7278 96.0652 45.5983 96.0836C43.6526 96.419 41.7073 97.0729 41.4514 97.4824C41.7574 97.7518 42.1268 97.9392 42.5251 98.0272C44.5051 98.6028 48.0671 98.4565 51.5649 96.1342C51.619 96.0978 51.6796 96.0725 51.7435 96.0597C51.8074 96.0469 51.8731 96.0468 51.937 96.0595C52.0009 96.0722 52.0616 96.0974 52.1157 96.1337C52.1697 96.17 52.216 96.2166 52.252 96.2708C52.3239 96.3795 52.3497 96.5122 52.324 96.6399C52.2982 96.7676 52.2228 96.8799 52.1144 96.9523C50.4146 98.0941 48.4811 98.8425 46.4552 99.1428V99.1428Z" fill="#4F5A79"/>
<path d="M55.0773 103.592C54.9655 103.611 54.8506 103.59 54.7519 103.535C54.6533 103.479 54.5769 103.391 54.5356 103.285L46.2391 82.5342C46.192 82.4129 46.1948 82.2778 46.247 82.1585C46.2992 82.0392 46.3965 81.9453 46.5177 81.8974L76.2853 70.0096C76.4062 69.9625 76.5408 69.9649 76.6599 70.0162C76.7203 70.0414 76.775 70.0783 76.8209 70.1248C76.8669 70.1712 76.9031 70.2264 76.9275 70.287L85.224 91.0379C85.2481 91.0982 85.2601 91.1627 85.2591 91.2277C85.2582 91.2926 85.2445 91.3568 85.2186 91.4164C85.1928 91.476 85.1555 91.53 85.1087 91.5751C85.0619 91.6203 85.0067 91.6558 84.9462 91.6795L55.1876 103.561L55.0773 103.592ZM47.3532 82.6253L55.286 102.462L84.1343 90.9434L76.2064 71.1059L47.3532 82.6253Z" fill="#4F5A79"/>
<path d="M276.054 43.6778C278.522 40.3611 294.163 28.0536 298.416 30.7556C304.996 34.9166 292.54 43.4279 289.518 44.1844C292.899 42.2863 297.706 41.7391 297.632 46.1501C297.571 50.7637 290.931 52.3376 287.293 52.905C296.205 51.6689 294.008 56.6878 287.205 58.5184C281.383 60.0855 277.217 60.1395 271.395 58.5184L276.054 43.6778Z" fill="white"/>
<path d="M210.043 23.2643C209.651 19.1438 202.638 0.547526 197.621 0.64885C189.831 0.810968 196.079 14.537 198.297 16.7458C196.37 13.3684 192.563 10.4097 190.325 14.2195C187.992 18.2049 192.854 23.0009 195.667 25.3651C188.681 19.691 187.958 25.1219 192.833 30.2084C196.999 34.5586 200.535 36.7607 206.357 38.4021L210.043 23.2643Z" fill="white"/>
<path d="M215.747 13.7819L203.955 56.002L270.169 74.4573L281.962 32.2372L215.747 13.7819Z" fill="#62BEFB"/>
<path d="M237.152 55.1539C237.092 55.1637 237.03 55.1637 236.969 55.1539C236.798 55.1057 236.652 54.9916 236.564 54.8364L213.072 13.1923C212.985 13.036 212.963 12.8513 213.011 12.6789L213.478 11.0104C213.495 10.9181 213.531 10.8302 213.583 10.7524C213.636 10.6747 213.704 10.6087 213.784 10.5587C213.863 10.5088 213.952 10.4759 214.045 10.4623C214.138 10.4486 214.233 10.4545 214.323 10.4794C214.414 10.5044 214.498 10.548 214.571 10.6073C214.644 10.6667 214.703 10.7405 214.746 10.8242C214.789 10.9078 214.813 10.9994 214.819 11.0931C214.824 11.1868 214.809 11.2806 214.776 11.3685L214.384 12.7735L237.375 53.5665L278.205 30.5997L278.597 29.2014C278.62 29.1158 278.66 29.0356 278.715 28.9655C278.769 28.8954 278.837 28.8367 278.914 28.7928C278.992 28.7489 279.077 28.7206 279.165 28.7096C279.253 28.6986 279.343 28.705 279.428 28.7286C279.514 28.7521 279.594 28.7922 279.665 28.8466C279.735 28.9011 279.794 28.9688 279.838 29.046C279.882 29.1232 279.91 29.2082 279.921 29.2963C279.932 29.3845 279.925 29.4739 279.902 29.5595L279.435 31.2347C279.387 31.4064 279.273 31.5521 279.117 31.64L237.483 55.0728C237.381 55.1263 237.267 55.1541 237.152 55.1539Z" fill="#4F5A79"/>
<path d="M268.142 71.9607C268.082 71.9706 268.02 71.9706 267.96 71.9607L201.752 53.513C201.665 53.4892 201.584 53.4482 201.513 53.3925C201.443 53.3368 201.384 53.2676 201.34 53.1888C201.252 53.0325 201.23 52.8478 201.279 52.6754L213.072 10.4639C213.096 10.3782 213.136 10.2981 213.19 10.228C213.245 10.1578 213.313 10.0991 213.39 10.0552C213.467 10.0113 213.552 9.98302 213.64 9.97201C213.729 9.961 213.818 9.96747 213.904 9.99104L280.118 28.4455C280.29 28.4943 280.435 28.6091 280.523 28.7648C280.61 28.9205 280.633 29.1044 280.585 29.2764L268.792 71.4946C268.747 71.6312 268.66 71.75 268.543 71.8338C268.427 71.9176 268.286 71.9621 268.142 71.9607ZM202.767 52.3714L267.683 70.4611L279.11 29.5398L214.195 11.4569L202.767 52.3714Z" fill="#4F5A79"/>
<path d="M279.199 60.4165C276.495 60.3825 273.808 59.978 271.213 59.2141C271.127 59.1907 271.047 59.1506 270.977 59.0961C270.907 59.0416 270.848 58.9739 270.804 58.8967C270.76 58.8196 270.732 58.7345 270.721 58.6464C270.71 58.5583 270.716 58.4689 270.74 58.3833C270.763 58.2976 270.803 58.2175 270.858 58.1473C270.913 58.0772 270.98 58.0185 271.058 57.9746C271.135 57.9307 271.22 57.9024 271.308 57.8914C271.396 57.8804 271.486 57.8868 271.572 57.9104C277.184 59.4505 281.228 59.4438 287.03 57.9104C290.891 56.8702 292.642 54.9653 292.487 54.2357C292.385 53.7156 290.938 53.1212 287.388 53.6143C287.209 53.6412 287.026 53.5958 286.88 53.4881C286.734 53.3804 286.637 53.2193 286.61 53.0401C286.584 52.861 286.629 52.6785 286.737 52.5328C286.845 52.3871 287.006 52.2902 287.185 52.2633C291.614 51.5473 296.909 49.9058 296.956 46.1433C296.956 45.0018 296.645 44.2452 295.942 43.8332C295.05 43.2995 293.515 43.3468 291.885 43.8872C291.195 44.2874 290.462 44.6092 289.701 44.8464C289.542 44.8874 289.373 44.8693 289.227 44.7953C289.08 44.7213 288.965 44.5966 288.904 44.4444C288.843 44.2922 288.839 44.123 288.894 43.9682C288.948 43.8135 289.057 43.6839 289.2 43.6035C289.883 43.2245 290.598 42.9058 291.337 42.6511C294.38 40.9421 299.127 37.2066 299.607 34.2142C299.796 33.0455 299.289 32.1066 298.072 31.3298C294.387 28.9994 279.226 40.5908 276.623 44.0831C276.573 44.1619 276.508 44.2295 276.431 44.2819C276.354 44.3342 276.266 44.37 276.175 44.3871C276.083 44.4042 275.989 44.4022 275.898 44.3812C275.807 44.3602 275.722 44.3207 275.647 44.2651C275.572 44.2095 275.51 44.1391 275.464 44.0583C275.417 43.9774 275.388 43.8879 275.378 43.7954C275.368 43.7028 275.378 43.6092 275.406 43.5203C275.434 43.4315 275.48 43.3494 275.541 43.2793C277.57 40.5232 293.88 27.0674 298.796 30.1882C300.919 31.5392 301.135 33.2414 300.946 34.4303C300.506 37.1323 297.565 40.0504 294.691 42.1107C295.385 42.1332 296.063 42.3257 296.666 42.6713C297.443 43.1374 298.363 44.1169 298.336 46.1636C298.309 48.2104 297.125 50.7232 292.304 52.4119C292.675 52.5055 293.014 52.6973 293.286 52.9671C293.557 53.237 293.751 53.5749 293.846 53.9453C294.231 55.8434 291.466 58.0996 287.408 59.1939C284.739 59.9677 281.978 60.3789 279.199 60.4165V60.4165Z" fill="#4F5A79"/>
<path d="M206.324 39.0772C206.263 39.0871 206.202 39.0871 206.141 39.0772C200.272 37.4223 196.674 35.2337 192.32 30.7079C189.412 27.6749 188.215 24.311 189.534 22.8857C189.806 22.6177 190.146 22.4285 190.518 22.3381C190.889 22.2477 191.278 22.2595 191.643 22.3723C188.391 18.4342 188.688 15.6579 189.716 13.9016C190.744 12.1454 192.029 11.7806 192.935 11.7806C193.629 11.7988 194.309 11.9841 194.916 12.321C193.564 9.07862 192.509 5.06619 193.564 2.51958C194.017 1.39827 195.085 0.0540394 197.621 0H197.662C203.464 0 210.395 19.8189 210.726 23.2234C210.743 23.4017 210.688 23.5793 210.574 23.7174C210.46 23.8555 210.296 23.9426 210.117 23.9597C209.939 23.9766 209.761 23.9221 209.623 23.8081C209.485 23.6941 209.397 23.53 209.38 23.3518C208.961 19.0286 202.037 1.35098 197.675 1.35098C196.228 1.35098 195.308 1.93191 194.862 3.0262C193.726 5.83625 195.849 11.4766 197.567 14.5096C198.074 15.1079 198.526 15.7499 198.919 16.428C199.002 16.5704 199.029 16.7379 198.996 16.899C198.964 17.0602 198.874 17.2039 198.743 17.3034C198.612 17.4028 198.449 17.4511 198.285 17.4391C198.12 17.4272 197.966 17.3559 197.851 17.2386C197.325 16.643 196.871 15.9878 196.499 15.2864C195.363 13.9354 194.071 13.1316 193.03 13.1248C192.225 13.1248 191.556 13.6044 191.001 14.5839C189.101 17.8262 192.779 21.967 196.201 24.8649C196.269 24.9221 196.325 24.9921 196.366 25.0709C196.407 25.1497 196.432 25.2358 196.439 25.3243C196.447 25.4128 196.437 25.5018 196.41 25.5864C196.383 25.671 196.34 25.7495 196.282 25.8173C196.168 25.9535 196.004 26.039 195.827 26.0555C195.65 26.0719 195.473 26.0179 195.336 25.9051C192.55 23.649 191.008 23.4058 190.649 23.7976C190.142 24.3447 190.649 26.8778 193.415 29.7622C197.567 34.0921 201.022 36.1929 206.628 37.7735C206.8 37.8223 206.946 37.9371 207.033 38.0928C207.12 38.2485 207.143 38.4324 207.095 38.6044C207.047 38.7644 206.942 38.9012 206.8 38.9885C206.658 39.0758 206.488 39.1074 206.324 39.0772Z" fill="#4F5A79"/>
<path d="M306.307 298.46C304.677 296.002 303.767 292.794 302.286 290.148C301.395 288.574 296.571 282.063 294.063 284.211C293.056 285.083 293.83 288.474 294.16 289.522C294.968 292.032 296.901 293.57 298.226 295.72C296.479 295.501 293.669 294.545 293.066 296.706C292.464 298.866 295.86 302.621 297.988 302.924C292.693 301.605 293.004 305.781 296.073 308.648C298.989 311.361 303.353 311.838 306.59 313.456L306.307 298.46Z" fill="white"/>
<path d="M367.578 287.486L308.992 290.86L311.179 328.236L369.765 324.862L367.578 287.486Z" fill="#FFEA80"/>
<path d="M364.269 291.996C365.069 288.852 372.78 276.427 377.782 278.343C381.492 279.761 373.438 289.539 371.555 291.061C373.299 289.823 376.665 288.061 378.429 290.107C380.816 292.879 376.219 295.482 374.206 296.827C376.558 296.671 378.918 296.337 380.043 298.548C381.35 301.109 379.469 303.462 377.357 304.963C373.874 307.43 368.538 308.171 364.285 308.419L364.269 291.996Z" fill="white"/>
<path d="M336.8 316.812C336.716 316.84 336.628 316.855 336.54 316.855C336.269 316.87 336.004 316.776 335.802 316.596L305.292 289.448C305.09 289.268 304.968 289.016 304.952 288.747L304.866 287.272C304.857 287.138 304.875 287.003 304.918 286.876C304.961 286.749 305.029 286.631 305.117 286.53C305.296 286.325 305.549 286.2 305.821 286.182C306.092 286.165 306.359 286.255 306.564 286.434C306.769 286.613 306.894 286.866 306.912 287.138L306.972 288.201L336.404 314.39L362.585 284.998L362.525 283.935C362.516 283.8 362.534 283.666 362.577 283.538C362.62 283.411 362.688 283.293 362.777 283.192C362.865 283.091 362.973 283.008 363.094 282.948C363.214 282.889 363.346 282.853 363.48 282.845C363.614 282.836 363.749 282.853 363.877 282.897C364.004 282.94 364.122 283.008 364.223 283.096C364.325 283.185 364.408 283.293 364.467 283.413C364.527 283.534 364.562 283.665 364.571 283.8L364.653 285.283C364.662 285.417 364.645 285.552 364.602 285.679C364.559 285.806 364.492 285.924 364.404 286.025L337.263 316.493C337.139 316.637 336.979 316.747 336.8 316.812V316.812Z" fill="#4F5A79"/>
<path d="M366.486 321.82C366.402 321.848 366.314 321.863 366.226 321.863L307.667 325.249C307.397 325.264 307.132 325.172 306.93 324.992C306.728 324.812 306.605 324.559 306.589 324.29L304.402 286.92C304.393 286.785 304.411 286.65 304.455 286.522C304.499 286.395 304.567 286.277 304.657 286.176C304.747 286.075 304.855 285.993 304.977 285.934C305.099 285.876 305.231 285.842 305.366 285.835L363.925 282.448C364.195 282.433 364.46 282.526 364.662 282.706C364.864 282.886 364.987 283.138 365.003 283.408L367.185 320.787C367.195 320.921 367.177 321.055 367.135 321.183C367.092 321.31 367.024 321.428 366.936 321.529C366.812 321.661 366.657 321.761 366.486 321.82V321.82ZM308.53 323.137L365.089 319.885L363.038 284.561L306.48 287.812L308.53 323.137Z" fill="#4F5A79"/>
<path d="M374.073 307.812C371.682 308.465 369.217 308.813 366.738 308.848L366.377 308.864C366.243 308.873 366.108 308.855 365.98 308.812C365.853 308.769 365.735 308.701 365.634 308.613C365.532 308.524 365.449 308.416 365.39 308.295C365.33 308.175 365.295 308.044 365.286 307.909C365.277 307.775 365.294 307.64 365.337 307.513C365.38 307.385 365.448 307.268 365.537 307.166C365.626 307.065 365.733 306.983 365.854 306.923C365.975 306.863 366.106 306.828 366.24 306.819L366.601 306.803C370.548 306.575 373.635 306.382 376.824 304.169C378.187 303.199 380.313 301.25 379.197 299.044C378.49 297.652 377.065 297.682 374.799 297.846L374.343 297.872C374.118 297.889 373.894 297.832 373.705 297.709C373.516 297.585 373.374 297.403 373.299 297.191C373.225 296.977 373.224 296.746 373.296 296.532C373.368 296.319 373.508 296.135 373.696 296.009L374.264 295.639C375.636 294.742 377.94 293.244 378.134 291.918C378.153 291.714 378.126 291.508 378.054 291.316C377.983 291.124 377.869 290.95 377.722 290.807C376.489 289.374 373.587 290.908 372.229 291.915C372.017 292.084 371.746 292.161 371.476 292.13C371.206 292.1 370.96 291.963 370.79 291.75C370.621 291.538 370.544 291.267 370.574 290.998C370.605 290.728 370.741 290.482 370.954 290.313C372.737 288.787 378.124 281.921 377.725 279.645C377.72 279.565 377.688 279.489 377.636 279.429C377.583 279.368 377.512 279.326 377.434 279.309C377.022 279.191 376.59 279.163 376.166 279.226C375.743 279.289 375.337 279.443 374.978 279.676C370.834 281.819 365.913 289.8 365.286 292.267C365.252 292.396 365.193 292.518 365.112 292.625C365.032 292.732 364.93 292.823 364.815 292.89C364.699 292.958 364.571 293.003 364.438 293.021C364.305 293.04 364.17 293.032 364.04 292.998C363.495 292.856 363.507 291.089 363.677 290.672C365.131 287.144 369.79 280.023 374.035 277.861C374.651 277.491 375.34 277.258 376.054 277.178C376.769 277.098 377.493 277.174 378.176 277.399C378.585 277.546 378.947 277.801 379.224 278.136C379.5 278.471 379.681 278.875 379.746 279.305C380.155 281.631 377.734 285.413 375.515 288.249C376.194 288.103 376.899 288.139 377.559 288.355C378.22 288.57 378.811 288.957 379.273 289.475C379.619 289.835 379.883 290.266 380.045 290.738C380.207 291.21 380.264 291.712 380.211 292.208C379.827 293.677 378.918 294.955 377.656 295.8C378.378 295.86 379.071 296.106 379.669 296.514C380.267 296.923 380.749 297.479 381.067 298.129C382.379 300.704 381.252 303.586 378.055 305.84C376.84 306.703 375.496 307.369 374.073 307.812V307.812Z" fill="#4F5A79"/>
<path d="M306.872 314.413C306.747 314.457 306.614 314.475 306.482 314.465C306.35 314.455 306.221 314.418 306.104 314.355C304.924 313.807 303.707 313.34 302.463 312.959C299.965 312.134 297.394 311.273 295.352 309.375C293.173 307.342 292.278 304.778 293.159 303.14C293.444 302.626 293.888 302.217 294.424 301.975C293.907 301.484 293.445 300.938 293.048 300.346C292.624 299.801 292.319 299.174 292.151 298.504C291.983 297.835 291.956 297.138 292.072 296.458C292.631 294.458 294.37 294.229 295.939 294.372L295.795 294.2C294.654 292.932 293.765 291.459 293.175 289.859C293.02 289.362 291.67 284.938 293.38 283.468C293.708 283.185 294.098 282.982 294.517 282.874C294.937 282.766 295.377 282.756 295.801 282.846C299.005 283.414 302.63 288.725 303.168 289.67C303.824 290.905 304.415 292.174 304.938 293.47C305.414 294.59 305.876 295.668 306.401 296.664C306.629 297.106 305.754 299.519 305.44 299.047C304.501 297.529 303.704 295.929 303.058 294.266C302.57 293.041 302.016 291.845 301.4 290.68C300.545 289.125 297.398 285.208 295.462 284.863C295.336 284.826 295.204 284.823 295.076 284.852C294.948 284.881 294.83 284.941 294.732 285.028C294.412 285.428 294.613 287.596 295.135 289.25C295.657 290.605 296.429 291.851 297.411 292.922C298.021 293.652 298.584 294.421 299.095 295.224C299.201 295.394 299.255 295.59 299.25 295.79C299.245 295.99 299.182 296.184 299.068 296.348C298.964 296.51 298.816 296.639 298.641 296.721C298.466 296.802 298.272 296.832 298.08 296.808C297.778 296.774 297.435 296.708 297.032 296.624C294.867 296.235 294.178 296.364 294.001 297.027C293.926 297.835 294.175 298.639 294.693 299.264C295.427 300.408 296.476 301.316 297.713 301.88L298.144 301.977C298.389 302.047 298.6 302.206 298.734 302.423C298.868 302.639 298.917 302.899 298.87 303.149C298.823 303.399 298.684 303.623 298.48 303.776C298.276 303.929 298.022 304.001 297.768 303.976C297.58 303.95 297.393 303.912 297.21 303.862C296.006 303.625 295.129 303.741 294.896 304.172C294.604 304.769 295.025 306.396 296.688 307.949C298.352 309.502 300.749 310.324 303.05 311.064C304.385 311.475 305.69 311.978 306.956 312.568C307.139 312.658 307.29 312.8 307.391 312.977C307.492 313.153 307.538 313.356 307.523 313.558C307.508 313.761 307.433 313.955 307.307 314.114C307.182 314.274 307.011 314.393 306.818 314.455L306.872 314.413Z" fill="#4F5A79"/>
<path d="M387 108.5C387 109.588 386.677 110.651 386.073 111.556C385.469 112.46 384.61 113.165 383.605 113.581C382.6 113.998 381.494 114.107 380.427 113.894C379.36 113.682 378.38 113.158 377.611 112.389C376.842 111.62 376.318 110.64 376.106 109.573C375.893 108.506 376.002 107.4 376.419 106.395C376.835 105.39 377.54 104.531 378.444 103.927C379.349 103.323 380.412 103 381.5 103C382.959 103 384.358 103.579 385.389 104.611C386.421 105.642 387 107.041 387 108.5V108.5Z" fill="#FBB85E"/>
<path d="M465.426 135.842C467.87 135.842 469.851 133.863 469.851 131.421C469.851 128.979 467.87 127 465.426 127C462.981 127 461 128.979 461 131.421C461 133.863 462.981 135.842 465.426 135.842Z" fill="#0390ED"/>
<path d="M471.267 302.626C471.267 303.937 470.878 305.218 470.149 306.308C469.42 307.397 468.384 308.247 467.172 308.748C465.96 309.25 464.626 309.381 463.339 309.125C462.053 308.87 460.871 308.239 459.943 307.312C459.015 306.385 458.383 305.204 458.127 303.919C457.872 302.634 458.003 301.301 458.505 300.091C459.007 298.88 459.857 297.845 460.948 297.117C462.039 296.389 463.321 296 464.633 296C466.392 296.003 468.077 296.702 469.321 297.944C470.564 299.186 471.264 300.87 471.267 302.626V302.626Z" fill="#62BEFB"/>
<path d="M204.507 246.248C204.507 247.286 204.199 248.301 203.621 249.165C203.043 250.028 202.222 250.7 201.262 251.097C200.301 251.494 199.244 251.598 198.225 251.394C197.205 251.191 196.269 250.69 195.535 249.955C194.801 249.22 194.301 248.284 194.1 247.266C193.898 246.247 194.004 245.191 194.403 244.233C194.802 243.274 195.477 242.455 196.342 241.879C197.208 241.304 198.224 240.998 199.264 241C200.655 241.003 201.989 241.557 202.972 242.541C203.955 243.525 204.507 244.858 204.507 246.248V246.248Z" fill="#FBB85E"/>
</svg>
