<svg width="521" height="478" viewBox="0 0 521 478" fill="none" xmlns="http://www.w3.org/2000/svg">
<path d="M409.688 80.062C408.126 78.3874 406.534 76.7531 404.911 75.1592C382.776 53.4822 354.207 45.0557 323.909 45.3125C311.903 42.6629 297.875 46.1263 287.833 48.6391C274.948 51.9145 262.853 55.7922 250.145 60.0153C201.711 76.1033 150.447 89.1947 109.711 122.506C95.0373 134.499 79.7823 147.745 69.2152 164.207C60.441 177.864 50.0278 191.453 47.3424 208.551C44.7321 225.523 44.6755 242.793 47.1744 259.787C48.2523 267.254 49.7627 274.653 51.698 281.946C52.298 287.884 54.5819 294.034 56.8176 299.786L57.1345 299.503C64.8322 321.229 75.8898 341.629 88.7282 361.143C105.599 386.803 125.489 409.598 152.016 422.166C170.011 430.692 185.424 434.552 204.7 434.098C250.321 433.104 294.558 410.615 336.001 394.506C353.124 387.85 370.393 381.352 386.599 372.614C399.454 365.692 412.448 362.203 424.418 353.004C448.943 333.933 466.053 306.892 472.806 276.533C480.674 241.536 472.454 205.005 461.2 170.531C456.128 154.982 450.036 143.595 442.117 129.816C431.974 112.099 423.701 95.0986 409.688 80.062Z" fill="#F0F9FC"/>
<path d="M124.259 94.1202L115.141 136.919L176.4 149.999L185.519 107.2L124.259 94.1202Z" fill="white"/>
<path d="M176.393 151.111H176.159L114.873 138.004C114.586 137.939 114.337 137.765 114.178 137.518C114.019 137.271 113.964 136.971 114.024 136.684L123.139 93.8842C123.201 93.5956 123.374 93.3431 123.621 93.1818C123.868 93.0205 124.169 92.9634 124.458 93.0231L185.721 106.108C186.01 106.169 186.263 106.342 186.425 106.589C186.586 106.837 186.642 107.138 186.581 107.428L177.432 150.227C177.381 150.469 177.251 150.686 177.063 150.846C176.875 151.006 176.64 151.099 176.393 151.111V151.111ZM116.459 136.046L175.533 148.661L184.135 108.054L125.061 95.4499L116.459 136.046Z" fill="#4F5A79"/>
<path d="M165.66 108.712L163.375 119.439L186.592 124.397L188.878 113.669L165.66 108.712Z" fill="#FBB85E"/>
<path d="M173.467 134.827H173.221L156.855 131.148C156.705 131.124 156.562 131.069 156.434 130.987C156.305 130.905 156.195 130.798 156.11 130.672C156.024 130.546 155.966 130.404 155.937 130.255C155.908 130.106 155.91 129.952 155.943 129.803C155.976 129.655 156.039 129.514 156.127 129.391C156.216 129.267 156.329 129.163 156.459 129.085C156.59 129.007 156.735 128.956 156.885 128.936C157.036 128.915 157.189 128.926 157.336 128.967L173.713 132.591C174.009 132.623 174.28 132.772 174.467 133.005C174.653 133.238 174.74 133.536 174.707 133.832C174.674 134.129 174.525 134.4 174.293 134.587C174.06 134.774 173.763 134.86 173.467 134.827V134.827Z" fill="#4F5A79"/>
<path d="M172.785 140.218H172.54L156.207 136.505C155.92 136.438 155.672 136.261 155.515 136.011C155.358 135.762 155.306 135.461 155.369 135.174C155.433 134.885 155.609 134.633 155.858 134.474C156.108 134.314 156.41 134.26 156.699 134.324L173.076 138.003C173.219 138.036 173.354 138.097 173.474 138.182C173.593 138.268 173.695 138.376 173.773 138.5C173.85 138.625 173.903 138.764 173.927 138.909C173.951 139.054 173.947 139.202 173.914 139.345C173.856 139.599 173.713 139.826 173.507 139.985C173.301 140.144 173.045 140.226 172.785 140.218Z" fill="#4F5A79"/>
<path d="M144.555 112.941H144.298L128.379 109.105C128.236 109.072 128.101 109.01 127.982 108.924C127.862 108.838 127.761 108.729 127.684 108.604C127.528 108.351 127.478 108.047 127.547 107.758C127.615 107.468 127.795 107.218 128.047 107.062C128.3 106.906 128.604 106.856 128.893 106.924L144.812 110.705C145.108 110.739 145.379 110.889 145.564 111.123C145.75 111.357 145.835 111.655 145.8 111.951C145.766 112.248 145.616 112.519 145.382 112.705C145.149 112.89 144.851 112.975 144.555 112.941V112.941Z" fill="#4F5A79"/>
<path d="M224.213 225.237H193.369V326.561H227.71H246.388H364.793V225.237H331.95H224.213Z" fill="#FFEA80"/>
<path d="M189.766 220.058L221.191 191.965L328.503 190.198L361.905 220.058H189.766Z" fill="#FFEA80"/>
<path d="M361.782 322.679H190.369C190.073 322.679 189.789 322.561 189.579 322.351C189.37 322.141 189.252 321.857 189.252 321.56V220.248C189.252 219.952 189.37 219.667 189.579 219.457C189.789 219.248 190.073 219.13 190.369 219.13H361.782C362.079 219.13 362.363 219.248 362.572 219.457C362.782 219.667 362.899 219.952 362.899 220.248V321.56C362.899 321.857 362.782 322.141 362.572 322.351C362.363 322.561 362.079 322.679 361.782 322.679ZM191.486 320.442H360.665V221.367H191.486V320.442Z" fill="#4F5A79"/>
<path d="M237.68 376.214C233.808 372.704 230.696 368.438 228.536 363.677C226.377 358.916 225.215 353.762 225.123 348.535V286.521C227.088 286.52 229.035 286.906 230.851 287.658C232.667 288.41 234.317 289.513 235.707 290.904C237.098 292.294 238.201 293.946 238.953 295.763C239.705 297.581 240.093 299.529 240.093 301.496V321.627L241.02 321.537C252.191 321.537 298.72 322.152 298.72 322.152L299.491 340.415V345.425L299.58 346.891C299.72 352.117 298.788 357.316 296.842 362.167C294.895 367.018 291.976 371.418 288.263 375.096L237.68 376.214Z" fill="white"/>
<path d="M237.68 377.333C237.403 377.333 237.136 377.229 236.931 377.043C232.956 373.424 229.759 369.031 227.537 364.134C225.314 359.236 224.113 353.936 224.006 348.558V286.523C224.006 286.226 224.124 285.942 224.333 285.732C224.543 285.522 224.827 285.404 225.123 285.404C229.387 285.407 233.475 287.103 236.491 290.12C239.507 293.138 241.204 297.229 241.21 301.497V320.443C252.884 320.443 298.273 321.035 298.731 321.046C299.027 321.046 299.311 321.164 299.521 321.374C299.73 321.584 299.848 321.868 299.848 322.165L300.619 340.439V345.483L300.708 346.881C300.843 352.268 299.877 357.625 297.869 362.625C295.862 367.626 292.855 372.162 289.034 375.958C288.93 376.063 288.807 376.146 288.671 376.203C288.535 376.259 288.389 376.289 288.241 376.289C288.094 376.289 287.948 376.259 287.811 376.203C287.675 376.146 287.552 376.063 287.448 375.958C287.24 375.748 287.123 375.465 287.123 375.169C287.123 374.874 287.24 374.59 287.448 374.381C291.042 370.807 293.872 366.537 295.764 361.832C297.656 357.127 298.57 352.085 298.452 347.015L298.362 345.594V340.528L297.636 323.35C290.643 323.261 251.141 322.758 241.009 322.758L240.182 322.836C240.027 322.85 239.871 322.831 239.724 322.781C239.576 322.732 239.441 322.651 239.326 322.546C239.212 322.441 239.12 322.313 239.058 322.17C238.996 322.027 238.964 321.873 238.964 321.717V301.587C238.982 298.092 237.681 294.718 235.322 292.141C232.963 289.564 229.72 287.973 226.24 287.686V348.513C226.35 353.582 227.489 358.576 229.588 363.191C231.687 367.805 234.702 371.943 238.45 375.354C238.669 375.553 238.8 375.831 238.815 376.126C238.83 376.422 238.727 376.711 238.529 376.931C238.425 377.056 238.295 377.156 238.148 377.226C238.002 377.295 237.842 377.332 237.68 377.333V377.333Z" fill="#4F5A79"/>
<path d="M189.755 221.177C189.53 221.174 189.312 221.104 189.128 220.975C188.944 220.846 188.804 220.665 188.724 220.455C188.644 220.245 188.63 220.016 188.682 219.798C188.734 219.58 188.851 219.382 189.017 219.231L220.442 191.127C220.643 190.949 220.901 190.85 221.168 190.847L328.492 189.08C328.772 189.078 329.043 189.182 329.251 189.371L362.653 219.231C362.772 219.326 362.869 219.444 362.941 219.578C363.012 219.712 363.055 219.859 363.068 220.011C363.08 220.162 363.062 220.314 363.014 220.458C362.966 220.602 362.889 220.735 362.788 220.848C362.687 220.961 362.564 221.053 362.426 221.117C362.289 221.181 362.14 221.217 361.988 221.221C361.837 221.226 361.686 221.199 361.545 221.144C361.404 221.088 361.275 221.004 361.168 220.897L328.089 191.328L221.626 193.073L190.492 220.897C190.288 221.077 190.026 221.177 189.755 221.177Z" fill="#4F5A79"/>
<path d="M240.472 337.274V321.304H240.383V301.174C240.383 297.199 238.806 293.387 235.998 290.577C233.191 287.766 229.383 286.188 225.413 286.188V337.263L240.472 337.274Z" fill="white"/>
<path d="M240.283 338.392C239.986 338.392 239.702 338.274 239.493 338.065C239.283 337.855 239.165 337.571 239.165 337.274L239.076 301.184C239.059 297.689 237.729 294.327 235.351 291.766C232.974 289.206 229.722 287.634 226.24 287.362V337.274C226.24 337.571 226.122 337.855 225.913 338.065C225.703 338.274 225.419 338.392 225.123 338.392C224.827 338.392 224.543 338.274 224.333 338.065C224.124 337.855 224.006 337.571 224.006 337.274V286.198C224.006 285.902 224.124 285.617 224.333 285.408C224.543 285.198 224.827 285.08 225.123 285.08C229.404 285.068 233.516 286.757 236.555 289.776C239.594 292.796 241.312 296.898 241.333 301.184V320.901C241.398 321.025 241.433 321.163 241.433 321.304V337.274C241.433 337.424 241.403 337.572 241.345 337.71C241.287 337.848 241.201 337.973 241.094 338.077C240.987 338.181 240.86 338.263 240.72 338.317C240.581 338.371 240.432 338.397 240.283 338.392Z" fill="#4F5A79"/>
<path d="M275.942 264.927C275.771 264.928 275.603 264.889 275.45 264.815L189.9 222.463C189.764 222.4 189.642 222.311 189.541 222.2C189.44 222.09 189.363 221.96 189.313 221.819C189.263 221.678 189.242 221.528 189.251 221.378C189.26 221.229 189.299 221.083 189.366 220.949C189.432 220.814 189.525 220.695 189.639 220.598C189.752 220.5 189.884 220.426 190.027 220.381C190.169 220.335 190.32 220.319 190.469 220.333C190.618 220.347 190.762 220.39 190.894 220.461L275.942 262.567L360.989 220.461C361.254 220.329 361.561 220.308 361.842 220.402C362.122 220.497 362.354 220.699 362.486 220.964C362.551 221.096 362.589 221.24 362.598 221.387C362.607 221.534 362.588 221.681 362.54 221.82C362.492 221.96 362.417 222.088 362.32 222.198C362.223 222.308 362.104 222.398 361.972 222.463L276.433 264.815C276.28 264.889 276.112 264.928 275.942 264.927Z" fill="#4F5A79"/>
<path d="M231.826 137.636C229.263 137.636 226.805 138.655 224.993 140.469C223.181 142.283 222.163 144.744 222.163 147.31V154.97L221.56 236.968L276.511 265.252L328.257 237.897L328.682 165.371L336.669 137.636H231.826Z" fill="white"/>
<path d="M276.511 266.37C276.336 266.369 276.164 266.327 276.008 266.247L221.011 237.964C220.829 237.869 220.677 237.727 220.57 237.551C220.464 237.375 220.408 237.174 220.408 236.969L221.011 154.97V147.31C221.014 144.448 222.151 141.705 224.172 139.682C226.193 137.659 228.934 136.521 231.792 136.518H336.668C336.842 136.518 337.013 136.558 337.168 136.636C337.323 136.713 337.458 136.826 337.562 136.965C337.666 137.104 337.737 137.265 337.768 137.436C337.799 137.607 337.789 137.782 337.741 137.949L329.798 165.528L329.374 237.908C329.373 238.11 329.318 238.309 329.213 238.482C329.109 238.655 328.96 238.797 328.781 238.892L277.069 266.247C276.895 266.331 276.704 266.373 276.511 266.37ZM222.654 236.286L276.511 263.988L327.15 237.226L327.564 165.36C327.548 165.26 327.548 165.158 327.564 165.058L335.138 138.754H231.825C229.56 138.757 227.388 139.66 225.786 141.263C224.184 142.867 223.282 145.042 223.279 147.31V154.97L222.654 236.286Z" fill="#4F5A79"/>
<path d="M348.376 165.091V147.03C348.421 145.733 348.203 144.44 347.738 143.228C347.272 142.017 346.568 140.911 345.667 139.978C344.766 139.045 343.686 138.302 342.493 137.796C341.299 137.289 340.016 137.027 338.719 137.027C337.422 137.027 336.139 137.289 334.945 137.796C333.751 138.302 332.672 139.045 331.771 139.978C330.87 140.911 330.165 142.017 329.7 143.228C329.234 144.44 329.017 145.733 329.061 147.03V165.091H348.376Z" fill="white"/>
<path d="M348.377 166.21H329.017C328.721 166.21 328.437 166.092 328.227 165.882C328.018 165.673 327.9 165.388 327.9 165.092V147.03C327.854 145.584 328.098 144.144 328.618 142.795C329.139 141.445 329.925 140.215 330.93 139.175C331.935 138.136 333.139 137.31 334.469 136.746C335.8 136.181 337.23 135.891 338.675 135.891C340.12 135.891 341.55 136.181 342.88 136.746C344.211 137.31 345.414 138.136 346.419 139.175C347.425 140.215 348.211 141.445 348.731 142.795C349.252 144.144 349.496 145.584 349.45 147.03V165.092C349.45 165.381 349.338 165.659 349.138 165.867C348.938 166.076 348.666 166.198 348.377 166.21V166.21ZM330.179 163.973H347.26V147.03C347.302 145.881 347.111 144.736 346.701 143.662C346.29 142.589 345.668 141.609 344.871 140.782C344.074 139.954 343.118 139.296 342.061 138.847C341.004 138.397 339.868 138.165 338.72 138.165C337.571 138.165 336.435 138.397 335.378 138.847C334.321 139.296 333.365 139.954 332.568 140.782C331.771 141.609 331.149 142.589 330.738 143.662C330.328 144.736 330.138 145.881 330.179 147.03V163.973Z" fill="#4F5A79"/>
<path d="M267.574 349.609C267.278 349.609 266.994 349.491 266.784 349.281C266.575 349.072 266.457 348.787 266.457 348.49C266.463 341.915 263.861 335.605 259.224 330.948C254.587 326.291 248.292 323.667 241.724 323.652C241.427 323.652 241.143 323.534 240.934 323.324C240.724 323.114 240.606 322.83 240.606 322.533C240.606 322.237 240.724 321.952 240.934 321.743C241.143 321.533 241.427 321.415 241.724 321.415C248.885 321.43 255.747 324.29 260.804 329.366C265.86 334.443 268.697 341.321 268.691 348.49C268.691 348.787 268.574 349.072 268.364 349.281C268.154 349.491 267.87 349.609 267.574 349.609Z" fill="#4F5A79"/>
<path d="M294.352 375.533H230.642V399.455H294.352V375.533Z" fill="white"/>
<path d="M294.386 400.572H230.709C230.413 400.572 230.129 400.455 229.919 400.245C229.709 400.035 229.592 399.751 229.592 399.454V375.532C229.592 375.236 229.709 374.951 229.919 374.742C230.129 374.532 230.413 374.414 230.709 374.414H294.386C294.682 374.414 294.966 374.532 295.176 374.742C295.385 374.951 295.503 375.236 295.503 375.532V399.454C295.503 399.751 295.385 400.035 295.176 400.245C294.966 400.455 294.682 400.572 294.386 400.572ZM231.826 398.336H293.269V376.651H231.826V398.336Z" fill="#4F5A79"/>
<path d="M305.736 391.48H223.816V442.165H305.736V391.48Z" fill="#D2F0FF"/>
<path d="M305.724 443.316C305.428 443.316 305.144 443.198 304.934 442.988C304.725 442.778 304.607 442.494 304.607 442.197V392.598H224.922V442.197C224.922 442.494 224.804 442.778 224.595 442.988C224.385 443.198 224.101 443.316 223.805 443.316C223.508 443.316 223.224 443.198 223.015 442.988C222.805 442.778 222.688 442.494 222.688 442.197V391.48C222.688 391.183 222.805 390.899 223.015 390.689C223.224 390.479 223.508 390.361 223.805 390.361H305.724C306.02 390.361 306.305 390.479 306.514 390.689C306.724 390.899 306.841 391.183 306.841 391.48V442.197C306.841 442.494 306.724 442.778 306.514 442.988C306.305 443.198 306.02 443.316 305.724 443.316Z" fill="#4F5A79"/>
<path d="M298.329 405.427C298.331 406.272 298.083 407.099 297.615 407.803C297.147 408.507 296.482 409.057 295.702 409.382C294.923 409.707 294.064 409.793 293.236 409.63C292.407 409.466 291.646 409.06 291.048 408.463C290.45 407.866 290.042 407.105 289.877 406.276C289.711 405.447 289.795 404.587 290.118 403.806C290.44 403.025 290.987 402.357 291.689 401.887C292.391 401.417 293.217 401.166 294.061 401.166C295.191 401.166 296.275 401.615 297.075 402.413C297.875 403.212 298.326 404.296 298.329 405.427V405.427Z" fill="#505B7A"/>
<path d="M296.061 407.115H283.538C283.242 407.115 282.958 406.997 282.748 406.787C282.539 406.577 282.421 406.293 282.421 405.996C282.421 405.7 282.539 405.415 282.748 405.206C282.958 404.996 283.242 404.878 283.538 404.878H296.061C296.357 404.878 296.642 404.996 296.851 405.206C297.061 405.415 297.178 405.7 297.178 405.996C297.178 406.293 297.061 406.577 296.851 406.787C296.642 406.997 296.357 407.115 296.061 407.115Z" fill="#4F5A79"/>
<path d="M318.783 161.367H281.639C281.342 161.367 281.058 161.249 280.849 161.039C280.639 160.829 280.521 160.545 280.521 160.248C280.521 159.952 280.639 159.667 280.849 159.457C281.058 159.248 281.342 159.13 281.639 159.13H318.783C319.08 159.13 319.364 159.248 319.573 159.457C319.783 159.667 319.901 159.952 319.901 160.248C319.901 160.545 319.783 160.829 319.573 161.039C319.364 161.249 319.08 161.367 318.783 161.367Z" fill="#4F5A79"/>
<path d="M318.783 170.224H281.639C281.342 170.224 281.058 170.106 280.849 169.896C280.639 169.687 280.521 169.402 280.521 169.106C280.521 168.809 280.639 168.525 280.849 168.315C281.058 168.105 281.342 167.987 281.639 167.987H318.783C319.08 167.987 319.364 168.105 319.573 168.315C319.783 168.525 319.901 168.809 319.901 169.106C319.901 169.402 319.783 169.687 319.573 169.896C319.364 170.106 319.08 170.224 318.783 170.224Z" fill="#4F5A79"/>
<path d="M303.456 200.923H245.667C245.371 200.923 245.086 200.805 244.877 200.596C244.667 200.386 244.55 200.101 244.55 199.805C244.55 199.508 244.667 199.224 244.877 199.014C245.086 198.804 245.371 198.687 245.667 198.687H303.456C303.753 198.687 304.037 198.804 304.246 199.014C304.456 199.224 304.573 199.508 304.573 199.805C304.573 200.101 304.456 200.386 304.246 200.596C304.037 200.805 303.753 200.923 303.456 200.923Z" fill="#4F5A79"/>
<path d="M303.456 212.14H245.667C245.371 212.14 245.086 212.022 244.877 211.813C244.667 211.603 244.55 211.318 244.55 211.022C244.55 210.725 244.667 210.441 244.877 210.231C245.086 210.021 245.371 209.903 245.667 209.903H303.456C303.753 209.903 304.037 210.021 304.246 210.231C304.456 210.441 304.573 210.725 304.573 211.022C304.573 211.318 304.456 211.603 304.246 211.813C304.037 212.022 303.753 212.14 303.456 212.14Z" fill="#4F5A79"/>
<path d="M303.456 223.358H245.667C245.371 223.358 245.086 223.24 244.877 223.03C244.667 222.821 244.55 222.536 244.55 222.239C244.55 221.943 244.667 221.658 244.877 221.449C245.086 221.239 245.371 221.121 245.667 221.121H303.456C303.753 221.121 304.037 221.239 304.246 221.449C304.456 221.658 304.573 221.943 304.573 222.239C304.573 222.536 304.456 222.821 304.246 223.03C304.037 223.24 303.753 223.358 303.456 223.358Z" fill="#4F5A79"/>
<path d="M395.885 170.305L383.685 209.114L444.424 228.251L456.625 189.442L395.885 170.305Z" fill="white"/>
<path d="M416.254 212.935C416.143 212.952 416.03 212.952 415.919 212.935C415.778 212.892 415.647 212.821 415.534 212.727C415.421 212.633 415.328 212.517 415.259 212.387L394.782 173.054C394.645 172.793 394.617 172.487 394.704 172.204L395.184 170.661C395.228 170.52 395.299 170.388 395.393 170.274C395.487 170.16 395.603 170.066 395.734 169.998C395.865 169.929 396.008 169.887 396.156 169.874C396.303 169.862 396.451 169.878 396.592 169.923C396.732 169.967 396.863 170.039 396.975 170.134C397.088 170.229 397.18 170.346 397.248 170.476C397.315 170.607 397.356 170.75 397.368 170.897C397.38 171.044 397.363 171.192 397.318 171.332L396.983 172.45L416.723 210.374L454.616 190.568L454.951 189.45C454.996 189.309 455.067 189.179 455.162 189.066C455.257 188.953 455.373 188.861 455.504 188.793C455.635 188.726 455.778 188.685 455.924 188.673C456.071 188.66 456.219 188.677 456.359 188.723C456.64 188.812 456.873 189.01 457.01 189.272C457.146 189.534 457.173 189.839 457.085 190.12L456.605 191.664C456.514 191.944 456.318 192.177 456.057 192.313L416.768 212.812C416.608 212.894 416.432 212.936 416.254 212.935Z" fill="#4F5A79"/>
<path d="M444.428 229.43C444.317 229.447 444.204 229.447 444.093 229.43L383.365 210.295C383.224 210.252 383.093 210.181 382.979 210.086C382.865 209.992 382.771 209.876 382.703 209.745C382.634 209.614 382.592 209.47 382.579 209.323C382.567 209.175 382.583 209.027 382.628 208.886L394.838 170.079C394.882 169.938 394.952 169.808 395.046 169.694C395.14 169.581 395.256 169.488 395.386 169.419C395.649 169.285 395.954 169.261 396.235 169.352L456.973 188.487C457.254 188.577 457.488 188.774 457.624 189.036C457.76 189.298 457.787 189.603 457.7 189.885L445.5 228.703C445.454 228.843 445.381 228.972 445.286 229.083C445.19 229.194 445.073 229.286 444.942 229.352C444.78 229.421 444.603 229.448 444.428 229.43V229.43ZM385.097 208.461L443.702 226.925L455.253 190.232L396.648 171.756L385.097 208.461Z" fill="#4F5A79"/>
<path d="M86.8997 199.559L19.6748 233.01L41.0015 275.963L108.226 242.511L86.8997 199.559Z" fill="white"/>
<path d="M39.4651 277.375C39.2569 277.377 39.0525 277.32 38.8748 277.211C38.6972 277.103 38.5534 276.947 38.4597 276.76L17.1336 233.804C17.0629 233.672 17.0194 233.527 17.0057 233.378C16.992 233.229 17.0083 233.079 17.0537 232.936C17.0992 232.793 17.1728 232.661 17.2702 232.548C17.3676 232.434 17.4868 232.341 17.6208 232.274C17.7547 232.208 17.9007 232.169 18.05 232.159C18.1993 232.15 18.349 232.171 18.49 232.221C18.6311 232.271 18.7607 232.349 18.8712 232.45C18.9817 232.551 19.0708 232.673 19.1333 232.809L39.9678 274.758L105.186 242.326L84.3516 200.365C84.2199 200.1 84.1989 199.793 84.2931 199.512C84.3874 199.231 84.5893 198.999 84.8543 198.867C85.1195 198.735 85.4262 198.714 85.7068 198.808C85.9875 198.903 86.2193 199.105 86.3513 199.37L107.689 242.326C107.745 242.462 107.775 242.609 107.775 242.757C107.775 242.904 107.745 243.051 107.689 243.187C107.593 243.465 107.393 243.694 107.13 243.825L39.912 277.286C39.7708 277.346 39.6186 277.377 39.4651 277.375V277.375Z" fill="#4F5A79"/>
<path d="M32.0986 240.817C31.8893 240.817 31.684 240.759 31.5062 240.648C31.3285 240.537 31.1853 240.379 31.0932 240.19L14.0793 205.644C13.9736 205.367 13.9736 205.06 14.0793 204.783C14.1773 204.503 14.3822 204.274 14.649 204.146L65.3669 179.117C65.6321 178.985 65.9388 178.964 66.2195 179.058C66.5001 179.153 66.7319 179.355 66.8639 179.62L83.7773 213.965C83.9077 214.232 83.9268 214.54 83.8304 214.821C83.734 215.102 83.5301 215.333 83.2634 215.463C82.9968 215.594 82.6893 215.613 82.4085 215.517C82.1278 215.42 81.8968 215.216 81.7665 214.949L65.3557 181.622L16.6263 205.655L33.1376 239.206C33.2693 239.472 33.2903 239.779 33.196 240.06C33.1018 240.341 32.8999 240.573 32.6349 240.705C32.4673 240.783 32.2837 240.822 32.0986 240.817V240.817Z" fill="#4F5A79"/>
<path d="M452.776 261.676L378.439 281.623L392.344 333.553L466.68 313.606L452.776 261.676Z" fill="white"/>
<path d="M388.672 332.487C388.42 332.496 388.172 332.419 387.969 332.268C387.766 332.118 387.62 331.903 387.555 331.659L373.78 279.935C373.742 279.793 373.733 279.645 373.752 279.499C373.771 279.353 373.819 279.213 373.892 279.086C374.038 278.829 374.278 278.64 374.562 278.56L448.662 258.787C448.945 258.713 449.246 258.753 449.5 258.899C449.754 259.053 449.942 259.296 450.025 259.581L463.799 311.35C463.874 311.636 463.833 311.941 463.684 312.196C463.535 312.452 463.292 312.638 463.006 312.714L388.962 332.476C388.866 332.491 388.769 332.494 388.672 332.487V332.487ZM376.272 280.439L389.465 330.004L461.353 310.825L448.159 261.248L376.272 280.439Z" fill="#4F5A79"/>
<path d="M455.86 264L435 269.598L437.579 279.231L458.439 273.633L455.86 264Z" fill="#62BEFB"/>
<path d="M430.598 301.642C430.342 301.65 430.092 301.569 429.889 301.415C429.686 301.26 429.542 301.04 429.48 300.792C429.409 300.506 429.454 300.203 429.604 299.95C429.755 299.697 430 299.513 430.285 299.439L450.181 294.351C450.324 294.314 450.473 294.306 450.619 294.327C450.765 294.348 450.906 294.398 451.033 294.474C451.159 294.55 451.27 294.65 451.358 294.769C451.445 294.888 451.509 295.023 451.544 295.167C451.615 295.455 451.569 295.759 451.416 296.013C451.263 296.266 451.016 296.449 450.728 296.52L430.832 301.598C430.757 301.625 430.678 301.64 430.598 301.642V301.642Z" fill="#4F5A79"/>
<path d="M432.91 307.995C432.614 308.032 432.315 307.95 432.079 307.766C431.843 307.583 431.69 307.313 431.653 307.017C431.616 306.72 431.698 306.421 431.882 306.185C432.065 305.949 432.334 305.795 432.631 305.758L452.527 300.67C452.67 300.633 452.819 300.625 452.965 300.646C453.111 300.668 453.252 300.717 453.379 300.793C453.505 300.869 453.616 300.97 453.703 301.089C453.791 301.208 453.855 301.343 453.89 301.486C453.961 301.772 453.916 302.075 453.766 302.329C453.615 302.582 453.371 302.766 453.085 302.84L433.189 307.928C433.099 307.962 433.005 307.984 432.91 307.995V307.995Z" fill="#4F5A79"/>
<path d="M387.387 293.456C387.09 293.49 386.793 293.405 386.559 293.219C386.326 293.034 386.175 292.763 386.141 292.466C386.107 292.169 386.192 291.871 386.378 291.638C386.563 291.404 386.834 291.253 387.13 291.219L406.59 286.5C406.733 286.465 406.882 286.458 407.027 286.481C407.173 286.504 407.312 286.555 407.438 286.632C407.564 286.709 407.673 286.81 407.759 286.929C407.846 287.049 407.908 287.184 407.942 287.327C408.009 287.615 407.96 287.917 407.805 288.169C407.65 288.42 407.402 288.6 407.115 288.669L387.655 293.456C387.566 293.467 387.476 293.467 387.387 293.456Z" fill="#4F5A79"/>
<path d="M157.972 310.446L106.386 323.772L114.883 356.735L166.469 343.409L157.972 310.446Z" fill="white"/>
<path d="M143.091 340.304C142.891 340.304 142.694 340.25 142.522 340.148L110.605 321.303C110.35 321.153 110.165 320.908 110.091 320.621L109.745 319.313C109.708 319.17 109.699 319.022 109.72 318.876C109.74 318.73 109.789 318.59 109.864 318.463C109.939 318.337 110.038 318.226 110.155 318.137C110.273 318.049 110.407 317.985 110.549 317.948C110.691 317.911 110.84 317.903 110.985 317.923C111.131 317.944 111.271 317.993 111.398 318.068C111.524 318.142 111.635 318.242 111.723 318.359C111.811 318.477 111.876 318.611 111.912 318.754L112.135 319.603L142.7 337.654L160.731 307.055L160.507 306.206C160.471 306.063 160.462 305.915 160.483 305.769C160.504 305.623 160.553 305.483 160.627 305.357C160.702 305.23 160.801 305.119 160.918 305.031C161.036 304.942 161.169 304.878 161.312 304.841C161.454 304.804 161.602 304.796 161.748 304.817C161.893 304.837 162.033 304.886 162.16 304.961C162.286 305.036 162.397 305.135 162.485 305.253C162.574 305.37 162.638 305.504 162.675 305.646L163.01 306.955C163.08 307.24 163.036 307.541 162.887 307.794L144.052 339.756C143.902 340.011 143.657 340.196 143.371 340.271C143.279 340.294 143.185 340.305 143.091 340.304Z" fill="#4F5A79"/>
<path d="M118.828 352.875C118.574 352.883 118.325 352.804 118.122 352.651C117.919 352.499 117.774 352.282 117.71 352.036L109.22 319.078C109.145 318.792 109.187 318.487 109.335 318.232C109.484 317.976 109.728 317.789 110.013 317.713L161.603 304.383C161.745 304.346 161.893 304.337 162.039 304.358C162.184 304.378 162.324 304.427 162.451 304.502C162.578 304.577 162.688 304.676 162.777 304.793C162.865 304.911 162.929 305.045 162.966 305.188L171.5 338.191C171.572 338.477 171.527 338.779 171.376 339.033C171.226 339.286 170.981 339.47 170.696 339.544L119.107 352.841L118.828 352.875ZM111.689 319.592L119.632 350.392L169.043 337.631L161.111 306.876L111.689 319.592Z" fill="#4F5A79"/>
<path d="M391.123 136.605C388.678 137.232 386.116 137.232 383.671 136.605C377.136 135.151 372.657 129.134 374.366 121.473C376.187 113.253 383.459 107.416 392.318 109.384C399.244 110.927 402.83 116.832 401.356 123.498C400.026 129.481 395.893 132.254 392.151 131.416C390.553 131.058 389.313 129.66 389.972 127.244H389.816C389.065 128.18 388.067 128.885 386.935 129.28C385.804 129.676 384.584 129.745 383.415 129.481C381.102 128.966 379.527 126.651 380.231 123.498C380.503 122.253 381.018 121.075 381.747 120.031C382.476 118.986 383.404 118.097 384.477 117.413C385.551 116.729 386.749 116.264 388.003 116.046C389.256 115.827 390.541 115.859 391.782 116.139C393.249 116.448 394.637 117.058 395.859 117.928L392.899 124.851C391.625 127.747 391.782 129.257 393.1 129.581C395.122 130.074 397.993 127.87 399.032 123.24C400.306 117.458 397.77 112.538 391.581 111.162C385.09 109.708 378.488 113.645 376.689 121.742C375.204 128.452 378.633 133.485 384.509 134.804C386.589 135.317 388.764 135.294 390.832 134.737L391.123 136.605ZM392.765 118.879C392.161 118.541 391.509 118.296 390.832 118.152C387.325 117.369 383.761 120.053 382.901 123.923C382.51 125.678 383.102 127.155 384.856 127.546C387.168 128.06 389.927 125.578 390.922 123.196L392.765 118.879Z" fill="#505B7A"/>
<path d="M153.19 273.994C151.797 275.736 149.981 277.091 147.917 277.931C142.51 280.347 136.165 278.434 133.338 272.104C130.311 265.305 132.411 257.331 139.728 254.065C140.971 253.442 142.329 253.084 143.717 253.013C145.105 252.942 146.492 253.16 147.792 253.653C149.091 254.146 150.275 254.903 151.267 255.877C152.26 256.85 153.04 258.02 153.558 259.31C155.793 264.265 154.296 268.403 151.201 269.789C149.883 270.371 148.263 270.024 147.459 267.978L147.336 268.034C147.296 269.093 146.961 270.121 146.369 271C145.777 271.879 144.951 272.576 143.985 273.01C142.074 273.86 139.739 273.01 138.578 270.438C138.115 269.412 137.86 268.303 137.828 267.178C137.796 266.052 137.987 264.931 138.39 263.88C138.793 262.828 139.4 261.868 140.176 261.052C140.952 260.237 141.882 259.585 142.912 259.131C144.115 258.575 145.419 258.274 146.744 258.248L148.274 264.723C148.9 267.452 149.816 268.436 150.911 267.978C152.609 267.262 153.491 264.175 151.782 260.35C149.648 255.564 145.258 253.417 140.153 255.698C134.779 258.091 132.154 264.365 135.148 271.064C137.595 276.578 142.7 278.367 147.582 276.186C149.327 275.459 150.864 274.305 152.05 272.831L153.19 273.994ZM145.024 260.574C144.423 260.662 143.836 260.831 143.281 261.077C140.376 262.375 139.259 266.155 140.678 269.353C141.337 270.807 142.521 271.59 144.029 270.897C145.94 270.047 146.599 266.826 146.051 264.611L145.024 260.574Z" fill="#505B7A"/>
<path d="M347.494 377.714C345.37 377.709 343.27 377.256 341.333 376.385C339.395 375.513 337.663 374.242 336.249 372.655C334.835 371.068 333.77 369.201 333.126 367.174C332.481 365.148 332.27 363.008 332.507 360.895C332.744 358.782 333.424 356.742 334.501 354.909C335.578 353.076 337.029 351.491 338.76 350.257C340.49 349.024 342.461 348.169 344.543 347.749C346.626 347.329 348.773 347.353 350.846 347.82C350.99 347.852 351.126 347.912 351.247 347.997C351.368 348.081 351.471 348.189 351.55 348.314C351.628 348.439 351.682 348.578 351.707 348.724C351.732 348.869 351.728 349.018 351.695 349.162C351.662 349.305 351.601 349.441 351.516 349.561C351.431 349.68 351.323 349.782 351.198 349.86C351.074 349.938 350.935 349.99 350.79 350.015C350.645 350.039 350.497 350.034 350.354 350.001C347.606 349.372 344.729 349.663 342.161 350.827C339.594 351.992 337.479 353.967 336.139 356.45C334.8 358.932 334.31 361.786 334.745 364.574C335.18 367.362 336.516 369.93 338.547 371.886C340.579 373.841 343.195 375.077 345.995 375.402C348.795 375.728 351.624 375.126 354.049 373.689C356.475 372.251 358.363 370.058 359.425 367.444C360.486 364.83 360.663 361.94 359.928 359.216C359.862 358.934 359.909 358.637 360.057 358.388C360.206 358.139 360.446 357.958 360.725 357.883C361.005 357.807 361.303 357.843 361.556 357.984C361.81 358.124 361.999 358.358 362.084 358.635C362.686 360.872 362.767 363.218 362.32 365.492C361.874 367.766 360.912 369.906 359.509 371.749C358.106 373.593 356.3 375.089 354.228 376.123C352.157 377.157 349.876 377.701 347.561 377.714H347.494Z" fill="#4F5A79"/>
<path d="M347.293 365.825C347.016 365.824 346.749 365.721 346.544 365.534L338.289 358.052C338.17 357.957 338.072 357.838 338.001 357.704C337.93 357.569 337.887 357.421 337.875 357.269C337.863 357.117 337.882 356.964 337.931 356.82C337.98 356.676 338.058 356.543 338.16 356.43C338.262 356.317 338.386 356.226 338.525 356.163C338.664 356.1 338.814 356.065 338.966 356.062C339.118 356.059 339.269 356.087 339.41 356.145C339.551 356.203 339.679 356.289 339.786 356.397L347.215 363.107L365.96 342.161C366.055 342.042 366.173 341.944 366.307 341.873C366.441 341.802 366.588 341.759 366.739 341.746C366.89 341.733 367.042 341.752 367.186 341.8C367.33 341.848 367.462 341.925 367.575 342.026C367.689 342.127 367.78 342.25 367.844 342.388C367.908 342.526 367.943 342.675 367.948 342.827C367.953 342.978 367.926 343.129 367.871 343.271C367.815 343.412 367.731 343.54 367.625 343.648L348.12 365.456C347.922 365.676 347.644 365.809 347.349 365.825H347.293Z" fill="#4F5A79"/>
<path d="M73.98 251.099L35.9974 238.517L20 206.029L70.7291 181L86.9164 213.891L73.98 251.099Z" fill="#EF6FFF"/>
<path d="M189.252 371.741C188.331 371.741 187.43 371.468 186.664 370.955C185.898 370.443 185.301 369.714 184.948 368.862C184.596 368.01 184.504 367.072 184.683 366.168C184.863 365.263 185.307 364.432 185.958 363.78C186.61 363.128 187.44 362.684 188.343 362.504C189.247 362.324 190.184 362.416 191.035 362.769C191.886 363.122 192.614 363.72 193.126 364.487C193.637 365.254 193.911 366.155 193.911 367.078C193.911 368.314 193.42 369.501 192.546 370.375C191.673 371.25 190.488 371.741 189.252 371.741ZM189.252 364.651C188.773 364.651 188.304 364.793 187.905 365.06C187.507 365.326 187.196 365.705 187.013 366.149C186.829 366.592 186.781 367.08 186.875 367.551C186.968 368.022 187.199 368.454 187.538 368.794C187.877 369.133 188.309 369.364 188.779 369.458C189.25 369.551 189.737 369.503 190.18 369.32C190.623 369.136 191.001 368.825 191.268 368.426C191.534 368.027 191.676 367.558 191.676 367.078C191.676 366.433 191.421 365.815 190.967 365.358C190.513 364.901 189.896 364.643 189.252 364.64V364.651Z" fill="#4F5A79"/>
<path d="M292.643 120.233C290.713 120.231 288.826 119.656 287.222 118.581C285.618 117.505 284.368 115.978 283.631 114.192C282.893 112.406 282.702 110.441 283.08 108.545C283.458 106.65 284.388 104.909 285.754 103.543C287.12 102.178 288.86 101.248 290.754 100.872C292.647 100.495 294.61 100.69 296.393 101.43C298.177 102.17 299.701 103.423 300.773 105.03C301.846 106.637 302.418 108.526 302.418 110.459C302.415 113.052 301.384 115.539 299.551 117.371C297.718 119.204 295.234 120.233 292.643 120.233V120.233ZM292.643 102.921C291.155 102.923 289.7 103.367 288.463 104.197C287.226 105.027 286.263 106.205 285.695 107.582C285.127 108.96 284.979 110.475 285.271 111.936C285.563 113.398 286.281 114.74 287.334 115.793C288.388 116.846 289.729 117.563 291.19 117.853C292.65 118.143 294.163 117.993 295.538 117.422C296.914 116.851 298.089 115.885 298.916 114.646C299.743 113.406 300.184 111.949 300.184 110.459C300.178 108.46 299.381 106.544 297.968 105.132C296.555 103.719 294.64 102.924 292.643 102.921Z" fill="#4F5A79"/>
<path d="M69.8802 253.04C69.7623 253.043 69.6448 253.024 69.5339 252.984L19.5644 236.555C19.423 236.51 19.2919 236.438 19.1787 236.342C19.0655 236.246 18.9726 236.128 18.9053 235.996L17.1291 232.395C17.0722 232.258 17.043 232.112 17.043 231.964C17.043 231.816 17.0722 231.67 17.1291 231.534L34.2101 181.733C34.3066 181.455 34.5084 181.227 34.7718 181.097C35.0353 180.968 35.3391 180.947 35.6177 181.04L85.5871 197.457C85.7275 197.504 85.8571 197.579 85.9683 197.677C86.0796 197.775 86.1702 197.894 86.2351 198.027L88.0225 201.629C88.0793 201.765 88.1086 201.911 88.1086 202.059C88.1086 202.207 88.0793 202.353 88.0225 202.49L70.9303 252.29C70.8541 252.508 70.7122 252.698 70.5241 252.832C70.3361 252.966 70.1111 253.039 69.8802 253.04V253.04ZM20.7263 234.575L69.1317 250.467L85.71 202.154L84.3918 199.358L35.9081 183.422L19.3298 231.791L20.7263 234.575Z" fill="#4F5A79"/>
<path d="M153.333 198.264C153.333 199.681 152.913 201.066 152.125 202.243C151.338 203.421 150.218 204.339 148.909 204.882C147.599 205.424 146.158 205.565 144.768 205.289C143.378 205.013 142.101 204.331 141.099 203.329C140.097 202.327 139.414 201.051 139.138 199.661C138.861 198.272 139.003 196.832 139.546 195.523C140.088 194.214 141.006 193.096 142.185 192.309C143.363 191.522 144.749 191.102 146.166 191.102C147.108 191.102 148.039 191.287 148.909 191.647C149.778 192.007 150.568 192.534 151.234 193.199C151.899 193.864 152.427 194.654 152.787 195.523C153.148 196.392 153.333 197.324 153.333 198.264Z" fill="#FFEA80"/>
<path d="M224.641 49.9086C224.643 50.8619 224.362 51.7944 223.833 52.5881C223.305 53.3818 222.553 54.0009 221.672 54.3672C220.792 54.7334 219.822 54.8304 218.886 54.6457C217.951 54.461 217.091 54.003 216.416 53.3297C215.74 52.6563 215.28 51.7979 215.093 50.8631C214.907 49.9283 215.001 48.959 215.366 48.0781C215.73 47.1972 216.348 46.4441 217.141 45.9142C217.934 45.3844 218.866 45.1016 219.82 45.1016C221.097 45.1016 222.321 45.6077 223.225 46.5089C224.129 47.4101 224.638 48.6327 224.641 49.9086V49.9086Z" fill="#F36FFF"/>
<path d="M397.641 245.909C397.643 246.862 397.362 247.794 396.833 248.588C396.305 249.382 395.553 250.001 394.672 250.367C393.792 250.733 392.822 250.83 391.886 250.646C390.951 250.461 390.091 250.003 389.416 249.33C388.74 248.656 388.28 247.798 388.093 246.863C387.907 245.928 388.001 244.959 388.366 244.078C388.73 243.197 389.348 242.444 390.141 241.914C390.934 241.384 391.866 241.102 392.82 241.102C394.097 241.102 395.321 241.608 396.225 242.509C397.129 243.41 397.638 244.633 397.641 245.909V245.909Z" fill="#F36FFF"/>
<path d="M482 144.585C482.003 146.069 481.566 147.521 480.744 148.756C479.922 149.992 478.752 150.956 477.382 151.526C476.012 152.096 474.503 152.247 473.047 151.959C471.591 151.672 470.253 150.959 469.203 149.911C468.152 148.862 467.436 147.526 467.145 146.071C466.855 144.616 467.002 143.107 467.569 141.735C468.137 140.364 469.098 139.192 470.332 138.367C471.565 137.542 473.016 137.102 474.5 137.102C476.486 137.102 478.391 137.89 479.797 139.292C481.203 140.695 481.996 142.599 482 144.585V144.585Z" fill="#FBB85E"/>
</svg>
