<svg width="503" height="401" viewBox="0 0 503 401" fill="none" xmlns="http://www.w3.org/2000/svg">
<path d="M330.848 374.926C355.211 374.277 379.975 367.111 402.626 355.707C427.597 343.122 455.221 317.532 462.443 285.661C465.796 270.234 466.296 254.323 463.917 238.713C461.347 221.173 452.264 204.91 439.951 194.967C430.795 187.58 419.004 189.408 409.637 182.843C400.097 176.159 399.159 162.759 407.133 153.058C414.524 144.061 425.823 138.285 428.667 125.017C432.127 108.748 419.452 96.3017 409.86 87.7932C399.458 78.6494 386.463 73.7983 373.98 69.1463C356.593 62.6625 338.27 56.3717 320.135 52.7151C304.102 49.4909 287.852 47.3268 271.934 43.5426C262.982 41.4096 251.304 37.9656 242.011 41.0892C236.288 43.0394 232.103 49.9443 234.931 56.5404C236.789 60.8521 242.853 64.1423 246.49 66.2974C233.669 67.0903 220.41 62.1536 207.805 60.4265C193.053 58.4351 178.246 57.016 163.291 56.2128C149.132 55.4482 134.134 54.8551 119.74 57.5654C96.9411 61.8725 83.3583 83.1162 80.5011 108.984C79.3754 119.176 77.2854 130.963 79.2697 140.95C80.3176 146.003 87.1508 157.477 85.3872 162.399C83.6807 167.146 70.8613 167.376 66.7044 168.46C56.9677 171.002 45.185 171.925 36.7753 179.431C26.545 188.584 19.176 210.21 18.2676 224.47C17.0393 243.939 24.8821 265.878 32.7042 281.83C40.5262 297.782 51.462 306.66 65.1617 315.19C85.1208 327.633 109.605 329.542 132.282 333.84C160.403 339.175 188.199 346.997 216.279 352.324C233.935 355.673 251.276 359.74 268.523 364.006C280.438 366.957 291.867 370.496 303.96 372.784C312.82 374.459 321.834 375.177 330.848 374.926V374.926Z" fill="#F0F9FC"/>
<path d="M340.218 203.146H156.406V342.104H340.218V203.146Z" fill="white"/>
<path d="M261.68 333.068V337.478H232.939V333.068H138.621V339.5C138.629 341.299 139.35 343.022 140.625 344.292C141.9 345.562 143.627 346.277 145.428 346.28H349.191C350.999 346.28 352.733 345.562 354.011 344.285C355.29 343.008 356.008 341.276 356.008 339.469V333.037L261.68 333.068Z" fill="white"/>
<path d="M340.207 333.191C339.936 333.191 339.676 333.084 339.485 332.892C339.293 332.701 339.185 332.441 339.185 332.17V204.167H157.428V332.17C157.428 332.441 157.32 332.701 157.129 332.892C156.937 333.084 156.677 333.191 156.406 333.191C156.135 333.191 155.875 333.084 155.683 332.892C155.491 332.701 155.384 332.441 155.384 332.17V203.146C155.384 202.875 155.491 202.616 155.683 202.424C155.875 202.233 156.135 202.125 156.406 202.125H340.207C340.478 202.125 340.738 202.233 340.93 202.424C341.122 202.616 341.229 202.875 341.229 203.146V332.17C341.229 332.441 341.122 332.701 340.93 332.892C340.738 333.084 340.478 333.191 340.207 333.191Z" fill="#4F5A79"/>
<path d="M332.062 208.873H164.562V326.452H332.062V208.873Z" fill="#D2F0FF"/>
<path d="M262.581 326.452L332.062 281.967V236.369L191.352 326.452H262.581Z" fill="#EBFFFF"/>
<path d="M320.257 208.873H287.059L164.562 287.296V308.554L320.257 208.873Z" fill="#EBFFFF"/>
<path d="M164.562 229.487V274.697L267.374 208.873H196.758L164.562 229.487Z" fill="#EBFFFF"/>
<path d="M332.051 327.472H164.562C164.291 327.472 164.031 327.365 163.839 327.173C163.648 326.982 163.54 326.722 163.54 326.451V208.873C163.54 208.602 163.648 208.342 163.839 208.151C164.031 207.959 164.291 207.852 164.562 207.852H332.051C332.322 207.852 332.582 207.959 332.774 208.151C332.966 208.342 333.073 208.602 333.073 208.873V326.451C333.073 326.722 332.966 326.982 332.774 327.173C332.582 327.365 332.322 327.472 332.051 327.472ZM165.584 325.43H331.029V209.894H165.584V325.43Z" fill="#4F5A79"/>
<path d="M349.192 347.301H145.429C143.351 347.298 141.358 346.472 139.889 345.004C138.419 343.536 137.593 341.546 137.59 339.47V333.038C137.59 332.767 137.697 332.507 137.889 332.316C138.081 332.124 138.341 332.017 138.612 332.017H232.93C233.201 332.017 233.461 332.124 233.653 332.316C233.844 332.507 233.952 332.767 233.952 333.038V336.427H260.649V333.038C260.649 332.767 260.756 332.507 260.948 332.316C261.14 332.124 261.4 332.017 261.671 332.017H355.979C356.25 332.017 356.51 332.124 356.701 332.316C356.893 332.507 357.001 332.767 357.001 333.038V339.47C356.998 341.541 356.175 343.526 354.712 344.994C353.249 346.461 351.265 347.29 349.192 347.301V347.301ZM139.665 334.028V339.439C139.661 340.2 139.807 340.953 140.094 341.657C140.382 342.361 140.805 343.001 141.34 343.542C141.876 344.082 142.512 344.512 143.214 344.807C143.915 345.101 144.668 345.255 145.429 345.259H349.192C350.728 345.256 352.201 344.646 353.287 343.56C354.373 342.475 354.984 341.004 354.987 339.47V334.059H262.703V337.448C262.703 337.719 262.595 337.979 262.404 338.17C262.212 338.362 261.952 338.469 261.681 338.469H232.94C232.669 338.469 232.409 338.362 232.217 338.17C232.026 337.979 231.918 337.719 231.918 337.448V334.059L139.665 334.028Z" fill="#4F5A79"/>
<path d="M458.698 208.069L394.186 223.791L405.169 268.764L469.682 253.043L458.698 208.069Z" fill="white"/>
<path d="M464.416 214.15C464.416 214.15 467.738 214.079 473.911 207.422C482.987 197.62 486.493 193.301 488.22 195.823C489.948 198.345 482.435 210.74 482.435 210.74C482.435 210.74 488.629 204.808 490.408 206.595C492.186 208.382 483.682 218.296 483.682 218.296C483.682 218.296 490.837 213.109 492.288 215.233C493.74 217.356 487.004 227.321 469.935 232.222L464.416 214.15Z" fill="white"/>
<path d="M399.289 230.027C399.289 230.027 393.259 229.537 388.864 229.006C383.467 228.557 374.555 227.924 373.175 230.537C371.366 234.101 387.116 237.95 387.116 237.95C387.116 237.95 375.986 238.042 376.047 241.013C376.108 243.984 390.929 245.577 390.929 245.577C390.929 245.577 381.812 245.832 381.035 247.986C380.258 250.141 391.031 255.378 403.664 249.354L399.289 230.027Z" fill="white"/>
<path d="M455.192 200.397L437.091 204.809L440.459 218.599L458.56 214.187L455.192 200.397Z" fill="#62BEFB"/>
<path d="M469.945 233.232C469.811 233.251 469.674 233.243 469.543 233.209C469.412 233.175 469.288 233.116 469.18 233.034C468.962 232.87 468.818 232.625 468.78 232.354C468.742 232.084 468.813 231.809 468.978 231.59C469.143 231.372 469.388 231.228 469.659 231.19C483.171 227.311 489.559 220.378 491.051 217.243C491.338 216.794 491.474 216.264 491.439 215.732C490.898 215.314 487.586 216.753 484.285 219.081C484.082 219.231 483.832 219.302 483.58 219.278C483.329 219.255 483.096 219.14 482.925 218.955C482.754 218.77 482.657 218.528 482.653 218.277C482.65 218.025 482.739 217.78 482.905 217.591C486.697 213.159 489.784 208.402 489.63 207.238C489.058 206.962 486.165 208.555 483.14 211.444C482.953 211.608 482.714 211.698 482.465 211.698C482.217 211.698 481.977 211.608 481.791 211.444C481.6 211.29 481.47 211.071 481.427 210.829C481.384 210.587 481.43 210.338 481.556 210.127C485.378 203.817 488.097 197.364 487.371 196.313C487.198 196.058 487.095 196.047 487.055 196.047C485.787 195.925 482.026 200.019 477.283 205.165L474.646 208.024C468.371 214.803 464.814 215.079 464.426 215.079C464.155 215.088 463.891 214.99 463.692 214.805C463.494 214.62 463.377 214.364 463.368 214.094C463.358 213.823 463.457 213.559 463.642 213.361C463.827 213.163 464.083 213.046 464.354 213.037C464.467 213.037 467.543 212.669 473.144 206.635L475.771 203.787C482.057 196.956 484.97 193.852 487.187 194.005C487.566 194.038 487.932 194.16 488.255 194.36C488.579 194.561 488.85 194.834 489.048 195.159C490.376 197.089 488.189 202.245 485.981 206.502C487.923 205.277 489.947 204.573 491.153 205.778C492.584 207.217 490.693 210.791 487.985 214.487C489.126 213.866 490.418 213.576 491.715 213.65C492.005 213.693 492.283 213.797 492.531 213.953C492.779 214.11 492.992 214.316 493.156 214.558C493.386 214.996 493.505 215.483 493.505 215.977C493.505 216.472 493.386 216.959 493.156 217.397C491.644 221.481 484.295 229.056 470.2 233.1C470.122 233.156 470.036 233.2 469.945 233.232V233.232Z" fill="#4F5A79"/>
<path d="M391.777 253.122C386.451 253.122 382.506 251.427 381.004 250.059C379.798 248.967 379.9 248.017 380.074 247.558C380.442 246.537 381.791 245.852 383.477 245.393C379.062 244.484 375.065 243.075 375.025 240.952C375.021 240.645 375.08 240.34 375.2 240.057C375.32 239.774 375.496 239.519 375.72 239.308C376.742 238.287 379.062 237.644 381.351 237.266C377.57 236.01 373.175 234.152 372.244 232.059C372.084 231.742 372 231.393 372 231.038C372 230.683 372.084 230.333 372.244 230.017C373.655 227.24 379.931 227.168 388.925 227.975C393.299 228.536 399.289 228.996 399.35 228.996C399.484 229.007 399.615 229.045 399.735 229.107C399.854 229.169 399.961 229.253 400.047 229.356C400.134 229.459 400.2 229.578 400.241 229.706C400.282 229.834 400.297 229.969 400.285 230.104C400.274 230.238 400.236 230.368 400.174 230.488C400.112 230.607 400.028 230.713 399.925 230.8C399.822 230.887 399.703 230.952 399.574 230.993C399.446 231.034 399.311 231.049 399.176 231.038C399.176 231.038 393.044 230.527 388.71 230.017C377.467 229.067 374.554 230.017 374.064 231.038C374.064 231.109 374.002 231.17 374.064 231.324C374.933 233.202 382.343 235.765 387.351 236.99C387.594 237.048 387.808 237.194 387.951 237.399C388.094 237.604 388.157 237.855 388.128 238.103C388.098 238.352 387.977 238.581 387.788 238.747C387.6 238.913 387.357 239.003 387.106 239.002C383.671 239.002 378.326 239.614 377.161 240.809C377.11 240.86 377.048 240.931 377.048 240.982C377.457 242.095 383.988 243.78 391.02 244.556C391.271 244.584 391.503 244.703 391.671 244.892C391.839 245.08 391.931 245.324 391.93 245.577C391.93 245.848 391.822 246.107 391.63 246.299C391.439 246.49 391.179 246.598 390.908 246.598C386.819 246.72 382.639 247.496 381.995 248.262C382.545 248.903 383.248 249.395 384.039 249.691C387.933 251.448 395.282 252.183 403.132 248.436C403.253 248.377 403.385 248.342 403.52 248.335C403.655 248.327 403.789 248.346 403.917 248.391C404.044 248.435 404.161 248.505 404.262 248.595C404.362 248.685 404.444 248.794 404.501 248.915C404.617 249.159 404.632 249.439 404.542 249.693C404.452 249.948 404.265 250.156 404.021 250.273C400.203 252.121 396.019 253.095 391.777 253.122V253.122Z" fill="#4F5A79"/>
<path d="M183.512 134.931C184.994 131.572 188.019 128.244 189.971 124.977C192.608 120.556 196.104 117.043 199.926 113.49C202.492 111.071 211.946 102.872 211.864 111.05C211.864 115.134 209.892 120.239 208.011 123.874C209.119 121.954 210.834 120.456 212.886 119.616C215.595 118.769 218.426 120.26 218.395 123.149C218.395 126.702 214.583 128.142 212.927 130.745C215.687 129.847 221.891 127.008 221.84 132.246C221.84 135.758 215.554 139.097 213.07 140.68C205.2 145.703 196.86 148.592 187.927 150.89L183.512 134.931Z" fill="white"/>
<path d="M89.4798 160.162C80.8943 156.455 73.2797 150.707 64.684 146.888C62.0777 145.745 56.3642 143.754 54.1463 146.766C52.1022 149.502 55.0969 152.984 56.9673 154.811C58.112 155.935 62.415 159.559 63.9992 158.895C61.4031 160.039 54.6676 159.151 54.872 163.235C55.0867 167.564 62.2719 167.186 65.0929 167.809C63.2225 168.626 58.1427 170.024 58.112 172.628C58.112 175.926 64.8373 176.763 67.2085 177.069C70.2551 177.502 73.3403 177.594 76.4073 177.345C82.0407 176.98 87.6339 176.147 93.1286 174.854L89.4798 160.162Z" fill="white"/>
<path d="M183.258 119.528L90.6211 143.512L105.948 202.585L198.585 178.601L183.258 119.528Z" fill="white"/>
<path d="M100.937 200.634C100.706 200.642 100.48 200.571 100.294 200.434C100.109 200.297 99.975 200.101 99.9151 199.878L84.5838 140.803C84.5489 140.673 84.54 140.538 84.5576 140.405C84.5751 140.272 84.6188 140.143 84.6861 140.027C84.8235 139.794 85.0477 139.625 85.3095 139.557L178.013 115.533C178.273 115.468 178.548 115.509 178.779 115.645C179.012 115.783 179.181 116.006 179.249 116.268L194.581 175.343C194.649 175.605 194.611 175.882 194.475 176.116C194.339 176.349 194.116 176.52 193.855 176.589L101.213 200.562C101.124 200.597 101.032 200.621 100.937 200.634V200.634ZM86.8631 141.283L101.673 198.377L192.342 174.894L177.532 117.8L86.8631 141.283Z" fill="#4F5A79"/>
<path d="M170.567 126.963L152.906 131.535L155.971 143.346L173.631 138.774L170.567 126.963Z" fill="#B9E8FD"/>
<path d="M157.416 135.348C157.145 135.382 156.871 135.307 156.655 135.139C156.44 134.972 156.3 134.726 156.266 134.455C156.232 134.184 156.307 133.911 156.475 133.696C156.643 133.48 156.889 133.34 157.16 133.306L172.921 129.222C173.051 129.188 173.186 129.181 173.32 129.199C173.453 129.218 173.581 129.263 173.697 129.331C173.813 129.399 173.914 129.49 173.995 129.597C174.076 129.705 174.134 129.827 174.168 129.957C174.236 130.219 174.198 130.496 174.062 130.73C173.926 130.963 173.703 131.133 173.442 131.203L157.671 135.287L157.416 135.348Z" fill="#4F5A79"/>
<path d="M158.857 139.934C158.723 139.951 158.587 139.941 158.456 139.905C158.326 139.869 158.204 139.808 158.097 139.725C157.99 139.642 157.901 139.539 157.834 139.422C157.767 139.304 157.724 139.175 157.707 139.041C157.69 138.907 157.7 138.771 157.736 138.64C157.772 138.51 157.833 138.388 157.916 138.281C157.999 138.175 158.102 138.085 158.22 138.019C158.338 137.952 158.467 137.909 158.601 137.892L174.372 133.808C174.503 133.774 174.638 133.767 174.771 133.785C174.904 133.804 175.033 133.849 175.149 133.917C175.264 133.985 175.366 134.076 175.446 134.183C175.527 134.291 175.586 134.413 175.619 134.543C175.684 134.805 175.644 135.081 175.506 135.312C175.368 135.544 175.144 135.711 174.883 135.779L159.113 139.863C159.032 139.902 158.946 139.926 158.857 139.934Z" fill="#4F5A79"/>
<path d="M187.927 151.89C187.656 151.924 187.383 151.849 187.167 151.681C186.951 151.514 186.811 151.268 186.777 150.997C186.744 150.726 186.819 150.453 186.986 150.237C187.154 150.022 187.401 149.882 187.672 149.848C198.301 147.102 205.732 144.08 212.519 139.75L213.541 139.097C216.055 137.555 220.746 134.686 220.777 132.164C220.823 131.848 220.795 131.525 220.694 131.222C220.593 130.919 220.422 130.644 220.194 130.418C219.029 129.581 216.024 130.653 214.236 131.286L213.214 131.644C213.013 131.711 212.796 131.715 212.592 131.654C212.389 131.593 212.21 131.471 212.08 131.304C211.95 131.136 211.875 130.933 211.865 130.721C211.856 130.51 211.913 130.3 212.028 130.122C212.74 129.108 213.586 128.195 214.542 127.407C216.035 126.059 217.312 124.895 217.343 123.067C217.362 122.655 217.279 122.244 217.1 121.872C216.922 121.5 216.654 121.177 216.321 120.933C215.861 120.62 215.333 120.419 214.781 120.346C214.229 120.273 213.668 120.331 213.142 120.515C211.338 121.284 209.832 122.617 208.849 124.313C208.714 124.55 208.49 124.723 208.226 124.795C207.962 124.867 207.681 124.831 207.444 124.696C207.207 124.56 207.033 124.336 206.961 124.073C206.889 123.81 206.925 123.529 207.061 123.292C207.929 121.628 210.75 115.828 210.801 110.927C210.801 110.152 210.72 108.804 210.035 108.497C208.655 107.895 204.679 110.254 200.591 114.113C196.911 117.584 193.436 121.056 190.81 125.344C190.012 126.682 189.031 128.029 188.091 129.336C186.675 131.161 185.443 133.121 184.411 135.187C184.357 135.309 184.279 135.42 184.182 135.513C184.085 135.605 183.97 135.678 183.845 135.726C183.719 135.775 183.586 135.798 183.451 135.795C183.317 135.791 183.185 135.762 183.062 135.707C182.939 135.653 182.828 135.575 182.736 135.478C182.643 135.381 182.57 135.267 182.522 135.141C182.473 135.016 182.45 134.883 182.453 134.749C182.457 134.614 182.486 134.482 182.541 134.36C183.621 132.159 184.926 130.075 186.435 128.142C187.396 126.814 188.295 125.558 189.051 124.292C191.77 119.749 195.399 116.124 199.18 112.592C202.247 109.753 207.705 105.21 210.853 106.588C212.202 107.17 212.897 108.63 212.897 110.907C212.768 113.727 212.177 116.507 211.149 119.136C211.603 118.865 212.086 118.645 212.59 118.483C213.424 118.204 214.312 118.125 215.182 118.253C216.052 118.381 216.88 118.711 217.598 119.218C218.188 119.656 218.663 120.23 218.982 120.892C219.301 121.553 219.454 122.282 219.428 123.016C219.428 125.436 217.936 127.008 216.474 128.356C218.283 127.897 220.133 127.743 221.431 128.673C221.938 129.08 222.335 129.607 222.586 130.206C222.838 130.805 222.936 131.457 222.872 132.103C222.872 135.758 217.762 138.883 214.696 140.761C214.317 140.996 213.97 141.2 213.674 141.394C206.693 145.836 199.088 148.939 188.234 151.747L187.927 151.89Z" fill="#4F5A79"/>
<path d="M73.3105 178.529C71.2322 178.515 69.1567 178.372 67.0962 178.1C64.3366 177.753 57.0594 176.834 57.1003 172.638C57.1003 170.596 59.0729 169.289 61.117 168.34C57.8566 167.911 54.034 166.961 53.85 163.306C53.6661 159.651 57.2024 159.059 60.0745 158.66C58.714 157.752 57.435 156.727 56.2519 155.597C51.5197 150.972 52.0512 147.94 53.3288 146.204C55.9249 142.682 61.8222 144.571 65.1031 146.01C69.3755 147.879 73.6989 150.258 77.8894 152.565C82.08 154.873 86.5873 157.364 90.9108 159.222C91.1371 159.343 91.3099 159.544 91.3947 159.786C91.4794 160.027 91.47 160.292 91.3683 160.528C91.2667 160.763 91.0802 160.951 90.8458 161.056C90.6115 161.16 90.3464 161.172 90.1033 161.09C85.6879 159.191 81.2214 156.731 76.898 154.352C72.7484 152.075 68.4658 149.706 64.2753 147.879C62.5684 147.123 56.8447 144.877 54.9743 147.419C53.5332 149.369 55.6489 152.146 57.6829 154.137C59.7168 156.128 62.7933 158.221 63.6007 157.976C63.8488 157.87 64.1289 157.867 64.3797 157.966C64.6306 158.066 64.8318 158.26 64.9396 158.507C64.9938 158.631 65.023 158.763 65.0255 158.898C65.0281 159.033 65.004 159.166 64.9546 159.292C64.9052 159.417 64.8315 159.531 64.7377 159.628C64.6439 159.725 64.5319 159.802 64.4081 159.855C63.2866 160.251 62.1187 160.502 60.9331 160.6C57.3762 161.08 55.8227 161.621 55.8942 163.204C56.0066 165.552 59.1444 166.083 62.9159 166.502C63.7223 166.569 64.5241 166.681 65.3178 166.839C65.5287 166.885 65.7194 166.997 65.8626 167.158C66.0058 167.32 66.0942 167.522 66.1151 167.737C66.1334 167.949 66.0852 168.161 65.9771 168.344C65.869 168.527 65.7064 168.672 65.512 168.758C65.1849 168.901 64.7556 169.064 64.2753 169.248C62.4866 169.922 59.1648 171.188 59.1648 172.648C59.1648 173.741 60.5753 175.211 67.3415 176.058C70.3199 176.485 73.3369 176.578 76.3359 176.334C77.9712 176.181 79.535 176.069 81.0579 175.946C85.3629 175.752 89.642 175.175 93.8442 174.221C93.9763 174.182 94.1148 174.171 94.2514 174.188C94.3879 174.204 94.5197 174.248 94.6388 174.317C94.758 174.386 94.862 174.478 94.9447 174.588C95.0274 174.697 95.087 174.823 95.1201 174.956C95.1531 175.09 95.1589 175.228 95.137 175.364C95.1151 175.5 95.066 175.629 94.9927 175.746C94.9193 175.862 94.8232 175.962 94.7102 176.04C94.5972 176.119 94.4695 176.173 94.3348 176.201C90.0221 177.185 85.6302 177.783 81.2112 177.988C79.6985 178.1 78.145 178.213 76.5301 178.376C75.4876 178.478 74.4246 178.529 73.3105 178.529Z" fill="#4F5A79"/>
<path d="M375.326 136.086C379.057 131.073 402.698 112.47 409.127 116.554C419.072 122.843 400.245 135.708 395.676 136.851C400.787 133.982 408.054 133.155 407.941 139.823C407.849 146.796 397.812 149.175 392.313 150.033C405.784 148.164 402.463 155.75 392.181 158.517C383.38 160.886 377.084 160.968 368.284 158.517L375.326 136.086Z" fill="white"/>
<path d="M275.55 105.231C274.957 99.0026 264.358 70.8943 256.774 71.0475C245 71.2925 254.444 92.0393 257.796 95.378C254.883 90.273 249.129 85.801 245.746 91.5595C242.22 97.5834 249.568 104.833 253.82 108.406C243.262 99.8296 242.169 108.038 249.538 115.727C255.834 122.302 261.179 125.63 269.979 128.111L275.55 105.231Z" fill="white"/>
<path d="M284.172 90.8984L266.348 154.714L366.43 182.609L384.254 118.794L284.172 90.8984Z" fill="#62BEFB"/>
<path d="M316.526 153.433C316.434 153.448 316.341 153.448 316.25 153.433C315.99 153.36 315.77 153.188 315.637 152.953L280.129 90.0084C279.997 89.7721 279.964 89.493 280.037 89.2324L280.743 86.7105C280.768 86.5709 280.822 86.4381 280.901 86.3206C280.981 86.203 281.084 86.1033 281.204 86.0278C281.325 85.9523 281.459 85.9026 281.6 85.882C281.74 85.8613 281.883 85.8702 282.02 85.9079C282.157 85.9457 282.285 86.0115 282.395 86.1012C282.505 86.1909 282.595 86.3025 282.659 86.429C282.724 86.5554 282.761 86.6939 282.769 86.8355C282.777 86.9771 282.755 87.1189 282.705 87.2517L282.112 89.3753L316.863 151.034L378.576 116.32L379.169 114.206C379.205 114.077 379.265 113.956 379.348 113.85C379.43 113.744 379.533 113.655 379.65 113.588C379.766 113.522 379.895 113.479 380.028 113.463C380.162 113.446 380.297 113.456 380.426 113.491C380.556 113.527 380.677 113.588 380.783 113.67C380.89 113.752 380.978 113.855 381.045 113.971C381.111 114.088 381.154 114.216 381.171 114.35C381.187 114.483 381.178 114.618 381.142 114.747L380.437 117.279C380.364 117.539 380.191 117.759 379.956 117.892L317.027 153.311C316.872 153.392 316.7 153.434 316.526 153.433Z" fill="#4F5A79"/>
<path d="M363.368 178.835C363.276 178.85 363.183 178.85 363.092 178.835L263.019 150.952C262.888 150.916 262.765 150.854 262.658 150.77C262.551 150.686 262.462 150.581 262.396 150.462C262.264 150.225 262.23 149.946 262.304 149.686L280.129 85.8832C280.165 85.7537 280.225 85.6326 280.308 85.5266C280.39 85.4206 280.493 85.3319 280.609 85.2655C280.726 85.1991 280.855 85.1564 280.988 85.1397C281.122 85.1231 281.257 85.1329 281.386 85.1685L381.469 113.062C381.729 113.136 381.949 113.31 382.081 113.545C382.213 113.78 382.246 114.058 382.174 114.318L364.349 178.131C364.282 178.337 364.15 178.517 363.974 178.644C363.797 178.77 363.585 178.837 363.368 178.835ZM264.553 149.226L362.673 176.569L379.946 114.716L281.826 87.3841L264.553 149.226Z" fill="#4F5A79"/>
<path d="M380.079 161.386C375.991 161.335 371.929 160.723 368.008 159.569C367.878 159.534 367.757 159.473 367.651 159.391C367.545 159.308 367.456 159.206 367.39 159.089C367.323 158.973 367.28 158.844 367.264 158.711C367.247 158.578 367.257 158.442 367.293 158.313C367.328 158.184 367.389 158.062 367.471 157.956C367.554 157.85 367.656 157.762 367.773 157.695C367.89 157.629 368.018 157.586 368.152 157.57C368.285 157.553 368.42 157.563 368.55 157.598C377.033 159.926 383.145 159.916 391.915 157.598C397.751 156.026 400.398 153.147 400.163 152.044C400.009 151.258 397.822 150.359 392.456 151.105C392.185 151.145 391.909 151.077 391.689 150.914C391.468 150.751 391.322 150.508 391.281 150.237C391.24 149.966 391.309 149.69 391.472 149.47C391.635 149.25 391.879 149.103 392.15 149.063C398.844 147.981 406.847 145.5 406.919 139.813C406.919 138.087 406.449 136.943 405.386 136.321C404.037 135.514 401.716 135.586 399.253 136.402C398.21 137.007 397.103 137.494 395.952 137.852C395.711 137.914 395.457 137.887 395.235 137.775C395.014 137.663 394.841 137.475 394.748 137.245C394.655 137.015 394.65 136.759 394.732 136.525C394.814 136.291 394.979 136.095 395.195 135.974C396.228 135.401 397.309 134.919 398.425 134.534C403.025 131.951 410.2 126.305 410.925 121.782C411.212 120.015 410.445 118.596 408.605 117.422C403.035 113.899 380.12 131.42 376.185 136.698C376.11 136.818 376.011 136.92 375.894 136.999C375.778 137.078 375.646 137.132 375.507 137.158C375.369 137.184 375.227 137.181 375.089 137.149C374.952 137.117 374.823 137.058 374.71 136.974C374.597 136.89 374.502 136.783 374.432 136.661C374.363 136.539 374.319 136.403 374.304 136.264C374.289 136.124 374.303 135.982 374.345 135.848C374.387 135.714 374.457 135.59 374.549 135.483C377.616 131.318 402.268 110.979 409.699 115.696C412.908 117.738 413.235 120.311 412.949 122.108C412.285 126.192 407.839 130.603 403.495 133.717C404.544 133.751 405.569 134.042 406.479 134.565C407.655 135.269 409.045 136.749 409.004 139.843C408.963 142.937 407.174 146.735 399.887 149.287C400.448 149.429 400.96 149.719 401.371 150.127C401.781 150.535 402.073 151.045 402.217 151.605C402.8 154.474 398.619 157.884 392.487 159.538C388.453 160.708 384.279 161.33 380.079 161.386V161.386Z" fill="#4F5A79"/>
<path d="M269.929 129.133C269.837 129.147 269.744 129.147 269.653 129.133C260.781 126.631 255.343 123.323 248.761 116.482C244.366 111.898 242.557 106.813 244.55 104.659C244.962 104.254 245.476 103.968 246.037 103.831C246.599 103.695 247.187 103.713 247.739 103.883C242.823 97.9306 243.273 93.7343 244.826 91.0797C246.38 88.425 248.322 87.8737 249.691 87.8737C250.741 87.9012 251.768 88.1814 252.686 88.6905C250.642 83.7897 249.047 77.7249 250.642 73.8757C251.327 72.1809 252.941 70.1491 256.774 70.0674H256.836C265.605 70.0674 276.081 100.024 276.582 105.17C276.608 105.439 276.525 105.707 276.353 105.916C276.18 106.125 275.932 106.257 275.662 106.282C275.393 106.308 275.124 106.226 274.915 106.053C274.706 105.881 274.574 105.633 274.548 105.364C273.915 98.8291 263.449 72.1094 256.856 72.1094C254.669 72.1094 253.279 72.9875 252.604 74.6415C250.887 78.8889 254.096 87.4142 256.693 91.9986C257.458 92.9029 258.142 93.8733 258.737 94.8982C258.861 95.1135 258.902 95.3666 258.853 95.6102C258.804 95.8538 258.668 96.0711 258.469 96.2214C258.271 96.3717 258.025 96.4446 257.777 96.4266C257.529 96.4086 257.296 96.3008 257.122 96.1234C256.327 95.2233 255.641 94.2329 255.078 93.1727C253.361 91.1307 251.408 89.9157 249.834 89.9055C248.618 89.9055 247.606 90.6304 246.768 92.1109C243.896 97.0117 249.456 103.27 254.628 107.651C254.731 107.737 254.815 107.843 254.877 107.962C254.939 108.081 254.977 108.211 254.988 108.345C254.999 108.479 254.984 108.613 254.944 108.741C254.903 108.869 254.837 108.988 254.751 109.09C254.578 109.296 254.33 109.425 254.062 109.45C253.794 109.475 253.528 109.393 253.32 109.223C249.109 105.813 246.778 105.445 246.237 106.037C245.47 106.864 246.237 110.693 250.417 115.053C256.692 121.597 261.915 124.773 270.388 127.162C270.648 127.236 270.868 127.409 271 127.645C271.133 127.88 271.166 128.158 271.094 128.418C271.022 128.66 270.863 128.866 270.648 128.998C270.433 129.13 270.177 129.178 269.929 129.133Z" fill="#4F5A79"/>
<path d="M37.36 304.534C34.815 303.043 32.5869 300.562 30.093 298.837C28.6008 297.816 21.4053 294.089 20.097 297.121C19.5757 298.347 21.763 301.052 22.5193 301.849C24.3489 303.748 26.761 304.279 28.8972 305.626C27.2312 306.198 24.2875 306.576 24.6964 308.781C25.1052 310.987 29.8068 312.865 31.851 312.202C26.5157 313.345 28.6314 316.959 32.6482 318.185C36.4606 319.338 40.5898 317.848 44.208 317.878L37.36 304.534Z" fill="white"/>
<path d="M87.5634 267.734L36.4297 296.527L54.8294 329.134L105.963 300.34L87.5634 267.734Z" fill="#EF6FFF"/>
<path d="M86.5734 273.239C85.9091 270.064 87.3707 255.515 92.7059 255.035C96.6614 254.678 93.728 267.001 92.7059 269.196C93.728 267.318 95.9766 264.255 98.4603 265.316C101.823 266.756 98.8384 271.116 97.6222 273.209C99.6663 272.035 101.639 270.697 103.622 272.188C105.921 273.913 105.267 276.854 104.031 279.131C101.986 282.878 97.5199 285.89 93.8097 287.983L86.5734 273.239Z" fill="white"/>
<path d="M72.8165 307.608C72.7538 307.67 72.6813 307.722 72.6019 307.761C72.3654 307.893 72.086 307.926 71.8251 307.853L32.4851 296.887C32.2253 296.814 32.0048 296.642 31.8719 296.407L31.1461 295.121C31.079 295.004 31.0356 294.875 31.0183 294.742C31.0009 294.609 31.0102 294.473 31.0453 294.343C31.1162 294.081 31.2885 293.857 31.5243 293.722C31.7601 293.587 32.0402 293.55 32.3028 293.621C32.5654 293.692 32.7891 293.864 32.9246 294.1L33.4458 295.029L71.3958 305.606L81.9847 267.697L81.4634 266.767C81.3963 266.651 81.3528 266.522 81.3355 266.389C81.3182 266.255 81.3273 266.12 81.3625 265.99C81.3976 265.86 81.458 265.738 81.5402 265.632C81.6224 265.525 81.7248 265.436 81.8416 265.369C81.9583 265.302 82.0872 265.258 82.2207 265.241C82.3543 265.224 82.49 265.233 82.62 265.268C82.75 265.303 82.8719 265.363 82.9786 265.445C83.0852 265.527 83.1747 265.63 83.2418 265.746L83.9675 267.043C84.0348 267.159 84.0784 267.288 84.096 267.421C84.1135 267.554 84.1046 267.689 84.0697 267.819L73.0925 307.118C73.044 307.302 72.949 307.471 72.8165 307.608V307.608Z" fill="#4F5A79"/>
<path d="M101.68 299.05C101.617 299.113 101.545 299.165 101.465 299.204L50.3612 327.996C50.1253 328.128 49.8465 328.162 49.5859 328.089C49.3254 328.016 49.1043 327.843 48.9711 327.608L30.5736 295.007C30.5065 294.89 30.4632 294.761 30.4464 294.627C30.4296 294.493 30.4396 294.357 30.4757 294.227C30.5118 294.097 30.5734 293.975 30.6568 293.869C30.7403 293.763 30.844 293.674 30.962 293.609L82.0662 264.816C82.3022 264.684 82.581 264.65 82.8415 264.723C83.1021 264.796 83.3232 264.969 83.4563 265.204L101.854 297.815C101.921 297.931 101.965 298.06 101.982 298.193C102 298.326 101.991 298.461 101.956 298.591C101.903 298.764 101.808 298.922 101.68 299.05V299.05ZM50.2079 325.719L99.5745 297.927L82.1991 267.103L32.8324 294.895L50.2079 325.719Z" fill="#4F5A79"/>
<path d="M102.335 283.134C100.474 284.771 98.4134 286.168 96.2022 287.289L95.8854 287.463C95.7686 287.53 95.6398 287.573 95.5062 287.591C95.3727 287.608 95.2369 287.599 95.1069 287.564C94.9769 287.529 94.8551 287.468 94.7484 287.386C94.6417 287.304 94.5523 287.202 94.4851 287.085C94.418 286.968 94.3746 286.84 94.3573 286.706C94.3399 286.573 94.3491 286.437 94.3842 286.308C94.4193 286.178 94.4797 286.056 94.5619 285.949C94.6441 285.843 94.7465 285.753 94.8633 285.686L95.1802 285.513C98.6246 283.573 101.313 282.041 103.203 278.652C104.001 277.181 105.053 274.496 103.081 273.005C101.834 272.066 100.567 272.72 98.6041 273.863L98.2055 274.088C98.0113 274.202 97.7847 274.249 97.5611 274.221C97.3374 274.194 97.1292 274.093 96.9688 273.935C96.8088 273.776 96.7061 273.568 96.6765 273.345C96.6469 273.121 96.6922 272.894 96.8053 272.699L97.1528 272.117C97.9909 270.708 99.4013 268.35 98.9925 267.073C98.9198 266.882 98.8049 266.709 98.6563 266.567C98.5077 266.426 98.3292 266.32 98.134 266.257C96.3965 265.511 94.4647 268.166 93.6879 269.667C93.5713 269.912 93.3621 270.101 93.1062 270.192C92.8503 270.283 92.5688 270.268 92.3235 270.152C92.0781 270.035 91.8892 269.826 91.7981 269.571C91.7071 269.315 91.7214 269.034 91.8379 268.789C92.768 266.634 94.5874 258.099 93.228 256.23C93.1881 256.161 93.1266 256.106 93.0528 256.075C92.979 256.044 92.8969 256.037 92.8191 256.057C92.3974 256.132 91.9966 256.297 91.644 256.54C91.2913 256.783 90.995 257.099 90.775 257.466C87.9949 261.213 87.0853 270.545 87.6065 273.036C87.6334 273.168 87.6341 273.303 87.6085 273.435C87.583 273.566 87.5318 273.692 87.4578 273.803C87.3837 273.915 87.2884 274.012 87.1771 274.087C87.0658 274.162 86.9408 274.214 86.8093 274.241C86.2574 274.353 85.4908 272.76 85.4601 272.311C85.2148 268.503 86.2676 260.059 89.1294 256.251C89.5199 255.647 90.0361 255.135 90.6429 254.749C91.2497 254.363 91.9328 254.113 92.6454 254.015C93.0775 253.967 93.5146 254.036 93.9104 254.216C94.3062 254.396 94.6461 254.679 94.8939 255.036C96.284 256.945 95.7729 261.407 95.0268 264.929C95.5721 264.5 96.2218 264.222 96.9095 264.125C97.5973 264.029 98.2984 264.116 98.9414 264.378C99.4106 264.549 99.8367 264.82 100.19 265.173C100.543 265.526 100.815 265.951 100.986 266.42C101.287 267.908 101.032 269.456 100.27 270.769C100.945 270.506 101.676 270.422 102.393 270.526C103.109 270.63 103.787 270.918 104.358 271.362C106.668 273.097 106.924 276.181 105.043 279.611C104.332 280.921 103.418 282.11 102.335 283.134V283.134Z" fill="#4F5A79"/>
<path d="M44.883 318.614C44.79 318.708 44.6784 318.782 44.5552 318.832C44.4321 318.881 44.3001 318.904 44.1676 318.9C42.8665 318.926 41.5687 319.042 40.2836 319.247C37.6773 319.604 34.9893 319.962 32.3216 319.155C29.47 318.287 27.5383 316.378 27.6098 314.52C27.6398 313.932 27.8584 313.37 28.2333 312.917C27.553 312.703 26.8984 312.415 26.2811 312.059C25.661 311.755 25.1108 311.326 24.6657 310.799C24.2205 310.272 23.89 309.658 23.6952 308.996C23.317 306.954 24.7786 305.984 26.2504 305.422L26.046 305.33C24.4636 304.694 23.0171 303.762 21.7839 302.584C21.4262 302.206 18.2679 298.827 19.1572 296.754C19.3278 296.356 19.588 296.002 19.9177 295.72C20.2475 295.439 20.6377 295.237 21.0582 295.131C24.1858 294.232 29.7766 297.408 30.6761 298.02C31.8078 298.841 32.8961 299.72 33.9365 300.654C34.8564 301.451 35.7456 302.216 36.6552 302.88C37.0539 303.176 37.3298 305.729 36.8392 305.443C35.329 304.492 33.9092 303.406 32.5976 302.196C31.6211 301.311 30.5976 300.479 29.5313 299.705C28.08 298.684 23.5317 296.55 21.6408 297.091C21.512 297.114 21.391 297.169 21.2892 297.251C21.1873 297.333 21.1079 297.44 21.0582 297.561C20.9458 298.061 22.0804 299.919 23.2762 301.175C24.3412 302.163 25.5824 302.942 26.9352 303.472C27.8044 303.86 28.6476 304.304 29.4598 304.8C29.6296 304.905 29.7646 305.058 29.8481 305.24C29.9317 305.421 29.9601 305.623 29.9299 305.821C29.9075 306.012 29.8313 306.193 29.7101 306.343C29.5889 306.493 29.4277 306.606 29.2451 306.668C28.9589 306.77 28.6217 306.862 28.223 306.964C26.1073 307.567 25.5452 307.985 25.6781 308.659C25.966 309.417 26.543 310.03 27.2827 310.364C28.4455 311.068 29.7869 311.423 31.1462 311.385L31.5755 311.283C31.8265 311.238 32.0854 311.288 32.3013 311.423C32.5173 311.559 32.6746 311.77 32.7425 312.016C32.8104 312.262 32.7839 312.524 32.6682 312.751C32.5525 312.978 32.3559 313.154 32.1172 313.243C31.9365 313.303 31.7522 313.351 31.5653 313.386C30.3797 313.703 29.6437 314.193 29.6233 314.683C29.6233 315.347 30.7169 316.623 32.894 317.286C35.071 317.95 37.5853 317.634 39.977 317.286C41.357 317.069 42.7503 316.946 44.1471 316.919C44.3505 316.92 44.5491 316.981 44.7173 317.095C44.8856 317.209 45.0159 317.371 45.0917 317.56C45.1674 317.748 45.1851 317.955 45.1425 318.154C45.0998 318.353 44.9988 318.534 44.8524 318.675L44.883 318.614Z" fill="#4F5A79"/>
<path d="M230.887 160.767C230.887 161.314 230.725 161.849 230.421 162.304C230.116 162.759 229.684 163.114 229.177 163.323C228.671 163.533 228.114 163.587 227.577 163.481C227.04 163.374 226.546 163.11 226.159 162.723C225.772 162.336 225.508 161.843 225.401 161.307C225.294 160.77 225.349 160.214 225.558 159.708C225.768 159.202 226.123 158.77 226.579 158.466C227.034 158.162 227.57 158 228.117 158C228.482 157.999 228.842 158.069 229.179 158.208C229.516 158.346 229.822 158.55 230.079 158.807C230.337 159.065 230.541 159.37 230.679 159.706C230.818 160.043 230.889 160.403 230.887 160.767V160.767Z" fill="#0390ED"/>
<path d="M125.54 222.767C125.54 223.314 125.377 223.849 125.073 224.304C124.769 224.759 124.336 225.114 123.83 225.323C123.324 225.533 122.767 225.587 122.229 225.481C121.692 225.374 121.199 225.11 120.811 224.723C120.424 224.336 120.16 223.843 120.053 223.307C119.946 222.77 120.001 222.214 120.211 221.708C120.42 221.202 120.775 220.77 121.231 220.466C121.686 220.162 122.222 220 122.77 220C123.134 219.999 123.495 220.069 123.831 220.208C124.168 220.346 124.474 220.55 124.731 220.807C124.989 221.065 125.193 221.37 125.332 221.706C125.47 222.043 125.541 222.403 125.54 222.767V222.767Z" fill="#EF6FFF"/>
<path d="M267.614 178.626C267.614 179.936 267.225 181.217 266.497 182.307C265.769 183.396 264.733 184.245 263.522 184.747C262.31 185.249 260.977 185.381 259.691 185.126C258.404 184.871 257.222 184.241 256.294 183.315C255.366 182.39 254.733 181.21 254.476 179.925C254.219 178.641 254.349 177.309 254.85 176.098C255.35 174.887 256.199 173.851 257.288 173.122C258.378 172.392 259.659 172.002 260.971 172C261.843 171.999 262.706 172.169 263.512 172.501C264.318 172.834 265.051 173.322 265.668 173.937C266.285 174.553 266.774 175.284 267.108 176.088C267.442 176.893 267.614 177.755 267.614 178.626V178.626Z" fill="#FBB85E"/>
<path d="M95.6143 84.6263C95.6143 85.9369 95.2253 87.218 94.4964 88.3077C93.7675 89.3974 92.7316 90.2467 91.5195 90.7482C90.3074 91.2498 88.9736 91.381 87.6869 91.1253C86.4002 90.8696 85.2182 90.2386 84.2905 89.3118C83.3628 88.3851 82.7311 87.2044 82.4751 85.919C82.2192 84.6337 82.3505 83.3013 82.8526 82.0905C83.3547 80.8797 84.2049 79.8448 85.2957 79.1167C86.3865 78.3886 87.669 78 88.981 78C90.7394 78.0027 92.425 78.7017 93.6684 79.9438C94.9118 81.1859 95.6116 82.8697 95.6143 84.6263V84.6263Z" fill="#62BEFB"/>
<path d="M66 232.5C66 233.588 65.6774 234.651 65.073 235.556C64.4687 236.46 63.6097 237.165 62.6048 237.581C61.5998 237.998 60.4939 238.107 59.427 237.894C58.3601 237.682 57.3801 237.158 56.6109 236.389C55.8418 235.62 55.3179 234.64 55.1057 233.573C54.8935 232.506 55.0024 231.4 55.4187 230.395C55.835 229.39 56.5399 228.531 57.4444 227.927C58.3488 227.323 59.4122 227 60.5 227C61.9587 227 63.3576 227.579 64.3891 228.611C65.4205 229.642 66 231.041 66 232.5V232.5Z" fill="#FBB85E"/>
<path d="M391.855 302.248C391.855 303.286 391.546 304.301 390.969 305.165C390.391 306.028 389.57 306.7 388.609 307.097C387.649 307.494 386.592 307.598 385.573 307.394C384.553 307.191 383.617 306.69 382.883 305.955C382.148 305.22 381.649 304.284 381.447 303.266C381.246 302.247 381.351 301.191 381.75 300.233C382.15 299.274 382.825 298.455 383.69 297.879C384.555 297.304 385.572 296.998 386.611 297C388.003 297.003 389.337 297.557 390.32 298.541C391.303 299.525 391.855 300.858 391.855 302.248V302.248Z" fill="#FBB85E"/>
<path d="M383.773 197.842C386.217 197.842 388.199 195.863 388.199 193.421C388.199 190.979 386.217 189 383.773 189C381.329 189 379.348 190.979 379.348 193.421C379.348 195.863 381.329 197.842 383.773 197.842Z" fill="#0390ED"/>
<path d="M327.773 44.8419C330.218 44.8419 332.199 42.8626 332.199 40.4209C332.199 37.9793 330.218 36 327.773 36C325.329 36 323.348 37.9793 323.348 40.4209C323.348 42.8626 325.329 44.8419 327.773 44.8419Z" fill="#0390ED"/>
<path d="M330.805 209.955H165.656V223.422H330.805V209.955Z" fill="#D2F0FF"/>
<path d="M330.805 223.422H165.656V325.042H330.805V223.422Z" fill="white"/>
<path d="M318.938 212H317.757C315.322 212 313.348 214.015 313.348 216.5C313.348 218.985 315.322 221 317.757 221H318.938C321.374 221 323.348 218.985 323.348 216.5C323.348 214.015 321.374 212 318.938 212Z" fill="white"/>
<path d="M325 229H174V292H325V229Z" fill="#FFEA80"/>
<path d="M320.13 297.235L307.548 291.762L294.956 286.279L296.499 299.91L298.053 313.54L304.768 308.578L316.236 321.586L322.501 316.96L313.415 302.197L320.13 297.235Z" fill="#EF6FFF"/>
<path d="M316.072 320.382C315.881 320.359 315.705 320.264 315.582 320.117L304.605 307.671L298.472 312.183C298.36 312.27 298.227 312.324 298.086 312.34C297.946 312.356 297.803 312.334 297.675 312.275C297.544 312.221 297.431 312.133 297.346 312.02C297.262 311.906 297.209 311.773 297.194 311.632L294.128 284.371C294.112 284.232 294.133 284.091 294.189 283.962C294.244 283.833 294.333 283.721 294.445 283.636C294.559 283.55 294.694 283.496 294.836 283.48C294.978 283.464 295.122 283.486 295.252 283.544L320.426 294.489C320.556 294.547 320.669 294.638 320.753 294.752C320.838 294.867 320.891 295.002 320.907 295.143C320.927 295.283 320.908 295.425 320.852 295.555C320.796 295.685 320.705 295.797 320.59 295.878L314.457 300.401L323.227 314.542C323.33 314.716 323.365 314.921 323.326 315.119C323.286 315.317 323.174 315.493 323.012 315.614L316.757 320.239C316.661 320.313 316.55 320.364 316.431 320.389C316.312 320.413 316.19 320.411 316.072 320.382V320.382ZM304.829 305.782C305.019 305.809 305.193 305.903 305.32 306.047L316.348 318.544L321.459 314.807L312.761 300.667C312.655 300.494 312.619 300.287 312.659 300.089C312.698 299.89 312.811 299.714 312.975 299.594L318.566 295.51L295.947 285.668L298.728 310.172L304.318 306.037C304.468 305.885 304.668 305.794 304.88 305.782H304.829Z" fill="#4F5A79"/>
<path d="M290.521 276.836C290.403 276.901 290.274 276.942 290.141 276.957C290.007 276.973 289.872 276.961 289.743 276.924C289.614 276.887 289.494 276.825 289.388 276.742C289.283 276.658 289.196 276.555 289.131 276.437L285.829 270.424C285.762 270.306 285.719 270.176 285.702 270.041C285.685 269.906 285.695 269.77 285.731 269.639C285.768 269.508 285.829 269.386 285.912 269.279C285.996 269.171 286.1 269.082 286.218 269.015C286.336 268.948 286.466 268.905 286.601 268.888C286.736 268.871 286.872 268.881 287.003 268.917C287.134 268.953 287.257 269.014 287.364 269.098C287.471 269.181 287.561 269.285 287.628 269.403L290.919 275.416C290.989 275.535 291.035 275.667 291.053 275.803C291.07 275.94 291.06 276.078 291.023 276.211C290.986 276.344 290.922 276.467 290.836 276.575C290.75 276.682 290.642 276.771 290.521 276.836Z" fill="#4F5A79"/>
<path d="M285.666 284.81C285.51 284.898 285.334 284.944 285.155 284.942L278.255 284.81C277.984 284.81 277.724 284.702 277.533 284.511C277.341 284.319 277.233 284.059 277.233 283.789C277.233 283.518 277.341 283.258 277.533 283.067C277.724 282.875 277.984 282.768 278.255 282.768L285.114 282.921C285.385 282.921 285.645 283.028 285.836 283.22C286.028 283.411 286.136 283.671 286.136 283.942C286.137 284.114 286.095 284.284 286.013 284.436C285.93 284.588 285.811 284.716 285.666 284.81V284.81Z" fill="#4F5A79"/>
<path d="M311.31 285.432C311.153 285.517 310.977 285.559 310.799 285.555L303.93 285.401C303.659 285.401 303.399 285.294 303.208 285.102C303.016 284.911 302.908 284.651 302.908 284.38C302.908 284.11 303.016 283.85 303.208 283.658C303.399 283.467 303.659 283.359 303.93 283.359L310.788 283.513C311.06 283.513 311.32 283.62 311.511 283.812C311.703 284.003 311.811 284.263 311.811 284.534C311.814 284.714 311.77 284.893 311.682 285.05C311.594 285.208 311.465 285.34 311.31 285.432Z" fill="#4F5A79"/>
<path d="M286.616 298.94C286.461 299.03 286.285 299.077 286.105 299.077C285.926 299.077 285.75 299.03 285.594 298.94C285.478 298.871 285.377 298.779 285.297 298.671C285.217 298.562 285.159 298.439 285.126 298.308C285.094 298.177 285.088 298.041 285.109 297.908C285.129 297.774 285.176 297.646 285.247 297.531L288.814 291.681C288.87 291.546 288.954 291.424 289.06 291.325C289.167 291.225 289.294 291.149 289.432 291.102C289.571 291.056 289.717 291.039 289.863 291.054C290.008 291.069 290.149 291.115 290.275 291.188C290.401 291.262 290.51 291.362 290.594 291.481C290.678 291.601 290.736 291.736 290.763 291.88C290.79 292.023 290.786 292.171 290.752 292.313C290.717 292.454 290.652 292.587 290.562 292.702L286.995 298.552C286.91 298.716 286.778 298.851 286.616 298.94V298.94Z" fill="#4F5A79"/>
<path d="M299.934 277.05C299.736 277.157 299.509 277.196 299.287 277.161C299.065 277.126 298.861 277.019 298.706 276.856C298.551 276.693 298.454 276.484 298.431 276.261C298.407 276.037 298.457 275.813 298.574 275.621L302.131 269.771C302.187 269.636 302.271 269.514 302.377 269.414C302.484 269.315 302.611 269.239 302.749 269.192C302.888 269.146 303.035 269.129 303.18 269.144C303.325 269.159 303.466 269.205 303.592 269.278C303.718 269.352 303.827 269.452 303.911 269.571C303.996 269.69 304.053 269.826 304.08 269.97C304.108 270.113 304.104 270.261 304.069 270.402C304.034 270.544 303.969 270.677 303.879 270.792L300.312 276.642C300.23 276.813 300.099 276.956 299.934 277.05V277.05Z" fill="#4F5A79"/>
<path d="M408.171 264.751C407.936 264.758 407.706 264.683 407.52 264.54C407.334 264.396 407.203 264.194 407.149 263.965L396.162 218.99C396.1 218.727 396.145 218.451 396.287 218.221C396.429 217.992 396.655 217.828 396.918 217.765L461.432 202.031C461.694 201.97 461.969 202.014 462.198 202.154C462.315 202.223 462.416 202.314 462.497 202.423C462.578 202.532 462.636 202.655 462.669 202.787L473.656 247.762C473.688 247.893 473.694 248.028 473.673 248.161C473.652 248.294 473.605 248.422 473.535 248.537C473.465 248.651 473.372 248.751 473.263 248.83C473.154 248.909 473.031 248.966 472.9 248.997L408.406 264.721L408.171 264.751ZM398.42 219.5L408.927 262.495L471.448 247.251L460.951 204.257L398.42 219.5Z" fill="#4F5A79"/>
<path d="M191.25 258.16C192.15 258.16 192.87 257.94 193.62 257.47L193.42 257.18C192.72 257.6 192.09 257.79 191.28 257.79C189.35 257.79 187.84 256.26 187.84 254.4C187.84 252.34 189.53 250.63 191.6 250.63C193.5 250.63 194.97 252.03 194.97 253.75C194.97 255.04 194.36 255.6 193.83 255.6C193.47 255.6 193.24 255.38 193.24 255.01C193.24 254.68 193.44 253.84 193.76 252.18L192.73 252.1L192.61 252.7C192.38 252.3 191.95 251.96 191.28 251.96C190.12 251.96 189 253.07 189 254.45C189 255.52 189.69 256.24 190.68 256.24C191.31 256.24 191.84 255.91 192.2 255.43C192.35 255.93 192.75 256.25 193.41 256.25C194.34 256.25 195.37 255.45 195.37 253.75C195.37 251.86 193.73 250.25 191.62 250.25C189.34 250.25 187.44 252.15 187.44 254.41C187.44 256.47 189.13 258.16 191.25 258.16ZM191.02 255.37C190.46 255.37 190.08 254.98 190.08 254.38C190.08 253.56 190.7 252.83 191.49 252.83C192.12 252.83 192.43 253.26 192.37 253.92C192.29 254.74 191.78 255.37 191.02 255.37ZM202.439 251.71C201.669 251.71 201.019 252.09 200.769 252.69C200.449 252.08 199.849 251.71 199.119 251.71C198.469 251.71 197.939 252.03 197.679 252.53V251.83H196.459V257H197.679V253.83C197.679 253.2 198.149 252.75 198.809 252.75C199.409 252.75 199.819 253.23 199.819 253.91V257H201.009V253.83C201.009 253.2 201.469 252.75 202.139 252.75C202.729 252.75 203.139 253.23 203.139 253.91V257H204.329V253.71C204.329 252.54 203.519 251.71 202.439 251.71ZM206.699 258.8C207.479 258.79 208.079 258.34 208.469 257.36L210.659 251.83H209.399L207.979 255.69L206.469 251.83H205.179L207.369 257.04L207.149 257.5C206.999 257.75 206.779 257.84 206.489 257.84C206.299 257.84 206.049 257.77 205.829 257.65L205.569 258.53C205.879 258.7 206.309 258.8 206.699 258.8ZM215.565 250.01V252.63C215.155 252.05 214.535 251.71 213.775 251.71C212.405 251.71 211.405 252.83 211.405 254.41C211.405 256 212.405 257.12 213.775 257.12C214.535 257.12 215.155 256.78 215.565 256.2V257H216.785V250.01H215.565ZM214.105 256.08C213.235 256.08 212.615 255.38 212.615 254.41C212.615 253.44 213.235 252.75 214.105 252.75C214.965 252.75 215.565 253.44 215.565 254.41C215.565 255.38 214.965 256.08 214.105 256.08ZM220.658 257.12C222.158 257.12 223.428 255.88 223.428 254.41C223.428 252.94 222.158 251.71 220.658 251.71C219.158 251.71 217.888 252.94 217.888 254.41C217.888 255.88 219.158 257.12 220.658 257.12ZM220.658 256.08C219.798 256.08 219.078 255.32 219.078 254.41C219.078 253.51 219.798 252.75 220.658 252.75C221.508 252.75 222.228 253.51 222.228 254.41C222.228 255.32 221.508 256.08 220.658 256.08ZM230.456 251.71C229.686 251.71 229.036 252.09 228.786 252.69C228.466 252.08 227.866 251.71 227.136 251.71C226.486 251.71 225.956 252.03 225.696 252.53V251.83H224.476V257H225.696V253.83C225.696 253.2 226.166 252.75 226.826 252.75C227.426 252.75 227.836 253.23 227.836 253.91V257H229.026V253.83C229.026 253.2 229.486 252.75 230.156 252.75C230.746 252.75 231.156 253.23 231.156 253.91V257H232.346V253.71C232.346 252.54 231.536 251.71 230.456 251.71ZM235.916 251.71C235.266 251.71 234.586 251.89 233.856 252.25L234.276 253.1C234.716 252.88 235.186 252.71 235.676 252.71C236.616 252.71 236.946 253.29 236.946 253.89V254.03C236.476 253.85 235.966 253.75 235.496 253.75C234.336 253.75 233.386 254.45 233.386 255.47C233.386 256.47 234.216 257.12 235.316 257.12C235.916 257.12 236.566 256.86 236.946 256.38V257H238.136V253.89C238.136 252.58 237.286 251.71 235.916 251.71ZM235.586 256.23C235.006 256.23 234.576 255.92 234.576 255.43C234.576 254.94 235.066 254.6 235.676 254.6C236.136 254.6 236.566 254.67 236.946 254.8V255.38C236.806 255.93 236.176 256.23 235.586 256.23ZM240.077 251.05C240.457 251.05 240.767 250.72 240.767 250.35C240.767 249.98 240.457 249.66 240.077 249.66C239.687 249.66 239.377 249.98 239.377 250.35C239.377 250.72 239.687 251.05 240.077 251.05ZM239.457 257H240.677V251.83H239.457V257ZM244.845 251.71C244.165 251.71 243.565 252.04 243.245 252.52V251.83H242.025V257H243.245V253.73C243.325 253.18 243.855 252.75 244.495 252.75C245.135 252.75 245.585 253.25 245.585 253.95V257H246.765V253.71C246.765 252.54 245.975 251.71 244.845 251.71ZM248.83 257.12C249.25 257.12 249.6 256.76 249.6 256.32C249.6 255.91 249.25 255.55 248.83 255.55C248.37 255.55 248.03 255.91 248.03 256.32C248.03 256.76 248.37 257.12 248.83 257.12ZM256.833 251.71C256.063 251.71 255.413 252.09 255.163 252.69C254.843 252.08 254.243 251.71 253.513 251.71C252.863 251.71 252.333 252.03 252.073 252.53V251.83H250.853V257H252.073V253.83C252.073 253.2 252.543 252.75 253.203 252.75C253.803 252.75 254.213 253.23 254.213 253.91V257H255.403V253.83C255.403 253.2 255.863 252.75 256.533 252.75C257.123 252.75 257.533 253.23 257.533 253.91V257H258.723V253.71C258.723 252.54 257.913 251.71 256.833 251.71ZM262.543 257.12C264.043 257.12 265.313 255.88 265.313 254.41C265.313 252.94 264.043 251.71 262.543 251.71C261.043 251.71 259.773 252.94 259.773 254.41C259.773 255.88 261.043 257.12 262.543 257.12ZM262.543 256.08C261.683 256.08 260.963 255.32 260.963 254.41C260.963 253.51 261.683 252.75 262.543 252.75C263.393 252.75 264.113 253.51 264.113 254.41C264.113 255.32 263.393 256.08 262.543 256.08ZM266.161 257H270.531V255.93H267.751L270.501 252.72L270.511 251.83H266.221V252.9H268.901L266.161 256.11V257ZM277.605 251.71C276.835 251.71 276.185 252.09 275.935 252.69C275.615 252.08 275.015 251.71 274.285 251.71C273.635 251.71 273.105 252.03 272.845 252.53V251.83H271.625V257H272.845V253.83C272.845 253.2 273.315 252.75 273.975 252.75C274.575 252.75 274.985 253.23 274.985 253.91V257H276.175V253.83C276.175 253.2 276.635 252.75 277.305 252.75C277.895 252.75 278.305 253.23 278.305 253.91V257H279.495V253.71C279.495 252.54 278.685 251.71 277.605 251.71ZM283.065 251.71C282.415 251.71 281.735 251.89 281.005 252.25L281.425 253.1C281.865 252.88 282.335 252.71 282.825 252.71C283.765 252.71 284.095 253.29 284.095 253.89V254.03C283.625 253.85 283.115 253.75 282.645 253.75C281.485 253.75 280.535 254.45 280.535 255.47C280.535 256.47 281.365 257.12 282.465 257.12C283.065 257.12 283.715 256.86 284.095 256.38V257H285.285V253.89C285.285 252.58 284.435 251.71 283.065 251.71ZM282.735 256.23C282.155 256.23 281.725 255.92 281.725 255.43C281.725 254.94 282.215 254.6 282.825 254.6C283.285 254.6 283.715 254.67 284.095 254.8V255.38C283.955 255.93 283.325 256.23 282.735 256.23ZM287.226 251.05C287.606 251.05 287.916 250.72 287.916 250.35C287.916 249.98 287.606 249.66 287.226 249.66C286.836 249.66 286.526 249.98 286.526 250.35C286.526 250.72 286.836 251.05 287.226 251.05ZM286.606 257H287.826V251.83H286.606V257ZM289.174 257H290.394V250.01H289.174V257ZM292.482 257.12C292.902 257.12 293.252 256.76 293.252 256.32C293.252 255.91 292.902 255.55 292.482 255.55C292.022 255.55 291.682 255.91 291.682 256.32C291.682 256.76 292.022 257.12 292.482 257.12ZM297.006 257.12C297.826 257.12 298.516 256.78 299.016 256.25L298.196 255.54C297.906 255.87 297.466 256.08 297.016 256.08C296.166 256.08 295.456 255.32 295.456 254.41C295.456 253.51 296.166 252.75 297.016 252.75C297.456 252.75 297.886 252.96 298.166 253.27L298.986 252.55C298.496 252.04 297.806 251.71 297.026 251.71C295.516 251.71 294.246 252.94 294.246 254.41C294.246 255.88 295.516 257.12 297.006 257.12ZM302.367 257.12C303.867 257.12 305.137 255.88 305.137 254.41C305.137 252.94 303.867 251.71 302.367 251.71C300.867 251.71 299.597 252.94 299.597 254.41C299.597 255.88 300.867 257.12 302.367 257.12ZM302.367 256.08C301.507 256.08 300.787 255.32 300.787 254.41C300.787 253.51 301.507 252.75 302.367 252.75C303.217 252.75 303.937 253.51 303.937 254.41C303.937 255.32 303.217 256.08 302.367 256.08ZM312.165 251.71C311.395 251.71 310.745 252.09 310.495 252.69C310.175 252.08 309.575 251.71 308.845 251.71C308.195 251.71 307.665 252.03 307.405 252.53V251.83H306.185V257H307.405V253.83C307.405 253.2 307.875 252.75 308.535 252.75C309.135 252.75 309.545 253.23 309.545 253.91V257H310.735V253.83C310.735 253.2 311.195 252.75 311.865 252.75C312.455 252.75 312.865 253.23 312.865 253.91V257H314.055V253.71C314.055 252.54 313.245 251.71 312.165 251.71Z" fill="black"/>
</svg>
