<svg width="474" height="403" viewBox="0 0 474 403" fill="none" xmlns="http://www.w3.org/2000/svg">
<ellipse cx="156.161" cy="161.407" rx="136.5" ry="109.5" transform="rotate(-7.0099 156.161 161.407)" fill="#F0F9FC"/>
<ellipse cx="293.789" cy="125.34" rx="136.5" ry="109.5" transform="rotate(-7.0099 293.789 125.34)" fill="#F0F9FC"/>
<ellipse cx="164.872" cy="301.893" rx="95" ry="86" transform="rotate(-7.0099 164.872 301.893)" fill="#F0F9FC"/>
<ellipse cx="310.212" cy="254.804" rx="95" ry="86" transform="rotate(-7.0099 310.212 254.804)" fill="#F0F9FC"/>
<path d="M326.259 84.1202L317.141 126.919L378.4 139.999L387.519 97.2004L326.259 84.1202Z" fill="white"/>
<path d="M378.393 141.111H378.159L316.873 128.004C316.586 127.939 316.337 127.765 316.178 127.518C316.019 127.271 315.964 126.971 316.024 126.684L325.139 83.8842C325.201 83.5956 325.374 83.3431 325.621 83.1818C325.868 83.0205 326.169 82.9634 326.458 83.0231L387.721 96.1079C388.01 96.1688 388.263 96.3417 388.425 96.5888C388.586 96.8367 388.642 97.1383 388.581 97.4276L379.432 140.227C379.381 140.469 379.251 140.686 379.063 140.846C378.875 141.006 378.64 141.099 378.393 141.111V141.111ZM318.459 126.046L377.533 138.661L386.135 98.0538L327.061 85.4499L318.459 126.046Z" fill="#4F5A79"/>
<path d="M367.66 98.7121L365.375 109.439L388.592 114.397L390.878 103.669L367.66 98.7121Z" fill="#FBB85E"/>
<path d="M375.467 124.827H375.221L358.855 121.148C358.705 121.124 358.562 121.069 358.434 120.987C358.305 120.905 358.195 120.798 358.11 120.672C358.024 120.546 357.966 120.404 357.937 120.255C357.908 120.106 357.91 119.952 357.943 119.803C357.976 119.655 358.039 119.514 358.127 119.391C358.216 119.267 358.329 119.163 358.459 119.085C358.59 119.007 358.735 118.956 358.885 118.936C359.036 118.915 359.189 118.926 359.336 118.967L375.713 122.591C376.009 122.623 376.28 122.772 376.467 123.005C376.653 123.238 376.74 123.536 376.707 123.832C376.674 124.129 376.525 124.4 376.293 124.587C376.06 124.774 375.763 124.86 375.467 124.827V124.827Z" fill="#4F5A79"/>
<path d="M374.785 130.218H374.54L358.207 126.505C357.92 126.438 357.672 126.261 357.515 126.011C357.358 125.762 357.306 125.461 357.369 125.174C357.433 124.885 357.609 124.633 357.858 124.474C358.108 124.314 358.41 124.26 358.699 124.324L375.076 128.003C375.219 128.036 375.354 128.097 375.474 128.182C375.593 128.268 375.695 128.376 375.773 128.5C375.85 128.625 375.903 128.764 375.927 128.909C375.951 129.054 375.947 129.202 375.914 129.345C375.856 129.599 375.713 129.826 375.507 129.985C375.301 130.144 375.045 130.226 374.785 130.218Z" fill="#4F5A79"/>
<path d="M346.555 102.94H346.298L330.379 99.1043C330.236 99.0705 330.101 99.0089 329.982 98.9229C329.862 98.8369 329.761 98.7282 329.684 98.6031C329.528 98.3503 329.478 98.0459 329.547 97.7567C329.615 97.4675 329.795 97.2172 330.047 97.061C330.3 96.9047 330.604 96.8553 330.893 96.9235L346.812 100.704C347.108 100.738 347.379 100.888 347.564 101.122C347.75 101.356 347.835 101.654 347.8 101.951C347.766 102.247 347.616 102.518 347.382 102.704C347.149 102.889 346.851 102.974 346.555 102.94V102.94Z" fill="#4F5A79"/>
<path d="M13.3102 198.007L1.10938 236.816L61.8489 255.953L74.0497 217.144L13.3102 198.007Z" fill="white"/>
<path d="M33.6784 240.637C33.5674 240.654 33.4544 240.654 33.3433 240.637C33.2028 240.594 33.0723 240.523 32.9592 240.429C32.8461 240.335 32.7526 240.219 32.6842 240.089L12.2071 200.757C12.0698 200.495 12.0417 200.189 12.1289 199.907L12.6093 198.363C12.6526 198.222 12.7234 198.09 12.8178 197.976C12.9122 197.863 13.0282 197.769 13.1591 197.7C13.29 197.631 13.4333 197.589 13.5805 197.576C13.7277 197.564 13.876 197.58 14.0169 197.625C14.1572 197.67 14.2873 197.741 14.3998 197.836C14.5124 197.931 14.605 198.048 14.6725 198.179C14.74 198.31 14.7809 198.453 14.793 198.599C14.8051 198.746 14.7881 198.894 14.743 199.034L14.4079 200.153L34.1476 238.076L72.0408 218.27L72.376 217.152C72.4204 217.011 72.4921 216.881 72.587 216.768C72.6819 216.656 72.7981 216.563 72.9289 216.495C73.0597 216.428 73.2025 216.387 73.3492 216.375C73.4959 216.363 73.6435 216.38 73.7836 216.425C74.0644 216.515 74.2983 216.712 74.4343 216.974C74.5703 217.236 74.5975 217.541 74.5097 217.823L74.0293 219.366C73.9392 219.646 73.7425 219.879 73.482 220.015L34.1923 240.514C34.0333 240.596 33.8571 240.638 33.6784 240.637Z" fill="#4F5A79"/>
<path d="M61.8527 257.132C61.7417 257.149 61.6287 257.149 61.5176 257.132L0.790112 237.997C0.648792 237.954 0.517478 237.883 0.403745 237.788C0.290011 237.694 0.196141 237.578 0.127563 237.447C0.0589854 237.316 0.0170467 237.172 0.00421742 237.025C-0.00861187 236.878 0.00789794 236.729 0.0527989 236.588L12.2631 197.781C12.3065 197.64 12.3772 197.51 12.4711 197.396C12.565 197.283 12.6804 197.19 12.8105 197.121C13.0736 196.987 13.3788 196.963 13.6595 197.054L74.3982 216.189C74.679 216.279 74.9129 216.477 75.0489 216.738C75.1849 217 75.212 217.305 75.1243 217.587L62.9252 256.405C62.8792 256.545 62.8062 256.674 62.7104 256.785C62.6145 256.897 62.4977 256.988 62.3666 257.054C62.2047 257.123 62.0279 257.15 61.8527 257.132V257.132ZM2.52169 236.163L61.1266 254.627L72.6778 217.934L14.0729 199.459L2.52169 236.163Z" fill="#4F5A79"/>
<path d="M399.586 296.099L348 309.426L356.497 342.389L408.083 329.062L399.586 296.099Z" fill="white"/>
<path d="M384.707 325.958C384.506 325.958 384.309 325.904 384.137 325.801L352.22 306.957C351.966 306.806 351.781 306.561 351.706 306.274L351.36 304.966C351.323 304.824 351.315 304.675 351.335 304.529C351.356 304.384 351.405 304.243 351.479 304.117C351.554 303.99 351.653 303.879 351.771 303.791C351.888 303.702 352.022 303.638 352.164 303.602C352.307 303.565 352.455 303.556 352.6 303.577C352.746 303.597 352.886 303.646 353.013 303.721C353.139 303.796 353.25 303.895 353.338 304.013C353.427 304.13 353.491 304.264 353.527 304.407L353.751 305.257L384.316 323.307L402.346 292.709L402.123 291.859C402.086 291.716 402.078 291.568 402.098 291.422C402.119 291.277 402.168 291.137 402.243 291.01C402.317 290.883 402.416 290.772 402.534 290.684C402.651 290.596 402.785 290.531 402.927 290.494C403.069 290.458 403.217 290.449 403.363 290.47C403.508 290.491 403.648 290.54 403.775 290.615C403.902 290.689 404.012 290.788 404.101 290.906C404.189 291.023 404.253 291.157 404.29 291.3L404.625 292.608C404.696 292.893 404.651 293.194 404.502 293.447L385.667 325.41C385.517 325.665 385.272 325.85 384.986 325.924C384.894 325.947 384.801 325.958 384.707 325.958Z" fill="#4F5A79"/>
<path d="M360.442 338.528C360.188 338.536 359.939 338.457 359.736 338.305C359.533 338.152 359.388 337.935 359.325 337.689L350.834 304.731C350.759 304.445 350.801 304.141 350.949 303.885C351.098 303.629 351.342 303.443 351.628 303.367L403.217 290.036C403.359 289.999 403.507 289.99 403.653 290.011C403.799 290.031 403.939 290.08 404.065 290.155C404.192 290.23 404.303 290.329 404.391 290.447C404.479 290.564 404.543 290.698 404.58 290.841L413.115 323.844C413.186 324.13 413.141 324.433 412.991 324.686C412.84 324.94 412.596 325.123 412.31 325.197L360.721 338.494L360.442 338.528ZM353.303 305.246L361.246 336.045L410.657 323.285L402.725 292.53L353.303 305.246Z" fill="#4F5A79"/>
<path d="M155.19 351.994C153.797 353.736 151.981 355.091 149.917 355.931C144.51 358.347 138.165 356.434 135.338 350.104C132.311 343.305 134.411 335.331 141.728 332.065C142.971 331.442 144.329 331.084 145.717 331.013C147.105 330.942 148.492 331.16 149.792 331.653C151.091 332.146 152.275 332.903 153.267 333.877C154.26 334.85 155.04 336.02 155.558 337.31C157.793 342.265 156.296 346.403 153.201 347.789C151.883 348.371 150.263 348.024 149.459 345.978L149.336 346.034C149.296 347.093 148.961 348.121 148.369 349C147.777 349.879 146.951 350.576 145.985 351.01C144.074 351.86 141.739 351.01 140.578 348.438C140.115 347.412 139.86 346.303 139.828 345.178C139.796 344.052 139.987 342.931 140.39 341.88C140.793 340.828 141.4 339.868 142.176 339.052C142.952 338.237 143.882 337.585 144.912 337.131C146.115 336.575 147.419 336.274 148.744 336.248L150.274 342.723C150.9 345.452 151.816 346.436 152.911 345.978C154.609 345.262 155.491 342.175 153.782 338.35C151.648 333.564 147.258 331.417 142.153 333.698C136.779 336.091 134.154 342.365 137.148 349.064C139.595 354.578 144.7 356.367 149.582 354.186C151.327 353.459 152.864 352.305 154.05 350.831L155.19 351.994ZM147.024 338.574C146.423 338.662 145.836 338.831 145.281 339.077C142.376 340.375 141.259 344.155 142.678 347.353C143.337 348.807 144.521 349.59 146.029 348.897C147.94 348.047 148.599 344.826 148.051 342.611L147.024 338.574Z" fill="#505B7A"/>
<path d="M82.74 112.618L41.4824 133.147L54.5711 159.509L95.8287 138.979L82.74 112.618Z" fill="white"/>
<path d="M53.6286 160.375C53.5008 160.376 53.3754 160.341 53.2663 160.275C53.1573 160.208 53.0691 160.112 53.0116 159.998L39.9232 133.635C39.8798 133.554 39.8531 133.465 39.8447 133.373C39.8363 133.282 39.8463 133.189 39.8742 133.102C39.9021 133.014 39.9472 132.933 40.007 132.863C40.0668 132.794 40.14 132.737 40.2222 132.696C40.3044 132.655 40.394 132.631 40.4856 132.625C40.5773 132.62 40.6691 132.633 40.7557 132.663C40.8422 132.694 40.9218 132.741 40.9896 132.803C41.0574 132.865 41.1121 132.94 41.1504 133.024L53.9371 158.769L93.9633 138.865L81.1766 113.112C81.0957 112.95 81.0828 112.761 81.1407 112.589C81.1985 112.416 81.3224 112.274 81.4851 112.193C81.6479 112.112 81.836 112.099 82.0083 112.157C82.1806 112.215 82.3228 112.339 82.4038 112.502L95.499 138.865C95.5339 138.949 95.5519 139.038 95.5519 139.129C95.5519 139.22 95.5339 139.31 95.499 139.393C95.4405 139.564 95.3174 139.704 95.1562 139.785L53.9029 160.321C53.8162 160.358 53.7228 160.376 53.6286 160.375V160.375Z" fill="#4F5A79"/>
<path d="M49.1076 137.938C48.9791 137.939 48.8531 137.903 48.744 137.835C48.6349 137.767 48.5471 137.67 48.4905 137.554L38.0486 116.352C37.9838 116.182 37.9838 115.994 38.0486 115.824C38.1088 115.652 38.2346 115.511 38.3983 115.432L69.5252 100.072C69.6879 99.9907 69.8761 99.9778 70.0484 100.036C70.2206 100.094 70.3629 100.218 70.4439 100.38L80.8241 121.459C80.9041 121.623 80.9158 121.812 80.8566 121.984C80.7975 122.156 80.6723 122.298 80.5087 122.379C80.345 122.459 80.1563 122.47 79.984 122.411C79.8117 122.352 79.67 122.227 79.59 122.063L69.5183 101.609L39.6118 116.359L49.7452 136.95C49.826 137.113 49.8389 137.301 49.7811 137.474C49.7232 137.646 49.5994 137.789 49.4367 137.87C49.3339 137.918 49.2211 137.942 49.1076 137.938V137.938Z" fill="#4F5A79"/>
<path d="M74.8115 144.249L51.5006 136.527L41.6826 116.588L72.8163 101.228L82.7509 121.414L74.8115 144.249Z" fill="#EF6FFF"/>
<path d="M72.2947 145.44C72.2223 145.442 72.1502 145.43 72.0822 145.406L41.4147 135.323C41.3279 135.296 41.2474 135.251 41.1779 135.192C41.1085 135.133 41.0515 135.061 41.0102 134.98L39.92 132.77C39.8851 132.686 39.8672 132.596 39.8672 132.506C39.8672 132.415 39.8851 132.325 39.92 132.241L50.4031 101.677C50.4623 101.507 50.5862 101.367 50.7478 101.287C50.9095 101.208 51.096 101.195 51.2669 101.252L81.9344 111.328C82.0206 111.357 82.1001 111.403 82.1684 111.463C82.2367 111.523 82.2923 111.596 82.3321 111.678L83.4291 113.888C83.464 113.972 83.4819 114.061 83.4819 114.152C83.4819 114.243 83.464 114.333 83.4291 114.416L72.9392 144.98C72.8924 145.114 72.8053 145.23 72.6899 145.313C72.5745 145.395 72.4364 145.439 72.2947 145.44V145.44ZM42.1277 134.108L71.8353 143.861L82.0099 114.21L81.2008 112.495L51.4452 102.714L41.2707 132.399L42.1277 134.108Z" fill="#4F5A79"/>
<path d="M91.3329 49.1626C91.3329 50.5792 90.9126 51.964 90.1252 53.1419C89.3377 54.3198 88.2184 55.2378 86.9089 55.7799C85.5994 56.3221 84.1585 56.4639 82.7683 56.1875C81.3782 55.9111 80.1013 55.229 79.099 54.2273C78.0968 53.2256 77.4142 51.9493 77.1377 50.5599C76.8612 49.1705 77.0031 47.7303 77.5455 46.4215C78.0879 45.1127 79.0065 43.9941 80.185 43.2071C81.3635 42.4201 82.7491 42 84.1665 42C85.1076 42 86.0394 42.1852 86.9089 42.5452C87.7784 42.9051 88.5684 43.4327 89.2339 44.0978C89.8993 44.7629 90.4272 45.5525 90.7874 46.4215C91.1475 47.2905 91.3329 48.2219 91.3329 49.1626Z" fill="#FFEA80"/>
<path d="M299.641 54.807C299.643 55.7604 299.362 56.6929 298.833 57.4865C298.305 58.2802 297.553 58.8993 296.672 59.2656C295.792 59.6319 294.822 59.7289 293.886 59.5442C292.951 59.3595 292.091 58.9014 291.416 58.2281C290.74 57.5548 290.28 56.6964 290.093 55.7615C289.907 54.8267 290.001 53.8575 290.366 52.9765C290.73 52.0956 291.348 51.3425 292.141 50.8127C292.934 50.2828 293.866 50 294.82 50C296.097 50 297.321 50.5061 298.225 51.4073C299.129 52.3085 299.638 53.5312 299.641 54.807V54.807Z" fill="#F36FFF"/>
<path d="M398 44.4834C398.003 45.9675 397.566 47.4192 396.744 48.6547C395.922 49.8902 394.752 50.8541 393.382 51.4243C392.012 51.9945 390.503 52.1454 389.047 51.8579C387.591 51.5704 386.253 50.8574 385.203 49.8091C384.152 48.7609 383.436 47.4246 383.145 45.9693C382.855 44.514 383.002 43.0051 383.569 41.6337C384.137 40.2623 385.098 39.09 386.332 38.2651C387.565 37.4403 389.016 37 390.5 37C392.486 37 394.391 37.7879 395.797 39.1909C397.203 40.5938 397.996 42.4972 398 44.4834V44.4834Z" fill="#FBB85E"/>
<path d="M387.624 212.808C387.624 213.957 387.283 215.08 386.645 216.035C386.006 216.991 385.098 217.735 384.036 218.175C382.974 218.614 381.806 218.729 380.678 218.505C379.551 218.281 378.515 217.728 377.702 216.915C376.89 216.103 376.336 215.068 376.112 213.941C375.887 212.814 376.003 211.646 376.442 210.585C376.882 209.524 377.627 208.616 378.583 207.978C379.539 207.34 380.663 206.999 381.812 206.999C383.354 206.999 384.832 207.611 385.922 208.7C387.012 209.79 387.624 211.267 387.624 212.808Z" fill="#FBB85E"/>
<path d="M143.641 101.807C143.643 102.76 143.362 103.693 142.833 104.487C142.305 105.28 141.553 105.899 140.672 106.266C139.792 106.632 138.822 106.729 137.886 106.544C136.951 106.359 136.091 105.901 135.416 105.228C134.74 104.555 134.28 103.696 134.093 102.762C133.907 101.827 134.001 100.857 134.366 99.9765C134.73 99.0956 135.348 98.3425 136.141 97.8127C136.934 97.2828 137.866 97 138.82 97C140.097 97 141.321 97.5061 142.225 98.4073C143.129 99.3085 143.638 100.531 143.641 101.807V101.807Z" fill="#F36FFF"/>
<path d="M332.729 167.451C331.398 167.451 330.096 167.056 328.99 166.317C327.883 165.577 327.02 164.526 326.511 163.297C326.002 162.067 325.87 160.714 326.13 159.41C326.391 158.105 327.033 156.906 327.975 155.966C328.917 155.026 330.117 154.386 331.423 154.128C332.729 153.87 334.082 154.004 335.312 154.515C336.541 155.026 337.591 155.889 338.33 156.997C339.068 158.104 339.461 159.406 339.458 160.736C339.456 162.518 338.745 164.226 337.484 165.485C336.222 166.744 334.512 167.451 332.729 167.451V167.451ZM332.729 156.142C331.82 156.142 330.931 156.412 330.176 156.917C329.42 157.421 328.831 158.139 328.483 158.978C328.135 159.818 328.044 160.741 328.221 161.632C328.399 162.524 328.836 163.342 329.479 163.985C330.122 164.627 330.941 165.065 331.833 165.242C332.724 165.419 333.648 165.328 334.488 164.98C335.328 164.633 336.046 164.044 336.551 163.288C337.056 162.533 337.326 161.645 337.326 160.736C337.326 159.518 336.841 158.349 335.979 157.488C335.117 156.626 333.948 156.142 332.729 156.142Z" fill="#4F5A79"/>
<path d="M101.599 177.192C100.491 177.192 99.4081 176.863 98.4871 176.248C97.5662 175.632 96.8486 174.758 96.4252 173.735C96.0017 172.712 95.8915 171.586 96.1084 170.5C96.3253 169.414 96.8596 168.417 97.6436 167.635C98.4277 166.853 99.4263 166.321 100.513 166.106C101.6 165.892 102.726 166.004 103.749 166.429C104.772 166.854 105.645 167.573 106.259 168.495C106.873 169.416 107.2 170.499 107.198 171.606C107.195 173.089 106.604 174.509 105.554 175.556C104.504 176.603 103.082 177.192 101.599 177.192ZM101.599 168.142C100.913 168.142 100.243 168.346 99.6732 168.726C99.1033 169.107 98.6591 169.648 98.3967 170.281C98.1344 170.914 98.0657 171.61 98.1994 172.282C98.3332 172.954 98.6633 173.571 99.148 174.056C99.6327 174.54 100.25 174.87 100.923 175.004C101.595 175.138 102.292 175.069 102.925 174.807C103.558 174.545 104.1 174.101 104.481 173.531C104.861 172.961 105.065 172.292 105.065 171.606C105.062 170.689 104.696 169.809 104.046 169.16C103.397 168.511 102.517 168.145 101.599 168.142V168.142Z" fill="#4F5A79"/>
<path d="M338.599 369.191C337.491 369.191 336.408 368.862 335.487 368.247C334.566 367.631 333.849 366.757 333.425 365.734C333.002 364.711 332.891 363.585 333.108 362.499C333.325 361.413 333.86 360.416 334.644 359.634C335.428 358.852 336.426 358.32 337.513 358.105C338.6 357.891 339.726 358.003 340.749 358.428C341.772 358.853 342.645 359.572 343.259 360.494C343.873 361.415 344.2 362.498 344.198 363.605C344.195 365.088 343.604 366.508 342.554 367.555C341.504 368.602 340.082 369.191 338.599 369.191ZM338.599 360.141C337.913 360.141 337.243 360.345 336.673 360.725C336.103 361.106 335.659 361.647 335.397 362.28C335.134 362.913 335.066 363.609 335.199 364.281C335.333 364.953 335.663 365.57 336.148 366.055C336.633 366.539 337.25 366.869 337.923 367.003C338.595 367.137 339.292 367.068 339.925 366.806C340.558 366.544 341.1 366.1 341.481 365.53C341.861 364.96 342.065 364.291 342.065 363.605C342.062 362.688 341.696 361.808 341.046 361.159C340.397 360.51 339.517 360.144 338.599 360.141V360.141Z" fill="#4F5A79"/>
<path d="M114.333 316.163C114.333 317.579 113.913 318.964 113.125 320.142C112.338 321.32 111.218 322.238 109.909 322.78C108.599 323.322 107.158 323.464 105.768 323.188C104.378 322.911 103.101 322.229 102.099 321.227C101.097 320.226 100.414 318.949 100.138 317.56C99.8612 316.171 100.003 314.73 100.546 313.422C101.088 312.113 102.006 310.994 103.185 310.207C104.363 309.42 105.749 309 107.166 309C108.108 309 109.039 309.185 109.909 309.545C110.778 309.905 111.568 310.433 112.234 311.098C112.899 311.763 113.427 312.553 113.787 313.422C114.148 314.291 114.333 315.222 114.333 316.163Z" fill="#FFEA80"/>
<rect x="228" y="237" width="30" height="4" fill="white"/>
<path d="M411.274 297.174C425.825 286.759 451.81 255.015 427.951 218.265C405.349 183.45 363.886 189.025 345.341 198.238" stroke="#4F5A79" stroke-width="2" stroke-linecap="round" stroke-dasharray="4 4"/>
<path d="M67.7052 160.844C72.1152 173.125 89.2136 197.674 119.745 188.251C148.668 179.324 153.01 149.126 150.238 134.282" stroke="#4F5A79" stroke-width="2" stroke-linecap="round" stroke-dasharray="4 4"/>
<path d="M233.237 107.503C228.827 95.2214 211.729 70.6728 181.197 80.096C152.274 89.0229 147.932 119.221 150.704 134.065" stroke="#4F5A79" stroke-width="2" stroke-linecap="round" stroke-dasharray="4 4"/>
<path d="M244.034 23.925L169.697 43.8721L183.601 95.8018L257.938 75.8548L244.034 23.925Z" fill="white"/>
<path d="M179.93 94.7362C179.677 94.7448 179.43 94.6677 179.227 94.5174C179.024 94.3671 178.878 94.1525 178.813 93.9085L165.038 42.1844C165 42.0424 164.99 41.8942 165.01 41.7483C165.029 41.6025 165.076 41.4619 165.15 41.3345C165.295 41.0776 165.536 40.8886 165.82 40.8089L239.92 21.0363C240.203 20.9623 240.504 21.0024 240.758 21.1481C241.012 21.3016 241.199 21.5451 241.283 21.8304L255.057 73.5992C255.132 73.8854 255.091 74.1896 254.942 74.4454C254.793 74.7011 254.549 74.8874 254.264 74.9635L180.22 94.725C180.124 94.7397 180.027 94.7434 179.93 94.7362V94.7362ZM167.529 42.6877L180.723 92.2534L252.61 73.0736L239.417 23.4967L167.529 42.6877Z" fill="#4F5A79"/>
<path d="M247.118 26.2493L226.258 31.8467L228.837 41.4798L249.697 35.8824L247.118 26.2493Z" fill="#62BEFB"/>
<path d="M221.855 63.8913C221.6 63.8988 221.35 63.8185 221.147 63.6638C220.944 63.5092 220.799 63.2895 220.738 63.0414C220.667 62.7552 220.712 62.4525 220.862 62.1991C221.013 61.9456 221.257 61.762 221.543 61.6881L241.439 56.5996C241.582 56.5628 241.731 56.5548 241.877 56.576C242.023 56.5972 242.164 56.6472 242.29 56.7231C242.417 56.799 242.528 56.8994 242.615 57.0183C242.703 57.1373 242.766 57.2725 242.802 57.4161C242.873 57.7038 242.826 58.0078 242.674 58.2615C242.521 58.5153 242.273 58.6979 241.986 58.7692L222.09 63.8466C222.015 63.874 221.935 63.8891 221.855 63.8913V63.8913Z" fill="#4F5A79"/>
<path d="M224.168 70.2441C223.872 70.2812 223.573 70.1989 223.337 70.0154C223.101 69.8319 222.948 69.5622 222.911 69.2656C222.874 68.969 222.956 68.6698 223.139 68.4339C223.323 68.1979 223.592 68.0445 223.889 68.0074L243.785 62.919C243.928 62.8822 244.077 62.8741 244.223 62.8953C244.369 62.9165 244.51 62.9665 244.636 63.0424C244.763 63.1184 244.874 63.2187 244.961 63.3377C245.049 63.4566 245.112 63.5917 245.148 63.7353C245.219 64.0215 245.174 64.3242 245.024 64.5776C244.873 64.8311 244.628 65.0147 244.343 65.0886L224.447 70.177C224.357 70.2106 224.263 70.2331 224.168 70.2441V70.2441Z" fill="#4F5A79"/>
<path d="M178.646 55.7049C178.349 55.739 178.052 55.6539 177.818 55.4683C177.584 55.2827 177.434 55.0117 177.4 54.7151C177.366 54.4185 177.451 54.1205 177.636 53.8867C177.822 53.6528 178.092 53.5023 178.389 53.4682L197.849 48.7487C197.992 48.7138 198.141 48.7074 198.286 48.7301C198.432 48.7529 198.571 48.8042 198.697 48.8811C198.822 48.958 198.932 49.059 199.018 49.1783C199.105 49.2976 199.167 49.4329 199.201 49.5763C199.268 49.8639 199.219 50.1665 199.064 50.4179C198.909 50.6694 198.661 50.8492 198.374 50.9183L178.914 55.7049C178.825 55.7157 178.735 55.7157 178.646 55.7049Z" fill="#4F5A79"/>
<rect x="182" y="354" width="120" height="4" fill="#D2F0FF"/>
<mask id="path-43-inside-1_1213_857" fill="white">
<path fill-rule="evenodd" clip-rule="evenodd" d="M200.041 192.042C211.675 192.042 221.106 182.611 221.106 170.977C221.106 159.343 211.675 149.912 200.041 149.912C188.408 149.912 178.976 159.343 178.976 170.977C178.976 173.657 179.477 176.22 180.39 178.578L176 182.703L191.185 198.861L198.5 191.986C199.009 192.023 199.523 192.042 200.041 192.042Z"/>
</mask>
<path fill-rule="evenodd" clip-rule="evenodd" d="M200.041 192.042C211.675 192.042 221.106 182.611 221.106 170.977C221.106 159.343 211.675 149.912 200.041 149.912C188.408 149.912 178.976 159.343 178.976 170.977C178.976 173.657 179.477 176.22 180.39 178.578L176 182.703L191.185 198.861L198.5 191.986C199.009 192.023 199.523 192.042 200.041 192.042Z" fill="white"/>
<path d="M180.39 178.578L181.759 180.035L182.741 179.113L182.255 177.856L180.39 178.578ZM176 182.703L174.63 181.246L173.173 182.616L174.543 184.073L176 182.703ZM191.185 198.861L189.728 200.231L191.098 201.688L192.555 200.318L191.185 198.861ZM198.5 191.986L198.645 189.991L197.77 189.928L197.131 190.529L198.5 191.986ZM219.106 170.977C219.106 181.506 210.571 190.042 200.041 190.042V194.042C212.78 194.042 223.106 183.715 223.106 170.977H219.106ZM200.041 151.912C210.571 151.912 219.106 160.448 219.106 170.977H223.106C223.106 158.239 212.78 147.912 200.041 147.912V151.912ZM180.976 170.977C180.976 160.448 189.512 151.912 200.041 151.912V147.912C187.303 147.912 176.976 158.239 176.976 170.977H180.976ZM182.255 177.856C181.43 175.725 180.976 173.406 180.976 170.977H176.976C176.976 173.908 177.524 176.715 178.524 179.3L182.255 177.856ZM177.37 184.161L181.759 180.035L179.02 177.121L174.63 181.246L177.37 184.161ZM192.643 197.491L177.457 181.334L174.543 184.073L189.728 200.231L192.643 197.491ZM197.131 190.529L189.816 197.404L192.555 200.318L199.87 193.444L197.131 190.529ZM200.041 190.042C199.571 190.042 199.105 190.025 198.645 189.991L198.356 193.981C198.913 194.021 199.475 194.042 200.041 194.042V190.042Z" fill="#4F5A79" mask="url(#path-43-inside-1_1213_857)"/>
<mask id="path-45-inside-2_1213_857" fill="white">
<path fill-rule="evenodd" clip-rule="evenodd" d="M284.064 192.042C272.43 192.042 262.999 182.611 262.999 170.977C262.999 159.343 272.43 149.912 284.064 149.912C295.698 149.912 305.129 159.343 305.129 170.977C305.129 173.657 304.628 176.22 303.716 178.578L308.105 182.703L292.92 198.861L285.605 191.986C285.096 192.023 284.582 192.042 284.064 192.042Z"/>
</mask>
<path fill-rule="evenodd" clip-rule="evenodd" d="M284.064 192.042C272.43 192.042 262.999 182.611 262.999 170.977C262.999 159.343 272.43 149.912 284.064 149.912C295.698 149.912 305.129 159.343 305.129 170.977C305.129 173.657 304.628 176.22 303.716 178.578L308.105 182.703L292.92 198.861L285.605 191.986C285.096 192.023 284.582 192.042 284.064 192.042Z" fill="white"/>
<path d="M303.716 178.578L302.346 180.035L301.364 179.113L301.851 177.856L303.716 178.578ZM308.105 182.703L309.475 181.246L310.933 182.616L309.563 184.073L308.105 182.703ZM292.92 198.861L294.377 200.231L293.008 201.688L291.55 200.318L292.92 198.861ZM285.605 191.986L285.461 189.991L286.336 189.928L286.975 190.529L285.605 191.986ZM264.999 170.977C264.999 181.506 273.535 190.042 284.064 190.042V194.042C271.326 194.042 260.999 183.715 260.999 170.977H264.999ZM284.064 151.912C273.535 151.912 264.999 160.448 264.999 170.977H260.999C260.999 158.239 271.326 147.912 284.064 147.912V151.912ZM303.129 170.977C303.129 160.448 294.593 151.912 284.064 151.912V147.912C296.803 147.912 307.129 158.239 307.129 170.977H303.129ZM301.851 177.856C302.676 175.725 303.129 173.406 303.129 170.977H307.129C307.129 173.908 306.581 176.715 305.581 179.3L301.851 177.856ZM306.736 184.161L302.346 180.035L305.086 177.121L309.475 181.246L306.736 184.161ZM291.463 197.491L306.648 181.334L309.563 184.073L294.377 200.231L291.463 197.491ZM286.975 190.529L294.29 197.404L291.55 200.318L284.235 193.444L286.975 190.529ZM284.064 190.042C284.534 190.042 285 190.025 285.461 189.991L285.749 193.981C285.193 194.021 284.631 194.042 284.064 194.042V190.042Z" fill="#4F5A79" mask="url(#path-45-inside-2_1213_857)"/>
<path fill-rule="evenodd" clip-rule="evenodd" d="M189.56 242.335L141.322 249.694L197.5 196L176 180L101.41 239.716C89.2141 249.694 77.6839 272.311 129.126 282.954L182 285.975V357H304V284.878L357.082 281.845C408.524 271.202 396.994 248.585 384.799 238.607L308 180.5L289.5 198.5L344.886 248.585L293.857 240.8C291.483 239.647 288.817 239 286 239H282.053L279.475 238.607V239H200C196.108 239 192.504 240.235 189.56 242.335Z" fill="#D2F0FF"/>
<path d="M140.322 249.694L139.64 248.962L137.267 251.171L140.473 250.682L140.322 249.694ZM188.56 242.335L188.711 243.324L188.947 243.288L189.141 243.149L188.56 242.335ZM198 196L198.682 196.732L199.557 195.917L198.6 195.2L198 196ZM176 179.5L176.6 178.7L175.982 178.236L175.377 178.718L176 179.5ZM100.41 239.716L99.7864 238.933L99.7763 238.942L100.41 239.716ZM128.126 282.954L127.924 283.933L127.996 283.948L128.069 283.952L128.126 282.954ZM181 285.975H182V285.031L181.057 284.977L181 285.975ZM181 357H180V358H181V357ZM303 357V358H304V357H303ZM303 284.878L302.943 283.88L302 283.934V284.878H303ZM356.082 281.845L356.139 282.843L356.212 282.839L356.284 282.824L356.082 281.845ZM383.799 238.607L384.432 237.833L384.423 237.825L384.414 237.818L383.799 238.607ZM308 179.5L308.615 178.711L307.918 178.168L307.293 178.793L308 179.5ZM289 198.5L288.293 197.793L287.553 198.533L288.326 199.239L289 198.5ZM343.886 248.585L343.736 249.573L346.999 250.071L344.56 247.846L343.886 248.585ZM292.857 240.8L292.42 241.7L292.556 241.766L292.706 241.789L292.857 240.8ZM281.053 239L280.903 239.989L280.978 240H281.053V239ZM278.475 238.607L278.625 237.618L277.475 237.443V238.607H278.475ZM278.475 239V240H279.475V239H278.475ZM140.473 250.682L188.711 243.324L188.409 241.347L140.171 248.705L140.473 250.682ZM197.319 195.268L139.64 248.962L141.003 250.426L198.682 196.732L197.319 195.268ZM175.4 180.3L197.4 196.8L198.6 195.2L176.6 178.7L175.4 180.3ZM101.033 240.498L176.623 180.282L175.377 178.718L99.7864 238.933L101.033 240.498ZM128.329 281.975C115.532 279.327 106.736 275.95 100.913 272.266C95.1007 268.588 92.3079 264.643 91.3748 260.847C90.4396 257.042 91.3274 253.204 93.2412 249.659C95.1567 246.111 98.0679 242.923 101.043 240.489L99.7763 238.942C96.6534 241.497 93.55 244.878 91.4813 248.709C89.4108 252.544 88.3445 256.897 89.4326 261.324C90.5228 265.759 93.7307 270.088 99.8436 273.956C105.946 277.817 115 281.259 127.924 283.933L128.329 281.975ZM181.057 284.977L128.183 281.955L128.069 283.952L180.943 286.974L181.057 284.977ZM182 357V285.975H180V357H182ZM303 356H181V358H303V356ZM302 284.878V357H304V284.878H302ZM356.025 280.847L302.943 283.88L303.057 285.877L356.139 282.843L356.025 280.847ZM383.165 239.381C386.14 241.815 389.051 245.003 390.967 248.55C392.881 252.095 393.769 255.933 392.833 259.738C391.9 263.534 389.107 267.479 383.295 271.157C377.473 274.841 368.677 278.218 355.879 280.866L356.284 282.824C369.208 280.15 378.262 276.709 384.365 272.847C390.477 268.979 393.685 264.65 394.776 260.215C395.864 255.788 394.797 251.435 392.727 247.6C390.658 243.769 387.555 240.388 384.432 237.833L383.165 239.381ZM307.386 180.289L383.184 239.395L384.414 237.818L308.615 178.711L307.386 180.289ZM289.708 199.207L308.708 180.207L307.293 178.793L288.293 197.793L289.708 199.207ZM344.56 247.846L289.675 197.761L288.326 199.239L343.212 249.323L344.56 247.846ZM292.706 241.789L343.736 249.573L344.037 247.596L293.007 239.812L292.706 241.789ZM285 240C287.662 240 290.179 240.611 292.42 241.7L293.294 239.901C290.786 238.683 287.972 238 285 238V240ZM281.053 240H285V238H281.053V240ZM278.324 239.595L280.903 239.989L281.204 238.011L278.625 237.618L278.324 239.595ZM279.475 239V238.607H277.475V239H279.475ZM199 240H278.475V238H199V240ZM189.141 243.149C191.921 241.166 195.323 240 199 240V238C194.893 238 191.088 239.304 187.979 241.521L189.141 243.149Z" fill="#4F5A79"/>
<rect x="227" y="216" width="32" height="23" fill="white" stroke="#4F5A79" stroke-width="2"/>
<circle cx="242.888" cy="237.497" r="15.6301" fill="white" stroke="#4F5A79" stroke-width="2"/>
<path d="M214.528 206.143C214.586 208.554 215.599 210.843 217.345 212.509C219.091 214.174 221.426 215.079 223.839 215.025L264.744 214.089C265.948 214.091 267.139 213.849 268.246 213.377C269.353 212.905 270.352 212.213 271.183 211.344C272.014 210.474 272.659 209.445 273.079 208.318C273.5 207.191 273.687 205.991 273.629 204.79L272.263 144.227C272.205 141.816 271.192 139.526 269.446 137.861C267.701 136.195 265.365 135.29 262.953 135.344L222.004 136.269C220.801 136.267 219.609 136.51 218.502 136.981C217.396 137.453 216.396 138.145 215.565 139.015C214.734 139.885 214.089 140.914 213.669 142.041C213.248 143.167 213.061 144.368 213.119 145.569L214.528 206.143Z" fill="white"/>
<path d="M213.377 158.034C210.586 155.331 208.281 152.167 206.567 148.681C206.457 146.459 206.907 144.245 207.874 142.242C208.841 140.239 210.296 138.51 212.104 137.213C216.599 134.453 220.462 139.313 220.462 139.313C220.462 139.313 213.305 143.555 212.969 145.073C212.634 146.59 213.377 158.034 213.377 158.034Z" fill="#948875"/>
<path d="M277.076 171.381C277.076 171.381 282.947 148.008 281.413 141.171C279.879 134.333 279.269 129.65 270.716 129.057C258.199 128.201 258.131 130.838 251.994 127.192C245.857 123.545 234.716 114.66 230.935 113.848C229.008 113.253 226.966 113.134 224.984 113.5C223.001 113.866 221.137 114.706 219.551 115.949C217.964 117.192 216.703 118.801 215.875 120.638C215.047 122.475 214.677 124.485 214.797 126.496C214.922 128.668 214.498 130.836 213.565 132.801C212.631 134.765 211.217 136.463 209.454 137.738C209.959 138.826 212.285 139.776 216.259 141.644C227.77 147.052 234.62 148.041 243.295 145.598C251.969 143.155 268.144 137.838 270.12 144.191C272.097 150.545 271.852 170.298 272.659 171.827C273.465 173.357 275.545 172.552 277.076 171.381Z" fill="#948875"/>
<path d="M264.604 189.846C264.61 190.245 264.695 190.639 264.854 191.006C265.014 191.372 265.244 191.703 265.533 191.98C265.821 192.257 266.161 192.474 266.534 192.618C266.907 192.762 267.305 192.831 267.704 192.821L276.549 192.617C276.946 192.606 277.337 192.517 277.699 192.355C278.061 192.193 278.388 191.96 278.661 191.672C278.933 191.383 279.146 191.044 279.287 190.673C279.428 190.302 279.494 189.907 279.482 189.51L278.969 173.32C278.937 172.511 278.591 171.747 278.004 171.189C277.417 170.632 276.636 170.325 275.826 170.334L266.981 170.537C266.584 170.548 266.194 170.638 265.831 170.8C265.469 170.962 265.142 171.194 264.87 171.483C264.597 171.771 264.384 172.111 264.243 172.482C264.102 172.853 264.036 173.248 264.048 173.644L264.604 189.846Z" fill="white"/>
<path d="M211.818 191.046C211.841 191.849 212.179 192.61 212.759 193.167C213.338 193.723 214.114 194.03 214.917 194.021L223.762 193.817C224.566 193.794 225.328 193.457 225.884 192.878C226.441 192.299 226.748 191.524 226.738 190.721L226.236 174.487C226.225 174.091 226.135 173.7 225.973 173.338C225.81 172.976 225.578 172.649 225.289 172.377C225 172.105 224.66 171.892 224.289 171.751C223.918 171.61 223.522 171.543 223.125 171.555L214.281 171.759C213.884 171.77 213.493 171.859 213.131 172.021C212.768 172.184 212.442 172.416 212.169 172.704C211.897 172.993 211.684 173.332 211.543 173.703C211.402 174.074 211.336 174.469 211.348 174.866L211.818 191.046Z" fill="white"/>
<path fill-rule="evenodd" clip-rule="evenodd" d="M241.861 194.346L241.86 194.346L241.86 194.439C237.618 194.609 231.747 195.035 229.131 196.423C225.835 198.171 217.886 203.244 216.028 206.173L216.028 191.644C211.967 197.375 211.189 202.893 210.272 209.392L210.272 209.392C210.197 209.926 210.121 210.466 210.042 211.013C210.21 216.816 213.472 235.18 241.278 234.673C241.964 234.659 242.64 234.642 243.305 234.621C243.97 234.642 244.645 234.659 245.331 234.673C273.137 235.18 276.399 216.816 276.568 211.013C276.489 210.467 276.413 209.929 276.338 209.397L276.337 209.392C275.42 202.893 274.642 197.375 270.581 191.644L270.581 206.173C268.723 203.244 260.774 198.171 257.479 196.423C254.862 195.035 248.992 194.609 244.749 194.439L244.749 194.346L244.749 194.346L244.669 194.348L244.669 194.348C244.26 194.359 243.801 194.372 243.305 194.388C242.808 194.372 242.35 194.359 241.94 194.348L241.861 194.346Z" fill="#948875"/>
<path fill-rule="evenodd" clip-rule="evenodd" d="M248.817 204.027L234.87 203.736C234.428 203.724 233.993 203.791 233.589 203.935C233.185 204.08 232.821 204.297 232.518 204.575C232.215 204.852 231.979 205.185 231.824 205.554C231.668 205.923 231.597 206.32 231.613 206.722L231.68 208.312L231.613 209.902C231.597 210.304 231.668 210.701 231.824 211.07C231.979 211.439 232.215 211.772 232.518 212.05C232.821 212.327 233.185 212.545 233.589 212.689C233.993 212.833 234.428 212.9 234.87 212.888L248.817 212.597C249.259 212.59 249.699 212.503 250.113 212.341C250.527 212.18 250.906 211.946 251.227 211.655C251.549 211.364 251.808 211.02 251.988 210.644C252.168 210.268 252.267 209.867 252.277 209.465L252.296 208.873L252.33 208.874L252.313 208.312L252.33 207.751L252.296 207.751L252.277 207.159C252.267 206.757 252.168 206.356 251.988 205.98C251.808 205.604 251.549 205.261 251.227 204.969C250.906 204.678 250.527 204.444 250.113 204.283C249.699 204.121 249.259 204.034 248.817 204.027Z" fill="white"/>
<path fill-rule="evenodd" clip-rule="evenodd" d="M235.12 166.178C237.487 163.473 243.846 159.685 250.34 166.178V172.266C243.846 165.773 237.487 169.561 235.12 172.266V166.178Z" fill="#4F5A79"/>
<path d="M235.024 159.375L220.915 152.445V193.032L235.024 184.123C242.549 173.828 238.159 163.334 235.024 159.375Z" fill="#4F5A79"/>
<path d="M251.451 159.375L265.56 152.445V193.032L251.451 184.123C243.926 173.828 248.316 163.334 251.451 159.375Z" fill="#4F5A79"/>
<circle cx="212.797" cy="172.739" r="22.3227" fill="#4F5A79"/>
<circle cx="212.797" cy="172.739" r="17.7042" transform="rotate(180 212.797 172.739)" fill="#FFEA80"/>
<circle cx="273.677" cy="172.739" r="22.3227" fill="#4F5A79"/>
<circle cx="273.677" cy="172.739" r="17.7042" transform="rotate(180 273.677 172.739)" fill="#FFEA80"/>
</svg>
